G04 #@! TF.GenerationSoftware,KiCad,Pcbnew,(7.0.0-0)*
G04 #@! TF.CreationDate,2023-10-24T18:27:41+08:00*
G04 #@! TF.ProjectId,Revolute,5265766f-6c75-4746-952e-6b696361645f,rev?*
G04 #@! TF.SameCoordinates,Original*
G04 #@! TF.FileFunction,Copper,L4,Bot*
G04 #@! TF.FilePolarity,Positive*
%FSLAX46Y46*%
G04 Gerber Fmt 4.6, Leading zero omitted, Abs format (unit mm)*
G04 Created by KiCad (PCBNEW (7.0.0-0)) date 2023-10-24 18:27:41*
%MOMM*%
%LPD*%
G01*
G04 APERTURE LIST*
G04 Aperture macros list*
%AMRoundRect*
0 Rectangle with rounded corners*
0 $1 Rounding radius*
0 $2 $3 $4 $5 $6 $7 $8 $9 X,Y pos of 4 corners*
0 Add a 4 corners polygon primitive as box body*
4,1,4,$2,$3,$4,$5,$6,$7,$8,$9,$2,$3,0*
0 Add four circle primitives for the rounded corners*
1,1,$1+$1,$2,$3*
1,1,$1+$1,$4,$5*
1,1,$1+$1,$6,$7*
1,1,$1+$1,$8,$9*
0 Add four rect primitives between the rounded corners*
20,1,$1+$1,$2,$3,$4,$5,0*
20,1,$1+$1,$4,$5,$6,$7,0*
20,1,$1+$1,$6,$7,$8,$9,0*
20,1,$1+$1,$8,$9,$2,$3,0*%
%AMOutline4P*
0 Free polygon, 4 corners , with rotation*
0 The origin of the aperture is its center*
0 number of corners: always 4*
0 $1 to $8 corner X, Y*
0 $9 Rotation angle, in degrees counterclockwise*
0 create outline with 4 corners*
4,1,4,$1,$2,$3,$4,$5,$6,$7,$8,$1,$2,$9*%
%AMFreePoly0*
4,1,17,-0.950000,0.475000,-0.941719,0.563308,-0.894955,0.696953,-0.810876,0.810876,-0.696953,0.894955,-0.563308,0.941719,-0.475000,0.950000,0.475000,0.950000,0.563308,0.941719,0.696953,0.894955,0.810876,0.810876,0.894955,0.696953,0.941719,0.563308,0.950000,0.475000,0.950000,-0.950000,-0.950000,-0.950000,-0.950000,0.475000,-0.950000,0.475000,$1*%
%AMFreePoly1*
4,1,42,1.022267,0.592764,1.045399,0.589101,1.051104,0.583395,1.058779,0.580902,1.072544,0.561955,1.089101,0.545399,1.090363,0.537429,1.095106,0.530902,1.095106,0.507488,1.098770,0.484357,1.095106,0.477166,1.095106,0.469098,1.081341,0.450152,1.070711,0.429290,0.070711,-0.570711,0.056598,-0.577901,0.045399,-0.589101,0.029754,-0.591579,0.015643,-0.598769,0.000002,-0.596291,
-0.015643,-0.598770,-0.029756,-0.591578,-0.045399,-0.589101,-0.056598,-0.577901,-0.070710,-0.570711,-1.070711,0.429289,-1.081341,0.450152,-1.095106,0.469098,-1.095106,0.477168,-1.098769,0.484357,-1.095106,0.507485,-1.095106,0.530902,-1.090363,0.537429,-1.089101,0.545399,-1.072544,0.561955,-1.058779,0.580902,-1.051104,0.583395,-1.045399,0.589101,-1.022269,0.592764,-1.000000,0.600000,
1.000000,0.600000,1.022267,0.592764,1.022267,0.592764,$1*%
G04 Aperture macros list end*
G04 #@! TA.AperFunction,SMDPad,CuDef*
%ADD10RoundRect,0.150000X-3.725000X0.600000X-3.725000X-0.600000X3.725000X-0.600000X3.725000X0.600000X0*%
G04 #@! TD*
G04 #@! TA.AperFunction,SMDPad,CuDef*
%ADD11RoundRect,0.150000X-3.175000X0.600000X-3.175000X-0.600000X3.175000X-0.600000X3.175000X0.600000X0*%
G04 #@! TD*
G04 #@! TA.AperFunction,SMDPad,CuDef*
%ADD12FreePoly0,180.000000*%
G04 #@! TD*
G04 #@! TA.AperFunction,SMDPad,CuDef*
%ADD13Outline4P,-0.950000X0.950000X0.950000X0.950000X0.950000X-0.950000X-0.950000X-0.950000X0.000000*%
G04 #@! TD*
G04 #@! TA.AperFunction,SMDPad,CuDef*
%ADD14FreePoly0,0.000000*%
G04 #@! TD*
G04 #@! TA.AperFunction,SMDPad,CuDef*
%ADD15FreePoly1,90.000000*%
G04 #@! TD*
G04 #@! TA.AperFunction,SMDPad,CuDef*
%ADD16FreePoly1,0.000000*%
G04 #@! TD*
G04 #@! TA.AperFunction,SMDPad,CuDef*
%ADD17FreePoly1,270.000000*%
G04 #@! TD*
G04 #@! TA.AperFunction,SMDPad,CuDef*
%ADD18FreePoly1,180.000000*%
G04 #@! TD*
G04 #@! TA.AperFunction,ViaPad*
%ADD19C,0.500000*%
G04 #@! TD*
G04 #@! TA.AperFunction,Conductor*
%ADD20C,0.250000*%
G04 #@! TD*
G04 #@! TA.AperFunction,Conductor*
%ADD21C,0.150000*%
G04 #@! TD*
G04 APERTURE END LIST*
D10*
X170875000Y-84050000D03*
D11*
X171425000Y-86483000D03*
X171425000Y-88917000D03*
D10*
X170875000Y-91350000D03*
D12*
X181339999Y-91589999D03*
D13*
X181339999Y-89489999D03*
X181339999Y-87389999D03*
D14*
X181339999Y-85289999D03*
D15*
X177240000Y-90890000D03*
D16*
X178040000Y-90090000D03*
D17*
X178840000Y-90890000D03*
D18*
X178040000Y-91690000D03*
D19*
X171700000Y-87700000D03*
X172700000Y-87700000D03*
X166480000Y-92050000D03*
X176270000Y-83220000D03*
X178470000Y-85070000D03*
X166490000Y-85320000D03*
X166490000Y-91020000D03*
X179392780Y-84952132D03*
X173700000Y-87700000D03*
X166490000Y-84300000D03*
X166480000Y-90030000D03*
X166480000Y-89010000D03*
X168180000Y-90150000D03*
X181900000Y-85620000D03*
X175130000Y-84910000D03*
X176170000Y-91910000D03*
X169610000Y-85260000D03*
X175910000Y-87390000D03*
X170730000Y-85290000D03*
X167557188Y-83520000D03*
X179250000Y-87120000D03*
X168320000Y-92480000D03*
X166610000Y-86480000D03*
X170220000Y-92480000D03*
X170300000Y-90160000D03*
X176240000Y-90890000D03*
X175380000Y-91260000D03*
X176960000Y-91430000D03*
X168880000Y-87670000D03*
X181860000Y-89870000D03*
X181760000Y-87960000D03*
X170287132Y-87667132D03*
X175080000Y-88080000D03*
X180420000Y-83980000D03*
X181280000Y-83420000D03*
X175437780Y-88820000D03*
D20*
X168600000Y-84050000D02*
X170875000Y-84050000D01*
X167626832Y-83520000D02*
X167680602Y-83573770D01*
X167557188Y-83520000D02*
X167626832Y-83520000D01*
X167680609Y-83573765D02*
G75*
G03*
X168600000Y-84049999I921991J654365D01*
G01*
X166610000Y-86480000D02*
X171422000Y-86480000D01*
X171425000Y-86483000D02*
G75*
G03*
X171422000Y-86480000I-3000J0D01*
G01*
X170300000Y-90160000D02*
X170300000Y-90042000D01*
X171425000Y-88917000D02*
G75*
G03*
X170300000Y-90042000I0J-1125000D01*
G01*
D21*
X176840000Y-89460000D02*
X177410000Y-89460000D01*
X176240000Y-90890000D02*
X176240000Y-90060000D01*
X178040000Y-90090000D02*
G75*
G03*
X177410000Y-89460000I-630000J0D01*
G01*
X176840000Y-89460000D02*
G75*
G03*
X176240000Y-90060000I0J-600000D01*
G01*
X175380000Y-91260000D02*
X175380000Y-90850000D01*
X177090000Y-89140000D02*
X178900000Y-89140000D01*
X178890000Y-90890000D02*
X178840000Y-90890000D01*
X179770000Y-90010000D02*
G75*
G03*
X178900000Y-89140000I-870000J0D01*
G01*
X178890000Y-90890000D02*
G75*
G03*
X179770000Y-90010000I0J880000D01*
G01*
X177090000Y-89140000D02*
G75*
G03*
X175380000Y-90850000I0J-1710000D01*
G01*
G04 #@! TA.AperFunction,Conductor*
G36*
X181773222Y-82360782D02*
G01*
X181812078Y-82364181D01*
X181935374Y-82374968D01*
X181948067Y-82377205D01*
X182102177Y-82418498D01*
X182114297Y-82422910D01*
X182258889Y-82490335D01*
X182270050Y-82496779D01*
X182400734Y-82588285D01*
X182410615Y-82596576D01*
X182523423Y-82709384D01*
X182531714Y-82719265D01*
X182623217Y-82849944D01*
X182629667Y-82861115D01*
X182697089Y-83005703D01*
X182701501Y-83017824D01*
X182742792Y-83171924D01*
X182745031Y-83184627D01*
X182759218Y-83346777D01*
X182759500Y-83353227D01*
X182759500Y-92046773D01*
X182759218Y-92053223D01*
X182745031Y-92215372D01*
X182742792Y-92228075D01*
X182701501Y-92382175D01*
X182697089Y-92394296D01*
X182629667Y-92538884D01*
X182623217Y-92550055D01*
X182531714Y-92680734D01*
X182523423Y-92690615D01*
X182410615Y-92803423D01*
X182400734Y-92811714D01*
X182270055Y-92903217D01*
X182258884Y-92909667D01*
X182114296Y-92977089D01*
X182102175Y-92981501D01*
X181948075Y-93022792D01*
X181935372Y-93025031D01*
X181773223Y-93039218D01*
X181766773Y-93039500D01*
X167003227Y-93039500D01*
X166996777Y-93039218D01*
X166834627Y-93025031D01*
X166821924Y-93022792D01*
X166667824Y-92981501D01*
X166655703Y-92977089D01*
X166511115Y-92909667D01*
X166499944Y-92903217D01*
X166474630Y-92885492D01*
X166369265Y-92811714D01*
X166359384Y-92803423D01*
X166246576Y-92690615D01*
X166238285Y-92680734D01*
X166237951Y-92680257D01*
X166146779Y-92550050D01*
X166140335Y-92538889D01*
X166080903Y-92411438D01*
X166072910Y-92394296D01*
X166068498Y-92382175D01*
X166027205Y-92228067D01*
X166024968Y-92215371D01*
X166023355Y-92196938D01*
X166013415Y-92083317D01*
X166010782Y-92053222D01*
X166010500Y-92046773D01*
X166010500Y-91992647D01*
X166850001Y-91992647D01*
X166850248Y-91996925D01*
X166852268Y-92014343D01*
X166855158Y-92024967D01*
X166895443Y-92116205D01*
X166903061Y-92127326D01*
X166972673Y-92196938D01*
X166983794Y-92204556D01*
X167075036Y-92244843D01*
X167085650Y-92247731D01*
X167103078Y-92249753D01*
X167107350Y-92249999D01*
X167867477Y-92249999D01*
X167910972Y-92264131D01*
X167937855Y-92301130D01*
X167937856Y-92346864D01*
X167936996Y-92349510D01*
X167934354Y-92354696D01*
X167933443Y-92360446D01*
X167933443Y-92360447D01*
X167923733Y-92421752D01*
X167914508Y-92480000D01*
X167915419Y-92485752D01*
X167925603Y-92550055D01*
X167934354Y-92605304D01*
X167991950Y-92718342D01*
X168081658Y-92808050D01*
X168194696Y-92865646D01*
X168320000Y-92885492D01*
X168445304Y-92865646D01*
X168558342Y-92808050D01*
X168648050Y-92718342D01*
X168705646Y-92605304D01*
X168725492Y-92480000D01*
X168705646Y-92354696D01*
X168703001Y-92349505D01*
X168702144Y-92346867D01*
X168702144Y-92301132D01*
X168729026Y-92264132D01*
X168772522Y-92249999D01*
X169767477Y-92249999D01*
X169810972Y-92264131D01*
X169837855Y-92301130D01*
X169837856Y-92346864D01*
X169836996Y-92349510D01*
X169834354Y-92354696D01*
X169833443Y-92360446D01*
X169833443Y-92360447D01*
X169823733Y-92421752D01*
X169814508Y-92480000D01*
X169815419Y-92485752D01*
X169825603Y-92550055D01*
X169834354Y-92605304D01*
X169891950Y-92718342D01*
X169981658Y-92808050D01*
X170094696Y-92865646D01*
X170220000Y-92885492D01*
X170345304Y-92865646D01*
X170458342Y-92808050D01*
X170548050Y-92718342D01*
X170605646Y-92605304D01*
X170625492Y-92480000D01*
X170619318Y-92441016D01*
X177574544Y-92441016D01*
X177580882Y-92442939D01*
X178499118Y-92442939D01*
X178505455Y-92441016D01*
X178502335Y-92435178D01*
X178046887Y-91979730D01*
X178040000Y-91975753D01*
X178033112Y-91979730D01*
X177577664Y-92435178D01*
X177574544Y-92441016D01*
X170619318Y-92441016D01*
X170605646Y-92354696D01*
X170603001Y-92349505D01*
X170602144Y-92346867D01*
X170602147Y-92301123D01*
X170629042Y-92264120D01*
X170656561Y-92255188D01*
X170655847Y-92252521D01*
X170672941Y-92247940D01*
X170675000Y-92240257D01*
X170675000Y-92240256D01*
X171075000Y-92240256D01*
X171077059Y-92247939D01*
X171084743Y-92249999D01*
X174642647Y-92249999D01*
X174646925Y-92249751D01*
X174664343Y-92247731D01*
X174674967Y-92244841D01*
X174766205Y-92204556D01*
X174777326Y-92196938D01*
X174846938Y-92127326D01*
X174854556Y-92116205D01*
X174894843Y-92024963D01*
X174897731Y-92014349D01*
X174899753Y-91996921D01*
X174899999Y-91992649D01*
X174899999Y-91508353D01*
X174915885Y-91462540D01*
X174956724Y-91436398D01*
X175004979Y-91441150D01*
X175039932Y-91474756D01*
X175051950Y-91498342D01*
X175141658Y-91588050D01*
X175254696Y-91645646D01*
X175380000Y-91665492D01*
X175505304Y-91645646D01*
X175618342Y-91588050D01*
X175708050Y-91498342D01*
X175765646Y-91385304D01*
X175785492Y-91260000D01*
X175771282Y-91170283D01*
X175776456Y-91129324D01*
X175802772Y-91097509D01*
X175842038Y-91084747D01*
X175882030Y-91095009D01*
X175904790Y-91119238D01*
X175905885Y-91118443D01*
X175909304Y-91123149D01*
X175911950Y-91128342D01*
X176001658Y-91218050D01*
X176114696Y-91275646D01*
X176240000Y-91295492D01*
X176365304Y-91275646D01*
X176378958Y-91268688D01*
X176427936Y-91262240D01*
X176470060Y-91288053D01*
X176486552Y-91334623D01*
X176486552Y-91501044D01*
X176470061Y-91547614D01*
X176427937Y-91573427D01*
X176378958Y-91566978D01*
X176295304Y-91524354D01*
X176289550Y-91523442D01*
X176289548Y-91523442D01*
X176175752Y-91505419D01*
X176170000Y-91504508D01*
X176164248Y-91505419D01*
X176050451Y-91523442D01*
X176050447Y-91523442D01*
X176044696Y-91524354D01*
X176039504Y-91526999D01*
X176039502Y-91527000D01*
X175936850Y-91579304D01*
X175936847Y-91579305D01*
X175931658Y-91581950D01*
X175927541Y-91586066D01*
X175927538Y-91586069D01*
X175846069Y-91667538D01*
X175846066Y-91667541D01*
X175841950Y-91671658D01*
X175839305Y-91676847D01*
X175839304Y-91676850D01*
X175787000Y-91779502D01*
X175784354Y-91784696D01*
X175783442Y-91790447D01*
X175783442Y-91790451D01*
X175773160Y-91855372D01*
X175764508Y-91910000D01*
X175765419Y-91915752D01*
X175782716Y-92024967D01*
X175784354Y-92035304D01*
X175787000Y-92040497D01*
X175832270Y-92129345D01*
X175841950Y-92148342D01*
X175931658Y-92238050D01*
X176044696Y-92295646D01*
X176170000Y-92315492D01*
X176295304Y-92295646D01*
X176408342Y-92238050D01*
X176498050Y-92148342D01*
X176502750Y-92139116D01*
X176531684Y-92108623D01*
X176572560Y-92098808D01*
X176612184Y-92112840D01*
X176622601Y-92120409D01*
X176636414Y-92124896D01*
X176647148Y-92129343D01*
X176660085Y-92135936D01*
X176707508Y-92143448D01*
X176713061Y-92143448D01*
X176750061Y-92153362D01*
X176777147Y-92180448D01*
X176787061Y-92217448D01*
X176787061Y-92219584D01*
X176787515Y-92225362D01*
X176793636Y-92264006D01*
X176797192Y-92274949D01*
X176801124Y-92282665D01*
X176805567Y-92293391D01*
X176808242Y-92301623D01*
X176813469Y-92311881D01*
X176836462Y-92343528D01*
X176840229Y-92347939D01*
X176842951Y-92350661D01*
X176850491Y-92359489D01*
X176852757Y-92362608D01*
X176856516Y-92367009D01*
X176884185Y-92394678D01*
X176893492Y-92401439D01*
X176901196Y-92405364D01*
X176911108Y-92411438D01*
X176918114Y-92416529D01*
X176928364Y-92421752D01*
X176965569Y-92433841D01*
X176971218Y-92435197D01*
X176990239Y-92438210D01*
X176995112Y-92438337D01*
X176998293Y-92438841D01*
X177006295Y-92438211D01*
X177013137Y-92434018D01*
X177987673Y-91459482D01*
X178020846Y-91440329D01*
X178059152Y-91440329D01*
X178092325Y-91459482D01*
X179066859Y-92434016D01*
X179073702Y-92438210D01*
X179081702Y-92438839D01*
X179084884Y-92438336D01*
X179089774Y-92438208D01*
X179108775Y-92435199D01*
X179114429Y-92433841D01*
X179151630Y-92421754D01*
X179161882Y-92416530D01*
X179168881Y-92411444D01*
X179178801Y-92405365D01*
X179186502Y-92401442D01*
X179195814Y-92394677D01*
X179223482Y-92367009D01*
X179227236Y-92362613D01*
X179229494Y-92359505D01*
X179237055Y-92350652D01*
X179239778Y-92347929D01*
X179243532Y-92343534D01*
X179266531Y-92311881D01*
X179271756Y-92301626D01*
X179274430Y-92293395D01*
X179278880Y-92282652D01*
X179282807Y-92274945D01*
X179286363Y-92264005D01*
X179292484Y-92225362D01*
X179292939Y-92219584D01*
X179292939Y-92217448D01*
X179302853Y-92180448D01*
X179329939Y-92153362D01*
X179366939Y-92143448D01*
X179369585Y-92143448D01*
X179372492Y-92143448D01*
X179419915Y-92135936D01*
X179432852Y-92129342D01*
X179439329Y-92126660D01*
X180240000Y-92126660D01*
X180240113Y-92129558D01*
X180242492Y-92159779D01*
X180243843Y-92167179D01*
X180285545Y-92310718D01*
X180289215Y-92319198D01*
X180364856Y-92447101D01*
X180370521Y-92454404D01*
X180475595Y-92559478D01*
X180482898Y-92565143D01*
X180610801Y-92640784D01*
X180619281Y-92644454D01*
X180762820Y-92686156D01*
X180770220Y-92687507D01*
X180800441Y-92689886D01*
X180803340Y-92690000D01*
X181130257Y-92690000D01*
X181137940Y-92687940D01*
X181140000Y-92680257D01*
X181540000Y-92680257D01*
X181542059Y-92687940D01*
X181549743Y-92690000D01*
X181876660Y-92690000D01*
X181879558Y-92689886D01*
X181909779Y-92687507D01*
X181917179Y-92686156D01*
X182060718Y-92644454D01*
X182069198Y-92640784D01*
X182197101Y-92565143D01*
X182204404Y-92559478D01*
X182309478Y-92454404D01*
X182315143Y-92447101D01*
X182390784Y-92319198D01*
X182394454Y-92310718D01*
X182436156Y-92167179D01*
X182437507Y-92159779D01*
X182439886Y-92129558D01*
X182440000Y-92126660D01*
X182440000Y-91799743D01*
X182437940Y-91792059D01*
X182430257Y-91790000D01*
X181549743Y-91790000D01*
X181542059Y-91792059D01*
X181540000Y-91799743D01*
X181540000Y-92680257D01*
X181140000Y-92680257D01*
X181140000Y-91799743D01*
X181137940Y-91792059D01*
X181130257Y-91790000D01*
X180249743Y-91790000D01*
X180242059Y-91792059D01*
X180240000Y-91799743D01*
X180240000Y-92126660D01*
X179439329Y-92126660D01*
X179443589Y-92124896D01*
X179443595Y-92124894D01*
X179457399Y-92120410D01*
X179496243Y-92092187D01*
X179500991Y-92087437D01*
X179509828Y-92079890D01*
X179515257Y-92075947D01*
X179549209Y-92041995D01*
X179555799Y-92029057D01*
X179561867Y-92019156D01*
X179570407Y-92007405D01*
X179585245Y-91961739D01*
X179589097Y-91937417D01*
X179588773Y-91937365D01*
X179588836Y-91934944D01*
X179590549Y-91924135D01*
X179591233Y-91921825D01*
X179591559Y-91921877D01*
X179595411Y-91897557D01*
X179595411Y-91849548D01*
X179594107Y-91845537D01*
X179593448Y-91837154D01*
X179593448Y-90897372D01*
X179600381Y-90866098D01*
X179619881Y-90840685D01*
X179674693Y-90794693D01*
X179799032Y-90646511D01*
X179895751Y-90478989D01*
X179961910Y-90297217D01*
X179995500Y-90106719D01*
X179995500Y-90010000D01*
X179995500Y-89965145D01*
X179995500Y-89914156D01*
X179962214Y-89725381D01*
X179896653Y-89545253D01*
X179800809Y-89379247D01*
X179677595Y-89232405D01*
X179530753Y-89109191D01*
X179364747Y-89013347D01*
X179301776Y-88990427D01*
X179187661Y-88948893D01*
X179187658Y-88948892D01*
X179184619Y-88947786D01*
X179181435Y-88947224D01*
X179181433Y-88947224D01*
X178999029Y-88915061D01*
X178999022Y-88915060D01*
X178995844Y-88914500D01*
X178947932Y-88914500D01*
X177134855Y-88914500D01*
X177090000Y-88914500D01*
X176963141Y-88914500D01*
X176960747Y-88914815D01*
X176960734Y-88914816D01*
X176713992Y-88947300D01*
X176713976Y-88947303D01*
X176711592Y-88947617D01*
X176709269Y-88948239D01*
X176709256Y-88948242D01*
X176468857Y-89012657D01*
X176468849Y-89012659D01*
X176466519Y-89013284D01*
X176464294Y-89014205D01*
X176464278Y-89014211D01*
X176234352Y-89109450D01*
X176234344Y-89109453D01*
X176232113Y-89110378D01*
X176230018Y-89111587D01*
X176230013Y-89111590D01*
X176014486Y-89236024D01*
X176014473Y-89236032D01*
X176012387Y-89237237D01*
X176010469Y-89238708D01*
X176010461Y-89238714D01*
X175813027Y-89390211D01*
X175813019Y-89390217D01*
X175811098Y-89391692D01*
X175809388Y-89393401D01*
X175809380Y-89393409D01*
X175633409Y-89569380D01*
X175633401Y-89569388D01*
X175631692Y-89571098D01*
X175630217Y-89573019D01*
X175630211Y-89573027D01*
X175478714Y-89770461D01*
X175478708Y-89770469D01*
X175477237Y-89772387D01*
X175476032Y-89774473D01*
X175476024Y-89774486D01*
X175351590Y-89990013D01*
X175350378Y-89992113D01*
X175349453Y-89994344D01*
X175349450Y-89994352D01*
X175254211Y-90224278D01*
X175254205Y-90224294D01*
X175253284Y-90226519D01*
X175252659Y-90228849D01*
X175252657Y-90228857D01*
X175188242Y-90469256D01*
X175188239Y-90469269D01*
X175187617Y-90471592D01*
X175187303Y-90473976D01*
X175187300Y-90473992D01*
X175154816Y-90720734D01*
X175154815Y-90720747D01*
X175154500Y-90723141D01*
X175154500Y-90725569D01*
X175154500Y-90888456D01*
X175148867Y-90916775D01*
X175132826Y-90940782D01*
X175056069Y-91017538D01*
X175056066Y-91017541D01*
X175051950Y-91021658D01*
X175049306Y-91026845D01*
X175049305Y-91026848D01*
X175039933Y-91045243D01*
X175004979Y-91078850D01*
X174956724Y-91083602D01*
X174915885Y-91057460D01*
X174899999Y-91011647D01*
X174899999Y-90707353D01*
X174899751Y-90703074D01*
X174897731Y-90685656D01*
X174894841Y-90675032D01*
X174854556Y-90583794D01*
X174846938Y-90572673D01*
X174777326Y-90503061D01*
X174766205Y-90495443D01*
X174674963Y-90455156D01*
X174664349Y-90452268D01*
X174646921Y-90450246D01*
X174642650Y-90450000D01*
X171084743Y-90450000D01*
X171077059Y-90452059D01*
X171075000Y-90459743D01*
X171075000Y-92240256D01*
X170675000Y-92240256D01*
X170675000Y-91559743D01*
X170672940Y-91552059D01*
X170665257Y-91550000D01*
X166859744Y-91550000D01*
X166852060Y-91552059D01*
X166850001Y-91559743D01*
X166850001Y-91992647D01*
X166010500Y-91992647D01*
X166010500Y-86480000D01*
X166204508Y-86480000D01*
X166224354Y-86605304D01*
X166281950Y-86718342D01*
X166371658Y-86808050D01*
X166484696Y-86865646D01*
X166610000Y-86885492D01*
X166735304Y-86865646D01*
X166848342Y-86808050D01*
X166879217Y-86777174D01*
X166903225Y-86761133D01*
X166931544Y-86755500D01*
X167875501Y-86755500D01*
X167912501Y-86765414D01*
X167939587Y-86792500D01*
X167949501Y-86829500D01*
X167949501Y-87127864D01*
X167949747Y-87129990D01*
X167949748Y-87129997D01*
X167951773Y-87147460D01*
X167951773Y-87147463D01*
X167952415Y-87152991D01*
X167954662Y-87158079D01*
X167954663Y-87158083D01*
X167993175Y-87245304D01*
X167997794Y-87255765D01*
X168077235Y-87335206D01*
X168180009Y-87380585D01*
X168205135Y-87383500D01*
X168455732Y-87383499D01*
X168502300Y-87399990D01*
X168528114Y-87442113D01*
X168521666Y-87491093D01*
X168494354Y-87544696D01*
X168493442Y-87550447D01*
X168493442Y-87550451D01*
X168475873Y-87661380D01*
X168474508Y-87670000D01*
X168475419Y-87675752D01*
X168491384Y-87776557D01*
X168494354Y-87795304D01*
X168497000Y-87800497D01*
X168551950Y-87908342D01*
X168550087Y-87909290D01*
X168560197Y-87936697D01*
X168552359Y-87976097D01*
X168525089Y-88005596D01*
X168486425Y-88016500D01*
X168207281Y-88016500D01*
X168207263Y-88016500D01*
X168205136Y-88016501D01*
X168203010Y-88016747D01*
X168203002Y-88016748D01*
X168185539Y-88018773D01*
X168185534Y-88018774D01*
X168180009Y-88019415D01*
X168174920Y-88021661D01*
X168174916Y-88021663D01*
X168083507Y-88062024D01*
X168083504Y-88062025D01*
X168077235Y-88064794D01*
X168072389Y-88069639D01*
X168072386Y-88069642D01*
X168002642Y-88139386D01*
X168002639Y-88139389D01*
X167997794Y-88144235D01*
X167995025Y-88150504D01*
X167995024Y-88150507D01*
X167954661Y-88241920D01*
X167954659Y-88241925D01*
X167952415Y-88247009D01*
X167951774Y-88252527D01*
X167951773Y-88252534D01*
X167949746Y-88270006D01*
X167949745Y-88270023D01*
X167949500Y-88272135D01*
X167949500Y-88274277D01*
X167949500Y-88274278D01*
X167949500Y-89559718D01*
X167949500Y-89559735D01*
X167949501Y-89561864D01*
X167949747Y-89563990D01*
X167949748Y-89563997D01*
X167951773Y-89581460D01*
X167951773Y-89581463D01*
X167952415Y-89586991D01*
X167954662Y-89592079D01*
X167954663Y-89592083D01*
X167977615Y-89644064D01*
X167997794Y-89689765D01*
X168002642Y-89694613D01*
X168003911Y-89696465D01*
X168016819Y-89735778D01*
X168006603Y-89775875D01*
X167976457Y-89804219D01*
X167946848Y-89819305D01*
X167946845Y-89819306D01*
X167941658Y-89821950D01*
X167937541Y-89826066D01*
X167937538Y-89826069D01*
X167856069Y-89907538D01*
X167856066Y-89907541D01*
X167851950Y-89911658D01*
X167849305Y-89916847D01*
X167849304Y-89916850D01*
X167809815Y-89994352D01*
X167794354Y-90024696D01*
X167793442Y-90030447D01*
X167793442Y-90030451D01*
X167775419Y-90144248D01*
X167774508Y-90150000D01*
X167775419Y-90155752D01*
X167788489Y-90238277D01*
X167794354Y-90275304D01*
X167828543Y-90342404D01*
X167828544Y-90342405D01*
X167834992Y-90391386D01*
X167809179Y-90433509D01*
X167762609Y-90450000D01*
X167107353Y-90450000D01*
X167103074Y-90450248D01*
X167085656Y-90452268D01*
X167075032Y-90455158D01*
X166983794Y-90495443D01*
X166972673Y-90503061D01*
X166903061Y-90572673D01*
X166895443Y-90583794D01*
X166855156Y-90675036D01*
X166852268Y-90685650D01*
X166850246Y-90703078D01*
X166850000Y-90707350D01*
X166850000Y-91140257D01*
X166852059Y-91147940D01*
X166859743Y-91150000D01*
X170665257Y-91150000D01*
X170672940Y-91147940D01*
X170675000Y-91140257D01*
X170675000Y-90459744D01*
X170672738Y-90451305D01*
X170663273Y-90441840D01*
X170642510Y-90401090D01*
X170649664Y-90355921D01*
X170685646Y-90285304D01*
X170705492Y-90160000D01*
X170685646Y-90034696D01*
X170629801Y-89925094D01*
X170623352Y-89876114D01*
X170649165Y-89833990D01*
X170695735Y-89817499D01*
X174642719Y-89817499D01*
X174644864Y-89817499D01*
X174669991Y-89814585D01*
X174772765Y-89769206D01*
X174852206Y-89689765D01*
X174897585Y-89586991D01*
X174900500Y-89561865D01*
X174900499Y-88928178D01*
X174913295Y-88886586D01*
X174947257Y-88859377D01*
X174990641Y-88855962D01*
X175028442Y-88877523D01*
X175047588Y-88916603D01*
X175051222Y-88939549D01*
X175051222Y-88939552D01*
X175052134Y-88945304D01*
X175109730Y-89058342D01*
X175199438Y-89148050D01*
X175312476Y-89205646D01*
X175437780Y-89225492D01*
X175563084Y-89205646D01*
X175676122Y-89148050D01*
X175765830Y-89058342D01*
X175823426Y-88945304D01*
X175843272Y-88820000D01*
X175823426Y-88694696D01*
X175765830Y-88581658D01*
X175676122Y-88491950D01*
X175563084Y-88434354D01*
X175557332Y-88433442D01*
X175557329Y-88433442D01*
X175465526Y-88418902D01*
X175424777Y-88398139D01*
X175404014Y-88357388D01*
X175411168Y-88312222D01*
X175465646Y-88205304D01*
X175485492Y-88080000D01*
X175465646Y-87954696D01*
X175408050Y-87841658D01*
X175318342Y-87751950D01*
X175205304Y-87694354D01*
X175199550Y-87693442D01*
X175199548Y-87693442D01*
X175085752Y-87675419D01*
X175080000Y-87674508D01*
X175074248Y-87675419D01*
X174960451Y-87693442D01*
X174960447Y-87693442D01*
X174954696Y-87694354D01*
X174949504Y-87696999D01*
X174949502Y-87697000D01*
X174846850Y-87749304D01*
X174846847Y-87749305D01*
X174841658Y-87751950D01*
X174837541Y-87756066D01*
X174837538Y-87756069D01*
X174756069Y-87837538D01*
X174756066Y-87837541D01*
X174751950Y-87841658D01*
X174749305Y-87846847D01*
X174749304Y-87846850D01*
X174703525Y-87936697D01*
X174694354Y-87954696D01*
X174693443Y-87960444D01*
X174691843Y-87965370D01*
X174664961Y-88002368D01*
X174621466Y-88016500D01*
X170678623Y-88016500D01*
X170639957Y-88005595D01*
X170612688Y-87976094D01*
X170604851Y-87936692D01*
X170616181Y-87905983D01*
X170615182Y-87905474D01*
X170615181Y-87905474D01*
X170672778Y-87792436D01*
X170692624Y-87667132D01*
X170672778Y-87541828D01*
X170646926Y-87491092D01*
X170640479Y-87442113D01*
X170666292Y-87399990D01*
X170694503Y-87390000D01*
X175504508Y-87390000D01*
X175505419Y-87395752D01*
X175522968Y-87506557D01*
X175524354Y-87515304D01*
X175581950Y-87628342D01*
X175671658Y-87718050D01*
X175784696Y-87775646D01*
X175910000Y-87795492D01*
X176035304Y-87775646D01*
X176148342Y-87718050D01*
X176238050Y-87628342D01*
X176295646Y-87515304D01*
X176315492Y-87390000D01*
X176295646Y-87264696D01*
X176238050Y-87151658D01*
X176206392Y-87120000D01*
X178844508Y-87120000D01*
X178845419Y-87125752D01*
X178848869Y-87147538D01*
X178864354Y-87245304D01*
X178921950Y-87358342D01*
X179011658Y-87448050D01*
X179124696Y-87505646D01*
X179250000Y-87525492D01*
X179375304Y-87505646D01*
X179488342Y-87448050D01*
X179578050Y-87358342D01*
X179635646Y-87245304D01*
X179655492Y-87120000D01*
X179635646Y-86994696D01*
X179578050Y-86881658D01*
X179488342Y-86791950D01*
X179375304Y-86734354D01*
X179369550Y-86733442D01*
X179369548Y-86733442D01*
X179255752Y-86715419D01*
X179250000Y-86714508D01*
X179244248Y-86715419D01*
X179130451Y-86733442D01*
X179130447Y-86733442D01*
X179124696Y-86734354D01*
X179119504Y-86736999D01*
X179119502Y-86737000D01*
X179016850Y-86789304D01*
X179016847Y-86789305D01*
X179011658Y-86791950D01*
X179007541Y-86796066D01*
X179007538Y-86796069D01*
X178926069Y-86877538D01*
X178926066Y-86877541D01*
X178921950Y-86881658D01*
X178919305Y-86886847D01*
X178919304Y-86886850D01*
X178867000Y-86989502D01*
X178864354Y-86994696D01*
X178863442Y-87000447D01*
X178863442Y-87000451D01*
X178862824Y-87004354D01*
X178844508Y-87120000D01*
X176206392Y-87120000D01*
X176148342Y-87061950D01*
X176035304Y-87004354D01*
X176029550Y-87003442D01*
X176029548Y-87003442D01*
X175915752Y-86985419D01*
X175910000Y-86984508D01*
X175904248Y-86985419D01*
X175790451Y-87003442D01*
X175790447Y-87003442D01*
X175784696Y-87004354D01*
X175779504Y-87006999D01*
X175779502Y-87007000D01*
X175676850Y-87059304D01*
X175676847Y-87059305D01*
X175671658Y-87061950D01*
X175667541Y-87066066D01*
X175667538Y-87066069D01*
X175586069Y-87147538D01*
X175586066Y-87147541D01*
X175581950Y-87151658D01*
X175579305Y-87156847D01*
X175579304Y-87156850D01*
X175527000Y-87259502D01*
X175524354Y-87264696D01*
X175523442Y-87270447D01*
X175523442Y-87270451D01*
X175509522Y-87358342D01*
X175504508Y-87390000D01*
X170694503Y-87390000D01*
X170712862Y-87383499D01*
X174642719Y-87383499D01*
X174644864Y-87383499D01*
X174669991Y-87380585D01*
X174772765Y-87335206D01*
X174852206Y-87255765D01*
X174897585Y-87152991D01*
X174900500Y-87127865D01*
X174900499Y-85838136D01*
X174897585Y-85813009D01*
X174852206Y-85710235D01*
X174772765Y-85630794D01*
X174766492Y-85628024D01*
X174675079Y-85587661D01*
X174675075Y-85587660D01*
X174669991Y-85585415D01*
X174664470Y-85584774D01*
X174664465Y-85584773D01*
X174646993Y-85582746D01*
X174646977Y-85582745D01*
X174644865Y-85582500D01*
X174642722Y-85582500D01*
X171151212Y-85582500D01*
X171104642Y-85566009D01*
X171078829Y-85523886D01*
X171085276Y-85474906D01*
X171115646Y-85415304D01*
X171135492Y-85290000D01*
X171115646Y-85164696D01*
X171061328Y-85058092D01*
X171054880Y-85009114D01*
X171080693Y-84966990D01*
X171127263Y-84950499D01*
X174642719Y-84950499D01*
X174644864Y-84950499D01*
X174658860Y-84948875D01*
X174695806Y-84954058D01*
X174725531Y-84976612D01*
X174740473Y-85010803D01*
X174743442Y-85029550D01*
X174743443Y-85029553D01*
X174744354Y-85035304D01*
X174801950Y-85148342D01*
X174891658Y-85238050D01*
X175004696Y-85295646D01*
X175130000Y-85315492D01*
X175255304Y-85295646D01*
X175368342Y-85238050D01*
X175458050Y-85148342D01*
X175515646Y-85035304D01*
X175535492Y-84910000D01*
X175515646Y-84784696D01*
X175458050Y-84671658D01*
X175368342Y-84581950D01*
X175334310Y-84564610D01*
X175260497Y-84527000D01*
X175255304Y-84524354D01*
X175249550Y-84523442D01*
X175249548Y-84523442D01*
X175135752Y-84505419D01*
X175130000Y-84504508D01*
X175124248Y-84505419D01*
X175010449Y-84523442D01*
X175010444Y-84523443D01*
X175004696Y-84524354D01*
X174999506Y-84526997D01*
X174997365Y-84527694D01*
X174951631Y-84527693D01*
X174914632Y-84500811D01*
X174900499Y-84457315D01*
X174900499Y-83980000D01*
X180014508Y-83980000D01*
X180034354Y-84105304D01*
X180091950Y-84218342D01*
X180181658Y-84308050D01*
X180294696Y-84365646D01*
X180299479Y-84366403D01*
X180334656Y-84391126D01*
X180350038Y-84431834D01*
X180339879Y-84474150D01*
X180288752Y-84560601D01*
X180288752Y-84560602D01*
X180286382Y-84564610D01*
X180285085Y-84569073D01*
X180285082Y-84569081D01*
X180243345Y-84712742D01*
X180243343Y-84712750D01*
X180242291Y-84716373D01*
X180241994Y-84720136D01*
X180241994Y-84720141D01*
X180239613Y-84750390D01*
X180239612Y-84750412D01*
X180239500Y-84751837D01*
X180239500Y-86254820D01*
X180240210Y-86258389D01*
X180246810Y-86291572D01*
X180246811Y-86291575D01*
X180248233Y-86298722D01*
X180252282Y-86304783D01*
X180255071Y-86311514D01*
X180252511Y-86312574D01*
X180260815Y-86339795D01*
X180252548Y-86367441D01*
X180255071Y-86368486D01*
X180252282Y-86375217D01*
X180248233Y-86381278D01*
X180246811Y-86388422D01*
X180246810Y-86388427D01*
X180240210Y-86421610D01*
X180239500Y-86425180D01*
X180239500Y-88354820D01*
X180240210Y-88358389D01*
X180246810Y-88391572D01*
X180246811Y-88391575D01*
X180248233Y-88398722D01*
X180252282Y-88404783D01*
X180255071Y-88411514D01*
X180252529Y-88412566D01*
X180260815Y-88440000D01*
X180252529Y-88467433D01*
X180255071Y-88468486D01*
X180252282Y-88475217D01*
X180248233Y-88481278D01*
X180246811Y-88488422D01*
X180246810Y-88488427D01*
X180243832Y-88503401D01*
X180239500Y-88525180D01*
X180239500Y-90454820D01*
X180248233Y-90498722D01*
X180252280Y-90504780D01*
X180255071Y-90511516D01*
X180253276Y-90512259D01*
X180260773Y-90533226D01*
X180255496Y-90568784D01*
X180247281Y-90588617D01*
X180240710Y-90621655D01*
X180240000Y-90628865D01*
X180240000Y-91380257D01*
X180242059Y-91387940D01*
X180249743Y-91390000D01*
X182430257Y-91390000D01*
X182437940Y-91387940D01*
X182439999Y-91380256D01*
X182439999Y-90628867D01*
X182439288Y-90621652D01*
X182432719Y-90588624D01*
X182424503Y-90568789D01*
X182419229Y-90533189D01*
X182426730Y-90512261D01*
X182424928Y-90511515D01*
X182427714Y-90504786D01*
X182431767Y-90498722D01*
X182440500Y-90454820D01*
X182440500Y-88525180D01*
X182431767Y-88481278D01*
X182427718Y-88475219D01*
X182424929Y-88468484D01*
X182427506Y-88467416D01*
X182419185Y-88440000D01*
X182427506Y-88412583D01*
X182424929Y-88411516D01*
X182427718Y-88404781D01*
X182431767Y-88398722D01*
X182440500Y-88354820D01*
X182440500Y-86425180D01*
X182431767Y-86381278D01*
X182427718Y-86375219D01*
X182424929Y-86368484D01*
X182427506Y-86367416D01*
X182419185Y-86340000D01*
X182427506Y-86312583D01*
X182424929Y-86311516D01*
X182427718Y-86304781D01*
X182431767Y-86298722D01*
X182440500Y-86254820D01*
X182440499Y-84751838D01*
X182437709Y-84716373D01*
X182393618Y-84564610D01*
X182313170Y-84428580D01*
X182201420Y-84316830D01*
X182197412Y-84314460D01*
X182197410Y-84314458D01*
X182069397Y-84238752D01*
X182069398Y-84238752D01*
X182065390Y-84236382D01*
X182060923Y-84235084D01*
X182060918Y-84235082D01*
X181917257Y-84193345D01*
X181917251Y-84193343D01*
X181913627Y-84192291D01*
X181909861Y-84191994D01*
X181909858Y-84191994D01*
X181879609Y-84189613D01*
X181879588Y-84189612D01*
X181878163Y-84189500D01*
X181876711Y-84189500D01*
X180878953Y-84189500D01*
X180838650Y-84177562D01*
X180811351Y-84145598D01*
X180805864Y-84103925D01*
X180825492Y-83980000D01*
X180805646Y-83854696D01*
X180748050Y-83741658D01*
X180658342Y-83651950D01*
X180545304Y-83594354D01*
X180539550Y-83593442D01*
X180539548Y-83593442D01*
X180425752Y-83575419D01*
X180420000Y-83574508D01*
X180414248Y-83575419D01*
X180300451Y-83593442D01*
X180300447Y-83593442D01*
X180294696Y-83594354D01*
X180289504Y-83596999D01*
X180289502Y-83597000D01*
X180186850Y-83649304D01*
X180186847Y-83649305D01*
X180181658Y-83651950D01*
X180177541Y-83656066D01*
X180177538Y-83656069D01*
X180096069Y-83737538D01*
X180096066Y-83737541D01*
X180091950Y-83741658D01*
X180089305Y-83746847D01*
X180089304Y-83746850D01*
X180088693Y-83748050D01*
X180034354Y-83854696D01*
X180033442Y-83860447D01*
X180033442Y-83860451D01*
X180015419Y-83974248D01*
X180014508Y-83980000D01*
X174900499Y-83980000D01*
X174900499Y-83420000D01*
X180874508Y-83420000D01*
X180894354Y-83545304D01*
X180951950Y-83658342D01*
X181041658Y-83748050D01*
X181154696Y-83805646D01*
X181280000Y-83825492D01*
X181405304Y-83805646D01*
X181518342Y-83748050D01*
X181608050Y-83658342D01*
X181665646Y-83545304D01*
X181685492Y-83420000D01*
X181665646Y-83294696D01*
X181608050Y-83181658D01*
X181518342Y-83091950D01*
X181405304Y-83034354D01*
X181399550Y-83033442D01*
X181399548Y-83033442D01*
X181285752Y-83015419D01*
X181280000Y-83014508D01*
X181274248Y-83015419D01*
X181160451Y-83033442D01*
X181160447Y-83033442D01*
X181154696Y-83034354D01*
X181149504Y-83036999D01*
X181149502Y-83037000D01*
X181046850Y-83089304D01*
X181046847Y-83089305D01*
X181041658Y-83091950D01*
X181037541Y-83096066D01*
X181037538Y-83096069D01*
X180956069Y-83177538D01*
X180956066Y-83177541D01*
X180951950Y-83181658D01*
X180949305Y-83186847D01*
X180949304Y-83186850D01*
X180900055Y-83283507D01*
X180894354Y-83294696D01*
X180893442Y-83300447D01*
X180893442Y-83300451D01*
X180876862Y-83405135D01*
X180874508Y-83420000D01*
X174900499Y-83420000D01*
X174900499Y-83407281D01*
X174900499Y-83407278D01*
X174900499Y-83405136D01*
X174897585Y-83380009D01*
X174852206Y-83277235D01*
X174772765Y-83197794D01*
X174766492Y-83195024D01*
X174675079Y-83154661D01*
X174675075Y-83154660D01*
X174669991Y-83152415D01*
X174664470Y-83151774D01*
X174664465Y-83151773D01*
X174646993Y-83149746D01*
X174646977Y-83149745D01*
X174644865Y-83149500D01*
X174642722Y-83149500D01*
X167729984Y-83149500D01*
X167696390Y-83141435D01*
X167687680Y-83136997D01*
X167687678Y-83136996D01*
X167682492Y-83134354D01*
X167676741Y-83133443D01*
X167562940Y-83115419D01*
X167557188Y-83114508D01*
X167551436Y-83115419D01*
X167437635Y-83133443D01*
X167437634Y-83133443D01*
X167431884Y-83134354D01*
X167426698Y-83136995D01*
X167426692Y-83136998D01*
X167417982Y-83141436D01*
X167384390Y-83149500D01*
X167107281Y-83149500D01*
X167107263Y-83149500D01*
X167105136Y-83149501D01*
X167103010Y-83149747D01*
X167103002Y-83149748D01*
X167085539Y-83151773D01*
X167085534Y-83151774D01*
X167080009Y-83152415D01*
X167074920Y-83154661D01*
X167074916Y-83154663D01*
X166983507Y-83195024D01*
X166983504Y-83195025D01*
X166977235Y-83197794D01*
X166972389Y-83202639D01*
X166972386Y-83202642D01*
X166902642Y-83272386D01*
X166902639Y-83272389D01*
X166897794Y-83277235D01*
X166895025Y-83283504D01*
X166895024Y-83283507D01*
X166854661Y-83374920D01*
X166854659Y-83374925D01*
X166852415Y-83380009D01*
X166851774Y-83385527D01*
X166851773Y-83385534D01*
X166849746Y-83403006D01*
X166849745Y-83403023D01*
X166849500Y-83405135D01*
X166849500Y-83407277D01*
X166849500Y-83407278D01*
X166849500Y-84692718D01*
X166849500Y-84692735D01*
X166849501Y-84694864D01*
X166849747Y-84696990D01*
X166849748Y-84696997D01*
X166851773Y-84714460D01*
X166851773Y-84714463D01*
X166852415Y-84719991D01*
X166854662Y-84725081D01*
X166854663Y-84725083D01*
X166880985Y-84784696D01*
X166897794Y-84822765D01*
X166977235Y-84902206D01*
X167080009Y-84947585D01*
X167105135Y-84950500D01*
X169197450Y-84950499D01*
X169244020Y-84966990D01*
X169269833Y-85009113D01*
X169263385Y-85058093D01*
X169224354Y-85134696D01*
X169223442Y-85140447D01*
X169223442Y-85140451D01*
X169207566Y-85240695D01*
X169204508Y-85260000D01*
X169205419Y-85265752D01*
X169210170Y-85295752D01*
X169224354Y-85385304D01*
X169227000Y-85390497D01*
X169270008Y-85474905D01*
X169276457Y-85523885D01*
X169250644Y-85566009D01*
X169204074Y-85582500D01*
X168207281Y-85582500D01*
X168207263Y-85582500D01*
X168205136Y-85582501D01*
X168203010Y-85582747D01*
X168203002Y-85582748D01*
X168185539Y-85584773D01*
X168185534Y-85584774D01*
X168180009Y-85585415D01*
X168174920Y-85587661D01*
X168174916Y-85587663D01*
X168083507Y-85628024D01*
X168083504Y-85628025D01*
X168077235Y-85630794D01*
X168072389Y-85635639D01*
X168072386Y-85635642D01*
X168002642Y-85705386D01*
X168002639Y-85705389D01*
X167997794Y-85710235D01*
X167995025Y-85716504D01*
X167995024Y-85716507D01*
X167954661Y-85807920D01*
X167954659Y-85807925D01*
X167952415Y-85813009D01*
X167951774Y-85818527D01*
X167951773Y-85818534D01*
X167949746Y-85836006D01*
X167949745Y-85836023D01*
X167949500Y-85838135D01*
X167949500Y-85840278D01*
X167949500Y-86130500D01*
X167939586Y-86167500D01*
X167912500Y-86194586D01*
X167875500Y-86204500D01*
X166931544Y-86204500D01*
X166903225Y-86198867D01*
X166879218Y-86182826D01*
X166852461Y-86156069D01*
X166852461Y-86156068D01*
X166848342Y-86151950D01*
X166735304Y-86094354D01*
X166729550Y-86093442D01*
X166729548Y-86093442D01*
X166615752Y-86075419D01*
X166610000Y-86074508D01*
X166604248Y-86075419D01*
X166490451Y-86093442D01*
X166490447Y-86093442D01*
X166484696Y-86094354D01*
X166479504Y-86096999D01*
X166479502Y-86097000D01*
X166376850Y-86149304D01*
X166376847Y-86149305D01*
X166371658Y-86151950D01*
X166367541Y-86156066D01*
X166367538Y-86156069D01*
X166286069Y-86237538D01*
X166286066Y-86237541D01*
X166281950Y-86241658D01*
X166279305Y-86246847D01*
X166279304Y-86246850D01*
X166231946Y-86339795D01*
X166224354Y-86354696D01*
X166223442Y-86360447D01*
X166223442Y-86360451D01*
X166212614Y-86428820D01*
X166204508Y-86480000D01*
X166010500Y-86480000D01*
X166010500Y-83353227D01*
X166010782Y-83346778D01*
X166014835Y-83300451D01*
X166024968Y-83184623D01*
X166027205Y-83171934D01*
X166068500Y-83017818D01*
X166072910Y-83005703D01*
X166140337Y-82861105D01*
X166146775Y-82849954D01*
X166238289Y-82719259D01*
X166246570Y-82709390D01*
X166359390Y-82596570D01*
X166369259Y-82588289D01*
X166499954Y-82496775D01*
X166511105Y-82490337D01*
X166655705Y-82422908D01*
X166667818Y-82418500D01*
X166821934Y-82377205D01*
X166834623Y-82374968D01*
X166964305Y-82363622D01*
X166996778Y-82360782D01*
X167003227Y-82360500D01*
X167003412Y-82360500D01*
X181766588Y-82360500D01*
X181766773Y-82360500D01*
X181773222Y-82360782D01*
G37*
G04 #@! TD.AperFunction*
M02*
