G04 #@! TF.GenerationSoftware,KiCad,Pcbnew,(7.0.0-0)*
G04 #@! TF.CreationDate,2023-10-24T18:27:41+08:00*
G04 #@! TF.ProjectId,Revolute,5265766f-6c75-4746-952e-6b696361645f,rev?*
G04 #@! TF.SameCoordinates,Original*
G04 #@! TF.FileFunction,Legend,Bot*
G04 #@! TF.FilePolarity,Positive*
%FSLAX46Y46*%
G04 Gerber Fmt 4.6, Leading zero omitted, Abs format (unit mm)*
G04 Created by KiCad (PCBNEW (7.0.0-0)) date 2023-10-24 18:27:41*
%MOMM*%
%LPD*%
G01*
G04 APERTURE LIST*
G04 Aperture macros list*
%AMRoundRect*
0 Rectangle with rounded corners*
0 $1 Rounding radius*
0 $2 $3 $4 $5 $6 $7 $8 $9 X,Y pos of 4 corners*
0 Add a 4 corners polygon primitive as box body*
4,1,4,$2,$3,$4,$5,$6,$7,$8,$9,$2,$3,0*
0 Add four circle primitives for the rounded corners*
1,1,$1+$1,$2,$3*
1,1,$1+$1,$4,$5*
1,1,$1+$1,$6,$7*
1,1,$1+$1,$8,$9*
0 Add four rect primitives between the rounded corners*
20,1,$1+$1,$2,$3,$4,$5,0*
20,1,$1+$1,$4,$5,$6,$7,0*
20,1,$1+$1,$6,$7,$8,$9,0*
20,1,$1+$1,$8,$9,$2,$3,0*%
%AMOutline4P*
0 Free polygon, 4 corners , with rotation*
0 The origin of the aperture is its center*
0 number of corners: always 4*
0 $1 to $8 corner X, Y*
0 $9 Rotation angle, in degrees counterclockwise*
0 create outline with 4 corners*
4,1,4,$1,$2,$3,$4,$5,$6,$7,$8,$1,$2,$9*%
%AMFreePoly0*
4,1,17,-0.950000,0.475000,-0.941719,0.563308,-0.894955,0.696953,-0.810876,0.810876,-0.696953,0.894955,-0.563308,0.941719,-0.475000,0.950000,0.475000,0.950000,0.563308,0.941719,0.696953,0.894955,0.810876,0.810876,0.894955,0.696953,0.941719,0.563308,0.950000,0.475000,0.950000,-0.950000,-0.950000,-0.950000,-0.950000,0.475000,-0.950000,0.475000,$1*%
%AMFreePoly1*
4,1,42,1.022267,0.592764,1.045399,0.589101,1.051104,0.583395,1.058779,0.580902,1.072544,0.561955,1.089101,0.545399,1.090363,0.537429,1.095106,0.530902,1.095106,0.507488,1.098770,0.484357,1.095106,0.477166,1.095106,0.469098,1.081341,0.450152,1.070711,0.429290,0.070711,-0.570711,0.056598,-0.577901,0.045399,-0.589101,0.029754,-0.591579,0.015643,-0.598769,0.000002,-0.596291,
-0.015643,-0.598770,-0.029756,-0.591578,-0.045399,-0.589101,-0.056598,-0.577901,-0.070710,-0.570711,-1.070711,0.429289,-1.081341,0.450152,-1.095106,0.469098,-1.095106,0.477168,-1.098769,0.484357,-1.095106,0.507485,-1.095106,0.530902,-1.090363,0.537429,-1.089101,0.545399,-1.072544,0.561955,-1.058779,0.580902,-1.051104,0.583395,-1.045399,0.589101,-1.022269,0.592764,-1.000000,0.600000,
1.000000,0.600000,1.022267,0.592764,1.022267,0.592764,$1*%
G04 Aperture macros list end*
%ADD10C,0.150000*%
%ADD11RoundRect,0.150000X-3.725000X0.600000X-3.725000X-0.600000X3.725000X-0.600000X3.725000X0.600000X0*%
%ADD12RoundRect,0.150000X-3.175000X0.600000X-3.175000X-0.600000X3.175000X-0.600000X3.175000X0.600000X0*%
%ADD13FreePoly0,180.000000*%
%ADD14Outline4P,-0.950000X0.950000X0.950000X0.950000X0.950000X-0.950000X-0.950000X-0.950000X0.000000*%
%ADD15FreePoly0,0.000000*%
%ADD16FreePoly1,90.000000*%
%ADD17FreePoly1,0.000000*%
%ADD18FreePoly1,270.000000*%
%ADD19FreePoly1,180.000000*%
G04 APERTURE END LIST*
D10*
X177605668Y-88911904D02*
X177558048Y-88816666D01*
X177558048Y-88816666D02*
X177558048Y-88673809D01*
X177558048Y-88673809D02*
X177605668Y-88530952D01*
X177605668Y-88530952D02*
X177700906Y-88435714D01*
X177700906Y-88435714D02*
X177796144Y-88388095D01*
X177796144Y-88388095D02*
X177986620Y-88340476D01*
X177986620Y-88340476D02*
X178129477Y-88340476D01*
X178129477Y-88340476D02*
X178319953Y-88388095D01*
X178319953Y-88388095D02*
X178415191Y-88435714D01*
X178415191Y-88435714D02*
X178510429Y-88530952D01*
X178510429Y-88530952D02*
X178558048Y-88673809D01*
X178558048Y-88673809D02*
X178558048Y-88769047D01*
X178558048Y-88769047D02*
X178510429Y-88911904D01*
X178510429Y-88911904D02*
X178462810Y-88959523D01*
X178462810Y-88959523D02*
X178129477Y-88959523D01*
X178129477Y-88959523D02*
X178129477Y-88769047D01*
X179658048Y-87954669D02*
X179181858Y-87621336D01*
X179658048Y-87383241D02*
X178658048Y-87383241D01*
X178658048Y-87383241D02*
X178658048Y-87764193D01*
X178658048Y-87764193D02*
X178705668Y-87859431D01*
X178705668Y-87859431D02*
X178753287Y-87907050D01*
X178753287Y-87907050D02*
X178848525Y-87954669D01*
X178848525Y-87954669D02*
X178991382Y-87954669D01*
X178991382Y-87954669D02*
X179086620Y-87907050D01*
X179086620Y-87907050D02*
X179134239Y-87859431D01*
X179134239Y-87859431D02*
X179181858Y-87764193D01*
X179181858Y-87764193D02*
X179181858Y-87383241D01*
G36*
X179663774Y-82817924D02*
G01*
X179663459Y-82833200D01*
X179662544Y-82848434D01*
X179661073Y-82863579D01*
X179659089Y-82878594D01*
X179656636Y-82893433D01*
X179653758Y-82908053D01*
X179650498Y-82922411D01*
X179646901Y-82936462D01*
X179643010Y-82950164D01*
X179638869Y-82963471D01*
X179635991Y-82972102D01*
X179628825Y-82991369D01*
X179621195Y-83010473D01*
X179613125Y-83029419D01*
X179604636Y-83048208D01*
X179595751Y-83066844D01*
X179586495Y-83085328D01*
X179576888Y-83103663D01*
X179566955Y-83121853D01*
X179556717Y-83139900D01*
X179546198Y-83157806D01*
X179535421Y-83175575D01*
X179524408Y-83193208D01*
X179513182Y-83210710D01*
X179501766Y-83228081D01*
X179490182Y-83245325D01*
X179478455Y-83262446D01*
X179469911Y-83271376D01*
X179459251Y-83277881D01*
X179446537Y-83281286D01*
X179439986Y-83281680D01*
X179426098Y-83279756D01*
X179412987Y-83274402D01*
X179401751Y-83266248D01*
X179393490Y-83255920D01*
X179389302Y-83244046D01*
X179389001Y-83239853D01*
X179391481Y-83227488D01*
X179397372Y-83215948D01*
X179397855Y-83215123D01*
X179407316Y-83201359D01*
X179416685Y-83187537D01*
X179425950Y-83173652D01*
X179435097Y-83159697D01*
X179444113Y-83145664D01*
X179452986Y-83131548D01*
X179461703Y-83117342D01*
X179470250Y-83103039D01*
X179478614Y-83088632D01*
X179486783Y-83074114D01*
X179494744Y-83059480D01*
X179502483Y-83044721D01*
X179509988Y-83029832D01*
X179517246Y-83014806D01*
X179524243Y-82999635D01*
X179530967Y-82984314D01*
X179536921Y-82970441D01*
X179542319Y-82957095D01*
X179547184Y-82944265D01*
X179551541Y-82931940D01*
X179555414Y-82920111D01*
X179560365Y-82903274D01*
X179564359Y-82887495D01*
X179567476Y-82872737D01*
X179569795Y-82858967D01*
X179571397Y-82846151D01*
X179572555Y-82830484D01*
X179572793Y-82819755D01*
X179572347Y-82806807D01*
X179570792Y-82793100D01*
X179568089Y-82780120D01*
X179564415Y-82768342D01*
X179562413Y-82762053D01*
X179555344Y-82750767D01*
X179545739Y-82739880D01*
X179535184Y-82731823D01*
X179523969Y-82726523D01*
X179510437Y-82723728D01*
X179506543Y-82723585D01*
X179493637Y-82725408D01*
X179481218Y-82730028D01*
X179469239Y-82736175D01*
X179457649Y-82742577D01*
X179446401Y-82747961D01*
X179433284Y-82751288D01*
X179431133Y-82751367D01*
X179418034Y-82748783D01*
X179406585Y-82741772D01*
X179397343Y-82731444D01*
X179390861Y-82718910D01*
X179387696Y-82705281D01*
X179387474Y-82700687D01*
X179390283Y-82685214D01*
X179398150Y-82671583D01*
X179406867Y-82662610D01*
X179417606Y-82654740D01*
X179430013Y-82648003D01*
X179443735Y-82642426D01*
X179458419Y-82638038D01*
X179473712Y-82634869D01*
X179489260Y-82632946D01*
X179504711Y-82632299D01*
X179519724Y-82632961D01*
X179534483Y-82634961D01*
X179548905Y-82638320D01*
X179562909Y-82643061D01*
X179576412Y-82649204D01*
X179589332Y-82656771D01*
X179601587Y-82665783D01*
X179613094Y-82676263D01*
X179623232Y-82687395D01*
X179632055Y-82699121D01*
X179639633Y-82711387D01*
X179646034Y-82724144D01*
X179651328Y-82737340D01*
X179655585Y-82750922D01*
X179658874Y-82764841D01*
X179661265Y-82779045D01*
X179662826Y-82793482D01*
X179663627Y-82808101D01*
X179663774Y-82817924D01*
G37*
G36*
X179315728Y-82781287D02*
G01*
X179312675Y-82793988D01*
X179307158Y-82806990D01*
X179299482Y-82819568D01*
X179289956Y-82830994D01*
X179278887Y-82840542D01*
X179266583Y-82847485D01*
X179261384Y-82849370D01*
X179250084Y-82854094D01*
X179243982Y-82854560D01*
X179231920Y-82852415D01*
X179226274Y-82849370D01*
X179214591Y-82843350D01*
X179205857Y-82833723D01*
X179200385Y-82821463D01*
X179198522Y-82809341D01*
X179198491Y-82807543D01*
X179201441Y-82794841D01*
X179206917Y-82781831D01*
X179214585Y-82769231D01*
X179224108Y-82757761D01*
X179235152Y-82748143D01*
X179247382Y-82741094D01*
X179252530Y-82739155D01*
X179264126Y-82734492D01*
X179270238Y-82733965D01*
X179282349Y-82736463D01*
X179287640Y-82739155D01*
X179298726Y-82745223D01*
X179307637Y-82754955D01*
X179313572Y-82767319D01*
X179315692Y-82779489D01*
X179315728Y-82781287D01*
G37*
G36*
X179639350Y-83916711D02*
G01*
X179638899Y-83929333D01*
X179637677Y-83941956D01*
X179635874Y-83954578D01*
X179633681Y-83967201D01*
X179632328Y-83974413D01*
X179627308Y-83995722D01*
X179621454Y-84016939D01*
X179614830Y-84038061D01*
X179607503Y-84059083D01*
X179599539Y-84079998D01*
X179591004Y-84100804D01*
X179581965Y-84121494D01*
X179572488Y-84142063D01*
X179562639Y-84162508D01*
X179552484Y-84182822D01*
X179542089Y-84203001D01*
X179531520Y-84223040D01*
X179520844Y-84242935D01*
X179510128Y-84262679D01*
X179499436Y-84282269D01*
X179488835Y-84301699D01*
X179481479Y-84311974D01*
X179471382Y-84319779D01*
X179458761Y-84324075D01*
X179452199Y-84324597D01*
X179439160Y-84322479D01*
X179426583Y-84316547D01*
X179415642Y-84307426D01*
X179407505Y-84295745D01*
X179403345Y-84282133D01*
X179403045Y-84277275D01*
X179405055Y-84265099D01*
X179410067Y-84254377D01*
X179421712Y-84232963D01*
X179427615Y-84221980D01*
X179433549Y-84210836D01*
X179439499Y-84199551D01*
X179445448Y-84188143D01*
X179451380Y-84176629D01*
X179457279Y-84165028D01*
X179463128Y-84153358D01*
X179468911Y-84141637D01*
X179474612Y-84129884D01*
X179480214Y-84118117D01*
X179485702Y-84106354D01*
X179491059Y-84094613D01*
X179496268Y-84082913D01*
X179501314Y-84071271D01*
X179506180Y-84059706D01*
X179510851Y-84048236D01*
X179519538Y-84025656D01*
X179527245Y-84003674D01*
X179533843Y-83982437D01*
X179539202Y-83962091D01*
X179543190Y-83942782D01*
X179545679Y-83924656D01*
X179546537Y-83907857D01*
X179545011Y-83899309D01*
X179531245Y-83889176D01*
X179517635Y-83880234D01*
X179504244Y-83872208D01*
X179491130Y-83864823D01*
X179478354Y-83857803D01*
X179465976Y-83850876D01*
X179454057Y-83843765D01*
X179442658Y-83836197D01*
X179431838Y-83827896D01*
X179421658Y-83818587D01*
X179415257Y-83811687D01*
X179407382Y-83801239D01*
X179400400Y-83790513D01*
X179394284Y-83779518D01*
X179389008Y-83768265D01*
X179384548Y-83756764D01*
X179380877Y-83745027D01*
X179377970Y-83733063D01*
X179375801Y-83720883D01*
X179374344Y-83708497D01*
X179373575Y-83695918D01*
X179373430Y-83687428D01*
X179373929Y-83671631D01*
X179375390Y-83655719D01*
X179377764Y-83639771D01*
X179380997Y-83623865D01*
X179385040Y-83608080D01*
X179389840Y-83592494D01*
X179395347Y-83577186D01*
X179401509Y-83562235D01*
X179408274Y-83547717D01*
X179415592Y-83533713D01*
X179420752Y-83524701D01*
X179427414Y-83513898D01*
X179434308Y-83503115D01*
X179441370Y-83492338D01*
X179448540Y-83481553D01*
X179455754Y-83470745D01*
X179462950Y-83459899D01*
X179470067Y-83449000D01*
X179477043Y-83438033D01*
X179483814Y-83426984D01*
X179490319Y-83415838D01*
X179496496Y-83404581D01*
X179502283Y-83393197D01*
X179507617Y-83381671D01*
X179512436Y-83369989D01*
X179516678Y-83358137D01*
X179520281Y-83346099D01*
X179522825Y-83333165D01*
X179525030Y-83320079D01*
X179525777Y-83309462D01*
X179524657Y-83296811D01*
X179518229Y-83285581D01*
X179506138Y-83280203D01*
X179494025Y-83278016D01*
X179481344Y-83278856D01*
X179469281Y-83281131D01*
X179454796Y-83285431D01*
X179440636Y-83290677D01*
X179426445Y-83296149D01*
X179414831Y-83300206D01*
X179402786Y-83303579D01*
X179399686Y-83304272D01*
X179386898Y-83301841D01*
X179376202Y-83295256D01*
X179367889Y-83285580D01*
X179362248Y-83273875D01*
X179359571Y-83261205D01*
X179359386Y-83256950D01*
X179360708Y-83244455D01*
X179364879Y-83232728D01*
X179372206Y-83222534D01*
X179382995Y-83214642D01*
X179390833Y-83211460D01*
X179404064Y-83206904D01*
X179417403Y-83202492D01*
X179430814Y-83198365D01*
X179444261Y-83194668D01*
X179457707Y-83191544D01*
X179471118Y-83189134D01*
X179484457Y-83187584D01*
X179497689Y-83187036D01*
X179509994Y-83187659D01*
X179527712Y-83190842D01*
X179544372Y-83196548D01*
X179559784Y-83204580D01*
X179573758Y-83214742D01*
X179586104Y-83226838D01*
X179596632Y-83240672D01*
X179605152Y-83256048D01*
X179611472Y-83272769D01*
X179615404Y-83290639D01*
X179616605Y-83303094D01*
X179616757Y-83309462D01*
X179616095Y-83325503D01*
X179614176Y-83341449D01*
X179611104Y-83357289D01*
X179606983Y-83373013D01*
X179601915Y-83388612D01*
X179596004Y-83404077D01*
X179589354Y-83419396D01*
X179582067Y-83434560D01*
X179574247Y-83449560D01*
X179565997Y-83464386D01*
X179557421Y-83479027D01*
X179548622Y-83493474D01*
X179539703Y-83507718D01*
X179530767Y-83521747D01*
X179521918Y-83535553D01*
X179513259Y-83549126D01*
X179506410Y-83560641D01*
X179499682Y-83572499D01*
X179493195Y-83584673D01*
X179487070Y-83597136D01*
X179481428Y-83609860D01*
X179476390Y-83622819D01*
X179472077Y-83635986D01*
X179468609Y-83649332D01*
X179466106Y-83662831D01*
X179464691Y-83676456D01*
X179464411Y-83685596D01*
X179466243Y-83706662D01*
X179469561Y-83720845D01*
X179474786Y-83733311D01*
X179481693Y-83744276D01*
X179490056Y-83753956D01*
X179499650Y-83762566D01*
X179510249Y-83770322D01*
X179521628Y-83777439D01*
X179533562Y-83784133D01*
X179545825Y-83790620D01*
X179558191Y-83797114D01*
X179570436Y-83803833D01*
X179582334Y-83810990D01*
X179593660Y-83818802D01*
X179604187Y-83827485D01*
X179613692Y-83837253D01*
X179621947Y-83848323D01*
X179628088Y-83860364D01*
X179632820Y-83872779D01*
X179636216Y-83885556D01*
X179638348Y-83898684D01*
X179639288Y-83912149D01*
X179639350Y-83916711D01*
G37*
G36*
X179702547Y-84450382D02*
G01*
X179702222Y-84466070D01*
X179701259Y-84481718D01*
X179699682Y-84497259D01*
X179697510Y-84512625D01*
X179694766Y-84527748D01*
X179691471Y-84542559D01*
X179687646Y-84556992D01*
X179683313Y-84570977D01*
X179678841Y-84585686D01*
X179674027Y-84600278D01*
X179668894Y-84614758D01*
X179663464Y-84629132D01*
X179657760Y-84643404D01*
X179651806Y-84657578D01*
X179645623Y-84671661D01*
X179639235Y-84685656D01*
X179632665Y-84699569D01*
X179625935Y-84713405D01*
X179619068Y-84727168D01*
X179612087Y-84740864D01*
X179605015Y-84754497D01*
X179597874Y-84768072D01*
X179590688Y-84781595D01*
X179583479Y-84795069D01*
X179574897Y-84811158D01*
X179566256Y-84827265D01*
X179557627Y-84843407D01*
X179549080Y-84859603D01*
X179540685Y-84875870D01*
X179532512Y-84892227D01*
X179524631Y-84908692D01*
X179517114Y-84925281D01*
X179510029Y-84942014D01*
X179503447Y-84958908D01*
X179497439Y-84975980D01*
X179492074Y-84993250D01*
X179487423Y-85010734D01*
X179483556Y-85028450D01*
X179480543Y-85046417D01*
X179478455Y-85064652D01*
X179475134Y-85078612D01*
X179469278Y-85090681D01*
X179460861Y-85100447D01*
X179449861Y-85107500D01*
X179436253Y-85111430D01*
X179431133Y-85111974D01*
X179417117Y-85109376D01*
X179405658Y-85103495D01*
X179395873Y-85094891D01*
X179388858Y-85084180D01*
X179385713Y-85071978D01*
X179385642Y-85069843D01*
X179385642Y-85064652D01*
X179387327Y-85050794D01*
X179389395Y-85037091D01*
X179391829Y-85023536D01*
X179394613Y-85010124D01*
X179397731Y-84996847D01*
X179401165Y-84983697D01*
X179404901Y-84970668D01*
X179408922Y-84957753D01*
X179413211Y-84944945D01*
X179417751Y-84932237D01*
X179422528Y-84919622D01*
X179427524Y-84907093D01*
X179432723Y-84894642D01*
X179438108Y-84882264D01*
X179443664Y-84869950D01*
X179449375Y-84857695D01*
X179455222Y-84845490D01*
X179461192Y-84833330D01*
X179467266Y-84821206D01*
X179473429Y-84809113D01*
X179479665Y-84797042D01*
X179485956Y-84784988D01*
X179492288Y-84772943D01*
X179498643Y-84760899D01*
X179505005Y-84748851D01*
X179511358Y-84736791D01*
X179517685Y-84724712D01*
X179523971Y-84712607D01*
X179530199Y-84700469D01*
X179536352Y-84688292D01*
X179542414Y-84676067D01*
X179548369Y-84663789D01*
X179554710Y-84650439D01*
X179560841Y-84637007D01*
X179566745Y-84623492D01*
X179572406Y-84609891D01*
X179577808Y-84596205D01*
X179582934Y-84582430D01*
X179587767Y-84568565D01*
X179592290Y-84554609D01*
X179596487Y-84540561D01*
X179600342Y-84526419D01*
X179602713Y-84516938D01*
X179605006Y-84504884D01*
X179607354Y-84491139D01*
X179609205Y-84478256D01*
X179610656Y-84464430D01*
X179611252Y-84452029D01*
X179611262Y-84450382D01*
X179610513Y-84433664D01*
X179608374Y-84418919D01*
X179605009Y-84406023D01*
X179598019Y-84389879D01*
X179589189Y-84377202D01*
X179579068Y-84367576D01*
X179568208Y-84360584D01*
X179553531Y-84354639D01*
X179539826Y-84351650D01*
X179526049Y-84350565D01*
X179523945Y-84350547D01*
X179513259Y-84350547D01*
X179498013Y-84351216D01*
X179483614Y-84352985D01*
X179471061Y-84355403D01*
X179457312Y-84359020D01*
X179442646Y-84364069D01*
X179427340Y-84370786D01*
X179411671Y-84379407D01*
X179401161Y-84386329D01*
X179390696Y-84394271D01*
X179380358Y-84403303D01*
X179375262Y-84408250D01*
X179366857Y-84417833D01*
X179360706Y-84428873D01*
X179359386Y-84436338D01*
X179361218Y-84445191D01*
X179376789Y-84441528D01*
X179389691Y-84443802D01*
X179400407Y-84450061D01*
X179408685Y-84459459D01*
X179414269Y-84471152D01*
X179416908Y-84484293D01*
X179417089Y-84488850D01*
X179415395Y-84502054D01*
X179409952Y-84514801D01*
X179401686Y-84524678D01*
X179389769Y-84532561D01*
X179385642Y-84534340D01*
X179373645Y-84537657D01*
X179360878Y-84539445D01*
X179357554Y-84539530D01*
X179343176Y-84538144D01*
X179329659Y-84534169D01*
X179317123Y-84527884D01*
X179305691Y-84519566D01*
X179295482Y-84509494D01*
X179286618Y-84497944D01*
X179279219Y-84485195D01*
X179273405Y-84471524D01*
X179269298Y-84457209D01*
X179267019Y-84442528D01*
X179266574Y-84432674D01*
X179267593Y-84420483D01*
X179269895Y-84408078D01*
X179270238Y-84406418D01*
X179274987Y-84393628D01*
X179281056Y-84381341D01*
X179288202Y-84369613D01*
X179296179Y-84358500D01*
X179304744Y-84348057D01*
X179313651Y-84338342D01*
X179317254Y-84334672D01*
X179326629Y-84326690D01*
X179336308Y-84319123D01*
X179346274Y-84311973D01*
X179356510Y-84305248D01*
X179366998Y-84298952D01*
X179377721Y-84293091D01*
X179394207Y-84285126D01*
X179411123Y-84278169D01*
X179428411Y-84272238D01*
X179446011Y-84267352D01*
X179463865Y-84263529D01*
X179481914Y-84260786D01*
X179494025Y-84259567D01*
X179520281Y-84257735D01*
X179535081Y-84258247D01*
X179549874Y-84259800D01*
X179564554Y-84262422D01*
X179579019Y-84266139D01*
X179593164Y-84270980D01*
X179606885Y-84276971D01*
X179620078Y-84284139D01*
X179632638Y-84292511D01*
X179644461Y-84302115D01*
X179655444Y-84312978D01*
X179662247Y-84320933D01*
X179670084Y-84331508D01*
X179676963Y-84342585D01*
X179682926Y-84354102D01*
X179688013Y-84365997D01*
X179692264Y-84378207D01*
X179695721Y-84390672D01*
X179698425Y-84403329D01*
X179700415Y-84416116D01*
X179701733Y-84428972D01*
X179702420Y-84441834D01*
X179702547Y-84450382D01*
G37*
G36*
X177669269Y-82679482D02*
G01*
X177667247Y-82692319D01*
X177661103Y-82703868D01*
X177650722Y-82712841D01*
X177638074Y-82717567D01*
X177635991Y-82717950D01*
X177603489Y-82724123D01*
X177570956Y-82730161D01*
X177538393Y-82736067D01*
X177505800Y-82741839D01*
X177473180Y-82747479D01*
X177440533Y-82752987D01*
X177407860Y-82758363D01*
X177375162Y-82763607D01*
X177342440Y-82768720D01*
X177309696Y-82773703D01*
X177276931Y-82778556D01*
X177244144Y-82783278D01*
X177211339Y-82787871D01*
X177178515Y-82792336D01*
X177145673Y-82796671D01*
X177112815Y-82800878D01*
X177079943Y-82804957D01*
X177047056Y-82808909D01*
X177014155Y-82812733D01*
X176981243Y-82816431D01*
X176948320Y-82820003D01*
X176915387Y-82823448D01*
X176882446Y-82826768D01*
X176849496Y-82829963D01*
X176816540Y-82833033D01*
X176783578Y-82835979D01*
X176750611Y-82838800D01*
X176717641Y-82841498D01*
X176684669Y-82844073D01*
X176651695Y-82846525D01*
X176618721Y-82848855D01*
X176585747Y-82851062D01*
X176583496Y-82869707D01*
X176581323Y-82888321D01*
X176579224Y-82906908D01*
X176577199Y-82925475D01*
X176575245Y-82944026D01*
X176573361Y-82962565D01*
X176571545Y-82981099D01*
X176569795Y-82999631D01*
X176568110Y-83018166D01*
X176566487Y-83036710D01*
X176564925Y-83055267D01*
X176563422Y-83073843D01*
X176561976Y-83092442D01*
X176560586Y-83111069D01*
X176559249Y-83129730D01*
X176557964Y-83148428D01*
X176547279Y-83298943D01*
X176544978Y-83311810D01*
X176538861Y-83324525D01*
X176529849Y-83334188D01*
X176518749Y-83340713D01*
X176506372Y-83344016D01*
X176499957Y-83344433D01*
X176487538Y-83342952D01*
X176474488Y-83337479D01*
X176464155Y-83327975D01*
X176458391Y-83316619D01*
X176456298Y-83302301D01*
X176456298Y-83298943D01*
X176456805Y-83286630D01*
X176457353Y-83274307D01*
X176457939Y-83261975D01*
X176458564Y-83249634D01*
X176459226Y-83237285D01*
X176459924Y-83224928D01*
X176460658Y-83212565D01*
X176461426Y-83200196D01*
X176462228Y-83187821D01*
X176463063Y-83175442D01*
X176463929Y-83163059D01*
X176464826Y-83150672D01*
X176465753Y-83138283D01*
X176466708Y-83125892D01*
X176467691Y-83113499D01*
X176468701Y-83101106D01*
X176469737Y-83088713D01*
X176470798Y-83076320D01*
X176471883Y-83063929D01*
X176472992Y-83051539D01*
X176474122Y-83039153D01*
X176475273Y-83026770D01*
X176476445Y-83014390D01*
X176477636Y-83002016D01*
X176478846Y-82989647D01*
X176480072Y-82977283D01*
X176481315Y-82964927D01*
X176482574Y-82952578D01*
X176483847Y-82940237D01*
X176485134Y-82927905D01*
X176486434Y-82915582D01*
X176487745Y-82903269D01*
X176489731Y-82884869D01*
X176491743Y-82866424D01*
X176493788Y-82847937D01*
X176495874Y-82829414D01*
X176498006Y-82810858D01*
X176500192Y-82792274D01*
X176502438Y-82773666D01*
X176504751Y-82755040D01*
X176507138Y-82736398D01*
X176509605Y-82717746D01*
X176512160Y-82699088D01*
X176514809Y-82680429D01*
X176517558Y-82661773D01*
X176520416Y-82643124D01*
X176523387Y-82624486D01*
X176526480Y-82605865D01*
X176529701Y-82587265D01*
X176533056Y-82568689D01*
X176536553Y-82550143D01*
X176540198Y-82531631D01*
X176543998Y-82513157D01*
X176547959Y-82494725D01*
X176552090Y-82476341D01*
X176556395Y-82458008D01*
X176560882Y-82439731D01*
X176565559Y-82421514D01*
X176570430Y-82403362D01*
X176575504Y-82385279D01*
X176580788Y-82367270D01*
X176586287Y-82349339D01*
X176592008Y-82331490D01*
X176597959Y-82313728D01*
X176602681Y-82300183D01*
X176607600Y-82286494D01*
X176612753Y-82272727D01*
X176618181Y-82258945D01*
X176623922Y-82245214D01*
X176630014Y-82231597D01*
X176636498Y-82218158D01*
X176643411Y-82204964D01*
X176650793Y-82192076D01*
X176658683Y-82179561D01*
X176667119Y-82167483D01*
X176676141Y-82155905D01*
X176685787Y-82144893D01*
X176696096Y-82134510D01*
X176707107Y-82124821D01*
X176718859Y-82115891D01*
X176730715Y-82110542D01*
X176743284Y-82108869D01*
X176756765Y-82110878D01*
X176769158Y-82117151D01*
X176777355Y-82126430D01*
X176781514Y-82139510D01*
X176781752Y-82143979D01*
X176780006Y-82157050D01*
X176776076Y-82168725D01*
X176769498Y-82182059D01*
X176761732Y-82194471D01*
X176753873Y-82205274D01*
X176746947Y-82213894D01*
X176738847Y-82225366D01*
X176731143Y-82237455D01*
X176723688Y-82250700D01*
X176717413Y-82263067D01*
X176710603Y-82277772D01*
X176703302Y-82295037D01*
X176698186Y-82308082D01*
X176692885Y-82322431D01*
X176687413Y-82338152D01*
X176681927Y-82354297D01*
X176676680Y-82370553D01*
X176671664Y-82386910D01*
X176666867Y-82403358D01*
X176662280Y-82419887D01*
X176657891Y-82436486D01*
X176653691Y-82453144D01*
X176649670Y-82469853D01*
X176645817Y-82486600D01*
X176642121Y-82503377D01*
X176638574Y-82520172D01*
X176635163Y-82536976D01*
X176631880Y-82553779D01*
X176628713Y-82570569D01*
X176625653Y-82587337D01*
X176622689Y-82604072D01*
X176620200Y-82618371D01*
X176617721Y-82632750D01*
X176615259Y-82647193D01*
X176612825Y-82661683D01*
X176610427Y-82676203D01*
X176608074Y-82690736D01*
X176605776Y-82705266D01*
X176603541Y-82719777D01*
X176601378Y-82734251D01*
X176599297Y-82748673D01*
X176597959Y-82758250D01*
X176629783Y-82756048D01*
X176661597Y-82753734D01*
X176693402Y-82751307D01*
X176725198Y-82748768D01*
X176756985Y-82746114D01*
X176788762Y-82743345D01*
X176820529Y-82740461D01*
X176852287Y-82737461D01*
X176884034Y-82734343D01*
X176915772Y-82731107D01*
X176947500Y-82727753D01*
X176979218Y-82724279D01*
X177010925Y-82720685D01*
X177042622Y-82716969D01*
X177074309Y-82713132D01*
X177105984Y-82709172D01*
X177137649Y-82705089D01*
X177169304Y-82700882D01*
X177200947Y-82696549D01*
X177232579Y-82692091D01*
X177264200Y-82687506D01*
X177295810Y-82682794D01*
X177327408Y-82677954D01*
X177358995Y-82672984D01*
X177390570Y-82667885D01*
X177422134Y-82662656D01*
X177453685Y-82657295D01*
X177485225Y-82651803D01*
X177516753Y-82646177D01*
X177548268Y-82640418D01*
X177579771Y-82634525D01*
X177611262Y-82628496D01*
X177620116Y-82628496D01*
X177633325Y-82630313D01*
X177644774Y-82635340D01*
X177655912Y-82644715D01*
X177663895Y-82656698D01*
X177668384Y-82670191D01*
X177669269Y-82679482D01*
G37*
G36*
X177553559Y-83080956D02*
G01*
X177566311Y-83083322D01*
X177578890Y-83086407D01*
X177591255Y-83090197D01*
X177603362Y-83094680D01*
X177615169Y-83099845D01*
X177626632Y-83105680D01*
X177637709Y-83112172D01*
X177648356Y-83119310D01*
X177658531Y-83127080D01*
X177668191Y-83135472D01*
X177677293Y-83144473D01*
X177685794Y-83154071D01*
X177693651Y-83164254D01*
X177700821Y-83175010D01*
X177707261Y-83186327D01*
X177712928Y-83198192D01*
X177717433Y-83209883D01*
X177721210Y-83221721D01*
X177724242Y-83233629D01*
X177726880Y-83247902D01*
X177728403Y-83262032D01*
X177728804Y-83273602D01*
X177727679Y-83295266D01*
X177724398Y-83316910D01*
X177719101Y-83338429D01*
X177711931Y-83359717D01*
X177703027Y-83380669D01*
X177692530Y-83401179D01*
X177680582Y-83421141D01*
X177667323Y-83440451D01*
X177652894Y-83459002D01*
X177637436Y-83476689D01*
X177621090Y-83493406D01*
X177603996Y-83509049D01*
X177586297Y-83523510D01*
X177568131Y-83536686D01*
X177549641Y-83548469D01*
X177530967Y-83558756D01*
X177532799Y-83593866D01*
X177532516Y-83611959D01*
X177531699Y-83630159D01*
X177530390Y-83648445D01*
X177528634Y-83666795D01*
X177526476Y-83685189D01*
X177523960Y-83703603D01*
X177521130Y-83722018D01*
X177518030Y-83740412D01*
X177514704Y-83758762D01*
X177511198Y-83777048D01*
X177507555Y-83795248D01*
X177503819Y-83813341D01*
X177500035Y-83831305D01*
X177496246Y-83849119D01*
X177492498Y-83866761D01*
X177488835Y-83884209D01*
X177484706Y-83895783D01*
X177477261Y-83906062D01*
X177466204Y-83913721D01*
X177453497Y-83917212D01*
X177448535Y-83917488D01*
X177434788Y-83915529D01*
X177421766Y-83909937D01*
X177410579Y-83901132D01*
X177402339Y-83889538D01*
X177398155Y-83875577D01*
X177397855Y-83870471D01*
X177399686Y-83859785D01*
X177402946Y-83844043D01*
X177406185Y-83828297D01*
X177409385Y-83812546D01*
X177412523Y-83796788D01*
X177415582Y-83781018D01*
X177418539Y-83765235D01*
X177421376Y-83749436D01*
X177424072Y-83733619D01*
X177426608Y-83717779D01*
X177428961Y-83701916D01*
X177431114Y-83686026D01*
X177433046Y-83670106D01*
X177434735Y-83654154D01*
X177436164Y-83638167D01*
X177437310Y-83622143D01*
X177438155Y-83606078D01*
X177438672Y-83593585D01*
X177439986Y-83586844D01*
X177403045Y-83590202D01*
X177390576Y-83589804D01*
X177378172Y-83588618D01*
X177365897Y-83586660D01*
X177353814Y-83583943D01*
X177341990Y-83580483D01*
X177330487Y-83576292D01*
X177316660Y-83570049D01*
X177308706Y-83565778D01*
X177295686Y-83557257D01*
X177284344Y-83547584D01*
X177274697Y-83536894D01*
X177266765Y-83525325D01*
X177260564Y-83513012D01*
X177256113Y-83500090D01*
X177253429Y-83486696D01*
X177252650Y-83474797D01*
X177345342Y-83474797D01*
X177351577Y-83485431D01*
X177362848Y-83490593D01*
X177375146Y-83493374D01*
X177389005Y-83495019D01*
X177403413Y-83495758D01*
X177411898Y-83495863D01*
X177425942Y-83495863D01*
X177419276Y-83485203D01*
X177411561Y-83475704D01*
X177402434Y-83466592D01*
X177392413Y-83458755D01*
X177379935Y-83452282D01*
X177369767Y-83450373D01*
X177358015Y-83453812D01*
X177349502Y-83463437D01*
X177349006Y-83464417D01*
X177345342Y-83474797D01*
X177252650Y-83474797D01*
X177252530Y-83472966D01*
X177253312Y-83460571D01*
X177255651Y-83448099D01*
X177259542Y-83435697D01*
X177264978Y-83423512D01*
X177271950Y-83411690D01*
X177280453Y-83400378D01*
X177284282Y-83396029D01*
X177293677Y-83387442D01*
X177303520Y-83380001D01*
X177316393Y-83372308D01*
X177329826Y-83366405D01*
X177343743Y-83362291D01*
X177358067Y-83359965D01*
X177369767Y-83359393D01*
X177382985Y-83360113D01*
X177396228Y-83362236D01*
X177409378Y-83365704D01*
X177422317Y-83370460D01*
X177434927Y-83376447D01*
X177447089Y-83383607D01*
X177458687Y-83391884D01*
X177469601Y-83401219D01*
X177479716Y-83411508D01*
X177488567Y-83422477D01*
X177496371Y-83434162D01*
X177503346Y-83446600D01*
X177509710Y-83459827D01*
X177511733Y-83464417D01*
X177523036Y-83456882D01*
X177534023Y-83448726D01*
X177544659Y-83439989D01*
X177554905Y-83430710D01*
X177564725Y-83420925D01*
X177574083Y-83410675D01*
X177582941Y-83399998D01*
X177591264Y-83388931D01*
X177599015Y-83377513D01*
X177606156Y-83365784D01*
X177612652Y-83353780D01*
X177618465Y-83341542D01*
X177623559Y-83329107D01*
X177627897Y-83316513D01*
X177631443Y-83303800D01*
X177634159Y-83291005D01*
X177635991Y-83275434D01*
X177635214Y-83262876D01*
X177632930Y-83250832D01*
X177627664Y-83235683D01*
X177620012Y-83221711D01*
X177610145Y-83209066D01*
X177601391Y-83200544D01*
X177591555Y-83192916D01*
X177580710Y-83186247D01*
X177568925Y-83180599D01*
X177560581Y-83177432D01*
X177548708Y-83174534D01*
X177536431Y-83172709D01*
X177523263Y-83171942D01*
X177522113Y-83171936D01*
X177506435Y-83172814D01*
X177490858Y-83175352D01*
X177475509Y-83179407D01*
X177460518Y-83184835D01*
X177446014Y-83191495D01*
X177432125Y-83199242D01*
X177418980Y-83207933D01*
X177406708Y-83217427D01*
X177395847Y-83224779D01*
X177383696Y-83229233D01*
X177376789Y-83229944D01*
X177364072Y-83228235D01*
X177352298Y-83223519D01*
X177341964Y-83216410D01*
X177333566Y-83207523D01*
X177326742Y-83195378D01*
X177324276Y-83182622D01*
X177326956Y-83169832D01*
X177334048Y-83158719D01*
X177340152Y-83152702D01*
X177350119Y-83144685D01*
X177360321Y-83137019D01*
X177370753Y-83129728D01*
X177381406Y-83122835D01*
X177392274Y-83116362D01*
X177403350Y-83110332D01*
X177414626Y-83104769D01*
X177426095Y-83099694D01*
X177437750Y-83095131D01*
X177449584Y-83091102D01*
X177461590Y-83087630D01*
X177473761Y-83084739D01*
X177486088Y-83082450D01*
X177498567Y-83080787D01*
X177511188Y-83079773D01*
X177523945Y-83079429D01*
X177553559Y-83080956D01*
G37*
G36*
X177639350Y-84565036D02*
G01*
X177638899Y-84577659D01*
X177637677Y-84590281D01*
X177635874Y-84602904D01*
X177633681Y-84615526D01*
X177632328Y-84622739D01*
X177627308Y-84644047D01*
X177621454Y-84665265D01*
X177614830Y-84686387D01*
X177607503Y-84707408D01*
X177599539Y-84728324D01*
X177591004Y-84749129D01*
X177581965Y-84769819D01*
X177572488Y-84790389D01*
X177562639Y-84810833D01*
X177552484Y-84831147D01*
X177542089Y-84851326D01*
X177531520Y-84871366D01*
X177520844Y-84891260D01*
X177510128Y-84911004D01*
X177499436Y-84930594D01*
X177488835Y-84950024D01*
X177481479Y-84960300D01*
X177471382Y-84968105D01*
X177458761Y-84972401D01*
X177452199Y-84972922D01*
X177439160Y-84970805D01*
X177426583Y-84964872D01*
X177415642Y-84955751D01*
X177407505Y-84944071D01*
X177403345Y-84930458D01*
X177403045Y-84925600D01*
X177405055Y-84913424D01*
X177410067Y-84902702D01*
X177421712Y-84881288D01*
X177427615Y-84870305D01*
X177433549Y-84859162D01*
X177439499Y-84847877D01*
X177445448Y-84836468D01*
X177451380Y-84824954D01*
X177457279Y-84813353D01*
X177463128Y-84801683D01*
X177468911Y-84789963D01*
X177474612Y-84778210D01*
X177480214Y-84766443D01*
X177485702Y-84754679D01*
X177491059Y-84742939D01*
X177496268Y-84731238D01*
X177501314Y-84719596D01*
X177506180Y-84708032D01*
X177510851Y-84696562D01*
X177519538Y-84673981D01*
X177527245Y-84651999D01*
X177533843Y-84630763D01*
X177539202Y-84610417D01*
X177543190Y-84591108D01*
X177545679Y-84572981D01*
X177546537Y-84556183D01*
X177545011Y-84547634D01*
X177531245Y-84537502D01*
X177517635Y-84528560D01*
X177504244Y-84520533D01*
X177491130Y-84513148D01*
X177478354Y-84506129D01*
X177465976Y-84499201D01*
X177454057Y-84492091D01*
X177442658Y-84484522D01*
X177431838Y-84476221D01*
X177421658Y-84466913D01*
X177415257Y-84460012D01*
X177407382Y-84449565D01*
X177400400Y-84438838D01*
X177394284Y-84427843D01*
X177389008Y-84416590D01*
X177384548Y-84405090D01*
X177380877Y-84393352D01*
X177377970Y-84381388D01*
X177375801Y-84369208D01*
X177374344Y-84356823D01*
X177373575Y-84344243D01*
X177373430Y-84335753D01*
X177373929Y-84319956D01*
X177375390Y-84304045D01*
X177377764Y-84288096D01*
X177380997Y-84272191D01*
X177385040Y-84256406D01*
X177389840Y-84240820D01*
X177395347Y-84225512D01*
X177401509Y-84210560D01*
X177408274Y-84196043D01*
X177415592Y-84182039D01*
X177420752Y-84173027D01*
X177427414Y-84162223D01*
X177434308Y-84151440D01*
X177441370Y-84140664D01*
X177448540Y-84129879D01*
X177455754Y-84119070D01*
X177462950Y-84108224D01*
X177470067Y-84097325D01*
X177477043Y-84086359D01*
X177483814Y-84075310D01*
X177490319Y-84064164D01*
X177496496Y-84052906D01*
X177502283Y-84041522D01*
X177507617Y-84029996D01*
X177512436Y-84018315D01*
X177516678Y-84006462D01*
X177520281Y-83994424D01*
X177522825Y-83981490D01*
X177525030Y-83968404D01*
X177525777Y-83957788D01*
X177524657Y-83945137D01*
X177518229Y-83933907D01*
X177506138Y-83928528D01*
X177494025Y-83926341D01*
X177481344Y-83927182D01*
X177469281Y-83929456D01*
X177454796Y-83933756D01*
X177440636Y-83939002D01*
X177426445Y-83944474D01*
X177414831Y-83948531D01*
X177402786Y-83951904D01*
X177399686Y-83952597D01*
X177386898Y-83950166D01*
X177376202Y-83943581D01*
X177367889Y-83933905D01*
X177362248Y-83922201D01*
X177359571Y-83909530D01*
X177359386Y-83905275D01*
X177360708Y-83892781D01*
X177364879Y-83881053D01*
X177372206Y-83870860D01*
X177382995Y-83862967D01*
X177390833Y-83859785D01*
X177404064Y-83855229D01*
X177417403Y-83850817D01*
X177430814Y-83846691D01*
X177444261Y-83842994D01*
X177457707Y-83839869D01*
X177471118Y-83837460D01*
X177484457Y-83835910D01*
X177497689Y-83835361D01*
X177509994Y-83835984D01*
X177527712Y-83839167D01*
X177544372Y-83844873D01*
X177559784Y-83852905D01*
X177573758Y-83863067D01*
X177586104Y-83875164D01*
X177596632Y-83888998D01*
X177605152Y-83904373D01*
X177611472Y-83921094D01*
X177615404Y-83938965D01*
X177616605Y-83951420D01*
X177616757Y-83957788D01*
X177616095Y-83973829D01*
X177614176Y-83989774D01*
X177611104Y-84005614D01*
X177606983Y-84021338D01*
X177601915Y-84036938D01*
X177596004Y-84052402D01*
X177589354Y-84067721D01*
X177582067Y-84082886D01*
X177574247Y-84097886D01*
X177565997Y-84112711D01*
X177557421Y-84127353D01*
X177548622Y-84141800D01*
X177539703Y-84156043D01*
X177530767Y-84170073D01*
X177521918Y-84183878D01*
X177513259Y-84197451D01*
X177506410Y-84208966D01*
X177499682Y-84220824D01*
X177493195Y-84232998D01*
X177487070Y-84245461D01*
X177481428Y-84258186D01*
X177476390Y-84271145D01*
X177472077Y-84284311D01*
X177468609Y-84297657D01*
X177466106Y-84311157D01*
X177464691Y-84324782D01*
X177464411Y-84333922D01*
X177466243Y-84354988D01*
X177469561Y-84369170D01*
X177474786Y-84381636D01*
X177481693Y-84392601D01*
X177490056Y-84402281D01*
X177499650Y-84410891D01*
X177510249Y-84418647D01*
X177521628Y-84425764D01*
X177533562Y-84432458D01*
X177545825Y-84438945D01*
X177558191Y-84445440D01*
X177570436Y-84452158D01*
X177582334Y-84459316D01*
X177593660Y-84467128D01*
X177604187Y-84475810D01*
X177613692Y-84485579D01*
X177621947Y-84496648D01*
X177628088Y-84508689D01*
X177632820Y-84521104D01*
X177636216Y-84533882D01*
X177638348Y-84547009D01*
X177639288Y-84560475D01*
X177639350Y-84565036D01*
G37*
G36*
X178538905Y-84281663D02*
G01*
X178554416Y-84282464D01*
X178569749Y-84283873D01*
X178584913Y-84285951D01*
X178599920Y-84288759D01*
X178614780Y-84292357D01*
X178629505Y-84296808D01*
X178644104Y-84302170D01*
X178661185Y-84308855D01*
X178677731Y-84316412D01*
X178693726Y-84324809D01*
X178709157Y-84334017D01*
X178724011Y-84344005D01*
X178738273Y-84354742D01*
X178751929Y-84366198D01*
X178764966Y-84378343D01*
X178777369Y-84391147D01*
X178789126Y-84404578D01*
X178800221Y-84418607D01*
X178810642Y-84433203D01*
X178820374Y-84448335D01*
X178829403Y-84463974D01*
X178837716Y-84480088D01*
X178845299Y-84496648D01*
X178850669Y-84509187D01*
X178855677Y-84521837D01*
X178860325Y-84534587D01*
X178864614Y-84547429D01*
X178868547Y-84560351D01*
X178872127Y-84573343D01*
X178875355Y-84586396D01*
X178878233Y-84599498D01*
X178880765Y-84612639D01*
X178882952Y-84625809D01*
X178884796Y-84638998D01*
X178886300Y-84652196D01*
X178887466Y-84665392D01*
X178888296Y-84678575D01*
X178888792Y-84691737D01*
X178888957Y-84704865D01*
X178888789Y-84718488D01*
X178888285Y-84732104D01*
X178887448Y-84745705D01*
X178886283Y-84759283D01*
X178884790Y-84772831D01*
X178882974Y-84786343D01*
X178880837Y-84799810D01*
X178878381Y-84813224D01*
X178875610Y-84826580D01*
X178872527Y-84839868D01*
X178869135Y-84853082D01*
X178865435Y-84866214D01*
X178861432Y-84879257D01*
X178857127Y-84892204D01*
X178852525Y-84905046D01*
X178847627Y-84917777D01*
X178842436Y-84930388D01*
X178836956Y-84942874D01*
X178831189Y-84955225D01*
X178825139Y-84967435D01*
X178818807Y-84979497D01*
X178812197Y-84991402D01*
X178805311Y-85003144D01*
X178798153Y-85014715D01*
X178790725Y-85026108D01*
X178783031Y-85037314D01*
X178775073Y-85048327D01*
X178766853Y-85059140D01*
X178758375Y-85069744D01*
X178749642Y-85080133D01*
X178740656Y-85090298D01*
X178731420Y-85100234D01*
X178722624Y-85109170D01*
X178713639Y-85117890D01*
X178704472Y-85126395D01*
X178695127Y-85134684D01*
X178685610Y-85142758D01*
X178675927Y-85150617D01*
X178666083Y-85158262D01*
X178656082Y-85165693D01*
X178645931Y-85172909D01*
X178635634Y-85179913D01*
X178625197Y-85186703D01*
X178614626Y-85193281D01*
X178603925Y-85199646D01*
X178593100Y-85205799D01*
X178582156Y-85211740D01*
X178571098Y-85217470D01*
X178559932Y-85222989D01*
X178548663Y-85228297D01*
X178537297Y-85233395D01*
X178525838Y-85238282D01*
X178514293Y-85242960D01*
X178502666Y-85247428D01*
X178490962Y-85251687D01*
X178479187Y-85255738D01*
X178467347Y-85259580D01*
X178455446Y-85263214D01*
X178443490Y-85266641D01*
X178431484Y-85269860D01*
X178419434Y-85272871D01*
X178407344Y-85275677D01*
X178395221Y-85278275D01*
X178383069Y-85280668D01*
X178366794Y-85283413D01*
X178350430Y-85285819D01*
X178333989Y-85287900D01*
X178317478Y-85289673D01*
X178300906Y-85291152D01*
X178284284Y-85292353D01*
X178267619Y-85293289D01*
X178250920Y-85293977D01*
X178234198Y-85294432D01*
X178217461Y-85294668D01*
X178206298Y-85294712D01*
X178192560Y-85294700D01*
X178178821Y-85294615D01*
X178165082Y-85294386D01*
X178151344Y-85293939D01*
X178137605Y-85293203D01*
X178133025Y-85292880D01*
X177697052Y-85254412D01*
X177688504Y-85254412D01*
X177681621Y-85268195D01*
X177674769Y-85282009D01*
X177667950Y-85295854D01*
X177661162Y-85309728D01*
X177654408Y-85323630D01*
X177647687Y-85337559D01*
X177641001Y-85351514D01*
X177634350Y-85365495D01*
X177627735Y-85379499D01*
X177621156Y-85393527D01*
X177614615Y-85407577D01*
X177608111Y-85421648D01*
X177601646Y-85435739D01*
X177595219Y-85449849D01*
X177588833Y-85463978D01*
X177582487Y-85478123D01*
X177576182Y-85492285D01*
X177569919Y-85506461D01*
X177563698Y-85520652D01*
X177557521Y-85534856D01*
X177551388Y-85549072D01*
X177545299Y-85563299D01*
X177539255Y-85577536D01*
X177533257Y-85591782D01*
X177527305Y-85606036D01*
X177521401Y-85620297D01*
X177515544Y-85634564D01*
X177509736Y-85648837D01*
X177503978Y-85663113D01*
X177498269Y-85677392D01*
X177492610Y-85691674D01*
X177487003Y-85705956D01*
X177481813Y-85718168D01*
X177475580Y-85730462D01*
X177466607Y-85739707D01*
X177455662Y-85745922D01*
X177443512Y-85749127D01*
X177436323Y-85749614D01*
X177423735Y-85748014D01*
X177412001Y-85743384D01*
X177402038Y-85735976D01*
X177394763Y-85726044D01*
X177391095Y-85713842D01*
X177390833Y-85709314D01*
X177394496Y-85693744D01*
X177399599Y-85679467D01*
X177404774Y-85665201D01*
X177410020Y-85650947D01*
X177415337Y-85636706D01*
X177420723Y-85622478D01*
X177426177Y-85608264D01*
X177431699Y-85594064D01*
X177437286Y-85579880D01*
X177442940Y-85565711D01*
X177448657Y-85551558D01*
X177454438Y-85537422D01*
X177460281Y-85523304D01*
X177466185Y-85509204D01*
X177472150Y-85495122D01*
X177478173Y-85481060D01*
X177484255Y-85467018D01*
X177490395Y-85452996D01*
X177496590Y-85438996D01*
X177502841Y-85425017D01*
X177509146Y-85411061D01*
X177515504Y-85397127D01*
X177521915Y-85383218D01*
X177528376Y-85369333D01*
X177534888Y-85355472D01*
X177541449Y-85341637D01*
X177548058Y-85327828D01*
X177554715Y-85314046D01*
X177561417Y-85300291D01*
X177568165Y-85286565D01*
X177574957Y-85272866D01*
X177581792Y-85259197D01*
X177588669Y-85245558D01*
X177469601Y-85235178D01*
X177457363Y-85232272D01*
X177445197Y-85226021D01*
X177435892Y-85217381D01*
X177428814Y-85205167D01*
X177425988Y-85191661D01*
X177425942Y-85189688D01*
X177427436Y-85177364D01*
X177431929Y-85165958D01*
X177432451Y-85165263D01*
X177735520Y-85165263D01*
X177893057Y-85179002D01*
X177912439Y-85180718D01*
X177931780Y-85182528D01*
X177951087Y-85184403D01*
X177970370Y-85186315D01*
X177989637Y-85188236D01*
X178008896Y-85190138D01*
X178028156Y-85191992D01*
X178047426Y-85193771D01*
X178066713Y-85195446D01*
X178086027Y-85196989D01*
X178105376Y-85198372D01*
X178124768Y-85199567D01*
X178144212Y-85200545D01*
X178163716Y-85201279D01*
X178183289Y-85201740D01*
X178202940Y-85201900D01*
X178236218Y-85201900D01*
X178260484Y-85201205D01*
X178284717Y-85199794D01*
X178308884Y-85197641D01*
X178332952Y-85194725D01*
X178356887Y-85191022D01*
X178380656Y-85186508D01*
X178404228Y-85181161D01*
X178427567Y-85174957D01*
X178450642Y-85167872D01*
X178473419Y-85159885D01*
X178495865Y-85150970D01*
X178517946Y-85141106D01*
X178539631Y-85130269D01*
X178560886Y-85118435D01*
X178581677Y-85105581D01*
X178591888Y-85098765D01*
X178601972Y-85091685D01*
X178613467Y-85082983D01*
X178624650Y-85073944D01*
X178635519Y-85064580D01*
X178646070Y-85054903D01*
X178656298Y-85044924D01*
X178666202Y-85034656D01*
X178675777Y-85024110D01*
X178685019Y-85013298D01*
X178693926Y-85002232D01*
X178702493Y-84990924D01*
X178710717Y-84979386D01*
X178718595Y-84967629D01*
X178726123Y-84955666D01*
X178733297Y-84943508D01*
X178740114Y-84931166D01*
X178746571Y-84918654D01*
X178752664Y-84905983D01*
X178758389Y-84893164D01*
X178763743Y-84880210D01*
X178768723Y-84867132D01*
X178773324Y-84853942D01*
X178777544Y-84840652D01*
X178781379Y-84827275D01*
X178784825Y-84813821D01*
X178787878Y-84800302D01*
X178790536Y-84786731D01*
X178792795Y-84773120D01*
X178794651Y-84759479D01*
X178796101Y-84745821D01*
X178797141Y-84732159D01*
X178797767Y-84718503D01*
X178797977Y-84704865D01*
X178797733Y-84689839D01*
X178796999Y-84674984D01*
X178795771Y-84660301D01*
X178794046Y-84645789D01*
X178791820Y-84631449D01*
X178789089Y-84617281D01*
X178785851Y-84603285D01*
X178782101Y-84589461D01*
X178777937Y-84575090D01*
X178773230Y-84560964D01*
X178767982Y-84547113D01*
X178762194Y-84533566D01*
X178755868Y-84520354D01*
X178749005Y-84507506D01*
X178741606Y-84495053D01*
X178733672Y-84483024D01*
X178725206Y-84471450D01*
X178716207Y-84460360D01*
X178706678Y-84449784D01*
X178696621Y-84439752D01*
X178686035Y-84430295D01*
X178674923Y-84421442D01*
X178663286Y-84413223D01*
X178651126Y-84405668D01*
X178638416Y-84398857D01*
X178625299Y-84392855D01*
X178611852Y-84387668D01*
X178598155Y-84383304D01*
X178584287Y-84379771D01*
X178570325Y-84377074D01*
X178556349Y-84375222D01*
X178542438Y-84374222D01*
X178519845Y-84374222D01*
X178507618Y-84374401D01*
X178491690Y-84375211D01*
X178476096Y-84376702D01*
X178460732Y-84378901D01*
X178445494Y-84381837D01*
X178430278Y-84385538D01*
X178414981Y-84390034D01*
X178403392Y-84393944D01*
X178395587Y-84396814D01*
X178383360Y-84401231D01*
X178371294Y-84405948D01*
X178359385Y-84410955D01*
X178347632Y-84416246D01*
X178336032Y-84421810D01*
X178324583Y-84427641D01*
X178313281Y-84433729D01*
X178302126Y-84440067D01*
X178291113Y-84446646D01*
X178280241Y-84453457D01*
X178269507Y-84460493D01*
X178258908Y-84467745D01*
X178248443Y-84475205D01*
X178238109Y-84482864D01*
X178227903Y-84490714D01*
X178217824Y-84498747D01*
X178207867Y-84506955D01*
X178198032Y-84515328D01*
X178188315Y-84523859D01*
X178178714Y-84532540D01*
X178169226Y-84541362D01*
X178159850Y-84550316D01*
X178150583Y-84559395D01*
X178141421Y-84568590D01*
X178132364Y-84577893D01*
X178123408Y-84587295D01*
X178114550Y-84596789D01*
X178105789Y-84606365D01*
X178097122Y-84616016D01*
X178088546Y-84625733D01*
X178080060Y-84635507D01*
X178071659Y-84645331D01*
X178061554Y-84657203D01*
X178051557Y-84669173D01*
X178041666Y-84681240D01*
X178031881Y-84693400D01*
X178022197Y-84705651D01*
X178012614Y-84717990D01*
X178003129Y-84730413D01*
X177993740Y-84742919D01*
X177984445Y-84755503D01*
X177975242Y-84768164D01*
X177966129Y-84780898D01*
X177957103Y-84793703D01*
X177948162Y-84806576D01*
X177939305Y-84819514D01*
X177930529Y-84832513D01*
X177921832Y-84845572D01*
X177913212Y-84858687D01*
X177904666Y-84871856D01*
X177896194Y-84885075D01*
X177887792Y-84898343D01*
X177879458Y-84911655D01*
X177871191Y-84925009D01*
X177862987Y-84938402D01*
X177854846Y-84951832D01*
X177846765Y-84965296D01*
X177838742Y-84978790D01*
X177830774Y-84992312D01*
X177822860Y-85005858D01*
X177814997Y-85019427D01*
X177807184Y-85033016D01*
X177799417Y-85046620D01*
X177791696Y-85060239D01*
X177784486Y-85073304D01*
X177777294Y-85086395D01*
X177770138Y-85099507D01*
X177763036Y-85112637D01*
X177756005Y-85125781D01*
X177749063Y-85138936D01*
X177742229Y-85152098D01*
X177735520Y-85165263D01*
X177432451Y-85165263D01*
X177439440Y-85155950D01*
X177449989Y-85147817D01*
X177457389Y-85144197D01*
X177469839Y-85137017D01*
X177479714Y-85126171D01*
X177485975Y-85115123D01*
X177490447Y-85102929D01*
X177493131Y-85090223D01*
X177494025Y-85077641D01*
X177494025Y-85068787D01*
X177491645Y-85056301D01*
X177485758Y-85042335D01*
X177477053Y-85030276D01*
X177465979Y-85020215D01*
X177452981Y-85012244D01*
X177441499Y-85007433D01*
X177429301Y-85004063D01*
X177404877Y-85000705D01*
X177392058Y-85001506D01*
X177379837Y-85003842D01*
X177362683Y-85009993D01*
X177347018Y-85019007D01*
X177332928Y-85030531D01*
X177324452Y-85039433D01*
X177316739Y-85049188D01*
X177309815Y-85059693D01*
X177303707Y-85070843D01*
X177298438Y-85082532D01*
X177294035Y-85094656D01*
X177290523Y-85107111D01*
X177287927Y-85119792D01*
X177286274Y-85132593D01*
X177285808Y-85139007D01*
X177283609Y-85151874D01*
X177277526Y-85164590D01*
X177268485Y-85174252D01*
X177257331Y-85180777D01*
X177244908Y-85184081D01*
X177238486Y-85184497D01*
X177225899Y-85182847D01*
X177214164Y-85177993D01*
X177204201Y-85170080D01*
X177196927Y-85159253D01*
X177193259Y-85145656D01*
X177192996Y-85140534D01*
X177192996Y-85139007D01*
X177194711Y-85116508D01*
X177198419Y-85094444D01*
X177204020Y-85072953D01*
X177211419Y-85052177D01*
X177220517Y-85032256D01*
X177231217Y-85013331D01*
X177243422Y-84995541D01*
X177257033Y-84979028D01*
X177271954Y-84963932D01*
X177288087Y-84950393D01*
X177305335Y-84938551D01*
X177323599Y-84928548D01*
X177342783Y-84920523D01*
X177362789Y-84914617D01*
X177383519Y-84910971D01*
X177404877Y-84909724D01*
X177418796Y-84910272D01*
X177433030Y-84911914D01*
X177445079Y-84914119D01*
X177457254Y-84917084D01*
X177469512Y-84920809D01*
X177481813Y-84925295D01*
X177494544Y-84931262D01*
X177506408Y-84937918D01*
X177517411Y-84945218D01*
X177527561Y-84953120D01*
X177536862Y-84961583D01*
X177545322Y-84970562D01*
X177556447Y-84984909D01*
X177565714Y-85000182D01*
X177573143Y-85016236D01*
X177578756Y-85032928D01*
X177582574Y-85050116D01*
X177584618Y-85067655D01*
X177585006Y-85079473D01*
X177584458Y-85093202D01*
X177582816Y-85106870D01*
X177580079Y-85120417D01*
X177576247Y-85133784D01*
X177571321Y-85146908D01*
X177569435Y-85151219D01*
X177634159Y-85156409D01*
X177672628Y-85084663D01*
X177680697Y-85069739D01*
X177688819Y-85054847D01*
X177696996Y-85039991D01*
X177705230Y-85025170D01*
X177713522Y-85010386D01*
X177721873Y-84995640D01*
X177730285Y-84980934D01*
X177738759Y-84966267D01*
X177747298Y-84951643D01*
X177755902Y-84937061D01*
X177764572Y-84922523D01*
X177773312Y-84908030D01*
X177782121Y-84893584D01*
X177791002Y-84879184D01*
X177799956Y-84864834D01*
X177808984Y-84850533D01*
X177818088Y-84836284D01*
X177827270Y-84822086D01*
X177836531Y-84807942D01*
X177845873Y-84793852D01*
X177855296Y-84779819D01*
X177864803Y-84765841D01*
X177874395Y-84751922D01*
X177884074Y-84738062D01*
X177893841Y-84724263D01*
X177903698Y-84710525D01*
X177913645Y-84696850D01*
X177923686Y-84683238D01*
X177933820Y-84669692D01*
X177944050Y-84656212D01*
X177954377Y-84642799D01*
X177964803Y-84629455D01*
X177973727Y-84618328D01*
X177982756Y-84607218D01*
X177991891Y-84596137D01*
X178001134Y-84585093D01*
X178010489Y-84574097D01*
X178019956Y-84563158D01*
X178029539Y-84552286D01*
X178039240Y-84541490D01*
X178049061Y-84530780D01*
X178059003Y-84520165D01*
X178069070Y-84509655D01*
X178079263Y-84499260D01*
X178089586Y-84488990D01*
X178100039Y-84478853D01*
X178110626Y-84468860D01*
X178121348Y-84459020D01*
X178132207Y-84449343D01*
X178143207Y-84439838D01*
X178154349Y-84430515D01*
X178165636Y-84421384D01*
X178177069Y-84412454D01*
X178188651Y-84403735D01*
X178200384Y-84395237D01*
X178212271Y-84386968D01*
X178224313Y-84378939D01*
X178236513Y-84371160D01*
X178248874Y-84363640D01*
X178261396Y-84356388D01*
X178274083Y-84349414D01*
X178286937Y-84342728D01*
X178299960Y-84336339D01*
X178313155Y-84330258D01*
X178325693Y-84324829D01*
X178338346Y-84319656D01*
X178351106Y-84314753D01*
X178363964Y-84310132D01*
X178376913Y-84305806D01*
X178389946Y-84301788D01*
X178403055Y-84298091D01*
X178416233Y-84294728D01*
X178429471Y-84291713D01*
X178442763Y-84289057D01*
X178456100Y-84286774D01*
X178469475Y-84284877D01*
X178482880Y-84283380D01*
X178496309Y-84282294D01*
X178509752Y-84281633D01*
X178523203Y-84281409D01*
X178538905Y-84281663D01*
G37*
X178462810Y-86759523D02*
X178510429Y-86711904D01*
X178510429Y-86711904D02*
X178558048Y-86569047D01*
X178558048Y-86569047D02*
X178558048Y-86473809D01*
X178558048Y-86473809D02*
X178510429Y-86330952D01*
X178510429Y-86330952D02*
X178415191Y-86235714D01*
X178415191Y-86235714D02*
X178319953Y-86188095D01*
X178319953Y-86188095D02*
X178129477Y-86140476D01*
X178129477Y-86140476D02*
X177986620Y-86140476D01*
X177986620Y-86140476D02*
X177796144Y-86188095D01*
X177796144Y-86188095D02*
X177700906Y-86235714D01*
X177700906Y-86235714D02*
X177605668Y-86330952D01*
X177605668Y-86330952D02*
X177558048Y-86473809D01*
X177558048Y-86473809D02*
X177558048Y-86569047D01*
X177558048Y-86569047D02*
X177605668Y-86711904D01*
X177605668Y-86711904D02*
X177653287Y-86759523D01*
G36*
X175769269Y-82779482D02*
G01*
X175767247Y-82792319D01*
X175761103Y-82803868D01*
X175750722Y-82812841D01*
X175738074Y-82817567D01*
X175735991Y-82817950D01*
X175703489Y-82824123D01*
X175670956Y-82830161D01*
X175638393Y-82836067D01*
X175605800Y-82841839D01*
X175573180Y-82847479D01*
X175540533Y-82852987D01*
X175507860Y-82858363D01*
X175475162Y-82863607D01*
X175442440Y-82868720D01*
X175409696Y-82873703D01*
X175376931Y-82878556D01*
X175344144Y-82883278D01*
X175311339Y-82887871D01*
X175278515Y-82892336D01*
X175245673Y-82896671D01*
X175212815Y-82900878D01*
X175179943Y-82904957D01*
X175147056Y-82908909D01*
X175114155Y-82912733D01*
X175081243Y-82916431D01*
X175048320Y-82920003D01*
X175015387Y-82923448D01*
X174982446Y-82926768D01*
X174949496Y-82929963D01*
X174916540Y-82933033D01*
X174883578Y-82935979D01*
X174850611Y-82938800D01*
X174817641Y-82941498D01*
X174784669Y-82944073D01*
X174751695Y-82946525D01*
X174718721Y-82948855D01*
X174685747Y-82951062D01*
X174683496Y-82969707D01*
X174681323Y-82988321D01*
X174679224Y-83006908D01*
X174677199Y-83025475D01*
X174675245Y-83044026D01*
X174673361Y-83062565D01*
X174671545Y-83081099D01*
X174669795Y-83099631D01*
X174668110Y-83118166D01*
X174666487Y-83136710D01*
X174664925Y-83155267D01*
X174663422Y-83173843D01*
X174661976Y-83192442D01*
X174660586Y-83211069D01*
X174659249Y-83229730D01*
X174657964Y-83248428D01*
X174647279Y-83398943D01*
X174644978Y-83411810D01*
X174638861Y-83424525D01*
X174629849Y-83434188D01*
X174618749Y-83440713D01*
X174606372Y-83444016D01*
X174599957Y-83444433D01*
X174587538Y-83442952D01*
X174574488Y-83437479D01*
X174564155Y-83427975D01*
X174558391Y-83416619D01*
X174556298Y-83402301D01*
X174556298Y-83398943D01*
X174556805Y-83386630D01*
X174557353Y-83374307D01*
X174557939Y-83361975D01*
X174558564Y-83349634D01*
X174559226Y-83337285D01*
X174559924Y-83324928D01*
X174560658Y-83312565D01*
X174561426Y-83300196D01*
X174562228Y-83287821D01*
X174563063Y-83275442D01*
X174563929Y-83263059D01*
X174564826Y-83250672D01*
X174565753Y-83238283D01*
X174566708Y-83225892D01*
X174567691Y-83213499D01*
X174568701Y-83201106D01*
X174569737Y-83188713D01*
X174570798Y-83176320D01*
X174571883Y-83163929D01*
X174572992Y-83151539D01*
X174574122Y-83139153D01*
X174575273Y-83126770D01*
X174576445Y-83114390D01*
X174577636Y-83102016D01*
X174578846Y-83089647D01*
X174580072Y-83077283D01*
X174581315Y-83064927D01*
X174582574Y-83052578D01*
X174583847Y-83040237D01*
X174585134Y-83027905D01*
X174586434Y-83015582D01*
X174587745Y-83003269D01*
X174589731Y-82984869D01*
X174591743Y-82966424D01*
X174593788Y-82947937D01*
X174595874Y-82929414D01*
X174598006Y-82910858D01*
X174600192Y-82892274D01*
X174602438Y-82873666D01*
X174604751Y-82855040D01*
X174607138Y-82836398D01*
X174609605Y-82817746D01*
X174612160Y-82799088D01*
X174614809Y-82780429D01*
X174617558Y-82761773D01*
X174620416Y-82743124D01*
X174623387Y-82724486D01*
X174626480Y-82705865D01*
X174629701Y-82687265D01*
X174633056Y-82668689D01*
X174636553Y-82650143D01*
X174640198Y-82631631D01*
X174643998Y-82613157D01*
X174647959Y-82594725D01*
X174652090Y-82576341D01*
X174656395Y-82558008D01*
X174660882Y-82539731D01*
X174665559Y-82521514D01*
X174670430Y-82503362D01*
X174675504Y-82485279D01*
X174680788Y-82467270D01*
X174686287Y-82449339D01*
X174692008Y-82431490D01*
X174697959Y-82413728D01*
X174702681Y-82400183D01*
X174707600Y-82386494D01*
X174712753Y-82372727D01*
X174718181Y-82358945D01*
X174723922Y-82345214D01*
X174730014Y-82331597D01*
X174736498Y-82318158D01*
X174743411Y-82304964D01*
X174750793Y-82292076D01*
X174758683Y-82279561D01*
X174767119Y-82267483D01*
X174776141Y-82255905D01*
X174785787Y-82244893D01*
X174796096Y-82234510D01*
X174807107Y-82224821D01*
X174818859Y-82215891D01*
X174830715Y-82210542D01*
X174843284Y-82208869D01*
X174856765Y-82210878D01*
X174869158Y-82217151D01*
X174877355Y-82226430D01*
X174881514Y-82239510D01*
X174881752Y-82243979D01*
X174880006Y-82257050D01*
X174876076Y-82268725D01*
X174869498Y-82282059D01*
X174861732Y-82294471D01*
X174853873Y-82305274D01*
X174846947Y-82313894D01*
X174838847Y-82325366D01*
X174831143Y-82337455D01*
X174823688Y-82350700D01*
X174817413Y-82363067D01*
X174810603Y-82377772D01*
X174803302Y-82395037D01*
X174798186Y-82408082D01*
X174792885Y-82422431D01*
X174787413Y-82438152D01*
X174781927Y-82454297D01*
X174776680Y-82470553D01*
X174771664Y-82486910D01*
X174766867Y-82503358D01*
X174762280Y-82519887D01*
X174757891Y-82536486D01*
X174753691Y-82553144D01*
X174749670Y-82569853D01*
X174745817Y-82586600D01*
X174742121Y-82603377D01*
X174738574Y-82620172D01*
X174735163Y-82636976D01*
X174731880Y-82653779D01*
X174728713Y-82670569D01*
X174725653Y-82687337D01*
X174722689Y-82704072D01*
X174720200Y-82718371D01*
X174717721Y-82732750D01*
X174715259Y-82747193D01*
X174712825Y-82761683D01*
X174710427Y-82776203D01*
X174708074Y-82790736D01*
X174705776Y-82805266D01*
X174703541Y-82819777D01*
X174701378Y-82834251D01*
X174699297Y-82848673D01*
X174697959Y-82858250D01*
X174729783Y-82856048D01*
X174761597Y-82853734D01*
X174793402Y-82851307D01*
X174825198Y-82848768D01*
X174856985Y-82846114D01*
X174888762Y-82843345D01*
X174920529Y-82840461D01*
X174952287Y-82837461D01*
X174984034Y-82834343D01*
X175015772Y-82831107D01*
X175047500Y-82827753D01*
X175079218Y-82824279D01*
X175110925Y-82820685D01*
X175142622Y-82816969D01*
X175174309Y-82813132D01*
X175205984Y-82809172D01*
X175237649Y-82805089D01*
X175269304Y-82800882D01*
X175300947Y-82796549D01*
X175332579Y-82792091D01*
X175364200Y-82787506D01*
X175395810Y-82782794D01*
X175427408Y-82777954D01*
X175458995Y-82772984D01*
X175490570Y-82767885D01*
X175522134Y-82762656D01*
X175553685Y-82757295D01*
X175585225Y-82751803D01*
X175616753Y-82746177D01*
X175648268Y-82740418D01*
X175679771Y-82734525D01*
X175711262Y-82728496D01*
X175720116Y-82728496D01*
X175733325Y-82730313D01*
X175744774Y-82735340D01*
X175755912Y-82744715D01*
X175763895Y-82756698D01*
X175768384Y-82770191D01*
X175769269Y-82779482D01*
G37*
G36*
X175653559Y-83180956D02*
G01*
X175666311Y-83183322D01*
X175678890Y-83186407D01*
X175691255Y-83190197D01*
X175703362Y-83194680D01*
X175715169Y-83199845D01*
X175726632Y-83205680D01*
X175737709Y-83212172D01*
X175748356Y-83219310D01*
X175758531Y-83227080D01*
X175768191Y-83235472D01*
X175777293Y-83244473D01*
X175785794Y-83254071D01*
X175793651Y-83264254D01*
X175800821Y-83275010D01*
X175807261Y-83286327D01*
X175812928Y-83298192D01*
X175817433Y-83309883D01*
X175821210Y-83321721D01*
X175824242Y-83333629D01*
X175826880Y-83347902D01*
X175828403Y-83362032D01*
X175828804Y-83373602D01*
X175827679Y-83395266D01*
X175824398Y-83416910D01*
X175819101Y-83438429D01*
X175811931Y-83459717D01*
X175803027Y-83480669D01*
X175792530Y-83501179D01*
X175780582Y-83521141D01*
X175767323Y-83540451D01*
X175752894Y-83559002D01*
X175737436Y-83576689D01*
X175721090Y-83593406D01*
X175703996Y-83609049D01*
X175686297Y-83623510D01*
X175668131Y-83636686D01*
X175649641Y-83648469D01*
X175630967Y-83658756D01*
X175632799Y-83693866D01*
X175632516Y-83711959D01*
X175631699Y-83730159D01*
X175630390Y-83748445D01*
X175628634Y-83766795D01*
X175626476Y-83785189D01*
X175623960Y-83803603D01*
X175621130Y-83822018D01*
X175618030Y-83840412D01*
X175614704Y-83858762D01*
X175611198Y-83877048D01*
X175607555Y-83895248D01*
X175603819Y-83913341D01*
X175600035Y-83931305D01*
X175596246Y-83949119D01*
X175592498Y-83966761D01*
X175588835Y-83984209D01*
X175584706Y-83995783D01*
X175577261Y-84006062D01*
X175566204Y-84013721D01*
X175553497Y-84017212D01*
X175548535Y-84017488D01*
X175534788Y-84015529D01*
X175521766Y-84009937D01*
X175510579Y-84001132D01*
X175502339Y-83989538D01*
X175498155Y-83975577D01*
X175497855Y-83970471D01*
X175499686Y-83959785D01*
X175502946Y-83944043D01*
X175506185Y-83928297D01*
X175509385Y-83912546D01*
X175512523Y-83896788D01*
X175515582Y-83881018D01*
X175518539Y-83865235D01*
X175521376Y-83849436D01*
X175524072Y-83833619D01*
X175526608Y-83817779D01*
X175528961Y-83801916D01*
X175531114Y-83786026D01*
X175533046Y-83770106D01*
X175534735Y-83754154D01*
X175536164Y-83738167D01*
X175537310Y-83722143D01*
X175538155Y-83706078D01*
X175538672Y-83693585D01*
X175539986Y-83686844D01*
X175503045Y-83690202D01*
X175490576Y-83689804D01*
X175478172Y-83688618D01*
X175465897Y-83686660D01*
X175453814Y-83683943D01*
X175441990Y-83680483D01*
X175430487Y-83676292D01*
X175416660Y-83670049D01*
X175408706Y-83665778D01*
X175395686Y-83657257D01*
X175384344Y-83647584D01*
X175374697Y-83636894D01*
X175366765Y-83625325D01*
X175360564Y-83613012D01*
X175356113Y-83600090D01*
X175353429Y-83586696D01*
X175352650Y-83574797D01*
X175445342Y-83574797D01*
X175451577Y-83585431D01*
X175462848Y-83590593D01*
X175475146Y-83593374D01*
X175489005Y-83595019D01*
X175503413Y-83595758D01*
X175511898Y-83595863D01*
X175525942Y-83595863D01*
X175519276Y-83585203D01*
X175511561Y-83575704D01*
X175502434Y-83566592D01*
X175492413Y-83558755D01*
X175479935Y-83552282D01*
X175469767Y-83550373D01*
X175458015Y-83553812D01*
X175449502Y-83563437D01*
X175449006Y-83564417D01*
X175445342Y-83574797D01*
X175352650Y-83574797D01*
X175352530Y-83572966D01*
X175353312Y-83560571D01*
X175355651Y-83548099D01*
X175359542Y-83535697D01*
X175364978Y-83523512D01*
X175371950Y-83511690D01*
X175380453Y-83500378D01*
X175384282Y-83496029D01*
X175393677Y-83487442D01*
X175403520Y-83480001D01*
X175416393Y-83472308D01*
X175429826Y-83466405D01*
X175443743Y-83462291D01*
X175458067Y-83459965D01*
X175469767Y-83459393D01*
X175482985Y-83460113D01*
X175496228Y-83462236D01*
X175509378Y-83465704D01*
X175522317Y-83470460D01*
X175534927Y-83476447D01*
X175547089Y-83483607D01*
X175558687Y-83491884D01*
X175569601Y-83501219D01*
X175579716Y-83511508D01*
X175588567Y-83522477D01*
X175596371Y-83534162D01*
X175603346Y-83546600D01*
X175609710Y-83559827D01*
X175611733Y-83564417D01*
X175623036Y-83556882D01*
X175634023Y-83548726D01*
X175644659Y-83539989D01*
X175654905Y-83530710D01*
X175664725Y-83520925D01*
X175674083Y-83510675D01*
X175682941Y-83499998D01*
X175691264Y-83488931D01*
X175699015Y-83477513D01*
X175706156Y-83465784D01*
X175712652Y-83453780D01*
X175718465Y-83441542D01*
X175723559Y-83429107D01*
X175727897Y-83416513D01*
X175731443Y-83403800D01*
X175734159Y-83391005D01*
X175735991Y-83375434D01*
X175735214Y-83362876D01*
X175732930Y-83350832D01*
X175727664Y-83335683D01*
X175720012Y-83321711D01*
X175710145Y-83309066D01*
X175701391Y-83300544D01*
X175691555Y-83292916D01*
X175680710Y-83286247D01*
X175668925Y-83280599D01*
X175660581Y-83277432D01*
X175648708Y-83274534D01*
X175636431Y-83272709D01*
X175623263Y-83271942D01*
X175622113Y-83271936D01*
X175606435Y-83272814D01*
X175590858Y-83275352D01*
X175575509Y-83279407D01*
X175560518Y-83284835D01*
X175546014Y-83291495D01*
X175532125Y-83299242D01*
X175518980Y-83307933D01*
X175506708Y-83317427D01*
X175495847Y-83324779D01*
X175483696Y-83329233D01*
X175476789Y-83329944D01*
X175464072Y-83328235D01*
X175452298Y-83323519D01*
X175441964Y-83316410D01*
X175433566Y-83307523D01*
X175426742Y-83295378D01*
X175424276Y-83282622D01*
X175426956Y-83269832D01*
X175434048Y-83258719D01*
X175440152Y-83252702D01*
X175450119Y-83244685D01*
X175460321Y-83237019D01*
X175470753Y-83229728D01*
X175481406Y-83222835D01*
X175492274Y-83216362D01*
X175503350Y-83210332D01*
X175514626Y-83204769D01*
X175526095Y-83199694D01*
X175537750Y-83195131D01*
X175549584Y-83191102D01*
X175561590Y-83187630D01*
X175573761Y-83184739D01*
X175586088Y-83182450D01*
X175598567Y-83180787D01*
X175611188Y-83179773D01*
X175623945Y-83179429D01*
X175653559Y-83180956D01*
G37*
G36*
X175739350Y-84665036D02*
G01*
X175738899Y-84677659D01*
X175737677Y-84690281D01*
X175735874Y-84702904D01*
X175733681Y-84715526D01*
X175732328Y-84722739D01*
X175727308Y-84744047D01*
X175721454Y-84765265D01*
X175714830Y-84786387D01*
X175707503Y-84807408D01*
X175699539Y-84828324D01*
X175691004Y-84849129D01*
X175681965Y-84869819D01*
X175672488Y-84890389D01*
X175662639Y-84910833D01*
X175652484Y-84931147D01*
X175642089Y-84951326D01*
X175631520Y-84971366D01*
X175620844Y-84991260D01*
X175610128Y-85011004D01*
X175599436Y-85030594D01*
X175588835Y-85050024D01*
X175581479Y-85060300D01*
X175571382Y-85068105D01*
X175558761Y-85072401D01*
X175552199Y-85072922D01*
X175539160Y-85070805D01*
X175526583Y-85064872D01*
X175515642Y-85055751D01*
X175507505Y-85044071D01*
X175503345Y-85030458D01*
X175503045Y-85025600D01*
X175505055Y-85013424D01*
X175510067Y-85002702D01*
X175521712Y-84981288D01*
X175527615Y-84970305D01*
X175533549Y-84959162D01*
X175539499Y-84947877D01*
X175545448Y-84936468D01*
X175551380Y-84924954D01*
X175557279Y-84913353D01*
X175563128Y-84901683D01*
X175568911Y-84889963D01*
X175574612Y-84878210D01*
X175580214Y-84866443D01*
X175585702Y-84854679D01*
X175591059Y-84842939D01*
X175596268Y-84831238D01*
X175601314Y-84819596D01*
X175606180Y-84808032D01*
X175610851Y-84796562D01*
X175619538Y-84773981D01*
X175627245Y-84751999D01*
X175633843Y-84730763D01*
X175639202Y-84710417D01*
X175643190Y-84691108D01*
X175645679Y-84672981D01*
X175646537Y-84656183D01*
X175645011Y-84647634D01*
X175631245Y-84637502D01*
X175617635Y-84628560D01*
X175604244Y-84620533D01*
X175591130Y-84613148D01*
X175578354Y-84606129D01*
X175565976Y-84599201D01*
X175554057Y-84592091D01*
X175542658Y-84584522D01*
X175531838Y-84576221D01*
X175521658Y-84566913D01*
X175515257Y-84560012D01*
X175507382Y-84549565D01*
X175500400Y-84538838D01*
X175494284Y-84527843D01*
X175489008Y-84516590D01*
X175484548Y-84505090D01*
X175480877Y-84493352D01*
X175477970Y-84481388D01*
X175475801Y-84469208D01*
X175474344Y-84456823D01*
X175473575Y-84444243D01*
X175473430Y-84435753D01*
X175473929Y-84419956D01*
X175475390Y-84404045D01*
X175477764Y-84388096D01*
X175480997Y-84372191D01*
X175485040Y-84356406D01*
X175489840Y-84340820D01*
X175495347Y-84325512D01*
X175501509Y-84310560D01*
X175508274Y-84296043D01*
X175515592Y-84282039D01*
X175520752Y-84273027D01*
X175527414Y-84262223D01*
X175534308Y-84251440D01*
X175541370Y-84240664D01*
X175548540Y-84229879D01*
X175555754Y-84219070D01*
X175562950Y-84208224D01*
X175570067Y-84197325D01*
X175577043Y-84186359D01*
X175583814Y-84175310D01*
X175590319Y-84164164D01*
X175596496Y-84152906D01*
X175602283Y-84141522D01*
X175607617Y-84129996D01*
X175612436Y-84118315D01*
X175616678Y-84106462D01*
X175620281Y-84094424D01*
X175622825Y-84081490D01*
X175625030Y-84068404D01*
X175625777Y-84057788D01*
X175624657Y-84045137D01*
X175618229Y-84033907D01*
X175606138Y-84028528D01*
X175594025Y-84026341D01*
X175581344Y-84027182D01*
X175569281Y-84029456D01*
X175554796Y-84033756D01*
X175540636Y-84039002D01*
X175526445Y-84044474D01*
X175514831Y-84048531D01*
X175502786Y-84051904D01*
X175499686Y-84052597D01*
X175486898Y-84050166D01*
X175476202Y-84043581D01*
X175467889Y-84033905D01*
X175462248Y-84022201D01*
X175459571Y-84009530D01*
X175459386Y-84005275D01*
X175460708Y-83992781D01*
X175464879Y-83981053D01*
X175472206Y-83970860D01*
X175482995Y-83962967D01*
X175490833Y-83959785D01*
X175504064Y-83955229D01*
X175517403Y-83950817D01*
X175530814Y-83946691D01*
X175544261Y-83942994D01*
X175557707Y-83939869D01*
X175571118Y-83937460D01*
X175584457Y-83935910D01*
X175597689Y-83935361D01*
X175609994Y-83935984D01*
X175627712Y-83939167D01*
X175644372Y-83944873D01*
X175659784Y-83952905D01*
X175673758Y-83963067D01*
X175686104Y-83975164D01*
X175696632Y-83988998D01*
X175705152Y-84004373D01*
X175711472Y-84021094D01*
X175715404Y-84038965D01*
X175716605Y-84051420D01*
X175716757Y-84057788D01*
X175716095Y-84073829D01*
X175714176Y-84089774D01*
X175711104Y-84105614D01*
X175706983Y-84121338D01*
X175701915Y-84136938D01*
X175696004Y-84152402D01*
X175689354Y-84167721D01*
X175682067Y-84182886D01*
X175674247Y-84197886D01*
X175665997Y-84212711D01*
X175657421Y-84227353D01*
X175648622Y-84241800D01*
X175639703Y-84256043D01*
X175630767Y-84270073D01*
X175621918Y-84283878D01*
X175613259Y-84297451D01*
X175606410Y-84308966D01*
X175599682Y-84320824D01*
X175593195Y-84332998D01*
X175587070Y-84345461D01*
X175581428Y-84358186D01*
X175576390Y-84371145D01*
X175572077Y-84384311D01*
X175568609Y-84397657D01*
X175566106Y-84411157D01*
X175564691Y-84424782D01*
X175564411Y-84433922D01*
X175566243Y-84454988D01*
X175569561Y-84469170D01*
X175574786Y-84481636D01*
X175581693Y-84492601D01*
X175590056Y-84502281D01*
X175599650Y-84510891D01*
X175610249Y-84518647D01*
X175621628Y-84525764D01*
X175633562Y-84532458D01*
X175645825Y-84538945D01*
X175658191Y-84545440D01*
X175670436Y-84552158D01*
X175682334Y-84559316D01*
X175693660Y-84567128D01*
X175704187Y-84575810D01*
X175713692Y-84585579D01*
X175721947Y-84596648D01*
X175728088Y-84608689D01*
X175732820Y-84621104D01*
X175736216Y-84633882D01*
X175738348Y-84647009D01*
X175739288Y-84660475D01*
X175739350Y-84665036D01*
G37*
G36*
X176638905Y-84381663D02*
G01*
X176654416Y-84382464D01*
X176669749Y-84383873D01*
X176684913Y-84385951D01*
X176699920Y-84388759D01*
X176714780Y-84392357D01*
X176729505Y-84396808D01*
X176744104Y-84402170D01*
X176761185Y-84408855D01*
X176777731Y-84416412D01*
X176793726Y-84424809D01*
X176809157Y-84434017D01*
X176824011Y-84444005D01*
X176838273Y-84454742D01*
X176851929Y-84466198D01*
X176864966Y-84478343D01*
X176877369Y-84491147D01*
X176889126Y-84504578D01*
X176900221Y-84518607D01*
X176910642Y-84533203D01*
X176920374Y-84548335D01*
X176929403Y-84563974D01*
X176937716Y-84580088D01*
X176945299Y-84596648D01*
X176950669Y-84609187D01*
X176955677Y-84621837D01*
X176960325Y-84634587D01*
X176964614Y-84647429D01*
X176968547Y-84660351D01*
X176972127Y-84673343D01*
X176975355Y-84686396D01*
X176978233Y-84699498D01*
X176980765Y-84712639D01*
X176982952Y-84725809D01*
X176984796Y-84738998D01*
X176986300Y-84752196D01*
X176987466Y-84765392D01*
X176988296Y-84778575D01*
X176988792Y-84791737D01*
X176988957Y-84804865D01*
X176988789Y-84818488D01*
X176988285Y-84832104D01*
X176987448Y-84845705D01*
X176986283Y-84859283D01*
X176984790Y-84872831D01*
X176982974Y-84886343D01*
X176980837Y-84899810D01*
X176978381Y-84913224D01*
X176975610Y-84926580D01*
X176972527Y-84939868D01*
X176969135Y-84953082D01*
X176965435Y-84966214D01*
X176961432Y-84979257D01*
X176957127Y-84992204D01*
X176952525Y-85005046D01*
X176947627Y-85017777D01*
X176942436Y-85030388D01*
X176936956Y-85042874D01*
X176931189Y-85055225D01*
X176925139Y-85067435D01*
X176918807Y-85079497D01*
X176912197Y-85091402D01*
X176905311Y-85103144D01*
X176898153Y-85114715D01*
X176890725Y-85126108D01*
X176883031Y-85137314D01*
X176875073Y-85148327D01*
X176866853Y-85159140D01*
X176858375Y-85169744D01*
X176849642Y-85180133D01*
X176840656Y-85190298D01*
X176831420Y-85200234D01*
X176822624Y-85209170D01*
X176813639Y-85217890D01*
X176804472Y-85226395D01*
X176795127Y-85234684D01*
X176785610Y-85242758D01*
X176775927Y-85250617D01*
X176766083Y-85258262D01*
X176756082Y-85265693D01*
X176745931Y-85272909D01*
X176735634Y-85279913D01*
X176725197Y-85286703D01*
X176714626Y-85293281D01*
X176703925Y-85299646D01*
X176693100Y-85305799D01*
X176682156Y-85311740D01*
X176671098Y-85317470D01*
X176659932Y-85322989D01*
X176648663Y-85328297D01*
X176637297Y-85333395D01*
X176625838Y-85338282D01*
X176614293Y-85342960D01*
X176602666Y-85347428D01*
X176590962Y-85351687D01*
X176579187Y-85355738D01*
X176567347Y-85359580D01*
X176555446Y-85363214D01*
X176543490Y-85366641D01*
X176531484Y-85369860D01*
X176519434Y-85372871D01*
X176507344Y-85375677D01*
X176495221Y-85378275D01*
X176483069Y-85380668D01*
X176466794Y-85383413D01*
X176450430Y-85385819D01*
X176433989Y-85387900D01*
X176417478Y-85389673D01*
X176400906Y-85391152D01*
X176384284Y-85392353D01*
X176367619Y-85393289D01*
X176350920Y-85393977D01*
X176334198Y-85394432D01*
X176317461Y-85394668D01*
X176306298Y-85394712D01*
X176292560Y-85394700D01*
X176278821Y-85394615D01*
X176265082Y-85394386D01*
X176251344Y-85393939D01*
X176237605Y-85393203D01*
X176233025Y-85392880D01*
X175797052Y-85354412D01*
X175788504Y-85354412D01*
X175781621Y-85368195D01*
X175774769Y-85382009D01*
X175767950Y-85395854D01*
X175761162Y-85409728D01*
X175754408Y-85423630D01*
X175747687Y-85437559D01*
X175741001Y-85451514D01*
X175734350Y-85465495D01*
X175727735Y-85479499D01*
X175721156Y-85493527D01*
X175714615Y-85507577D01*
X175708111Y-85521648D01*
X175701646Y-85535739D01*
X175695219Y-85549849D01*
X175688833Y-85563978D01*
X175682487Y-85578123D01*
X175676182Y-85592285D01*
X175669919Y-85606461D01*
X175663698Y-85620652D01*
X175657521Y-85634856D01*
X175651388Y-85649072D01*
X175645299Y-85663299D01*
X175639255Y-85677536D01*
X175633257Y-85691782D01*
X175627305Y-85706036D01*
X175621401Y-85720297D01*
X175615544Y-85734564D01*
X175609736Y-85748837D01*
X175603978Y-85763113D01*
X175598269Y-85777392D01*
X175592610Y-85791674D01*
X175587003Y-85805956D01*
X175581813Y-85818168D01*
X175575580Y-85830462D01*
X175566607Y-85839707D01*
X175555662Y-85845922D01*
X175543512Y-85849127D01*
X175536323Y-85849614D01*
X175523735Y-85848014D01*
X175512001Y-85843384D01*
X175502038Y-85835976D01*
X175494763Y-85826044D01*
X175491095Y-85813842D01*
X175490833Y-85809314D01*
X175494496Y-85793744D01*
X175499599Y-85779467D01*
X175504774Y-85765201D01*
X175510020Y-85750947D01*
X175515337Y-85736706D01*
X175520723Y-85722478D01*
X175526177Y-85708264D01*
X175531699Y-85694064D01*
X175537286Y-85679880D01*
X175542940Y-85665711D01*
X175548657Y-85651558D01*
X175554438Y-85637422D01*
X175560281Y-85623304D01*
X175566185Y-85609204D01*
X175572150Y-85595122D01*
X175578173Y-85581060D01*
X175584255Y-85567018D01*
X175590395Y-85552996D01*
X175596590Y-85538996D01*
X175602841Y-85525017D01*
X175609146Y-85511061D01*
X175615504Y-85497127D01*
X175621915Y-85483218D01*
X175628376Y-85469333D01*
X175634888Y-85455472D01*
X175641449Y-85441637D01*
X175648058Y-85427828D01*
X175654715Y-85414046D01*
X175661417Y-85400291D01*
X175668165Y-85386565D01*
X175674957Y-85372866D01*
X175681792Y-85359197D01*
X175688669Y-85345558D01*
X175569601Y-85335178D01*
X175557363Y-85332272D01*
X175545197Y-85326021D01*
X175535892Y-85317381D01*
X175528814Y-85305167D01*
X175525988Y-85291661D01*
X175525942Y-85289688D01*
X175527436Y-85277364D01*
X175531929Y-85265958D01*
X175532451Y-85265263D01*
X175835520Y-85265263D01*
X175993057Y-85279002D01*
X176012439Y-85280718D01*
X176031780Y-85282528D01*
X176051087Y-85284403D01*
X176070370Y-85286315D01*
X176089637Y-85288236D01*
X176108896Y-85290138D01*
X176128156Y-85291992D01*
X176147426Y-85293771D01*
X176166713Y-85295446D01*
X176186027Y-85296989D01*
X176205376Y-85298372D01*
X176224768Y-85299567D01*
X176244212Y-85300545D01*
X176263716Y-85301279D01*
X176283289Y-85301740D01*
X176302940Y-85301900D01*
X176336218Y-85301900D01*
X176360484Y-85301205D01*
X176384717Y-85299794D01*
X176408884Y-85297641D01*
X176432952Y-85294725D01*
X176456887Y-85291022D01*
X176480656Y-85286508D01*
X176504228Y-85281161D01*
X176527567Y-85274957D01*
X176550642Y-85267872D01*
X176573419Y-85259885D01*
X176595865Y-85250970D01*
X176617946Y-85241106D01*
X176639631Y-85230269D01*
X176660886Y-85218435D01*
X176681677Y-85205581D01*
X176691888Y-85198765D01*
X176701972Y-85191685D01*
X176713467Y-85182983D01*
X176724650Y-85173944D01*
X176735519Y-85164580D01*
X176746070Y-85154903D01*
X176756298Y-85144924D01*
X176766202Y-85134656D01*
X176775777Y-85124110D01*
X176785019Y-85113298D01*
X176793926Y-85102232D01*
X176802493Y-85090924D01*
X176810717Y-85079386D01*
X176818595Y-85067629D01*
X176826123Y-85055666D01*
X176833297Y-85043508D01*
X176840114Y-85031166D01*
X176846571Y-85018654D01*
X176852664Y-85005983D01*
X176858389Y-84993164D01*
X176863743Y-84980210D01*
X176868723Y-84967132D01*
X176873324Y-84953942D01*
X176877544Y-84940652D01*
X176881379Y-84927275D01*
X176884825Y-84913821D01*
X176887878Y-84900302D01*
X176890536Y-84886731D01*
X176892795Y-84873120D01*
X176894651Y-84859479D01*
X176896101Y-84845821D01*
X176897141Y-84832159D01*
X176897767Y-84818503D01*
X176897977Y-84804865D01*
X176897733Y-84789839D01*
X176896999Y-84774984D01*
X176895771Y-84760301D01*
X176894046Y-84745789D01*
X176891820Y-84731449D01*
X176889089Y-84717281D01*
X176885851Y-84703285D01*
X176882101Y-84689461D01*
X176877937Y-84675090D01*
X176873230Y-84660964D01*
X176867982Y-84647113D01*
X176862194Y-84633566D01*
X176855868Y-84620354D01*
X176849005Y-84607506D01*
X176841606Y-84595053D01*
X176833672Y-84583024D01*
X176825206Y-84571450D01*
X176816207Y-84560360D01*
X176806678Y-84549784D01*
X176796621Y-84539752D01*
X176786035Y-84530295D01*
X176774923Y-84521442D01*
X176763286Y-84513223D01*
X176751126Y-84505668D01*
X176738416Y-84498857D01*
X176725299Y-84492855D01*
X176711852Y-84487668D01*
X176698155Y-84483304D01*
X176684287Y-84479771D01*
X176670325Y-84477074D01*
X176656349Y-84475222D01*
X176642438Y-84474222D01*
X176619845Y-84474222D01*
X176607618Y-84474401D01*
X176591690Y-84475211D01*
X176576096Y-84476702D01*
X176560732Y-84478901D01*
X176545494Y-84481837D01*
X176530278Y-84485538D01*
X176514981Y-84490034D01*
X176503392Y-84493944D01*
X176495587Y-84496814D01*
X176483360Y-84501231D01*
X176471294Y-84505948D01*
X176459385Y-84510955D01*
X176447632Y-84516246D01*
X176436032Y-84521810D01*
X176424583Y-84527641D01*
X176413281Y-84533729D01*
X176402126Y-84540067D01*
X176391113Y-84546646D01*
X176380241Y-84553457D01*
X176369507Y-84560493D01*
X176358908Y-84567745D01*
X176348443Y-84575205D01*
X176338109Y-84582864D01*
X176327903Y-84590714D01*
X176317824Y-84598747D01*
X176307867Y-84606955D01*
X176298032Y-84615328D01*
X176288315Y-84623859D01*
X176278714Y-84632540D01*
X176269226Y-84641362D01*
X176259850Y-84650316D01*
X176250583Y-84659395D01*
X176241421Y-84668590D01*
X176232364Y-84677893D01*
X176223408Y-84687295D01*
X176214550Y-84696789D01*
X176205789Y-84706365D01*
X176197122Y-84716016D01*
X176188546Y-84725733D01*
X176180060Y-84735507D01*
X176171659Y-84745331D01*
X176161554Y-84757203D01*
X176151557Y-84769173D01*
X176141666Y-84781240D01*
X176131881Y-84793400D01*
X176122197Y-84805651D01*
X176112614Y-84817990D01*
X176103129Y-84830413D01*
X176093740Y-84842919D01*
X176084445Y-84855503D01*
X176075242Y-84868164D01*
X176066129Y-84880898D01*
X176057103Y-84893703D01*
X176048162Y-84906576D01*
X176039305Y-84919514D01*
X176030529Y-84932513D01*
X176021832Y-84945572D01*
X176013212Y-84958687D01*
X176004666Y-84971856D01*
X175996194Y-84985075D01*
X175987792Y-84998343D01*
X175979458Y-85011655D01*
X175971191Y-85025009D01*
X175962987Y-85038402D01*
X175954846Y-85051832D01*
X175946765Y-85065296D01*
X175938742Y-85078790D01*
X175930774Y-85092312D01*
X175922860Y-85105858D01*
X175914997Y-85119427D01*
X175907184Y-85133016D01*
X175899417Y-85146620D01*
X175891696Y-85160239D01*
X175884486Y-85173304D01*
X175877294Y-85186395D01*
X175870138Y-85199507D01*
X175863036Y-85212637D01*
X175856005Y-85225781D01*
X175849063Y-85238936D01*
X175842229Y-85252098D01*
X175835520Y-85265263D01*
X175532451Y-85265263D01*
X175539440Y-85255950D01*
X175549989Y-85247817D01*
X175557389Y-85244197D01*
X175569839Y-85237017D01*
X175579714Y-85226171D01*
X175585975Y-85215123D01*
X175590447Y-85202929D01*
X175593131Y-85190223D01*
X175594025Y-85177641D01*
X175594025Y-85168787D01*
X175591645Y-85156301D01*
X175585758Y-85142335D01*
X175577053Y-85130276D01*
X175565979Y-85120215D01*
X175552981Y-85112244D01*
X175541499Y-85107433D01*
X175529301Y-85104063D01*
X175504877Y-85100705D01*
X175492058Y-85101506D01*
X175479837Y-85103842D01*
X175462683Y-85109993D01*
X175447018Y-85119007D01*
X175432928Y-85130531D01*
X175424452Y-85139433D01*
X175416739Y-85149188D01*
X175409815Y-85159693D01*
X175403707Y-85170843D01*
X175398438Y-85182532D01*
X175394035Y-85194656D01*
X175390523Y-85207111D01*
X175387927Y-85219792D01*
X175386274Y-85232593D01*
X175385808Y-85239007D01*
X175383609Y-85251874D01*
X175377526Y-85264590D01*
X175368485Y-85274252D01*
X175357331Y-85280777D01*
X175344908Y-85284081D01*
X175338486Y-85284497D01*
X175325899Y-85282847D01*
X175314164Y-85277993D01*
X175304201Y-85270080D01*
X175296927Y-85259253D01*
X175293259Y-85245656D01*
X175292996Y-85240534D01*
X175292996Y-85239007D01*
X175294711Y-85216508D01*
X175298419Y-85194444D01*
X175304020Y-85172953D01*
X175311419Y-85152177D01*
X175320517Y-85132256D01*
X175331217Y-85113331D01*
X175343422Y-85095541D01*
X175357033Y-85079028D01*
X175371954Y-85063932D01*
X175388087Y-85050393D01*
X175405335Y-85038551D01*
X175423599Y-85028548D01*
X175442783Y-85020523D01*
X175462789Y-85014617D01*
X175483519Y-85010971D01*
X175504877Y-85009724D01*
X175518796Y-85010272D01*
X175533030Y-85011914D01*
X175545079Y-85014119D01*
X175557254Y-85017084D01*
X175569512Y-85020809D01*
X175581813Y-85025295D01*
X175594544Y-85031262D01*
X175606408Y-85037918D01*
X175617411Y-85045218D01*
X175627561Y-85053120D01*
X175636862Y-85061583D01*
X175645322Y-85070562D01*
X175656447Y-85084909D01*
X175665714Y-85100182D01*
X175673143Y-85116236D01*
X175678756Y-85132928D01*
X175682574Y-85150116D01*
X175684618Y-85167655D01*
X175685006Y-85179473D01*
X175684458Y-85193202D01*
X175682816Y-85206870D01*
X175680079Y-85220417D01*
X175676247Y-85233784D01*
X175671321Y-85246908D01*
X175669435Y-85251219D01*
X175734159Y-85256409D01*
X175772628Y-85184663D01*
X175780697Y-85169739D01*
X175788819Y-85154847D01*
X175796996Y-85139991D01*
X175805230Y-85125170D01*
X175813522Y-85110386D01*
X175821873Y-85095640D01*
X175830285Y-85080934D01*
X175838759Y-85066267D01*
X175847298Y-85051643D01*
X175855902Y-85037061D01*
X175864572Y-85022523D01*
X175873312Y-85008030D01*
X175882121Y-84993584D01*
X175891002Y-84979184D01*
X175899956Y-84964834D01*
X175908984Y-84950533D01*
X175918088Y-84936284D01*
X175927270Y-84922086D01*
X175936531Y-84907942D01*
X175945873Y-84893852D01*
X175955296Y-84879819D01*
X175964803Y-84865841D01*
X175974395Y-84851922D01*
X175984074Y-84838062D01*
X175993841Y-84824263D01*
X176003698Y-84810525D01*
X176013645Y-84796850D01*
X176023686Y-84783238D01*
X176033820Y-84769692D01*
X176044050Y-84756212D01*
X176054377Y-84742799D01*
X176064803Y-84729455D01*
X176073727Y-84718328D01*
X176082756Y-84707218D01*
X176091891Y-84696137D01*
X176101134Y-84685093D01*
X176110489Y-84674097D01*
X176119956Y-84663158D01*
X176129539Y-84652286D01*
X176139240Y-84641490D01*
X176149061Y-84630780D01*
X176159003Y-84620165D01*
X176169070Y-84609655D01*
X176179263Y-84599260D01*
X176189586Y-84588990D01*
X176200039Y-84578853D01*
X176210626Y-84568860D01*
X176221348Y-84559020D01*
X176232207Y-84549343D01*
X176243207Y-84539838D01*
X176254349Y-84530515D01*
X176265636Y-84521384D01*
X176277069Y-84512454D01*
X176288651Y-84503735D01*
X176300384Y-84495237D01*
X176312271Y-84486968D01*
X176324313Y-84478939D01*
X176336513Y-84471160D01*
X176348874Y-84463640D01*
X176361396Y-84456388D01*
X176374083Y-84449414D01*
X176386937Y-84442728D01*
X176399960Y-84436339D01*
X176413155Y-84430258D01*
X176425693Y-84424829D01*
X176438346Y-84419656D01*
X176451106Y-84414753D01*
X176463964Y-84410132D01*
X176476913Y-84405806D01*
X176489946Y-84401788D01*
X176503055Y-84398091D01*
X176516233Y-84394728D01*
X176529471Y-84391713D01*
X176542763Y-84389057D01*
X176556100Y-84386774D01*
X176569475Y-84384877D01*
X176582880Y-84383380D01*
X176596309Y-84382294D01*
X176609752Y-84381633D01*
X176623203Y-84381409D01*
X176638905Y-84381663D01*
G37*
X177458048Y-87428095D02*
X176458048Y-87428095D01*
X176458048Y-87428095D02*
X176458048Y-87666190D01*
X176458048Y-87666190D02*
X176505668Y-87809047D01*
X176505668Y-87809047D02*
X176600906Y-87904285D01*
X176600906Y-87904285D02*
X176696144Y-87951904D01*
X176696144Y-87951904D02*
X176886620Y-87999523D01*
X176886620Y-87999523D02*
X177029477Y-87999523D01*
X177029477Y-87999523D02*
X177219953Y-87951904D01*
X177219953Y-87951904D02*
X177315191Y-87904285D01*
X177315191Y-87904285D02*
X177410429Y-87809047D01*
X177410429Y-87809047D02*
X177458048Y-87666190D01*
X177458048Y-87666190D02*
X177458048Y-87428095D01*
X179340000Y-88890000D02*
X176740000Y-86290000D01*
X179340000Y-86290000D02*
X176740000Y-88890000D01*
%LPC*%
D11*
X170875000Y-84050000D03*
D12*
X171425000Y-86483000D03*
X171425000Y-88917000D03*
D11*
X170875000Y-91350000D03*
D13*
X181339999Y-91589999D03*
D14*
X181339999Y-89489999D03*
X181339999Y-87389999D03*
D15*
X181339999Y-85289999D03*
D16*
X177240000Y-90890000D03*
D17*
X178040000Y-90090000D03*
D18*
X178840000Y-90890000D03*
D19*
X178040000Y-91690000D03*
M02*
