%TF.GenerationSoftware,KiCad,Pcbnew,(7.0.0-0)*%
%TF.CreationDate,2023-10-24T18:27:49+08:00*%
%TF.ProjectId,Revolute,5265766f-6c75-4746-952e-6b696361645f,rev?*%
%TF.SameCoordinates,Original*%
%TF.FileFunction,Drillmap*%
%TF.FilePolarity,Positive*%
%FSLAX45Y45*%
G04 Gerber Fmt 4.5, Leading zero omitted, Abs format (unit mm)*
G04 Created by KiCad (PCBNEW (7.0.0-0)) date 2023-10-24 18:27:49*
%MOMM*%
%LPD*%
G01*
G04 APERTURE LIST*
%ADD10C,0.100000*%
%ADD11C,0.050000*%
%ADD12C,0.200000*%
%ADD13C,0.025000*%
G04 APERTURE END LIST*
D10*
X18177000Y-8235000D02*
X16700000Y-8235000D01*
D11*
X16700000Y-8235000D02*
G75*
G03*
X16600000Y-8335000I0J-100000D01*
G01*
X18277000Y-8335000D02*
G75*
G03*
X18177000Y-8235000I-100000J0D01*
G01*
D10*
X16700000Y-9305000D02*
X18177000Y-9305000D01*
X18277000Y-9040000D02*
X18277000Y-9205000D01*
D11*
X18177000Y-9305000D02*
G75*
G03*
X18277000Y-9205000I0J100000D01*
G01*
D10*
X16600000Y-9205000D02*
X16600000Y-8335000D01*
X18277000Y-9040000D02*
X18277000Y-8335000D01*
D11*
X16600000Y-9205000D02*
G75*
G03*
X16700000Y-9305000I100000J0D01*
G01*
D12*
D13*
X16635500Y-8888500D02*
X16660500Y-8913500D01*
X16660500Y-8888500D02*
X16635500Y-8913500D01*
X16635500Y-8990500D02*
X16660500Y-9015500D01*
X16660500Y-8990500D02*
X16635500Y-9015500D01*
X16635500Y-9192500D02*
X16660500Y-9217500D01*
X16660500Y-9192500D02*
X16635500Y-9217500D01*
X16636500Y-8417500D02*
X16661500Y-8442500D01*
X16661500Y-8417500D02*
X16636500Y-8442500D01*
X16636500Y-8519500D02*
X16661500Y-8544500D01*
X16661500Y-8519500D02*
X16636500Y-8544500D01*
X16636500Y-9089500D02*
X16661500Y-9114500D01*
X16661500Y-9089500D02*
X16636500Y-9114500D01*
X16648500Y-8635500D02*
X16673500Y-8660500D01*
X16673500Y-8635500D02*
X16648500Y-8660500D01*
X16743219Y-8339500D02*
X16768219Y-8364500D01*
X16768219Y-8339500D02*
X16743219Y-8364500D01*
X16805500Y-9002500D02*
X16830500Y-9027500D01*
X16830500Y-9002500D02*
X16805500Y-9027500D01*
X16819500Y-9235500D02*
X16844500Y-9260500D01*
X16844500Y-9235500D02*
X16819500Y-9260500D01*
X16875500Y-8754500D02*
X16900500Y-8779500D01*
X16900500Y-8754500D02*
X16875500Y-8779500D01*
X16948500Y-8513500D02*
X16973500Y-8538500D01*
X16973500Y-8513500D02*
X16948500Y-8538500D01*
X17009500Y-9235500D02*
X17034500Y-9260500D01*
X17034500Y-9235500D02*
X17009500Y-9260500D01*
X17016213Y-8754213D02*
X17041213Y-8779213D01*
X17041213Y-8754213D02*
X17016213Y-8779213D01*
X17017500Y-9003500D02*
X17042500Y-9028500D01*
X17042500Y-9003500D02*
X17017500Y-9028500D01*
X17060500Y-8516500D02*
X17085500Y-8541500D01*
X17085500Y-8516500D02*
X17060500Y-8541500D01*
X17157500Y-8757500D02*
X17182500Y-8782500D01*
X17182500Y-8757500D02*
X17157500Y-8782500D01*
X17257500Y-8757500D02*
X17282500Y-8782500D01*
X17282500Y-8757500D02*
X17257500Y-8782500D01*
X17357500Y-8757500D02*
X17382500Y-8782500D01*
X17382500Y-8757500D02*
X17357500Y-8782500D01*
X17495500Y-8795500D02*
X17520500Y-8820500D01*
X17520500Y-8795500D02*
X17495500Y-8820500D01*
X17500500Y-8478500D02*
X17525500Y-8503500D01*
X17525500Y-8478500D02*
X17500500Y-8503500D01*
X17525500Y-9113500D02*
X17550500Y-9138500D01*
X17550500Y-9113500D02*
X17525500Y-9138500D01*
X17531278Y-8869500D02*
X17556278Y-8894500D01*
X17556278Y-8869500D02*
X17531278Y-8894500D01*
X17578500Y-8726500D02*
X17603500Y-8751500D01*
X17603500Y-8726500D02*
X17578500Y-8751500D01*
X17604500Y-9178500D02*
X17629500Y-9203500D01*
X17629500Y-9178500D02*
X17604500Y-9203500D01*
X17611500Y-9076500D02*
X17636500Y-9101500D01*
X17636500Y-9076500D02*
X17611500Y-9101500D01*
X17614500Y-8309500D02*
X17639500Y-8334500D01*
X17639500Y-8309500D02*
X17614500Y-8334500D01*
X17683500Y-9130500D02*
X17708500Y-9155500D01*
X17708500Y-9130500D02*
X17683500Y-9155500D01*
X17834500Y-8494500D02*
X17859500Y-8519500D01*
X17859500Y-8494500D02*
X17834500Y-8519500D01*
X17912500Y-8699500D02*
X17937500Y-8724500D01*
X17937500Y-8699500D02*
X17912500Y-8724500D01*
X17926778Y-8482713D02*
X17951778Y-8507713D01*
X17951778Y-8482713D02*
X17926778Y-8507713D01*
X18029500Y-8385500D02*
X18054500Y-8410500D01*
X18054500Y-8385500D02*
X18029500Y-8410500D01*
X18115500Y-8329500D02*
X18140500Y-8354500D01*
X18140500Y-8329500D02*
X18115500Y-8354500D01*
X18163500Y-8783500D02*
X18188500Y-8808500D01*
X18188500Y-8783500D02*
X18163500Y-8808500D01*
X18173500Y-8974500D02*
X18198500Y-8999500D01*
X18198500Y-8974500D02*
X18173500Y-8999500D01*
X18177500Y-8549500D02*
X18202500Y-8574500D01*
X18202500Y-8549500D02*
X18177500Y-8574500D01*
D12*
X16842619Y-9603476D02*
X16842619Y-9403476D01*
X16842619Y-9403476D02*
X16890238Y-9403476D01*
X16890238Y-9403476D02*
X16918810Y-9413000D01*
X16918810Y-9413000D02*
X16937857Y-9432048D01*
X16937857Y-9432048D02*
X16947381Y-9451095D01*
X16947381Y-9451095D02*
X16956905Y-9489190D01*
X16956905Y-9489190D02*
X16956905Y-9517762D01*
X16956905Y-9517762D02*
X16947381Y-9555857D01*
X16947381Y-9555857D02*
X16937857Y-9574905D01*
X16937857Y-9574905D02*
X16918810Y-9593952D01*
X16918810Y-9593952D02*
X16890238Y-9603476D01*
X16890238Y-9603476D02*
X16842619Y-9603476D01*
X17042619Y-9603476D02*
X17042619Y-9470143D01*
X17042619Y-9508238D02*
X17052143Y-9489190D01*
X17052143Y-9489190D02*
X17061667Y-9479667D01*
X17061667Y-9479667D02*
X17080714Y-9470143D01*
X17080714Y-9470143D02*
X17099762Y-9470143D01*
X17166429Y-9603476D02*
X17166429Y-9470143D01*
X17166429Y-9403476D02*
X17156905Y-9413000D01*
X17156905Y-9413000D02*
X17166429Y-9422524D01*
X17166429Y-9422524D02*
X17175952Y-9413000D01*
X17175952Y-9413000D02*
X17166429Y-9403476D01*
X17166429Y-9403476D02*
X17166429Y-9422524D01*
X17290238Y-9603476D02*
X17271190Y-9593952D01*
X17271190Y-9593952D02*
X17261667Y-9574905D01*
X17261667Y-9574905D02*
X17261667Y-9403476D01*
X17395000Y-9603476D02*
X17375952Y-9593952D01*
X17375952Y-9593952D02*
X17366429Y-9574905D01*
X17366429Y-9574905D02*
X17366429Y-9403476D01*
X17591190Y-9603476D02*
X17591190Y-9403476D01*
X17591190Y-9403476D02*
X17657857Y-9546333D01*
X17657857Y-9546333D02*
X17724524Y-9403476D01*
X17724524Y-9403476D02*
X17724524Y-9603476D01*
X17905476Y-9603476D02*
X17905476Y-9498714D01*
X17905476Y-9498714D02*
X17895952Y-9479667D01*
X17895952Y-9479667D02*
X17876905Y-9470143D01*
X17876905Y-9470143D02*
X17838809Y-9470143D01*
X17838809Y-9470143D02*
X17819762Y-9479667D01*
X17905476Y-9593952D02*
X17886429Y-9603476D01*
X17886429Y-9603476D02*
X17838809Y-9603476D01*
X17838809Y-9603476D02*
X17819762Y-9593952D01*
X17819762Y-9593952D02*
X17810238Y-9574905D01*
X17810238Y-9574905D02*
X17810238Y-9555857D01*
X17810238Y-9555857D02*
X17819762Y-9536810D01*
X17819762Y-9536810D02*
X17838809Y-9527286D01*
X17838809Y-9527286D02*
X17886429Y-9527286D01*
X17886429Y-9527286D02*
X17905476Y-9517762D01*
X18000714Y-9470143D02*
X18000714Y-9670143D01*
X18000714Y-9479667D02*
X18019762Y-9470143D01*
X18019762Y-9470143D02*
X18057857Y-9470143D01*
X18057857Y-9470143D02*
X18076905Y-9479667D01*
X18076905Y-9479667D02*
X18086429Y-9489190D01*
X18086429Y-9489190D02*
X18095952Y-9508238D01*
X18095952Y-9508238D02*
X18095952Y-9565381D01*
X18095952Y-9565381D02*
X18086429Y-9584429D01*
X18086429Y-9584429D02*
X18076905Y-9593952D01*
X18076905Y-9593952D02*
X18057857Y-9603476D01*
X18057857Y-9603476D02*
X18019762Y-9603476D01*
X18019762Y-9603476D02*
X18000714Y-9593952D01*
X18181667Y-9584429D02*
X18191190Y-9593952D01*
X18191190Y-9593952D02*
X18181667Y-9603476D01*
X18181667Y-9603476D02*
X18172143Y-9593952D01*
X18172143Y-9593952D02*
X18181667Y-9584429D01*
X18181667Y-9584429D02*
X18181667Y-9603476D01*
X18181667Y-9479667D02*
X18191190Y-9489190D01*
X18191190Y-9489190D02*
X18181667Y-9498714D01*
X18181667Y-9498714D02*
X18172143Y-9489190D01*
X18172143Y-9489190D02*
X18181667Y-9479667D01*
X18181667Y-9479667D02*
X18181667Y-9498714D01*
D13*
X16570000Y-9937500D02*
X16595000Y-9962500D01*
X16595000Y-9937500D02*
X16570000Y-9962500D01*
D12*
X16880714Y-9823476D02*
X16899762Y-9823476D01*
X16899762Y-9823476D02*
X16918810Y-9833000D01*
X16918810Y-9833000D02*
X16928333Y-9842524D01*
X16928333Y-9842524D02*
X16937857Y-9861571D01*
X16937857Y-9861571D02*
X16947381Y-9899667D01*
X16947381Y-9899667D02*
X16947381Y-9947286D01*
X16947381Y-9947286D02*
X16937857Y-9985381D01*
X16937857Y-9985381D02*
X16928333Y-10004429D01*
X16928333Y-10004429D02*
X16918810Y-10013952D01*
X16918810Y-10013952D02*
X16899762Y-10023476D01*
X16899762Y-10023476D02*
X16880714Y-10023476D01*
X16880714Y-10023476D02*
X16861667Y-10013952D01*
X16861667Y-10013952D02*
X16852143Y-10004429D01*
X16852143Y-10004429D02*
X16842619Y-9985381D01*
X16842619Y-9985381D02*
X16833095Y-9947286D01*
X16833095Y-9947286D02*
X16833095Y-9899667D01*
X16833095Y-9899667D02*
X16842619Y-9861571D01*
X16842619Y-9861571D02*
X16852143Y-9842524D01*
X16852143Y-9842524D02*
X16861667Y-9833000D01*
X16861667Y-9833000D02*
X16880714Y-9823476D01*
X17033095Y-10004429D02*
X17042619Y-10013952D01*
X17042619Y-10013952D02*
X17033095Y-10023476D01*
X17033095Y-10023476D02*
X17023571Y-10013952D01*
X17023571Y-10013952D02*
X17033095Y-10004429D01*
X17033095Y-10004429D02*
X17033095Y-10023476D01*
X17118810Y-9842524D02*
X17128333Y-9833000D01*
X17128333Y-9833000D02*
X17147381Y-9823476D01*
X17147381Y-9823476D02*
X17195000Y-9823476D01*
X17195000Y-9823476D02*
X17214048Y-9833000D01*
X17214048Y-9833000D02*
X17223571Y-9842524D01*
X17223571Y-9842524D02*
X17233095Y-9861571D01*
X17233095Y-9861571D02*
X17233095Y-9880619D01*
X17233095Y-9880619D02*
X17223571Y-9909190D01*
X17223571Y-9909190D02*
X17109286Y-10023476D01*
X17109286Y-10023476D02*
X17233095Y-10023476D01*
X17414048Y-9823476D02*
X17318810Y-9823476D01*
X17318810Y-9823476D02*
X17309286Y-9918714D01*
X17309286Y-9918714D02*
X17318810Y-9909190D01*
X17318810Y-9909190D02*
X17337857Y-9899667D01*
X17337857Y-9899667D02*
X17385476Y-9899667D01*
X17385476Y-9899667D02*
X17404524Y-9909190D01*
X17404524Y-9909190D02*
X17414048Y-9918714D01*
X17414048Y-9918714D02*
X17423571Y-9937762D01*
X17423571Y-9937762D02*
X17423571Y-9985381D01*
X17423571Y-9985381D02*
X17414048Y-10004429D01*
X17414048Y-10004429D02*
X17404524Y-10013952D01*
X17404524Y-10013952D02*
X17385476Y-10023476D01*
X17385476Y-10023476D02*
X17337857Y-10023476D01*
X17337857Y-10023476D02*
X17318810Y-10013952D01*
X17318810Y-10013952D02*
X17309286Y-10004429D01*
X17547381Y-9823476D02*
X17566429Y-9823476D01*
X17566429Y-9823476D02*
X17585476Y-9833000D01*
X17585476Y-9833000D02*
X17595000Y-9842524D01*
X17595000Y-9842524D02*
X17604524Y-9861571D01*
X17604524Y-9861571D02*
X17614048Y-9899667D01*
X17614048Y-9899667D02*
X17614048Y-9947286D01*
X17614048Y-9947286D02*
X17604524Y-9985381D01*
X17604524Y-9985381D02*
X17595000Y-10004429D01*
X17595000Y-10004429D02*
X17585476Y-10013952D01*
X17585476Y-10013952D02*
X17566429Y-10023476D01*
X17566429Y-10023476D02*
X17547381Y-10023476D01*
X17547381Y-10023476D02*
X17528333Y-10013952D01*
X17528333Y-10013952D02*
X17518810Y-10004429D01*
X17518810Y-10004429D02*
X17509286Y-9985381D01*
X17509286Y-9985381D02*
X17499762Y-9947286D01*
X17499762Y-9947286D02*
X17499762Y-9899667D01*
X17499762Y-9899667D02*
X17509286Y-9861571D01*
X17509286Y-9861571D02*
X17518810Y-9842524D01*
X17518810Y-9842524D02*
X17528333Y-9833000D01*
X17528333Y-9833000D02*
X17547381Y-9823476D01*
X17699762Y-10023476D02*
X17699762Y-9890143D01*
X17699762Y-9909190D02*
X17709286Y-9899667D01*
X17709286Y-9899667D02*
X17728333Y-9890143D01*
X17728333Y-9890143D02*
X17756905Y-9890143D01*
X17756905Y-9890143D02*
X17775952Y-9899667D01*
X17775952Y-9899667D02*
X17785476Y-9918714D01*
X17785476Y-9918714D02*
X17785476Y-10023476D01*
X17785476Y-9918714D02*
X17795000Y-9899667D01*
X17795000Y-9899667D02*
X17814048Y-9890143D01*
X17814048Y-9890143D02*
X17842619Y-9890143D01*
X17842619Y-9890143D02*
X17861667Y-9899667D01*
X17861667Y-9899667D02*
X17871191Y-9918714D01*
X17871191Y-9918714D02*
X17871191Y-10023476D01*
X17966429Y-10023476D02*
X17966429Y-9890143D01*
X17966429Y-9909190D02*
X17975952Y-9899667D01*
X17975952Y-9899667D02*
X17995000Y-9890143D01*
X17995000Y-9890143D02*
X18023572Y-9890143D01*
X18023572Y-9890143D02*
X18042619Y-9899667D01*
X18042619Y-9899667D02*
X18052143Y-9918714D01*
X18052143Y-9918714D02*
X18052143Y-10023476D01*
X18052143Y-9918714D02*
X18061667Y-9899667D01*
X18061667Y-9899667D02*
X18080714Y-9890143D01*
X18080714Y-9890143D02*
X18109286Y-9890143D01*
X18109286Y-9890143D02*
X18128333Y-9899667D01*
X18128333Y-9899667D02*
X18137857Y-9918714D01*
X18137857Y-9918714D02*
X18137857Y-10023476D01*
X18495952Y-9813952D02*
X18324524Y-10071095D01*
X18720714Y-9823476D02*
X18739762Y-9823476D01*
X18739762Y-9823476D02*
X18758810Y-9833000D01*
X18758810Y-9833000D02*
X18768333Y-9842524D01*
X18768333Y-9842524D02*
X18777857Y-9861571D01*
X18777857Y-9861571D02*
X18787381Y-9899667D01*
X18787381Y-9899667D02*
X18787381Y-9947286D01*
X18787381Y-9947286D02*
X18777857Y-9985381D01*
X18777857Y-9985381D02*
X18768333Y-10004429D01*
X18768333Y-10004429D02*
X18758810Y-10013952D01*
X18758810Y-10013952D02*
X18739762Y-10023476D01*
X18739762Y-10023476D02*
X18720714Y-10023476D01*
X18720714Y-10023476D02*
X18701667Y-10013952D01*
X18701667Y-10013952D02*
X18692143Y-10004429D01*
X18692143Y-10004429D02*
X18682619Y-9985381D01*
X18682619Y-9985381D02*
X18673095Y-9947286D01*
X18673095Y-9947286D02*
X18673095Y-9899667D01*
X18673095Y-9899667D02*
X18682619Y-9861571D01*
X18682619Y-9861571D02*
X18692143Y-9842524D01*
X18692143Y-9842524D02*
X18701667Y-9833000D01*
X18701667Y-9833000D02*
X18720714Y-9823476D01*
X18873095Y-10004429D02*
X18882619Y-10013952D01*
X18882619Y-10013952D02*
X18873095Y-10023476D01*
X18873095Y-10023476D02*
X18863572Y-10013952D01*
X18863572Y-10013952D02*
X18873095Y-10004429D01*
X18873095Y-10004429D02*
X18873095Y-10023476D01*
X19006429Y-9823476D02*
X19025476Y-9823476D01*
X19025476Y-9823476D02*
X19044524Y-9833000D01*
X19044524Y-9833000D02*
X19054048Y-9842524D01*
X19054048Y-9842524D02*
X19063572Y-9861571D01*
X19063572Y-9861571D02*
X19073095Y-9899667D01*
X19073095Y-9899667D02*
X19073095Y-9947286D01*
X19073095Y-9947286D02*
X19063572Y-9985381D01*
X19063572Y-9985381D02*
X19054048Y-10004429D01*
X19054048Y-10004429D02*
X19044524Y-10013952D01*
X19044524Y-10013952D02*
X19025476Y-10023476D01*
X19025476Y-10023476D02*
X19006429Y-10023476D01*
X19006429Y-10023476D02*
X18987381Y-10013952D01*
X18987381Y-10013952D02*
X18977857Y-10004429D01*
X18977857Y-10004429D02*
X18968333Y-9985381D01*
X18968333Y-9985381D02*
X18958810Y-9947286D01*
X18958810Y-9947286D02*
X18958810Y-9899667D01*
X18958810Y-9899667D02*
X18968333Y-9861571D01*
X18968333Y-9861571D02*
X18977857Y-9842524D01*
X18977857Y-9842524D02*
X18987381Y-9833000D01*
X18987381Y-9833000D02*
X19006429Y-9823476D01*
X19196905Y-9823476D02*
X19215953Y-9823476D01*
X19215953Y-9823476D02*
X19235000Y-9833000D01*
X19235000Y-9833000D02*
X19244524Y-9842524D01*
X19244524Y-9842524D02*
X19254048Y-9861571D01*
X19254048Y-9861571D02*
X19263572Y-9899667D01*
X19263572Y-9899667D02*
X19263572Y-9947286D01*
X19263572Y-9947286D02*
X19254048Y-9985381D01*
X19254048Y-9985381D02*
X19244524Y-10004429D01*
X19244524Y-10004429D02*
X19235000Y-10013952D01*
X19235000Y-10013952D02*
X19215953Y-10023476D01*
X19215953Y-10023476D02*
X19196905Y-10023476D01*
X19196905Y-10023476D02*
X19177857Y-10013952D01*
X19177857Y-10013952D02*
X19168333Y-10004429D01*
X19168333Y-10004429D02*
X19158810Y-9985381D01*
X19158810Y-9985381D02*
X19149286Y-9947286D01*
X19149286Y-9947286D02*
X19149286Y-9899667D01*
X19149286Y-9899667D02*
X19158810Y-9861571D01*
X19158810Y-9861571D02*
X19168333Y-9842524D01*
X19168333Y-9842524D02*
X19177857Y-9833000D01*
X19177857Y-9833000D02*
X19196905Y-9823476D01*
X19358810Y-10023476D02*
X19396905Y-10023476D01*
X19396905Y-10023476D02*
X19415953Y-10013952D01*
X19415953Y-10013952D02*
X19425476Y-10004429D01*
X19425476Y-10004429D02*
X19444524Y-9975857D01*
X19444524Y-9975857D02*
X19454048Y-9937762D01*
X19454048Y-9937762D02*
X19454048Y-9861571D01*
X19454048Y-9861571D02*
X19444524Y-9842524D01*
X19444524Y-9842524D02*
X19435000Y-9833000D01*
X19435000Y-9833000D02*
X19415953Y-9823476D01*
X19415953Y-9823476D02*
X19377857Y-9823476D01*
X19377857Y-9823476D02*
X19358810Y-9833000D01*
X19358810Y-9833000D02*
X19349286Y-9842524D01*
X19349286Y-9842524D02*
X19339762Y-9861571D01*
X19339762Y-9861571D02*
X19339762Y-9909190D01*
X19339762Y-9909190D02*
X19349286Y-9928238D01*
X19349286Y-9928238D02*
X19358810Y-9937762D01*
X19358810Y-9937762D02*
X19377857Y-9947286D01*
X19377857Y-9947286D02*
X19415953Y-9947286D01*
X19415953Y-9947286D02*
X19435000Y-9937762D01*
X19435000Y-9937762D02*
X19444524Y-9928238D01*
X19444524Y-9928238D02*
X19454048Y-9909190D01*
X19568333Y-9909190D02*
X19549286Y-9899667D01*
X19549286Y-9899667D02*
X19539762Y-9890143D01*
X19539762Y-9890143D02*
X19530238Y-9871095D01*
X19530238Y-9871095D02*
X19530238Y-9861571D01*
X19530238Y-9861571D02*
X19539762Y-9842524D01*
X19539762Y-9842524D02*
X19549286Y-9833000D01*
X19549286Y-9833000D02*
X19568333Y-9823476D01*
X19568333Y-9823476D02*
X19606429Y-9823476D01*
X19606429Y-9823476D02*
X19625476Y-9833000D01*
X19625476Y-9833000D02*
X19635000Y-9842524D01*
X19635000Y-9842524D02*
X19644524Y-9861571D01*
X19644524Y-9861571D02*
X19644524Y-9871095D01*
X19644524Y-9871095D02*
X19635000Y-9890143D01*
X19635000Y-9890143D02*
X19625476Y-9899667D01*
X19625476Y-9899667D02*
X19606429Y-9909190D01*
X19606429Y-9909190D02*
X19568333Y-9909190D01*
X19568333Y-9909190D02*
X19549286Y-9918714D01*
X19549286Y-9918714D02*
X19539762Y-9928238D01*
X19539762Y-9928238D02*
X19530238Y-9947286D01*
X19530238Y-9947286D02*
X19530238Y-9985381D01*
X19530238Y-9985381D02*
X19539762Y-10004429D01*
X19539762Y-10004429D02*
X19549286Y-10013952D01*
X19549286Y-10013952D02*
X19568333Y-10023476D01*
X19568333Y-10023476D02*
X19606429Y-10023476D01*
X19606429Y-10023476D02*
X19625476Y-10013952D01*
X19625476Y-10013952D02*
X19635000Y-10004429D01*
X19635000Y-10004429D02*
X19644524Y-9985381D01*
X19644524Y-9985381D02*
X19644524Y-9947286D01*
X19644524Y-9947286D02*
X19635000Y-9928238D01*
X19635000Y-9928238D02*
X19625476Y-9918714D01*
X19625476Y-9918714D02*
X19606429Y-9909190D01*
X19720714Y-9823476D02*
X19720714Y-9861571D01*
X19796905Y-9823476D02*
X19796905Y-9861571D01*
X20059762Y-10099667D02*
X20050238Y-10090143D01*
X20050238Y-10090143D02*
X20031191Y-10061571D01*
X20031191Y-10061571D02*
X20021667Y-10042524D01*
X20021667Y-10042524D02*
X20012143Y-10013952D01*
X20012143Y-10013952D02*
X20002619Y-9966333D01*
X20002619Y-9966333D02*
X20002619Y-9928238D01*
X20002619Y-9928238D02*
X20012143Y-9880619D01*
X20012143Y-9880619D02*
X20021667Y-9852048D01*
X20021667Y-9852048D02*
X20031191Y-9833000D01*
X20031191Y-9833000D02*
X20050238Y-9804429D01*
X20050238Y-9804429D02*
X20059762Y-9794905D01*
X20116905Y-9823476D02*
X20240714Y-9823476D01*
X20240714Y-9823476D02*
X20174048Y-9899667D01*
X20174048Y-9899667D02*
X20202619Y-9899667D01*
X20202619Y-9899667D02*
X20221667Y-9909190D01*
X20221667Y-9909190D02*
X20231191Y-9918714D01*
X20231191Y-9918714D02*
X20240714Y-9937762D01*
X20240714Y-9937762D02*
X20240714Y-9985381D01*
X20240714Y-9985381D02*
X20231191Y-10004429D01*
X20231191Y-10004429D02*
X20221667Y-10013952D01*
X20221667Y-10013952D02*
X20202619Y-10023476D01*
X20202619Y-10023476D02*
X20145476Y-10023476D01*
X20145476Y-10023476D02*
X20126429Y-10013952D01*
X20126429Y-10013952D02*
X20116905Y-10004429D01*
X20412143Y-9823476D02*
X20374048Y-9823476D01*
X20374048Y-9823476D02*
X20355000Y-9833000D01*
X20355000Y-9833000D02*
X20345476Y-9842524D01*
X20345476Y-9842524D02*
X20326429Y-9871095D01*
X20326429Y-9871095D02*
X20316905Y-9909190D01*
X20316905Y-9909190D02*
X20316905Y-9985381D01*
X20316905Y-9985381D02*
X20326429Y-10004429D01*
X20326429Y-10004429D02*
X20335953Y-10013952D01*
X20335953Y-10013952D02*
X20355000Y-10023476D01*
X20355000Y-10023476D02*
X20393095Y-10023476D01*
X20393095Y-10023476D02*
X20412143Y-10013952D01*
X20412143Y-10013952D02*
X20421667Y-10004429D01*
X20421667Y-10004429D02*
X20431191Y-9985381D01*
X20431191Y-9985381D02*
X20431191Y-9937762D01*
X20431191Y-9937762D02*
X20421667Y-9918714D01*
X20421667Y-9918714D02*
X20412143Y-9909190D01*
X20412143Y-9909190D02*
X20393095Y-9899667D01*
X20393095Y-9899667D02*
X20355000Y-9899667D01*
X20355000Y-9899667D02*
X20335953Y-9909190D01*
X20335953Y-9909190D02*
X20326429Y-9918714D01*
X20326429Y-9918714D02*
X20316905Y-9937762D01*
X20636905Y-10023476D02*
X20636905Y-9823476D01*
X20722619Y-10023476D02*
X20722619Y-9918714D01*
X20722619Y-9918714D02*
X20713095Y-9899667D01*
X20713095Y-9899667D02*
X20694048Y-9890143D01*
X20694048Y-9890143D02*
X20665476Y-9890143D01*
X20665476Y-9890143D02*
X20646429Y-9899667D01*
X20646429Y-9899667D02*
X20636905Y-9909190D01*
X20846429Y-10023476D02*
X20827381Y-10013952D01*
X20827381Y-10013952D02*
X20817857Y-10004429D01*
X20817857Y-10004429D02*
X20808334Y-9985381D01*
X20808334Y-9985381D02*
X20808334Y-9928238D01*
X20808334Y-9928238D02*
X20817857Y-9909190D01*
X20817857Y-9909190D02*
X20827381Y-9899667D01*
X20827381Y-9899667D02*
X20846429Y-9890143D01*
X20846429Y-9890143D02*
X20875000Y-9890143D01*
X20875000Y-9890143D02*
X20894048Y-9899667D01*
X20894048Y-9899667D02*
X20903572Y-9909190D01*
X20903572Y-9909190D02*
X20913095Y-9928238D01*
X20913095Y-9928238D02*
X20913095Y-9985381D01*
X20913095Y-9985381D02*
X20903572Y-10004429D01*
X20903572Y-10004429D02*
X20894048Y-10013952D01*
X20894048Y-10013952D02*
X20875000Y-10023476D01*
X20875000Y-10023476D02*
X20846429Y-10023476D01*
X21027381Y-10023476D02*
X21008334Y-10013952D01*
X21008334Y-10013952D02*
X20998810Y-9994905D01*
X20998810Y-9994905D02*
X20998810Y-9823476D01*
X21179762Y-10013952D02*
X21160715Y-10023476D01*
X21160715Y-10023476D02*
X21122619Y-10023476D01*
X21122619Y-10023476D02*
X21103572Y-10013952D01*
X21103572Y-10013952D02*
X21094048Y-9994905D01*
X21094048Y-9994905D02*
X21094048Y-9918714D01*
X21094048Y-9918714D02*
X21103572Y-9899667D01*
X21103572Y-9899667D02*
X21122619Y-9890143D01*
X21122619Y-9890143D02*
X21160715Y-9890143D01*
X21160715Y-9890143D02*
X21179762Y-9899667D01*
X21179762Y-9899667D02*
X21189286Y-9918714D01*
X21189286Y-9918714D02*
X21189286Y-9937762D01*
X21189286Y-9937762D02*
X21094048Y-9956810D01*
X21265476Y-10013952D02*
X21284524Y-10023476D01*
X21284524Y-10023476D02*
X21322619Y-10023476D01*
X21322619Y-10023476D02*
X21341667Y-10013952D01*
X21341667Y-10013952D02*
X21351191Y-9994905D01*
X21351191Y-9994905D02*
X21351191Y-9985381D01*
X21351191Y-9985381D02*
X21341667Y-9966333D01*
X21341667Y-9966333D02*
X21322619Y-9956810D01*
X21322619Y-9956810D02*
X21294048Y-9956810D01*
X21294048Y-9956810D02*
X21275000Y-9947286D01*
X21275000Y-9947286D02*
X21265476Y-9928238D01*
X21265476Y-9928238D02*
X21265476Y-9918714D01*
X21265476Y-9918714D02*
X21275000Y-9899667D01*
X21275000Y-9899667D02*
X21294048Y-9890143D01*
X21294048Y-9890143D02*
X21322619Y-9890143D01*
X21322619Y-9890143D02*
X21341667Y-9899667D01*
X21417857Y-10099667D02*
X21427381Y-10090143D01*
X21427381Y-10090143D02*
X21446429Y-10061571D01*
X21446429Y-10061571D02*
X21455953Y-10042524D01*
X21455953Y-10042524D02*
X21465476Y-10013952D01*
X21465476Y-10013952D02*
X21475000Y-9966333D01*
X21475000Y-9966333D02*
X21475000Y-9928238D01*
X21475000Y-9928238D02*
X21465476Y-9880619D01*
X21465476Y-9880619D02*
X21455953Y-9852048D01*
X21455953Y-9852048D02*
X21446429Y-9833000D01*
X21446429Y-9833000D02*
X21427381Y-9804429D01*
X21427381Y-9804429D02*
X21417857Y-9794905D01*
M02*
