M48
; DRILL file {KiCad (6.0.2-0)} date Monday, 10 October 2022 at 06:33:45 pm
; FORMAT={-:-/ absolute / metric / decimal}
; #@! TF.CreationDate,2022-10-10T18:33:45+08:00
; #@! TF.GenerationSoftware,Kicad,Pcbnew,(6.0.2-0)
; #@! TF.FileFunction,Plated,1,4,PTH
FMAT,2
METRIC
; #@! TA.AperFunction,Plated,PTH,ViaDrill
T1C0.250
%
G90
G05
T1
X166.48Y-89.01
X166.48Y-90.03
X166.48Y-92.05
X166.49Y-84.3
X166.49Y-85.32
X166.49Y-91.02
X166.61Y-86.48
X167.48Y-82.93
X168.18Y-90.15
X168.19Y-92.84
X168.57Y-82.47
X169.37Y-82.46
X170.27Y-92.84
X170.3Y-90.16
X170.73Y-85.29
X171.7Y-87.7
X172.49Y-82.5
X172.7Y-87.7
X173.56Y-82.5
X173.7Y-87.7
X173.92Y-92.51
X175.12Y-82.46
X175.25Y-91.17
X175.36Y-88.37
X176.27Y-83.22
X176.46Y-89.38
X176.563Y-86.812
X176.78Y-90.78
X177.02Y-90.01
X178.04Y-89.51
X178.47Y-85.07
X179.14Y-86.19
X179.221Y-92.489
X179.393Y-84.952
X180.2Y-86.25
X181.06Y-92.5
X181.28Y-88.99
X181.4Y-90.7
X181.7Y-82.8
X181.7Y-84.0
X182.3Y-87.75
T0
M30
