G04 #@! TF.GenerationSoftware,KiCad,Pcbnew,(6.0.2-0)*
G04 #@! TF.CreationDate,2022-10-10T18:33:33+08:00*
G04 #@! TF.ProjectId,Revolute,5265766f-6c75-4746-952e-6b696361645f,rev?*
G04 #@! TF.SameCoordinates,Original*
G04 #@! TF.FileFunction,Paste,Top*
G04 #@! TF.FilePolarity,Positive*
%FSLAX46Y46*%
G04 Gerber Fmt 4.6, Leading zero omitted, Abs format (unit mm)*
G04 Created by KiCad (PCBNEW (6.0.2-0)) date 2022-10-10 18:33:33*
%MOMM*%
%LPD*%
G01*
G04 APERTURE LIST*
G04 Aperture macros list*
%AMRoundRect*
0 Rectangle with rounded corners*
0 $1 Rounding radius*
0 $2 $3 $4 $5 $6 $7 $8 $9 X,Y pos of 4 corners*
0 Add a 4 corners polygon primitive as box body*
4,1,4,$2,$3,$4,$5,$6,$7,$8,$9,$2,$3,0*
0 Add four circle primitives for the rounded corners*
1,1,$1+$1,$2,$3*
1,1,$1+$1,$4,$5*
1,1,$1+$1,$6,$7*
1,1,$1+$1,$8,$9*
0 Add four rect primitives between the rounded corners*
20,1,$1+$1,$2,$3,$4,$5,0*
20,1,$1+$1,$4,$5,$6,$7,0*
20,1,$1+$1,$6,$7,$8,$9,0*
20,1,$1+$1,$8,$9,$2,$3,0*%
G04 Aperture macros list end*
%ADD10RoundRect,0.135000X-0.135000X-0.185000X0.135000X-0.185000X0.135000X0.185000X-0.135000X0.185000X0*%
%ADD11RoundRect,0.140000X-0.170000X0.140000X-0.170000X-0.140000X0.170000X-0.140000X0.170000X0.140000X0*%
%ADD12RoundRect,0.140000X0.170000X-0.140000X0.170000X0.140000X-0.170000X0.140000X-0.170000X-0.140000X0*%
%ADD13RoundRect,0.140000X0.140000X0.170000X-0.140000X0.170000X-0.140000X-0.170000X0.140000X-0.170000X0*%
%ADD14RoundRect,0.147500X-0.172500X0.147500X-0.172500X-0.147500X0.172500X-0.147500X0.172500X0.147500X0*%
%ADD15RoundRect,0.147500X0.172500X-0.147500X0.172500X0.147500X-0.172500X0.147500X-0.172500X-0.147500X0*%
%ADD16RoundRect,0.150000X-0.350000X-0.300000X0.350000X-0.300000X0.350000X0.300000X-0.350000X0.300000X0*%
%ADD17RoundRect,0.140000X-0.140000X-0.170000X0.140000X-0.170000X0.140000X0.170000X-0.140000X0.170000X0*%
%ADD18RoundRect,0.086250X0.201250X0.201250X-0.201250X0.201250X-0.201250X-0.201250X0.201250X-0.201250X0*%
%ADD19C,0.250000*%
%ADD20RoundRect,0.218750X-0.256250X0.218750X-0.256250X-0.218750X0.256250X-0.218750X0.256250X0.218750X0*%
%ADD21RoundRect,0.250000X-0.250000X-0.250000X0.250000X-0.250000X0.250000X0.250000X-0.250000X0.250000X0*%
%ADD22R,1.100000X0.600000*%
%ADD23R,1.060000X0.650000*%
G04 APERTURE END LIST*
D10*
X177750000Y-90022132D03*
X178770000Y-90022132D03*
D11*
X177600000Y-91012132D03*
X177600000Y-91972132D03*
D12*
X169362780Y-84202132D03*
X169362780Y-83242132D03*
D13*
X168182780Y-92042132D03*
X167222780Y-92042132D03*
X168182780Y-89012132D03*
X167222780Y-89012132D03*
X168182780Y-85322132D03*
X167222780Y-85322132D03*
D14*
X170402780Y-83217132D03*
X170402780Y-84187132D03*
D12*
X173552780Y-84182132D03*
X173552780Y-83222132D03*
D15*
X171462780Y-84197132D03*
X171462780Y-83227132D03*
D13*
X178250000Y-89000000D03*
X177290000Y-89000000D03*
D16*
X177192780Y-84952132D03*
X179392780Y-84952132D03*
X179392780Y-83352132D03*
X177192780Y-83352132D03*
D11*
X175642780Y-83222132D03*
X175642780Y-84182132D03*
D12*
X180900000Y-86250000D03*
X180900000Y-85290000D03*
D13*
X168172780Y-84302132D03*
X167212780Y-84302132D03*
D17*
X167222780Y-90022132D03*
X168182780Y-90022132D03*
D18*
X173187780Y-90167132D03*
X174187780Y-87167132D03*
X173187780Y-87167132D03*
X171187780Y-87167132D03*
X173187780Y-89167132D03*
X173187780Y-88167132D03*
X174187780Y-90167132D03*
X171187780Y-88167132D03*
X171187780Y-89167132D03*
X171187780Y-90167132D03*
X172187780Y-87167132D03*
X174187780Y-89167132D03*
X172187780Y-88167132D03*
X172187780Y-89167132D03*
X174187780Y-88167132D03*
X172187780Y-90167132D03*
D19*
X171437780Y-85417132D03*
X171937780Y-85417132D03*
X172437780Y-85417132D03*
X172937780Y-85417132D03*
X173437780Y-85417132D03*
X173937780Y-85417132D03*
X174437780Y-85417132D03*
X174937780Y-85417132D03*
X175437780Y-85417132D03*
X175937780Y-90917132D03*
X169937780Y-91167132D03*
X170687780Y-91417132D03*
X171687780Y-91417132D03*
X172187780Y-91417132D03*
X172687780Y-91417132D03*
X173187780Y-91417132D03*
X173687780Y-91417132D03*
X174187780Y-91417132D03*
X174687780Y-91417132D03*
X175937780Y-91417132D03*
X169937780Y-91917132D03*
X170437780Y-91917132D03*
X170937780Y-91917132D03*
X171437780Y-91917132D03*
X171937780Y-91917132D03*
X172437780Y-91917132D03*
X172937780Y-91917132D03*
X173437780Y-91917132D03*
X173937780Y-91917132D03*
X174437780Y-91917132D03*
X174937780Y-91917132D03*
X175437780Y-91917132D03*
X169437780Y-85917132D03*
X170187780Y-85917132D03*
X170687780Y-85917132D03*
X171187780Y-85917132D03*
X171687780Y-85917132D03*
X172187780Y-85917132D03*
X172687780Y-85917132D03*
X173187780Y-85917132D03*
X173687780Y-85917132D03*
X174187780Y-85917132D03*
X175937780Y-85917132D03*
X169437780Y-86417132D03*
X169937780Y-86667132D03*
X175437780Y-86667132D03*
X175937780Y-86917132D03*
X169937780Y-87167132D03*
X175437780Y-87167132D03*
X169437780Y-87417132D03*
X169937780Y-87667132D03*
X175437780Y-87667132D03*
X169437780Y-87917132D03*
X175937780Y-87917132D03*
X169937780Y-88167132D03*
X169437780Y-88417132D03*
X175937780Y-88417132D03*
X169937780Y-88667132D03*
X169437780Y-88917132D03*
X175937780Y-88917132D03*
X169937780Y-89167132D03*
X175437780Y-89167132D03*
X169437780Y-89417132D03*
X175937780Y-89417132D03*
X169937780Y-89667132D03*
X175437780Y-89667132D03*
X169437780Y-89917132D03*
X175937780Y-89917132D03*
X175437780Y-90167132D03*
X169437780Y-90417132D03*
X175937780Y-90417132D03*
X169937780Y-90667132D03*
X175437780Y-90667132D03*
D20*
X180000000Y-90304632D03*
X180000000Y-91879632D03*
D21*
X181700000Y-84000000D03*
D13*
X178002780Y-87812132D03*
X177042780Y-87812132D03*
X178402780Y-86832132D03*
X177442780Y-86832132D03*
D21*
X181700000Y-82800000D03*
D11*
X178600000Y-91120000D03*
X178600000Y-92080000D03*
D22*
X167702780Y-86462132D03*
X167702780Y-87862132D03*
D12*
X174602780Y-84182132D03*
X174602780Y-83222132D03*
D17*
X167222780Y-91032132D03*
X168182780Y-91032132D03*
D13*
X178412780Y-85882132D03*
X177452780Y-85882132D03*
D12*
X172502780Y-84172132D03*
X172502780Y-83212132D03*
D23*
X180100000Y-87050000D03*
X180100000Y-88000000D03*
X180100000Y-88950000D03*
X182300000Y-88950000D03*
X182300000Y-87050000D03*
D12*
X182240000Y-86250000D03*
X182240000Y-85290000D03*
M02*
