G04 #@! TF.GenerationSoftware,KiCad,Pcbnew,(7.0.0-0)*
G04 #@! TF.CreationDate,2023-11-27T20:18:25+08:00*
G04 #@! TF.ProjectId,Revolute,5265766f-6c75-4746-952e-6b696361645f,rev?*
G04 #@! TF.SameCoordinates,Original*
G04 #@! TF.FileFunction,Copper,L2,Inr*
G04 #@! TF.FilePolarity,Positive*
%FSLAX46Y46*%
G04 Gerber Fmt 4.6, Leading zero omitted, Abs format (unit mm)*
G04 Created by KiCad (PCBNEW (7.0.0-0)) date 2023-11-27 20:18:25*
%MOMM*%
%LPD*%
G01*
G04 APERTURE LIST*
G04 #@! TA.AperFunction,ViaPad*
%ADD10C,0.500000*%
G04 #@! TD*
G04 #@! TA.AperFunction,Conductor*
%ADD11C,0.250000*%
G04 #@! TD*
G04 #@! TA.AperFunction,Conductor*
%ADD12C,0.150000*%
G04 #@! TD*
G04 APERTURE END LIST*
D10*
X171700000Y-87700000D03*
X172700000Y-87700000D03*
X166480000Y-92050000D03*
X176270000Y-83220000D03*
X178470000Y-85070000D03*
X166490000Y-85320000D03*
X166490000Y-91020000D03*
X179392780Y-84952132D03*
X173700000Y-87700000D03*
X166490000Y-84300000D03*
X166480000Y-90030000D03*
X166480000Y-89010000D03*
X168180000Y-90150000D03*
X181900000Y-85620000D03*
X175130000Y-84910000D03*
X176170000Y-91910000D03*
X169610000Y-85260000D03*
X175910000Y-87390000D03*
X170730000Y-85290000D03*
X167557188Y-83520000D03*
X179250000Y-87120000D03*
X168320000Y-92480000D03*
X166610000Y-86480000D03*
X170220000Y-92480000D03*
X170300000Y-90160000D03*
X176240000Y-90890000D03*
X175380000Y-91260000D03*
X176960000Y-91430000D03*
X168880000Y-87670000D03*
X181860000Y-89870000D03*
X181760000Y-87960000D03*
X170287132Y-87667132D03*
X175080000Y-88080000D03*
X180420000Y-83980000D03*
X181280000Y-83420000D03*
X175437780Y-88820000D03*
D11*
X171650655Y-85290000D02*
X170730000Y-85290000D01*
X175336887Y-86816887D02*
X175910000Y-87390000D01*
X175336905Y-86816869D02*
G75*
G03*
X171650655Y-85290000I-3686205J-3686231D01*
G01*
X168256840Y-88736843D02*
X167570000Y-88050000D01*
X167570000Y-88050000D02*
X167041335Y-87521335D01*
X169380000Y-91640000D02*
X169380000Y-91448395D01*
X166610009Y-86480000D02*
G75*
G03*
X167041335Y-87521335I1472691J0D01*
G01*
X169380000Y-91640000D02*
G75*
G03*
X170220000Y-92480000I840000J0D01*
G01*
X169380008Y-91448395D02*
G75*
G03*
X168256840Y-88736843I-3834708J-5D01*
G01*
D12*
X181860000Y-89870000D02*
X173910559Y-89870000D01*
X168880000Y-87823843D02*
X168880000Y-87670000D01*
X169303103Y-88246946D02*
X168880000Y-87823843D01*
X169303102Y-88246948D02*
G75*
G03*
X173910559Y-89869999I4611098J5738548D01*
G01*
X170290315Y-87667132D02*
X170804748Y-88181565D01*
X170287132Y-87667132D02*
X170290315Y-87667132D01*
X174150000Y-89480000D02*
X178090396Y-89480000D01*
X178090396Y-89479998D02*
G75*
G03*
X181760000Y-87960000I4J5189598D01*
G01*
X170804745Y-88181568D02*
G75*
G03*
X174150000Y-89480000I3348655J3668868D01*
G01*
X178363188Y-88330000D02*
X178030000Y-88330000D01*
X175528979Y-88288194D02*
X175320785Y-88080000D01*
X178030000Y-88330000D02*
X175754808Y-88330000D01*
X180587420Y-84147420D02*
X180587420Y-86110814D01*
X175320785Y-88080000D02*
X175080000Y-88080000D01*
X180420000Y-83980000D02*
X180587420Y-84147420D01*
X178363188Y-88329994D02*
G75*
G03*
X179859999Y-87709999I12J2116794D01*
G01*
X175528977Y-88288200D02*
G75*
G03*
X175754808Y-88330000I235023J638800D01*
G01*
X179860012Y-87710012D02*
G75*
G03*
X180587420Y-86110814I-1780512J1774912D01*
G01*
X175437780Y-88820000D02*
X175510975Y-88746805D01*
X175510975Y-88746805D02*
X178516187Y-88746805D01*
X181280000Y-85334366D02*
X181280000Y-83420000D01*
X180180010Y-87990010D02*
G75*
G03*
X181280000Y-85334366I-2655610J2655610D01*
G01*
X178516186Y-88746796D02*
G75*
G03*
X180180000Y-87990000I-182786J2609196D01*
G01*
G04 #@! TA.AperFunction,Conductor*
G36*
X181773222Y-82360782D02*
G01*
X181812078Y-82364181D01*
X181935374Y-82374968D01*
X181948067Y-82377205D01*
X182102177Y-82418498D01*
X182114297Y-82422910D01*
X182258889Y-82490335D01*
X182270050Y-82496779D01*
X182400734Y-82588285D01*
X182410615Y-82596576D01*
X182523423Y-82709384D01*
X182531714Y-82719265D01*
X182623217Y-82849944D01*
X182629667Y-82861115D01*
X182697089Y-83005703D01*
X182701501Y-83017824D01*
X182742792Y-83171924D01*
X182745031Y-83184627D01*
X182759218Y-83346777D01*
X182759500Y-83353227D01*
X182759500Y-92046773D01*
X182759218Y-92053223D01*
X182745031Y-92215372D01*
X182742792Y-92228075D01*
X182701501Y-92382175D01*
X182697089Y-92394296D01*
X182629667Y-92538884D01*
X182623217Y-92550055D01*
X182531714Y-92680734D01*
X182523423Y-92690615D01*
X182410615Y-92803423D01*
X182400734Y-92811714D01*
X182270055Y-92903217D01*
X182258884Y-92909667D01*
X182114296Y-92977089D01*
X182102175Y-92981501D01*
X181948075Y-93022792D01*
X181935372Y-93025031D01*
X181773223Y-93039218D01*
X181766773Y-93039500D01*
X167003227Y-93039500D01*
X166996777Y-93039218D01*
X166834627Y-93025031D01*
X166821924Y-93022792D01*
X166667824Y-92981501D01*
X166655703Y-92977089D01*
X166511115Y-92909667D01*
X166499944Y-92903217D01*
X166474630Y-92885492D01*
X166369265Y-92811714D01*
X166359384Y-92803423D01*
X166246576Y-92690615D01*
X166238285Y-92680734D01*
X166220933Y-92655953D01*
X166146779Y-92550050D01*
X166140335Y-92538889D01*
X166112875Y-92480000D01*
X167914508Y-92480000D01*
X167915419Y-92485752D01*
X167925603Y-92550055D01*
X167934354Y-92605304D01*
X167991950Y-92718342D01*
X168081658Y-92808050D01*
X168194696Y-92865646D01*
X168320000Y-92885492D01*
X168445304Y-92865646D01*
X168558342Y-92808050D01*
X168648050Y-92718342D01*
X168705646Y-92605304D01*
X168725492Y-92480000D01*
X168705646Y-92354696D01*
X168648050Y-92241658D01*
X168558342Y-92151950D01*
X168531762Y-92138407D01*
X168450497Y-92097000D01*
X168445304Y-92094354D01*
X168439550Y-92093442D01*
X168439548Y-92093442D01*
X168325752Y-92075419D01*
X168320000Y-92074508D01*
X168314248Y-92075419D01*
X168200451Y-92093442D01*
X168200447Y-92093442D01*
X168194696Y-92094354D01*
X168189504Y-92096999D01*
X168189502Y-92097000D01*
X168086850Y-92149304D01*
X168086847Y-92149305D01*
X168081658Y-92151950D01*
X168077541Y-92156066D01*
X168077538Y-92156069D01*
X167996069Y-92237538D01*
X167996066Y-92237541D01*
X167991950Y-92241658D01*
X167989305Y-92246847D01*
X167989304Y-92246850D01*
X167937000Y-92349502D01*
X167934354Y-92354696D01*
X167933442Y-92360447D01*
X167933442Y-92360451D01*
X167929011Y-92388429D01*
X167914508Y-92480000D01*
X166112875Y-92480000D01*
X166072910Y-92394296D01*
X166068498Y-92382175D01*
X166061135Y-92354696D01*
X166027205Y-92228067D01*
X166024968Y-92215371D01*
X166019419Y-92151950D01*
X166010782Y-92053222D01*
X166010500Y-92046773D01*
X166010500Y-90150000D01*
X167774508Y-90150000D01*
X167775419Y-90155752D01*
X167791384Y-90256557D01*
X167794354Y-90275304D01*
X167851950Y-90388342D01*
X167941658Y-90478050D01*
X168054696Y-90535646D01*
X168180000Y-90555492D01*
X168305304Y-90535646D01*
X168418342Y-90478050D01*
X168508050Y-90388342D01*
X168565646Y-90275304D01*
X168585492Y-90150000D01*
X168565646Y-90024696D01*
X168508050Y-89911658D01*
X168418342Y-89821950D01*
X168305304Y-89764354D01*
X168299550Y-89763442D01*
X168299548Y-89763442D01*
X168185752Y-89745419D01*
X168180000Y-89744508D01*
X168174248Y-89745419D01*
X168060451Y-89763442D01*
X168060447Y-89763442D01*
X168054696Y-89764354D01*
X168049504Y-89766999D01*
X168049502Y-89767000D01*
X167946850Y-89819304D01*
X167946847Y-89819305D01*
X167941658Y-89821950D01*
X167937541Y-89826066D01*
X167937538Y-89826069D01*
X167856069Y-89907538D01*
X167856066Y-89907541D01*
X167851950Y-89911658D01*
X167849305Y-89916847D01*
X167849304Y-89916850D01*
X167809330Y-89995304D01*
X167794354Y-90024696D01*
X167793442Y-90030447D01*
X167793442Y-90030451D01*
X167779707Y-90117174D01*
X167774508Y-90150000D01*
X166010500Y-90150000D01*
X166010500Y-86480000D01*
X166204508Y-86480000D01*
X166205419Y-86485752D01*
X166214255Y-86541544D01*
X166224354Y-86605304D01*
X166227000Y-86610497D01*
X166279303Y-86713148D01*
X166281950Y-86718342D01*
X166286069Y-86722461D01*
X166343541Y-86779933D01*
X166363792Y-86817817D01*
X166364105Y-86819394D01*
X166364420Y-86821781D01*
X166365042Y-86824103D01*
X166365044Y-86824112D01*
X166419800Y-87028467D01*
X166423730Y-87043133D01*
X166424654Y-87045366D01*
X166424659Y-87045378D01*
X166505085Y-87239548D01*
X166511424Y-87254851D01*
X166512629Y-87256939D01*
X166512633Y-87256946D01*
X166624788Y-87451207D01*
X166626003Y-87453311D01*
X166627479Y-87455235D01*
X166627480Y-87455236D01*
X166760305Y-87628342D01*
X166765505Y-87635118D01*
X166827339Y-87696954D01*
X166827341Y-87696957D01*
X166827344Y-87696960D01*
X166827345Y-87696961D01*
X167356003Y-88225618D01*
X167356006Y-88225622D01*
X168027682Y-88897301D01*
X168060737Y-88930356D01*
X168063241Y-88932986D01*
X168294158Y-89187762D01*
X168298765Y-89193376D01*
X168502499Y-89468078D01*
X168506534Y-89474116D01*
X168682370Y-89767479D01*
X168685793Y-89773884D01*
X168832021Y-90083056D01*
X168834800Y-90089765D01*
X168950023Y-90411787D01*
X168952131Y-90418736D01*
X169035234Y-90750498D01*
X169036651Y-90757621D01*
X169086835Y-91095933D01*
X169087547Y-91103160D01*
X169104411Y-91446420D01*
X169104500Y-91450051D01*
X169104500Y-91591422D01*
X169104500Y-91640000D01*
X169104500Y-91737594D01*
X169105060Y-91740772D01*
X169105061Y-91740779D01*
X169134900Y-91910000D01*
X169138394Y-91929815D01*
X169139497Y-91932846D01*
X169139498Y-91932849D01*
X169199243Y-92096998D01*
X169205152Y-92113231D01*
X169206764Y-92116024D01*
X169206766Y-92116027D01*
X169279298Y-92241658D01*
X169302745Y-92282269D01*
X169428209Y-92431791D01*
X169577731Y-92557255D01*
X169746769Y-92654848D01*
X169861699Y-92696679D01*
X169891304Y-92718987D01*
X169891950Y-92718342D01*
X169981658Y-92808050D01*
X170094696Y-92865646D01*
X170220000Y-92885492D01*
X170345304Y-92865646D01*
X170458342Y-92808050D01*
X170548050Y-92718342D01*
X170605646Y-92605304D01*
X170625492Y-92480000D01*
X170605646Y-92354696D01*
X170548050Y-92241658D01*
X170458342Y-92151950D01*
X170431762Y-92138407D01*
X170350497Y-92097000D01*
X170345304Y-92094354D01*
X170339550Y-92093442D01*
X170339548Y-92093442D01*
X170225752Y-92075419D01*
X170220000Y-92074508D01*
X170214248Y-92075419D01*
X170100449Y-92093442D01*
X170100444Y-92093443D01*
X170094696Y-92094354D01*
X170089508Y-92096997D01*
X170089506Y-92096998D01*
X170018380Y-92133238D01*
X169981465Y-92141228D01*
X169945415Y-92129961D01*
X169875100Y-92085780D01*
X169862144Y-92075448D01*
X169784551Y-91997855D01*
X169774219Y-91984899D01*
X169730771Y-91915752D01*
X169715836Y-91891982D01*
X169708648Y-91877055D01*
X169672405Y-91773480D01*
X169668720Y-91757334D01*
X169655965Y-91644127D01*
X169655500Y-91635842D01*
X169655500Y-91448425D01*
X169655504Y-91448395D01*
X169655508Y-91448395D01*
X169655508Y-91268939D01*
X169654726Y-91260000D01*
X174974508Y-91260000D01*
X174975419Y-91265752D01*
X174982498Y-91310451D01*
X174994354Y-91385304D01*
X175051950Y-91498342D01*
X175141658Y-91588050D01*
X175254696Y-91645646D01*
X175380000Y-91665492D01*
X175505304Y-91645646D01*
X175618342Y-91588050D01*
X175708050Y-91498342D01*
X175765646Y-91385304D01*
X175785492Y-91260000D01*
X175771282Y-91170283D01*
X175776456Y-91129324D01*
X175802772Y-91097509D01*
X175842038Y-91084747D01*
X175882030Y-91095009D01*
X175904790Y-91119238D01*
X175905885Y-91118443D01*
X175909304Y-91123149D01*
X175911950Y-91128342D01*
X176001658Y-91218050D01*
X176114696Y-91275646D01*
X176240000Y-91295492D01*
X176365304Y-91275646D01*
X176469113Y-91222752D01*
X176511401Y-91215200D01*
X176550762Y-91232415D01*
X176573926Y-91268596D01*
X176573222Y-91304516D01*
X176574354Y-91304696D01*
X176554508Y-91430000D01*
X176555419Y-91435752D01*
X176574354Y-91555304D01*
X176573122Y-91555499D01*
X176572299Y-91597442D01*
X176541538Y-91634924D01*
X176494175Y-91645316D01*
X176450547Y-91624155D01*
X176412461Y-91586069D01*
X176412461Y-91586068D01*
X176408342Y-91581950D01*
X176295304Y-91524354D01*
X176289550Y-91523442D01*
X176289548Y-91523442D01*
X176175752Y-91505419D01*
X176170000Y-91504508D01*
X176164248Y-91505419D01*
X176050451Y-91523442D01*
X176050447Y-91523442D01*
X176044696Y-91524354D01*
X176039504Y-91526999D01*
X176039502Y-91527000D01*
X175936850Y-91579304D01*
X175936847Y-91579305D01*
X175931658Y-91581950D01*
X175927541Y-91586066D01*
X175927538Y-91586069D01*
X175846069Y-91667538D01*
X175846066Y-91667541D01*
X175841950Y-91671658D01*
X175839305Y-91676847D01*
X175839304Y-91676850D01*
X175796583Y-91760695D01*
X175784354Y-91784696D01*
X175783442Y-91790447D01*
X175783442Y-91790451D01*
X175769726Y-91877055D01*
X175764508Y-91910000D01*
X175765419Y-91915752D01*
X175778422Y-91997855D01*
X175784354Y-92035304D01*
X175841950Y-92148342D01*
X175931658Y-92238050D01*
X176044696Y-92295646D01*
X176170000Y-92315492D01*
X176295304Y-92295646D01*
X176408342Y-92238050D01*
X176498050Y-92148342D01*
X176555646Y-92035304D01*
X176575492Y-91910000D01*
X176555646Y-91784696D01*
X176556878Y-91784500D01*
X176557698Y-91742563D01*
X176588457Y-91705077D01*
X176635822Y-91694683D01*
X176679452Y-91715843D01*
X176721658Y-91758050D01*
X176834696Y-91815646D01*
X176960000Y-91835492D01*
X177085304Y-91815646D01*
X177198342Y-91758050D01*
X177288050Y-91668342D01*
X177345646Y-91555304D01*
X177365492Y-91430000D01*
X177345646Y-91304696D01*
X177288050Y-91191658D01*
X177198342Y-91101950D01*
X177085304Y-91044354D01*
X177079550Y-91043442D01*
X177079548Y-91043442D01*
X176965752Y-91025419D01*
X176960000Y-91024508D01*
X176954248Y-91025419D01*
X176840451Y-91043442D01*
X176840447Y-91043442D01*
X176834696Y-91044354D01*
X176730887Y-91097247D01*
X176688593Y-91104799D01*
X176649229Y-91087577D01*
X176626069Y-91051388D01*
X176626780Y-91015483D01*
X176625646Y-91015304D01*
X176644581Y-90895752D01*
X176645492Y-90890000D01*
X176625646Y-90764696D01*
X176568050Y-90651658D01*
X176478342Y-90561950D01*
X176365304Y-90504354D01*
X176359550Y-90503442D01*
X176359548Y-90503442D01*
X176245752Y-90485419D01*
X176240000Y-90484508D01*
X176234248Y-90485419D01*
X176120451Y-90503442D01*
X176120447Y-90503442D01*
X176114696Y-90504354D01*
X176109504Y-90506999D01*
X176109502Y-90507000D01*
X176006850Y-90559304D01*
X176006847Y-90559305D01*
X176001658Y-90561950D01*
X175997541Y-90566066D01*
X175997538Y-90566069D01*
X175916069Y-90647538D01*
X175916066Y-90647541D01*
X175911950Y-90651658D01*
X175909305Y-90656847D01*
X175909304Y-90656850D01*
X175857000Y-90759502D01*
X175854354Y-90764696D01*
X175853442Y-90770447D01*
X175853442Y-90770451D01*
X175836986Y-90874354D01*
X175834508Y-90890000D01*
X175835419Y-90895752D01*
X175848717Y-90979713D01*
X175843542Y-91020677D01*
X175817224Y-91052492D01*
X175777955Y-91065252D01*
X175737962Y-91054986D01*
X175715210Y-91030760D01*
X175714115Y-91031557D01*
X175710695Y-91026850D01*
X175708050Y-91021658D01*
X175618342Y-90931950D01*
X175505304Y-90874354D01*
X175499550Y-90873442D01*
X175499548Y-90873442D01*
X175385752Y-90855419D01*
X175380000Y-90854508D01*
X175374248Y-90855419D01*
X175260451Y-90873442D01*
X175260447Y-90873442D01*
X175254696Y-90874354D01*
X175249504Y-90876999D01*
X175249502Y-90877000D01*
X175146850Y-90929304D01*
X175146847Y-90929305D01*
X175141658Y-90931950D01*
X175137541Y-90936066D01*
X175137538Y-90936069D01*
X175056069Y-91017538D01*
X175056066Y-91017541D01*
X175051950Y-91021658D01*
X175049305Y-91026847D01*
X175049304Y-91026850D01*
X174997091Y-91129324D01*
X174994354Y-91134696D01*
X174993442Y-91140447D01*
X174993442Y-91140451D01*
X174981152Y-91218050D01*
X174974508Y-91260000D01*
X169654726Y-91260000D01*
X169624226Y-90911392D01*
X169561901Y-90557933D01*
X169469007Y-90211251D01*
X169450353Y-90160000D01*
X169894508Y-90160000D01*
X169895419Y-90165752D01*
X169912655Y-90274581D01*
X169914354Y-90285304D01*
X169971950Y-90398342D01*
X170061658Y-90488050D01*
X170174696Y-90545646D01*
X170300000Y-90565492D01*
X170425304Y-90545646D01*
X170538342Y-90488050D01*
X170628050Y-90398342D01*
X170685646Y-90285304D01*
X170705492Y-90160000D01*
X170685646Y-90034696D01*
X170628050Y-89921658D01*
X170538342Y-89831950D01*
X170425304Y-89774354D01*
X170419550Y-89773442D01*
X170419548Y-89773442D01*
X170305752Y-89755419D01*
X170300000Y-89754508D01*
X170294248Y-89755419D01*
X170180451Y-89773442D01*
X170180447Y-89773442D01*
X170174696Y-89774354D01*
X170169504Y-89776999D01*
X170169502Y-89777000D01*
X170066850Y-89829304D01*
X170066847Y-89829305D01*
X170061658Y-89831950D01*
X170057541Y-89836066D01*
X170057538Y-89836069D01*
X169976069Y-89917538D01*
X169976066Y-89917541D01*
X169971950Y-89921658D01*
X169969305Y-89926847D01*
X169969304Y-89926850D01*
X169919449Y-90024696D01*
X169914354Y-90034696D01*
X169913442Y-90040447D01*
X169913442Y-90040451D01*
X169903512Y-90103149D01*
X169894508Y-90160000D01*
X169450353Y-90160000D01*
X169448259Y-90154248D01*
X169350941Y-89886870D01*
X169346251Y-89873984D01*
X169194568Y-89548700D01*
X169015111Y-89237874D01*
X168809247Y-88943871D01*
X168578542Y-88668929D01*
X168470836Y-88561224D01*
X168470835Y-88561222D01*
X167783996Y-87874381D01*
X167783994Y-87874378D01*
X167579616Y-87670000D01*
X168474508Y-87670000D01*
X168475419Y-87675752D01*
X168491384Y-87776557D01*
X168494354Y-87795304D01*
X168551950Y-87908342D01*
X168641658Y-87998050D01*
X168754696Y-88055646D01*
X168776335Y-88059073D01*
X168817087Y-88079836D01*
X169113353Y-88376101D01*
X169118437Y-88382882D01*
X169118708Y-88382656D01*
X169123388Y-88388241D01*
X169126891Y-88394633D01*
X169132571Y-88399197D01*
X169132572Y-88399198D01*
X169149180Y-88412543D01*
X169155154Y-88417901D01*
X169160410Y-88423158D01*
X169167603Y-88427829D01*
X169173627Y-88432187D01*
X169361959Y-88583507D01*
X169782972Y-88877292D01*
X170222880Y-89141949D01*
X170679669Y-89376270D01*
X171151250Y-89579180D01*
X171635468Y-89749754D01*
X171697528Y-89767000D01*
X172128883Y-89886870D01*
X172128886Y-89886870D01*
X172130107Y-89887210D01*
X172632906Y-89990920D01*
X173141564Y-90060410D01*
X173653756Y-90095362D01*
X173862548Y-90095472D01*
X173862572Y-90095475D01*
X173862627Y-90095500D01*
X173862794Y-90095500D01*
X173910447Y-90095500D01*
X173955302Y-90095522D01*
X173955348Y-90095502D01*
X173955377Y-90095500D01*
X181488456Y-90095500D01*
X181516775Y-90101133D01*
X181540782Y-90117174D01*
X181621658Y-90198050D01*
X181734696Y-90255646D01*
X181860000Y-90275492D01*
X181985304Y-90255646D01*
X182098342Y-90198050D01*
X182188050Y-90108342D01*
X182245646Y-89995304D01*
X182265492Y-89870000D01*
X182245646Y-89744696D01*
X182188050Y-89631658D01*
X182098342Y-89541950D01*
X181985304Y-89484354D01*
X181979550Y-89483442D01*
X181979548Y-89483442D01*
X181865752Y-89465419D01*
X181860000Y-89464508D01*
X181854248Y-89465419D01*
X181740451Y-89483442D01*
X181740447Y-89483442D01*
X181734696Y-89484354D01*
X181729504Y-89486999D01*
X181729502Y-89487000D01*
X181626850Y-89539304D01*
X181626847Y-89539305D01*
X181621658Y-89541950D01*
X181617541Y-89546066D01*
X181617538Y-89546069D01*
X181540782Y-89622826D01*
X181516775Y-89638867D01*
X181488456Y-89644500D01*
X179603015Y-89644500D01*
X179563364Y-89632980D01*
X179536058Y-89602008D01*
X179529599Y-89561225D01*
X179545997Y-89523331D01*
X179580148Y-89500122D01*
X179686954Y-89465419D01*
X179966102Y-89374719D01*
X180359231Y-89211879D01*
X180738372Y-89018697D01*
X181101188Y-88796364D01*
X181445440Y-88546250D01*
X181647242Y-88373893D01*
X181675211Y-88358944D01*
X181706870Y-88357077D01*
X181760000Y-88365492D01*
X181885304Y-88345646D01*
X181998342Y-88288050D01*
X182088050Y-88198342D01*
X182145646Y-88085304D01*
X182165492Y-87960000D01*
X182145646Y-87834696D01*
X182088050Y-87721658D01*
X181998342Y-87631950D01*
X181885304Y-87574354D01*
X181879550Y-87573442D01*
X181879548Y-87573442D01*
X181765752Y-87555419D01*
X181760000Y-87554508D01*
X181754248Y-87555419D01*
X181640451Y-87573442D01*
X181640447Y-87573442D01*
X181634696Y-87574354D01*
X181629504Y-87576999D01*
X181629502Y-87577000D01*
X181526850Y-87629304D01*
X181526847Y-87629305D01*
X181521658Y-87631950D01*
X181517541Y-87636066D01*
X181517538Y-87636069D01*
X181436069Y-87717538D01*
X181436066Y-87717541D01*
X181431950Y-87721658D01*
X181429305Y-87726847D01*
X181429304Y-87726850D01*
X181391779Y-87800497D01*
X181374354Y-87834696D01*
X181373442Y-87840447D01*
X181373442Y-87840451D01*
X181362037Y-87912461D01*
X181354508Y-87960000D01*
X181355419Y-87965752D01*
X181355419Y-87965755D01*
X181357712Y-87980235D01*
X181354539Y-88016054D01*
X181334855Y-88046148D01*
X181316449Y-88063163D01*
X181312030Y-88066937D01*
X181010510Y-88304636D01*
X181005809Y-88308052D01*
X180686552Y-88521373D01*
X180681598Y-88524409D01*
X180346590Y-88712022D01*
X180341413Y-88714660D01*
X179992710Y-88875414D01*
X179987342Y-88877637D01*
X179627121Y-89010529D01*
X179621595Y-89012325D01*
X179252036Y-89116552D01*
X179246386Y-89117908D01*
X178869805Y-89192814D01*
X178864066Y-89193723D01*
X178482763Y-89238854D01*
X178476970Y-89239310D01*
X178091796Y-89254443D01*
X178088891Y-89254500D01*
X175748324Y-89254500D01*
X175707212Y-89242029D01*
X175679957Y-89208819D01*
X175675746Y-89166063D01*
X175695998Y-89128174D01*
X175714513Y-89109659D01*
X175765830Y-89058342D01*
X175789081Y-89012708D01*
X175816350Y-88983210D01*
X175855015Y-88972305D01*
X178473470Y-88972305D01*
X178480879Y-88972773D01*
X178487201Y-88974888D01*
X178521494Y-88972486D01*
X178526665Y-88972305D01*
X178536009Y-88972305D01*
X178539889Y-88972305D01*
X178543689Y-88971497D01*
X178545649Y-88971291D01*
X178552902Y-88970270D01*
X178676584Y-88961566D01*
X178962302Y-88911954D01*
X179241484Y-88833512D01*
X179511230Y-88727054D01*
X179768736Y-88593688D01*
X180011327Y-88434798D01*
X180236481Y-88252036D01*
X180307470Y-88181312D01*
X180307553Y-88181244D01*
X180307736Y-88181170D01*
X180339422Y-88149483D01*
X180339457Y-88149457D01*
X180339463Y-88149463D01*
X180346190Y-88142735D01*
X180346212Y-88142757D01*
X180346274Y-88142650D01*
X180370969Y-88118035D01*
X180371020Y-88117908D01*
X180371042Y-88117883D01*
X180461218Y-88027708D01*
X180461218Y-88027707D01*
X180462373Y-88026553D01*
X180685832Y-87760244D01*
X180885230Y-87475473D01*
X181059050Y-87174406D01*
X181205968Y-86859336D01*
X181324867Y-86532659D01*
X181414841Y-86196863D01*
X181464448Y-85915515D01*
X181481687Y-85879576D01*
X181515070Y-85857792D01*
X181554912Y-85856488D01*
X181589649Y-85876040D01*
X181661658Y-85948050D01*
X181774696Y-86005646D01*
X181900000Y-86025492D01*
X182025304Y-86005646D01*
X182138342Y-85948050D01*
X182228050Y-85858342D01*
X182285646Y-85745304D01*
X182305492Y-85620000D01*
X182285646Y-85494696D01*
X182228050Y-85381658D01*
X182138342Y-85291950D01*
X182025304Y-85234354D01*
X182019550Y-85233442D01*
X182019548Y-85233442D01*
X181905752Y-85215419D01*
X181900000Y-85214508D01*
X181894248Y-85215419D01*
X181780451Y-85233442D01*
X181780447Y-85233442D01*
X181774696Y-85234354D01*
X181769504Y-85236999D01*
X181769502Y-85237000D01*
X181666850Y-85289304D01*
X181666847Y-85289305D01*
X181661658Y-85291950D01*
X181657541Y-85296066D01*
X181657538Y-85296069D01*
X181631826Y-85321782D01*
X181593937Y-85342034D01*
X181551181Y-85337823D01*
X181517971Y-85310568D01*
X181505500Y-85269456D01*
X181505500Y-83791544D01*
X181511133Y-83763225D01*
X181527174Y-83739218D01*
X181528854Y-83737538D01*
X181608050Y-83658342D01*
X181665646Y-83545304D01*
X181685492Y-83420000D01*
X181665646Y-83294696D01*
X181608050Y-83181658D01*
X181518342Y-83091950D01*
X181405304Y-83034354D01*
X181399550Y-83033442D01*
X181399548Y-83033442D01*
X181285752Y-83015419D01*
X181280000Y-83014508D01*
X181274248Y-83015419D01*
X181160451Y-83033442D01*
X181160447Y-83033442D01*
X181154696Y-83034354D01*
X181149504Y-83036999D01*
X181149502Y-83037000D01*
X181046850Y-83089304D01*
X181046847Y-83089305D01*
X181041658Y-83091950D01*
X181037541Y-83096066D01*
X181037538Y-83096069D01*
X180956069Y-83177538D01*
X180956066Y-83177541D01*
X180951950Y-83181658D01*
X180949305Y-83186847D01*
X180949304Y-83186850D01*
X180897000Y-83289502D01*
X180894354Y-83294696D01*
X180893442Y-83300447D01*
X180893442Y-83300451D01*
X180879338Y-83389502D01*
X180874508Y-83420000D01*
X180894354Y-83545304D01*
X180951950Y-83658342D01*
X180956069Y-83662461D01*
X181032826Y-83739218D01*
X181048867Y-83763225D01*
X181054500Y-83791544D01*
X181054500Y-85289511D01*
X181054499Y-85289513D01*
X181054499Y-85289518D01*
X181054499Y-85289519D01*
X181054499Y-85332550D01*
X181054410Y-85336180D01*
X181037682Y-85676753D01*
X181036970Y-85683980D01*
X180987208Y-86019470D01*
X180985791Y-86026593D01*
X180959143Y-86132980D01*
X180936827Y-86170037D01*
X180897608Y-86188287D01*
X180854887Y-86181494D01*
X180823263Y-86151978D01*
X180813542Y-86109827D01*
X180815504Y-86081830D01*
X180813388Y-86075505D01*
X180812920Y-86068092D01*
X180812920Y-84155281D01*
X180813021Y-84151408D01*
X180813042Y-84151004D01*
X180815120Y-84111356D01*
X180812330Y-84104090D01*
X180811115Y-84096414D01*
X180813308Y-84096066D01*
X180810836Y-84072531D01*
X180824581Y-83985752D01*
X180825492Y-83980000D01*
X180805646Y-83854696D01*
X180748050Y-83741658D01*
X180658342Y-83651950D01*
X180545304Y-83594354D01*
X180539550Y-83593442D01*
X180539548Y-83593442D01*
X180425752Y-83575419D01*
X180420000Y-83574508D01*
X180414248Y-83575419D01*
X180300451Y-83593442D01*
X180300447Y-83593442D01*
X180294696Y-83594354D01*
X180289504Y-83596999D01*
X180289502Y-83597000D01*
X180186850Y-83649304D01*
X180186847Y-83649305D01*
X180181658Y-83651950D01*
X180177541Y-83656066D01*
X180177538Y-83656069D01*
X180096069Y-83737538D01*
X180096066Y-83737541D01*
X180091950Y-83741658D01*
X180089305Y-83746847D01*
X180089304Y-83746850D01*
X180037740Y-83848050D01*
X180034354Y-83854696D01*
X180033442Y-83860447D01*
X180033442Y-83860451D01*
X180026284Y-83905646D01*
X180014508Y-83980000D01*
X180034354Y-84105304D01*
X180091950Y-84218342D01*
X180181658Y-84308050D01*
X180294696Y-84365646D01*
X180300452Y-84366557D01*
X180305989Y-84368357D01*
X180305777Y-84369007D01*
X180331414Y-84379626D01*
X180353854Y-84405899D01*
X180361920Y-84439495D01*
X180361920Y-86094489D01*
X180361301Y-86104041D01*
X180327913Y-86360542D01*
X180326260Y-86369185D01*
X180261521Y-86624406D01*
X180258855Y-86632791D01*
X180164271Y-86878549D01*
X180160627Y-86886559D01*
X180037551Y-87119329D01*
X180032983Y-87126849D01*
X179883142Y-87343374D01*
X179877714Y-87350299D01*
X179703633Y-87547053D01*
X179697003Y-87553654D01*
X179518191Y-87710468D01*
X179510511Y-87716361D01*
X179312877Y-87848414D01*
X179304494Y-87853254D01*
X179091310Y-87958385D01*
X179082367Y-87962089D01*
X178857286Y-88038493D01*
X178847936Y-88040998D01*
X178614816Y-88087367D01*
X178605220Y-88088631D01*
X178377784Y-88103537D01*
X178365507Y-88104342D01*
X178360669Y-88104500D01*
X178077932Y-88104500D01*
X175760163Y-88104500D01*
X175754987Y-88104319D01*
X175751392Y-88104067D01*
X175710738Y-88101216D01*
X175702447Y-88100161D01*
X175672780Y-88094670D01*
X175633922Y-88074232D01*
X175485792Y-87926102D01*
X175483125Y-87923292D01*
X175461495Y-87899269D01*
X175461493Y-87899268D01*
X175456292Y-87893491D01*
X175449187Y-87890327D01*
X175442896Y-87885757D01*
X175444105Y-87884091D01*
X175416157Y-87857568D01*
X175410695Y-87846848D01*
X175410693Y-87846845D01*
X175408050Y-87841658D01*
X175318342Y-87751950D01*
X175205304Y-87694354D01*
X175199550Y-87693442D01*
X175199548Y-87693442D01*
X175085752Y-87675419D01*
X175080000Y-87674508D01*
X175074248Y-87675419D01*
X174960451Y-87693442D01*
X174960447Y-87693442D01*
X174954696Y-87694354D01*
X174949504Y-87696999D01*
X174949502Y-87697000D01*
X174846850Y-87749304D01*
X174846847Y-87749305D01*
X174841658Y-87751950D01*
X174837541Y-87756066D01*
X174837538Y-87756069D01*
X174756069Y-87837538D01*
X174756066Y-87837541D01*
X174751950Y-87841658D01*
X174749305Y-87846847D01*
X174749304Y-87846850D01*
X174708923Y-87926102D01*
X174694354Y-87954696D01*
X174693442Y-87960447D01*
X174693442Y-87960451D01*
X174675676Y-88072624D01*
X174674508Y-88080000D01*
X174675419Y-88085752D01*
X174690554Y-88181316D01*
X174694354Y-88205304D01*
X174751950Y-88318342D01*
X174841658Y-88408050D01*
X174954696Y-88465646D01*
X175052252Y-88481097D01*
X175093002Y-88501860D01*
X175113765Y-88542610D01*
X175106610Y-88587781D01*
X175055101Y-88688873D01*
X175052134Y-88694696D01*
X175051222Y-88700447D01*
X175051222Y-88700451D01*
X175035911Y-88797127D01*
X175032288Y-88820000D01*
X175033199Y-88825752D01*
X175049971Y-88931652D01*
X175052134Y-88945304D01*
X175109730Y-89058342D01*
X175113849Y-89062460D01*
X175113849Y-89062461D01*
X175179562Y-89128174D01*
X175199814Y-89166063D01*
X175195603Y-89208819D01*
X175168348Y-89242029D01*
X175127236Y-89254500D01*
X174151710Y-89254500D01*
X174148622Y-89254436D01*
X174126745Y-89253522D01*
X173764219Y-89238378D01*
X173758165Y-89237875D01*
X173377887Y-89190528D01*
X173371894Y-89189531D01*
X172996763Y-89111145D01*
X172990872Y-89109659D01*
X172623445Y-89000766D01*
X172617696Y-88998802D01*
X172260441Y-88860136D01*
X172254872Y-88857707D01*
X171910190Y-88690200D01*
X171904839Y-88687322D01*
X171575060Y-88492105D01*
X171569964Y-88488798D01*
X171335759Y-88322792D01*
X171257323Y-88267195D01*
X171252520Y-88263486D01*
X170961329Y-88018847D01*
X170956604Y-88014515D01*
X170707881Y-87765792D01*
X170689828Y-87736332D01*
X170687118Y-87701892D01*
X170692624Y-87667132D01*
X170672778Y-87541828D01*
X170615182Y-87428790D01*
X170525474Y-87339082D01*
X170412436Y-87281486D01*
X170406682Y-87280574D01*
X170406680Y-87280574D01*
X170292884Y-87262551D01*
X170287132Y-87261640D01*
X170281380Y-87262551D01*
X170167583Y-87280574D01*
X170167579Y-87280574D01*
X170161828Y-87281486D01*
X170156636Y-87284131D01*
X170156634Y-87284132D01*
X170053982Y-87336436D01*
X170053979Y-87336437D01*
X170048790Y-87339082D01*
X170044673Y-87343198D01*
X170044670Y-87343201D01*
X169963201Y-87424670D01*
X169963198Y-87424673D01*
X169959082Y-87428790D01*
X169956437Y-87433979D01*
X169956436Y-87433982D01*
X169904132Y-87536634D01*
X169901486Y-87541828D01*
X169900574Y-87547579D01*
X169900574Y-87547583D01*
X169896334Y-87574354D01*
X169881640Y-87667132D01*
X169882551Y-87672882D01*
X169882551Y-87672884D01*
X169898826Y-87775646D01*
X169901486Y-87792436D01*
X169959082Y-87905474D01*
X170048790Y-87995182D01*
X170161828Y-88052778D01*
X170287132Y-88072624D01*
X170327387Y-88066248D01*
X170361829Y-88068959D01*
X170391288Y-88087011D01*
X170615192Y-88310914D01*
X170617700Y-88313832D01*
X170619599Y-88317882D01*
X170624979Y-88322792D01*
X170647678Y-88343509D01*
X170650118Y-88345840D01*
X170662055Y-88357777D01*
X170665305Y-88359888D01*
X170666445Y-88360811D01*
X170669740Y-88363644D01*
X170810341Y-88491906D01*
X170981875Y-88624396D01*
X171115678Y-88727744D01*
X171148029Y-88752731D01*
X171505974Y-88984976D01*
X171881765Y-89187076D01*
X171883165Y-89187686D01*
X171883174Y-89187691D01*
X171913416Y-89200882D01*
X171946822Y-89229876D01*
X171957721Y-89272746D01*
X171942218Y-89314174D01*
X171905852Y-89339358D01*
X171861618Y-89339298D01*
X171545586Y-89239848D01*
X171540866Y-89238185D01*
X171233060Y-89117908D01*
X171096037Y-89064365D01*
X171091444Y-89062389D01*
X170998673Y-89018697D01*
X170659374Y-88858898D01*
X170654926Y-88856616D01*
X170613406Y-88833512D01*
X170363944Y-88694696D01*
X170237610Y-88624396D01*
X170233321Y-88621816D01*
X169907847Y-88410695D01*
X169832641Y-88361912D01*
X169828540Y-88359050D01*
X169809321Y-88344649D01*
X169614071Y-88198342D01*
X169456064Y-88079943D01*
X169448113Y-88073050D01*
X169271502Y-87896439D01*
X169250739Y-87855688D01*
X169257895Y-87810516D01*
X169258680Y-87808973D01*
X169265646Y-87795304D01*
X169285492Y-87670000D01*
X169265646Y-87544696D01*
X169208050Y-87431658D01*
X169118342Y-87341950D01*
X169005304Y-87284354D01*
X168999550Y-87283442D01*
X168999548Y-87283442D01*
X168885752Y-87265419D01*
X168880000Y-87264508D01*
X168874248Y-87265419D01*
X168760451Y-87283442D01*
X168760447Y-87283442D01*
X168754696Y-87284354D01*
X168749504Y-87286999D01*
X168749502Y-87287000D01*
X168646850Y-87339304D01*
X168646847Y-87339305D01*
X168641658Y-87341950D01*
X168637541Y-87346066D01*
X168637538Y-87346069D01*
X168556069Y-87427538D01*
X168556066Y-87427541D01*
X168551950Y-87431658D01*
X168549305Y-87436847D01*
X168549304Y-87436850D01*
X168497000Y-87539502D01*
X168494354Y-87544696D01*
X168493442Y-87550447D01*
X168493442Y-87550451D01*
X168480336Y-87633200D01*
X168474508Y-87670000D01*
X167579616Y-87670000D01*
X167238206Y-87328589D01*
X167234261Y-87324322D01*
X167197676Y-87281486D01*
X167117921Y-87188103D01*
X167111098Y-87178710D01*
X167097702Y-87156850D01*
X167019029Y-87028464D01*
X167013760Y-87018121D01*
X167011327Y-87012247D01*
X166946328Y-86855321D01*
X166942745Y-86844296D01*
X166926533Y-86776768D01*
X166925912Y-86745059D01*
X166937250Y-86719141D01*
X166938050Y-86718342D01*
X166995646Y-86605304D01*
X167015492Y-86480000D01*
X166995646Y-86354696D01*
X166938050Y-86241658D01*
X166848342Y-86151950D01*
X166735304Y-86094354D01*
X166729550Y-86093442D01*
X166729548Y-86093442D01*
X166615752Y-86075419D01*
X166610000Y-86074508D01*
X166604248Y-86075419D01*
X166490451Y-86093442D01*
X166490447Y-86093442D01*
X166484696Y-86094354D01*
X166479504Y-86096999D01*
X166479502Y-86097000D01*
X166376850Y-86149304D01*
X166376847Y-86149305D01*
X166371658Y-86151950D01*
X166367541Y-86156066D01*
X166367538Y-86156069D01*
X166286069Y-86237538D01*
X166286066Y-86237541D01*
X166281950Y-86241658D01*
X166279305Y-86246847D01*
X166279304Y-86246850D01*
X166255743Y-86293091D01*
X166224354Y-86354696D01*
X166223442Y-86360447D01*
X166223442Y-86360451D01*
X166222059Y-86369185D01*
X166204508Y-86480000D01*
X166010500Y-86480000D01*
X166010500Y-85260000D01*
X169204508Y-85260000D01*
X169205419Y-85265752D01*
X169218812Y-85350316D01*
X169224354Y-85385304D01*
X169281950Y-85498342D01*
X169371658Y-85588050D01*
X169484696Y-85645646D01*
X169610000Y-85665492D01*
X169735304Y-85645646D01*
X169848342Y-85588050D01*
X169938050Y-85498342D01*
X169995646Y-85385304D01*
X170010741Y-85290000D01*
X170324508Y-85290000D01*
X170325419Y-85295752D01*
X170339602Y-85385304D01*
X170344354Y-85415304D01*
X170401950Y-85528342D01*
X170491658Y-85618050D01*
X170604696Y-85675646D01*
X170730000Y-85695492D01*
X170855304Y-85675646D01*
X170968342Y-85618050D01*
X170999218Y-85587174D01*
X171023225Y-85571133D01*
X171051544Y-85565500D01*
X171602079Y-85565500D01*
X171649203Y-85565500D01*
X171652107Y-85565557D01*
X171668355Y-85566195D01*
X172035179Y-85580604D01*
X172040926Y-85581057D01*
X172420195Y-85625943D01*
X172425919Y-85626849D01*
X172800486Y-85701353D01*
X172806102Y-85702701D01*
X173173685Y-85806367D01*
X173179198Y-85808159D01*
X173537493Y-85940338D01*
X173542820Y-85942544D01*
X173889667Y-86102441D01*
X173894831Y-86105072D01*
X174228039Y-86291675D01*
X174232981Y-86294703D01*
X174331517Y-86360542D01*
X174550508Y-86506866D01*
X174555209Y-86510281D01*
X174699977Y-86624406D01*
X174842803Y-86737000D01*
X174855122Y-86746711D01*
X174859537Y-86750482D01*
X175140536Y-87010233D01*
X175142631Y-87012247D01*
X175484518Y-87354134D01*
X175505281Y-87394884D01*
X175523442Y-87509548D01*
X175524354Y-87515304D01*
X175581950Y-87628342D01*
X175671658Y-87718050D01*
X175784696Y-87775646D01*
X175910000Y-87795492D01*
X176035304Y-87775646D01*
X176148342Y-87718050D01*
X176238050Y-87628342D01*
X176295646Y-87515304D01*
X176315492Y-87390000D01*
X176295646Y-87264696D01*
X176238050Y-87151658D01*
X176206392Y-87120000D01*
X178844508Y-87120000D01*
X178845419Y-87125752D01*
X178855294Y-87188105D01*
X178864354Y-87245304D01*
X178921950Y-87358342D01*
X179011658Y-87448050D01*
X179124696Y-87505646D01*
X179250000Y-87525492D01*
X179375304Y-87505646D01*
X179488342Y-87448050D01*
X179578050Y-87358342D01*
X179635646Y-87245304D01*
X179655492Y-87120000D01*
X179635646Y-86994696D01*
X179578050Y-86881658D01*
X179488342Y-86791950D01*
X179375304Y-86734354D01*
X179369550Y-86733442D01*
X179369548Y-86733442D01*
X179255752Y-86715419D01*
X179250000Y-86714508D01*
X179244248Y-86715419D01*
X179130451Y-86733442D01*
X179130447Y-86733442D01*
X179124696Y-86734354D01*
X179119504Y-86736999D01*
X179119502Y-86737000D01*
X179016850Y-86789304D01*
X179016847Y-86789305D01*
X179011658Y-86791950D01*
X179007541Y-86796066D01*
X179007538Y-86796069D01*
X178926069Y-86877538D01*
X178926066Y-86877541D01*
X178921950Y-86881658D01*
X178919305Y-86886847D01*
X178919304Y-86886850D01*
X178869545Y-86984508D01*
X178864354Y-86994696D01*
X178863442Y-87000447D01*
X178863442Y-87000451D01*
X178856682Y-87043133D01*
X178844508Y-87120000D01*
X176206392Y-87120000D01*
X176148342Y-87061950D01*
X176035304Y-87004354D01*
X176029550Y-87003442D01*
X176029548Y-87003442D01*
X175914884Y-86985281D01*
X175874134Y-86964518D01*
X175531762Y-86622146D01*
X175531703Y-86622069D01*
X175531713Y-86622060D01*
X175379225Y-86469574D01*
X175378125Y-86468635D01*
X175378118Y-86468628D01*
X175052382Y-86190425D01*
X175052373Y-86190418D01*
X175051262Y-86189469D01*
X174827081Y-86026593D01*
X174703513Y-85936816D01*
X174703502Y-85936809D01*
X174702334Y-85935960D01*
X174493782Y-85808161D01*
X174335829Y-85711368D01*
X174335824Y-85711365D01*
X174334590Y-85710609D01*
X174333291Y-85709947D01*
X173951586Y-85515461D01*
X173951581Y-85515458D01*
X173950300Y-85514806D01*
X173948958Y-85514250D01*
X173553179Y-85350316D01*
X173553171Y-85350313D01*
X173551831Y-85349758D01*
X173528058Y-85342034D01*
X173143026Y-85216932D01*
X173143025Y-85216931D01*
X173141641Y-85216482D01*
X173140236Y-85216144D01*
X173140223Y-85216141D01*
X172723677Y-85116140D01*
X172723666Y-85116137D01*
X172722259Y-85115800D01*
X172720837Y-85115574D01*
X172720823Y-85115572D01*
X172297701Y-85048560D01*
X172297689Y-85048558D01*
X172296271Y-85048334D01*
X172294833Y-85048220D01*
X172294826Y-85048220D01*
X171867749Y-85014611D01*
X171867727Y-85014610D01*
X171866302Y-85014498D01*
X171864848Y-85014498D01*
X171650653Y-85014500D01*
X171051544Y-85014500D01*
X171023225Y-85008867D01*
X170999218Y-84992826D01*
X170972461Y-84966069D01*
X170968342Y-84961950D01*
X170866385Y-84910000D01*
X174724508Y-84910000D01*
X174725419Y-84915752D01*
X174742192Y-85021658D01*
X174744354Y-85035304D01*
X174801950Y-85148342D01*
X174891658Y-85238050D01*
X175004696Y-85295646D01*
X175130000Y-85315492D01*
X175255304Y-85295646D01*
X175368342Y-85238050D01*
X175458050Y-85148342D01*
X175515646Y-85035304D01*
X175535492Y-84910000D01*
X175515646Y-84784696D01*
X175458050Y-84671658D01*
X175368342Y-84581950D01*
X175255304Y-84524354D01*
X175249550Y-84523442D01*
X175249548Y-84523442D01*
X175135752Y-84505419D01*
X175130000Y-84504508D01*
X175124248Y-84505419D01*
X175010451Y-84523442D01*
X175010447Y-84523442D01*
X175004696Y-84524354D01*
X174999504Y-84526999D01*
X174999502Y-84527000D01*
X174896850Y-84579304D01*
X174896847Y-84579305D01*
X174891658Y-84581950D01*
X174887541Y-84586066D01*
X174887538Y-84586069D01*
X174806069Y-84667538D01*
X174806066Y-84667541D01*
X174801950Y-84671658D01*
X174799305Y-84676847D01*
X174799304Y-84676850D01*
X174747000Y-84779502D01*
X174744354Y-84784696D01*
X174743442Y-84790447D01*
X174743442Y-84790451D01*
X174728545Y-84884508D01*
X174724508Y-84910000D01*
X170866385Y-84910000D01*
X170855304Y-84904354D01*
X170849550Y-84903442D01*
X170849548Y-84903442D01*
X170735752Y-84885419D01*
X170730000Y-84884508D01*
X170724248Y-84885419D01*
X170610451Y-84903442D01*
X170610447Y-84903442D01*
X170604696Y-84904354D01*
X170599504Y-84906999D01*
X170599502Y-84907000D01*
X170496850Y-84959304D01*
X170496847Y-84959305D01*
X170491658Y-84961950D01*
X170487541Y-84966066D01*
X170487538Y-84966069D01*
X170406069Y-85047538D01*
X170406066Y-85047541D01*
X170401950Y-85051658D01*
X170399305Y-85056847D01*
X170399304Y-85056850D01*
X170350588Y-85152461D01*
X170344354Y-85164696D01*
X170343442Y-85170447D01*
X170343442Y-85170451D01*
X170329259Y-85260000D01*
X170324508Y-85290000D01*
X170010741Y-85290000D01*
X170015492Y-85260000D01*
X169995646Y-85134696D01*
X169938050Y-85021658D01*
X169848342Y-84931950D01*
X169735304Y-84874354D01*
X169729550Y-84873442D01*
X169729548Y-84873442D01*
X169615752Y-84855419D01*
X169610000Y-84854508D01*
X169604248Y-84855419D01*
X169490451Y-84873442D01*
X169490447Y-84873442D01*
X169484696Y-84874354D01*
X169479504Y-84876999D01*
X169479502Y-84877000D01*
X169376850Y-84929304D01*
X169376847Y-84929305D01*
X169371658Y-84931950D01*
X169367541Y-84936066D01*
X169367538Y-84936069D01*
X169286069Y-85017538D01*
X169286066Y-85017541D01*
X169281950Y-85021658D01*
X169279305Y-85026847D01*
X169279304Y-85026850D01*
X169227000Y-85129502D01*
X169224354Y-85134696D01*
X169223442Y-85140447D01*
X169223442Y-85140451D01*
X169207566Y-85240695D01*
X169204508Y-85260000D01*
X166010500Y-85260000D01*
X166010500Y-83520000D01*
X167151696Y-83520000D01*
X167171542Y-83645304D01*
X167174188Y-83650497D01*
X167223282Y-83746850D01*
X167229138Y-83758342D01*
X167318846Y-83848050D01*
X167431884Y-83905646D01*
X167557188Y-83925492D01*
X167682492Y-83905646D01*
X167795530Y-83848050D01*
X167885238Y-83758342D01*
X167942834Y-83645304D01*
X167962680Y-83520000D01*
X167942834Y-83394696D01*
X167885238Y-83281658D01*
X167795530Y-83191950D01*
X167682492Y-83134354D01*
X167676738Y-83133442D01*
X167676736Y-83133442D01*
X167562940Y-83115419D01*
X167557188Y-83114508D01*
X167551436Y-83115419D01*
X167437639Y-83133442D01*
X167437635Y-83133442D01*
X167431884Y-83134354D01*
X167426692Y-83136999D01*
X167426690Y-83137000D01*
X167324038Y-83189304D01*
X167324035Y-83189305D01*
X167318846Y-83191950D01*
X167314729Y-83196066D01*
X167314726Y-83196069D01*
X167233257Y-83277538D01*
X167233254Y-83277541D01*
X167229138Y-83281658D01*
X167226493Y-83286847D01*
X167226492Y-83286850D01*
X167174188Y-83389502D01*
X167171542Y-83394696D01*
X167170630Y-83400447D01*
X167170630Y-83400451D01*
X167168445Y-83414248D01*
X167151696Y-83520000D01*
X166010500Y-83520000D01*
X166010500Y-83353227D01*
X166010782Y-83346778D01*
X166014835Y-83300451D01*
X166024968Y-83184623D01*
X166027205Y-83171934D01*
X166068500Y-83017818D01*
X166072910Y-83005703D01*
X166140337Y-82861105D01*
X166146775Y-82849954D01*
X166238289Y-82719259D01*
X166246570Y-82709390D01*
X166359390Y-82596570D01*
X166369259Y-82588289D01*
X166499954Y-82496775D01*
X166511105Y-82490337D01*
X166655705Y-82422908D01*
X166667818Y-82418500D01*
X166821934Y-82377205D01*
X166834623Y-82374968D01*
X166964305Y-82363622D01*
X166996778Y-82360782D01*
X167003227Y-82360500D01*
X167003412Y-82360500D01*
X181766588Y-82360500D01*
X181766773Y-82360500D01*
X181773222Y-82360782D01*
G37*
G04 #@! TD.AperFunction*
M02*
