G04 #@! TF.GenerationSoftware,KiCad,Pcbnew,(7.0.0-0)*
G04 #@! TF.CreationDate,2023-11-27T20:18:25+08:00*
G04 #@! TF.ProjectId,Revolute,5265766f-6c75-4746-952e-6b696361645f,rev?*
G04 #@! TF.SameCoordinates,Original*
G04 #@! TF.FileFunction,Copper,L3,Inr*
G04 #@! TF.FilePolarity,Positive*
%FSLAX46Y46*%
G04 Gerber Fmt 4.6, Leading zero omitted, Abs format (unit mm)*
G04 Created by KiCad (PCBNEW (7.0.0-0)) date 2023-11-27 20:18:25*
%MOMM*%
%LPD*%
G01*
G04 APERTURE LIST*
G04 #@! TA.AperFunction,ViaPad*
%ADD10C,0.500000*%
G04 #@! TD*
G04 #@! TA.AperFunction,Conductor*
%ADD11C,0.250000*%
G04 #@! TD*
G04 APERTURE END LIST*
D10*
X171700000Y-87700000D03*
X172700000Y-87700000D03*
X166480000Y-92050000D03*
X176270000Y-83220000D03*
X178470000Y-85070000D03*
X166490000Y-85320000D03*
X166490000Y-91020000D03*
X179392780Y-84952132D03*
X173700000Y-87700000D03*
X166490000Y-84300000D03*
X166480000Y-90030000D03*
X166480000Y-89010000D03*
X168180000Y-90150000D03*
X181900000Y-85620000D03*
X175130000Y-84910000D03*
X176170000Y-91910000D03*
X169610000Y-85260000D03*
X175910000Y-87390000D03*
X170730000Y-85290000D03*
X167557188Y-83520000D03*
X179250000Y-87120000D03*
X168320000Y-92480000D03*
X166610000Y-86480000D03*
X170220000Y-92480000D03*
X170300000Y-90160000D03*
X176240000Y-90890000D03*
X175380000Y-91260000D03*
X176960000Y-91430000D03*
X168880000Y-87670000D03*
X181860000Y-89870000D03*
X181760000Y-87960000D03*
X170287132Y-87667132D03*
X175080000Y-88080000D03*
X180420000Y-83980000D03*
X181280000Y-83420000D03*
X175437780Y-88820000D03*
D11*
X168550000Y-84950000D02*
X168151751Y-84551752D01*
X167599153Y-83668092D02*
X167599153Y-83561965D01*
X168738040Y-85138040D02*
X168550000Y-84950000D01*
X167599153Y-83561965D02*
X167557188Y-83520000D01*
X168320000Y-92480000D02*
X169530000Y-91270000D01*
X177753188Y-86500000D02*
X169939128Y-86500000D01*
X169530000Y-91270000D02*
X169530000Y-87050000D01*
X169939128Y-86500033D02*
G75*
G03*
X169504571Y-86680001I-28J-614567D01*
G01*
X179250004Y-87119996D02*
G75*
G03*
X177753188Y-86500000I-1496804J-1496804D01*
G01*
X167599154Y-83668092D02*
G75*
G03*
X168151751Y-84551752I2216046J771192D01*
G01*
X169530005Y-87050000D02*
G75*
G03*
X168738040Y-85138040I-2703905J0D01*
G01*
G04 #@! TA.AperFunction,Conductor*
G36*
X181773222Y-82360782D02*
G01*
X181812078Y-82364181D01*
X181935374Y-82374968D01*
X181948067Y-82377205D01*
X182102177Y-82418498D01*
X182114297Y-82422910D01*
X182258889Y-82490335D01*
X182270050Y-82496779D01*
X182400734Y-82588285D01*
X182410615Y-82596576D01*
X182523423Y-82709384D01*
X182531714Y-82719265D01*
X182612300Y-82834354D01*
X182623217Y-82849944D01*
X182629667Y-82861115D01*
X182697089Y-83005703D01*
X182701501Y-83017824D01*
X182742792Y-83171924D01*
X182745031Y-83184627D01*
X182759218Y-83346777D01*
X182759500Y-83353227D01*
X182759500Y-92046773D01*
X182759218Y-92053223D01*
X182745031Y-92215372D01*
X182742792Y-92228075D01*
X182701501Y-92382175D01*
X182697089Y-92394296D01*
X182629667Y-92538884D01*
X182623217Y-92550055D01*
X182531714Y-92680734D01*
X182523423Y-92690615D01*
X182410615Y-92803423D01*
X182400734Y-92811714D01*
X182270055Y-92903217D01*
X182258884Y-92909667D01*
X182114296Y-92977089D01*
X182102175Y-92981501D01*
X181948075Y-93022792D01*
X181935372Y-93025031D01*
X181773223Y-93039218D01*
X181766773Y-93039500D01*
X167003227Y-93039500D01*
X166996777Y-93039218D01*
X166834627Y-93025031D01*
X166821924Y-93022792D01*
X166667824Y-92981501D01*
X166655703Y-92977089D01*
X166511115Y-92909667D01*
X166499944Y-92903217D01*
X166474630Y-92885492D01*
X166369265Y-92811714D01*
X166359384Y-92803423D01*
X166246576Y-92690615D01*
X166238285Y-92680734D01*
X166204030Y-92631813D01*
X166146779Y-92550050D01*
X166140335Y-92538889D01*
X166088635Y-92428020D01*
X166084225Y-92377594D01*
X166113258Y-92336130D01*
X166162153Y-92323029D01*
X166208029Y-92344421D01*
X166241658Y-92378050D01*
X166354696Y-92435646D01*
X166480000Y-92455492D01*
X166605304Y-92435646D01*
X166718342Y-92378050D01*
X166808050Y-92288342D01*
X166865646Y-92175304D01*
X166885492Y-92050000D01*
X166865646Y-91924696D01*
X166808050Y-91811658D01*
X166718342Y-91721950D01*
X166605304Y-91664354D01*
X166599550Y-91663442D01*
X166599548Y-91663442D01*
X166485752Y-91645419D01*
X166480000Y-91644508D01*
X166474248Y-91645419D01*
X166360451Y-91663442D01*
X166360447Y-91663442D01*
X166354696Y-91664354D01*
X166349504Y-91666999D01*
X166349502Y-91667000D01*
X166246850Y-91719304D01*
X166246847Y-91719305D01*
X166241658Y-91721950D01*
X166237541Y-91726066D01*
X166237538Y-91726069D01*
X166156069Y-91807538D01*
X166156066Y-91807541D01*
X166151950Y-91811658D01*
X166149304Y-91816849D01*
X166145885Y-91821557D01*
X166144375Y-91820460D01*
X166115479Y-91848242D01*
X166067223Y-91852993D01*
X166026386Y-91826850D01*
X166010500Y-91781038D01*
X166010500Y-91269336D01*
X166026386Y-91223523D01*
X166067225Y-91197381D01*
X166115480Y-91202133D01*
X166150433Y-91235739D01*
X166161950Y-91258342D01*
X166251658Y-91348050D01*
X166364696Y-91405646D01*
X166490000Y-91425492D01*
X166615304Y-91405646D01*
X166728342Y-91348050D01*
X166818050Y-91258342D01*
X166875646Y-91145304D01*
X166895492Y-91020000D01*
X166875646Y-90894696D01*
X166818050Y-90781658D01*
X166728342Y-90691950D01*
X166615304Y-90634354D01*
X166609550Y-90633442D01*
X166609548Y-90633442D01*
X166495752Y-90615419D01*
X166490000Y-90614508D01*
X166484248Y-90615419D01*
X166370451Y-90633442D01*
X166370447Y-90633442D01*
X166364696Y-90634354D01*
X166359504Y-90636999D01*
X166359502Y-90637000D01*
X166256850Y-90689304D01*
X166256847Y-90689305D01*
X166251658Y-90691950D01*
X166247541Y-90696066D01*
X166247538Y-90696069D01*
X166166069Y-90777538D01*
X166166066Y-90777541D01*
X166161950Y-90781658D01*
X166159306Y-90786845D01*
X166159305Y-90786848D01*
X166150434Y-90804260D01*
X166115480Y-90837867D01*
X166067225Y-90842619D01*
X166026386Y-90816477D01*
X166010500Y-90770664D01*
X166010500Y-90298962D01*
X166026386Y-90253150D01*
X166067223Y-90227007D01*
X166115479Y-90231758D01*
X166144375Y-90259539D01*
X166145885Y-90258443D01*
X166149304Y-90263149D01*
X166151950Y-90268342D01*
X166241658Y-90358050D01*
X166354696Y-90415646D01*
X166480000Y-90435492D01*
X166605304Y-90415646D01*
X166718342Y-90358050D01*
X166808050Y-90268342D01*
X166865646Y-90155304D01*
X166885492Y-90030000D01*
X166865646Y-89904696D01*
X166808050Y-89791658D01*
X166718342Y-89701950D01*
X166605304Y-89644354D01*
X166599550Y-89643442D01*
X166599548Y-89643442D01*
X166485752Y-89625419D01*
X166480000Y-89624508D01*
X166474248Y-89625419D01*
X166360451Y-89643442D01*
X166360447Y-89643442D01*
X166354696Y-89644354D01*
X166349504Y-89646999D01*
X166349502Y-89647000D01*
X166246850Y-89699304D01*
X166246847Y-89699305D01*
X166241658Y-89701950D01*
X166237541Y-89706066D01*
X166237538Y-89706069D01*
X166156069Y-89787538D01*
X166156066Y-89787541D01*
X166151950Y-89791658D01*
X166149304Y-89796849D01*
X166145885Y-89801557D01*
X166144375Y-89800460D01*
X166115479Y-89828242D01*
X166067223Y-89832993D01*
X166026386Y-89806850D01*
X166010500Y-89761038D01*
X166010500Y-89278962D01*
X166026386Y-89233150D01*
X166067223Y-89207007D01*
X166115479Y-89211758D01*
X166144375Y-89239539D01*
X166145885Y-89238443D01*
X166149304Y-89243149D01*
X166151950Y-89248342D01*
X166241658Y-89338050D01*
X166354696Y-89395646D01*
X166480000Y-89415492D01*
X166605304Y-89395646D01*
X166718342Y-89338050D01*
X166808050Y-89248342D01*
X166865646Y-89135304D01*
X166885492Y-89010000D01*
X166865646Y-88884696D01*
X166808050Y-88771658D01*
X166718342Y-88681950D01*
X166605304Y-88624354D01*
X166599550Y-88623442D01*
X166599548Y-88623442D01*
X166485752Y-88605419D01*
X166480000Y-88604508D01*
X166474248Y-88605419D01*
X166360451Y-88623442D01*
X166360447Y-88623442D01*
X166354696Y-88624354D01*
X166349504Y-88626999D01*
X166349502Y-88627000D01*
X166246850Y-88679304D01*
X166246847Y-88679305D01*
X166241658Y-88681950D01*
X166237541Y-88686066D01*
X166237538Y-88686069D01*
X166156069Y-88767538D01*
X166156066Y-88767541D01*
X166151950Y-88771658D01*
X166149304Y-88776849D01*
X166145885Y-88781557D01*
X166144375Y-88780460D01*
X166115479Y-88808242D01*
X166067223Y-88812993D01*
X166026386Y-88786850D01*
X166010500Y-88741038D01*
X166010500Y-86480000D01*
X166204508Y-86480000D01*
X166224354Y-86605304D01*
X166281950Y-86718342D01*
X166371658Y-86808050D01*
X166484696Y-86865646D01*
X166610000Y-86885492D01*
X166735304Y-86865646D01*
X166848342Y-86808050D01*
X166938050Y-86718342D01*
X166995646Y-86605304D01*
X167015492Y-86480000D01*
X166995646Y-86354696D01*
X166938050Y-86241658D01*
X166848342Y-86151950D01*
X166735304Y-86094354D01*
X166729550Y-86093442D01*
X166729548Y-86093442D01*
X166615752Y-86075419D01*
X166610000Y-86074508D01*
X166604248Y-86075419D01*
X166490451Y-86093442D01*
X166490447Y-86093442D01*
X166484696Y-86094354D01*
X166479504Y-86096999D01*
X166479502Y-86097000D01*
X166376850Y-86149304D01*
X166376847Y-86149305D01*
X166371658Y-86151950D01*
X166367541Y-86156066D01*
X166367538Y-86156069D01*
X166286069Y-86237538D01*
X166286066Y-86237541D01*
X166281950Y-86241658D01*
X166279305Y-86246847D01*
X166279304Y-86246850D01*
X166227000Y-86349502D01*
X166224354Y-86354696D01*
X166223442Y-86360447D01*
X166223442Y-86360451D01*
X166216541Y-86404023D01*
X166204508Y-86480000D01*
X166010500Y-86480000D01*
X166010500Y-85569336D01*
X166026386Y-85523523D01*
X166067225Y-85497381D01*
X166115480Y-85502133D01*
X166150433Y-85535739D01*
X166161950Y-85558342D01*
X166251658Y-85648050D01*
X166364696Y-85705646D01*
X166490000Y-85725492D01*
X166615304Y-85705646D01*
X166728342Y-85648050D01*
X166818050Y-85558342D01*
X166875646Y-85445304D01*
X166895492Y-85320000D01*
X166875646Y-85194696D01*
X166818050Y-85081658D01*
X166728342Y-84991950D01*
X166615304Y-84934354D01*
X166609550Y-84933442D01*
X166609548Y-84933442D01*
X166495752Y-84915419D01*
X166490000Y-84914508D01*
X166484248Y-84915419D01*
X166370451Y-84933442D01*
X166370447Y-84933442D01*
X166364696Y-84934354D01*
X166359504Y-84936999D01*
X166359502Y-84937000D01*
X166256850Y-84989304D01*
X166256847Y-84989305D01*
X166251658Y-84991950D01*
X166247541Y-84996066D01*
X166247538Y-84996069D01*
X166166069Y-85077538D01*
X166166066Y-85077541D01*
X166161950Y-85081658D01*
X166159306Y-85086845D01*
X166159305Y-85086848D01*
X166150434Y-85104260D01*
X166115480Y-85137867D01*
X166067225Y-85142619D01*
X166026386Y-85116477D01*
X166010500Y-85070664D01*
X166010500Y-84549336D01*
X166026386Y-84503523D01*
X166067225Y-84477381D01*
X166115480Y-84482133D01*
X166150433Y-84515739D01*
X166161950Y-84538342D01*
X166251658Y-84628050D01*
X166364696Y-84685646D01*
X166490000Y-84705492D01*
X166615304Y-84685646D01*
X166728342Y-84628050D01*
X166818050Y-84538342D01*
X166875646Y-84425304D01*
X166895492Y-84300000D01*
X166875646Y-84174696D01*
X166818050Y-84061658D01*
X166728342Y-83971950D01*
X166615304Y-83914354D01*
X166609550Y-83913442D01*
X166609548Y-83913442D01*
X166495752Y-83895419D01*
X166490000Y-83894508D01*
X166484248Y-83895419D01*
X166370451Y-83913442D01*
X166370447Y-83913442D01*
X166364696Y-83914354D01*
X166359504Y-83916999D01*
X166359502Y-83917000D01*
X166256850Y-83969304D01*
X166256847Y-83969305D01*
X166251658Y-83971950D01*
X166247541Y-83976066D01*
X166247538Y-83976069D01*
X166166069Y-84057538D01*
X166166066Y-84057541D01*
X166161950Y-84061658D01*
X166159306Y-84066845D01*
X166159305Y-84066848D01*
X166153860Y-84077535D01*
X166150664Y-84083809D01*
X166150434Y-84084260D01*
X166115480Y-84117867D01*
X166067225Y-84122619D01*
X166026386Y-84096477D01*
X166010500Y-84050664D01*
X166010500Y-83520000D01*
X167151696Y-83520000D01*
X167152607Y-83525752D01*
X167164841Y-83602999D01*
X167171542Y-83645304D01*
X167174188Y-83650497D01*
X167223282Y-83746850D01*
X167229138Y-83758342D01*
X167318846Y-83848050D01*
X167324032Y-83850692D01*
X167324033Y-83850693D01*
X167359330Y-83868678D01*
X167393166Y-83904134D01*
X167474371Y-84083809D01*
X167589942Y-84288466D01*
X167723358Y-84481964D01*
X167724409Y-84483229D01*
X167724412Y-84483233D01*
X167872489Y-84661473D01*
X167873550Y-84662750D01*
X167897679Y-84687000D01*
X167937446Y-84726967D01*
X167937595Y-84727132D01*
X167937757Y-84727374D01*
X167956624Y-84746241D01*
X167990700Y-84780493D01*
X167990976Y-84780622D01*
X167991158Y-84780775D01*
X168336006Y-85125622D01*
X168508880Y-85298495D01*
X168508883Y-85298499D01*
X168541768Y-85331384D01*
X168544619Y-85334400D01*
X168721927Y-85532807D01*
X168727101Y-85539295D01*
X168879880Y-85754615D01*
X168884292Y-85761636D01*
X169012007Y-85992717D01*
X169015599Y-86000176D01*
X169054232Y-86093442D01*
X169116638Y-86244103D01*
X169119379Y-86251936D01*
X169192470Y-86505638D01*
X169194316Y-86513729D01*
X169226162Y-86701164D01*
X169225077Y-86701348D01*
X169225946Y-86703635D01*
X169225883Y-86704359D01*
X169227554Y-86710601D01*
X169227594Y-86711054D01*
X169228710Y-86716163D01*
X169238537Y-86773999D01*
X169239467Y-86782245D01*
X169254384Y-87047845D01*
X169254500Y-87051995D01*
X169254500Y-87299456D01*
X169242029Y-87340568D01*
X169208819Y-87367823D01*
X169166063Y-87372034D01*
X169128174Y-87351782D01*
X169122461Y-87346069D01*
X169118342Y-87341950D01*
X169005304Y-87284354D01*
X168999550Y-87283442D01*
X168999548Y-87283442D01*
X168885752Y-87265419D01*
X168880000Y-87264508D01*
X168874248Y-87265419D01*
X168760451Y-87283442D01*
X168760447Y-87283442D01*
X168754696Y-87284354D01*
X168749504Y-87286999D01*
X168749502Y-87287000D01*
X168646850Y-87339304D01*
X168646847Y-87339305D01*
X168641658Y-87341950D01*
X168637541Y-87346066D01*
X168637538Y-87346069D01*
X168556069Y-87427538D01*
X168556066Y-87427541D01*
X168551950Y-87431658D01*
X168549305Y-87436847D01*
X168549304Y-87436850D01*
X168497000Y-87539502D01*
X168494354Y-87544696D01*
X168493442Y-87550447D01*
X168493442Y-87550451D01*
X168479882Y-87636069D01*
X168474508Y-87670000D01*
X168475419Y-87675752D01*
X168491384Y-87776557D01*
X168494354Y-87795304D01*
X168551950Y-87908342D01*
X168641658Y-87998050D01*
X168754696Y-88055646D01*
X168880000Y-88075492D01*
X169005304Y-88055646D01*
X169118342Y-87998050D01*
X169128173Y-87988218D01*
X169166063Y-87967966D01*
X169208819Y-87972177D01*
X169242029Y-87999432D01*
X169254500Y-88040544D01*
X169254500Y-91125232D01*
X169248867Y-91153551D01*
X169232826Y-91177558D01*
X168355864Y-92054518D01*
X168315115Y-92075281D01*
X168200450Y-92093442D01*
X168200446Y-92093443D01*
X168194696Y-92094354D01*
X168189504Y-92096999D01*
X168189502Y-92097000D01*
X168086850Y-92149304D01*
X168086847Y-92149305D01*
X168081658Y-92151950D01*
X168077541Y-92156066D01*
X168077538Y-92156069D01*
X167996069Y-92237538D01*
X167996066Y-92237541D01*
X167991950Y-92241658D01*
X167989305Y-92246847D01*
X167989304Y-92246850D01*
X167939589Y-92344421D01*
X167934354Y-92354696D01*
X167933442Y-92360447D01*
X167933442Y-92360451D01*
X167920189Y-92444133D01*
X167914508Y-92480000D01*
X167915419Y-92485752D01*
X167925603Y-92550055D01*
X167934354Y-92605304D01*
X167991950Y-92718342D01*
X168081658Y-92808050D01*
X168194696Y-92865646D01*
X168320000Y-92885492D01*
X168445304Y-92865646D01*
X168558342Y-92808050D01*
X168648050Y-92718342D01*
X168705646Y-92605304D01*
X168724718Y-92484881D01*
X168727205Y-92480000D01*
X169814508Y-92480000D01*
X169815419Y-92485752D01*
X169825603Y-92550055D01*
X169834354Y-92605304D01*
X169891950Y-92718342D01*
X169981658Y-92808050D01*
X170094696Y-92865646D01*
X170220000Y-92885492D01*
X170345304Y-92865646D01*
X170458342Y-92808050D01*
X170548050Y-92718342D01*
X170605646Y-92605304D01*
X170625492Y-92480000D01*
X170605646Y-92354696D01*
X170548050Y-92241658D01*
X170458342Y-92151950D01*
X170431762Y-92138407D01*
X170350497Y-92097000D01*
X170345304Y-92094354D01*
X170339550Y-92093442D01*
X170339548Y-92093442D01*
X170225752Y-92075419D01*
X170220000Y-92074508D01*
X170214248Y-92075419D01*
X170100451Y-92093442D01*
X170100447Y-92093442D01*
X170094696Y-92094354D01*
X170089504Y-92096999D01*
X170089502Y-92097000D01*
X169986850Y-92149304D01*
X169986847Y-92149305D01*
X169981658Y-92151950D01*
X169977541Y-92156066D01*
X169977538Y-92156069D01*
X169896069Y-92237538D01*
X169896066Y-92237541D01*
X169891950Y-92241658D01*
X169889305Y-92246847D01*
X169889304Y-92246850D01*
X169839589Y-92344421D01*
X169834354Y-92354696D01*
X169833442Y-92360447D01*
X169833442Y-92360451D01*
X169820189Y-92444133D01*
X169814508Y-92480000D01*
X168727205Y-92480000D01*
X168745479Y-92444135D01*
X169700472Y-91489142D01*
X169711681Y-91479944D01*
X169728624Y-91468624D01*
X169771651Y-91404231D01*
X169789515Y-91377495D01*
X169798793Y-91330849D01*
X169805500Y-91297133D01*
X169805500Y-91297129D01*
X169810896Y-91270000D01*
X169808907Y-91260000D01*
X174974508Y-91260000D01*
X174975419Y-91265752D01*
X174991984Y-91370345D01*
X174994354Y-91385304D01*
X175051950Y-91498342D01*
X175141658Y-91588050D01*
X175254696Y-91645646D01*
X175380000Y-91665492D01*
X175505304Y-91645646D01*
X175618342Y-91588050D01*
X175708050Y-91498342D01*
X175765646Y-91385304D01*
X175785492Y-91260000D01*
X175771282Y-91170283D01*
X175776456Y-91129324D01*
X175802772Y-91097509D01*
X175842038Y-91084747D01*
X175882030Y-91095009D01*
X175904790Y-91119238D01*
X175905885Y-91118443D01*
X175909304Y-91123149D01*
X175911950Y-91128342D01*
X176001658Y-91218050D01*
X176114696Y-91275646D01*
X176240000Y-91295492D01*
X176365304Y-91275646D01*
X176469113Y-91222752D01*
X176511401Y-91215200D01*
X176550762Y-91232415D01*
X176573926Y-91268596D01*
X176573222Y-91304516D01*
X176574354Y-91304696D01*
X176554508Y-91430000D01*
X176555419Y-91435752D01*
X176565984Y-91502461D01*
X176574354Y-91555304D01*
X176631950Y-91668342D01*
X176721658Y-91758050D01*
X176834696Y-91815646D01*
X176960000Y-91835492D01*
X177085304Y-91815646D01*
X177198342Y-91758050D01*
X177288050Y-91668342D01*
X177345646Y-91555304D01*
X177365492Y-91430000D01*
X177345646Y-91304696D01*
X177288050Y-91191658D01*
X177198342Y-91101950D01*
X177085304Y-91044354D01*
X177079550Y-91043442D01*
X177079548Y-91043442D01*
X176965752Y-91025419D01*
X176960000Y-91024508D01*
X176954248Y-91025419D01*
X176840451Y-91043442D01*
X176840447Y-91043442D01*
X176834696Y-91044354D01*
X176730887Y-91097247D01*
X176688593Y-91104799D01*
X176649229Y-91087577D01*
X176626069Y-91051388D01*
X176626780Y-91015483D01*
X176625646Y-91015304D01*
X176644581Y-90895752D01*
X176645492Y-90890000D01*
X176625646Y-90764696D01*
X176568050Y-90651658D01*
X176478342Y-90561950D01*
X176365304Y-90504354D01*
X176359550Y-90503442D01*
X176359548Y-90503442D01*
X176245752Y-90485419D01*
X176240000Y-90484508D01*
X176234248Y-90485419D01*
X176120451Y-90503442D01*
X176120447Y-90503442D01*
X176114696Y-90504354D01*
X176109504Y-90506999D01*
X176109502Y-90507000D01*
X176006850Y-90559304D01*
X176006847Y-90559305D01*
X176001658Y-90561950D01*
X175997541Y-90566066D01*
X175997538Y-90566069D01*
X175916069Y-90647538D01*
X175916066Y-90647541D01*
X175911950Y-90651658D01*
X175909305Y-90656847D01*
X175909304Y-90656850D01*
X175892768Y-90689304D01*
X175854354Y-90764696D01*
X175853442Y-90770447D01*
X175853442Y-90770451D01*
X175836986Y-90874354D01*
X175834508Y-90890000D01*
X175835419Y-90895752D01*
X175848717Y-90979713D01*
X175843542Y-91020677D01*
X175817224Y-91052492D01*
X175777955Y-91065252D01*
X175737962Y-91054986D01*
X175715210Y-91030760D01*
X175714115Y-91031557D01*
X175710695Y-91026850D01*
X175708050Y-91021658D01*
X175618342Y-90931950D01*
X175505304Y-90874354D01*
X175499550Y-90873442D01*
X175499548Y-90873442D01*
X175385752Y-90855419D01*
X175380000Y-90854508D01*
X175374248Y-90855419D01*
X175260451Y-90873442D01*
X175260447Y-90873442D01*
X175254696Y-90874354D01*
X175249504Y-90876999D01*
X175249502Y-90877000D01*
X175146850Y-90929304D01*
X175146847Y-90929305D01*
X175141658Y-90931950D01*
X175137541Y-90936066D01*
X175137538Y-90936069D01*
X175056069Y-91017538D01*
X175056066Y-91017541D01*
X175051950Y-91021658D01*
X175049305Y-91026847D01*
X175049304Y-91026850D01*
X174997091Y-91129324D01*
X174994354Y-91134696D01*
X174993442Y-91140447D01*
X174993442Y-91140451D01*
X174981152Y-91218050D01*
X174974508Y-91260000D01*
X169808907Y-91260000D01*
X169806922Y-91250020D01*
X169805500Y-91235584D01*
X169805500Y-90379897D01*
X169821386Y-90334084D01*
X169862225Y-90307942D01*
X169910481Y-90312694D01*
X169945433Y-90346300D01*
X169971950Y-90398342D01*
X170061658Y-90488050D01*
X170174696Y-90545646D01*
X170300000Y-90565492D01*
X170425304Y-90545646D01*
X170538342Y-90488050D01*
X170628050Y-90398342D01*
X170685646Y-90285304D01*
X170705492Y-90160000D01*
X170685646Y-90034696D01*
X170628050Y-89921658D01*
X170576392Y-89870000D01*
X181454508Y-89870000D01*
X181474354Y-89995304D01*
X181531950Y-90108342D01*
X181621658Y-90198050D01*
X181734696Y-90255646D01*
X181860000Y-90275492D01*
X181985304Y-90255646D01*
X182098342Y-90198050D01*
X182188050Y-90108342D01*
X182245646Y-89995304D01*
X182265492Y-89870000D01*
X182245646Y-89744696D01*
X182188050Y-89631658D01*
X182098342Y-89541950D01*
X181985304Y-89484354D01*
X181979550Y-89483442D01*
X181979548Y-89483442D01*
X181865752Y-89465419D01*
X181860000Y-89464508D01*
X181854248Y-89465419D01*
X181740451Y-89483442D01*
X181740447Y-89483442D01*
X181734696Y-89484354D01*
X181729504Y-89486999D01*
X181729502Y-89487000D01*
X181626850Y-89539304D01*
X181626847Y-89539305D01*
X181621658Y-89541950D01*
X181617541Y-89546066D01*
X181617538Y-89546069D01*
X181536069Y-89627538D01*
X181536066Y-89627541D01*
X181531950Y-89631658D01*
X181529305Y-89636847D01*
X181529304Y-89636850D01*
X181477000Y-89739502D01*
X181474354Y-89744696D01*
X181473442Y-89750447D01*
X181473442Y-89750451D01*
X181460534Y-89831950D01*
X181454508Y-89870000D01*
X170576392Y-89870000D01*
X170538342Y-89831950D01*
X170425304Y-89774354D01*
X170419550Y-89773442D01*
X170419548Y-89773442D01*
X170305752Y-89755419D01*
X170300000Y-89754508D01*
X170294248Y-89755419D01*
X170180451Y-89773442D01*
X170180447Y-89773442D01*
X170174696Y-89774354D01*
X170169504Y-89776999D01*
X170169502Y-89777000D01*
X170066850Y-89829304D01*
X170066847Y-89829305D01*
X170061658Y-89831950D01*
X170057541Y-89836066D01*
X170057538Y-89836069D01*
X169976069Y-89917538D01*
X169976066Y-89917541D01*
X169971950Y-89921658D01*
X169969306Y-89926845D01*
X169969305Y-89926848D01*
X169945434Y-89973699D01*
X169910481Y-90007306D01*
X169862225Y-90012058D01*
X169821386Y-89985916D01*
X169805500Y-89940103D01*
X169805500Y-87912283D01*
X169821387Y-87866470D01*
X169862225Y-87840328D01*
X169910481Y-87845081D01*
X169945432Y-87878685D01*
X169959082Y-87905474D01*
X170048790Y-87995182D01*
X170161828Y-88052778D01*
X170287132Y-88072624D01*
X170412436Y-88052778D01*
X170525474Y-87995182D01*
X170615182Y-87905474D01*
X170672778Y-87792436D01*
X170687418Y-87700000D01*
X171294508Y-87700000D01*
X171295419Y-87705752D01*
X171309970Y-87797629D01*
X171314354Y-87825304D01*
X171371950Y-87938342D01*
X171461658Y-88028050D01*
X171574696Y-88085646D01*
X171700000Y-88105492D01*
X171825304Y-88085646D01*
X171938342Y-88028050D01*
X172028050Y-87938342D01*
X172085646Y-87825304D01*
X172105492Y-87700000D01*
X172294508Y-87700000D01*
X172295419Y-87705752D01*
X172309970Y-87797629D01*
X172314354Y-87825304D01*
X172371950Y-87938342D01*
X172461658Y-88028050D01*
X172574696Y-88085646D01*
X172700000Y-88105492D01*
X172825304Y-88085646D01*
X172938342Y-88028050D01*
X173028050Y-87938342D01*
X173085646Y-87825304D01*
X173105492Y-87700000D01*
X173294508Y-87700000D01*
X173295419Y-87705752D01*
X173309970Y-87797629D01*
X173314354Y-87825304D01*
X173371950Y-87938342D01*
X173461658Y-88028050D01*
X173574696Y-88085646D01*
X173700000Y-88105492D01*
X173825304Y-88085646D01*
X173836385Y-88080000D01*
X174674508Y-88080000D01*
X174675419Y-88085752D01*
X174675546Y-88086557D01*
X174694354Y-88205304D01*
X174751950Y-88318342D01*
X174841658Y-88408050D01*
X174954696Y-88465646D01*
X175052252Y-88481097D01*
X175093002Y-88501860D01*
X175113765Y-88542610D01*
X175106610Y-88587781D01*
X175056530Y-88686069D01*
X175052134Y-88694696D01*
X175051222Y-88700447D01*
X175051222Y-88700451D01*
X175039122Y-88776850D01*
X175032288Y-88820000D01*
X175052134Y-88945304D01*
X175109730Y-89058342D01*
X175199438Y-89148050D01*
X175312476Y-89205646D01*
X175437780Y-89225492D01*
X175563084Y-89205646D01*
X175676122Y-89148050D01*
X175765830Y-89058342D01*
X175823426Y-88945304D01*
X175843272Y-88820000D01*
X175823426Y-88694696D01*
X175765830Y-88581658D01*
X175676122Y-88491950D01*
X175563084Y-88434354D01*
X175557332Y-88433442D01*
X175557329Y-88433442D01*
X175465526Y-88418902D01*
X175424777Y-88398139D01*
X175404014Y-88357388D01*
X175411168Y-88312222D01*
X175465646Y-88205304D01*
X175485492Y-88080000D01*
X175466486Y-87960000D01*
X181354508Y-87960000D01*
X181355419Y-87965752D01*
X181372655Y-88074581D01*
X181374354Y-88085304D01*
X181431950Y-88198342D01*
X181521658Y-88288050D01*
X181634696Y-88345646D01*
X181760000Y-88365492D01*
X181885304Y-88345646D01*
X181998342Y-88288050D01*
X182088050Y-88198342D01*
X182145646Y-88085304D01*
X182165492Y-87960000D01*
X182145646Y-87834696D01*
X182088050Y-87721658D01*
X181998342Y-87631950D01*
X181885304Y-87574354D01*
X181879550Y-87573442D01*
X181879548Y-87573442D01*
X181765752Y-87555419D01*
X181760000Y-87554508D01*
X181754248Y-87555419D01*
X181640451Y-87573442D01*
X181640447Y-87573442D01*
X181634696Y-87574354D01*
X181629504Y-87576999D01*
X181629502Y-87577000D01*
X181526850Y-87629304D01*
X181526847Y-87629305D01*
X181521658Y-87631950D01*
X181517541Y-87636066D01*
X181517538Y-87636069D01*
X181436069Y-87717538D01*
X181436066Y-87717541D01*
X181431950Y-87721658D01*
X181429305Y-87726847D01*
X181429304Y-87726850D01*
X181391779Y-87800497D01*
X181374354Y-87834696D01*
X181373442Y-87840447D01*
X181373442Y-87840451D01*
X181362037Y-87912461D01*
X181354508Y-87960000D01*
X175466486Y-87960000D01*
X175465646Y-87954696D01*
X175408050Y-87841658D01*
X175318342Y-87751950D01*
X175205304Y-87694354D01*
X175199550Y-87693442D01*
X175199548Y-87693442D01*
X175085752Y-87675419D01*
X175080000Y-87674508D01*
X175074248Y-87675419D01*
X174960451Y-87693442D01*
X174960447Y-87693442D01*
X174954696Y-87694354D01*
X174949504Y-87696999D01*
X174949502Y-87697000D01*
X174846850Y-87749304D01*
X174846847Y-87749305D01*
X174841658Y-87751950D01*
X174837541Y-87756066D01*
X174837538Y-87756069D01*
X174756069Y-87837538D01*
X174756066Y-87837541D01*
X174751950Y-87841658D01*
X174749305Y-87846847D01*
X174749304Y-87846850D01*
X174700588Y-87942461D01*
X174694354Y-87954696D01*
X174693442Y-87960447D01*
X174693442Y-87960451D01*
X174675676Y-88072624D01*
X174674508Y-88080000D01*
X173836385Y-88080000D01*
X173938342Y-88028050D01*
X174028050Y-87938342D01*
X174085646Y-87825304D01*
X174105492Y-87700000D01*
X174085646Y-87574696D01*
X174028050Y-87461658D01*
X173956392Y-87390000D01*
X175504508Y-87390000D01*
X175505419Y-87395752D01*
X175522968Y-87506557D01*
X175524354Y-87515304D01*
X175581950Y-87628342D01*
X175671658Y-87718050D01*
X175784696Y-87775646D01*
X175910000Y-87795492D01*
X176035304Y-87775646D01*
X176148342Y-87718050D01*
X176238050Y-87628342D01*
X176295646Y-87515304D01*
X176315492Y-87390000D01*
X176295646Y-87264696D01*
X176238050Y-87151658D01*
X176148342Y-87061950D01*
X176035304Y-87004354D01*
X176029550Y-87003442D01*
X176029548Y-87003442D01*
X175915752Y-86985419D01*
X175910000Y-86984508D01*
X175904248Y-86985419D01*
X175790451Y-87003442D01*
X175790447Y-87003442D01*
X175784696Y-87004354D01*
X175779504Y-87006999D01*
X175779502Y-87007000D01*
X175676850Y-87059304D01*
X175676847Y-87059305D01*
X175671658Y-87061950D01*
X175667541Y-87066066D01*
X175667538Y-87066069D01*
X175586069Y-87147538D01*
X175586066Y-87147541D01*
X175581950Y-87151658D01*
X175579305Y-87156847D01*
X175579304Y-87156850D01*
X175527000Y-87259502D01*
X175524354Y-87264696D01*
X175523442Y-87270447D01*
X175523442Y-87270451D01*
X175506714Y-87376069D01*
X175504508Y-87390000D01*
X173956392Y-87390000D01*
X173938342Y-87371950D01*
X173825304Y-87314354D01*
X173819550Y-87313442D01*
X173819548Y-87313442D01*
X173705752Y-87295419D01*
X173700000Y-87294508D01*
X173694248Y-87295419D01*
X173580451Y-87313442D01*
X173580447Y-87313442D01*
X173574696Y-87314354D01*
X173569504Y-87316999D01*
X173569502Y-87317000D01*
X173466850Y-87369304D01*
X173466847Y-87369305D01*
X173461658Y-87371950D01*
X173457541Y-87376066D01*
X173457538Y-87376069D01*
X173376069Y-87457538D01*
X173376066Y-87457541D01*
X173371950Y-87461658D01*
X173369305Y-87466847D01*
X173369304Y-87466850D01*
X173324640Y-87554508D01*
X173314354Y-87574696D01*
X173313442Y-87580447D01*
X173313442Y-87580451D01*
X173299714Y-87667132D01*
X173294508Y-87700000D01*
X173105492Y-87700000D01*
X173085646Y-87574696D01*
X173028050Y-87461658D01*
X172938342Y-87371950D01*
X172825304Y-87314354D01*
X172819550Y-87313442D01*
X172819548Y-87313442D01*
X172705752Y-87295419D01*
X172700000Y-87294508D01*
X172694248Y-87295419D01*
X172580451Y-87313442D01*
X172580447Y-87313442D01*
X172574696Y-87314354D01*
X172569504Y-87316999D01*
X172569502Y-87317000D01*
X172466850Y-87369304D01*
X172466847Y-87369305D01*
X172461658Y-87371950D01*
X172457541Y-87376066D01*
X172457538Y-87376069D01*
X172376069Y-87457538D01*
X172376066Y-87457541D01*
X172371950Y-87461658D01*
X172369305Y-87466847D01*
X172369304Y-87466850D01*
X172324640Y-87554508D01*
X172314354Y-87574696D01*
X172313442Y-87580447D01*
X172313442Y-87580451D01*
X172299714Y-87667132D01*
X172294508Y-87700000D01*
X172105492Y-87700000D01*
X172085646Y-87574696D01*
X172028050Y-87461658D01*
X171938342Y-87371950D01*
X171825304Y-87314354D01*
X171819550Y-87313442D01*
X171819548Y-87313442D01*
X171705752Y-87295419D01*
X171700000Y-87294508D01*
X171694248Y-87295419D01*
X171580451Y-87313442D01*
X171580447Y-87313442D01*
X171574696Y-87314354D01*
X171569504Y-87316999D01*
X171569502Y-87317000D01*
X171466850Y-87369304D01*
X171466847Y-87369305D01*
X171461658Y-87371950D01*
X171457541Y-87376066D01*
X171457538Y-87376069D01*
X171376069Y-87457538D01*
X171376066Y-87457541D01*
X171371950Y-87461658D01*
X171369305Y-87466847D01*
X171369304Y-87466850D01*
X171324640Y-87554508D01*
X171314354Y-87574696D01*
X171313442Y-87580447D01*
X171313442Y-87580451D01*
X171299714Y-87667132D01*
X171294508Y-87700000D01*
X170687418Y-87700000D01*
X170692624Y-87667132D01*
X170672778Y-87541828D01*
X170615182Y-87428790D01*
X170525474Y-87339082D01*
X170412436Y-87281486D01*
X170406682Y-87280574D01*
X170406680Y-87280574D01*
X170292884Y-87262551D01*
X170287132Y-87261640D01*
X170281380Y-87262551D01*
X170167583Y-87280574D01*
X170167579Y-87280574D01*
X170161828Y-87281486D01*
X170156636Y-87284131D01*
X170156634Y-87284132D01*
X170053982Y-87336436D01*
X170053979Y-87336437D01*
X170048790Y-87339082D01*
X170044673Y-87343198D01*
X170044670Y-87343201D01*
X169963201Y-87424670D01*
X169963198Y-87424673D01*
X169959082Y-87428790D01*
X169956439Y-87433976D01*
X169956439Y-87433977D01*
X169955761Y-87435307D01*
X169945432Y-87455578D01*
X169910481Y-87489183D01*
X169862225Y-87493936D01*
X169821387Y-87467794D01*
X169805500Y-87421981D01*
X169805500Y-87050019D01*
X169805502Y-87050000D01*
X169805505Y-87050000D01*
X169805505Y-86903630D01*
X169801779Y-86865805D01*
X169807690Y-86828748D01*
X169831020Y-86799355D01*
X169865767Y-86785185D01*
X169934557Y-86776132D01*
X169944208Y-86775500D01*
X169987694Y-86775502D01*
X169987698Y-86775500D01*
X169987701Y-86775500D01*
X177704611Y-86775500D01*
X177750762Y-86775500D01*
X177755600Y-86775657D01*
X177988693Y-86790934D01*
X177998289Y-86792197D01*
X178224999Y-86837292D01*
X178234345Y-86839796D01*
X178453237Y-86914100D01*
X178462178Y-86917803D01*
X178669497Y-87020041D01*
X178677880Y-87024881D01*
X178820466Y-87120153D01*
X178841678Y-87141785D01*
X178852443Y-87170105D01*
X178864354Y-87245304D01*
X178921950Y-87358342D01*
X179011658Y-87448050D01*
X179124696Y-87505646D01*
X179250000Y-87525492D01*
X179375304Y-87505646D01*
X179488342Y-87448050D01*
X179578050Y-87358342D01*
X179635646Y-87245304D01*
X179655492Y-87120000D01*
X179635646Y-86994696D01*
X179578050Y-86881658D01*
X179488342Y-86791950D01*
X179375304Y-86734354D01*
X179369550Y-86733442D01*
X179369548Y-86733442D01*
X179255752Y-86715419D01*
X179250000Y-86714508D01*
X179244248Y-86715419D01*
X179238424Y-86715419D01*
X179238424Y-86715080D01*
X179214000Y-86713845D01*
X179186751Y-86700153D01*
X179139734Y-86662658D01*
X179056720Y-86610497D01*
X178913973Y-86520803D01*
X178913966Y-86520799D01*
X178912220Y-86519702D01*
X178829778Y-86480000D01*
X178672010Y-86404023D01*
X178672004Y-86404020D01*
X178670130Y-86403118D01*
X178668162Y-86402429D01*
X178668154Y-86402426D01*
X178418473Y-86315060D01*
X178418469Y-86315058D01*
X178416509Y-86314373D01*
X178414490Y-86313912D01*
X178414486Y-86313911D01*
X178156557Y-86255042D01*
X178154546Y-86254583D01*
X178131052Y-86251936D01*
X177889600Y-86224732D01*
X177889590Y-86224731D01*
X177887536Y-86224500D01*
X177780321Y-86224500D01*
X169911995Y-86224500D01*
X169911892Y-86224519D01*
X169911670Y-86224530D01*
X169871996Y-86224530D01*
X169871995Y-86224530D01*
X169869094Y-86224530D01*
X169866234Y-86224982D01*
X169866231Y-86224983D01*
X169761084Y-86241631D01*
X169726182Y-86238767D01*
X169696505Y-86220176D01*
X169678698Y-86190022D01*
X169634722Y-86045052D01*
X169522695Y-85774596D01*
X169384697Y-85516423D01*
X169233405Y-85290000D01*
X170324508Y-85290000D01*
X170325419Y-85295752D01*
X170340968Y-85393930D01*
X170344354Y-85415304D01*
X170347000Y-85420497D01*
X170386174Y-85497381D01*
X170401950Y-85528342D01*
X170491658Y-85618050D01*
X170604696Y-85675646D01*
X170730000Y-85695492D01*
X170855304Y-85675646D01*
X170968342Y-85618050D01*
X171058050Y-85528342D01*
X171115646Y-85415304D01*
X171135492Y-85290000D01*
X171115646Y-85164696D01*
X171067396Y-85070000D01*
X178064508Y-85070000D01*
X178065419Y-85075752D01*
X178082766Y-85185281D01*
X178084354Y-85195304D01*
X178141950Y-85308342D01*
X178231658Y-85398050D01*
X178344696Y-85455646D01*
X178470000Y-85475492D01*
X178595304Y-85455646D01*
X178708342Y-85398050D01*
X178798050Y-85308342D01*
X178855646Y-85195304D01*
X178870183Y-85103520D01*
X178890945Y-85062772D01*
X178931694Y-85042008D01*
X178976866Y-85049162D01*
X179009205Y-85081501D01*
X179048949Y-85159502D01*
X179064730Y-85190474D01*
X179154438Y-85280182D01*
X179267476Y-85337778D01*
X179392780Y-85357624D01*
X179518084Y-85337778D01*
X179631122Y-85280182D01*
X179720830Y-85190474D01*
X179778426Y-85077436D01*
X179798272Y-84952132D01*
X179778426Y-84826828D01*
X179720830Y-84713790D01*
X179631122Y-84624082D01*
X179518084Y-84566486D01*
X179512330Y-84565574D01*
X179512328Y-84565574D01*
X179398532Y-84547551D01*
X179392780Y-84546640D01*
X179387028Y-84547551D01*
X179273231Y-84565574D01*
X179273227Y-84565574D01*
X179267476Y-84566486D01*
X179262284Y-84569131D01*
X179262282Y-84569132D01*
X179159630Y-84621436D01*
X179159627Y-84621437D01*
X179154438Y-84624082D01*
X179150321Y-84628198D01*
X179150318Y-84628201D01*
X179068849Y-84709670D01*
X179068846Y-84709673D01*
X179064730Y-84713790D01*
X179062085Y-84718979D01*
X179062084Y-84718982D01*
X179030599Y-84780775D01*
X179007134Y-84826828D01*
X179006222Y-84832579D01*
X179006222Y-84832583D01*
X178992597Y-84918610D01*
X178971834Y-84959360D01*
X178931084Y-84980123D01*
X178885913Y-84972969D01*
X178853574Y-84940630D01*
X178798050Y-84831658D01*
X178708342Y-84741950D01*
X178595304Y-84684354D01*
X178589550Y-84683442D01*
X178589548Y-84683442D01*
X178475752Y-84665419D01*
X178470000Y-84664508D01*
X178464248Y-84665419D01*
X178350451Y-84683442D01*
X178350447Y-84683442D01*
X178344696Y-84684354D01*
X178339504Y-84686999D01*
X178339502Y-84687000D01*
X178236850Y-84739304D01*
X178236847Y-84739305D01*
X178231658Y-84741950D01*
X178227541Y-84746066D01*
X178227538Y-84746069D01*
X178146069Y-84827538D01*
X178146066Y-84827541D01*
X178141950Y-84831658D01*
X178139305Y-84836847D01*
X178139304Y-84836850D01*
X178088275Y-84937000D01*
X178084354Y-84944696D01*
X178083442Y-84950447D01*
X178083442Y-84950451D01*
X178068066Y-85047538D01*
X178064508Y-85070000D01*
X171067396Y-85070000D01*
X171058050Y-85051658D01*
X170968342Y-84961950D01*
X170855304Y-84904354D01*
X170849550Y-84903442D01*
X170849548Y-84903442D01*
X170735752Y-84885419D01*
X170730000Y-84884508D01*
X170724248Y-84885419D01*
X170610451Y-84903442D01*
X170610447Y-84903442D01*
X170604696Y-84904354D01*
X170599504Y-84906999D01*
X170599502Y-84907000D01*
X170496850Y-84959304D01*
X170496847Y-84959305D01*
X170491658Y-84961950D01*
X170487541Y-84966066D01*
X170487538Y-84966069D01*
X170406069Y-85047538D01*
X170406066Y-85047541D01*
X170401950Y-85051658D01*
X170399305Y-85056847D01*
X170399304Y-85056850D01*
X170347000Y-85159502D01*
X170344354Y-85164696D01*
X170343442Y-85170447D01*
X170343442Y-85170451D01*
X170326063Y-85280182D01*
X170324508Y-85290000D01*
X169233405Y-85290000D01*
X169222059Y-85273020D01*
X169036346Y-85046730D01*
X168952037Y-84962422D01*
X168952034Y-84962418D01*
X168725622Y-84736006D01*
X168725621Y-84736005D01*
X168348590Y-84358975D01*
X168345617Y-84355823D01*
X168301094Y-84305752D01*
X168195799Y-84187337D01*
X168190653Y-84180852D01*
X168182638Y-84169502D01*
X168061746Y-83998303D01*
X168057356Y-83991282D01*
X168051151Y-83980000D01*
X180014508Y-83980000D01*
X180015419Y-83985752D01*
X180030949Y-84083809D01*
X180034354Y-84105304D01*
X180091950Y-84218342D01*
X180181658Y-84308050D01*
X180294696Y-84365646D01*
X180420000Y-84385492D01*
X180545304Y-84365646D01*
X180658342Y-84308050D01*
X180748050Y-84218342D01*
X180805646Y-84105304D01*
X180825492Y-83980000D01*
X180805646Y-83854696D01*
X180748050Y-83741658D01*
X180658342Y-83651950D01*
X180545304Y-83594354D01*
X180539550Y-83593442D01*
X180539548Y-83593442D01*
X180425752Y-83575419D01*
X180420000Y-83574508D01*
X180414248Y-83575419D01*
X180300451Y-83593442D01*
X180300447Y-83593442D01*
X180294696Y-83594354D01*
X180289504Y-83596999D01*
X180289502Y-83597000D01*
X180186850Y-83649304D01*
X180186847Y-83649305D01*
X180181658Y-83651950D01*
X180177541Y-83656066D01*
X180177538Y-83656069D01*
X180096069Y-83737538D01*
X180096066Y-83737541D01*
X180091950Y-83741658D01*
X180089305Y-83746847D01*
X180089304Y-83746850D01*
X180083449Y-83758342D01*
X180034354Y-83854696D01*
X180033442Y-83860447D01*
X180033442Y-83860451D01*
X180024905Y-83914354D01*
X180014508Y-83980000D01*
X168051151Y-83980000D01*
X167949652Y-83795465D01*
X167946076Y-83788002D01*
X167933853Y-83758342D01*
X167925081Y-83737056D01*
X167919560Y-83705888D01*
X167927565Y-83675268D01*
X167942834Y-83645304D01*
X167962680Y-83520000D01*
X167942834Y-83394696D01*
X167885238Y-83281658D01*
X167823580Y-83220000D01*
X175864508Y-83220000D01*
X175865419Y-83225752D01*
X175876338Y-83294696D01*
X175884354Y-83345304D01*
X175941950Y-83458342D01*
X176031658Y-83548050D01*
X176144696Y-83605646D01*
X176270000Y-83625492D01*
X176395304Y-83605646D01*
X176508342Y-83548050D01*
X176598050Y-83458342D01*
X176617586Y-83420000D01*
X180874508Y-83420000D01*
X180894354Y-83545304D01*
X180951950Y-83658342D01*
X181041658Y-83748050D01*
X181154696Y-83805646D01*
X181280000Y-83825492D01*
X181405304Y-83805646D01*
X181518342Y-83748050D01*
X181608050Y-83658342D01*
X181665646Y-83545304D01*
X181685492Y-83420000D01*
X181665646Y-83294696D01*
X181608050Y-83181658D01*
X181518342Y-83091950D01*
X181405304Y-83034354D01*
X181399550Y-83033442D01*
X181399548Y-83033442D01*
X181285752Y-83015419D01*
X181280000Y-83014508D01*
X181274248Y-83015419D01*
X181160451Y-83033442D01*
X181160447Y-83033442D01*
X181154696Y-83034354D01*
X181149504Y-83036999D01*
X181149502Y-83037000D01*
X181046850Y-83089304D01*
X181046847Y-83089305D01*
X181041658Y-83091950D01*
X181037541Y-83096066D01*
X181037538Y-83096069D01*
X180956069Y-83177538D01*
X180956066Y-83177541D01*
X180951950Y-83181658D01*
X180949305Y-83186847D01*
X180949304Y-83186850D01*
X180897000Y-83289502D01*
X180894354Y-83294696D01*
X180893442Y-83300447D01*
X180893442Y-83300451D01*
X180879338Y-83389502D01*
X180874508Y-83420000D01*
X176617586Y-83420000D01*
X176655646Y-83345304D01*
X176675492Y-83220000D01*
X176655646Y-83094696D01*
X176598050Y-82981658D01*
X176508342Y-82891950D01*
X176395304Y-82834354D01*
X176389550Y-82833442D01*
X176389548Y-82833442D01*
X176275752Y-82815419D01*
X176270000Y-82814508D01*
X176264248Y-82815419D01*
X176150451Y-82833442D01*
X176150447Y-82833442D01*
X176144696Y-82834354D01*
X176139504Y-82836999D01*
X176139502Y-82837000D01*
X176036850Y-82889304D01*
X176036847Y-82889305D01*
X176031658Y-82891950D01*
X176027541Y-82896066D01*
X176027538Y-82896069D01*
X175946069Y-82977538D01*
X175946066Y-82977541D01*
X175941950Y-82981658D01*
X175939305Y-82986847D01*
X175939304Y-82986850D01*
X175887101Y-83089304D01*
X175884354Y-83094696D01*
X175883442Y-83100447D01*
X175883442Y-83100451D01*
X175872122Y-83171924D01*
X175864508Y-83220000D01*
X167823580Y-83220000D01*
X167795530Y-83191950D01*
X167682492Y-83134354D01*
X167676738Y-83133442D01*
X167676736Y-83133442D01*
X167562940Y-83115419D01*
X167557188Y-83114508D01*
X167551436Y-83115419D01*
X167437639Y-83133442D01*
X167437635Y-83133442D01*
X167431884Y-83134354D01*
X167426692Y-83136999D01*
X167426690Y-83137000D01*
X167324038Y-83189304D01*
X167324035Y-83189305D01*
X167318846Y-83191950D01*
X167314729Y-83196066D01*
X167314726Y-83196069D01*
X167233257Y-83277538D01*
X167233254Y-83277541D01*
X167229138Y-83281658D01*
X167226493Y-83286847D01*
X167226492Y-83286850D01*
X167174188Y-83389502D01*
X167171542Y-83394696D01*
X167170630Y-83400447D01*
X167170630Y-83400451D01*
X167160809Y-83462461D01*
X167151696Y-83520000D01*
X166010500Y-83520000D01*
X166010500Y-83353227D01*
X166010782Y-83346778D01*
X166014835Y-83300451D01*
X166024968Y-83184623D01*
X166027205Y-83171934D01*
X166068500Y-83017818D01*
X166072910Y-83005703D01*
X166140337Y-82861105D01*
X166146775Y-82849954D01*
X166238289Y-82719259D01*
X166246570Y-82709390D01*
X166359390Y-82596570D01*
X166369259Y-82588289D01*
X166499954Y-82496775D01*
X166511105Y-82490337D01*
X166655705Y-82422908D01*
X166667818Y-82418500D01*
X166821934Y-82377205D01*
X166834623Y-82374968D01*
X166964305Y-82363622D01*
X166996778Y-82360782D01*
X167003227Y-82360500D01*
X167003412Y-82360500D01*
X181766588Y-82360500D01*
X181766773Y-82360500D01*
X181773222Y-82360782D01*
G37*
G04 #@! TD.AperFunction*
M02*
