G04 #@! TF.GenerationSoftware,KiCad,Pcbnew,(6.0.2-0)*
G04 #@! TF.CreationDate,2022-10-10T18:33:33+08:00*
G04 #@! TF.ProjectId,Revolute,5265766f-6c75-4746-952e-6b696361645f,rev?*
G04 #@! TF.SameCoordinates,Original*
G04 #@! TF.FileFunction,Legend,Top*
G04 #@! TF.FilePolarity,Positive*
%FSLAX46Y46*%
G04 Gerber Fmt 4.6, Leading zero omitted, Abs format (unit mm)*
G04 Created by KiCad (PCBNEW (6.0.2-0)) date 2022-10-10 18:33:33*
%MOMM*%
%LPD*%
G01*
G04 APERTURE LIST*
G04 Aperture macros list*
%AMRoundRect*
0 Rectangle with rounded corners*
0 $1 Rounding radius*
0 $2 $3 $4 $5 $6 $7 $8 $9 X,Y pos of 4 corners*
0 Add a 4 corners polygon primitive as box body*
4,1,4,$2,$3,$4,$5,$6,$7,$8,$9,$2,$3,0*
0 Add four circle primitives for the rounded corners*
1,1,$1+$1,$2,$3*
1,1,$1+$1,$4,$5*
1,1,$1+$1,$6,$7*
1,1,$1+$1,$8,$9*
0 Add four rect primitives between the rounded corners*
20,1,$1+$1,$2,$3,$4,$5,0*
20,1,$1+$1,$4,$5,$6,$7,0*
20,1,$1+$1,$6,$7,$8,$9,0*
20,1,$1+$1,$8,$9,$2,$3,0*%
G04 Aperture macros list end*
%ADD10C,0.120000*%
%ADD11C,0.150000*%
%ADD12C,0.100000*%
%ADD13C,0.080000*%
%ADD14RoundRect,0.135000X-0.135000X-0.185000X0.135000X-0.185000X0.135000X0.185000X-0.135000X0.185000X0*%
%ADD15RoundRect,0.140000X-0.170000X0.140000X-0.170000X-0.140000X0.170000X-0.140000X0.170000X0.140000X0*%
%ADD16RoundRect,0.140000X0.170000X-0.140000X0.170000X0.140000X-0.170000X0.140000X-0.170000X-0.140000X0*%
%ADD17RoundRect,0.140000X0.140000X0.170000X-0.140000X0.170000X-0.140000X-0.170000X0.140000X-0.170000X0*%
%ADD18RoundRect,0.147500X-0.172500X0.147500X-0.172500X-0.147500X0.172500X-0.147500X0.172500X0.147500X0*%
%ADD19RoundRect,0.147500X0.172500X-0.147500X0.172500X0.147500X-0.172500X0.147500X-0.172500X-0.147500X0*%
%ADD20RoundRect,0.150000X-0.350000X-0.300000X0.350000X-0.300000X0.350000X0.300000X-0.350000X0.300000X0*%
%ADD21RoundRect,0.140000X-0.140000X-0.170000X0.140000X-0.170000X0.140000X0.170000X-0.140000X0.170000X0*%
%ADD22C,0.290000*%
%ADD23RoundRect,0.020000X2.000000X2.000000X-2.000000X2.000000X-2.000000X-2.000000X2.000000X-2.000000X0*%
%ADD24RoundRect,0.218750X-0.256250X0.218750X-0.256250X-0.218750X0.256250X-0.218750X0.256250X0.218750X0*%
%ADD25RoundRect,0.250000X-0.250000X-0.250000X0.250000X-0.250000X0.250000X0.250000X-0.250000X0.250000X0*%
%ADD26R,1.100000X0.600000*%
%ADD27R,1.060000X0.650000*%
G04 APERTURE END LIST*
D10*
X170030000Y-83584296D02*
X170030000Y-83799968D01*
X178132164Y-89670000D02*
X178347836Y-89670000D01*
X178132164Y-90390000D02*
X178347836Y-90390000D01*
X171820000Y-83584296D02*
X171820000Y-83799968D01*
X171100000Y-83584296D02*
X171100000Y-83799968D01*
X170750000Y-83584296D02*
X170750000Y-83799968D01*
D11*
X179957142Y-95066666D02*
X180004761Y-95114285D01*
X180052380Y-95257142D01*
X180052380Y-95352380D01*
X180004761Y-95495238D01*
X179909523Y-95590476D01*
X179814285Y-95638095D01*
X179623809Y-95685714D01*
X179480952Y-95685714D01*
X179290476Y-95638095D01*
X179195238Y-95590476D01*
X179100000Y-95495238D01*
X179052380Y-95352380D01*
X179052380Y-95257142D01*
X179100000Y-95114285D01*
X179147619Y-95066666D01*
X179480952Y-94495238D02*
X179433333Y-94590476D01*
X179385714Y-94638095D01*
X179290476Y-94685714D01*
X179242857Y-94685714D01*
X179147619Y-94638095D01*
X179100000Y-94590476D01*
X179052380Y-94495238D01*
X179052380Y-94304761D01*
X179100000Y-94209523D01*
X179147619Y-94161904D01*
X179242857Y-94114285D01*
X179290476Y-94114285D01*
X179385714Y-94161904D01*
X179433333Y-94209523D01*
X179480952Y-94304761D01*
X179480952Y-94495238D01*
X179528571Y-94590476D01*
X179576190Y-94638095D01*
X179671428Y-94685714D01*
X179861904Y-94685714D01*
X179957142Y-94638095D01*
X180004761Y-94590476D01*
X180052380Y-94495238D01*
X180052380Y-94304761D01*
X180004761Y-94209523D01*
X179957142Y-94161904D01*
X179861904Y-94114285D01*
X179671428Y-94114285D01*
X179576190Y-94161904D01*
X179528571Y-94209523D01*
X179480952Y-94304761D01*
X162457142Y-85342857D02*
X162504761Y-85390476D01*
X162552380Y-85533333D01*
X162552380Y-85628571D01*
X162504761Y-85771428D01*
X162409523Y-85866666D01*
X162314285Y-85914285D01*
X162123809Y-85961904D01*
X161980952Y-85961904D01*
X161790476Y-85914285D01*
X161695238Y-85866666D01*
X161600000Y-85771428D01*
X161552380Y-85628571D01*
X161552380Y-85533333D01*
X161600000Y-85390476D01*
X161647619Y-85342857D01*
X162552380Y-84390476D02*
X162552380Y-84961904D01*
X162552380Y-84676190D02*
X161552380Y-84676190D01*
X161695238Y-84771428D01*
X161790476Y-84866666D01*
X161838095Y-84961904D01*
X161885714Y-83533333D02*
X162552380Y-83533333D01*
X161504761Y-83771428D02*
X162219047Y-84009523D01*
X162219047Y-83390476D01*
X169757142Y-96457142D02*
X169709523Y-96504761D01*
X169566666Y-96552380D01*
X169471428Y-96552380D01*
X169328571Y-96504761D01*
X169233333Y-96409523D01*
X169185714Y-96314285D01*
X169138095Y-96123809D01*
X169138095Y-95980952D01*
X169185714Y-95790476D01*
X169233333Y-95695238D01*
X169328571Y-95600000D01*
X169471428Y-95552380D01*
X169566666Y-95552380D01*
X169709523Y-95600000D01*
X169757142Y-95647619D01*
X170138095Y-95647619D02*
X170185714Y-95600000D01*
X170280952Y-95552380D01*
X170519047Y-95552380D01*
X170614285Y-95600000D01*
X170661904Y-95647619D01*
X170709523Y-95742857D01*
X170709523Y-95838095D01*
X170661904Y-95980952D01*
X170090476Y-96552380D01*
X170709523Y-96552380D01*
X171661904Y-96552380D02*
X171090476Y-96552380D01*
X171376190Y-96552380D02*
X171376190Y-95552380D01*
X171280952Y-95695238D01*
X171185714Y-95790476D01*
X171090476Y-95838095D01*
X169857142Y-97957142D02*
X169809523Y-98004761D01*
X169666666Y-98052380D01*
X169571428Y-98052380D01*
X169428571Y-98004761D01*
X169333333Y-97909523D01*
X169285714Y-97814285D01*
X169238095Y-97623809D01*
X169238095Y-97480952D01*
X169285714Y-97290476D01*
X169333333Y-97195238D01*
X169428571Y-97100000D01*
X169571428Y-97052380D01*
X169666666Y-97052380D01*
X169809523Y-97100000D01*
X169857142Y-97147619D01*
X170809523Y-98052380D02*
X170238095Y-98052380D01*
X170523809Y-98052380D02*
X170523809Y-97052380D01*
X170428571Y-97195238D01*
X170333333Y-97290476D01*
X170238095Y-97338095D01*
X171380952Y-97480952D02*
X171285714Y-97433333D01*
X171238095Y-97385714D01*
X171190476Y-97290476D01*
X171190476Y-97242857D01*
X171238095Y-97147619D01*
X171285714Y-97100000D01*
X171380952Y-97052380D01*
X171571428Y-97052380D01*
X171666666Y-97100000D01*
X171714285Y-97147619D01*
X171761904Y-97242857D01*
X171761904Y-97290476D01*
X171714285Y-97385714D01*
X171666666Y-97433333D01*
X171571428Y-97480952D01*
X171380952Y-97480952D01*
X171285714Y-97528571D01*
X171238095Y-97576190D01*
X171190476Y-97671428D01*
X171190476Y-97861904D01*
X171238095Y-97957142D01*
X171285714Y-98004761D01*
X171380952Y-98052380D01*
X171571428Y-98052380D01*
X171666666Y-98004761D01*
X171714285Y-97957142D01*
X171761904Y-97861904D01*
X171761904Y-97671428D01*
X171714285Y-97576190D01*
X171666666Y-97528571D01*
X171571428Y-97480952D01*
X163657142Y-84157142D02*
X163609523Y-84204761D01*
X163466666Y-84252380D01*
X163371428Y-84252380D01*
X163228571Y-84204761D01*
X163133333Y-84109523D01*
X163085714Y-84014285D01*
X163038095Y-83823809D01*
X163038095Y-83680952D01*
X163085714Y-83490476D01*
X163133333Y-83395238D01*
X163228571Y-83300000D01*
X163371428Y-83252380D01*
X163466666Y-83252380D01*
X163609523Y-83300000D01*
X163657142Y-83347619D01*
X164609523Y-84252380D02*
X164038095Y-84252380D01*
X164323809Y-84252380D02*
X164323809Y-83252380D01*
X164228571Y-83395238D01*
X164133333Y-83490476D01*
X164038095Y-83538095D01*
X164942857Y-83252380D02*
X165609523Y-83252380D01*
X165180952Y-84252380D01*
X174952380Y-79566666D02*
X174952380Y-80042857D01*
X173952380Y-80042857D01*
X174047619Y-79280952D02*
X174000000Y-79233333D01*
X173952380Y-79138095D01*
X173952380Y-78900000D01*
X174000000Y-78804761D01*
X174047619Y-78757142D01*
X174142857Y-78709523D01*
X174238095Y-78709523D01*
X174380952Y-78757142D01*
X174952380Y-79328571D01*
X174952380Y-78709523D01*
X177357142Y-79442857D02*
X177404761Y-79490476D01*
X177452380Y-79633333D01*
X177452380Y-79728571D01*
X177404761Y-79871428D01*
X177309523Y-79966666D01*
X177214285Y-80014285D01*
X177023809Y-80061904D01*
X176880952Y-80061904D01*
X176690476Y-80014285D01*
X176595238Y-79966666D01*
X176500000Y-79871428D01*
X176452380Y-79728571D01*
X176452380Y-79633333D01*
X176500000Y-79490476D01*
X176547619Y-79442857D01*
X177452380Y-78490476D02*
X177452380Y-79061904D01*
X177452380Y-78776190D02*
X176452380Y-78776190D01*
X176595238Y-78871428D01*
X176690476Y-78966666D01*
X176738095Y-79061904D01*
X176452380Y-77585714D02*
X176452380Y-78061904D01*
X176928571Y-78109523D01*
X176880952Y-78061904D01*
X176833333Y-77966666D01*
X176833333Y-77728571D01*
X176880952Y-77633333D01*
X176928571Y-77585714D01*
X177023809Y-77538095D01*
X177261904Y-77538095D01*
X177357142Y-77585714D01*
X177404761Y-77633333D01*
X177452380Y-77728571D01*
X177452380Y-77966666D01*
X177404761Y-78061904D01*
X177357142Y-78109523D01*
X170952380Y-80066666D02*
X170952380Y-80542857D01*
X169952380Y-80542857D01*
X169952380Y-79828571D02*
X169952380Y-79209523D01*
X170333333Y-79542857D01*
X170333333Y-79400000D01*
X170380952Y-79304761D01*
X170428571Y-79257142D01*
X170523809Y-79209523D01*
X170761904Y-79209523D01*
X170857142Y-79257142D01*
X170904761Y-79304761D01*
X170952380Y-79400000D01*
X170952380Y-79685714D01*
X170904761Y-79780952D01*
X170857142Y-79828571D01*
X177533333Y-94857142D02*
X177485714Y-94904761D01*
X177342857Y-94952380D01*
X177247619Y-94952380D01*
X177104761Y-94904761D01*
X177009523Y-94809523D01*
X176961904Y-94714285D01*
X176914285Y-94523809D01*
X176914285Y-94380952D01*
X176961904Y-94190476D01*
X177009523Y-94095238D01*
X177104761Y-94000000D01*
X177247619Y-93952380D01*
X177342857Y-93952380D01*
X177485714Y-94000000D01*
X177533333Y-94047619D01*
X178009523Y-94952380D02*
X178200000Y-94952380D01*
X178295238Y-94904761D01*
X178342857Y-94857142D01*
X178438095Y-94714285D01*
X178485714Y-94523809D01*
X178485714Y-94142857D01*
X178438095Y-94047619D01*
X178390476Y-94000000D01*
X178295238Y-93952380D01*
X178104761Y-93952380D01*
X178009523Y-94000000D01*
X177961904Y-94047619D01*
X177914285Y-94142857D01*
X177914285Y-94380952D01*
X177961904Y-94476190D01*
X178009523Y-94523809D01*
X178104761Y-94571428D01*
X178295238Y-94571428D01*
X178390476Y-94523809D01*
X178438095Y-94476190D01*
X178485714Y-94380952D01*
X177383256Y-74004512D02*
X178049922Y-75004512D01*
X178049922Y-74004512D02*
X177383256Y-75004512D01*
X178954684Y-75004512D02*
X178383256Y-75004512D01*
X178668970Y-75004512D02*
X178668970Y-74004512D01*
X178573732Y-74147370D01*
X178478494Y-74242608D01*
X178383256Y-74290227D01*
X163052380Y-90033333D02*
X163766666Y-90033333D01*
X163909523Y-90080952D01*
X164004761Y-90176190D01*
X164052380Y-90319047D01*
X164052380Y-90414285D01*
X164052380Y-89033333D02*
X164052380Y-89604761D01*
X164052380Y-89319047D02*
X163052380Y-89319047D01*
X163195238Y-89414285D01*
X163290476Y-89509523D01*
X163338095Y-89604761D01*
X165785714Y-81347619D02*
X166452380Y-81109523D01*
X165785714Y-80871428D01*
X166452380Y-80490476D02*
X165452380Y-80490476D01*
X165833333Y-80490476D02*
X165785714Y-80395238D01*
X165785714Y-80204761D01*
X165833333Y-80109523D01*
X165880952Y-80061904D01*
X165976190Y-80014285D01*
X166261904Y-80014285D01*
X166357142Y-80061904D01*
X166404761Y-80109523D01*
X166452380Y-80204761D01*
X166452380Y-80395238D01*
X166404761Y-80490476D01*
X165785714Y-79157142D02*
X166452380Y-79157142D01*
X165785714Y-79585714D02*
X166309523Y-79585714D01*
X166404761Y-79538095D01*
X166452380Y-79442857D01*
X166452380Y-79300000D01*
X166404761Y-79204761D01*
X166357142Y-79157142D01*
X166404761Y-78728571D02*
X166452380Y-78633333D01*
X166452380Y-78442857D01*
X166404761Y-78347619D01*
X166309523Y-78300000D01*
X166261904Y-78300000D01*
X166166666Y-78347619D01*
X166119047Y-78442857D01*
X166119047Y-78585714D01*
X166071428Y-78680952D01*
X165976190Y-78728571D01*
X165928571Y-78728571D01*
X165833333Y-78680952D01*
X165785714Y-78585714D01*
X165785714Y-78442857D01*
X165833333Y-78347619D01*
X163752380Y-87080952D02*
X162752380Y-87080952D01*
X162752380Y-86842857D01*
X162800000Y-86700000D01*
X162895238Y-86604761D01*
X162990476Y-86557142D01*
X163180952Y-86509523D01*
X163323809Y-86509523D01*
X163514285Y-86557142D01*
X163609523Y-86604761D01*
X163704761Y-86700000D01*
X163752380Y-86842857D01*
X163752380Y-87080952D01*
X163371428Y-86080952D02*
X163371428Y-85319047D01*
X163752380Y-85700000D02*
X162990476Y-85700000D01*
X166752380Y-96180952D02*
X165752380Y-96180952D01*
X165752380Y-95942857D01*
X165800000Y-95800000D01*
X165895238Y-95704761D01*
X165990476Y-95657142D01*
X166180952Y-95609523D01*
X166323809Y-95609523D01*
X166514285Y-95657142D01*
X166609523Y-95704761D01*
X166704761Y-95800000D01*
X166752380Y-95942857D01*
X166752380Y-96180952D01*
X166371428Y-95180952D02*
X166371428Y-94419047D01*
X176100000Y-97461904D02*
X176052380Y-97557142D01*
X176052380Y-97700000D01*
X176100000Y-97842857D01*
X176195238Y-97938095D01*
X176290476Y-97985714D01*
X176480952Y-98033333D01*
X176623809Y-98033333D01*
X176814285Y-97985714D01*
X176909523Y-97938095D01*
X177004761Y-97842857D01*
X177052380Y-97700000D01*
X177052380Y-97604761D01*
X177004761Y-97461904D01*
X176957142Y-97414285D01*
X176623809Y-97414285D01*
X176623809Y-97604761D01*
X177052380Y-96985714D02*
X176052380Y-96985714D01*
X177052380Y-96414285D01*
X176052380Y-96414285D01*
X177052380Y-95938095D02*
X176052380Y-95938095D01*
X176052380Y-95700000D01*
X176100000Y-95557142D01*
X176195238Y-95461904D01*
X176290476Y-95414285D01*
X176480952Y-95366666D01*
X176623809Y-95366666D01*
X176814285Y-95414285D01*
X176909523Y-95461904D01*
X177004761Y-95557142D01*
X177052380Y-95700000D01*
X177052380Y-95938095D01*
X179157142Y-79366666D02*
X179204761Y-79414285D01*
X179252380Y-79557142D01*
X179252380Y-79652380D01*
X179204761Y-79795238D01*
X179109523Y-79890476D01*
X179014285Y-79938095D01*
X178823809Y-79985714D01*
X178680952Y-79985714D01*
X178490476Y-79938095D01*
X178395238Y-79890476D01*
X178300000Y-79795238D01*
X178252380Y-79652380D01*
X178252380Y-79557142D01*
X178300000Y-79414285D01*
X178347619Y-79366666D01*
X178347619Y-78985714D02*
X178300000Y-78938095D01*
X178252380Y-78842857D01*
X178252380Y-78604761D01*
X178300000Y-78509523D01*
X178347619Y-78461904D01*
X178442857Y-78414285D01*
X178538095Y-78414285D01*
X178680952Y-78461904D01*
X179252380Y-79033333D01*
X179252380Y-78414285D01*
X165667142Y-58902857D02*
X165714761Y-58950476D01*
X165762380Y-59093333D01*
X165762380Y-59188571D01*
X165714761Y-59331428D01*
X165619523Y-59426666D01*
X165524285Y-59474285D01*
X165333809Y-59521904D01*
X165190952Y-59521904D01*
X165000476Y-59474285D01*
X164905238Y-59426666D01*
X164810000Y-59331428D01*
X164762380Y-59188571D01*
X164762380Y-59093333D01*
X164810000Y-58950476D01*
X164857619Y-58902857D01*
X165762380Y-57950476D02*
X165762380Y-58521904D01*
X165762380Y-58236190D02*
X164762380Y-58236190D01*
X164905238Y-58331428D01*
X165000476Y-58426666D01*
X165048095Y-58521904D01*
X164762380Y-57617142D02*
X164762380Y-56998095D01*
X165143333Y-57331428D01*
X165143333Y-57188571D01*
X165190952Y-57093333D01*
X165238571Y-57045714D01*
X165333809Y-56998095D01*
X165571904Y-56998095D01*
X165667142Y-57045714D01*
X165714761Y-57093333D01*
X165762380Y-57188571D01*
X165762380Y-57474285D01*
X165714761Y-57569523D01*
X165667142Y-57617142D01*
X162633333Y-88757142D02*
X162585714Y-88804761D01*
X162442857Y-88852380D01*
X162347619Y-88852380D01*
X162204761Y-88804761D01*
X162109523Y-88709523D01*
X162061904Y-88614285D01*
X162014285Y-88423809D01*
X162014285Y-88280952D01*
X162061904Y-88090476D01*
X162109523Y-87995238D01*
X162204761Y-87900000D01*
X162347619Y-87852380D01*
X162442857Y-87852380D01*
X162585714Y-87900000D01*
X162633333Y-87947619D01*
X163538095Y-87852380D02*
X163061904Y-87852380D01*
X163014285Y-88328571D01*
X163061904Y-88280952D01*
X163157142Y-88233333D01*
X163395238Y-88233333D01*
X163490476Y-88280952D01*
X163538095Y-88328571D01*
X163585714Y-88423809D01*
X163585714Y-88661904D01*
X163538095Y-88757142D01*
X163490476Y-88804761D01*
X163395238Y-88852380D01*
X163157142Y-88852380D01*
X163061904Y-88804761D01*
X163014285Y-88757142D01*
X163833333Y-94457142D02*
X163785714Y-94504761D01*
X163642857Y-94552380D01*
X163547619Y-94552380D01*
X163404761Y-94504761D01*
X163309523Y-94409523D01*
X163261904Y-94314285D01*
X163214285Y-94123809D01*
X163214285Y-93980952D01*
X163261904Y-93790476D01*
X163309523Y-93695238D01*
X163404761Y-93600000D01*
X163547619Y-93552380D01*
X163642857Y-93552380D01*
X163785714Y-93600000D01*
X163833333Y-93647619D01*
X164690476Y-93552380D02*
X164500000Y-93552380D01*
X164404761Y-93600000D01*
X164357142Y-93647619D01*
X164261904Y-93790476D01*
X164214285Y-93980952D01*
X164214285Y-94361904D01*
X164261904Y-94457142D01*
X164309523Y-94504761D01*
X164404761Y-94552380D01*
X164595238Y-94552380D01*
X164690476Y-94504761D01*
X164738095Y-94457142D01*
X164785714Y-94361904D01*
X164785714Y-94123809D01*
X164738095Y-94028571D01*
X164690476Y-93980952D01*
X164595238Y-93933333D01*
X164404761Y-93933333D01*
X164309523Y-93980952D01*
X164261904Y-94028571D01*
X164214285Y-94123809D01*
X163303333Y-57637142D02*
X163255714Y-57684761D01*
X163112857Y-57732380D01*
X163017619Y-57732380D01*
X162874761Y-57684761D01*
X162779523Y-57589523D01*
X162731904Y-57494285D01*
X162684285Y-57303809D01*
X162684285Y-57160952D01*
X162731904Y-56970476D01*
X162779523Y-56875238D01*
X162874761Y-56780000D01*
X163017619Y-56732380D01*
X163112857Y-56732380D01*
X163255714Y-56780000D01*
X163303333Y-56827619D01*
X163636666Y-56732380D02*
X164255714Y-56732380D01*
X163922380Y-57113333D01*
X164065238Y-57113333D01*
X164160476Y-57160952D01*
X164208095Y-57208571D01*
X164255714Y-57303809D01*
X164255714Y-57541904D01*
X164208095Y-57637142D01*
X164160476Y-57684761D01*
X164065238Y-57732380D01*
X163779523Y-57732380D01*
X163684285Y-57684761D01*
X163636666Y-57637142D01*
X162327142Y-60037142D02*
X162279523Y-60084761D01*
X162136666Y-60132380D01*
X162041428Y-60132380D01*
X161898571Y-60084761D01*
X161803333Y-59989523D01*
X161755714Y-59894285D01*
X161708095Y-59703809D01*
X161708095Y-59560952D01*
X161755714Y-59370476D01*
X161803333Y-59275238D01*
X161898571Y-59180000D01*
X162041428Y-59132380D01*
X162136666Y-59132380D01*
X162279523Y-59180000D01*
X162327142Y-59227619D01*
X163279523Y-60132380D02*
X162708095Y-60132380D01*
X162993809Y-60132380D02*
X162993809Y-59132380D01*
X162898571Y-59275238D01*
X162803333Y-59370476D01*
X162708095Y-59418095D01*
X164231904Y-60132380D02*
X163660476Y-60132380D01*
X163946190Y-60132380D02*
X163946190Y-59132380D01*
X163850952Y-59275238D01*
X163755714Y-59370476D01*
X163660476Y-59418095D01*
X175657142Y-95466666D02*
X175704761Y-95514285D01*
X175752380Y-95657142D01*
X175752380Y-95752380D01*
X175704761Y-95895238D01*
X175609523Y-95990476D01*
X175514285Y-96038095D01*
X175323809Y-96085714D01*
X175180952Y-96085714D01*
X174990476Y-96038095D01*
X174895238Y-95990476D01*
X174800000Y-95895238D01*
X174752380Y-95752380D01*
X174752380Y-95657142D01*
X174800000Y-95514285D01*
X174847619Y-95466666D01*
X174752380Y-95133333D02*
X174752380Y-94466666D01*
X175752380Y-94895238D01*
X161852380Y-92009523D02*
X162852380Y-91342857D01*
X161852380Y-91342857D02*
X162852380Y-92009523D01*
X161947619Y-91009523D02*
X161900000Y-90961904D01*
X161852380Y-90866666D01*
X161852380Y-90628571D01*
X161900000Y-90533333D01*
X161947619Y-90485714D01*
X162042857Y-90438095D01*
X162138095Y-90438095D01*
X162280952Y-90485714D01*
X162852380Y-91057142D01*
X162852380Y-90438095D01*
X168257142Y-80642857D02*
X168304761Y-80690476D01*
X168352380Y-80833333D01*
X168352380Y-80928571D01*
X168304761Y-81071428D01*
X168209523Y-81166666D01*
X168114285Y-81214285D01*
X167923809Y-81261904D01*
X167780952Y-81261904D01*
X167590476Y-81214285D01*
X167495238Y-81166666D01*
X167400000Y-81071428D01*
X167352380Y-80928571D01*
X167352380Y-80833333D01*
X167400000Y-80690476D01*
X167447619Y-80642857D01*
X168352380Y-79690476D02*
X168352380Y-80261904D01*
X168352380Y-79976190D02*
X167352380Y-79976190D01*
X167495238Y-80071428D01*
X167590476Y-80166666D01*
X167638095Y-80261904D01*
X167447619Y-79309523D02*
X167400000Y-79261904D01*
X167352380Y-79166666D01*
X167352380Y-78928571D01*
X167400000Y-78833333D01*
X167447619Y-78785714D01*
X167542857Y-78738095D01*
X167638095Y-78738095D01*
X167780952Y-78785714D01*
X168352380Y-79357142D01*
X168352380Y-78738095D01*
X169357142Y-94857142D02*
X169309523Y-94904761D01*
X169166666Y-94952380D01*
X169071428Y-94952380D01*
X168928571Y-94904761D01*
X168833333Y-94809523D01*
X168785714Y-94714285D01*
X168738095Y-94523809D01*
X168738095Y-94380952D01*
X168785714Y-94190476D01*
X168833333Y-94095238D01*
X168928571Y-94000000D01*
X169071428Y-93952380D01*
X169166666Y-93952380D01*
X169309523Y-94000000D01*
X169357142Y-94047619D01*
X169738095Y-94047619D02*
X169785714Y-94000000D01*
X169880952Y-93952380D01*
X170119047Y-93952380D01*
X170214285Y-94000000D01*
X170261904Y-94047619D01*
X170309523Y-94142857D01*
X170309523Y-94238095D01*
X170261904Y-94380952D01*
X169690476Y-94952380D01*
X170309523Y-94952380D01*
X170928571Y-93952380D02*
X171023809Y-93952380D01*
X171119047Y-94000000D01*
X171166666Y-94047619D01*
X171214285Y-94142857D01*
X171261904Y-94333333D01*
X171261904Y-94571428D01*
X171214285Y-94761904D01*
X171166666Y-94857142D01*
X171119047Y-94904761D01*
X171023809Y-94952380D01*
X170928571Y-94952380D01*
X170833333Y-94904761D01*
X170785714Y-94857142D01*
X170738095Y-94761904D01*
X170690476Y-94571428D01*
X170690476Y-94333333D01*
X170738095Y-94142857D01*
X170785714Y-94047619D01*
X170833333Y-94000000D01*
X170928571Y-93952380D01*
X179452380Y-79761904D02*
X180261904Y-79761904D01*
X180357142Y-79714285D01*
X180404761Y-79666666D01*
X180452380Y-79571428D01*
X180452380Y-79380952D01*
X180404761Y-79285714D01*
X180357142Y-79238095D01*
X180261904Y-79190476D01*
X179452380Y-79190476D01*
X179547619Y-78761904D02*
X179500000Y-78714285D01*
X179452380Y-78619047D01*
X179452380Y-78380952D01*
X179500000Y-78285714D01*
X179547619Y-78238095D01*
X179642857Y-78190476D01*
X179738095Y-78190476D01*
X179880952Y-78238095D01*
X180452380Y-78809523D01*
X180452380Y-78190476D01*
X161303333Y-56237142D02*
X161255714Y-56284761D01*
X161112857Y-56332380D01*
X161017619Y-56332380D01*
X160874761Y-56284761D01*
X160779523Y-56189523D01*
X160731904Y-56094285D01*
X160684285Y-55903809D01*
X160684285Y-55760952D01*
X160731904Y-55570476D01*
X160779523Y-55475238D01*
X160874761Y-55380000D01*
X161017619Y-55332380D01*
X161112857Y-55332380D01*
X161255714Y-55380000D01*
X161303333Y-55427619D01*
X162255714Y-56332380D02*
X161684285Y-56332380D01*
X161970000Y-56332380D02*
X161970000Y-55332380D01*
X161874761Y-55475238D01*
X161779523Y-55570476D01*
X161684285Y-55618095D01*
X172657142Y-80342857D02*
X172704761Y-80390476D01*
X172752380Y-80533333D01*
X172752380Y-80628571D01*
X172704761Y-80771428D01*
X172609523Y-80866666D01*
X172514285Y-80914285D01*
X172323809Y-80961904D01*
X172180952Y-80961904D01*
X171990476Y-80914285D01*
X171895238Y-80866666D01*
X171800000Y-80771428D01*
X171752380Y-80628571D01*
X171752380Y-80533333D01*
X171800000Y-80390476D01*
X171847619Y-80342857D01*
X172752380Y-79390476D02*
X172752380Y-79961904D01*
X172752380Y-79676190D02*
X171752380Y-79676190D01*
X171895238Y-79771428D01*
X171990476Y-79866666D01*
X172038095Y-79961904D01*
X171752380Y-78771428D02*
X171752380Y-78676190D01*
X171800000Y-78580952D01*
X171847619Y-78533333D01*
X171942857Y-78485714D01*
X172133333Y-78438095D01*
X172371428Y-78438095D01*
X172561904Y-78485714D01*
X172657142Y-78533333D01*
X172704761Y-78580952D01*
X172752380Y-78676190D01*
X172752380Y-78771428D01*
X172704761Y-78866666D01*
X172657142Y-78914285D01*
X172561904Y-78961904D01*
X172371428Y-79009523D01*
X172133333Y-79009523D01*
X171942857Y-78961904D01*
X171847619Y-78914285D01*
X171800000Y-78866666D01*
X171752380Y-78771428D01*
X162708095Y-56912380D02*
X162708095Y-57721904D01*
X162755714Y-57817142D01*
X162803333Y-57864761D01*
X162898571Y-57912380D01*
X163089047Y-57912380D01*
X163184285Y-57864761D01*
X163231904Y-57817142D01*
X163279523Y-57721904D01*
X163279523Y-56912380D01*
X163660476Y-56912380D02*
X164279523Y-56912380D01*
X163946190Y-57293333D01*
X164089047Y-57293333D01*
X164184285Y-57340952D01*
X164231904Y-57388571D01*
X164279523Y-57483809D01*
X164279523Y-57721904D01*
X164231904Y-57817142D01*
X164184285Y-57864761D01*
X164089047Y-57912380D01*
X163803333Y-57912380D01*
X163708095Y-57864761D01*
X163660476Y-57817142D01*
X164917142Y-58162857D02*
X164964761Y-58210476D01*
X165012380Y-58353333D01*
X165012380Y-58448571D01*
X164964761Y-58591428D01*
X164869523Y-58686666D01*
X164774285Y-58734285D01*
X164583809Y-58781904D01*
X164440952Y-58781904D01*
X164250476Y-58734285D01*
X164155238Y-58686666D01*
X164060000Y-58591428D01*
X164012380Y-58448571D01*
X164012380Y-58353333D01*
X164060000Y-58210476D01*
X164107619Y-58162857D01*
X165012380Y-57210476D02*
X165012380Y-57781904D01*
X165012380Y-57496190D02*
X164012380Y-57496190D01*
X164155238Y-57591428D01*
X164250476Y-57686666D01*
X164298095Y-57781904D01*
X164012380Y-56353333D02*
X164012380Y-56543809D01*
X164060000Y-56639047D01*
X164107619Y-56686666D01*
X164250476Y-56781904D01*
X164440952Y-56829523D01*
X164821904Y-56829523D01*
X164917142Y-56781904D01*
X164964761Y-56734285D01*
X165012380Y-56639047D01*
X165012380Y-56448571D01*
X164964761Y-56353333D01*
X164917142Y-56305714D01*
X164821904Y-56258095D01*
X164583809Y-56258095D01*
X164488571Y-56305714D01*
X164440952Y-56353333D01*
X164393333Y-56448571D01*
X164393333Y-56639047D01*
X164440952Y-56734285D01*
X164488571Y-56781904D01*
X164583809Y-56829523D01*
D10*
X177960000Y-91384296D02*
X177960000Y-91599968D01*
X177240000Y-91384296D02*
X177240000Y-91599968D01*
X169722780Y-83829968D02*
X169722780Y-83614296D01*
X169002780Y-83829968D02*
X169002780Y-83614296D01*
X167810616Y-92402132D02*
X167594944Y-92402132D01*
X167810616Y-91682132D02*
X167594944Y-91682132D01*
X167810616Y-88652132D02*
X167594944Y-88652132D01*
X167810616Y-89372132D02*
X167594944Y-89372132D01*
X167810616Y-84962132D02*
X167594944Y-84962132D01*
X167810616Y-85682132D02*
X167594944Y-85682132D01*
X173192780Y-83809968D02*
X173192780Y-83594296D01*
X173912780Y-83809968D02*
X173912780Y-83594296D01*
X177877836Y-89360000D02*
X177662164Y-89360000D01*
X177877836Y-88640000D02*
X177662164Y-88640000D01*
D12*
X178822780Y-82972132D02*
X177762780Y-82972132D01*
X176762780Y-84422132D02*
X176762780Y-83882132D01*
X179822780Y-84422132D02*
X179822780Y-83882132D01*
X178822780Y-85322132D02*
X177762780Y-85322132D01*
D10*
X177862780Y-84642132D02*
G75*
G03*
X177542780Y-84322132I-320001J-1D01*
G01*
X176002780Y-83594296D02*
X176002780Y-83809968D01*
X175282780Y-83594296D02*
X175282780Y-83809968D01*
X181260000Y-85877836D02*
X181260000Y-85662164D01*
X180540000Y-85877836D02*
X180540000Y-85662164D01*
X167800616Y-84662132D02*
X167584944Y-84662132D01*
X167800616Y-83942132D02*
X167584944Y-83942132D01*
X167594944Y-89662132D02*
X167810616Y-89662132D01*
X167594944Y-90382132D02*
X167810616Y-90382132D01*
D12*
X169137780Y-92217132D02*
X169137780Y-85117132D01*
X176237780Y-92217132D02*
X169137780Y-92217132D01*
X169137780Y-85117132D02*
X176237780Y-85117132D01*
D10*
X170380280Y-90974632D02*
X174995280Y-90974632D01*
D12*
X176237780Y-85117132D02*
X176237780Y-92217132D01*
D10*
X174995280Y-86359632D02*
X170380280Y-86359632D01*
X174995280Y-90974632D02*
X174995280Y-86359632D01*
D12*
X169137780Y-85827132D02*
X169847780Y-85117132D01*
D10*
X170380280Y-86359632D02*
X170380280Y-90974632D01*
X170380280Y-86714632D02*
X170380280Y-86359632D01*
X170380280Y-86359632D02*
X170735280Y-86359632D01*
X170735280Y-86359632D02*
X170380280Y-86714632D01*
G36*
X170380280Y-86714632D02*
G01*
X170380280Y-86359632D01*
X170735280Y-86359632D01*
X170380280Y-86714632D01*
G37*
X170380280Y-86714632D02*
X170380280Y-86359632D01*
X170735280Y-86359632D01*
X170380280Y-86714632D01*
G36*
X169137780Y-85827132D02*
G01*
X169137780Y-85117132D01*
X169847780Y-85117132D01*
X169137780Y-85827132D01*
G37*
X177630616Y-87452132D02*
X177414944Y-87452132D01*
X177630616Y-88172132D02*
X177414944Y-88172132D01*
X178030616Y-87192132D02*
X177814944Y-87192132D01*
X178030616Y-86472132D02*
X177814944Y-86472132D01*
X178240000Y-91492164D02*
X178240000Y-91707836D01*
X178960000Y-91492164D02*
X178960000Y-91707836D01*
X168502780Y-85962132D02*
X166902780Y-85962132D01*
X168502780Y-88362132D02*
X168502780Y-85962132D01*
X166902780Y-85962132D02*
X166902780Y-88362132D01*
X174962780Y-83809968D02*
X174962780Y-83594296D01*
X174242780Y-83809968D02*
X174242780Y-83594296D01*
X167594944Y-91392132D02*
X167810616Y-91392132D01*
X167594944Y-90672132D02*
X167810616Y-90672132D01*
X178040616Y-85522132D02*
X177824944Y-85522132D01*
X178040616Y-86242132D02*
X177824944Y-86242132D01*
X172862780Y-83799968D02*
X172862780Y-83584296D01*
X172142780Y-83799968D02*
X172142780Y-83584296D01*
D13*
X180300000Y-89610000D02*
X182100000Y-89610000D01*
D10*
X181880000Y-85877836D02*
X181880000Y-85662164D01*
X182600000Y-85877836D02*
X182600000Y-85662164D01*
%LPC*%
D14*
X177750000Y-90022132D03*
X178770000Y-90022132D03*
D15*
X177600000Y-91012132D03*
X177600000Y-91972132D03*
D16*
X169362780Y-84202132D03*
X169362780Y-83242132D03*
D17*
X168182780Y-92042132D03*
X167222780Y-92042132D03*
X168182780Y-89012132D03*
X167222780Y-89012132D03*
X168182780Y-85322132D03*
X167222780Y-85322132D03*
D18*
X170402780Y-83217132D03*
X170402780Y-84187132D03*
D16*
X173552780Y-84182132D03*
X173552780Y-83222132D03*
D19*
X171462780Y-84197132D03*
X171462780Y-83227132D03*
D17*
X178250000Y-89000000D03*
X177290000Y-89000000D03*
D20*
X177192780Y-84952132D03*
X179392780Y-84952132D03*
X179392780Y-83352132D03*
X177192780Y-83352132D03*
D15*
X175642780Y-83222132D03*
X175642780Y-84182132D03*
D16*
X180900000Y-86250000D03*
X180900000Y-85290000D03*
D17*
X168172780Y-84302132D03*
X167212780Y-84302132D03*
D21*
X167222780Y-90022132D03*
X168182780Y-90022132D03*
D22*
X171437780Y-85417132D03*
X171937780Y-85417132D03*
X172437780Y-85417132D03*
X172937780Y-85417132D03*
X173437780Y-85417132D03*
X173937780Y-85417132D03*
X174437780Y-85417132D03*
X174937780Y-85417132D03*
X175437780Y-85417132D03*
X175937780Y-90917132D03*
X169937780Y-91167132D03*
X170687780Y-91417132D03*
X171687780Y-91417132D03*
X172187780Y-91417132D03*
X172687780Y-91417132D03*
X173187780Y-91417132D03*
X173687780Y-91417132D03*
X174187780Y-91417132D03*
X174687780Y-91417132D03*
X175937780Y-91417132D03*
X169937780Y-91917132D03*
X170437780Y-91917132D03*
X170937780Y-91917132D03*
X171437780Y-91917132D03*
X171937780Y-91917132D03*
X172437780Y-91917132D03*
X172937780Y-91917132D03*
X173437780Y-91917132D03*
X173937780Y-91917132D03*
X174437780Y-91917132D03*
X174937780Y-91917132D03*
X175437780Y-91917132D03*
X169437780Y-85917132D03*
X170187780Y-85917132D03*
X170687780Y-85917132D03*
X171187780Y-85917132D03*
X171687780Y-85917132D03*
X172187780Y-85917132D03*
X172687780Y-85917132D03*
X173187780Y-85917132D03*
X173687780Y-85917132D03*
X174187780Y-85917132D03*
X175937780Y-85917132D03*
X169437780Y-86417132D03*
X169937780Y-86667132D03*
X175437780Y-86667132D03*
X175937780Y-86917132D03*
D23*
X172687780Y-88667132D03*
D22*
X169937780Y-87167132D03*
X175437780Y-87167132D03*
X169437780Y-87417132D03*
X169937780Y-87667132D03*
X175437780Y-87667132D03*
X169437780Y-87917132D03*
X175937780Y-87917132D03*
X169937780Y-88167132D03*
X169437780Y-88417132D03*
X175937780Y-88417132D03*
X169937780Y-88667132D03*
X169437780Y-88917132D03*
X175937780Y-88917132D03*
X169937780Y-89167132D03*
X175437780Y-89167132D03*
X169437780Y-89417132D03*
X175937780Y-89417132D03*
X169937780Y-89667132D03*
X175437780Y-89667132D03*
X169437780Y-89917132D03*
X175937780Y-89917132D03*
X175437780Y-90167132D03*
X169437780Y-90417132D03*
X175937780Y-90417132D03*
X169937780Y-90667132D03*
X175437780Y-90667132D03*
D24*
X180000000Y-90304632D03*
X180000000Y-91879632D03*
D25*
X181700000Y-84000000D03*
D17*
X178002780Y-87812132D03*
X177042780Y-87812132D03*
X178402780Y-86832132D03*
X177442780Y-86832132D03*
D25*
X181700000Y-82800000D03*
D15*
X178600000Y-91120000D03*
X178600000Y-92080000D03*
D26*
X167702780Y-86462132D03*
X167702780Y-87862132D03*
D16*
X174602780Y-84182132D03*
X174602780Y-83222132D03*
D21*
X167222780Y-91032132D03*
X168182780Y-91032132D03*
D17*
X178412780Y-85882132D03*
X177452780Y-85882132D03*
D16*
X172502780Y-84172132D03*
X172502780Y-83212132D03*
D27*
X180100000Y-87050000D03*
X180100000Y-88000000D03*
X180100000Y-88950000D03*
X182300000Y-88950000D03*
X182300000Y-87050000D03*
D16*
X182240000Y-86250000D03*
X182240000Y-85290000D03*
M02*
