G04 #@! TF.GenerationSoftware,KiCad,Pcbnew,(7.0.0-0)*
G04 #@! TF.CreationDate,2024-01-25T23:02:32+08:00*
G04 #@! TF.ProjectId,SWDProgrammer,53574450-726f-4677-9261-6d6d65722e6b,rev?*
G04 #@! TF.SameCoordinates,Original*
G04 #@! TF.FileFunction,Copper,L3,Inr*
G04 #@! TF.FilePolarity,Positive*
%FSLAX46Y46*%
G04 Gerber Fmt 4.6, Leading zero omitted, Abs format (unit mm)*
G04 Created by KiCad (PCBNEW (7.0.0-0)) date 2024-01-25 23:02:32*
%MOMM*%
%LPD*%
G01*
G04 APERTURE LIST*
G04 Aperture macros list*
%AMHorizOval*
0 Thick line with rounded ends*
0 $1 width*
0 $2 $3 position (X,Y) of the first rounded end (center of the circle)*
0 $4 $5 position (X,Y) of the second rounded end (center of the circle)*
0 Add line between two ends*
20,1,$1,$2,$3,$4,$5,0*
0 Add two circle primitives to create the rounded ends*
1,1,$1,$2,$3*
1,1,$1,$4,$5*%
G04 Aperture macros list end*
G04 #@! TA.AperFunction,ComponentPad*
%ADD10HorizOval,1.000000X-0.508829X0.317952X0.508829X-0.317952X0*%
G04 #@! TD*
G04 #@! TA.AperFunction,ComponentPad*
%ADD11HorizOval,1.000000X-0.339219X0.211968X0.339219X-0.211968X0*%
G04 #@! TD*
G04 #@! TA.AperFunction,ComponentPad*
%ADD12HorizOval,1.000000X0.594161X0.083504X-0.594161X-0.083504X0*%
G04 #@! TD*
G04 #@! TA.AperFunction,ComponentPad*
%ADD13HorizOval,1.000000X0.396107X0.055669X-0.396107X-0.055669X0*%
G04 #@! TD*
G04 #@! TA.AperFunction,ViaPad*
%ADD14C,0.450000*%
G04 #@! TD*
G04 #@! TA.AperFunction,Conductor*
%ADD15C,0.100000*%
G04 #@! TD*
G04 APERTURE END LIST*
D10*
X148316797Y-78015415D03*
X154225715Y-68559170D03*
D11*
X151003291Y-66545222D03*
X145094215Y-76001721D03*
D12*
X155581179Y-62080248D03*
X154029316Y-51038164D03*
D13*
X150266255Y-51566725D03*
X151818161Y-62609105D03*
D14*
X143233206Y-58795658D03*
X145250000Y-71450000D03*
X146075000Y-67900000D03*
X140250000Y-67000000D03*
X145250000Y-54500000D03*
X137950000Y-69250000D03*
X136625000Y-61874500D03*
X147900000Y-65275000D03*
X137700000Y-60550000D03*
X138325000Y-60500000D03*
X141050000Y-70600000D03*
X143771839Y-58904409D03*
X147750000Y-66450000D03*
X149800000Y-61600000D03*
X136900000Y-68400000D03*
X142820000Y-58250000D03*
X138300000Y-67350000D03*
X147850000Y-68450000D03*
X143800000Y-73200000D03*
X146150000Y-57050000D03*
X140200000Y-61000000D03*
X146000000Y-69600000D03*
X146550000Y-70450000D03*
X147100000Y-69700000D03*
X149750000Y-64600000D03*
X149800000Y-63500000D03*
X150000000Y-59700000D03*
X134884560Y-61947724D03*
X149300000Y-54900000D03*
X146175000Y-55725000D03*
X147750000Y-63500000D03*
X139850000Y-63400000D03*
X141250000Y-61800000D03*
X141250000Y-63100000D03*
X149500000Y-57050000D03*
X149300000Y-58050000D03*
X134349999Y-62075001D03*
X148750000Y-57500000D03*
X137200000Y-61975000D03*
X132975000Y-61000000D03*
X139750000Y-58449500D03*
X134350000Y-61525499D03*
X145450000Y-62850000D03*
X133775000Y-61825000D03*
X143300000Y-66900000D03*
X135785499Y-61885780D03*
X143475000Y-52650000D03*
D15*
X140200000Y-60050000D02*
X140200000Y-61000000D01*
X140200000Y-60050000D02*
X143200000Y-57050000D01*
X143200000Y-57050000D02*
X146150000Y-57050000D01*
X148800000Y-59700000D02*
X146150000Y-57050000D01*
X147850000Y-68450000D02*
X148800000Y-67500000D01*
X148800000Y-67500000D02*
X148800000Y-59700000D01*
X139350000Y-59975000D02*
X143600000Y-55725000D01*
X134884560Y-61947724D02*
X135657284Y-61175000D01*
X138875000Y-61175000D02*
X139350000Y-60700000D01*
X143600000Y-55725000D02*
X146175000Y-55725000D01*
X139350000Y-60700000D02*
X139350000Y-59975000D01*
X135657284Y-61175000D02*
X138875000Y-61175000D01*
X149500000Y-57050000D02*
X148550000Y-56100000D01*
X143607842Y-56000000D02*
X139550000Y-60057842D01*
X148550000Y-56100000D02*
X146019669Y-56100000D01*
X145919669Y-56000000D02*
X143607842Y-56000000D01*
X139550000Y-60057842D02*
X139550000Y-60782842D01*
X134624998Y-62350000D02*
X134349999Y-62075001D01*
X134349999Y-62075001D02*
X134350000Y-62075000D01*
X138833342Y-61499500D02*
X136469669Y-61499500D01*
X135975000Y-62350000D02*
X134624998Y-62350000D01*
X136250000Y-62075000D02*
X135975000Y-62350000D01*
X136469669Y-61499500D02*
X136250000Y-61719169D01*
X139550000Y-60782842D02*
X138833342Y-61499500D01*
X146019669Y-56100000D02*
X145919669Y-56000000D01*
X136250000Y-61719169D02*
X136250000Y-62075000D01*
X140000000Y-59967158D02*
X140000000Y-60669669D01*
X147925000Y-56675000D02*
X143292158Y-56675000D01*
X138694669Y-61975000D02*
X137200000Y-61975000D01*
X140000000Y-60669669D02*
X138694669Y-61975000D01*
X148750000Y-57500000D02*
X147925000Y-56675000D01*
X143292158Y-56675000D02*
X140000000Y-59967158D01*
G04 #@! TA.AperFunction,Conductor*
G36*
X154619766Y-49405895D02*
G01*
X154654239Y-49452501D01*
X154830264Y-49867749D01*
X154831535Y-49870864D01*
X154944557Y-50159000D01*
X154952643Y-50215141D01*
X154934884Y-50269011D01*
X154894994Y-50309335D01*
X154841320Y-50327678D01*
X154792715Y-50321214D01*
X154792530Y-50321980D01*
X154785277Y-50320225D01*
X154785094Y-50320201D01*
X154784949Y-50320146D01*
X154784945Y-50320145D01*
X154777653Y-50317375D01*
X154769902Y-50316505D01*
X154769900Y-50316505D01*
X154622078Y-50299924D01*
X154622071Y-50299924D01*
X154614323Y-50299055D01*
X154606595Y-50300140D01*
X154606594Y-50300141D01*
X153307961Y-50482651D01*
X153307946Y-50482654D01*
X153304097Y-50483195D01*
X153300340Y-50484215D01*
X153300334Y-50484217D01*
X153192827Y-50513426D01*
X153192820Y-50513428D01*
X153185300Y-50515472D01*
X153178521Y-50519322D01*
X153178516Y-50519325D01*
X153049180Y-50592798D01*
X153049176Y-50592800D01*
X153042395Y-50596653D01*
X153036781Y-50602073D01*
X153036780Y-50602075D01*
X152929781Y-50705401D01*
X152929775Y-50705408D01*
X152924167Y-50710824D01*
X152920080Y-50717467D01*
X152920077Y-50717471D01*
X152842138Y-50844159D01*
X152842136Y-50844162D01*
X152838048Y-50850808D01*
X152835741Y-50858257D01*
X152835740Y-50858262D01*
X152830082Y-50876541D01*
X152789447Y-51007813D01*
X152789066Y-51015600D01*
X152789065Y-51015607D01*
X152781799Y-51164181D01*
X152781799Y-51164188D01*
X152781419Y-51171971D01*
X152814467Y-51332969D01*
X152817883Y-51339974D01*
X152817884Y-51339975D01*
X152883094Y-51473677D01*
X152883096Y-51473680D01*
X152886515Y-51480690D01*
X152891570Y-51486630D01*
X152891573Y-51486634D01*
X152931247Y-51533250D01*
X152993037Y-51605852D01*
X153127338Y-51700591D01*
X153280981Y-51758955D01*
X153283562Y-51759244D01*
X153340489Y-51791395D01*
X153373165Y-51850768D01*
X153369746Y-51918453D01*
X153331254Y-51974231D01*
X153269186Y-52001442D01*
X151068659Y-52303421D01*
X151001703Y-52294002D01*
X150949643Y-52250856D01*
X150927957Y-52186813D01*
X150943094Y-52120915D01*
X150990550Y-52072755D01*
X151055124Y-52036073D01*
X151173351Y-51921903D01*
X151259470Y-51781918D01*
X151308071Y-51624913D01*
X151316100Y-51460755D01*
X151283052Y-51299758D01*
X151211004Y-51152036D01*
X151205947Y-51146094D01*
X151205945Y-51146091D01*
X151109542Y-51032820D01*
X151104482Y-51026874D01*
X151086447Y-51014152D01*
X150976556Y-50936632D01*
X150976555Y-50936631D01*
X150970181Y-50932135D01*
X150816538Y-50873771D01*
X150808787Y-50872901D01*
X150808785Y-50872901D01*
X150660963Y-50856320D01*
X150660956Y-50856320D01*
X150653208Y-50855451D01*
X150645480Y-50856536D01*
X150645479Y-50856537D01*
X149742955Y-50983377D01*
X149742940Y-50983380D01*
X149739091Y-50983921D01*
X149735333Y-50984941D01*
X149735328Y-50984943D01*
X149627819Y-51014152D01*
X149627810Y-51014155D01*
X149620293Y-51016198D01*
X149613514Y-51020048D01*
X149613509Y-51020051D01*
X149484173Y-51093524D01*
X149484169Y-51093526D01*
X149477388Y-51097379D01*
X149471774Y-51102799D01*
X149471773Y-51102801D01*
X149364775Y-51206127D01*
X149364772Y-51206129D01*
X149359161Y-51211549D01*
X149355076Y-51218187D01*
X149355071Y-51218195D01*
X149277130Y-51344888D01*
X149277128Y-51344891D01*
X149273042Y-51351534D01*
X149270735Y-51358984D01*
X149270734Y-51358988D01*
X149233374Y-51479677D01*
X149224440Y-51508539D01*
X149224059Y-51516325D01*
X149224058Y-51516332D01*
X149216792Y-51664907D01*
X149216792Y-51664914D01*
X149216412Y-51672697D01*
X149217979Y-51680334D01*
X149217980Y-51680337D01*
X149221427Y-51697127D01*
X149249460Y-51833694D01*
X149252876Y-51840699D01*
X149252877Y-51840700D01*
X149318003Y-51974231D01*
X149321508Y-51981416D01*
X149428029Y-52106578D01*
X149562330Y-52201317D01*
X149715973Y-52259681D01*
X149753865Y-52263931D01*
X149810124Y-52284861D01*
X149849961Y-52329763D01*
X149864040Y-52388115D01*
X149849062Y-52446242D01*
X149810026Y-52488897D01*
X149799202Y-52492982D01*
X149789566Y-52503094D01*
X149786226Y-52505308D01*
X149777736Y-52512449D01*
X149774980Y-52515363D01*
X149763367Y-52523122D01*
X149756268Y-52535151D01*
X149752448Y-52539192D01*
X149748546Y-52544356D01*
X149745702Y-52549133D01*
X149736068Y-52559247D01*
X149731774Y-52572537D01*
X149729722Y-52575986D01*
X149725170Y-52586105D01*
X149723953Y-52589919D01*
X149716857Y-52601949D01*
X149715681Y-52615866D01*
X149713990Y-52621172D01*
X149712719Y-52627498D01*
X149712229Y-52633047D01*
X149707936Y-52646341D01*
X149709835Y-52660181D01*
X149709835Y-52660182D01*
X149711138Y-52669678D01*
X149708970Y-52669975D01*
X149708940Y-52670315D01*
X149708953Y-52670365D01*
X149711106Y-52670062D01*
X149714216Y-52692110D01*
X149714279Y-52692569D01*
X149720379Y-52737017D01*
X149717687Y-52737386D01*
X149717740Y-52737752D01*
X149720599Y-52737349D01*
X150972015Y-61607295D01*
X150968592Y-61607777D01*
X150968597Y-61607808D01*
X150972006Y-61607327D01*
X150978187Y-61651035D01*
X150978193Y-61651077D01*
X150981560Y-61674945D01*
X150979472Y-61675239D01*
X150979484Y-61675270D01*
X150981572Y-61674975D01*
X150982638Y-61682518D01*
X150984821Y-61697951D01*
X150992582Y-61709561D01*
X150994307Y-61714076D01*
X150998265Y-61721737D01*
X151000950Y-61725757D01*
X151005931Y-61738807D01*
X151016079Y-61748402D01*
X151018695Y-61752318D01*
X151024496Y-61759186D01*
X151027920Y-61762422D01*
X151035687Y-61774040D01*
X151047724Y-61781136D01*
X151051242Y-61784461D01*
X151058115Y-61789632D01*
X151062282Y-61792090D01*
X151072434Y-61801690D01*
X151085744Y-61805933D01*
X151089803Y-61808328D01*
X151098008Y-61811999D01*
X151102492Y-61813427D01*
X151114529Y-61820524D01*
X151128453Y-61821694D01*
X151133063Y-61823163D01*
X151150908Y-61826710D01*
X151157706Y-61828878D01*
X151208729Y-61860360D01*
X151239019Y-61912106D01*
X151241488Y-61972015D01*
X151215560Y-62026078D01*
X151171984Y-62058200D01*
X151172199Y-62058578D01*
X151169027Y-62060379D01*
X151169021Y-62060383D01*
X151165421Y-62062428D01*
X151165417Y-62062430D01*
X151036079Y-62135904D01*
X151036075Y-62135906D01*
X151029294Y-62139759D01*
X151023680Y-62145179D01*
X151023679Y-62145181D01*
X150916681Y-62248507D01*
X150916678Y-62248509D01*
X150911067Y-62253929D01*
X150906982Y-62260567D01*
X150906977Y-62260575D01*
X150829036Y-62387268D01*
X150829034Y-62387271D01*
X150824948Y-62393914D01*
X150822641Y-62401364D01*
X150822640Y-62401368D01*
X150791734Y-62501209D01*
X150776346Y-62550919D01*
X150775965Y-62558705D01*
X150775964Y-62558712D01*
X150768698Y-62707287D01*
X150768698Y-62707294D01*
X150768318Y-62715077D01*
X150769885Y-62722714D01*
X150769886Y-62722717D01*
X150783286Y-62787996D01*
X150801366Y-62876074D01*
X150804782Y-62883079D01*
X150804783Y-62883080D01*
X150857983Y-62992159D01*
X150873414Y-63023796D01*
X150979935Y-63148958D01*
X151114236Y-63243697D01*
X151267879Y-63302061D01*
X151431210Y-63320381D01*
X152345327Y-63191911D01*
X152464124Y-63159634D01*
X152607030Y-63078453D01*
X152725257Y-62964283D01*
X152811376Y-62824298D01*
X152859977Y-62667293D01*
X152868006Y-62503135D01*
X152834958Y-62342138D01*
X152762910Y-62194416D01*
X152757853Y-62188474D01*
X152757851Y-62188471D01*
X152699907Y-62120388D01*
X152656388Y-62069254D01*
X152646714Y-62062430D01*
X152528462Y-61979012D01*
X152528461Y-61979011D01*
X152522087Y-61974515D01*
X152368444Y-61916151D01*
X152360693Y-61915281D01*
X152360691Y-61915281D01*
X152324778Y-61911253D01*
X152269275Y-61890836D01*
X152229540Y-61847034D01*
X152214613Y-61789810D01*
X152227888Y-61732180D01*
X152266345Y-61687253D01*
X152321237Y-61665247D01*
X154640336Y-61337308D01*
X154707422Y-61346494D01*
X154759681Y-61389551D01*
X154781529Y-61453642D01*
X154766453Y-61519654D01*
X154718946Y-61567904D01*
X154601043Y-61634882D01*
X154601039Y-61634884D01*
X154594258Y-61638737D01*
X154588644Y-61644157D01*
X154588643Y-61644159D01*
X154481644Y-61747485D01*
X154481638Y-61747492D01*
X154476030Y-61752908D01*
X154471943Y-61759551D01*
X154471940Y-61759555D01*
X154394001Y-61886243D01*
X154393999Y-61886246D01*
X154389911Y-61892892D01*
X154387604Y-61900341D01*
X154387603Y-61900346D01*
X154363252Y-61979012D01*
X154341310Y-62049897D01*
X154340929Y-62057684D01*
X154340928Y-62057691D01*
X154333662Y-62206265D01*
X154333662Y-62206272D01*
X154333282Y-62214055D01*
X154334849Y-62221692D01*
X154334850Y-62221695D01*
X154350609Y-62298466D01*
X154366330Y-62375053D01*
X154369746Y-62382058D01*
X154369747Y-62382059D01*
X154434957Y-62515761D01*
X154434959Y-62515764D01*
X154438378Y-62522774D01*
X154443433Y-62528714D01*
X154443436Y-62528718D01*
X154472303Y-62562636D01*
X154544900Y-62647936D01*
X154679201Y-62742675D01*
X154832844Y-62801039D01*
X154996174Y-62819359D01*
X156306400Y-62635219D01*
X156425197Y-62602942D01*
X156496150Y-62562634D01*
X156560827Y-62546500D01*
X156624516Y-62566189D01*
X156668806Y-62616012D01*
X156680897Y-62681570D01*
X156663807Y-62871431D01*
X156663339Y-62875766D01*
X156546361Y-63807153D01*
X156545742Y-63811470D01*
X156396078Y-64738223D01*
X156395307Y-64742515D01*
X156213156Y-65663404D01*
X156212235Y-65667666D01*
X155997810Y-66581610D01*
X155996739Y-66585837D01*
X155750324Y-67491629D01*
X155749106Y-67495816D01*
X155470983Y-68392422D01*
X155469617Y-68396566D01*
X155457525Y-68431193D01*
X155422563Y-68483236D01*
X155366610Y-68511523D01*
X155303971Y-68508822D01*
X155250661Y-68475825D01*
X155148948Y-68369015D01*
X155142331Y-68364880D01*
X154030195Y-67669940D01*
X154030191Y-67669937D01*
X154026893Y-67667877D01*
X153935833Y-67625801D01*
X153922225Y-67619513D01*
X153922222Y-67619512D01*
X153915143Y-67616241D01*
X153907477Y-67614834D01*
X153907471Y-67614832D01*
X153761163Y-67587980D01*
X153761158Y-67587979D01*
X153753488Y-67586572D01*
X153745705Y-67587116D01*
X153745703Y-67587116D01*
X153597318Y-67597491D01*
X153597312Y-67597492D01*
X153589534Y-67598036D01*
X153582137Y-67600496D01*
X153582130Y-67600498D01*
X153440986Y-67647450D01*
X153440978Y-67647453D01*
X153433582Y-67649914D01*
X153427028Y-67654137D01*
X153427021Y-67654141D01*
X153311402Y-67728654D01*
X153295431Y-67738947D01*
X153290136Y-67744664D01*
X153290130Y-67744670D01*
X153189062Y-67853813D01*
X153189057Y-67853819D01*
X153183762Y-67859538D01*
X153180054Y-67866394D01*
X153180050Y-67866401D01*
X153109304Y-67997243D01*
X153109301Y-67997249D01*
X153105591Y-68004112D01*
X153103704Y-68011676D01*
X153103702Y-68011684D01*
X153067715Y-68156017D01*
X153067714Y-68156024D01*
X153065829Y-68163585D01*
X153065883Y-68171381D01*
X153065883Y-68171385D01*
X153066855Y-68310492D01*
X153066977Y-68327936D01*
X153068969Y-68335476D01*
X153068970Y-68335482D01*
X153106966Y-68479292D01*
X153106967Y-68479295D01*
X153108960Y-68486837D01*
X153121247Y-68508822D01*
X153173301Y-68601962D01*
X153189040Y-68664569D01*
X153171176Y-68726604D01*
X153124551Y-68771252D01*
X153061801Y-68786413D01*
X152999934Y-68767978D01*
X152675067Y-68567482D01*
X152258663Y-68310492D01*
X151151162Y-67626982D01*
X151105387Y-67576933D01*
X151092790Y-67510289D01*
X151117142Y-67446986D01*
X151171155Y-67405965D01*
X151238669Y-67399497D01*
X151305910Y-67411838D01*
X151469864Y-67400374D01*
X151625816Y-67348496D01*
X151763967Y-67259464D01*
X151875636Y-67138872D01*
X151953807Y-66994298D01*
X151993569Y-66834825D01*
X151992421Y-66670475D01*
X151950438Y-66511573D01*
X151870256Y-66368104D01*
X151756914Y-66249083D01*
X151722243Y-66227418D01*
X150977382Y-65761976D01*
X150977378Y-65761973D01*
X150974080Y-65759913D01*
X150927870Y-65738561D01*
X150869411Y-65711549D01*
X150869408Y-65711548D01*
X150862329Y-65708277D01*
X150854663Y-65706870D01*
X150854657Y-65706868D01*
X150708349Y-65680016D01*
X150708344Y-65680015D01*
X150700674Y-65678608D01*
X150692891Y-65679152D01*
X150692889Y-65679152D01*
X150544504Y-65689527D01*
X150544498Y-65689528D01*
X150536720Y-65690072D01*
X150529323Y-65692532D01*
X150529316Y-65692534D01*
X150388174Y-65739486D01*
X150388169Y-65739488D01*
X150380769Y-65741950D01*
X150374209Y-65746177D01*
X150374208Y-65746178D01*
X150349695Y-65761976D01*
X150242617Y-65830983D01*
X150237322Y-65836700D01*
X150237316Y-65836706D01*
X150136248Y-65945849D01*
X150136243Y-65945855D01*
X150130948Y-65951574D01*
X150127240Y-65958430D01*
X150127236Y-65958437D01*
X150056490Y-66089279D01*
X150056487Y-66089285D01*
X150052777Y-66096148D01*
X150050890Y-66103712D01*
X150050888Y-66103720D01*
X150014901Y-66248053D01*
X150014900Y-66248060D01*
X150013015Y-66255621D01*
X150013069Y-66263417D01*
X150013069Y-66263421D01*
X150014108Y-66412166D01*
X150014163Y-66419971D01*
X150016155Y-66427511D01*
X150016156Y-66427517D01*
X150054152Y-66571328D01*
X150054153Y-66571331D01*
X150056146Y-66578873D01*
X150136328Y-66722342D01*
X150141707Y-66727991D01*
X150141709Y-66727993D01*
X150171763Y-66759553D01*
X150201347Y-66811539D01*
X150203152Y-66871326D01*
X150176759Y-66925003D01*
X150128309Y-66960079D01*
X150069075Y-66968393D01*
X150059350Y-66967376D01*
X150046130Y-66962870D01*
X150032265Y-66964545D01*
X150026314Y-66963923D01*
X150021058Y-66963951D01*
X150015111Y-66964635D01*
X150001230Y-66963106D01*
X149988061Y-66967749D01*
X149984441Y-66968166D01*
X149972569Y-66970941D01*
X149969131Y-66972174D01*
X149955265Y-66973851D01*
X149943497Y-66981376D01*
X149937867Y-66983398D01*
X149933138Y-66985706D01*
X149928085Y-66988897D01*
X149914914Y-66993543D01*
X149905061Y-67003442D01*
X149901979Y-67005390D01*
X149892491Y-67013038D01*
X149889931Y-67015639D01*
X149878163Y-67023167D01*
X149870827Y-67035052D01*
X149870823Y-67035057D01*
X149854614Y-67061320D01*
X149854248Y-67061910D01*
X145086753Y-74690215D01*
X145084149Y-74688587D01*
X145083896Y-74688996D01*
X145086319Y-74690494D01*
X145062616Y-74728833D01*
X145062300Y-74729341D01*
X145052699Y-74744703D01*
X145051236Y-74747046D01*
X145050800Y-74747743D01*
X145048917Y-74746566D01*
X145048753Y-74747046D01*
X145050636Y-74748210D01*
X145045536Y-74756459D01*
X145045535Y-74756461D01*
X145038191Y-74768342D01*
X145036728Y-74782233D01*
X145034849Y-74787732D01*
X145033595Y-74793349D01*
X145032958Y-74799126D01*
X145028378Y-74812319D01*
X145029974Y-74826192D01*
X145029559Y-74829965D01*
X145029616Y-74841699D01*
X145030069Y-74845472D01*
X145028607Y-74859364D01*
X145033316Y-74872515D01*
X145034010Y-74878291D01*
X145035314Y-74883882D01*
X145037248Y-74889367D01*
X145038846Y-74903244D01*
X145046306Y-74915053D01*
X145047573Y-74918646D01*
X145052704Y-74929170D01*
X145054752Y-74932378D01*
X145059463Y-74945532D01*
X145069414Y-74955339D01*
X145072551Y-74960251D01*
X145083249Y-74973534D01*
X145086365Y-74978468D01*
X145105173Y-75035385D01*
X145095085Y-75094474D01*
X145058457Y-75141927D01*
X145003850Y-75166653D01*
X144953492Y-75163472D01*
X144953253Y-75164776D01*
X144799273Y-75136515D01*
X144799268Y-75136514D01*
X144791598Y-75135107D01*
X144783815Y-75135651D01*
X144783813Y-75135651D01*
X144635428Y-75146026D01*
X144635422Y-75146027D01*
X144627644Y-75146571D01*
X144620247Y-75149031D01*
X144620240Y-75149033D01*
X144479098Y-75195985D01*
X144479093Y-75195987D01*
X144471693Y-75198449D01*
X144465133Y-75202676D01*
X144465132Y-75202677D01*
X144443820Y-75216412D01*
X144333541Y-75287482D01*
X144328246Y-75293199D01*
X144328240Y-75293205D01*
X144227172Y-75402348D01*
X144227167Y-75402354D01*
X144221872Y-75408073D01*
X144218164Y-75414929D01*
X144218160Y-75414936D01*
X144147414Y-75545778D01*
X144147411Y-75545784D01*
X144143701Y-75552647D01*
X144141814Y-75560211D01*
X144141812Y-75560219D01*
X144105825Y-75704551D01*
X144105823Y-75704560D01*
X144103939Y-75712120D01*
X144103993Y-75719917D01*
X144103492Y-75724125D01*
X144077346Y-75786713D01*
X144022181Y-75826179D01*
X143954503Y-75830716D01*
X143894564Y-75798966D01*
X141182812Y-73200000D01*
X143419819Y-73200000D01*
X143421346Y-73209641D01*
X143436898Y-73307840D01*
X143436899Y-73307845D01*
X143438426Y-73317482D01*
X143492427Y-73423465D01*
X143576535Y-73507573D01*
X143682518Y-73561574D01*
X143800000Y-73580181D01*
X143917482Y-73561574D01*
X144023465Y-73507573D01*
X144107573Y-73423465D01*
X144161574Y-73317482D01*
X144180181Y-73200000D01*
X144161574Y-73082518D01*
X144107573Y-72976535D01*
X144023465Y-72892427D01*
X143917482Y-72838426D01*
X143907845Y-72836899D01*
X143907840Y-72836898D01*
X143809641Y-72821346D01*
X143800000Y-72819819D01*
X143790359Y-72821346D01*
X143692159Y-72836898D01*
X143692152Y-72836900D01*
X143682518Y-72838426D01*
X143673822Y-72842856D01*
X143673821Y-72842857D01*
X143585230Y-72887996D01*
X143585226Y-72887998D01*
X143576535Y-72892427D01*
X143569636Y-72899325D01*
X143569633Y-72899328D01*
X143499328Y-72969633D01*
X143499325Y-72969636D01*
X143492427Y-72976535D01*
X143487998Y-72985226D01*
X143487996Y-72985230D01*
X143442857Y-73073821D01*
X143438426Y-73082518D01*
X143436900Y-73092152D01*
X143436898Y-73092159D01*
X143421947Y-73186559D01*
X143419819Y-73200000D01*
X141182812Y-73200000D01*
X139356868Y-71450000D01*
X144869819Y-71450000D01*
X144871346Y-71459641D01*
X144886898Y-71557840D01*
X144886899Y-71557845D01*
X144888426Y-71567482D01*
X144942427Y-71673465D01*
X145026535Y-71757573D01*
X145132518Y-71811574D01*
X145250000Y-71830181D01*
X145367482Y-71811574D01*
X145473465Y-71757573D01*
X145557573Y-71673465D01*
X145611574Y-71567482D01*
X145630181Y-71450000D01*
X145611574Y-71332518D01*
X145557573Y-71226535D01*
X145473465Y-71142427D01*
X145367482Y-71088426D01*
X145357845Y-71086899D01*
X145357840Y-71086898D01*
X145259641Y-71071346D01*
X145250000Y-71069819D01*
X145240359Y-71071346D01*
X145142159Y-71086898D01*
X145142152Y-71086900D01*
X145132518Y-71088426D01*
X145123822Y-71092856D01*
X145123821Y-71092857D01*
X145035230Y-71137996D01*
X145035226Y-71137998D01*
X145026535Y-71142427D01*
X145019636Y-71149325D01*
X145019633Y-71149328D01*
X144949328Y-71219633D01*
X144949325Y-71219636D01*
X144942427Y-71226535D01*
X144937998Y-71235226D01*
X144937996Y-71235230D01*
X144892857Y-71323821D01*
X144888426Y-71332518D01*
X144886900Y-71342152D01*
X144886898Y-71342159D01*
X144871947Y-71436559D01*
X144869819Y-71450000D01*
X139356868Y-71450000D01*
X138313472Y-70450000D01*
X146169819Y-70450000D01*
X146171346Y-70459641D01*
X146186898Y-70557840D01*
X146186899Y-70557845D01*
X146188426Y-70567482D01*
X146242427Y-70673465D01*
X146326535Y-70757573D01*
X146432518Y-70811574D01*
X146550000Y-70830181D01*
X146667482Y-70811574D01*
X146773465Y-70757573D01*
X146857573Y-70673465D01*
X146911574Y-70567482D01*
X146930181Y-70450000D01*
X146911574Y-70332518D01*
X146889491Y-70289178D01*
X146865659Y-70242403D01*
X146852526Y-70176380D01*
X146875826Y-70113223D01*
X146928692Y-70071548D01*
X146995539Y-70063636D01*
X147100000Y-70080181D01*
X147217482Y-70061574D01*
X147323465Y-70007573D01*
X147407573Y-69923465D01*
X147461574Y-69817482D01*
X147480181Y-69700000D01*
X147461574Y-69582518D01*
X147407573Y-69476535D01*
X147323465Y-69392427D01*
X147217482Y-69338426D01*
X147207845Y-69336899D01*
X147207840Y-69336898D01*
X147109641Y-69321346D01*
X147100000Y-69319819D01*
X147090359Y-69321346D01*
X146992159Y-69336898D01*
X146992152Y-69336900D01*
X146982518Y-69338426D01*
X146973822Y-69342856D01*
X146973821Y-69342857D01*
X146885230Y-69387996D01*
X146885226Y-69387998D01*
X146876535Y-69392427D01*
X146869636Y-69399325D01*
X146869633Y-69399328D01*
X146799328Y-69469633D01*
X146799325Y-69469636D01*
X146792427Y-69476535D01*
X146787998Y-69485226D01*
X146787996Y-69485230D01*
X146747498Y-69564713D01*
X146738426Y-69582518D01*
X146736900Y-69592152D01*
X146736898Y-69592159D01*
X146727712Y-69650162D01*
X146719819Y-69700000D01*
X146721346Y-69709641D01*
X146736898Y-69807840D01*
X146736899Y-69807845D01*
X146738426Y-69817482D01*
X146742857Y-69826178D01*
X146742858Y-69826181D01*
X146784340Y-69907596D01*
X146797473Y-69973620D01*
X146774173Y-70036776D01*
X146721308Y-70078451D01*
X146654458Y-70086363D01*
X146559642Y-70071346D01*
X146559641Y-70071346D01*
X146550000Y-70069819D01*
X146536559Y-70071947D01*
X146442159Y-70086898D01*
X146442152Y-70086900D01*
X146432518Y-70088426D01*
X146423822Y-70092856D01*
X146423821Y-70092857D01*
X146335230Y-70137996D01*
X146335226Y-70137998D01*
X146326535Y-70142427D01*
X146319636Y-70149325D01*
X146319633Y-70149328D01*
X146249328Y-70219633D01*
X146249325Y-70219636D01*
X146242427Y-70226535D01*
X146237998Y-70235226D01*
X146237996Y-70235230D01*
X146192859Y-70323818D01*
X146188426Y-70332518D01*
X146186900Y-70342152D01*
X146186898Y-70342159D01*
X146180269Y-70384018D01*
X146169819Y-70450000D01*
X138313472Y-70450000D01*
X137598454Y-69764721D01*
X137563717Y-69704299D01*
X137566540Y-69645481D01*
X137506415Y-69650162D01*
X137445605Y-69618229D01*
X137061396Y-69250000D01*
X137569819Y-69250000D01*
X137571346Y-69259641D01*
X137586898Y-69357840D01*
X137586899Y-69357845D01*
X137588426Y-69367482D01*
X137641890Y-69472411D01*
X137654903Y-69539851D01*
X137646208Y-69562225D01*
X137672061Y-69551799D01*
X137740547Y-69564712D01*
X137789505Y-69589658D01*
X137823821Y-69607143D01*
X137823822Y-69607143D01*
X137832518Y-69611574D01*
X137950000Y-69630181D01*
X138067482Y-69611574D01*
X138090197Y-69600000D01*
X145619819Y-69600000D01*
X145621346Y-69609641D01*
X145636898Y-69707840D01*
X145636899Y-69707845D01*
X145638426Y-69717482D01*
X145692427Y-69823465D01*
X145776535Y-69907573D01*
X145882518Y-69961574D01*
X146000000Y-69980181D01*
X146117482Y-69961574D01*
X146223465Y-69907573D01*
X146307573Y-69823465D01*
X146361574Y-69717482D01*
X146380181Y-69600000D01*
X146361574Y-69482518D01*
X146307573Y-69376535D01*
X146223465Y-69292427D01*
X146117482Y-69238426D01*
X146107845Y-69236899D01*
X146107840Y-69236898D01*
X146009641Y-69221346D01*
X146000000Y-69219819D01*
X145990359Y-69221346D01*
X145892159Y-69236898D01*
X145892152Y-69236900D01*
X145882518Y-69238426D01*
X145873822Y-69242856D01*
X145873821Y-69242857D01*
X145785230Y-69287996D01*
X145785226Y-69287998D01*
X145776535Y-69292427D01*
X145769636Y-69299325D01*
X145769633Y-69299328D01*
X145699328Y-69369633D01*
X145699325Y-69369636D01*
X145692427Y-69376535D01*
X145687998Y-69385226D01*
X145687996Y-69385230D01*
X145642857Y-69473821D01*
X145638426Y-69482518D01*
X145636900Y-69492152D01*
X145636898Y-69492159D01*
X145626011Y-69560902D01*
X145619819Y-69600000D01*
X138090197Y-69600000D01*
X138173465Y-69557573D01*
X138257573Y-69473465D01*
X138311574Y-69367482D01*
X138330181Y-69250000D01*
X138311574Y-69132518D01*
X138257573Y-69026535D01*
X138173465Y-68942427D01*
X138067482Y-68888426D01*
X138057845Y-68886899D01*
X138057840Y-68886898D01*
X137959641Y-68871346D01*
X137950000Y-68869819D01*
X137940359Y-68871346D01*
X137842159Y-68886898D01*
X137842152Y-68886900D01*
X137832518Y-68888426D01*
X137823822Y-68892856D01*
X137823821Y-68892857D01*
X137735230Y-68937996D01*
X137735226Y-68937998D01*
X137726535Y-68942427D01*
X137719636Y-68949325D01*
X137719633Y-68949328D01*
X137649328Y-69019633D01*
X137649325Y-69019636D01*
X137642427Y-69026535D01*
X137637998Y-69035226D01*
X137637996Y-69035230D01*
X137592857Y-69123821D01*
X137588426Y-69132518D01*
X137586900Y-69142152D01*
X137586898Y-69142159D01*
X137574599Y-69219819D01*
X137569819Y-69250000D01*
X137061396Y-69250000D01*
X135888685Y-68126064D01*
X135860434Y-68085207D01*
X135850485Y-68036541D01*
X135850485Y-67900000D01*
X145694819Y-67900000D01*
X145696346Y-67909641D01*
X145711898Y-68007840D01*
X145711899Y-68007845D01*
X145713426Y-68017482D01*
X145767427Y-68123465D01*
X145851535Y-68207573D01*
X145957518Y-68261574D01*
X146075000Y-68280181D01*
X146192482Y-68261574D01*
X146298465Y-68207573D01*
X146382573Y-68123465D01*
X146436574Y-68017482D01*
X146455181Y-67900000D01*
X146436574Y-67782518D01*
X146382573Y-67676535D01*
X146298465Y-67592427D01*
X146289737Y-67587980D01*
X146201178Y-67542857D01*
X146192482Y-67538426D01*
X146182845Y-67536899D01*
X146182840Y-67536898D01*
X146084641Y-67521346D01*
X146075000Y-67519819D01*
X146065359Y-67521346D01*
X145967159Y-67536898D01*
X145967152Y-67536900D01*
X145957518Y-67538426D01*
X145948822Y-67542856D01*
X145948821Y-67542857D01*
X145860230Y-67587996D01*
X145860226Y-67587998D01*
X145851535Y-67592427D01*
X145844636Y-67599325D01*
X145844633Y-67599328D01*
X145774328Y-67669633D01*
X145774325Y-67669636D01*
X145767427Y-67676535D01*
X145762998Y-67685226D01*
X145762996Y-67685230D01*
X145717857Y-67773821D01*
X145713426Y-67782518D01*
X145711900Y-67792152D01*
X145711898Y-67792159D01*
X145702134Y-67853813D01*
X145694819Y-67900000D01*
X135850485Y-67900000D01*
X135850485Y-67350000D01*
X137919819Y-67350000D01*
X137921346Y-67359641D01*
X137936898Y-67457840D01*
X137936899Y-67457845D01*
X137938426Y-67467482D01*
X137992427Y-67573465D01*
X138076535Y-67657573D01*
X138182518Y-67711574D01*
X138300000Y-67730181D01*
X138417482Y-67711574D01*
X138523465Y-67657573D01*
X138607573Y-67573465D01*
X138661574Y-67467482D01*
X138680181Y-67350000D01*
X138661574Y-67232518D01*
X138607573Y-67126535D01*
X138523465Y-67042427D01*
X138440197Y-67000000D01*
X139869819Y-67000000D01*
X139871346Y-67009641D01*
X139886898Y-67107840D01*
X139886899Y-67107845D01*
X139888426Y-67117482D01*
X139915426Y-67170473D01*
X139934329Y-67207573D01*
X139942427Y-67223465D01*
X140026535Y-67307573D01*
X140132518Y-67361574D01*
X140250000Y-67380181D01*
X140367482Y-67361574D01*
X140473465Y-67307573D01*
X140557573Y-67223465D01*
X140611574Y-67117482D01*
X140630181Y-67000000D01*
X140614343Y-66900000D01*
X142919819Y-66900000D01*
X142921346Y-66909641D01*
X142936898Y-67007840D01*
X142936899Y-67007845D01*
X142938426Y-67017482D01*
X142992427Y-67123465D01*
X143076535Y-67207573D01*
X143182518Y-67261574D01*
X143300000Y-67280181D01*
X143417482Y-67261574D01*
X143523465Y-67207573D01*
X143607573Y-67123465D01*
X143661574Y-67017482D01*
X143680181Y-66900000D01*
X143661574Y-66782518D01*
X143607573Y-66676535D01*
X143523465Y-66592427D01*
X143510531Y-66585837D01*
X143426178Y-66542857D01*
X143417482Y-66538426D01*
X143407845Y-66536899D01*
X143407840Y-66536898D01*
X143309641Y-66521346D01*
X143300000Y-66519819D01*
X143290359Y-66521346D01*
X143192159Y-66536898D01*
X143192152Y-66536900D01*
X143182518Y-66538426D01*
X143173822Y-66542856D01*
X143173821Y-66542857D01*
X143085230Y-66587996D01*
X143085226Y-66587998D01*
X143076535Y-66592427D01*
X143069636Y-66599325D01*
X143069633Y-66599328D01*
X142999328Y-66669633D01*
X142999325Y-66669636D01*
X142992427Y-66676535D01*
X142987998Y-66685226D01*
X142987996Y-66685230D01*
X142950127Y-66759553D01*
X142938426Y-66782518D01*
X142936900Y-66792152D01*
X142936898Y-66792159D01*
X142929106Y-66841363D01*
X142919819Y-66900000D01*
X140614343Y-66900000D01*
X140611574Y-66882518D01*
X140557573Y-66776535D01*
X140473465Y-66692427D01*
X140367482Y-66638426D01*
X140357845Y-66636899D01*
X140357840Y-66636898D01*
X140259641Y-66621346D01*
X140250000Y-66619819D01*
X140240359Y-66621346D01*
X140142159Y-66636898D01*
X140142152Y-66636900D01*
X140132518Y-66638426D01*
X140123822Y-66642856D01*
X140123821Y-66642857D01*
X140035230Y-66687996D01*
X140035226Y-66687998D01*
X140026535Y-66692427D01*
X140019636Y-66699325D01*
X140019633Y-66699328D01*
X139949328Y-66769633D01*
X139949325Y-66769636D01*
X139942427Y-66776535D01*
X139937998Y-66785226D01*
X139937996Y-66785230D01*
X139892857Y-66873821D01*
X139888426Y-66882518D01*
X139886900Y-66892152D01*
X139886898Y-66892159D01*
X139872448Y-66983398D01*
X139869819Y-67000000D01*
X138440197Y-67000000D01*
X138417482Y-66988426D01*
X138407845Y-66986899D01*
X138407840Y-66986898D01*
X138309641Y-66971346D01*
X138300000Y-66969819D01*
X138290359Y-66971346D01*
X138192159Y-66986898D01*
X138192152Y-66986900D01*
X138182518Y-66988426D01*
X138173822Y-66992856D01*
X138173821Y-66992857D01*
X138085230Y-67037996D01*
X138085226Y-67037998D01*
X138076535Y-67042427D01*
X138069636Y-67049325D01*
X138069633Y-67049328D01*
X137999328Y-67119633D01*
X137999325Y-67119636D01*
X137992427Y-67126535D01*
X137987998Y-67135226D01*
X137987996Y-67135230D01*
X137942857Y-67223821D01*
X137938426Y-67232518D01*
X137936900Y-67242152D01*
X137936898Y-67242159D01*
X137925837Y-67312003D01*
X137919819Y-67350000D01*
X135850485Y-67350000D01*
X135850485Y-66574508D01*
X135867098Y-66512508D01*
X135912485Y-66467121D01*
X135974485Y-66450508D01*
X137281775Y-66450508D01*
X137295748Y-66450508D01*
X137308339Y-66444443D01*
X137313000Y-66443380D01*
X137321290Y-66440479D01*
X137325591Y-66438407D01*
X137339216Y-66435298D01*
X137350141Y-66426584D01*
X137354443Y-66424513D01*
X137361881Y-66419839D01*
X137365616Y-66416860D01*
X137378209Y-66410796D01*
X137386922Y-66399868D01*
X137390654Y-66396893D01*
X137396870Y-66390677D01*
X137399845Y-66386945D01*
X137410773Y-66378232D01*
X137416837Y-66365639D01*
X137419816Y-66361904D01*
X137424490Y-66354466D01*
X137426561Y-66350164D01*
X137435275Y-66339239D01*
X137438384Y-66325614D01*
X137440456Y-66321313D01*
X137443357Y-66313023D01*
X137444420Y-66308362D01*
X137450485Y-66295771D01*
X137450485Y-66204245D01*
X137450484Y-66204244D01*
X137450484Y-65275000D01*
X147519819Y-65275000D01*
X147521346Y-65284641D01*
X147536898Y-65382840D01*
X147536899Y-65382845D01*
X147538426Y-65392482D01*
X147592427Y-65498465D01*
X147676535Y-65582573D01*
X147782518Y-65636574D01*
X147900000Y-65655181D01*
X148017482Y-65636574D01*
X148123465Y-65582573D01*
X148207573Y-65498465D01*
X148261574Y-65392482D01*
X148280181Y-65275000D01*
X148261574Y-65157518D01*
X148207573Y-65051535D01*
X148123465Y-64967427D01*
X148017482Y-64913426D01*
X148007845Y-64911899D01*
X148007840Y-64911898D01*
X147909641Y-64896346D01*
X147900000Y-64894819D01*
X147890359Y-64896346D01*
X147792159Y-64911898D01*
X147792152Y-64911900D01*
X147782518Y-64913426D01*
X147773822Y-64917856D01*
X147773821Y-64917857D01*
X147685230Y-64962996D01*
X147685226Y-64962998D01*
X147676535Y-64967427D01*
X147669636Y-64974325D01*
X147669633Y-64974328D01*
X147599328Y-65044633D01*
X147599325Y-65044636D01*
X147592427Y-65051535D01*
X147587998Y-65060226D01*
X147587996Y-65060230D01*
X147542857Y-65148821D01*
X147538426Y-65157518D01*
X147536900Y-65167152D01*
X147536898Y-65167159D01*
X147521947Y-65261559D01*
X147519819Y-65275000D01*
X137450484Y-65275000D01*
X137450484Y-63400000D01*
X139469819Y-63400000D01*
X139471346Y-63409641D01*
X139486898Y-63507840D01*
X139486899Y-63507845D01*
X139488426Y-63517482D01*
X139542427Y-63623465D01*
X139626535Y-63707573D01*
X139732518Y-63761574D01*
X139850000Y-63780181D01*
X139967482Y-63761574D01*
X140073465Y-63707573D01*
X140157573Y-63623465D01*
X140211574Y-63517482D01*
X140214343Y-63500000D01*
X147369819Y-63500000D01*
X147371346Y-63509641D01*
X147386898Y-63607840D01*
X147386899Y-63607845D01*
X147388426Y-63617482D01*
X147392857Y-63626178D01*
X147434329Y-63707573D01*
X147442427Y-63723465D01*
X147526535Y-63807573D01*
X147632518Y-63861574D01*
X147750000Y-63880181D01*
X147867482Y-63861574D01*
X147973465Y-63807573D01*
X148057573Y-63723465D01*
X148111574Y-63617482D01*
X148130181Y-63500000D01*
X148111574Y-63382518D01*
X148057573Y-63276535D01*
X147973465Y-63192427D01*
X147867482Y-63138426D01*
X147857845Y-63136899D01*
X147857840Y-63136898D01*
X147759641Y-63121346D01*
X147750000Y-63119819D01*
X147740359Y-63121346D01*
X147642159Y-63136898D01*
X147642152Y-63136900D01*
X147632518Y-63138426D01*
X147623822Y-63142856D01*
X147623821Y-63142857D01*
X147535230Y-63187996D01*
X147535226Y-63187998D01*
X147526535Y-63192427D01*
X147519636Y-63199325D01*
X147519633Y-63199328D01*
X147449328Y-63269633D01*
X147449325Y-63269636D01*
X147442427Y-63276535D01*
X147437998Y-63285226D01*
X147437996Y-63285230D01*
X147392857Y-63373821D01*
X147388426Y-63382518D01*
X147386900Y-63392152D01*
X147386898Y-63392159D01*
X147376607Y-63457142D01*
X147369819Y-63500000D01*
X140214343Y-63500000D01*
X140230181Y-63400000D01*
X140211574Y-63282518D01*
X140157573Y-63176535D01*
X140081038Y-63100000D01*
X140869819Y-63100000D01*
X140871346Y-63109641D01*
X140886898Y-63207840D01*
X140886899Y-63207845D01*
X140888426Y-63217482D01*
X140942427Y-63323465D01*
X141026535Y-63407573D01*
X141132518Y-63461574D01*
X141250000Y-63480181D01*
X141367482Y-63461574D01*
X141473465Y-63407573D01*
X141557573Y-63323465D01*
X141611574Y-63217482D01*
X141630181Y-63100000D01*
X141611574Y-62982518D01*
X141557573Y-62876535D01*
X141531038Y-62850000D01*
X145069819Y-62850000D01*
X145071346Y-62859641D01*
X145086898Y-62957840D01*
X145086899Y-62957845D01*
X145088426Y-62967482D01*
X145096087Y-62982518D01*
X145126730Y-63042659D01*
X145142427Y-63073465D01*
X145226535Y-63157573D01*
X145332518Y-63211574D01*
X145450000Y-63230181D01*
X145567482Y-63211574D01*
X145673465Y-63157573D01*
X145757573Y-63073465D01*
X145811574Y-62967482D01*
X145830181Y-62850000D01*
X145811574Y-62732518D01*
X145757573Y-62626535D01*
X145673465Y-62542427D01*
X145567482Y-62488426D01*
X145557845Y-62486899D01*
X145557840Y-62486898D01*
X145459641Y-62471346D01*
X145450000Y-62469819D01*
X145440359Y-62471346D01*
X145342159Y-62486898D01*
X145342152Y-62486900D01*
X145332518Y-62488426D01*
X145323822Y-62492856D01*
X145323821Y-62492857D01*
X145235230Y-62537996D01*
X145235226Y-62537998D01*
X145226535Y-62542427D01*
X145219636Y-62549325D01*
X145219633Y-62549328D01*
X145149328Y-62619633D01*
X145149325Y-62619636D01*
X145142427Y-62626535D01*
X145137998Y-62635226D01*
X145137996Y-62635230D01*
X145094896Y-62719819D01*
X145088426Y-62732518D01*
X145086900Y-62742152D01*
X145086898Y-62742159D01*
X145077436Y-62801908D01*
X145069819Y-62850000D01*
X141531038Y-62850000D01*
X141473465Y-62792427D01*
X141367482Y-62738426D01*
X141357845Y-62736899D01*
X141357840Y-62736898D01*
X141259641Y-62721346D01*
X141250000Y-62719819D01*
X141240359Y-62721346D01*
X141142159Y-62736898D01*
X141142152Y-62736900D01*
X141132518Y-62738426D01*
X141123822Y-62742856D01*
X141123821Y-62742857D01*
X141035230Y-62787996D01*
X141035226Y-62787998D01*
X141026535Y-62792427D01*
X141019636Y-62799325D01*
X141019633Y-62799328D01*
X140949328Y-62869633D01*
X140949325Y-62869636D01*
X140942427Y-62876535D01*
X140937998Y-62885226D01*
X140937996Y-62885230D01*
X140896087Y-62967482D01*
X140888426Y-62982518D01*
X140886900Y-62992152D01*
X140886898Y-62992159D01*
X140872929Y-63080366D01*
X140869819Y-63100000D01*
X140081038Y-63100000D01*
X140073465Y-63092427D01*
X140053601Y-63082306D01*
X139976178Y-63042857D01*
X139967482Y-63038426D01*
X139957845Y-63036899D01*
X139957840Y-63036898D01*
X139859641Y-63021346D01*
X139850000Y-63019819D01*
X139840359Y-63021346D01*
X139742159Y-63036898D01*
X139742152Y-63036900D01*
X139732518Y-63038426D01*
X139723822Y-63042856D01*
X139723821Y-63042857D01*
X139635230Y-63087996D01*
X139635226Y-63087998D01*
X139626535Y-63092427D01*
X139619636Y-63099325D01*
X139619633Y-63099328D01*
X139549328Y-63169633D01*
X139549325Y-63169636D01*
X139542427Y-63176535D01*
X139537998Y-63185226D01*
X139537996Y-63185230D01*
X139494991Y-63269633D01*
X139488426Y-63282518D01*
X139486900Y-63292152D01*
X139486898Y-63292159D01*
X139473965Y-63373821D01*
X139469819Y-63400000D01*
X137450484Y-63400000D01*
X137450484Y-63127418D01*
X137450484Y-63104245D01*
X137444422Y-63091657D01*
X137443360Y-63087004D01*
X137440454Y-63078700D01*
X137438383Y-63074399D01*
X137435274Y-63060777D01*
X137426562Y-63049853D01*
X137424493Y-63045556D01*
X137419812Y-63038107D01*
X137416835Y-63034373D01*
X137410772Y-63021784D01*
X137399848Y-63013072D01*
X137396875Y-63009344D01*
X137390646Y-63003115D01*
X137386917Y-63000141D01*
X137378208Y-62989220D01*
X137365622Y-62983158D01*
X137361891Y-62980183D01*
X137354434Y-62975498D01*
X137350138Y-62973429D01*
X137339215Y-62964718D01*
X137325595Y-62961609D01*
X137321299Y-62959540D01*
X137312980Y-62956629D01*
X137308331Y-62955568D01*
X137295747Y-62949508D01*
X137281777Y-62949508D01*
X132799499Y-62949508D01*
X132737499Y-62932895D01*
X132692112Y-62887508D01*
X132675499Y-62825508D01*
X132675499Y-61471181D01*
X132691307Y-61410597D01*
X132734699Y-61365460D01*
X132794613Y-61347277D01*
X132838629Y-61356926D01*
X132839539Y-61354127D01*
X132848821Y-61357143D01*
X132857518Y-61361574D01*
X132867158Y-61363100D01*
X132867159Y-61363101D01*
X132916258Y-61370877D01*
X132975000Y-61380181D01*
X133092482Y-61361574D01*
X133198465Y-61307573D01*
X133282573Y-61223465D01*
X133336574Y-61117482D01*
X133355181Y-61000000D01*
X133336574Y-60882518D01*
X133322961Y-60855802D01*
X133309543Y-60794640D01*
X133327720Y-60734718D01*
X133372858Y-60691319D01*
X133433447Y-60675508D01*
X137266528Y-60675508D01*
X137331318Y-60693781D01*
X137377013Y-60743214D01*
X137392427Y-60773465D01*
X137397768Y-60778806D01*
X137420629Y-60840770D01*
X137407496Y-60906794D01*
X137361801Y-60956227D01*
X137297011Y-60974500D01*
X135693792Y-60974500D01*
X135690882Y-60974336D01*
X135680310Y-60970637D01*
X135666427Y-60972201D01*
X135652946Y-60973720D01*
X135644240Y-60974209D01*
X135641657Y-60974500D01*
X135634694Y-60974500D01*
X135627903Y-60976049D01*
X135625332Y-60976339D01*
X135616741Y-60977798D01*
X135603243Y-60979319D01*
X135603240Y-60979319D01*
X135589360Y-60980884D01*
X135579455Y-60987107D01*
X135568053Y-60989710D01*
X135557136Y-60998415D01*
X135557131Y-60998418D01*
X135546517Y-61006883D01*
X135539384Y-61011945D01*
X135537369Y-61013551D01*
X135531483Y-61017251D01*
X135526569Y-61022164D01*
X135524543Y-61023780D01*
X135518028Y-61029603D01*
X135507414Y-61038068D01*
X135507412Y-61038069D01*
X135496496Y-61046776D01*
X135491637Y-61056863D01*
X135489691Y-61059041D01*
X135012654Y-61536079D01*
X134963293Y-61566328D01*
X134905579Y-61570872D01*
X134884560Y-61567543D01*
X134862924Y-61570969D01*
X134799091Y-61564260D01*
X134747163Y-61526531D01*
X134721057Y-61467897D01*
X134711574Y-61408017D01*
X134657573Y-61302034D01*
X134573465Y-61217926D01*
X134467482Y-61163925D01*
X134457845Y-61162398D01*
X134457840Y-61162397D01*
X134359641Y-61146845D01*
X134350000Y-61145318D01*
X134340359Y-61146845D01*
X134242159Y-61162397D01*
X134242152Y-61162399D01*
X134232518Y-61163925D01*
X134223822Y-61168355D01*
X134223821Y-61168356D01*
X134135230Y-61213495D01*
X134135226Y-61213497D01*
X134126535Y-61217926D01*
X134119636Y-61224824D01*
X134119633Y-61224827D01*
X134049328Y-61295132D01*
X134049325Y-61295135D01*
X134042427Y-61302034D01*
X134037999Y-61310723D01*
X134037994Y-61310731D01*
X133996036Y-61393079D01*
X133963587Y-61433149D01*
X133917646Y-61456558D01*
X133866155Y-61459256D01*
X133784642Y-61446346D01*
X133784641Y-61446346D01*
X133775000Y-61444819D01*
X133765359Y-61446346D01*
X133667159Y-61461898D01*
X133667152Y-61461900D01*
X133657518Y-61463426D01*
X133648822Y-61467856D01*
X133648821Y-61467857D01*
X133560230Y-61512996D01*
X133560226Y-61512998D01*
X133551535Y-61517427D01*
X133544636Y-61524325D01*
X133544633Y-61524328D01*
X133474328Y-61594633D01*
X133474325Y-61594636D01*
X133467427Y-61601535D01*
X133462998Y-61610226D01*
X133462996Y-61610230D01*
X133417857Y-61698821D01*
X133413426Y-61707518D01*
X133411900Y-61717152D01*
X133411898Y-61717159D01*
X133398511Y-61801690D01*
X133394819Y-61825000D01*
X133396346Y-61834641D01*
X133411898Y-61932840D01*
X133411899Y-61932845D01*
X133413426Y-61942482D01*
X133467427Y-62048465D01*
X133551535Y-62132573D01*
X133657518Y-62186574D01*
X133667158Y-62188100D01*
X133667159Y-62188101D01*
X133707031Y-62194416D01*
X133775000Y-62205181D01*
X133889494Y-62187047D01*
X133940982Y-62189745D01*
X133986924Y-62213153D01*
X134019373Y-62253224D01*
X134037993Y-62289768D01*
X134037996Y-62289773D01*
X134042426Y-62298466D01*
X134126534Y-62382574D01*
X134232517Y-62436575D01*
X134349999Y-62455182D01*
X134367294Y-62452442D01*
X134431472Y-62459283D01*
X134461659Y-62481421D01*
X134464210Y-62478223D01*
X134464210Y-62478224D01*
X134485745Y-62495398D01*
X134492247Y-62501209D01*
X134494270Y-62502822D01*
X134499196Y-62507748D01*
X134505097Y-62511455D01*
X134507131Y-62513077D01*
X134514233Y-62518116D01*
X134535767Y-62535290D01*
X134547171Y-62537892D01*
X134557074Y-62544115D01*
X134584433Y-62547197D01*
X134593052Y-62548661D01*
X134595618Y-62548950D01*
X134602408Y-62550500D01*
X134609371Y-62550500D01*
X134611936Y-62550789D01*
X134620669Y-62551280D01*
X134648024Y-62554362D01*
X134658595Y-62550663D01*
X134661497Y-62550500D01*
X135938495Y-62550500D01*
X135941404Y-62550663D01*
X135951974Y-62554362D01*
X135979341Y-62551278D01*
X135988052Y-62550790D01*
X135990624Y-62550500D01*
X135997590Y-62550500D01*
X136004384Y-62548948D01*
X136006964Y-62548658D01*
X136015559Y-62547198D01*
X136042924Y-62544116D01*
X136052828Y-62537892D01*
X136064231Y-62535290D01*
X136085774Y-62518108D01*
X136092872Y-62513073D01*
X136094898Y-62511456D01*
X136100801Y-62507748D01*
X136105729Y-62502818D01*
X136107758Y-62501201D01*
X136114249Y-62495399D01*
X136135788Y-62478224D01*
X136140648Y-62468129D01*
X136142580Y-62465967D01*
X136354357Y-62254191D01*
X136397597Y-62226111D01*
X136448526Y-62218046D01*
X136489416Y-62229003D01*
X136489539Y-62228627D01*
X136496735Y-62230965D01*
X136498330Y-62231392D01*
X136507518Y-62236074D01*
X136625000Y-62254681D01*
X136742482Y-62236074D01*
X136786456Y-62213667D01*
X136836261Y-62200322D01*
X136887189Y-62208388D01*
X136930433Y-62236470D01*
X136976535Y-62282573D01*
X137082518Y-62336574D01*
X137200000Y-62355181D01*
X137317482Y-62336574D01*
X137423465Y-62282573D01*
X137494219Y-62211818D01*
X137534447Y-62184939D01*
X137581900Y-62175500D01*
X138658164Y-62175500D01*
X138661073Y-62175663D01*
X138671643Y-62179362D01*
X138699010Y-62176278D01*
X138707721Y-62175790D01*
X138710293Y-62175500D01*
X138717259Y-62175500D01*
X138724053Y-62173948D01*
X138726633Y-62173658D01*
X138735228Y-62172198D01*
X138762593Y-62169116D01*
X138772497Y-62162892D01*
X138783900Y-62160290D01*
X138805443Y-62143108D01*
X138812541Y-62138073D01*
X138814567Y-62136456D01*
X138820470Y-62132748D01*
X138825398Y-62127818D01*
X138827427Y-62126201D01*
X138833918Y-62120399D01*
X138855457Y-62103224D01*
X138860317Y-62093129D01*
X138862249Y-62090967D01*
X139153216Y-61800000D01*
X140869819Y-61800000D01*
X140871346Y-61809641D01*
X140886898Y-61907840D01*
X140886899Y-61907845D01*
X140888426Y-61917482D01*
X140942427Y-62023465D01*
X141026535Y-62107573D01*
X141132518Y-62161574D01*
X141142158Y-62163100D01*
X141142159Y-62163101D01*
X141180137Y-62169116D01*
X141250000Y-62180181D01*
X141367482Y-62161574D01*
X141473465Y-62107573D01*
X141557573Y-62023465D01*
X141611574Y-61917482D01*
X141630181Y-61800000D01*
X141611574Y-61682518D01*
X141557573Y-61576535D01*
X141473465Y-61492427D01*
X141367482Y-61438426D01*
X141357845Y-61436899D01*
X141357840Y-61436898D01*
X141259641Y-61421346D01*
X141250000Y-61419819D01*
X141240359Y-61421346D01*
X141142159Y-61436898D01*
X141142152Y-61436900D01*
X141132518Y-61438426D01*
X141123822Y-61442856D01*
X141123821Y-61442857D01*
X141035230Y-61487996D01*
X141035226Y-61487998D01*
X141026535Y-61492427D01*
X141019636Y-61499325D01*
X141019633Y-61499328D01*
X140949328Y-61569633D01*
X140949325Y-61569636D01*
X140942427Y-61576535D01*
X140937998Y-61585226D01*
X140937996Y-61585230D01*
X140904467Y-61651035D01*
X140888426Y-61682518D01*
X140886900Y-61692152D01*
X140886898Y-61692159D01*
X140873858Y-61774500D01*
X140869819Y-61800000D01*
X139153216Y-61800000D01*
X139723412Y-61229805D01*
X139778995Y-61197714D01*
X139843183Y-61197714D01*
X139898770Y-61229807D01*
X139976535Y-61307573D01*
X140082518Y-61361574D01*
X140092158Y-61363100D01*
X140092159Y-61363101D01*
X140141258Y-61370877D01*
X140200000Y-61380181D01*
X140317482Y-61361574D01*
X140423465Y-61307573D01*
X140507573Y-61223465D01*
X140561574Y-61117482D01*
X140580181Y-61000000D01*
X140561574Y-60882518D01*
X140507573Y-60776535D01*
X140436818Y-60705780D01*
X140409939Y-60665553D01*
X140400500Y-60618100D01*
X140400500Y-60184411D01*
X140409939Y-60136958D01*
X140436819Y-60096730D01*
X141835580Y-58697969D01*
X142246369Y-58287180D01*
X142305100Y-58254288D01*
X142372365Y-58256930D01*
X142428337Y-58294327D01*
X142453413Y-58348717D01*
X142453885Y-58348564D01*
X142455178Y-58352544D01*
X142456522Y-58355459D01*
X142456856Y-58357573D01*
X142458426Y-58367482D01*
X142462857Y-58376178D01*
X142505128Y-58459141D01*
X142512427Y-58473465D01*
X142596535Y-58557573D01*
X142702518Y-58611574D01*
X142755314Y-58619935D01*
X142813947Y-58646041D01*
X142851676Y-58697969D01*
X142858386Y-58761803D01*
X142853025Y-58795658D01*
X142854552Y-58805299D01*
X142870104Y-58903498D01*
X142870105Y-58903503D01*
X142871632Y-58913140D01*
X142925633Y-59019123D01*
X143009741Y-59103231D01*
X143115724Y-59157232D01*
X143233206Y-59175839D01*
X143350688Y-59157232D01*
X143456671Y-59103231D01*
X143540779Y-59019123D01*
X143594780Y-58913140D01*
X143613387Y-58795658D01*
X143594780Y-58678176D01*
X143540779Y-58572193D01*
X143456671Y-58488085D01*
X143350688Y-58434084D01*
X143341049Y-58432557D01*
X143341045Y-58432556D01*
X143297894Y-58425722D01*
X143239255Y-58399614D01*
X143201528Y-58347685D01*
X143194819Y-58283852D01*
X143200181Y-58250000D01*
X143181574Y-58132518D01*
X143127573Y-58026535D01*
X143043465Y-57942427D01*
X143024017Y-57932518D01*
X142946178Y-57892857D01*
X142937482Y-57888426D01*
X142927843Y-57886899D01*
X142927842Y-57886899D01*
X142926715Y-57886720D01*
X142925458Y-57886521D01*
X142922544Y-57885178D01*
X142918564Y-57883885D01*
X142918717Y-57883413D01*
X142864327Y-57858337D01*
X142826930Y-57802364D01*
X142824288Y-57735100D01*
X142857179Y-57676369D01*
X143246730Y-57286819D01*
X143286959Y-57259939D01*
X143334412Y-57250500D01*
X145768100Y-57250500D01*
X145815553Y-57259939D01*
X145855781Y-57286818D01*
X145926535Y-57357573D01*
X146032518Y-57411574D01*
X146150000Y-57430181D01*
X146171015Y-57426852D01*
X146228731Y-57431394D01*
X146278095Y-57461644D01*
X148563181Y-59746730D01*
X148590061Y-59786958D01*
X148599500Y-59834411D01*
X148599500Y-67365588D01*
X148590061Y-67413041D01*
X148563181Y-67453269D01*
X147978094Y-68038355D01*
X147928733Y-68068604D01*
X147871019Y-68073148D01*
X147850000Y-68069819D01*
X147840359Y-68071346D01*
X147742159Y-68086898D01*
X147742152Y-68086900D01*
X147732518Y-68088426D01*
X147723822Y-68092856D01*
X147723821Y-68092857D01*
X147635230Y-68137996D01*
X147635226Y-68137998D01*
X147626535Y-68142427D01*
X147619636Y-68149325D01*
X147619633Y-68149328D01*
X147549328Y-68219633D01*
X147549325Y-68219636D01*
X147542427Y-68226535D01*
X147537998Y-68235226D01*
X147537996Y-68235230D01*
X147492857Y-68323821D01*
X147488426Y-68332518D01*
X147486900Y-68342152D01*
X147486898Y-68342159D01*
X147478282Y-68396566D01*
X147469819Y-68450000D01*
X147471346Y-68459641D01*
X147486898Y-68557840D01*
X147486899Y-68557845D01*
X147488426Y-68567482D01*
X147542427Y-68673465D01*
X147626535Y-68757573D01*
X147732518Y-68811574D01*
X147850000Y-68830181D01*
X147967482Y-68811574D01*
X148073465Y-68757573D01*
X148157573Y-68673465D01*
X148211574Y-68567482D01*
X148230181Y-68450000D01*
X148226852Y-68428982D01*
X148231394Y-68371266D01*
X148261642Y-68321905D01*
X148915967Y-67667581D01*
X148918130Y-67665648D01*
X148928224Y-67660788D01*
X148945395Y-67639254D01*
X148951202Y-67632758D01*
X148952818Y-67630730D01*
X148957749Y-67625801D01*
X148961459Y-67619896D01*
X148963075Y-67617870D01*
X148968123Y-67610757D01*
X148968420Y-67610383D01*
X148985290Y-67589231D01*
X148987892Y-67577828D01*
X148994116Y-67567924D01*
X148997198Y-67540559D01*
X148998658Y-67531964D01*
X148998948Y-67529384D01*
X149000500Y-67522590D01*
X149000500Y-67515624D01*
X149000790Y-67513052D01*
X149001279Y-67504341D01*
X149002798Y-67490854D01*
X149004362Y-67476974D01*
X149000663Y-67466404D01*
X149000500Y-67463495D01*
X149000500Y-64600000D01*
X149369819Y-64600000D01*
X149371346Y-64609641D01*
X149386898Y-64707840D01*
X149386899Y-64707845D01*
X149388426Y-64717482D01*
X149442427Y-64823465D01*
X149526535Y-64907573D01*
X149632518Y-64961574D01*
X149750000Y-64980181D01*
X149867482Y-64961574D01*
X149973465Y-64907573D01*
X150057573Y-64823465D01*
X150111574Y-64717482D01*
X150130181Y-64600000D01*
X150111574Y-64482518D01*
X150057573Y-64376535D01*
X149973465Y-64292427D01*
X149867482Y-64238426D01*
X149857845Y-64236899D01*
X149857840Y-64236898D01*
X149759641Y-64221346D01*
X149750000Y-64219819D01*
X149740359Y-64221346D01*
X149642159Y-64236898D01*
X149642152Y-64236900D01*
X149632518Y-64238426D01*
X149623822Y-64242856D01*
X149623821Y-64242857D01*
X149535230Y-64287996D01*
X149535226Y-64287998D01*
X149526535Y-64292427D01*
X149519636Y-64299325D01*
X149519633Y-64299328D01*
X149449328Y-64369633D01*
X149449325Y-64369636D01*
X149442427Y-64376535D01*
X149437998Y-64385226D01*
X149437996Y-64385230D01*
X149392857Y-64473821D01*
X149388426Y-64482518D01*
X149386900Y-64492152D01*
X149386898Y-64492159D01*
X149371947Y-64586559D01*
X149369819Y-64600000D01*
X149000500Y-64600000D01*
X149000500Y-63500000D01*
X149419819Y-63500000D01*
X149421346Y-63509641D01*
X149436898Y-63607840D01*
X149436899Y-63607845D01*
X149438426Y-63617482D01*
X149442857Y-63626178D01*
X149484329Y-63707573D01*
X149492427Y-63723465D01*
X149576535Y-63807573D01*
X149682518Y-63861574D01*
X149800000Y-63880181D01*
X149917482Y-63861574D01*
X150023465Y-63807573D01*
X150107573Y-63723465D01*
X150161574Y-63617482D01*
X150180181Y-63500000D01*
X150161574Y-63382518D01*
X150107573Y-63276535D01*
X150023465Y-63192427D01*
X149917482Y-63138426D01*
X149907845Y-63136899D01*
X149907840Y-63136898D01*
X149809641Y-63121346D01*
X149800000Y-63119819D01*
X149790359Y-63121346D01*
X149692159Y-63136898D01*
X149692152Y-63136900D01*
X149682518Y-63138426D01*
X149673822Y-63142856D01*
X149673821Y-63142857D01*
X149585230Y-63187996D01*
X149585226Y-63187998D01*
X149576535Y-63192427D01*
X149569636Y-63199325D01*
X149569633Y-63199328D01*
X149499328Y-63269633D01*
X149499325Y-63269636D01*
X149492427Y-63276535D01*
X149487998Y-63285226D01*
X149487996Y-63285230D01*
X149442857Y-63373821D01*
X149438426Y-63382518D01*
X149436900Y-63392152D01*
X149436898Y-63392159D01*
X149426607Y-63457142D01*
X149419819Y-63500000D01*
X149000500Y-63500000D01*
X149000500Y-59736505D01*
X149000663Y-59733595D01*
X149004362Y-59723026D01*
X149001767Y-59700000D01*
X149619819Y-59700000D01*
X149621346Y-59709641D01*
X149636898Y-59807840D01*
X149636899Y-59807845D01*
X149638426Y-59817482D01*
X149662242Y-59864224D01*
X149684622Y-59908148D01*
X149692427Y-59923465D01*
X149776535Y-60007573D01*
X149882518Y-60061574D01*
X150000000Y-60080181D01*
X150117482Y-60061574D01*
X150223465Y-60007573D01*
X150307573Y-59923465D01*
X150361574Y-59817482D01*
X150380181Y-59700000D01*
X150361574Y-59582518D01*
X150307573Y-59476535D01*
X150223465Y-59392427D01*
X150117482Y-59338426D01*
X150107845Y-59336899D01*
X150107840Y-59336898D01*
X150009641Y-59321346D01*
X150000000Y-59319819D01*
X149990359Y-59321346D01*
X149892159Y-59336898D01*
X149892152Y-59336900D01*
X149882518Y-59338426D01*
X149873822Y-59342856D01*
X149873821Y-59342857D01*
X149785230Y-59387996D01*
X149785226Y-59387998D01*
X149776535Y-59392427D01*
X149769636Y-59399325D01*
X149769633Y-59399328D01*
X149699328Y-59469633D01*
X149699325Y-59469636D01*
X149692427Y-59476535D01*
X149687998Y-59485226D01*
X149687996Y-59485230D01*
X149646208Y-59567244D01*
X149638426Y-59582518D01*
X149636900Y-59592152D01*
X149636898Y-59592159D01*
X149624882Y-59668034D01*
X149619819Y-59700000D01*
X149001767Y-59700000D01*
X149001278Y-59695658D01*
X149000790Y-59686952D01*
X149000500Y-59684379D01*
X149000500Y-59677410D01*
X148998948Y-59670615D01*
X148998658Y-59668034D01*
X148997198Y-59659440D01*
X148994116Y-59632076D01*
X148987892Y-59622171D01*
X148985290Y-59610769D01*
X148968110Y-59589227D01*
X148963070Y-59582122D01*
X148961451Y-59580092D01*
X148957748Y-59574199D01*
X148952827Y-59569278D01*
X148951205Y-59567244D01*
X148945396Y-59560745D01*
X148936934Y-59550134D01*
X148928224Y-59539212D01*
X148918132Y-59534351D01*
X148915956Y-59532407D01*
X146561644Y-57178095D01*
X146531394Y-57128731D01*
X146526852Y-57071015D01*
X146530181Y-57050000D01*
X146525255Y-57018897D01*
X146528384Y-56965841D01*
X146553438Y-56918968D01*
X146595814Y-56886890D01*
X146647728Y-56875500D01*
X147790589Y-56875500D01*
X147838042Y-56884939D01*
X147878270Y-56911819D01*
X148338355Y-57371904D01*
X148368604Y-57421264D01*
X148373148Y-57478978D01*
X148372434Y-57483490D01*
X148369819Y-57500000D01*
X148371346Y-57509641D01*
X148386898Y-57607840D01*
X148386899Y-57607845D01*
X148388426Y-57617482D01*
X148442427Y-57723465D01*
X148526535Y-57807573D01*
X148632518Y-57861574D01*
X148750000Y-57880181D01*
X148783208Y-57874921D01*
X148840921Y-57879462D01*
X148890285Y-57909711D01*
X148920535Y-57959074D01*
X148925078Y-58016789D01*
X148919819Y-58050000D01*
X148921346Y-58059641D01*
X148936898Y-58157840D01*
X148936899Y-58157845D01*
X148938426Y-58167482D01*
X148942857Y-58176178D01*
X148972690Y-58234730D01*
X148992427Y-58273465D01*
X149076535Y-58357573D01*
X149182518Y-58411574D01*
X149300000Y-58430181D01*
X149417482Y-58411574D01*
X149523465Y-58357573D01*
X149607573Y-58273465D01*
X149661574Y-58167482D01*
X149680181Y-58050000D01*
X149661574Y-57932518D01*
X149607573Y-57826535D01*
X149523465Y-57742427D01*
X149417482Y-57688426D01*
X149407845Y-57686899D01*
X149407840Y-57686898D01*
X149309641Y-57671346D01*
X149300000Y-57669819D01*
X149266789Y-57675078D01*
X149209074Y-57670535D01*
X149159711Y-57640285D01*
X149129462Y-57590921D01*
X149124921Y-57533208D01*
X149130181Y-57500000D01*
X149128654Y-57490359D01*
X149128654Y-57484574D01*
X149144464Y-57423985D01*
X149187864Y-57378847D01*
X149247786Y-57360670D01*
X149308948Y-57374089D01*
X149353265Y-57396669D01*
X149382518Y-57411574D01*
X149500000Y-57430181D01*
X149617482Y-57411574D01*
X149723465Y-57357573D01*
X149807573Y-57273465D01*
X149861574Y-57167482D01*
X149880181Y-57050000D01*
X149861574Y-56932518D01*
X149807573Y-56826535D01*
X149723465Y-56742427D01*
X149617482Y-56688426D01*
X149607845Y-56686899D01*
X149607840Y-56686898D01*
X149509641Y-56671346D01*
X149500000Y-56669819D01*
X149490359Y-56671346D01*
X149478978Y-56673148D01*
X149421264Y-56668604D01*
X149371904Y-56638355D01*
X148717591Y-55984042D01*
X148715647Y-55981867D01*
X148710788Y-55971776D01*
X148689252Y-55954601D01*
X148682755Y-55948794D01*
X148680720Y-55947171D01*
X148675801Y-55942252D01*
X148669904Y-55938546D01*
X148667880Y-55936932D01*
X148660772Y-55931888D01*
X148650153Y-55923419D01*
X148650150Y-55923417D01*
X148639231Y-55914710D01*
X148627828Y-55912107D01*
X148617924Y-55905884D01*
X148604038Y-55904319D01*
X148604037Y-55904319D01*
X148590554Y-55902800D01*
X148581957Y-55901340D01*
X148579381Y-55901049D01*
X148572590Y-55899500D01*
X148565625Y-55899500D01*
X148563042Y-55899209D01*
X148554341Y-55898721D01*
X148540854Y-55897201D01*
X148540851Y-55897201D01*
X148526974Y-55895638D01*
X148516404Y-55899336D01*
X148513495Y-55899500D01*
X146672728Y-55899500D01*
X146620814Y-55888110D01*
X146578438Y-55856032D01*
X146553384Y-55809159D01*
X146550255Y-55756102D01*
X146553654Y-55734641D01*
X146555181Y-55725000D01*
X146536574Y-55607518D01*
X146482573Y-55501535D01*
X146398465Y-55417427D01*
X146292482Y-55363426D01*
X146282845Y-55361899D01*
X146282840Y-55361898D01*
X146184641Y-55346346D01*
X146175000Y-55344819D01*
X146165359Y-55346346D01*
X146067159Y-55361898D01*
X146067152Y-55361900D01*
X146057518Y-55363426D01*
X146048822Y-55367856D01*
X146048821Y-55367857D01*
X145960230Y-55412996D01*
X145960226Y-55412998D01*
X145951535Y-55417427D01*
X145944636Y-55424325D01*
X145944633Y-55424328D01*
X145880781Y-55488181D01*
X145840553Y-55515061D01*
X145793100Y-55524500D01*
X143636508Y-55524500D01*
X143633598Y-55524336D01*
X143623026Y-55520637D01*
X143609143Y-55522201D01*
X143595662Y-55523720D01*
X143586956Y-55524209D01*
X143584373Y-55524500D01*
X143577410Y-55524500D01*
X143570619Y-55526049D01*
X143568048Y-55526339D01*
X143559457Y-55527798D01*
X143545959Y-55529319D01*
X143545956Y-55529319D01*
X143532076Y-55530884D01*
X143522171Y-55537107D01*
X143510769Y-55539710D01*
X143499852Y-55548415D01*
X143499847Y-55548418D01*
X143489233Y-55556883D01*
X143482100Y-55561945D01*
X143480085Y-55563551D01*
X143474199Y-55567251D01*
X143469285Y-55572164D01*
X143467259Y-55573780D01*
X143460744Y-55579603D01*
X143450130Y-55588068D01*
X143450128Y-55588069D01*
X143439212Y-55596776D01*
X143434354Y-55606862D01*
X143432407Y-55609041D01*
X140288182Y-58753267D01*
X140227551Y-58786600D01*
X140158497Y-58782255D01*
X140102521Y-58741586D01*
X140077051Y-58677255D01*
X140090017Y-58609290D01*
X140091111Y-58607142D01*
X140111574Y-58566982D01*
X140130181Y-58449500D01*
X140111574Y-58332018D01*
X140057573Y-58226035D01*
X139973465Y-58141927D01*
X139867482Y-58087926D01*
X139857845Y-58086399D01*
X139857840Y-58086398D01*
X139759641Y-58070846D01*
X139750000Y-58069319D01*
X139740359Y-58070846D01*
X139642159Y-58086398D01*
X139642152Y-58086400D01*
X139632518Y-58087926D01*
X139623822Y-58092356D01*
X139623821Y-58092357D01*
X139535230Y-58137496D01*
X139535226Y-58137498D01*
X139526535Y-58141927D01*
X139519636Y-58148825D01*
X139519633Y-58148828D01*
X139449328Y-58219133D01*
X139449325Y-58219136D01*
X139442427Y-58226035D01*
X139437998Y-58234726D01*
X139437996Y-58234730D01*
X139392857Y-58323321D01*
X139388426Y-58332018D01*
X139386900Y-58341652D01*
X139386898Y-58341659D01*
X139373121Y-58428654D01*
X139369819Y-58449500D01*
X139371346Y-58459141D01*
X139386898Y-58557340D01*
X139386899Y-58557345D01*
X139388426Y-58566982D01*
X139408889Y-58607142D01*
X139428708Y-58646041D01*
X139442427Y-58672965D01*
X139526535Y-58757073D01*
X139632518Y-58811074D01*
X139750000Y-58829681D01*
X139867482Y-58811074D01*
X139909790Y-58789516D01*
X139977755Y-58776551D01*
X140042086Y-58802021D01*
X140082755Y-58857997D01*
X140087100Y-58927051D01*
X140053767Y-58987682D01*
X139234043Y-59807406D01*
X139231864Y-59809353D01*
X139221776Y-59814212D01*
X139213068Y-59825129D01*
X139213066Y-59825132D01*
X139204599Y-59835749D01*
X139198788Y-59842251D01*
X139197167Y-59844282D01*
X139192252Y-59849199D01*
X139188552Y-59855085D01*
X139186941Y-59857106D01*
X139181890Y-59864224D01*
X139173418Y-59874847D01*
X139173415Y-59874852D01*
X139164710Y-59885769D01*
X139162107Y-59897171D01*
X139155884Y-59907076D01*
X139154320Y-59920954D01*
X139154319Y-59920958D01*
X139152801Y-59934439D01*
X139151338Y-59943049D01*
X139151047Y-59945628D01*
X139149500Y-59952410D01*
X139149500Y-59959364D01*
X139149209Y-59961947D01*
X139148721Y-59970659D01*
X139147201Y-59984145D01*
X139147201Y-59984148D01*
X139145638Y-59998026D01*
X139149336Y-60008595D01*
X139149500Y-60011505D01*
X139149500Y-60565588D01*
X139140061Y-60613041D01*
X139113181Y-60653269D01*
X138828270Y-60938181D01*
X138788042Y-60965061D01*
X138740589Y-60974500D01*
X138102989Y-60974500D01*
X138038199Y-60956227D01*
X137992504Y-60906794D01*
X137979371Y-60840770D01*
X138002231Y-60778806D01*
X138007573Y-60773465D01*
X138061574Y-60667482D01*
X138080181Y-60550000D01*
X138061574Y-60432518D01*
X138007573Y-60326535D01*
X137923465Y-60242427D01*
X137817482Y-60188426D01*
X137807845Y-60186899D01*
X137807840Y-60186898D01*
X137709641Y-60171346D01*
X137700000Y-60169819D01*
X137593883Y-60186626D01*
X137540826Y-60183497D01*
X137493953Y-60158443D01*
X137461875Y-60116067D01*
X137450485Y-60064153D01*
X137450485Y-57749508D01*
X137467098Y-57687508D01*
X137512485Y-57642121D01*
X137574485Y-57625508D01*
X139827722Y-57625508D01*
X139844656Y-57626670D01*
X139862109Y-57629076D01*
X139895771Y-57620275D01*
X139899521Y-57619357D01*
X139939215Y-57610298D01*
X139971901Y-57584229D01*
X139974187Y-57582452D01*
X140002856Y-57560732D01*
X140004159Y-57558505D01*
X140010772Y-57553232D01*
X140024926Y-57523838D01*
X140029631Y-57515000D01*
X140043159Y-57491899D01*
X140044282Y-57483751D01*
X140044390Y-57483490D01*
X140044418Y-57483364D01*
X140050484Y-57470771D01*
X140050484Y-57447270D01*
X140051646Y-57430336D01*
X140052126Y-57426852D01*
X140054052Y-57412883D01*
X140050963Y-57401066D01*
X140050702Y-57396669D01*
X140050616Y-57393800D01*
X140050484Y-57393222D01*
X140050484Y-57379245D01*
X140044268Y-57366338D01*
X140036017Y-57343891D01*
X140019928Y-57282336D01*
X139969769Y-57090427D01*
X139789523Y-56531981D01*
X139578024Y-55984607D01*
X139359260Y-55501535D01*
X139336673Y-55451658D01*
X139336670Y-55451653D01*
X139335946Y-55450053D01*
X139064064Y-54930024D01*
X139046138Y-54900000D01*
X148919819Y-54900000D01*
X148921346Y-54909641D01*
X148936898Y-55007840D01*
X148936899Y-55007845D01*
X148938426Y-55017482D01*
X148992427Y-55123465D01*
X149076535Y-55207573D01*
X149182518Y-55261574D01*
X149300000Y-55280181D01*
X149417482Y-55261574D01*
X149523465Y-55207573D01*
X149607573Y-55123465D01*
X149661574Y-55017482D01*
X149680181Y-54900000D01*
X149661574Y-54782518D01*
X149607573Y-54676535D01*
X149523465Y-54592427D01*
X149417482Y-54538426D01*
X149407845Y-54536899D01*
X149407840Y-54536898D01*
X149309641Y-54521346D01*
X149300000Y-54519819D01*
X149290359Y-54521346D01*
X149192159Y-54536898D01*
X149192152Y-54536900D01*
X149182518Y-54538426D01*
X149173822Y-54542856D01*
X149173821Y-54542857D01*
X149085230Y-54587996D01*
X149085226Y-54587998D01*
X149076535Y-54592427D01*
X149069636Y-54599325D01*
X149069633Y-54599328D01*
X148999328Y-54669633D01*
X148999325Y-54669636D01*
X148992427Y-54676535D01*
X148987998Y-54685226D01*
X148987996Y-54685230D01*
X148942857Y-54773821D01*
X148938426Y-54782518D01*
X148936900Y-54792152D01*
X148936898Y-54792159D01*
X148926607Y-54857142D01*
X148919819Y-54900000D01*
X139046138Y-54900000D01*
X138807318Y-54500000D01*
X144869819Y-54500000D01*
X144871346Y-54509641D01*
X144886898Y-54607840D01*
X144886899Y-54607845D01*
X144888426Y-54617482D01*
X144942427Y-54723465D01*
X145026535Y-54807573D01*
X145132518Y-54861574D01*
X145250000Y-54880181D01*
X145367482Y-54861574D01*
X145473465Y-54807573D01*
X145557573Y-54723465D01*
X145611574Y-54617482D01*
X145630181Y-54500000D01*
X145611574Y-54382518D01*
X145557573Y-54276535D01*
X145473465Y-54192427D01*
X145367482Y-54138426D01*
X145357845Y-54136899D01*
X145357840Y-54136898D01*
X145259641Y-54121346D01*
X145250000Y-54119819D01*
X145240359Y-54121346D01*
X145142159Y-54136898D01*
X145142152Y-54136900D01*
X145132518Y-54138426D01*
X145123822Y-54142856D01*
X145123821Y-54142857D01*
X145035230Y-54187996D01*
X145035226Y-54187998D01*
X145026535Y-54192427D01*
X145019636Y-54199325D01*
X145019633Y-54199328D01*
X144949328Y-54269633D01*
X144949325Y-54269636D01*
X144942427Y-54276535D01*
X144937998Y-54285226D01*
X144937996Y-54285230D01*
X144892857Y-54373821D01*
X144888426Y-54382518D01*
X144886900Y-54392152D01*
X144886898Y-54392159D01*
X144871947Y-54486559D01*
X144869819Y-54500000D01*
X138807318Y-54500000D01*
X138763244Y-54426181D01*
X138733707Y-54382518D01*
X138435432Y-53941587D01*
X138434448Y-53940132D01*
X138210772Y-53646673D01*
X138186921Y-53590918D01*
X138192363Y-53530517D01*
X138225797Y-53479921D01*
X138279226Y-53451232D01*
X143020592Y-52262110D01*
X143076822Y-52261157D01*
X143127693Y-52285144D01*
X143162736Y-52329135D01*
X143174740Y-52384082D01*
X143161237Y-52438680D01*
X143117858Y-52523818D01*
X143117857Y-52523821D01*
X143113426Y-52532518D01*
X143111900Y-52542152D01*
X143111898Y-52542159D01*
X143102429Y-52601949D01*
X143094819Y-52650000D01*
X143096346Y-52659641D01*
X143111898Y-52757840D01*
X143111899Y-52757845D01*
X143113426Y-52767482D01*
X143167427Y-52873465D01*
X143251535Y-52957573D01*
X143357518Y-53011574D01*
X143475000Y-53030181D01*
X143592482Y-53011574D01*
X143698465Y-52957573D01*
X143782573Y-52873465D01*
X143836574Y-52767482D01*
X143855181Y-52650000D01*
X143836574Y-52532518D01*
X143782573Y-52426535D01*
X143698465Y-52342427D01*
X143689767Y-52337995D01*
X143664114Y-52324924D01*
X143619102Y-52285945D01*
X143597450Y-52230478D01*
X143604149Y-52171313D01*
X143637656Y-52122092D01*
X143690241Y-52094164D01*
X154509912Y-49380620D01*
X154567875Y-49380053D01*
X154619766Y-49405895D01*
G37*
G04 #@! TD.AperFunction*
M02*
