G04 #@! TF.GenerationSoftware,KiCad,Pcbnew,(7.0.0-0)*
G04 #@! TF.CreationDate,2024-01-02T18:24:24+08:00*
G04 #@! TF.ProjectId,SWDProgrammer,53574450-726f-4677-9261-6d6d65722e6b,rev?*
G04 #@! TF.SameCoordinates,Original*
G04 #@! TF.FileFunction,Soldermask,Bot*
G04 #@! TF.FilePolarity,Negative*
%FSLAX46Y46*%
G04 Gerber Fmt 4.6, Leading zero omitted, Abs format (unit mm)*
G04 Created by KiCad (PCBNEW (7.0.0-0)) date 2024-01-02 18:24:24*
%MOMM*%
%LPD*%
G01*
G04 APERTURE LIST*
G04 Aperture macros list*
%AMRoundRect*
0 Rectangle with rounded corners*
0 $1 Rounding radius*
0 $2 $3 $4 $5 $6 $7 $8 $9 X,Y pos of 4 corners*
0 Add a 4 corners polygon primitive as box body*
4,1,4,$2,$3,$4,$5,$6,$7,$8,$9,$2,$3,0*
0 Add four circle primitives for the rounded corners*
1,1,$1+$1,$2,$3*
1,1,$1+$1,$4,$5*
1,1,$1+$1,$6,$7*
1,1,$1+$1,$8,$9*
0 Add four rect primitives between the rounded corners*
20,1,$1+$1,$2,$3,$4,$5,0*
20,1,$1+$1,$4,$5,$6,$7,0*
20,1,$1+$1,$6,$7,$8,$9,0*
20,1,$1+$1,$8,$9,$2,$3,0*%
%AMHorizOval*
0 Thick line with rounded ends*
0 $1 width*
0 $2 $3 position (X,Y) of the first rounded end (center of the circle)*
0 $4 $5 position (X,Y) of the second rounded end (center of the circle)*
0 Add line between two ends*
20,1,$1,$2,$3,$4,$5,0*
0 Add two circle primitives to create the rounded ends*
1,1,$1,$2,$3*
1,1,$1,$4,$5*%
%AMRotRect*
0 Rectangle, with rotation*
0 The origin of the aperture is its center*
0 $1 length*
0 $2 width*
0 $3 Rotation angle, in degrees counterclockwise*
0 Add horizontal line*
21,1,$1,$2,0,0,$3*%
G04 Aperture macros list end*
%ADD10RoundRect,0.140000X-0.170000X0.140000X-0.170000X-0.140000X0.170000X-0.140000X0.170000X0.140000X0*%
%ADD11RoundRect,0.100000X-0.400000X-0.400000X0.400000X-0.400000X0.400000X0.400000X-0.400000X0.400000X0*%
%ADD12RoundRect,0.140000X0.140000X0.170000X-0.140000X0.170000X-0.140000X-0.170000X0.140000X-0.170000X0*%
%ADD13RoundRect,0.135000X0.185000X-0.135000X0.185000X0.135000X-0.185000X0.135000X-0.185000X-0.135000X0*%
%ADD14R,1.000000X1.800000*%
%ADD15RoundRect,0.135000X0.135000X0.185000X-0.135000X0.185000X-0.135000X-0.185000X0.135000X-0.185000X0*%
%ADD16RoundRect,0.150000X0.512500X0.150000X-0.512500X0.150000X-0.512500X-0.150000X0.512500X-0.150000X0*%
%ADD17RoundRect,0.135000X-0.185000X0.135000X-0.185000X-0.135000X0.185000X-0.135000X0.185000X0.135000X0*%
%ADD18RoundRect,0.140000X0.170000X-0.140000X0.170000X0.140000X-0.170000X0.140000X-0.170000X-0.140000X0*%
%ADD19RoundRect,0.135000X-0.135000X-0.185000X0.135000X-0.185000X0.135000X0.185000X-0.135000X0.185000X0*%
%ADD20RoundRect,0.147500X-0.172500X0.147500X-0.172500X-0.147500X0.172500X-0.147500X0.172500X0.147500X0*%
%ADD21RoundRect,0.075000X-0.075000X0.662500X-0.075000X-0.662500X0.075000X-0.662500X0.075000X0.662500X0*%
%ADD22RoundRect,0.075000X-0.662500X0.075000X-0.662500X-0.075000X0.662500X-0.075000X0.662500X0.075000X0*%
%ADD23RoundRect,0.140000X-0.140000X-0.170000X0.140000X-0.170000X0.140000X0.170000X-0.140000X0.170000X0*%
%ADD24RotRect,0.540000X0.800000X58.000000*%
%ADD25RotRect,0.300000X0.800000X58.000000*%
%ADD26HorizOval,1.000000X-0.508829X0.317952X0.508829X-0.317952X0*%
%ADD27HorizOval,1.000000X-0.339219X0.211968X0.339219X-0.211968X0*%
%ADD28R,1.400000X1.200000*%
%ADD29RoundRect,0.147500X-0.147500X-0.172500X0.147500X-0.172500X0.147500X0.172500X-0.147500X0.172500X0*%
%ADD30RotRect,0.540000X0.800000X98.000000*%
%ADD31RotRect,0.300000X0.800000X98.000000*%
%ADD32HorizOval,1.000000X0.594161X0.083504X-0.594161X-0.083504X0*%
%ADD33HorizOval,1.000000X0.396107X0.055669X-0.396107X-0.055669X0*%
G04 APERTURE END LIST*
D10*
X149350000Y-65600000D03*
X149350000Y-66560000D03*
D11*
X144350000Y-54750000D03*
X148350000Y-54750000D03*
X144350000Y-52550000D03*
X148350000Y-52550000D03*
D12*
X147630000Y-58250000D03*
X146670000Y-58250000D03*
D13*
X137550000Y-68550001D03*
X137550000Y-67530001D03*
D14*
X147049999Y-56599999D03*
X144549999Y-56599999D03*
D15*
X147744721Y-67588413D03*
X146724721Y-67588413D03*
D16*
X143287500Y-69900000D03*
X143287500Y-70850000D03*
X143287500Y-71800000D03*
X141012500Y-71800000D03*
X141012500Y-69900000D03*
D17*
X144700000Y-71550000D03*
X144700000Y-72570000D03*
D12*
X143299763Y-57160534D03*
X142339763Y-57160534D03*
D18*
X138650000Y-69080000D03*
X138650000Y-68120000D03*
D19*
X144740000Y-70600000D03*
X145760000Y-70600000D03*
D12*
X143780000Y-58250000D03*
X142820000Y-58250000D03*
D20*
X137650000Y-58365000D03*
X137650000Y-59335000D03*
D18*
X139600000Y-70610000D03*
X139600000Y-69650000D03*
D12*
X145674714Y-58268919D03*
X144714714Y-58268919D03*
D21*
X139737500Y-59737500D03*
X140237500Y-59737500D03*
X140737500Y-59737500D03*
X141237500Y-59737500D03*
X141737500Y-59737500D03*
X142237500Y-59737500D03*
X142737500Y-59737500D03*
X143237500Y-59737500D03*
X143737500Y-59737500D03*
X144237500Y-59737500D03*
X144737500Y-59737500D03*
X145237500Y-59737500D03*
D22*
X146650000Y-61150000D03*
X146650000Y-61650000D03*
X146650000Y-62150000D03*
X146650000Y-62650000D03*
X146650000Y-63150000D03*
X146650000Y-63650000D03*
X146650000Y-64150000D03*
X146650000Y-64650000D03*
X146650000Y-65150000D03*
X146650000Y-65650000D03*
X146650000Y-66150000D03*
X146650000Y-66650000D03*
D21*
X145237500Y-68062500D03*
X144737500Y-68062500D03*
X144237500Y-68062500D03*
X143737500Y-68062500D03*
X143237500Y-68062500D03*
X142737500Y-68062500D03*
X142237500Y-68062500D03*
X141737500Y-68062500D03*
X141237500Y-68062500D03*
X140737500Y-68062500D03*
X140237500Y-68062500D03*
X139737500Y-68062500D03*
D22*
X138325000Y-66650000D03*
X138325000Y-66150000D03*
X138325000Y-65650000D03*
X138325000Y-65150000D03*
X138325000Y-64650000D03*
X138325000Y-64150000D03*
X138325000Y-63650000D03*
X138325000Y-63150000D03*
X138325000Y-62650000D03*
X138325000Y-62150000D03*
X138325000Y-61650000D03*
X138325000Y-61150000D03*
D19*
X148199999Y-62550000D03*
X149219999Y-62550000D03*
D23*
X137340000Y-60250000D03*
X138300000Y-60250000D03*
D24*
X145589689Y-73510425D03*
X148981172Y-68082918D03*
X146013624Y-72831987D03*
X148557236Y-68761356D03*
D25*
X147947829Y-69736611D03*
X147417910Y-70584660D03*
X147152950Y-71008684D03*
X146623031Y-71856732D03*
X146358071Y-72280756D03*
X146887991Y-71432708D03*
X147682870Y-70160635D03*
X148217028Y-69305803D03*
D26*
X148316797Y-78015415D03*
X154225715Y-68559170D03*
D27*
X151003291Y-66545222D03*
X145094215Y-76001721D03*
D10*
X148300000Y-65700000D03*
X148300000Y-66660000D03*
D28*
X140499999Y-54049999D03*
X142699999Y-54049999D03*
X142699999Y-55749999D03*
X140499999Y-55749999D03*
D23*
X142220000Y-73050000D03*
X143180000Y-73050000D03*
D29*
X148250000Y-61600000D03*
X149220000Y-61600000D03*
D23*
X140440000Y-57150000D03*
X141400000Y-57150000D03*
D17*
X138650000Y-58340000D03*
X138650000Y-59360000D03*
D13*
X148350000Y-56919999D03*
X148350000Y-55899999D03*
D19*
X144749999Y-69600000D03*
X145769999Y-69600000D03*
D30*
X150596342Y-60382177D03*
X149705634Y-54044462D03*
X150485003Y-59589963D03*
X149816972Y-54836676D03*
D31*
X149977021Y-55975484D03*
X150116194Y-56965753D03*
X150185781Y-57460887D03*
X150324954Y-58451155D03*
X150394541Y-58946289D03*
X150255367Y-57956021D03*
X150046608Y-56470619D03*
X149906321Y-55472428D03*
D32*
X155581179Y-62080248D03*
X154029316Y-51038164D03*
D33*
X150266255Y-51566725D03*
X151818161Y-62609105D03*
D15*
X149260000Y-64550000D03*
X148240000Y-64550000D03*
X149260000Y-63500000D03*
X148240000Y-63500000D03*
D19*
X146175532Y-68598922D03*
X147195532Y-68598922D03*
D15*
X141710000Y-58200000D03*
X140690000Y-58200000D03*
D13*
X149200000Y-60210000D03*
X149200000Y-59190000D03*
M02*
