G04 #@! TF.GenerationSoftware,KiCad,Pcbnew,(7.0.0-0)*
G04 #@! TF.CreationDate,2024-01-02T18:24:24+08:00*
G04 #@! TF.ProjectId,SWDProgrammer,53574450-726f-4677-9261-6d6d65722e6b,rev?*
G04 #@! TF.SameCoordinates,Original*
G04 #@! TF.FileFunction,Copper,L2,Inr*
G04 #@! TF.FilePolarity,Positive*
%FSLAX46Y46*%
G04 Gerber Fmt 4.6, Leading zero omitted, Abs format (unit mm)*
G04 Created by KiCad (PCBNEW (7.0.0-0)) date 2024-01-02 18:24:24*
%MOMM*%
%LPD*%
G01*
G04 APERTURE LIST*
G04 Aperture macros list*
%AMHorizOval*
0 Thick line with rounded ends*
0 $1 width*
0 $2 $3 position (X,Y) of the first rounded end (center of the circle)*
0 $4 $5 position (X,Y) of the second rounded end (center of the circle)*
0 Add line between two ends*
20,1,$1,$2,$3,$4,$5,0*
0 Add two circle primitives to create the rounded ends*
1,1,$1,$2,$3*
1,1,$1,$4,$5*%
G04 Aperture macros list end*
G04 #@! TA.AperFunction,ComponentPad*
%ADD10HorizOval,1.000000X-0.508829X0.317952X0.508829X-0.317952X0*%
G04 #@! TD*
G04 #@! TA.AperFunction,ComponentPad*
%ADD11HorizOval,1.000000X-0.339219X0.211968X0.339219X-0.211968X0*%
G04 #@! TD*
G04 #@! TA.AperFunction,ComponentPad*
%ADD12HorizOval,1.000000X0.594161X0.083504X-0.594161X-0.083504X0*%
G04 #@! TD*
G04 #@! TA.AperFunction,ComponentPad*
%ADD13HorizOval,1.000000X0.396107X0.055669X-0.396107X-0.055669X0*%
G04 #@! TD*
G04 #@! TA.AperFunction,ViaPad*
%ADD14C,0.450000*%
G04 #@! TD*
G04 #@! TA.AperFunction,Conductor*
%ADD15C,0.100000*%
G04 #@! TD*
G04 APERTURE END LIST*
D10*
X148316797Y-78015415D03*
X154225715Y-68559170D03*
D11*
X151003291Y-66545222D03*
X145094215Y-76001721D03*
D12*
X155581179Y-62080248D03*
X154029316Y-51038164D03*
D13*
X150266255Y-51566725D03*
X151818161Y-62609105D03*
D14*
X143800000Y-73200000D03*
X145250000Y-71450000D03*
X146000000Y-69600000D03*
X146550000Y-70450000D03*
X147100000Y-69700000D03*
X147850000Y-68450000D03*
X147750000Y-66450000D03*
X145450000Y-62850000D03*
X147750000Y-63500000D03*
X149800000Y-63500000D03*
X149750000Y-64600000D03*
X149800000Y-61600000D03*
X150000000Y-59700000D03*
X149300000Y-58050000D03*
X148750000Y-57500000D03*
X149500000Y-57050000D03*
X149300000Y-54900000D03*
X144300000Y-53350000D03*
X145250000Y-54500000D03*
X146150000Y-57050000D03*
X146250000Y-55550000D03*
X143771839Y-58904409D03*
X143233206Y-58795658D03*
X142820000Y-58250000D03*
X138300000Y-67350000D03*
X137950000Y-69250000D03*
X136900000Y-68400000D03*
X141050000Y-70600000D03*
X140250000Y-67000000D03*
X143300000Y-66900000D03*
X141250000Y-63100000D03*
X141250000Y-61800000D03*
X140200000Y-61000000D03*
X138900000Y-60600000D03*
X135750000Y-61050000D03*
X136472084Y-61027916D03*
X135850000Y-59875500D03*
X133695191Y-60207214D03*
X134000000Y-59750000D03*
X133600000Y-59350000D03*
X139850000Y-63400000D03*
D15*
X133650000Y-59450000D02*
X133800000Y-59300000D01*
X133800000Y-59300000D02*
X134450000Y-59300000D01*
X134450000Y-59300000D02*
X135500000Y-60350000D01*
X135500000Y-60350000D02*
X137750000Y-60350000D01*
X137750000Y-60350000D02*
X141450000Y-64050000D01*
X141450000Y-64050000D02*
X144250000Y-64050000D01*
X144250000Y-64050000D02*
X145450000Y-62850000D01*
X140850000Y-64400000D02*
X139850000Y-63400000D01*
X146550000Y-70450000D02*
X146550000Y-70150000D01*
X146550000Y-70250000D02*
X147100000Y-69700000D01*
X146550000Y-70150000D02*
X146000000Y-69600000D01*
X146550000Y-70450000D02*
X146550000Y-70250000D01*
X146850000Y-64400000D02*
X140850000Y-64400000D01*
X147750000Y-63500000D02*
X146850000Y-64400000D01*
X138100000Y-63450000D02*
X138100000Y-61700000D01*
X137050000Y-60650000D02*
X134900000Y-60650000D01*
X134900000Y-60650000D02*
X134000000Y-59750000D01*
X138100000Y-63450000D02*
X141550000Y-66900000D01*
X141550000Y-66900000D02*
X143300000Y-66900000D01*
X138100000Y-61700000D02*
X137050000Y-60650000D01*
G04 #@! TA.AperFunction,Conductor*
G36*
X154587636Y-49444201D02*
G01*
X154608209Y-49472014D01*
X154784228Y-49887248D01*
X154784987Y-49889107D01*
X154922670Y-50240112D01*
X154926259Y-50282060D01*
X154906387Y-50319177D01*
X154869487Y-50339448D01*
X154827502Y-50336311D01*
X154782006Y-50319028D01*
X154782001Y-50319027D01*
X154777653Y-50317375D01*
X154773031Y-50316856D01*
X154773025Y-50316855D01*
X154618950Y-50299574D01*
X154614323Y-50299055D01*
X154609720Y-50299701D01*
X154609712Y-50299702D01*
X153306399Y-50482871D01*
X153306391Y-50482872D01*
X153304097Y-50483195D01*
X153301860Y-50483802D01*
X153301849Y-50483805D01*
X153189790Y-50514251D01*
X153189782Y-50514254D01*
X153185300Y-50515472D01*
X153181260Y-50517766D01*
X153181255Y-50517769D01*
X153046439Y-50594355D01*
X153046435Y-50594357D01*
X153042395Y-50596653D01*
X153039052Y-50599881D01*
X153039047Y-50599885D01*
X152927516Y-50707589D01*
X152927512Y-50707593D01*
X152924167Y-50710824D01*
X152921730Y-50714785D01*
X152921727Y-50714789D01*
X152840488Y-50846840D01*
X152840484Y-50846847D01*
X152838048Y-50850808D01*
X152836672Y-50855251D01*
X152836670Y-50855257D01*
X152790823Y-51003366D01*
X152790822Y-51003370D01*
X152789447Y-51007813D01*
X152789219Y-51012455D01*
X152789219Y-51012461D01*
X152782567Y-51148491D01*
X152781419Y-51171971D01*
X152782353Y-51176524D01*
X152782354Y-51176528D01*
X152813530Y-51328408D01*
X152813531Y-51328413D01*
X152814467Y-51332969D01*
X152816506Y-51337150D01*
X152816508Y-51337155D01*
X152863380Y-51433257D01*
X152886515Y-51480690D01*
X152889530Y-51484232D01*
X152889531Y-51484234D01*
X152952788Y-51558560D01*
X152993037Y-51605852D01*
X153127338Y-51700591D01*
X153280981Y-51758955D01*
X153444311Y-51777275D01*
X154754537Y-51593135D01*
X154873334Y-51560858D01*
X155016239Y-51479677D01*
X155134466Y-51365506D01*
X155181989Y-51288257D01*
X155212720Y-51260453D01*
X155253581Y-51253530D01*
X155291756Y-51269662D01*
X155315271Y-51303788D01*
X155403292Y-51569812D01*
X155404453Y-51612446D01*
X155381890Y-51648640D01*
X155343099Y-51666370D01*
X150879218Y-52278949D01*
X150835897Y-52271740D01*
X150804291Y-52241250D01*
X150795530Y-52198216D01*
X150812700Y-52157796D01*
X150849755Y-52134225D01*
X150912218Y-52117254D01*
X151055124Y-52036073D01*
X151173351Y-51921903D01*
X151259470Y-51781918D01*
X151308071Y-51624913D01*
X151316100Y-51460755D01*
X151283052Y-51299758D01*
X151211004Y-51152036D01*
X151104482Y-51026874D01*
X151084050Y-51012461D01*
X150973986Y-50934819D01*
X150973985Y-50934818D01*
X150970181Y-50932135D01*
X150965830Y-50930482D01*
X150965826Y-50930480D01*
X150820891Y-50875424D01*
X150820886Y-50875423D01*
X150816538Y-50873771D01*
X150811916Y-50873252D01*
X150811910Y-50873251D01*
X150657835Y-50855970D01*
X150653208Y-50855451D01*
X150648605Y-50856097D01*
X150648597Y-50856098D01*
X149741393Y-50983597D01*
X149741385Y-50983598D01*
X149739091Y-50983921D01*
X149736854Y-50984528D01*
X149736843Y-50984531D01*
X149624783Y-51014977D01*
X149624775Y-51014980D01*
X149620293Y-51016198D01*
X149616253Y-51018492D01*
X149616248Y-51018495D01*
X149481432Y-51095081D01*
X149481428Y-51095083D01*
X149477388Y-51097379D01*
X149474045Y-51100607D01*
X149474040Y-51100611D01*
X149362510Y-51208314D01*
X149362506Y-51208318D01*
X149359161Y-51211549D01*
X149356724Y-51215510D01*
X149356721Y-51215514D01*
X149275479Y-51347571D01*
X149275476Y-51347577D01*
X149273042Y-51351534D01*
X149271667Y-51355975D01*
X149271665Y-51355980D01*
X149225816Y-51504091D01*
X149225814Y-51504097D01*
X149224440Y-51508539D01*
X149224213Y-51513178D01*
X149224212Y-51513185D01*
X149218531Y-51629359D01*
X149216412Y-51672697D01*
X149217346Y-51677250D01*
X149217347Y-51677254D01*
X149248523Y-51829133D01*
X149248524Y-51829138D01*
X149249460Y-51833694D01*
X149251499Y-51837875D01*
X149251501Y-51837880D01*
X149290791Y-51918436D01*
X149321508Y-51981416D01*
X149428029Y-52106578D01*
X149562330Y-52201317D01*
X149715973Y-52259681D01*
X149844018Y-52274043D01*
X149888078Y-52295238D01*
X149909303Y-52339282D01*
X149898429Y-52386950D01*
X149860203Y-52417432D01*
X149830831Y-52427706D01*
X149830571Y-52427796D01*
X149790568Y-52441621D01*
X149790561Y-52441624D01*
X149783883Y-52443933D01*
X149783514Y-52444259D01*
X149783050Y-52444422D01*
X149777800Y-52449111D01*
X149777799Y-52449113D01*
X149746293Y-52477262D01*
X149746087Y-52477445D01*
X149714598Y-52505367D01*
X149714595Y-52505370D01*
X149709318Y-52510050D01*
X149709102Y-52510492D01*
X149708736Y-52510820D01*
X149687330Y-52555260D01*
X149665733Y-52599668D01*
X149665703Y-52600159D01*
X149665490Y-52600603D01*
X149665092Y-52607672D01*
X149665092Y-52607673D01*
X149662731Y-52649632D01*
X149662715Y-52649909D01*
X149660195Y-52691866D01*
X149660195Y-52691870D01*
X149659759Y-52699144D01*
X149665798Y-52716618D01*
X149669130Y-52730449D01*
X150924435Y-61627963D01*
X150925046Y-61642430D01*
X150924452Y-61653049D01*
X150924452Y-61653052D01*
X150924046Y-61660327D01*
X150926453Y-61667203D01*
X150926454Y-61667205D01*
X150933998Y-61688748D01*
X150940334Y-61706843D01*
X150956940Y-61754312D01*
X150956967Y-61754342D01*
X150956981Y-61754382D01*
X150982612Y-61783050D01*
X150990443Y-61791809D01*
X150990459Y-61791827D01*
X151002900Y-61805752D01*
X151023338Y-61828626D01*
X151023375Y-61828643D01*
X151023403Y-61828675D01*
X151030151Y-61831923D01*
X151030153Y-61831924D01*
X151069126Y-61850680D01*
X151069127Y-61850681D01*
X151113121Y-61871872D01*
X151113161Y-61871874D01*
X151113200Y-61871893D01*
X151164279Y-61874749D01*
X151212619Y-61877469D01*
X151229541Y-61871548D01*
X151243597Y-61868131D01*
X156655064Y-61102907D01*
X156697487Y-61109485D01*
X156729120Y-61138512D01*
X156739313Y-61180217D01*
X156724594Y-61449493D01*
X156712307Y-61486455D01*
X156682952Y-61512058D01*
X156644663Y-61519207D01*
X156608049Y-61505923D01*
X156483159Y-61417823D01*
X156478808Y-61416170D01*
X156478804Y-61416168D01*
X156333869Y-61361112D01*
X156333864Y-61361111D01*
X156329516Y-61359459D01*
X156324894Y-61358940D01*
X156324888Y-61358939D01*
X156170813Y-61341658D01*
X156166186Y-61341139D01*
X156161583Y-61341785D01*
X156161575Y-61341786D01*
X154858262Y-61524955D01*
X154858254Y-61524956D01*
X154855960Y-61525279D01*
X154853723Y-61525886D01*
X154853712Y-61525889D01*
X154741653Y-61556335D01*
X154741645Y-61556338D01*
X154737163Y-61557556D01*
X154733123Y-61559850D01*
X154733118Y-61559853D01*
X154598302Y-61636439D01*
X154598298Y-61636441D01*
X154594258Y-61638737D01*
X154590915Y-61641965D01*
X154590910Y-61641969D01*
X154479379Y-61749673D01*
X154479375Y-61749677D01*
X154476030Y-61752908D01*
X154473593Y-61756869D01*
X154473590Y-61756873D01*
X154392351Y-61888924D01*
X154392347Y-61888931D01*
X154389911Y-61892892D01*
X154388535Y-61897335D01*
X154388533Y-61897341D01*
X154342686Y-62045450D01*
X154342685Y-62045454D01*
X154341310Y-62049897D01*
X154341082Y-62054539D01*
X154341082Y-62054545D01*
X154333509Y-62209406D01*
X154333282Y-62214055D01*
X154334216Y-62218608D01*
X154334217Y-62218612D01*
X154365393Y-62370492D01*
X154365394Y-62370497D01*
X154366330Y-62375053D01*
X154368369Y-62379234D01*
X154368371Y-62379239D01*
X154421181Y-62487514D01*
X154438378Y-62522774D01*
X154441393Y-62526316D01*
X154441394Y-62526318D01*
X154484832Y-62577357D01*
X154544900Y-62647936D01*
X154679201Y-62742675D01*
X154832844Y-62801039D01*
X154996174Y-62819359D01*
X156306400Y-62635219D01*
X156425197Y-62602942D01*
X156429242Y-62600643D01*
X156429247Y-62600642D01*
X156526307Y-62545504D01*
X156564907Y-62535874D01*
X156602915Y-62547624D01*
X156629346Y-62577357D01*
X156636561Y-62616480D01*
X156614018Y-62866929D01*
X156613739Y-62869517D01*
X156496759Y-63800919D01*
X156496390Y-63803495D01*
X156346726Y-64730250D01*
X156346266Y-64732811D01*
X156164112Y-65653712D01*
X156163562Y-65656256D01*
X155949141Y-66570185D01*
X155948502Y-66572707D01*
X155702083Y-67478513D01*
X155701356Y-67481012D01*
X155423231Y-68377621D01*
X155422416Y-68380093D01*
X155391362Y-68469024D01*
X155368730Y-68501595D01*
X155332531Y-68517801D01*
X155293162Y-68512987D01*
X155263063Y-68489420D01*
X155262290Y-68488036D01*
X155148948Y-68369015D01*
X155090409Y-68332436D01*
X154028858Y-67669105D01*
X154028859Y-67669105D01*
X154026893Y-67667877D01*
X154024790Y-67666905D01*
X154024784Y-67666902D01*
X153919370Y-67618194D01*
X153919368Y-67618193D01*
X153915143Y-67616241D01*
X153910563Y-67615400D01*
X153910562Y-67615400D01*
X153758064Y-67587411D01*
X153758057Y-67587410D01*
X153753488Y-67586572D01*
X153748851Y-67586896D01*
X153748848Y-67586896D01*
X153594179Y-67597711D01*
X153594177Y-67597711D01*
X153589534Y-67598036D01*
X153585116Y-67599505D01*
X153585114Y-67599506D01*
X153437999Y-67648444D01*
X153437994Y-67648446D01*
X153433582Y-67649914D01*
X153429673Y-67652432D01*
X153429669Y-67652435D01*
X153299343Y-67736425D01*
X153299338Y-67736428D01*
X153295431Y-67738947D01*
X153292270Y-67742359D01*
X153292268Y-67742362D01*
X153186923Y-67856123D01*
X153186918Y-67856129D01*
X153183762Y-67859538D01*
X153181549Y-67863629D01*
X153181548Y-67863632D01*
X153107804Y-68000018D01*
X153107802Y-68000022D01*
X153105591Y-68004112D01*
X153104467Y-68008619D01*
X153104465Y-68008625D01*
X153066955Y-68159066D01*
X153066954Y-68159071D01*
X153065829Y-68163585D01*
X153065861Y-68168239D01*
X153065861Y-68168244D01*
X153066896Y-68316376D01*
X153066977Y-68327936D01*
X153068166Y-68332436D01*
X153107771Y-68482340D01*
X153107773Y-68482346D01*
X153108960Y-68486837D01*
X153111228Y-68490896D01*
X153111229Y-68490897D01*
X153186870Y-68626242D01*
X153186872Y-68626245D01*
X153189142Y-68630306D01*
X153192350Y-68633675D01*
X153192351Y-68633676D01*
X153246022Y-68690036D01*
X153265184Y-68727527D01*
X153260794Y-68769402D01*
X153234274Y-68802104D01*
X153194209Y-68815047D01*
X153153569Y-68804041D01*
X152778683Y-68572675D01*
X151019518Y-67486981D01*
X150990621Y-67453747D01*
X150985725Y-67409980D01*
X151006564Y-67371181D01*
X151045757Y-67351094D01*
X151089422Y-67356833D01*
X151140028Y-67380216D01*
X151144255Y-67382169D01*
X151305910Y-67411838D01*
X151469864Y-67400374D01*
X151625816Y-67348496D01*
X151763967Y-67259464D01*
X151875636Y-67138872D01*
X151953807Y-66994298D01*
X151993569Y-66834825D01*
X151992421Y-66670475D01*
X151950438Y-66511573D01*
X151870256Y-66368104D01*
X151756914Y-66249083D01*
X151725661Y-66229554D01*
X151437044Y-66049205D01*
X150974080Y-65759913D01*
X150932025Y-65740481D01*
X150866555Y-65710229D01*
X150866550Y-65710227D01*
X150862329Y-65708277D01*
X150857747Y-65707436D01*
X150705250Y-65679447D01*
X150705243Y-65679446D01*
X150700674Y-65678608D01*
X150696037Y-65678932D01*
X150696034Y-65678932D01*
X150541365Y-65689747D01*
X150541363Y-65689747D01*
X150536720Y-65690072D01*
X150532302Y-65691541D01*
X150532300Y-65691542D01*
X150385184Y-65740481D01*
X150385181Y-65740482D01*
X150380769Y-65741950D01*
X150376857Y-65744470D01*
X150376857Y-65744471D01*
X150246529Y-65828461D01*
X150246524Y-65828464D01*
X150242617Y-65830983D01*
X150239461Y-65834390D01*
X150239455Y-65834396D01*
X150134109Y-65948159D01*
X150134104Y-65948165D01*
X150130948Y-65951574D01*
X150128735Y-65955665D01*
X150128734Y-65955668D01*
X150054990Y-66092054D01*
X150054988Y-66092058D01*
X150052777Y-66096148D01*
X150051653Y-66100655D01*
X150051651Y-66100661D01*
X150014141Y-66251102D01*
X150014140Y-66251107D01*
X150013015Y-66255621D01*
X150013047Y-66260275D01*
X150013047Y-66260280D01*
X150013829Y-66372167D01*
X150014163Y-66419971D01*
X150015352Y-66424471D01*
X150054957Y-66574376D01*
X150054959Y-66574382D01*
X150056146Y-66578873D01*
X150058414Y-66582932D01*
X150058415Y-66582933D01*
X150134056Y-66718278D01*
X150134058Y-66718281D01*
X150136328Y-66722342D01*
X150139536Y-66725711D01*
X150139537Y-66725712D01*
X150239127Y-66830292D01*
X150259255Y-66874860D01*
X150247190Y-66922251D01*
X150208200Y-66951768D01*
X150159314Y-66950521D01*
X150136223Y-66941770D01*
X150135830Y-66941600D01*
X150135314Y-66941282D01*
X150113041Y-66932984D01*
X150112707Y-66932859D01*
X150073519Y-66918009D01*
X150073518Y-66918008D01*
X150066924Y-66915510D01*
X150066188Y-66915532D01*
X150065503Y-66915277D01*
X150058477Y-66915530D01*
X150058474Y-66915530D01*
X150016738Y-66917037D01*
X150016324Y-66917051D01*
X149974333Y-66918331D01*
X149974332Y-66918331D01*
X149967315Y-66918545D01*
X149966645Y-66918846D01*
X149965913Y-66918873D01*
X149959539Y-66921786D01*
X149959534Y-66921788D01*
X149921479Y-66939185D01*
X149921104Y-66939355D01*
X149882864Y-66956579D01*
X149882859Y-66956581D01*
X149876450Y-66959469D01*
X149875946Y-66960004D01*
X149875280Y-66960309D01*
X149870493Y-66965453D01*
X149870489Y-66965457D01*
X149841946Y-66996137D01*
X149841667Y-66996436D01*
X149826556Y-67012498D01*
X149826545Y-67012510D01*
X149825401Y-67013727D01*
X149825080Y-67014239D01*
X149824802Y-67014568D01*
X149812364Y-67027938D01*
X149812362Y-67027941D01*
X149807402Y-67033273D01*
X149804860Y-67040095D01*
X149804858Y-67040099D01*
X149801486Y-67049152D01*
X149794895Y-67062536D01*
X145036885Y-74675661D01*
X145028278Y-74686882D01*
X145020521Y-74695208D01*
X145020516Y-74695215D01*
X145015552Y-74700544D01*
X145013003Y-74707367D01*
X145013002Y-74707371D01*
X144998361Y-74746579D01*
X144998236Y-74746912D01*
X144985535Y-74780428D01*
X144980894Y-74792677D01*
X144980913Y-74793310D01*
X144980692Y-74793903D01*
X144980941Y-74800963D01*
X144980941Y-74800967D01*
X144982419Y-74842783D01*
X144982431Y-74843141D01*
X144983714Y-74885252D01*
X144983714Y-74885254D01*
X144983929Y-74892287D01*
X144984189Y-74892865D01*
X144984212Y-74893496D01*
X144987143Y-74899920D01*
X144987144Y-74899924D01*
X145004581Y-74938142D01*
X145004726Y-74938462D01*
X145024854Y-74983151D01*
X145025313Y-74983583D01*
X145025577Y-74984161D01*
X145061610Y-75017733D01*
X145097434Y-75051439D01*
X145114893Y-75058055D01*
X145127574Y-75064305D01*
X146357364Y-75824603D01*
X149757171Y-77926478D01*
X149785469Y-77958459D01*
X149791386Y-78000750D01*
X149772950Y-78039269D01*
X149591426Y-78238434D01*
X149558295Y-78259375D01*
X149519115Y-78260458D01*
X149484879Y-78241378D01*
X149465190Y-78207489D01*
X149433554Y-78087750D01*
X149353372Y-77944281D01*
X149336418Y-77926478D01*
X149243238Y-77828629D01*
X149243239Y-77828629D01*
X149240030Y-77825260D01*
X149181491Y-77788681D01*
X148119940Y-77125350D01*
X148119941Y-77125350D01*
X148117975Y-77124122D01*
X148115872Y-77123150D01*
X148115866Y-77123147D01*
X148010452Y-77074439D01*
X148010450Y-77074438D01*
X148006225Y-77072486D01*
X148001645Y-77071645D01*
X148001644Y-77071645D01*
X147849146Y-77043656D01*
X147849139Y-77043655D01*
X147844570Y-77042817D01*
X147839933Y-77043141D01*
X147839930Y-77043141D01*
X147685261Y-77053956D01*
X147685259Y-77053956D01*
X147680616Y-77054281D01*
X147676198Y-77055750D01*
X147676196Y-77055751D01*
X147529081Y-77104689D01*
X147529076Y-77104691D01*
X147524664Y-77106159D01*
X147520755Y-77108677D01*
X147520751Y-77108680D01*
X147390425Y-77192670D01*
X147390420Y-77192673D01*
X147386513Y-77195192D01*
X147383352Y-77198604D01*
X147383350Y-77198607D01*
X147278005Y-77312368D01*
X147278000Y-77312374D01*
X147274844Y-77315783D01*
X147272631Y-77319874D01*
X147272630Y-77319877D01*
X147198886Y-77456263D01*
X147198884Y-77456267D01*
X147196673Y-77460357D01*
X147195549Y-77464864D01*
X147195547Y-77464870D01*
X147158037Y-77615311D01*
X147158036Y-77615316D01*
X147156911Y-77619830D01*
X147156943Y-77624484D01*
X147156943Y-77624489D01*
X147158026Y-77779525D01*
X147158059Y-77784181D01*
X147159248Y-77788681D01*
X147198853Y-77938585D01*
X147198855Y-77938591D01*
X147200042Y-77943082D01*
X147202310Y-77947141D01*
X147202311Y-77947142D01*
X147277952Y-78082487D01*
X147277954Y-78082490D01*
X147280224Y-78086551D01*
X147393566Y-78205572D01*
X148515621Y-78906710D01*
X148627372Y-78958346D01*
X148631953Y-78959186D01*
X148631954Y-78959187D01*
X148712427Y-78973957D01*
X148748293Y-78991488D01*
X148769833Y-79025099D01*
X148770778Y-79065009D01*
X148750853Y-79099602D01*
X148461938Y-79382637D01*
X148460422Y-79384081D01*
X148128583Y-79691258D01*
X148096131Y-79708776D01*
X148059254Y-79708456D01*
X148027111Y-79690378D01*
X147294269Y-78988016D01*
X145186343Y-76967762D01*
X145164575Y-76926631D01*
X145171666Y-76880637D01*
X145204813Y-76847972D01*
X145250904Y-76841554D01*
X145396834Y-76868337D01*
X145560788Y-76856873D01*
X145716740Y-76804995D01*
X145854891Y-76715963D01*
X145966560Y-76595371D01*
X146044731Y-76450797D01*
X146084493Y-76291324D01*
X146083345Y-76126974D01*
X146041362Y-75968072D01*
X145990167Y-75876470D01*
X145963451Y-75828666D01*
X145963449Y-75828664D01*
X145961180Y-75824603D01*
X145847838Y-75705582D01*
X145065004Y-75216412D01*
X145022949Y-75196980D01*
X144957479Y-75166728D01*
X144957474Y-75166726D01*
X144953253Y-75164776D01*
X144948671Y-75163935D01*
X144796174Y-75135946D01*
X144796167Y-75135945D01*
X144791598Y-75135107D01*
X144786961Y-75135431D01*
X144786958Y-75135431D01*
X144632289Y-75146246D01*
X144632287Y-75146246D01*
X144627644Y-75146571D01*
X144623226Y-75148040D01*
X144623224Y-75148041D01*
X144476108Y-75196980D01*
X144476105Y-75196981D01*
X144471693Y-75198449D01*
X144467781Y-75200969D01*
X144467781Y-75200970D01*
X144337453Y-75284960D01*
X144337448Y-75284963D01*
X144333541Y-75287482D01*
X144330385Y-75290889D01*
X144330379Y-75290895D01*
X144225033Y-75404658D01*
X144225028Y-75404664D01*
X144221872Y-75408073D01*
X144219659Y-75412164D01*
X144219658Y-75412167D01*
X144145914Y-75548553D01*
X144145912Y-75548557D01*
X144143701Y-75552647D01*
X144142577Y-75557154D01*
X144142575Y-75557160D01*
X144105065Y-75707601D01*
X144105064Y-75707606D01*
X144103939Y-75712120D01*
X144103971Y-75716774D01*
X144103971Y-75716779D01*
X144104250Y-75756741D01*
X144092210Y-75797719D01*
X144059532Y-75825218D01*
X144017100Y-75830079D01*
X143979050Y-75810682D01*
X141255073Y-73200000D01*
X143419819Y-73200000D01*
X143438426Y-73317482D01*
X143492427Y-73423465D01*
X143576535Y-73507573D01*
X143682518Y-73561574D01*
X143800000Y-73580181D01*
X143917482Y-73561574D01*
X144023465Y-73507573D01*
X144107573Y-73423465D01*
X144161574Y-73317482D01*
X144180181Y-73200000D01*
X144161574Y-73082518D01*
X144107573Y-72976535D01*
X144023465Y-72892427D01*
X143917482Y-72838426D01*
X143911728Y-72837514D01*
X143911726Y-72837514D01*
X143805752Y-72820730D01*
X143800000Y-72819819D01*
X143794248Y-72820730D01*
X143688273Y-72837514D01*
X143688269Y-72837515D01*
X143682518Y-72838426D01*
X143677326Y-72841071D01*
X143677324Y-72841072D01*
X143581727Y-72889781D01*
X143581724Y-72889782D01*
X143576535Y-72892427D01*
X143572418Y-72896543D01*
X143572415Y-72896546D01*
X143496546Y-72972415D01*
X143496543Y-72972418D01*
X143492427Y-72976535D01*
X143489782Y-72981724D01*
X143489781Y-72981727D01*
X143441072Y-73077324D01*
X143438426Y-73082518D01*
X143437515Y-73088269D01*
X143437514Y-73088273D01*
X143420730Y-73194248D01*
X143419819Y-73200000D01*
X141255073Y-73200000D01*
X138658817Y-70711726D01*
X138542243Y-70600000D01*
X140669819Y-70600000D01*
X140670730Y-70605752D01*
X140681454Y-70673465D01*
X140688426Y-70717482D01*
X140691072Y-70722675D01*
X140735019Y-70808927D01*
X140742427Y-70823465D01*
X140826535Y-70907573D01*
X140932518Y-70961574D01*
X141050000Y-70980181D01*
X141167482Y-70961574D01*
X141273465Y-70907573D01*
X141357573Y-70823465D01*
X141411574Y-70717482D01*
X141430181Y-70600000D01*
X141411574Y-70482518D01*
X141357573Y-70376535D01*
X141273465Y-70292427D01*
X141167482Y-70238426D01*
X141161728Y-70237514D01*
X141161726Y-70237514D01*
X141055752Y-70220730D01*
X141050000Y-70219819D01*
X141044248Y-70220730D01*
X140938273Y-70237514D01*
X140938269Y-70237515D01*
X140932518Y-70238426D01*
X140927326Y-70241071D01*
X140927324Y-70241072D01*
X140831727Y-70289781D01*
X140831724Y-70289782D01*
X140826535Y-70292427D01*
X140822418Y-70296543D01*
X140822415Y-70296546D01*
X140746546Y-70372415D01*
X140746543Y-70372418D01*
X140742427Y-70376535D01*
X140739782Y-70381724D01*
X140739781Y-70381727D01*
X140692174Y-70475162D01*
X140688426Y-70482518D01*
X140687515Y-70488269D01*
X140687514Y-70488273D01*
X140686617Y-70493937D01*
X140669819Y-70600000D01*
X138542243Y-70600000D01*
X137498847Y-69600000D01*
X145619819Y-69600000D01*
X145620730Y-69605750D01*
X145620730Y-69605752D01*
X145637253Y-69710080D01*
X145638426Y-69717482D01*
X145641072Y-69722675D01*
X145689378Y-69817482D01*
X145692427Y-69823465D01*
X145776535Y-69907573D01*
X145882518Y-69961574D01*
X146000000Y-69980181D01*
X146046180Y-69972866D01*
X146080620Y-69975577D01*
X146110080Y-69993629D01*
X146240705Y-70124254D01*
X146258757Y-70153713D01*
X146261468Y-70188156D01*
X146248247Y-70220076D01*
X146246548Y-70222413D01*
X146242427Y-70226535D01*
X146239782Y-70231725D01*
X146239779Y-70231730D01*
X146191072Y-70327324D01*
X146188426Y-70332518D01*
X146187515Y-70338269D01*
X146187514Y-70338273D01*
X146180632Y-70381727D01*
X146169819Y-70450000D01*
X146188426Y-70567482D01*
X146242427Y-70673465D01*
X146326535Y-70757573D01*
X146432518Y-70811574D01*
X146550000Y-70830181D01*
X146667482Y-70811574D01*
X146773465Y-70757573D01*
X146857573Y-70673465D01*
X146911574Y-70567482D01*
X146930181Y-70450000D01*
X146911574Y-70332518D01*
X146881791Y-70274066D01*
X146874637Y-70228897D01*
X146895398Y-70188149D01*
X146989920Y-70093627D01*
X147019377Y-70075577D01*
X147053818Y-70072866D01*
X147100000Y-70080181D01*
X147217482Y-70061574D01*
X147323465Y-70007573D01*
X147407573Y-69923465D01*
X147461574Y-69817482D01*
X147480181Y-69700000D01*
X147461574Y-69582518D01*
X147407573Y-69476535D01*
X147323465Y-69392427D01*
X147217482Y-69338426D01*
X147211728Y-69337514D01*
X147211726Y-69337514D01*
X147105752Y-69320730D01*
X147100000Y-69319819D01*
X147094248Y-69320730D01*
X146988273Y-69337514D01*
X146988269Y-69337515D01*
X146982518Y-69338426D01*
X146977326Y-69341071D01*
X146977324Y-69341072D01*
X146881727Y-69389781D01*
X146881724Y-69389782D01*
X146876535Y-69392427D01*
X146872418Y-69396543D01*
X146872415Y-69396546D01*
X146796546Y-69472415D01*
X146796543Y-69472418D01*
X146792427Y-69476535D01*
X146789782Y-69481724D01*
X146789781Y-69481727D01*
X146753118Y-69553683D01*
X146738426Y-69582518D01*
X146737515Y-69588269D01*
X146737514Y-69588273D01*
X146722888Y-69680620D01*
X146719819Y-69700000D01*
X146720730Y-69705752D01*
X146720730Y-69705754D01*
X146727132Y-69746179D01*
X146724421Y-69780622D01*
X146706369Y-69810080D01*
X146652325Y-69864124D01*
X146619152Y-69883277D01*
X146580846Y-69883277D01*
X146547674Y-69864125D01*
X146393628Y-69710079D01*
X146375577Y-69680620D01*
X146372866Y-69646180D01*
X146380181Y-69600000D01*
X146361574Y-69482518D01*
X146307573Y-69376535D01*
X146223465Y-69292427D01*
X146117482Y-69238426D01*
X146111728Y-69237514D01*
X146111726Y-69237514D01*
X146005752Y-69220730D01*
X146000000Y-69219819D01*
X145994248Y-69220730D01*
X145888273Y-69237514D01*
X145888269Y-69237515D01*
X145882518Y-69238426D01*
X145877326Y-69241071D01*
X145877324Y-69241072D01*
X145781727Y-69289781D01*
X145781724Y-69289782D01*
X145776535Y-69292427D01*
X145772418Y-69296543D01*
X145772415Y-69296546D01*
X145696546Y-69372415D01*
X145696543Y-69372418D01*
X145692427Y-69376535D01*
X145689782Y-69381724D01*
X145689781Y-69381727D01*
X145641474Y-69476535D01*
X145638426Y-69482518D01*
X145637515Y-69488269D01*
X145637514Y-69488273D01*
X145630625Y-69531771D01*
X145619819Y-69600000D01*
X137498847Y-69600000D01*
X136763226Y-68894975D01*
X136741534Y-68854289D01*
X136748142Y-68808656D01*
X136780484Y-68775795D01*
X136826003Y-68768461D01*
X136900000Y-68780181D01*
X137017482Y-68761574D01*
X137123465Y-68707573D01*
X137207573Y-68623465D01*
X137261574Y-68517482D01*
X137272262Y-68450000D01*
X147469819Y-68450000D01*
X147470730Y-68455752D01*
X147483482Y-68536271D01*
X147488426Y-68567482D01*
X147491072Y-68572675D01*
X147522153Y-68633676D01*
X147542427Y-68673465D01*
X147626535Y-68757573D01*
X147732518Y-68811574D01*
X147850000Y-68830181D01*
X147967482Y-68811574D01*
X148073465Y-68757573D01*
X148157573Y-68673465D01*
X148211574Y-68567482D01*
X148230181Y-68450000D01*
X148211574Y-68332518D01*
X148157573Y-68226535D01*
X148073465Y-68142427D01*
X147967482Y-68088426D01*
X147961728Y-68087514D01*
X147961726Y-68087514D01*
X147855752Y-68070730D01*
X147850000Y-68069819D01*
X147844248Y-68070730D01*
X147738273Y-68087514D01*
X147738269Y-68087515D01*
X147732518Y-68088426D01*
X147727326Y-68091071D01*
X147727324Y-68091072D01*
X147631727Y-68139781D01*
X147631724Y-68139782D01*
X147626535Y-68142427D01*
X147622418Y-68146543D01*
X147622415Y-68146546D01*
X147546546Y-68222415D01*
X147546543Y-68222418D01*
X147542427Y-68226535D01*
X147539782Y-68231724D01*
X147539781Y-68231727D01*
X147493133Y-68323280D01*
X147488426Y-68332518D01*
X147487515Y-68338269D01*
X147487514Y-68338273D01*
X147480891Y-68380093D01*
X147469819Y-68450000D01*
X137272262Y-68450000D01*
X137280181Y-68400000D01*
X137261574Y-68282518D01*
X137207573Y-68176535D01*
X137123465Y-68092427D01*
X137099503Y-68080218D01*
X137022675Y-68041072D01*
X137017482Y-68038426D01*
X137011728Y-68037514D01*
X137011726Y-68037514D01*
X136905752Y-68020730D01*
X136900000Y-68019819D01*
X136894248Y-68020730D01*
X136788273Y-68037514D01*
X136788269Y-68037515D01*
X136782518Y-68038426D01*
X136777326Y-68041071D01*
X136777324Y-68041072D01*
X136681727Y-68089781D01*
X136681724Y-68089782D01*
X136676535Y-68092427D01*
X136672418Y-68096543D01*
X136672415Y-68096546D01*
X136596546Y-68172415D01*
X136596543Y-68172418D01*
X136592427Y-68176535D01*
X136589782Y-68181724D01*
X136589781Y-68181727D01*
X136564305Y-68231727D01*
X136538426Y-68282518D01*
X136537515Y-68288269D01*
X136537514Y-68288273D01*
X136522972Y-68380093D01*
X136519819Y-68400000D01*
X136520730Y-68405752D01*
X136534303Y-68491450D01*
X136527326Y-68536271D01*
X136495507Y-68568600D01*
X136450803Y-68576290D01*
X136410011Y-68556451D01*
X136166721Y-68323280D01*
X135923281Y-68089965D01*
X135906422Y-68065584D01*
X135900485Y-68036541D01*
X135900485Y-67350000D01*
X137919819Y-67350000D01*
X137920730Y-67355752D01*
X137936250Y-67453747D01*
X137938426Y-67467482D01*
X137992427Y-67573465D01*
X138076535Y-67657573D01*
X138182518Y-67711574D01*
X138300000Y-67730181D01*
X138417482Y-67711574D01*
X138523465Y-67657573D01*
X138607573Y-67573465D01*
X138661574Y-67467482D01*
X138680181Y-67350000D01*
X138661574Y-67232518D01*
X138607573Y-67126535D01*
X138523465Y-67042427D01*
X138484699Y-67022675D01*
X138437039Y-66998391D01*
X138417482Y-66988426D01*
X138411728Y-66987514D01*
X138411726Y-66987514D01*
X138305752Y-66970730D01*
X138300000Y-66969819D01*
X138294248Y-66970730D01*
X138188273Y-66987514D01*
X138188269Y-66987515D01*
X138182518Y-66988426D01*
X138177326Y-66991071D01*
X138177324Y-66991072D01*
X138081727Y-67039781D01*
X138081724Y-67039782D01*
X138076535Y-67042427D01*
X138072418Y-67046543D01*
X138072415Y-67046546D01*
X137996546Y-67122415D01*
X137996543Y-67122418D01*
X137992427Y-67126535D01*
X137989782Y-67131724D01*
X137989781Y-67131727D01*
X137953235Y-67203453D01*
X137938426Y-67232518D01*
X137937515Y-67238269D01*
X137937514Y-67238273D01*
X137931021Y-67279270D01*
X137919819Y-67350000D01*
X135900485Y-67350000D01*
X135900485Y-66574508D01*
X135910399Y-66537508D01*
X135937485Y-66510422D01*
X135974485Y-66500508D01*
X137218023Y-66500508D01*
X137232459Y-66501929D01*
X137249985Y-66505416D01*
X137347725Y-66485974D01*
X137430586Y-66430609D01*
X137485951Y-66347748D01*
X137500485Y-66274682D01*
X137505393Y-66250008D01*
X137501906Y-66232482D01*
X137500485Y-66218046D01*
X137500485Y-62181962D01*
X137501907Y-62167525D01*
X137503971Y-62157149D01*
X137505393Y-62150000D01*
X137485951Y-62052260D01*
X137430586Y-61969399D01*
X137420238Y-61962485D01*
X137353783Y-61918082D01*
X137347725Y-61914034D01*
X137340579Y-61912612D01*
X137340578Y-61912612D01*
X137274659Y-61899500D01*
X137257134Y-61896014D01*
X137249985Y-61894592D01*
X137242836Y-61896014D01*
X137232460Y-61898078D01*
X137218023Y-61899500D01*
X132999485Y-61899500D01*
X132962485Y-61889586D01*
X132935399Y-61862500D01*
X132925485Y-61825500D01*
X132925485Y-59350000D01*
X133219819Y-59350000D01*
X133220730Y-59355752D01*
X133226119Y-59389781D01*
X133238426Y-59467482D01*
X133292427Y-59573465D01*
X133376535Y-59657573D01*
X133482518Y-59711574D01*
X133530915Y-59719239D01*
X133571665Y-59740002D01*
X133592429Y-59780751D01*
X133585275Y-59825923D01*
X133552936Y-59858262D01*
X133476916Y-59896996D01*
X133476913Y-59896997D01*
X133471726Y-59899641D01*
X133467609Y-59903757D01*
X133467606Y-59903760D01*
X133391737Y-59979629D01*
X133391734Y-59979632D01*
X133387618Y-59983749D01*
X133384973Y-59988938D01*
X133384972Y-59988941D01*
X133338483Y-60080181D01*
X133333617Y-60089732D01*
X133332706Y-60095483D01*
X133332705Y-60095487D01*
X133317730Y-60190040D01*
X133315010Y-60207214D01*
X133315921Y-60212966D01*
X133329158Y-60296546D01*
X133333617Y-60324696D01*
X133387618Y-60430679D01*
X133471726Y-60514787D01*
X133577709Y-60568788D01*
X133695191Y-60587395D01*
X133812673Y-60568788D01*
X133918656Y-60514787D01*
X134002764Y-60430679D01*
X134056765Y-60324696D01*
X134066092Y-60265805D01*
X134082911Y-60229323D01*
X134116314Y-60207004D01*
X134156456Y-60205427D01*
X134191506Y-60225055D01*
X134477117Y-60510667D01*
X134726478Y-60760028D01*
X134732006Y-60766214D01*
X134735595Y-60770714D01*
X134739212Y-60778224D01*
X134745727Y-60783420D01*
X134745730Y-60783423D01*
X134762932Y-60797141D01*
X134769120Y-60802670D01*
X134774198Y-60807748D01*
X134777715Y-60809957D01*
X134777718Y-60809960D01*
X134780274Y-60811566D01*
X134787044Y-60816369D01*
X134810769Y-60835290D01*
X134818903Y-60837146D01*
X134821893Y-60838586D01*
X134825013Y-60839677D01*
X134832076Y-60844116D01*
X134862236Y-60847513D01*
X134870405Y-60848900D01*
X134877410Y-60850500D01*
X134884588Y-60850500D01*
X134892871Y-60850964D01*
X134923026Y-60854362D01*
X134930899Y-60851607D01*
X134936598Y-60850965D01*
X134944885Y-60850500D01*
X135314773Y-60850500D01*
X135355076Y-60862438D01*
X135382375Y-60894401D01*
X135387862Y-60936076D01*
X135381592Y-60975668D01*
X135369819Y-61050000D01*
X135370730Y-61055752D01*
X135385750Y-61150591D01*
X135388426Y-61167482D01*
X135442427Y-61273465D01*
X135526535Y-61357573D01*
X135632518Y-61411574D01*
X135750000Y-61430181D01*
X135867482Y-61411574D01*
X135973465Y-61357573D01*
X136057573Y-61273465D01*
X136060221Y-61268267D01*
X136060282Y-61268184D01*
X136093630Y-61242592D01*
X136135536Y-61239292D01*
X136172479Y-61259349D01*
X136248619Y-61335489D01*
X136354602Y-61389490D01*
X136472084Y-61408097D01*
X136589566Y-61389490D01*
X136695549Y-61335489D01*
X136779657Y-61251381D01*
X136833658Y-61145398D01*
X136852265Y-61027916D01*
X136837719Y-60936075D01*
X136843206Y-60894401D01*
X136870505Y-60862438D01*
X136910808Y-60850500D01*
X136936299Y-60850500D01*
X136964618Y-60856133D01*
X136988625Y-60872174D01*
X137877826Y-61761376D01*
X137893867Y-61785383D01*
X137899500Y-61813702D01*
X137899500Y-63405115D01*
X137899035Y-63413402D01*
X137898392Y-63419102D01*
X137895638Y-63426974D01*
X137896571Y-63435258D01*
X137896571Y-63435261D01*
X137899035Y-63457128D01*
X137899500Y-63465412D01*
X137899500Y-63472590D01*
X137900425Y-63476642D01*
X137901097Y-63479588D01*
X137902485Y-63487760D01*
X137904950Y-63509640D01*
X137904950Y-63509642D01*
X137905884Y-63517924D01*
X137910318Y-63524981D01*
X137911415Y-63528115D01*
X137912855Y-63531105D01*
X137914710Y-63539231D01*
X137919906Y-63545747D01*
X137919907Y-63545748D01*
X137933634Y-63562961D01*
X137938432Y-63569723D01*
X137942252Y-63575801D01*
X137945191Y-63578740D01*
X137947324Y-63580873D01*
X137952853Y-63587060D01*
X137971776Y-63610788D01*
X137979288Y-63614405D01*
X137983783Y-63617990D01*
X137989971Y-63623520D01*
X141376485Y-67010035D01*
X141382015Y-67016223D01*
X141385593Y-67020710D01*
X141389212Y-67028224D01*
X141395731Y-67033422D01*
X141395732Y-67033424D01*
X141412932Y-67047141D01*
X141419119Y-67052669D01*
X141424199Y-67057749D01*
X141430275Y-67061567D01*
X141437036Y-67066365D01*
X141454244Y-67080087D01*
X141454245Y-67080087D01*
X141460769Y-67085290D01*
X141468904Y-67087146D01*
X141471900Y-67088589D01*
X141475014Y-67089678D01*
X141482076Y-67094116D01*
X141512236Y-67097513D01*
X141520405Y-67098900D01*
X141527410Y-67100500D01*
X141534588Y-67100500D01*
X141542871Y-67100964D01*
X141573026Y-67104362D01*
X141580899Y-67101607D01*
X141586598Y-67100965D01*
X141594885Y-67100500D01*
X142939163Y-67100500D01*
X142972758Y-67108565D01*
X142991402Y-67124489D01*
X142992427Y-67123465D01*
X143076535Y-67207573D01*
X143182518Y-67261574D01*
X143300000Y-67280181D01*
X143417482Y-67261574D01*
X143523465Y-67207573D01*
X143607573Y-67123465D01*
X143661574Y-67017482D01*
X143680181Y-66900000D01*
X143661574Y-66782518D01*
X143607573Y-66676535D01*
X143523465Y-66592427D01*
X143484699Y-66572675D01*
X143422675Y-66541072D01*
X143417482Y-66538426D01*
X143411728Y-66537514D01*
X143411726Y-66537514D01*
X143305752Y-66520730D01*
X143300000Y-66519819D01*
X143294248Y-66520730D01*
X143188273Y-66537514D01*
X143188269Y-66537515D01*
X143182518Y-66538426D01*
X143177326Y-66541071D01*
X143177324Y-66541072D01*
X143081727Y-66589781D01*
X143081724Y-66589782D01*
X143076535Y-66592427D01*
X143072418Y-66596543D01*
X143072415Y-66596546D01*
X142992427Y-66676535D01*
X142991402Y-66675510D01*
X142972758Y-66691435D01*
X142939163Y-66699500D01*
X141663702Y-66699500D01*
X141635383Y-66693867D01*
X141611376Y-66677826D01*
X141383550Y-66450000D01*
X147369819Y-66450000D01*
X147370730Y-66455752D01*
X147383679Y-66537514D01*
X147388426Y-66567482D01*
X147442427Y-66673465D01*
X147526535Y-66757573D01*
X147632518Y-66811574D01*
X147750000Y-66830181D01*
X147867482Y-66811574D01*
X147973465Y-66757573D01*
X148057573Y-66673465D01*
X148111574Y-66567482D01*
X148130181Y-66450000D01*
X148111574Y-66332518D01*
X148057573Y-66226535D01*
X147973465Y-66142427D01*
X147867482Y-66088426D01*
X147861728Y-66087514D01*
X147861726Y-66087514D01*
X147755752Y-66070730D01*
X147750000Y-66069819D01*
X147744248Y-66070730D01*
X147638273Y-66087514D01*
X147638269Y-66087515D01*
X147632518Y-66088426D01*
X147627326Y-66091071D01*
X147627324Y-66091072D01*
X147531727Y-66139781D01*
X147531724Y-66139782D01*
X147526535Y-66142427D01*
X147522418Y-66146543D01*
X147522415Y-66146546D01*
X147446546Y-66222415D01*
X147446543Y-66222418D01*
X147442427Y-66226535D01*
X147439782Y-66231724D01*
X147439781Y-66231727D01*
X147391072Y-66327324D01*
X147388426Y-66332518D01*
X147387515Y-66338269D01*
X147387514Y-66338273D01*
X147382146Y-66372167D01*
X147369819Y-66450000D01*
X141383550Y-66450000D01*
X138322174Y-63388625D01*
X138306133Y-63364618D01*
X138300500Y-63336299D01*
X138300500Y-61744885D01*
X138300965Y-61736598D01*
X138301607Y-61730898D01*
X138304362Y-61723026D01*
X138300965Y-61692875D01*
X138300500Y-61684590D01*
X138300500Y-61681563D01*
X138300500Y-61677410D01*
X138298900Y-61670404D01*
X138297512Y-61662229D01*
X138295281Y-61642430D01*
X138294115Y-61632076D01*
X138289676Y-61625012D01*
X138288580Y-61621880D01*
X138287145Y-61618900D01*
X138285290Y-61610769D01*
X138266368Y-61587043D01*
X138261561Y-61580268D01*
X138257748Y-61574198D01*
X138252670Y-61569120D01*
X138247141Y-61562932D01*
X138233424Y-61545732D01*
X138233422Y-61545731D01*
X138228224Y-61539212D01*
X138220712Y-61535594D01*
X138216216Y-61532009D01*
X138210028Y-61526479D01*
X137360375Y-60676826D01*
X137340123Y-60638937D01*
X137344334Y-60596181D01*
X137371589Y-60562971D01*
X137412701Y-60550500D01*
X137636299Y-60550500D01*
X137664618Y-60556133D01*
X137688625Y-60572174D01*
X140029100Y-62912649D01*
X140049863Y-62953399D01*
X140042709Y-62998570D01*
X140010370Y-63030909D01*
X139965198Y-63038064D01*
X139855752Y-63020730D01*
X139850000Y-63019819D01*
X139844248Y-63020730D01*
X139738273Y-63037514D01*
X139738269Y-63037515D01*
X139732518Y-63038426D01*
X139727326Y-63041071D01*
X139727324Y-63041072D01*
X139631727Y-63089781D01*
X139631724Y-63089782D01*
X139626535Y-63092427D01*
X139622418Y-63096543D01*
X139622415Y-63096546D01*
X139546546Y-63172415D01*
X139546543Y-63172418D01*
X139542427Y-63176535D01*
X139539782Y-63181724D01*
X139539781Y-63181727D01*
X139491474Y-63276535D01*
X139488426Y-63282518D01*
X139487515Y-63288269D01*
X139487514Y-63288273D01*
X139481288Y-63327584D01*
X139469819Y-63400000D01*
X139470730Y-63405750D01*
X139470730Y-63405752D01*
X139487253Y-63510080D01*
X139488426Y-63517482D01*
X139491072Y-63522675D01*
X139539378Y-63617482D01*
X139542427Y-63623465D01*
X139626535Y-63707573D01*
X139732518Y-63761574D01*
X139850000Y-63780181D01*
X139896180Y-63772866D01*
X139930620Y-63775577D01*
X139960080Y-63793629D01*
X140676478Y-64510028D01*
X140682006Y-64516214D01*
X140685595Y-64520714D01*
X140689212Y-64528224D01*
X140695727Y-64533420D01*
X140695730Y-64533423D01*
X140712932Y-64547141D01*
X140719119Y-64552669D01*
X140724199Y-64557749D01*
X140730275Y-64561567D01*
X140737036Y-64566365D01*
X140754244Y-64580087D01*
X140754245Y-64580087D01*
X140760769Y-64585290D01*
X140768904Y-64587146D01*
X140771898Y-64588588D01*
X140775013Y-64589678D01*
X140782076Y-64594116D01*
X140812235Y-64597513D01*
X140820416Y-64598904D01*
X140823356Y-64599575D01*
X140823358Y-64599575D01*
X140827410Y-64600500D01*
X140834582Y-64600500D01*
X140842867Y-64600965D01*
X140873027Y-64604363D01*
X140880900Y-64601607D01*
X140886607Y-64600965D01*
X140894894Y-64600500D01*
X146805115Y-64600500D01*
X146813402Y-64600965D01*
X146819101Y-64601607D01*
X146826974Y-64604362D01*
X146857128Y-64600964D01*
X146865412Y-64600500D01*
X146868429Y-64600500D01*
X146872590Y-64600500D01*
X146874780Y-64600000D01*
X149369819Y-64600000D01*
X149388426Y-64717482D01*
X149442427Y-64823465D01*
X149526535Y-64907573D01*
X149632518Y-64961574D01*
X149750000Y-64980181D01*
X149867482Y-64961574D01*
X149973465Y-64907573D01*
X150057573Y-64823465D01*
X150111574Y-64717482D01*
X150130181Y-64600000D01*
X150111574Y-64482518D01*
X150057573Y-64376535D01*
X149973465Y-64292427D01*
X149867482Y-64238426D01*
X149861728Y-64237514D01*
X149861726Y-64237514D01*
X149755752Y-64220730D01*
X149750000Y-64219819D01*
X149744248Y-64220730D01*
X149638273Y-64237514D01*
X149638269Y-64237515D01*
X149632518Y-64238426D01*
X149627326Y-64241071D01*
X149627324Y-64241072D01*
X149531727Y-64289781D01*
X149531724Y-64289782D01*
X149526535Y-64292427D01*
X149522418Y-64296543D01*
X149522415Y-64296546D01*
X149446546Y-64372415D01*
X149446543Y-64372418D01*
X149442427Y-64376535D01*
X149439782Y-64381724D01*
X149439781Y-64381727D01*
X149391072Y-64477324D01*
X149388426Y-64482518D01*
X149387515Y-64488269D01*
X149387514Y-64488273D01*
X149376976Y-64554813D01*
X149369819Y-64600000D01*
X146874780Y-64600000D01*
X146879589Y-64598902D01*
X146887764Y-64597513D01*
X146917924Y-64594116D01*
X146924988Y-64589676D01*
X146928116Y-64588582D01*
X146931099Y-64587145D01*
X146939231Y-64585290D01*
X146962978Y-64566351D01*
X146969718Y-64561570D01*
X146975801Y-64557748D01*
X146980875Y-64552672D01*
X146987056Y-64547149D01*
X147010788Y-64528224D01*
X147014406Y-64520708D01*
X147017986Y-64516220D01*
X147023509Y-64510038D01*
X147639920Y-63893627D01*
X147669377Y-63875577D01*
X147703818Y-63872866D01*
X147750000Y-63880181D01*
X147867482Y-63861574D01*
X147973465Y-63807573D01*
X148057573Y-63723465D01*
X148111574Y-63617482D01*
X148130181Y-63500000D01*
X149419819Y-63500000D01*
X149420730Y-63505752D01*
X149437365Y-63610788D01*
X149438426Y-63617482D01*
X149492427Y-63723465D01*
X149576535Y-63807573D01*
X149682518Y-63861574D01*
X149800000Y-63880181D01*
X149917482Y-63861574D01*
X150023465Y-63807573D01*
X150107573Y-63723465D01*
X150161574Y-63617482D01*
X150180181Y-63500000D01*
X150161574Y-63382518D01*
X150107573Y-63276535D01*
X150023465Y-63192427D01*
X149917482Y-63138426D01*
X149911728Y-63137514D01*
X149911726Y-63137514D01*
X149805752Y-63120730D01*
X149800000Y-63119819D01*
X149794248Y-63120730D01*
X149688273Y-63137514D01*
X149688269Y-63137515D01*
X149682518Y-63138426D01*
X149677326Y-63141071D01*
X149677324Y-63141072D01*
X149581727Y-63189781D01*
X149581724Y-63189782D01*
X149576535Y-63192427D01*
X149572418Y-63196543D01*
X149572415Y-63196546D01*
X149496546Y-63272415D01*
X149496543Y-63272418D01*
X149492427Y-63276535D01*
X149489782Y-63281724D01*
X149489781Y-63281727D01*
X149441072Y-63377324D01*
X149438426Y-63382518D01*
X149437515Y-63388269D01*
X149437514Y-63388273D01*
X149426609Y-63457128D01*
X149419819Y-63500000D01*
X148130181Y-63500000D01*
X148111574Y-63382518D01*
X148057573Y-63276535D01*
X147973465Y-63192427D01*
X147867482Y-63138426D01*
X147861728Y-63137514D01*
X147861726Y-63137514D01*
X147755752Y-63120730D01*
X147750000Y-63119819D01*
X147744248Y-63120730D01*
X147638273Y-63137514D01*
X147638269Y-63137515D01*
X147632518Y-63138426D01*
X147627326Y-63141071D01*
X147627324Y-63141072D01*
X147531727Y-63189781D01*
X147531724Y-63189782D01*
X147526535Y-63192427D01*
X147522418Y-63196543D01*
X147522415Y-63196546D01*
X147446546Y-63272415D01*
X147446543Y-63272418D01*
X147442427Y-63276535D01*
X147439782Y-63281724D01*
X147439781Y-63281727D01*
X147391072Y-63377324D01*
X147388426Y-63382518D01*
X147387515Y-63388269D01*
X147387514Y-63388273D01*
X147376609Y-63457128D01*
X147369819Y-63500000D01*
X147370730Y-63505752D01*
X147370730Y-63505754D01*
X147377132Y-63546179D01*
X147374421Y-63580622D01*
X147356369Y-63610080D01*
X146788625Y-64177826D01*
X146764618Y-64193867D01*
X146736299Y-64199500D01*
X144562700Y-64199500D01*
X144521588Y-64187029D01*
X144494333Y-64153819D01*
X144490122Y-64111063D01*
X144510374Y-64073174D01*
X144880095Y-63703453D01*
X145339920Y-63243627D01*
X145369377Y-63225577D01*
X145403818Y-63222866D01*
X145450000Y-63230181D01*
X145567482Y-63211574D01*
X145673465Y-63157573D01*
X145757573Y-63073465D01*
X145811574Y-62967482D01*
X145830181Y-62850000D01*
X145811574Y-62732518D01*
X145802687Y-62715077D01*
X150768318Y-62715077D01*
X150769252Y-62719630D01*
X150769253Y-62719634D01*
X150800429Y-62871513D01*
X150800430Y-62871518D01*
X150801366Y-62876074D01*
X150803405Y-62880255D01*
X150803407Y-62880260D01*
X150843141Y-62961726D01*
X150873414Y-63023796D01*
X150876429Y-63027339D01*
X150876430Y-63027340D01*
X150929613Y-63089830D01*
X150979935Y-63148958D01*
X151114236Y-63243697D01*
X151267879Y-63302061D01*
X151410914Y-63318104D01*
X151426582Y-63319862D01*
X151426582Y-63319861D01*
X151431210Y-63320381D01*
X152345327Y-63191911D01*
X152464124Y-63159634D01*
X152607030Y-63078453D01*
X152725257Y-62964283D01*
X152811376Y-62824298D01*
X152859977Y-62667293D01*
X152868006Y-62503135D01*
X152834958Y-62342138D01*
X152762910Y-62194416D01*
X152656388Y-62069254D01*
X152632297Y-62052260D01*
X152525892Y-61977199D01*
X152525891Y-61977198D01*
X152522087Y-61974515D01*
X152517736Y-61972862D01*
X152517732Y-61972860D01*
X152372797Y-61917804D01*
X152372792Y-61917803D01*
X152368444Y-61916151D01*
X152363822Y-61915632D01*
X152363816Y-61915631D01*
X152209741Y-61898350D01*
X152205114Y-61897831D01*
X152200511Y-61898477D01*
X152200503Y-61898478D01*
X151293299Y-62025977D01*
X151293291Y-62025978D01*
X151290997Y-62026301D01*
X151288760Y-62026908D01*
X151288749Y-62026911D01*
X151176689Y-62057357D01*
X151176681Y-62057360D01*
X151172199Y-62058578D01*
X151168159Y-62060872D01*
X151168154Y-62060875D01*
X151033338Y-62137461D01*
X151033334Y-62137463D01*
X151029294Y-62139759D01*
X151025951Y-62142987D01*
X151025946Y-62142991D01*
X150914416Y-62250694D01*
X150914412Y-62250698D01*
X150911067Y-62253929D01*
X150908630Y-62257890D01*
X150908627Y-62257894D01*
X150827385Y-62389951D01*
X150827382Y-62389957D01*
X150824948Y-62393914D01*
X150823573Y-62398355D01*
X150823571Y-62398360D01*
X150777722Y-62546471D01*
X150777720Y-62546477D01*
X150776346Y-62550919D01*
X150776119Y-62555558D01*
X150776118Y-62555565D01*
X150770437Y-62671739D01*
X150768318Y-62715077D01*
X145802687Y-62715077D01*
X145757573Y-62626535D01*
X145673465Y-62542427D01*
X145567482Y-62488426D01*
X145561728Y-62487514D01*
X145561726Y-62487514D01*
X145455752Y-62470730D01*
X145450000Y-62469819D01*
X145444248Y-62470730D01*
X145338273Y-62487514D01*
X145338269Y-62487515D01*
X145332518Y-62488426D01*
X145327326Y-62491071D01*
X145327324Y-62491072D01*
X145231727Y-62539781D01*
X145231724Y-62539782D01*
X145226535Y-62542427D01*
X145222418Y-62546543D01*
X145222415Y-62546546D01*
X145146546Y-62622415D01*
X145146543Y-62622418D01*
X145142427Y-62626535D01*
X145139782Y-62631724D01*
X145139781Y-62631727D01*
X145094896Y-62719819D01*
X145088426Y-62732518D01*
X145087515Y-62738269D01*
X145087514Y-62738273D01*
X145073890Y-62824298D01*
X145069819Y-62850000D01*
X145070730Y-62855752D01*
X145070730Y-62855754D01*
X145077132Y-62896179D01*
X145074421Y-62930622D01*
X145056369Y-62960080D01*
X144188625Y-63827826D01*
X144164618Y-63843867D01*
X144136299Y-63849500D01*
X141563701Y-63849500D01*
X141535382Y-63843867D01*
X141511375Y-63827826D01*
X141278221Y-63594672D01*
X141258592Y-63559621D01*
X141260169Y-63519478D01*
X141282488Y-63486076D01*
X141318970Y-63469257D01*
X141367482Y-63461574D01*
X141473465Y-63407573D01*
X141557573Y-63323465D01*
X141611574Y-63217482D01*
X141630181Y-63100000D01*
X141611574Y-62982518D01*
X141557573Y-62876535D01*
X141473465Y-62792427D01*
X141367482Y-62738426D01*
X141361728Y-62737514D01*
X141361726Y-62737514D01*
X141255752Y-62720730D01*
X141250000Y-62719819D01*
X141244248Y-62720730D01*
X141138273Y-62737514D01*
X141138269Y-62737515D01*
X141132518Y-62738426D01*
X141127326Y-62741071D01*
X141127324Y-62741072D01*
X141031727Y-62789781D01*
X141031724Y-62789782D01*
X141026535Y-62792427D01*
X141022418Y-62796543D01*
X141022415Y-62796546D01*
X140946546Y-62872415D01*
X140946543Y-62872418D01*
X140942427Y-62876535D01*
X140939782Y-62881724D01*
X140939781Y-62881727D01*
X140899020Y-62961726D01*
X140888426Y-62982518D01*
X140887515Y-62988267D01*
X140887514Y-62988272D01*
X140880742Y-63031029D01*
X140863922Y-63067512D01*
X140830520Y-63089830D01*
X140790378Y-63091407D01*
X140755327Y-63071778D01*
X139483549Y-61800000D01*
X140869819Y-61800000D01*
X140870730Y-61805752D01*
X140887275Y-61910218D01*
X140888426Y-61917482D01*
X140942427Y-62023465D01*
X141026535Y-62107573D01*
X141132518Y-62161574D01*
X141250000Y-62180181D01*
X141367482Y-62161574D01*
X141473465Y-62107573D01*
X141557573Y-62023465D01*
X141611574Y-61917482D01*
X141630181Y-61800000D01*
X141611574Y-61682518D01*
X141569529Y-61600000D01*
X149419819Y-61600000D01*
X149420730Y-61605752D01*
X149434528Y-61692875D01*
X149438426Y-61717482D01*
X149441072Y-61722675D01*
X149487452Y-61813702D01*
X149492427Y-61823465D01*
X149576535Y-61907573D01*
X149682518Y-61961574D01*
X149800000Y-61980181D01*
X149917482Y-61961574D01*
X150023465Y-61907573D01*
X150107573Y-61823465D01*
X150161574Y-61717482D01*
X150180181Y-61600000D01*
X150161574Y-61482518D01*
X150107573Y-61376535D01*
X150023465Y-61292427D01*
X149917482Y-61238426D01*
X149911728Y-61237514D01*
X149911726Y-61237514D01*
X149805752Y-61220730D01*
X149800000Y-61219819D01*
X149794248Y-61220730D01*
X149688273Y-61237514D01*
X149688269Y-61237515D01*
X149682518Y-61238426D01*
X149677326Y-61241071D01*
X149677324Y-61241072D01*
X149581727Y-61289781D01*
X149581724Y-61289782D01*
X149576535Y-61292427D01*
X149572418Y-61296543D01*
X149572415Y-61296546D01*
X149496546Y-61372415D01*
X149496543Y-61372418D01*
X149492427Y-61376535D01*
X149489782Y-61381724D01*
X149489781Y-61381727D01*
X149455253Y-61449493D01*
X149438426Y-61482518D01*
X149437515Y-61488269D01*
X149437514Y-61488273D01*
X149423535Y-61576535D01*
X149419819Y-61600000D01*
X141569529Y-61600000D01*
X141557573Y-61576535D01*
X141473465Y-61492427D01*
X141454017Y-61482518D01*
X141372675Y-61441072D01*
X141367482Y-61438426D01*
X141361728Y-61437514D01*
X141361726Y-61437514D01*
X141255752Y-61420730D01*
X141250000Y-61419819D01*
X141244248Y-61420730D01*
X141138273Y-61437514D01*
X141138269Y-61437515D01*
X141132518Y-61438426D01*
X141127326Y-61441071D01*
X141127324Y-61441072D01*
X141031727Y-61489781D01*
X141031724Y-61489782D01*
X141026535Y-61492427D01*
X141022418Y-61496543D01*
X141022415Y-61496546D01*
X140946546Y-61572415D01*
X140946543Y-61572418D01*
X140942427Y-61576535D01*
X140939782Y-61581724D01*
X140939781Y-61581727D01*
X140891072Y-61677324D01*
X140888426Y-61682518D01*
X140887515Y-61688269D01*
X140887514Y-61688273D01*
X140876183Y-61759816D01*
X140869819Y-61800000D01*
X139483549Y-61800000D01*
X138780309Y-61096760D01*
X138759546Y-61056010D01*
X138766700Y-61010839D01*
X138777539Y-61000000D01*
X139819819Y-61000000D01*
X139820730Y-61005752D01*
X139836117Y-61102907D01*
X139838426Y-61117482D01*
X139892427Y-61223465D01*
X139976535Y-61307573D01*
X140082518Y-61361574D01*
X140200000Y-61380181D01*
X140317482Y-61361574D01*
X140423465Y-61307573D01*
X140507573Y-61223465D01*
X140561574Y-61117482D01*
X140580181Y-61000000D01*
X140561574Y-60882518D01*
X140507573Y-60776535D01*
X140423465Y-60692427D01*
X140317482Y-60638426D01*
X140311728Y-60637514D01*
X140311726Y-60637514D01*
X140205752Y-60620730D01*
X140200000Y-60619819D01*
X140194248Y-60620730D01*
X140088273Y-60637514D01*
X140088269Y-60637515D01*
X140082518Y-60638426D01*
X140077326Y-60641071D01*
X140077324Y-60641072D01*
X139981727Y-60689781D01*
X139981724Y-60689782D01*
X139976535Y-60692427D01*
X139972418Y-60696543D01*
X139972415Y-60696546D01*
X139896546Y-60772415D01*
X139896543Y-60772418D01*
X139892427Y-60776535D01*
X139889782Y-60781724D01*
X139889781Y-60781727D01*
X139841072Y-60877324D01*
X139838426Y-60882518D01*
X139837515Y-60888269D01*
X139837514Y-60888273D01*
X139830507Y-60932518D01*
X139819819Y-61000000D01*
X138777539Y-61000000D01*
X138799040Y-60978500D01*
X138844211Y-60971345D01*
X138900000Y-60980181D01*
X139017482Y-60961574D01*
X139123465Y-60907573D01*
X139207573Y-60823465D01*
X139261574Y-60717482D01*
X139280181Y-60600000D01*
X139261574Y-60482518D01*
X139207573Y-60376535D01*
X139123465Y-60292427D01*
X139017482Y-60238426D01*
X139011728Y-60237514D01*
X139011726Y-60237514D01*
X138905752Y-60220730D01*
X138900000Y-60219819D01*
X138894248Y-60220730D01*
X138788273Y-60237514D01*
X138788269Y-60237515D01*
X138782518Y-60238426D01*
X138777326Y-60241071D01*
X138777324Y-60241072D01*
X138681727Y-60289781D01*
X138681724Y-60289782D01*
X138676535Y-60292427D01*
X138672418Y-60296543D01*
X138672415Y-60296546D01*
X138596546Y-60372415D01*
X138596543Y-60372418D01*
X138592427Y-60376535D01*
X138589782Y-60381724D01*
X138589781Y-60381727D01*
X138541072Y-60477324D01*
X138538426Y-60482518D01*
X138537515Y-60488269D01*
X138537514Y-60488273D01*
X138526767Y-60556133D01*
X138519819Y-60600000D01*
X138520730Y-60605752D01*
X138520730Y-60605753D01*
X138528654Y-60655789D01*
X138521499Y-60700960D01*
X138489160Y-60733299D01*
X138443989Y-60740453D01*
X138403239Y-60719690D01*
X137923520Y-60239971D01*
X137917990Y-60233783D01*
X137914405Y-60229288D01*
X137910788Y-60221776D01*
X137887060Y-60202853D01*
X137880873Y-60197324D01*
X137878740Y-60195191D01*
X137875801Y-60192252D01*
X137869723Y-60188432D01*
X137862961Y-60183634D01*
X137845748Y-60169907D01*
X137845747Y-60169906D01*
X137839231Y-60164710D01*
X137831105Y-60162855D01*
X137828115Y-60161415D01*
X137824981Y-60160318D01*
X137817924Y-60155884D01*
X137809642Y-60154950D01*
X137809640Y-60154950D01*
X137787760Y-60152485D01*
X137779588Y-60151097D01*
X137772590Y-60149500D01*
X137768432Y-60149500D01*
X137765412Y-60149500D01*
X137757128Y-60149035D01*
X137735261Y-60146571D01*
X137735258Y-60146571D01*
X137726974Y-60145638D01*
X137719102Y-60148392D01*
X137713402Y-60149035D01*
X137705115Y-60149500D01*
X136252581Y-60149500D01*
X136206011Y-60133009D01*
X136180198Y-60090886D01*
X136186645Y-60041906D01*
X136211574Y-59992982D01*
X136230181Y-59875500D01*
X136211574Y-59758018D01*
X136182012Y-59700000D01*
X149619819Y-59700000D01*
X149620730Y-59705752D01*
X149635051Y-59796176D01*
X149638426Y-59817482D01*
X149692427Y-59923465D01*
X149776535Y-60007573D01*
X149882518Y-60061574D01*
X150000000Y-60080181D01*
X150117482Y-60061574D01*
X150223465Y-60007573D01*
X150307573Y-59923465D01*
X150361574Y-59817482D01*
X150380181Y-59700000D01*
X150361574Y-59582518D01*
X150307573Y-59476535D01*
X150223465Y-59392427D01*
X150117482Y-59338426D01*
X150111728Y-59337514D01*
X150111726Y-59337514D01*
X150005752Y-59320730D01*
X150000000Y-59319819D01*
X149994248Y-59320730D01*
X149888273Y-59337514D01*
X149888269Y-59337515D01*
X149882518Y-59338426D01*
X149877326Y-59341071D01*
X149877324Y-59341072D01*
X149781727Y-59389781D01*
X149781724Y-59389782D01*
X149776535Y-59392427D01*
X149772418Y-59396543D01*
X149772415Y-59396546D01*
X149696546Y-59472415D01*
X149696543Y-59472418D01*
X149692427Y-59476535D01*
X149689782Y-59481724D01*
X149689781Y-59481727D01*
X149641072Y-59577324D01*
X149638426Y-59582518D01*
X149637515Y-59588269D01*
X149637514Y-59588273D01*
X149626120Y-59660218D01*
X149619819Y-59700000D01*
X136182012Y-59700000D01*
X136157573Y-59652035D01*
X136073465Y-59567927D01*
X135967482Y-59513926D01*
X135961728Y-59513014D01*
X135961726Y-59513014D01*
X135855752Y-59496230D01*
X135850000Y-59495319D01*
X135844248Y-59496230D01*
X135738273Y-59513014D01*
X135738269Y-59513015D01*
X135732518Y-59513926D01*
X135727326Y-59516571D01*
X135727324Y-59516572D01*
X135631727Y-59565281D01*
X135631724Y-59565282D01*
X135626535Y-59567927D01*
X135622418Y-59572043D01*
X135622415Y-59572046D01*
X135546546Y-59647915D01*
X135546543Y-59647918D01*
X135542427Y-59652035D01*
X135539782Y-59657224D01*
X135539781Y-59657227D01*
X135495442Y-59744248D01*
X135488426Y-59758018D01*
X135487515Y-59763767D01*
X135487514Y-59763772D01*
X135470556Y-59870842D01*
X135453737Y-59907324D01*
X135420334Y-59929643D01*
X135380192Y-59931220D01*
X135345141Y-59911591D01*
X134623520Y-59189971D01*
X134617990Y-59183783D01*
X134614405Y-59179288D01*
X134610788Y-59171776D01*
X134587060Y-59152853D01*
X134580873Y-59147324D01*
X134578740Y-59145191D01*
X134575801Y-59142252D01*
X134569723Y-59138432D01*
X134562961Y-59133634D01*
X134545748Y-59119907D01*
X134545747Y-59119906D01*
X134539231Y-59114710D01*
X134531105Y-59112855D01*
X134528115Y-59111415D01*
X134524981Y-59110318D01*
X134517924Y-59105884D01*
X134509642Y-59104950D01*
X134509640Y-59104950D01*
X134487760Y-59102485D01*
X134479588Y-59101097D01*
X134472590Y-59099500D01*
X134468432Y-59099500D01*
X134465412Y-59099500D01*
X134457128Y-59099035D01*
X134435261Y-59096571D01*
X134435258Y-59096571D01*
X134426974Y-59095638D01*
X134419102Y-59098392D01*
X134413402Y-59099035D01*
X134405115Y-59099500D01*
X133911190Y-59099500D01*
X133882871Y-59093867D01*
X133858864Y-59077826D01*
X133827584Y-59046546D01*
X133823465Y-59042427D01*
X133717482Y-58988426D01*
X133711728Y-58987514D01*
X133711726Y-58987514D01*
X133605752Y-58970730D01*
X133600000Y-58969819D01*
X133594248Y-58970730D01*
X133488273Y-58987514D01*
X133488269Y-58987515D01*
X133482518Y-58988426D01*
X133477326Y-58991071D01*
X133477324Y-58991072D01*
X133381727Y-59039781D01*
X133381724Y-59039782D01*
X133376535Y-59042427D01*
X133372418Y-59046543D01*
X133372415Y-59046546D01*
X133296546Y-59122415D01*
X133296543Y-59122418D01*
X133292427Y-59126535D01*
X133289782Y-59131724D01*
X133289781Y-59131727D01*
X133241072Y-59227324D01*
X133238426Y-59232518D01*
X133237515Y-59238269D01*
X133237514Y-59238273D01*
X133224599Y-59319819D01*
X133219819Y-59350000D01*
X132925485Y-59350000D01*
X132925485Y-58904409D01*
X143391658Y-58904409D01*
X143392569Y-58910161D01*
X143404964Y-58988426D01*
X143410265Y-59021891D01*
X143412911Y-59027084D01*
X143461484Y-59122415D01*
X143464266Y-59127874D01*
X143548374Y-59211982D01*
X143654357Y-59265983D01*
X143771839Y-59284590D01*
X143889321Y-59265983D01*
X143995304Y-59211982D01*
X144079412Y-59127874D01*
X144133413Y-59021891D01*
X144152020Y-58904409D01*
X144133413Y-58786927D01*
X144079412Y-58680944D01*
X143995304Y-58596836D01*
X143889321Y-58542835D01*
X143883567Y-58541923D01*
X143883565Y-58541923D01*
X143777591Y-58525139D01*
X143771839Y-58524228D01*
X143766087Y-58525139D01*
X143660112Y-58541923D01*
X143660108Y-58541924D01*
X143654357Y-58542835D01*
X143649165Y-58545480D01*
X143649163Y-58545481D01*
X143553566Y-58594190D01*
X143553563Y-58594191D01*
X143548374Y-58596836D01*
X143544257Y-58600952D01*
X143544254Y-58600955D01*
X143468385Y-58676824D01*
X143468382Y-58676827D01*
X143464266Y-58680944D01*
X143461621Y-58686133D01*
X143461620Y-58686136D01*
X143412911Y-58781733D01*
X143410265Y-58786927D01*
X143409354Y-58792678D01*
X143409353Y-58792682D01*
X143392569Y-58898657D01*
X143391658Y-58904409D01*
X132925485Y-58904409D01*
X132925485Y-58250000D01*
X142439819Y-58250000D01*
X142440730Y-58255752D01*
X142457275Y-58360218D01*
X142458426Y-58367482D01*
X142512427Y-58473465D01*
X142596535Y-58557573D01*
X142702518Y-58611574D01*
X142820000Y-58630181D01*
X142937482Y-58611574D01*
X143043465Y-58557573D01*
X143127573Y-58473465D01*
X143181574Y-58367482D01*
X143200181Y-58250000D01*
X143181574Y-58132518D01*
X143127573Y-58026535D01*
X143043465Y-57942427D01*
X143024017Y-57932518D01*
X142942675Y-57891072D01*
X142937482Y-57888426D01*
X142931728Y-57887514D01*
X142931726Y-57887514D01*
X142825752Y-57870730D01*
X142820000Y-57869819D01*
X142814248Y-57870730D01*
X142708273Y-57887514D01*
X142708269Y-57887515D01*
X142702518Y-57888426D01*
X142697326Y-57891071D01*
X142697324Y-57891072D01*
X142601727Y-57939781D01*
X142601724Y-57939782D01*
X142596535Y-57942427D01*
X142592418Y-57946543D01*
X142592415Y-57946546D01*
X142516546Y-58022415D01*
X142516543Y-58022418D01*
X142512427Y-58026535D01*
X142509782Y-58031724D01*
X142509781Y-58031727D01*
X142497540Y-58055752D01*
X142458426Y-58132518D01*
X142457515Y-58138269D01*
X142457514Y-58138273D01*
X142453800Y-58161726D01*
X142439819Y-58250000D01*
X132925485Y-58250000D01*
X132925485Y-57749508D01*
X132935399Y-57712508D01*
X132962485Y-57685422D01*
X132999485Y-57675508D01*
X139806257Y-57675508D01*
X139813528Y-57676486D01*
X139813579Y-57675946D01*
X139820021Y-57676548D01*
X139826269Y-57678264D01*
X139857151Y-57675751D01*
X139863150Y-57675508D01*
X139871025Y-57675508D01*
X139874658Y-57675508D01*
X139880499Y-57674345D01*
X139888942Y-57673165D01*
X139914318Y-57671102D01*
X139920203Y-57668400D01*
X139921052Y-57668179D01*
X139936240Y-57663258D01*
X139947724Y-57660974D01*
X139967694Y-57647629D01*
X139977930Y-57641909D01*
X139994607Y-57634257D01*
X140004005Y-57624972D01*
X140014887Y-57616097D01*
X140030585Y-57605609D01*
X140039958Y-57591578D01*
X140049480Y-57580049D01*
X140057453Y-57572174D01*
X140066161Y-57553789D01*
X140071499Y-57544373D01*
X140085950Y-57522748D01*
X140087841Y-57513239D01*
X140090959Y-57503809D01*
X140092004Y-57500000D01*
X148369819Y-57500000D01*
X148370730Y-57505752D01*
X148387186Y-57609657D01*
X148388426Y-57617482D01*
X148442427Y-57723465D01*
X148526535Y-57807573D01*
X148632518Y-57861574D01*
X148750000Y-57880181D01*
X148851178Y-57864156D01*
X148896349Y-57871310D01*
X148928688Y-57903649D01*
X148935843Y-57948820D01*
X148924188Y-58022415D01*
X148919819Y-58050000D01*
X148920730Y-58055752D01*
X148932065Y-58127324D01*
X148938426Y-58167482D01*
X148992427Y-58273465D01*
X149076535Y-58357573D01*
X149182518Y-58411574D01*
X149300000Y-58430181D01*
X149417482Y-58411574D01*
X149523465Y-58357573D01*
X149607573Y-58273465D01*
X149661574Y-58167482D01*
X149680181Y-58050000D01*
X149661574Y-57932518D01*
X149607573Y-57826535D01*
X149523465Y-57742427D01*
X149417482Y-57688426D01*
X149411728Y-57687514D01*
X149411726Y-57687514D01*
X149305752Y-57670730D01*
X149300000Y-57669819D01*
X149294248Y-57670730D01*
X149294247Y-57670730D01*
X149198820Y-57685843D01*
X149153649Y-57678688D01*
X149121310Y-57646349D01*
X149114156Y-57601178D01*
X149118030Y-57576722D01*
X149130181Y-57500000D01*
X149111574Y-57382518D01*
X149114218Y-57382099D01*
X149114946Y-57344475D01*
X149145703Y-57306981D01*
X149193070Y-57296581D01*
X149236705Y-57317742D01*
X149276535Y-57357573D01*
X149382518Y-57411574D01*
X149500000Y-57430181D01*
X149617482Y-57411574D01*
X149723465Y-57357573D01*
X149807573Y-57273465D01*
X149861574Y-57167482D01*
X149880181Y-57050000D01*
X149861574Y-56932518D01*
X149807573Y-56826535D01*
X149723465Y-56742427D01*
X149617482Y-56688426D01*
X149611728Y-56687514D01*
X149611726Y-56687514D01*
X149505752Y-56670730D01*
X149500000Y-56669819D01*
X149494248Y-56670730D01*
X149388273Y-56687514D01*
X149388269Y-56687515D01*
X149382518Y-56688426D01*
X149377326Y-56691071D01*
X149377324Y-56691072D01*
X149281727Y-56739781D01*
X149281724Y-56739782D01*
X149276535Y-56742427D01*
X149272418Y-56746543D01*
X149272415Y-56746546D01*
X149196546Y-56822415D01*
X149196543Y-56822418D01*
X149192427Y-56826535D01*
X149189782Y-56831724D01*
X149189781Y-56831727D01*
X149141072Y-56927324D01*
X149138426Y-56932518D01*
X149137515Y-56938269D01*
X149137514Y-56938273D01*
X149120730Y-57044248D01*
X149119819Y-57050000D01*
X149120730Y-57055752D01*
X149138426Y-57167482D01*
X149135790Y-57167899D01*
X149135040Y-57205560D01*
X149104274Y-57243032D01*
X149056916Y-57253416D01*
X149013294Y-57232256D01*
X148977584Y-57196546D01*
X148977584Y-57196545D01*
X148973465Y-57192427D01*
X148934699Y-57172675D01*
X148872675Y-57141072D01*
X148867482Y-57138426D01*
X148861728Y-57137514D01*
X148861726Y-57137514D01*
X148755752Y-57120730D01*
X148750000Y-57119819D01*
X148744248Y-57120730D01*
X148638273Y-57137514D01*
X148638269Y-57137515D01*
X148632518Y-57138426D01*
X148627326Y-57141071D01*
X148627324Y-57141072D01*
X148531727Y-57189781D01*
X148531724Y-57189782D01*
X148526535Y-57192427D01*
X148522418Y-57196543D01*
X148522415Y-57196546D01*
X148446546Y-57272415D01*
X148446543Y-57272418D01*
X148442427Y-57276535D01*
X148439782Y-57281724D01*
X148439781Y-57281727D01*
X148391072Y-57377324D01*
X148388426Y-57382518D01*
X148387515Y-57388269D01*
X148387514Y-57388273D01*
X148375961Y-57461218D01*
X148369819Y-57500000D01*
X140092004Y-57500000D01*
X140092499Y-57498197D01*
X140095275Y-57492340D01*
X140097834Y-57465002D01*
X140098929Y-57457493D01*
X140105392Y-57425008D01*
X140103970Y-57417857D01*
X140102940Y-57410479D01*
X140103511Y-57404385D01*
X140094770Y-57370951D01*
X140093792Y-57366694D01*
X140091158Y-57353453D01*
X140085950Y-57327268D01*
X140082501Y-57322107D01*
X140080257Y-57315427D01*
X140017786Y-57076414D01*
X140009261Y-57050000D01*
X145769819Y-57050000D01*
X145770730Y-57055752D01*
X145783679Y-57137514D01*
X145788426Y-57167482D01*
X145842427Y-57273465D01*
X145926535Y-57357573D01*
X146032518Y-57411574D01*
X146150000Y-57430181D01*
X146267482Y-57411574D01*
X146373465Y-57357573D01*
X146457573Y-57273465D01*
X146511574Y-57167482D01*
X146530181Y-57050000D01*
X146511574Y-56932518D01*
X146457573Y-56826535D01*
X146373465Y-56742427D01*
X146267482Y-56688426D01*
X146261728Y-56687514D01*
X146261726Y-56687514D01*
X146155752Y-56670730D01*
X146150000Y-56669819D01*
X146144248Y-56670730D01*
X146038273Y-56687514D01*
X146038269Y-56687515D01*
X146032518Y-56688426D01*
X146027326Y-56691071D01*
X146027324Y-56691072D01*
X145931727Y-56739781D01*
X145931724Y-56739782D01*
X145926535Y-56742427D01*
X145922418Y-56746543D01*
X145922415Y-56746546D01*
X145846546Y-56822415D01*
X145846543Y-56822418D01*
X145842427Y-56826535D01*
X145839782Y-56831724D01*
X145839781Y-56831727D01*
X145791072Y-56927324D01*
X145788426Y-56932518D01*
X145787515Y-56938269D01*
X145787514Y-56938273D01*
X145770730Y-57044248D01*
X145769819Y-57050000D01*
X140009261Y-57050000D01*
X139836672Y-56515278D01*
X139624154Y-55965268D01*
X139436097Y-55550000D01*
X145869819Y-55550000D01*
X145888426Y-55667482D01*
X145942427Y-55773465D01*
X146026535Y-55857573D01*
X146132518Y-55911574D01*
X146250000Y-55930181D01*
X146367482Y-55911574D01*
X146473465Y-55857573D01*
X146557573Y-55773465D01*
X146611574Y-55667482D01*
X146630181Y-55550000D01*
X146611574Y-55432518D01*
X146557573Y-55326535D01*
X146473465Y-55242427D01*
X146367482Y-55188426D01*
X146361728Y-55187514D01*
X146361726Y-55187514D01*
X146255752Y-55170730D01*
X146250000Y-55169819D01*
X146244248Y-55170730D01*
X146138273Y-55187514D01*
X146138269Y-55187515D01*
X146132518Y-55188426D01*
X146127326Y-55191071D01*
X146127324Y-55191072D01*
X146031727Y-55239781D01*
X146031724Y-55239782D01*
X146026535Y-55242427D01*
X146022418Y-55246543D01*
X146022415Y-55246546D01*
X145946546Y-55322415D01*
X145946543Y-55322418D01*
X145942427Y-55326535D01*
X145939782Y-55331724D01*
X145939781Y-55331727D01*
X145905503Y-55399002D01*
X145888426Y-55432518D01*
X145887515Y-55438269D01*
X145887514Y-55438273D01*
X145870730Y-55544248D01*
X145869819Y-55550000D01*
X139436097Y-55550000D01*
X139380911Y-55428139D01*
X139107719Y-54905606D01*
X139104372Y-54900000D01*
X148919819Y-54900000D01*
X148938426Y-55017482D01*
X148992427Y-55123465D01*
X149076535Y-55207573D01*
X149182518Y-55261574D01*
X149300000Y-55280181D01*
X149417482Y-55261574D01*
X149523465Y-55207573D01*
X149607573Y-55123465D01*
X149661574Y-55017482D01*
X149680181Y-54900000D01*
X149661574Y-54782518D01*
X149607573Y-54676535D01*
X149523465Y-54592427D01*
X149417482Y-54538426D01*
X149411728Y-54537514D01*
X149411726Y-54537514D01*
X149305752Y-54520730D01*
X149300000Y-54519819D01*
X149294248Y-54520730D01*
X149188273Y-54537514D01*
X149188269Y-54537515D01*
X149182518Y-54538426D01*
X149177326Y-54541071D01*
X149177324Y-54541072D01*
X149081727Y-54589781D01*
X149081724Y-54589782D01*
X149076535Y-54592427D01*
X149072418Y-54596543D01*
X149072415Y-54596546D01*
X148996546Y-54672415D01*
X148996543Y-54672418D01*
X148992427Y-54676535D01*
X148989782Y-54681724D01*
X148989781Y-54681727D01*
X148941072Y-54777324D01*
X148938426Y-54782518D01*
X148937515Y-54788269D01*
X148937514Y-54788273D01*
X148920730Y-54894248D01*
X148919819Y-54900000D01*
X139104372Y-54900000D01*
X138805451Y-54399336D01*
X138475071Y-53910947D01*
X138323802Y-53712485D01*
X138250539Y-53616365D01*
X138235394Y-53570951D01*
X138251219Y-53525770D01*
X138291388Y-53499731D01*
X138888408Y-53350000D01*
X143919819Y-53350000D01*
X143920730Y-53355752D01*
X143932842Y-53432229D01*
X143938426Y-53467482D01*
X143992427Y-53573465D01*
X144076535Y-53657573D01*
X144182518Y-53711574D01*
X144300000Y-53730181D01*
X144417482Y-53711574D01*
X144523465Y-53657573D01*
X144607573Y-53573465D01*
X144661574Y-53467482D01*
X144680181Y-53350000D01*
X144661574Y-53232518D01*
X144607573Y-53126535D01*
X144523465Y-53042427D01*
X144417482Y-52988426D01*
X144411728Y-52987514D01*
X144411726Y-52987514D01*
X144305752Y-52970730D01*
X144300000Y-52969819D01*
X144294248Y-52970730D01*
X144188273Y-52987514D01*
X144188269Y-52987515D01*
X144182518Y-52988426D01*
X144177326Y-52991071D01*
X144177324Y-52991072D01*
X144081727Y-53039781D01*
X144081724Y-53039782D01*
X144076535Y-53042427D01*
X144072418Y-53046543D01*
X144072415Y-53046546D01*
X143996546Y-53122415D01*
X143996543Y-53122418D01*
X143992427Y-53126535D01*
X143989782Y-53131724D01*
X143989781Y-53131727D01*
X143941072Y-53227324D01*
X143938426Y-53232518D01*
X143937515Y-53238269D01*
X143937514Y-53238273D01*
X143934798Y-53255422D01*
X143919819Y-53350000D01*
X138888408Y-53350000D01*
X154522079Y-49429117D01*
X154556670Y-49428779D01*
X154587636Y-49444201D01*
G37*
G04 #@! TD.AperFunction*
M02*
