%TF.GenerationSoftware,KiCad,Pcbnew,(7.0.0-0)*%
%TF.CreationDate,2024-02-04T16:48:40+08:00*%
%TF.ProjectId,SWDProgrammer,53574450-726f-4677-9261-6d6d65722e6b,rev?*%
%TF.SameCoordinates,Original*%
%TF.FileFunction,Drillmap*%
%TF.FilePolarity,Positive*%
%FSLAX45Y45*%
G04 Gerber Fmt 4.5, Leading zero omitted, Abs format (unit mm)*
G04 Created by KiCad (PCBNEW (7.0.0-0)) date 2024-02-04 16:48:40*
%MOMM*%
%LPD*%
G01*
G04 APERTURE LIST*
%ADD10C,0.100000*%
%ADD11C,0.150000*%
%ADD12C,0.010000*%
%ADD13C,0.200000*%
%ADD14C,0.030000*%
%ADD15C,0.060000*%
G04 APERTURE END LIST*
D10*
X14991280Y-5266442D02*
X15117694Y-6162457D01*
X14523280Y-7483485D02*
X15002475Y-6716741D01*
D11*
X13564998Y-6817501D02*
X14807443Y-8008270D01*
D10*
X15700666Y-6080020D02*
X15117694Y-6162457D01*
D12*
X13247500Y-6315001D02*
X13247500Y-6047501D01*
X13724998Y-6625001D02*
X13724998Y-6315001D01*
D10*
X15700000Y-6100000D02*
G75*
G03*
X15700666Y-6080020I-2696880J99900D01*
G01*
X15576364Y-5186151D02*
G75*
G03*
X15473045Y-4911860I-2576374J-813859D01*
G01*
D11*
X13564998Y-6817501D02*
X13564998Y-6625001D01*
D12*
X13724998Y-6047501D02*
X13724998Y-5742501D01*
D11*
X13564998Y-6625001D02*
X13724998Y-6625001D01*
D10*
X15002475Y-6716741D02*
X15500294Y-7023977D01*
D11*
X13984998Y-5742501D02*
X13724998Y-5742501D01*
D10*
X15576364Y-5186151D02*
X14991280Y-5266442D01*
X14807443Y-8008270D02*
G75*
G03*
X15022146Y-7791901I-1802433J2003260D01*
G01*
X15500294Y-7023977D02*
G75*
G03*
X15700000Y-6100000I-2500294J1023977D01*
G01*
D11*
X13773562Y-5338086D02*
X15473045Y-4911860D01*
D10*
X13984998Y-5742501D02*
G75*
G03*
X13773562Y-5338086I-984998J-257499D01*
G01*
D12*
X13247500Y-6047501D02*
X13724998Y-6047501D01*
D10*
X15022146Y-7791901D02*
X14523280Y-7483485D01*
D12*
X13247500Y-6315001D02*
X13724998Y-6315001D01*
D13*
D14*
X13282500Y-6085000D02*
X13312500Y-6115000D01*
X13312500Y-6085000D02*
X13282500Y-6115000D01*
X13373024Y-6146260D02*
X13403024Y-6176260D01*
X13403024Y-6146260D02*
X13373024Y-6176260D01*
X13376946Y-6204077D02*
X13406946Y-6234077D01*
X13406946Y-6204077D02*
X13376946Y-6234077D01*
X13427903Y-6149040D02*
X13457903Y-6179040D01*
X13457903Y-6149040D02*
X13427903Y-6179040D01*
X13473456Y-6179772D02*
X13503456Y-6209772D01*
X13503456Y-6179772D02*
X13473456Y-6209772D01*
X13563550Y-6173578D02*
X13593550Y-6203578D01*
X13593550Y-6173578D02*
X13563550Y-6203578D01*
X13647500Y-6172450D02*
X13677500Y-6202450D01*
X13677500Y-6172450D02*
X13647500Y-6202450D01*
X13675000Y-6825000D02*
X13705000Y-6855000D01*
X13705000Y-6825000D02*
X13675000Y-6855000D01*
X13707000Y-6182550D02*
X13737000Y-6212550D01*
X13737000Y-6182550D02*
X13707000Y-6212550D01*
X13755000Y-6040000D02*
X13785000Y-6070000D01*
X13785000Y-6040000D02*
X13755000Y-6070000D01*
X13780000Y-6910000D02*
X13810000Y-6940000D01*
X13810000Y-6910000D02*
X13780000Y-6940000D01*
X13815000Y-6720000D02*
X13845000Y-6750000D01*
X13845000Y-6720000D02*
X13815000Y-6750000D01*
X13817500Y-6035000D02*
X13847500Y-6065000D01*
X13847500Y-6035000D02*
X13817500Y-6065000D01*
X13960000Y-5829950D02*
X13990000Y-5859950D01*
X13990000Y-5829950D02*
X13960000Y-5859950D01*
X13970000Y-6325000D02*
X14000000Y-6355000D01*
X14000000Y-6325000D02*
X13970000Y-6355000D01*
X14005000Y-6085000D02*
X14035000Y-6115000D01*
X14035000Y-6085000D02*
X14005000Y-6115000D01*
X14010000Y-6685000D02*
X14040000Y-6715000D01*
X14040000Y-6685000D02*
X14010000Y-6715000D01*
X14090000Y-7045000D02*
X14120000Y-7075000D01*
X14120000Y-7045000D02*
X14090000Y-7075000D01*
X14110000Y-6165000D02*
X14140000Y-6195000D01*
X14140000Y-6165000D02*
X14110000Y-6195000D01*
X14110000Y-6295000D02*
X14140000Y-6325000D01*
X14140000Y-6295000D02*
X14110000Y-6325000D01*
X14267000Y-5810000D02*
X14297000Y-5840000D01*
X14297000Y-5810000D02*
X14267000Y-5840000D01*
X14308321Y-5864566D02*
X14338321Y-5894566D01*
X14338321Y-5864566D02*
X14308321Y-5894566D01*
X14315000Y-6675000D02*
X14345000Y-6705000D01*
X14345000Y-6675000D02*
X14315000Y-6705000D01*
X14332500Y-5250000D02*
X14362500Y-5280000D01*
X14362500Y-5250000D02*
X14332500Y-5280000D01*
X14362184Y-5875441D02*
X14392184Y-5905441D01*
X14392184Y-5875441D02*
X14362184Y-5905441D01*
X14365000Y-7305000D02*
X14395000Y-7335000D01*
X14395000Y-7305000D02*
X14365000Y-7335000D01*
X14510000Y-5435000D02*
X14540000Y-5465000D01*
X14540000Y-5435000D02*
X14510000Y-5465000D01*
X14510000Y-7130000D02*
X14540000Y-7160000D01*
X14540000Y-7130000D02*
X14510000Y-7160000D01*
X14530000Y-6270000D02*
X14560000Y-6300000D01*
X14560000Y-6270000D02*
X14530000Y-6300000D01*
X14585000Y-6945000D02*
X14615000Y-6975000D01*
X14615000Y-6945000D02*
X14585000Y-6975000D01*
X14592500Y-6775000D02*
X14622500Y-6805000D01*
X14622500Y-6775000D02*
X14592500Y-6805000D01*
X14600000Y-5690000D02*
X14630000Y-5720000D01*
X14630000Y-5690000D02*
X14600000Y-5720000D01*
X14602500Y-5557500D02*
X14632500Y-5587500D01*
X14632500Y-5557500D02*
X14602500Y-5587500D01*
X14640000Y-7030000D02*
X14670000Y-7060000D01*
X14670000Y-7030000D02*
X14640000Y-7060000D01*
X14695000Y-6955000D02*
X14725000Y-6985000D01*
X14725000Y-6955000D02*
X14695000Y-6985000D01*
X14760000Y-6335000D02*
X14790000Y-6365000D01*
X14790000Y-6335000D02*
X14760000Y-6365000D01*
X14760000Y-6630000D02*
X14790000Y-6660000D01*
X14790000Y-6630000D02*
X14760000Y-6660000D01*
X14770000Y-6830000D02*
X14800000Y-6860000D01*
X14800000Y-6830000D02*
X14770000Y-6860000D01*
X14775000Y-6512500D02*
X14805000Y-6542500D01*
X14805000Y-6512500D02*
X14775000Y-6542500D01*
X14860000Y-5735000D02*
X14890000Y-5765000D01*
X14890000Y-5735000D02*
X14860000Y-5765000D01*
X14915000Y-5475000D02*
X14945000Y-5505000D01*
X14945000Y-5475000D02*
X14915000Y-5505000D01*
X14915000Y-5790000D02*
X14945000Y-5820000D01*
X14945000Y-5790000D02*
X14915000Y-5820000D01*
X14935000Y-5690000D02*
X14965000Y-5720000D01*
X14965000Y-5690000D02*
X14935000Y-5720000D01*
X14960000Y-6445000D02*
X14990000Y-6475000D01*
X14990000Y-6445000D02*
X14960000Y-6475000D01*
X14965000Y-6145000D02*
X14995000Y-6175000D01*
X14995000Y-6145000D02*
X14965000Y-6175000D01*
X14965000Y-6335000D02*
X14995000Y-6365000D01*
X14995000Y-6335000D02*
X14965000Y-6365000D01*
X14985000Y-5955000D02*
X15015000Y-5985000D01*
X15015000Y-5955000D02*
X14985000Y-5985000D01*
D15*
X14539422Y-7600172D02*
G75*
G03*
X14539422Y-7600172I-30000J0D01*
G01*
D13*
X14459602Y-7604417D02*
X14527446Y-7646810D01*
X14527446Y-7646810D02*
G75*
G03*
X14559241Y-7595928I15898J25441D01*
G01*
X14559241Y-7595927D02*
X14491397Y-7553534D01*
X14491397Y-7553534D02*
G75*
G03*
X14459602Y-7604417I-15898J-25441D01*
G01*
D15*
X14861680Y-7801542D02*
G75*
G03*
X14861680Y-7801542I-30000J0D01*
G01*
D13*
X14764899Y-7795188D02*
X14866665Y-7858778D01*
X14866665Y-7858778D02*
G75*
G03*
X14898460Y-7807895I15898J25441D01*
G01*
X14898460Y-7807895D02*
X14796694Y-7744305D01*
X14796694Y-7744305D02*
G75*
G03*
X14764899Y-7795188I-15898J-25441D01*
G01*
D15*
X15056626Y-5156673D02*
G75*
G03*
X15056626Y-5156673I-30000J0D01*
G01*
D13*
X14991190Y-5191948D02*
X15070411Y-5180814D01*
X15070411Y-5180814D02*
G75*
G03*
X15062061Y-5121398I-4175J29708D01*
G01*
X15062061Y-5121398D02*
X14982840Y-5132532D01*
X14982840Y-5132532D02*
G75*
G03*
X14991190Y-5191948I4175J-29708D01*
G01*
D15*
X15130329Y-6654522D02*
G75*
G03*
X15130329Y-6654522I-30000J0D01*
G01*
D13*
X15050510Y-6658767D02*
X15118353Y-6701160D01*
X15118353Y-6701160D02*
G75*
G03*
X15150149Y-6650278I15898J25441D01*
G01*
X15150149Y-6650278D02*
X15082305Y-6607884D01*
X15082305Y-6607884D02*
G75*
G03*
X15050510Y-6658767I-15898J-25441D01*
G01*
D15*
X15211816Y-6260911D02*
G75*
G03*
X15211816Y-6260911I-30000J0D01*
G01*
D13*
X15146381Y-6296186D02*
X15225602Y-6285052D01*
X15225602Y-6285052D02*
G75*
G03*
X15217252Y-6225636I-4175J29708D01*
G01*
X15217252Y-6225636D02*
X15138030Y-6236769D01*
X15138030Y-6236769D02*
G75*
G03*
X15146381Y-6296185I4175J-29708D01*
G01*
D15*
X15432932Y-5103817D02*
G75*
G03*
X15432932Y-5103817I-30000J0D01*
G01*
D13*
X15347691Y-5141875D02*
X15466523Y-5125174D01*
X15466523Y-5125174D02*
G75*
G03*
X15458173Y-5065758I-4175J29708D01*
G01*
X15458173Y-5065758D02*
X15339340Y-5082459D01*
X15339340Y-5082459D02*
G75*
G03*
X15347691Y-5141875I4175J-29708D01*
G01*
D15*
X15452572Y-6855917D02*
G75*
G03*
X15452572Y-6855917I-30000J0D01*
G01*
D13*
X15355791Y-6849563D02*
X15457557Y-6913154D01*
X15457557Y-6913154D02*
G75*
G03*
X15489352Y-6862271I15898J25441D01*
G01*
X15489352Y-6862271D02*
X15387586Y-6798680D01*
X15387586Y-6798680D02*
G75*
G03*
X15355791Y-6849563I-15898J-25441D01*
G01*
D15*
X15588118Y-6208025D02*
G75*
G03*
X15588118Y-6208025I-30000J0D01*
G01*
D13*
X15502877Y-6246083D02*
X15621709Y-6229383D01*
X15621709Y-6229382D02*
G75*
G03*
X15613359Y-6169966I-4175J29708D01*
G01*
X15613359Y-6169966D02*
X15494527Y-6186667D01*
X15494527Y-6186667D02*
G75*
G03*
X15502877Y-6246083I4175J-29708D01*
G01*
X13494619Y-8309246D02*
X13494619Y-8109246D01*
X13494619Y-8109246D02*
X13542238Y-8109246D01*
X13542238Y-8109246D02*
X13570809Y-8118770D01*
X13570809Y-8118770D02*
X13589857Y-8137818D01*
X13589857Y-8137818D02*
X13599381Y-8156865D01*
X13599381Y-8156865D02*
X13608905Y-8194961D01*
X13608905Y-8194961D02*
X13608905Y-8223532D01*
X13608905Y-8223532D02*
X13599381Y-8261627D01*
X13599381Y-8261627D02*
X13589857Y-8280675D01*
X13589857Y-8280675D02*
X13570809Y-8299722D01*
X13570809Y-8299722D02*
X13542238Y-8309246D01*
X13542238Y-8309246D02*
X13494619Y-8309246D01*
X13694619Y-8309246D02*
X13694619Y-8175913D01*
X13694619Y-8214008D02*
X13704143Y-8194961D01*
X13704143Y-8194961D02*
X13713666Y-8185437D01*
X13713666Y-8185437D02*
X13732714Y-8175913D01*
X13732714Y-8175913D02*
X13751762Y-8175913D01*
X13818428Y-8309246D02*
X13818428Y-8175913D01*
X13818428Y-8109246D02*
X13808905Y-8118770D01*
X13808905Y-8118770D02*
X13818428Y-8128294D01*
X13818428Y-8128294D02*
X13827952Y-8118770D01*
X13827952Y-8118770D02*
X13818428Y-8109246D01*
X13818428Y-8109246D02*
X13818428Y-8128294D01*
X13942238Y-8309246D02*
X13923190Y-8299722D01*
X13923190Y-8299722D02*
X13913666Y-8280675D01*
X13913666Y-8280675D02*
X13913666Y-8109246D01*
X14047000Y-8309246D02*
X14027952Y-8299722D01*
X14027952Y-8299722D02*
X14018428Y-8280675D01*
X14018428Y-8280675D02*
X14018428Y-8109246D01*
X14243190Y-8309246D02*
X14243190Y-8109246D01*
X14243190Y-8109246D02*
X14309857Y-8252103D01*
X14309857Y-8252103D02*
X14376524Y-8109246D01*
X14376524Y-8109246D02*
X14376524Y-8309246D01*
X14557476Y-8309246D02*
X14557476Y-8204484D01*
X14557476Y-8204484D02*
X14547952Y-8185437D01*
X14547952Y-8185437D02*
X14528905Y-8175913D01*
X14528905Y-8175913D02*
X14490809Y-8175913D01*
X14490809Y-8175913D02*
X14471762Y-8185437D01*
X14557476Y-8299722D02*
X14538428Y-8309246D01*
X14538428Y-8309246D02*
X14490809Y-8309246D01*
X14490809Y-8309246D02*
X14471762Y-8299722D01*
X14471762Y-8299722D02*
X14462238Y-8280675D01*
X14462238Y-8280675D02*
X14462238Y-8261627D01*
X14462238Y-8261627D02*
X14471762Y-8242580D01*
X14471762Y-8242580D02*
X14490809Y-8233056D01*
X14490809Y-8233056D02*
X14538428Y-8233056D01*
X14538428Y-8233056D02*
X14557476Y-8223532D01*
X14652714Y-8175913D02*
X14652714Y-8375913D01*
X14652714Y-8185437D02*
X14671762Y-8175913D01*
X14671762Y-8175913D02*
X14709857Y-8175913D01*
X14709857Y-8175913D02*
X14728905Y-8185437D01*
X14728905Y-8185437D02*
X14738428Y-8194961D01*
X14738428Y-8194961D02*
X14747952Y-8214008D01*
X14747952Y-8214008D02*
X14747952Y-8271151D01*
X14747952Y-8271151D02*
X14738428Y-8290199D01*
X14738428Y-8290199D02*
X14728905Y-8299722D01*
X14728905Y-8299722D02*
X14709857Y-8309246D01*
X14709857Y-8309246D02*
X14671762Y-8309246D01*
X14671762Y-8309246D02*
X14652714Y-8299722D01*
X14833666Y-8290199D02*
X14843190Y-8299722D01*
X14843190Y-8299722D02*
X14833666Y-8309246D01*
X14833666Y-8309246D02*
X14824143Y-8299722D01*
X14824143Y-8299722D02*
X14833666Y-8290199D01*
X14833666Y-8290199D02*
X14833666Y-8309246D01*
X14833666Y-8185437D02*
X14843190Y-8194961D01*
X14843190Y-8194961D02*
X14833666Y-8204484D01*
X14833666Y-8204484D02*
X14824143Y-8194961D01*
X14824143Y-8194961D02*
X14833666Y-8185437D01*
X14833666Y-8185437D02*
X14833666Y-8204484D01*
D14*
X13217000Y-8640770D02*
X13247000Y-8670770D01*
X13247000Y-8640770D02*
X13217000Y-8670770D01*
D13*
X13532714Y-8529246D02*
X13551762Y-8529246D01*
X13551762Y-8529246D02*
X13570809Y-8538770D01*
X13570809Y-8538770D02*
X13580333Y-8548294D01*
X13580333Y-8548294D02*
X13589857Y-8567342D01*
X13589857Y-8567342D02*
X13599381Y-8605437D01*
X13599381Y-8605437D02*
X13599381Y-8653056D01*
X13599381Y-8653056D02*
X13589857Y-8691151D01*
X13589857Y-8691151D02*
X13580333Y-8710199D01*
X13580333Y-8710199D02*
X13570809Y-8719723D01*
X13570809Y-8719723D02*
X13551762Y-8729246D01*
X13551762Y-8729246D02*
X13532714Y-8729246D01*
X13532714Y-8729246D02*
X13513666Y-8719723D01*
X13513666Y-8719723D02*
X13504143Y-8710199D01*
X13504143Y-8710199D02*
X13494619Y-8691151D01*
X13494619Y-8691151D02*
X13485095Y-8653056D01*
X13485095Y-8653056D02*
X13485095Y-8605437D01*
X13485095Y-8605437D02*
X13494619Y-8567342D01*
X13494619Y-8567342D02*
X13504143Y-8548294D01*
X13504143Y-8548294D02*
X13513666Y-8538770D01*
X13513666Y-8538770D02*
X13532714Y-8529246D01*
X13685095Y-8710199D02*
X13694619Y-8719723D01*
X13694619Y-8719723D02*
X13685095Y-8729246D01*
X13685095Y-8729246D02*
X13675571Y-8719723D01*
X13675571Y-8719723D02*
X13685095Y-8710199D01*
X13685095Y-8710199D02*
X13685095Y-8729246D01*
X13761286Y-8529246D02*
X13885095Y-8529246D01*
X13885095Y-8529246D02*
X13818428Y-8605437D01*
X13818428Y-8605437D02*
X13847000Y-8605437D01*
X13847000Y-8605437D02*
X13866047Y-8614961D01*
X13866047Y-8614961D02*
X13875571Y-8624484D01*
X13875571Y-8624484D02*
X13885095Y-8643532D01*
X13885095Y-8643532D02*
X13885095Y-8691151D01*
X13885095Y-8691151D02*
X13875571Y-8710199D01*
X13875571Y-8710199D02*
X13866047Y-8719723D01*
X13866047Y-8719723D02*
X13847000Y-8729246D01*
X13847000Y-8729246D02*
X13789857Y-8729246D01*
X13789857Y-8729246D02*
X13770809Y-8719723D01*
X13770809Y-8719723D02*
X13761286Y-8710199D01*
X14008905Y-8529246D02*
X14027952Y-8529246D01*
X14027952Y-8529246D02*
X14047000Y-8538770D01*
X14047000Y-8538770D02*
X14056524Y-8548294D01*
X14056524Y-8548294D02*
X14066047Y-8567342D01*
X14066047Y-8567342D02*
X14075571Y-8605437D01*
X14075571Y-8605437D02*
X14075571Y-8653056D01*
X14075571Y-8653056D02*
X14066047Y-8691151D01*
X14066047Y-8691151D02*
X14056524Y-8710199D01*
X14056524Y-8710199D02*
X14047000Y-8719723D01*
X14047000Y-8719723D02*
X14027952Y-8729246D01*
X14027952Y-8729246D02*
X14008905Y-8729246D01*
X14008905Y-8729246D02*
X13989857Y-8719723D01*
X13989857Y-8719723D02*
X13980333Y-8710199D01*
X13980333Y-8710199D02*
X13970809Y-8691151D01*
X13970809Y-8691151D02*
X13961286Y-8653056D01*
X13961286Y-8653056D02*
X13961286Y-8605437D01*
X13961286Y-8605437D02*
X13970809Y-8567342D01*
X13970809Y-8567342D02*
X13980333Y-8548294D01*
X13980333Y-8548294D02*
X13989857Y-8538770D01*
X13989857Y-8538770D02*
X14008905Y-8529246D01*
X14199381Y-8529246D02*
X14218428Y-8529246D01*
X14218428Y-8529246D02*
X14237476Y-8538770D01*
X14237476Y-8538770D02*
X14247000Y-8548294D01*
X14247000Y-8548294D02*
X14256524Y-8567342D01*
X14256524Y-8567342D02*
X14266047Y-8605437D01*
X14266047Y-8605437D02*
X14266047Y-8653056D01*
X14266047Y-8653056D02*
X14256524Y-8691151D01*
X14256524Y-8691151D02*
X14247000Y-8710199D01*
X14247000Y-8710199D02*
X14237476Y-8719723D01*
X14237476Y-8719723D02*
X14218428Y-8729246D01*
X14218428Y-8729246D02*
X14199381Y-8729246D01*
X14199381Y-8729246D02*
X14180333Y-8719723D01*
X14180333Y-8719723D02*
X14170809Y-8710199D01*
X14170809Y-8710199D02*
X14161286Y-8691151D01*
X14161286Y-8691151D02*
X14151762Y-8653056D01*
X14151762Y-8653056D02*
X14151762Y-8605437D01*
X14151762Y-8605437D02*
X14161286Y-8567342D01*
X14161286Y-8567342D02*
X14170809Y-8548294D01*
X14170809Y-8548294D02*
X14180333Y-8538770D01*
X14180333Y-8538770D02*
X14199381Y-8529246D01*
X14351762Y-8729246D02*
X14351762Y-8595913D01*
X14351762Y-8614961D02*
X14361286Y-8605437D01*
X14361286Y-8605437D02*
X14380333Y-8595913D01*
X14380333Y-8595913D02*
X14408905Y-8595913D01*
X14408905Y-8595913D02*
X14427952Y-8605437D01*
X14427952Y-8605437D02*
X14437476Y-8624484D01*
X14437476Y-8624484D02*
X14437476Y-8729246D01*
X14437476Y-8624484D02*
X14447000Y-8605437D01*
X14447000Y-8605437D02*
X14466047Y-8595913D01*
X14466047Y-8595913D02*
X14494619Y-8595913D01*
X14494619Y-8595913D02*
X14513667Y-8605437D01*
X14513667Y-8605437D02*
X14523190Y-8624484D01*
X14523190Y-8624484D02*
X14523190Y-8729246D01*
X14618428Y-8729246D02*
X14618428Y-8595913D01*
X14618428Y-8614961D02*
X14627952Y-8605437D01*
X14627952Y-8605437D02*
X14647000Y-8595913D01*
X14647000Y-8595913D02*
X14675571Y-8595913D01*
X14675571Y-8595913D02*
X14694619Y-8605437D01*
X14694619Y-8605437D02*
X14704143Y-8624484D01*
X14704143Y-8624484D02*
X14704143Y-8729246D01*
X14704143Y-8624484D02*
X14713667Y-8605437D01*
X14713667Y-8605437D02*
X14732714Y-8595913D01*
X14732714Y-8595913D02*
X14761286Y-8595913D01*
X14761286Y-8595913D02*
X14780333Y-8605437D01*
X14780333Y-8605437D02*
X14789857Y-8624484D01*
X14789857Y-8624484D02*
X14789857Y-8729246D01*
X15147952Y-8519723D02*
X14976524Y-8776865D01*
X15372714Y-8529246D02*
X15391762Y-8529246D01*
X15391762Y-8529246D02*
X15410809Y-8538770D01*
X15410809Y-8538770D02*
X15420333Y-8548294D01*
X15420333Y-8548294D02*
X15429857Y-8567342D01*
X15429857Y-8567342D02*
X15439381Y-8605437D01*
X15439381Y-8605437D02*
X15439381Y-8653056D01*
X15439381Y-8653056D02*
X15429857Y-8691151D01*
X15429857Y-8691151D02*
X15420333Y-8710199D01*
X15420333Y-8710199D02*
X15410809Y-8719723D01*
X15410809Y-8719723D02*
X15391762Y-8729246D01*
X15391762Y-8729246D02*
X15372714Y-8729246D01*
X15372714Y-8729246D02*
X15353667Y-8719723D01*
X15353667Y-8719723D02*
X15344143Y-8710199D01*
X15344143Y-8710199D02*
X15334619Y-8691151D01*
X15334619Y-8691151D02*
X15325095Y-8653056D01*
X15325095Y-8653056D02*
X15325095Y-8605437D01*
X15325095Y-8605437D02*
X15334619Y-8567342D01*
X15334619Y-8567342D02*
X15344143Y-8548294D01*
X15344143Y-8548294D02*
X15353667Y-8538770D01*
X15353667Y-8538770D02*
X15372714Y-8529246D01*
X15525095Y-8710199D02*
X15534619Y-8719723D01*
X15534619Y-8719723D02*
X15525095Y-8729246D01*
X15525095Y-8729246D02*
X15515571Y-8719723D01*
X15515571Y-8719723D02*
X15525095Y-8710199D01*
X15525095Y-8710199D02*
X15525095Y-8729246D01*
X15658428Y-8529246D02*
X15677476Y-8529246D01*
X15677476Y-8529246D02*
X15696524Y-8538770D01*
X15696524Y-8538770D02*
X15706048Y-8548294D01*
X15706048Y-8548294D02*
X15715571Y-8567342D01*
X15715571Y-8567342D02*
X15725095Y-8605437D01*
X15725095Y-8605437D02*
X15725095Y-8653056D01*
X15725095Y-8653056D02*
X15715571Y-8691151D01*
X15715571Y-8691151D02*
X15706048Y-8710199D01*
X15706048Y-8710199D02*
X15696524Y-8719723D01*
X15696524Y-8719723D02*
X15677476Y-8729246D01*
X15677476Y-8729246D02*
X15658428Y-8729246D01*
X15658428Y-8729246D02*
X15639381Y-8719723D01*
X15639381Y-8719723D02*
X15629857Y-8710199D01*
X15629857Y-8710199D02*
X15620333Y-8691151D01*
X15620333Y-8691151D02*
X15610809Y-8653056D01*
X15610809Y-8653056D02*
X15610809Y-8605437D01*
X15610809Y-8605437D02*
X15620333Y-8567342D01*
X15620333Y-8567342D02*
X15629857Y-8548294D01*
X15629857Y-8548294D02*
X15639381Y-8538770D01*
X15639381Y-8538770D02*
X15658428Y-8529246D01*
X15915571Y-8729246D02*
X15801286Y-8729246D01*
X15858428Y-8729246D02*
X15858428Y-8529246D01*
X15858428Y-8529246D02*
X15839381Y-8557818D01*
X15839381Y-8557818D02*
X15820333Y-8576865D01*
X15820333Y-8576865D02*
X15801286Y-8586389D01*
X16106048Y-8729246D02*
X15991762Y-8729246D01*
X16048905Y-8729246D02*
X16048905Y-8529246D01*
X16048905Y-8529246D02*
X16029857Y-8557818D01*
X16029857Y-8557818D02*
X16010809Y-8576865D01*
X16010809Y-8576865D02*
X15991762Y-8586389D01*
X16220333Y-8614961D02*
X16201286Y-8605437D01*
X16201286Y-8605437D02*
X16191762Y-8595913D01*
X16191762Y-8595913D02*
X16182238Y-8576865D01*
X16182238Y-8576865D02*
X16182238Y-8567342D01*
X16182238Y-8567342D02*
X16191762Y-8548294D01*
X16191762Y-8548294D02*
X16201286Y-8538770D01*
X16201286Y-8538770D02*
X16220333Y-8529246D01*
X16220333Y-8529246D02*
X16258429Y-8529246D01*
X16258429Y-8529246D02*
X16277476Y-8538770D01*
X16277476Y-8538770D02*
X16287000Y-8548294D01*
X16287000Y-8548294D02*
X16296524Y-8567342D01*
X16296524Y-8567342D02*
X16296524Y-8576865D01*
X16296524Y-8576865D02*
X16287000Y-8595913D01*
X16287000Y-8595913D02*
X16277476Y-8605437D01*
X16277476Y-8605437D02*
X16258429Y-8614961D01*
X16258429Y-8614961D02*
X16220333Y-8614961D01*
X16220333Y-8614961D02*
X16201286Y-8624484D01*
X16201286Y-8624484D02*
X16191762Y-8634008D01*
X16191762Y-8634008D02*
X16182238Y-8653056D01*
X16182238Y-8653056D02*
X16182238Y-8691151D01*
X16182238Y-8691151D02*
X16191762Y-8710199D01*
X16191762Y-8710199D02*
X16201286Y-8719723D01*
X16201286Y-8719723D02*
X16220333Y-8729246D01*
X16220333Y-8729246D02*
X16258429Y-8729246D01*
X16258429Y-8729246D02*
X16277476Y-8719723D01*
X16277476Y-8719723D02*
X16287000Y-8710199D01*
X16287000Y-8710199D02*
X16296524Y-8691151D01*
X16296524Y-8691151D02*
X16296524Y-8653056D01*
X16296524Y-8653056D02*
X16287000Y-8634008D01*
X16287000Y-8634008D02*
X16277476Y-8624484D01*
X16277476Y-8624484D02*
X16258429Y-8614961D01*
X16372714Y-8529246D02*
X16372714Y-8567342D01*
X16448905Y-8529246D02*
X16448905Y-8567342D01*
X16711762Y-8805437D02*
X16702238Y-8795913D01*
X16702238Y-8795913D02*
X16683190Y-8767342D01*
X16683190Y-8767342D02*
X16673667Y-8748294D01*
X16673667Y-8748294D02*
X16664143Y-8719723D01*
X16664143Y-8719723D02*
X16654619Y-8672104D01*
X16654619Y-8672104D02*
X16654619Y-8634008D01*
X16654619Y-8634008D02*
X16664143Y-8586389D01*
X16664143Y-8586389D02*
X16673667Y-8557818D01*
X16673667Y-8557818D02*
X16683190Y-8538770D01*
X16683190Y-8538770D02*
X16702238Y-8510199D01*
X16702238Y-8510199D02*
X16711762Y-8500675D01*
X16873667Y-8595913D02*
X16873667Y-8729246D01*
X16826048Y-8519723D02*
X16778429Y-8662580D01*
X16778429Y-8662580D02*
X16902238Y-8662580D01*
X16959381Y-8529246D02*
X17092714Y-8529246D01*
X17092714Y-8529246D02*
X17007000Y-8729246D01*
X17288905Y-8729246D02*
X17288905Y-8529246D01*
X17374619Y-8729246D02*
X17374619Y-8624484D01*
X17374619Y-8624484D02*
X17365095Y-8605437D01*
X17365095Y-8605437D02*
X17346048Y-8595913D01*
X17346048Y-8595913D02*
X17317476Y-8595913D01*
X17317476Y-8595913D02*
X17298429Y-8605437D01*
X17298429Y-8605437D02*
X17288905Y-8614961D01*
X17498429Y-8729246D02*
X17479381Y-8719723D01*
X17479381Y-8719723D02*
X17469857Y-8710199D01*
X17469857Y-8710199D02*
X17460333Y-8691151D01*
X17460333Y-8691151D02*
X17460333Y-8634008D01*
X17460333Y-8634008D02*
X17469857Y-8614961D01*
X17469857Y-8614961D02*
X17479381Y-8605437D01*
X17479381Y-8605437D02*
X17498429Y-8595913D01*
X17498429Y-8595913D02*
X17527000Y-8595913D01*
X17527000Y-8595913D02*
X17546048Y-8605437D01*
X17546048Y-8605437D02*
X17555572Y-8614961D01*
X17555572Y-8614961D02*
X17565095Y-8634008D01*
X17565095Y-8634008D02*
X17565095Y-8691151D01*
X17565095Y-8691151D02*
X17555572Y-8710199D01*
X17555572Y-8710199D02*
X17546048Y-8719723D01*
X17546048Y-8719723D02*
X17527000Y-8729246D01*
X17527000Y-8729246D02*
X17498429Y-8729246D01*
X17679381Y-8729246D02*
X17660333Y-8719723D01*
X17660333Y-8719723D02*
X17650810Y-8700675D01*
X17650810Y-8700675D02*
X17650810Y-8529246D01*
X17831762Y-8719723D02*
X17812714Y-8729246D01*
X17812714Y-8729246D02*
X17774619Y-8729246D01*
X17774619Y-8729246D02*
X17755572Y-8719723D01*
X17755572Y-8719723D02*
X17746048Y-8700675D01*
X17746048Y-8700675D02*
X17746048Y-8624484D01*
X17746048Y-8624484D02*
X17755572Y-8605437D01*
X17755572Y-8605437D02*
X17774619Y-8595913D01*
X17774619Y-8595913D02*
X17812714Y-8595913D01*
X17812714Y-8595913D02*
X17831762Y-8605437D01*
X17831762Y-8605437D02*
X17841286Y-8624484D01*
X17841286Y-8624484D02*
X17841286Y-8643532D01*
X17841286Y-8643532D02*
X17746048Y-8662580D01*
X17917476Y-8719723D02*
X17936524Y-8729246D01*
X17936524Y-8729246D02*
X17974619Y-8729246D01*
X17974619Y-8729246D02*
X17993667Y-8719723D01*
X17993667Y-8719723D02*
X18003191Y-8700675D01*
X18003191Y-8700675D02*
X18003191Y-8691151D01*
X18003191Y-8691151D02*
X17993667Y-8672104D01*
X17993667Y-8672104D02*
X17974619Y-8662580D01*
X17974619Y-8662580D02*
X17946048Y-8662580D01*
X17946048Y-8662580D02*
X17927000Y-8653056D01*
X17927000Y-8653056D02*
X17917476Y-8634008D01*
X17917476Y-8634008D02*
X17917476Y-8624484D01*
X17917476Y-8624484D02*
X17927000Y-8605437D01*
X17927000Y-8605437D02*
X17946048Y-8595913D01*
X17946048Y-8595913D02*
X17974619Y-8595913D01*
X17974619Y-8595913D02*
X17993667Y-8605437D01*
X18069857Y-8805437D02*
X18079381Y-8795913D01*
X18079381Y-8795913D02*
X18098429Y-8767342D01*
X18098429Y-8767342D02*
X18107953Y-8748294D01*
X18107953Y-8748294D02*
X18117476Y-8719723D01*
X18117476Y-8719723D02*
X18127000Y-8672104D01*
X18127000Y-8672104D02*
X18127000Y-8634008D01*
X18127000Y-8634008D02*
X18117476Y-8586389D01*
X18117476Y-8586389D02*
X18107953Y-8557818D01*
X18107953Y-8557818D02*
X18098429Y-8538770D01*
X18098429Y-8538770D02*
X18079381Y-8510199D01*
X18079381Y-8510199D02*
X18069857Y-8500675D01*
D15*
X13247000Y-8919770D02*
G75*
G03*
X13247000Y-8919770I-30000J0D01*
G01*
D13*
X13532714Y-8793246D02*
X13551762Y-8793246D01*
X13551762Y-8793246D02*
X13570809Y-8802770D01*
X13570809Y-8802770D02*
X13580333Y-8812294D01*
X13580333Y-8812294D02*
X13589857Y-8831342D01*
X13589857Y-8831342D02*
X13599381Y-8869437D01*
X13599381Y-8869437D02*
X13599381Y-8917056D01*
X13599381Y-8917056D02*
X13589857Y-8955151D01*
X13589857Y-8955151D02*
X13580333Y-8974199D01*
X13580333Y-8974199D02*
X13570809Y-8983723D01*
X13570809Y-8983723D02*
X13551762Y-8993246D01*
X13551762Y-8993246D02*
X13532714Y-8993246D01*
X13532714Y-8993246D02*
X13513666Y-8983723D01*
X13513666Y-8983723D02*
X13504143Y-8974199D01*
X13504143Y-8974199D02*
X13494619Y-8955151D01*
X13494619Y-8955151D02*
X13485095Y-8917056D01*
X13485095Y-8917056D02*
X13485095Y-8869437D01*
X13485095Y-8869437D02*
X13494619Y-8831342D01*
X13494619Y-8831342D02*
X13504143Y-8812294D01*
X13504143Y-8812294D02*
X13513666Y-8802770D01*
X13513666Y-8802770D02*
X13532714Y-8793246D01*
X13685095Y-8974199D02*
X13694619Y-8983723D01*
X13694619Y-8983723D02*
X13685095Y-8993246D01*
X13685095Y-8993246D02*
X13675571Y-8983723D01*
X13675571Y-8983723D02*
X13685095Y-8974199D01*
X13685095Y-8974199D02*
X13685095Y-8993246D01*
X13866047Y-8793246D02*
X13827952Y-8793246D01*
X13827952Y-8793246D02*
X13808905Y-8802770D01*
X13808905Y-8802770D02*
X13799381Y-8812294D01*
X13799381Y-8812294D02*
X13780333Y-8840865D01*
X13780333Y-8840865D02*
X13770809Y-8878961D01*
X13770809Y-8878961D02*
X13770809Y-8955151D01*
X13770809Y-8955151D02*
X13780333Y-8974199D01*
X13780333Y-8974199D02*
X13789857Y-8983723D01*
X13789857Y-8983723D02*
X13808905Y-8993246D01*
X13808905Y-8993246D02*
X13847000Y-8993246D01*
X13847000Y-8993246D02*
X13866047Y-8983723D01*
X13866047Y-8983723D02*
X13875571Y-8974199D01*
X13875571Y-8974199D02*
X13885095Y-8955151D01*
X13885095Y-8955151D02*
X13885095Y-8907532D01*
X13885095Y-8907532D02*
X13875571Y-8888484D01*
X13875571Y-8888484D02*
X13866047Y-8878961D01*
X13866047Y-8878961D02*
X13847000Y-8869437D01*
X13847000Y-8869437D02*
X13808905Y-8869437D01*
X13808905Y-8869437D02*
X13789857Y-8878961D01*
X13789857Y-8878961D02*
X13780333Y-8888484D01*
X13780333Y-8888484D02*
X13770809Y-8907532D01*
X14008905Y-8793246D02*
X14027952Y-8793246D01*
X14027952Y-8793246D02*
X14047000Y-8802770D01*
X14047000Y-8802770D02*
X14056524Y-8812294D01*
X14056524Y-8812294D02*
X14066047Y-8831342D01*
X14066047Y-8831342D02*
X14075571Y-8869437D01*
X14075571Y-8869437D02*
X14075571Y-8917056D01*
X14075571Y-8917056D02*
X14066047Y-8955151D01*
X14066047Y-8955151D02*
X14056524Y-8974199D01*
X14056524Y-8974199D02*
X14047000Y-8983723D01*
X14047000Y-8983723D02*
X14027952Y-8993246D01*
X14027952Y-8993246D02*
X14008905Y-8993246D01*
X14008905Y-8993246D02*
X13989857Y-8983723D01*
X13989857Y-8983723D02*
X13980333Y-8974199D01*
X13980333Y-8974199D02*
X13970809Y-8955151D01*
X13970809Y-8955151D02*
X13961286Y-8917056D01*
X13961286Y-8917056D02*
X13961286Y-8869437D01*
X13961286Y-8869437D02*
X13970809Y-8831342D01*
X13970809Y-8831342D02*
X13980333Y-8812294D01*
X13980333Y-8812294D02*
X13989857Y-8802770D01*
X13989857Y-8802770D02*
X14008905Y-8793246D01*
X14199381Y-8793246D02*
X14218428Y-8793246D01*
X14218428Y-8793246D02*
X14237476Y-8802770D01*
X14237476Y-8802770D02*
X14247000Y-8812294D01*
X14247000Y-8812294D02*
X14256524Y-8831342D01*
X14256524Y-8831342D02*
X14266047Y-8869437D01*
X14266047Y-8869437D02*
X14266047Y-8917056D01*
X14266047Y-8917056D02*
X14256524Y-8955151D01*
X14256524Y-8955151D02*
X14247000Y-8974199D01*
X14247000Y-8974199D02*
X14237476Y-8983723D01*
X14237476Y-8983723D02*
X14218428Y-8993246D01*
X14218428Y-8993246D02*
X14199381Y-8993246D01*
X14199381Y-8993246D02*
X14180333Y-8983723D01*
X14180333Y-8983723D02*
X14170809Y-8974199D01*
X14170809Y-8974199D02*
X14161286Y-8955151D01*
X14161286Y-8955151D02*
X14151762Y-8917056D01*
X14151762Y-8917056D02*
X14151762Y-8869437D01*
X14151762Y-8869437D02*
X14161286Y-8831342D01*
X14161286Y-8831342D02*
X14170809Y-8812294D01*
X14170809Y-8812294D02*
X14180333Y-8802770D01*
X14180333Y-8802770D02*
X14199381Y-8793246D01*
X14351762Y-8993246D02*
X14351762Y-8859913D01*
X14351762Y-8878961D02*
X14361286Y-8869437D01*
X14361286Y-8869437D02*
X14380333Y-8859913D01*
X14380333Y-8859913D02*
X14408905Y-8859913D01*
X14408905Y-8859913D02*
X14427952Y-8869437D01*
X14427952Y-8869437D02*
X14437476Y-8888484D01*
X14437476Y-8888484D02*
X14437476Y-8993246D01*
X14437476Y-8888484D02*
X14447000Y-8869437D01*
X14447000Y-8869437D02*
X14466047Y-8859913D01*
X14466047Y-8859913D02*
X14494619Y-8859913D01*
X14494619Y-8859913D02*
X14513667Y-8869437D01*
X14513667Y-8869437D02*
X14523190Y-8888484D01*
X14523190Y-8888484D02*
X14523190Y-8993246D01*
X14618428Y-8993246D02*
X14618428Y-8859913D01*
X14618428Y-8878961D02*
X14627952Y-8869437D01*
X14627952Y-8869437D02*
X14647000Y-8859913D01*
X14647000Y-8859913D02*
X14675571Y-8859913D01*
X14675571Y-8859913D02*
X14694619Y-8869437D01*
X14694619Y-8869437D02*
X14704143Y-8888484D01*
X14704143Y-8888484D02*
X14704143Y-8993246D01*
X14704143Y-8888484D02*
X14713667Y-8869437D01*
X14713667Y-8869437D02*
X14732714Y-8859913D01*
X14732714Y-8859913D02*
X14761286Y-8859913D01*
X14761286Y-8859913D02*
X14780333Y-8869437D01*
X14780333Y-8869437D02*
X14789857Y-8888484D01*
X14789857Y-8888484D02*
X14789857Y-8993246D01*
X15147952Y-8783723D02*
X14976524Y-9040865D01*
X15372714Y-8793246D02*
X15391762Y-8793246D01*
X15391762Y-8793246D02*
X15410809Y-8802770D01*
X15410809Y-8802770D02*
X15420333Y-8812294D01*
X15420333Y-8812294D02*
X15429857Y-8831342D01*
X15429857Y-8831342D02*
X15439381Y-8869437D01*
X15439381Y-8869437D02*
X15439381Y-8917056D01*
X15439381Y-8917056D02*
X15429857Y-8955151D01*
X15429857Y-8955151D02*
X15420333Y-8974199D01*
X15420333Y-8974199D02*
X15410809Y-8983723D01*
X15410809Y-8983723D02*
X15391762Y-8993246D01*
X15391762Y-8993246D02*
X15372714Y-8993246D01*
X15372714Y-8993246D02*
X15353667Y-8983723D01*
X15353667Y-8983723D02*
X15344143Y-8974199D01*
X15344143Y-8974199D02*
X15334619Y-8955151D01*
X15334619Y-8955151D02*
X15325095Y-8917056D01*
X15325095Y-8917056D02*
X15325095Y-8869437D01*
X15325095Y-8869437D02*
X15334619Y-8831342D01*
X15334619Y-8831342D02*
X15344143Y-8812294D01*
X15344143Y-8812294D02*
X15353667Y-8802770D01*
X15353667Y-8802770D02*
X15372714Y-8793246D01*
X15525095Y-8974199D02*
X15534619Y-8983723D01*
X15534619Y-8983723D02*
X15525095Y-8993246D01*
X15525095Y-8993246D02*
X15515571Y-8983723D01*
X15515571Y-8983723D02*
X15525095Y-8974199D01*
X15525095Y-8974199D02*
X15525095Y-8993246D01*
X15658428Y-8793246D02*
X15677476Y-8793246D01*
X15677476Y-8793246D02*
X15696524Y-8802770D01*
X15696524Y-8802770D02*
X15706048Y-8812294D01*
X15706048Y-8812294D02*
X15715571Y-8831342D01*
X15715571Y-8831342D02*
X15725095Y-8869437D01*
X15725095Y-8869437D02*
X15725095Y-8917056D01*
X15725095Y-8917056D02*
X15715571Y-8955151D01*
X15715571Y-8955151D02*
X15706048Y-8974199D01*
X15706048Y-8974199D02*
X15696524Y-8983723D01*
X15696524Y-8983723D02*
X15677476Y-8993246D01*
X15677476Y-8993246D02*
X15658428Y-8993246D01*
X15658428Y-8993246D02*
X15639381Y-8983723D01*
X15639381Y-8983723D02*
X15629857Y-8974199D01*
X15629857Y-8974199D02*
X15620333Y-8955151D01*
X15620333Y-8955151D02*
X15610809Y-8917056D01*
X15610809Y-8917056D02*
X15610809Y-8869437D01*
X15610809Y-8869437D02*
X15620333Y-8831342D01*
X15620333Y-8831342D02*
X15629857Y-8812294D01*
X15629857Y-8812294D02*
X15639381Y-8802770D01*
X15639381Y-8802770D02*
X15658428Y-8793246D01*
X15801286Y-8812294D02*
X15810809Y-8802770D01*
X15810809Y-8802770D02*
X15829857Y-8793246D01*
X15829857Y-8793246D02*
X15877476Y-8793246D01*
X15877476Y-8793246D02*
X15896524Y-8802770D01*
X15896524Y-8802770D02*
X15906048Y-8812294D01*
X15906048Y-8812294D02*
X15915571Y-8831342D01*
X15915571Y-8831342D02*
X15915571Y-8850389D01*
X15915571Y-8850389D02*
X15906048Y-8878961D01*
X15906048Y-8878961D02*
X15791762Y-8993246D01*
X15791762Y-8993246D02*
X15915571Y-8993246D01*
X15982238Y-8793246D02*
X16106048Y-8793246D01*
X16106048Y-8793246D02*
X16039381Y-8869437D01*
X16039381Y-8869437D02*
X16067952Y-8869437D01*
X16067952Y-8869437D02*
X16087000Y-8878961D01*
X16087000Y-8878961D02*
X16096524Y-8888484D01*
X16096524Y-8888484D02*
X16106048Y-8907532D01*
X16106048Y-8907532D02*
X16106048Y-8955151D01*
X16106048Y-8955151D02*
X16096524Y-8974199D01*
X16096524Y-8974199D02*
X16087000Y-8983723D01*
X16087000Y-8983723D02*
X16067952Y-8993246D01*
X16067952Y-8993246D02*
X16010809Y-8993246D01*
X16010809Y-8993246D02*
X15991762Y-8983723D01*
X15991762Y-8983723D02*
X15982238Y-8974199D01*
X16277476Y-8793246D02*
X16239381Y-8793246D01*
X16239381Y-8793246D02*
X16220333Y-8802770D01*
X16220333Y-8802770D02*
X16210809Y-8812294D01*
X16210809Y-8812294D02*
X16191762Y-8840865D01*
X16191762Y-8840865D02*
X16182238Y-8878961D01*
X16182238Y-8878961D02*
X16182238Y-8955151D01*
X16182238Y-8955151D02*
X16191762Y-8974199D01*
X16191762Y-8974199D02*
X16201286Y-8983723D01*
X16201286Y-8983723D02*
X16220333Y-8993246D01*
X16220333Y-8993246D02*
X16258429Y-8993246D01*
X16258429Y-8993246D02*
X16277476Y-8983723D01*
X16277476Y-8983723D02*
X16287000Y-8974199D01*
X16287000Y-8974199D02*
X16296524Y-8955151D01*
X16296524Y-8955151D02*
X16296524Y-8907532D01*
X16296524Y-8907532D02*
X16287000Y-8888484D01*
X16287000Y-8888484D02*
X16277476Y-8878961D01*
X16277476Y-8878961D02*
X16258429Y-8869437D01*
X16258429Y-8869437D02*
X16220333Y-8869437D01*
X16220333Y-8869437D02*
X16201286Y-8878961D01*
X16201286Y-8878961D02*
X16191762Y-8888484D01*
X16191762Y-8888484D02*
X16182238Y-8907532D01*
X16372714Y-8793246D02*
X16372714Y-8831342D01*
X16448905Y-8793246D02*
X16448905Y-8831342D01*
X16711762Y-9069437D02*
X16702238Y-9059913D01*
X16702238Y-9059913D02*
X16683190Y-9031342D01*
X16683190Y-9031342D02*
X16673667Y-9012294D01*
X16673667Y-9012294D02*
X16664143Y-8983723D01*
X16664143Y-8983723D02*
X16654619Y-8936104D01*
X16654619Y-8936104D02*
X16654619Y-8898008D01*
X16654619Y-8898008D02*
X16664143Y-8850389D01*
X16664143Y-8850389D02*
X16673667Y-8821818D01*
X16673667Y-8821818D02*
X16683190Y-8802770D01*
X16683190Y-8802770D02*
X16702238Y-8774199D01*
X16702238Y-8774199D02*
X16711762Y-8764675D01*
X16826048Y-8793246D02*
X16845095Y-8793246D01*
X16845095Y-8793246D02*
X16864143Y-8802770D01*
X16864143Y-8802770D02*
X16873667Y-8812294D01*
X16873667Y-8812294D02*
X16883191Y-8831342D01*
X16883191Y-8831342D02*
X16892714Y-8869437D01*
X16892714Y-8869437D02*
X16892714Y-8917056D01*
X16892714Y-8917056D02*
X16883191Y-8955151D01*
X16883191Y-8955151D02*
X16873667Y-8974199D01*
X16873667Y-8974199D02*
X16864143Y-8983723D01*
X16864143Y-8983723D02*
X16845095Y-8993246D01*
X16845095Y-8993246D02*
X16826048Y-8993246D01*
X16826048Y-8993246D02*
X16807000Y-8983723D01*
X16807000Y-8983723D02*
X16797476Y-8974199D01*
X16797476Y-8974199D02*
X16787952Y-8955151D01*
X16787952Y-8955151D02*
X16778429Y-8917056D01*
X16778429Y-8917056D02*
X16778429Y-8869437D01*
X16778429Y-8869437D02*
X16787952Y-8831342D01*
X16787952Y-8831342D02*
X16797476Y-8812294D01*
X16797476Y-8812294D02*
X16807000Y-8802770D01*
X16807000Y-8802770D02*
X16826048Y-8793246D01*
X17098429Y-8993246D02*
X17098429Y-8793246D01*
X17184143Y-8993246D02*
X17184143Y-8888484D01*
X17184143Y-8888484D02*
X17174619Y-8869437D01*
X17174619Y-8869437D02*
X17155572Y-8859913D01*
X17155572Y-8859913D02*
X17127000Y-8859913D01*
X17127000Y-8859913D02*
X17107952Y-8869437D01*
X17107952Y-8869437D02*
X17098429Y-8878961D01*
X17307952Y-8993246D02*
X17288905Y-8983723D01*
X17288905Y-8983723D02*
X17279381Y-8974199D01*
X17279381Y-8974199D02*
X17269857Y-8955151D01*
X17269857Y-8955151D02*
X17269857Y-8898008D01*
X17269857Y-8898008D02*
X17279381Y-8878961D01*
X17279381Y-8878961D02*
X17288905Y-8869437D01*
X17288905Y-8869437D02*
X17307952Y-8859913D01*
X17307952Y-8859913D02*
X17336524Y-8859913D01*
X17336524Y-8859913D02*
X17355572Y-8869437D01*
X17355572Y-8869437D02*
X17365095Y-8878961D01*
X17365095Y-8878961D02*
X17374619Y-8898008D01*
X17374619Y-8898008D02*
X17374619Y-8955151D01*
X17374619Y-8955151D02*
X17365095Y-8974199D01*
X17365095Y-8974199D02*
X17355572Y-8983723D01*
X17355572Y-8983723D02*
X17336524Y-8993246D01*
X17336524Y-8993246D02*
X17307952Y-8993246D01*
X17488905Y-8993246D02*
X17469857Y-8983723D01*
X17469857Y-8983723D02*
X17460333Y-8964675D01*
X17460333Y-8964675D02*
X17460333Y-8793246D01*
X17641286Y-8983723D02*
X17622238Y-8993246D01*
X17622238Y-8993246D02*
X17584143Y-8993246D01*
X17584143Y-8993246D02*
X17565095Y-8983723D01*
X17565095Y-8983723D02*
X17555572Y-8964675D01*
X17555572Y-8964675D02*
X17555572Y-8888484D01*
X17555572Y-8888484D02*
X17565095Y-8869437D01*
X17565095Y-8869437D02*
X17584143Y-8859913D01*
X17584143Y-8859913D02*
X17622238Y-8859913D01*
X17622238Y-8859913D02*
X17641286Y-8869437D01*
X17641286Y-8869437D02*
X17650810Y-8888484D01*
X17650810Y-8888484D02*
X17650810Y-8907532D01*
X17650810Y-8907532D02*
X17555572Y-8926580D01*
X17727000Y-8983723D02*
X17746048Y-8993246D01*
X17746048Y-8993246D02*
X17784143Y-8993246D01*
X17784143Y-8993246D02*
X17803191Y-8983723D01*
X17803191Y-8983723D02*
X17812714Y-8964675D01*
X17812714Y-8964675D02*
X17812714Y-8955151D01*
X17812714Y-8955151D02*
X17803191Y-8936104D01*
X17803191Y-8936104D02*
X17784143Y-8926580D01*
X17784143Y-8926580D02*
X17755572Y-8926580D01*
X17755572Y-8926580D02*
X17736524Y-8917056D01*
X17736524Y-8917056D02*
X17727000Y-8898008D01*
X17727000Y-8898008D02*
X17727000Y-8888484D01*
X17727000Y-8888484D02*
X17736524Y-8869437D01*
X17736524Y-8869437D02*
X17755572Y-8859913D01*
X17755572Y-8859913D02*
X17784143Y-8859913D01*
X17784143Y-8859913D02*
X17803191Y-8869437D01*
X18018429Y-8917056D02*
X18170810Y-8917056D01*
X18094619Y-8993246D02*
X18094619Y-8840865D01*
X18414619Y-8878961D02*
X18395572Y-8869437D01*
X18395572Y-8869437D02*
X18386048Y-8859913D01*
X18386048Y-8859913D02*
X18376524Y-8840865D01*
X18376524Y-8840865D02*
X18376524Y-8831342D01*
X18376524Y-8831342D02*
X18386048Y-8812294D01*
X18386048Y-8812294D02*
X18395572Y-8802770D01*
X18395572Y-8802770D02*
X18414619Y-8793246D01*
X18414619Y-8793246D02*
X18452714Y-8793246D01*
X18452714Y-8793246D02*
X18471762Y-8802770D01*
X18471762Y-8802770D02*
X18481286Y-8812294D01*
X18481286Y-8812294D02*
X18490810Y-8831342D01*
X18490810Y-8831342D02*
X18490810Y-8840865D01*
X18490810Y-8840865D02*
X18481286Y-8859913D01*
X18481286Y-8859913D02*
X18471762Y-8869437D01*
X18471762Y-8869437D02*
X18452714Y-8878961D01*
X18452714Y-8878961D02*
X18414619Y-8878961D01*
X18414619Y-8878961D02*
X18395572Y-8888484D01*
X18395572Y-8888484D02*
X18386048Y-8898008D01*
X18386048Y-8898008D02*
X18376524Y-8917056D01*
X18376524Y-8917056D02*
X18376524Y-8955151D01*
X18376524Y-8955151D02*
X18386048Y-8974199D01*
X18386048Y-8974199D02*
X18395572Y-8983723D01*
X18395572Y-8983723D02*
X18414619Y-8993246D01*
X18414619Y-8993246D02*
X18452714Y-8993246D01*
X18452714Y-8993246D02*
X18471762Y-8983723D01*
X18471762Y-8983723D02*
X18481286Y-8974199D01*
X18481286Y-8974199D02*
X18490810Y-8955151D01*
X18490810Y-8955151D02*
X18490810Y-8917056D01*
X18490810Y-8917056D02*
X18481286Y-8898008D01*
X18481286Y-8898008D02*
X18471762Y-8888484D01*
X18471762Y-8888484D02*
X18452714Y-8878961D01*
X18687000Y-8983723D02*
X18706048Y-8993246D01*
X18706048Y-8993246D02*
X18744143Y-8993246D01*
X18744143Y-8993246D02*
X18763191Y-8983723D01*
X18763191Y-8983723D02*
X18772714Y-8964675D01*
X18772714Y-8964675D02*
X18772714Y-8955151D01*
X18772714Y-8955151D02*
X18763191Y-8936104D01*
X18763191Y-8936104D02*
X18744143Y-8926580D01*
X18744143Y-8926580D02*
X18715572Y-8926580D01*
X18715572Y-8926580D02*
X18696524Y-8917056D01*
X18696524Y-8917056D02*
X18687000Y-8898008D01*
X18687000Y-8898008D02*
X18687000Y-8888484D01*
X18687000Y-8888484D02*
X18696524Y-8869437D01*
X18696524Y-8869437D02*
X18715572Y-8859913D01*
X18715572Y-8859913D02*
X18744143Y-8859913D01*
X18744143Y-8859913D02*
X18763191Y-8869437D01*
X18887000Y-8993246D02*
X18867953Y-8983723D01*
X18867953Y-8983723D02*
X18858429Y-8964675D01*
X18858429Y-8964675D02*
X18858429Y-8793246D01*
X18991762Y-8993246D02*
X18972714Y-8983723D01*
X18972714Y-8983723D02*
X18963191Y-8974199D01*
X18963191Y-8974199D02*
X18953667Y-8955151D01*
X18953667Y-8955151D02*
X18953667Y-8898008D01*
X18953667Y-8898008D02*
X18963191Y-8878961D01*
X18963191Y-8878961D02*
X18972714Y-8869437D01*
X18972714Y-8869437D02*
X18991762Y-8859913D01*
X18991762Y-8859913D02*
X19020334Y-8859913D01*
X19020334Y-8859913D02*
X19039381Y-8869437D01*
X19039381Y-8869437D02*
X19048905Y-8878961D01*
X19048905Y-8878961D02*
X19058429Y-8898008D01*
X19058429Y-8898008D02*
X19058429Y-8955151D01*
X19058429Y-8955151D02*
X19048905Y-8974199D01*
X19048905Y-8974199D02*
X19039381Y-8983723D01*
X19039381Y-8983723D02*
X19020334Y-8993246D01*
X19020334Y-8993246D02*
X18991762Y-8993246D01*
X19115572Y-8859913D02*
X19191762Y-8859913D01*
X19144143Y-8793246D02*
X19144143Y-8964675D01*
X19144143Y-8964675D02*
X19153667Y-8983723D01*
X19153667Y-8983723D02*
X19172714Y-8993246D01*
X19172714Y-8993246D02*
X19191762Y-8993246D01*
X19248905Y-8983723D02*
X19267953Y-8993246D01*
X19267953Y-8993246D02*
X19306048Y-8993246D01*
X19306048Y-8993246D02*
X19325095Y-8983723D01*
X19325095Y-8983723D02*
X19334619Y-8964675D01*
X19334619Y-8964675D02*
X19334619Y-8955151D01*
X19334619Y-8955151D02*
X19325095Y-8936104D01*
X19325095Y-8936104D02*
X19306048Y-8926580D01*
X19306048Y-8926580D02*
X19277476Y-8926580D01*
X19277476Y-8926580D02*
X19258429Y-8917056D01*
X19258429Y-8917056D02*
X19248905Y-8898008D01*
X19248905Y-8898008D02*
X19248905Y-8888484D01*
X19248905Y-8888484D02*
X19258429Y-8869437D01*
X19258429Y-8869437D02*
X19277476Y-8859913D01*
X19277476Y-8859913D02*
X19306048Y-8859913D01*
X19306048Y-8859913D02*
X19325095Y-8869437D01*
X19401286Y-9069437D02*
X19410810Y-9059913D01*
X19410810Y-9059913D02*
X19429857Y-9031342D01*
X19429857Y-9031342D02*
X19439381Y-9012294D01*
X19439381Y-9012294D02*
X19448905Y-8983723D01*
X19448905Y-8983723D02*
X19458429Y-8936104D01*
X19458429Y-8936104D02*
X19458429Y-8898008D01*
X19458429Y-8898008D02*
X19448905Y-8850389D01*
X19448905Y-8850389D02*
X19439381Y-8821818D01*
X19439381Y-8821818D02*
X19429857Y-8802770D01*
X19429857Y-8802770D02*
X19410810Y-8774199D01*
X19410810Y-8774199D02*
X19401286Y-8764675D01*
M02*
