G04 #@! TF.GenerationSoftware,KiCad,Pcbnew,(7.0.0-0)*
G04 #@! TF.CreationDate,2023-05-05T14:07:15+08:00*
G04 #@! TF.ProjectId,SWDProgrammer,53574450-726f-4677-9261-6d6d65722e6b,rev?*
G04 #@! TF.SameCoordinates,Original*
G04 #@! TF.FileFunction,Copper,L2,Inr*
G04 #@! TF.FilePolarity,Positive*
%FSLAX46Y46*%
G04 Gerber Fmt 4.6, Leading zero omitted, Abs format (unit mm)*
G04 Created by KiCad (PCBNEW (7.0.0-0)) date 2023-05-05 14:07:15*
%MOMM*%
%LPD*%
G01*
G04 APERTURE LIST*
G04 #@! TA.AperFunction,ComponentPad*
%ADD10C,1.300000*%
G04 #@! TD*
G04 #@! TA.AperFunction,ComponentPad*
%ADD11O,2.200000X1.000000*%
G04 #@! TD*
G04 #@! TA.AperFunction,ComponentPad*
%ADD12O,1.800000X1.000000*%
G04 #@! TD*
G04 #@! TA.AperFunction,ViaPad*
%ADD13C,0.500000*%
G04 #@! TD*
G04 #@! TA.AperFunction,Conductor*
%ADD14C,0.150000*%
G04 #@! TD*
G04 APERTURE END LIST*
D10*
X140000000Y-88150000D03*
X140000000Y-89850000D03*
D11*
X120699999Y-94580299D03*
X120699999Y-83429699D03*
D12*
X124499999Y-83429399D03*
X124499999Y-94580299D03*
D13*
X128439193Y-89694500D03*
X128490000Y-88430000D03*
X131300000Y-91990000D03*
X135170000Y-82660000D03*
X133510000Y-95200000D03*
X128240000Y-93380000D03*
X138260000Y-84540000D03*
X138260000Y-85370000D03*
X132870000Y-90770000D03*
X130100011Y-83199989D03*
X135410000Y-88320000D03*
X137360589Y-91739411D03*
X132620000Y-85500000D03*
X134200000Y-82660000D03*
X126239376Y-84060624D03*
X132810000Y-82780000D03*
X134610000Y-95200000D03*
X132280000Y-95190000D03*
X126470000Y-92810000D03*
X138170000Y-83590000D03*
X137460000Y-82850000D03*
X137990000Y-95010000D03*
X131830000Y-87850000D03*
X136260000Y-82760000D03*
X132800000Y-92350000D03*
X130640000Y-90710000D03*
X133010000Y-83840000D03*
X138000039Y-93060000D03*
X129220000Y-83560000D03*
X126560589Y-86739411D03*
X127525261Y-91711897D03*
X129960000Y-95380000D03*
X126460589Y-85339411D03*
X126199502Y-92160000D03*
X126376147Y-87643853D03*
X126680000Y-88580000D03*
X126130000Y-89270000D03*
X126083158Y-88236434D03*
X128669963Y-84430651D03*
X130470000Y-88350000D03*
X132970000Y-88550000D03*
X133560000Y-86630000D03*
X133520000Y-85960000D03*
D14*
X126199502Y-92160000D02*
X125400000Y-91360498D01*
X125400000Y-86400000D02*
X126460589Y-85339411D01*
X125400000Y-91360498D02*
X125400000Y-86400000D01*
X120700300Y-83429400D02*
X120700000Y-83429700D01*
X124500000Y-83429400D02*
X120700300Y-83429400D01*
X124500000Y-94580300D02*
X120700000Y-94580300D01*
G04 #@! TA.AperFunction,Conductor*
G36*
X137502897Y-82250728D02*
G01*
X137689665Y-82265426D01*
X137701127Y-82267242D01*
X137880455Y-82310295D01*
X137891491Y-82313881D01*
X138061880Y-82384458D01*
X138072220Y-82389726D01*
X138229481Y-82486095D01*
X138238864Y-82492913D01*
X138238916Y-82492958D01*
X138379101Y-82612687D01*
X138387311Y-82620897D01*
X138447198Y-82691015D01*
X138507085Y-82761134D01*
X138513905Y-82770520D01*
X138592792Y-82899252D01*
X138610270Y-82927773D01*
X138615541Y-82938119D01*
X138686116Y-83108502D01*
X138689704Y-83119546D01*
X138732756Y-83298868D01*
X138734573Y-83310337D01*
X138749269Y-83497064D01*
X138749497Y-83502870D01*
X138749499Y-86755824D01*
X138749501Y-86755833D01*
X138749501Y-86799999D01*
X138749501Y-86883157D01*
X138750061Y-86886335D01*
X138750062Y-86886342D01*
X138776361Y-87035492D01*
X138778381Y-87046946D01*
X138779487Y-87049986D01*
X138779488Y-87049988D01*
X138805847Y-87122410D01*
X138835264Y-87203232D01*
X138918422Y-87347266D01*
X139025328Y-87474672D01*
X139152734Y-87581578D01*
X139270560Y-87649605D01*
X139276273Y-87652903D01*
X139303815Y-87680790D01*
X139313250Y-87718832D01*
X139301932Y-87756358D01*
X139293870Y-87769190D01*
X139274211Y-87800478D01*
X139272840Y-87804395D01*
X139272839Y-87804398D01*
X139216004Y-87966821D01*
X139216001Y-87966829D01*
X139214632Y-87970745D01*
X139214167Y-87974863D01*
X139214166Y-87974872D01*
X139198755Y-88111658D01*
X139194435Y-88150000D01*
X139194900Y-88154127D01*
X139214166Y-88325127D01*
X139214167Y-88325134D01*
X139214632Y-88329255D01*
X139216002Y-88333172D01*
X139216004Y-88333178D01*
X139248028Y-88424696D01*
X139274211Y-88499522D01*
X139276416Y-88503032D01*
X139276419Y-88503037D01*
X139363117Y-88641015D01*
X139370184Y-88652262D01*
X139497738Y-88779816D01*
X139550787Y-88813149D01*
X139650478Y-88875789D01*
X139649650Y-88877105D01*
X139674742Y-88899501D01*
X139686126Y-88938797D01*
X139686357Y-89060811D01*
X139675058Y-89100252D01*
X139649689Y-89122955D01*
X139650478Y-89124211D01*
X139501257Y-89217972D01*
X139501251Y-89217976D01*
X139497738Y-89220184D01*
X139494802Y-89223119D01*
X139494798Y-89223123D01*
X139373123Y-89344798D01*
X139373119Y-89344802D01*
X139370184Y-89347738D01*
X139367976Y-89351251D01*
X139367972Y-89351257D01*
X139276419Y-89496962D01*
X139276414Y-89496970D01*
X139274211Y-89500478D01*
X139272840Y-89504395D01*
X139272839Y-89504398D01*
X139216004Y-89666821D01*
X139216001Y-89666829D01*
X139214632Y-89670745D01*
X139214167Y-89674863D01*
X139214166Y-89674872D01*
X139211955Y-89694500D01*
X139194435Y-89850000D01*
X139194900Y-89854127D01*
X139214166Y-90025127D01*
X139214167Y-90025134D01*
X139214632Y-90029255D01*
X139216002Y-90033172D01*
X139216004Y-90033178D01*
X139239714Y-90100936D01*
X139274211Y-90199522D01*
X139276423Y-90203043D01*
X139276424Y-90203044D01*
X139301932Y-90243639D01*
X139313251Y-90281164D01*
X139303816Y-90319207D01*
X139276274Y-90347095D01*
X139155526Y-90416809D01*
X139155522Y-90416811D01*
X139152733Y-90418422D01*
X139150274Y-90420485D01*
X139150263Y-90420493D01*
X139027800Y-90523251D01*
X139027794Y-90523256D01*
X139025327Y-90525327D01*
X139023256Y-90527794D01*
X139023251Y-90527800D01*
X138920493Y-90650263D01*
X138920485Y-90650274D01*
X138918422Y-90652733D01*
X138916814Y-90655516D01*
X138916809Y-90655525D01*
X138836878Y-90793970D01*
X138836874Y-90793977D01*
X138835264Y-90796767D01*
X138834162Y-90799794D01*
X138834159Y-90799801D01*
X138779484Y-90950018D01*
X138779482Y-90950024D01*
X138778380Y-90953053D01*
X138777820Y-90956224D01*
X138777819Y-90956231D01*
X138750061Y-91113656D01*
X138750060Y-91113664D01*
X138749500Y-91116842D01*
X138749500Y-91120078D01*
X138749500Y-91175326D01*
X138749497Y-94455832D01*
X138749497Y-94497093D01*
X138749269Y-94502900D01*
X138734569Y-94689664D01*
X138732752Y-94701132D01*
X138689700Y-94880454D01*
X138686112Y-94891498D01*
X138615537Y-95061881D01*
X138610265Y-95072227D01*
X138513906Y-95229471D01*
X138507081Y-95238865D01*
X138387308Y-95379101D01*
X138379097Y-95387312D01*
X138238861Y-95507084D01*
X138229467Y-95513910D01*
X138072223Y-95610268D01*
X138061876Y-95615539D01*
X137891492Y-95686114D01*
X137880449Y-95689702D01*
X137701128Y-95732753D01*
X137689659Y-95734570D01*
X137502857Y-95749272D01*
X137497051Y-95749500D01*
X130335544Y-95749500D01*
X130294432Y-95737029D01*
X130267177Y-95703819D01*
X130262966Y-95661063D01*
X130280919Y-95627473D01*
X130280507Y-95627174D01*
X130282675Y-95624189D01*
X130283218Y-95623174D01*
X130283217Y-95623174D01*
X130288050Y-95618342D01*
X130345646Y-95505304D01*
X130365492Y-95380000D01*
X130345646Y-95254696D01*
X130288050Y-95141658D01*
X130198342Y-95051950D01*
X130085304Y-94994354D01*
X130079550Y-94993442D01*
X130079548Y-94993442D01*
X129965752Y-94975419D01*
X129960000Y-94974508D01*
X129954248Y-94975419D01*
X129840451Y-94993442D01*
X129840447Y-94993442D01*
X129834696Y-94994354D01*
X129829504Y-94996999D01*
X129829502Y-94997000D01*
X129726850Y-95049304D01*
X129726847Y-95049305D01*
X129721658Y-95051950D01*
X129717541Y-95056066D01*
X129717538Y-95056069D01*
X129636069Y-95137538D01*
X129636066Y-95137541D01*
X129631950Y-95141658D01*
X129629305Y-95146847D01*
X129629304Y-95146850D01*
X129584676Y-95234438D01*
X129574354Y-95254696D01*
X129573442Y-95260447D01*
X129573442Y-95260451D01*
X129564812Y-95314941D01*
X129554508Y-95380000D01*
X129574354Y-95505304D01*
X129631950Y-95618342D01*
X129636069Y-95622461D01*
X129636782Y-95623174D01*
X129637324Y-95624189D01*
X129639493Y-95627174D01*
X129639080Y-95627473D01*
X129657034Y-95661063D01*
X129652823Y-95703819D01*
X129625568Y-95737029D01*
X129584456Y-95749500D01*
X121005688Y-95749500D01*
X120999881Y-95749272D01*
X120813109Y-95734569D01*
X120801641Y-95732752D01*
X120622313Y-95689699D01*
X120611270Y-95686111D01*
X120440883Y-95615535D01*
X120430537Y-95610264D01*
X120273284Y-95513901D01*
X120263890Y-95507076D01*
X120123651Y-95387305D01*
X120115441Y-95379096D01*
X120093033Y-95352862D01*
X120075999Y-95314941D01*
X120082098Y-95273821D01*
X120109404Y-95242476D01*
X120149301Y-95230800D01*
X121338594Y-95230800D01*
X121340925Y-95230800D01*
X121463058Y-95215371D01*
X121615871Y-95154868D01*
X121748837Y-95058263D01*
X121853600Y-94931626D01*
X121885705Y-94863399D01*
X121892814Y-94848292D01*
X121920120Y-94817320D01*
X121959771Y-94805800D01*
X123435529Y-94805800D01*
X123479025Y-94819933D01*
X123501941Y-94851474D01*
X123503310Y-94850830D01*
X123505294Y-94855047D01*
X123506732Y-94859471D01*
X123594798Y-94998240D01*
X123714607Y-95110748D01*
X123858632Y-95189927D01*
X124017823Y-95230800D01*
X124938594Y-95230800D01*
X124940925Y-95230800D01*
X125063058Y-95215371D01*
X125215871Y-95154868D01*
X125348837Y-95058263D01*
X125453600Y-94931626D01*
X125523579Y-94782913D01*
X125554376Y-94621470D01*
X125544056Y-94457440D01*
X125493268Y-94301129D01*
X125405202Y-94162360D01*
X125285393Y-94049852D01*
X125141368Y-93970673D01*
X125136863Y-93969516D01*
X125136860Y-93969515D01*
X125080092Y-93954940D01*
X125039405Y-93927812D01*
X125024523Y-93881230D01*
X125041944Y-93835537D01*
X125084058Y-93810687D01*
X125097740Y-93807966D01*
X125180601Y-93752601D01*
X125235966Y-93669740D01*
X125250500Y-93596674D01*
X125255408Y-93572000D01*
X125251921Y-93554474D01*
X125250500Y-93540038D01*
X125250500Y-93060000D01*
X137594547Y-93060000D01*
X137614393Y-93185304D01*
X137671989Y-93298342D01*
X137761697Y-93388050D01*
X137874735Y-93445646D01*
X138000039Y-93465492D01*
X138125343Y-93445646D01*
X138238381Y-93388050D01*
X138328089Y-93298342D01*
X138385685Y-93185304D01*
X138405531Y-93060000D01*
X138385685Y-92934696D01*
X138328089Y-92821658D01*
X138238381Y-92731950D01*
X138125343Y-92674354D01*
X138119589Y-92673442D01*
X138119587Y-92673442D01*
X138005791Y-92655419D01*
X138000039Y-92654508D01*
X137994287Y-92655419D01*
X137880490Y-92673442D01*
X137880486Y-92673442D01*
X137874735Y-92674354D01*
X137869543Y-92676999D01*
X137869541Y-92677000D01*
X137766889Y-92729304D01*
X137766886Y-92729305D01*
X137761697Y-92731950D01*
X137757580Y-92736066D01*
X137757577Y-92736069D01*
X137676108Y-92817538D01*
X137676105Y-92817541D01*
X137671989Y-92821658D01*
X137669344Y-92826847D01*
X137669343Y-92826850D01*
X137617039Y-92929502D01*
X137614393Y-92934696D01*
X137613481Y-92940447D01*
X137613481Y-92940451D01*
X137595458Y-93054248D01*
X137594547Y-93060000D01*
X125250500Y-93060000D01*
X125250500Y-91708556D01*
X125262971Y-91667444D01*
X125296181Y-91640189D01*
X125338937Y-91635978D01*
X125376826Y-91656230D01*
X125779187Y-92058591D01*
X125797239Y-92088049D01*
X125799950Y-92122492D01*
X125794010Y-92160000D01*
X125813856Y-92285304D01*
X125871452Y-92398342D01*
X125961160Y-92488050D01*
X126074198Y-92545646D01*
X126199502Y-92565492D01*
X126324806Y-92545646D01*
X126437844Y-92488050D01*
X126527552Y-92398342D01*
X126552184Y-92350000D01*
X132394508Y-92350000D01*
X132395419Y-92355752D01*
X132402164Y-92398342D01*
X132414354Y-92475304D01*
X132471950Y-92588342D01*
X132561658Y-92678050D01*
X132674696Y-92735646D01*
X132800000Y-92755492D01*
X132925304Y-92735646D01*
X133038342Y-92678050D01*
X133128050Y-92588342D01*
X133185646Y-92475304D01*
X133205492Y-92350000D01*
X133185646Y-92224696D01*
X133128050Y-92111658D01*
X133038342Y-92021950D01*
X132925304Y-91964354D01*
X132919550Y-91963442D01*
X132919548Y-91963442D01*
X132805752Y-91945419D01*
X132800000Y-91944508D01*
X132794248Y-91945419D01*
X132680451Y-91963442D01*
X132680447Y-91963442D01*
X132674696Y-91964354D01*
X132669504Y-91966999D01*
X132669502Y-91967000D01*
X132566850Y-92019304D01*
X132566847Y-92019305D01*
X132561658Y-92021950D01*
X132557541Y-92026066D01*
X132557538Y-92026069D01*
X132476069Y-92107538D01*
X132476066Y-92107541D01*
X132471950Y-92111658D01*
X132469305Y-92116847D01*
X132469304Y-92116850D01*
X132417000Y-92219502D01*
X132414354Y-92224696D01*
X132413442Y-92230447D01*
X132413442Y-92230451D01*
X132403932Y-92290497D01*
X132394508Y-92350000D01*
X126552184Y-92350000D01*
X126585148Y-92285304D01*
X126604994Y-92160000D01*
X126585148Y-92034696D01*
X126527552Y-91921658D01*
X126437844Y-91831950D01*
X126324806Y-91774354D01*
X126319052Y-91773442D01*
X126319050Y-91773442D01*
X126205254Y-91755419D01*
X126199502Y-91754508D01*
X126193750Y-91755419D01*
X126193749Y-91755419D01*
X126161993Y-91760448D01*
X126127550Y-91757737D01*
X126098092Y-91739685D01*
X126070304Y-91711897D01*
X127119769Y-91711897D01*
X127120680Y-91717649D01*
X127129516Y-91773442D01*
X127139615Y-91837201D01*
X127197211Y-91950239D01*
X127286919Y-92039947D01*
X127399957Y-92097543D01*
X127525261Y-92117389D01*
X127650565Y-92097543D01*
X127763603Y-92039947D01*
X127853311Y-91950239D01*
X127910907Y-91837201D01*
X127930753Y-91711897D01*
X127910907Y-91586593D01*
X127853311Y-91473555D01*
X127763603Y-91383847D01*
X127650565Y-91326251D01*
X127644811Y-91325339D01*
X127644809Y-91325339D01*
X127531013Y-91307316D01*
X127525261Y-91306405D01*
X127519509Y-91307316D01*
X127405712Y-91325339D01*
X127405708Y-91325339D01*
X127399957Y-91326251D01*
X127394765Y-91328896D01*
X127394763Y-91328897D01*
X127292111Y-91381201D01*
X127292108Y-91381202D01*
X127286919Y-91383847D01*
X127282802Y-91387963D01*
X127282799Y-91387966D01*
X127201330Y-91469435D01*
X127201327Y-91469438D01*
X127197211Y-91473555D01*
X127194566Y-91478744D01*
X127194565Y-91478747D01*
X127162875Y-91540942D01*
X127139615Y-91586593D01*
X127138703Y-91592344D01*
X127138703Y-91592348D01*
X127120680Y-91706145D01*
X127119769Y-91711897D01*
X126070304Y-91711897D01*
X125647174Y-91288767D01*
X125631133Y-91264760D01*
X125625500Y-91236441D01*
X125625500Y-90710000D01*
X130234508Y-90710000D01*
X130235419Y-90715752D01*
X130250460Y-90810722D01*
X130254354Y-90835304D01*
X130311950Y-90948342D01*
X130401658Y-91038050D01*
X130514696Y-91095646D01*
X130640000Y-91115492D01*
X130765304Y-91095646D01*
X130878342Y-91038050D01*
X130968050Y-90948342D01*
X131025646Y-90835304D01*
X131045492Y-90710000D01*
X131025646Y-90584696D01*
X130968050Y-90471658D01*
X130878342Y-90381950D01*
X130765304Y-90324354D01*
X130759550Y-90323442D01*
X130759548Y-90323442D01*
X130645752Y-90305419D01*
X130640000Y-90304508D01*
X130634248Y-90305419D01*
X130520451Y-90323442D01*
X130520447Y-90323442D01*
X130514696Y-90324354D01*
X130509504Y-90326999D01*
X130509502Y-90327000D01*
X130406850Y-90379304D01*
X130406847Y-90379305D01*
X130401658Y-90381950D01*
X130397541Y-90386066D01*
X130397538Y-90386069D01*
X130316069Y-90467538D01*
X130316066Y-90467541D01*
X130311950Y-90471658D01*
X130309305Y-90476847D01*
X130309304Y-90476850D01*
X130284604Y-90525327D01*
X130254354Y-90584696D01*
X130253442Y-90590447D01*
X130253442Y-90590451D01*
X130243969Y-90650263D01*
X130234508Y-90710000D01*
X125625500Y-90710000D01*
X125625500Y-89694500D01*
X128033701Y-89694500D01*
X128053547Y-89819804D01*
X128111143Y-89932842D01*
X128200851Y-90022550D01*
X128313889Y-90080146D01*
X128439193Y-90099992D01*
X128564497Y-90080146D01*
X128677535Y-90022550D01*
X128767243Y-89932842D01*
X128824839Y-89819804D01*
X128844685Y-89694500D01*
X128824839Y-89569196D01*
X128767243Y-89456158D01*
X128677535Y-89366450D01*
X128564497Y-89308854D01*
X128558743Y-89307942D01*
X128558741Y-89307942D01*
X128444945Y-89289919D01*
X128439193Y-89289008D01*
X128433441Y-89289919D01*
X128319644Y-89307942D01*
X128319640Y-89307942D01*
X128313889Y-89308854D01*
X128308697Y-89311499D01*
X128308695Y-89311500D01*
X128206043Y-89363804D01*
X128206040Y-89363805D01*
X128200851Y-89366450D01*
X128196734Y-89370566D01*
X128196731Y-89370569D01*
X128115262Y-89452038D01*
X128115259Y-89452041D01*
X128111143Y-89456158D01*
X128108498Y-89461347D01*
X128108497Y-89461350D01*
X128082455Y-89512461D01*
X128053547Y-89569196D01*
X128052635Y-89574947D01*
X128052635Y-89574951D01*
X128034612Y-89688748D01*
X128033701Y-89694500D01*
X125625500Y-89694500D01*
X125625500Y-89470271D01*
X125641387Y-89424458D01*
X125682225Y-89398316D01*
X125730481Y-89403068D01*
X125765433Y-89436674D01*
X125801950Y-89508342D01*
X125891658Y-89598050D01*
X126004696Y-89655646D01*
X126130000Y-89675492D01*
X126255304Y-89655646D01*
X126368342Y-89598050D01*
X126458050Y-89508342D01*
X126515646Y-89395304D01*
X126535492Y-89270000D01*
X126515646Y-89144696D01*
X126478911Y-89072600D01*
X126471074Y-89033202D01*
X126484979Y-88995512D01*
X126516527Y-88970641D01*
X126556420Y-88965919D01*
X126680000Y-88985492D01*
X126805304Y-88965646D01*
X126918342Y-88908050D01*
X127008050Y-88818342D01*
X127065646Y-88705304D01*
X127085492Y-88580000D01*
X127065646Y-88454696D01*
X127012300Y-88350000D01*
X130064508Y-88350000D01*
X130065419Y-88355752D01*
X130082001Y-88460451D01*
X130084354Y-88475304D01*
X130087000Y-88480497D01*
X130137699Y-88580000D01*
X130141950Y-88588342D01*
X130231658Y-88678050D01*
X130344696Y-88735646D01*
X130470000Y-88755492D01*
X130595304Y-88735646D01*
X130708342Y-88678050D01*
X130798050Y-88588342D01*
X130817586Y-88550000D01*
X132564508Y-88550000D01*
X132565419Y-88555752D01*
X132580704Y-88652262D01*
X132584354Y-88675304D01*
X132641950Y-88788342D01*
X132731658Y-88878050D01*
X132844696Y-88935646D01*
X132970000Y-88955492D01*
X133095304Y-88935646D01*
X133208342Y-88878050D01*
X133298050Y-88788342D01*
X133355646Y-88675304D01*
X133375492Y-88550000D01*
X133355646Y-88424696D01*
X133298050Y-88311658D01*
X133208342Y-88221950D01*
X133095304Y-88164354D01*
X133089550Y-88163442D01*
X133089548Y-88163442D01*
X132975752Y-88145419D01*
X132970000Y-88144508D01*
X132964248Y-88145419D01*
X132850451Y-88163442D01*
X132850447Y-88163442D01*
X132844696Y-88164354D01*
X132839504Y-88166999D01*
X132839502Y-88167000D01*
X132736850Y-88219304D01*
X132736847Y-88219305D01*
X132731658Y-88221950D01*
X132727541Y-88226066D01*
X132727538Y-88226069D01*
X132646069Y-88307538D01*
X132646066Y-88307541D01*
X132641950Y-88311658D01*
X132639305Y-88316847D01*
X132639304Y-88316850D01*
X132587000Y-88419502D01*
X132584354Y-88424696D01*
X132583442Y-88430447D01*
X132583442Y-88430451D01*
X132575739Y-88479087D01*
X132564508Y-88550000D01*
X130817586Y-88550000D01*
X130855646Y-88475304D01*
X130875492Y-88350000D01*
X130855646Y-88224696D01*
X130798050Y-88111658D01*
X130708342Y-88021950D01*
X130595304Y-87964354D01*
X130589550Y-87963442D01*
X130589548Y-87963442D01*
X130475752Y-87945419D01*
X130470000Y-87944508D01*
X130464248Y-87945419D01*
X130350451Y-87963442D01*
X130350447Y-87963442D01*
X130344696Y-87964354D01*
X130339504Y-87966999D01*
X130339502Y-87967000D01*
X130236850Y-88019304D01*
X130236847Y-88019305D01*
X130231658Y-88021950D01*
X130227541Y-88026066D01*
X130227538Y-88026069D01*
X130146069Y-88107538D01*
X130146066Y-88107541D01*
X130141950Y-88111658D01*
X130139305Y-88116847D01*
X130139304Y-88116850D01*
X130087101Y-88219304D01*
X130084354Y-88224696D01*
X130083442Y-88230447D01*
X130083442Y-88230451D01*
X130079385Y-88256069D01*
X130064508Y-88350000D01*
X127012300Y-88350000D01*
X127008050Y-88341658D01*
X126918342Y-88251950D01*
X126805304Y-88194354D01*
X126799550Y-88193442D01*
X126799548Y-88193442D01*
X126685752Y-88175419D01*
X126680000Y-88174508D01*
X126674248Y-88175419D01*
X126556853Y-88194012D01*
X126518757Y-88190008D01*
X126487767Y-88167492D01*
X126472188Y-88132497D01*
X126469715Y-88116884D01*
X126468804Y-88111130D01*
X126468804Y-88111128D01*
X126469016Y-88111094D01*
X126466681Y-88081453D01*
X126479903Y-88049530D01*
X126506171Y-88027093D01*
X126614489Y-87971903D01*
X126704197Y-87882195D01*
X126761793Y-87769157D01*
X126781639Y-87643853D01*
X126761793Y-87518549D01*
X126704197Y-87405511D01*
X126614489Y-87315803D01*
X126548756Y-87282310D01*
X126516420Y-87249973D01*
X126509265Y-87204802D01*
X126530028Y-87164052D01*
X126570777Y-87143289D01*
X126685893Y-87125057D01*
X126798931Y-87067461D01*
X126888639Y-86977753D01*
X126946235Y-86864715D01*
X126966081Y-86739411D01*
X126946235Y-86614107D01*
X126888639Y-86501069D01*
X126798931Y-86411361D01*
X126685893Y-86353765D01*
X126680139Y-86352853D01*
X126680137Y-86352853D01*
X126566341Y-86334830D01*
X126560589Y-86333919D01*
X126554837Y-86334830D01*
X126441040Y-86352853D01*
X126441036Y-86352853D01*
X126435285Y-86353765D01*
X126430093Y-86356410D01*
X126430091Y-86356411D01*
X126327439Y-86408715D01*
X126327436Y-86408716D01*
X126322247Y-86411361D01*
X126318130Y-86415477D01*
X126318127Y-86415480D01*
X126236658Y-86496949D01*
X126236655Y-86496952D01*
X126232539Y-86501069D01*
X126229894Y-86506258D01*
X126229893Y-86506261D01*
X126220825Y-86524058D01*
X126174943Y-86614107D01*
X126174031Y-86619858D01*
X126174031Y-86619862D01*
X126156008Y-86733659D01*
X126155097Y-86739411D01*
X126156008Y-86745163D01*
X126157696Y-86755824D01*
X126174943Y-86864715D01*
X126232539Y-86977753D01*
X126322247Y-87067461D01*
X126387979Y-87100953D01*
X126420315Y-87133289D01*
X126427470Y-87178461D01*
X126406707Y-87219211D01*
X126365958Y-87239974D01*
X126256597Y-87257295D01*
X126256593Y-87257296D01*
X126250843Y-87258207D01*
X126245651Y-87260852D01*
X126245649Y-87260853D01*
X126142997Y-87313157D01*
X126142994Y-87313158D01*
X126137805Y-87315803D01*
X126133688Y-87319919D01*
X126133685Y-87319922D01*
X126052216Y-87401391D01*
X126052213Y-87401394D01*
X126048097Y-87405511D01*
X126045452Y-87410700D01*
X126045451Y-87410703D01*
X125993147Y-87513355D01*
X125990501Y-87518549D01*
X125989589Y-87524300D01*
X125989589Y-87524304D01*
X125980262Y-87583195D01*
X125970655Y-87643853D01*
X125971566Y-87649605D01*
X125984712Y-87732610D01*
X125990072Y-87766452D01*
X125990073Y-87766457D01*
X125990501Y-87769157D01*
X125990288Y-87769190D01*
X125992622Y-87798837D01*
X125979400Y-87830757D01*
X125953129Y-87853195D01*
X125850006Y-87905739D01*
X125850003Y-87905740D01*
X125844816Y-87908384D01*
X125840699Y-87912500D01*
X125840696Y-87912503D01*
X125755108Y-87998092D01*
X125754402Y-87997386D01*
X125722371Y-88020661D01*
X125676635Y-88020663D01*
X125639634Y-87993781D01*
X125625500Y-87950284D01*
X125625500Y-86524058D01*
X125631133Y-86495739D01*
X125647174Y-86471732D01*
X125824755Y-86294151D01*
X126158905Y-85960000D01*
X133114508Y-85960000D01*
X133134354Y-86085304D01*
X133191950Y-86198342D01*
X133196068Y-86202460D01*
X133196069Y-86202461D01*
X133256281Y-86262673D01*
X133275433Y-86295845D01*
X133275434Y-86334150D01*
X133256283Y-86367323D01*
X133236069Y-86387537D01*
X133236063Y-86387544D01*
X133231950Y-86391658D01*
X133229305Y-86396847D01*
X133229304Y-86396850D01*
X133178301Y-86496949D01*
X133174354Y-86504696D01*
X133173442Y-86510447D01*
X133173442Y-86510451D01*
X133171287Y-86524058D01*
X133154508Y-86630000D01*
X133174354Y-86755304D01*
X133231950Y-86868342D01*
X133321658Y-86958050D01*
X133434696Y-87015646D01*
X133560000Y-87035492D01*
X133685304Y-87015646D01*
X133798342Y-86958050D01*
X133888050Y-86868342D01*
X133945646Y-86755304D01*
X133965492Y-86630000D01*
X133945646Y-86504696D01*
X133888050Y-86391658D01*
X133823716Y-86327324D01*
X133804564Y-86294151D01*
X133804565Y-86255844D01*
X133823716Y-86222675D01*
X133848050Y-86198342D01*
X133905646Y-86085304D01*
X133925492Y-85960000D01*
X133905646Y-85834696D01*
X133848050Y-85721658D01*
X133758342Y-85631950D01*
X133645304Y-85574354D01*
X133639550Y-85573442D01*
X133639548Y-85573442D01*
X133525752Y-85555419D01*
X133520000Y-85554508D01*
X133514248Y-85555419D01*
X133400451Y-85573442D01*
X133400447Y-85573442D01*
X133394696Y-85574354D01*
X133389504Y-85576999D01*
X133389502Y-85577000D01*
X133286850Y-85629304D01*
X133286847Y-85629305D01*
X133281658Y-85631950D01*
X133277541Y-85636066D01*
X133277538Y-85636069D01*
X133196069Y-85717538D01*
X133196066Y-85717541D01*
X133191950Y-85721658D01*
X133189305Y-85726847D01*
X133189304Y-85726850D01*
X133137000Y-85829502D01*
X133134354Y-85834696D01*
X133133442Y-85840447D01*
X133133442Y-85840451D01*
X133115419Y-85954248D01*
X133114508Y-85960000D01*
X126158905Y-85960000D01*
X126359181Y-85759723D01*
X126388638Y-85741673D01*
X126423080Y-85738962D01*
X126460589Y-85744903D01*
X126585893Y-85725057D01*
X126698931Y-85667461D01*
X126788639Y-85577753D01*
X126846235Y-85464715D01*
X126866081Y-85339411D01*
X126846235Y-85214107D01*
X126788639Y-85101069D01*
X126698931Y-85011361D01*
X126585893Y-84953765D01*
X126580139Y-84952853D01*
X126580137Y-84952853D01*
X126466341Y-84934830D01*
X126460589Y-84933919D01*
X126454837Y-84934830D01*
X126341040Y-84952853D01*
X126341036Y-84952853D01*
X126335285Y-84953765D01*
X126330093Y-84956410D01*
X126330091Y-84956411D01*
X126227439Y-85008715D01*
X126227436Y-85008716D01*
X126222247Y-85011361D01*
X126218130Y-85015477D01*
X126218127Y-85015480D01*
X126136658Y-85096949D01*
X126136655Y-85096952D01*
X126132539Y-85101069D01*
X126129894Y-85106258D01*
X126129893Y-85106261D01*
X126077589Y-85208913D01*
X126074943Y-85214107D01*
X126074031Y-85219858D01*
X126074031Y-85219862D01*
X126056008Y-85333659D01*
X126055097Y-85339411D01*
X126056008Y-85345163D01*
X126061037Y-85376918D01*
X126058326Y-85411361D01*
X126040274Y-85440819D01*
X125376826Y-86104269D01*
X125338937Y-86124521D01*
X125296181Y-86120310D01*
X125262971Y-86093055D01*
X125250500Y-86051943D01*
X125250500Y-84459962D01*
X125251922Y-84445525D01*
X125253986Y-84435149D01*
X125254881Y-84430651D01*
X128264471Y-84430651D01*
X128284317Y-84555955D01*
X128341913Y-84668993D01*
X128431621Y-84758701D01*
X128544659Y-84816297D01*
X128669963Y-84836143D01*
X128795267Y-84816297D01*
X128908305Y-84758701D01*
X128998013Y-84668993D01*
X129055609Y-84555955D01*
X129075455Y-84430651D01*
X129055609Y-84305347D01*
X128998013Y-84192309D01*
X128908305Y-84102601D01*
X128795267Y-84045005D01*
X128789513Y-84044093D01*
X128789511Y-84044093D01*
X128675715Y-84026070D01*
X128669963Y-84025159D01*
X128664211Y-84026070D01*
X128550414Y-84044093D01*
X128550410Y-84044093D01*
X128544659Y-84045005D01*
X128539467Y-84047650D01*
X128539465Y-84047651D01*
X128436813Y-84099955D01*
X128436810Y-84099956D01*
X128431621Y-84102601D01*
X128427504Y-84106717D01*
X128427501Y-84106720D01*
X128346032Y-84188189D01*
X128346029Y-84188192D01*
X128341913Y-84192309D01*
X128339268Y-84197498D01*
X128339267Y-84197501D01*
X128313843Y-84247399D01*
X128284317Y-84305347D01*
X128283405Y-84311098D01*
X128283405Y-84311102D01*
X128280371Y-84330260D01*
X128264471Y-84430651D01*
X125254881Y-84430651D01*
X125255408Y-84428000D01*
X125235966Y-84330260D01*
X125180601Y-84247399D01*
X125097740Y-84192034D01*
X125090593Y-84190612D01*
X125090223Y-84190459D01*
X125056851Y-84162962D01*
X125044543Y-84121511D01*
X125057501Y-84080258D01*
X125091300Y-84053289D01*
X125112223Y-84045005D01*
X125215871Y-84003968D01*
X125348837Y-83907363D01*
X125453600Y-83780726D01*
X125523579Y-83632013D01*
X125537316Y-83560000D01*
X128814508Y-83560000D01*
X128815419Y-83565752D01*
X128829538Y-83654900D01*
X128834354Y-83685304D01*
X128891950Y-83798342D01*
X128981658Y-83888050D01*
X129094696Y-83945646D01*
X129220000Y-83965492D01*
X129345304Y-83945646D01*
X129458342Y-83888050D01*
X129506392Y-83840000D01*
X132604508Y-83840000D01*
X132605419Y-83845752D01*
X132622985Y-83956664D01*
X132624354Y-83965304D01*
X132681950Y-84078342D01*
X132771658Y-84168050D01*
X132884696Y-84225646D01*
X133010000Y-84245492D01*
X133135304Y-84225646D01*
X133248342Y-84168050D01*
X133338050Y-84078342D01*
X133395646Y-83965304D01*
X133415492Y-83840000D01*
X133395646Y-83714696D01*
X133338050Y-83601658D01*
X133248342Y-83511950D01*
X133135304Y-83454354D01*
X133129550Y-83453442D01*
X133129548Y-83453442D01*
X133015752Y-83435419D01*
X133010000Y-83434508D01*
X133004248Y-83435419D01*
X132890451Y-83453442D01*
X132890447Y-83453442D01*
X132884696Y-83454354D01*
X132879504Y-83456999D01*
X132879502Y-83457000D01*
X132776850Y-83509304D01*
X132776847Y-83509305D01*
X132771658Y-83511950D01*
X132767541Y-83516066D01*
X132767538Y-83516069D01*
X132686069Y-83597538D01*
X132686066Y-83597541D01*
X132681950Y-83601658D01*
X132679305Y-83606847D01*
X132679304Y-83606850D01*
X132627000Y-83709502D01*
X132624354Y-83714696D01*
X132623442Y-83720447D01*
X132623442Y-83720451D01*
X132605419Y-83834248D01*
X132604508Y-83840000D01*
X129506392Y-83840000D01*
X129548050Y-83798342D01*
X129605646Y-83685304D01*
X129625492Y-83560000D01*
X129605646Y-83434696D01*
X129548050Y-83321658D01*
X129458342Y-83231950D01*
X129345304Y-83174354D01*
X129339550Y-83173442D01*
X129339548Y-83173442D01*
X129225752Y-83155419D01*
X129220000Y-83154508D01*
X129214248Y-83155419D01*
X129100451Y-83173442D01*
X129100447Y-83173442D01*
X129094696Y-83174354D01*
X129089504Y-83176999D01*
X129089502Y-83177000D01*
X128986850Y-83229304D01*
X128986847Y-83229305D01*
X128981658Y-83231950D01*
X128977541Y-83236066D01*
X128977538Y-83236069D01*
X128896069Y-83317538D01*
X128896066Y-83317541D01*
X128891950Y-83321658D01*
X128889305Y-83326847D01*
X128889304Y-83326850D01*
X128864871Y-83374803D01*
X128834354Y-83434696D01*
X128833442Y-83440447D01*
X128833442Y-83440451D01*
X128827919Y-83475325D01*
X128814508Y-83560000D01*
X125537316Y-83560000D01*
X125554376Y-83470570D01*
X125544056Y-83306540D01*
X125493268Y-83150229D01*
X125405202Y-83011460D01*
X125321373Y-82932739D01*
X125288783Y-82902135D01*
X125288781Y-82902133D01*
X125285393Y-82898952D01*
X125202020Y-82853117D01*
X125145443Y-82822013D01*
X125145441Y-82822012D01*
X125141368Y-82819773D01*
X125136863Y-82818616D01*
X125136860Y-82818615D01*
X125002397Y-82784091D01*
X124982177Y-82778900D01*
X124059075Y-82778900D01*
X124056769Y-82779191D01*
X124056758Y-82779192D01*
X123941562Y-82793745D01*
X123941559Y-82793745D01*
X123936942Y-82794329D01*
X123932618Y-82796040D01*
X123932610Y-82796043D01*
X123788460Y-82853117D01*
X123788458Y-82853117D01*
X123784129Y-82854832D01*
X123780367Y-82857564D01*
X123780360Y-82857569D01*
X123654930Y-82948699D01*
X123654924Y-82948703D01*
X123651163Y-82951437D01*
X123648197Y-82955021D01*
X123648194Y-82955025D01*
X123549369Y-83074484D01*
X123549366Y-83074488D01*
X123546400Y-83078074D01*
X123544420Y-83082281D01*
X123544416Y-83082288D01*
X123507186Y-83161408D01*
X123479880Y-83192380D01*
X123440229Y-83203900D01*
X121964373Y-83203900D01*
X121920875Y-83189766D01*
X121898149Y-83158482D01*
X121896689Y-83159170D01*
X121894707Y-83154958D01*
X121893268Y-83150529D01*
X121805202Y-83011760D01*
X121744785Y-82955025D01*
X121688783Y-82902435D01*
X121688781Y-82902433D01*
X121685393Y-82899252D01*
X121541368Y-82820073D01*
X121536863Y-82818916D01*
X121536860Y-82818915D01*
X121386683Y-82780357D01*
X121382177Y-82779200D01*
X120140804Y-82779200D01*
X120100908Y-82767524D01*
X120073601Y-82736181D01*
X120067502Y-82695061D01*
X120084534Y-82657141D01*
X120092899Y-82647345D01*
X120115468Y-82620922D01*
X120123670Y-82612721D01*
X120263909Y-82492953D01*
X120273290Y-82486136D01*
X120430555Y-82389771D01*
X120440889Y-82384506D01*
X120611283Y-82313935D01*
X120622305Y-82310354D01*
X120801644Y-82267306D01*
X120813101Y-82265492D01*
X121000781Y-82250730D01*
X121006578Y-82250503D01*
X121046932Y-82250505D01*
X121046937Y-82250502D01*
X137497091Y-82250500D01*
X137502897Y-82250728D01*
G37*
G04 #@! TD.AperFunction*
M02*
