%TF.GenerationSoftware,KiCad,Pcbnew,(7.0.0-0)*%
%TF.CreationDate,2023-05-05T14:07:25+08:00*%
%TF.ProjectId,SWDProgrammer,53574450-726f-4677-9261-6d6d65722e6b,rev?*%
%TF.SameCoordinates,Original*%
%TF.FileFunction,Drillmap*%
%TF.FilePolarity,Positive*%
%FSLAX45Y45*%
G04 Gerber Fmt 4.5, Leading zero omitted, Abs format (unit mm)*
G04 Created by KiCad (PCBNEW (7.0.0-0)) date 2023-05-05 14:07:25*
%MOMM*%
%LPD*%
G01*
G04 APERTURE LIST*
%ADD10C,0.010000*%
%ADD11C,0.038100*%
%ADD12C,0.200000*%
G04 APERTURE END LIST*
D10*
X13900000Y-8350000D02*
X13900000Y-8680000D01*
D11*
X11950277Y-9357200D02*
X12500000Y-9357200D01*
D10*
X14000000Y-9050000D02*
G75*
G03*
X14010686Y-8920885I0J65000D01*
G01*
X12100277Y-9600000D02*
X13750000Y-9600000D01*
D11*
X11950277Y-8350000D02*
X11950277Y-8442800D01*
D10*
X14000000Y-9050000D02*
X13970000Y-9050000D01*
X14000000Y-8750000D02*
X13970000Y-8750000D01*
X13970000Y-9050000D02*
G75*
G03*
X13900000Y-9120000I0J-70000D01*
G01*
D11*
X11950277Y-8442800D02*
X12500000Y-8442800D01*
X11950277Y-9450000D02*
X11950277Y-9357200D01*
D10*
X13900000Y-8350000D02*
G75*
G03*
X13750000Y-8200000I-150000J0D01*
G01*
X11950270Y-9450000D02*
G75*
G03*
X12100277Y-9600000I150010J10D01*
G01*
X14010606Y-8879132D02*
G75*
G03*
X14010686Y-8920884I4394J-20868D01*
G01*
X13750000Y-8200000D02*
X12100000Y-8200000D01*
D11*
X12500000Y-8442800D02*
X12500000Y-9357200D01*
D10*
X12100277Y-8200007D02*
G75*
G03*
X11950277Y-8350000I-8J-149993D01*
G01*
X13750000Y-9600000D02*
G75*
G03*
X13900000Y-9450000I0J150000D01*
G01*
X13900000Y-9450000D02*
X13900000Y-9120000D01*
X13900000Y-8680000D02*
G75*
G03*
X13970000Y-8750000I70000J0D01*
G01*
X14010686Y-8879116D02*
G75*
G03*
X14000000Y-8750000I-10686J64116D01*
G01*
D12*
X12195991Y-9893976D02*
X12195991Y-9693976D01*
X12195991Y-9693976D02*
X12243610Y-9693976D01*
X12243610Y-9693976D02*
X12272182Y-9703500D01*
X12272182Y-9703500D02*
X12291230Y-9722548D01*
X12291230Y-9722548D02*
X12300753Y-9741595D01*
X12300753Y-9741595D02*
X12310277Y-9779690D01*
X12310277Y-9779690D02*
X12310277Y-9808262D01*
X12310277Y-9808262D02*
X12300753Y-9846357D01*
X12300753Y-9846357D02*
X12291230Y-9865405D01*
X12291230Y-9865405D02*
X12272182Y-9884452D01*
X12272182Y-9884452D02*
X12243610Y-9893976D01*
X12243610Y-9893976D02*
X12195991Y-9893976D01*
X12395991Y-9893976D02*
X12395991Y-9760643D01*
X12395991Y-9798738D02*
X12405515Y-9779690D01*
X12405515Y-9779690D02*
X12415039Y-9770167D01*
X12415039Y-9770167D02*
X12434087Y-9760643D01*
X12434087Y-9760643D02*
X12453134Y-9760643D01*
X12519801Y-9893976D02*
X12519801Y-9760643D01*
X12519801Y-9693976D02*
X12510277Y-9703500D01*
X12510277Y-9703500D02*
X12519801Y-9713024D01*
X12519801Y-9713024D02*
X12529325Y-9703500D01*
X12529325Y-9703500D02*
X12519801Y-9693976D01*
X12519801Y-9693976D02*
X12519801Y-9713024D01*
X12643610Y-9893976D02*
X12624563Y-9884452D01*
X12624563Y-9884452D02*
X12615039Y-9865405D01*
X12615039Y-9865405D02*
X12615039Y-9693976D01*
X12748372Y-9893976D02*
X12729325Y-9884452D01*
X12729325Y-9884452D02*
X12719801Y-9865405D01*
X12719801Y-9865405D02*
X12719801Y-9693976D01*
X12944563Y-9893976D02*
X12944563Y-9693976D01*
X12944563Y-9693976D02*
X13011230Y-9836833D01*
X13011230Y-9836833D02*
X13077896Y-9693976D01*
X13077896Y-9693976D02*
X13077896Y-9893976D01*
X13258849Y-9893976D02*
X13258849Y-9789214D01*
X13258849Y-9789214D02*
X13249325Y-9770167D01*
X13249325Y-9770167D02*
X13230277Y-9760643D01*
X13230277Y-9760643D02*
X13192182Y-9760643D01*
X13192182Y-9760643D02*
X13173134Y-9770167D01*
X13258849Y-9884452D02*
X13239801Y-9893976D01*
X13239801Y-9893976D02*
X13192182Y-9893976D01*
X13192182Y-9893976D02*
X13173134Y-9884452D01*
X13173134Y-9884452D02*
X13163610Y-9865405D01*
X13163610Y-9865405D02*
X13163610Y-9846357D01*
X13163610Y-9846357D02*
X13173134Y-9827310D01*
X13173134Y-9827310D02*
X13192182Y-9817786D01*
X13192182Y-9817786D02*
X13239801Y-9817786D01*
X13239801Y-9817786D02*
X13258849Y-9808262D01*
X13354087Y-9760643D02*
X13354087Y-9960643D01*
X13354087Y-9770167D02*
X13373134Y-9760643D01*
X13373134Y-9760643D02*
X13411230Y-9760643D01*
X13411230Y-9760643D02*
X13430277Y-9770167D01*
X13430277Y-9770167D02*
X13439801Y-9779690D01*
X13439801Y-9779690D02*
X13449325Y-9798738D01*
X13449325Y-9798738D02*
X13449325Y-9855881D01*
X13449325Y-9855881D02*
X13439801Y-9874929D01*
X13439801Y-9874929D02*
X13430277Y-9884452D01*
X13430277Y-9884452D02*
X13411230Y-9893976D01*
X13411230Y-9893976D02*
X13373134Y-9893976D01*
X13373134Y-9893976D02*
X13354087Y-9884452D01*
X13535039Y-9874929D02*
X13544563Y-9884452D01*
X13544563Y-9884452D02*
X13535039Y-9893976D01*
X13535039Y-9893976D02*
X13525515Y-9884452D01*
X13525515Y-9884452D02*
X13535039Y-9874929D01*
X13535039Y-9874929D02*
X13535039Y-9893976D01*
X13535039Y-9770167D02*
X13544563Y-9779690D01*
X13544563Y-9779690D02*
X13535039Y-9789214D01*
X13535039Y-9789214D02*
X13525515Y-9779690D01*
X13525515Y-9779690D02*
X13535039Y-9770167D01*
X13535039Y-9770167D02*
X13535039Y-9789214D01*
M02*
