%TF.GenerationSoftware,KiCad,Pcbnew,(7.0.0-0)*%
%TF.CreationDate,2024-01-25T23:02:35+08:00*%
%TF.ProjectId,SWDProgrammer,53574450-726f-4677-9261-6d6d65722e6b,rev?*%
%TF.SameCoordinates,Original*%
%TF.FileFunction,Drillmap*%
%TF.FilePolarity,Positive*%
%FSLAX45Y45*%
G04 Gerber Fmt 4.5, Leading zero omitted, Abs format (unit mm)*
G04 Created by KiCad (PCBNEW (7.0.0-0)) date 2024-01-25 23:02:35*
%MOMM*%
%LPD*%
G01*
G04 APERTURE LIST*
%ADD10C,0.100000*%
%ADD11C,0.150000*%
%ADD12C,0.200000*%
%ADD13C,0.030000*%
%ADD14C,0.060000*%
G04 APERTURE END LIST*
D10*
X14991280Y-5266442D02*
X15117694Y-6162457D01*
X14523280Y-7483485D02*
X15002475Y-6716741D01*
D11*
X13564998Y-6817501D02*
X14807443Y-8008270D01*
D10*
X15700666Y-6080020D02*
X15117694Y-6162457D01*
D11*
X13247500Y-6315001D02*
X13247500Y-6047501D01*
X13724998Y-6625001D02*
X13724998Y-6315001D01*
D10*
X15700000Y-6100000D02*
G75*
G03*
X15700666Y-6080020I-2696880J99900D01*
G01*
X15576364Y-5186151D02*
G75*
G03*
X15473045Y-4911860I-2576374J-813859D01*
G01*
D11*
X13564998Y-6817501D02*
X13564998Y-6625001D01*
X13724998Y-6047501D02*
X13724998Y-5742501D01*
X13564998Y-6625001D02*
X13724998Y-6625001D01*
D10*
X15002475Y-6716741D02*
X15500294Y-7023977D01*
D11*
X13984998Y-5742501D02*
X13724998Y-5742501D01*
D10*
X15576364Y-5186151D02*
X14991280Y-5266442D01*
X14807443Y-8008270D02*
G75*
G03*
X15022146Y-7791901I-1802433J2003260D01*
G01*
X15500294Y-7023977D02*
G75*
G03*
X15700000Y-6100000I-2500294J1023977D01*
G01*
D11*
X13773562Y-5338086D02*
X15473045Y-4911860D01*
D10*
X13984998Y-5742501D02*
G75*
G03*
X13773562Y-5338086I-984998J-257499D01*
G01*
D11*
X13247500Y-6047501D02*
X13724998Y-6047501D01*
D10*
X15022146Y-7791901D02*
X14523280Y-7483485D01*
D11*
X13247500Y-6315001D02*
X13724998Y-6315001D01*
D12*
D13*
X13282500Y-6085000D02*
X13312500Y-6115000D01*
X13312500Y-6085000D02*
X13282500Y-6115000D01*
X13362500Y-6167500D02*
X13392500Y-6197500D01*
X13392500Y-6167500D02*
X13362500Y-6197500D01*
X13420000Y-6192500D02*
X13450000Y-6222500D01*
X13450000Y-6192500D02*
X13420000Y-6222500D01*
X13420000Y-6137550D02*
X13450000Y-6167550D01*
X13450000Y-6137550D02*
X13420000Y-6167550D01*
X13473456Y-6179772D02*
X13503456Y-6209772D01*
X13503456Y-6179772D02*
X13473456Y-6209772D01*
X13563550Y-6173578D02*
X13593550Y-6203578D01*
X13593550Y-6173578D02*
X13563550Y-6203578D01*
X13647500Y-6172450D02*
X13677500Y-6202450D01*
X13677500Y-6172450D02*
X13647500Y-6202450D01*
X13675000Y-6825000D02*
X13705000Y-6855000D01*
X13705000Y-6825000D02*
X13675000Y-6855000D01*
X13705000Y-6182500D02*
X13735000Y-6212500D01*
X13735000Y-6182500D02*
X13705000Y-6212500D01*
X13755000Y-6040000D02*
X13785000Y-6070000D01*
X13785000Y-6040000D02*
X13755000Y-6070000D01*
X13780000Y-6910000D02*
X13810000Y-6940000D01*
X13810000Y-6910000D02*
X13780000Y-6940000D01*
X13815000Y-6720000D02*
X13845000Y-6750000D01*
X13845000Y-6720000D02*
X13815000Y-6750000D01*
X13817500Y-6035000D02*
X13847500Y-6065000D01*
X13847500Y-6035000D02*
X13817500Y-6065000D01*
X13960000Y-5829950D02*
X13990000Y-5859950D01*
X13990000Y-5829950D02*
X13960000Y-5859950D01*
X13970000Y-6325000D02*
X14000000Y-6355000D01*
X14000000Y-6325000D02*
X13970000Y-6355000D01*
X14005000Y-6085000D02*
X14035000Y-6115000D01*
X14035000Y-6085000D02*
X14005000Y-6115000D01*
X14010000Y-6685000D02*
X14040000Y-6715000D01*
X14040000Y-6685000D02*
X14010000Y-6715000D01*
X14090000Y-7045000D02*
X14120000Y-7075000D01*
X14120000Y-7045000D02*
X14090000Y-7075000D01*
X14110000Y-6165000D02*
X14140000Y-6195000D01*
X14140000Y-6165000D02*
X14110000Y-6195000D01*
X14110000Y-6295000D02*
X14140000Y-6325000D01*
X14140000Y-6295000D02*
X14110000Y-6325000D01*
X14267000Y-5810000D02*
X14297000Y-5840000D01*
X14297000Y-5810000D02*
X14267000Y-5840000D01*
X14308321Y-5864566D02*
X14338321Y-5894566D01*
X14338321Y-5864566D02*
X14308321Y-5894566D01*
X14315000Y-6675000D02*
X14345000Y-6705000D01*
X14345000Y-6675000D02*
X14315000Y-6705000D01*
X14332500Y-5250000D02*
X14362500Y-5280000D01*
X14362500Y-5250000D02*
X14332500Y-5280000D01*
X14362184Y-5875441D02*
X14392184Y-5905441D01*
X14392184Y-5875441D02*
X14362184Y-5905441D01*
X14365000Y-7305000D02*
X14395000Y-7335000D01*
X14395000Y-7305000D02*
X14365000Y-7335000D01*
X14510000Y-5435000D02*
X14540000Y-5465000D01*
X14540000Y-5435000D02*
X14510000Y-5465000D01*
X14510000Y-7130000D02*
X14540000Y-7160000D01*
X14540000Y-7130000D02*
X14510000Y-7160000D01*
X14530000Y-6270000D02*
X14560000Y-6300000D01*
X14560000Y-6270000D02*
X14530000Y-6300000D01*
X14585000Y-6945000D02*
X14615000Y-6975000D01*
X14615000Y-6945000D02*
X14585000Y-6975000D01*
X14592500Y-6775000D02*
X14622500Y-6805000D01*
X14622500Y-6775000D02*
X14592500Y-6805000D01*
X14600000Y-5690000D02*
X14630000Y-5720000D01*
X14630000Y-5690000D02*
X14600000Y-5720000D01*
X14602500Y-5557500D02*
X14632500Y-5587500D01*
X14632500Y-5557500D02*
X14602500Y-5587500D01*
X14640000Y-7030000D02*
X14670000Y-7060000D01*
X14670000Y-7030000D02*
X14640000Y-7060000D01*
X14695000Y-6955000D02*
X14725000Y-6985000D01*
X14725000Y-6955000D02*
X14695000Y-6985000D01*
X14760000Y-6335000D02*
X14790000Y-6365000D01*
X14790000Y-6335000D02*
X14760000Y-6365000D01*
X14760000Y-6630000D02*
X14790000Y-6660000D01*
X14790000Y-6630000D02*
X14760000Y-6660000D01*
X14770000Y-6830000D02*
X14800000Y-6860000D01*
X14800000Y-6830000D02*
X14770000Y-6860000D01*
X14775000Y-6512500D02*
X14805000Y-6542500D01*
X14805000Y-6512500D02*
X14775000Y-6542500D01*
X14860000Y-5735000D02*
X14890000Y-5765000D01*
X14890000Y-5735000D02*
X14860000Y-5765000D01*
X14915000Y-5475000D02*
X14945000Y-5505000D01*
X14945000Y-5475000D02*
X14915000Y-5505000D01*
X14915000Y-5790000D02*
X14945000Y-5820000D01*
X14945000Y-5790000D02*
X14915000Y-5820000D01*
X14935000Y-5690000D02*
X14965000Y-5720000D01*
X14965000Y-5690000D02*
X14935000Y-5720000D01*
X14960000Y-6445000D02*
X14990000Y-6475000D01*
X14990000Y-6445000D02*
X14960000Y-6475000D01*
X14965000Y-6145000D02*
X14995000Y-6175000D01*
X14995000Y-6145000D02*
X14965000Y-6175000D01*
X14965000Y-6335000D02*
X14995000Y-6365000D01*
X14995000Y-6335000D02*
X14965000Y-6365000D01*
X14985000Y-5955000D02*
X15015000Y-5985000D01*
X15015000Y-5955000D02*
X14985000Y-5985000D01*
D14*
X14539422Y-7600172D02*
G75*
G03*
X14539422Y-7600172I-30000J0D01*
G01*
D12*
X14459602Y-7604417D02*
X14527446Y-7646810D01*
X14527446Y-7646810D02*
G75*
G03*
X14559241Y-7595928I15898J25441D01*
G01*
X14559241Y-7595927D02*
X14491397Y-7553534D01*
X14491397Y-7553534D02*
G75*
G03*
X14459602Y-7604417I-15898J-25441D01*
G01*
D14*
X14861680Y-7801542D02*
G75*
G03*
X14861680Y-7801542I-30000J0D01*
G01*
D12*
X14764899Y-7795188D02*
X14866665Y-7858778D01*
X14866665Y-7858778D02*
G75*
G03*
X14898460Y-7807895I15898J25441D01*
G01*
X14898460Y-7807895D02*
X14796694Y-7744305D01*
X14796694Y-7744305D02*
G75*
G03*
X14764899Y-7795188I-15898J-25441D01*
G01*
D14*
X15056626Y-5156673D02*
G75*
G03*
X15056626Y-5156673I-30000J0D01*
G01*
D12*
X14991190Y-5191948D02*
X15070411Y-5180814D01*
X15070411Y-5180814D02*
G75*
G03*
X15062061Y-5121398I-4175J29708D01*
G01*
X15062061Y-5121398D02*
X14982840Y-5132532D01*
X14982840Y-5132532D02*
G75*
G03*
X14991190Y-5191948I4175J-29708D01*
G01*
D14*
X15130329Y-6654522D02*
G75*
G03*
X15130329Y-6654522I-30000J0D01*
G01*
D12*
X15050510Y-6658767D02*
X15118353Y-6701160D01*
X15118353Y-6701160D02*
G75*
G03*
X15150149Y-6650278I15898J25441D01*
G01*
X15150149Y-6650278D02*
X15082305Y-6607884D01*
X15082305Y-6607884D02*
G75*
G03*
X15050510Y-6658767I-15898J-25441D01*
G01*
D14*
X15211816Y-6260911D02*
G75*
G03*
X15211816Y-6260911I-30000J0D01*
G01*
D12*
X15146381Y-6296186D02*
X15225602Y-6285052D01*
X15225602Y-6285052D02*
G75*
G03*
X15217252Y-6225636I-4175J29708D01*
G01*
X15217252Y-6225636D02*
X15138030Y-6236769D01*
X15138030Y-6236769D02*
G75*
G03*
X15146381Y-6296185I4175J-29708D01*
G01*
D14*
X15432932Y-5103817D02*
G75*
G03*
X15432932Y-5103817I-30000J0D01*
G01*
D12*
X15347691Y-5141875D02*
X15466523Y-5125174D01*
X15466523Y-5125174D02*
G75*
G03*
X15458173Y-5065758I-4175J29708D01*
G01*
X15458173Y-5065758D02*
X15339340Y-5082459D01*
X15339340Y-5082459D02*
G75*
G03*
X15347691Y-5141875I4175J-29708D01*
G01*
D14*
X15452572Y-6855917D02*
G75*
G03*
X15452572Y-6855917I-30000J0D01*
G01*
D12*
X15355791Y-6849563D02*
X15457557Y-6913154D01*
X15457557Y-6913154D02*
G75*
G03*
X15489352Y-6862271I15898J25441D01*
G01*
X15489352Y-6862271D02*
X15387586Y-6798680D01*
X15387586Y-6798680D02*
G75*
G03*
X15355791Y-6849563I-15898J-25441D01*
G01*
D14*
X15588118Y-6208025D02*
G75*
G03*
X15588118Y-6208025I-30000J0D01*
G01*
D12*
X15502877Y-6246083D02*
X15621709Y-6229383D01*
X15621709Y-6229382D02*
G75*
G03*
X15613359Y-6169966I-4175J29708D01*
G01*
X15613359Y-6169966D02*
X15494527Y-6186667D01*
X15494527Y-6186667D02*
G75*
G03*
X15502877Y-6246083I4175J-29708D01*
G01*
X13487619Y-8309246D02*
X13487619Y-8109246D01*
X13487619Y-8109246D02*
X13535238Y-8109246D01*
X13535238Y-8109246D02*
X13563809Y-8118770D01*
X13563809Y-8118770D02*
X13582857Y-8137818D01*
X13582857Y-8137818D02*
X13592381Y-8156865D01*
X13592381Y-8156865D02*
X13601905Y-8194961D01*
X13601905Y-8194961D02*
X13601905Y-8223532D01*
X13601905Y-8223532D02*
X13592381Y-8261627D01*
X13592381Y-8261627D02*
X13582857Y-8280675D01*
X13582857Y-8280675D02*
X13563809Y-8299722D01*
X13563809Y-8299722D02*
X13535238Y-8309246D01*
X13535238Y-8309246D02*
X13487619Y-8309246D01*
X13687619Y-8309246D02*
X13687619Y-8175913D01*
X13687619Y-8214008D02*
X13697143Y-8194961D01*
X13697143Y-8194961D02*
X13706666Y-8185437D01*
X13706666Y-8185437D02*
X13725714Y-8175913D01*
X13725714Y-8175913D02*
X13744762Y-8175913D01*
X13811428Y-8309246D02*
X13811428Y-8175913D01*
X13811428Y-8109246D02*
X13801905Y-8118770D01*
X13801905Y-8118770D02*
X13811428Y-8128294D01*
X13811428Y-8128294D02*
X13820952Y-8118770D01*
X13820952Y-8118770D02*
X13811428Y-8109246D01*
X13811428Y-8109246D02*
X13811428Y-8128294D01*
X13935238Y-8309246D02*
X13916190Y-8299722D01*
X13916190Y-8299722D02*
X13906666Y-8280675D01*
X13906666Y-8280675D02*
X13906666Y-8109246D01*
X14040000Y-8309246D02*
X14020952Y-8299722D01*
X14020952Y-8299722D02*
X14011428Y-8280675D01*
X14011428Y-8280675D02*
X14011428Y-8109246D01*
X14236190Y-8309246D02*
X14236190Y-8109246D01*
X14236190Y-8109246D02*
X14302857Y-8252103D01*
X14302857Y-8252103D02*
X14369524Y-8109246D01*
X14369524Y-8109246D02*
X14369524Y-8309246D01*
X14550476Y-8309246D02*
X14550476Y-8204484D01*
X14550476Y-8204484D02*
X14540952Y-8185437D01*
X14540952Y-8185437D02*
X14521905Y-8175913D01*
X14521905Y-8175913D02*
X14483809Y-8175913D01*
X14483809Y-8175913D02*
X14464762Y-8185437D01*
X14550476Y-8299722D02*
X14531428Y-8309246D01*
X14531428Y-8309246D02*
X14483809Y-8309246D01*
X14483809Y-8309246D02*
X14464762Y-8299722D01*
X14464762Y-8299722D02*
X14455238Y-8280675D01*
X14455238Y-8280675D02*
X14455238Y-8261627D01*
X14455238Y-8261627D02*
X14464762Y-8242580D01*
X14464762Y-8242580D02*
X14483809Y-8233056D01*
X14483809Y-8233056D02*
X14531428Y-8233056D01*
X14531428Y-8233056D02*
X14550476Y-8223532D01*
X14645714Y-8175913D02*
X14645714Y-8375913D01*
X14645714Y-8185437D02*
X14664762Y-8175913D01*
X14664762Y-8175913D02*
X14702857Y-8175913D01*
X14702857Y-8175913D02*
X14721905Y-8185437D01*
X14721905Y-8185437D02*
X14731428Y-8194961D01*
X14731428Y-8194961D02*
X14740952Y-8214008D01*
X14740952Y-8214008D02*
X14740952Y-8271151D01*
X14740952Y-8271151D02*
X14731428Y-8290199D01*
X14731428Y-8290199D02*
X14721905Y-8299722D01*
X14721905Y-8299722D02*
X14702857Y-8309246D01*
X14702857Y-8309246D02*
X14664762Y-8309246D01*
X14664762Y-8309246D02*
X14645714Y-8299722D01*
X14826666Y-8290199D02*
X14836190Y-8299722D01*
X14836190Y-8299722D02*
X14826666Y-8309246D01*
X14826666Y-8309246D02*
X14817143Y-8299722D01*
X14817143Y-8299722D02*
X14826666Y-8290199D01*
X14826666Y-8290199D02*
X14826666Y-8309246D01*
X14826666Y-8185437D02*
X14836190Y-8194961D01*
X14836190Y-8194961D02*
X14826666Y-8204484D01*
X14826666Y-8204484D02*
X14817143Y-8194961D01*
X14817143Y-8194961D02*
X14826666Y-8185437D01*
X14826666Y-8185437D02*
X14826666Y-8204484D01*
D13*
X13210000Y-8640770D02*
X13240000Y-8670770D01*
X13240000Y-8640770D02*
X13210000Y-8670770D01*
D12*
X13525714Y-8529246D02*
X13544762Y-8529246D01*
X13544762Y-8529246D02*
X13563809Y-8538770D01*
X13563809Y-8538770D02*
X13573333Y-8548294D01*
X13573333Y-8548294D02*
X13582857Y-8567342D01*
X13582857Y-8567342D02*
X13592381Y-8605437D01*
X13592381Y-8605437D02*
X13592381Y-8653056D01*
X13592381Y-8653056D02*
X13582857Y-8691151D01*
X13582857Y-8691151D02*
X13573333Y-8710199D01*
X13573333Y-8710199D02*
X13563809Y-8719723D01*
X13563809Y-8719723D02*
X13544762Y-8729246D01*
X13544762Y-8729246D02*
X13525714Y-8729246D01*
X13525714Y-8729246D02*
X13506666Y-8719723D01*
X13506666Y-8719723D02*
X13497143Y-8710199D01*
X13497143Y-8710199D02*
X13487619Y-8691151D01*
X13487619Y-8691151D02*
X13478095Y-8653056D01*
X13478095Y-8653056D02*
X13478095Y-8605437D01*
X13478095Y-8605437D02*
X13487619Y-8567342D01*
X13487619Y-8567342D02*
X13497143Y-8548294D01*
X13497143Y-8548294D02*
X13506666Y-8538770D01*
X13506666Y-8538770D02*
X13525714Y-8529246D01*
X13678095Y-8710199D02*
X13687619Y-8719723D01*
X13687619Y-8719723D02*
X13678095Y-8729246D01*
X13678095Y-8729246D02*
X13668571Y-8719723D01*
X13668571Y-8719723D02*
X13678095Y-8710199D01*
X13678095Y-8710199D02*
X13678095Y-8729246D01*
X13754286Y-8529246D02*
X13878095Y-8529246D01*
X13878095Y-8529246D02*
X13811428Y-8605437D01*
X13811428Y-8605437D02*
X13840000Y-8605437D01*
X13840000Y-8605437D02*
X13859047Y-8614961D01*
X13859047Y-8614961D02*
X13868571Y-8624484D01*
X13868571Y-8624484D02*
X13878095Y-8643532D01*
X13878095Y-8643532D02*
X13878095Y-8691151D01*
X13878095Y-8691151D02*
X13868571Y-8710199D01*
X13868571Y-8710199D02*
X13859047Y-8719723D01*
X13859047Y-8719723D02*
X13840000Y-8729246D01*
X13840000Y-8729246D02*
X13782857Y-8729246D01*
X13782857Y-8729246D02*
X13763809Y-8719723D01*
X13763809Y-8719723D02*
X13754286Y-8710199D01*
X14001905Y-8529246D02*
X14020952Y-8529246D01*
X14020952Y-8529246D02*
X14040000Y-8538770D01*
X14040000Y-8538770D02*
X14049524Y-8548294D01*
X14049524Y-8548294D02*
X14059047Y-8567342D01*
X14059047Y-8567342D02*
X14068571Y-8605437D01*
X14068571Y-8605437D02*
X14068571Y-8653056D01*
X14068571Y-8653056D02*
X14059047Y-8691151D01*
X14059047Y-8691151D02*
X14049524Y-8710199D01*
X14049524Y-8710199D02*
X14040000Y-8719723D01*
X14040000Y-8719723D02*
X14020952Y-8729246D01*
X14020952Y-8729246D02*
X14001905Y-8729246D01*
X14001905Y-8729246D02*
X13982857Y-8719723D01*
X13982857Y-8719723D02*
X13973333Y-8710199D01*
X13973333Y-8710199D02*
X13963809Y-8691151D01*
X13963809Y-8691151D02*
X13954286Y-8653056D01*
X13954286Y-8653056D02*
X13954286Y-8605437D01*
X13954286Y-8605437D02*
X13963809Y-8567342D01*
X13963809Y-8567342D02*
X13973333Y-8548294D01*
X13973333Y-8548294D02*
X13982857Y-8538770D01*
X13982857Y-8538770D02*
X14001905Y-8529246D01*
X14192381Y-8529246D02*
X14211428Y-8529246D01*
X14211428Y-8529246D02*
X14230476Y-8538770D01*
X14230476Y-8538770D02*
X14240000Y-8548294D01*
X14240000Y-8548294D02*
X14249524Y-8567342D01*
X14249524Y-8567342D02*
X14259047Y-8605437D01*
X14259047Y-8605437D02*
X14259047Y-8653056D01*
X14259047Y-8653056D02*
X14249524Y-8691151D01*
X14249524Y-8691151D02*
X14240000Y-8710199D01*
X14240000Y-8710199D02*
X14230476Y-8719723D01*
X14230476Y-8719723D02*
X14211428Y-8729246D01*
X14211428Y-8729246D02*
X14192381Y-8729246D01*
X14192381Y-8729246D02*
X14173333Y-8719723D01*
X14173333Y-8719723D02*
X14163809Y-8710199D01*
X14163809Y-8710199D02*
X14154286Y-8691151D01*
X14154286Y-8691151D02*
X14144762Y-8653056D01*
X14144762Y-8653056D02*
X14144762Y-8605437D01*
X14144762Y-8605437D02*
X14154286Y-8567342D01*
X14154286Y-8567342D02*
X14163809Y-8548294D01*
X14163809Y-8548294D02*
X14173333Y-8538770D01*
X14173333Y-8538770D02*
X14192381Y-8529246D01*
X14344762Y-8729246D02*
X14344762Y-8595913D01*
X14344762Y-8614961D02*
X14354286Y-8605437D01*
X14354286Y-8605437D02*
X14373333Y-8595913D01*
X14373333Y-8595913D02*
X14401905Y-8595913D01*
X14401905Y-8595913D02*
X14420952Y-8605437D01*
X14420952Y-8605437D02*
X14430476Y-8624484D01*
X14430476Y-8624484D02*
X14430476Y-8729246D01*
X14430476Y-8624484D02*
X14440000Y-8605437D01*
X14440000Y-8605437D02*
X14459047Y-8595913D01*
X14459047Y-8595913D02*
X14487619Y-8595913D01*
X14487619Y-8595913D02*
X14506667Y-8605437D01*
X14506667Y-8605437D02*
X14516190Y-8624484D01*
X14516190Y-8624484D02*
X14516190Y-8729246D01*
X14611428Y-8729246D02*
X14611428Y-8595913D01*
X14611428Y-8614961D02*
X14620952Y-8605437D01*
X14620952Y-8605437D02*
X14640000Y-8595913D01*
X14640000Y-8595913D02*
X14668571Y-8595913D01*
X14668571Y-8595913D02*
X14687619Y-8605437D01*
X14687619Y-8605437D02*
X14697143Y-8624484D01*
X14697143Y-8624484D02*
X14697143Y-8729246D01*
X14697143Y-8624484D02*
X14706667Y-8605437D01*
X14706667Y-8605437D02*
X14725714Y-8595913D01*
X14725714Y-8595913D02*
X14754286Y-8595913D01*
X14754286Y-8595913D02*
X14773333Y-8605437D01*
X14773333Y-8605437D02*
X14782857Y-8624484D01*
X14782857Y-8624484D02*
X14782857Y-8729246D01*
X15140952Y-8519723D02*
X14969524Y-8776865D01*
X15365714Y-8529246D02*
X15384762Y-8529246D01*
X15384762Y-8529246D02*
X15403809Y-8538770D01*
X15403809Y-8538770D02*
X15413333Y-8548294D01*
X15413333Y-8548294D02*
X15422857Y-8567342D01*
X15422857Y-8567342D02*
X15432381Y-8605437D01*
X15432381Y-8605437D02*
X15432381Y-8653056D01*
X15432381Y-8653056D02*
X15422857Y-8691151D01*
X15422857Y-8691151D02*
X15413333Y-8710199D01*
X15413333Y-8710199D02*
X15403809Y-8719723D01*
X15403809Y-8719723D02*
X15384762Y-8729246D01*
X15384762Y-8729246D02*
X15365714Y-8729246D01*
X15365714Y-8729246D02*
X15346667Y-8719723D01*
X15346667Y-8719723D02*
X15337143Y-8710199D01*
X15337143Y-8710199D02*
X15327619Y-8691151D01*
X15327619Y-8691151D02*
X15318095Y-8653056D01*
X15318095Y-8653056D02*
X15318095Y-8605437D01*
X15318095Y-8605437D02*
X15327619Y-8567342D01*
X15327619Y-8567342D02*
X15337143Y-8548294D01*
X15337143Y-8548294D02*
X15346667Y-8538770D01*
X15346667Y-8538770D02*
X15365714Y-8529246D01*
X15518095Y-8710199D02*
X15527619Y-8719723D01*
X15527619Y-8719723D02*
X15518095Y-8729246D01*
X15518095Y-8729246D02*
X15508571Y-8719723D01*
X15508571Y-8719723D02*
X15518095Y-8710199D01*
X15518095Y-8710199D02*
X15518095Y-8729246D01*
X15651428Y-8529246D02*
X15670476Y-8529246D01*
X15670476Y-8529246D02*
X15689524Y-8538770D01*
X15689524Y-8538770D02*
X15699048Y-8548294D01*
X15699048Y-8548294D02*
X15708571Y-8567342D01*
X15708571Y-8567342D02*
X15718095Y-8605437D01*
X15718095Y-8605437D02*
X15718095Y-8653056D01*
X15718095Y-8653056D02*
X15708571Y-8691151D01*
X15708571Y-8691151D02*
X15699048Y-8710199D01*
X15699048Y-8710199D02*
X15689524Y-8719723D01*
X15689524Y-8719723D02*
X15670476Y-8729246D01*
X15670476Y-8729246D02*
X15651428Y-8729246D01*
X15651428Y-8729246D02*
X15632381Y-8719723D01*
X15632381Y-8719723D02*
X15622857Y-8710199D01*
X15622857Y-8710199D02*
X15613333Y-8691151D01*
X15613333Y-8691151D02*
X15603809Y-8653056D01*
X15603809Y-8653056D02*
X15603809Y-8605437D01*
X15603809Y-8605437D02*
X15613333Y-8567342D01*
X15613333Y-8567342D02*
X15622857Y-8548294D01*
X15622857Y-8548294D02*
X15632381Y-8538770D01*
X15632381Y-8538770D02*
X15651428Y-8529246D01*
X15908571Y-8729246D02*
X15794286Y-8729246D01*
X15851428Y-8729246D02*
X15851428Y-8529246D01*
X15851428Y-8529246D02*
X15832381Y-8557818D01*
X15832381Y-8557818D02*
X15813333Y-8576865D01*
X15813333Y-8576865D02*
X15794286Y-8586389D01*
X16099048Y-8729246D02*
X15984762Y-8729246D01*
X16041905Y-8729246D02*
X16041905Y-8529246D01*
X16041905Y-8529246D02*
X16022857Y-8557818D01*
X16022857Y-8557818D02*
X16003809Y-8576865D01*
X16003809Y-8576865D02*
X15984762Y-8586389D01*
X16213333Y-8614961D02*
X16194286Y-8605437D01*
X16194286Y-8605437D02*
X16184762Y-8595913D01*
X16184762Y-8595913D02*
X16175238Y-8576865D01*
X16175238Y-8576865D02*
X16175238Y-8567342D01*
X16175238Y-8567342D02*
X16184762Y-8548294D01*
X16184762Y-8548294D02*
X16194286Y-8538770D01*
X16194286Y-8538770D02*
X16213333Y-8529246D01*
X16213333Y-8529246D02*
X16251429Y-8529246D01*
X16251429Y-8529246D02*
X16270476Y-8538770D01*
X16270476Y-8538770D02*
X16280000Y-8548294D01*
X16280000Y-8548294D02*
X16289524Y-8567342D01*
X16289524Y-8567342D02*
X16289524Y-8576865D01*
X16289524Y-8576865D02*
X16280000Y-8595913D01*
X16280000Y-8595913D02*
X16270476Y-8605437D01*
X16270476Y-8605437D02*
X16251429Y-8614961D01*
X16251429Y-8614961D02*
X16213333Y-8614961D01*
X16213333Y-8614961D02*
X16194286Y-8624484D01*
X16194286Y-8624484D02*
X16184762Y-8634008D01*
X16184762Y-8634008D02*
X16175238Y-8653056D01*
X16175238Y-8653056D02*
X16175238Y-8691151D01*
X16175238Y-8691151D02*
X16184762Y-8710199D01*
X16184762Y-8710199D02*
X16194286Y-8719723D01*
X16194286Y-8719723D02*
X16213333Y-8729246D01*
X16213333Y-8729246D02*
X16251429Y-8729246D01*
X16251429Y-8729246D02*
X16270476Y-8719723D01*
X16270476Y-8719723D02*
X16280000Y-8710199D01*
X16280000Y-8710199D02*
X16289524Y-8691151D01*
X16289524Y-8691151D02*
X16289524Y-8653056D01*
X16289524Y-8653056D02*
X16280000Y-8634008D01*
X16280000Y-8634008D02*
X16270476Y-8624484D01*
X16270476Y-8624484D02*
X16251429Y-8614961D01*
X16365714Y-8529246D02*
X16365714Y-8567342D01*
X16441905Y-8529246D02*
X16441905Y-8567342D01*
X16704762Y-8805437D02*
X16695238Y-8795913D01*
X16695238Y-8795913D02*
X16676190Y-8767342D01*
X16676190Y-8767342D02*
X16666667Y-8748294D01*
X16666667Y-8748294D02*
X16657143Y-8719723D01*
X16657143Y-8719723D02*
X16647619Y-8672104D01*
X16647619Y-8672104D02*
X16647619Y-8634008D01*
X16647619Y-8634008D02*
X16657143Y-8586389D01*
X16657143Y-8586389D02*
X16666667Y-8557818D01*
X16666667Y-8557818D02*
X16676190Y-8538770D01*
X16676190Y-8538770D02*
X16695238Y-8510199D01*
X16695238Y-8510199D02*
X16704762Y-8500675D01*
X16866667Y-8595913D02*
X16866667Y-8729246D01*
X16819048Y-8519723D02*
X16771429Y-8662580D01*
X16771429Y-8662580D02*
X16895238Y-8662580D01*
X16952381Y-8529246D02*
X17085714Y-8529246D01*
X17085714Y-8529246D02*
X17000000Y-8729246D01*
X17281905Y-8729246D02*
X17281905Y-8529246D01*
X17367619Y-8729246D02*
X17367619Y-8624484D01*
X17367619Y-8624484D02*
X17358095Y-8605437D01*
X17358095Y-8605437D02*
X17339048Y-8595913D01*
X17339048Y-8595913D02*
X17310476Y-8595913D01*
X17310476Y-8595913D02*
X17291429Y-8605437D01*
X17291429Y-8605437D02*
X17281905Y-8614961D01*
X17491429Y-8729246D02*
X17472381Y-8719723D01*
X17472381Y-8719723D02*
X17462857Y-8710199D01*
X17462857Y-8710199D02*
X17453333Y-8691151D01*
X17453333Y-8691151D02*
X17453333Y-8634008D01*
X17453333Y-8634008D02*
X17462857Y-8614961D01*
X17462857Y-8614961D02*
X17472381Y-8605437D01*
X17472381Y-8605437D02*
X17491429Y-8595913D01*
X17491429Y-8595913D02*
X17520000Y-8595913D01*
X17520000Y-8595913D02*
X17539048Y-8605437D01*
X17539048Y-8605437D02*
X17548572Y-8614961D01*
X17548572Y-8614961D02*
X17558095Y-8634008D01*
X17558095Y-8634008D02*
X17558095Y-8691151D01*
X17558095Y-8691151D02*
X17548572Y-8710199D01*
X17548572Y-8710199D02*
X17539048Y-8719723D01*
X17539048Y-8719723D02*
X17520000Y-8729246D01*
X17520000Y-8729246D02*
X17491429Y-8729246D01*
X17672381Y-8729246D02*
X17653333Y-8719723D01*
X17653333Y-8719723D02*
X17643810Y-8700675D01*
X17643810Y-8700675D02*
X17643810Y-8529246D01*
X17824762Y-8719723D02*
X17805714Y-8729246D01*
X17805714Y-8729246D02*
X17767619Y-8729246D01*
X17767619Y-8729246D02*
X17748572Y-8719723D01*
X17748572Y-8719723D02*
X17739048Y-8700675D01*
X17739048Y-8700675D02*
X17739048Y-8624484D01*
X17739048Y-8624484D02*
X17748572Y-8605437D01*
X17748572Y-8605437D02*
X17767619Y-8595913D01*
X17767619Y-8595913D02*
X17805714Y-8595913D01*
X17805714Y-8595913D02*
X17824762Y-8605437D01*
X17824762Y-8605437D02*
X17834286Y-8624484D01*
X17834286Y-8624484D02*
X17834286Y-8643532D01*
X17834286Y-8643532D02*
X17739048Y-8662580D01*
X17910476Y-8719723D02*
X17929524Y-8729246D01*
X17929524Y-8729246D02*
X17967619Y-8729246D01*
X17967619Y-8729246D02*
X17986667Y-8719723D01*
X17986667Y-8719723D02*
X17996191Y-8700675D01*
X17996191Y-8700675D02*
X17996191Y-8691151D01*
X17996191Y-8691151D02*
X17986667Y-8672104D01*
X17986667Y-8672104D02*
X17967619Y-8662580D01*
X17967619Y-8662580D02*
X17939048Y-8662580D01*
X17939048Y-8662580D02*
X17920000Y-8653056D01*
X17920000Y-8653056D02*
X17910476Y-8634008D01*
X17910476Y-8634008D02*
X17910476Y-8624484D01*
X17910476Y-8624484D02*
X17920000Y-8605437D01*
X17920000Y-8605437D02*
X17939048Y-8595913D01*
X17939048Y-8595913D02*
X17967619Y-8595913D01*
X17967619Y-8595913D02*
X17986667Y-8605437D01*
X18062857Y-8805437D02*
X18072381Y-8795913D01*
X18072381Y-8795913D02*
X18091429Y-8767342D01*
X18091429Y-8767342D02*
X18100953Y-8748294D01*
X18100953Y-8748294D02*
X18110476Y-8719723D01*
X18110476Y-8719723D02*
X18120000Y-8672104D01*
X18120000Y-8672104D02*
X18120000Y-8634008D01*
X18120000Y-8634008D02*
X18110476Y-8586389D01*
X18110476Y-8586389D02*
X18100953Y-8557818D01*
X18100953Y-8557818D02*
X18091429Y-8538770D01*
X18091429Y-8538770D02*
X18072381Y-8510199D01*
X18072381Y-8510199D02*
X18062857Y-8500675D01*
D14*
X13240000Y-8919770D02*
G75*
G03*
X13240000Y-8919770I-30000J0D01*
G01*
D12*
X13525714Y-8793246D02*
X13544762Y-8793246D01*
X13544762Y-8793246D02*
X13563809Y-8802770D01*
X13563809Y-8802770D02*
X13573333Y-8812294D01*
X13573333Y-8812294D02*
X13582857Y-8831342D01*
X13582857Y-8831342D02*
X13592381Y-8869437D01*
X13592381Y-8869437D02*
X13592381Y-8917056D01*
X13592381Y-8917056D02*
X13582857Y-8955151D01*
X13582857Y-8955151D02*
X13573333Y-8974199D01*
X13573333Y-8974199D02*
X13563809Y-8983723D01*
X13563809Y-8983723D02*
X13544762Y-8993246D01*
X13544762Y-8993246D02*
X13525714Y-8993246D01*
X13525714Y-8993246D02*
X13506666Y-8983723D01*
X13506666Y-8983723D02*
X13497143Y-8974199D01*
X13497143Y-8974199D02*
X13487619Y-8955151D01*
X13487619Y-8955151D02*
X13478095Y-8917056D01*
X13478095Y-8917056D02*
X13478095Y-8869437D01*
X13478095Y-8869437D02*
X13487619Y-8831342D01*
X13487619Y-8831342D02*
X13497143Y-8812294D01*
X13497143Y-8812294D02*
X13506666Y-8802770D01*
X13506666Y-8802770D02*
X13525714Y-8793246D01*
X13678095Y-8974199D02*
X13687619Y-8983723D01*
X13687619Y-8983723D02*
X13678095Y-8993246D01*
X13678095Y-8993246D02*
X13668571Y-8983723D01*
X13668571Y-8983723D02*
X13678095Y-8974199D01*
X13678095Y-8974199D02*
X13678095Y-8993246D01*
X13859047Y-8793246D02*
X13820952Y-8793246D01*
X13820952Y-8793246D02*
X13801905Y-8802770D01*
X13801905Y-8802770D02*
X13792381Y-8812294D01*
X13792381Y-8812294D02*
X13773333Y-8840865D01*
X13773333Y-8840865D02*
X13763809Y-8878961D01*
X13763809Y-8878961D02*
X13763809Y-8955151D01*
X13763809Y-8955151D02*
X13773333Y-8974199D01*
X13773333Y-8974199D02*
X13782857Y-8983723D01*
X13782857Y-8983723D02*
X13801905Y-8993246D01*
X13801905Y-8993246D02*
X13840000Y-8993246D01*
X13840000Y-8993246D02*
X13859047Y-8983723D01*
X13859047Y-8983723D02*
X13868571Y-8974199D01*
X13868571Y-8974199D02*
X13878095Y-8955151D01*
X13878095Y-8955151D02*
X13878095Y-8907532D01*
X13878095Y-8907532D02*
X13868571Y-8888484D01*
X13868571Y-8888484D02*
X13859047Y-8878961D01*
X13859047Y-8878961D02*
X13840000Y-8869437D01*
X13840000Y-8869437D02*
X13801905Y-8869437D01*
X13801905Y-8869437D02*
X13782857Y-8878961D01*
X13782857Y-8878961D02*
X13773333Y-8888484D01*
X13773333Y-8888484D02*
X13763809Y-8907532D01*
X14001905Y-8793246D02*
X14020952Y-8793246D01*
X14020952Y-8793246D02*
X14040000Y-8802770D01*
X14040000Y-8802770D02*
X14049524Y-8812294D01*
X14049524Y-8812294D02*
X14059047Y-8831342D01*
X14059047Y-8831342D02*
X14068571Y-8869437D01*
X14068571Y-8869437D02*
X14068571Y-8917056D01*
X14068571Y-8917056D02*
X14059047Y-8955151D01*
X14059047Y-8955151D02*
X14049524Y-8974199D01*
X14049524Y-8974199D02*
X14040000Y-8983723D01*
X14040000Y-8983723D02*
X14020952Y-8993246D01*
X14020952Y-8993246D02*
X14001905Y-8993246D01*
X14001905Y-8993246D02*
X13982857Y-8983723D01*
X13982857Y-8983723D02*
X13973333Y-8974199D01*
X13973333Y-8974199D02*
X13963809Y-8955151D01*
X13963809Y-8955151D02*
X13954286Y-8917056D01*
X13954286Y-8917056D02*
X13954286Y-8869437D01*
X13954286Y-8869437D02*
X13963809Y-8831342D01*
X13963809Y-8831342D02*
X13973333Y-8812294D01*
X13973333Y-8812294D02*
X13982857Y-8802770D01*
X13982857Y-8802770D02*
X14001905Y-8793246D01*
X14192381Y-8793246D02*
X14211428Y-8793246D01*
X14211428Y-8793246D02*
X14230476Y-8802770D01*
X14230476Y-8802770D02*
X14240000Y-8812294D01*
X14240000Y-8812294D02*
X14249524Y-8831342D01*
X14249524Y-8831342D02*
X14259047Y-8869437D01*
X14259047Y-8869437D02*
X14259047Y-8917056D01*
X14259047Y-8917056D02*
X14249524Y-8955151D01*
X14249524Y-8955151D02*
X14240000Y-8974199D01*
X14240000Y-8974199D02*
X14230476Y-8983723D01*
X14230476Y-8983723D02*
X14211428Y-8993246D01*
X14211428Y-8993246D02*
X14192381Y-8993246D01*
X14192381Y-8993246D02*
X14173333Y-8983723D01*
X14173333Y-8983723D02*
X14163809Y-8974199D01*
X14163809Y-8974199D02*
X14154286Y-8955151D01*
X14154286Y-8955151D02*
X14144762Y-8917056D01*
X14144762Y-8917056D02*
X14144762Y-8869437D01*
X14144762Y-8869437D02*
X14154286Y-8831342D01*
X14154286Y-8831342D02*
X14163809Y-8812294D01*
X14163809Y-8812294D02*
X14173333Y-8802770D01*
X14173333Y-8802770D02*
X14192381Y-8793246D01*
X14344762Y-8993246D02*
X14344762Y-8859913D01*
X14344762Y-8878961D02*
X14354286Y-8869437D01*
X14354286Y-8869437D02*
X14373333Y-8859913D01*
X14373333Y-8859913D02*
X14401905Y-8859913D01*
X14401905Y-8859913D02*
X14420952Y-8869437D01*
X14420952Y-8869437D02*
X14430476Y-8888484D01*
X14430476Y-8888484D02*
X14430476Y-8993246D01*
X14430476Y-8888484D02*
X14440000Y-8869437D01*
X14440000Y-8869437D02*
X14459047Y-8859913D01*
X14459047Y-8859913D02*
X14487619Y-8859913D01*
X14487619Y-8859913D02*
X14506667Y-8869437D01*
X14506667Y-8869437D02*
X14516190Y-8888484D01*
X14516190Y-8888484D02*
X14516190Y-8993246D01*
X14611428Y-8993246D02*
X14611428Y-8859913D01*
X14611428Y-8878961D02*
X14620952Y-8869437D01*
X14620952Y-8869437D02*
X14640000Y-8859913D01*
X14640000Y-8859913D02*
X14668571Y-8859913D01*
X14668571Y-8859913D02*
X14687619Y-8869437D01*
X14687619Y-8869437D02*
X14697143Y-8888484D01*
X14697143Y-8888484D02*
X14697143Y-8993246D01*
X14697143Y-8888484D02*
X14706667Y-8869437D01*
X14706667Y-8869437D02*
X14725714Y-8859913D01*
X14725714Y-8859913D02*
X14754286Y-8859913D01*
X14754286Y-8859913D02*
X14773333Y-8869437D01*
X14773333Y-8869437D02*
X14782857Y-8888484D01*
X14782857Y-8888484D02*
X14782857Y-8993246D01*
X15140952Y-8783723D02*
X14969524Y-9040865D01*
X15365714Y-8793246D02*
X15384762Y-8793246D01*
X15384762Y-8793246D02*
X15403809Y-8802770D01*
X15403809Y-8802770D02*
X15413333Y-8812294D01*
X15413333Y-8812294D02*
X15422857Y-8831342D01*
X15422857Y-8831342D02*
X15432381Y-8869437D01*
X15432381Y-8869437D02*
X15432381Y-8917056D01*
X15432381Y-8917056D02*
X15422857Y-8955151D01*
X15422857Y-8955151D02*
X15413333Y-8974199D01*
X15413333Y-8974199D02*
X15403809Y-8983723D01*
X15403809Y-8983723D02*
X15384762Y-8993246D01*
X15384762Y-8993246D02*
X15365714Y-8993246D01*
X15365714Y-8993246D02*
X15346667Y-8983723D01*
X15346667Y-8983723D02*
X15337143Y-8974199D01*
X15337143Y-8974199D02*
X15327619Y-8955151D01*
X15327619Y-8955151D02*
X15318095Y-8917056D01*
X15318095Y-8917056D02*
X15318095Y-8869437D01*
X15318095Y-8869437D02*
X15327619Y-8831342D01*
X15327619Y-8831342D02*
X15337143Y-8812294D01*
X15337143Y-8812294D02*
X15346667Y-8802770D01*
X15346667Y-8802770D02*
X15365714Y-8793246D01*
X15518095Y-8974199D02*
X15527619Y-8983723D01*
X15527619Y-8983723D02*
X15518095Y-8993246D01*
X15518095Y-8993246D02*
X15508571Y-8983723D01*
X15508571Y-8983723D02*
X15518095Y-8974199D01*
X15518095Y-8974199D02*
X15518095Y-8993246D01*
X15651428Y-8793246D02*
X15670476Y-8793246D01*
X15670476Y-8793246D02*
X15689524Y-8802770D01*
X15689524Y-8802770D02*
X15699048Y-8812294D01*
X15699048Y-8812294D02*
X15708571Y-8831342D01*
X15708571Y-8831342D02*
X15718095Y-8869437D01*
X15718095Y-8869437D02*
X15718095Y-8917056D01*
X15718095Y-8917056D02*
X15708571Y-8955151D01*
X15708571Y-8955151D02*
X15699048Y-8974199D01*
X15699048Y-8974199D02*
X15689524Y-8983723D01*
X15689524Y-8983723D02*
X15670476Y-8993246D01*
X15670476Y-8993246D02*
X15651428Y-8993246D01*
X15651428Y-8993246D02*
X15632381Y-8983723D01*
X15632381Y-8983723D02*
X15622857Y-8974199D01*
X15622857Y-8974199D02*
X15613333Y-8955151D01*
X15613333Y-8955151D02*
X15603809Y-8917056D01*
X15603809Y-8917056D02*
X15603809Y-8869437D01*
X15603809Y-8869437D02*
X15613333Y-8831342D01*
X15613333Y-8831342D02*
X15622857Y-8812294D01*
X15622857Y-8812294D02*
X15632381Y-8802770D01*
X15632381Y-8802770D02*
X15651428Y-8793246D01*
X15794286Y-8812294D02*
X15803809Y-8802770D01*
X15803809Y-8802770D02*
X15822857Y-8793246D01*
X15822857Y-8793246D02*
X15870476Y-8793246D01*
X15870476Y-8793246D02*
X15889524Y-8802770D01*
X15889524Y-8802770D02*
X15899048Y-8812294D01*
X15899048Y-8812294D02*
X15908571Y-8831342D01*
X15908571Y-8831342D02*
X15908571Y-8850389D01*
X15908571Y-8850389D02*
X15899048Y-8878961D01*
X15899048Y-8878961D02*
X15784762Y-8993246D01*
X15784762Y-8993246D02*
X15908571Y-8993246D01*
X15975238Y-8793246D02*
X16099048Y-8793246D01*
X16099048Y-8793246D02*
X16032381Y-8869437D01*
X16032381Y-8869437D02*
X16060952Y-8869437D01*
X16060952Y-8869437D02*
X16080000Y-8878961D01*
X16080000Y-8878961D02*
X16089524Y-8888484D01*
X16089524Y-8888484D02*
X16099048Y-8907532D01*
X16099048Y-8907532D02*
X16099048Y-8955151D01*
X16099048Y-8955151D02*
X16089524Y-8974199D01*
X16089524Y-8974199D02*
X16080000Y-8983723D01*
X16080000Y-8983723D02*
X16060952Y-8993246D01*
X16060952Y-8993246D02*
X16003809Y-8993246D01*
X16003809Y-8993246D02*
X15984762Y-8983723D01*
X15984762Y-8983723D02*
X15975238Y-8974199D01*
X16270476Y-8793246D02*
X16232381Y-8793246D01*
X16232381Y-8793246D02*
X16213333Y-8802770D01*
X16213333Y-8802770D02*
X16203809Y-8812294D01*
X16203809Y-8812294D02*
X16184762Y-8840865D01*
X16184762Y-8840865D02*
X16175238Y-8878961D01*
X16175238Y-8878961D02*
X16175238Y-8955151D01*
X16175238Y-8955151D02*
X16184762Y-8974199D01*
X16184762Y-8974199D02*
X16194286Y-8983723D01*
X16194286Y-8983723D02*
X16213333Y-8993246D01*
X16213333Y-8993246D02*
X16251429Y-8993246D01*
X16251429Y-8993246D02*
X16270476Y-8983723D01*
X16270476Y-8983723D02*
X16280000Y-8974199D01*
X16280000Y-8974199D02*
X16289524Y-8955151D01*
X16289524Y-8955151D02*
X16289524Y-8907532D01*
X16289524Y-8907532D02*
X16280000Y-8888484D01*
X16280000Y-8888484D02*
X16270476Y-8878961D01*
X16270476Y-8878961D02*
X16251429Y-8869437D01*
X16251429Y-8869437D02*
X16213333Y-8869437D01*
X16213333Y-8869437D02*
X16194286Y-8878961D01*
X16194286Y-8878961D02*
X16184762Y-8888484D01*
X16184762Y-8888484D02*
X16175238Y-8907532D01*
X16365714Y-8793246D02*
X16365714Y-8831342D01*
X16441905Y-8793246D02*
X16441905Y-8831342D01*
X16704762Y-9069437D02*
X16695238Y-9059913D01*
X16695238Y-9059913D02*
X16676190Y-9031342D01*
X16676190Y-9031342D02*
X16666667Y-9012294D01*
X16666667Y-9012294D02*
X16657143Y-8983723D01*
X16657143Y-8983723D02*
X16647619Y-8936104D01*
X16647619Y-8936104D02*
X16647619Y-8898008D01*
X16647619Y-8898008D02*
X16657143Y-8850389D01*
X16657143Y-8850389D02*
X16666667Y-8821818D01*
X16666667Y-8821818D02*
X16676190Y-8802770D01*
X16676190Y-8802770D02*
X16695238Y-8774199D01*
X16695238Y-8774199D02*
X16704762Y-8764675D01*
X16819048Y-8793246D02*
X16838095Y-8793246D01*
X16838095Y-8793246D02*
X16857143Y-8802770D01*
X16857143Y-8802770D02*
X16866667Y-8812294D01*
X16866667Y-8812294D02*
X16876191Y-8831342D01*
X16876191Y-8831342D02*
X16885714Y-8869437D01*
X16885714Y-8869437D02*
X16885714Y-8917056D01*
X16885714Y-8917056D02*
X16876191Y-8955151D01*
X16876191Y-8955151D02*
X16866667Y-8974199D01*
X16866667Y-8974199D02*
X16857143Y-8983723D01*
X16857143Y-8983723D02*
X16838095Y-8993246D01*
X16838095Y-8993246D02*
X16819048Y-8993246D01*
X16819048Y-8993246D02*
X16800000Y-8983723D01*
X16800000Y-8983723D02*
X16790476Y-8974199D01*
X16790476Y-8974199D02*
X16780952Y-8955151D01*
X16780952Y-8955151D02*
X16771429Y-8917056D01*
X16771429Y-8917056D02*
X16771429Y-8869437D01*
X16771429Y-8869437D02*
X16780952Y-8831342D01*
X16780952Y-8831342D02*
X16790476Y-8812294D01*
X16790476Y-8812294D02*
X16800000Y-8802770D01*
X16800000Y-8802770D02*
X16819048Y-8793246D01*
X17091429Y-8993246D02*
X17091429Y-8793246D01*
X17177143Y-8993246D02*
X17177143Y-8888484D01*
X17177143Y-8888484D02*
X17167619Y-8869437D01*
X17167619Y-8869437D02*
X17148572Y-8859913D01*
X17148572Y-8859913D02*
X17120000Y-8859913D01*
X17120000Y-8859913D02*
X17100952Y-8869437D01*
X17100952Y-8869437D02*
X17091429Y-8878961D01*
X17300952Y-8993246D02*
X17281905Y-8983723D01*
X17281905Y-8983723D02*
X17272381Y-8974199D01*
X17272381Y-8974199D02*
X17262857Y-8955151D01*
X17262857Y-8955151D02*
X17262857Y-8898008D01*
X17262857Y-8898008D02*
X17272381Y-8878961D01*
X17272381Y-8878961D02*
X17281905Y-8869437D01*
X17281905Y-8869437D02*
X17300952Y-8859913D01*
X17300952Y-8859913D02*
X17329524Y-8859913D01*
X17329524Y-8859913D02*
X17348572Y-8869437D01*
X17348572Y-8869437D02*
X17358095Y-8878961D01*
X17358095Y-8878961D02*
X17367619Y-8898008D01*
X17367619Y-8898008D02*
X17367619Y-8955151D01*
X17367619Y-8955151D02*
X17358095Y-8974199D01*
X17358095Y-8974199D02*
X17348572Y-8983723D01*
X17348572Y-8983723D02*
X17329524Y-8993246D01*
X17329524Y-8993246D02*
X17300952Y-8993246D01*
X17481905Y-8993246D02*
X17462857Y-8983723D01*
X17462857Y-8983723D02*
X17453333Y-8964675D01*
X17453333Y-8964675D02*
X17453333Y-8793246D01*
X17634286Y-8983723D02*
X17615238Y-8993246D01*
X17615238Y-8993246D02*
X17577143Y-8993246D01*
X17577143Y-8993246D02*
X17558095Y-8983723D01*
X17558095Y-8983723D02*
X17548572Y-8964675D01*
X17548572Y-8964675D02*
X17548572Y-8888484D01*
X17548572Y-8888484D02*
X17558095Y-8869437D01*
X17558095Y-8869437D02*
X17577143Y-8859913D01*
X17577143Y-8859913D02*
X17615238Y-8859913D01*
X17615238Y-8859913D02*
X17634286Y-8869437D01*
X17634286Y-8869437D02*
X17643810Y-8888484D01*
X17643810Y-8888484D02*
X17643810Y-8907532D01*
X17643810Y-8907532D02*
X17548572Y-8926580D01*
X17720000Y-8983723D02*
X17739048Y-8993246D01*
X17739048Y-8993246D02*
X17777143Y-8993246D01*
X17777143Y-8993246D02*
X17796191Y-8983723D01*
X17796191Y-8983723D02*
X17805714Y-8964675D01*
X17805714Y-8964675D02*
X17805714Y-8955151D01*
X17805714Y-8955151D02*
X17796191Y-8936104D01*
X17796191Y-8936104D02*
X17777143Y-8926580D01*
X17777143Y-8926580D02*
X17748572Y-8926580D01*
X17748572Y-8926580D02*
X17729524Y-8917056D01*
X17729524Y-8917056D02*
X17720000Y-8898008D01*
X17720000Y-8898008D02*
X17720000Y-8888484D01*
X17720000Y-8888484D02*
X17729524Y-8869437D01*
X17729524Y-8869437D02*
X17748572Y-8859913D01*
X17748572Y-8859913D02*
X17777143Y-8859913D01*
X17777143Y-8859913D02*
X17796191Y-8869437D01*
X18011429Y-8917056D02*
X18163810Y-8917056D01*
X18087619Y-8993246D02*
X18087619Y-8840865D01*
X18407619Y-8878961D02*
X18388572Y-8869437D01*
X18388572Y-8869437D02*
X18379048Y-8859913D01*
X18379048Y-8859913D02*
X18369524Y-8840865D01*
X18369524Y-8840865D02*
X18369524Y-8831342D01*
X18369524Y-8831342D02*
X18379048Y-8812294D01*
X18379048Y-8812294D02*
X18388572Y-8802770D01*
X18388572Y-8802770D02*
X18407619Y-8793246D01*
X18407619Y-8793246D02*
X18445714Y-8793246D01*
X18445714Y-8793246D02*
X18464762Y-8802770D01*
X18464762Y-8802770D02*
X18474286Y-8812294D01*
X18474286Y-8812294D02*
X18483810Y-8831342D01*
X18483810Y-8831342D02*
X18483810Y-8840865D01*
X18483810Y-8840865D02*
X18474286Y-8859913D01*
X18474286Y-8859913D02*
X18464762Y-8869437D01*
X18464762Y-8869437D02*
X18445714Y-8878961D01*
X18445714Y-8878961D02*
X18407619Y-8878961D01*
X18407619Y-8878961D02*
X18388572Y-8888484D01*
X18388572Y-8888484D02*
X18379048Y-8898008D01*
X18379048Y-8898008D02*
X18369524Y-8917056D01*
X18369524Y-8917056D02*
X18369524Y-8955151D01*
X18369524Y-8955151D02*
X18379048Y-8974199D01*
X18379048Y-8974199D02*
X18388572Y-8983723D01*
X18388572Y-8983723D02*
X18407619Y-8993246D01*
X18407619Y-8993246D02*
X18445714Y-8993246D01*
X18445714Y-8993246D02*
X18464762Y-8983723D01*
X18464762Y-8983723D02*
X18474286Y-8974199D01*
X18474286Y-8974199D02*
X18483810Y-8955151D01*
X18483810Y-8955151D02*
X18483810Y-8917056D01*
X18483810Y-8917056D02*
X18474286Y-8898008D01*
X18474286Y-8898008D02*
X18464762Y-8888484D01*
X18464762Y-8888484D02*
X18445714Y-8878961D01*
X18680000Y-8983723D02*
X18699048Y-8993246D01*
X18699048Y-8993246D02*
X18737143Y-8993246D01*
X18737143Y-8993246D02*
X18756191Y-8983723D01*
X18756191Y-8983723D02*
X18765714Y-8964675D01*
X18765714Y-8964675D02*
X18765714Y-8955151D01*
X18765714Y-8955151D02*
X18756191Y-8936104D01*
X18756191Y-8936104D02*
X18737143Y-8926580D01*
X18737143Y-8926580D02*
X18708572Y-8926580D01*
X18708572Y-8926580D02*
X18689524Y-8917056D01*
X18689524Y-8917056D02*
X18680000Y-8898008D01*
X18680000Y-8898008D02*
X18680000Y-8888484D01*
X18680000Y-8888484D02*
X18689524Y-8869437D01*
X18689524Y-8869437D02*
X18708572Y-8859913D01*
X18708572Y-8859913D02*
X18737143Y-8859913D01*
X18737143Y-8859913D02*
X18756191Y-8869437D01*
X18880000Y-8993246D02*
X18860953Y-8983723D01*
X18860953Y-8983723D02*
X18851429Y-8964675D01*
X18851429Y-8964675D02*
X18851429Y-8793246D01*
X18984762Y-8993246D02*
X18965714Y-8983723D01*
X18965714Y-8983723D02*
X18956191Y-8974199D01*
X18956191Y-8974199D02*
X18946667Y-8955151D01*
X18946667Y-8955151D02*
X18946667Y-8898008D01*
X18946667Y-8898008D02*
X18956191Y-8878961D01*
X18956191Y-8878961D02*
X18965714Y-8869437D01*
X18965714Y-8869437D02*
X18984762Y-8859913D01*
X18984762Y-8859913D02*
X19013334Y-8859913D01*
X19013334Y-8859913D02*
X19032381Y-8869437D01*
X19032381Y-8869437D02*
X19041905Y-8878961D01*
X19041905Y-8878961D02*
X19051429Y-8898008D01*
X19051429Y-8898008D02*
X19051429Y-8955151D01*
X19051429Y-8955151D02*
X19041905Y-8974199D01*
X19041905Y-8974199D02*
X19032381Y-8983723D01*
X19032381Y-8983723D02*
X19013334Y-8993246D01*
X19013334Y-8993246D02*
X18984762Y-8993246D01*
X19108572Y-8859913D02*
X19184762Y-8859913D01*
X19137143Y-8793246D02*
X19137143Y-8964675D01*
X19137143Y-8964675D02*
X19146667Y-8983723D01*
X19146667Y-8983723D02*
X19165714Y-8993246D01*
X19165714Y-8993246D02*
X19184762Y-8993246D01*
X19241905Y-8983723D02*
X19260953Y-8993246D01*
X19260953Y-8993246D02*
X19299048Y-8993246D01*
X19299048Y-8993246D02*
X19318095Y-8983723D01*
X19318095Y-8983723D02*
X19327619Y-8964675D01*
X19327619Y-8964675D02*
X19327619Y-8955151D01*
X19327619Y-8955151D02*
X19318095Y-8936104D01*
X19318095Y-8936104D02*
X19299048Y-8926580D01*
X19299048Y-8926580D02*
X19270476Y-8926580D01*
X19270476Y-8926580D02*
X19251429Y-8917056D01*
X19251429Y-8917056D02*
X19241905Y-8898008D01*
X19241905Y-8898008D02*
X19241905Y-8888484D01*
X19241905Y-8888484D02*
X19251429Y-8869437D01*
X19251429Y-8869437D02*
X19270476Y-8859913D01*
X19270476Y-8859913D02*
X19299048Y-8859913D01*
X19299048Y-8859913D02*
X19318095Y-8869437D01*
X19394286Y-9069437D02*
X19403810Y-9059913D01*
X19403810Y-9059913D02*
X19422857Y-9031342D01*
X19422857Y-9031342D02*
X19432381Y-9012294D01*
X19432381Y-9012294D02*
X19441905Y-8983723D01*
X19441905Y-8983723D02*
X19451429Y-8936104D01*
X19451429Y-8936104D02*
X19451429Y-8898008D01*
X19451429Y-8898008D02*
X19441905Y-8850389D01*
X19441905Y-8850389D02*
X19432381Y-8821818D01*
X19432381Y-8821818D02*
X19422857Y-8802770D01*
X19422857Y-8802770D02*
X19403810Y-8774199D01*
X19403810Y-8774199D02*
X19394286Y-8764675D01*
M02*
