G04 #@! TF.GenerationSoftware,KiCad,Pcbnew,(7.0.0-0)*
G04 #@! TF.CreationDate,2024-01-25T23:02:32+08:00*
G04 #@! TF.ProjectId,SWDProgrammer,53574450-726f-4677-9261-6d6d65722e6b,rev?*
G04 #@! TF.SameCoordinates,Original*
G04 #@! TF.FileFunction,Copper,L2,Inr*
G04 #@! TF.FilePolarity,Positive*
%FSLAX46Y46*%
G04 Gerber Fmt 4.6, Leading zero omitted, Abs format (unit mm)*
G04 Created by KiCad (PCBNEW (7.0.0-0)) date 2024-01-25 23:02:32*
%MOMM*%
%LPD*%
G01*
G04 APERTURE LIST*
G04 Aperture macros list*
%AMHorizOval*
0 Thick line with rounded ends*
0 $1 width*
0 $2 $3 position (X,Y) of the first rounded end (center of the circle)*
0 $4 $5 position (X,Y) of the second rounded end (center of the circle)*
0 Add line between two ends*
20,1,$1,$2,$3,$4,$5,0*
0 Add two circle primitives to create the rounded ends*
1,1,$1,$2,$3*
1,1,$1,$4,$5*%
G04 Aperture macros list end*
G04 #@! TA.AperFunction,ComponentPad*
%ADD10HorizOval,1.000000X-0.508829X0.317952X0.508829X-0.317952X0*%
G04 #@! TD*
G04 #@! TA.AperFunction,ComponentPad*
%ADD11HorizOval,1.000000X-0.339219X0.211968X0.339219X-0.211968X0*%
G04 #@! TD*
G04 #@! TA.AperFunction,ComponentPad*
%ADD12HorizOval,1.000000X0.594161X0.083504X-0.594161X-0.083504X0*%
G04 #@! TD*
G04 #@! TA.AperFunction,ComponentPad*
%ADD13HorizOval,1.000000X0.396107X0.055669X-0.396107X-0.055669X0*%
G04 #@! TD*
G04 #@! TA.AperFunction,ViaPad*
%ADD14C,0.450000*%
G04 #@! TD*
G04 #@! TA.AperFunction,Conductor*
%ADD15C,0.100000*%
G04 #@! TD*
G04 APERTURE END LIST*
D10*
X148316797Y-78015415D03*
X154225715Y-68559170D03*
D11*
X151003291Y-66545222D03*
X145094215Y-76001721D03*
D12*
X155581179Y-62080248D03*
X154029316Y-51038164D03*
D13*
X150266255Y-51566725D03*
X151818161Y-62609105D03*
D14*
X143233206Y-58795658D03*
X145250000Y-71450000D03*
X146075000Y-67900000D03*
X140250000Y-67000000D03*
X145250000Y-54500000D03*
X137950000Y-69250000D03*
X136625000Y-61874500D03*
X147900000Y-65275000D03*
X137700000Y-60550000D03*
X138325000Y-60500000D03*
X141050000Y-70600000D03*
X143771839Y-58904409D03*
X147750000Y-66450000D03*
X149800000Y-61600000D03*
X136900000Y-68400000D03*
X142820000Y-58250000D03*
X138300000Y-67350000D03*
X147850000Y-68450000D03*
X143800000Y-73200000D03*
X146150000Y-57050000D03*
X140200000Y-61000000D03*
X146000000Y-69600000D03*
X146550000Y-70450000D03*
X147100000Y-69700000D03*
X149750000Y-64600000D03*
X149800000Y-63500000D03*
X150000000Y-59700000D03*
X134884560Y-61947724D03*
X149300000Y-54900000D03*
X146175000Y-55725000D03*
X147750000Y-63500000D03*
X139850000Y-63400000D03*
X141250000Y-61800000D03*
X141250000Y-63100000D03*
X149500000Y-57050000D03*
X149300000Y-58050000D03*
X134349999Y-62075001D03*
X148750000Y-57500000D03*
X137200000Y-61975000D03*
X132975000Y-61000000D03*
X139750000Y-58449500D03*
X134350000Y-61525499D03*
X145450000Y-62850000D03*
X133775000Y-61825000D03*
X143300000Y-66900000D03*
X135785499Y-61885780D03*
X143475000Y-52650000D03*
D15*
X146550000Y-70450000D02*
X146550000Y-70150000D01*
X146550000Y-70250000D02*
X147100000Y-69700000D01*
X146550000Y-70150000D02*
X146000000Y-69600000D01*
X146550000Y-70450000D02*
X146550000Y-70250000D01*
X146850000Y-64400000D02*
X140850000Y-64400000D01*
X147750000Y-63500000D02*
X146850000Y-64400000D01*
X140850000Y-64400000D02*
X139850000Y-63400000D01*
X138850000Y-60725000D02*
X138450000Y-61125000D01*
X138450000Y-61125000D02*
X133100000Y-61125000D01*
X138850000Y-59349500D02*
X138850000Y-60725000D01*
X139750000Y-58449500D02*
X138850000Y-59349500D01*
X133100000Y-61125000D02*
X132975000Y-61000000D01*
X135300000Y-61775000D02*
X135300000Y-62143495D01*
X141500000Y-64050000D02*
X144250000Y-64050000D01*
X135050499Y-61525499D02*
X135300000Y-61775000D01*
X134350000Y-61525499D02*
X135050499Y-61525499D01*
X135300000Y-62143495D02*
X135506505Y-62350000D01*
X139800000Y-62350000D02*
X141500000Y-64050000D01*
X144250000Y-64050000D02*
X145450000Y-62850000D01*
X135506505Y-62350000D02*
X139800000Y-62350000D01*
X142775000Y-66900000D02*
X138425000Y-62550000D01*
X134250000Y-62550000D02*
X133775000Y-62075000D01*
X138425000Y-62550000D02*
X134250000Y-62550000D01*
X133775000Y-62075000D02*
X133775000Y-61825000D01*
X143300000Y-66900000D02*
X142775000Y-66900000D01*
X135785499Y-61885780D02*
X136346279Y-61325000D01*
X136346279Y-61325000D02*
X138532842Y-61325000D01*
X138532842Y-61325000D02*
X143475000Y-56382842D01*
X143475000Y-56382842D02*
X143475000Y-52650000D01*
G04 #@! TA.AperFunction,Conductor*
G36*
X154616968Y-49385296D02*
G01*
X154637541Y-49413109D01*
X154830523Y-49868360D01*
X154831282Y-49870219D01*
X154985776Y-50264084D01*
X154989365Y-50306032D01*
X154969493Y-50343149D01*
X154932593Y-50363420D01*
X154890608Y-50360283D01*
X154782006Y-50319028D01*
X154782001Y-50319027D01*
X154777653Y-50317375D01*
X154773031Y-50316856D01*
X154773025Y-50316855D01*
X154618950Y-50299574D01*
X154614323Y-50299055D01*
X154609720Y-50299701D01*
X154609712Y-50299702D01*
X153306399Y-50482871D01*
X153306391Y-50482872D01*
X153304097Y-50483195D01*
X153301860Y-50483802D01*
X153301849Y-50483805D01*
X153189790Y-50514251D01*
X153189782Y-50514254D01*
X153185300Y-50515472D01*
X153181260Y-50517766D01*
X153181255Y-50517769D01*
X153046439Y-50594355D01*
X153046435Y-50594357D01*
X153042395Y-50596653D01*
X153039052Y-50599881D01*
X153039047Y-50599885D01*
X152927516Y-50707589D01*
X152927512Y-50707593D01*
X152924167Y-50710824D01*
X152921730Y-50714785D01*
X152921727Y-50714789D01*
X152840488Y-50846840D01*
X152840484Y-50846847D01*
X152838048Y-50850808D01*
X152836672Y-50855251D01*
X152836670Y-50855257D01*
X152790823Y-51003366D01*
X152790822Y-51003370D01*
X152789447Y-51007813D01*
X152789219Y-51012455D01*
X152789219Y-51012461D01*
X152782567Y-51148491D01*
X152781419Y-51171971D01*
X152782353Y-51176524D01*
X152782354Y-51176528D01*
X152813530Y-51328408D01*
X152813531Y-51328413D01*
X152814467Y-51332969D01*
X152816506Y-51337150D01*
X152816508Y-51337155D01*
X152871042Y-51448965D01*
X152886515Y-51480690D01*
X152889530Y-51484232D01*
X152889531Y-51484234D01*
X152952788Y-51558560D01*
X152993037Y-51605852D01*
X153127338Y-51700591D01*
X153280981Y-51758955D01*
X153444311Y-51777275D01*
X154754537Y-51593135D01*
X154873334Y-51560858D01*
X155016239Y-51479677D01*
X155134466Y-51365506D01*
X155216234Y-51232593D01*
X155246964Y-51204790D01*
X155287825Y-51197867D01*
X155326000Y-51213999D01*
X155349515Y-51248125D01*
X155469640Y-51611176D01*
X155470801Y-51653810D01*
X155448238Y-51690004D01*
X155409447Y-51707734D01*
X149930605Y-52459596D01*
X149930437Y-52459600D01*
X149930100Y-52459493D01*
X149929087Y-52459635D01*
X149929082Y-52459636D01*
X149885084Y-52465843D01*
X149884813Y-52465880D01*
X149864145Y-52468717D01*
X149864138Y-52468718D01*
X149863157Y-52468853D01*
X149862833Y-52468974D01*
X149862696Y-52469001D01*
X149847726Y-52471114D01*
X149847725Y-52471114D01*
X149839472Y-52472279D01*
X149832540Y-52476909D01*
X149832536Y-52476911D01*
X149827564Y-52480232D01*
X149812593Y-52487928D01*
X149807005Y-52490036D01*
X149806998Y-52490039D01*
X149799202Y-52492982D01*
X149793453Y-52499015D01*
X149793451Y-52499017D01*
X149788602Y-52504107D01*
X149776140Y-52514587D01*
X149770300Y-52518488D01*
X149770294Y-52518493D01*
X149763367Y-52523122D01*
X149759133Y-52530296D01*
X149759130Y-52530300D01*
X149756091Y-52535452D01*
X149745940Y-52548884D01*
X149741817Y-52553211D01*
X149741814Y-52553214D01*
X149736068Y-52559247D01*
X149733506Y-52567177D01*
X149733505Y-52567179D01*
X149731345Y-52573865D01*
X149724665Y-52588713D01*
X149721094Y-52594765D01*
X149721092Y-52594769D01*
X149716857Y-52601949D01*
X149716155Y-52610257D01*
X149716155Y-52610258D01*
X149715652Y-52616213D01*
X149712334Y-52632722D01*
X149710498Y-52638406D01*
X149710497Y-52638409D01*
X149707936Y-52646341D01*
X149709068Y-52654595D01*
X149709068Y-52654601D01*
X149711121Y-52669562D01*
X149711134Y-52669722D01*
X149711106Y-52670062D01*
X149711241Y-52671023D01*
X149711243Y-52671040D01*
X149714216Y-52692110D01*
X149720379Y-52737017D01*
X149720575Y-52737313D01*
X149720616Y-52737472D01*
X150972013Y-61607283D01*
X150972013Y-61607299D01*
X150972006Y-61607327D01*
X150972017Y-61607411D01*
X150972018Y-61607413D01*
X150978224Y-61651300D01*
X150978227Y-61651322D01*
X150981547Y-61674857D01*
X150981549Y-61674867D01*
X150981560Y-61674944D01*
X150981572Y-61674975D01*
X150984821Y-61697951D01*
X150992840Y-61709947D01*
X150993042Y-61710249D01*
X151000655Y-61724984D01*
X151002957Y-61731016D01*
X151002958Y-61731018D01*
X151005931Y-61738807D01*
X151011989Y-61744535D01*
X151016740Y-61749028D01*
X151027415Y-61761668D01*
X151031050Y-61767105D01*
X151031052Y-61767107D01*
X151035687Y-61774040D01*
X151042869Y-61778274D01*
X151042870Y-61778275D01*
X151048427Y-61781551D01*
X151061687Y-61791528D01*
X151064563Y-61794248D01*
X151072434Y-61801690D01*
X151086604Y-61806207D01*
X151101709Y-61812966D01*
X151107342Y-61816287D01*
X151107344Y-61816287D01*
X151114529Y-61820524D01*
X151129263Y-61821763D01*
X151145542Y-61825000D01*
X151149476Y-61826254D01*
X151159634Y-61829493D01*
X151182610Y-61826251D01*
X151182644Y-61826254D01*
X151206653Y-61822858D01*
X151250262Y-61816706D01*
X151250287Y-61816688D01*
X151250290Y-61816687D01*
X156708303Y-61044881D01*
X156750726Y-61051459D01*
X156782359Y-61080486D01*
X156792552Y-61122191D01*
X156772051Y-61497248D01*
X156757068Y-61537997D01*
X156721807Y-61563329D01*
X156678407Y-61564524D01*
X156641807Y-61541170D01*
X156620476Y-61516105D01*
X156620473Y-61516102D01*
X156617460Y-61512562D01*
X156607589Y-61505599D01*
X156486964Y-61420507D01*
X156486963Y-61420506D01*
X156483159Y-61417823D01*
X156478808Y-61416170D01*
X156478804Y-61416168D01*
X156333869Y-61361112D01*
X156333864Y-61361111D01*
X156329516Y-61359459D01*
X156324894Y-61358940D01*
X156324888Y-61358939D01*
X156170813Y-61341658D01*
X156166186Y-61341139D01*
X156161583Y-61341785D01*
X156161575Y-61341786D01*
X154858262Y-61524955D01*
X154858254Y-61524956D01*
X154855960Y-61525279D01*
X154853723Y-61525886D01*
X154853712Y-61525889D01*
X154741653Y-61556335D01*
X154741645Y-61556338D01*
X154737163Y-61557556D01*
X154733123Y-61559850D01*
X154733118Y-61559853D01*
X154598302Y-61636439D01*
X154598298Y-61636441D01*
X154594258Y-61638737D01*
X154590915Y-61641965D01*
X154590910Y-61641969D01*
X154479379Y-61749673D01*
X154479375Y-61749677D01*
X154476030Y-61752908D01*
X154473593Y-61756869D01*
X154473590Y-61756873D01*
X154392351Y-61888924D01*
X154392347Y-61888931D01*
X154389911Y-61892892D01*
X154388535Y-61897335D01*
X154388533Y-61897341D01*
X154342686Y-62045450D01*
X154342685Y-62045454D01*
X154341310Y-62049897D01*
X154341082Y-62054539D01*
X154341082Y-62054545D01*
X154333786Y-62203740D01*
X154333282Y-62214055D01*
X154334216Y-62218608D01*
X154334217Y-62218612D01*
X154365393Y-62370492D01*
X154365394Y-62370497D01*
X154366330Y-62375053D01*
X154368369Y-62379234D01*
X154368371Y-62379239D01*
X154421181Y-62487514D01*
X154438378Y-62522774D01*
X154441393Y-62526316D01*
X154441394Y-62526318D01*
X154480421Y-62572174D01*
X154544900Y-62647936D01*
X154679201Y-62742675D01*
X154683554Y-62744328D01*
X154683555Y-62744329D01*
X154697365Y-62749575D01*
X154832844Y-62801039D01*
X154996174Y-62819359D01*
X156306400Y-62635219D01*
X156425197Y-62602942D01*
X156568102Y-62521761D01*
X156571454Y-62518523D01*
X156571621Y-62518399D01*
X156611026Y-62503815D01*
X156652020Y-62513036D01*
X156681385Y-62543089D01*
X156689654Y-62584285D01*
X156663730Y-62872286D01*
X156663451Y-62874874D01*
X156546252Y-63808021D01*
X156545883Y-63810597D01*
X156395939Y-64739088D01*
X156395479Y-64741649D01*
X156212982Y-65664281D01*
X156212432Y-65666825D01*
X155997612Y-66582454D01*
X155996973Y-66584976D01*
X155750091Y-67492484D01*
X155749364Y-67494983D01*
X155470719Y-68393272D01*
X155469904Y-68395744D01*
X155424454Y-68525902D01*
X155400011Y-68559927D01*
X155361009Y-68575227D01*
X155319950Y-68566897D01*
X155289995Y-68537608D01*
X155264561Y-68492100D01*
X155262290Y-68488036D01*
X155148948Y-68369015D01*
X155090409Y-68332436D01*
X154028858Y-67669105D01*
X154028859Y-67669105D01*
X154026893Y-67667877D01*
X154024790Y-67666905D01*
X154024784Y-67666902D01*
X153919370Y-67618194D01*
X153919368Y-67618193D01*
X153915143Y-67616241D01*
X153910563Y-67615400D01*
X153910562Y-67615400D01*
X153758064Y-67587411D01*
X153758057Y-67587410D01*
X153753488Y-67586572D01*
X153748851Y-67586896D01*
X153748848Y-67586896D01*
X153594179Y-67597711D01*
X153594177Y-67597711D01*
X153589534Y-67598036D01*
X153585116Y-67599505D01*
X153585114Y-67599506D01*
X153437999Y-67648444D01*
X153437994Y-67648446D01*
X153433582Y-67649914D01*
X153429673Y-67652432D01*
X153429669Y-67652435D01*
X153299343Y-67736425D01*
X153299338Y-67736428D01*
X153295431Y-67738947D01*
X153292270Y-67742359D01*
X153292268Y-67742362D01*
X153186923Y-67856123D01*
X153186918Y-67856129D01*
X153183762Y-67859538D01*
X153181549Y-67863629D01*
X153181548Y-67863632D01*
X153107804Y-68000018D01*
X153107802Y-68000022D01*
X153105591Y-68004112D01*
X153104467Y-68008619D01*
X153104465Y-68008625D01*
X153066955Y-68159066D01*
X153066954Y-68159071D01*
X153065829Y-68163585D01*
X153065861Y-68168239D01*
X153065861Y-68168244D01*
X153066855Y-68310492D01*
X153066977Y-68327936D01*
X153068166Y-68332436D01*
X153107771Y-68482340D01*
X153107773Y-68482346D01*
X153108960Y-68486837D01*
X153111228Y-68490896D01*
X153111229Y-68490897D01*
X153186870Y-68626242D01*
X153186872Y-68626245D01*
X153189142Y-68630306D01*
X153302484Y-68749327D01*
X154424539Y-69450465D01*
X154536290Y-69502101D01*
X154697944Y-69531771D01*
X154861898Y-69520306D01*
X154948998Y-69491331D01*
X154990275Y-69489752D01*
X155025970Y-69510547D01*
X155044956Y-69547236D01*
X155041315Y-69588386D01*
X154935638Y-69859943D01*
X154909399Y-69893527D01*
X154868989Y-69907070D01*
X154827812Y-69896079D01*
X152392793Y-68393272D01*
X150130661Y-66997165D01*
X150130308Y-66996946D01*
X150099272Y-66977550D01*
X150099271Y-66977549D01*
X150092204Y-66973133D01*
X150083918Y-66972219D01*
X150083917Y-66972219D01*
X150076679Y-66971421D01*
X150060918Y-66967910D01*
X150054021Y-66965559D01*
X150054017Y-66965558D01*
X150046130Y-66962870D01*
X150037856Y-66963869D01*
X150037850Y-66963869D01*
X150032171Y-66964555D01*
X150015199Y-66964644D01*
X150009517Y-66964018D01*
X150009511Y-66964018D01*
X150001230Y-66963106D01*
X149993371Y-66965876D01*
X149993370Y-66965877D01*
X149986496Y-66968301D01*
X149970769Y-66971977D01*
X149963542Y-66972850D01*
X149963539Y-66972850D01*
X149955265Y-66973851D01*
X149948245Y-66978340D01*
X149948238Y-66978343D01*
X149943420Y-66981425D01*
X149928172Y-66988866D01*
X149922779Y-66990768D01*
X149922774Y-66990770D01*
X149914914Y-66993543D01*
X149909034Y-66999450D01*
X149909034Y-66999451D01*
X149903893Y-67004617D01*
X149891321Y-67014750D01*
X149885186Y-67018674D01*
X149885184Y-67018675D01*
X149878163Y-67023167D01*
X149873785Y-67030259D01*
X149873782Y-67030263D01*
X149854555Y-67061415D01*
X149854337Y-67061768D01*
X145086837Y-74690079D01*
X145086705Y-74690245D01*
X145086320Y-74690492D01*
X145085629Y-74691608D01*
X145085627Y-74691612D01*
X145062582Y-74728887D01*
X145062395Y-74729187D01*
X145051465Y-74746676D01*
X145051452Y-74746698D01*
X145050798Y-74747746D01*
X145050653Y-74748158D01*
X145050558Y-74748334D01*
X145042576Y-74761246D01*
X145042574Y-74761251D01*
X145038191Y-74768342D01*
X145037317Y-74776632D01*
X145037317Y-74776635D01*
X145036708Y-74782423D01*
X145033023Y-74798939D01*
X145028378Y-74812319D01*
X145029330Y-74820594D01*
X145029330Y-74820598D01*
X145030152Y-74827735D01*
X145030230Y-74843934D01*
X145028607Y-74859364D01*
X145031415Y-74867207D01*
X145031416Y-74867210D01*
X145033381Y-74872696D01*
X145037226Y-74889175D01*
X145038846Y-74903244D01*
X145047128Y-74916355D01*
X145054232Y-74930925D01*
X145056651Y-74937681D01*
X145056652Y-74937683D01*
X145059463Y-74945532D01*
X145065400Y-74951383D01*
X145065401Y-74951384D01*
X145069546Y-74955469D01*
X145080164Y-74968652D01*
X145083271Y-74973570D01*
X145087727Y-74980623D01*
X145107683Y-74993094D01*
X145107827Y-74993196D01*
X145108148Y-74993512D01*
X145126928Y-75005122D01*
X145165342Y-75029130D01*
X145165801Y-75029180D01*
X145165978Y-75029264D01*
X149834705Y-77915628D01*
X149863002Y-77947608D01*
X149868919Y-77989899D01*
X149850483Y-78028417D01*
X149604245Y-78298587D01*
X149566626Y-78320744D01*
X149523063Y-78317836D01*
X149488722Y-78290878D01*
X149477604Y-78255731D01*
X149476185Y-78255921D01*
X149475569Y-78251310D01*
X149475537Y-78246652D01*
X149433554Y-78087750D01*
X149353372Y-77944281D01*
X149240030Y-77825260D01*
X149212936Y-77808330D01*
X148119940Y-77125350D01*
X148119941Y-77125350D01*
X148117975Y-77124122D01*
X148115872Y-77123150D01*
X148115866Y-77123147D01*
X148010452Y-77074439D01*
X148010450Y-77074438D01*
X148006225Y-77072486D01*
X148001645Y-77071645D01*
X148001644Y-77071645D01*
X147849146Y-77043656D01*
X147849139Y-77043655D01*
X147844570Y-77042817D01*
X147839933Y-77043141D01*
X147839930Y-77043141D01*
X147685261Y-77053956D01*
X147685259Y-77053956D01*
X147680616Y-77054281D01*
X147676198Y-77055750D01*
X147676196Y-77055751D01*
X147529081Y-77104689D01*
X147529076Y-77104691D01*
X147524664Y-77106159D01*
X147520755Y-77108677D01*
X147520751Y-77108680D01*
X147390425Y-77192670D01*
X147390420Y-77192673D01*
X147386513Y-77195192D01*
X147383352Y-77198604D01*
X147383350Y-77198607D01*
X147278005Y-77312368D01*
X147278000Y-77312374D01*
X147274844Y-77315783D01*
X147272631Y-77319874D01*
X147272630Y-77319877D01*
X147198886Y-77456263D01*
X147198884Y-77456267D01*
X147196673Y-77460357D01*
X147195549Y-77464864D01*
X147195547Y-77464870D01*
X147158037Y-77615311D01*
X147158036Y-77615316D01*
X147156911Y-77619830D01*
X147156943Y-77624484D01*
X147156943Y-77624489D01*
X147157977Y-77772467D01*
X147158059Y-77784181D01*
X147159248Y-77788681D01*
X147198853Y-77938585D01*
X147198855Y-77938591D01*
X147200042Y-77943082D01*
X147202310Y-77947141D01*
X147202311Y-77947142D01*
X147277952Y-78082487D01*
X147277954Y-78082490D01*
X147280224Y-78086551D01*
X147393566Y-78205572D01*
X148515621Y-78906710D01*
X148627372Y-78958346D01*
X148772597Y-78985000D01*
X148808462Y-79002531D01*
X148830002Y-79036142D01*
X148830947Y-79076052D01*
X148811022Y-79110645D01*
X148496419Y-79418845D01*
X148494903Y-79420289D01*
X148127983Y-79759939D01*
X148095531Y-79777457D01*
X148058654Y-79777137D01*
X148026511Y-79759059D01*
X145060799Y-76916695D01*
X145040204Y-76881189D01*
X145041700Y-76840169D01*
X145064826Y-76806257D01*
X145102467Y-76789887D01*
X145143042Y-76796095D01*
X145230949Y-76836714D01*
X145230952Y-76836715D01*
X145235179Y-76838668D01*
X145396834Y-76868337D01*
X145560788Y-76856873D01*
X145716740Y-76804995D01*
X145854891Y-76715963D01*
X145966560Y-76595371D01*
X146044731Y-76450797D01*
X146084493Y-76291324D01*
X146083345Y-76126974D01*
X146041362Y-75968072D01*
X145961180Y-75824603D01*
X145847838Y-75705582D01*
X145065004Y-75216412D01*
X145022949Y-75196980D01*
X144957479Y-75166728D01*
X144957474Y-75166726D01*
X144953253Y-75164776D01*
X144948671Y-75163935D01*
X144796174Y-75135946D01*
X144796167Y-75135945D01*
X144791598Y-75135107D01*
X144786961Y-75135431D01*
X144786958Y-75135431D01*
X144632289Y-75146246D01*
X144632287Y-75146246D01*
X144627644Y-75146571D01*
X144623226Y-75148040D01*
X144623224Y-75148041D01*
X144476108Y-75196980D01*
X144476105Y-75196981D01*
X144471693Y-75198449D01*
X144467781Y-75200969D01*
X144467781Y-75200970D01*
X144337453Y-75284960D01*
X144337448Y-75284963D01*
X144333541Y-75287482D01*
X144330385Y-75290889D01*
X144330379Y-75290895D01*
X144225033Y-75404658D01*
X144225028Y-75404664D01*
X144221872Y-75408073D01*
X144219659Y-75412164D01*
X144219658Y-75412167D01*
X144145914Y-75548553D01*
X144145912Y-75548557D01*
X144143701Y-75552647D01*
X144142577Y-75557154D01*
X144142575Y-75557160D01*
X144105065Y-75707601D01*
X144105064Y-75707606D01*
X144103939Y-75712120D01*
X144103971Y-75716774D01*
X144103971Y-75716779D01*
X144104737Y-75826463D01*
X144092698Y-75867440D01*
X144060019Y-75894940D01*
X144017587Y-75899801D01*
X143979536Y-75880404D01*
X141503732Y-73507573D01*
X141182811Y-73200000D01*
X143419819Y-73200000D01*
X143438426Y-73317482D01*
X143492427Y-73423465D01*
X143576535Y-73507573D01*
X143682518Y-73561574D01*
X143800000Y-73580181D01*
X143917482Y-73561574D01*
X144023465Y-73507573D01*
X144107573Y-73423465D01*
X144161574Y-73317482D01*
X144180181Y-73200000D01*
X144161574Y-73082518D01*
X144107573Y-72976535D01*
X144023465Y-72892427D01*
X143917482Y-72838426D01*
X143911728Y-72837514D01*
X143911726Y-72837514D01*
X143805752Y-72820730D01*
X143800000Y-72819819D01*
X143794248Y-72820730D01*
X143688273Y-72837514D01*
X143688269Y-72837515D01*
X143682518Y-72838426D01*
X143677326Y-72841071D01*
X143677324Y-72841072D01*
X143581727Y-72889781D01*
X143581724Y-72889782D01*
X143576535Y-72892427D01*
X143572418Y-72896543D01*
X143572415Y-72896546D01*
X143496546Y-72972415D01*
X143496543Y-72972418D01*
X143492427Y-72976535D01*
X143489782Y-72981724D01*
X143489781Y-72981727D01*
X143441072Y-73077324D01*
X143438426Y-73082518D01*
X143437515Y-73088269D01*
X143437514Y-73088273D01*
X143420730Y-73194248D01*
X143419819Y-73200000D01*
X141182811Y-73200000D01*
X138469981Y-70600000D01*
X140669819Y-70600000D01*
X140670730Y-70605752D01*
X140681454Y-70673465D01*
X140688426Y-70717482D01*
X140691072Y-70722675D01*
X140735019Y-70808927D01*
X140742427Y-70823465D01*
X140826535Y-70907573D01*
X140932518Y-70961574D01*
X141050000Y-70980181D01*
X141167482Y-70961574D01*
X141273465Y-70907573D01*
X141357573Y-70823465D01*
X141411574Y-70717482D01*
X141430181Y-70600000D01*
X141411574Y-70482518D01*
X141357573Y-70376535D01*
X141273465Y-70292427D01*
X141267088Y-70289178D01*
X141172675Y-70241072D01*
X141167482Y-70238426D01*
X141161728Y-70237514D01*
X141161726Y-70237514D01*
X141055752Y-70220730D01*
X141050000Y-70219819D01*
X141044248Y-70220730D01*
X140938273Y-70237514D01*
X140938269Y-70237515D01*
X140932518Y-70238426D01*
X140927326Y-70241071D01*
X140927324Y-70241072D01*
X140831727Y-70289781D01*
X140831724Y-70289782D01*
X140826535Y-70292427D01*
X140822418Y-70296543D01*
X140822415Y-70296546D01*
X140746546Y-70372415D01*
X140746543Y-70372418D01*
X140742427Y-70376535D01*
X140739782Y-70381724D01*
X140739781Y-70381727D01*
X140691072Y-70477324D01*
X140688426Y-70482518D01*
X140687515Y-70488269D01*
X140687514Y-70488273D01*
X140675881Y-70561726D01*
X140669819Y-70600000D01*
X138469981Y-70600000D01*
X137426585Y-69600000D01*
X145619819Y-69600000D01*
X145620730Y-69605750D01*
X145620730Y-69605752D01*
X145637253Y-69710080D01*
X145638426Y-69717482D01*
X145641072Y-69722675D01*
X145689378Y-69817482D01*
X145692427Y-69823465D01*
X145776535Y-69907573D01*
X145882518Y-69961574D01*
X146000000Y-69980181D01*
X146046180Y-69972866D01*
X146080620Y-69975577D01*
X146110080Y-69993629D01*
X146240705Y-70124254D01*
X146258757Y-70153713D01*
X146261468Y-70188156D01*
X146248247Y-70220076D01*
X146246548Y-70222413D01*
X146242427Y-70226535D01*
X146239782Y-70231725D01*
X146239779Y-70231730D01*
X146191072Y-70327324D01*
X146188426Y-70332518D01*
X146187515Y-70338269D01*
X146187514Y-70338273D01*
X146171335Y-70440431D01*
X146169819Y-70450000D01*
X146188426Y-70567482D01*
X146242427Y-70673465D01*
X146326535Y-70757573D01*
X146432518Y-70811574D01*
X146550000Y-70830181D01*
X146667482Y-70811574D01*
X146773465Y-70757573D01*
X146857573Y-70673465D01*
X146911574Y-70567482D01*
X146930181Y-70450000D01*
X146911574Y-70332518D01*
X146881791Y-70274066D01*
X146874637Y-70228897D01*
X146895398Y-70188149D01*
X146989920Y-70093627D01*
X147019377Y-70075577D01*
X147053818Y-70072866D01*
X147100000Y-70080181D01*
X147217482Y-70061574D01*
X147323465Y-70007573D01*
X147407573Y-69923465D01*
X147461574Y-69817482D01*
X147480181Y-69700000D01*
X147461574Y-69582518D01*
X147407573Y-69476535D01*
X147323465Y-69392427D01*
X147217482Y-69338426D01*
X147211728Y-69337514D01*
X147211726Y-69337514D01*
X147105752Y-69320730D01*
X147100000Y-69319819D01*
X147094248Y-69320730D01*
X146988273Y-69337514D01*
X146988269Y-69337515D01*
X146982518Y-69338426D01*
X146977326Y-69341071D01*
X146977324Y-69341072D01*
X146881727Y-69389781D01*
X146881724Y-69389782D01*
X146876535Y-69392427D01*
X146872418Y-69396543D01*
X146872415Y-69396546D01*
X146796546Y-69472415D01*
X146796543Y-69472418D01*
X146792427Y-69476535D01*
X146789782Y-69481724D01*
X146789781Y-69481727D01*
X146756403Y-69547236D01*
X146738426Y-69582518D01*
X146737515Y-69588269D01*
X146737514Y-69588273D01*
X146722888Y-69680620D01*
X146719819Y-69700000D01*
X146720730Y-69705752D01*
X146720730Y-69705754D01*
X146727132Y-69746179D01*
X146724421Y-69780622D01*
X146706369Y-69810080D01*
X146652325Y-69864124D01*
X146619152Y-69883277D01*
X146580846Y-69883277D01*
X146547674Y-69864125D01*
X146393628Y-69710079D01*
X146375577Y-69680620D01*
X146372866Y-69646180D01*
X146380181Y-69600000D01*
X146361574Y-69482518D01*
X146307573Y-69376535D01*
X146223465Y-69292427D01*
X146117482Y-69238426D01*
X146111728Y-69237514D01*
X146111726Y-69237514D01*
X146005752Y-69220730D01*
X146000000Y-69219819D01*
X145994248Y-69220730D01*
X145888273Y-69237514D01*
X145888269Y-69237515D01*
X145882518Y-69238426D01*
X145877326Y-69241071D01*
X145877324Y-69241072D01*
X145781727Y-69289781D01*
X145781724Y-69289782D01*
X145776535Y-69292427D01*
X145772418Y-69296543D01*
X145772415Y-69296546D01*
X145696546Y-69372415D01*
X145696543Y-69372418D01*
X145692427Y-69376535D01*
X145689782Y-69381724D01*
X145689781Y-69381727D01*
X145641474Y-69476535D01*
X145638426Y-69482518D01*
X145637515Y-69488269D01*
X145637514Y-69488273D01*
X145630625Y-69531771D01*
X145619819Y-69600000D01*
X137426585Y-69600000D01*
X136652011Y-68857642D01*
X136631282Y-68821586D01*
X136633276Y-68780042D01*
X136657365Y-68746135D01*
X136695938Y-68730578D01*
X136736808Y-68738283D01*
X136782518Y-68761574D01*
X136900000Y-68780181D01*
X137017482Y-68761574D01*
X137123465Y-68707573D01*
X137207573Y-68623465D01*
X137261574Y-68517482D01*
X137272262Y-68450000D01*
X147469819Y-68450000D01*
X147470730Y-68455752D01*
X147483694Y-68537608D01*
X147488426Y-68567482D01*
X147491072Y-68572675D01*
X147522153Y-68633676D01*
X147542427Y-68673465D01*
X147626535Y-68757573D01*
X147732518Y-68811574D01*
X147850000Y-68830181D01*
X147967482Y-68811574D01*
X148073465Y-68757573D01*
X148157573Y-68673465D01*
X148211574Y-68567482D01*
X148230181Y-68450000D01*
X148211574Y-68332518D01*
X148157573Y-68226535D01*
X148073465Y-68142427D01*
X147967482Y-68088426D01*
X147961728Y-68087514D01*
X147961726Y-68087514D01*
X147855752Y-68070730D01*
X147850000Y-68069819D01*
X147844248Y-68070730D01*
X147738273Y-68087514D01*
X147738269Y-68087515D01*
X147732518Y-68088426D01*
X147727326Y-68091071D01*
X147727324Y-68091072D01*
X147631727Y-68139781D01*
X147631724Y-68139782D01*
X147626535Y-68142427D01*
X147622418Y-68146543D01*
X147622415Y-68146546D01*
X147546546Y-68222415D01*
X147546543Y-68222418D01*
X147542427Y-68226535D01*
X147539782Y-68231724D01*
X147539781Y-68231727D01*
X147493133Y-68323280D01*
X147488426Y-68332518D01*
X147487515Y-68338269D01*
X147487514Y-68338273D01*
X147478649Y-68394248D01*
X147469819Y-68450000D01*
X137272262Y-68450000D01*
X137280181Y-68400000D01*
X137261574Y-68282518D01*
X137207573Y-68176535D01*
X137123465Y-68092427D01*
X137017482Y-68038426D01*
X137011728Y-68037514D01*
X137011726Y-68037514D01*
X136905752Y-68020730D01*
X136900000Y-68019819D01*
X136894248Y-68020730D01*
X136788273Y-68037514D01*
X136788269Y-68037515D01*
X136782518Y-68038426D01*
X136777326Y-68041071D01*
X136777324Y-68041072D01*
X136681727Y-68089781D01*
X136681724Y-68089782D01*
X136676535Y-68092427D01*
X136672418Y-68096543D01*
X136672415Y-68096546D01*
X136596546Y-68172415D01*
X136596543Y-68172418D01*
X136592427Y-68176535D01*
X136589782Y-68181724D01*
X136589781Y-68181727D01*
X136541072Y-68277324D01*
X136538426Y-68282518D01*
X136537515Y-68288269D01*
X136537514Y-68288273D01*
X136529595Y-68338273D01*
X136519819Y-68400000D01*
X136538426Y-68517482D01*
X136541072Y-68522675D01*
X136570306Y-68580050D01*
X136578072Y-68620296D01*
X136563227Y-68658502D01*
X136530324Y-68682945D01*
X136489458Y-68686127D01*
X136453169Y-68667070D01*
X135873282Y-68111302D01*
X135856422Y-68086920D01*
X135850485Y-68057877D01*
X135850485Y-67350000D01*
X137919819Y-67350000D01*
X137920730Y-67355752D01*
X137929561Y-67411513D01*
X137938426Y-67467482D01*
X137992427Y-67573465D01*
X138076535Y-67657573D01*
X138182518Y-67711574D01*
X138300000Y-67730181D01*
X138417482Y-67711574D01*
X138523465Y-67657573D01*
X138607573Y-67573465D01*
X138661574Y-67467482D01*
X138680181Y-67350000D01*
X138661574Y-67232518D01*
X138607573Y-67126535D01*
X138523465Y-67042427D01*
X138484699Y-67022675D01*
X138422675Y-66991072D01*
X138417482Y-66988426D01*
X138411728Y-66987514D01*
X138411726Y-66987514D01*
X138305752Y-66970730D01*
X138300000Y-66969819D01*
X138294248Y-66970730D01*
X138188273Y-66987514D01*
X138188269Y-66987515D01*
X138182518Y-66988426D01*
X138177326Y-66991071D01*
X138177324Y-66991072D01*
X138081727Y-67039781D01*
X138081724Y-67039782D01*
X138076535Y-67042427D01*
X138072418Y-67046543D01*
X138072415Y-67046546D01*
X137996546Y-67122415D01*
X137996543Y-67122418D01*
X137992427Y-67126535D01*
X137989782Y-67131724D01*
X137989781Y-67131727D01*
X137984401Y-67142286D01*
X137938426Y-67232518D01*
X137937515Y-67238269D01*
X137937514Y-67238273D01*
X137922902Y-67330533D01*
X137919819Y-67350000D01*
X135850485Y-67350000D01*
X135850485Y-66524508D01*
X135860399Y-66487508D01*
X135887485Y-66460422D01*
X135924485Y-66450508D01*
X137287408Y-66450508D01*
X137295748Y-66450508D01*
X137309108Y-66444073D01*
X137324749Y-66438599D01*
X137339216Y-66435298D01*
X137350814Y-66426047D01*
X137364845Y-66417231D01*
X137378209Y-66410796D01*
X137387455Y-66399200D01*
X137399179Y-66387477D01*
X137410773Y-66378232D01*
X137417208Y-66364868D01*
X137426024Y-66350837D01*
X137435275Y-66339239D01*
X137438576Y-66324772D01*
X137444051Y-66309130D01*
X137446866Y-66303285D01*
X137446865Y-66303285D01*
X137450485Y-66295771D01*
X137450485Y-66204245D01*
X137450484Y-66204244D01*
X137450484Y-63127418D01*
X137450484Y-63104245D01*
X137444048Y-63090882D01*
X137438575Y-63075240D01*
X137437129Y-63068904D01*
X137437128Y-63068903D01*
X137435274Y-63060777D01*
X137426024Y-63049178D01*
X137417209Y-63035148D01*
X137414391Y-63029297D01*
X137414388Y-63029294D01*
X137410772Y-63021784D01*
X137399172Y-63012533D01*
X137387456Y-63000816D01*
X137383407Y-62995739D01*
X137383406Y-62995738D01*
X137378208Y-62989220D01*
X137370697Y-62985603D01*
X137370694Y-62985600D01*
X137364842Y-62982782D01*
X137350814Y-62973968D01*
X137350745Y-62973913D01*
X137339215Y-62964718D01*
X137324748Y-62961415D01*
X137309112Y-62955944D01*
X137303261Y-62953126D01*
X137303259Y-62953125D01*
X137295747Y-62949508D01*
X137287407Y-62949508D01*
X132749499Y-62949508D01*
X132712499Y-62939594D01*
X132685413Y-62912508D01*
X132675499Y-62875508D01*
X132675499Y-61389587D01*
X132691990Y-61343017D01*
X132734114Y-61317204D01*
X132783093Y-61323652D01*
X132857518Y-61361574D01*
X132975000Y-61380181D01*
X133092482Y-61361574D01*
X133147454Y-61333564D01*
X133181046Y-61325500D01*
X133619982Y-61325500D01*
X133665795Y-61341387D01*
X133691937Y-61382225D01*
X133687185Y-61430481D01*
X133653577Y-61465434D01*
X133556727Y-61514781D01*
X133556724Y-61514782D01*
X133551535Y-61517427D01*
X133547418Y-61521543D01*
X133547415Y-61521546D01*
X133471546Y-61597415D01*
X133471543Y-61597418D01*
X133467427Y-61601535D01*
X133464782Y-61606724D01*
X133464781Y-61606727D01*
X133416072Y-61702324D01*
X133413426Y-61707518D01*
X133412515Y-61713269D01*
X133412514Y-61713273D01*
X133397795Y-61806207D01*
X133394819Y-61825000D01*
X133395730Y-61830752D01*
X133409255Y-61916151D01*
X133413426Y-61942482D01*
X133467427Y-62048465D01*
X133551535Y-62132573D01*
X133562403Y-62138110D01*
X133588719Y-62165021D01*
X133589710Y-62164231D01*
X133608634Y-62187961D01*
X133613432Y-62194723D01*
X133617252Y-62200801D01*
X133620190Y-62203739D01*
X133620191Y-62203740D01*
X133622324Y-62205873D01*
X133627853Y-62212060D01*
X133646776Y-62235788D01*
X133654288Y-62239405D01*
X133658783Y-62242990D01*
X133664971Y-62248520D01*
X134076478Y-62660028D01*
X134082006Y-62666214D01*
X134085595Y-62670714D01*
X134089212Y-62678224D01*
X134095727Y-62683420D01*
X134095730Y-62683423D01*
X134112932Y-62697141D01*
X134119119Y-62702669D01*
X134124198Y-62707748D01*
X134130273Y-62711564D01*
X134137043Y-62716368D01*
X134160769Y-62735290D01*
X134168900Y-62737145D01*
X134171880Y-62738580D01*
X134175012Y-62739676D01*
X134182076Y-62744115D01*
X134210559Y-62747323D01*
X134212229Y-62747512D01*
X134220404Y-62748900D01*
X134227410Y-62750500D01*
X134234590Y-62750500D01*
X134242875Y-62750965D01*
X134273026Y-62754362D01*
X134280898Y-62751607D01*
X134286598Y-62750965D01*
X134294885Y-62750500D01*
X138311299Y-62750500D01*
X138339618Y-62756133D01*
X138363625Y-62772174D01*
X142601481Y-67010030D01*
X142607011Y-67016218D01*
X142610593Y-67020710D01*
X142614212Y-67028224D01*
X142620731Y-67033422D01*
X142620732Y-67033424D01*
X142637937Y-67047145D01*
X142644125Y-67052674D01*
X142649199Y-67057748D01*
X142655272Y-67061564D01*
X142662032Y-67066360D01*
X142685769Y-67085290D01*
X142693904Y-67087146D01*
X142696900Y-67088589D01*
X142700014Y-67089678D01*
X142707076Y-67094116D01*
X142737236Y-67097513D01*
X142745405Y-67098900D01*
X142752410Y-67100500D01*
X142759588Y-67100500D01*
X142767871Y-67100964D01*
X142798026Y-67104362D01*
X142805899Y-67101607D01*
X142811598Y-67100965D01*
X142819885Y-67100500D01*
X142939163Y-67100500D01*
X142972758Y-67108565D01*
X142991402Y-67124489D01*
X142992427Y-67123465D01*
X143076535Y-67207573D01*
X143182518Y-67261574D01*
X143300000Y-67280181D01*
X143417482Y-67261574D01*
X143523465Y-67207573D01*
X143607573Y-67123465D01*
X143661574Y-67017482D01*
X143680181Y-66900000D01*
X143661574Y-66782518D01*
X143607573Y-66676535D01*
X143523465Y-66592427D01*
X143484699Y-66572675D01*
X143422675Y-66541072D01*
X143417482Y-66538426D01*
X143411728Y-66537514D01*
X143411726Y-66537514D01*
X143305752Y-66520730D01*
X143300000Y-66519819D01*
X143294248Y-66520730D01*
X143188273Y-66537514D01*
X143188269Y-66537515D01*
X143182518Y-66538426D01*
X143177326Y-66541071D01*
X143177324Y-66541072D01*
X143081727Y-66589781D01*
X143081724Y-66589782D01*
X143076535Y-66592427D01*
X143072418Y-66596543D01*
X143072415Y-66596546D01*
X142992427Y-66676535D01*
X142991402Y-66675510D01*
X142972758Y-66691435D01*
X142939163Y-66699500D01*
X142888701Y-66699500D01*
X142860382Y-66693867D01*
X142836375Y-66677826D01*
X142608549Y-66450000D01*
X147369819Y-66450000D01*
X147370730Y-66455752D01*
X147383679Y-66537514D01*
X147388426Y-66567482D01*
X147442427Y-66673465D01*
X147526535Y-66757573D01*
X147632518Y-66811574D01*
X147750000Y-66830181D01*
X147867482Y-66811574D01*
X147973465Y-66757573D01*
X148057573Y-66673465D01*
X148111574Y-66567482D01*
X148130181Y-66450000D01*
X148111574Y-66332518D01*
X148072393Y-66255621D01*
X150013015Y-66255621D01*
X150013047Y-66260275D01*
X150013047Y-66260280D01*
X150014124Y-66414411D01*
X150014163Y-66419971D01*
X150018291Y-66435597D01*
X150054957Y-66574376D01*
X150054959Y-66574382D01*
X150056146Y-66578873D01*
X150058414Y-66582932D01*
X150058415Y-66582933D01*
X150134056Y-66718278D01*
X150134058Y-66718281D01*
X150136328Y-66722342D01*
X150139536Y-66725711D01*
X150139537Y-66725712D01*
X150169878Y-66757573D01*
X150249670Y-66841363D01*
X151032504Y-67330533D01*
X151144255Y-67382169D01*
X151305910Y-67411838D01*
X151469864Y-67400374D01*
X151625816Y-67348496D01*
X151763967Y-67259464D01*
X151875636Y-67138872D01*
X151953807Y-66994298D01*
X151993569Y-66834825D01*
X151992421Y-66670475D01*
X151950438Y-66511573D01*
X151887636Y-66399202D01*
X151872527Y-66372167D01*
X151872525Y-66372165D01*
X151870256Y-66368104D01*
X151756914Y-66249083D01*
X151714236Y-66222415D01*
X151093277Y-65834396D01*
X150974080Y-65759913D01*
X150932025Y-65740481D01*
X150866555Y-65710229D01*
X150866550Y-65710227D01*
X150862329Y-65708277D01*
X150857747Y-65707436D01*
X150705250Y-65679447D01*
X150705243Y-65679446D01*
X150700674Y-65678608D01*
X150696037Y-65678932D01*
X150696034Y-65678932D01*
X150541365Y-65689747D01*
X150541363Y-65689747D01*
X150536720Y-65690072D01*
X150532302Y-65691541D01*
X150532300Y-65691542D01*
X150385184Y-65740481D01*
X150385181Y-65740482D01*
X150380769Y-65741950D01*
X150376857Y-65744470D01*
X150376857Y-65744471D01*
X150246529Y-65828461D01*
X150246524Y-65828464D01*
X150242617Y-65830983D01*
X150239461Y-65834390D01*
X150239455Y-65834396D01*
X150134109Y-65948159D01*
X150134104Y-65948165D01*
X150130948Y-65951574D01*
X150128735Y-65955665D01*
X150128734Y-65955668D01*
X150054990Y-66092054D01*
X150054988Y-66092058D01*
X150052777Y-66096148D01*
X150051653Y-66100655D01*
X150051651Y-66100661D01*
X150014141Y-66251102D01*
X150014140Y-66251107D01*
X150013015Y-66255621D01*
X148072393Y-66255621D01*
X148057573Y-66226535D01*
X147973465Y-66142427D01*
X147867482Y-66088426D01*
X147861728Y-66087514D01*
X147861726Y-66087514D01*
X147755752Y-66070730D01*
X147750000Y-66069819D01*
X147744248Y-66070730D01*
X147638273Y-66087514D01*
X147638269Y-66087515D01*
X147632518Y-66088426D01*
X147627326Y-66091071D01*
X147627324Y-66091072D01*
X147531727Y-66139781D01*
X147531724Y-66139782D01*
X147526535Y-66142427D01*
X147522418Y-66146543D01*
X147522415Y-66146546D01*
X147446546Y-66222415D01*
X147446543Y-66222418D01*
X147442427Y-66226535D01*
X147439782Y-66231724D01*
X147439781Y-66231727D01*
X147391072Y-66327324D01*
X147388426Y-66332518D01*
X147387515Y-66338269D01*
X147387514Y-66338273D01*
X147371854Y-66437152D01*
X147369819Y-66450000D01*
X142608549Y-66450000D01*
X140885375Y-64726826D01*
X140865123Y-64688937D01*
X140869334Y-64646181D01*
X140896589Y-64612971D01*
X140937701Y-64600500D01*
X146805115Y-64600500D01*
X146813402Y-64600965D01*
X146819101Y-64601607D01*
X146826974Y-64604362D01*
X146857128Y-64600964D01*
X146865412Y-64600500D01*
X146868429Y-64600500D01*
X146872590Y-64600500D01*
X146874780Y-64600000D01*
X149369819Y-64600000D01*
X149388426Y-64717482D01*
X149442427Y-64823465D01*
X149526535Y-64907573D01*
X149632518Y-64961574D01*
X149750000Y-64980181D01*
X149867482Y-64961574D01*
X149973465Y-64907573D01*
X150057573Y-64823465D01*
X150111574Y-64717482D01*
X150130181Y-64600000D01*
X150111574Y-64482518D01*
X150057573Y-64376535D01*
X149973465Y-64292427D01*
X149867482Y-64238426D01*
X149861728Y-64237514D01*
X149861726Y-64237514D01*
X149755752Y-64220730D01*
X149750000Y-64219819D01*
X149744248Y-64220730D01*
X149638273Y-64237514D01*
X149638269Y-64237515D01*
X149632518Y-64238426D01*
X149627326Y-64241071D01*
X149627324Y-64241072D01*
X149531727Y-64289781D01*
X149531724Y-64289782D01*
X149526535Y-64292427D01*
X149522418Y-64296543D01*
X149522415Y-64296546D01*
X149446546Y-64372415D01*
X149446543Y-64372418D01*
X149442427Y-64376535D01*
X149439782Y-64381724D01*
X149439781Y-64381727D01*
X149391072Y-64477324D01*
X149388426Y-64482518D01*
X149387515Y-64488269D01*
X149387514Y-64488273D01*
X149377780Y-64549733D01*
X149369819Y-64600000D01*
X146874780Y-64600000D01*
X146879589Y-64598902D01*
X146887764Y-64597513D01*
X146917924Y-64594116D01*
X146924988Y-64589676D01*
X146928116Y-64588582D01*
X146931099Y-64587145D01*
X146939231Y-64585290D01*
X146962978Y-64566351D01*
X146969718Y-64561570D01*
X146975801Y-64557748D01*
X146980875Y-64552672D01*
X146987056Y-64547149D01*
X147010788Y-64528224D01*
X147014406Y-64520708D01*
X147017986Y-64516220D01*
X147023509Y-64510038D01*
X147639920Y-63893627D01*
X147669377Y-63875577D01*
X147703818Y-63872866D01*
X147750000Y-63880181D01*
X147867482Y-63861574D01*
X147973465Y-63807573D01*
X148057573Y-63723465D01*
X148111574Y-63617482D01*
X148130181Y-63500000D01*
X149419819Y-63500000D01*
X149420730Y-63505752D01*
X149437253Y-63610080D01*
X149438426Y-63617482D01*
X149492427Y-63723465D01*
X149576535Y-63807573D01*
X149682518Y-63861574D01*
X149800000Y-63880181D01*
X149917482Y-63861574D01*
X150023465Y-63807573D01*
X150107573Y-63723465D01*
X150161574Y-63617482D01*
X150180181Y-63500000D01*
X150161574Y-63382518D01*
X150107573Y-63276535D01*
X150023465Y-63192427D01*
X149917482Y-63138426D01*
X149911728Y-63137514D01*
X149911726Y-63137514D01*
X149805752Y-63120730D01*
X149800000Y-63119819D01*
X149794248Y-63120730D01*
X149688273Y-63137514D01*
X149688269Y-63137515D01*
X149682518Y-63138426D01*
X149677326Y-63141071D01*
X149677324Y-63141072D01*
X149581727Y-63189781D01*
X149581724Y-63189782D01*
X149576535Y-63192427D01*
X149572418Y-63196543D01*
X149572415Y-63196546D01*
X149496546Y-63272415D01*
X149496543Y-63272418D01*
X149492427Y-63276535D01*
X149489782Y-63281724D01*
X149489781Y-63281727D01*
X149441072Y-63377324D01*
X149438426Y-63382518D01*
X149437515Y-63388269D01*
X149437514Y-63388273D01*
X149424039Y-63473355D01*
X149419819Y-63500000D01*
X148130181Y-63500000D01*
X148111574Y-63382518D01*
X148057573Y-63276535D01*
X147973465Y-63192427D01*
X147867482Y-63138426D01*
X147861728Y-63137514D01*
X147861726Y-63137514D01*
X147755752Y-63120730D01*
X147750000Y-63119819D01*
X147744248Y-63120730D01*
X147638273Y-63137514D01*
X147638269Y-63137515D01*
X147632518Y-63138426D01*
X147627326Y-63141071D01*
X147627324Y-63141072D01*
X147531727Y-63189781D01*
X147531724Y-63189782D01*
X147526535Y-63192427D01*
X147522418Y-63196543D01*
X147522415Y-63196546D01*
X147446546Y-63272415D01*
X147446543Y-63272418D01*
X147442427Y-63276535D01*
X147439782Y-63281724D01*
X147439781Y-63281727D01*
X147391072Y-63377324D01*
X147388426Y-63382518D01*
X147387515Y-63388269D01*
X147387514Y-63388273D01*
X147374039Y-63473355D01*
X147369819Y-63500000D01*
X147370730Y-63505752D01*
X147370730Y-63505754D01*
X147377132Y-63546179D01*
X147374421Y-63580622D01*
X147356369Y-63610080D01*
X146788625Y-64177826D01*
X146764618Y-64193867D01*
X146736299Y-64199500D01*
X144562700Y-64199500D01*
X144521588Y-64187029D01*
X144494333Y-64153819D01*
X144490122Y-64111063D01*
X144510374Y-64073174D01*
X144865276Y-63718272D01*
X145339920Y-63243627D01*
X145369377Y-63225577D01*
X145403818Y-63222866D01*
X145450000Y-63230181D01*
X145567482Y-63211574D01*
X145673465Y-63157573D01*
X145757573Y-63073465D01*
X145811574Y-62967482D01*
X145830181Y-62850000D01*
X145811574Y-62732518D01*
X145802687Y-62715077D01*
X150768318Y-62715077D01*
X150769252Y-62719630D01*
X150769253Y-62719634D01*
X150800429Y-62871513D01*
X150800430Y-62871518D01*
X150801366Y-62876074D01*
X150803405Y-62880255D01*
X150803407Y-62880260D01*
X150850748Y-62977324D01*
X150873414Y-63023796D01*
X150876429Y-63027339D01*
X150876430Y-63027340D01*
X150930509Y-63090883D01*
X150979935Y-63148958D01*
X151114236Y-63243697D01*
X151267879Y-63302061D01*
X151410914Y-63318104D01*
X151426582Y-63319862D01*
X151426582Y-63319861D01*
X151431210Y-63320381D01*
X152345327Y-63191911D01*
X152464124Y-63159634D01*
X152607030Y-63078453D01*
X152725257Y-62964283D01*
X152811376Y-62824298D01*
X152859977Y-62667293D01*
X152868006Y-62503135D01*
X152834958Y-62342138D01*
X152762910Y-62194416D01*
X152656388Y-62069254D01*
X152648832Y-62063924D01*
X152525892Y-61977199D01*
X152525891Y-61977198D01*
X152522087Y-61974515D01*
X152517736Y-61972862D01*
X152517732Y-61972860D01*
X152372797Y-61917804D01*
X152372792Y-61917803D01*
X152368444Y-61916151D01*
X152363822Y-61915632D01*
X152363816Y-61915631D01*
X152209741Y-61898350D01*
X152205114Y-61897831D01*
X152200511Y-61898477D01*
X152200503Y-61898478D01*
X151293299Y-62025977D01*
X151293291Y-62025978D01*
X151290997Y-62026301D01*
X151288760Y-62026908D01*
X151288749Y-62026911D01*
X151176689Y-62057357D01*
X151176681Y-62057360D01*
X151172199Y-62058578D01*
X151168159Y-62060872D01*
X151168154Y-62060875D01*
X151033338Y-62137461D01*
X151033334Y-62137463D01*
X151029294Y-62139759D01*
X151025951Y-62142987D01*
X151025946Y-62142991D01*
X150914416Y-62250694D01*
X150914412Y-62250698D01*
X150911067Y-62253929D01*
X150908630Y-62257890D01*
X150908627Y-62257894D01*
X150827385Y-62389951D01*
X150827382Y-62389957D01*
X150824948Y-62393914D01*
X150823573Y-62398355D01*
X150823571Y-62398360D01*
X150777722Y-62546471D01*
X150777720Y-62546477D01*
X150776346Y-62550919D01*
X150776119Y-62555558D01*
X150776118Y-62555565D01*
X150768820Y-62704809D01*
X150768318Y-62715077D01*
X145802687Y-62715077D01*
X145757573Y-62626535D01*
X145673465Y-62542427D01*
X145567482Y-62488426D01*
X145561728Y-62487514D01*
X145561726Y-62487514D01*
X145455752Y-62470730D01*
X145450000Y-62469819D01*
X145444248Y-62470730D01*
X145338273Y-62487514D01*
X145338269Y-62487515D01*
X145332518Y-62488426D01*
X145327326Y-62491071D01*
X145327324Y-62491072D01*
X145231727Y-62539781D01*
X145231724Y-62539782D01*
X145226535Y-62542427D01*
X145222418Y-62546543D01*
X145222415Y-62546546D01*
X145146546Y-62622415D01*
X145146543Y-62622418D01*
X145142427Y-62626535D01*
X145139782Y-62631724D01*
X145139781Y-62631727D01*
X145094896Y-62719819D01*
X145088426Y-62732518D01*
X145087515Y-62738269D01*
X145087514Y-62738273D01*
X145073890Y-62824298D01*
X145069819Y-62850000D01*
X145070730Y-62855752D01*
X145070730Y-62855754D01*
X145077132Y-62896179D01*
X145074421Y-62930622D01*
X145056369Y-62960080D01*
X144188625Y-63827826D01*
X144164618Y-63843867D01*
X144136299Y-63849500D01*
X141613701Y-63849500D01*
X141585382Y-63843867D01*
X141561375Y-63827826D01*
X141321384Y-63587835D01*
X141301754Y-63552781D01*
X141303334Y-63512635D01*
X141325659Y-63479232D01*
X141356437Y-63465049D01*
X141356189Y-63464285D01*
X141361724Y-63462485D01*
X141367482Y-63461574D01*
X141473465Y-63407573D01*
X141557573Y-63323465D01*
X141611574Y-63217482D01*
X141630181Y-63100000D01*
X141611574Y-62982518D01*
X141557573Y-62876535D01*
X141473465Y-62792427D01*
X141367482Y-62738426D01*
X141361728Y-62737514D01*
X141361726Y-62737514D01*
X141255752Y-62720730D01*
X141250000Y-62719819D01*
X141244248Y-62720730D01*
X141138273Y-62737514D01*
X141138269Y-62737515D01*
X141132518Y-62738426D01*
X141127326Y-62741071D01*
X141127324Y-62741072D01*
X141031727Y-62789781D01*
X141031724Y-62789782D01*
X141026535Y-62792427D01*
X141022418Y-62796543D01*
X141022415Y-62796546D01*
X140946546Y-62872415D01*
X140946543Y-62872418D01*
X140942427Y-62876535D01*
X140939782Y-62881724D01*
X140939781Y-62881727D01*
X140896087Y-62967482D01*
X140888426Y-62982518D01*
X140887514Y-62988272D01*
X140885715Y-62993811D01*
X140884952Y-62993563D01*
X140870759Y-63024349D01*
X140837356Y-63046667D01*
X140797215Y-63048244D01*
X140762164Y-63028615D01*
X139973520Y-62239971D01*
X139967990Y-62233783D01*
X139964405Y-62229288D01*
X139960788Y-62221776D01*
X139937060Y-62202853D01*
X139930873Y-62197324D01*
X139928740Y-62195191D01*
X139928739Y-62195190D01*
X139925801Y-62192252D01*
X139919723Y-62188432D01*
X139912961Y-62183634D01*
X139895748Y-62169907D01*
X139895747Y-62169906D01*
X139889231Y-62164710D01*
X139881105Y-62162855D01*
X139878115Y-62161415D01*
X139874981Y-62160318D01*
X139867924Y-62155884D01*
X139859642Y-62154950D01*
X139859640Y-62154950D01*
X139837760Y-62152485D01*
X139829588Y-62151097D01*
X139822590Y-62149500D01*
X139818432Y-62149500D01*
X139815412Y-62149500D01*
X139807128Y-62149035D01*
X139785261Y-62146571D01*
X139785258Y-62146571D01*
X139776974Y-62145638D01*
X139769102Y-62148392D01*
X139763402Y-62149035D01*
X139755115Y-62149500D01*
X137639186Y-62149500D01*
X137598883Y-62137562D01*
X137571584Y-62105599D01*
X137566097Y-62063924D01*
X137567583Y-62054545D01*
X137580181Y-61975000D01*
X137561574Y-61857518D01*
X137532267Y-61800000D01*
X140869819Y-61800000D01*
X140870730Y-61805752D01*
X140887275Y-61910218D01*
X140888426Y-61917482D01*
X140942427Y-62023465D01*
X141026535Y-62107573D01*
X141132518Y-62161574D01*
X141250000Y-62180181D01*
X141367482Y-62161574D01*
X141473465Y-62107573D01*
X141557573Y-62023465D01*
X141611574Y-61917482D01*
X141630181Y-61800000D01*
X141611574Y-61682518D01*
X141569529Y-61600000D01*
X149419819Y-61600000D01*
X149420730Y-61605752D01*
X149435332Y-61697951D01*
X149438426Y-61717482D01*
X149492427Y-61823465D01*
X149576535Y-61907573D01*
X149682518Y-61961574D01*
X149800000Y-61980181D01*
X149917482Y-61961574D01*
X150023465Y-61907573D01*
X150107573Y-61823465D01*
X150161574Y-61717482D01*
X150180181Y-61600000D01*
X150161574Y-61482518D01*
X150107573Y-61376535D01*
X150023465Y-61292427D01*
X149917482Y-61238426D01*
X149911728Y-61237514D01*
X149911726Y-61237514D01*
X149805752Y-61220730D01*
X149800000Y-61219819D01*
X149794248Y-61220730D01*
X149688273Y-61237514D01*
X149688269Y-61237515D01*
X149682518Y-61238426D01*
X149677326Y-61241071D01*
X149677324Y-61241072D01*
X149581727Y-61289781D01*
X149581724Y-61289782D01*
X149576535Y-61292427D01*
X149572418Y-61296543D01*
X149572415Y-61296546D01*
X149496546Y-61372415D01*
X149496543Y-61372418D01*
X149492427Y-61376535D01*
X149489782Y-61381724D01*
X149489781Y-61381727D01*
X149441072Y-61477324D01*
X149438426Y-61482518D01*
X149437515Y-61488269D01*
X149437514Y-61488273D01*
X149422618Y-61582326D01*
X149419819Y-61600000D01*
X141569529Y-61600000D01*
X141557573Y-61576535D01*
X141473465Y-61492427D01*
X141454017Y-61482518D01*
X141375843Y-61442686D01*
X141367482Y-61438426D01*
X141361728Y-61437514D01*
X141361726Y-61437514D01*
X141255752Y-61420730D01*
X141250000Y-61419819D01*
X141244248Y-61420730D01*
X141138273Y-61437514D01*
X141138269Y-61437515D01*
X141132518Y-61438426D01*
X141127326Y-61441071D01*
X141127324Y-61441072D01*
X141031727Y-61489781D01*
X141031724Y-61489782D01*
X141026535Y-61492427D01*
X141022418Y-61496543D01*
X141022415Y-61496546D01*
X140946546Y-61572415D01*
X140946543Y-61572418D01*
X140942427Y-61576535D01*
X140939782Y-61581724D01*
X140939781Y-61581727D01*
X140891072Y-61677324D01*
X140888426Y-61682518D01*
X140887515Y-61688269D01*
X140887514Y-61688273D01*
X140873668Y-61775698D01*
X140869819Y-61800000D01*
X137532267Y-61800000D01*
X137507573Y-61751535D01*
X137423465Y-61667427D01*
X137418272Y-61664781D01*
X137413566Y-61661362D01*
X137414457Y-61660135D01*
X137385945Y-61630478D01*
X137381194Y-61582223D01*
X137407337Y-61541386D01*
X137453149Y-61525500D01*
X138487957Y-61525500D01*
X138496244Y-61525965D01*
X138501943Y-61526607D01*
X138509816Y-61529362D01*
X138539970Y-61525964D01*
X138548254Y-61525500D01*
X138551271Y-61525500D01*
X138555432Y-61525500D01*
X138562431Y-61523902D01*
X138570606Y-61522513D01*
X138600766Y-61519116D01*
X138607830Y-61514676D01*
X138610958Y-61513582D01*
X138613941Y-61512145D01*
X138622073Y-61510290D01*
X138645820Y-61491351D01*
X138652560Y-61486570D01*
X138658643Y-61482748D01*
X138663717Y-61477672D01*
X138669898Y-61472149D01*
X138693630Y-61453224D01*
X138697248Y-61445708D01*
X138700828Y-61441220D01*
X138706351Y-61435038D01*
X139141389Y-61000000D01*
X139819819Y-61000000D01*
X139820730Y-61005752D01*
X139832566Y-61080486D01*
X139838426Y-61117482D01*
X139892427Y-61223465D01*
X139976535Y-61307573D01*
X140082518Y-61361574D01*
X140200000Y-61380181D01*
X140317482Y-61361574D01*
X140423465Y-61307573D01*
X140507573Y-61223465D01*
X140561574Y-61117482D01*
X140580181Y-61000000D01*
X140561574Y-60882518D01*
X140507573Y-60776535D01*
X140423465Y-60692427D01*
X140317482Y-60638426D01*
X140311728Y-60637514D01*
X140311726Y-60637514D01*
X140205752Y-60620730D01*
X140200000Y-60619819D01*
X140194248Y-60620730D01*
X140088273Y-60637514D01*
X140088269Y-60637515D01*
X140082518Y-60638426D01*
X140077326Y-60641071D01*
X140077324Y-60641072D01*
X139981727Y-60689781D01*
X139981724Y-60689782D01*
X139976535Y-60692427D01*
X139972418Y-60696543D01*
X139972415Y-60696546D01*
X139896546Y-60772415D01*
X139896543Y-60772418D01*
X139892427Y-60776535D01*
X139889782Y-60781724D01*
X139889781Y-60781727D01*
X139841072Y-60877324D01*
X139838426Y-60882518D01*
X139837515Y-60888269D01*
X139837514Y-60888273D01*
X139824962Y-60967527D01*
X139819819Y-61000000D01*
X139141389Y-61000000D01*
X140441390Y-59700000D01*
X149619819Y-59700000D01*
X149638426Y-59817482D01*
X149692427Y-59923465D01*
X149776535Y-60007573D01*
X149882518Y-60061574D01*
X150000000Y-60080181D01*
X150117482Y-60061574D01*
X150223465Y-60007573D01*
X150307573Y-59923465D01*
X150361574Y-59817482D01*
X150380181Y-59700000D01*
X150361574Y-59582518D01*
X150307573Y-59476535D01*
X150223465Y-59392427D01*
X150117482Y-59338426D01*
X150111728Y-59337514D01*
X150111726Y-59337514D01*
X150005752Y-59320730D01*
X150000000Y-59319819D01*
X149994248Y-59320730D01*
X149888273Y-59337514D01*
X149888269Y-59337515D01*
X149882518Y-59338426D01*
X149877326Y-59341071D01*
X149877324Y-59341072D01*
X149781727Y-59389781D01*
X149781724Y-59389782D01*
X149776535Y-59392427D01*
X149772418Y-59396543D01*
X149772415Y-59396546D01*
X149696546Y-59472415D01*
X149696543Y-59472418D01*
X149692427Y-59476535D01*
X149689782Y-59481724D01*
X149689781Y-59481727D01*
X149641072Y-59577324D01*
X149638426Y-59582518D01*
X149637515Y-59588269D01*
X149637514Y-59588273D01*
X149620730Y-59694248D01*
X149619819Y-59700000D01*
X140441390Y-59700000D01*
X141236981Y-58904409D01*
X143391658Y-58904409D01*
X143410265Y-59021891D01*
X143464266Y-59127874D01*
X143548374Y-59211982D01*
X143654357Y-59265983D01*
X143771839Y-59284590D01*
X143889321Y-59265983D01*
X143995304Y-59211982D01*
X144079412Y-59127874D01*
X144133413Y-59021891D01*
X144152020Y-58904409D01*
X144133413Y-58786927D01*
X144079412Y-58680944D01*
X143995304Y-58596836D01*
X143889321Y-58542835D01*
X143883567Y-58541923D01*
X143883565Y-58541923D01*
X143777591Y-58525139D01*
X143771839Y-58524228D01*
X143766087Y-58525139D01*
X143660112Y-58541923D01*
X143660108Y-58541924D01*
X143654357Y-58542835D01*
X143649165Y-58545480D01*
X143649163Y-58545481D01*
X143553566Y-58594190D01*
X143553563Y-58594191D01*
X143548374Y-58596836D01*
X143544257Y-58600952D01*
X143544254Y-58600955D01*
X143468385Y-58676824D01*
X143468382Y-58676827D01*
X143464266Y-58680944D01*
X143461621Y-58686133D01*
X143461620Y-58686136D01*
X143412911Y-58781733D01*
X143410265Y-58786927D01*
X143409354Y-58792678D01*
X143409353Y-58792682D01*
X143392569Y-58898657D01*
X143391658Y-58904409D01*
X141236981Y-58904409D01*
X141891390Y-58250000D01*
X142439819Y-58250000D01*
X142440730Y-58255752D01*
X142457275Y-58360218D01*
X142458426Y-58367482D01*
X142512427Y-58473465D01*
X142596535Y-58557573D01*
X142702518Y-58611574D01*
X142820000Y-58630181D01*
X142937482Y-58611574D01*
X143043465Y-58557573D01*
X143127573Y-58473465D01*
X143181574Y-58367482D01*
X143200181Y-58250000D01*
X143181574Y-58132518D01*
X143127573Y-58026535D01*
X143043465Y-57942427D01*
X143024017Y-57932518D01*
X142942675Y-57891072D01*
X142937482Y-57888426D01*
X142931728Y-57887514D01*
X142931726Y-57887514D01*
X142825752Y-57870730D01*
X142820000Y-57869819D01*
X142814248Y-57870730D01*
X142708273Y-57887514D01*
X142708269Y-57887515D01*
X142702518Y-57888426D01*
X142697326Y-57891071D01*
X142697324Y-57891072D01*
X142601727Y-57939781D01*
X142601724Y-57939782D01*
X142596535Y-57942427D01*
X142592418Y-57946543D01*
X142592415Y-57946546D01*
X142516546Y-58022415D01*
X142516543Y-58022418D01*
X142512427Y-58026535D01*
X142509782Y-58031724D01*
X142509781Y-58031727D01*
X142461072Y-58127324D01*
X142458426Y-58132518D01*
X142457515Y-58138269D01*
X142457514Y-58138273D01*
X142456283Y-58146046D01*
X142439819Y-58250000D01*
X141891390Y-58250000D01*
X142641390Y-57500000D01*
X148369819Y-57500000D01*
X148370730Y-57505752D01*
X148386464Y-57605099D01*
X148388426Y-57617482D01*
X148442427Y-57723465D01*
X148526535Y-57807573D01*
X148632518Y-57861574D01*
X148750000Y-57880181D01*
X148851178Y-57864156D01*
X148896349Y-57871310D01*
X148928688Y-57903649D01*
X148935843Y-57948820D01*
X148924188Y-58022415D01*
X148919819Y-58050000D01*
X148920730Y-58055752D01*
X148934378Y-58141927D01*
X148938426Y-58167482D01*
X148992427Y-58273465D01*
X149076535Y-58357573D01*
X149182518Y-58411574D01*
X149300000Y-58430181D01*
X149417482Y-58411574D01*
X149523465Y-58357573D01*
X149607573Y-58273465D01*
X149661574Y-58167482D01*
X149680181Y-58050000D01*
X149661574Y-57932518D01*
X149607573Y-57826535D01*
X149523465Y-57742427D01*
X149417482Y-57688426D01*
X149411728Y-57687514D01*
X149411726Y-57687514D01*
X149305752Y-57670730D01*
X149300000Y-57669819D01*
X149294248Y-57670730D01*
X149294247Y-57670730D01*
X149198820Y-57685843D01*
X149153649Y-57678688D01*
X149121310Y-57646349D01*
X149114156Y-57601178D01*
X149117072Y-57582771D01*
X149130181Y-57500000D01*
X149120482Y-57438765D01*
X149111574Y-57382518D01*
X149114218Y-57382099D01*
X149114946Y-57344475D01*
X149145703Y-57306981D01*
X149193070Y-57296581D01*
X149236705Y-57317742D01*
X149276535Y-57357573D01*
X149382518Y-57411574D01*
X149500000Y-57430181D01*
X149617482Y-57411574D01*
X149723465Y-57357573D01*
X149807573Y-57273465D01*
X149861574Y-57167482D01*
X149880181Y-57050000D01*
X149861574Y-56932518D01*
X149807573Y-56826535D01*
X149723465Y-56742427D01*
X149617482Y-56688426D01*
X149611728Y-56687514D01*
X149611726Y-56687514D01*
X149505752Y-56670730D01*
X149500000Y-56669819D01*
X149494248Y-56670730D01*
X149388273Y-56687514D01*
X149388269Y-56687515D01*
X149382518Y-56688426D01*
X149377326Y-56691071D01*
X149377324Y-56691072D01*
X149281727Y-56739781D01*
X149281724Y-56739782D01*
X149276535Y-56742427D01*
X149272418Y-56746543D01*
X149272415Y-56746546D01*
X149196546Y-56822415D01*
X149196543Y-56822418D01*
X149192427Y-56826535D01*
X149189782Y-56831724D01*
X149189781Y-56831727D01*
X149141072Y-56927324D01*
X149138426Y-56932518D01*
X149137515Y-56938269D01*
X149137514Y-56938273D01*
X149120730Y-57044248D01*
X149119819Y-57050000D01*
X149120730Y-57055752D01*
X149138426Y-57167482D01*
X149135790Y-57167899D01*
X149135040Y-57205560D01*
X149104274Y-57243032D01*
X149056916Y-57253416D01*
X149013294Y-57232256D01*
X148977584Y-57196546D01*
X148977584Y-57196545D01*
X148973465Y-57192427D01*
X148934699Y-57172675D01*
X148872675Y-57141072D01*
X148867482Y-57138426D01*
X148861728Y-57137514D01*
X148861726Y-57137514D01*
X148755752Y-57120730D01*
X148750000Y-57119819D01*
X148744248Y-57120730D01*
X148638273Y-57137514D01*
X148638269Y-57137515D01*
X148632518Y-57138426D01*
X148627326Y-57141071D01*
X148627324Y-57141072D01*
X148531727Y-57189781D01*
X148531724Y-57189782D01*
X148526535Y-57192427D01*
X148522418Y-57196543D01*
X148522415Y-57196546D01*
X148446546Y-57272415D01*
X148446543Y-57272418D01*
X148442427Y-57276535D01*
X148439782Y-57281724D01*
X148439781Y-57281727D01*
X148391072Y-57377324D01*
X148388426Y-57382518D01*
X148387515Y-57388269D01*
X148387514Y-57388273D01*
X148378713Y-57443844D01*
X148369819Y-57500000D01*
X142641390Y-57500000D01*
X143091390Y-57050000D01*
X145769819Y-57050000D01*
X145770730Y-57055752D01*
X145783679Y-57137514D01*
X145788426Y-57167482D01*
X145842427Y-57273465D01*
X145926535Y-57357573D01*
X146032518Y-57411574D01*
X146150000Y-57430181D01*
X146267482Y-57411574D01*
X146373465Y-57357573D01*
X146457573Y-57273465D01*
X146511574Y-57167482D01*
X146530181Y-57050000D01*
X146511574Y-56932518D01*
X146457573Y-56826535D01*
X146373465Y-56742427D01*
X146267482Y-56688426D01*
X146261728Y-56687514D01*
X146261726Y-56687514D01*
X146155752Y-56670730D01*
X146150000Y-56669819D01*
X146144248Y-56670730D01*
X146038273Y-56687514D01*
X146038269Y-56687515D01*
X146032518Y-56688426D01*
X146027326Y-56691071D01*
X146027324Y-56691072D01*
X145931727Y-56739781D01*
X145931724Y-56739782D01*
X145926535Y-56742427D01*
X145922418Y-56746543D01*
X145922415Y-56746546D01*
X145846546Y-56822415D01*
X145846543Y-56822418D01*
X145842427Y-56826535D01*
X145839782Y-56831724D01*
X145839781Y-56831727D01*
X145791072Y-56927324D01*
X145788426Y-56932518D01*
X145787515Y-56938269D01*
X145787514Y-56938273D01*
X145770730Y-57044248D01*
X145769819Y-57050000D01*
X143091390Y-57050000D01*
X143585043Y-56556347D01*
X143591225Y-56550824D01*
X143595708Y-56547248D01*
X143603224Y-56543630D01*
X143622153Y-56519892D01*
X143627668Y-56513722D01*
X143632749Y-56508643D01*
X143636567Y-56502565D01*
X143641369Y-56495798D01*
X143660290Y-56472073D01*
X143662145Y-56463940D01*
X143663582Y-56460958D01*
X143664676Y-56457830D01*
X143669116Y-56450766D01*
X143672513Y-56420606D01*
X143673902Y-56412431D01*
X143675500Y-56405432D01*
X143675500Y-56398254D01*
X143675965Y-56389970D01*
X143678428Y-56368103D01*
X143679362Y-56359816D01*
X143676607Y-56351943D01*
X143675965Y-56346244D01*
X143675500Y-56337957D01*
X143675500Y-55725000D01*
X145794819Y-55725000D01*
X145813426Y-55842482D01*
X145867427Y-55948465D01*
X145951535Y-56032573D01*
X146057518Y-56086574D01*
X146175000Y-56105181D01*
X146292482Y-56086574D01*
X146398465Y-56032573D01*
X146482573Y-55948465D01*
X146536574Y-55842482D01*
X146555181Y-55725000D01*
X146536574Y-55607518D01*
X146482573Y-55501535D01*
X146398465Y-55417427D01*
X146292482Y-55363426D01*
X146286728Y-55362514D01*
X146286726Y-55362514D01*
X146180752Y-55345730D01*
X146175000Y-55344819D01*
X146169248Y-55345730D01*
X146063273Y-55362514D01*
X146063269Y-55362515D01*
X146057518Y-55363426D01*
X146052326Y-55366071D01*
X146052324Y-55366072D01*
X145956727Y-55414781D01*
X145956724Y-55414782D01*
X145951535Y-55417427D01*
X145947418Y-55421543D01*
X145947415Y-55421546D01*
X145871546Y-55497415D01*
X145871543Y-55497418D01*
X145867427Y-55501535D01*
X145864782Y-55506724D01*
X145864781Y-55506727D01*
X145816072Y-55602324D01*
X145813426Y-55607518D01*
X145812515Y-55613269D01*
X145812514Y-55613273D01*
X145795730Y-55719248D01*
X145794819Y-55725000D01*
X143675500Y-55725000D01*
X143675500Y-54900000D01*
X148919819Y-54900000D01*
X148938426Y-55017482D01*
X148992427Y-55123465D01*
X149076535Y-55207573D01*
X149182518Y-55261574D01*
X149300000Y-55280181D01*
X149417482Y-55261574D01*
X149523465Y-55207573D01*
X149607573Y-55123465D01*
X149661574Y-55017482D01*
X149680181Y-54900000D01*
X149661574Y-54782518D01*
X149607573Y-54676535D01*
X149523465Y-54592427D01*
X149417482Y-54538426D01*
X149411728Y-54537514D01*
X149411726Y-54537514D01*
X149305752Y-54520730D01*
X149300000Y-54519819D01*
X149294248Y-54520730D01*
X149188273Y-54537514D01*
X149188269Y-54537515D01*
X149182518Y-54538426D01*
X149177326Y-54541071D01*
X149177324Y-54541072D01*
X149081727Y-54589781D01*
X149081724Y-54589782D01*
X149076535Y-54592427D01*
X149072418Y-54596543D01*
X149072415Y-54596546D01*
X148996546Y-54672415D01*
X148996543Y-54672418D01*
X148992427Y-54676535D01*
X148989782Y-54681724D01*
X148989781Y-54681727D01*
X148941072Y-54777324D01*
X148938426Y-54782518D01*
X148937515Y-54788269D01*
X148937514Y-54788273D01*
X148922405Y-54883675D01*
X148919819Y-54900000D01*
X143675500Y-54900000D01*
X143675500Y-53010837D01*
X143683565Y-52977242D01*
X143699489Y-52958597D01*
X143698465Y-52957573D01*
X143698464Y-52957573D01*
X143782573Y-52873465D01*
X143836574Y-52767482D01*
X143855181Y-52650000D01*
X143836574Y-52532518D01*
X143782573Y-52426535D01*
X143698465Y-52342427D01*
X143592482Y-52288426D01*
X143586728Y-52287514D01*
X143586726Y-52287514D01*
X143535621Y-52279420D01*
X143492006Y-52255625D01*
X143473270Y-52209610D01*
X143487858Y-52162116D01*
X143529194Y-52134554D01*
X145370749Y-51672697D01*
X149216412Y-51672697D01*
X149217346Y-51677250D01*
X149217347Y-51677254D01*
X149248523Y-51829133D01*
X149248524Y-51829138D01*
X149249460Y-51833694D01*
X149251499Y-51837875D01*
X149251501Y-51837880D01*
X149290875Y-51918608D01*
X149321508Y-51981416D01*
X149324523Y-51984959D01*
X149324524Y-51984960D01*
X149392397Y-52064710D01*
X149428029Y-52106578D01*
X149562330Y-52201317D01*
X149715973Y-52259681D01*
X149859008Y-52275724D01*
X149874676Y-52277482D01*
X149874676Y-52277481D01*
X149879304Y-52278001D01*
X150793421Y-52149531D01*
X150912218Y-52117254D01*
X151055124Y-52036073D01*
X151173351Y-51921903D01*
X151259470Y-51781918D01*
X151308071Y-51624913D01*
X151316100Y-51460755D01*
X151283052Y-51299758D01*
X151211004Y-51152036D01*
X151104482Y-51026874D01*
X151084050Y-51012461D01*
X150973986Y-50934819D01*
X150973985Y-50934818D01*
X150970181Y-50932135D01*
X150965830Y-50930482D01*
X150965826Y-50930480D01*
X150820891Y-50875424D01*
X150820886Y-50875423D01*
X150816538Y-50873771D01*
X150811916Y-50873252D01*
X150811910Y-50873251D01*
X150657835Y-50855970D01*
X150653208Y-50855451D01*
X150648605Y-50856097D01*
X150648597Y-50856098D01*
X149741393Y-50983597D01*
X149741385Y-50983598D01*
X149739091Y-50983921D01*
X149736854Y-50984528D01*
X149736843Y-50984531D01*
X149624783Y-51014977D01*
X149624775Y-51014980D01*
X149620293Y-51016198D01*
X149616253Y-51018492D01*
X149616248Y-51018495D01*
X149481432Y-51095081D01*
X149481428Y-51095083D01*
X149477388Y-51097379D01*
X149474045Y-51100607D01*
X149474040Y-51100611D01*
X149362510Y-51208314D01*
X149362506Y-51208318D01*
X149359161Y-51211549D01*
X149356724Y-51215510D01*
X149356721Y-51215514D01*
X149275479Y-51347571D01*
X149275476Y-51347577D01*
X149273042Y-51351534D01*
X149271667Y-51355975D01*
X149271665Y-51355980D01*
X149225816Y-51504091D01*
X149225814Y-51504097D01*
X149224440Y-51508539D01*
X149224213Y-51513178D01*
X149224212Y-51513185D01*
X149216639Y-51668048D01*
X149216412Y-51672697D01*
X145370749Y-51672697D01*
X154551411Y-49370212D01*
X154586002Y-49369874D01*
X154616968Y-49385296D01*
G37*
G04 #@! TD.AperFunction*
G04 #@! TA.AperFunction,Conductor*
G36*
X136992663Y-61541386D02*
G01*
X137018806Y-61582223D01*
X137014055Y-61630478D01*
X136985542Y-61660135D01*
X136986434Y-61661362D01*
X136981726Y-61664781D01*
X136976535Y-61667427D01*
X136972418Y-61671543D01*
X136972415Y-61671546D01*
X136896546Y-61747415D01*
X136896543Y-61747418D01*
X136892427Y-61751535D01*
X136889782Y-61756724D01*
X136889781Y-61756727D01*
X136841072Y-61852324D01*
X136838426Y-61857518D01*
X136837515Y-61863269D01*
X136837514Y-61863273D01*
X136828929Y-61917482D01*
X136819819Y-61975000D01*
X136832417Y-62054545D01*
X136833903Y-62063924D01*
X136828416Y-62105599D01*
X136801117Y-62137562D01*
X136760814Y-62149500D01*
X136193317Y-62149500D01*
X136146747Y-62133009D01*
X136120934Y-62090885D01*
X136127382Y-62041906D01*
X136147073Y-62003262D01*
X136165680Y-61885780D01*
X136158365Y-61839598D01*
X136161076Y-61805157D01*
X136179126Y-61775701D01*
X136407654Y-61547174D01*
X136431663Y-61531133D01*
X136459981Y-61525500D01*
X136946851Y-61525500D01*
X136992663Y-61541386D01*
G37*
G04 #@! TD.AperFunction*
G04 #@! TA.AperFunction,Conductor*
G36*
X143223670Y-52226758D02*
G01*
X143258911Y-52258295D01*
X143267858Y-52304732D01*
X143246856Y-52347105D01*
X143171546Y-52422415D01*
X143171543Y-52422418D01*
X143167427Y-52426535D01*
X143164782Y-52431724D01*
X143164781Y-52431727D01*
X143118213Y-52523122D01*
X143113426Y-52532518D01*
X143112515Y-52538269D01*
X143112514Y-52538273D01*
X143096655Y-52638406D01*
X143094819Y-52650000D01*
X143095730Y-52655752D01*
X143108439Y-52735998D01*
X143113426Y-52767482D01*
X143167427Y-52873465D01*
X143171546Y-52877584D01*
X143251535Y-52957573D01*
X143250510Y-52958597D01*
X143266435Y-52977242D01*
X143274500Y-53010837D01*
X143274500Y-56269140D01*
X143268867Y-56297459D01*
X143252825Y-56321466D01*
X141162719Y-58411574D01*
X139176826Y-60397467D01*
X139138937Y-60417719D01*
X139096181Y-60413508D01*
X139062971Y-60386253D01*
X139050500Y-60345141D01*
X139050500Y-59463201D01*
X139056133Y-59434882D01*
X139072174Y-59410875D01*
X139211661Y-59271388D01*
X139639920Y-58843127D01*
X139669377Y-58825077D01*
X139703818Y-58822366D01*
X139750000Y-58829681D01*
X139867482Y-58811074D01*
X139973465Y-58757073D01*
X140057573Y-58672965D01*
X140111574Y-58566982D01*
X140130181Y-58449500D01*
X140111574Y-58332018D01*
X140057573Y-58226035D01*
X139973465Y-58141927D01*
X139867482Y-58087926D01*
X139861728Y-58087014D01*
X139861726Y-58087014D01*
X139755752Y-58070230D01*
X139750000Y-58069319D01*
X139744248Y-58070230D01*
X139638273Y-58087014D01*
X139638269Y-58087015D01*
X139632518Y-58087926D01*
X139627326Y-58090571D01*
X139627324Y-58090572D01*
X139531727Y-58139281D01*
X139531724Y-58139282D01*
X139526535Y-58141927D01*
X139522418Y-58146043D01*
X139522415Y-58146046D01*
X139446546Y-58221915D01*
X139446543Y-58221918D01*
X139442427Y-58226035D01*
X139439782Y-58231224D01*
X139439781Y-58231227D01*
X139430216Y-58250000D01*
X139388426Y-58332018D01*
X139387515Y-58337769D01*
X139387514Y-58337773D01*
X139376245Y-58408927D01*
X139369819Y-58449500D01*
X139370730Y-58455252D01*
X139370730Y-58455254D01*
X139377132Y-58495679D01*
X139374421Y-58530122D01*
X139356369Y-58559580D01*
X138739971Y-59175978D01*
X138733786Y-59181506D01*
X138729285Y-59185094D01*
X138721776Y-59188712D01*
X138703218Y-59211982D01*
X138702852Y-59212441D01*
X138697329Y-59218621D01*
X138695187Y-59220762D01*
X138695180Y-59220770D01*
X138692252Y-59223699D01*
X138690047Y-59227206D01*
X138690040Y-59227216D01*
X138688429Y-59229780D01*
X138683638Y-59236532D01*
X138669906Y-59253752D01*
X138669904Y-59253754D01*
X138664710Y-59260269D01*
X138662856Y-59268389D01*
X138661412Y-59271388D01*
X138660315Y-59274523D01*
X138655884Y-59281576D01*
X138654951Y-59289854D01*
X138654950Y-59289858D01*
X138652486Y-59311732D01*
X138651098Y-59319903D01*
X138650423Y-59322858D01*
X138650421Y-59322871D01*
X138649500Y-59326910D01*
X138649500Y-59331062D01*
X138649500Y-59334088D01*
X138649035Y-59342372D01*
X138646571Y-59364238D01*
X138646571Y-59364240D01*
X138645638Y-59372526D01*
X138648392Y-59380397D01*
X138649035Y-59386098D01*
X138649500Y-59394385D01*
X138649500Y-60123151D01*
X138633009Y-60169721D01*
X138590885Y-60195534D01*
X138541906Y-60189085D01*
X138442482Y-60138426D01*
X138436728Y-60137514D01*
X138436726Y-60137514D01*
X138330752Y-60120730D01*
X138325000Y-60119819D01*
X138319248Y-60120730D01*
X138213273Y-60137514D01*
X138213269Y-60137515D01*
X138207518Y-60138426D01*
X138202326Y-60141071D01*
X138202324Y-60141072D01*
X138106727Y-60189781D01*
X138106724Y-60189782D01*
X138101535Y-60192427D01*
X138097418Y-60196543D01*
X138097415Y-60196546D01*
X138021546Y-60272415D01*
X138021543Y-60272418D01*
X138017427Y-60276535D01*
X138014782Y-60281724D01*
X138014781Y-60281727D01*
X137981633Y-60346784D01*
X137963426Y-60382518D01*
X137962515Y-60388269D01*
X137962514Y-60388273D01*
X137956025Y-60429245D01*
X137944819Y-60500000D01*
X137945730Y-60505752D01*
X137961418Y-60604809D01*
X137963426Y-60617482D01*
X138017427Y-60723465D01*
X138021546Y-60727584D01*
X138092136Y-60798174D01*
X138112388Y-60836063D01*
X138108177Y-60878819D01*
X138080922Y-60912029D01*
X138039810Y-60924500D01*
X133403020Y-60924500D01*
X133359517Y-60910362D01*
X133338559Y-60881505D01*
X133336573Y-60882517D01*
X133285918Y-60783101D01*
X133279471Y-60734122D01*
X133305284Y-60691999D01*
X133351854Y-60675508D01*
X137287408Y-60675508D01*
X137295748Y-60675508D01*
X137309108Y-60669073D01*
X137324749Y-60663599D01*
X137339216Y-60660298D01*
X137350814Y-60651047D01*
X137364845Y-60642231D01*
X137378209Y-60635796D01*
X137387455Y-60624200D01*
X137399179Y-60612477D01*
X137400121Y-60611726D01*
X137410773Y-60603232D01*
X137417208Y-60589868D01*
X137426024Y-60575837D01*
X137435275Y-60564239D01*
X137438576Y-60549772D01*
X137444051Y-60534130D01*
X137446866Y-60528285D01*
X137446865Y-60528285D01*
X137450485Y-60520771D01*
X137450485Y-60429245D01*
X137450485Y-57699508D01*
X137460399Y-57662508D01*
X137487485Y-57635422D01*
X137524485Y-57625508D01*
X139831148Y-57625508D01*
X139841253Y-57626200D01*
X139862109Y-57629076D01*
X139896554Y-57620070D01*
X139898761Y-57619530D01*
X139939215Y-57610298D01*
X139972324Y-57583892D01*
X139973767Y-57582771D01*
X140002856Y-57560732D01*
X140004069Y-57558657D01*
X140004247Y-57558434D01*
X140010772Y-57553232D01*
X140025813Y-57521996D01*
X140028604Y-57516755D01*
X140043159Y-57491899D01*
X140044110Y-57484995D01*
X140046849Y-57478355D01*
X140046864Y-57478285D01*
X140050484Y-57470771D01*
X140050484Y-57443844D01*
X140051177Y-57433738D01*
X140051793Y-57429270D01*
X140054052Y-57412883D01*
X140052207Y-57405828D01*
X140051910Y-57400817D01*
X140050484Y-57389722D01*
X140050484Y-57387585D01*
X140050484Y-57379245D01*
X140046864Y-57371728D01*
X140042166Y-57361972D01*
X140037242Y-57348577D01*
X140015193Y-57264220D01*
X139969769Y-57090427D01*
X139789523Y-56531981D01*
X139578024Y-55984607D01*
X139335946Y-55450053D01*
X139064064Y-54930024D01*
X139049572Y-54905752D01*
X138763782Y-54427082D01*
X138763781Y-54427080D01*
X138763244Y-54426181D01*
X138750842Y-54407848D01*
X138435025Y-53940985D01*
X138434448Y-53940132D01*
X138386740Y-53877540D01*
X138164775Y-53586325D01*
X138149630Y-53540911D01*
X138165455Y-53495730D01*
X138205624Y-53469691D01*
X143176530Y-52223002D01*
X143223670Y-52226758D01*
G37*
G04 #@! TD.AperFunction*
M02*
