G04 #@! TF.GenerationSoftware,KiCad,Pcbnew,(7.0.0-0)*
G04 #@! TF.CreationDate,2024-02-04T16:48:37+08:00*
G04 #@! TF.ProjectId,SWDProgrammer,53574450-726f-4677-9261-6d6d65722e6b,rev?*
G04 #@! TF.SameCoordinates,Original*
G04 #@! TF.FileFunction,Soldermask,Top*
G04 #@! TF.FilePolarity,Negative*
%FSLAX46Y46*%
G04 Gerber Fmt 4.6, Leading zero omitted, Abs format (unit mm)*
G04 Created by KiCad (PCBNEW (7.0.0-0)) date 2024-02-04 16:48:37*
%MOMM*%
%LPD*%
G01*
G04 APERTURE LIST*
G04 Aperture macros list*
%AMRoundRect*
0 Rectangle with rounded corners*
0 $1 Rounding radius*
0 $2 $3 $4 $5 $6 $7 $8 $9 X,Y pos of 4 corners*
0 Add a 4 corners polygon primitive as box body*
4,1,4,$2,$3,$4,$5,$6,$7,$8,$9,$2,$3,0*
0 Add four circle primitives for the rounded corners*
1,1,$1+$1,$2,$3*
1,1,$1+$1,$4,$5*
1,1,$1+$1,$6,$7*
1,1,$1+$1,$8,$9*
0 Add four rect primitives between the rounded corners*
20,1,$1+$1,$2,$3,$4,$5,0*
20,1,$1+$1,$4,$5,$6,$7,0*
20,1,$1+$1,$6,$7,$8,$9,0*
20,1,$1+$1,$8,$9,$2,$3,0*%
%AMHorizOval*
0 Thick line with rounded ends*
0 $1 width*
0 $2 $3 position (X,Y) of the first rounded end (center of the circle)*
0 $4 $5 position (X,Y) of the second rounded end (center of the circle)*
0 Add line between two ends*
20,1,$1,$2,$3,$4,$5,0*
0 Add two circle primitives to create the rounded ends*
1,1,$1,$2,$3*
1,1,$1,$4,$5*%
%AMOutline5P*
0 Free polygon, 5 corners , with rotation*
0 The origin of the aperture is its center*
0 number of corners: always 5*
0 $1 to $10 corner X, Y*
0 $11 Rotation angle, in degrees counterclockwise*
0 create outline with 5 corners*
4,1,5,$1,$2,$3,$4,$5,$6,$7,$8,$9,$10,$1,$2,$11*%
%AMOutline6P*
0 Free polygon, 6 corners , with rotation*
0 The origin of the aperture is its center*
0 number of corners: always 6*
0 $1 to $12 corner X, Y*
0 $13 Rotation angle, in degrees counterclockwise*
0 create outline with 6 corners*
4,1,6,$1,$2,$3,$4,$5,$6,$7,$8,$9,$10,$11,$12,$1,$2,$13*%
%AMOutline7P*
0 Free polygon, 7 corners , with rotation*
0 The origin of the aperture is its center*
0 number of corners: always 7*
0 $1 to $14 corner X, Y*
0 $15 Rotation angle, in degrees counterclockwise*
0 create outline with 7 corners*
4,1,7,$1,$2,$3,$4,$5,$6,$7,$8,$9,$10,$11,$12,$13,$14,$1,$2,$15*%
%AMOutline8P*
0 Free polygon, 8 corners , with rotation*
0 The origin of the aperture is its center*
0 number of corners: always 8*
0 $1 to $16 corner X, Y*
0 $17 Rotation angle, in degrees counterclockwise*
0 create outline with 8 corners*
4,1,8,$1,$2,$3,$4,$5,$6,$7,$8,$9,$10,$11,$12,$13,$14,$15,$16,$1,$2,$17*%
%AMFreePoly0*
4,1,19,0.550000,-0.750000,0.000000,-0.750000,0.000000,-0.744911,-0.071157,-0.744911,-0.207708,-0.704816,-0.327430,-0.627875,-0.420627,-0.520320,-0.479746,-0.390866,-0.500000,-0.250000,-0.500000,0.250000,-0.479746,0.390866,-0.420627,0.520320,-0.327430,0.627875,-0.207708,0.704816,-0.071157,0.744911,0.000000,0.744911,0.000000,0.750000,0.550000,0.750000,0.550000,-0.750000,0.550000,-0.750000,
$1*%
%AMFreePoly1*
4,1,19,0.000000,0.744911,0.071157,0.744911,0.207708,0.704816,0.327430,0.627875,0.420627,0.520320,0.479746,0.390866,0.500000,0.250000,0.500000,-0.250000,0.479746,-0.390866,0.420627,-0.520320,0.327430,-0.627875,0.207708,-0.704816,0.071157,-0.744911,0.000000,-0.744911,0.000000,-0.750000,-0.550000,-0.750000,-0.550000,0.750000,0.000000,0.750000,0.000000,0.744911,0.000000,0.744911,
$1*%
%AMFreePoly2*
4,1,19,0.500000,-0.750000,0.000000,-0.750000,0.000000,-0.744911,-0.071157,-0.744911,-0.207708,-0.704816,-0.327430,-0.627875,-0.420627,-0.520320,-0.479746,-0.390866,-0.500000,-0.250000,-0.500000,0.250000,-0.479746,0.390866,-0.420627,0.520320,-0.327430,0.627875,-0.207708,0.704816,-0.071157,0.744911,0.000000,0.744911,0.000000,0.750000,0.500000,0.750000,0.500000,-0.750000,0.500000,-0.750000,
$1*%
%AMFreePoly3*
4,1,19,0.000000,0.744911,0.071157,0.744911,0.207708,0.704816,0.327430,0.627875,0.420627,0.520320,0.479746,0.390866,0.500000,0.250000,0.500000,-0.250000,0.479746,-0.390866,0.420627,-0.520320,0.327430,-0.627875,0.207708,-0.704816,0.071157,-0.744911,0.000000,-0.744911,0.000000,-0.750000,-0.500000,-0.750000,-0.500000,0.750000,0.000000,0.750000,0.000000,0.744911,0.000000,0.744911,
$1*%
G04 Aperture macros list end*
%ADD10FreePoly0,180.000000*%
%ADD11R,1.000000X1.500000*%
%ADD12FreePoly1,180.000000*%
%ADD13FreePoly2,90.000000*%
%ADD14FreePoly3,90.000000*%
%ADD15FreePoly2,0.000000*%
%ADD16FreePoly3,0.000000*%
%ADD17RoundRect,0.060000X-0.060000X-0.190000X0.060000X-0.190000X0.060000X0.190000X-0.060000X0.190000X0*%
%ADD18Outline5P,-0.200000X0.175000X0.060000X0.175000X0.200000X0.035000X0.200000X-0.175000X-0.200000X-0.175000X180.000000*%
%ADD19Outline6P,-0.130000X0.360000X0.026000X0.360000X0.130000X0.256000X0.130000X-0.256000X0.026000X-0.360000X-0.130000X-0.360000X0.000000*%
%ADD20Outline5P,-0.200000X0.035000X-0.060000X0.175000X0.200000X0.175000X0.200000X-0.175000X-0.200000X-0.175000X0.000000*%
%ADD21Outline5P,-0.200000X0.035000X-0.060000X0.175000X0.200000X0.175000X0.200000X-0.175000X-0.200000X-0.175000X180.000000*%
%ADD22Outline6P,-0.130000X0.256000X-0.026000X0.360000X0.130000X0.360000X0.130000X-0.360000X-0.026000X-0.360000X-0.130000X-0.256000X0.000000*%
%ADD23Outline5P,-0.200000X0.175000X0.060000X0.175000X0.200000X0.035000X0.200000X-0.175000X-0.200000X-0.175000X0.000000*%
%ADD24HorizOval,1.000000X-0.508829X0.317952X0.508829X-0.317952X0*%
%ADD25HorizOval,1.000000X-0.339219X0.211968X0.339219X-0.211968X0*%
%ADD26HorizOval,1.000000X0.594161X0.083504X-0.594161X-0.083504X0*%
%ADD27HorizOval,1.000000X0.396107X0.055669X-0.396107X-0.055669X0*%
G04 APERTURE END LIST*
D10*
X147050000Y-61557500D03*
D11*
X145749999Y-61557499D03*
D12*
X144450000Y-61557500D03*
D10*
X147000000Y-66100000D03*
D11*
X145699999Y-66099999D03*
D12*
X144400000Y-66100000D03*
D13*
X141250000Y-63100000D03*
D14*
X141250000Y-61800000D03*
D15*
X140200000Y-68200000D03*
D16*
X141500000Y-68200000D03*
D13*
X146650000Y-57150000D03*
D14*
X146650000Y-55850000D03*
D17*
X133999999Y-61115943D03*
X134349999Y-61115943D03*
X134699999Y-61115943D03*
X135049999Y-61115943D03*
X135399999Y-61115943D03*
X133999999Y-62525943D03*
X134349999Y-62525943D03*
X134699999Y-62525943D03*
X135049999Y-62525943D03*
X135399999Y-62525943D03*
D18*
X133394998Y-61280943D03*
D19*
X133189998Y-61825942D03*
D20*
X133394998Y-62370942D03*
D21*
X136004998Y-61280942D03*
D22*
X136209998Y-61825942D03*
D23*
X136004998Y-62370942D03*
D13*
X139250000Y-65900000D03*
D14*
X139250000Y-64600000D03*
D13*
X141250000Y-60350000D03*
D14*
X141250000Y-59050000D03*
D13*
X142150000Y-57050000D03*
D14*
X142150000Y-55750000D03*
D24*
X148316797Y-78015415D03*
X154225715Y-68559170D03*
D25*
X151003291Y-66545222D03*
X145094215Y-76001721D03*
D26*
X155581179Y-62080248D03*
X154029316Y-51038164D03*
D27*
X150266255Y-51566725D03*
X151818161Y-62609105D03*
M02*
