G04 #@! TF.GenerationSoftware,KiCad,Pcbnew,(7.0.0-0)*
G04 #@! TF.CreationDate,2023-05-05T14:07:15+08:00*
G04 #@! TF.ProjectId,SWDProgrammer,53574450-726f-4677-9261-6d6d65722e6b,rev?*
G04 #@! TF.SameCoordinates,Original*
G04 #@! TF.FileFunction,Copper,L1,Top*
G04 #@! TF.FilePolarity,Positive*
%FSLAX46Y46*%
G04 Gerber Fmt 4.6, Leading zero omitted, Abs format (unit mm)*
G04 Created by KiCad (PCBNEW (7.0.0-0)) date 2023-05-05 14:07:15*
%MOMM*%
%LPD*%
G01*
G04 APERTURE LIST*
G04 Aperture macros list*
%AMRoundRect*
0 Rectangle with rounded corners*
0 $1 Rounding radius*
0 $2 $3 $4 $5 $6 $7 $8 $9 X,Y pos of 4 corners*
0 Add a 4 corners polygon primitive as box body*
4,1,4,$2,$3,$4,$5,$6,$7,$8,$9,$2,$3,0*
0 Add four circle primitives for the rounded corners*
1,1,$1+$1,$2,$3*
1,1,$1+$1,$4,$5*
1,1,$1+$1,$6,$7*
1,1,$1+$1,$8,$9*
0 Add four rect primitives between the rounded corners*
20,1,$1+$1,$2,$3,$4,$5,0*
20,1,$1+$1,$4,$5,$6,$7,0*
20,1,$1+$1,$6,$7,$8,$9,0*
20,1,$1+$1,$8,$9,$2,$3,0*%
%AMRotRect*
0 Rectangle, with rotation*
0 The origin of the aperture is its center*
0 $1 length*
0 $2 width*
0 $3 Rotation angle, in degrees counterclockwise*
0 Add horizontal line*
21,1,$1,$2,0,0,$3*%
%AMFreePoly0*
4,1,19,0.550000,-0.750000,0.000000,-0.750000,0.000000,-0.744912,-0.071157,-0.744911,-0.207708,-0.704816,-0.327430,-0.627875,-0.420627,-0.520320,-0.479746,-0.390866,-0.500000,-0.250000,-0.500000,0.250000,-0.479746,0.390866,-0.420627,0.520320,-0.327430,0.627875,-0.207708,0.704816,-0.071157,0.744911,0.000000,0.744912,0.000000,0.750000,0.550000,0.750000,0.550000,-0.750000,0.550000,-0.750000,
$1*%
%AMFreePoly1*
4,1,19,0.000000,0.744912,0.071157,0.744911,0.207708,0.704816,0.327430,0.627875,0.420627,0.520320,0.479746,0.390866,0.500000,0.250000,0.500000,-0.250000,0.479746,-0.390866,0.420627,-0.520320,0.327430,-0.627875,0.207708,-0.704816,0.071157,-0.744911,0.000000,-0.744912,0.000000,-0.750000,-0.550000,-0.750000,-0.550000,0.750000,0.000000,0.750000,0.000000,0.744912,0.000000,0.744912,
$1*%
%AMFreePoly2*
4,1,19,0.500000,-0.750000,0.000000,-0.750000,0.000000,-0.744911,-0.071157,-0.744911,-0.207708,-0.704816,-0.327430,-0.627875,-0.420627,-0.520320,-0.479746,-0.390866,-0.500000,-0.250000,-0.500000,0.250000,-0.479746,0.390866,-0.420627,0.520320,-0.327430,0.627875,-0.207708,0.704816,-0.071157,0.744911,0.000000,0.744911,0.000000,0.750000,0.500000,0.750000,0.500000,-0.750000,0.500000,-0.750000,
$1*%
%AMFreePoly3*
4,1,19,0.000000,0.744911,0.071157,0.744911,0.207708,0.704816,0.327430,0.627875,0.420627,0.520320,0.479746,0.390866,0.500000,0.250000,0.500000,-0.250000,0.479746,-0.390866,0.420627,-0.520320,0.327430,-0.627875,0.207708,-0.704816,0.071157,-0.744911,0.000000,-0.744911,0.000000,-0.750000,-0.500000,-0.750000,-0.500000,0.750000,0.000000,0.750000,0.000000,0.744911,0.000000,0.744911,
$1*%
G04 Aperture macros list end*
G04 #@! TA.AperFunction,SMDPad,CuDef*
%ADD10RoundRect,0.140000X-0.021213X0.219203X-0.219203X0.021213X0.021213X-0.219203X0.219203X-0.021213X0*%
G04 #@! TD*
G04 #@! TA.AperFunction,SMDPad,CuDef*
%ADD11FreePoly0,225.000000*%
G04 #@! TD*
G04 #@! TA.AperFunction,SMDPad,CuDef*
%ADD12RotRect,1.000000X1.500000X225.000000*%
G04 #@! TD*
G04 #@! TA.AperFunction,SMDPad,CuDef*
%ADD13FreePoly1,225.000000*%
G04 #@! TD*
G04 #@! TA.AperFunction,SMDPad,CuDef*
%ADD14RoundRect,0.140000X0.170000X-0.140000X0.170000X0.140000X-0.170000X0.140000X-0.170000X-0.140000X0*%
G04 #@! TD*
G04 #@! TA.AperFunction,SMDPad,CuDef*
%ADD15RoundRect,0.135000X-0.035355X0.226274X-0.226274X0.035355X0.035355X-0.226274X0.226274X-0.035355X0*%
G04 #@! TD*
G04 #@! TA.AperFunction,SMDPad,CuDef*
%ADD16RoundRect,0.140000X0.140000X0.170000X-0.140000X0.170000X-0.140000X-0.170000X0.140000X-0.170000X0*%
G04 #@! TD*
G04 #@! TA.AperFunction,ComponentPad*
%ADD17C,1.300000*%
G04 #@! TD*
G04 #@! TA.AperFunction,SMDPad,CuDef*
%ADD18RoundRect,0.147500X0.017678X-0.226274X0.226274X-0.017678X-0.017678X0.226274X-0.226274X0.017678X0*%
G04 #@! TD*
G04 #@! TA.AperFunction,SMDPad,CuDef*
%ADD19FreePoly2,270.000000*%
G04 #@! TD*
G04 #@! TA.AperFunction,SMDPad,CuDef*
%ADD20FreePoly3,270.000000*%
G04 #@! TD*
G04 #@! TA.AperFunction,SMDPad,CuDef*
%ADD21RoundRect,0.135000X0.035355X-0.226274X0.226274X-0.035355X-0.035355X0.226274X-0.226274X0.035355X0*%
G04 #@! TD*
G04 #@! TA.AperFunction,SMDPad,CuDef*
%ADD22RoundRect,0.135000X0.185000X-0.135000X0.185000X0.135000X-0.185000X0.135000X-0.185000X-0.135000X0*%
G04 #@! TD*
G04 #@! TA.AperFunction,SMDPad,CuDef*
%ADD23R,0.800000X0.540000*%
G04 #@! TD*
G04 #@! TA.AperFunction,SMDPad,CuDef*
%ADD24R,0.800000X0.300000*%
G04 #@! TD*
G04 #@! TA.AperFunction,ComponentPad*
%ADD25O,2.200000X1.000000*%
G04 #@! TD*
G04 #@! TA.AperFunction,ComponentPad*
%ADD26O,1.800000X1.000000*%
G04 #@! TD*
G04 #@! TA.AperFunction,SMDPad,CuDef*
%ADD27RoundRect,0.140000X0.021213X-0.219203X0.219203X-0.021213X-0.021213X0.219203X-0.219203X0.021213X0*%
G04 #@! TD*
G04 #@! TA.AperFunction,SMDPad,CuDef*
%ADD28RoundRect,0.075000X-0.415425X-0.521491X0.521491X0.415425X0.415425X0.521491X-0.521491X-0.415425X0*%
G04 #@! TD*
G04 #@! TA.AperFunction,SMDPad,CuDef*
%ADD29RoundRect,0.075000X0.415425X-0.521491X0.521491X-0.415425X-0.415425X0.521491X-0.521491X0.415425X0*%
G04 #@! TD*
G04 #@! TA.AperFunction,SMDPad,CuDef*
%ADD30RoundRect,0.135000X0.226274X0.035355X0.035355X0.226274X-0.226274X-0.035355X-0.035355X-0.226274X0*%
G04 #@! TD*
G04 #@! TA.AperFunction,ViaPad*
%ADD31C,0.500000*%
G04 #@! TD*
G04 #@! TA.AperFunction,Conductor*
%ADD32C,0.150000*%
G04 #@! TD*
G04 APERTURE END LIST*
D10*
X127139411Y-84660589D03*
X126460589Y-85339411D03*
X127239411Y-86060589D03*
X126560589Y-86739411D03*
D11*
X138000039Y-93099961D03*
D12*
X137080799Y-94019199D03*
D13*
X136161561Y-94938439D03*
D14*
X128130000Y-95390000D03*
X128130000Y-94430000D03*
D15*
X126960624Y-83339376D03*
X126239376Y-84060624D03*
X128660624Y-84639376D03*
X127939376Y-85360624D03*
D16*
X130940000Y-95360000D03*
X129980000Y-95360000D03*
D17*
X140000000Y-88150000D03*
X140000000Y-89850000D03*
D18*
X127857053Y-84042947D03*
X128542947Y-83357053D03*
D19*
X126700000Y-93930000D03*
D20*
X126700000Y-95230000D03*
D21*
X135978776Y-93121224D03*
X136700024Y-92399976D03*
D22*
X129070000Y-95380000D03*
X129070000Y-94360000D03*
D23*
X125399999Y-92204999D03*
X125399999Y-85804999D03*
X125399999Y-91404999D03*
X125399999Y-86604999D03*
D24*
X125399999Y-87754999D03*
X125399999Y-88754999D03*
X125399999Y-89254999D03*
X125399999Y-90254999D03*
X125399999Y-90754999D03*
X125399999Y-89754999D03*
X125399999Y-88254999D03*
X125399999Y-87246999D03*
D25*
X120699999Y-94580299D03*
X120699999Y-83429699D03*
D26*
X124499999Y-83429399D03*
X124499999Y-94580299D03*
D27*
X137360589Y-91739411D03*
X138039411Y-91060589D03*
D14*
X126450000Y-92830000D03*
X126450000Y-91870000D03*
D28*
X127362124Y-89998788D03*
X127715678Y-90352342D03*
X128069231Y-90705895D03*
X128422785Y-91059449D03*
X128776338Y-91413002D03*
X129129891Y-91766555D03*
X129483445Y-92120109D03*
X129836998Y-92473662D03*
X130190551Y-92827215D03*
X130544105Y-93180769D03*
X130897658Y-93534322D03*
X131251212Y-93887876D03*
D29*
X133248788Y-93887876D03*
X133602342Y-93534322D03*
X133955895Y-93180769D03*
X134309449Y-92827215D03*
X134663002Y-92473662D03*
X135016555Y-92120109D03*
X135370109Y-91766555D03*
X135723662Y-91413002D03*
X136077215Y-91059449D03*
X136430769Y-90705895D03*
X136784322Y-90352342D03*
X137137876Y-89998788D03*
D28*
X137137876Y-88001212D03*
X136784322Y-87647658D03*
X136430769Y-87294105D03*
X136077215Y-86940551D03*
X135723662Y-86586998D03*
X135370109Y-86233445D03*
X135016555Y-85879891D03*
X134663002Y-85526338D03*
X134309449Y-85172785D03*
X133955895Y-84819231D03*
X133602342Y-84465678D03*
X133248788Y-84112124D03*
D29*
X131251212Y-84112124D03*
X130897658Y-84465678D03*
X130544105Y-84819231D03*
X130190551Y-85172785D03*
X129836998Y-85526338D03*
X129483445Y-85879891D03*
X129129891Y-86233445D03*
X128776338Y-86586998D03*
X128422785Y-86940551D03*
X128069231Y-87294105D03*
X127715678Y-87647658D03*
X127362124Y-88001212D03*
D30*
X128260624Y-93360624D03*
X127539376Y-92639376D03*
D10*
X130100011Y-83199989D03*
X129421189Y-83878811D03*
D31*
X128439193Y-89694500D03*
X128490000Y-88430000D03*
X131300000Y-91990000D03*
X135170000Y-82660000D03*
X133510000Y-95200000D03*
X128240000Y-93380000D03*
X138260000Y-84540000D03*
X138260000Y-85370000D03*
X132870000Y-90770000D03*
X130100011Y-83199989D03*
X135410000Y-88320000D03*
X137360589Y-91739411D03*
X132620000Y-85500000D03*
X134200000Y-82660000D03*
X126239376Y-84060624D03*
X132810000Y-82780000D03*
X134610000Y-95200000D03*
X132280000Y-95190000D03*
X126470000Y-92810000D03*
X138170000Y-83590000D03*
X137460000Y-82850000D03*
X137990000Y-95010000D03*
X131830000Y-87850000D03*
X136260000Y-82760000D03*
X132800000Y-92350000D03*
X130640000Y-90710000D03*
X133010000Y-83840000D03*
X138000039Y-93060000D03*
X129220000Y-83560000D03*
X126560589Y-86739411D03*
X127525261Y-91711897D03*
X129960000Y-95380000D03*
X126460589Y-85339411D03*
X126199502Y-92160000D03*
X126376147Y-87643853D03*
X126680000Y-88580000D03*
X126130000Y-89270000D03*
X126083158Y-88236434D03*
X128669963Y-84430651D03*
X130470000Y-88350000D03*
X132970000Y-88550000D03*
X133560000Y-86630000D03*
X133520000Y-85960000D03*
D32*
X130470000Y-88350000D02*
X130470000Y-88400000D01*
X128164105Y-90705895D02*
X128069231Y-90705895D01*
X130470000Y-88400000D02*
X128164105Y-90705895D01*
X127781351Y-90352342D02*
X128439193Y-89694500D01*
X127715678Y-90352342D02*
X127781351Y-90352342D01*
X136784322Y-90352342D02*
X137360589Y-90928609D01*
X137360589Y-90928609D02*
X137360589Y-91739411D01*
X130240000Y-91130000D02*
X130450000Y-91340000D01*
X129766446Y-91130000D02*
X130240000Y-91130000D01*
X130450000Y-91340000D02*
X131790000Y-91340000D01*
X129129891Y-91766555D02*
X129766446Y-91130000D01*
X131790000Y-91340000D02*
X132800000Y-92350000D01*
X129479340Y-90710000D02*
X130640000Y-90710000D01*
X128776338Y-91413002D02*
X129479340Y-90710000D01*
X129421189Y-83761189D02*
X129220000Y-83560000D01*
X133010000Y-83840000D02*
X133010000Y-83873336D01*
X129980000Y-95360000D02*
X129980000Y-94090000D01*
X138039411Y-91060589D02*
X138039411Y-90900323D01*
X138039411Y-90900323D02*
X137137876Y-89998788D01*
X128542947Y-83357053D02*
X128899431Y-83357053D01*
X129570000Y-93447766D02*
X130190551Y-92827215D01*
X127362124Y-88001212D02*
X126560589Y-87199677D01*
X138000039Y-93099961D02*
X138000039Y-93060000D01*
X138000039Y-93060000D02*
X138000039Y-91099961D01*
X129070000Y-95380000D02*
X129960000Y-95380000D01*
X129421189Y-83878811D02*
X129421189Y-83761189D01*
X128899431Y-83357053D02*
X129421189Y-83878811D01*
X126560589Y-87199677D02*
X126560589Y-86739411D01*
X129570000Y-93680000D02*
X129570000Y-93447766D01*
X129980000Y-94090000D02*
X129570000Y-93680000D01*
X129960000Y-95380000D02*
X129980000Y-95360000D01*
X138000039Y-91099961D02*
X138039411Y-91060589D01*
X133010000Y-83873336D02*
X133248788Y-84112124D01*
X128960000Y-94250000D02*
X129070000Y-94360000D01*
X127630000Y-93930000D02*
X128130000Y-94430000D01*
X129483445Y-92120109D02*
X128960000Y-92643554D01*
X128960000Y-92643554D02*
X128960000Y-94250000D01*
X129000000Y-94430000D02*
X129070000Y-94360000D01*
X128130000Y-94430000D02*
X129000000Y-94430000D01*
X126700000Y-93930000D02*
X127630000Y-93930000D01*
X126450000Y-91870000D02*
X125985000Y-91405000D01*
X126460589Y-85969411D02*
X125825000Y-86605000D01*
X126460589Y-85339411D02*
X126460589Y-85969411D01*
X125985000Y-91405000D02*
X125400000Y-91405000D01*
X126199502Y-92160000D02*
X126450000Y-91909502D01*
X126450000Y-91909502D02*
X126450000Y-91870000D01*
X125825000Y-86605000D02*
X125400000Y-86605000D01*
X127664195Y-84042947D02*
X126960624Y-83339376D01*
X127857053Y-84042947D02*
X127664195Y-84042947D01*
X126265000Y-87755000D02*
X126376147Y-87643853D01*
X125400000Y-87755000D02*
X126265000Y-87755000D01*
X125400000Y-88755000D02*
X126335000Y-88755000D01*
X126640000Y-88620000D02*
X126680000Y-88580000D01*
X126335000Y-88755000D02*
X126640000Y-89060000D01*
X126640000Y-89100000D02*
X126640000Y-89480000D01*
X126640000Y-89480000D02*
X126365000Y-89755000D01*
X126365000Y-89755000D02*
X125400000Y-89755000D01*
X126640000Y-89100000D02*
X126640000Y-88620000D01*
X126640000Y-89060000D02*
X126640000Y-89100000D01*
X126064592Y-88255000D02*
X126083158Y-88236434D01*
X126115000Y-89255000D02*
X126130000Y-89270000D01*
X125400000Y-89255000D02*
X126115000Y-89255000D01*
X125400000Y-88255000D02*
X126064592Y-88255000D01*
X126355000Y-90755000D02*
X125400000Y-90755000D01*
X127539376Y-92639376D02*
X127030000Y-92130000D01*
X127030000Y-92130000D02*
X127030000Y-91430000D01*
X127030000Y-91430000D02*
X126355000Y-90755000D01*
X136182824Y-93121224D02*
X137080800Y-94019200D01*
X135978776Y-93121224D02*
X136182824Y-93121224D01*
X128660624Y-84439990D02*
X128660624Y-84639376D01*
X128669963Y-84430651D02*
X128660624Y-84439990D01*
X133517958Y-92742832D02*
X133517958Y-91982042D01*
X133517958Y-91982042D02*
X136460000Y-89040000D01*
X137970000Y-89850000D02*
X140000000Y-89850000D01*
X136460000Y-89040000D02*
X137160000Y-89040000D01*
X133955895Y-93180769D02*
X133517958Y-92742832D01*
X137160000Y-89040000D02*
X137970000Y-89850000D01*
X137044874Y-86680000D02*
X136430769Y-87294105D01*
X140000000Y-88150000D02*
X139090000Y-88150000D01*
X137620000Y-86680000D02*
X137044874Y-86680000D01*
X139090000Y-88150000D02*
X137620000Y-86680000D01*
X130932234Y-88550000D02*
X132970000Y-88550000D01*
X128422785Y-91059449D02*
X130932234Y-88550000D01*
X128776338Y-86586998D02*
X127939376Y-85750036D01*
X127939376Y-85750036D02*
X127939376Y-85360624D01*
X136700024Y-92399976D02*
X136700024Y-92389364D01*
X136700024Y-92389364D02*
X135723662Y-91413002D01*
X133560000Y-86629340D02*
X134663002Y-85526338D01*
X133560000Y-86630000D02*
X133560000Y-86629340D01*
X133522234Y-85960000D02*
X134309449Y-85172785D01*
X133520000Y-85960000D02*
X133522234Y-85960000D01*
G04 #@! TA.AperFunction,Conductor*
G36*
X130317141Y-91527688D02*
G01*
X130336745Y-91536416D01*
X130346949Y-91541956D01*
X130367382Y-91555226D01*
X130375775Y-91556555D01*
X130394301Y-91562042D01*
X130402068Y-91565500D01*
X130426427Y-91565500D01*
X130438002Y-91566410D01*
X130462065Y-91570222D01*
X130469846Y-91568137D01*
X130470278Y-91568022D01*
X130489431Y-91565500D01*
X131665942Y-91565500D01*
X131694261Y-91571133D01*
X131718268Y-91587174D01*
X132379685Y-92248591D01*
X132397737Y-92278049D01*
X132400448Y-92312492D01*
X132394508Y-92350000D01*
X132395419Y-92355752D01*
X132412756Y-92465219D01*
X132414354Y-92475304D01*
X132471950Y-92588342D01*
X132561658Y-92678050D01*
X132674696Y-92735646D01*
X132800000Y-92755492D01*
X132925304Y-92735646D01*
X132957392Y-92719295D01*
X132999323Y-92711702D01*
X133038492Y-92728495D01*
X133061905Y-92764106D01*
X133061794Y-92806724D01*
X133041996Y-92836499D01*
X133043170Y-92837673D01*
X132908260Y-92972583D01*
X132908255Y-92972588D01*
X132905694Y-92975150D01*
X132903679Y-92978164D01*
X132903676Y-92978169D01*
X132883159Y-93008874D01*
X132868434Y-93030911D01*
X132867012Y-93038057D01*
X132867011Y-93038061D01*
X132857663Y-93085057D01*
X132837411Y-93122945D01*
X132799523Y-93143197D01*
X132752527Y-93152545D01*
X132752523Y-93152546D01*
X132745377Y-93153968D01*
X132739314Y-93158018D01*
X132739314Y-93158019D01*
X132692634Y-93189209D01*
X132692624Y-93189216D01*
X132689616Y-93191227D01*
X132687054Y-93193788D01*
X132687049Y-93193793D01*
X132554706Y-93326137D01*
X132554701Y-93326142D01*
X132552140Y-93328704D01*
X132550125Y-93331718D01*
X132550122Y-93331723D01*
X132526622Y-93366892D01*
X132514880Y-93384465D01*
X132513458Y-93391613D01*
X132513457Y-93391616D01*
X132499888Y-93459831D01*
X132497378Y-93472451D01*
X132498800Y-93479600D01*
X132505690Y-93514240D01*
X132514880Y-93560437D01*
X132528517Y-93580846D01*
X132550121Y-93613179D01*
X132550124Y-93613183D01*
X132552139Y-93616198D01*
X133520466Y-94584524D01*
X133576227Y-94621784D01*
X133664213Y-94639286D01*
X133752199Y-94621784D01*
X133807960Y-94584525D01*
X133945436Y-94447048D01*
X133982696Y-94391287D01*
X133993466Y-94337140D01*
X134013718Y-94299252D01*
X134051606Y-94279000D01*
X134105753Y-94268230D01*
X134161514Y-94230971D01*
X134298990Y-94093494D01*
X134336250Y-94037733D01*
X134347020Y-93983586D01*
X134367272Y-93945699D01*
X134405159Y-93925447D01*
X134459306Y-93914677D01*
X134515067Y-93877418D01*
X134652543Y-93739941D01*
X134689803Y-93684180D01*
X134700573Y-93630033D01*
X134720825Y-93592145D01*
X134758713Y-93571893D01*
X134812860Y-93561123D01*
X134868621Y-93523864D01*
X135006097Y-93386387D01*
X135043357Y-93330626D01*
X135054127Y-93276479D01*
X135074379Y-93238592D01*
X135112266Y-93218340D01*
X135166413Y-93207570D01*
X135222174Y-93170311D01*
X135340677Y-93051806D01*
X135378566Y-93031555D01*
X135421321Y-93035766D01*
X135454532Y-93063021D01*
X135467003Y-93104133D01*
X135467003Y-93139238D01*
X135469479Y-93145631D01*
X135469480Y-93145633D01*
X135503547Y-93233573D01*
X135503548Y-93233575D01*
X135505560Y-93238768D01*
X135520484Y-93257609D01*
X135842391Y-93579515D01*
X135861232Y-93594440D01*
X135960762Y-93632997D01*
X135967620Y-93632997D01*
X136017403Y-93632997D01*
X136055447Y-93643525D01*
X136082665Y-93672114D01*
X136091314Y-93710629D01*
X136078931Y-93748109D01*
X136075930Y-93752601D01*
X136059199Y-93777640D01*
X136059198Y-93777642D01*
X136055149Y-93783702D01*
X136053727Y-93790848D01*
X136053726Y-93790852D01*
X136045061Y-93834418D01*
X136043469Y-93842423D01*
X136044891Y-93849572D01*
X136053726Y-93893994D01*
X136053727Y-93893996D01*
X136055149Y-93901145D01*
X136080018Y-93938364D01*
X137161636Y-95019982D01*
X137198855Y-95044851D01*
X137257577Y-95056531D01*
X137316298Y-95044851D01*
X137353517Y-95019982D01*
X138081582Y-94291917D01*
X138106451Y-94254698D01*
X138112355Y-94225014D01*
X138132607Y-94187125D01*
X138170495Y-94166872D01*
X138200182Y-94160967D01*
X138249964Y-94127704D01*
X138623171Y-93754497D01*
X138661060Y-93734245D01*
X138703816Y-93738456D01*
X138737026Y-93765711D01*
X138749497Y-93806823D01*
X138749497Y-94497093D01*
X138749269Y-94502900D01*
X138734569Y-94689664D01*
X138732752Y-94701132D01*
X138689700Y-94880454D01*
X138686112Y-94891498D01*
X138615537Y-95061881D01*
X138610265Y-95072227D01*
X138513906Y-95229471D01*
X138507081Y-95238865D01*
X138387308Y-95379101D01*
X138379097Y-95387312D01*
X138238861Y-95507084D01*
X138229467Y-95513910D01*
X138072223Y-95610268D01*
X138061876Y-95615539D01*
X137891492Y-95686114D01*
X137880449Y-95689702D01*
X137701128Y-95732753D01*
X137689659Y-95734570D01*
X137502857Y-95749272D01*
X137497051Y-95749500D01*
X130454206Y-95749500D01*
X130408707Y-95733860D01*
X130382441Y-95693550D01*
X130386511Y-95645610D01*
X130389252Y-95639401D01*
X130407682Y-95597662D01*
X130410500Y-95573373D01*
X130410499Y-95146628D01*
X130407682Y-95122338D01*
X130363813Y-95022984D01*
X130287016Y-94946187D01*
X130249608Y-94929670D01*
X130217501Y-94902375D01*
X130205500Y-94861976D01*
X130205500Y-94276636D01*
X130217971Y-94235524D01*
X130251181Y-94208269D01*
X130293937Y-94204058D01*
X130331825Y-94224309D01*
X130338486Y-94230970D01*
X130394247Y-94268230D01*
X130448393Y-94279000D01*
X130486281Y-94299252D01*
X130506533Y-94337140D01*
X130515881Y-94384136D01*
X130515882Y-94384138D01*
X130517304Y-94391287D01*
X130521355Y-94397349D01*
X130552545Y-94444029D01*
X130552548Y-94444033D01*
X130554563Y-94447048D01*
X130692040Y-94584524D01*
X130747801Y-94621784D01*
X130835787Y-94639286D01*
X130923773Y-94621784D01*
X130979534Y-94584525D01*
X131947860Y-93616198D01*
X131985120Y-93560437D01*
X132002622Y-93472451D01*
X131985120Y-93384465D01*
X131952759Y-93336034D01*
X131949878Y-93331722D01*
X131949875Y-93331719D01*
X131947861Y-93328704D01*
X131810384Y-93191228D01*
X131807362Y-93189209D01*
X131775239Y-93167744D01*
X131754623Y-93153968D01*
X131747474Y-93152546D01*
X131747472Y-93152545D01*
X131700476Y-93143197D01*
X131662588Y-93122945D01*
X131642336Y-93085056D01*
X131637953Y-93063021D01*
X131631566Y-93030911D01*
X131598797Y-92981869D01*
X131596324Y-92978168D01*
X131596321Y-92978165D01*
X131594307Y-92975150D01*
X131456830Y-92837674D01*
X131401069Y-92800414D01*
X131393920Y-92798992D01*
X131393918Y-92798991D01*
X131346923Y-92789643D01*
X131309035Y-92769391D01*
X131288783Y-92731502D01*
X131286355Y-92719297D01*
X131278013Y-92677358D01*
X131247409Y-92631557D01*
X131242771Y-92624615D01*
X131242768Y-92624612D01*
X131240754Y-92621597D01*
X131103277Y-92484121D01*
X131047516Y-92446861D01*
X131040367Y-92445439D01*
X131040365Y-92445438D01*
X130993369Y-92436090D01*
X130955481Y-92415838D01*
X130935229Y-92377949D01*
X130930814Y-92355752D01*
X130924459Y-92323804D01*
X130894888Y-92279548D01*
X130889217Y-92271061D01*
X130889214Y-92271058D01*
X130887200Y-92268043D01*
X130749723Y-92130567D01*
X130746701Y-92128548D01*
X130743032Y-92126096D01*
X130693962Y-92093307D01*
X130686811Y-92091884D01*
X130686810Y-92091884D01*
X130613125Y-92077227D01*
X130605976Y-92075805D01*
X130598827Y-92077227D01*
X130525141Y-92091884D01*
X130525138Y-92091885D01*
X130517990Y-92093307D01*
X130511927Y-92097357D01*
X130511927Y-92097358D01*
X130465247Y-92128548D01*
X130465237Y-92128555D01*
X130462229Y-92130566D01*
X130459667Y-92133127D01*
X130459662Y-92133132D01*
X129496469Y-93096326D01*
X129496464Y-93096331D01*
X129493903Y-93098893D01*
X129491888Y-93101907D01*
X129491885Y-93101912D01*
X129462671Y-93145633D01*
X129456643Y-93154654D01*
X129455221Y-93161800D01*
X129455220Y-93161804D01*
X129439279Y-93241944D01*
X129419027Y-93279832D01*
X129416100Y-93282759D01*
X129413292Y-93285424D01*
X129389268Y-93307056D01*
X129389265Y-93307059D01*
X129383491Y-93312259D01*
X129380329Y-93319359D01*
X129380327Y-93319363D01*
X129373581Y-93334514D01*
X129368043Y-93344715D01*
X129359009Y-93358625D01*
X129359007Y-93358628D01*
X129354774Y-93365148D01*
X129353557Y-93372827D01*
X129353556Y-93372831D01*
X129353443Y-93373549D01*
X129347960Y-93392060D01*
X129347662Y-93392728D01*
X129347660Y-93392733D01*
X129344500Y-93399834D01*
X129344500Y-93407609D01*
X129344500Y-93424193D01*
X129343589Y-93435769D01*
X129340994Y-93452148D01*
X129340994Y-93452152D01*
X129339778Y-93459831D01*
X129341790Y-93467343D01*
X129341791Y-93467346D01*
X129341978Y-93468044D01*
X129344500Y-93487197D01*
X129344500Y-93672139D01*
X129344399Y-93676012D01*
X129342706Y-93708299D01*
X129342706Y-93708303D01*
X129342300Y-93716064D01*
X129345084Y-93723319D01*
X129345086Y-93723326D01*
X129351030Y-93738812D01*
X129354326Y-93749938D01*
X129357774Y-93766158D01*
X129357776Y-93766163D01*
X129359393Y-93773768D01*
X129363963Y-93780059D01*
X129363965Y-93780062D01*
X129364390Y-93780647D01*
X129373603Y-93797614D01*
X129373865Y-93798298D01*
X129373868Y-93798302D01*
X129376654Y-93805560D01*
X129382152Y-93811058D01*
X129389466Y-93818372D01*
X129410516Y-93861108D01*
X129401156Y-93907819D01*
X129365265Y-93939145D01*
X129321544Y-93941865D01*
X129321498Y-93942270D01*
X129319247Y-93942008D01*
X129319242Y-93942008D01*
X129315974Y-93941629D01*
X129315970Y-93941628D01*
X129299751Y-93939746D01*
X129299735Y-93939745D01*
X129297623Y-93939500D01*
X129295480Y-93939500D01*
X129259500Y-93939500D01*
X129222500Y-93929586D01*
X129195414Y-93902500D01*
X129185500Y-93865500D01*
X129185500Y-92872853D01*
X129192606Y-92841212D01*
X129211609Y-92816863D01*
X129211767Y-92816758D01*
X130180093Y-91848431D01*
X130217353Y-91792670D01*
X130234855Y-91704684D01*
X130217353Y-91616698D01*
X130218007Y-91616567D01*
X130214560Y-91580386D01*
X130235403Y-91542288D01*
X130274031Y-91522444D01*
X130317141Y-91527688D01*
G37*
G04 #@! TD.AperFunction*
G04 #@! TA.AperFunction,Conductor*
G36*
X128013983Y-91843678D02*
G01*
X128035800Y-91883085D01*
X128041007Y-91909261D01*
X128042430Y-91916413D01*
X128054255Y-91934110D01*
X128077671Y-91969155D01*
X128077674Y-91969159D01*
X128079689Y-91972174D01*
X128217166Y-92109650D01*
X128272927Y-92146910D01*
X128327071Y-92157680D01*
X128364960Y-92177932D01*
X128385212Y-92215820D01*
X128394560Y-92262815D01*
X128394561Y-92262817D01*
X128395983Y-92269966D01*
X128406232Y-92285304D01*
X128431224Y-92322708D01*
X128431227Y-92322712D01*
X128433242Y-92325727D01*
X128570719Y-92463203D01*
X128626480Y-92500463D01*
X128677575Y-92510626D01*
X128712169Y-92527779D01*
X128733414Y-92560024D01*
X128735266Y-92593899D01*
X128734500Y-92595622D01*
X128734500Y-92603397D01*
X128734500Y-92619981D01*
X128733589Y-92631557D01*
X128730994Y-92647936D01*
X128730994Y-92647940D01*
X128729778Y-92655619D01*
X128731790Y-92663131D01*
X128731791Y-92663134D01*
X128731978Y-92663832D01*
X128734500Y-92682985D01*
X128734500Y-93941091D01*
X128728867Y-93969410D01*
X128712826Y-93993417D01*
X128650232Y-94056010D01*
X128650229Y-94056013D01*
X128645384Y-94060859D01*
X128642616Y-94067127D01*
X128642611Y-94067135D01*
X128638876Y-94075595D01*
X128607190Y-94110351D01*
X128560958Y-94118992D01*
X128518857Y-94098028D01*
X128471864Y-94051035D01*
X128471863Y-94051034D01*
X128467016Y-94046187D01*
X128460743Y-94043417D01*
X128372750Y-94004564D01*
X128372746Y-94004563D01*
X128367662Y-94002318D01*
X128362141Y-94001677D01*
X128362136Y-94001676D01*
X128345501Y-93999746D01*
X128345485Y-93999745D01*
X128343373Y-93999500D01*
X128341230Y-93999500D01*
X128049057Y-93999500D01*
X128020738Y-93993867D01*
X127996731Y-93977826D01*
X127795007Y-93776102D01*
X127792340Y-93773292D01*
X127770710Y-93749269D01*
X127770708Y-93749268D01*
X127765507Y-93743491D01*
X127758405Y-93740328D01*
X127758401Y-93740326D01*
X127743251Y-93733581D01*
X127733050Y-93728042D01*
X127719144Y-93719012D01*
X127719143Y-93719011D01*
X127712618Y-93714774D01*
X127704934Y-93713556D01*
X127704930Y-93713555D01*
X127704208Y-93713441D01*
X127685704Y-93707960D01*
X127685037Y-93707663D01*
X127685036Y-93707662D01*
X127677932Y-93704500D01*
X127670155Y-93704500D01*
X127653573Y-93704500D01*
X127641997Y-93703589D01*
X127625615Y-93700994D01*
X127625613Y-93700994D01*
X127617935Y-93699778D01*
X127615639Y-93700392D01*
X127577103Y-93690701D01*
X127548158Y-93658165D01*
X127538582Y-93637196D01*
X127535883Y-93632997D01*
X127502368Y-93580846D01*
X127460850Y-93516242D01*
X127432247Y-93483233D01*
X127323586Y-93389079D01*
X127321366Y-93387652D01*
X127289063Y-93366892D01*
X127289058Y-93366889D01*
X127286845Y-93365467D01*
X127284451Y-93364373D01*
X127284448Y-93364372D01*
X127158459Y-93306834D01*
X127158451Y-93306831D01*
X127156060Y-93305739D01*
X127114153Y-93293434D01*
X127111545Y-93293059D01*
X127111536Y-93293057D01*
X126974458Y-93273348D01*
X126974448Y-93273347D01*
X126971838Y-93272972D01*
X126928162Y-93272972D01*
X126925552Y-93273347D01*
X126925541Y-93273348D01*
X126908500Y-93275799D01*
X126897969Y-93276552D01*
X126502031Y-93276552D01*
X126491500Y-93275799D01*
X126474458Y-93273348D01*
X126474448Y-93273347D01*
X126471838Y-93272972D01*
X126428162Y-93272972D01*
X126425552Y-93273347D01*
X126425541Y-93273348D01*
X126288463Y-93293057D01*
X126288451Y-93293059D01*
X126285847Y-93293434D01*
X126283310Y-93294178D01*
X126283305Y-93294180D01*
X126246476Y-93304994D01*
X126246471Y-93304995D01*
X126243940Y-93305739D01*
X126241552Y-93306829D01*
X126241540Y-93306834D01*
X126115551Y-93364372D01*
X126115542Y-93364376D01*
X126113155Y-93365467D01*
X126110947Y-93366885D01*
X126110936Y-93366892D01*
X126078633Y-93387652D01*
X126078624Y-93387658D01*
X126076414Y-93389079D01*
X126074426Y-93390801D01*
X126074420Y-93390806D01*
X125969752Y-93481500D01*
X125969745Y-93481506D01*
X125967753Y-93483233D01*
X125966026Y-93485225D01*
X125966019Y-93485233D01*
X125940884Y-93514240D01*
X125940879Y-93514246D01*
X125939150Y-93516242D01*
X125937723Y-93518461D01*
X125937718Y-93518469D01*
X125862850Y-93634966D01*
X125862843Y-93634977D01*
X125861418Y-93637196D01*
X125860320Y-93639600D01*
X125860317Y-93639606D01*
X125844572Y-93674085D01*
X125843275Y-93676925D01*
X125842535Y-93679443D01*
X125842532Y-93679453D01*
X125803510Y-93812350D01*
X125803507Y-93812361D01*
X125802768Y-93814880D01*
X125802394Y-93817480D01*
X125802392Y-93817490D01*
X125796928Y-93855492D01*
X125796927Y-93855499D01*
X125796552Y-93858111D01*
X125796552Y-94430000D01*
X125797262Y-94433569D01*
X125802934Y-94462086D01*
X125808233Y-94488722D01*
X125841496Y-94538504D01*
X125891278Y-94571767D01*
X125950000Y-94583448D01*
X126397969Y-94583448D01*
X126408500Y-94584201D01*
X126428162Y-94587028D01*
X126469189Y-94587028D01*
X126471838Y-94587028D01*
X126491499Y-94584201D01*
X126502031Y-94583448D01*
X126897969Y-94583448D01*
X126908500Y-94584201D01*
X126928162Y-94587028D01*
X126969189Y-94587028D01*
X126971838Y-94587028D01*
X126991499Y-94584201D01*
X127002031Y-94583448D01*
X127446360Y-94583448D01*
X127450000Y-94583448D01*
X127508722Y-94571767D01*
X127554389Y-94541253D01*
X127591866Y-94528871D01*
X127630380Y-94537518D01*
X127658969Y-94564734D01*
X127669500Y-94602775D01*
X127669500Y-94611223D01*
X127669500Y-94611240D01*
X127669501Y-94613372D01*
X127669747Y-94615498D01*
X127669748Y-94615505D01*
X127671676Y-94632131D01*
X127671676Y-94632134D01*
X127672318Y-94637662D01*
X127674565Y-94642752D01*
X127674566Y-94642754D01*
X127704858Y-94711358D01*
X127716187Y-94737016D01*
X127792984Y-94813813D01*
X127892338Y-94857682D01*
X127916627Y-94860500D01*
X128343372Y-94860499D01*
X128367662Y-94857682D01*
X128467016Y-94813813D01*
X128543813Y-94737016D01*
X128555143Y-94711355D01*
X128586827Y-94676599D01*
X128633060Y-94667956D01*
X128675163Y-94688920D01*
X128720859Y-94734616D01*
X128806392Y-94772383D01*
X128813408Y-94775481D01*
X128818502Y-94777730D01*
X128842377Y-94780500D01*
X129297622Y-94780499D01*
X129321498Y-94777730D01*
X129419141Y-94734616D01*
X129494616Y-94659141D01*
X129537730Y-94561498D01*
X129540500Y-94537623D01*
X129540499Y-94182378D01*
X129537730Y-94158502D01*
X129538133Y-94158455D01*
X129540852Y-94114735D01*
X129572178Y-94078842D01*
X129618889Y-94069481D01*
X129661626Y-94090531D01*
X129732826Y-94161731D01*
X129748867Y-94185738D01*
X129754500Y-94214057D01*
X129754500Y-94861976D01*
X129742499Y-94902375D01*
X129710391Y-94929670D01*
X129697833Y-94935215D01*
X129679256Y-94943417D01*
X129679253Y-94943418D01*
X129672984Y-94946187D01*
X129668138Y-94951032D01*
X129668135Y-94951035D01*
X129601035Y-95018135D01*
X129601032Y-95018138D01*
X129596187Y-95022984D01*
X129593418Y-95029254D01*
X129593416Y-95029258D01*
X129590982Y-95034771D01*
X129559295Y-95069528D01*
X129513064Y-95078169D01*
X129470962Y-95057205D01*
X129423989Y-95010232D01*
X129423988Y-95010231D01*
X129419141Y-95005384D01*
X129402962Y-94998240D01*
X129326586Y-94964516D01*
X129326582Y-94964515D01*
X129321498Y-94962270D01*
X129315977Y-94961629D01*
X129315972Y-94961628D01*
X129299751Y-94959746D01*
X129299735Y-94959745D01*
X129297623Y-94959500D01*
X129295479Y-94959500D01*
X128844523Y-94959500D01*
X128844505Y-94959500D01*
X128842378Y-94959501D01*
X128840252Y-94959747D01*
X128840244Y-94959748D01*
X128824033Y-94961628D01*
X128824029Y-94961628D01*
X128818502Y-94962270D01*
X128813413Y-94964516D01*
X128813409Y-94964518D01*
X128727131Y-95002614D01*
X128727128Y-95002615D01*
X128720859Y-95005384D01*
X128716013Y-95010229D01*
X128716010Y-95010232D01*
X128650232Y-95076010D01*
X128650229Y-95076013D01*
X128645384Y-95080859D01*
X128642615Y-95087128D01*
X128642614Y-95087131D01*
X128604516Y-95173413D01*
X128604514Y-95173419D01*
X128602270Y-95178502D01*
X128601629Y-95184020D01*
X128601628Y-95184027D01*
X128599746Y-95200248D01*
X128599745Y-95200265D01*
X128599500Y-95202377D01*
X128599500Y-95204519D01*
X128599500Y-95204520D01*
X128599500Y-95555476D01*
X128599500Y-95555493D01*
X128599501Y-95557622D01*
X128599747Y-95559748D01*
X128599748Y-95559755D01*
X128601574Y-95575501D01*
X128602270Y-95581498D01*
X128604517Y-95586587D01*
X128604518Y-95586590D01*
X128630578Y-95645610D01*
X128634648Y-95693550D01*
X128608382Y-95733860D01*
X128562883Y-95749500D01*
X121005688Y-95749500D01*
X120999881Y-95749272D01*
X120813109Y-95734569D01*
X120801641Y-95732752D01*
X120622313Y-95689699D01*
X120611270Y-95686111D01*
X120440883Y-95615535D01*
X120430537Y-95610264D01*
X120273284Y-95513901D01*
X120263890Y-95507076D01*
X120123651Y-95387305D01*
X120115441Y-95379096D01*
X120093033Y-95352862D01*
X120075999Y-95314941D01*
X120082098Y-95273821D01*
X120109404Y-95242476D01*
X120149301Y-95230800D01*
X121338594Y-95230800D01*
X121340925Y-95230800D01*
X121463058Y-95215371D01*
X121615871Y-95154868D01*
X121748837Y-95058263D01*
X121853600Y-94931626D01*
X121923579Y-94782913D01*
X121954376Y-94621470D01*
X121944056Y-94457440D01*
X121893268Y-94301129D01*
X121805202Y-94162360D01*
X121759020Y-94118992D01*
X121688783Y-94053035D01*
X121688781Y-94053033D01*
X121685393Y-94049852D01*
X121593804Y-93999500D01*
X121545443Y-93972913D01*
X121545441Y-93972912D01*
X121541368Y-93970673D01*
X121536863Y-93969516D01*
X121536860Y-93969515D01*
X121531639Y-93968175D01*
X121495466Y-93946475D01*
X121477027Y-93908535D01*
X121482314Y-93866685D01*
X121509609Y-93834523D01*
X121550042Y-93822500D01*
X123859000Y-93822500D01*
X123906169Y-93839482D01*
X123931689Y-93882634D01*
X123923847Y-93932150D01*
X123886241Y-93965303D01*
X123788460Y-94004017D01*
X123788458Y-94004017D01*
X123784129Y-94005732D01*
X123780367Y-94008464D01*
X123780360Y-94008469D01*
X123654930Y-94099599D01*
X123654924Y-94099603D01*
X123651163Y-94102337D01*
X123648197Y-94105921D01*
X123648194Y-94105925D01*
X123549369Y-94225384D01*
X123549366Y-94225388D01*
X123546400Y-94228974D01*
X123544420Y-94233181D01*
X123544416Y-94233188D01*
X123478401Y-94373477D01*
X123478398Y-94373484D01*
X123476421Y-94377687D01*
X123475549Y-94382255D01*
X123475549Y-94382257D01*
X123446496Y-94534554D01*
X123446495Y-94534561D01*
X123445624Y-94539130D01*
X123445916Y-94543774D01*
X123445916Y-94543777D01*
X123455651Y-94698513D01*
X123455651Y-94698517D01*
X123455944Y-94703160D01*
X123457382Y-94707588D01*
X123457383Y-94707589D01*
X123505292Y-94855041D01*
X123505294Y-94855045D01*
X123506732Y-94859471D01*
X123594798Y-94998240D01*
X123714607Y-95110748D01*
X123858632Y-95189927D01*
X124017823Y-95230800D01*
X124938594Y-95230800D01*
X124940925Y-95230800D01*
X125063058Y-95215371D01*
X125215871Y-95154868D01*
X125348837Y-95058263D01*
X125453600Y-94931626D01*
X125523579Y-94782913D01*
X125554376Y-94621470D01*
X125544056Y-94457440D01*
X125493268Y-94301129D01*
X125405202Y-94162360D01*
X125359020Y-94118992D01*
X125288783Y-94053035D01*
X125288781Y-94053033D01*
X125285393Y-94049852D01*
X125193804Y-93999500D01*
X125145443Y-93972913D01*
X125145441Y-93972912D01*
X125141368Y-93970673D01*
X125136863Y-93969516D01*
X125136860Y-93969515D01*
X125080093Y-93954940D01*
X125039406Y-93927812D01*
X125024524Y-93881230D01*
X125041945Y-93835537D01*
X125084061Y-93810687D01*
X125097740Y-93807966D01*
X125180601Y-93752601D01*
X125235966Y-93669740D01*
X125255408Y-93572000D01*
X125251921Y-93554474D01*
X125250500Y-93540038D01*
X125250500Y-91899500D01*
X125260414Y-91862500D01*
X125287500Y-91835414D01*
X125324500Y-91825500D01*
X125799691Y-91825500D01*
X125846261Y-91841991D01*
X125872074Y-91884115D01*
X125865625Y-91933093D01*
X125813856Y-92034696D01*
X125812944Y-92040447D01*
X125812944Y-92040451D01*
X125801665Y-92111667D01*
X125794010Y-92160000D01*
X125794921Y-92165752D01*
X125812709Y-92278066D01*
X125813856Y-92285304D01*
X125871452Y-92398342D01*
X125961160Y-92488050D01*
X126074198Y-92545646D01*
X126199502Y-92565492D01*
X126324806Y-92545646D01*
X126437844Y-92488050D01*
X126527552Y-92398342D01*
X126556817Y-92340904D01*
X126584088Y-92311404D01*
X126622753Y-92300499D01*
X126661227Y-92300499D01*
X126663372Y-92300499D01*
X126687662Y-92297682D01*
X126773411Y-92259819D01*
X126822562Y-92256066D01*
X126863166Y-92284017D01*
X126875740Y-92301323D01*
X126883098Y-92305571D01*
X126898426Y-92317332D01*
X126985243Y-92404149D01*
X127042331Y-92461236D01*
X127062411Y-92498287D01*
X127059008Y-92540293D01*
X127030080Y-92614966D01*
X127030079Y-92614969D01*
X127027603Y-92621362D01*
X127027603Y-92728100D01*
X127030079Y-92734493D01*
X127030080Y-92734495D01*
X127064147Y-92822435D01*
X127064148Y-92822437D01*
X127066160Y-92827630D01*
X127081084Y-92846471D01*
X127332281Y-93097667D01*
X127351122Y-93112592D01*
X127450652Y-93151149D01*
X127550532Y-93151149D01*
X127557390Y-93151149D01*
X127656920Y-93112592D01*
X127675761Y-93097668D01*
X127997667Y-92775761D01*
X128012592Y-92756920D01*
X128051149Y-92657390D01*
X128051149Y-92550652D01*
X128012592Y-92451122D01*
X127997668Y-92432281D01*
X127746471Y-92181085D01*
X127735126Y-92172098D01*
X127709095Y-92131255D01*
X127713900Y-92083059D01*
X127747481Y-92048161D01*
X127763603Y-92039947D01*
X127853311Y-91950239D01*
X127897290Y-91863924D01*
X127928980Y-91831922D01*
X127973360Y-91824221D01*
X128013983Y-91843678D01*
G37*
G04 #@! TD.AperFunction*
G04 #@! TA.AperFunction,Conductor*
G36*
X136337338Y-89536886D02*
G01*
X136370687Y-89558004D01*
X136388435Y-89593263D01*
X136398724Y-89644989D01*
X136403968Y-89671349D01*
X136408019Y-89677411D01*
X136439209Y-89724091D01*
X136439212Y-89724095D01*
X136441227Y-89727110D01*
X137409554Y-90695436D01*
X137465315Y-90732696D01*
X137539490Y-90747450D01*
X137581983Y-90772753D01*
X137599047Y-90819174D01*
X137583059Y-90865975D01*
X137572399Y-90879432D01*
X137572395Y-90879438D01*
X137568942Y-90883798D01*
X137566934Y-90888979D01*
X137566931Y-90888986D01*
X137532184Y-90978678D01*
X137532183Y-90978683D01*
X137529708Y-90985072D01*
X137529708Y-91093679D01*
X137532183Y-91100068D01*
X137532184Y-91100072D01*
X137566931Y-91189764D01*
X137566933Y-91189768D01*
X137568942Y-91194953D01*
X137572394Y-91199311D01*
X137572395Y-91199313D01*
X137574648Y-91202157D01*
X137584124Y-91214121D01*
X137674443Y-91304440D01*
X137752865Y-91382861D01*
X137768906Y-91406868D01*
X137774539Y-91435187D01*
X137774539Y-92205419D01*
X137758159Y-92251852D01*
X137716269Y-92277728D01*
X137616696Y-92299389D01*
X137616689Y-92299391D01*
X137614115Y-92299951D01*
X137611649Y-92300870D01*
X137611638Y-92300874D01*
X137575674Y-92314288D01*
X137575662Y-92314293D01*
X137573194Y-92315214D01*
X137570874Y-92316480D01*
X137570867Y-92316484D01*
X137449325Y-92382851D01*
X137449319Y-92382854D01*
X137447002Y-92384120D01*
X137444895Y-92385696D01*
X137444886Y-92385703D01*
X137414149Y-92408713D01*
X137414142Y-92408718D01*
X137412038Y-92410294D01*
X137410179Y-92412152D01*
X137410172Y-92412159D01*
X137338123Y-92484209D01*
X137300234Y-92504461D01*
X137257478Y-92500250D01*
X137224268Y-92472995D01*
X137211797Y-92431883D01*
X137211797Y-92388820D01*
X137211797Y-92381962D01*
X137173240Y-92282432D01*
X137158316Y-92263591D01*
X136836409Y-91941685D01*
X136826846Y-91934110D01*
X136821932Y-91930217D01*
X136817568Y-91926760D01*
X136812376Y-91924748D01*
X136812375Y-91924748D01*
X136724433Y-91890680D01*
X136724431Y-91890679D01*
X136718038Y-91888203D01*
X136681671Y-91888203D01*
X136639061Y-91874704D01*
X136611997Y-91839132D01*
X136610352Y-91794465D01*
X136634487Y-91757367D01*
X136636387Y-91756098D01*
X136773863Y-91618621D01*
X136811123Y-91562860D01*
X136821893Y-91508713D01*
X136842145Y-91470825D01*
X136880033Y-91450573D01*
X136934180Y-91439803D01*
X136989941Y-91402544D01*
X137127417Y-91265067D01*
X137164677Y-91209306D01*
X137182179Y-91121320D01*
X137180654Y-91113656D01*
X137177952Y-91100072D01*
X137164677Y-91033334D01*
X137136751Y-90991540D01*
X137129435Y-90980591D01*
X137129432Y-90980588D01*
X137127418Y-90977573D01*
X136159091Y-90009247D01*
X136103330Y-89971987D01*
X136096179Y-89970564D01*
X136096178Y-89970564D01*
X136025244Y-89956454D01*
X135989985Y-89938706D01*
X135968867Y-89905357D01*
X135967899Y-89865895D01*
X135987353Y-89831552D01*
X136263533Y-89555372D01*
X136297876Y-89535918D01*
X136337338Y-89536886D01*
G37*
G04 #@! TD.AperFunction*
G04 #@! TA.AperFunction,Conductor*
G36*
X137502897Y-82250728D02*
G01*
X137689665Y-82265426D01*
X137701127Y-82267242D01*
X137880455Y-82310295D01*
X137891491Y-82313881D01*
X138061880Y-82384458D01*
X138072220Y-82389726D01*
X138229481Y-82486095D01*
X138238864Y-82492913D01*
X138238916Y-82492958D01*
X138379101Y-82612687D01*
X138387311Y-82620897D01*
X138447198Y-82691015D01*
X138507085Y-82761134D01*
X138513905Y-82770520D01*
X138592792Y-82899252D01*
X138610270Y-82927773D01*
X138615541Y-82938119D01*
X138686116Y-83108502D01*
X138689704Y-83119546D01*
X138732756Y-83298868D01*
X138734573Y-83310337D01*
X138744822Y-83440555D01*
X138748127Y-83482560D01*
X138749269Y-83497062D01*
X138749497Y-83502868D01*
X138749499Y-86755824D01*
X138749501Y-86755833D01*
X138749501Y-86799999D01*
X138749501Y-86883157D01*
X138750061Y-86886335D01*
X138750062Y-86886342D01*
X138777819Y-87043760D01*
X138778381Y-87046946D01*
X138779487Y-87049986D01*
X138779488Y-87049988D01*
X138806813Y-87125062D01*
X138835264Y-87203232D01*
X138836879Y-87206029D01*
X138905252Y-87324456D01*
X138918422Y-87347266D01*
X139025328Y-87474672D01*
X139152734Y-87581578D01*
X139249074Y-87637200D01*
X139276273Y-87652903D01*
X139303815Y-87680790D01*
X139313250Y-87718832D01*
X139301932Y-87756358D01*
X139280566Y-87790364D01*
X139274211Y-87800478D01*
X139272840Y-87804395D01*
X139272840Y-87804396D01*
X139257421Y-87848459D01*
X139226944Y-87886675D01*
X139179288Y-87897552D01*
X139135248Y-87876343D01*
X137785007Y-86526102D01*
X137782340Y-86523292D01*
X137760710Y-86499269D01*
X137760708Y-86499268D01*
X137755507Y-86493491D01*
X137748405Y-86490328D01*
X137748401Y-86490326D01*
X137733251Y-86483581D01*
X137723050Y-86478042D01*
X137709144Y-86469012D01*
X137709143Y-86469011D01*
X137702618Y-86464774D01*
X137694934Y-86463556D01*
X137694930Y-86463555D01*
X137694208Y-86463441D01*
X137675704Y-86457960D01*
X137675037Y-86457663D01*
X137675036Y-86457662D01*
X137667932Y-86454500D01*
X137660155Y-86454500D01*
X137643573Y-86454500D01*
X137631997Y-86453589D01*
X137615617Y-86450994D01*
X137615613Y-86450994D01*
X137607935Y-86449778D01*
X137600423Y-86451790D01*
X137600419Y-86451791D01*
X137599722Y-86451978D01*
X137580569Y-86454500D01*
X137052735Y-86454500D01*
X137048862Y-86454399D01*
X137016574Y-86452706D01*
X137016569Y-86452706D01*
X137008810Y-86452300D01*
X137001553Y-86455085D01*
X137001549Y-86455086D01*
X136986060Y-86461031D01*
X136974935Y-86464326D01*
X136958714Y-86467774D01*
X136958706Y-86467777D01*
X136951106Y-86469393D01*
X136944815Y-86473962D01*
X136944815Y-86473963D01*
X136944225Y-86474392D01*
X136927262Y-86483602D01*
X136926572Y-86483866D01*
X136926564Y-86483870D01*
X136919315Y-86486654D01*
X136919274Y-86486694D01*
X136878325Y-86497179D01*
X136834766Y-86478776D01*
X136818177Y-86449845D01*
X136815334Y-86451023D01*
X136812545Y-86444290D01*
X136811123Y-86437140D01*
X136784202Y-86396850D01*
X136775881Y-86384397D01*
X136775878Y-86384394D01*
X136773864Y-86381379D01*
X136636387Y-86243903D01*
X136633365Y-86241884D01*
X136632088Y-86241031D01*
X136580626Y-86206643D01*
X136573477Y-86205221D01*
X136573475Y-86205220D01*
X136526480Y-86195872D01*
X136488592Y-86175620D01*
X136468340Y-86137731D01*
X136457570Y-86083587D01*
X136431347Y-86044342D01*
X136422328Y-86030844D01*
X136422325Y-86030841D01*
X136420311Y-86027826D01*
X136282834Y-85890350D01*
X136227073Y-85853090D01*
X136219924Y-85851668D01*
X136219922Y-85851667D01*
X136172927Y-85842319D01*
X136135039Y-85822067D01*
X136114787Y-85784178D01*
X136104017Y-85730034D01*
X136066758Y-85674273D01*
X135929281Y-85536797D01*
X135926259Y-85534778D01*
X135879582Y-85503588D01*
X135879583Y-85503588D01*
X135873520Y-85499537D01*
X135866371Y-85498115D01*
X135866369Y-85498114D01*
X135819373Y-85488766D01*
X135781485Y-85468514D01*
X135761233Y-85430625D01*
X135750463Y-85376480D01*
X135718540Y-85328704D01*
X135715221Y-85323737D01*
X135715218Y-85323734D01*
X135713204Y-85320719D01*
X135575727Y-85183243D01*
X135519966Y-85145983D01*
X135512817Y-85144561D01*
X135512815Y-85144560D01*
X135465820Y-85135212D01*
X135427932Y-85114960D01*
X135407680Y-85077071D01*
X135398332Y-85030078D01*
X135396910Y-85022927D01*
X135359651Y-84967166D01*
X135222174Y-84829690D01*
X135166413Y-84792430D01*
X135159264Y-84791008D01*
X135159262Y-84791007D01*
X135112267Y-84781659D01*
X135074379Y-84761407D01*
X135054127Y-84723518D01*
X135053674Y-84721242D01*
X135043357Y-84669374D01*
X135011276Y-84621362D01*
X135008115Y-84616631D01*
X135008112Y-84616628D01*
X135006098Y-84613613D01*
X134868621Y-84476137D01*
X134812860Y-84438877D01*
X134805711Y-84437455D01*
X134805709Y-84437454D01*
X134758713Y-84428106D01*
X134720825Y-84407854D01*
X134700573Y-84369965D01*
X134689803Y-84315820D01*
X134652544Y-84260059D01*
X134515067Y-84122583D01*
X134512045Y-84120564D01*
X134465368Y-84089374D01*
X134465369Y-84089374D01*
X134459306Y-84085323D01*
X134452155Y-84083900D01*
X134452154Y-84083900D01*
X134378469Y-84069243D01*
X134371320Y-84067821D01*
X134364171Y-84069243D01*
X134290485Y-84083900D01*
X134290482Y-84083901D01*
X134283334Y-84085323D01*
X134277271Y-84089373D01*
X134277271Y-84089374D01*
X134230591Y-84120564D01*
X134230581Y-84120571D01*
X134227573Y-84122582D01*
X134225011Y-84125143D01*
X134225006Y-84125148D01*
X133261813Y-85088342D01*
X133261808Y-85088347D01*
X133259247Y-85090909D01*
X133257232Y-85093923D01*
X133257229Y-85093928D01*
X133234141Y-85128481D01*
X133221987Y-85146670D01*
X133220565Y-85153818D01*
X133220564Y-85153821D01*
X133206857Y-85222733D01*
X133204485Y-85234656D01*
X133205907Y-85241805D01*
X133217468Y-85299927D01*
X133221987Y-85322642D01*
X133237518Y-85345886D01*
X133257228Y-85375384D01*
X133257231Y-85375388D01*
X133259246Y-85378403D01*
X133323333Y-85442490D01*
X133362756Y-85481912D01*
X133383519Y-85522661D01*
X133376365Y-85567833D01*
X133344026Y-85600172D01*
X133286848Y-85629305D01*
X133286845Y-85629306D01*
X133281658Y-85631950D01*
X133277541Y-85636066D01*
X133277538Y-85636069D01*
X133196069Y-85717538D01*
X133196066Y-85717541D01*
X133191950Y-85721658D01*
X133189305Y-85726847D01*
X133189304Y-85726850D01*
X133137000Y-85829502D01*
X133134354Y-85834696D01*
X133133442Y-85840447D01*
X133133442Y-85840451D01*
X133117720Y-85939722D01*
X133114508Y-85960000D01*
X133115419Y-85965752D01*
X133133121Y-86077524D01*
X133134354Y-86085304D01*
X133137000Y-86090497D01*
X133180372Y-86175620D01*
X133191950Y-86198342D01*
X133196068Y-86202460D01*
X133196069Y-86202461D01*
X133256281Y-86262673D01*
X133275433Y-86295845D01*
X133275434Y-86334150D01*
X133256283Y-86367323D01*
X133236069Y-86387537D01*
X133236063Y-86387544D01*
X133231950Y-86391658D01*
X133229305Y-86396847D01*
X133229304Y-86396850D01*
X133180063Y-86493491D01*
X133174354Y-86504696D01*
X133173442Y-86510447D01*
X133173442Y-86510451D01*
X133161734Y-86584374D01*
X133154508Y-86630000D01*
X133155419Y-86635752D01*
X133171605Y-86737952D01*
X133174354Y-86755304D01*
X133231950Y-86868342D01*
X133321658Y-86958050D01*
X133434696Y-87015646D01*
X133560000Y-87035492D01*
X133685304Y-87015646D01*
X133798342Y-86958050D01*
X133888050Y-86868342D01*
X133945646Y-86755304D01*
X133965492Y-86630000D01*
X133959461Y-86591921D01*
X133962172Y-86557479D01*
X133980222Y-86528022D01*
X134159234Y-86349010D01*
X134201899Y-86327970D01*
X134248558Y-86337250D01*
X134279925Y-86373016D01*
X134281225Y-86376155D01*
X134282647Y-86383302D01*
X134286695Y-86389361D01*
X134286696Y-86389362D01*
X134317888Y-86436044D01*
X134317891Y-86436048D01*
X134319906Y-86439063D01*
X134457383Y-86576539D01*
X134513144Y-86613799D01*
X134567290Y-86624569D01*
X134605178Y-86644821D01*
X134625430Y-86682709D01*
X134634778Y-86729705D01*
X134634779Y-86729707D01*
X134636201Y-86736856D01*
X134644682Y-86749548D01*
X134671442Y-86789598D01*
X134671445Y-86789602D01*
X134673460Y-86792617D01*
X134810937Y-86930093D01*
X134866698Y-86967353D01*
X134920842Y-86978123D01*
X134958731Y-86998375D01*
X134978983Y-87036263D01*
X134988331Y-87083258D01*
X134988332Y-87083260D01*
X134989754Y-87090409D01*
X134993805Y-87096471D01*
X135024995Y-87143151D01*
X135024998Y-87143155D01*
X135027013Y-87146170D01*
X135164490Y-87283646D01*
X135220251Y-87320906D01*
X135274395Y-87331676D01*
X135312284Y-87351928D01*
X135332536Y-87389816D01*
X135341884Y-87436811D01*
X135341885Y-87436813D01*
X135343307Y-87443962D01*
X135347358Y-87450024D01*
X135378548Y-87496704D01*
X135378551Y-87496708D01*
X135380566Y-87499723D01*
X135518043Y-87637199D01*
X135573804Y-87674459D01*
X135627950Y-87685229D01*
X135665838Y-87705481D01*
X135686090Y-87743369D01*
X135695438Y-87790365D01*
X135695439Y-87790367D01*
X135696861Y-87797516D01*
X135703008Y-87806715D01*
X135732102Y-87850258D01*
X135732105Y-87850262D01*
X135734120Y-87853277D01*
X135871597Y-87990753D01*
X135927358Y-88028013D01*
X135981502Y-88038783D01*
X136019391Y-88059035D01*
X136039643Y-88096923D01*
X136048991Y-88143918D01*
X136048992Y-88143920D01*
X136050414Y-88151069D01*
X136054465Y-88157131D01*
X136085655Y-88203811D01*
X136085658Y-88203815D01*
X136087673Y-88206830D01*
X136225150Y-88344306D01*
X136280911Y-88381566D01*
X136335057Y-88392336D01*
X136372945Y-88412588D01*
X136393197Y-88450476D01*
X136402545Y-88497472D01*
X136402546Y-88497474D01*
X136403968Y-88504623D01*
X136408019Y-88510685D01*
X136439209Y-88557365D01*
X136439212Y-88557369D01*
X136441227Y-88560384D01*
X136443792Y-88562949D01*
X136443793Y-88562950D01*
X136569018Y-88688174D01*
X136589270Y-88726063D01*
X136585059Y-88768818D01*
X136557804Y-88802029D01*
X136516692Y-88814500D01*
X136467861Y-88814500D01*
X136463988Y-88814399D01*
X136431700Y-88812706D01*
X136431695Y-88812706D01*
X136423936Y-88812300D01*
X136416679Y-88815085D01*
X136416675Y-88815086D01*
X136401186Y-88821031D01*
X136390061Y-88824326D01*
X136373840Y-88827774D01*
X136373832Y-88827777D01*
X136366232Y-88829393D01*
X136359941Y-88833962D01*
X136359941Y-88833963D01*
X136359351Y-88834392D01*
X136342388Y-88843602D01*
X136341704Y-88843864D01*
X136341698Y-88843867D01*
X136334441Y-88846654D01*
X136328942Y-88852152D01*
X136328940Y-88852154D01*
X136317209Y-88863884D01*
X136308386Y-88871419D01*
X136288677Y-88885740D01*
X136284791Y-88892468D01*
X136284787Y-88892474D01*
X136284421Y-88893110D01*
X136272666Y-88908427D01*
X133364058Y-91817035D01*
X133361250Y-91819700D01*
X133337226Y-91841332D01*
X133337223Y-91841335D01*
X133331449Y-91846535D01*
X133328287Y-91853635D01*
X133328285Y-91853639D01*
X133321539Y-91868790D01*
X133316001Y-91878991D01*
X133306967Y-91892901D01*
X133306965Y-91892904D01*
X133302732Y-91899424D01*
X133301515Y-91907103D01*
X133301514Y-91907107D01*
X133301401Y-91907825D01*
X133295918Y-91926336D01*
X133295620Y-91927004D01*
X133295618Y-91927009D01*
X133292458Y-91934110D01*
X133292458Y-91941885D01*
X133292458Y-91958469D01*
X133291547Y-91970045D01*
X133288952Y-91986424D01*
X133288952Y-91986428D01*
X133287736Y-91994107D01*
X133289748Y-92001619D01*
X133289749Y-92001622D01*
X133289936Y-92002320D01*
X133292458Y-92021473D01*
X133292458Y-92126096D01*
X133276571Y-92171909D01*
X133235733Y-92198051D01*
X133187477Y-92193299D01*
X133152525Y-92159693D01*
X133128050Y-92111658D01*
X133038342Y-92021950D01*
X132925304Y-91964354D01*
X132919550Y-91963442D01*
X132919548Y-91963442D01*
X132805752Y-91945419D01*
X132800000Y-91944508D01*
X132794248Y-91945419D01*
X132794247Y-91945419D01*
X132762491Y-91950448D01*
X132728048Y-91947737D01*
X132698590Y-91929685D01*
X131955007Y-91186102D01*
X131952340Y-91183292D01*
X131930710Y-91159269D01*
X131930708Y-91159268D01*
X131925507Y-91153491D01*
X131918405Y-91150328D01*
X131918401Y-91150326D01*
X131903251Y-91143581D01*
X131893050Y-91138042D01*
X131879144Y-91129012D01*
X131879143Y-91129011D01*
X131872618Y-91124774D01*
X131864934Y-91123556D01*
X131864930Y-91123555D01*
X131864208Y-91123441D01*
X131845704Y-91117960D01*
X131845037Y-91117663D01*
X131845036Y-91117662D01*
X131837932Y-91114500D01*
X131830155Y-91114500D01*
X131813573Y-91114500D01*
X131801997Y-91113589D01*
X131785617Y-91110994D01*
X131785613Y-91110994D01*
X131777935Y-91109778D01*
X131770423Y-91111790D01*
X131770419Y-91111791D01*
X131769722Y-91111978D01*
X131750569Y-91114500D01*
X130980544Y-91114500D01*
X130939432Y-91102029D01*
X130912177Y-91068819D01*
X130907966Y-91026063D01*
X130928218Y-90988174D01*
X130941386Y-90975006D01*
X130968050Y-90948342D01*
X131025646Y-90835304D01*
X131045492Y-90710000D01*
X131025646Y-90584696D01*
X130968050Y-90471658D01*
X130878342Y-90381950D01*
X130765304Y-90324354D01*
X130759550Y-90323442D01*
X130759548Y-90323442D01*
X130645752Y-90305419D01*
X130640000Y-90304508D01*
X130634248Y-90305419D01*
X130520451Y-90323442D01*
X130520447Y-90323442D01*
X130514696Y-90324354D01*
X130509504Y-90326999D01*
X130509502Y-90327000D01*
X130406850Y-90379304D01*
X130406847Y-90379305D01*
X130401658Y-90381950D01*
X130397541Y-90386066D01*
X130397538Y-90386069D01*
X130320782Y-90462826D01*
X130296775Y-90478867D01*
X130268456Y-90484500D01*
X129495291Y-90484500D01*
X129454179Y-90472029D01*
X129426924Y-90438819D01*
X129422713Y-90396063D01*
X129442965Y-90358174D01*
X130106640Y-89694500D01*
X131003965Y-88797174D01*
X131027973Y-88781133D01*
X131056292Y-88775500D01*
X132598456Y-88775500D01*
X132626775Y-88781133D01*
X132650782Y-88797174D01*
X132731658Y-88878050D01*
X132844696Y-88935646D01*
X132970000Y-88955492D01*
X133095304Y-88935646D01*
X133208342Y-88878050D01*
X133298050Y-88788342D01*
X133355646Y-88675304D01*
X133375492Y-88550000D01*
X133355646Y-88424696D01*
X133298050Y-88311658D01*
X133208342Y-88221950D01*
X133183703Y-88209396D01*
X133100497Y-88167000D01*
X133095304Y-88164354D01*
X133089550Y-88163442D01*
X133089548Y-88163442D01*
X132975752Y-88145419D01*
X132970000Y-88144508D01*
X132964248Y-88145419D01*
X132850451Y-88163442D01*
X132850447Y-88163442D01*
X132844696Y-88164354D01*
X132839504Y-88166999D01*
X132839502Y-88167000D01*
X132736850Y-88219304D01*
X132736847Y-88219305D01*
X132731658Y-88221950D01*
X132727541Y-88226066D01*
X132727538Y-88226069D01*
X132650782Y-88302826D01*
X132626775Y-88318867D01*
X132598456Y-88324500D01*
X130940095Y-88324500D01*
X130936216Y-88324398D01*
X130930730Y-88324110D01*
X130885090Y-88305202D01*
X130861520Y-88261787D01*
X130855646Y-88224696D01*
X130798050Y-88111658D01*
X130708342Y-88021950D01*
X130595304Y-87964354D01*
X130589550Y-87963442D01*
X130589548Y-87963442D01*
X130475752Y-87945419D01*
X130470000Y-87944508D01*
X130464248Y-87945419D01*
X130350451Y-87963442D01*
X130350447Y-87963442D01*
X130344696Y-87964354D01*
X130339504Y-87966999D01*
X130339502Y-87967000D01*
X130236850Y-88019304D01*
X130236847Y-88019305D01*
X130231658Y-88021950D01*
X130227541Y-88026066D01*
X130227538Y-88026069D01*
X130146069Y-88107538D01*
X130146066Y-88107541D01*
X130141950Y-88111658D01*
X130139305Y-88116847D01*
X130139304Y-88116850D01*
X130087101Y-88219304D01*
X130084354Y-88224696D01*
X130083442Y-88230447D01*
X130083442Y-88230451D01*
X130068563Y-88324398D01*
X130064508Y-88350000D01*
X130065419Y-88355752D01*
X130065419Y-88355753D01*
X130077284Y-88430671D01*
X130074573Y-88465114D01*
X130056521Y-88494572D01*
X128948020Y-89603072D01*
X128903429Y-89624341D01*
X128855391Y-89612808D01*
X128825596Y-89573979D01*
X128824839Y-89569196D01*
X128767243Y-89456158D01*
X128677535Y-89366450D01*
X128564497Y-89308854D01*
X128558743Y-89307942D01*
X128558741Y-89307942D01*
X128444945Y-89289919D01*
X128439193Y-89289008D01*
X128433441Y-89289919D01*
X128319644Y-89307942D01*
X128319640Y-89307942D01*
X128313889Y-89308854D01*
X128308697Y-89311499D01*
X128308695Y-89311500D01*
X128206043Y-89363804D01*
X128206040Y-89363805D01*
X128200851Y-89366450D01*
X128196737Y-89370563D01*
X128196727Y-89370571D01*
X128145553Y-89421746D01*
X128112380Y-89440899D01*
X128074075Y-89440898D01*
X128040904Y-89421747D01*
X127921296Y-89302140D01*
X127918274Y-89300121D01*
X127885126Y-89277971D01*
X127865535Y-89264880D01*
X127858384Y-89263457D01*
X127858383Y-89263457D01*
X127784698Y-89248800D01*
X127777549Y-89247378D01*
X127770400Y-89248800D01*
X127696714Y-89263457D01*
X127696711Y-89263458D01*
X127689563Y-89264880D01*
X127683500Y-89268930D01*
X127683500Y-89268931D01*
X127636820Y-89300121D01*
X127636810Y-89300128D01*
X127633802Y-89302139D01*
X127631240Y-89304700D01*
X127631235Y-89304705D01*
X126668042Y-90267899D01*
X126668037Y-90267904D01*
X126665476Y-90270466D01*
X126663461Y-90273480D01*
X126663458Y-90273485D01*
X126632267Y-90320164D01*
X126628216Y-90326227D01*
X126626794Y-90333375D01*
X126626793Y-90333378D01*
X126616312Y-90386069D01*
X126610714Y-90414213D01*
X126612136Y-90421362D01*
X126624559Y-90483818D01*
X126628216Y-90502199D01*
X126632267Y-90508261D01*
X126634437Y-90513500D01*
X126639034Y-90554160D01*
X126621322Y-90591046D01*
X126586716Y-90612882D01*
X126545798Y-90612989D01*
X126511078Y-90591336D01*
X126495713Y-90574271D01*
X126495708Y-90574267D01*
X126490507Y-90568491D01*
X126483405Y-90565328D01*
X126483401Y-90565326D01*
X126468251Y-90558581D01*
X126458050Y-90553042D01*
X126444144Y-90544012D01*
X126444143Y-90544011D01*
X126437618Y-90539774D01*
X126429934Y-90538556D01*
X126429930Y-90538555D01*
X126429208Y-90538441D01*
X126410704Y-90532960D01*
X126410037Y-90532663D01*
X126410036Y-90532662D01*
X126402932Y-90529500D01*
X126395155Y-90529500D01*
X126378573Y-90529500D01*
X126366997Y-90528589D01*
X126350617Y-90525994D01*
X126350613Y-90525994D01*
X126342935Y-90524778D01*
X126335423Y-90526790D01*
X126335419Y-90526791D01*
X126334722Y-90526978D01*
X126315569Y-90529500D01*
X126018852Y-90529500D01*
X125977739Y-90517028D01*
X125950484Y-90483818D01*
X125946274Y-90441063D01*
X125950500Y-90419820D01*
X125950500Y-90090180D01*
X125946274Y-90068936D01*
X125950484Y-90026182D01*
X125977739Y-89992972D01*
X126018852Y-89980500D01*
X126357139Y-89980500D01*
X126361012Y-89980601D01*
X126401064Y-89982700D01*
X126423812Y-89973967D01*
X126434930Y-89970673D01*
X126458768Y-89965607D01*
X126465639Y-89960614D01*
X126482624Y-89951391D01*
X126490560Y-89948346D01*
X126507793Y-89931112D01*
X126516608Y-89923582D01*
X126536323Y-89909260D01*
X126540571Y-89901901D01*
X126552329Y-89886575D01*
X126793934Y-89644970D01*
X126796705Y-89642341D01*
X126826509Y-89615507D01*
X126836418Y-89593249D01*
X126841953Y-89583054D01*
X126855226Y-89562617D01*
X126856555Y-89554224D01*
X126862046Y-89535688D01*
X126865500Y-89527932D01*
X126865500Y-89503572D01*
X126866411Y-89491996D01*
X126869005Y-89475616D01*
X126870222Y-89467934D01*
X126868177Y-89460304D01*
X126868022Y-89459721D01*
X126865500Y-89440568D01*
X126865500Y-89067861D01*
X126865601Y-89063988D01*
X126865767Y-89060811D01*
X126867700Y-89023936D01*
X126865861Y-89019145D01*
X126865500Y-89014557D01*
X126865500Y-88980322D01*
X126876405Y-88941657D01*
X126905905Y-88914388D01*
X126911156Y-88911710D01*
X126918342Y-88908050D01*
X127008050Y-88818342D01*
X127065646Y-88705304D01*
X127085492Y-88580000D01*
X127065646Y-88454696D01*
X127008050Y-88341658D01*
X126918342Y-88251950D01*
X126805304Y-88194354D01*
X126799550Y-88193442D01*
X126799548Y-88193442D01*
X126685752Y-88175419D01*
X126680000Y-88174508D01*
X126674248Y-88175419D01*
X126556853Y-88194012D01*
X126518757Y-88190008D01*
X126487767Y-88167492D01*
X126472188Y-88132497D01*
X126469715Y-88116884D01*
X126468804Y-88111130D01*
X126468804Y-88111128D01*
X126469016Y-88111094D01*
X126466681Y-88081453D01*
X126479903Y-88049530D01*
X126506171Y-88027093D01*
X126614489Y-87971903D01*
X126704197Y-87882195D01*
X126704573Y-87882571D01*
X126733901Y-87860060D01*
X126775810Y-87856757D01*
X126812756Y-87876815D01*
X127238768Y-88302826D01*
X127633802Y-88697860D01*
X127689563Y-88735120D01*
X127777549Y-88752622D01*
X127865535Y-88735120D01*
X127921296Y-88697861D01*
X128058772Y-88560384D01*
X128096032Y-88504623D01*
X128113534Y-88416637D01*
X128096032Y-88328651D01*
X128058773Y-88272890D01*
X127090446Y-87304564D01*
X127034685Y-87267304D01*
X127027534Y-87265881D01*
X127027533Y-87265881D01*
X126947394Y-87249940D01*
X126909505Y-87229688D01*
X126867856Y-87188039D01*
X126848703Y-87154866D01*
X126848704Y-87116560D01*
X126867856Y-87083387D01*
X126914980Y-87036263D01*
X127015875Y-86935369D01*
X127031058Y-86916202D01*
X127070292Y-86814928D01*
X127070292Y-86706321D01*
X127038497Y-86624248D01*
X127033068Y-86610235D01*
X127033067Y-86610234D01*
X127031058Y-86605047D01*
X127015876Y-86585879D01*
X126714121Y-86284125D01*
X126694953Y-86268942D01*
X126646340Y-86250109D01*
X126608911Y-86217973D01*
X126599996Y-86169453D01*
X126623559Y-86126112D01*
X126641316Y-86110124D01*
X126641316Y-86110123D01*
X126647098Y-86104918D01*
X126657007Y-86082658D01*
X126662541Y-86072465D01*
X126675815Y-86052028D01*
X126677144Y-86043635D01*
X126682635Y-86025099D01*
X126686089Y-86017343D01*
X126686089Y-85992983D01*
X126687000Y-85981407D01*
X126689594Y-85965027D01*
X126690811Y-85957345D01*
X126688766Y-85949715D01*
X126688611Y-85949132D01*
X126686089Y-85929979D01*
X126686089Y-85795808D01*
X126691722Y-85767490D01*
X126707763Y-85743482D01*
X126750190Y-85701055D01*
X126915875Y-85535369D01*
X126931058Y-85516202D01*
X126970292Y-85414928D01*
X126970292Y-85306321D01*
X126942529Y-85234656D01*
X126933068Y-85210235D01*
X126933067Y-85210234D01*
X126931058Y-85205047D01*
X126915876Y-85185879D01*
X126614121Y-84884125D01*
X126594953Y-84868942D01*
X126587616Y-84866099D01*
X126500072Y-84832184D01*
X126500068Y-84832183D01*
X126493679Y-84829708D01*
X126385072Y-84829708D01*
X126378683Y-84832183D01*
X126378678Y-84832184D01*
X126288989Y-84866930D01*
X126288983Y-84866933D01*
X126283798Y-84868942D01*
X126279435Y-84872398D01*
X126279432Y-84872400D01*
X126266310Y-84882793D01*
X126266299Y-84882802D01*
X126264631Y-84884124D01*
X126263128Y-84885626D01*
X126263119Y-84885635D01*
X126006818Y-85141937D01*
X126006809Y-85141946D01*
X126005303Y-85143453D01*
X126003973Y-85145130D01*
X126003972Y-85145133D01*
X125995991Y-85155209D01*
X125990120Y-85162620D01*
X125988112Y-85167801D01*
X125988109Y-85167808D01*
X125953362Y-85257500D01*
X125953361Y-85257505D01*
X125950886Y-85263894D01*
X125950886Y-85372501D01*
X125953361Y-85378890D01*
X125953362Y-85378894D01*
X125988109Y-85468586D01*
X125988111Y-85468590D01*
X125990120Y-85473775D01*
X125993572Y-85478133D01*
X125993573Y-85478135D01*
X126003983Y-85491278D01*
X126005302Y-85492943D01*
X126112531Y-85600172D01*
X126213415Y-85701055D01*
X126229456Y-85725062D01*
X126235089Y-85753381D01*
X126235089Y-85845354D01*
X126229456Y-85873673D01*
X126213415Y-85897680D01*
X125934414Y-86176679D01*
X125896526Y-86196931D01*
X125858726Y-86193208D01*
X125858722Y-86193233D01*
X125858476Y-86193184D01*
X125858475Y-86193183D01*
X125851580Y-86191812D01*
X125851577Y-86191811D01*
X125818389Y-86185210D01*
X125814820Y-86184500D01*
X125811180Y-86184500D01*
X125324500Y-86184500D01*
X125287500Y-86174586D01*
X125260414Y-86147500D01*
X125250500Y-86110500D01*
X125250500Y-84459962D01*
X125251922Y-84445525D01*
X125253986Y-84435149D01*
X125255408Y-84428000D01*
X125235966Y-84330260D01*
X125180601Y-84247399D01*
X125151319Y-84227834D01*
X125116437Y-84204527D01*
X125097740Y-84192034D01*
X125090593Y-84190612D01*
X125090223Y-84190459D01*
X125056851Y-84162962D01*
X125044543Y-84121511D01*
X125057501Y-84080258D01*
X125091300Y-84053289D01*
X125215871Y-84003968D01*
X125348837Y-83907363D01*
X125453600Y-83780726D01*
X125523579Y-83632013D01*
X125554376Y-83470570D01*
X125547255Y-83357390D01*
X126448851Y-83357390D01*
X126451327Y-83363783D01*
X126451328Y-83363785D01*
X126485395Y-83451725D01*
X126485396Y-83451727D01*
X126487408Y-83456920D01*
X126502332Y-83475761D01*
X126824239Y-83797667D01*
X126843080Y-83812592D01*
X126942610Y-83851149D01*
X127042492Y-83851149D01*
X127049348Y-83851149D01*
X127079448Y-83839487D01*
X127121454Y-83836083D01*
X127158507Y-83856164D01*
X127311105Y-84008762D01*
X127327146Y-84032769D01*
X127332779Y-84061088D01*
X127332779Y-84080975D01*
X127335254Y-84087364D01*
X127335255Y-84087368D01*
X127371013Y-84179669D01*
X127371015Y-84179673D01*
X127373026Y-84184863D01*
X127376485Y-84189230D01*
X127387272Y-84202850D01*
X127387278Y-84202857D01*
X127388601Y-84204527D01*
X127695473Y-84511397D01*
X127715137Y-84526974D01*
X127819025Y-84567221D01*
X127923581Y-84567221D01*
X127930437Y-84567221D01*
X128034325Y-84526974D01*
X128038307Y-84523820D01*
X128087889Y-84515242D01*
X128131600Y-84540591D01*
X128148851Y-84588084D01*
X128148851Y-84657390D01*
X128151327Y-84663783D01*
X128151328Y-84663785D01*
X128185395Y-84751725D01*
X128185396Y-84751727D01*
X128187408Y-84756920D01*
X128202332Y-84775761D01*
X128524239Y-85097667D01*
X128543080Y-85112592D01*
X128642610Y-85151149D01*
X128742490Y-85151149D01*
X128749348Y-85151149D01*
X128760171Y-85146955D01*
X128809605Y-85145525D01*
X128848902Y-85175555D01*
X128860506Y-85223633D01*
X128839232Y-85268282D01*
X128789363Y-85318152D01*
X128789358Y-85318157D01*
X128786797Y-85320719D01*
X128784782Y-85323733D01*
X128784779Y-85323738D01*
X128756777Y-85365645D01*
X128749537Y-85376480D01*
X128748115Y-85383626D01*
X128748114Y-85383630D01*
X128738766Y-85430626D01*
X128718514Y-85468514D01*
X128680626Y-85488766D01*
X128633630Y-85498114D01*
X128633626Y-85498115D01*
X128626480Y-85499537D01*
X128620417Y-85503587D01*
X128620417Y-85503588D01*
X128573737Y-85534778D01*
X128573727Y-85534785D01*
X128570719Y-85536796D01*
X128568155Y-85539359D01*
X128565337Y-85541673D01*
X128564727Y-85540929D01*
X128523625Y-85560506D01*
X128475552Y-85548899D01*
X128445526Y-85509603D01*
X128446955Y-85460171D01*
X128451149Y-85449348D01*
X128451149Y-85342610D01*
X128412592Y-85243080D01*
X128397668Y-85224239D01*
X128075761Y-84902333D01*
X128056920Y-84887408D01*
X128051728Y-84885396D01*
X128051727Y-84885396D01*
X127963785Y-84851328D01*
X127963783Y-84851327D01*
X127957390Y-84848851D01*
X127850652Y-84848851D01*
X127844259Y-84851327D01*
X127844256Y-84851328D01*
X127756316Y-84885395D01*
X127756311Y-84885397D01*
X127751122Y-84887408D01*
X127746757Y-84890865D01*
X127746756Y-84890866D01*
X127733949Y-84901010D01*
X127733941Y-84901016D01*
X127732281Y-84902332D01*
X127730784Y-84903828D01*
X127730775Y-84903837D01*
X127482600Y-85152013D01*
X127482591Y-85152022D01*
X127481085Y-85153529D01*
X127479763Y-85155197D01*
X127479753Y-85155209D01*
X127469617Y-85168005D01*
X127469615Y-85168008D01*
X127466160Y-85172370D01*
X127464150Y-85177558D01*
X127464148Y-85177562D01*
X127430080Y-85265504D01*
X127430079Y-85265507D01*
X127427603Y-85271900D01*
X127427603Y-85378638D01*
X127430079Y-85385031D01*
X127430080Y-85385033D01*
X127464147Y-85472973D01*
X127464148Y-85472975D01*
X127466160Y-85478168D01*
X127481084Y-85497009D01*
X127482588Y-85498513D01*
X127482589Y-85498514D01*
X127691291Y-85707215D01*
X127708049Y-85733020D01*
X127712864Y-85763411D01*
X127712082Y-85778333D01*
X127712082Y-85778337D01*
X127711676Y-85786100D01*
X127714460Y-85793355D01*
X127714462Y-85793362D01*
X127720406Y-85808848D01*
X127723702Y-85819974D01*
X127727150Y-85836194D01*
X127727152Y-85836199D01*
X127728769Y-85843804D01*
X127733339Y-85850095D01*
X127733341Y-85850098D01*
X127733766Y-85850683D01*
X127742979Y-85867650D01*
X127743241Y-85868334D01*
X127743244Y-85868338D01*
X127746030Y-85875596D01*
X127751528Y-85881094D01*
X127763256Y-85892822D01*
X127770797Y-85901651D01*
X127775493Y-85908115D01*
X127785116Y-85921359D01*
X127792474Y-85925607D01*
X127807802Y-85937368D01*
X127953663Y-86083229D01*
X127974704Y-86125895D01*
X127965424Y-86172552D01*
X127929660Y-86203920D01*
X127926516Y-86205222D01*
X127919374Y-86206643D01*
X127913317Y-86210690D01*
X127913315Y-86210691D01*
X127866631Y-86241884D01*
X127866621Y-86241891D01*
X127863613Y-86243902D01*
X127861051Y-86246463D01*
X127861046Y-86246468D01*
X127728703Y-86378812D01*
X127728698Y-86378817D01*
X127726137Y-86381379D01*
X127724122Y-86384393D01*
X127724119Y-86384398D01*
X127720801Y-86389364D01*
X127688877Y-86437140D01*
X127687455Y-86444286D01*
X127687454Y-86444290D01*
X127678106Y-86491286D01*
X127657854Y-86529174D01*
X127619966Y-86549426D01*
X127572970Y-86558774D01*
X127572966Y-86558775D01*
X127565820Y-86560197D01*
X127559757Y-86564247D01*
X127559757Y-86564248D01*
X127513077Y-86595438D01*
X127513067Y-86595445D01*
X127510059Y-86597456D01*
X127507497Y-86600017D01*
X127507492Y-86600022D01*
X127375149Y-86732366D01*
X127375144Y-86732371D01*
X127372583Y-86734933D01*
X127370568Y-86737947D01*
X127370565Y-86737952D01*
X127344473Y-86777000D01*
X127335323Y-86790694D01*
X127333901Y-86797842D01*
X127333900Y-86797845D01*
X127327181Y-86831624D01*
X127317821Y-86878680D01*
X127319243Y-86885829D01*
X127332789Y-86953930D01*
X127335323Y-86966666D01*
X127346574Y-86983504D01*
X127370564Y-87019408D01*
X127370567Y-87019412D01*
X127372582Y-87022427D01*
X128340909Y-87990753D01*
X128396670Y-88028013D01*
X128484656Y-88045515D01*
X128572642Y-88028013D01*
X128628403Y-87990754D01*
X128765879Y-87853277D01*
X128803139Y-87797516D01*
X128813909Y-87743369D01*
X128834161Y-87705481D01*
X128872049Y-87685229D01*
X128926196Y-87674459D01*
X128981957Y-87637200D01*
X129119433Y-87499723D01*
X129156693Y-87443962D01*
X129167463Y-87389815D01*
X129187715Y-87351928D01*
X129225602Y-87331676D01*
X129279749Y-87320906D01*
X129335510Y-87283647D01*
X129472986Y-87146170D01*
X129510246Y-87090409D01*
X129521016Y-87036262D01*
X129541268Y-86998375D01*
X129579155Y-86978123D01*
X129633302Y-86967353D01*
X129689063Y-86930094D01*
X129826539Y-86792617D01*
X129863799Y-86736856D01*
X129874569Y-86682709D01*
X129894821Y-86644821D01*
X129932709Y-86624569D01*
X129986856Y-86613799D01*
X130042617Y-86576540D01*
X130180093Y-86439063D01*
X130217353Y-86383302D01*
X130228123Y-86329155D01*
X130248375Y-86291268D01*
X130286262Y-86271016D01*
X130340409Y-86260246D01*
X130396170Y-86222987D01*
X130533646Y-86085510D01*
X130570906Y-86029749D01*
X130581676Y-85975602D01*
X130601928Y-85937715D01*
X130639815Y-85917463D01*
X130693962Y-85906693D01*
X130749723Y-85869434D01*
X130887199Y-85731957D01*
X130924459Y-85676196D01*
X130935229Y-85622049D01*
X130955481Y-85584161D01*
X130993369Y-85563909D01*
X131047516Y-85553139D01*
X131103277Y-85515880D01*
X131240753Y-85378403D01*
X131278013Y-85322642D01*
X131288783Y-85268495D01*
X131309035Y-85230608D01*
X131346922Y-85210356D01*
X131401069Y-85199586D01*
X131456830Y-85162327D01*
X131594306Y-85024850D01*
X131631566Y-84969089D01*
X131642336Y-84914942D01*
X131662588Y-84877054D01*
X131700476Y-84856802D01*
X131754623Y-84846032D01*
X131810384Y-84808773D01*
X131947860Y-84671296D01*
X131985120Y-84615535D01*
X132002622Y-84527549D01*
X132497378Y-84527549D01*
X132498800Y-84534698D01*
X132509419Y-84588084D01*
X132514880Y-84615535D01*
X132518931Y-84621597D01*
X132550121Y-84668277D01*
X132550124Y-84668281D01*
X132552139Y-84671296D01*
X132689616Y-84808772D01*
X132745377Y-84846032D01*
X132833363Y-84863534D01*
X132921349Y-84846032D01*
X132977110Y-84808773D01*
X133945436Y-83840446D01*
X133982696Y-83784685D01*
X134000198Y-83696699D01*
X133982696Y-83608713D01*
X133954557Y-83566601D01*
X133947454Y-83555970D01*
X133947451Y-83555967D01*
X133945437Y-83552952D01*
X133807960Y-83415476D01*
X133804938Y-83413457D01*
X133777438Y-83395081D01*
X133752199Y-83378216D01*
X133745048Y-83376793D01*
X133745047Y-83376793D01*
X133671362Y-83362136D01*
X133664213Y-83360714D01*
X133657064Y-83362136D01*
X133583378Y-83376793D01*
X133583375Y-83376794D01*
X133576227Y-83378216D01*
X133570164Y-83382266D01*
X133570164Y-83382267D01*
X133523484Y-83413457D01*
X133523474Y-83413464D01*
X133520466Y-83415475D01*
X133517904Y-83418036D01*
X133517899Y-83418041D01*
X133388492Y-83547448D01*
X133355318Y-83566601D01*
X133317013Y-83566600D01*
X133283840Y-83547448D01*
X133252461Y-83516069D01*
X133252460Y-83516068D01*
X133248342Y-83511950D01*
X133135304Y-83454354D01*
X133129550Y-83453442D01*
X133129548Y-83453442D01*
X133015752Y-83435419D01*
X133010000Y-83434508D01*
X133004248Y-83435419D01*
X132890451Y-83453442D01*
X132890447Y-83453442D01*
X132884696Y-83454354D01*
X132879504Y-83456999D01*
X132879502Y-83457000D01*
X132776850Y-83509304D01*
X132776847Y-83509305D01*
X132771658Y-83511950D01*
X132767541Y-83516066D01*
X132767538Y-83516069D01*
X132686069Y-83597538D01*
X132686066Y-83597541D01*
X132681950Y-83601658D01*
X132679305Y-83606847D01*
X132679304Y-83606850D01*
X132627000Y-83709502D01*
X132624354Y-83714696D01*
X132623442Y-83720447D01*
X132623442Y-83720451D01*
X132613280Y-83784615D01*
X132604508Y-83840000D01*
X132605419Y-83845752D01*
X132622985Y-83956664D01*
X132624354Y-83965304D01*
X132681950Y-84078342D01*
X132686069Y-84082461D01*
X132717448Y-84113840D01*
X132736600Y-84147013D01*
X132736601Y-84185318D01*
X132717448Y-84218492D01*
X132554706Y-84381235D01*
X132554701Y-84381240D01*
X132552140Y-84383802D01*
X132550125Y-84386816D01*
X132550122Y-84386821D01*
X132520835Y-84430651D01*
X132514880Y-84439563D01*
X132513458Y-84446711D01*
X132513457Y-84446714D01*
X132500328Y-84512719D01*
X132497378Y-84527549D01*
X132002622Y-84527549D01*
X131985120Y-84439563D01*
X131951010Y-84388514D01*
X131949878Y-84386820D01*
X131949875Y-84386817D01*
X131947861Y-84383802D01*
X130979534Y-83415476D01*
X130976512Y-83413457D01*
X130949012Y-83395081D01*
X130923773Y-83378216D01*
X130916622Y-83376793D01*
X130916621Y-83376793D01*
X130842936Y-83362136D01*
X130835787Y-83360714D01*
X130828638Y-83362136D01*
X130754952Y-83376793D01*
X130754949Y-83376794D01*
X130747801Y-83378216D01*
X130741738Y-83382266D01*
X130741738Y-83382267D01*
X130695058Y-83413457D01*
X130695048Y-83413464D01*
X130692040Y-83415475D01*
X130689478Y-83418036D01*
X130689473Y-83418041D01*
X130557130Y-83550385D01*
X130557125Y-83550390D01*
X130554564Y-83552952D01*
X130552549Y-83555966D01*
X130552546Y-83555971D01*
X130540167Y-83574497D01*
X130517304Y-83608713D01*
X130515882Y-83615859D01*
X130515881Y-83615863D01*
X130506533Y-83662859D01*
X130486281Y-83700747D01*
X130448393Y-83720999D01*
X130401397Y-83730347D01*
X130401393Y-83730348D01*
X130394247Y-83731770D01*
X130388184Y-83735820D01*
X130388184Y-83735821D01*
X130341504Y-83767011D01*
X130341494Y-83767018D01*
X130338486Y-83769029D01*
X130335924Y-83771590D01*
X130335919Y-83771595D01*
X130203576Y-83903939D01*
X130203571Y-83903944D01*
X130201010Y-83906506D01*
X130198995Y-83909520D01*
X130198992Y-83909525D01*
X130193704Y-83917439D01*
X130163750Y-83962267D01*
X130162328Y-83969413D01*
X130162327Y-83969417D01*
X130152979Y-84016412D01*
X130132727Y-84054300D01*
X130094839Y-84074552D01*
X130047844Y-84083900D01*
X130047840Y-84083901D01*
X130040694Y-84085323D01*
X130034635Y-84089370D01*
X130034631Y-84089373D01*
X130018778Y-84099967D01*
X129974461Y-84112369D01*
X129931384Y-84096179D01*
X129906206Y-84057659D01*
X129908662Y-84011707D01*
X129930892Y-83954328D01*
X129930892Y-83845721D01*
X129927754Y-83837620D01*
X129893668Y-83749635D01*
X129893667Y-83749634D01*
X129891658Y-83744447D01*
X129876476Y-83725279D01*
X129626295Y-83475099D01*
X129608244Y-83445641D01*
X129606557Y-83440449D01*
X129605646Y-83434696D01*
X129548050Y-83321658D01*
X129458342Y-83231950D01*
X129345304Y-83174354D01*
X129339550Y-83173442D01*
X129339548Y-83173442D01*
X129225752Y-83155419D01*
X129220000Y-83154508D01*
X129214248Y-83155419D01*
X129100443Y-83173443D01*
X129100438Y-83173444D01*
X129094696Y-83174354D01*
X129090872Y-83176302D01*
X129057452Y-83178931D01*
X129035288Y-83169751D01*
X129034936Y-83170543D01*
X129012682Y-83160634D01*
X129002481Y-83155095D01*
X128988575Y-83146065D01*
X128988574Y-83146064D01*
X128982049Y-83141827D01*
X128974363Y-83140609D01*
X128967108Y-83137824D01*
X128967689Y-83136310D01*
X128936179Y-83120253D01*
X128706036Y-82890112D01*
X128706035Y-82890111D01*
X128704527Y-82888603D01*
X128684863Y-82873026D01*
X128661944Y-82864147D01*
X128587368Y-82835255D01*
X128587364Y-82835254D01*
X128580975Y-82832779D01*
X128469563Y-82832779D01*
X128463174Y-82835253D01*
X128463169Y-82835255D01*
X128370868Y-82871013D01*
X128370861Y-82871016D01*
X128365675Y-82873026D01*
X128361310Y-82876483D01*
X128361307Y-82876485D01*
X128347687Y-82887272D01*
X128347671Y-82887285D01*
X128346011Y-82888601D01*
X128344509Y-82890102D01*
X128344500Y-82890111D01*
X128076006Y-83158607D01*
X128075997Y-83158616D01*
X128074497Y-83160117D01*
X128073182Y-83161777D01*
X128073174Y-83161786D01*
X128063219Y-83174354D01*
X128058920Y-83179781D01*
X128056910Y-83184969D01*
X128056909Y-83184971D01*
X128021149Y-83277275D01*
X128021147Y-83277280D01*
X128018673Y-83283669D01*
X128018673Y-83395081D01*
X128021149Y-83401473D01*
X128021150Y-83401476D01*
X128036289Y-83440555D01*
X128039692Y-83482560D01*
X128019612Y-83519612D01*
X127982560Y-83539692D01*
X127940555Y-83536289D01*
X127901476Y-83521150D01*
X127901473Y-83521149D01*
X127895081Y-83518673D01*
X127783669Y-83518673D01*
X127777280Y-83521147D01*
X127777275Y-83521149D01*
X127684974Y-83556907D01*
X127684967Y-83556910D01*
X127679781Y-83558920D01*
X127675416Y-83562377D01*
X127675413Y-83562379D01*
X127661793Y-83573166D01*
X127661777Y-83573179D01*
X127660117Y-83574495D01*
X127658613Y-83575998D01*
X127658605Y-83576006D01*
X127639707Y-83594904D01*
X127606533Y-83614056D01*
X127568229Y-83614055D01*
X127535056Y-83594903D01*
X127477412Y-83537259D01*
X127457331Y-83500206D01*
X127460736Y-83458200D01*
X127462579Y-83453442D01*
X127472397Y-83428100D01*
X127472397Y-83321362D01*
X127433840Y-83221832D01*
X127418916Y-83202991D01*
X127097009Y-82881085D01*
X127086835Y-82873026D01*
X127082532Y-82869617D01*
X127078168Y-82866160D01*
X127072976Y-82864148D01*
X127072975Y-82864148D01*
X126985033Y-82830080D01*
X126985031Y-82830079D01*
X126978638Y-82827603D01*
X126871900Y-82827603D01*
X126865507Y-82830079D01*
X126865504Y-82830080D01*
X126777564Y-82864147D01*
X126777559Y-82864149D01*
X126772370Y-82866160D01*
X126768005Y-82869617D01*
X126768004Y-82869618D01*
X126755197Y-82879762D01*
X126755189Y-82879768D01*
X126753529Y-82881084D01*
X126752032Y-82882580D01*
X126752023Y-82882589D01*
X126503848Y-83130765D01*
X126503839Y-83130774D01*
X126502333Y-83132281D01*
X126501011Y-83133949D01*
X126501001Y-83133961D01*
X126490865Y-83146757D01*
X126490863Y-83146760D01*
X126487408Y-83151122D01*
X126485398Y-83156310D01*
X126485396Y-83156314D01*
X126451328Y-83244256D01*
X126451327Y-83244259D01*
X126448851Y-83250652D01*
X126448851Y-83357390D01*
X125547255Y-83357390D01*
X125544056Y-83306540D01*
X125493268Y-83150229D01*
X125405202Y-83011460D01*
X125321373Y-82932739D01*
X125288783Y-82902135D01*
X125288781Y-82902133D01*
X125285393Y-82898952D01*
X125202020Y-82853117D01*
X125145443Y-82822013D01*
X125145441Y-82822012D01*
X125141368Y-82819773D01*
X125136863Y-82818616D01*
X125136860Y-82818615D01*
X125002397Y-82784091D01*
X124982177Y-82778900D01*
X124059075Y-82778900D01*
X124056769Y-82779191D01*
X124056758Y-82779192D01*
X123941562Y-82793745D01*
X123941559Y-82793745D01*
X123936942Y-82794329D01*
X123932618Y-82796040D01*
X123932610Y-82796043D01*
X123788460Y-82853117D01*
X123788458Y-82853117D01*
X123784129Y-82854832D01*
X123780367Y-82857564D01*
X123780360Y-82857569D01*
X123654930Y-82948699D01*
X123654924Y-82948703D01*
X123651163Y-82951437D01*
X123648197Y-82955021D01*
X123648194Y-82955025D01*
X123549369Y-83074484D01*
X123549366Y-83074488D01*
X123546400Y-83078074D01*
X123544420Y-83082281D01*
X123544416Y-83082288D01*
X123478401Y-83222577D01*
X123478398Y-83222584D01*
X123476421Y-83226787D01*
X123475549Y-83231355D01*
X123475549Y-83231357D01*
X123446496Y-83383654D01*
X123446495Y-83383661D01*
X123445624Y-83388230D01*
X123445916Y-83392874D01*
X123445916Y-83392877D01*
X123455651Y-83547613D01*
X123455651Y-83547617D01*
X123455944Y-83552260D01*
X123457382Y-83556688D01*
X123457383Y-83556689D01*
X123505292Y-83704141D01*
X123505294Y-83704145D01*
X123506732Y-83708571D01*
X123509226Y-83712500D01*
X123509227Y-83712503D01*
X123524025Y-83735821D01*
X123594798Y-83847340D01*
X123612230Y-83863710D01*
X123710726Y-83956204D01*
X123714607Y-83959848D01*
X123846474Y-84032343D01*
X123857952Y-84038653D01*
X123890216Y-84074111D01*
X123893977Y-84121903D01*
X123867657Y-84161971D01*
X123822302Y-84177500D01*
X121566257Y-84177500D01*
X121519088Y-84160518D01*
X121493568Y-84117366D01*
X121501410Y-84067850D01*
X121539016Y-84034697D01*
X121615871Y-84004268D01*
X121748837Y-83907663D01*
X121853600Y-83781026D01*
X121923579Y-83632313D01*
X121954376Y-83470870D01*
X121944056Y-83306840D01*
X121893268Y-83150529D01*
X121805202Y-83011760D01*
X121744785Y-82955025D01*
X121688783Y-82902435D01*
X121688781Y-82902433D01*
X121685393Y-82899252D01*
X121541368Y-82820073D01*
X121536863Y-82818916D01*
X121536860Y-82818915D01*
X121386683Y-82780357D01*
X121382177Y-82779200D01*
X120140804Y-82779200D01*
X120100908Y-82767524D01*
X120073601Y-82736181D01*
X120067502Y-82695061D01*
X120084534Y-82657141D01*
X120092899Y-82647345D01*
X120115468Y-82620922D01*
X120123670Y-82612721D01*
X120263909Y-82492953D01*
X120273290Y-82486136D01*
X120430555Y-82389771D01*
X120440889Y-82384506D01*
X120611283Y-82313935D01*
X120622305Y-82310354D01*
X120801644Y-82267306D01*
X120813101Y-82265492D01*
X121000781Y-82250730D01*
X121006578Y-82250503D01*
X121046932Y-82250505D01*
X121046937Y-82250502D01*
X137497091Y-82250500D01*
X137502897Y-82250728D01*
G37*
G04 #@! TD.AperFunction*
M02*
