%TF.GenerationSoftware,KiCad,Pcbnew,(7.0.0-0)*%
%TF.CreationDate,2024-02-04T16:48:40+08:00*%
%TF.ProjectId,SWDProgrammer,53574450-726f-4677-9261-6d6d65722e6b,rev?*%
%TF.SameCoordinates,Original*%
%TF.FileFunction,Drillmap*%
%TF.FilePolarity,Positive*%
%FSLAX45Y45*%
G04 Gerber Fmt 4.5, Leading zero omitted, Abs format (unit mm)*
G04 Created by KiCad (PCBNEW (7.0.0-0)) date 2024-02-04 16:48:40*
%MOMM*%
%LPD*%
G01*
G04 APERTURE LIST*
%ADD10C,0.100000*%
%ADD11C,0.150000*%
%ADD12C,0.010000*%
%ADD13C,0.200000*%
G04 APERTURE END LIST*
D10*
X14991280Y-5266442D02*
X15117694Y-6162457D01*
X14523280Y-7483485D02*
X15002475Y-6716741D01*
D11*
X13564998Y-6817501D02*
X14807443Y-8008270D01*
D10*
X15700666Y-6080020D02*
X15117694Y-6162457D01*
D12*
X13247500Y-6315001D02*
X13247500Y-6047501D01*
X13724998Y-6625001D02*
X13724998Y-6315001D01*
D10*
X15700000Y-6100000D02*
G75*
G03*
X15700666Y-6080020I-2696880J99900D01*
G01*
X15576364Y-5186151D02*
G75*
G03*
X15473045Y-4911860I-2576374J-813859D01*
G01*
D11*
X13564998Y-6817501D02*
X13564998Y-6625001D01*
D12*
X13724998Y-6047501D02*
X13724998Y-5742501D01*
D11*
X13564998Y-6625001D02*
X13724998Y-6625001D01*
D10*
X15002475Y-6716741D02*
X15500294Y-7023977D01*
D11*
X13984998Y-5742501D02*
X13724998Y-5742501D01*
D10*
X15576364Y-5186151D02*
X14991280Y-5266442D01*
X14807443Y-8008270D02*
G75*
G03*
X15022146Y-7791901I-1802433J2003260D01*
G01*
X15500294Y-7023977D02*
G75*
G03*
X15700000Y-6100000I-2500294J1023977D01*
G01*
D11*
X13773562Y-5338086D02*
X15473045Y-4911860D01*
D10*
X13984998Y-5742501D02*
G75*
G03*
X13773562Y-5338086I-984998J-257499D01*
G01*
D12*
X13247500Y-6047501D02*
X13724998Y-6047501D01*
D10*
X15022146Y-7791901D02*
X14523280Y-7483485D01*
D12*
X13247500Y-6315001D02*
X13724998Y-6315001D01*
D13*
X13494619Y-8309246D02*
X13494619Y-8109246D01*
X13494619Y-8109246D02*
X13542238Y-8109246D01*
X13542238Y-8109246D02*
X13570809Y-8118770D01*
X13570809Y-8118770D02*
X13589857Y-8137818D01*
X13589857Y-8137818D02*
X13599381Y-8156865D01*
X13599381Y-8156865D02*
X13608905Y-8194961D01*
X13608905Y-8194961D02*
X13608905Y-8223532D01*
X13608905Y-8223532D02*
X13599381Y-8261627D01*
X13599381Y-8261627D02*
X13589857Y-8280675D01*
X13589857Y-8280675D02*
X13570809Y-8299722D01*
X13570809Y-8299722D02*
X13542238Y-8309246D01*
X13542238Y-8309246D02*
X13494619Y-8309246D01*
X13694619Y-8309246D02*
X13694619Y-8175913D01*
X13694619Y-8214008D02*
X13704143Y-8194961D01*
X13704143Y-8194961D02*
X13713666Y-8185437D01*
X13713666Y-8185437D02*
X13732714Y-8175913D01*
X13732714Y-8175913D02*
X13751762Y-8175913D01*
X13818428Y-8309246D02*
X13818428Y-8175913D01*
X13818428Y-8109246D02*
X13808905Y-8118770D01*
X13808905Y-8118770D02*
X13818428Y-8128294D01*
X13818428Y-8128294D02*
X13827952Y-8118770D01*
X13827952Y-8118770D02*
X13818428Y-8109246D01*
X13818428Y-8109246D02*
X13818428Y-8128294D01*
X13942238Y-8309246D02*
X13923190Y-8299722D01*
X13923190Y-8299722D02*
X13913666Y-8280675D01*
X13913666Y-8280675D02*
X13913666Y-8109246D01*
X14047000Y-8309246D02*
X14027952Y-8299722D01*
X14027952Y-8299722D02*
X14018428Y-8280675D01*
X14018428Y-8280675D02*
X14018428Y-8109246D01*
X14243190Y-8309246D02*
X14243190Y-8109246D01*
X14243190Y-8109246D02*
X14309857Y-8252103D01*
X14309857Y-8252103D02*
X14376524Y-8109246D01*
X14376524Y-8109246D02*
X14376524Y-8309246D01*
X14557476Y-8309246D02*
X14557476Y-8204484D01*
X14557476Y-8204484D02*
X14547952Y-8185437D01*
X14547952Y-8185437D02*
X14528905Y-8175913D01*
X14528905Y-8175913D02*
X14490809Y-8175913D01*
X14490809Y-8175913D02*
X14471762Y-8185437D01*
X14557476Y-8299722D02*
X14538428Y-8309246D01*
X14538428Y-8309246D02*
X14490809Y-8309246D01*
X14490809Y-8309246D02*
X14471762Y-8299722D01*
X14471762Y-8299722D02*
X14462238Y-8280675D01*
X14462238Y-8280675D02*
X14462238Y-8261627D01*
X14462238Y-8261627D02*
X14471762Y-8242580D01*
X14471762Y-8242580D02*
X14490809Y-8233056D01*
X14490809Y-8233056D02*
X14538428Y-8233056D01*
X14538428Y-8233056D02*
X14557476Y-8223532D01*
X14652714Y-8175913D02*
X14652714Y-8375913D01*
X14652714Y-8185437D02*
X14671762Y-8175913D01*
X14671762Y-8175913D02*
X14709857Y-8175913D01*
X14709857Y-8175913D02*
X14728905Y-8185437D01*
X14728905Y-8185437D02*
X14738428Y-8194961D01*
X14738428Y-8194961D02*
X14747952Y-8214008D01*
X14747952Y-8214008D02*
X14747952Y-8271151D01*
X14747952Y-8271151D02*
X14738428Y-8290199D01*
X14738428Y-8290199D02*
X14728905Y-8299722D01*
X14728905Y-8299722D02*
X14709857Y-8309246D01*
X14709857Y-8309246D02*
X14671762Y-8309246D01*
X14671762Y-8309246D02*
X14652714Y-8299722D01*
X14833666Y-8290199D02*
X14843190Y-8299722D01*
X14843190Y-8299722D02*
X14833666Y-8309246D01*
X14833666Y-8309246D02*
X14824143Y-8299722D01*
X14824143Y-8299722D02*
X14833666Y-8290199D01*
X14833666Y-8290199D02*
X14833666Y-8309246D01*
X14833666Y-8185437D02*
X14843190Y-8194961D01*
X14843190Y-8194961D02*
X14833666Y-8204484D01*
X14833666Y-8204484D02*
X14824143Y-8194961D01*
X14824143Y-8194961D02*
X14833666Y-8185437D01*
X14833666Y-8185437D02*
X14833666Y-8204484D01*
M02*
