G04 #@! TF.GenerationSoftware,KiCad,Pcbnew,(7.0.0-0)*
G04 #@! TF.CreationDate,2024-01-01T11:18:48+08:00*
G04 #@! TF.ProjectId,SWDProgrammer,53574450-726f-4677-9261-6d6d65722e6b,rev?*
G04 #@! TF.SameCoordinates,Original*
G04 #@! TF.FileFunction,Copper,L3,Inr*
G04 #@! TF.FilePolarity,Positive*
%FSLAX46Y46*%
G04 Gerber Fmt 4.6, Leading zero omitted, Abs format (unit mm)*
G04 Created by KiCad (PCBNEW (7.0.0-0)) date 2024-01-01 11:18:48*
%MOMM*%
%LPD*%
G01*
G04 APERTURE LIST*
G04 Aperture macros list*
%AMHorizOval*
0 Thick line with rounded ends*
0 $1 width*
0 $2 $3 position (X,Y) of the first rounded end (center of the circle)*
0 $4 $5 position (X,Y) of the second rounded end (center of the circle)*
0 Add line between two ends*
20,1,$1,$2,$3,$4,$5,0*
0 Add two circle primitives to create the rounded ends*
1,1,$1,$2,$3*
1,1,$1,$4,$5*%
G04 Aperture macros list end*
G04 #@! TA.AperFunction,ComponentPad*
%ADD10HorizOval,1.000000X-0.508829X0.317952X0.508829X-0.317952X0*%
G04 #@! TD*
G04 #@! TA.AperFunction,ComponentPad*
%ADD11HorizOval,1.000000X-0.339219X0.211968X0.339219X-0.211968X0*%
G04 #@! TD*
G04 #@! TA.AperFunction,ComponentPad*
%ADD12HorizOval,1.000000X0.594161X0.083504X-0.594161X-0.083504X0*%
G04 #@! TD*
G04 #@! TA.AperFunction,ComponentPad*
%ADD13HorizOval,1.000000X0.396107X0.055669X-0.396107X-0.055669X0*%
G04 #@! TD*
G04 #@! TA.AperFunction,ViaPad*
%ADD14C,0.300000*%
G04 #@! TD*
G04 #@! TA.AperFunction,Conductor*
%ADD15C,0.100000*%
G04 #@! TD*
G04 APERTURE END LIST*
D10*
X148316797Y-78015415D03*
X154225715Y-68559170D03*
D11*
X151003291Y-66545222D03*
X145094215Y-76001721D03*
D12*
X155581179Y-62080248D03*
X154029316Y-51038164D03*
D13*
X150266255Y-51566725D03*
X151818161Y-62609105D03*
D14*
X145250000Y-54500000D03*
X138000000Y-69250000D03*
X145150000Y-71550000D03*
X143300000Y-58700000D03*
X144150000Y-70900000D03*
X140250000Y-67000000D03*
X147750000Y-66450000D03*
X141050000Y-70550000D03*
X149800000Y-61600000D03*
X143750000Y-58900000D03*
X138900000Y-60600000D03*
X136950000Y-68450000D03*
X142737500Y-58750000D03*
X138300000Y-67350000D03*
X146150000Y-57050000D03*
X140200000Y-61000000D03*
X147850000Y-68450000D03*
X143800000Y-73200000D03*
X146550000Y-70450000D03*
X146000000Y-69600000D03*
X147100000Y-69700000D03*
X149750000Y-64600000D03*
X149800000Y-63500000D03*
X150000000Y-59700000D03*
X149300000Y-54900000D03*
X135850000Y-59900000D03*
X146250000Y-55550000D03*
X139850000Y-63400000D03*
X147750000Y-63500000D03*
X141350000Y-61900000D03*
X141300000Y-63250000D03*
X149450000Y-57050000D03*
X136350000Y-61100000D03*
X149300000Y-58050000D03*
X135700000Y-61400000D03*
X148750000Y-57500000D03*
X133650000Y-59450000D03*
X145450000Y-62850000D03*
X134000000Y-59750000D03*
X143300000Y-66900000D03*
X133700000Y-60200000D03*
X144300000Y-53350000D03*
D15*
X140200000Y-60050000D02*
X143200000Y-57050000D01*
X143200000Y-57050000D02*
X146150000Y-57050000D01*
X148800000Y-59700000D02*
X146150000Y-57050000D01*
X147850000Y-68450000D02*
X148800000Y-67500000D01*
X140200000Y-61000000D02*
X140200000Y-60050000D01*
X148800000Y-67500000D02*
X148800000Y-59700000D01*
X140250000Y-58600000D02*
X143300000Y-55550000D01*
X137150000Y-58600000D02*
X140250000Y-58600000D01*
X135850000Y-59900000D02*
X137150000Y-58600000D01*
X143300000Y-55550000D02*
X146250000Y-55550000D01*
X143450000Y-56000000D02*
X140450000Y-59000000D01*
X149450000Y-57050000D02*
X148400000Y-56000000D01*
X148400000Y-56000000D02*
X143450000Y-56000000D01*
X138450000Y-59000000D02*
X136350000Y-61100000D01*
X140450000Y-59000000D02*
X138450000Y-59000000D01*
X148750000Y-57500000D02*
X147500000Y-56250000D01*
X140500000Y-59250000D02*
X139150000Y-59250000D01*
X136250000Y-61650000D02*
X136000000Y-61400000D01*
X136000000Y-61400000D02*
X135700000Y-61400000D01*
X136750000Y-61650000D02*
X136250000Y-61650000D01*
X147500000Y-56250000D02*
X143500000Y-56250000D01*
X143500000Y-56250000D02*
X140500000Y-59250000D01*
X139150000Y-59250000D02*
X136750000Y-61650000D01*
X133700000Y-60200000D02*
X134550000Y-60200000D01*
X136450000Y-58300000D02*
X139900000Y-58300000D01*
X144300000Y-53900000D02*
X144300000Y-53350000D01*
X134550000Y-60200000D02*
X136450000Y-58300000D01*
X139900000Y-58300000D02*
X144300000Y-53900000D01*
G04 #@! TA.AperFunction,Conductor*
G36*
X154590434Y-49464800D02*
G01*
X154624907Y-49511406D01*
X154783969Y-49886637D01*
X154785240Y-49889751D01*
X154885957Y-50146516D01*
X154893302Y-50209133D01*
X154868908Y-50267268D01*
X154819080Y-50305893D01*
X154756699Y-50315024D01*
X154622079Y-50299924D01*
X154622071Y-50299924D01*
X154614323Y-50299055D01*
X154606595Y-50300140D01*
X154606594Y-50300141D01*
X153307961Y-50482651D01*
X153307946Y-50482654D01*
X153304097Y-50483195D01*
X153300340Y-50484215D01*
X153300334Y-50484217D01*
X153192827Y-50513426D01*
X153192820Y-50513428D01*
X153185300Y-50515472D01*
X153178521Y-50519322D01*
X153178516Y-50519325D01*
X153049180Y-50592798D01*
X153049176Y-50592800D01*
X153042395Y-50596653D01*
X153036781Y-50602073D01*
X153036780Y-50602075D01*
X152929781Y-50705401D01*
X152929775Y-50705408D01*
X152924167Y-50710824D01*
X152920080Y-50717467D01*
X152920077Y-50717471D01*
X152842138Y-50844159D01*
X152842136Y-50844162D01*
X152838048Y-50850808D01*
X152835741Y-50858257D01*
X152835740Y-50858262D01*
X152830082Y-50876541D01*
X152789447Y-51007813D01*
X152789066Y-51015600D01*
X152789065Y-51015607D01*
X152781799Y-51164181D01*
X152781799Y-51164188D01*
X152781419Y-51171971D01*
X152814467Y-51332969D01*
X152817883Y-51339974D01*
X152817884Y-51339975D01*
X152883094Y-51473677D01*
X152883096Y-51473680D01*
X152886515Y-51480690D01*
X152891570Y-51486630D01*
X152891573Y-51486634D01*
X152925927Y-51526999D01*
X152993037Y-51605852D01*
X153127338Y-51700591D01*
X153134630Y-51703361D01*
X153134634Y-51703363D01*
X153194656Y-51726163D01*
X153247094Y-51764175D01*
X153273214Y-51823441D01*
X153265890Y-51887792D01*
X153227120Y-51939673D01*
X153167482Y-51964930D01*
X151167106Y-52239442D01*
X151105913Y-52232397D01*
X151055660Y-52196776D01*
X151028747Y-52141369D01*
X151031816Y-52079848D01*
X151064110Y-52027395D01*
X151173351Y-51921903D01*
X151259470Y-51781918D01*
X151308071Y-51624913D01*
X151316100Y-51460755D01*
X151283052Y-51299758D01*
X151211004Y-51152036D01*
X151205947Y-51146094D01*
X151205945Y-51146091D01*
X151109542Y-51032820D01*
X151104482Y-51026874D01*
X151086447Y-51014152D01*
X150976556Y-50936632D01*
X150976555Y-50936631D01*
X150970181Y-50932135D01*
X150816538Y-50873771D01*
X150808787Y-50872901D01*
X150808785Y-50872901D01*
X150660963Y-50856320D01*
X150660956Y-50856320D01*
X150653208Y-50855451D01*
X150645480Y-50856536D01*
X150645479Y-50856537D01*
X149742955Y-50983377D01*
X149742940Y-50983380D01*
X149739091Y-50983921D01*
X149735333Y-50984941D01*
X149735328Y-50984943D01*
X149627819Y-51014152D01*
X149627810Y-51014155D01*
X149620293Y-51016198D01*
X149613514Y-51020048D01*
X149613509Y-51020051D01*
X149484173Y-51093524D01*
X149484169Y-51093526D01*
X149477388Y-51097379D01*
X149471774Y-51102799D01*
X149471773Y-51102801D01*
X149364775Y-51206127D01*
X149364772Y-51206129D01*
X149359161Y-51211549D01*
X149355076Y-51218187D01*
X149355071Y-51218195D01*
X149277130Y-51344888D01*
X149277128Y-51344891D01*
X149273042Y-51351534D01*
X149270735Y-51358984D01*
X149270734Y-51358988D01*
X149234465Y-51476155D01*
X149224440Y-51508539D01*
X149224059Y-51516325D01*
X149224058Y-51516332D01*
X149216792Y-51664907D01*
X149216792Y-51664914D01*
X149216412Y-51672697D01*
X149217979Y-51680334D01*
X149217980Y-51680337D01*
X149221667Y-51698297D01*
X149249460Y-51833694D01*
X149252876Y-51840699D01*
X149252877Y-51840700D01*
X149301148Y-51939673D01*
X149321508Y-51981416D01*
X149428029Y-52106578D01*
X149562330Y-52201317D01*
X149715972Y-52259680D01*
X149715973Y-52259681D01*
X149714970Y-52262319D01*
X149760837Y-52287926D01*
X149793804Y-52345796D01*
X149792075Y-52412375D01*
X149756149Y-52468456D01*
X149746270Y-52477282D01*
X149745975Y-52477544D01*
X149709318Y-52510050D01*
X149709102Y-52510492D01*
X149708736Y-52510820D01*
X149687330Y-52555259D01*
X149687330Y-52555260D01*
X149670906Y-52589029D01*
X149670904Y-52589033D01*
X149665733Y-52599668D01*
X149665703Y-52600159D01*
X149665490Y-52600603D01*
X149664822Y-52612459D01*
X149664822Y-52612462D01*
X149662726Y-52649698D01*
X149662699Y-52650157D01*
X149660490Y-52686948D01*
X149660490Y-52686954D01*
X149659759Y-52699144D01*
X149663748Y-52710689D01*
X149663749Y-52710691D01*
X149664221Y-52712057D01*
X149669804Y-52735230D01*
X150923748Y-61623098D01*
X150924771Y-61647333D01*
X150924726Y-61648131D01*
X150924727Y-61648139D01*
X150924046Y-61660327D01*
X150928079Y-61671847D01*
X150928080Y-61671848D01*
X150940334Y-61706843D01*
X150940346Y-61706878D01*
X150952907Y-61742786D01*
X150952909Y-61742789D01*
X150956940Y-61754312D01*
X150956967Y-61754342D01*
X150956981Y-61754382D01*
X150965123Y-61763489D01*
X150965124Y-61763490D01*
X150990443Y-61791809D01*
X150990470Y-61791840D01*
X151014819Y-61819093D01*
X151014823Y-61819096D01*
X151023338Y-61828626D01*
X151023375Y-61828643D01*
X151023403Y-61828675D01*
X151063509Y-61847977D01*
X151069127Y-61850681D01*
X151069128Y-61850682D01*
X151109793Y-61870269D01*
X151159847Y-61914248D01*
X151179912Y-61977785D01*
X151164195Y-62042535D01*
X151117233Y-62089802D01*
X151054701Y-62125326D01*
X151029294Y-62139759D01*
X151023680Y-62145179D01*
X151023679Y-62145181D01*
X150916681Y-62248507D01*
X150916678Y-62248509D01*
X150911067Y-62253929D01*
X150906982Y-62260567D01*
X150906977Y-62260575D01*
X150829036Y-62387268D01*
X150829034Y-62387271D01*
X150824948Y-62393914D01*
X150822641Y-62401364D01*
X150822640Y-62401368D01*
X150810577Y-62440337D01*
X150776346Y-62550919D01*
X150775965Y-62558705D01*
X150775964Y-62558712D01*
X150768698Y-62707287D01*
X150768698Y-62707294D01*
X150768318Y-62715077D01*
X150769885Y-62722714D01*
X150769886Y-62722717D01*
X150774591Y-62745637D01*
X150801366Y-62876074D01*
X150804782Y-62883079D01*
X150804783Y-62883080D01*
X150853045Y-62982034D01*
X150873414Y-63023796D01*
X150979935Y-63148958D01*
X151114236Y-63243697D01*
X151267879Y-63302061D01*
X151431210Y-63320381D01*
X152345327Y-63191911D01*
X152464124Y-63159634D01*
X152607030Y-63078453D01*
X152725257Y-62964283D01*
X152811376Y-62824298D01*
X152859977Y-62667293D01*
X152868006Y-62503135D01*
X152834958Y-62342138D01*
X152762910Y-62194416D01*
X152757853Y-62188474D01*
X152757851Y-62188471D01*
X152673876Y-62089802D01*
X152656388Y-62069254D01*
X152639996Y-62057691D01*
X152528462Y-61979012D01*
X152528461Y-61979011D01*
X152522087Y-61974515D01*
X152482220Y-61959370D01*
X152421858Y-61936441D01*
X152369484Y-61898507D01*
X152343332Y-61839363D01*
X152350513Y-61775095D01*
X152389075Y-61723182D01*
X152448528Y-61697744D01*
X154521985Y-61404541D01*
X154589065Y-61413725D01*
X154641324Y-61456778D01*
X154663176Y-61520864D01*
X154648106Y-61586875D01*
X154606494Y-61629147D01*
X154607289Y-61630210D01*
X154601043Y-61634882D01*
X154594258Y-61638737D01*
X154588644Y-61644157D01*
X154588643Y-61644159D01*
X154481644Y-61747485D01*
X154481638Y-61747492D01*
X154476030Y-61752908D01*
X154471943Y-61759551D01*
X154471940Y-61759555D01*
X154394001Y-61886243D01*
X154393999Y-61886246D01*
X154389911Y-61892892D01*
X154387604Y-61900341D01*
X154387603Y-61900346D01*
X154355405Y-62004363D01*
X154341310Y-62049897D01*
X154340929Y-62057684D01*
X154340928Y-62057691D01*
X154333662Y-62206265D01*
X154333662Y-62206272D01*
X154333282Y-62214055D01*
X154334849Y-62221692D01*
X154334850Y-62221695D01*
X154340354Y-62248507D01*
X154366330Y-62375053D01*
X154369746Y-62382058D01*
X154369747Y-62382059D01*
X154434957Y-62515761D01*
X154434959Y-62515764D01*
X154438378Y-62522774D01*
X154443433Y-62528714D01*
X154443436Y-62528718D01*
X154491970Y-62585744D01*
X154544900Y-62647936D01*
X154679201Y-62742675D01*
X154832844Y-62801039D01*
X154996174Y-62819359D01*
X156306400Y-62635219D01*
X156425197Y-62602942D01*
X156443249Y-62592686D01*
X156507926Y-62576551D01*
X156571616Y-62596240D01*
X156615907Y-62646063D01*
X156627998Y-62711621D01*
X156614095Y-62866074D01*
X156613627Y-62870409D01*
X156496868Y-63800051D01*
X156496249Y-63804368D01*
X156346865Y-64729385D01*
X156346094Y-64733677D01*
X156164285Y-65652841D01*
X156163364Y-65657103D01*
X155949340Y-66569335D01*
X155948269Y-66573562D01*
X155702316Y-67477658D01*
X155701098Y-67481845D01*
X155423495Y-68376771D01*
X155422130Y-68380912D01*
X155418781Y-68390503D01*
X155383819Y-68442547D01*
X155327866Y-68470836D01*
X155265227Y-68468136D01*
X155211916Y-68435138D01*
X155210479Y-68433629D01*
X155148948Y-68369015D01*
X155142331Y-68364880D01*
X154030195Y-67669940D01*
X154030191Y-67669937D01*
X154026893Y-67667877D01*
X153935833Y-67625801D01*
X153922225Y-67619513D01*
X153922222Y-67619512D01*
X153915143Y-67616241D01*
X153907477Y-67614834D01*
X153907471Y-67614832D01*
X153761163Y-67587980D01*
X153761158Y-67587979D01*
X153753488Y-67586572D01*
X153745705Y-67587116D01*
X153745703Y-67587116D01*
X153597318Y-67597491D01*
X153597312Y-67597492D01*
X153589534Y-67598036D01*
X153582137Y-67600496D01*
X153582130Y-67600498D01*
X153440986Y-67647450D01*
X153440978Y-67647453D01*
X153433582Y-67649914D01*
X153427028Y-67654137D01*
X153427021Y-67654141D01*
X153301988Y-67734721D01*
X153295431Y-67738947D01*
X153290136Y-67744664D01*
X153290130Y-67744670D01*
X153189062Y-67853813D01*
X153189057Y-67853819D01*
X153183762Y-67859538D01*
X153180054Y-67866394D01*
X153180050Y-67866401D01*
X153109304Y-67997243D01*
X153109301Y-67997249D01*
X153105591Y-68004112D01*
X153103704Y-68011676D01*
X153103702Y-68011684D01*
X153067715Y-68156017D01*
X153067714Y-68156024D01*
X153065829Y-68163585D01*
X153065883Y-68171381D01*
X153065883Y-68171385D01*
X153066626Y-68277737D01*
X153066977Y-68327936D01*
X153068969Y-68335476D01*
X153068970Y-68335482D01*
X153106966Y-68479292D01*
X153106967Y-68479295D01*
X153108960Y-68486837D01*
X153112767Y-68493648D01*
X153123174Y-68512270D01*
X153138914Y-68574878D01*
X153121050Y-68636913D01*
X153074425Y-68681561D01*
X153011675Y-68696722D01*
X152949808Y-68678287D01*
X151267162Y-67639818D01*
X151224314Y-67595271D01*
X151208293Y-67535575D01*
X151223079Y-67475561D01*
X151264999Y-67430140D01*
X151323635Y-67410598D01*
X151469864Y-67400374D01*
X151625816Y-67348496D01*
X151763967Y-67259464D01*
X151875636Y-67138872D01*
X151953807Y-66994298D01*
X151993569Y-66834825D01*
X151992421Y-66670475D01*
X151950438Y-66511573D01*
X151870256Y-66368104D01*
X151756914Y-66249083D01*
X151750297Y-66244948D01*
X150977382Y-65761976D01*
X150977378Y-65761973D01*
X150974080Y-65759913D01*
X150927870Y-65738561D01*
X150869411Y-65711549D01*
X150869408Y-65711548D01*
X150862329Y-65708277D01*
X150854663Y-65706870D01*
X150854657Y-65706868D01*
X150708349Y-65680016D01*
X150708344Y-65680015D01*
X150700674Y-65678608D01*
X150692891Y-65679152D01*
X150692889Y-65679152D01*
X150544504Y-65689527D01*
X150544498Y-65689528D01*
X150536720Y-65690072D01*
X150529323Y-65692532D01*
X150529316Y-65692534D01*
X150388174Y-65739486D01*
X150388169Y-65739488D01*
X150380769Y-65741950D01*
X150374209Y-65746177D01*
X150374208Y-65746178D01*
X150349695Y-65761976D01*
X150242617Y-65830983D01*
X150237322Y-65836700D01*
X150237316Y-65836706D01*
X150136248Y-65945849D01*
X150136243Y-65945855D01*
X150130948Y-65951574D01*
X150127240Y-65958430D01*
X150127236Y-65958437D01*
X150056490Y-66089279D01*
X150056487Y-66089285D01*
X150052777Y-66096148D01*
X150050890Y-66103712D01*
X150050888Y-66103720D01*
X150014901Y-66248053D01*
X150014900Y-66248060D01*
X150013015Y-66255621D01*
X150013069Y-66263417D01*
X150013069Y-66263421D01*
X150013848Y-66374915D01*
X150014163Y-66419971D01*
X150016155Y-66427511D01*
X150016156Y-66427517D01*
X150054152Y-66571328D01*
X150054153Y-66571331D01*
X150056146Y-66578873D01*
X150136081Y-66721900D01*
X150136328Y-66722342D01*
X150136263Y-66722378D01*
X150158526Y-66780805D01*
X150146730Y-66846198D01*
X150102867Y-66896112D01*
X150039532Y-66916214D01*
X150016815Y-66917034D01*
X150016121Y-66917057D01*
X149979092Y-66918185D01*
X149979086Y-66918186D01*
X149967315Y-66918545D01*
X149966645Y-66918846D01*
X149965913Y-66918873D01*
X149955213Y-66923764D01*
X149955211Y-66923765D01*
X149921581Y-66939139D01*
X149920952Y-66939424D01*
X149887207Y-66954623D01*
X149887203Y-66954625D01*
X149876450Y-66959469D01*
X149875946Y-66960004D01*
X149875280Y-66960309D01*
X149867246Y-66968943D01*
X149867245Y-66968945D01*
X149842033Y-66996045D01*
X149841567Y-66996543D01*
X149828263Y-67010685D01*
X149825401Y-67013727D01*
X149825030Y-67014319D01*
X149825001Y-67014354D01*
X149815717Y-67024333D01*
X149815713Y-67024337D01*
X149807402Y-67033273D01*
X149803140Y-67044710D01*
X149802959Y-67045005D01*
X149792208Y-67066834D01*
X145039428Y-74671593D01*
X145025007Y-74690394D01*
X145015552Y-74700544D01*
X145011282Y-74711978D01*
X145011279Y-74711984D01*
X144998430Y-74746395D01*
X144998219Y-74746954D01*
X144985092Y-74781595D01*
X144985090Y-74781601D01*
X144980894Y-74792677D01*
X144980913Y-74793310D01*
X144980692Y-74793903D01*
X144981110Y-74805750D01*
X144981110Y-74805755D01*
X144982422Y-74842866D01*
X144982441Y-74843467D01*
X144983929Y-74892287D01*
X144984189Y-74892865D01*
X144984212Y-74893496D01*
X144989131Y-74904279D01*
X144989132Y-74904280D01*
X145004468Y-74937893D01*
X145004715Y-74938439D01*
X145023391Y-74979904D01*
X145033428Y-75045756D01*
X145007941Y-75107299D01*
X144954286Y-75146775D01*
X144887946Y-75152790D01*
X144799273Y-75136515D01*
X144799268Y-75136514D01*
X144791598Y-75135107D01*
X144783815Y-75135651D01*
X144783813Y-75135651D01*
X144635428Y-75146026D01*
X144635422Y-75146027D01*
X144627644Y-75146571D01*
X144620247Y-75149031D01*
X144620240Y-75149033D01*
X144479098Y-75195985D01*
X144479093Y-75195987D01*
X144471693Y-75198449D01*
X144465133Y-75202676D01*
X144465132Y-75202677D01*
X144443820Y-75216412D01*
X144333541Y-75287482D01*
X144328246Y-75293199D01*
X144328240Y-75293205D01*
X144227172Y-75402348D01*
X144227167Y-75402354D01*
X144221872Y-75408073D01*
X144218164Y-75414929D01*
X144218160Y-75414936D01*
X144147414Y-75545778D01*
X144147411Y-75545784D01*
X144143701Y-75552647D01*
X144141815Y-75560211D01*
X144141810Y-75560224D01*
X144111748Y-75680795D01*
X144080711Y-75736849D01*
X144025836Y-75769927D01*
X143961775Y-75771196D01*
X143905632Y-75740318D01*
X141255074Y-73200000D01*
X143494864Y-73200000D01*
X143496748Y-73210685D01*
X143511381Y-73293678D01*
X143511382Y-73293683D01*
X143513266Y-73304363D01*
X143566252Y-73396138D01*
X143647432Y-73464256D01*
X143747014Y-73500500D01*
X143842139Y-73500500D01*
X143852986Y-73500500D01*
X143952568Y-73464256D01*
X144033748Y-73396138D01*
X144086734Y-73304363D01*
X144105136Y-73200000D01*
X144086734Y-73095637D01*
X144033748Y-73003862D01*
X143952568Y-72935744D01*
X143852986Y-72899500D01*
X143747014Y-72899500D01*
X143736821Y-72903209D01*
X143736820Y-72903210D01*
X143657624Y-72932034D01*
X143657621Y-72932035D01*
X143647432Y-72935744D01*
X143639128Y-72942711D01*
X143639124Y-72942714D01*
X143574561Y-72996889D01*
X143574558Y-72996892D01*
X143566252Y-73003862D01*
X143560829Y-73013253D01*
X143560827Y-73013257D01*
X143518690Y-73086241D01*
X143518688Y-73086244D01*
X143513266Y-73095637D01*
X143511383Y-73106315D01*
X143511381Y-73106321D01*
X143496748Y-73189315D01*
X143494864Y-73200000D01*
X141255074Y-73200000D01*
X139533470Y-71550000D01*
X144844864Y-71550000D01*
X144846748Y-71560685D01*
X144861381Y-71643678D01*
X144861382Y-71643683D01*
X144863266Y-71654363D01*
X144916252Y-71746138D01*
X144997432Y-71814256D01*
X145097014Y-71850500D01*
X145192139Y-71850500D01*
X145202986Y-71850500D01*
X145302568Y-71814256D01*
X145383748Y-71746138D01*
X145436734Y-71654363D01*
X145455136Y-71550000D01*
X145436734Y-71445637D01*
X145383748Y-71353862D01*
X145302568Y-71285744D01*
X145202986Y-71249500D01*
X145097014Y-71249500D01*
X145086821Y-71253209D01*
X145086820Y-71253210D01*
X145007624Y-71282034D01*
X145007621Y-71282035D01*
X144997432Y-71285744D01*
X144989128Y-71292711D01*
X144989124Y-71292714D01*
X144924561Y-71346889D01*
X144924558Y-71346892D01*
X144916252Y-71353862D01*
X144910829Y-71363253D01*
X144910827Y-71363257D01*
X144868690Y-71436241D01*
X144868688Y-71436244D01*
X144863266Y-71445637D01*
X144861383Y-71456315D01*
X144861381Y-71456321D01*
X144846748Y-71539315D01*
X144844864Y-71550000D01*
X139533470Y-71550000D01*
X138855262Y-70900000D01*
X143844864Y-70900000D01*
X143846748Y-70910685D01*
X143861381Y-70993678D01*
X143861382Y-70993683D01*
X143863266Y-71004363D01*
X143916252Y-71096138D01*
X143997432Y-71164256D01*
X144097014Y-71200500D01*
X144192139Y-71200500D01*
X144202986Y-71200500D01*
X144302568Y-71164256D01*
X144383748Y-71096138D01*
X144436734Y-71004363D01*
X144455136Y-70900000D01*
X144436734Y-70795637D01*
X144383748Y-70703862D01*
X144323264Y-70653110D01*
X144310875Y-70642714D01*
X144310873Y-70642713D01*
X144302568Y-70635744D01*
X144202986Y-70599500D01*
X144097014Y-70599500D01*
X144086821Y-70603209D01*
X144086820Y-70603210D01*
X144007624Y-70632034D01*
X144007621Y-70632035D01*
X143997432Y-70635744D01*
X143989128Y-70642711D01*
X143989124Y-70642714D01*
X143924561Y-70696889D01*
X143924558Y-70696892D01*
X143916252Y-70703862D01*
X143910829Y-70713253D01*
X143910827Y-70713257D01*
X143868690Y-70786241D01*
X143868688Y-70786244D01*
X143863266Y-70795637D01*
X143861383Y-70806315D01*
X143861381Y-70806321D01*
X143846748Y-70889315D01*
X143844864Y-70900000D01*
X138855262Y-70900000D01*
X138385734Y-70450000D01*
X146244864Y-70450000D01*
X146246748Y-70460685D01*
X146261381Y-70543678D01*
X146261382Y-70543683D01*
X146263266Y-70554363D01*
X146268689Y-70563757D01*
X146268690Y-70563758D01*
X146291467Y-70603210D01*
X146316252Y-70646138D01*
X146397432Y-70714256D01*
X146497014Y-70750500D01*
X146592139Y-70750500D01*
X146602986Y-70750500D01*
X146702568Y-70714256D01*
X146783748Y-70646138D01*
X146836734Y-70554363D01*
X146847389Y-70493937D01*
X146853252Y-70460685D01*
X146855136Y-70450000D01*
X146836734Y-70345637D01*
X146783748Y-70253862D01*
X146702568Y-70185744D01*
X146602986Y-70149500D01*
X146497014Y-70149500D01*
X146486821Y-70153209D01*
X146486820Y-70153210D01*
X146407624Y-70182034D01*
X146407621Y-70182035D01*
X146397432Y-70185744D01*
X146389128Y-70192711D01*
X146389124Y-70192714D01*
X146324561Y-70246889D01*
X146324558Y-70246892D01*
X146316252Y-70253862D01*
X146310829Y-70263253D01*
X146310827Y-70263257D01*
X146268690Y-70336241D01*
X146268688Y-70336244D01*
X146263266Y-70345637D01*
X146261383Y-70356315D01*
X146261381Y-70356321D01*
X146246748Y-70439315D01*
X146244864Y-70450000D01*
X138385734Y-70450000D01*
X137498847Y-69600000D01*
X145694864Y-69600000D01*
X145696748Y-69610685D01*
X145711381Y-69693678D01*
X145711382Y-69693683D01*
X145713266Y-69704363D01*
X145766252Y-69796138D01*
X145847432Y-69864256D01*
X145947014Y-69900500D01*
X146042139Y-69900500D01*
X146052986Y-69900500D01*
X146152568Y-69864256D01*
X146233748Y-69796138D01*
X146286734Y-69704363D01*
X146287503Y-69700000D01*
X146794864Y-69700000D01*
X146796748Y-69710685D01*
X146811381Y-69793678D01*
X146811382Y-69793683D01*
X146813266Y-69804363D01*
X146866252Y-69896138D01*
X146947432Y-69964256D01*
X147047014Y-70000500D01*
X147142139Y-70000500D01*
X147152986Y-70000500D01*
X147252568Y-69964256D01*
X147333748Y-69896138D01*
X147386734Y-69804363D01*
X147405136Y-69700000D01*
X147386734Y-69595637D01*
X147333748Y-69503862D01*
X147312748Y-69486241D01*
X147260875Y-69442714D01*
X147260873Y-69442713D01*
X147252568Y-69435744D01*
X147152986Y-69399500D01*
X147047014Y-69399500D01*
X147036821Y-69403209D01*
X147036820Y-69403210D01*
X146957624Y-69432034D01*
X146957621Y-69432035D01*
X146947432Y-69435744D01*
X146939128Y-69442711D01*
X146939124Y-69442714D01*
X146874561Y-69496889D01*
X146874558Y-69496892D01*
X146866252Y-69503862D01*
X146860829Y-69513253D01*
X146860827Y-69513257D01*
X146818690Y-69586241D01*
X146818688Y-69586244D01*
X146813266Y-69595637D01*
X146811383Y-69606315D01*
X146811381Y-69606321D01*
X146796748Y-69689315D01*
X146794864Y-69700000D01*
X146287503Y-69700000D01*
X146305136Y-69600000D01*
X146296408Y-69550500D01*
X146288618Y-69506321D01*
X146288617Y-69506320D01*
X146286734Y-69495637D01*
X146233748Y-69403862D01*
X146185954Y-69363758D01*
X146160875Y-69342714D01*
X146160873Y-69342713D01*
X146152568Y-69335744D01*
X146052986Y-69299500D01*
X145947014Y-69299500D01*
X145936821Y-69303209D01*
X145936820Y-69303210D01*
X145857624Y-69332034D01*
X145857621Y-69332035D01*
X145847432Y-69335744D01*
X145839128Y-69342711D01*
X145839124Y-69342714D01*
X145774561Y-69396889D01*
X145774558Y-69396892D01*
X145766252Y-69403862D01*
X145760829Y-69413253D01*
X145760827Y-69413257D01*
X145718690Y-69486241D01*
X145718688Y-69486244D01*
X145713266Y-69495637D01*
X145711383Y-69506315D01*
X145711381Y-69506321D01*
X145703592Y-69550500D01*
X145694864Y-69600000D01*
X137498847Y-69600000D01*
X137133658Y-69250000D01*
X137694864Y-69250000D01*
X137696748Y-69260685D01*
X137711381Y-69343678D01*
X137711382Y-69343683D01*
X137713266Y-69354363D01*
X137718689Y-69363757D01*
X137718690Y-69363758D01*
X137741467Y-69403210D01*
X137766252Y-69446138D01*
X137847432Y-69514256D01*
X137947014Y-69550500D01*
X138042139Y-69550500D01*
X138052986Y-69550500D01*
X138152568Y-69514256D01*
X138233748Y-69446138D01*
X138286734Y-69354363D01*
X138305136Y-69250000D01*
X138286734Y-69145637D01*
X138233748Y-69053862D01*
X138152568Y-68985744D01*
X138052986Y-68949500D01*
X137947014Y-68949500D01*
X137936821Y-68953209D01*
X137936820Y-68953210D01*
X137857624Y-68982034D01*
X137857621Y-68982035D01*
X137847432Y-68985744D01*
X137839128Y-68992711D01*
X137839124Y-68992714D01*
X137774561Y-69046889D01*
X137774558Y-69046892D01*
X137766252Y-69053862D01*
X137760829Y-69063253D01*
X137760827Y-69063257D01*
X137718690Y-69136241D01*
X137718688Y-69136244D01*
X137713266Y-69145637D01*
X137711383Y-69156315D01*
X137711381Y-69156321D01*
X137696748Y-69239315D01*
X137694864Y-69250000D01*
X137133658Y-69250000D01*
X135938685Y-68104728D01*
X135910434Y-68063871D01*
X135900485Y-68015205D01*
X135900485Y-67350000D01*
X137994864Y-67350000D01*
X137996748Y-67360685D01*
X138011381Y-67443678D01*
X138011382Y-67443683D01*
X138013266Y-67454363D01*
X138018689Y-67463757D01*
X138018690Y-67463758D01*
X138059034Y-67533637D01*
X138066252Y-67546138D01*
X138074561Y-67553110D01*
X138124806Y-67595271D01*
X138147432Y-67614256D01*
X138247014Y-67650500D01*
X138342139Y-67650500D01*
X138352986Y-67650500D01*
X138452568Y-67614256D01*
X138533748Y-67546138D01*
X138586734Y-67454363D01*
X138605136Y-67350000D01*
X138603252Y-67339315D01*
X138588618Y-67256321D01*
X138588617Y-67256320D01*
X138586734Y-67245637D01*
X138533748Y-67153862D01*
X138485954Y-67113758D01*
X138460875Y-67092714D01*
X138460873Y-67092713D01*
X138452568Y-67085744D01*
X138352986Y-67049500D01*
X138247014Y-67049500D01*
X138236821Y-67053209D01*
X138236820Y-67053210D01*
X138157624Y-67082034D01*
X138157621Y-67082035D01*
X138147432Y-67085744D01*
X138139128Y-67092711D01*
X138139124Y-67092714D01*
X138074561Y-67146889D01*
X138074558Y-67146892D01*
X138066252Y-67153862D01*
X138060829Y-67163253D01*
X138060827Y-67163257D01*
X138018690Y-67236241D01*
X138018688Y-67236244D01*
X138013266Y-67245637D01*
X138011383Y-67256315D01*
X138011381Y-67256321D01*
X137996748Y-67339315D01*
X137994864Y-67350000D01*
X135900485Y-67350000D01*
X135900485Y-67000000D01*
X139944864Y-67000000D01*
X139946748Y-67010685D01*
X139961381Y-67093678D01*
X139961382Y-67093683D01*
X139963266Y-67104363D01*
X139968689Y-67113757D01*
X139968690Y-67113758D01*
X139983189Y-67138872D01*
X140016252Y-67196138D01*
X140024561Y-67203110D01*
X140084900Y-67253741D01*
X140097432Y-67264256D01*
X140197014Y-67300500D01*
X140292139Y-67300500D01*
X140302986Y-67300500D01*
X140402568Y-67264256D01*
X140483748Y-67196138D01*
X140536734Y-67104363D01*
X140555136Y-67000000D01*
X140544848Y-66941656D01*
X140538618Y-66906321D01*
X140538617Y-66906320D01*
X140537503Y-66900000D01*
X142994864Y-66900000D01*
X142996748Y-66910685D01*
X143011381Y-66993678D01*
X143011382Y-66993683D01*
X143013266Y-67004363D01*
X143018689Y-67013757D01*
X143018690Y-67013758D01*
X143041467Y-67053210D01*
X143066252Y-67096138D01*
X143147432Y-67164256D01*
X143247014Y-67200500D01*
X143342139Y-67200500D01*
X143352986Y-67200500D01*
X143452568Y-67164256D01*
X143533748Y-67096138D01*
X143586734Y-67004363D01*
X143597857Y-66941282D01*
X143603252Y-66910685D01*
X143605136Y-66900000D01*
X143586734Y-66795637D01*
X143533748Y-66703862D01*
X143525438Y-66696889D01*
X143460875Y-66642714D01*
X143460873Y-66642713D01*
X143452568Y-66635744D01*
X143352986Y-66599500D01*
X143247014Y-66599500D01*
X143236821Y-66603209D01*
X143236820Y-66603210D01*
X143157624Y-66632034D01*
X143157621Y-66632035D01*
X143147432Y-66635744D01*
X143139128Y-66642711D01*
X143139124Y-66642714D01*
X143074561Y-66696889D01*
X143074558Y-66696892D01*
X143066252Y-66703862D01*
X143060829Y-66713253D01*
X143060827Y-66713257D01*
X143018690Y-66786241D01*
X143018688Y-66786244D01*
X143013266Y-66795637D01*
X143011383Y-66806315D01*
X143011381Y-66806321D01*
X142997290Y-66886241D01*
X142994864Y-66900000D01*
X140537503Y-66900000D01*
X140536734Y-66895637D01*
X140483748Y-66803862D01*
X140402568Y-66735744D01*
X140365745Y-66722342D01*
X140340784Y-66713257D01*
X140302986Y-66699500D01*
X140197014Y-66699500D01*
X140186821Y-66703209D01*
X140186820Y-66703210D01*
X140107624Y-66732034D01*
X140107621Y-66732035D01*
X140097432Y-66735744D01*
X140089128Y-66742711D01*
X140089124Y-66742714D01*
X140024561Y-66796889D01*
X140024558Y-66796892D01*
X140016252Y-66803862D01*
X140010829Y-66813253D01*
X140010827Y-66813257D01*
X139968690Y-66886241D01*
X139968688Y-66886244D01*
X139963266Y-66895637D01*
X139961383Y-66906315D01*
X139961381Y-66906321D01*
X139950340Y-66968945D01*
X139944864Y-67000000D01*
X135900485Y-67000000D01*
X135900485Y-66624508D01*
X135917098Y-66562508D01*
X135962485Y-66517121D01*
X136024485Y-66500508D01*
X137213100Y-66500508D01*
X137237291Y-66502891D01*
X137249985Y-66505416D01*
X137347725Y-66485974D01*
X137430586Y-66430609D01*
X137485951Y-66347748D01*
X137500485Y-66274682D01*
X137505393Y-66250008D01*
X137502868Y-66237314D01*
X137500485Y-66213123D01*
X137500485Y-63400000D01*
X139544864Y-63400000D01*
X139546748Y-63410685D01*
X139561381Y-63493678D01*
X139561382Y-63493683D01*
X139563266Y-63504363D01*
X139568689Y-63513757D01*
X139568690Y-63513758D01*
X139587760Y-63546789D01*
X139616252Y-63596138D01*
X139697432Y-63664256D01*
X139797014Y-63700500D01*
X139892139Y-63700500D01*
X139902986Y-63700500D01*
X140002568Y-63664256D01*
X140083748Y-63596138D01*
X140136734Y-63504363D01*
X140155136Y-63400000D01*
X140136734Y-63295637D01*
X140110386Y-63250000D01*
X140994864Y-63250000D01*
X140996748Y-63260685D01*
X141011381Y-63343678D01*
X141011382Y-63343683D01*
X141013266Y-63354363D01*
X141018689Y-63363757D01*
X141018690Y-63363758D01*
X141038862Y-63398698D01*
X141066252Y-63446138D01*
X141147432Y-63514256D01*
X141247014Y-63550500D01*
X141342139Y-63550500D01*
X141352986Y-63550500D01*
X141452568Y-63514256D01*
X141469558Y-63500000D01*
X147444864Y-63500000D01*
X147446748Y-63510685D01*
X147461381Y-63593678D01*
X147461382Y-63593683D01*
X147463266Y-63604363D01*
X147516252Y-63696138D01*
X147597432Y-63764256D01*
X147697014Y-63800500D01*
X147792139Y-63800500D01*
X147802986Y-63800500D01*
X147902568Y-63764256D01*
X147983748Y-63696138D01*
X148036734Y-63604363D01*
X148055136Y-63500000D01*
X148036734Y-63395637D01*
X147983748Y-63303862D01*
X147919558Y-63250000D01*
X147910875Y-63242714D01*
X147910873Y-63242713D01*
X147902568Y-63235744D01*
X147802986Y-63199500D01*
X147697014Y-63199500D01*
X147686821Y-63203209D01*
X147686820Y-63203210D01*
X147607624Y-63232034D01*
X147607621Y-63232035D01*
X147597432Y-63235744D01*
X147589128Y-63242711D01*
X147589124Y-63242714D01*
X147524561Y-63296889D01*
X147524558Y-63296892D01*
X147516252Y-63303862D01*
X147510829Y-63313253D01*
X147510827Y-63313257D01*
X147468690Y-63386241D01*
X147468688Y-63386244D01*
X147463266Y-63395637D01*
X147461383Y-63406315D01*
X147461381Y-63406321D01*
X147446748Y-63489315D01*
X147444864Y-63500000D01*
X141469558Y-63500000D01*
X141533748Y-63446138D01*
X141586734Y-63354363D01*
X141605136Y-63250000D01*
X141603252Y-63239315D01*
X141588618Y-63156321D01*
X141588617Y-63156320D01*
X141586734Y-63145637D01*
X141533748Y-63053862D01*
X141497917Y-63023796D01*
X141460875Y-62992714D01*
X141460873Y-62992713D01*
X141452568Y-62985744D01*
X141352986Y-62949500D01*
X141247014Y-62949500D01*
X141236821Y-62953209D01*
X141236820Y-62953210D01*
X141157624Y-62982034D01*
X141157621Y-62982035D01*
X141147432Y-62985744D01*
X141139128Y-62992711D01*
X141139124Y-62992714D01*
X141074561Y-63046889D01*
X141074558Y-63046892D01*
X141066252Y-63053862D01*
X141060829Y-63063253D01*
X141060827Y-63063257D01*
X141018690Y-63136241D01*
X141018688Y-63136244D01*
X141013266Y-63145637D01*
X141011383Y-63156315D01*
X141011381Y-63156321D01*
X140996748Y-63239315D01*
X140994864Y-63250000D01*
X140110386Y-63250000D01*
X140083748Y-63203862D01*
X140075438Y-63196889D01*
X140010875Y-63142714D01*
X140010873Y-63142713D01*
X140002568Y-63135744D01*
X139902986Y-63099500D01*
X139797014Y-63099500D01*
X139786821Y-63103209D01*
X139786820Y-63103210D01*
X139707624Y-63132034D01*
X139707621Y-63132035D01*
X139697432Y-63135744D01*
X139689128Y-63142711D01*
X139689124Y-63142714D01*
X139624561Y-63196889D01*
X139624558Y-63196892D01*
X139616252Y-63203862D01*
X139610829Y-63213253D01*
X139610827Y-63213257D01*
X139568690Y-63286241D01*
X139568688Y-63286244D01*
X139563266Y-63295637D01*
X139561383Y-63306315D01*
X139561381Y-63306321D01*
X139552911Y-63354363D01*
X139544864Y-63400000D01*
X137500485Y-63400000D01*
X137500485Y-62850000D01*
X145144864Y-62850000D01*
X145146748Y-62860685D01*
X145161381Y-62943678D01*
X145161382Y-62943683D01*
X145163266Y-62954363D01*
X145168689Y-62963757D01*
X145168690Y-62963758D01*
X145199308Y-63016791D01*
X145216252Y-63046138D01*
X145224561Y-63053110D01*
X145254763Y-63078453D01*
X145297432Y-63114256D01*
X145397014Y-63150500D01*
X145492139Y-63150500D01*
X145502986Y-63150500D01*
X145602568Y-63114256D01*
X145683748Y-63046138D01*
X145736734Y-62954363D01*
X145755136Y-62850000D01*
X145736734Y-62745637D01*
X145683748Y-62653862D01*
X145675438Y-62646889D01*
X145610875Y-62592714D01*
X145610873Y-62592713D01*
X145602568Y-62585744D01*
X145502986Y-62549500D01*
X145397014Y-62549500D01*
X145386821Y-62553209D01*
X145386820Y-62553210D01*
X145307624Y-62582034D01*
X145307621Y-62582035D01*
X145297432Y-62585744D01*
X145289128Y-62592711D01*
X145289124Y-62592714D01*
X145224561Y-62646889D01*
X145224558Y-62646892D01*
X145216252Y-62653862D01*
X145210829Y-62663253D01*
X145210827Y-62663257D01*
X145168690Y-62736241D01*
X145168688Y-62736244D01*
X145163266Y-62745637D01*
X145161383Y-62756315D01*
X145161381Y-62756321D01*
X145150710Y-62816843D01*
X145144864Y-62850000D01*
X137500485Y-62850000D01*
X137500485Y-62186885D01*
X137502868Y-62162694D01*
X137503010Y-62161980D01*
X137505393Y-62150000D01*
X137485951Y-62052260D01*
X137430586Y-61969399D01*
X137347725Y-61914034D01*
X137335747Y-61911651D01*
X137335744Y-61911650D01*
X137277173Y-61900000D01*
X141044864Y-61900000D01*
X141046748Y-61910685D01*
X141061381Y-61993678D01*
X141061382Y-61993683D01*
X141063266Y-62004363D01*
X141068689Y-62013757D01*
X141068690Y-62013758D01*
X141104163Y-62075200D01*
X141116252Y-62096138D01*
X141124561Y-62103110D01*
X141168237Y-62139759D01*
X141197432Y-62164256D01*
X141297014Y-62200500D01*
X141392139Y-62200500D01*
X141402986Y-62200500D01*
X141502568Y-62164256D01*
X141583748Y-62096138D01*
X141636734Y-62004363D01*
X141655136Y-61900000D01*
X141643519Y-61834115D01*
X141638618Y-61806321D01*
X141638617Y-61806320D01*
X141636734Y-61795637D01*
X141583748Y-61703862D01*
X141541143Y-61668112D01*
X141510875Y-61642714D01*
X141510873Y-61642713D01*
X141502568Y-61635744D01*
X141484442Y-61629147D01*
X141452776Y-61617621D01*
X141402986Y-61599500D01*
X141297014Y-61599500D01*
X141286821Y-61603209D01*
X141286820Y-61603210D01*
X141207624Y-61632034D01*
X141207621Y-61632035D01*
X141197432Y-61635744D01*
X141189128Y-61642711D01*
X141189124Y-61642714D01*
X141124561Y-61696889D01*
X141124558Y-61696892D01*
X141116252Y-61703862D01*
X141110829Y-61713253D01*
X141110827Y-61713257D01*
X141068690Y-61786241D01*
X141068688Y-61786244D01*
X141063266Y-61795637D01*
X141061383Y-61806315D01*
X141061381Y-61806321D01*
X141049823Y-61871874D01*
X141044864Y-61900000D01*
X137277173Y-61900000D01*
X137274659Y-61899500D01*
X137261965Y-61896975D01*
X137249985Y-61894592D01*
X137238005Y-61896975D01*
X137237291Y-61897117D01*
X137213100Y-61899500D01*
X137083410Y-61899500D01*
X137027115Y-61885985D01*
X136983092Y-61848385D01*
X136960937Y-61794898D01*
X136965479Y-61737182D01*
X136995729Y-61687819D01*
X137496126Y-61187423D01*
X138644805Y-60038744D01*
X139196731Y-59486819D01*
X139236959Y-59459939D01*
X139284412Y-59450500D01*
X140216589Y-59450500D01*
X140272884Y-59464015D01*
X140316907Y-59501615D01*
X140339062Y-59555102D01*
X140334520Y-59612819D01*
X140304272Y-59662178D01*
X140132039Y-59834411D01*
X140084043Y-59882407D01*
X140081866Y-59884352D01*
X140071776Y-59889212D01*
X140063068Y-59900129D01*
X140063066Y-59900132D01*
X140054599Y-59910749D01*
X140048788Y-59917251D01*
X140047167Y-59919282D01*
X140042252Y-59924199D01*
X140038552Y-59930085D01*
X140036941Y-59932106D01*
X140031890Y-59939224D01*
X140023418Y-59949847D01*
X140023415Y-59949852D01*
X140014710Y-59960769D01*
X140012107Y-59972171D01*
X140005884Y-59982076D01*
X140004320Y-59995954D01*
X140004319Y-59995958D01*
X140002801Y-60009439D01*
X140001338Y-60018049D01*
X140001047Y-60020628D01*
X139999500Y-60027410D01*
X139999500Y-60034364D01*
X139999209Y-60036947D01*
X139998721Y-60045659D01*
X139997201Y-60059145D01*
X139997201Y-60059148D01*
X139995638Y-60073026D01*
X139999336Y-60083595D01*
X139999500Y-60086505D01*
X139999500Y-60722037D01*
X139992022Y-60764447D01*
X139972098Y-60798956D01*
X139966252Y-60803862D01*
X139960829Y-60813253D01*
X139960827Y-60813257D01*
X139918690Y-60886241D01*
X139918688Y-60886244D01*
X139913266Y-60895637D01*
X139911383Y-60906315D01*
X139911381Y-60906321D01*
X139901025Y-60965059D01*
X139894864Y-61000000D01*
X139896748Y-61010685D01*
X139911381Y-61093678D01*
X139911382Y-61093683D01*
X139913266Y-61104363D01*
X139918689Y-61113757D01*
X139918690Y-61113758D01*
X139947689Y-61163987D01*
X139966252Y-61196138D01*
X139974561Y-61203110D01*
X140019685Y-61240974D01*
X140047432Y-61264256D01*
X140147014Y-61300500D01*
X140242139Y-61300500D01*
X140252986Y-61300500D01*
X140352568Y-61264256D01*
X140433748Y-61196138D01*
X140486734Y-61104363D01*
X140505136Y-61000000D01*
X140489841Y-60913257D01*
X140488618Y-60906321D01*
X140488617Y-60906320D01*
X140486734Y-60895637D01*
X140433748Y-60803862D01*
X140427901Y-60798956D01*
X140407978Y-60764447D01*
X140400500Y-60722037D01*
X140400500Y-60184411D01*
X140409939Y-60136958D01*
X140436819Y-60096730D01*
X141783549Y-58750000D01*
X142432364Y-58750000D01*
X142434248Y-58760685D01*
X142448881Y-58843678D01*
X142448882Y-58843683D01*
X142450766Y-58854363D01*
X142456189Y-58863757D01*
X142456190Y-58863758D01*
X142490100Y-58922493D01*
X142503752Y-58946138D01*
X142523630Y-58962818D01*
X142564115Y-58996789D01*
X142584932Y-59014256D01*
X142684514Y-59050500D01*
X142779639Y-59050500D01*
X142790486Y-59050500D01*
X142890068Y-59014256D01*
X142968837Y-58948160D01*
X143019946Y-58922493D01*
X143077138Y-58922492D01*
X143128247Y-58948159D01*
X143139121Y-58957283D01*
X143139123Y-58957284D01*
X143147432Y-58964256D01*
X143247014Y-59000500D01*
X143342139Y-59000500D01*
X143352986Y-59000500D01*
X143452568Y-58964256D01*
X143533748Y-58896138D01*
X143586734Y-58804363D01*
X143600159Y-58728224D01*
X143603252Y-58710685D01*
X143605136Y-58700000D01*
X143586734Y-58595637D01*
X143533748Y-58503862D01*
X143512156Y-58485744D01*
X143460875Y-58442714D01*
X143460873Y-58442713D01*
X143452568Y-58435744D01*
X143352986Y-58399500D01*
X143247014Y-58399500D01*
X143236821Y-58403209D01*
X143236820Y-58403210D01*
X143157624Y-58432034D01*
X143157621Y-58432035D01*
X143147432Y-58435744D01*
X143139129Y-58442710D01*
X143139120Y-58442716D01*
X143068661Y-58501839D01*
X143017553Y-58527507D01*
X142960361Y-58527507D01*
X142909252Y-58501840D01*
X142898379Y-58492716D01*
X142898372Y-58492712D01*
X142890068Y-58485744D01*
X142790486Y-58449500D01*
X142684514Y-58449500D01*
X142674321Y-58453209D01*
X142674320Y-58453210D01*
X142595124Y-58482034D01*
X142595121Y-58482035D01*
X142584932Y-58485744D01*
X142576628Y-58492711D01*
X142576624Y-58492714D01*
X142512061Y-58546889D01*
X142512058Y-58546892D01*
X142503752Y-58553862D01*
X142498329Y-58563253D01*
X142498327Y-58563257D01*
X142456190Y-58636241D01*
X142456188Y-58636244D01*
X142450766Y-58645637D01*
X142448883Y-58656315D01*
X142448881Y-58656321D01*
X142434248Y-58739315D01*
X142432364Y-58750000D01*
X141783549Y-58750000D01*
X143246731Y-57286819D01*
X143286959Y-57259939D01*
X143334412Y-57250500D01*
X145876318Y-57250500D01*
X145918728Y-57257978D01*
X145956023Y-57279510D01*
X145997432Y-57314256D01*
X146007620Y-57317964D01*
X146007622Y-57317965D01*
X146010227Y-57318913D01*
X146097014Y-57350500D01*
X146115589Y-57350500D01*
X146163042Y-57359939D01*
X146203270Y-57386819D01*
X148563181Y-59746730D01*
X148590061Y-59786958D01*
X148599500Y-59834411D01*
X148599500Y-67365588D01*
X148590061Y-67413041D01*
X148563181Y-67453269D01*
X147903270Y-68113181D01*
X147863042Y-68140061D01*
X147815589Y-68149500D01*
X147797014Y-68149500D01*
X147786821Y-68153209D01*
X147786820Y-68153210D01*
X147707624Y-68182034D01*
X147707621Y-68182035D01*
X147697432Y-68185744D01*
X147689128Y-68192711D01*
X147689124Y-68192714D01*
X147624561Y-68246889D01*
X147624558Y-68246892D01*
X147616252Y-68253862D01*
X147610829Y-68263253D01*
X147610827Y-68263257D01*
X147568690Y-68336241D01*
X147568688Y-68336244D01*
X147563266Y-68345637D01*
X147561383Y-68356315D01*
X147561381Y-68356321D01*
X147546748Y-68439315D01*
X147544864Y-68450000D01*
X147546748Y-68460685D01*
X147561381Y-68543678D01*
X147561382Y-68543683D01*
X147563266Y-68554363D01*
X147616252Y-68646138D01*
X147624561Y-68653110D01*
X147658467Y-68681561D01*
X147697432Y-68714256D01*
X147797014Y-68750500D01*
X147892139Y-68750500D01*
X147902986Y-68750500D01*
X148002568Y-68714256D01*
X148083748Y-68646138D01*
X148136734Y-68554363D01*
X148152968Y-68462290D01*
X148165095Y-68426568D01*
X148187400Y-68396147D01*
X148915967Y-67667581D01*
X148918130Y-67665648D01*
X148928224Y-67660788D01*
X148945395Y-67639254D01*
X148951202Y-67632758D01*
X148952818Y-67630730D01*
X148957749Y-67625801D01*
X148961459Y-67619896D01*
X148963075Y-67617870D01*
X148968123Y-67610757D01*
X148970892Y-67607285D01*
X148985290Y-67589231D01*
X148987892Y-67577828D01*
X148994116Y-67567924D01*
X148997198Y-67540559D01*
X148998658Y-67531964D01*
X148998948Y-67529384D01*
X149000500Y-67522590D01*
X149000500Y-67515624D01*
X149000790Y-67513052D01*
X149001279Y-67504341D01*
X149002798Y-67490854D01*
X149004362Y-67476974D01*
X149000663Y-67466404D01*
X149000500Y-67463495D01*
X149000500Y-64600000D01*
X149444864Y-64600000D01*
X149446748Y-64610685D01*
X149461381Y-64693678D01*
X149461382Y-64693683D01*
X149463266Y-64704363D01*
X149468689Y-64713757D01*
X149468690Y-64713758D01*
X149478952Y-64731533D01*
X149516252Y-64796138D01*
X149597432Y-64864256D01*
X149697014Y-64900500D01*
X149792139Y-64900500D01*
X149802986Y-64900500D01*
X149902568Y-64864256D01*
X149983748Y-64796138D01*
X150036734Y-64704363D01*
X150055136Y-64600000D01*
X150036734Y-64495637D01*
X149983748Y-64403862D01*
X149975438Y-64396889D01*
X149910875Y-64342714D01*
X149910873Y-64342713D01*
X149902568Y-64335744D01*
X149802986Y-64299500D01*
X149697014Y-64299500D01*
X149686821Y-64303209D01*
X149686820Y-64303210D01*
X149607624Y-64332034D01*
X149607621Y-64332035D01*
X149597432Y-64335744D01*
X149589128Y-64342711D01*
X149589124Y-64342714D01*
X149524561Y-64396889D01*
X149524558Y-64396892D01*
X149516252Y-64403862D01*
X149510829Y-64413253D01*
X149510827Y-64413257D01*
X149468690Y-64486241D01*
X149468688Y-64486244D01*
X149463266Y-64495637D01*
X149461383Y-64506315D01*
X149461381Y-64506321D01*
X149446748Y-64589315D01*
X149444864Y-64600000D01*
X149000500Y-64600000D01*
X149000500Y-63500000D01*
X149494864Y-63500000D01*
X149496748Y-63510685D01*
X149511381Y-63593678D01*
X149511382Y-63593683D01*
X149513266Y-63604363D01*
X149566252Y-63696138D01*
X149647432Y-63764256D01*
X149747014Y-63800500D01*
X149842139Y-63800500D01*
X149852986Y-63800500D01*
X149952568Y-63764256D01*
X150033748Y-63696138D01*
X150086734Y-63604363D01*
X150105136Y-63500000D01*
X150086734Y-63395637D01*
X150033748Y-63303862D01*
X149969558Y-63250000D01*
X149960875Y-63242714D01*
X149960873Y-63242713D01*
X149952568Y-63235744D01*
X149852986Y-63199500D01*
X149747014Y-63199500D01*
X149736821Y-63203209D01*
X149736820Y-63203210D01*
X149657624Y-63232034D01*
X149657621Y-63232035D01*
X149647432Y-63235744D01*
X149639128Y-63242711D01*
X149639124Y-63242714D01*
X149574561Y-63296889D01*
X149574558Y-63296892D01*
X149566252Y-63303862D01*
X149560829Y-63313253D01*
X149560827Y-63313257D01*
X149518690Y-63386241D01*
X149518688Y-63386244D01*
X149513266Y-63395637D01*
X149511383Y-63406315D01*
X149511381Y-63406321D01*
X149496748Y-63489315D01*
X149494864Y-63500000D01*
X149000500Y-63500000D01*
X149000500Y-59736505D01*
X149000663Y-59733595D01*
X149004362Y-59723026D01*
X149001767Y-59700000D01*
X149694864Y-59700000D01*
X149696748Y-59710685D01*
X149711381Y-59793678D01*
X149711382Y-59793683D01*
X149713266Y-59804363D01*
X149718689Y-59813757D01*
X149718690Y-59813758D01*
X149726139Y-59826661D01*
X149766252Y-59896138D01*
X149774561Y-59903110D01*
X149836646Y-59955206D01*
X149847432Y-59964256D01*
X149947014Y-60000500D01*
X150042139Y-60000500D01*
X150052986Y-60000500D01*
X150152568Y-59964256D01*
X150233748Y-59896138D01*
X150286734Y-59804363D01*
X150301076Y-59723026D01*
X150303252Y-59710685D01*
X150305136Y-59700000D01*
X150295550Y-59645637D01*
X150288618Y-59606321D01*
X150288617Y-59606320D01*
X150286734Y-59595637D01*
X150233748Y-59503862D01*
X150212156Y-59485744D01*
X150160875Y-59442714D01*
X150160873Y-59442713D01*
X150152568Y-59435744D01*
X150052986Y-59399500D01*
X149947014Y-59399500D01*
X149936821Y-59403209D01*
X149936820Y-59403210D01*
X149857624Y-59432034D01*
X149857621Y-59432035D01*
X149847432Y-59435744D01*
X149839128Y-59442711D01*
X149839124Y-59442714D01*
X149774561Y-59496889D01*
X149774558Y-59496892D01*
X149766252Y-59503862D01*
X149760829Y-59513253D01*
X149760827Y-59513257D01*
X149718690Y-59586241D01*
X149718688Y-59586244D01*
X149713266Y-59595637D01*
X149711383Y-59606315D01*
X149711381Y-59606321D01*
X149698847Y-59677410D01*
X149694864Y-59700000D01*
X149001767Y-59700000D01*
X149001278Y-59695658D01*
X149000790Y-59686952D01*
X149000500Y-59684379D01*
X149000500Y-59677410D01*
X148998948Y-59670615D01*
X148998658Y-59668034D01*
X148997198Y-59659440D01*
X148996485Y-59653110D01*
X148994116Y-59632076D01*
X148987892Y-59622171D01*
X148985290Y-59610769D01*
X148968110Y-59589227D01*
X148963070Y-59582122D01*
X148961451Y-59580092D01*
X148957748Y-59574199D01*
X148952827Y-59569278D01*
X148951205Y-59567244D01*
X148945396Y-59560745D01*
X148936934Y-59550134D01*
X148928224Y-59539212D01*
X148918132Y-59534351D01*
X148915956Y-59532407D01*
X146487403Y-57103854D01*
X146465095Y-57073430D01*
X146452968Y-57037705D01*
X146438618Y-56956321D01*
X146438617Y-56956320D01*
X146436734Y-56945637D01*
X146383748Y-56853862D01*
X146302568Y-56785744D01*
X146202986Y-56749500D01*
X146097014Y-56749500D01*
X146086821Y-56753209D01*
X146086820Y-56753210D01*
X146007622Y-56782034D01*
X146007616Y-56782037D01*
X145997432Y-56785744D01*
X145989124Y-56792714D01*
X145989124Y-56792715D01*
X145956023Y-56820490D01*
X145918728Y-56842022D01*
X145876318Y-56849500D01*
X143483412Y-56849500D01*
X143427117Y-56835985D01*
X143383094Y-56798385D01*
X143360939Y-56744898D01*
X143365481Y-56687182D01*
X143395731Y-56637819D01*
X143546731Y-56486819D01*
X143586959Y-56459939D01*
X143634412Y-56450500D01*
X147365589Y-56450500D01*
X147413042Y-56459939D01*
X147453270Y-56486819D01*
X148412596Y-57446145D01*
X148434904Y-57476569D01*
X148447031Y-57512293D01*
X148448875Y-57522748D01*
X148463266Y-57604363D01*
X148468689Y-57613757D01*
X148468690Y-57613758D01*
X148505932Y-57678264D01*
X148516252Y-57696138D01*
X148597432Y-57764256D01*
X148697014Y-57800500D01*
X148792139Y-57800500D01*
X148802986Y-57800500D01*
X148858701Y-57780221D01*
X148927945Y-57775683D01*
X148988788Y-57809062D01*
X149022168Y-57869904D01*
X149017710Y-57937938D01*
X149013266Y-57945637D01*
X149011382Y-57956316D01*
X149011381Y-57956322D01*
X148996748Y-58039315D01*
X148994864Y-58050000D01*
X148996748Y-58060685D01*
X149011381Y-58143678D01*
X149011382Y-58143683D01*
X149013266Y-58154363D01*
X149018689Y-58163757D01*
X149018690Y-58163758D01*
X149030401Y-58184043D01*
X149066252Y-58246138D01*
X149147432Y-58314256D01*
X149247014Y-58350500D01*
X149342139Y-58350500D01*
X149352986Y-58350500D01*
X149452568Y-58314256D01*
X149533748Y-58246138D01*
X149586734Y-58154363D01*
X149605136Y-58050000D01*
X149586734Y-57945637D01*
X149533748Y-57853862D01*
X149492363Y-57819136D01*
X149460875Y-57792714D01*
X149460873Y-57792713D01*
X149452568Y-57785744D01*
X149352986Y-57749500D01*
X149247014Y-57749500D01*
X149236823Y-57753209D01*
X149236818Y-57753210D01*
X149191300Y-57769777D01*
X149122050Y-57774315D01*
X149061208Y-57740935D01*
X149027830Y-57680091D01*
X149032290Y-57612060D01*
X149036734Y-57604363D01*
X149055136Y-57500000D01*
X149036734Y-57395637D01*
X149034483Y-57391738D01*
X149029259Y-57332042D01*
X149035913Y-57317771D01*
X149027091Y-57318543D01*
X148968918Y-57291417D01*
X148910878Y-57242716D01*
X148910874Y-57242714D01*
X148902568Y-57235744D01*
X148802986Y-57199500D01*
X148792139Y-57199500D01*
X148784411Y-57199500D01*
X148736958Y-57190061D01*
X148696730Y-57163181D01*
X147945730Y-56412181D01*
X147915480Y-56362818D01*
X147910938Y-56305102D01*
X147933093Y-56251615D01*
X147977116Y-56214015D01*
X148033411Y-56200500D01*
X148265589Y-56200500D01*
X148313042Y-56209939D01*
X148353270Y-56236819D01*
X149112597Y-56996147D01*
X149134905Y-57026571D01*
X149147031Y-57062294D01*
X149163266Y-57154363D01*
X149165516Y-57158260D01*
X149170739Y-57217959D01*
X149164085Y-57232227D01*
X149172908Y-57231456D01*
X149231081Y-57258582D01*
X149289121Y-57307283D01*
X149289123Y-57307284D01*
X149297432Y-57314256D01*
X149397014Y-57350500D01*
X149492139Y-57350500D01*
X149502986Y-57350500D01*
X149602568Y-57314256D01*
X149683748Y-57246138D01*
X149736734Y-57154363D01*
X149755136Y-57050000D01*
X149736734Y-56945637D01*
X149683748Y-56853862D01*
X149602568Y-56785744D01*
X149502986Y-56749500D01*
X149492139Y-56749500D01*
X149484412Y-56749500D01*
X149436959Y-56740061D01*
X149396731Y-56713181D01*
X148567591Y-55884042D01*
X148565647Y-55881867D01*
X148560788Y-55871776D01*
X148539252Y-55854601D01*
X148532755Y-55848794D01*
X148530720Y-55847171D01*
X148525801Y-55842252D01*
X148519904Y-55838546D01*
X148517880Y-55836932D01*
X148510772Y-55831888D01*
X148500153Y-55823419D01*
X148500150Y-55823417D01*
X148489231Y-55814710D01*
X148477828Y-55812107D01*
X148467924Y-55805884D01*
X148454038Y-55804319D01*
X148454037Y-55804319D01*
X148440554Y-55802800D01*
X148431957Y-55801340D01*
X148429381Y-55801049D01*
X148422590Y-55799500D01*
X148415625Y-55799500D01*
X148413042Y-55799209D01*
X148404341Y-55798721D01*
X148390854Y-55797201D01*
X148390851Y-55797201D01*
X148376974Y-55795638D01*
X148366404Y-55799336D01*
X148363495Y-55799500D01*
X146658920Y-55799500D01*
X146606515Y-55787882D01*
X146563931Y-55755206D01*
X146539145Y-55707594D01*
X146536804Y-55653968D01*
X146553252Y-55560685D01*
X146555136Y-55550000D01*
X146536734Y-55445637D01*
X146483748Y-55353862D01*
X146402568Y-55285744D01*
X146302986Y-55249500D01*
X146197014Y-55249500D01*
X146186821Y-55253209D01*
X146186820Y-55253210D01*
X146107622Y-55282034D01*
X146107616Y-55282037D01*
X146097432Y-55285744D01*
X146089124Y-55292714D01*
X146089124Y-55292715D01*
X146056023Y-55320490D01*
X146018728Y-55342022D01*
X145976318Y-55349500D01*
X143433411Y-55349500D01*
X143377116Y-55335985D01*
X143333093Y-55298385D01*
X143310938Y-55244898D01*
X143315480Y-55187182D01*
X143345730Y-55137819D01*
X143583549Y-54900000D01*
X148994864Y-54900000D01*
X148996748Y-54910685D01*
X149011381Y-54993678D01*
X149011382Y-54993683D01*
X149013266Y-55004363D01*
X149066252Y-55096138D01*
X149074561Y-55103110D01*
X149115925Y-55137819D01*
X149147432Y-55164256D01*
X149247014Y-55200500D01*
X149342139Y-55200500D01*
X149352986Y-55200500D01*
X149452568Y-55164256D01*
X149533748Y-55096138D01*
X149586734Y-55004363D01*
X149605136Y-54900000D01*
X149586734Y-54795637D01*
X149533748Y-54703862D01*
X149452568Y-54635744D01*
X149352986Y-54599500D01*
X149247014Y-54599500D01*
X149236821Y-54603209D01*
X149236820Y-54603210D01*
X149157624Y-54632034D01*
X149157621Y-54632035D01*
X149147432Y-54635744D01*
X149139128Y-54642711D01*
X149139124Y-54642714D01*
X149074561Y-54696889D01*
X149074558Y-54696892D01*
X149066252Y-54703862D01*
X149060829Y-54713253D01*
X149060827Y-54713257D01*
X149018690Y-54786241D01*
X149018688Y-54786244D01*
X149013266Y-54795637D01*
X149011383Y-54806315D01*
X149011381Y-54806321D01*
X148996748Y-54889315D01*
X148994864Y-54900000D01*
X143583549Y-54900000D01*
X143880339Y-54603210D01*
X143983549Y-54500000D01*
X144944864Y-54500000D01*
X144946748Y-54510685D01*
X144961381Y-54593678D01*
X144961382Y-54593683D01*
X144963266Y-54604363D01*
X145016252Y-54696138D01*
X145097432Y-54764256D01*
X145197014Y-54800500D01*
X145292139Y-54800500D01*
X145302986Y-54800500D01*
X145402568Y-54764256D01*
X145483748Y-54696138D01*
X145536734Y-54604363D01*
X145555136Y-54500000D01*
X145536734Y-54395637D01*
X145483748Y-54303862D01*
X145402568Y-54235744D01*
X145302986Y-54199500D01*
X145197014Y-54199500D01*
X145186821Y-54203209D01*
X145186820Y-54203210D01*
X145107624Y-54232034D01*
X145107621Y-54232035D01*
X145097432Y-54235744D01*
X145089128Y-54242711D01*
X145089124Y-54242714D01*
X145024561Y-54296889D01*
X145024558Y-54296892D01*
X145016252Y-54303862D01*
X145010829Y-54313253D01*
X145010827Y-54313257D01*
X144968690Y-54386241D01*
X144968688Y-54386244D01*
X144963266Y-54395637D01*
X144961383Y-54406315D01*
X144961381Y-54406321D01*
X144946748Y-54489315D01*
X144944864Y-54500000D01*
X143983549Y-54500000D01*
X144415972Y-54067576D01*
X144418130Y-54065647D01*
X144428224Y-54060788D01*
X144445395Y-54039254D01*
X144451202Y-54032758D01*
X144452818Y-54030730D01*
X144457749Y-54025801D01*
X144461459Y-54019896D01*
X144463075Y-54017870D01*
X144468123Y-54010757D01*
X144476577Y-54000156D01*
X144476576Y-54000156D01*
X144485290Y-53989231D01*
X144487892Y-53977828D01*
X144494116Y-53967924D01*
X144497200Y-53940546D01*
X144498657Y-53931972D01*
X144498948Y-53929388D01*
X144500500Y-53922590D01*
X144500500Y-53915616D01*
X144500790Y-53913042D01*
X144501280Y-53904338D01*
X144501294Y-53904212D01*
X144504363Y-53876974D01*
X144500663Y-53866401D01*
X144500500Y-53863492D01*
X144500500Y-53627963D01*
X144507978Y-53585553D01*
X144527901Y-53551043D01*
X144533748Y-53546138D01*
X144586734Y-53454363D01*
X144605136Y-53350000D01*
X144586734Y-53245637D01*
X144533748Y-53153862D01*
X144452568Y-53085744D01*
X144352986Y-53049500D01*
X144247014Y-53049500D01*
X144236821Y-53053209D01*
X144236820Y-53053210D01*
X144157624Y-53082034D01*
X144157621Y-53082035D01*
X144147432Y-53085744D01*
X144139128Y-53092711D01*
X144139124Y-53092714D01*
X144074561Y-53146889D01*
X144074558Y-53146892D01*
X144066252Y-53153862D01*
X144060829Y-53163253D01*
X144060827Y-53163257D01*
X144018690Y-53236241D01*
X144018688Y-53236244D01*
X144013266Y-53245637D01*
X144011383Y-53256315D01*
X144011381Y-53256321D01*
X144004231Y-53296876D01*
X143994864Y-53350000D01*
X143996748Y-53360685D01*
X144011381Y-53443678D01*
X144011382Y-53443683D01*
X144013266Y-53454363D01*
X144018689Y-53463757D01*
X144018690Y-53463758D01*
X144055231Y-53527050D01*
X144066252Y-53546138D01*
X144072098Y-53551043D01*
X144092022Y-53585553D01*
X144099500Y-53627963D01*
X144099500Y-53765588D01*
X144090061Y-53813041D01*
X144063181Y-53853269D01*
X140299432Y-57617018D01*
X140243697Y-57649151D01*
X140179362Y-57649032D01*
X140123746Y-57616694D01*
X140091820Y-57560840D01*
X140092162Y-57498908D01*
X140095275Y-57492340D01*
X140097593Y-57467576D01*
X140099433Y-57454960D01*
X140105392Y-57425008D01*
X140103009Y-57413028D01*
X140103009Y-57412527D01*
X140102853Y-57411410D01*
X140103511Y-57404385D01*
X140095151Y-57372406D01*
X140093502Y-57365234D01*
X140088333Y-57339249D01*
X140085950Y-57327268D01*
X140081978Y-57321323D01*
X140081168Y-57318913D01*
X140081071Y-57318543D01*
X140017786Y-57076414D01*
X139836672Y-56515278D01*
X139624154Y-55965268D01*
X139475463Y-55636928D01*
X139381638Y-55429744D01*
X139381635Y-55429739D01*
X139380911Y-55428139D01*
X139365678Y-55399002D01*
X139108529Y-54907155D01*
X139108526Y-54907150D01*
X139107719Y-54905606D01*
X138805451Y-54399336D01*
X138475071Y-53910947D01*
X138296536Y-53676712D01*
X138272685Y-53620958D01*
X138278127Y-53560557D01*
X138311561Y-53509961D01*
X138364990Y-53481272D01*
X154480580Y-49439525D01*
X154538543Y-49438958D01*
X154590434Y-49464800D01*
G37*
G04 #@! TD.AperFunction*
M02*
