G04 #@! TF.GenerationSoftware,KiCad,Pcbnew,(7.0.0-0)*
G04 #@! TF.CreationDate,2024-01-01T11:18:48+08:00*
G04 #@! TF.ProjectId,SWDProgrammer,53574450-726f-4677-9261-6d6d65722e6b,rev?*
G04 #@! TF.SameCoordinates,Original*
G04 #@! TF.FileFunction,Copper,L2,Inr*
G04 #@! TF.FilePolarity,Positive*
%FSLAX46Y46*%
G04 Gerber Fmt 4.6, Leading zero omitted, Abs format (unit mm)*
G04 Created by KiCad (PCBNEW (7.0.0-0)) date 2024-01-01 11:18:48*
%MOMM*%
%LPD*%
G01*
G04 APERTURE LIST*
G04 Aperture macros list*
%AMHorizOval*
0 Thick line with rounded ends*
0 $1 width*
0 $2 $3 position (X,Y) of the first rounded end (center of the circle)*
0 $4 $5 position (X,Y) of the second rounded end (center of the circle)*
0 Add line between two ends*
20,1,$1,$2,$3,$4,$5,0*
0 Add two circle primitives to create the rounded ends*
1,1,$1,$2,$3*
1,1,$1,$4,$5*%
G04 Aperture macros list end*
G04 #@! TA.AperFunction,ComponentPad*
%ADD10HorizOval,1.000000X-0.508829X0.317952X0.508829X-0.317952X0*%
G04 #@! TD*
G04 #@! TA.AperFunction,ComponentPad*
%ADD11HorizOval,1.000000X-0.339219X0.211968X0.339219X-0.211968X0*%
G04 #@! TD*
G04 #@! TA.AperFunction,ComponentPad*
%ADD12HorizOval,1.000000X0.594161X0.083504X-0.594161X-0.083504X0*%
G04 #@! TD*
G04 #@! TA.AperFunction,ComponentPad*
%ADD13HorizOval,1.000000X0.396107X0.055669X-0.396107X-0.055669X0*%
G04 #@! TD*
G04 #@! TA.AperFunction,ViaPad*
%ADD14C,0.300000*%
G04 #@! TD*
G04 #@! TA.AperFunction,Conductor*
%ADD15C,0.100000*%
G04 #@! TD*
G04 APERTURE END LIST*
D10*
X148316797Y-78015415D03*
X154225715Y-68559170D03*
D11*
X151003291Y-66545222D03*
X145094215Y-76001721D03*
D12*
X155581179Y-62080248D03*
X154029316Y-51038164D03*
D13*
X150266255Y-51566725D03*
X151818161Y-62609105D03*
D14*
X145250000Y-54500000D03*
X138000000Y-69250000D03*
X145150000Y-71550000D03*
X143300000Y-58700000D03*
X144150000Y-70900000D03*
X140250000Y-67000000D03*
X147750000Y-66450000D03*
X141050000Y-70550000D03*
X149800000Y-61600000D03*
X143750000Y-58900000D03*
X138900000Y-60600000D03*
X136950000Y-68450000D03*
X142737500Y-58750000D03*
X138300000Y-67350000D03*
X146150000Y-57050000D03*
X140200000Y-61000000D03*
X147850000Y-68450000D03*
X143800000Y-73200000D03*
X146550000Y-70450000D03*
X146000000Y-69600000D03*
X147100000Y-69700000D03*
X149750000Y-64600000D03*
X149800000Y-63500000D03*
X150000000Y-59700000D03*
X149300000Y-54900000D03*
X135850000Y-59900000D03*
X146250000Y-55550000D03*
X139850000Y-63400000D03*
X147750000Y-63500000D03*
X141350000Y-61900000D03*
X141300000Y-63250000D03*
X149450000Y-57050000D03*
X136350000Y-61100000D03*
X149300000Y-58050000D03*
X135700000Y-61400000D03*
X148750000Y-57500000D03*
X133650000Y-59450000D03*
X145450000Y-62850000D03*
X134000000Y-59750000D03*
X143300000Y-66900000D03*
X133700000Y-60200000D03*
X144300000Y-53350000D03*
D15*
X146550000Y-70450000D02*
X146550000Y-70150000D01*
X146550000Y-70250000D02*
X147100000Y-69700000D01*
X146550000Y-70150000D02*
X146000000Y-69600000D01*
X146550000Y-70450000D02*
X146550000Y-70250000D01*
X146850000Y-64400000D02*
X140850000Y-64400000D01*
X140850000Y-64400000D02*
X139850000Y-63400000D01*
X147750000Y-63500000D02*
X146850000Y-64400000D01*
X141050000Y-64050000D02*
X144250000Y-64050000D01*
X133800000Y-59300000D02*
X134450000Y-59300000D01*
X134450000Y-59300000D02*
X135400000Y-60250000D01*
X133650000Y-59450000D02*
X133800000Y-59300000D01*
X135400000Y-60250000D02*
X137250000Y-60250000D01*
X144250000Y-64050000D02*
X145450000Y-62850000D01*
X137250000Y-60250000D02*
X141050000Y-64050000D01*
X138100000Y-63450000D02*
X138100000Y-61700000D01*
X137050000Y-60650000D02*
X134900000Y-60650000D01*
X134900000Y-60650000D02*
X134000000Y-59750000D01*
X138100000Y-63450000D02*
X141550000Y-66900000D01*
X141550000Y-66900000D02*
X143300000Y-66900000D01*
X138100000Y-61700000D02*
X137050000Y-60650000D01*
G04 #@! TA.AperFunction,Conductor*
G36*
X154587636Y-49444201D02*
G01*
X154608209Y-49472014D01*
X154784228Y-49887248D01*
X154784987Y-49889107D01*
X154922670Y-50240112D01*
X154926259Y-50282060D01*
X154906387Y-50319177D01*
X154869487Y-50339448D01*
X154827502Y-50336311D01*
X154782006Y-50319028D01*
X154782001Y-50319027D01*
X154777653Y-50317375D01*
X154773031Y-50316856D01*
X154773025Y-50316855D01*
X154618950Y-50299574D01*
X154614323Y-50299055D01*
X154609720Y-50299701D01*
X154609712Y-50299702D01*
X153306399Y-50482871D01*
X153306391Y-50482872D01*
X153304097Y-50483195D01*
X153301860Y-50483802D01*
X153301849Y-50483805D01*
X153189790Y-50514251D01*
X153189782Y-50514254D01*
X153185300Y-50515472D01*
X153181260Y-50517766D01*
X153181255Y-50517769D01*
X153046439Y-50594355D01*
X153046435Y-50594357D01*
X153042395Y-50596653D01*
X153039052Y-50599881D01*
X153039047Y-50599885D01*
X152927516Y-50707589D01*
X152927512Y-50707593D01*
X152924167Y-50710824D01*
X152921730Y-50714785D01*
X152921727Y-50714789D01*
X152840488Y-50846840D01*
X152840484Y-50846847D01*
X152838048Y-50850808D01*
X152836672Y-50855251D01*
X152836670Y-50855257D01*
X152790823Y-51003366D01*
X152790822Y-51003370D01*
X152789447Y-51007813D01*
X152789219Y-51012455D01*
X152789219Y-51012461D01*
X152782567Y-51148491D01*
X152781419Y-51171971D01*
X152782353Y-51176524D01*
X152782354Y-51176528D01*
X152813530Y-51328408D01*
X152813531Y-51328413D01*
X152814467Y-51332969D01*
X152816506Y-51337150D01*
X152816508Y-51337155D01*
X152863380Y-51433257D01*
X152886515Y-51480690D01*
X152889530Y-51484232D01*
X152889531Y-51484234D01*
X152952788Y-51558560D01*
X152993037Y-51605852D01*
X153127338Y-51700591D01*
X153280981Y-51758955D01*
X153444311Y-51777275D01*
X154754537Y-51593135D01*
X154873334Y-51560858D01*
X155016239Y-51479677D01*
X155134466Y-51365506D01*
X155181989Y-51288257D01*
X155212720Y-51260453D01*
X155253581Y-51253530D01*
X155291756Y-51269662D01*
X155315271Y-51303788D01*
X155403292Y-51569812D01*
X155404453Y-51612446D01*
X155381890Y-51648640D01*
X155343099Y-51666370D01*
X150879218Y-52278949D01*
X150835897Y-52271740D01*
X150804291Y-52241250D01*
X150795530Y-52198216D01*
X150812700Y-52157796D01*
X150849755Y-52134225D01*
X150912218Y-52117254D01*
X151055124Y-52036073D01*
X151173351Y-51921903D01*
X151259470Y-51781918D01*
X151308071Y-51624913D01*
X151316100Y-51460755D01*
X151283052Y-51299758D01*
X151211004Y-51152036D01*
X151104482Y-51026874D01*
X151084050Y-51012461D01*
X150973986Y-50934819D01*
X150973985Y-50934818D01*
X150970181Y-50932135D01*
X150965830Y-50930482D01*
X150965826Y-50930480D01*
X150820891Y-50875424D01*
X150820886Y-50875423D01*
X150816538Y-50873771D01*
X150811916Y-50873252D01*
X150811910Y-50873251D01*
X150657835Y-50855970D01*
X150653208Y-50855451D01*
X150648605Y-50856097D01*
X150648597Y-50856098D01*
X149741393Y-50983597D01*
X149741385Y-50983598D01*
X149739091Y-50983921D01*
X149736854Y-50984528D01*
X149736843Y-50984531D01*
X149624783Y-51014977D01*
X149624775Y-51014980D01*
X149620293Y-51016198D01*
X149616253Y-51018492D01*
X149616248Y-51018495D01*
X149481432Y-51095081D01*
X149481428Y-51095083D01*
X149477388Y-51097379D01*
X149474045Y-51100607D01*
X149474040Y-51100611D01*
X149362510Y-51208314D01*
X149362506Y-51208318D01*
X149359161Y-51211549D01*
X149356724Y-51215510D01*
X149356721Y-51215514D01*
X149275479Y-51347571D01*
X149275476Y-51347577D01*
X149273042Y-51351534D01*
X149271667Y-51355975D01*
X149271665Y-51355980D01*
X149225816Y-51504091D01*
X149225814Y-51504097D01*
X149224440Y-51508539D01*
X149224213Y-51513178D01*
X149224212Y-51513185D01*
X149218531Y-51629359D01*
X149216412Y-51672697D01*
X149217346Y-51677250D01*
X149217347Y-51677254D01*
X149248523Y-51829133D01*
X149248524Y-51829138D01*
X149249460Y-51833694D01*
X149251499Y-51837875D01*
X149251501Y-51837880D01*
X149290791Y-51918436D01*
X149321508Y-51981416D01*
X149428029Y-52106578D01*
X149562330Y-52201317D01*
X149715973Y-52259681D01*
X149844018Y-52274043D01*
X149888078Y-52295238D01*
X149909303Y-52339282D01*
X149898429Y-52386950D01*
X149860203Y-52417432D01*
X149830831Y-52427706D01*
X149830571Y-52427796D01*
X149790568Y-52441621D01*
X149790561Y-52441624D01*
X149783883Y-52443933D01*
X149783514Y-52444259D01*
X149783050Y-52444422D01*
X149777800Y-52449111D01*
X149777799Y-52449113D01*
X149746293Y-52477262D01*
X149746087Y-52477445D01*
X149714598Y-52505367D01*
X149714595Y-52505370D01*
X149709318Y-52510050D01*
X149709102Y-52510492D01*
X149708736Y-52510820D01*
X149687330Y-52555260D01*
X149665733Y-52599668D01*
X149665703Y-52600159D01*
X149665490Y-52600603D01*
X149665092Y-52607672D01*
X149665092Y-52607673D01*
X149662731Y-52649632D01*
X149662715Y-52649909D01*
X149660195Y-52691866D01*
X149660195Y-52691870D01*
X149659759Y-52699144D01*
X149665798Y-52716618D01*
X149669130Y-52730449D01*
X150924435Y-61627963D01*
X150925046Y-61642430D01*
X150924452Y-61653049D01*
X150924452Y-61653052D01*
X150924046Y-61660327D01*
X150926453Y-61667203D01*
X150926454Y-61667205D01*
X150933998Y-61688748D01*
X150940334Y-61706843D01*
X150956940Y-61754312D01*
X150956967Y-61754342D01*
X150956981Y-61754382D01*
X150990443Y-61791809D01*
X151023338Y-61828626D01*
X151023375Y-61828643D01*
X151023403Y-61828675D01*
X151030151Y-61831923D01*
X151030153Y-61831924D01*
X151069126Y-61850680D01*
X151069127Y-61850681D01*
X151113121Y-61871872D01*
X151113161Y-61871874D01*
X151113200Y-61871893D01*
X151164279Y-61874749D01*
X151212619Y-61877469D01*
X151229541Y-61871548D01*
X151243597Y-61868131D01*
X156655064Y-61102907D01*
X156697487Y-61109485D01*
X156729120Y-61138512D01*
X156739313Y-61180217D01*
X156724594Y-61449493D01*
X156712307Y-61486455D01*
X156682952Y-61512058D01*
X156644663Y-61519207D01*
X156608049Y-61505923D01*
X156483159Y-61417823D01*
X156478808Y-61416170D01*
X156478804Y-61416168D01*
X156333869Y-61361112D01*
X156333864Y-61361111D01*
X156329516Y-61359459D01*
X156324894Y-61358940D01*
X156324888Y-61358939D01*
X156170813Y-61341658D01*
X156166186Y-61341139D01*
X156161583Y-61341785D01*
X156161575Y-61341786D01*
X154858262Y-61524955D01*
X154858254Y-61524956D01*
X154855960Y-61525279D01*
X154853723Y-61525886D01*
X154853712Y-61525889D01*
X154741653Y-61556335D01*
X154741645Y-61556338D01*
X154737163Y-61557556D01*
X154733123Y-61559850D01*
X154733118Y-61559853D01*
X154598302Y-61636439D01*
X154598298Y-61636441D01*
X154594258Y-61638737D01*
X154590915Y-61641965D01*
X154590910Y-61641969D01*
X154479379Y-61749673D01*
X154479375Y-61749677D01*
X154476030Y-61752908D01*
X154473593Y-61756869D01*
X154473590Y-61756873D01*
X154392351Y-61888924D01*
X154392347Y-61888931D01*
X154389911Y-61892892D01*
X154388535Y-61897335D01*
X154388533Y-61897341D01*
X154342686Y-62045450D01*
X154342685Y-62045454D01*
X154341310Y-62049897D01*
X154341082Y-62054539D01*
X154341082Y-62054545D01*
X154333945Y-62200500D01*
X154333282Y-62214055D01*
X154334216Y-62218608D01*
X154334217Y-62218612D01*
X154365393Y-62370492D01*
X154365394Y-62370497D01*
X154366330Y-62375053D01*
X154368369Y-62379234D01*
X154368371Y-62379239D01*
X154378741Y-62400500D01*
X154438378Y-62522774D01*
X154441393Y-62526316D01*
X154441394Y-62526318D01*
X154484832Y-62577357D01*
X154544900Y-62647936D01*
X154679201Y-62742675D01*
X154832844Y-62801039D01*
X154996174Y-62819359D01*
X156306400Y-62635219D01*
X156425197Y-62602942D01*
X156429242Y-62600643D01*
X156429247Y-62600642D01*
X156526307Y-62545504D01*
X156564907Y-62535874D01*
X156602915Y-62547624D01*
X156629346Y-62577357D01*
X156636561Y-62616480D01*
X156614018Y-62866929D01*
X156613739Y-62869517D01*
X156496759Y-63800919D01*
X156496390Y-63803495D01*
X156346726Y-64730250D01*
X156346266Y-64732811D01*
X156164112Y-65653712D01*
X156163562Y-65656256D01*
X155949141Y-66570185D01*
X155948502Y-66572707D01*
X155702083Y-67478513D01*
X155701356Y-67481012D01*
X155423231Y-68377621D01*
X155422416Y-68380093D01*
X155391362Y-68469024D01*
X155368730Y-68501595D01*
X155332531Y-68517801D01*
X155293162Y-68512987D01*
X155263063Y-68489420D01*
X155262290Y-68488036D01*
X155148948Y-68369015D01*
X155111535Y-68345637D01*
X154028858Y-67669105D01*
X154028859Y-67669105D01*
X154026893Y-67667877D01*
X154024790Y-67666905D01*
X154024784Y-67666902D01*
X153919370Y-67618194D01*
X153919368Y-67618193D01*
X153915143Y-67616241D01*
X153910563Y-67615400D01*
X153910562Y-67615400D01*
X153758064Y-67587411D01*
X153758057Y-67587410D01*
X153753488Y-67586572D01*
X153748851Y-67586896D01*
X153748848Y-67586896D01*
X153594179Y-67597711D01*
X153594177Y-67597711D01*
X153589534Y-67598036D01*
X153585116Y-67599505D01*
X153585114Y-67599506D01*
X153437999Y-67648444D01*
X153437994Y-67648446D01*
X153433582Y-67649914D01*
X153429673Y-67652432D01*
X153429669Y-67652435D01*
X153299343Y-67736425D01*
X153299338Y-67736428D01*
X153295431Y-67738947D01*
X153292270Y-67742359D01*
X153292268Y-67742362D01*
X153186923Y-67856123D01*
X153186918Y-67856129D01*
X153183762Y-67859538D01*
X153181549Y-67863629D01*
X153181548Y-67863632D01*
X153107804Y-68000018D01*
X153107802Y-68000022D01*
X153105591Y-68004112D01*
X153104467Y-68008619D01*
X153104465Y-68008625D01*
X153066955Y-68159066D01*
X153066954Y-68159071D01*
X153065829Y-68163585D01*
X153065861Y-68168239D01*
X153065861Y-68168244D01*
X153066626Y-68277737D01*
X153066977Y-68327936D01*
X153068166Y-68332436D01*
X153107771Y-68482340D01*
X153107773Y-68482346D01*
X153108960Y-68486837D01*
X153111228Y-68490896D01*
X153111229Y-68490897D01*
X153186870Y-68626242D01*
X153186872Y-68626245D01*
X153189142Y-68630306D01*
X153192350Y-68633675D01*
X153192351Y-68633676D01*
X153246022Y-68690036D01*
X153265184Y-68727527D01*
X153260794Y-68769402D01*
X153234274Y-68802104D01*
X153194209Y-68815047D01*
X153153569Y-68804041D01*
X152642352Y-68488536D01*
X151019518Y-67486981D01*
X150990621Y-67453747D01*
X150985725Y-67409980D01*
X151006564Y-67371181D01*
X151045757Y-67351094D01*
X151089422Y-67356833D01*
X151140028Y-67380216D01*
X151144255Y-67382169D01*
X151305910Y-67411838D01*
X151469864Y-67400374D01*
X151625816Y-67348496D01*
X151763967Y-67259464D01*
X151875636Y-67138872D01*
X151953807Y-66994298D01*
X151993569Y-66834825D01*
X151992421Y-66670475D01*
X151950438Y-66511573D01*
X151870256Y-66368104D01*
X151843522Y-66340031D01*
X151826155Y-66321793D01*
X151756914Y-66249083D01*
X151725661Y-66229554D01*
X151437044Y-66049205D01*
X150974080Y-65759913D01*
X150932025Y-65740481D01*
X150866555Y-65710229D01*
X150866550Y-65710227D01*
X150862329Y-65708277D01*
X150857747Y-65707436D01*
X150705250Y-65679447D01*
X150705243Y-65679446D01*
X150700674Y-65678608D01*
X150696037Y-65678932D01*
X150696034Y-65678932D01*
X150541365Y-65689747D01*
X150541363Y-65689747D01*
X150536720Y-65690072D01*
X150532302Y-65691541D01*
X150532300Y-65691542D01*
X150385184Y-65740481D01*
X150385181Y-65740482D01*
X150380769Y-65741950D01*
X150376857Y-65744470D01*
X150376857Y-65744471D01*
X150246529Y-65828461D01*
X150246524Y-65828464D01*
X150242617Y-65830983D01*
X150239461Y-65834390D01*
X150239455Y-65834396D01*
X150134109Y-65948159D01*
X150134104Y-65948165D01*
X150130948Y-65951574D01*
X150128735Y-65955665D01*
X150128734Y-65955668D01*
X150054990Y-66092054D01*
X150054988Y-66092058D01*
X150052777Y-66096148D01*
X150051653Y-66100655D01*
X150051651Y-66100661D01*
X150014141Y-66251102D01*
X150014140Y-66251107D01*
X150013015Y-66255621D01*
X150013047Y-66260275D01*
X150013047Y-66260280D01*
X150013829Y-66372167D01*
X150014163Y-66419971D01*
X150015352Y-66424471D01*
X150054957Y-66574376D01*
X150054959Y-66574382D01*
X150056146Y-66578873D01*
X150058414Y-66582932D01*
X150058415Y-66582933D01*
X150134056Y-66718278D01*
X150134058Y-66718281D01*
X150136328Y-66722342D01*
X150139536Y-66725711D01*
X150139537Y-66725712D01*
X150239127Y-66830292D01*
X150259255Y-66874860D01*
X150247190Y-66922251D01*
X150208200Y-66951768D01*
X150159314Y-66950521D01*
X150136223Y-66941770D01*
X150135830Y-66941600D01*
X150135314Y-66941282D01*
X150113041Y-66932984D01*
X150112707Y-66932859D01*
X150073519Y-66918009D01*
X150073518Y-66918008D01*
X150066924Y-66915510D01*
X150066188Y-66915532D01*
X150065503Y-66915277D01*
X150058477Y-66915530D01*
X150058474Y-66915530D01*
X150016738Y-66917037D01*
X150016324Y-66917051D01*
X149974333Y-66918331D01*
X149974332Y-66918331D01*
X149967315Y-66918545D01*
X149966645Y-66918846D01*
X149965913Y-66918873D01*
X149959539Y-66921786D01*
X149959534Y-66921788D01*
X149921479Y-66939185D01*
X149921104Y-66939355D01*
X149882864Y-66956579D01*
X149882859Y-66956581D01*
X149876450Y-66959469D01*
X149875946Y-66960004D01*
X149875280Y-66960309D01*
X149870493Y-66965453D01*
X149870489Y-66965457D01*
X149841946Y-66996137D01*
X149841667Y-66996436D01*
X149826556Y-67012498D01*
X149826545Y-67012510D01*
X149825401Y-67013727D01*
X149825080Y-67014239D01*
X149824802Y-67014568D01*
X149812364Y-67027938D01*
X149812362Y-67027941D01*
X149807402Y-67033273D01*
X149804860Y-67040095D01*
X149804858Y-67040099D01*
X149801486Y-67049152D01*
X149794895Y-67062536D01*
X145036885Y-74675661D01*
X145028278Y-74686882D01*
X145020521Y-74695208D01*
X145020516Y-74695215D01*
X145015552Y-74700544D01*
X145013003Y-74707367D01*
X145013002Y-74707371D01*
X144998361Y-74746579D01*
X144998236Y-74746912D01*
X144985535Y-74780428D01*
X144980894Y-74792677D01*
X144980913Y-74793310D01*
X144980692Y-74793903D01*
X144980941Y-74800963D01*
X144980941Y-74800967D01*
X144982419Y-74842783D01*
X144982431Y-74843141D01*
X144983714Y-74885252D01*
X144983714Y-74885254D01*
X144983929Y-74892287D01*
X144984189Y-74892865D01*
X144984212Y-74893496D01*
X144987143Y-74899920D01*
X144987144Y-74899924D01*
X145004581Y-74938142D01*
X145004726Y-74938462D01*
X145024854Y-74983151D01*
X145025313Y-74983583D01*
X145025577Y-74984161D01*
X145061610Y-75017733D01*
X145097434Y-75051439D01*
X145114893Y-75058055D01*
X145127574Y-75064305D01*
X146357364Y-75824603D01*
X149757171Y-77926478D01*
X149785469Y-77958459D01*
X149791386Y-78000750D01*
X149772950Y-78039269D01*
X149591426Y-78238434D01*
X149558295Y-78259375D01*
X149519115Y-78260458D01*
X149484879Y-78241378D01*
X149465190Y-78207489D01*
X149433554Y-78087750D01*
X149353372Y-77944281D01*
X149336418Y-77926478D01*
X149243238Y-77828629D01*
X149243239Y-77828629D01*
X149240030Y-77825260D01*
X149181491Y-77788681D01*
X148119940Y-77125350D01*
X148119941Y-77125350D01*
X148117975Y-77124122D01*
X148115872Y-77123150D01*
X148115866Y-77123147D01*
X148010452Y-77074439D01*
X148010450Y-77074438D01*
X148006225Y-77072486D01*
X148001645Y-77071645D01*
X148001644Y-77071645D01*
X147849146Y-77043656D01*
X147849139Y-77043655D01*
X147844570Y-77042817D01*
X147839933Y-77043141D01*
X147839930Y-77043141D01*
X147685261Y-77053956D01*
X147685259Y-77053956D01*
X147680616Y-77054281D01*
X147676198Y-77055750D01*
X147676196Y-77055751D01*
X147529081Y-77104689D01*
X147529076Y-77104691D01*
X147524664Y-77106159D01*
X147520755Y-77108677D01*
X147520751Y-77108680D01*
X147390425Y-77192670D01*
X147390420Y-77192673D01*
X147386513Y-77195192D01*
X147383352Y-77198604D01*
X147383350Y-77198607D01*
X147278005Y-77312368D01*
X147278000Y-77312374D01*
X147274844Y-77315783D01*
X147272631Y-77319874D01*
X147272630Y-77319877D01*
X147198886Y-77456263D01*
X147198884Y-77456267D01*
X147196673Y-77460357D01*
X147195549Y-77464864D01*
X147195547Y-77464870D01*
X147158037Y-77615311D01*
X147158036Y-77615316D01*
X147156911Y-77619830D01*
X147156943Y-77624484D01*
X147156943Y-77624489D01*
X147158026Y-77779525D01*
X147158059Y-77784181D01*
X147159248Y-77788681D01*
X147198853Y-77938585D01*
X147198855Y-77938591D01*
X147200042Y-77943082D01*
X147202310Y-77947141D01*
X147202311Y-77947142D01*
X147277952Y-78082487D01*
X147277954Y-78082490D01*
X147280224Y-78086551D01*
X147393566Y-78205572D01*
X148515621Y-78906710D01*
X148627372Y-78958346D01*
X148631953Y-78959186D01*
X148631954Y-78959187D01*
X148712427Y-78973957D01*
X148748293Y-78991488D01*
X148769833Y-79025099D01*
X148770778Y-79065009D01*
X148750853Y-79099602D01*
X148461938Y-79382637D01*
X148460422Y-79384081D01*
X148128583Y-79691258D01*
X148096131Y-79708776D01*
X148059254Y-79708456D01*
X148027111Y-79690378D01*
X147294269Y-78988016D01*
X145186343Y-76967762D01*
X145164575Y-76926631D01*
X145171666Y-76880637D01*
X145204813Y-76847972D01*
X145250904Y-76841554D01*
X145396834Y-76868337D01*
X145560788Y-76856873D01*
X145716740Y-76804995D01*
X145854891Y-76715963D01*
X145966560Y-76595371D01*
X146044731Y-76450797D01*
X146084493Y-76291324D01*
X146083345Y-76126974D01*
X146041362Y-75968072D01*
X145990167Y-75876470D01*
X145963451Y-75828666D01*
X145963449Y-75828664D01*
X145961180Y-75824603D01*
X145847838Y-75705582D01*
X145065004Y-75216412D01*
X145022949Y-75196980D01*
X144957479Y-75166728D01*
X144957474Y-75166726D01*
X144953253Y-75164776D01*
X144948671Y-75163935D01*
X144796174Y-75135946D01*
X144796167Y-75135945D01*
X144791598Y-75135107D01*
X144786961Y-75135431D01*
X144786958Y-75135431D01*
X144632289Y-75146246D01*
X144632287Y-75146246D01*
X144627644Y-75146571D01*
X144623226Y-75148040D01*
X144623224Y-75148041D01*
X144476108Y-75196980D01*
X144476105Y-75196981D01*
X144471693Y-75198449D01*
X144467781Y-75200969D01*
X144467781Y-75200970D01*
X144337453Y-75284960D01*
X144337448Y-75284963D01*
X144333541Y-75287482D01*
X144330385Y-75290889D01*
X144330379Y-75290895D01*
X144225033Y-75404658D01*
X144225028Y-75404664D01*
X144221872Y-75408073D01*
X144219659Y-75412164D01*
X144219658Y-75412167D01*
X144145914Y-75548553D01*
X144145912Y-75548557D01*
X144143701Y-75552647D01*
X144142577Y-75557154D01*
X144142575Y-75557160D01*
X144105065Y-75707601D01*
X144105064Y-75707606D01*
X144103939Y-75712120D01*
X144103971Y-75716774D01*
X144103971Y-75716779D01*
X144104250Y-75756741D01*
X144092210Y-75797719D01*
X144059532Y-75825218D01*
X144017100Y-75830079D01*
X143979050Y-75810682D01*
X141255074Y-73200000D01*
X143494864Y-73200000D01*
X143513266Y-73304363D01*
X143566252Y-73396138D01*
X143647432Y-73464256D01*
X143747014Y-73500500D01*
X143846509Y-73500500D01*
X143852986Y-73500500D01*
X143952568Y-73464256D01*
X144033748Y-73396138D01*
X144086734Y-73304363D01*
X144105136Y-73200000D01*
X144086734Y-73095637D01*
X144033748Y-73003862D01*
X143952568Y-72935744D01*
X143946483Y-72933529D01*
X143946481Y-72933528D01*
X143859073Y-72901715D01*
X143859070Y-72901714D01*
X143852986Y-72899500D01*
X143747014Y-72899500D01*
X143740930Y-72901714D01*
X143740926Y-72901715D01*
X143653518Y-72933528D01*
X143653513Y-72933530D01*
X143647432Y-72935744D01*
X143642472Y-72939905D01*
X143642470Y-72939907D01*
X143571210Y-72999701D01*
X143571207Y-72999703D01*
X143566252Y-73003862D01*
X143563017Y-73009463D01*
X143563016Y-73009466D01*
X143516502Y-73090031D01*
X143516500Y-73090033D01*
X143513266Y-73095637D01*
X143494864Y-73200000D01*
X141255074Y-73200000D01*
X138490073Y-70550000D01*
X140744864Y-70550000D01*
X140763266Y-70654363D01*
X140816252Y-70746138D01*
X140897432Y-70814256D01*
X140997014Y-70850500D01*
X141096509Y-70850500D01*
X141102986Y-70850500D01*
X141202568Y-70814256D01*
X141283748Y-70746138D01*
X141336734Y-70654363D01*
X141355136Y-70550000D01*
X141336734Y-70445637D01*
X141283748Y-70353862D01*
X141202568Y-70285744D01*
X141196483Y-70283529D01*
X141196481Y-70283528D01*
X141109073Y-70251715D01*
X141109070Y-70251714D01*
X141102986Y-70249500D01*
X140997014Y-70249500D01*
X140990930Y-70251714D01*
X140990926Y-70251715D01*
X140903518Y-70283528D01*
X140903513Y-70283530D01*
X140897432Y-70285744D01*
X140892472Y-70289905D01*
X140892470Y-70289907D01*
X140821210Y-70349701D01*
X140821207Y-70349703D01*
X140816252Y-70353862D01*
X140813017Y-70359463D01*
X140813016Y-70359466D01*
X140766502Y-70440031D01*
X140766500Y-70440033D01*
X140763266Y-70445637D01*
X140744864Y-70550000D01*
X138490073Y-70550000D01*
X137498846Y-69600000D01*
X145694864Y-69600000D01*
X145713266Y-69704363D01*
X145766252Y-69796138D01*
X145847432Y-69864256D01*
X145947014Y-69900500D01*
X145986299Y-69900500D01*
X146014618Y-69906133D01*
X146038625Y-69922174D01*
X146295888Y-70179438D01*
X146316929Y-70222105D01*
X146307648Y-70268764D01*
X146266502Y-70340031D01*
X146266500Y-70340033D01*
X146263266Y-70345637D01*
X146262142Y-70352010D01*
X146262142Y-70352011D01*
X146258280Y-70373912D01*
X146244864Y-70450000D01*
X146245988Y-70456375D01*
X146252611Y-70493937D01*
X146263266Y-70554363D01*
X146316252Y-70646138D01*
X146397432Y-70714256D01*
X146497014Y-70750500D01*
X146596509Y-70750500D01*
X146602986Y-70750500D01*
X146702568Y-70714256D01*
X146783748Y-70646138D01*
X146836734Y-70554363D01*
X146855136Y-70450000D01*
X146836734Y-70345637D01*
X146828953Y-70332160D01*
X146819672Y-70285501D01*
X146840711Y-70242836D01*
X147061375Y-70022174D01*
X147085384Y-70006133D01*
X147113702Y-70000500D01*
X147146509Y-70000500D01*
X147152986Y-70000500D01*
X147252568Y-69964256D01*
X147333748Y-69896138D01*
X147386734Y-69804363D01*
X147405136Y-69700000D01*
X147386734Y-69595637D01*
X147333748Y-69503862D01*
X147252568Y-69435744D01*
X147246483Y-69433529D01*
X147246481Y-69433528D01*
X147159073Y-69401715D01*
X147159070Y-69401714D01*
X147152986Y-69399500D01*
X147047014Y-69399500D01*
X147040930Y-69401714D01*
X147040926Y-69401715D01*
X146953518Y-69433528D01*
X146953513Y-69433530D01*
X146947432Y-69435744D01*
X146942472Y-69439905D01*
X146942470Y-69439907D01*
X146871210Y-69499701D01*
X146871207Y-69499703D01*
X146866252Y-69503862D01*
X146863017Y-69509463D01*
X146863016Y-69509466D01*
X146816502Y-69590031D01*
X146816500Y-69590033D01*
X146813266Y-69595637D01*
X146812142Y-69602010D01*
X146812142Y-69602011D01*
X146794864Y-69700000D01*
X146793991Y-69699846D01*
X146790355Y-69718128D01*
X146774314Y-69742135D01*
X146652325Y-69864123D01*
X146619151Y-69883276D01*
X146580846Y-69883275D01*
X146547673Y-69864123D01*
X146325686Y-69642136D01*
X146309645Y-69618129D01*
X146306008Y-69599846D01*
X146305136Y-69600000D01*
X146286734Y-69495637D01*
X146233748Y-69403862D01*
X146152568Y-69335744D01*
X146146483Y-69333529D01*
X146146481Y-69333528D01*
X146059073Y-69301715D01*
X146059070Y-69301714D01*
X146052986Y-69299500D01*
X145947014Y-69299500D01*
X145940930Y-69301714D01*
X145940926Y-69301715D01*
X145853518Y-69333528D01*
X145853513Y-69333530D01*
X145847432Y-69335744D01*
X145842472Y-69339905D01*
X145842470Y-69339907D01*
X145771210Y-69399701D01*
X145771207Y-69399703D01*
X145766252Y-69403862D01*
X145763017Y-69409463D01*
X145763016Y-69409466D01*
X145716502Y-69490031D01*
X145716500Y-69490033D01*
X145713266Y-69495637D01*
X145712142Y-69502010D01*
X145712142Y-69502011D01*
X145708916Y-69520306D01*
X145694864Y-69600000D01*
X137498846Y-69600000D01*
X136625494Y-68762972D01*
X136621314Y-68755302D01*
X136613385Y-68751366D01*
X136298941Y-68450000D01*
X136644864Y-68450000D01*
X136663266Y-68554363D01*
X136716252Y-68646138D01*
X136721214Y-68650301D01*
X136721274Y-68650373D01*
X136721906Y-68651890D01*
X136724264Y-68652861D01*
X136797432Y-68714256D01*
X136897014Y-68750500D01*
X136996509Y-68750500D01*
X137002986Y-68750500D01*
X137102568Y-68714256D01*
X137183748Y-68646138D01*
X137236734Y-68554363D01*
X137255136Y-68450000D01*
X147544864Y-68450000D01*
X147563266Y-68554363D01*
X147616252Y-68646138D01*
X147697432Y-68714256D01*
X147797014Y-68750500D01*
X147896509Y-68750500D01*
X147902986Y-68750500D01*
X148002568Y-68714256D01*
X148083748Y-68646138D01*
X148136734Y-68554363D01*
X148155136Y-68450000D01*
X148136734Y-68345637D01*
X148083748Y-68253862D01*
X148002568Y-68185744D01*
X147996483Y-68183529D01*
X147996481Y-68183528D01*
X147909073Y-68151715D01*
X147909070Y-68151714D01*
X147902986Y-68149500D01*
X147797014Y-68149500D01*
X147790930Y-68151714D01*
X147790926Y-68151715D01*
X147703518Y-68183528D01*
X147703513Y-68183530D01*
X147697432Y-68185744D01*
X147692472Y-68189905D01*
X147692470Y-68189907D01*
X147621210Y-68249701D01*
X147621207Y-68249703D01*
X147616252Y-68253862D01*
X147613017Y-68259463D01*
X147613016Y-68259466D01*
X147566502Y-68340031D01*
X147566500Y-68340033D01*
X147563266Y-68345637D01*
X147544864Y-68450000D01*
X137255136Y-68450000D01*
X137236734Y-68345637D01*
X137183748Y-68253862D01*
X137102568Y-68185744D01*
X137096483Y-68183529D01*
X137096481Y-68183528D01*
X137009073Y-68151715D01*
X137009070Y-68151714D01*
X137002986Y-68149500D01*
X136897014Y-68149500D01*
X136890930Y-68151714D01*
X136890926Y-68151715D01*
X136803518Y-68183528D01*
X136803513Y-68183530D01*
X136797432Y-68185744D01*
X136792472Y-68189905D01*
X136792470Y-68189907D01*
X136721210Y-68249701D01*
X136721207Y-68249703D01*
X136716252Y-68253862D01*
X136713017Y-68259463D01*
X136713016Y-68259466D01*
X136666502Y-68340031D01*
X136666500Y-68340033D01*
X136663266Y-68345637D01*
X136644864Y-68450000D01*
X136298941Y-68450000D01*
X135923282Y-68089966D01*
X135906422Y-68065584D01*
X135900485Y-68036541D01*
X135900485Y-67350000D01*
X137994864Y-67350000D01*
X138013266Y-67454363D01*
X138066252Y-67546138D01*
X138147432Y-67614256D01*
X138247014Y-67650500D01*
X138346509Y-67650500D01*
X138352986Y-67650500D01*
X138452568Y-67614256D01*
X138533748Y-67546138D01*
X138586734Y-67454363D01*
X138605136Y-67350000D01*
X138586734Y-67245637D01*
X138533748Y-67153862D01*
X138452568Y-67085744D01*
X138446483Y-67083529D01*
X138446481Y-67083528D01*
X138359073Y-67051715D01*
X138359070Y-67051714D01*
X138352986Y-67049500D01*
X138247014Y-67049500D01*
X138240930Y-67051714D01*
X138240926Y-67051715D01*
X138153518Y-67083528D01*
X138153513Y-67083530D01*
X138147432Y-67085744D01*
X138142472Y-67089905D01*
X138142470Y-67089907D01*
X138071210Y-67149701D01*
X138071207Y-67149703D01*
X138066252Y-67153862D01*
X138063017Y-67159463D01*
X138063016Y-67159466D01*
X138016502Y-67240031D01*
X138016500Y-67240033D01*
X138013266Y-67245637D01*
X138012142Y-67252010D01*
X138012142Y-67252011D01*
X137995988Y-67343625D01*
X137994864Y-67350000D01*
X135900485Y-67350000D01*
X135900485Y-66574508D01*
X135910399Y-66537508D01*
X135937485Y-66510422D01*
X135974485Y-66500508D01*
X137218023Y-66500508D01*
X137232459Y-66501929D01*
X137249985Y-66505416D01*
X137347725Y-66485974D01*
X137430586Y-66430609D01*
X137485951Y-66347748D01*
X137500485Y-66274682D01*
X137505393Y-66250008D01*
X137501906Y-66232482D01*
X137500485Y-66218046D01*
X137500485Y-62181962D01*
X137501907Y-62167525D01*
X137503971Y-62157149D01*
X137505393Y-62150000D01*
X137485951Y-62052260D01*
X137430586Y-61969399D01*
X137347725Y-61914034D01*
X137340579Y-61912612D01*
X137340578Y-61912612D01*
X137274659Y-61899500D01*
X137257134Y-61896014D01*
X137249985Y-61894592D01*
X137242836Y-61896014D01*
X137232460Y-61898078D01*
X137218023Y-61899500D01*
X132999485Y-61899500D01*
X132962485Y-61889586D01*
X132935399Y-61862500D01*
X132925485Y-61825500D01*
X132925485Y-59450000D01*
X133344864Y-59450000D01*
X133363266Y-59554363D01*
X133416252Y-59646138D01*
X133497432Y-59714256D01*
X133597014Y-59750500D01*
X133632858Y-59750500D01*
X133680422Y-59767811D01*
X133705733Y-59811645D01*
X133706331Y-59815035D01*
X133702995Y-59853194D01*
X133681027Y-59884574D01*
X133649024Y-59899500D01*
X133647014Y-59899500D01*
X133640932Y-59901713D01*
X133640929Y-59901714D01*
X133553518Y-59933528D01*
X133553513Y-59933530D01*
X133547432Y-59935744D01*
X133542472Y-59939905D01*
X133542470Y-59939907D01*
X133471210Y-59999701D01*
X133471207Y-59999703D01*
X133466252Y-60003862D01*
X133463017Y-60009463D01*
X133463016Y-60009466D01*
X133416502Y-60090031D01*
X133416500Y-60090033D01*
X133413266Y-60095637D01*
X133412142Y-60102010D01*
X133412142Y-60102011D01*
X133400697Y-60166918D01*
X133394864Y-60200000D01*
X133413266Y-60304363D01*
X133466252Y-60396138D01*
X133547432Y-60464256D01*
X133647014Y-60500500D01*
X133746509Y-60500500D01*
X133752986Y-60500500D01*
X133852568Y-60464256D01*
X133933748Y-60396138D01*
X133986734Y-60304363D01*
X134004632Y-60202857D01*
X134021871Y-60166918D01*
X134055254Y-60145134D01*
X134095096Y-60143830D01*
X134129833Y-60163383D01*
X134726478Y-60760028D01*
X134732006Y-60766214D01*
X134735595Y-60770714D01*
X134739212Y-60778224D01*
X134745727Y-60783420D01*
X134745730Y-60783423D01*
X134762932Y-60797141D01*
X134769120Y-60802670D01*
X134774198Y-60807748D01*
X134777715Y-60809957D01*
X134777718Y-60809960D01*
X134780274Y-60811566D01*
X134787044Y-60816369D01*
X134810769Y-60835290D01*
X134818903Y-60837146D01*
X134821893Y-60838586D01*
X134825013Y-60839677D01*
X134832076Y-60844116D01*
X134862236Y-60847513D01*
X134870405Y-60848900D01*
X134877410Y-60850500D01*
X134884588Y-60850500D01*
X134892871Y-60850964D01*
X134923026Y-60854362D01*
X134930899Y-60851607D01*
X134936598Y-60850965D01*
X134944885Y-60850500D01*
X136018889Y-60850500D01*
X136066455Y-60867813D01*
X136091765Y-60911650D01*
X136082975Y-60961500D01*
X136066502Y-60990031D01*
X136066500Y-60990033D01*
X136063266Y-60995637D01*
X136062142Y-61002010D01*
X136062142Y-61002011D01*
X136045988Y-61093625D01*
X136044864Y-61100000D01*
X136045988Y-61106375D01*
X136045988Y-61106378D01*
X136050347Y-61131103D01*
X136044537Y-61175226D01*
X136014470Y-61208038D01*
X135971021Y-61217669D01*
X135929907Y-61200639D01*
X135852568Y-61135744D01*
X135846483Y-61133529D01*
X135846481Y-61133528D01*
X135759073Y-61101715D01*
X135759070Y-61101714D01*
X135752986Y-61099500D01*
X135647014Y-61099500D01*
X135640930Y-61101714D01*
X135640926Y-61101715D01*
X135553518Y-61133528D01*
X135553513Y-61133530D01*
X135547432Y-61135744D01*
X135542472Y-61139905D01*
X135542470Y-61139907D01*
X135471210Y-61199701D01*
X135471207Y-61199703D01*
X135466252Y-61203862D01*
X135463017Y-61209463D01*
X135463016Y-61209466D01*
X135416502Y-61290031D01*
X135416500Y-61290033D01*
X135413266Y-61295637D01*
X135394864Y-61400000D01*
X135413266Y-61504363D01*
X135416501Y-61509967D01*
X135416502Y-61509968D01*
X135433386Y-61539212D01*
X135466252Y-61596138D01*
X135547432Y-61664256D01*
X135647014Y-61700500D01*
X135746509Y-61700500D01*
X135752986Y-61700500D01*
X135852568Y-61664256D01*
X135933748Y-61596138D01*
X135986734Y-61504363D01*
X136005136Y-61400000D01*
X135999651Y-61368898D01*
X136005461Y-61324774D01*
X136035528Y-61291962D01*
X136078978Y-61282330D01*
X136120091Y-61299359D01*
X136197432Y-61364256D01*
X136297014Y-61400500D01*
X136396509Y-61400500D01*
X136402986Y-61400500D01*
X136502568Y-61364256D01*
X136583748Y-61296138D01*
X136636734Y-61204363D01*
X136655136Y-61100000D01*
X136653425Y-61090299D01*
X136652647Y-61085885D01*
X136636734Y-60995637D01*
X136617024Y-60961499D01*
X136608235Y-60911650D01*
X136633545Y-60867813D01*
X136681111Y-60850500D01*
X136936299Y-60850500D01*
X136964618Y-60856133D01*
X136988625Y-60872174D01*
X137877826Y-61761376D01*
X137893867Y-61785383D01*
X137899500Y-61813702D01*
X137899500Y-63405115D01*
X137899035Y-63413402D01*
X137898392Y-63419102D01*
X137895638Y-63426974D01*
X137896571Y-63435258D01*
X137896571Y-63435261D01*
X137899035Y-63457128D01*
X137899500Y-63465412D01*
X137899500Y-63472590D01*
X137900425Y-63476642D01*
X137901097Y-63479588D01*
X137902485Y-63487760D01*
X137904950Y-63509640D01*
X137904950Y-63509642D01*
X137905884Y-63517924D01*
X137910318Y-63524981D01*
X137911415Y-63528115D01*
X137912855Y-63531105D01*
X137914710Y-63539231D01*
X137919906Y-63545747D01*
X137919907Y-63545748D01*
X137933634Y-63562961D01*
X137938432Y-63569723D01*
X137942252Y-63575801D01*
X137945191Y-63578740D01*
X137947324Y-63580873D01*
X137952853Y-63587060D01*
X137971776Y-63610788D01*
X137979288Y-63614405D01*
X137983783Y-63617990D01*
X137989971Y-63623520D01*
X141376485Y-67010035D01*
X141382015Y-67016223D01*
X141385593Y-67020710D01*
X141389212Y-67028224D01*
X141395731Y-67033422D01*
X141395732Y-67033424D01*
X141412932Y-67047141D01*
X141419119Y-67052669D01*
X141424199Y-67057749D01*
X141430275Y-67061567D01*
X141437036Y-67066365D01*
X141454244Y-67080087D01*
X141454245Y-67080087D01*
X141460769Y-67085290D01*
X141468904Y-67087146D01*
X141471900Y-67088589D01*
X141475014Y-67089678D01*
X141482076Y-67094116D01*
X141512236Y-67097513D01*
X141520405Y-67098900D01*
X141527410Y-67100500D01*
X141534588Y-67100500D01*
X141542871Y-67100964D01*
X141573026Y-67104362D01*
X141580899Y-67101607D01*
X141586598Y-67100965D01*
X141594885Y-67100500D01*
X143044517Y-67100500D01*
X143092082Y-67117812D01*
X143147432Y-67164256D01*
X143247014Y-67200500D01*
X143346509Y-67200500D01*
X143352986Y-67200500D01*
X143452568Y-67164256D01*
X143533748Y-67096138D01*
X143586734Y-67004363D01*
X143605136Y-66900000D01*
X143586734Y-66795637D01*
X143533748Y-66703862D01*
X143452568Y-66635744D01*
X143446483Y-66633529D01*
X143446481Y-66633528D01*
X143359073Y-66601715D01*
X143359070Y-66601714D01*
X143352986Y-66599500D01*
X143247014Y-66599500D01*
X143240930Y-66601714D01*
X143240926Y-66601715D01*
X143153518Y-66633528D01*
X143153513Y-66633530D01*
X143147432Y-66635744D01*
X143142472Y-66639905D01*
X143142470Y-66639907D01*
X143092083Y-66682187D01*
X143044517Y-66699500D01*
X141663702Y-66699500D01*
X141635383Y-66693867D01*
X141611376Y-66677826D01*
X141383550Y-66450000D01*
X147444864Y-66450000D01*
X147463266Y-66554363D01*
X147516252Y-66646138D01*
X147597432Y-66714256D01*
X147697014Y-66750500D01*
X147796509Y-66750500D01*
X147802986Y-66750500D01*
X147902568Y-66714256D01*
X147983748Y-66646138D01*
X148036734Y-66554363D01*
X148055136Y-66450000D01*
X148036734Y-66345637D01*
X147983748Y-66253862D01*
X147902568Y-66185744D01*
X147896483Y-66183529D01*
X147896481Y-66183528D01*
X147809073Y-66151715D01*
X147809070Y-66151714D01*
X147802986Y-66149500D01*
X147697014Y-66149500D01*
X147690930Y-66151714D01*
X147690926Y-66151715D01*
X147603518Y-66183528D01*
X147603513Y-66183530D01*
X147597432Y-66185744D01*
X147592472Y-66189905D01*
X147592470Y-66189907D01*
X147521210Y-66249701D01*
X147521207Y-66249703D01*
X147516252Y-66253862D01*
X147513017Y-66259463D01*
X147513016Y-66259466D01*
X147466502Y-66340031D01*
X147466500Y-66340033D01*
X147463266Y-66345637D01*
X147462142Y-66352010D01*
X147462142Y-66352011D01*
X147459899Y-66364733D01*
X147444864Y-66450000D01*
X141383550Y-66450000D01*
X138322174Y-63388625D01*
X138306133Y-63364618D01*
X138300500Y-63336299D01*
X138300500Y-61762701D01*
X138312971Y-61721589D01*
X138346181Y-61694334D01*
X138388937Y-61690123D01*
X138426824Y-61710374D01*
X139086942Y-62370492D01*
X139728761Y-63012311D01*
X139749934Y-63056043D01*
X139739421Y-63103480D01*
X139708287Y-63128846D01*
X139709123Y-63130293D01*
X139703517Y-63133529D01*
X139697432Y-63135744D01*
X139692472Y-63139905D01*
X139692470Y-63139907D01*
X139621210Y-63199701D01*
X139621207Y-63199703D01*
X139616252Y-63203862D01*
X139613017Y-63209463D01*
X139613016Y-63209466D01*
X139566502Y-63290031D01*
X139566500Y-63290033D01*
X139563266Y-63295637D01*
X139562142Y-63302010D01*
X139562142Y-63302011D01*
X139559017Y-63319733D01*
X139544864Y-63400000D01*
X139563266Y-63504363D01*
X139566501Y-63509967D01*
X139566502Y-63509968D01*
X139571095Y-63517924D01*
X139616252Y-63596138D01*
X139697432Y-63664256D01*
X139797014Y-63700500D01*
X139836299Y-63700500D01*
X139864618Y-63706133D01*
X139888624Y-63722173D01*
X140320269Y-64153819D01*
X140676478Y-64510028D01*
X140682006Y-64516214D01*
X140685595Y-64520714D01*
X140689212Y-64528224D01*
X140695727Y-64533420D01*
X140695730Y-64533423D01*
X140712932Y-64547141D01*
X140719119Y-64552669D01*
X140724199Y-64557749D01*
X140730275Y-64561567D01*
X140737036Y-64566365D01*
X140754244Y-64580087D01*
X140754245Y-64580087D01*
X140760769Y-64585290D01*
X140768904Y-64587146D01*
X140771898Y-64588588D01*
X140775013Y-64589678D01*
X140782076Y-64594116D01*
X140812235Y-64597513D01*
X140820416Y-64598904D01*
X140823356Y-64599575D01*
X140823358Y-64599575D01*
X140827410Y-64600500D01*
X140834582Y-64600500D01*
X140842867Y-64600965D01*
X140873027Y-64604363D01*
X140880900Y-64601607D01*
X140886607Y-64600965D01*
X140894894Y-64600500D01*
X146805115Y-64600500D01*
X146813402Y-64600965D01*
X146819101Y-64601607D01*
X146826974Y-64604362D01*
X146857128Y-64600964D01*
X146865412Y-64600500D01*
X146868429Y-64600500D01*
X146872590Y-64600500D01*
X146874780Y-64600000D01*
X149444864Y-64600000D01*
X149463266Y-64704363D01*
X149466501Y-64709967D01*
X149466502Y-64709968D01*
X149479690Y-64732811D01*
X149516252Y-64796138D01*
X149597432Y-64864256D01*
X149697014Y-64900500D01*
X149796509Y-64900500D01*
X149802986Y-64900500D01*
X149902568Y-64864256D01*
X149983748Y-64796138D01*
X150036734Y-64704363D01*
X150055136Y-64600000D01*
X150036734Y-64495637D01*
X149983748Y-64403862D01*
X149902568Y-64335744D01*
X149896483Y-64333529D01*
X149896481Y-64333528D01*
X149809073Y-64301715D01*
X149809070Y-64301714D01*
X149802986Y-64299500D01*
X149697014Y-64299500D01*
X149690930Y-64301714D01*
X149690926Y-64301715D01*
X149603518Y-64333528D01*
X149603513Y-64333530D01*
X149597432Y-64335744D01*
X149592472Y-64339905D01*
X149592470Y-64339907D01*
X149521210Y-64399701D01*
X149521207Y-64399703D01*
X149516252Y-64403862D01*
X149513017Y-64409463D01*
X149513016Y-64409466D01*
X149466502Y-64490031D01*
X149466500Y-64490033D01*
X149463266Y-64495637D01*
X149462142Y-64502010D01*
X149462142Y-64502011D01*
X149452832Y-64554813D01*
X149444864Y-64600000D01*
X146874780Y-64600000D01*
X146879589Y-64598902D01*
X146887764Y-64597513D01*
X146917924Y-64594116D01*
X146924988Y-64589676D01*
X146928116Y-64588582D01*
X146931099Y-64587145D01*
X146939231Y-64585290D01*
X146962978Y-64566351D01*
X146969718Y-64561570D01*
X146975801Y-64557748D01*
X146980875Y-64552672D01*
X146987056Y-64547149D01*
X147010788Y-64528224D01*
X147014406Y-64520708D01*
X147017986Y-64516220D01*
X147023509Y-64510038D01*
X147711375Y-63822174D01*
X147735384Y-63806133D01*
X147763702Y-63800500D01*
X147796509Y-63800500D01*
X147802986Y-63800500D01*
X147902568Y-63764256D01*
X147983748Y-63696138D01*
X148036734Y-63604363D01*
X148055136Y-63500000D01*
X149494864Y-63500000D01*
X149513266Y-63604363D01*
X149516501Y-63609967D01*
X149516502Y-63609968D01*
X149524326Y-63623520D01*
X149566252Y-63696138D01*
X149647432Y-63764256D01*
X149747014Y-63800500D01*
X149846509Y-63800500D01*
X149852986Y-63800500D01*
X149952568Y-63764256D01*
X150033748Y-63696138D01*
X150086734Y-63604363D01*
X150105136Y-63500000D01*
X150086734Y-63395637D01*
X150033748Y-63303862D01*
X149952568Y-63235744D01*
X149946483Y-63233529D01*
X149946481Y-63233528D01*
X149859073Y-63201715D01*
X149859070Y-63201714D01*
X149852986Y-63199500D01*
X149747014Y-63199500D01*
X149740930Y-63201714D01*
X149740926Y-63201715D01*
X149653518Y-63233528D01*
X149653513Y-63233530D01*
X149647432Y-63235744D01*
X149642472Y-63239905D01*
X149642470Y-63239907D01*
X149571210Y-63299701D01*
X149571207Y-63299703D01*
X149566252Y-63303862D01*
X149563017Y-63309463D01*
X149563016Y-63309466D01*
X149516502Y-63390031D01*
X149516500Y-63390033D01*
X149513266Y-63395637D01*
X149512142Y-63402010D01*
X149512142Y-63402011D01*
X149507740Y-63426974D01*
X149494864Y-63500000D01*
X148055136Y-63500000D01*
X148036734Y-63395637D01*
X147983748Y-63303862D01*
X147902568Y-63235744D01*
X147896483Y-63233529D01*
X147896481Y-63233528D01*
X147809073Y-63201715D01*
X147809070Y-63201714D01*
X147802986Y-63199500D01*
X147697014Y-63199500D01*
X147690930Y-63201714D01*
X147690926Y-63201715D01*
X147603518Y-63233528D01*
X147603513Y-63233530D01*
X147597432Y-63235744D01*
X147592472Y-63239905D01*
X147592470Y-63239907D01*
X147521210Y-63299701D01*
X147521207Y-63299703D01*
X147516252Y-63303862D01*
X147513017Y-63309463D01*
X147513016Y-63309466D01*
X147466502Y-63390031D01*
X147466500Y-63390033D01*
X147463266Y-63395637D01*
X147462142Y-63402010D01*
X147462142Y-63402011D01*
X147444864Y-63500000D01*
X147443991Y-63499846D01*
X147440355Y-63518128D01*
X147424314Y-63542135D01*
X146788625Y-64177826D01*
X146764618Y-64193867D01*
X146736299Y-64199500D01*
X144562700Y-64199500D01*
X144521588Y-64187029D01*
X144494333Y-64153819D01*
X144490122Y-64111063D01*
X144510374Y-64073174D01*
X144734049Y-63849500D01*
X145411375Y-63172174D01*
X145435383Y-63156133D01*
X145463702Y-63150500D01*
X145496509Y-63150500D01*
X145502986Y-63150500D01*
X145602568Y-63114256D01*
X145683748Y-63046138D01*
X145736734Y-62954363D01*
X145755136Y-62850000D01*
X145736734Y-62745637D01*
X145719090Y-62715077D01*
X150768318Y-62715077D01*
X150769252Y-62719630D01*
X150769253Y-62719634D01*
X150800429Y-62871513D01*
X150800430Y-62871518D01*
X150801366Y-62876074D01*
X150803405Y-62880255D01*
X150803407Y-62880260D01*
X150844388Y-62964283D01*
X150873414Y-63023796D01*
X150876429Y-63027339D01*
X150876430Y-63027340D01*
X150950401Y-63114256D01*
X150979935Y-63148958D01*
X151114236Y-63243697D01*
X151267879Y-63302061D01*
X151410914Y-63318104D01*
X151426582Y-63319862D01*
X151426582Y-63319861D01*
X151431210Y-63320381D01*
X152345327Y-63191911D01*
X152464124Y-63159634D01*
X152607030Y-63078453D01*
X152725257Y-62964283D01*
X152811376Y-62824298D01*
X152859977Y-62667293D01*
X152868006Y-62503135D01*
X152834958Y-62342138D01*
X152762910Y-62194416D01*
X152656388Y-62069254D01*
X152632297Y-62052260D01*
X152525892Y-61977199D01*
X152525891Y-61977198D01*
X152522087Y-61974515D01*
X152517736Y-61972862D01*
X152517732Y-61972860D01*
X152372797Y-61917804D01*
X152372792Y-61917803D01*
X152368444Y-61916151D01*
X152363822Y-61915632D01*
X152363816Y-61915631D01*
X152209741Y-61898350D01*
X152205114Y-61897831D01*
X152200511Y-61898477D01*
X152200503Y-61898478D01*
X151293299Y-62025977D01*
X151293291Y-62025978D01*
X151290997Y-62026301D01*
X151288760Y-62026908D01*
X151288749Y-62026911D01*
X151176689Y-62057357D01*
X151176681Y-62057360D01*
X151172199Y-62058578D01*
X151168159Y-62060872D01*
X151168154Y-62060875D01*
X151033338Y-62137461D01*
X151033334Y-62137463D01*
X151029294Y-62139759D01*
X151025951Y-62142987D01*
X151025946Y-62142991D01*
X150914416Y-62250694D01*
X150914412Y-62250698D01*
X150911067Y-62253929D01*
X150908630Y-62257890D01*
X150908627Y-62257894D01*
X150827385Y-62389951D01*
X150827382Y-62389957D01*
X150824948Y-62393914D01*
X150823573Y-62398355D01*
X150823571Y-62398360D01*
X150777722Y-62546471D01*
X150777720Y-62546477D01*
X150776346Y-62550919D01*
X150776119Y-62555558D01*
X150776118Y-62555565D01*
X150770437Y-62671739D01*
X150768318Y-62715077D01*
X145719090Y-62715077D01*
X145683748Y-62653862D01*
X145602568Y-62585744D01*
X145596483Y-62583529D01*
X145596481Y-62583528D01*
X145509073Y-62551715D01*
X145509070Y-62551714D01*
X145502986Y-62549500D01*
X145397014Y-62549500D01*
X145390930Y-62551714D01*
X145390926Y-62551715D01*
X145303518Y-62583528D01*
X145303513Y-62583530D01*
X145297432Y-62585744D01*
X145292472Y-62589905D01*
X145292470Y-62589907D01*
X145221210Y-62649701D01*
X145221207Y-62649703D01*
X145216252Y-62653862D01*
X145213017Y-62659463D01*
X145213016Y-62659466D01*
X145166502Y-62740031D01*
X145166500Y-62740033D01*
X145163266Y-62745637D01*
X145162142Y-62752010D01*
X145162142Y-62752011D01*
X145144864Y-62850000D01*
X145143991Y-62849846D01*
X145140355Y-62868128D01*
X145124314Y-62892135D01*
X144887604Y-63128846D01*
X144416153Y-63600298D01*
X144188625Y-63827826D01*
X144164618Y-63843867D01*
X144136299Y-63849500D01*
X141163702Y-63849500D01*
X141135383Y-63843867D01*
X141111376Y-63827826D01*
X140533550Y-63250000D01*
X140994864Y-63250000D01*
X141013266Y-63354363D01*
X141066252Y-63446138D01*
X141147432Y-63514256D01*
X141247014Y-63550500D01*
X141346509Y-63550500D01*
X141352986Y-63550500D01*
X141452568Y-63514256D01*
X141533748Y-63446138D01*
X141586734Y-63354363D01*
X141605136Y-63250000D01*
X141586734Y-63145637D01*
X141533748Y-63053862D01*
X141452568Y-62985744D01*
X141446483Y-62983529D01*
X141446481Y-62983528D01*
X141359073Y-62951715D01*
X141359070Y-62951714D01*
X141352986Y-62949500D01*
X141247014Y-62949500D01*
X141240930Y-62951714D01*
X141240926Y-62951715D01*
X141153518Y-62983528D01*
X141153513Y-62983530D01*
X141147432Y-62985744D01*
X141142472Y-62989905D01*
X141142470Y-62989907D01*
X141071210Y-63049701D01*
X141071207Y-63049703D01*
X141066252Y-63053862D01*
X141063017Y-63059463D01*
X141063016Y-63059466D01*
X141016502Y-63140031D01*
X141016500Y-63140033D01*
X141013266Y-63145637D01*
X141012142Y-63152010D01*
X141012142Y-63152011D01*
X141003733Y-63199701D01*
X140994864Y-63250000D01*
X140533550Y-63250000D01*
X139183549Y-61900000D01*
X141044864Y-61900000D01*
X141063266Y-62004363D01*
X141116252Y-62096138D01*
X141197432Y-62164256D01*
X141297014Y-62200500D01*
X141396509Y-62200500D01*
X141402986Y-62200500D01*
X141502568Y-62164256D01*
X141583748Y-62096138D01*
X141636734Y-62004363D01*
X141655136Y-61900000D01*
X141636734Y-61795637D01*
X141583748Y-61703862D01*
X141502568Y-61635744D01*
X141496483Y-61633529D01*
X141496481Y-61633528D01*
X141409073Y-61601715D01*
X141409070Y-61601714D01*
X141404360Y-61600000D01*
X149494864Y-61600000D01*
X149513266Y-61704363D01*
X149566252Y-61796138D01*
X149647432Y-61864256D01*
X149747014Y-61900500D01*
X149846509Y-61900500D01*
X149852986Y-61900500D01*
X149952568Y-61864256D01*
X150033748Y-61796138D01*
X150086734Y-61704363D01*
X150105136Y-61600000D01*
X150086734Y-61495637D01*
X150033748Y-61403862D01*
X149952568Y-61335744D01*
X149946483Y-61333529D01*
X149946481Y-61333528D01*
X149859073Y-61301715D01*
X149859070Y-61301714D01*
X149852986Y-61299500D01*
X149747014Y-61299500D01*
X149740930Y-61301714D01*
X149740926Y-61301715D01*
X149653518Y-61333528D01*
X149653513Y-61333530D01*
X149647432Y-61335744D01*
X149642472Y-61339905D01*
X149642470Y-61339907D01*
X149571210Y-61399701D01*
X149571207Y-61399703D01*
X149566252Y-61403862D01*
X149563017Y-61409463D01*
X149563016Y-61409466D01*
X149516502Y-61490031D01*
X149516500Y-61490033D01*
X149513266Y-61495637D01*
X149512142Y-61502010D01*
X149512142Y-61502011D01*
X149502563Y-61556335D01*
X149494864Y-61600000D01*
X141404360Y-61600000D01*
X141402986Y-61599500D01*
X141297014Y-61599500D01*
X141290930Y-61601714D01*
X141290926Y-61601715D01*
X141203518Y-61633528D01*
X141203513Y-61633530D01*
X141197432Y-61635744D01*
X141192472Y-61639905D01*
X141192470Y-61639907D01*
X141121210Y-61699701D01*
X141121207Y-61699703D01*
X141116252Y-61703862D01*
X141113017Y-61709463D01*
X141113016Y-61709466D01*
X141066502Y-61790031D01*
X141066500Y-61790033D01*
X141063266Y-61795637D01*
X141062142Y-61802010D01*
X141062142Y-61802011D01*
X141056868Y-61831924D01*
X141044864Y-61900000D01*
X139183549Y-61900000D01*
X138283549Y-61000000D01*
X139894864Y-61000000D01*
X139913266Y-61104363D01*
X139966252Y-61196138D01*
X140047432Y-61264256D01*
X140147014Y-61300500D01*
X140246509Y-61300500D01*
X140252986Y-61300500D01*
X140352568Y-61264256D01*
X140433748Y-61196138D01*
X140486734Y-61104363D01*
X140505136Y-61000000D01*
X140486734Y-60895637D01*
X140433748Y-60803862D01*
X140352568Y-60735744D01*
X140346483Y-60733529D01*
X140346481Y-60733528D01*
X140259073Y-60701715D01*
X140259070Y-60701714D01*
X140252986Y-60699500D01*
X140147014Y-60699500D01*
X140140930Y-60701714D01*
X140140926Y-60701715D01*
X140053518Y-60733528D01*
X140053513Y-60733530D01*
X140047432Y-60735744D01*
X140042472Y-60739905D01*
X140042470Y-60739907D01*
X139971210Y-60799701D01*
X139971207Y-60799703D01*
X139966252Y-60803862D01*
X139963017Y-60809463D01*
X139963016Y-60809466D01*
X139916502Y-60890031D01*
X139916500Y-60890033D01*
X139913266Y-60895637D01*
X139912142Y-60902010D01*
X139912142Y-60902011D01*
X139901025Y-60965059D01*
X139894864Y-61000000D01*
X138283549Y-61000000D01*
X137883549Y-60600000D01*
X138594864Y-60600000D01*
X138613266Y-60704363D01*
X138666252Y-60796138D01*
X138747432Y-60864256D01*
X138847014Y-60900500D01*
X138946509Y-60900500D01*
X138952986Y-60900500D01*
X139052568Y-60864256D01*
X139133748Y-60796138D01*
X139186734Y-60704363D01*
X139205136Y-60600000D01*
X139186734Y-60495637D01*
X139133748Y-60403862D01*
X139052568Y-60335744D01*
X139046483Y-60333529D01*
X139046481Y-60333528D01*
X138959073Y-60301715D01*
X138959070Y-60301714D01*
X138952986Y-60299500D01*
X138847014Y-60299500D01*
X138840930Y-60301714D01*
X138840926Y-60301715D01*
X138753518Y-60333528D01*
X138753513Y-60333530D01*
X138747432Y-60335744D01*
X138742472Y-60339905D01*
X138742470Y-60339907D01*
X138671210Y-60399701D01*
X138671207Y-60399703D01*
X138666252Y-60403862D01*
X138663017Y-60409463D01*
X138663016Y-60409466D01*
X138616502Y-60490031D01*
X138616500Y-60490033D01*
X138613266Y-60495637D01*
X138612142Y-60502010D01*
X138612142Y-60502011D01*
X138598362Y-60580164D01*
X138594864Y-60600000D01*
X137883549Y-60600000D01*
X137423520Y-60139971D01*
X137417990Y-60133783D01*
X137414405Y-60129288D01*
X137410788Y-60121776D01*
X137387060Y-60102853D01*
X137380873Y-60097324D01*
X137378740Y-60095191D01*
X137378739Y-60095190D01*
X137375801Y-60092252D01*
X137369723Y-60088432D01*
X137362961Y-60083634D01*
X137345748Y-60069907D01*
X137345747Y-60069906D01*
X137339231Y-60064710D01*
X137331105Y-60062855D01*
X137328115Y-60061415D01*
X137324981Y-60060318D01*
X137317924Y-60055884D01*
X137309642Y-60054950D01*
X137309640Y-60054950D01*
X137287760Y-60052485D01*
X137279588Y-60051097D01*
X137272590Y-60049500D01*
X137268432Y-60049500D01*
X137265412Y-60049500D01*
X137257128Y-60049035D01*
X137235261Y-60046571D01*
X137235258Y-60046571D01*
X137226974Y-60045638D01*
X137219102Y-60048392D01*
X137213402Y-60049035D01*
X137205115Y-60049500D01*
X136216965Y-60049500D01*
X136176301Y-60037326D01*
X136149017Y-60004810D01*
X136144089Y-59962650D01*
X136154012Y-59906374D01*
X136155136Y-59900000D01*
X136136734Y-59795637D01*
X136083748Y-59703862D01*
X136079145Y-59700000D01*
X149694864Y-59700000D01*
X149713266Y-59804363D01*
X149766252Y-59896138D01*
X149847432Y-59964256D01*
X149947014Y-60000500D01*
X150046509Y-60000500D01*
X150052986Y-60000500D01*
X150152568Y-59964256D01*
X150233748Y-59896138D01*
X150286734Y-59804363D01*
X150305136Y-59700000D01*
X150286734Y-59595637D01*
X150233748Y-59503862D01*
X150152568Y-59435744D01*
X150146483Y-59433529D01*
X150146481Y-59433528D01*
X150059073Y-59401715D01*
X150059070Y-59401714D01*
X150052986Y-59399500D01*
X149947014Y-59399500D01*
X149940930Y-59401714D01*
X149940926Y-59401715D01*
X149853518Y-59433528D01*
X149853513Y-59433530D01*
X149847432Y-59435744D01*
X149842472Y-59439905D01*
X149842470Y-59439907D01*
X149771210Y-59499701D01*
X149771207Y-59499703D01*
X149766252Y-59503862D01*
X149763017Y-59509463D01*
X149763016Y-59509466D01*
X149716502Y-59590031D01*
X149716500Y-59590033D01*
X149713266Y-59595637D01*
X149694864Y-59700000D01*
X136079145Y-59700000D01*
X136002568Y-59635744D01*
X135996483Y-59633529D01*
X135996481Y-59633528D01*
X135909073Y-59601715D01*
X135909070Y-59601714D01*
X135902986Y-59599500D01*
X135797014Y-59599500D01*
X135790930Y-59601714D01*
X135790926Y-59601715D01*
X135703518Y-59633528D01*
X135703513Y-59633530D01*
X135697432Y-59635744D01*
X135692472Y-59639905D01*
X135692470Y-59639907D01*
X135621210Y-59699701D01*
X135621207Y-59699703D01*
X135616252Y-59703862D01*
X135613017Y-59709463D01*
X135613016Y-59709466D01*
X135566502Y-59790031D01*
X135566500Y-59790033D01*
X135563266Y-59795637D01*
X135544864Y-59900000D01*
X135545988Y-59906374D01*
X135545988Y-59906378D01*
X135549345Y-59925419D01*
X135542837Y-59970998D01*
X135510638Y-60003906D01*
X135465211Y-60011406D01*
X135424143Y-59990593D01*
X134623520Y-59189971D01*
X134617990Y-59183783D01*
X134614405Y-59179288D01*
X134610788Y-59171776D01*
X134587060Y-59152853D01*
X134580873Y-59147324D01*
X134578740Y-59145191D01*
X134575801Y-59142252D01*
X134569723Y-59138432D01*
X134562961Y-59133634D01*
X134545748Y-59119907D01*
X134545747Y-59119906D01*
X134539231Y-59114710D01*
X134531105Y-59112855D01*
X134528115Y-59111415D01*
X134524981Y-59110318D01*
X134517924Y-59105884D01*
X134509642Y-59104950D01*
X134509640Y-59104950D01*
X134487760Y-59102485D01*
X134479588Y-59101097D01*
X134472590Y-59099500D01*
X134468432Y-59099500D01*
X134465412Y-59099500D01*
X134457128Y-59099035D01*
X134435261Y-59096571D01*
X134435258Y-59096571D01*
X134426974Y-59095638D01*
X134419102Y-59098392D01*
X134413402Y-59099035D01*
X134405115Y-59099500D01*
X133844885Y-59099500D01*
X133836598Y-59099035D01*
X133830897Y-59098392D01*
X133823026Y-59095638D01*
X133814740Y-59096571D01*
X133814738Y-59096571D01*
X133792872Y-59099035D01*
X133784588Y-59099500D01*
X133777410Y-59099500D01*
X133773371Y-59100421D01*
X133773358Y-59100423D01*
X133770403Y-59101098D01*
X133762232Y-59102486D01*
X133740358Y-59104950D01*
X133740354Y-59104951D01*
X133732076Y-59105884D01*
X133725023Y-59110315D01*
X133721888Y-59111412D01*
X133718889Y-59112856D01*
X133710769Y-59114710D01*
X133704254Y-59119904D01*
X133704252Y-59119906D01*
X133687385Y-59133357D01*
X133641248Y-59149500D01*
X133597014Y-59149500D01*
X133590930Y-59151714D01*
X133590926Y-59151715D01*
X133503518Y-59183528D01*
X133503513Y-59183530D01*
X133497432Y-59185744D01*
X133492472Y-59189905D01*
X133492470Y-59189907D01*
X133421210Y-59249701D01*
X133421207Y-59249703D01*
X133416252Y-59253862D01*
X133413017Y-59259463D01*
X133413016Y-59259466D01*
X133366502Y-59340031D01*
X133366500Y-59340033D01*
X133363266Y-59345637D01*
X133362142Y-59352010D01*
X133362142Y-59352011D01*
X133353378Y-59401715D01*
X133344864Y-59450000D01*
X132925485Y-59450000D01*
X132925485Y-58750000D01*
X142432364Y-58750000D01*
X142450766Y-58854363D01*
X142503752Y-58946138D01*
X142584932Y-59014256D01*
X142684514Y-59050500D01*
X142784009Y-59050500D01*
X142790486Y-59050500D01*
X142890068Y-59014256D01*
X142971248Y-58946138D01*
X142997886Y-58900000D01*
X143444864Y-58900000D01*
X143463266Y-59004363D01*
X143466501Y-59009967D01*
X143466502Y-59009968D01*
X143488624Y-59048284D01*
X143516252Y-59096138D01*
X143597432Y-59164256D01*
X143697014Y-59200500D01*
X143796509Y-59200500D01*
X143802986Y-59200500D01*
X143902568Y-59164256D01*
X143983748Y-59096138D01*
X144036734Y-59004363D01*
X144055136Y-58900000D01*
X144036734Y-58795637D01*
X143983748Y-58703862D01*
X143902568Y-58635744D01*
X143896483Y-58633529D01*
X143896481Y-58633528D01*
X143809073Y-58601715D01*
X143809070Y-58601714D01*
X143802986Y-58599500D01*
X143697014Y-58599500D01*
X143690930Y-58601714D01*
X143690926Y-58601715D01*
X143603518Y-58633528D01*
X143603513Y-58633530D01*
X143597432Y-58635744D01*
X143592472Y-58639905D01*
X143592470Y-58639907D01*
X143521210Y-58699701D01*
X143521207Y-58699703D01*
X143516252Y-58703862D01*
X143513017Y-58709463D01*
X143513016Y-58709466D01*
X143466502Y-58790031D01*
X143466500Y-58790033D01*
X143463266Y-58795637D01*
X143444864Y-58900000D01*
X142997886Y-58900000D01*
X143024234Y-58854363D01*
X143042636Y-58750000D01*
X143024234Y-58645637D01*
X142971248Y-58553862D01*
X142890068Y-58485744D01*
X142883983Y-58483529D01*
X142883981Y-58483528D01*
X142796573Y-58451715D01*
X142796570Y-58451714D01*
X142790486Y-58449500D01*
X142684514Y-58449500D01*
X142678430Y-58451714D01*
X142678426Y-58451715D01*
X142591018Y-58483528D01*
X142591013Y-58483530D01*
X142584932Y-58485744D01*
X142579972Y-58489905D01*
X142579970Y-58489907D01*
X142508710Y-58549701D01*
X142508707Y-58549703D01*
X142503752Y-58553862D01*
X142500517Y-58559463D01*
X142500516Y-58559466D01*
X142454002Y-58640031D01*
X142454000Y-58640033D01*
X142450766Y-58645637D01*
X142432364Y-58750000D01*
X132925485Y-58750000D01*
X132925485Y-58050000D01*
X148994864Y-58050000D01*
X149013266Y-58154363D01*
X149066252Y-58246138D01*
X149147432Y-58314256D01*
X149247014Y-58350500D01*
X149346509Y-58350500D01*
X149352986Y-58350500D01*
X149452568Y-58314256D01*
X149533748Y-58246138D01*
X149586734Y-58154363D01*
X149605136Y-58050000D01*
X149586734Y-57945637D01*
X149533748Y-57853862D01*
X149452568Y-57785744D01*
X149446483Y-57783529D01*
X149446481Y-57783528D01*
X149359073Y-57751715D01*
X149359070Y-57751714D01*
X149352986Y-57749500D01*
X149247014Y-57749500D01*
X149240930Y-57751714D01*
X149240926Y-57751715D01*
X149153518Y-57783528D01*
X149153513Y-57783530D01*
X149147432Y-57785744D01*
X149142472Y-57789905D01*
X149142470Y-57789907D01*
X149071210Y-57849701D01*
X149071207Y-57849703D01*
X149066252Y-57853862D01*
X149063017Y-57859463D01*
X149063016Y-57859466D01*
X149016502Y-57940031D01*
X149016500Y-57940033D01*
X149013266Y-57945637D01*
X148994864Y-58050000D01*
X132925485Y-58050000D01*
X132925485Y-57749508D01*
X132935399Y-57712508D01*
X132962485Y-57685422D01*
X132999485Y-57675508D01*
X139806257Y-57675508D01*
X139813528Y-57676486D01*
X139813579Y-57675946D01*
X139820021Y-57676548D01*
X139826269Y-57678264D01*
X139857151Y-57675751D01*
X139863150Y-57675508D01*
X139871025Y-57675508D01*
X139874658Y-57675508D01*
X139880499Y-57674345D01*
X139888942Y-57673165D01*
X139914318Y-57671102D01*
X139920203Y-57668400D01*
X139921052Y-57668179D01*
X139936240Y-57663258D01*
X139947724Y-57660974D01*
X139967694Y-57647629D01*
X139977930Y-57641909D01*
X139994607Y-57634257D01*
X140004005Y-57624972D01*
X140014887Y-57616097D01*
X140030585Y-57605609D01*
X140039958Y-57591578D01*
X140049480Y-57580049D01*
X140057453Y-57572174D01*
X140066161Y-57553789D01*
X140071499Y-57544373D01*
X140085950Y-57522748D01*
X140087841Y-57513239D01*
X140090959Y-57503809D01*
X140092004Y-57500000D01*
X148444864Y-57500000D01*
X148445988Y-57506375D01*
X148447614Y-57515596D01*
X148463266Y-57604363D01*
X148516252Y-57696138D01*
X148597432Y-57764256D01*
X148697014Y-57800500D01*
X148796509Y-57800500D01*
X148802986Y-57800500D01*
X148902568Y-57764256D01*
X148983748Y-57696138D01*
X149036734Y-57604363D01*
X149055136Y-57500000D01*
X149036734Y-57395637D01*
X148983748Y-57303862D01*
X148902568Y-57235744D01*
X148896483Y-57233529D01*
X148896481Y-57233528D01*
X148809073Y-57201715D01*
X148809070Y-57201714D01*
X148802986Y-57199500D01*
X148697014Y-57199500D01*
X148690930Y-57201714D01*
X148690926Y-57201715D01*
X148603518Y-57233528D01*
X148603513Y-57233530D01*
X148597432Y-57235744D01*
X148592472Y-57239905D01*
X148592470Y-57239907D01*
X148521210Y-57299701D01*
X148521207Y-57299703D01*
X148516252Y-57303862D01*
X148513017Y-57309463D01*
X148513016Y-57309466D01*
X148466502Y-57390031D01*
X148466500Y-57390033D01*
X148463266Y-57395637D01*
X148462142Y-57402010D01*
X148462142Y-57402011D01*
X148460385Y-57411977D01*
X148444864Y-57500000D01*
X140092004Y-57500000D01*
X140092499Y-57498197D01*
X140095275Y-57492340D01*
X140097834Y-57465002D01*
X140098929Y-57457493D01*
X140105392Y-57425008D01*
X140103970Y-57417857D01*
X140102940Y-57410479D01*
X140103511Y-57404385D01*
X140094770Y-57370951D01*
X140093792Y-57366694D01*
X140087372Y-57334417D01*
X140085950Y-57327268D01*
X140082501Y-57322107D01*
X140080257Y-57315427D01*
X140062147Y-57246138D01*
X140017786Y-57076414D01*
X140009261Y-57050000D01*
X145844864Y-57050000D01*
X145863266Y-57154363D01*
X145916252Y-57246138D01*
X145997432Y-57314256D01*
X146097014Y-57350500D01*
X146196509Y-57350500D01*
X146202986Y-57350500D01*
X146302568Y-57314256D01*
X146383748Y-57246138D01*
X146436734Y-57154363D01*
X146455136Y-57050000D01*
X149144864Y-57050000D01*
X149163266Y-57154363D01*
X149216252Y-57246138D01*
X149297432Y-57314256D01*
X149397014Y-57350500D01*
X149496509Y-57350500D01*
X149502986Y-57350500D01*
X149602568Y-57314256D01*
X149683748Y-57246138D01*
X149736734Y-57154363D01*
X149755136Y-57050000D01*
X149736734Y-56945637D01*
X149683748Y-56853862D01*
X149602568Y-56785744D01*
X149596483Y-56783529D01*
X149596481Y-56783528D01*
X149509073Y-56751715D01*
X149509070Y-56751714D01*
X149502986Y-56749500D01*
X149397014Y-56749500D01*
X149390930Y-56751714D01*
X149390926Y-56751715D01*
X149303518Y-56783528D01*
X149303513Y-56783530D01*
X149297432Y-56785744D01*
X149292472Y-56789905D01*
X149292470Y-56789907D01*
X149221210Y-56849701D01*
X149221207Y-56849703D01*
X149216252Y-56853862D01*
X149213017Y-56859463D01*
X149213016Y-56859466D01*
X149166502Y-56940031D01*
X149166500Y-56940033D01*
X149163266Y-56945637D01*
X149144864Y-57050000D01*
X146455136Y-57050000D01*
X146436734Y-56945637D01*
X146383748Y-56853862D01*
X146302568Y-56785744D01*
X146296483Y-56783529D01*
X146296481Y-56783528D01*
X146209073Y-56751715D01*
X146209070Y-56751714D01*
X146202986Y-56749500D01*
X146097014Y-56749500D01*
X146090930Y-56751714D01*
X146090926Y-56751715D01*
X146003518Y-56783528D01*
X146003513Y-56783530D01*
X145997432Y-56785744D01*
X145992472Y-56789905D01*
X145992470Y-56789907D01*
X145921210Y-56849701D01*
X145921207Y-56849703D01*
X145916252Y-56853862D01*
X145913017Y-56859463D01*
X145913016Y-56859466D01*
X145866502Y-56940031D01*
X145866500Y-56940033D01*
X145863266Y-56945637D01*
X145844864Y-57050000D01*
X140009261Y-57050000D01*
X139836672Y-56515278D01*
X139624154Y-55965268D01*
X139436097Y-55550000D01*
X145944864Y-55550000D01*
X145963266Y-55654363D01*
X146016252Y-55746138D01*
X146097432Y-55814256D01*
X146197014Y-55850500D01*
X146296509Y-55850500D01*
X146302986Y-55850500D01*
X146402568Y-55814256D01*
X146483748Y-55746138D01*
X146536734Y-55654363D01*
X146555136Y-55550000D01*
X146536734Y-55445637D01*
X146483748Y-55353862D01*
X146402568Y-55285744D01*
X146396483Y-55283529D01*
X146396481Y-55283528D01*
X146309073Y-55251715D01*
X146309070Y-55251714D01*
X146302986Y-55249500D01*
X146197014Y-55249500D01*
X146190930Y-55251714D01*
X146190926Y-55251715D01*
X146103518Y-55283528D01*
X146103513Y-55283530D01*
X146097432Y-55285744D01*
X146092472Y-55289905D01*
X146092470Y-55289907D01*
X146021210Y-55349701D01*
X146021207Y-55349703D01*
X146016252Y-55353862D01*
X146013017Y-55359463D01*
X146013016Y-55359466D01*
X145966502Y-55440031D01*
X145966500Y-55440033D01*
X145963266Y-55445637D01*
X145944864Y-55550000D01*
X139436097Y-55550000D01*
X139380911Y-55428139D01*
X139107719Y-54905606D01*
X139104372Y-54900000D01*
X148994864Y-54900000D01*
X149013266Y-55004363D01*
X149066252Y-55096138D01*
X149147432Y-55164256D01*
X149247014Y-55200500D01*
X149346509Y-55200500D01*
X149352986Y-55200500D01*
X149452568Y-55164256D01*
X149533748Y-55096138D01*
X149586734Y-55004363D01*
X149605136Y-54900000D01*
X149586734Y-54795637D01*
X149533748Y-54703862D01*
X149452568Y-54635744D01*
X149446483Y-54633529D01*
X149446481Y-54633528D01*
X149359073Y-54601715D01*
X149359070Y-54601714D01*
X149352986Y-54599500D01*
X149247014Y-54599500D01*
X149240930Y-54601714D01*
X149240926Y-54601715D01*
X149153518Y-54633528D01*
X149153513Y-54633530D01*
X149147432Y-54635744D01*
X149142472Y-54639905D01*
X149142470Y-54639907D01*
X149071210Y-54699701D01*
X149071207Y-54699703D01*
X149066252Y-54703862D01*
X149063017Y-54709463D01*
X149063016Y-54709466D01*
X149016502Y-54790031D01*
X149016500Y-54790033D01*
X149013266Y-54795637D01*
X148994864Y-54900000D01*
X139104372Y-54900000D01*
X138805451Y-54399336D01*
X138475071Y-53910947D01*
X138426407Y-53847101D01*
X138250539Y-53616365D01*
X138235394Y-53570951D01*
X138251219Y-53525770D01*
X138291388Y-53499731D01*
X138888408Y-53350000D01*
X143994864Y-53350000D01*
X144013266Y-53454363D01*
X144066252Y-53546138D01*
X144147432Y-53614256D01*
X144247014Y-53650500D01*
X144346509Y-53650500D01*
X144352986Y-53650500D01*
X144452568Y-53614256D01*
X144533748Y-53546138D01*
X144586734Y-53454363D01*
X144605136Y-53350000D01*
X144603982Y-53343458D01*
X144602647Y-53335885D01*
X144586734Y-53245637D01*
X144533748Y-53153862D01*
X144452568Y-53085744D01*
X144446483Y-53083529D01*
X144446481Y-53083528D01*
X144359073Y-53051715D01*
X144359070Y-53051714D01*
X144352986Y-53049500D01*
X144247014Y-53049500D01*
X144240930Y-53051714D01*
X144240926Y-53051715D01*
X144153518Y-53083528D01*
X144153513Y-53083530D01*
X144147432Y-53085744D01*
X144142472Y-53089905D01*
X144142470Y-53089907D01*
X144071210Y-53149701D01*
X144071207Y-53149703D01*
X144066252Y-53153862D01*
X144063017Y-53159463D01*
X144063016Y-53159466D01*
X144016502Y-53240031D01*
X144016500Y-53240033D01*
X144013266Y-53245637D01*
X144012142Y-53252010D01*
X144012142Y-53252011D01*
X143995988Y-53343625D01*
X143994864Y-53350000D01*
X138888408Y-53350000D01*
X154522079Y-49429117D01*
X154556670Y-49428779D01*
X154587636Y-49444201D01*
G37*
G04 #@! TD.AperFunction*
M02*
