G04 #@! TF.GenerationSoftware,KiCad,Pcbnew,(7.0.0-0)*
G04 #@! TF.CreationDate,2024-01-01T11:18:48+08:00*
G04 #@! TF.ProjectId,SWDProgrammer,53574450-726f-4677-9261-6d6d65722e6b,rev?*
G04 #@! TF.SameCoordinates,Original*
G04 #@! TF.FileFunction,Copper,L4,Bot*
G04 #@! TF.FilePolarity,Positive*
%FSLAX46Y46*%
G04 Gerber Fmt 4.6, Leading zero omitted, Abs format (unit mm)*
G04 Created by KiCad (PCBNEW (7.0.0-0)) date 2024-01-01 11:18:48*
%MOMM*%
%LPD*%
G01*
G04 APERTURE LIST*
G04 Aperture macros list*
%AMRoundRect*
0 Rectangle with rounded corners*
0 $1 Rounding radius*
0 $2 $3 $4 $5 $6 $7 $8 $9 X,Y pos of 4 corners*
0 Add a 4 corners polygon primitive as box body*
4,1,4,$2,$3,$4,$5,$6,$7,$8,$9,$2,$3,0*
0 Add four circle primitives for the rounded corners*
1,1,$1+$1,$2,$3*
1,1,$1+$1,$4,$5*
1,1,$1+$1,$6,$7*
1,1,$1+$1,$8,$9*
0 Add four rect primitives between the rounded corners*
20,1,$1+$1,$2,$3,$4,$5,0*
20,1,$1+$1,$4,$5,$6,$7,0*
20,1,$1+$1,$6,$7,$8,$9,0*
20,1,$1+$1,$8,$9,$2,$3,0*%
%AMHorizOval*
0 Thick line with rounded ends*
0 $1 width*
0 $2 $3 position (X,Y) of the first rounded end (center of the circle)*
0 $4 $5 position (X,Y) of the second rounded end (center of the circle)*
0 Add line between two ends*
20,1,$1,$2,$3,$4,$5,0*
0 Add two circle primitives to create the rounded ends*
1,1,$1,$2,$3*
1,1,$1,$4,$5*%
%AMRotRect*
0 Rectangle, with rotation*
0 The origin of the aperture is its center*
0 $1 length*
0 $2 width*
0 $3 Rotation angle, in degrees counterclockwise*
0 Add horizontal line*
21,1,$1,$2,0,0,$3*%
G04 Aperture macros list end*
G04 #@! TA.AperFunction,SMDPad,CuDef*
%ADD10RoundRect,0.140000X-0.170000X0.140000X-0.170000X-0.140000X0.170000X-0.140000X0.170000X0.140000X0*%
G04 #@! TD*
G04 #@! TA.AperFunction,SMDPad,CuDef*
%ADD11RoundRect,0.100000X-0.400000X-0.400000X0.400000X-0.400000X0.400000X0.400000X-0.400000X0.400000X0*%
G04 #@! TD*
G04 #@! TA.AperFunction,SMDPad,CuDef*
%ADD12RoundRect,0.140000X0.140000X0.170000X-0.140000X0.170000X-0.140000X-0.170000X0.140000X-0.170000X0*%
G04 #@! TD*
G04 #@! TA.AperFunction,SMDPad,CuDef*
%ADD13RoundRect,0.135000X0.185000X-0.135000X0.185000X0.135000X-0.185000X0.135000X-0.185000X-0.135000X0*%
G04 #@! TD*
G04 #@! TA.AperFunction,SMDPad,CuDef*
%ADD14R,1.000000X1.800000*%
G04 #@! TD*
G04 #@! TA.AperFunction,SMDPad,CuDef*
%ADD15RoundRect,0.135000X0.135000X0.185000X-0.135000X0.185000X-0.135000X-0.185000X0.135000X-0.185000X0*%
G04 #@! TD*
G04 #@! TA.AperFunction,SMDPad,CuDef*
%ADD16RoundRect,0.150000X0.512500X0.150000X-0.512500X0.150000X-0.512500X-0.150000X0.512500X-0.150000X0*%
G04 #@! TD*
G04 #@! TA.AperFunction,SMDPad,CuDef*
%ADD17RoundRect,0.135000X-0.185000X0.135000X-0.185000X-0.135000X0.185000X-0.135000X0.185000X0.135000X0*%
G04 #@! TD*
G04 #@! TA.AperFunction,SMDPad,CuDef*
%ADD18RoundRect,0.140000X0.170000X-0.140000X0.170000X0.140000X-0.170000X0.140000X-0.170000X-0.140000X0*%
G04 #@! TD*
G04 #@! TA.AperFunction,SMDPad,CuDef*
%ADD19RoundRect,0.135000X-0.135000X-0.185000X0.135000X-0.185000X0.135000X0.185000X-0.135000X0.185000X0*%
G04 #@! TD*
G04 #@! TA.AperFunction,SMDPad,CuDef*
%ADD20RoundRect,0.147500X-0.172500X0.147500X-0.172500X-0.147500X0.172500X-0.147500X0.172500X0.147500X0*%
G04 #@! TD*
G04 #@! TA.AperFunction,SMDPad,CuDef*
%ADD21RoundRect,0.075000X-0.075000X0.662500X-0.075000X-0.662500X0.075000X-0.662500X0.075000X0.662500X0*%
G04 #@! TD*
G04 #@! TA.AperFunction,SMDPad,CuDef*
%ADD22RoundRect,0.075000X-0.662500X0.075000X-0.662500X-0.075000X0.662500X-0.075000X0.662500X0.075000X0*%
G04 #@! TD*
G04 #@! TA.AperFunction,SMDPad,CuDef*
%ADD23RoundRect,0.140000X-0.140000X-0.170000X0.140000X-0.170000X0.140000X0.170000X-0.140000X0.170000X0*%
G04 #@! TD*
G04 #@! TA.AperFunction,SMDPad,CuDef*
%ADD24RotRect,0.540000X0.800000X58.000000*%
G04 #@! TD*
G04 #@! TA.AperFunction,SMDPad,CuDef*
%ADD25RotRect,0.300000X0.800000X58.000000*%
G04 #@! TD*
G04 #@! TA.AperFunction,ComponentPad*
%ADD26HorizOval,1.000000X-0.508829X0.317952X0.508829X-0.317952X0*%
G04 #@! TD*
G04 #@! TA.AperFunction,ComponentPad*
%ADD27HorizOval,1.000000X-0.339219X0.211968X0.339219X-0.211968X0*%
G04 #@! TD*
G04 #@! TA.AperFunction,SMDPad,CuDef*
%ADD28R,1.400000X1.200000*%
G04 #@! TD*
G04 #@! TA.AperFunction,SMDPad,CuDef*
%ADD29RoundRect,0.147500X-0.147500X-0.172500X0.147500X-0.172500X0.147500X0.172500X-0.147500X0.172500X0*%
G04 #@! TD*
G04 #@! TA.AperFunction,SMDPad,CuDef*
%ADD30RotRect,0.540000X0.800000X98.000000*%
G04 #@! TD*
G04 #@! TA.AperFunction,SMDPad,CuDef*
%ADD31RotRect,0.300000X0.800000X98.000000*%
G04 #@! TD*
G04 #@! TA.AperFunction,ComponentPad*
%ADD32HorizOval,1.000000X0.594161X0.083504X-0.594161X-0.083504X0*%
G04 #@! TD*
G04 #@! TA.AperFunction,ComponentPad*
%ADD33HorizOval,1.000000X0.396107X0.055669X-0.396107X-0.055669X0*%
G04 #@! TD*
G04 #@! TA.AperFunction,ViaPad*
%ADD34C,0.300000*%
G04 #@! TD*
G04 #@! TA.AperFunction,Conductor*
%ADD35C,0.100000*%
G04 #@! TD*
G04 APERTURE END LIST*
D10*
X149350000Y-65600000D03*
X149350000Y-66560000D03*
D11*
X144350000Y-54750000D03*
X148350000Y-54750000D03*
X144350000Y-52550000D03*
X148350000Y-52550000D03*
D12*
X147630000Y-58250000D03*
X146670000Y-58250000D03*
D13*
X137550000Y-68550001D03*
X137550000Y-67530001D03*
D14*
X147049999Y-56599999D03*
X144549999Y-56599999D03*
D15*
X147744721Y-67588413D03*
X146724721Y-67588413D03*
D16*
X143287500Y-69900000D03*
X143287500Y-70850000D03*
X143287500Y-71800000D03*
X141012500Y-71800000D03*
X141012500Y-69900000D03*
D17*
X144700000Y-71550000D03*
X144700000Y-72570000D03*
D12*
X143299763Y-57160534D03*
X142339763Y-57160534D03*
D18*
X138650000Y-69080000D03*
X138650000Y-68120000D03*
D19*
X144740000Y-70600000D03*
X145760000Y-70600000D03*
D12*
X143780000Y-58250000D03*
X142820000Y-58250000D03*
D20*
X137650000Y-58365000D03*
X137650000Y-59335000D03*
D18*
X139600000Y-70610000D03*
X139600000Y-69650000D03*
D12*
X145674714Y-58268919D03*
X144714714Y-58268919D03*
D21*
X139737500Y-59737500D03*
X140237500Y-59737500D03*
X140737500Y-59737500D03*
X141237500Y-59737500D03*
X141737500Y-59737500D03*
X142237500Y-59737500D03*
X142737500Y-59737500D03*
X143237500Y-59737500D03*
X143737500Y-59737500D03*
X144237500Y-59737500D03*
X144737500Y-59737500D03*
X145237500Y-59737500D03*
D22*
X146650000Y-61150000D03*
X146650000Y-61650000D03*
X146650000Y-62150000D03*
X146650000Y-62650000D03*
X146650000Y-63150000D03*
X146650000Y-63650000D03*
X146650000Y-64150000D03*
X146650000Y-64650000D03*
X146650000Y-65150000D03*
X146650000Y-65650000D03*
X146650000Y-66150000D03*
X146650000Y-66650000D03*
D21*
X145237500Y-68062500D03*
X144737500Y-68062500D03*
X144237500Y-68062500D03*
X143737500Y-68062500D03*
X143237500Y-68062500D03*
X142737500Y-68062500D03*
X142237500Y-68062500D03*
X141737500Y-68062500D03*
X141237500Y-68062500D03*
X140737500Y-68062500D03*
X140237500Y-68062500D03*
X139737500Y-68062500D03*
D22*
X138325000Y-66650000D03*
X138325000Y-66150000D03*
X138325000Y-65650000D03*
X138325000Y-65150000D03*
X138325000Y-64650000D03*
X138325000Y-64150000D03*
X138325000Y-63650000D03*
X138325000Y-63150000D03*
X138325000Y-62650000D03*
X138325000Y-62150000D03*
X138325000Y-61650000D03*
X138325000Y-61150000D03*
D19*
X148199999Y-62550000D03*
X149219999Y-62550000D03*
D23*
X137340000Y-60250000D03*
X138300000Y-60250000D03*
D24*
X145589689Y-73510425D03*
X148981172Y-68082918D03*
X146013624Y-72831987D03*
X148557236Y-68761356D03*
D25*
X147947829Y-69736611D03*
X147417910Y-70584660D03*
X147152950Y-71008684D03*
X146623031Y-71856732D03*
X146358071Y-72280756D03*
X146887991Y-71432708D03*
X147682870Y-70160635D03*
X148217028Y-69305803D03*
D26*
X148316797Y-78015415D03*
X154225715Y-68559170D03*
D27*
X151003291Y-66545222D03*
X145094215Y-76001721D03*
D10*
X148300000Y-65700000D03*
X148300000Y-66660000D03*
D28*
X140499999Y-54049999D03*
X142699999Y-54049999D03*
X142699999Y-55749999D03*
X140499999Y-55749999D03*
D23*
X142220000Y-73050000D03*
X143180000Y-73050000D03*
D29*
X148250000Y-61600000D03*
X149220000Y-61600000D03*
D23*
X140440000Y-57150000D03*
X141400000Y-57150000D03*
D17*
X138650000Y-58340000D03*
X138650000Y-59360000D03*
D13*
X148350000Y-56919999D03*
X148350000Y-55899999D03*
D19*
X144749999Y-69600000D03*
X145769999Y-69600000D03*
D30*
X150596342Y-60382177D03*
X149705634Y-54044462D03*
X150485003Y-59589963D03*
X149816972Y-54836676D03*
D31*
X149977021Y-55975484D03*
X150116194Y-56965753D03*
X150185781Y-57460887D03*
X150324954Y-58451155D03*
X150394541Y-58946289D03*
X150255367Y-57956021D03*
X150046608Y-56470619D03*
X149906321Y-55472428D03*
D32*
X155581179Y-62080248D03*
X154029316Y-51038164D03*
D33*
X150266255Y-51566725D03*
X151818161Y-62609105D03*
D15*
X149260000Y-64550000D03*
X148240000Y-64550000D03*
X149260000Y-63500000D03*
X148240000Y-63500000D03*
D19*
X146175532Y-68598922D03*
X147195532Y-68598922D03*
D15*
X141710000Y-58200000D03*
X140690000Y-58200000D03*
D13*
X149200000Y-60210000D03*
X149200000Y-59190000D03*
D34*
X145250000Y-54500000D03*
X138000000Y-69250000D03*
X145150000Y-71550000D03*
X143300000Y-58700000D03*
X144150000Y-70900000D03*
X140250000Y-67000000D03*
X147750000Y-66450000D03*
X141050000Y-70550000D03*
X149800000Y-61600000D03*
X143750000Y-58900000D03*
X138900000Y-60600000D03*
X136950000Y-68450000D03*
X142737500Y-58750000D03*
X138300000Y-67350000D03*
X146150000Y-57050000D03*
X140200000Y-61000000D03*
X147850000Y-68450000D03*
X143800000Y-73200000D03*
X146550000Y-70450000D03*
X146000000Y-69600000D03*
X147100000Y-69700000D03*
X149750000Y-64600000D03*
X149800000Y-63500000D03*
X150000000Y-59700000D03*
X149300000Y-54900000D03*
X135850000Y-59900000D03*
X146250000Y-55550000D03*
X139850000Y-63400000D03*
X147750000Y-63500000D03*
X141350000Y-61900000D03*
X141300000Y-63250000D03*
X149450000Y-57050000D03*
X136350000Y-61100000D03*
X149300000Y-58050000D03*
X135700000Y-61400000D03*
X148750000Y-57500000D03*
X133650000Y-59450000D03*
X145450000Y-62850000D03*
X134000000Y-59750000D03*
X143300000Y-66900000D03*
X133700000Y-60200000D03*
X144300000Y-53350000D03*
D35*
X138650000Y-69080000D02*
X138170000Y-69080000D01*
X143237500Y-58762500D02*
X143300000Y-58700000D01*
X138170000Y-69080000D02*
X138000000Y-69250000D01*
X140237500Y-68062500D02*
X140237500Y-67012500D01*
X144700000Y-71550000D02*
X145150000Y-71550000D01*
X145000000Y-54750000D02*
X145250000Y-54500000D01*
X144350000Y-54750000D02*
X145000000Y-54750000D01*
X140237500Y-67012500D02*
X140250000Y-67000000D01*
X143330000Y-58700000D02*
X143780000Y-58250000D01*
X144100000Y-70850000D02*
X144150000Y-70900000D01*
X143237500Y-59737500D02*
X143237500Y-58762500D01*
X143300000Y-58700000D02*
X143330000Y-58700000D01*
X143287500Y-70850000D02*
X144100000Y-70850000D01*
X141710000Y-58200000D02*
X142237500Y-58727500D01*
X142237500Y-58727500D02*
X142237500Y-59737500D01*
X142339763Y-57160534D02*
X142700000Y-56800297D01*
X142700000Y-56800297D02*
X142700000Y-55750000D01*
X141710000Y-58200000D02*
X142339763Y-57570237D01*
X142339763Y-57570237D02*
X142339763Y-57160534D01*
X141400000Y-57490000D02*
X141400000Y-57150000D01*
X141737500Y-59181802D02*
X140755698Y-58200000D01*
X141400000Y-57150000D02*
X141400000Y-54950000D01*
X141737500Y-59737500D02*
X141737500Y-59181802D01*
X140690000Y-58200000D02*
X141400000Y-57490000D01*
X140755698Y-58200000D02*
X140690000Y-58200000D01*
X141400000Y-54950000D02*
X140500000Y-54050000D01*
X138300000Y-61125000D02*
X138325000Y-61150000D01*
X147960000Y-66660000D02*
X147750000Y-66450000D01*
X141012500Y-70512500D02*
X141050000Y-70550000D01*
X139600000Y-68200000D02*
X139737500Y-68062500D01*
X138650000Y-68120000D02*
X138707500Y-68062500D01*
X137550000Y-68550001D02*
X137050001Y-68550001D01*
X146660000Y-66660000D02*
X146650000Y-66650000D01*
X137650000Y-59335000D02*
X137650000Y-59600000D01*
X138300000Y-60250000D02*
X138300000Y-60600000D01*
X138300000Y-60600000D02*
X138300000Y-61125000D01*
X139600000Y-69650000D02*
X139850000Y-69900000D01*
X137050001Y-68550001D02*
X136950000Y-68450000D01*
X138707500Y-68062500D02*
X139737500Y-68062500D01*
X139850000Y-69900000D02*
X141012500Y-69900000D01*
X141012500Y-69900000D02*
X141012500Y-70512500D01*
X137550000Y-68550001D02*
X138219999Y-68550001D01*
X148300000Y-66660000D02*
X147960000Y-66660000D01*
X137650000Y-59600000D02*
X138300000Y-60250000D01*
X138219999Y-68550001D02*
X138650000Y-68120000D01*
X138300000Y-60600000D02*
X138900000Y-60600000D01*
X139600000Y-69650000D02*
X139600000Y-68200000D01*
X143737500Y-58912500D02*
X143750000Y-58900000D01*
X143737500Y-59737500D02*
X143737500Y-58912500D01*
X148300000Y-66660000D02*
X146660000Y-66660000D01*
X149220000Y-61600000D02*
X149800000Y-61600000D01*
X138119999Y-67530001D02*
X138300000Y-67350000D01*
X142820000Y-58667500D02*
X142737500Y-58750000D01*
X142820000Y-58250000D02*
X142820000Y-58667500D01*
X137550000Y-67530001D02*
X138119999Y-67530001D01*
X142737500Y-59737500D02*
X142737500Y-58750000D01*
X147744721Y-67588413D02*
X147744721Y-68344721D01*
X143150736Y-71800000D02*
X142475000Y-71124264D01*
X143150736Y-69900000D02*
X143287500Y-69900000D01*
X143650000Y-73050000D02*
X143800000Y-73200000D01*
X145190095Y-72990095D02*
X145348202Y-72831988D01*
X147744721Y-67588413D02*
X148321587Y-67588413D01*
X144397044Y-72990095D02*
X145190095Y-72990095D01*
X142475000Y-71124264D02*
X142475000Y-70575736D01*
X143180000Y-73050000D02*
X143650000Y-73050000D01*
X143180000Y-73050000D02*
X143180000Y-71907500D01*
X143287500Y-71800000D02*
X143150736Y-71800000D01*
X143287500Y-71880551D02*
X144397044Y-72990095D01*
X147744721Y-67588413D02*
X147744721Y-67948841D01*
X148321587Y-67588413D02*
X149350000Y-66560000D01*
X145348202Y-72831988D02*
X146013625Y-72831988D01*
X147744721Y-68344721D02*
X147850000Y-68450000D01*
X142475000Y-70575736D02*
X143150736Y-69900000D01*
X143180000Y-71907500D02*
X143287500Y-71800000D01*
X147744721Y-67948841D02*
X148557237Y-68761357D01*
X143287500Y-71800000D02*
X143287500Y-71880551D01*
X148250000Y-61600000D02*
X148250000Y-62499999D01*
X148250000Y-62499999D02*
X148199999Y-62550000D01*
X147195532Y-68598922D02*
X147195532Y-68984314D01*
X147195532Y-68984314D02*
X147947830Y-69736612D01*
X146055283Y-70600000D02*
X146887992Y-71432709D01*
X146724721Y-69891471D02*
X147417911Y-70584661D01*
X146724721Y-67588413D02*
X146724721Y-69891471D01*
X146724721Y-69635279D02*
X146724721Y-69400000D01*
X145760000Y-70600000D02*
X146724721Y-69635279D01*
X145760000Y-70600000D02*
X146055283Y-70600000D01*
X147682871Y-70160636D02*
X147560636Y-70160636D01*
X145769999Y-69600000D02*
X146000000Y-69600000D01*
X147108685Y-71008685D02*
X146550000Y-70450000D01*
X147560636Y-70160636D02*
X147100000Y-69700000D01*
X147152951Y-71008685D02*
X147108685Y-71008685D01*
X146067790Y-71990475D02*
X146358072Y-72280757D01*
X144700000Y-72570000D02*
X145279525Y-71990475D01*
X145279525Y-71990475D02*
X146067790Y-71990475D01*
X149700000Y-64550000D02*
X149750000Y-64600000D01*
X149260000Y-64550000D02*
X149700000Y-64550000D01*
X149260000Y-63500000D02*
X149800000Y-63500000D01*
X150110036Y-59589964D02*
X150000000Y-59700000D01*
X149816973Y-54836677D02*
X149363323Y-54836677D01*
X149363323Y-54836677D02*
X149300000Y-54900000D01*
X150485004Y-59589964D02*
X150110036Y-59589964D01*
X148350000Y-55899999D02*
X148425486Y-55975485D01*
X148425486Y-55975485D02*
X149977022Y-55975485D01*
X146670000Y-59643540D02*
X145488541Y-60825000D01*
X145488541Y-60825000D02*
X141269302Y-60825000D01*
X141269302Y-60825000D02*
X140737500Y-60293198D01*
X146670000Y-58250000D02*
X146670000Y-59643540D01*
X147050000Y-56600000D02*
X147050000Y-57870000D01*
X140737500Y-60293198D02*
X140737500Y-59737500D01*
X147050000Y-57870000D02*
X146670000Y-58250000D01*
X145674714Y-57724714D02*
X145674714Y-58268919D01*
X141237500Y-60293198D02*
X141237500Y-59737500D01*
X145674714Y-58268919D02*
X145674714Y-60355984D01*
X141569302Y-60625000D02*
X141237500Y-60293198D01*
X145405698Y-60625000D02*
X141569302Y-60625000D01*
X144550000Y-56600000D02*
X145674714Y-57724714D01*
X145674714Y-60355984D02*
X145405698Y-60625000D01*
X138650000Y-58340000D02*
X137675000Y-58340000D01*
X137675000Y-58340000D02*
X137650000Y-58365000D01*
X139850000Y-63400000D02*
X139600000Y-63150000D01*
X139600000Y-63150000D02*
X138325000Y-63150000D01*
X147750000Y-63500000D02*
X148240000Y-63500000D01*
X146750000Y-64550000D02*
X146650000Y-64650000D01*
X148240000Y-64550000D02*
X146750000Y-64550000D01*
X140237500Y-60293198D02*
X140237500Y-59737500D01*
X138650000Y-59360000D02*
X138650000Y-59705698D01*
X139569302Y-60625000D02*
X139905698Y-60625000D01*
X138650000Y-59705698D02*
X139569302Y-60625000D01*
X139905698Y-60625000D02*
X140237500Y-60293198D01*
X141900000Y-69150000D02*
X144299999Y-69150000D01*
X144299999Y-69150000D02*
X144749999Y-69600000D01*
X141737500Y-68062500D02*
X141737500Y-68987500D01*
X141737500Y-68987500D02*
X141900000Y-69150000D01*
X144740000Y-70600000D02*
X144100000Y-69960000D01*
X144100000Y-69960000D02*
X144100000Y-69625736D01*
X141650000Y-69350000D02*
X141237500Y-68937500D01*
X141237500Y-68937500D02*
X141237500Y-68062500D01*
X143824264Y-69350000D02*
X141650000Y-69350000D01*
X144100000Y-69625736D02*
X143824264Y-69350000D01*
X142737500Y-63287500D02*
X141350000Y-61900000D01*
X142737500Y-68062500D02*
X142737500Y-63287500D01*
X142237500Y-64187500D02*
X142237500Y-68062500D01*
X141300000Y-63250000D02*
X142237500Y-64187500D01*
X149393978Y-57956022D02*
X149300000Y-58050000D01*
X149534246Y-56965754D02*
X150116195Y-56965754D01*
X149450000Y-57050000D02*
X149534246Y-56965754D01*
X150255368Y-57956022D02*
X149393978Y-57956022D01*
X148900000Y-57500000D02*
X149100000Y-57300000D01*
X149100000Y-56700000D02*
X149329380Y-56470620D01*
X149100000Y-57300000D02*
X149100000Y-56700000D01*
X148750000Y-57500000D02*
X148900000Y-57500000D01*
X149260888Y-57460888D02*
X149100000Y-57300000D01*
X150185782Y-57460888D02*
X149260888Y-57460888D01*
X149329380Y-56470620D02*
X150046609Y-56470620D01*
X149200000Y-59190000D02*
X149443710Y-58946290D01*
X149443710Y-58946290D02*
X150394542Y-58946290D01*
X146650000Y-62150000D02*
X145800000Y-62150000D01*
X145450000Y-62500000D02*
X145450000Y-62850000D01*
X145800000Y-62150000D02*
X145450000Y-62500000D01*
X144237500Y-67187500D02*
X143950000Y-66900000D01*
X144237500Y-68062500D02*
X144237500Y-67187500D01*
X143950000Y-66900000D02*
X143300000Y-66900000D01*
X144350000Y-52550000D02*
X144350000Y-53300000D01*
X144350000Y-53300000D02*
X144300000Y-53350000D01*
X144350000Y-52550000D02*
X148350000Y-52550000D01*
G04 #@! TA.AperFunction,Conductor*
G36*
X137348317Y-66488954D02*
G01*
X137382109Y-66486714D01*
X137421694Y-66513138D01*
X137437000Y-66558204D01*
X137437000Y-66743568D01*
X137437000Y-66743577D01*
X137437001Y-66747210D01*
X137437710Y-66750776D01*
X137437711Y-66750783D01*
X137447954Y-66802285D01*
X137450083Y-66812986D01*
X137467694Y-66839343D01*
X137489849Y-66872501D01*
X137499923Y-66887577D01*
X137505983Y-66891626D01*
X137568452Y-66933367D01*
X137568453Y-66933367D01*
X137574514Y-66937417D01*
X137640289Y-66950500D01*
X138107760Y-66950499D01*
X138152806Y-66965790D01*
X138179237Y-67005343D01*
X138176128Y-67052813D01*
X138147344Y-67085639D01*
X138147432Y-67085744D01*
X138146753Y-67086313D01*
X138146750Y-67086315D01*
X138142478Y-67089900D01*
X138142474Y-67089903D01*
X138071210Y-67149701D01*
X138071207Y-67149703D01*
X138066252Y-67153862D01*
X138063017Y-67159463D01*
X138063016Y-67159466D01*
X138052747Y-67177253D01*
X138019934Y-67207320D01*
X137975811Y-67213129D01*
X137936335Y-67192579D01*
X137903989Y-67160233D01*
X137899141Y-67155385D01*
X137892868Y-67152615D01*
X137806586Y-67114517D01*
X137806582Y-67114516D01*
X137801498Y-67112271D01*
X137795977Y-67111630D01*
X137795972Y-67111629D01*
X137779751Y-67109747D01*
X137779735Y-67109746D01*
X137777623Y-67109501D01*
X137775479Y-67109501D01*
X137324523Y-67109501D01*
X137324505Y-67109501D01*
X137322378Y-67109502D01*
X137320252Y-67109748D01*
X137320244Y-67109749D01*
X137304033Y-67111629D01*
X137304029Y-67111629D01*
X137298502Y-67112271D01*
X137293413Y-67114517D01*
X137293409Y-67114519D01*
X137207131Y-67152615D01*
X137207128Y-67152616D01*
X137200859Y-67155385D01*
X137196013Y-67160230D01*
X137196010Y-67160233D01*
X137130232Y-67226011D01*
X137130229Y-67226014D01*
X137125384Y-67230860D01*
X137122615Y-67237129D01*
X137122614Y-67237132D01*
X137084516Y-67323414D01*
X137084514Y-67323420D01*
X137082270Y-67328503D01*
X137081629Y-67334021D01*
X137081628Y-67334028D01*
X137079746Y-67350249D01*
X137079745Y-67350266D01*
X137079500Y-67352378D01*
X137079500Y-67354520D01*
X137079500Y-67354521D01*
X137079500Y-67705477D01*
X137079500Y-67705494D01*
X137079501Y-67707623D01*
X137079747Y-67709749D01*
X137079748Y-67709756D01*
X137081413Y-67724117D01*
X137082270Y-67731499D01*
X137084517Y-67736588D01*
X137084518Y-67736591D01*
X137119597Y-67816036D01*
X137125384Y-67829142D01*
X137200859Y-67904617D01*
X137286392Y-67942384D01*
X137293408Y-67945482D01*
X137298502Y-67947731D01*
X137322377Y-67950501D01*
X137777622Y-67950500D01*
X137801498Y-67947731D01*
X137899141Y-67904617D01*
X137974616Y-67829142D01*
X137998694Y-67774610D01*
X138025990Y-67742501D01*
X138066389Y-67730501D01*
X138075114Y-67730501D01*
X138083401Y-67730966D01*
X138089100Y-67731608D01*
X138096973Y-67734363D01*
X138127127Y-67730965D01*
X138135411Y-67730501D01*
X138138428Y-67730501D01*
X138142589Y-67730501D01*
X138146644Y-67729575D01*
X138150772Y-67729110D01*
X138150950Y-67730697D01*
X138183764Y-67732378D01*
X138217014Y-67755328D01*
X138233254Y-67792321D01*
X138227644Y-67832331D01*
X138194564Y-67907249D01*
X138194562Y-67907254D01*
X138192318Y-67912338D01*
X138191677Y-67917856D01*
X138191676Y-67917863D01*
X138189746Y-67934498D01*
X138189745Y-67934515D01*
X138189500Y-67936627D01*
X138189500Y-67938770D01*
X138189500Y-68266298D01*
X138183867Y-68294617D01*
X138167826Y-68318624D01*
X138158623Y-68327827D01*
X138134616Y-68343868D01*
X138106297Y-68349501D01*
X138066389Y-68349501D01*
X138025990Y-68337501D01*
X137998694Y-68305391D01*
X137984354Y-68272914D01*
X137974616Y-68250860D01*
X137899141Y-68175385D01*
X137891373Y-68171955D01*
X137806586Y-68134517D01*
X137806582Y-68134516D01*
X137801498Y-68132271D01*
X137795977Y-68131630D01*
X137795972Y-68131629D01*
X137779751Y-68129747D01*
X137779735Y-68129746D01*
X137777623Y-68129501D01*
X137775479Y-68129501D01*
X137324523Y-68129501D01*
X137324505Y-68129501D01*
X137322378Y-68129502D01*
X137320252Y-68129748D01*
X137320244Y-68129749D01*
X137304033Y-68131629D01*
X137304029Y-68131629D01*
X137298502Y-68132271D01*
X137293413Y-68134517D01*
X137293409Y-68134519D01*
X137207131Y-68172615D01*
X137207128Y-68172616D01*
X137200859Y-68175385D01*
X137196010Y-68180233D01*
X137190355Y-68184108D01*
X137189376Y-68182680D01*
X137154972Y-68199642D01*
X137108320Y-68190362D01*
X137107523Y-68189902D01*
X137102568Y-68185744D01*
X137096487Y-68183531D01*
X137096486Y-68183530D01*
X137009073Y-68151715D01*
X137009070Y-68151714D01*
X137002986Y-68149500D01*
X136897014Y-68149500D01*
X136890930Y-68151714D01*
X136890926Y-68151715D01*
X136803518Y-68183528D01*
X136803513Y-68183530D01*
X136797432Y-68185744D01*
X136792472Y-68189905D01*
X136792470Y-68189907D01*
X136721210Y-68249701D01*
X136721207Y-68249703D01*
X136716252Y-68253862D01*
X136713017Y-68259463D01*
X136713016Y-68259466D01*
X136666502Y-68340031D01*
X136666500Y-68340033D01*
X136663266Y-68345637D01*
X136644864Y-68450000D01*
X136663266Y-68554363D01*
X136716252Y-68646138D01*
X136721214Y-68650301D01*
X136721274Y-68650373D01*
X136721906Y-68651890D01*
X136724264Y-68652861D01*
X136797432Y-68714256D01*
X136897014Y-68750500D01*
X136996510Y-68750500D01*
X137002986Y-68750500D01*
X137004961Y-68749780D01*
X137020788Y-68749286D01*
X137023355Y-68749575D01*
X137027411Y-68750501D01*
X137033611Y-68750501D01*
X137034858Y-68750871D01*
X137035697Y-68750966D01*
X137035680Y-68751115D01*
X137074010Y-68762501D01*
X137101306Y-68794611D01*
X137114430Y-68824335D01*
X137125384Y-68849142D01*
X137200859Y-68924617D01*
X137285765Y-68962107D01*
X137293408Y-68965482D01*
X137298502Y-68967731D01*
X137322377Y-68970501D01*
X137777622Y-68970500D01*
X137801498Y-68967731D01*
X137899141Y-68924617D01*
X137974616Y-68849142D01*
X137998694Y-68794610D01*
X138025990Y-68762501D01*
X138066389Y-68750501D01*
X138133093Y-68750501D01*
X138178592Y-68766141D01*
X138204858Y-68806451D01*
X138200788Y-68854391D01*
X138195061Y-68867359D01*
X138192171Y-68877983D01*
X138190246Y-68894573D01*
X138190000Y-68898845D01*
X138190000Y-68920257D01*
X138192059Y-68927940D01*
X138199743Y-68930000D01*
X139100257Y-68930000D01*
X139107940Y-68927940D01*
X139110000Y-68920257D01*
X139110000Y-68898845D01*
X139109753Y-68894573D01*
X139107828Y-68877983D01*
X139104939Y-68867362D01*
X139066161Y-68779541D01*
X139058545Y-68768424D01*
X138991575Y-68701454D01*
X138980458Y-68693838D01*
X138921868Y-68667968D01*
X138889759Y-68640671D01*
X138877759Y-68600273D01*
X138889760Y-68559874D01*
X138921869Y-68532578D01*
X138987016Y-68503813D01*
X139063813Y-68427016D01*
X139107682Y-68327662D01*
X139108323Y-68322134D01*
X139109565Y-68317572D01*
X139136034Y-68278205D01*
X139180969Y-68263000D01*
X139325500Y-68263000D01*
X139362500Y-68272914D01*
X139389586Y-68300000D01*
X139399500Y-68337000D01*
X139399500Y-69157691D01*
X139387499Y-69198090D01*
X139355390Y-69225386D01*
X139269256Y-69263417D01*
X139269253Y-69263418D01*
X139262984Y-69266187D01*
X139258138Y-69271032D01*
X139258135Y-69271035D01*
X139236326Y-69292845D01*
X139198437Y-69313097D01*
X139155681Y-69308886D01*
X139122471Y-69281631D01*
X139112611Y-69249127D01*
X139112521Y-69249152D01*
X139111781Y-69246390D01*
X139110000Y-69240519D01*
X139110000Y-69239743D01*
X139107940Y-69232059D01*
X139100257Y-69230000D01*
X138809743Y-69230000D01*
X138802059Y-69232059D01*
X138800000Y-69239743D01*
X138800000Y-69500257D01*
X138802059Y-69507940D01*
X138809743Y-69510000D01*
X138861155Y-69510000D01*
X138865426Y-69509753D01*
X138882016Y-69507828D01*
X138892637Y-69504939D01*
X138980458Y-69466161D01*
X138991574Y-69458546D01*
X139013173Y-69436947D01*
X139051062Y-69416694D01*
X139093818Y-69420905D01*
X139127028Y-69448159D01*
X139139500Y-69489272D01*
X139139500Y-69831226D01*
X139139500Y-69831243D01*
X139139501Y-69833372D01*
X139139747Y-69835498D01*
X139139748Y-69835505D01*
X139141676Y-69852131D01*
X139141676Y-69852134D01*
X139142318Y-69857662D01*
X139144565Y-69862752D01*
X139144566Y-69862754D01*
X139150835Y-69876951D01*
X139186187Y-69957016D01*
X139262984Y-70033813D01*
X139273142Y-70038298D01*
X139328130Y-70062578D01*
X139360239Y-70089874D01*
X139372240Y-70130273D01*
X139360240Y-70170671D01*
X139328131Y-70197967D01*
X139269545Y-70223835D01*
X139258424Y-70231454D01*
X139191454Y-70298424D01*
X139183838Y-70309541D01*
X139145060Y-70397362D01*
X139142171Y-70407983D01*
X139140246Y-70424573D01*
X139140000Y-70428845D01*
X139140000Y-70450257D01*
X139142059Y-70457940D01*
X139149743Y-70460000D01*
X140050257Y-70460000D01*
X140057940Y-70457940D01*
X140060000Y-70450257D01*
X140060000Y-70428845D01*
X140059753Y-70424573D01*
X140057828Y-70407983D01*
X140054939Y-70397362D01*
X140016161Y-70309541D01*
X140008545Y-70298424D01*
X139936947Y-70226826D01*
X139916695Y-70188937D01*
X139920906Y-70146181D01*
X139948161Y-70112971D01*
X139989273Y-70100500D01*
X140145590Y-70100500D01*
X140185989Y-70112500D01*
X140213285Y-70144610D01*
X140239521Y-70204028D01*
X140247794Y-70222765D01*
X140327235Y-70302206D01*
X140430009Y-70347585D01*
X140455135Y-70350500D01*
X140693406Y-70350500D01*
X140737595Y-70365143D01*
X140764297Y-70403275D01*
X140763066Y-70445601D01*
X140763266Y-70445637D01*
X140763025Y-70447000D01*
X140763024Y-70447004D01*
X140762143Y-70452005D01*
X140762141Y-70452011D01*
X140746257Y-70542098D01*
X140744864Y-70550000D01*
X140763266Y-70654363D01*
X140816252Y-70746138D01*
X140897432Y-70814256D01*
X140997014Y-70850500D01*
X141096509Y-70850500D01*
X141102986Y-70850500D01*
X141202568Y-70814256D01*
X141283748Y-70746138D01*
X141336734Y-70654363D01*
X141355136Y-70550000D01*
X141336734Y-70445637D01*
X141336934Y-70445601D01*
X141335701Y-70403278D01*
X141362402Y-70365143D01*
X141406593Y-70350499D01*
X141567719Y-70350499D01*
X141569864Y-70350499D01*
X141594991Y-70347585D01*
X141697765Y-70302206D01*
X141777206Y-70222765D01*
X141822585Y-70119991D01*
X141825500Y-70094865D01*
X141825499Y-69705136D01*
X141822585Y-69680009D01*
X141811272Y-69654389D01*
X141807203Y-69606451D01*
X141833469Y-69566141D01*
X141878968Y-69550500D01*
X142421032Y-69550500D01*
X142466531Y-69566141D01*
X142492797Y-69606451D01*
X142488727Y-69654390D01*
X142479661Y-69674920D01*
X142479659Y-69674925D01*
X142477415Y-69680009D01*
X142476774Y-69685527D01*
X142476773Y-69685534D01*
X142474746Y-69703006D01*
X142474745Y-69703023D01*
X142474500Y-69705135D01*
X142474500Y-69707277D01*
X142474500Y-69707278D01*
X142474500Y-70092718D01*
X142474500Y-70092735D01*
X142474501Y-70094864D01*
X142474747Y-70096990D01*
X142474748Y-70096997D01*
X142476773Y-70114460D01*
X142476773Y-70114463D01*
X142477415Y-70119991D01*
X142479662Y-70125079D01*
X142479663Y-70125083D01*
X142508943Y-70191396D01*
X142513988Y-70234884D01*
X142493574Y-70273612D01*
X142364971Y-70402214D01*
X142358786Y-70407742D01*
X142354285Y-70411330D01*
X142346776Y-70414948D01*
X142341579Y-70421465D01*
X142327852Y-70438677D01*
X142322329Y-70444857D01*
X142320187Y-70446998D01*
X142320180Y-70447006D01*
X142317252Y-70449935D01*
X142315047Y-70453442D01*
X142315040Y-70453452D01*
X142313429Y-70456016D01*
X142308638Y-70462768D01*
X142294906Y-70479988D01*
X142294904Y-70479990D01*
X142289710Y-70486505D01*
X142287856Y-70494625D01*
X142286412Y-70497624D01*
X142285315Y-70500759D01*
X142280884Y-70507812D01*
X142279951Y-70516090D01*
X142279950Y-70516094D01*
X142277486Y-70537968D01*
X142276098Y-70546139D01*
X142275423Y-70549094D01*
X142275421Y-70549107D01*
X142274500Y-70553146D01*
X142274500Y-70557298D01*
X142274500Y-70560324D01*
X142274035Y-70568608D01*
X142271571Y-70590474D01*
X142271571Y-70590476D01*
X142270638Y-70598762D01*
X142273392Y-70606633D01*
X142274035Y-70612334D01*
X142274500Y-70620621D01*
X142274500Y-71079379D01*
X142274035Y-71087666D01*
X142273392Y-71093366D01*
X142270638Y-71101238D01*
X142271571Y-71109522D01*
X142271571Y-71109525D01*
X142274035Y-71131392D01*
X142274500Y-71139676D01*
X142274500Y-71146854D01*
X142275425Y-71150906D01*
X142276097Y-71153852D01*
X142277485Y-71162024D01*
X142279950Y-71183904D01*
X142279950Y-71183906D01*
X142280884Y-71192188D01*
X142285318Y-71199245D01*
X142286415Y-71202379D01*
X142287855Y-71205369D01*
X142289710Y-71213495D01*
X142294906Y-71220011D01*
X142294907Y-71220012D01*
X142308634Y-71237225D01*
X142313432Y-71243987D01*
X142317252Y-71250065D01*
X142320191Y-71253004D01*
X142322324Y-71255137D01*
X142327853Y-71261324D01*
X142346776Y-71285052D01*
X142354288Y-71288669D01*
X142358783Y-71292254D01*
X142364971Y-71297784D01*
X142493574Y-71426387D01*
X142513988Y-71465115D01*
X142508943Y-71508602D01*
X142479662Y-71574917D01*
X142479659Y-71574924D01*
X142477415Y-71580009D01*
X142476774Y-71585527D01*
X142476773Y-71585534D01*
X142474746Y-71603006D01*
X142474745Y-71603023D01*
X142474500Y-71605135D01*
X142474500Y-71607277D01*
X142474500Y-71607278D01*
X142474500Y-71992718D01*
X142474500Y-71992735D01*
X142474501Y-71994864D01*
X142474747Y-71996990D01*
X142474748Y-71996997D01*
X142476773Y-72014460D01*
X142476773Y-72014463D01*
X142477415Y-72019991D01*
X142479662Y-72025079D01*
X142479663Y-72025083D01*
X142505305Y-72083157D01*
X142522794Y-72122765D01*
X142602235Y-72202206D01*
X142705009Y-72247585D01*
X142730135Y-72250500D01*
X142905500Y-72250500D01*
X142942500Y-72260414D01*
X142969586Y-72287500D01*
X142979500Y-72324500D01*
X142979500Y-72540937D01*
X142967499Y-72581336D01*
X142935390Y-72608632D01*
X142879256Y-72633417D01*
X142879253Y-72633418D01*
X142872984Y-72636187D01*
X142868138Y-72641032D01*
X142868135Y-72641035D01*
X142801035Y-72708135D01*
X142801032Y-72708138D01*
X142796187Y-72712984D01*
X142793418Y-72719253D01*
X142793415Y-72719259D01*
X142767420Y-72778131D01*
X142740124Y-72810240D01*
X142699725Y-72822240D01*
X142659327Y-72810239D01*
X142632031Y-72778130D01*
X142606162Y-72719543D01*
X142598545Y-72708424D01*
X142531575Y-72641454D01*
X142520458Y-72633838D01*
X142432637Y-72595060D01*
X142422016Y-72592171D01*
X142405426Y-72590246D01*
X142401155Y-72590000D01*
X142379743Y-72590000D01*
X142372059Y-72592059D01*
X142370000Y-72599743D01*
X142370000Y-73500257D01*
X142372059Y-73507940D01*
X142379743Y-73510000D01*
X142401155Y-73510000D01*
X142405426Y-73509753D01*
X142422016Y-73507828D01*
X142432637Y-73504939D01*
X142520458Y-73466161D01*
X142531575Y-73458545D01*
X142598545Y-73391575D01*
X142606162Y-73380457D01*
X142632031Y-73321869D01*
X142659327Y-73289760D01*
X142699725Y-73277759D01*
X142740124Y-73289759D01*
X142767420Y-73321868D01*
X142793415Y-73380740D01*
X142793417Y-73380743D01*
X142796187Y-73387016D01*
X142872984Y-73463813D01*
X142972338Y-73507682D01*
X142996627Y-73510500D01*
X143363372Y-73510499D01*
X143387662Y-73507682D01*
X143487016Y-73463813D01*
X143512018Y-73438810D01*
X143543120Y-73420245D01*
X143579308Y-73418665D01*
X143611907Y-73434447D01*
X143647432Y-73464256D01*
X143747014Y-73500500D01*
X143846509Y-73500500D01*
X143852986Y-73500500D01*
X143952568Y-73464256D01*
X144033748Y-73396138D01*
X144086734Y-73304363D01*
X144105136Y-73200000D01*
X144103314Y-73189669D01*
X144099215Y-73166421D01*
X144106665Y-73118992D01*
X144141654Y-73086118D01*
X144189454Y-73081635D01*
X144229945Y-73107431D01*
X144232639Y-73110810D01*
X144236256Y-73118319D01*
X144242771Y-73123514D01*
X144242773Y-73123517D01*
X144259981Y-73137240D01*
X144266168Y-73142768D01*
X144271243Y-73147843D01*
X144277316Y-73151659D01*
X144284076Y-73156455D01*
X144307813Y-73175385D01*
X144315948Y-73177241D01*
X144318944Y-73178684D01*
X144322058Y-73179773D01*
X144329120Y-73184211D01*
X144359280Y-73187608D01*
X144367449Y-73188995D01*
X144374454Y-73190595D01*
X144381632Y-73190595D01*
X144389915Y-73191059D01*
X144420070Y-73194457D01*
X144427943Y-73191702D01*
X144433642Y-73191060D01*
X144441929Y-73190595D01*
X145007495Y-73190595D01*
X145045053Y-73200834D01*
X145072217Y-73228719D01*
X145081470Y-73266532D01*
X145070251Y-73303809D01*
X145040121Y-73352027D01*
X145038138Y-73358616D01*
X145044777Y-73360426D01*
X145665690Y-73360426D01*
X145702690Y-73370340D01*
X145729776Y-73397426D01*
X145739690Y-73434426D01*
X145739690Y-73529907D01*
X145728443Y-73569126D01*
X145693120Y-73625645D01*
X145666240Y-73651149D01*
X145630367Y-73660426D01*
X145049219Y-73660426D01*
X145043657Y-73662287D01*
X145047387Y-73666812D01*
X145430503Y-73906208D01*
X145456628Y-73934225D01*
X145465244Y-73971550D01*
X145454042Y-74008183D01*
X145036885Y-74675661D01*
X145028278Y-74686882D01*
X145020521Y-74695208D01*
X145020516Y-74695215D01*
X145015552Y-74700544D01*
X145013003Y-74707367D01*
X145013002Y-74707371D01*
X144998361Y-74746579D01*
X144998236Y-74746912D01*
X144985535Y-74780428D01*
X144980894Y-74792677D01*
X144980913Y-74793310D01*
X144980692Y-74793903D01*
X144980941Y-74800963D01*
X144980941Y-74800967D01*
X144982419Y-74842783D01*
X144982431Y-74843141D01*
X144983714Y-74885252D01*
X144983714Y-74885254D01*
X144983929Y-74892287D01*
X144984189Y-74892865D01*
X144984212Y-74893496D01*
X144987143Y-74899920D01*
X144987144Y-74899924D01*
X145004581Y-74938142D01*
X145004726Y-74938462D01*
X145024854Y-74983151D01*
X145025313Y-74983583D01*
X145025577Y-74984161D01*
X145061610Y-75017733D01*
X145097434Y-75051439D01*
X145114893Y-75058055D01*
X145127574Y-75064305D01*
X146357364Y-75824603D01*
X149757171Y-77926478D01*
X149785469Y-77958459D01*
X149791386Y-78000750D01*
X149772950Y-78039269D01*
X149591426Y-78238434D01*
X149558295Y-78259375D01*
X149519115Y-78260458D01*
X149484879Y-78241378D01*
X149465190Y-78207489D01*
X149433554Y-78087750D01*
X149353372Y-77944281D01*
X149336418Y-77926478D01*
X149243238Y-77828629D01*
X149243239Y-77828629D01*
X149240030Y-77825260D01*
X149181491Y-77788681D01*
X148119940Y-77125350D01*
X148119941Y-77125350D01*
X148117975Y-77124122D01*
X148115872Y-77123150D01*
X148115866Y-77123147D01*
X148010452Y-77074439D01*
X148010450Y-77074438D01*
X148006225Y-77072486D01*
X148001645Y-77071645D01*
X148001644Y-77071645D01*
X147849146Y-77043656D01*
X147849139Y-77043655D01*
X147844570Y-77042817D01*
X147839933Y-77043141D01*
X147839930Y-77043141D01*
X147685261Y-77053956D01*
X147685259Y-77053956D01*
X147680616Y-77054281D01*
X147676198Y-77055750D01*
X147676196Y-77055751D01*
X147529081Y-77104689D01*
X147529076Y-77104691D01*
X147524664Y-77106159D01*
X147520755Y-77108677D01*
X147520751Y-77108680D01*
X147390425Y-77192670D01*
X147390420Y-77192673D01*
X147386513Y-77195192D01*
X147383352Y-77198604D01*
X147383350Y-77198607D01*
X147278005Y-77312368D01*
X147278000Y-77312374D01*
X147274844Y-77315783D01*
X147272631Y-77319874D01*
X147272630Y-77319877D01*
X147198886Y-77456263D01*
X147198884Y-77456267D01*
X147196673Y-77460357D01*
X147195549Y-77464864D01*
X147195547Y-77464870D01*
X147158037Y-77615311D01*
X147158036Y-77615316D01*
X147156911Y-77619830D01*
X147156943Y-77624484D01*
X147156943Y-77624489D01*
X147158026Y-77779525D01*
X147158059Y-77784181D01*
X147159248Y-77788681D01*
X147198853Y-77938585D01*
X147198855Y-77938591D01*
X147200042Y-77943082D01*
X147202310Y-77947141D01*
X147202311Y-77947142D01*
X147277952Y-78082487D01*
X147277954Y-78082490D01*
X147280224Y-78086551D01*
X147393566Y-78205572D01*
X148515621Y-78906710D01*
X148627372Y-78958346D01*
X148631953Y-78959186D01*
X148631954Y-78959187D01*
X148712427Y-78973957D01*
X148748293Y-78991488D01*
X148769833Y-79025099D01*
X148770778Y-79065009D01*
X148750853Y-79099602D01*
X148461938Y-79382637D01*
X148460422Y-79384081D01*
X148128583Y-79691258D01*
X148096131Y-79708776D01*
X148059254Y-79708456D01*
X148027111Y-79690378D01*
X147294269Y-78988016D01*
X145186343Y-76967762D01*
X145164575Y-76926631D01*
X145171666Y-76880637D01*
X145204813Y-76847972D01*
X145250904Y-76841554D01*
X145396834Y-76868337D01*
X145560788Y-76856873D01*
X145716740Y-76804995D01*
X145854891Y-76715963D01*
X145966560Y-76595371D01*
X146044731Y-76450797D01*
X146084493Y-76291324D01*
X146083345Y-76126974D01*
X146041362Y-75968072D01*
X145990167Y-75876470D01*
X145963451Y-75828666D01*
X145963449Y-75828664D01*
X145961180Y-75824603D01*
X145847838Y-75705582D01*
X145065004Y-75216412D01*
X145022949Y-75196980D01*
X144957479Y-75166728D01*
X144957474Y-75166726D01*
X144953253Y-75164776D01*
X144948671Y-75163935D01*
X144796174Y-75135946D01*
X144796167Y-75135945D01*
X144791598Y-75135107D01*
X144786961Y-75135431D01*
X144786958Y-75135431D01*
X144632289Y-75146246D01*
X144632287Y-75146246D01*
X144627644Y-75146571D01*
X144623226Y-75148040D01*
X144623224Y-75148041D01*
X144476108Y-75196980D01*
X144476105Y-75196981D01*
X144471693Y-75198449D01*
X144467781Y-75200969D01*
X144467781Y-75200970D01*
X144337453Y-75284960D01*
X144337448Y-75284963D01*
X144333541Y-75287482D01*
X144330385Y-75290889D01*
X144330379Y-75290895D01*
X144225033Y-75404658D01*
X144225028Y-75404664D01*
X144221872Y-75408073D01*
X144219659Y-75412164D01*
X144219658Y-75412167D01*
X144145914Y-75548553D01*
X144145912Y-75548557D01*
X144143701Y-75552647D01*
X144142577Y-75557154D01*
X144142575Y-75557160D01*
X144105065Y-75707601D01*
X144105064Y-75707606D01*
X144103939Y-75712120D01*
X144103971Y-75716774D01*
X144103971Y-75716779D01*
X144104250Y-75756741D01*
X144092210Y-75797719D01*
X144059532Y-75825218D01*
X144017100Y-75830079D01*
X143979050Y-75810682D01*
X141318883Y-73261155D01*
X141790000Y-73261155D01*
X141790246Y-73265426D01*
X141792171Y-73282016D01*
X141795060Y-73292637D01*
X141833838Y-73380458D01*
X141841454Y-73391575D01*
X141908424Y-73458545D01*
X141919541Y-73466161D01*
X142007362Y-73504939D01*
X142017983Y-73507828D01*
X142034573Y-73509753D01*
X142038845Y-73510000D01*
X142060257Y-73510000D01*
X142067940Y-73507940D01*
X142070000Y-73500257D01*
X142070000Y-73209743D01*
X142067940Y-73202059D01*
X142060257Y-73200000D01*
X141799743Y-73200000D01*
X141792059Y-73202059D01*
X141790000Y-73209743D01*
X141790000Y-73261155D01*
X141318883Y-73261155D01*
X140931889Y-72890257D01*
X141790000Y-72890257D01*
X141792059Y-72897940D01*
X141799743Y-72900000D01*
X142060257Y-72900000D01*
X142067940Y-72897940D01*
X142070000Y-72890257D01*
X142070000Y-72599743D01*
X142067940Y-72592059D01*
X142060257Y-72590000D01*
X142038845Y-72590000D01*
X142034573Y-72590246D01*
X142017983Y-72592171D01*
X142007362Y-72595060D01*
X141919541Y-72633838D01*
X141908424Y-72641454D01*
X141841454Y-72708424D01*
X141833838Y-72719541D01*
X141795060Y-72807362D01*
X141792171Y-72817983D01*
X141790246Y-72834573D01*
X141790000Y-72838845D01*
X141790000Y-72890257D01*
X140931889Y-72890257D01*
X140396897Y-72377516D01*
X140375544Y-72338637D01*
X140380263Y-72294529D01*
X140409359Y-72261045D01*
X140452376Y-72250217D01*
X140453011Y-72250253D01*
X140455135Y-72250500D01*
X141569864Y-72250499D01*
X141594991Y-72247585D01*
X141697765Y-72202206D01*
X141777206Y-72122765D01*
X141822585Y-72019991D01*
X141825500Y-71994865D01*
X141825499Y-71605136D01*
X141822585Y-71580009D01*
X141777206Y-71477235D01*
X141697765Y-71397794D01*
X141691492Y-71395024D01*
X141600079Y-71354661D01*
X141600075Y-71354660D01*
X141594991Y-71352415D01*
X141589470Y-71351774D01*
X141589465Y-71351773D01*
X141571993Y-71349746D01*
X141571977Y-71349745D01*
X141569865Y-71349500D01*
X141567721Y-71349500D01*
X140457281Y-71349500D01*
X140457263Y-71349500D01*
X140455136Y-71349501D01*
X140453010Y-71349747D01*
X140453002Y-71349748D01*
X140435539Y-71351773D01*
X140435534Y-71351774D01*
X140430009Y-71352415D01*
X140424920Y-71354661D01*
X140424916Y-71354663D01*
X140333507Y-71395024D01*
X140333504Y-71395025D01*
X140327235Y-71397794D01*
X140322389Y-71402639D01*
X140322386Y-71402642D01*
X140252642Y-71472386D01*
X140252639Y-71472389D01*
X140247794Y-71477235D01*
X140245025Y-71483504D01*
X140245024Y-71483507D01*
X140204661Y-71574920D01*
X140204659Y-71574925D01*
X140202415Y-71580009D01*
X140201774Y-71585527D01*
X140201773Y-71585534D01*
X140199746Y-71603006D01*
X140199745Y-71603023D01*
X140199500Y-71605135D01*
X140199500Y-71607277D01*
X140199500Y-71607278D01*
X140199500Y-71992718D01*
X140199500Y-71992735D01*
X140199501Y-71994864D01*
X140200227Y-72001124D01*
X140201066Y-72008362D01*
X140192598Y-72052177D01*
X140160477Y-72083157D01*
X140116384Y-72090034D01*
X140076356Y-72070307D01*
X138741693Y-70791155D01*
X139140000Y-70791155D01*
X139140246Y-70795426D01*
X139142171Y-70812016D01*
X139145060Y-70822637D01*
X139183838Y-70910458D01*
X139191454Y-70921575D01*
X139258424Y-70988545D01*
X139269541Y-70996161D01*
X139357362Y-71034939D01*
X139367983Y-71037828D01*
X139384573Y-71039753D01*
X139388845Y-71040000D01*
X139440257Y-71040000D01*
X139447940Y-71037940D01*
X139450000Y-71030257D01*
X139750000Y-71030257D01*
X139752059Y-71037940D01*
X139759743Y-71040000D01*
X139811155Y-71040000D01*
X139815426Y-71039753D01*
X139832016Y-71037828D01*
X139842637Y-71034939D01*
X139930458Y-70996161D01*
X139941575Y-70988545D01*
X140008545Y-70921575D01*
X140016161Y-70910458D01*
X140054939Y-70822637D01*
X140057828Y-70812016D01*
X140059753Y-70795426D01*
X140060000Y-70791155D01*
X140060000Y-70769743D01*
X140057940Y-70762059D01*
X140050257Y-70760000D01*
X139759743Y-70760000D01*
X139752059Y-70762059D01*
X139750000Y-70769743D01*
X139750000Y-71030257D01*
X139450000Y-71030257D01*
X139450000Y-70769743D01*
X139447940Y-70762059D01*
X139440257Y-70760000D01*
X139149743Y-70760000D01*
X139142059Y-70762059D01*
X139140000Y-70769743D01*
X139140000Y-70791155D01*
X138741693Y-70791155D01*
X137145296Y-69261155D01*
X138190000Y-69261155D01*
X138190246Y-69265426D01*
X138192171Y-69282016D01*
X138195060Y-69292637D01*
X138233838Y-69380458D01*
X138241454Y-69391575D01*
X138308424Y-69458545D01*
X138319541Y-69466161D01*
X138407362Y-69504939D01*
X138417983Y-69507828D01*
X138434573Y-69509753D01*
X138438845Y-69510000D01*
X138490257Y-69510000D01*
X138497940Y-69507940D01*
X138500000Y-69500257D01*
X138500000Y-69239743D01*
X138497940Y-69232059D01*
X138490257Y-69230000D01*
X138199743Y-69230000D01*
X138192059Y-69232059D01*
X138190000Y-69239743D01*
X138190000Y-69261155D01*
X137145296Y-69261155D01*
X136625494Y-68762972D01*
X136621314Y-68755302D01*
X136613385Y-68751366D01*
X136021510Y-68184108D01*
X135923281Y-68089965D01*
X135906422Y-68065584D01*
X135900485Y-68036541D01*
X135900485Y-66574508D01*
X135910399Y-66537508D01*
X135937485Y-66510422D01*
X135974485Y-66500508D01*
X137218023Y-66500508D01*
X137232459Y-66501929D01*
X137249985Y-66505416D01*
X137347725Y-66485974D01*
X137348317Y-66488954D01*
G37*
G04 #@! TD.AperFunction*
G04 #@! TA.AperFunction,Conductor*
G36*
X147831336Y-66872501D02*
G01*
X147858632Y-66904610D01*
X147883225Y-66960309D01*
X147886187Y-66967016D01*
X147891035Y-66971864D01*
X147910758Y-66991587D01*
X147931010Y-67029476D01*
X147926799Y-67072231D01*
X147899544Y-67105442D01*
X147858432Y-67117913D01*
X147569244Y-67117913D01*
X147569226Y-67117913D01*
X147567099Y-67117914D01*
X147564973Y-67118160D01*
X147564965Y-67118161D01*
X147548754Y-67120041D01*
X147548750Y-67120041D01*
X147543223Y-67120683D01*
X147538134Y-67122929D01*
X147538130Y-67122931D01*
X147451852Y-67161027D01*
X147451849Y-67161028D01*
X147445580Y-67163797D01*
X147440734Y-67168642D01*
X147440731Y-67168645D01*
X147374953Y-67234423D01*
X147374950Y-67234426D01*
X147370105Y-67239272D01*
X147367336Y-67245541D01*
X147367335Y-67245544D01*
X147329237Y-67331826D01*
X147329235Y-67331832D01*
X147326991Y-67336915D01*
X147326350Y-67342433D01*
X147326349Y-67342440D01*
X147324467Y-67358661D01*
X147324466Y-67358678D01*
X147324221Y-67360790D01*
X147324221Y-67362932D01*
X147324221Y-67362933D01*
X147324221Y-67813889D01*
X147324221Y-67813906D01*
X147324222Y-67816035D01*
X147324468Y-67818161D01*
X147324469Y-67818168D01*
X147326111Y-67832331D01*
X147326991Y-67839911D01*
X147329238Y-67844999D01*
X147329239Y-67845003D01*
X147367149Y-67930859D01*
X147370105Y-67937554D01*
X147374953Y-67942402D01*
X147435288Y-68002737D01*
X147455926Y-68042722D01*
X147449585Y-68087270D01*
X147418611Y-68119910D01*
X147377458Y-68127982D01*
X147377412Y-68128792D01*
X147375283Y-68128668D01*
X147373155Y-68128422D01*
X147371012Y-68128422D01*
X147087120Y-68128422D01*
X147046008Y-68115951D01*
X147018753Y-68082740D01*
X147014542Y-68039985D01*
X147034795Y-68002096D01*
X147094486Y-67942405D01*
X147094486Y-67942404D01*
X147099337Y-67937554D01*
X147142451Y-67839911D01*
X147145221Y-67816036D01*
X147145220Y-67360791D01*
X147142451Y-67336915D01*
X147099337Y-67239272D01*
X147023862Y-67163797D01*
X147017589Y-67161027D01*
X146931307Y-67122929D01*
X146931303Y-67122928D01*
X146926219Y-67120683D01*
X146920698Y-67120042D01*
X146920693Y-67120041D01*
X146904472Y-67118159D01*
X146904456Y-67118158D01*
X146902344Y-67117913D01*
X146900200Y-67117913D01*
X146549244Y-67117913D01*
X146549226Y-67117913D01*
X146547099Y-67117914D01*
X146544973Y-67118160D01*
X146544965Y-67118161D01*
X146528754Y-67120041D01*
X146528750Y-67120041D01*
X146523223Y-67120683D01*
X146518134Y-67122929D01*
X146518130Y-67122931D01*
X146431852Y-67161027D01*
X146431849Y-67161028D01*
X146425580Y-67163797D01*
X146420734Y-67168642D01*
X146420731Y-67168645D01*
X146354953Y-67234423D01*
X146354950Y-67234426D01*
X146350105Y-67239272D01*
X146347336Y-67245541D01*
X146347335Y-67245544D01*
X146309237Y-67331826D01*
X146309235Y-67331832D01*
X146306991Y-67336915D01*
X146306350Y-67342433D01*
X146306349Y-67342440D01*
X146304467Y-67358661D01*
X146304466Y-67358678D01*
X146304221Y-67360790D01*
X146304221Y-67362932D01*
X146304221Y-67362933D01*
X146304221Y-67813889D01*
X146304221Y-67813906D01*
X146304222Y-67816035D01*
X146304468Y-67818161D01*
X146304469Y-67818168D01*
X146306111Y-67832331D01*
X146306991Y-67839911D01*
X146309238Y-67844999D01*
X146309239Y-67845003D01*
X146347149Y-67930859D01*
X146350105Y-67937554D01*
X146354953Y-67942402D01*
X146415862Y-68003311D01*
X146436499Y-68043295D01*
X146430161Y-68087842D01*
X146399190Y-68120482D01*
X146357379Y-68128687D01*
X146357345Y-68129292D01*
X146350945Y-68128922D01*
X146335275Y-68128922D01*
X146327591Y-68130981D01*
X146325532Y-68138665D01*
X146325532Y-69059179D01*
X146327591Y-69066862D01*
X146335275Y-69068922D01*
X146350945Y-69068922D01*
X146355216Y-69068675D01*
X146371387Y-69066799D01*
X146382001Y-69063911D01*
X146420331Y-69046987D01*
X146468271Y-69042917D01*
X146508581Y-69069183D01*
X146524221Y-69114682D01*
X146524221Y-69521577D01*
X146518588Y-69549896D01*
X146502547Y-69573903D01*
X146430338Y-69646112D01*
X146392449Y-69666364D01*
X146349693Y-69662153D01*
X146316483Y-69634898D01*
X146305858Y-69599872D01*
X146305136Y-69600000D01*
X146286734Y-69495637D01*
X146233748Y-69403862D01*
X146228790Y-69399702D01*
X146228787Y-69399698D01*
X146210266Y-69384157D01*
X146187789Y-69349022D01*
X146187729Y-69348502D01*
X146144615Y-69250859D01*
X146069140Y-69175384D01*
X146062866Y-69172613D01*
X146062865Y-69172613D01*
X146060295Y-69171478D01*
X146032775Y-69150470D01*
X146017822Y-69119242D01*
X146018712Y-69084631D01*
X146025532Y-69059180D01*
X146025532Y-68758665D01*
X146023472Y-68750981D01*
X146015789Y-68748922D01*
X145765275Y-68748922D01*
X145757591Y-68750981D01*
X145755532Y-68758665D01*
X145755532Y-68824335D01*
X145755778Y-68828606D01*
X145757654Y-68844777D01*
X145760542Y-68855391D01*
X145798565Y-68941503D01*
X145806183Y-68952624D01*
X145856733Y-69003174D01*
X145876985Y-69041063D01*
X145872774Y-69083818D01*
X145845519Y-69117029D01*
X145804407Y-69129500D01*
X145594522Y-69129500D01*
X145594504Y-69129500D01*
X145592377Y-69129501D01*
X145590251Y-69129747D01*
X145590243Y-69129748D01*
X145574032Y-69131628D01*
X145574028Y-69131628D01*
X145568501Y-69132270D01*
X145563412Y-69134516D01*
X145563408Y-69134518D01*
X145477130Y-69172614D01*
X145477127Y-69172615D01*
X145470858Y-69175384D01*
X145466012Y-69180229D01*
X145466009Y-69180232D01*
X145400231Y-69246010D01*
X145400228Y-69246013D01*
X145395383Y-69250859D01*
X145392614Y-69257128D01*
X145392613Y-69257131D01*
X145354515Y-69343413D01*
X145354513Y-69343419D01*
X145352269Y-69348502D01*
X145351628Y-69354020D01*
X145351627Y-69354027D01*
X145349745Y-69370248D01*
X145349744Y-69370265D01*
X145349499Y-69372377D01*
X145349499Y-69374519D01*
X145349499Y-69374520D01*
X145349499Y-69825476D01*
X145349499Y-69825493D01*
X145349500Y-69827622D01*
X145349746Y-69829748D01*
X145349747Y-69829755D01*
X145350166Y-69833372D01*
X145352269Y-69851498D01*
X145354516Y-69856586D01*
X145354517Y-69856590D01*
X145369677Y-69890923D01*
X145395383Y-69949141D01*
X145470858Y-70024616D01*
X145477130Y-70027385D01*
X145477131Y-70027386D01*
X145483271Y-70030097D01*
X145515381Y-70057392D01*
X145527382Y-70097790D01*
X145515382Y-70138189D01*
X145483274Y-70165486D01*
X145467132Y-70172613D01*
X145467127Y-70172616D01*
X145460859Y-70175384D01*
X145456013Y-70180229D01*
X145456010Y-70180232D01*
X145390232Y-70246010D01*
X145390229Y-70246013D01*
X145385384Y-70250859D01*
X145382615Y-70257128D01*
X145382614Y-70257131D01*
X145344516Y-70343413D01*
X145344514Y-70343419D01*
X145342270Y-70348502D01*
X145341629Y-70354020D01*
X145341628Y-70354027D01*
X145339746Y-70370248D01*
X145339745Y-70370265D01*
X145339500Y-70372377D01*
X145339500Y-70374519D01*
X145339500Y-70374520D01*
X145339500Y-70825476D01*
X145339500Y-70825493D01*
X145339501Y-70827622D01*
X145342270Y-70851498D01*
X145344517Y-70856586D01*
X145344518Y-70856590D01*
X145373212Y-70921575D01*
X145385384Y-70949141D01*
X145460859Y-71024616D01*
X145546392Y-71062383D01*
X145553408Y-71065481D01*
X145558502Y-71067730D01*
X145582377Y-71070500D01*
X145937622Y-71070499D01*
X145961498Y-71067730D01*
X146059141Y-71024616D01*
X146075418Y-71008337D01*
X146108591Y-70989185D01*
X146146897Y-70989184D01*
X146180071Y-71008337D01*
X146337824Y-71166090D01*
X146359022Y-71210037D01*
X146348256Y-71257627D01*
X146335722Y-71277687D01*
X146335719Y-71277692D01*
X146333800Y-71280764D01*
X146332516Y-71284152D01*
X146332515Y-71284155D01*
X146320522Y-71315810D01*
X146320521Y-71315815D01*
X146317942Y-71322623D01*
X146318164Y-71329902D01*
X146316961Y-71337095D01*
X146314221Y-71336636D01*
X146306737Y-71364296D01*
X146285158Y-71383146D01*
X146286771Y-71385408D01*
X146280836Y-71389641D01*
X146274193Y-71392634D01*
X146269201Y-71397940D01*
X146269199Y-71397942D01*
X146246011Y-71422591D01*
X146246005Y-71422597D01*
X146243523Y-71425237D01*
X146241602Y-71428310D01*
X146241599Y-71428315D01*
X146070761Y-71701712D01*
X146070756Y-71701720D01*
X146068840Y-71704788D01*
X146067558Y-71708171D01*
X146067550Y-71708188D01*
X146054669Y-71742191D01*
X146027517Y-71776868D01*
X145985469Y-71789975D01*
X145324410Y-71789975D01*
X145316123Y-71789510D01*
X145310422Y-71788867D01*
X145302551Y-71786113D01*
X145294265Y-71787046D01*
X145294263Y-71787046D01*
X145272397Y-71789510D01*
X145264113Y-71789975D01*
X145256935Y-71789975D01*
X145252884Y-71790899D01*
X145252283Y-71790967D01*
X145211891Y-71784103D01*
X145181342Y-71756802D01*
X145170000Y-71717432D01*
X145170000Y-71709743D01*
X145167940Y-71702059D01*
X145160257Y-71700000D01*
X144859743Y-71700000D01*
X144852059Y-71702059D01*
X144850000Y-71709743D01*
X144850000Y-71960257D01*
X144852058Y-71967940D01*
X144859528Y-71969942D01*
X144892701Y-71989095D01*
X144911854Y-72022268D01*
X144911855Y-72060573D01*
X144892702Y-72093747D01*
X144858623Y-72127826D01*
X144834616Y-72143867D01*
X144806297Y-72149500D01*
X144474523Y-72149500D01*
X144474505Y-72149500D01*
X144472378Y-72149501D01*
X144470252Y-72149747D01*
X144470244Y-72149748D01*
X144454033Y-72151628D01*
X144454029Y-72151628D01*
X144448502Y-72152270D01*
X144443413Y-72154516D01*
X144443409Y-72154518D01*
X144357131Y-72192614D01*
X144357128Y-72192615D01*
X144350859Y-72195384D01*
X144346013Y-72200229D01*
X144346010Y-72200232D01*
X144280232Y-72266010D01*
X144280229Y-72266013D01*
X144275384Y-72270859D01*
X144272615Y-72277128D01*
X144272614Y-72277131D01*
X144234516Y-72363413D01*
X144234514Y-72363419D01*
X144232270Y-72368502D01*
X144231629Y-72374025D01*
X144230167Y-72379401D01*
X144228853Y-72379043D01*
X144216117Y-72409526D01*
X144182701Y-72433124D01*
X144141854Y-72435364D01*
X144106058Y-72415560D01*
X143985060Y-72294562D01*
X143965907Y-72261388D01*
X143965908Y-72223083D01*
X143985058Y-72189912D01*
X144052206Y-72122765D01*
X144097585Y-72019991D01*
X144100500Y-71994865D01*
X144100499Y-71802626D01*
X144117026Y-71756014D01*
X144159225Y-71730222D01*
X144208246Y-71736771D01*
X144242194Y-71772737D01*
X144273034Y-71842582D01*
X144280651Y-71853702D01*
X144346297Y-71919348D01*
X144357418Y-71926966D01*
X144443530Y-71964989D01*
X144454144Y-71967877D01*
X144470315Y-71969753D01*
X144474587Y-71970000D01*
X144540257Y-71970000D01*
X144547940Y-71967940D01*
X144550000Y-71960257D01*
X144550000Y-71709743D01*
X144547940Y-71702059D01*
X144540257Y-71700000D01*
X144239743Y-71700000D01*
X144231302Y-71702261D01*
X144226823Y-71706741D01*
X144188934Y-71726992D01*
X144146180Y-71722781D01*
X144112970Y-71695526D01*
X144100499Y-71654414D01*
X144100499Y-71607281D01*
X144100499Y-71607278D01*
X144100499Y-71605136D01*
X144097585Y-71580009D01*
X144052206Y-71477235D01*
X143972765Y-71397794D01*
X143966492Y-71395024D01*
X143966491Y-71395023D01*
X143960599Y-71392422D01*
X143928489Y-71365126D01*
X143916488Y-71324726D01*
X143928489Y-71284327D01*
X143960600Y-71257031D01*
X143966206Y-71254555D01*
X143977326Y-71246938D01*
X144046938Y-71177326D01*
X144054556Y-71166205D01*
X144094843Y-71074963D01*
X144097731Y-71064349D01*
X144099753Y-71046921D01*
X144100000Y-71042650D01*
X144100000Y-71009743D01*
X144097940Y-71002059D01*
X144090257Y-71000000D01*
X143211500Y-71000000D01*
X143174500Y-70990086D01*
X143147414Y-70963000D01*
X143137500Y-70926000D01*
X143137500Y-70774000D01*
X143147414Y-70737000D01*
X143174500Y-70709914D01*
X143211500Y-70700000D01*
X144090256Y-70700000D01*
X144097939Y-70697940D01*
X144099999Y-70690257D01*
X144099999Y-70657353D01*
X144099751Y-70653074D01*
X144097731Y-70635656D01*
X144094841Y-70625032D01*
X144054556Y-70533794D01*
X144046938Y-70522673D01*
X143977326Y-70453061D01*
X143966203Y-70445442D01*
X143960596Y-70442966D01*
X143928487Y-70415668D01*
X143916488Y-70375268D01*
X143928491Y-70334869D01*
X143960602Y-70307576D01*
X143972765Y-70302206D01*
X144013385Y-70261586D01*
X144046558Y-70242433D01*
X144084864Y-70242433D01*
X144118037Y-70261586D01*
X144297826Y-70441375D01*
X144313867Y-70465382D01*
X144319500Y-70493701D01*
X144319500Y-70825476D01*
X144319500Y-70825493D01*
X144319501Y-70827622D01*
X144322270Y-70851498D01*
X144324517Y-70856586D01*
X144324518Y-70856590D01*
X144353212Y-70921575D01*
X144365384Y-70949141D01*
X144370232Y-70953989D01*
X144440859Y-71024616D01*
X144439481Y-71025993D01*
X144456813Y-71046380D01*
X144463513Y-71084654D01*
X144449897Y-71121046D01*
X144419719Y-71145523D01*
X144357421Y-71173031D01*
X144346297Y-71180651D01*
X144280651Y-71246297D01*
X144273033Y-71257418D01*
X144235010Y-71343530D01*
X144232122Y-71354144D01*
X144230246Y-71370315D01*
X144230000Y-71374587D01*
X144230000Y-71390257D01*
X144232059Y-71397940D01*
X144239743Y-71400000D01*
X145160257Y-71400000D01*
X145167940Y-71397940D01*
X145170000Y-71390257D01*
X145170000Y-71374587D01*
X145169753Y-71370315D01*
X145167877Y-71354144D01*
X145164989Y-71343530D01*
X145126966Y-71257418D01*
X145119348Y-71246297D01*
X145053702Y-71180651D01*
X145042581Y-71173033D01*
X145026109Y-71165760D01*
X144993999Y-71138463D01*
X144981999Y-71098064D01*
X144994000Y-71057666D01*
X145026110Y-71030370D01*
X145027581Y-71029719D01*
X145039141Y-71024616D01*
X145114616Y-70949141D01*
X145157730Y-70851498D01*
X145160500Y-70827623D01*
X145160499Y-70372378D01*
X145157730Y-70348502D01*
X145114616Y-70250859D01*
X145039141Y-70175384D01*
X145032868Y-70172614D01*
X145032865Y-70172612D01*
X145026725Y-70169901D01*
X144994616Y-70142605D01*
X144982616Y-70102205D01*
X144994618Y-70061807D01*
X145026725Y-70034512D01*
X145049140Y-70024616D01*
X145124615Y-69949141D01*
X145167729Y-69851498D01*
X145170499Y-69827623D01*
X145170498Y-69372378D01*
X145167729Y-69348502D01*
X145124615Y-69250859D01*
X145049140Y-69175384D01*
X145042867Y-69172614D01*
X144956585Y-69134516D01*
X144956581Y-69134515D01*
X144951497Y-69132270D01*
X144945976Y-69131629D01*
X144945971Y-69131628D01*
X144929750Y-69129746D01*
X144929734Y-69129745D01*
X144927622Y-69129500D01*
X144925479Y-69129500D01*
X144593700Y-69129500D01*
X144565381Y-69123867D01*
X144541374Y-69107826D01*
X144487467Y-69053919D01*
X144466149Y-69008847D01*
X144478264Y-68960481D01*
X144518311Y-68930780D01*
X144568111Y-68933226D01*
X144568454Y-68933368D01*
X144574514Y-68937417D01*
X144640289Y-68950500D01*
X144834710Y-68950499D01*
X144900486Y-68937417D01*
X144946388Y-68906745D01*
X144987500Y-68894275D01*
X145028611Y-68906745D01*
X145074514Y-68937417D01*
X145140289Y-68950500D01*
X145334710Y-68950499D01*
X145400486Y-68937417D01*
X145475077Y-68887577D01*
X145524917Y-68812986D01*
X145538000Y-68747211D01*
X145538000Y-68439179D01*
X145755532Y-68439179D01*
X145757591Y-68446862D01*
X145765275Y-68448922D01*
X146015789Y-68448922D01*
X146023472Y-68446862D01*
X146025532Y-68439179D01*
X146025532Y-68138665D01*
X146023472Y-68130981D01*
X146015789Y-68128922D01*
X146000119Y-68128922D01*
X145995847Y-68129168D01*
X145979676Y-68131044D01*
X145969062Y-68133932D01*
X145882950Y-68171955D01*
X145871829Y-68179573D01*
X145806183Y-68245219D01*
X145798565Y-68256340D01*
X145760542Y-68342452D01*
X145757654Y-68353066D01*
X145755778Y-68369237D01*
X145755532Y-68373509D01*
X145755532Y-68439179D01*
X145538000Y-68439179D01*
X145537999Y-67573999D01*
X145547913Y-67537000D01*
X145574999Y-67509914D01*
X145611999Y-67500000D01*
X145990257Y-67500000D01*
X146000000Y-67500000D01*
X146000000Y-67024499D01*
X146009914Y-66987500D01*
X146037000Y-66960414D01*
X146074000Y-66950500D01*
X147272101Y-66950499D01*
X147334710Y-66950499D01*
X147400486Y-66937417D01*
X147475077Y-66887577D01*
X147478863Y-66881910D01*
X147502476Y-66866133D01*
X147530795Y-66860500D01*
X147790937Y-66860500D01*
X147831336Y-66872501D01*
G37*
G04 #@! TD.AperFunction*
G04 #@! TA.AperFunction,Conductor*
G36*
X140350500Y-67922414D02*
G01*
X140377586Y-67949500D01*
X140387500Y-67986500D01*
X140387500Y-68928511D01*
X140389931Y-68936526D01*
X140396114Y-68937135D01*
X140406350Y-68932896D01*
X140445937Y-68906445D01*
X140487049Y-68893974D01*
X140528161Y-68906445D01*
X140568452Y-68933367D01*
X140568453Y-68933367D01*
X140574514Y-68937417D01*
X140640289Y-68950500D01*
X140834710Y-68950499D01*
X140900486Y-68937417D01*
X140925098Y-68920971D01*
X140970358Y-68908615D01*
X141013952Y-68925959D01*
X141038355Y-68966031D01*
X141038594Y-68967078D01*
X141039985Y-68975260D01*
X141042450Y-68997140D01*
X141042450Y-68997142D01*
X141043384Y-69005424D01*
X141047818Y-69012481D01*
X141048915Y-69015615D01*
X141050355Y-69018605D01*
X141052210Y-69026731D01*
X141068363Y-69046987D01*
X141071134Y-69050461D01*
X141075932Y-69057223D01*
X141079752Y-69063301D01*
X141082691Y-69066239D01*
X141082691Y-69066240D01*
X141084824Y-69068373D01*
X141090353Y-69074560D01*
X141109276Y-69098288D01*
X141116788Y-69101905D01*
X141121283Y-69105490D01*
X141127471Y-69111020D01*
X141339625Y-69323174D01*
X141359877Y-69361063D01*
X141355666Y-69403819D01*
X141328411Y-69437029D01*
X141287299Y-69449500D01*
X140457281Y-69449500D01*
X140457263Y-69449500D01*
X140455136Y-69449501D01*
X140453010Y-69449747D01*
X140453002Y-69449748D01*
X140435539Y-69451773D01*
X140435534Y-69451774D01*
X140430009Y-69452415D01*
X140424920Y-69454661D01*
X140424916Y-69454663D01*
X140333507Y-69495024D01*
X140333504Y-69495025D01*
X140327235Y-69497794D01*
X140322389Y-69502639D01*
X140322386Y-69502642D01*
X140252642Y-69572386D01*
X140252639Y-69572389D01*
X140247794Y-69577235D01*
X140245025Y-69583504D01*
X140245024Y-69583507D01*
X140213285Y-69655390D01*
X140185989Y-69687500D01*
X140145590Y-69699500D01*
X140134500Y-69699500D01*
X140097500Y-69689586D01*
X140070414Y-69662500D01*
X140060500Y-69625500D01*
X140060499Y-69468773D01*
X140060499Y-69466628D01*
X140057682Y-69442338D01*
X140013813Y-69342984D01*
X139937016Y-69266187D01*
X139902301Y-69250859D01*
X139844610Y-69225386D01*
X139812501Y-69198090D01*
X139800500Y-69157691D01*
X139800500Y-69018034D01*
X139817298Y-68971088D01*
X139860061Y-68945456D01*
X139900486Y-68937417D01*
X139946837Y-68906445D01*
X139987949Y-68893974D01*
X140029062Y-68906445D01*
X140068649Y-68932895D01*
X140078885Y-68937135D01*
X140085068Y-68936526D01*
X140087500Y-68928511D01*
X140087500Y-67986500D01*
X140097414Y-67949500D01*
X140124500Y-67922414D01*
X140161500Y-67912500D01*
X140313500Y-67912500D01*
X140350500Y-67922414D01*
G37*
G04 #@! TD.AperFunction*
G04 #@! TA.AperFunction,Conductor*
G36*
X154587636Y-49444201D02*
G01*
X154608209Y-49472014D01*
X154784228Y-49887248D01*
X154784987Y-49889107D01*
X154922670Y-50240112D01*
X154926259Y-50282060D01*
X154906387Y-50319177D01*
X154869487Y-50339448D01*
X154827502Y-50336311D01*
X154782006Y-50319028D01*
X154782001Y-50319027D01*
X154777653Y-50317375D01*
X154773031Y-50316856D01*
X154773025Y-50316855D01*
X154618950Y-50299574D01*
X154614323Y-50299055D01*
X154609720Y-50299701D01*
X154609712Y-50299702D01*
X153306399Y-50482871D01*
X153306391Y-50482872D01*
X153304097Y-50483195D01*
X153301860Y-50483802D01*
X153301849Y-50483805D01*
X153189790Y-50514251D01*
X153189782Y-50514254D01*
X153185300Y-50515472D01*
X153181260Y-50517766D01*
X153181255Y-50517769D01*
X153046439Y-50594355D01*
X153046435Y-50594357D01*
X153042395Y-50596653D01*
X153039052Y-50599881D01*
X153039047Y-50599885D01*
X152927516Y-50707589D01*
X152927512Y-50707593D01*
X152924167Y-50710824D01*
X152921730Y-50714785D01*
X152921727Y-50714789D01*
X152840488Y-50846840D01*
X152840484Y-50846847D01*
X152838048Y-50850808D01*
X152836672Y-50855251D01*
X152836670Y-50855257D01*
X152790823Y-51003366D01*
X152790822Y-51003370D01*
X152789447Y-51007813D01*
X152789219Y-51012455D01*
X152789219Y-51012461D01*
X152782567Y-51148491D01*
X152781419Y-51171971D01*
X152782353Y-51176524D01*
X152782354Y-51176528D01*
X152813530Y-51328408D01*
X152813531Y-51328413D01*
X152814467Y-51332969D01*
X152816506Y-51337150D01*
X152816508Y-51337155D01*
X152863380Y-51433257D01*
X152886515Y-51480690D01*
X152889530Y-51484232D01*
X152889531Y-51484234D01*
X152952788Y-51558560D01*
X152993037Y-51605852D01*
X153127338Y-51700591D01*
X153280981Y-51758955D01*
X153444311Y-51777275D01*
X154754537Y-51593135D01*
X154873334Y-51560858D01*
X155016239Y-51479677D01*
X155134466Y-51365506D01*
X155181989Y-51288257D01*
X155212720Y-51260453D01*
X155253581Y-51253530D01*
X155291756Y-51269662D01*
X155315271Y-51303788D01*
X155403292Y-51569812D01*
X155404453Y-51612446D01*
X155381890Y-51648640D01*
X155343099Y-51666370D01*
X150879218Y-52278949D01*
X150835897Y-52271740D01*
X150804291Y-52241250D01*
X150795530Y-52198216D01*
X150812700Y-52157796D01*
X150849755Y-52134225D01*
X150869111Y-52128966D01*
X150912218Y-52117254D01*
X151055124Y-52036073D01*
X151173351Y-51921903D01*
X151259470Y-51781918D01*
X151308071Y-51624913D01*
X151316100Y-51460755D01*
X151283052Y-51299758D01*
X151211004Y-51152036D01*
X151104482Y-51026874D01*
X151084050Y-51012461D01*
X150973986Y-50934819D01*
X150973985Y-50934818D01*
X150970181Y-50932135D01*
X150965830Y-50930482D01*
X150965826Y-50930480D01*
X150820891Y-50875424D01*
X150820886Y-50875423D01*
X150816538Y-50873771D01*
X150811916Y-50873252D01*
X150811910Y-50873251D01*
X150657835Y-50855970D01*
X150653208Y-50855451D01*
X150648605Y-50856097D01*
X150648597Y-50856098D01*
X149741393Y-50983597D01*
X149741385Y-50983598D01*
X149739091Y-50983921D01*
X149736854Y-50984528D01*
X149736843Y-50984531D01*
X149624783Y-51014977D01*
X149624775Y-51014980D01*
X149620293Y-51016198D01*
X149616253Y-51018492D01*
X149616248Y-51018495D01*
X149481432Y-51095081D01*
X149481428Y-51095083D01*
X149477388Y-51097379D01*
X149474045Y-51100607D01*
X149474040Y-51100611D01*
X149362510Y-51208314D01*
X149362506Y-51208318D01*
X149359161Y-51211549D01*
X149356724Y-51215510D01*
X149356721Y-51215514D01*
X149275479Y-51347571D01*
X149275476Y-51347577D01*
X149273042Y-51351534D01*
X149271667Y-51355975D01*
X149271665Y-51355980D01*
X149225816Y-51504091D01*
X149225814Y-51504097D01*
X149224440Y-51508539D01*
X149224213Y-51513178D01*
X149224212Y-51513185D01*
X149218531Y-51629359D01*
X149216412Y-51672697D01*
X149217346Y-51677250D01*
X149217347Y-51677254D01*
X149248523Y-51829133D01*
X149248524Y-51829138D01*
X149249460Y-51833694D01*
X149251499Y-51837875D01*
X149251501Y-51837880D01*
X149307227Y-51952136D01*
X149321508Y-51981416D01*
X149428029Y-52106578D01*
X149562330Y-52201317D01*
X149715973Y-52259681D01*
X149844018Y-52274043D01*
X149888078Y-52295238D01*
X149909303Y-52339282D01*
X149898429Y-52386950D01*
X149860203Y-52417432D01*
X149830831Y-52427706D01*
X149830571Y-52427796D01*
X149790568Y-52441621D01*
X149790561Y-52441624D01*
X149783883Y-52443933D01*
X149783514Y-52444259D01*
X149783050Y-52444422D01*
X149777800Y-52449111D01*
X149777799Y-52449113D01*
X149746293Y-52477262D01*
X149746087Y-52477445D01*
X149714598Y-52505367D01*
X149714595Y-52505370D01*
X149709318Y-52510050D01*
X149709102Y-52510492D01*
X149708736Y-52510820D01*
X149687330Y-52555260D01*
X149665733Y-52599668D01*
X149665703Y-52600159D01*
X149665490Y-52600603D01*
X149665092Y-52607672D01*
X149665092Y-52607673D01*
X149662731Y-52649632D01*
X149662715Y-52649909D01*
X149660195Y-52691866D01*
X149660195Y-52691870D01*
X149659759Y-52699144D01*
X149665798Y-52716618D01*
X149669130Y-52730449D01*
X149854909Y-54047239D01*
X149855635Y-54057577D01*
X149855635Y-54120463D01*
X149845721Y-54157463D01*
X149818635Y-54184549D01*
X149781635Y-54194463D01*
X149181933Y-54194463D01*
X149173988Y-54196791D01*
X149172788Y-54204979D01*
X149200115Y-54399417D01*
X149201817Y-54406437D01*
X149212925Y-54438246D01*
X149220182Y-54450566D01*
X149239281Y-54471965D01*
X149257353Y-54510941D01*
X149250725Y-54553389D01*
X149237609Y-54580581D01*
X149220593Y-54603316D01*
X149196267Y-54617969D01*
X149153514Y-54633529D01*
X149153507Y-54633532D01*
X149147432Y-54635744D01*
X149142475Y-54639902D01*
X149142472Y-54639905D01*
X149121566Y-54657448D01*
X149083659Y-54674128D01*
X149042726Y-54667828D01*
X149011589Y-54640521D01*
X149000000Y-54600761D01*
X149000000Y-54329010D01*
X148999466Y-54323596D01*
X148996673Y-54318048D01*
X148990696Y-54321434D01*
X148569019Y-54743112D01*
X148565042Y-54749999D01*
X148569019Y-54756887D01*
X148990696Y-55178564D01*
X148996673Y-55181950D01*
X149004282Y-55166837D01*
X149006974Y-55168192D01*
X149024300Y-55139394D01*
X149071577Y-55122762D01*
X149118610Y-55140072D01*
X149131846Y-55151178D01*
X149147432Y-55164256D01*
X149247014Y-55200500D01*
X149263731Y-55200500D01*
X149300452Y-55210254D01*
X149325213Y-55234694D01*
X149326228Y-55237599D01*
X149331080Y-55243035D01*
X149331081Y-55243037D01*
X149335170Y-55247618D01*
X149353241Y-55286592D01*
X149346615Y-55329037D01*
X149343945Y-55334572D01*
X149343943Y-55334576D01*
X149340779Y-55341138D01*
X149340366Y-55348408D01*
X149340365Y-55348413D01*
X149338446Y-55382203D01*
X149338446Y-55382211D01*
X149338241Y-55385828D01*
X149338745Y-55389420D01*
X149338746Y-55389422D01*
X149381086Y-55690686D01*
X149375054Y-55731868D01*
X149347748Y-55763280D01*
X149307806Y-55774985D01*
X148892514Y-55774985D01*
X148858008Y-55766447D01*
X148831464Y-55742804D01*
X148819007Y-55709512D01*
X148818371Y-55704031D01*
X148817730Y-55698501D01*
X148774616Y-55600858D01*
X148700084Y-55526326D01*
X148679832Y-55488437D01*
X148684043Y-55445681D01*
X148711298Y-55412471D01*
X148752410Y-55400000D01*
X148770991Y-55400000D01*
X148776401Y-55399466D01*
X148781950Y-55396673D01*
X148778564Y-55390696D01*
X148356887Y-54969019D01*
X148350000Y-54965042D01*
X148343112Y-54969019D01*
X147921434Y-55390696D01*
X147918048Y-55396673D01*
X147923596Y-55399466D01*
X147929010Y-55400000D01*
X147947590Y-55400000D01*
X147988702Y-55412471D01*
X148015957Y-55445681D01*
X148020168Y-55488437D01*
X147999916Y-55526326D01*
X147930232Y-55596009D01*
X147930229Y-55596012D01*
X147925384Y-55600858D01*
X147922615Y-55607127D01*
X147922614Y-55607130D01*
X147884516Y-55693412D01*
X147884514Y-55693418D01*
X147882270Y-55698501D01*
X147881629Y-55704019D01*
X147881628Y-55704026D01*
X147879746Y-55720247D01*
X147879745Y-55720264D01*
X147879500Y-55722376D01*
X147879500Y-55724518D01*
X147879500Y-55724519D01*
X147879500Y-56075475D01*
X147879500Y-56075492D01*
X147879501Y-56077621D01*
X147882270Y-56101497D01*
X147925384Y-56199140D01*
X148000859Y-56274615D01*
X148072926Y-56306436D01*
X148093408Y-56315480D01*
X148098502Y-56317729D01*
X148122377Y-56320499D01*
X148577622Y-56320498D01*
X148601498Y-56317729D01*
X148699141Y-56274615D01*
X148774616Y-56199140D01*
X148775756Y-56200280D01*
X148793459Y-56184519D01*
X148827957Y-56175985D01*
X149164573Y-56175985D01*
X149209070Y-56190858D01*
X149235680Y-56229497D01*
X149233708Y-56276372D01*
X149209038Y-56306436D01*
X149210343Y-56308072D01*
X149207091Y-56310664D01*
X149203578Y-56312872D01*
X149200648Y-56315801D01*
X149200640Y-56315808D01*
X149198496Y-56317953D01*
X149192320Y-56323471D01*
X149185830Y-56328647D01*
X149175105Y-56337201D01*
X149175103Y-56337203D01*
X149168592Y-56342396D01*
X149164976Y-56349901D01*
X149161386Y-56354404D01*
X149155859Y-56360589D01*
X148989971Y-56526478D01*
X148983786Y-56532006D01*
X148979285Y-56535594D01*
X148971776Y-56539212D01*
X148966579Y-56545729D01*
X148952852Y-56562941D01*
X148947329Y-56569121D01*
X148945187Y-56571262D01*
X148945180Y-56571270D01*
X148942252Y-56574199D01*
X148940047Y-56577706D01*
X148940040Y-56577716D01*
X148938429Y-56580280D01*
X148933638Y-56587032D01*
X148919906Y-56604252D01*
X148919904Y-56604254D01*
X148914710Y-56610769D01*
X148912855Y-56618892D01*
X148910356Y-56624083D01*
X148910105Y-56624536D01*
X148909958Y-56624898D01*
X148909936Y-56624945D01*
X148909787Y-56625113D01*
X148906375Y-56631294D01*
X148905914Y-56632029D01*
X148904473Y-56631125D01*
X148882283Y-56656232D01*
X148842095Y-56667568D01*
X148802168Y-56655344D01*
X148782429Y-56631987D01*
X148780842Y-56633075D01*
X148769348Y-56616296D01*
X148703702Y-56550650D01*
X148692581Y-56543032D01*
X148606469Y-56505009D01*
X148595855Y-56502121D01*
X148579684Y-56500245D01*
X148575413Y-56499999D01*
X148509743Y-56499999D01*
X148502059Y-56502058D01*
X148500000Y-56509742D01*
X148500000Y-57312183D01*
X148490086Y-57349183D01*
X148466502Y-57390031D01*
X148466500Y-57390033D01*
X148463266Y-57395637D01*
X148462142Y-57402010D01*
X148462142Y-57402011D01*
X148446299Y-57491864D01*
X148444864Y-57500000D01*
X148463266Y-57604363D01*
X148466501Y-57609967D01*
X148466502Y-57609968D01*
X148466809Y-57610499D01*
X148516252Y-57696138D01*
X148597432Y-57764256D01*
X148697014Y-57800500D01*
X148796509Y-57800500D01*
X148802986Y-57800500D01*
X148902568Y-57764256D01*
X148983748Y-57696138D01*
X148986985Y-57690529D01*
X148990977Y-57685773D01*
X149001518Y-57675490D01*
X149012971Y-57666357D01*
X149019720Y-57661568D01*
X149025801Y-57657748D01*
X149030875Y-57652672D01*
X149037046Y-57647156D01*
X149058830Y-57629785D01*
X149104966Y-57613643D01*
X149151103Y-57629787D01*
X149162515Y-57638888D01*
X149171657Y-57646178D01*
X149173956Y-57646702D01*
X149202071Y-57672462D01*
X149212362Y-57713946D01*
X149197997Y-57754201D01*
X149163767Y-57779798D01*
X149153518Y-57783528D01*
X149153513Y-57783530D01*
X149147432Y-57785744D01*
X149142472Y-57789905D01*
X149142470Y-57789907D01*
X149071210Y-57849701D01*
X149071207Y-57849703D01*
X149066252Y-57853862D01*
X149063017Y-57859463D01*
X149063016Y-57859466D01*
X149016502Y-57940031D01*
X149016500Y-57940033D01*
X149013266Y-57945637D01*
X149012142Y-57952010D01*
X149012142Y-57952011D01*
X149002382Y-58007362D01*
X148994864Y-58050000D01*
X148995988Y-58056375D01*
X148997193Y-58063206D01*
X149013266Y-58154363D01*
X149066252Y-58246138D01*
X149147432Y-58314256D01*
X149247014Y-58350500D01*
X149346509Y-58350500D01*
X149352986Y-58350500D01*
X149452568Y-58314256D01*
X149533748Y-58246138D01*
X149564125Y-58193522D01*
X149591212Y-58166436D01*
X149628212Y-58156522D01*
X149666889Y-58156522D01*
X149709729Y-58170184D01*
X149736750Y-58206123D01*
X149747922Y-58238112D01*
X149752774Y-58243548D01*
X149756474Y-58249829D01*
X149754094Y-58251230D01*
X149766098Y-58277043D01*
X149761765Y-58305563D01*
X149764402Y-58306245D01*
X149762576Y-58313304D01*
X149759412Y-58319865D01*
X149758999Y-58327134D01*
X149758998Y-58327139D01*
X149757079Y-58360930D01*
X149757079Y-58360938D01*
X149756874Y-58364555D01*
X149798336Y-58659576D01*
X149798606Y-58661491D01*
X149792574Y-58702673D01*
X149765268Y-58734085D01*
X149725326Y-58745790D01*
X149488595Y-58745790D01*
X149480308Y-58745325D01*
X149474607Y-58744682D01*
X149466736Y-58741928D01*
X149458450Y-58742861D01*
X149458448Y-58742861D01*
X149436582Y-58745325D01*
X149428298Y-58745790D01*
X149421120Y-58745790D01*
X149417081Y-58746711D01*
X149417068Y-58746713D01*
X149414113Y-58747388D01*
X149405942Y-58748776D01*
X149384068Y-58751240D01*
X149384064Y-58751241D01*
X149375786Y-58752174D01*
X149368731Y-58756605D01*
X149365599Y-58757702D01*
X149362602Y-58759145D01*
X149354479Y-58761000D01*
X149351683Y-58763229D01*
X149324213Y-58769500D01*
X148974523Y-58769500D01*
X148974505Y-58769500D01*
X148972378Y-58769501D01*
X148970252Y-58769747D01*
X148970244Y-58769748D01*
X148954033Y-58771628D01*
X148954029Y-58771628D01*
X148948502Y-58772270D01*
X148943413Y-58774516D01*
X148943409Y-58774518D01*
X148857131Y-58812614D01*
X148857128Y-58812615D01*
X148850859Y-58815384D01*
X148846013Y-58820229D01*
X148846010Y-58820232D01*
X148780232Y-58886010D01*
X148780229Y-58886013D01*
X148775384Y-58890859D01*
X148772615Y-58897128D01*
X148772614Y-58897131D01*
X148734516Y-58983413D01*
X148734514Y-58983419D01*
X148732270Y-58988502D01*
X148731629Y-58994020D01*
X148731628Y-58994027D01*
X148729746Y-59010248D01*
X148729745Y-59010265D01*
X148729500Y-59012377D01*
X148729500Y-59014519D01*
X148729500Y-59014520D01*
X148729500Y-59365476D01*
X148729500Y-59365493D01*
X148729501Y-59367622D01*
X148732270Y-59391498D01*
X148734517Y-59396587D01*
X148734518Y-59396590D01*
X148772614Y-59482868D01*
X148775384Y-59489141D01*
X148850859Y-59564616D01*
X148929863Y-59599500D01*
X148943408Y-59605481D01*
X148948502Y-59607730D01*
X148972377Y-59610500D01*
X149427622Y-59610499D01*
X149451498Y-59607730D01*
X149549141Y-59564616D01*
X149590792Y-59522964D01*
X149635060Y-59501730D01*
X149682875Y-59512877D01*
X149713189Y-59551499D01*
X149712711Y-59595539D01*
X149713266Y-59595637D01*
X149712734Y-59598655D01*
X149712143Y-59602002D01*
X149712142Y-59602007D01*
X149700836Y-59666130D01*
X149694864Y-59700000D01*
X149695988Y-59706375D01*
X149711625Y-59795060D01*
X149713090Y-59803370D01*
X149713091Y-59803371D01*
X149713266Y-59804363D01*
X149713102Y-59804391D01*
X149713594Y-59849607D01*
X149683281Y-59888231D01*
X149635465Y-59899379D01*
X149591196Y-59878145D01*
X149553702Y-59840651D01*
X149542581Y-59833033D01*
X149456469Y-59795010D01*
X149445855Y-59792122D01*
X149429684Y-59790246D01*
X149425413Y-59790000D01*
X149359743Y-59790000D01*
X149352059Y-59792059D01*
X149350000Y-59799743D01*
X149350000Y-60050257D01*
X149352059Y-60057940D01*
X149359743Y-60060000D01*
X149660257Y-60060000D01*
X149667940Y-60057940D01*
X149670000Y-60050257D01*
X149670000Y-60034587D01*
X149669753Y-60030315D01*
X149667877Y-60014144D01*
X149664988Y-60003527D01*
X149658628Y-59989123D01*
X149654722Y-59940539D01*
X149681879Y-59900065D01*
X149728316Y-59885259D01*
X149773887Y-59902544D01*
X149847432Y-59964256D01*
X149947014Y-60000500D01*
X149960256Y-60000500D01*
X150006406Y-60016654D01*
X150032408Y-60058064D01*
X150026907Y-60106650D01*
X150017757Y-60125617D01*
X150014178Y-60139457D01*
X150012268Y-60173095D01*
X150012568Y-60180314D01*
X150018623Y-60223398D01*
X150021403Y-60230397D01*
X150028725Y-60232178D01*
X150663219Y-60232178D01*
X150697186Y-60240434D01*
X150723573Y-60263360D01*
X150736493Y-60295840D01*
X150745617Y-60360509D01*
X150746343Y-60370847D01*
X150746343Y-60774601D01*
X150748670Y-60782545D01*
X150751538Y-60782965D01*
X150793279Y-60803995D01*
X150814090Y-60845846D01*
X150924435Y-61627963D01*
X150925046Y-61642430D01*
X150924452Y-61653050D01*
X150924452Y-61653053D01*
X150924046Y-61660327D01*
X150939466Y-61704363D01*
X150939999Y-61705883D01*
X150939999Y-61705884D01*
X150954535Y-61747439D01*
X150954536Y-61747441D01*
X150956940Y-61754312D01*
X150956967Y-61754342D01*
X150956981Y-61754382D01*
X150989348Y-61790584D01*
X151023338Y-61828626D01*
X151023375Y-61828643D01*
X151023403Y-61828675D01*
X151030151Y-61831923D01*
X151030153Y-61831924D01*
X151061481Y-61847001D01*
X151069127Y-61850681D01*
X151113121Y-61871872D01*
X151113161Y-61871874D01*
X151113200Y-61871893D01*
X151164279Y-61874749D01*
X151212619Y-61877469D01*
X151229541Y-61871548D01*
X151243597Y-61868131D01*
X156655064Y-61102907D01*
X156697487Y-61109485D01*
X156729120Y-61138512D01*
X156739313Y-61180217D01*
X156724594Y-61449493D01*
X156712307Y-61486455D01*
X156682952Y-61512058D01*
X156644663Y-61519207D01*
X156608049Y-61505923D01*
X156483159Y-61417823D01*
X156478808Y-61416170D01*
X156478804Y-61416168D01*
X156333869Y-61361112D01*
X156333864Y-61361111D01*
X156329516Y-61359459D01*
X156324894Y-61358940D01*
X156324888Y-61358939D01*
X156170813Y-61341658D01*
X156166186Y-61341139D01*
X156161583Y-61341785D01*
X156161575Y-61341786D01*
X154858262Y-61524955D01*
X154858254Y-61524956D01*
X154855960Y-61525279D01*
X154853723Y-61525886D01*
X154853712Y-61525889D01*
X154741653Y-61556335D01*
X154741645Y-61556338D01*
X154737163Y-61557556D01*
X154733123Y-61559850D01*
X154733118Y-61559853D01*
X154598302Y-61636439D01*
X154598298Y-61636441D01*
X154594258Y-61638737D01*
X154590915Y-61641965D01*
X154590910Y-61641969D01*
X154479379Y-61749673D01*
X154479375Y-61749677D01*
X154476030Y-61752908D01*
X154473593Y-61756869D01*
X154473590Y-61756873D01*
X154392351Y-61888924D01*
X154392347Y-61888931D01*
X154389911Y-61892892D01*
X154388535Y-61897335D01*
X154388533Y-61897341D01*
X154342686Y-62045450D01*
X154342685Y-62045454D01*
X154341310Y-62049897D01*
X154341082Y-62054539D01*
X154341082Y-62054545D01*
X154333509Y-62209406D01*
X154333282Y-62214055D01*
X154334216Y-62218608D01*
X154334217Y-62218612D01*
X154365393Y-62370492D01*
X154365394Y-62370497D01*
X154366330Y-62375053D01*
X154368369Y-62379234D01*
X154368371Y-62379239D01*
X154378496Y-62399998D01*
X154438378Y-62522774D01*
X154441393Y-62526316D01*
X154441394Y-62526318D01*
X154484832Y-62577357D01*
X154544900Y-62647936D01*
X154679201Y-62742675D01*
X154832844Y-62801039D01*
X154996174Y-62819359D01*
X156306400Y-62635219D01*
X156425197Y-62602942D01*
X156429242Y-62600643D01*
X156429247Y-62600642D01*
X156526307Y-62545504D01*
X156564907Y-62535874D01*
X156602915Y-62547624D01*
X156629346Y-62577357D01*
X156636561Y-62616480D01*
X156614018Y-62866929D01*
X156613739Y-62869517D01*
X156496759Y-63800919D01*
X156496390Y-63803495D01*
X156346726Y-64730250D01*
X156346266Y-64732811D01*
X156164112Y-65653712D01*
X156163562Y-65656256D01*
X155949141Y-66570185D01*
X155948502Y-66572707D01*
X155702083Y-67478513D01*
X155701356Y-67481012D01*
X155423231Y-68377621D01*
X155422416Y-68380093D01*
X155391362Y-68469024D01*
X155368730Y-68501595D01*
X155332531Y-68517801D01*
X155293162Y-68512987D01*
X155263063Y-68489420D01*
X155262290Y-68488036D01*
X155148948Y-68369015D01*
X155123424Y-68353066D01*
X154244926Y-67804119D01*
X154026893Y-67667877D01*
X154024790Y-67666905D01*
X154024784Y-67666902D01*
X153919370Y-67618194D01*
X153919368Y-67618193D01*
X153915143Y-67616241D01*
X153910563Y-67615400D01*
X153910562Y-67615400D01*
X153758064Y-67587411D01*
X153758057Y-67587410D01*
X153753488Y-67586572D01*
X153748851Y-67586896D01*
X153748848Y-67586896D01*
X153594179Y-67597711D01*
X153594177Y-67597711D01*
X153589534Y-67598036D01*
X153585116Y-67599505D01*
X153585114Y-67599506D01*
X153437999Y-67648444D01*
X153437994Y-67648446D01*
X153433582Y-67649914D01*
X153429673Y-67652432D01*
X153429669Y-67652435D01*
X153299343Y-67736425D01*
X153299338Y-67736428D01*
X153295431Y-67738947D01*
X153292270Y-67742359D01*
X153292268Y-67742362D01*
X153186923Y-67856123D01*
X153186918Y-67856129D01*
X153183762Y-67859538D01*
X153181549Y-67863629D01*
X153181548Y-67863632D01*
X153107804Y-68000018D01*
X153107802Y-68000022D01*
X153105591Y-68004112D01*
X153104467Y-68008619D01*
X153104465Y-68008625D01*
X153066955Y-68159066D01*
X153066954Y-68159071D01*
X153065829Y-68163585D01*
X153065861Y-68168239D01*
X153065861Y-68168244D01*
X153066944Y-68323280D01*
X153066977Y-68327936D01*
X153068166Y-68332436D01*
X153107771Y-68482340D01*
X153107773Y-68482346D01*
X153108960Y-68486837D01*
X153111228Y-68490896D01*
X153111229Y-68490897D01*
X153186870Y-68626242D01*
X153186872Y-68626245D01*
X153189142Y-68630306D01*
X153192350Y-68633675D01*
X153192351Y-68633676D01*
X153246022Y-68690036D01*
X153265184Y-68727527D01*
X153260794Y-68769402D01*
X153234274Y-68802104D01*
X153194209Y-68815047D01*
X153153569Y-68804041D01*
X152642352Y-68488536D01*
X151019518Y-67486981D01*
X150990621Y-67453747D01*
X150985725Y-67409980D01*
X151006564Y-67371181D01*
X151045757Y-67351094D01*
X151089422Y-67356833D01*
X151140028Y-67380216D01*
X151144255Y-67382169D01*
X151305910Y-67411838D01*
X151469864Y-67400374D01*
X151625816Y-67348496D01*
X151763967Y-67259464D01*
X151875636Y-67138872D01*
X151953807Y-66994298D01*
X151993569Y-66834825D01*
X151992421Y-66670475D01*
X151950438Y-66511573D01*
X151875020Y-66376628D01*
X151872527Y-66372167D01*
X151872525Y-66372165D01*
X151870256Y-66368104D01*
X151864998Y-66362583D01*
X151826155Y-66321793D01*
X151756914Y-66249083D01*
X151730084Y-66232318D01*
X151417511Y-66037000D01*
X150974080Y-65759913D01*
X150931170Y-65740086D01*
X150866555Y-65710229D01*
X150866550Y-65710227D01*
X150862329Y-65708277D01*
X150857747Y-65707436D01*
X150705250Y-65679447D01*
X150705243Y-65679446D01*
X150700674Y-65678608D01*
X150696037Y-65678932D01*
X150696034Y-65678932D01*
X150541365Y-65689747D01*
X150541363Y-65689747D01*
X150536720Y-65690072D01*
X150532302Y-65691541D01*
X150532300Y-65691542D01*
X150385184Y-65740481D01*
X150385181Y-65740482D01*
X150380769Y-65741950D01*
X150376857Y-65744470D01*
X150376857Y-65744471D01*
X150246529Y-65828461D01*
X150246524Y-65828464D01*
X150242617Y-65830983D01*
X150239461Y-65834390D01*
X150239455Y-65834396D01*
X150134109Y-65948159D01*
X150134104Y-65948165D01*
X150130948Y-65951574D01*
X150128735Y-65955665D01*
X150128734Y-65955668D01*
X150054990Y-66092054D01*
X150054988Y-66092058D01*
X150052777Y-66096148D01*
X150051653Y-66100655D01*
X150051651Y-66100661D01*
X150014141Y-66251102D01*
X150014140Y-66251107D01*
X150013015Y-66255621D01*
X150013047Y-66260275D01*
X150013047Y-66260280D01*
X150014024Y-66400079D01*
X150014163Y-66419971D01*
X150015352Y-66424471D01*
X150054957Y-66574376D01*
X150054959Y-66574382D01*
X150056146Y-66578873D01*
X150058414Y-66582932D01*
X150058415Y-66582933D01*
X150134056Y-66718278D01*
X150134058Y-66718281D01*
X150136328Y-66722342D01*
X150139536Y-66725711D01*
X150139537Y-66725712D01*
X150239127Y-66830292D01*
X150259255Y-66874860D01*
X150247190Y-66922251D01*
X150208200Y-66951768D01*
X150159314Y-66950521D01*
X150136223Y-66941770D01*
X150135830Y-66941600D01*
X150135314Y-66941282D01*
X150113041Y-66932984D01*
X150112707Y-66932859D01*
X150073519Y-66918009D01*
X150073518Y-66918008D01*
X150066924Y-66915510D01*
X150066188Y-66915532D01*
X150065503Y-66915277D01*
X150058477Y-66915530D01*
X150058474Y-66915530D01*
X150016738Y-66917037D01*
X150016324Y-66917051D01*
X149974333Y-66918331D01*
X149974332Y-66918331D01*
X149967315Y-66918545D01*
X149966645Y-66918846D01*
X149965913Y-66918873D01*
X149959539Y-66921786D01*
X149959534Y-66921788D01*
X149921479Y-66939185D01*
X149921104Y-66939355D01*
X149882864Y-66956579D01*
X149882859Y-66956581D01*
X149876450Y-66959469D01*
X149875946Y-66960004D01*
X149875280Y-66960309D01*
X149870492Y-66965454D01*
X149867151Y-66967837D01*
X149833564Y-66977149D01*
X149834750Y-66983579D01*
X149815541Y-67024522D01*
X149812366Y-67027934D01*
X149812360Y-67027942D01*
X149807402Y-67033273D01*
X149804859Y-67040097D01*
X149804856Y-67040103D01*
X149801483Y-67049156D01*
X149794894Y-67062536D01*
X149369558Y-67743101D01*
X149341543Y-67769222D01*
X149304221Y-67777837D01*
X149267591Y-67766638D01*
X149139571Y-67686643D01*
X149132982Y-67684660D01*
X149131173Y-67691299D01*
X149131173Y-68103312D01*
X149119926Y-68142531D01*
X149085173Y-68198138D01*
X149058293Y-68223642D01*
X149022420Y-68232919D01*
X148526296Y-68232919D01*
X148487082Y-68221675D01*
X148431356Y-68186853D01*
X148431352Y-68186851D01*
X148428281Y-68184932D01*
X148424892Y-68183648D01*
X148424888Y-68183646D01*
X148393237Y-68171655D01*
X148386422Y-68169073D01*
X148379140Y-68169295D01*
X148379138Y-68169295D01*
X148333862Y-68170678D01*
X148333859Y-68170678D01*
X148326578Y-68170901D01*
X148319932Y-68173894D01*
X148312833Y-68175534D01*
X148312610Y-68174568D01*
X148276874Y-68178913D01*
X148237879Y-68158450D01*
X148120271Y-68040842D01*
X148098913Y-67995343D01*
X148111548Y-67946695D01*
X148114488Y-67942402D01*
X148119337Y-67937554D01*
X148162451Y-67839911D01*
X148162889Y-67840104D01*
X148187084Y-67804119D01*
X148232020Y-67788913D01*
X148276702Y-67788913D01*
X148284989Y-67789378D01*
X148290688Y-67790020D01*
X148298561Y-67792775D01*
X148328715Y-67789377D01*
X148336999Y-67788913D01*
X148340016Y-67788913D01*
X148344177Y-67788913D01*
X148351176Y-67787315D01*
X148359351Y-67785926D01*
X148378030Y-67783822D01*
X148418380Y-67790666D01*
X148448921Y-67817909D01*
X148460312Y-67857219D01*
X148449068Y-67896570D01*
X148431604Y-67924517D01*
X148429621Y-67931109D01*
X148436260Y-67932919D01*
X148821430Y-67932919D01*
X148829113Y-67930859D01*
X148831173Y-67923176D01*
X148831173Y-67510321D01*
X148828283Y-67501050D01*
X148817909Y-67492926D01*
X148793832Y-67459517D01*
X148791341Y-67418411D01*
X148811206Y-67382341D01*
X149181375Y-67012172D01*
X149205382Y-66996132D01*
X149233701Y-66990499D01*
X149561227Y-66990499D01*
X149563372Y-66990499D01*
X149587662Y-66987682D01*
X149687016Y-66943813D01*
X149709032Y-66921796D01*
X149749251Y-66901120D01*
X149753875Y-66901801D01*
X149762480Y-66868348D01*
X149763813Y-66867016D01*
X149807682Y-66767662D01*
X149810500Y-66743373D01*
X149810499Y-66376628D01*
X149807682Y-66352338D01*
X149763813Y-66252984D01*
X149687016Y-66176187D01*
X149680743Y-66173417D01*
X149680740Y-66173415D01*
X149621868Y-66147420D01*
X149589759Y-66120124D01*
X149577759Y-66079725D01*
X149589760Y-66039327D01*
X149621869Y-66012031D01*
X149680457Y-65986162D01*
X149691575Y-65978545D01*
X149758545Y-65911575D01*
X149766161Y-65900458D01*
X149804939Y-65812637D01*
X149807828Y-65802016D01*
X149809753Y-65785426D01*
X149810000Y-65781155D01*
X149810000Y-65759743D01*
X149807940Y-65752059D01*
X149800257Y-65750000D01*
X149274000Y-65750000D01*
X149237000Y-65740086D01*
X149209914Y-65713000D01*
X149200000Y-65676000D01*
X149200000Y-65440257D01*
X149500000Y-65440257D01*
X149502059Y-65447940D01*
X149509743Y-65450000D01*
X149800257Y-65450000D01*
X149807940Y-65447940D01*
X149810000Y-65440257D01*
X149810000Y-65418845D01*
X149809753Y-65414573D01*
X149807828Y-65397983D01*
X149804939Y-65387362D01*
X149766161Y-65299541D01*
X149758545Y-65288424D01*
X149691575Y-65221454D01*
X149680458Y-65213838D01*
X149592637Y-65175060D01*
X149582016Y-65172171D01*
X149565426Y-65170246D01*
X149561155Y-65170000D01*
X149509743Y-65170000D01*
X149502059Y-65172059D01*
X149500000Y-65179743D01*
X149500000Y-65440257D01*
X149200000Y-65440257D01*
X149200000Y-65179743D01*
X149197940Y-65172059D01*
X149190257Y-65170000D01*
X149138845Y-65170000D01*
X149134573Y-65170246D01*
X149117983Y-65172171D01*
X149107362Y-65175060D01*
X149019541Y-65213838D01*
X149008424Y-65221454D01*
X148941454Y-65288424D01*
X148933838Y-65299541D01*
X148895060Y-65387362D01*
X148892171Y-65397983D01*
X148890246Y-65414573D01*
X148890000Y-65418845D01*
X148890000Y-65442448D01*
X148873473Y-65489062D01*
X148831274Y-65514854D01*
X148782253Y-65508305D01*
X148748305Y-65472339D01*
X148716161Y-65399541D01*
X148708545Y-65388424D01*
X148641575Y-65321454D01*
X148630458Y-65313838D01*
X148542637Y-65275060D01*
X148532016Y-65272171D01*
X148515426Y-65270246D01*
X148511155Y-65270000D01*
X148459743Y-65270000D01*
X148452059Y-65272059D01*
X148450000Y-65279743D01*
X148450000Y-65776000D01*
X148440086Y-65813000D01*
X148413000Y-65840086D01*
X148376000Y-65850000D01*
X147849743Y-65850000D01*
X147842059Y-65852059D01*
X147840000Y-65859743D01*
X147840000Y-65881155D01*
X147840246Y-65885426D01*
X147842171Y-65902016D01*
X147845060Y-65912637D01*
X147883838Y-66000458D01*
X147891454Y-66011575D01*
X147922906Y-66043027D01*
X147944140Y-66087297D01*
X147932991Y-66135113D01*
X147894367Y-66165426D01*
X147845273Y-66164891D01*
X147802986Y-66149500D01*
X147697014Y-66149500D01*
X147690930Y-66151714D01*
X147690926Y-66151715D01*
X147603518Y-66183528D01*
X147603513Y-66183530D01*
X147597432Y-66185744D01*
X147592472Y-66189905D01*
X147592470Y-66189907D01*
X147521210Y-66249701D01*
X147521207Y-66249703D01*
X147516252Y-66253862D01*
X147513018Y-66259462D01*
X147513014Y-66259468D01*
X147510975Y-66263001D01*
X147483890Y-66290086D01*
X147446890Y-66300000D01*
X146574000Y-66300000D01*
X146537000Y-66290086D01*
X146509914Y-66263000D01*
X146500000Y-66226000D01*
X146500000Y-66074000D01*
X146509914Y-66037000D01*
X146537000Y-66009914D01*
X146574000Y-66000000D01*
X147516011Y-66000000D01*
X147524026Y-65997568D01*
X147524635Y-65991385D01*
X147520395Y-65981149D01*
X147493945Y-65941562D01*
X147481474Y-65900449D01*
X147493946Y-65859337D01*
X147506809Y-65840086D01*
X147524917Y-65812986D01*
X147538000Y-65747211D01*
X147537999Y-65552790D01*
X147535506Y-65540257D01*
X147840000Y-65540257D01*
X147842059Y-65547940D01*
X147849743Y-65550000D01*
X148140257Y-65550000D01*
X148147940Y-65547940D01*
X148150000Y-65540257D01*
X148150000Y-65279743D01*
X148147940Y-65272059D01*
X148140257Y-65270000D01*
X148088845Y-65270000D01*
X148084573Y-65270246D01*
X148067983Y-65272171D01*
X148057362Y-65275060D01*
X147969541Y-65313838D01*
X147958424Y-65321454D01*
X147891454Y-65388424D01*
X147883838Y-65399541D01*
X147845060Y-65487362D01*
X147842171Y-65497983D01*
X147840246Y-65514573D01*
X147840000Y-65518845D01*
X147840000Y-65540257D01*
X147535506Y-65540257D01*
X147524917Y-65487014D01*
X147494245Y-65441111D01*
X147481775Y-65400000D01*
X147494246Y-65358888D01*
X147524917Y-65312986D01*
X147538000Y-65247211D01*
X147537999Y-65052790D01*
X147524917Y-64987014D01*
X147494246Y-64941111D01*
X147481775Y-64899998D01*
X147494246Y-64858887D01*
X147524917Y-64812986D01*
X147526339Y-64805833D01*
X147529127Y-64799105D01*
X147531482Y-64800080D01*
X147551129Y-64767299D01*
X147598076Y-64750500D01*
X147752701Y-64750500D01*
X147797637Y-64765706D01*
X147821831Y-64801691D01*
X147822270Y-64801498D01*
X147823357Y-64803961D01*
X147823358Y-64803963D01*
X147824515Y-64806582D01*
X147824516Y-64806586D01*
X147857261Y-64880745D01*
X147865384Y-64899141D01*
X147940859Y-64974616D01*
X148026392Y-65012383D01*
X148033408Y-65015481D01*
X148038502Y-65017730D01*
X148062377Y-65020500D01*
X148417622Y-65020499D01*
X148441498Y-65017730D01*
X148539141Y-64974616D01*
X148614616Y-64899141D01*
X148657730Y-64801498D01*
X148660500Y-64777623D01*
X148660499Y-64322378D01*
X148657730Y-64298502D01*
X148614616Y-64200859D01*
X148539141Y-64125384D01*
X148465107Y-64092694D01*
X148432998Y-64065399D01*
X148420998Y-64025000D01*
X148432998Y-63984601D01*
X148465108Y-63957305D01*
X148539141Y-63924616D01*
X148614616Y-63849141D01*
X148657730Y-63751498D01*
X148660500Y-63727623D01*
X148660499Y-63272378D01*
X148657730Y-63248502D01*
X148614616Y-63150859D01*
X148539141Y-63075384D01*
X148532870Y-63072615D01*
X148528213Y-63069425D01*
X148501449Y-63036167D01*
X148497510Y-62993659D01*
X148517707Y-62956049D01*
X148569764Y-62903992D01*
X148574615Y-62899141D01*
X148617729Y-62801498D01*
X148620499Y-62777623D01*
X148620499Y-62775413D01*
X148799999Y-62775413D01*
X148800245Y-62779684D01*
X148802121Y-62795855D01*
X148805009Y-62806469D01*
X148843032Y-62892581D01*
X148850650Y-62903702D01*
X148916296Y-62969348D01*
X148932151Y-62980209D01*
X148958914Y-63013467D01*
X148962853Y-63055975D01*
X148942657Y-63093584D01*
X148890234Y-63146006D01*
X148890227Y-63146015D01*
X148885384Y-63150859D01*
X148882615Y-63157128D01*
X148882614Y-63157131D01*
X148844516Y-63243413D01*
X148844514Y-63243419D01*
X148842270Y-63248502D01*
X148841629Y-63254020D01*
X148841628Y-63254027D01*
X148839746Y-63270248D01*
X148839745Y-63270265D01*
X148839500Y-63272377D01*
X148839500Y-63274519D01*
X148839500Y-63274520D01*
X148839500Y-63725476D01*
X148839500Y-63725493D01*
X148839501Y-63727622D01*
X148842270Y-63751498D01*
X148844517Y-63756586D01*
X148844518Y-63756590D01*
X148879278Y-63835313D01*
X148885384Y-63849141D01*
X148960859Y-63924616D01*
X149034892Y-63957305D01*
X149067001Y-63984601D01*
X149079001Y-64025000D01*
X149067001Y-64065399D01*
X149034892Y-64092694D01*
X148960859Y-64125384D01*
X148956013Y-64130229D01*
X148956010Y-64130232D01*
X148890232Y-64196010D01*
X148890229Y-64196013D01*
X148885384Y-64200859D01*
X148882615Y-64207128D01*
X148882614Y-64207131D01*
X148844516Y-64293413D01*
X148844514Y-64293419D01*
X148842270Y-64298502D01*
X148841629Y-64304020D01*
X148841628Y-64304027D01*
X148839746Y-64320248D01*
X148839745Y-64320265D01*
X148839500Y-64322377D01*
X148839500Y-64324519D01*
X148839500Y-64324520D01*
X148839500Y-64775476D01*
X148839500Y-64775493D01*
X148839501Y-64777622D01*
X148842270Y-64801498D01*
X148844517Y-64806586D01*
X148844518Y-64806590D01*
X148877261Y-64880745D01*
X148885384Y-64899141D01*
X148960859Y-64974616D01*
X149046392Y-65012383D01*
X149053408Y-65015481D01*
X149058502Y-65017730D01*
X149082377Y-65020500D01*
X149437622Y-65020499D01*
X149461498Y-65017730D01*
X149559141Y-64974616D01*
X149616934Y-64916822D01*
X149653255Y-64896899D01*
X149684240Y-64898936D01*
X149684554Y-64897161D01*
X149690928Y-64898285D01*
X149697014Y-64900500D01*
X149796509Y-64900500D01*
X149802986Y-64900500D01*
X149902568Y-64864256D01*
X149983748Y-64796138D01*
X150036734Y-64704363D01*
X150055136Y-64600000D01*
X150036734Y-64495637D01*
X149983748Y-64403862D01*
X149902568Y-64335744D01*
X149896483Y-64333529D01*
X149896481Y-64333528D01*
X149809073Y-64301715D01*
X149809070Y-64301714D01*
X149802986Y-64299500D01*
X149726389Y-64299500D01*
X149685990Y-64287500D01*
X149658694Y-64255390D01*
X149637385Y-64207131D01*
X149634616Y-64200859D01*
X149559141Y-64125384D01*
X149485107Y-64092694D01*
X149452998Y-64065399D01*
X149440998Y-64025000D01*
X149452998Y-63984601D01*
X149485108Y-63957305D01*
X149559141Y-63924616D01*
X149634616Y-63849141D01*
X149640722Y-63835311D01*
X149663418Y-63806455D01*
X149697192Y-63792057D01*
X149733729Y-63795665D01*
X149740930Y-63798286D01*
X149740931Y-63798286D01*
X149747014Y-63800500D01*
X149846509Y-63800500D01*
X149852986Y-63800500D01*
X149952568Y-63764256D01*
X150033748Y-63696138D01*
X150086734Y-63604363D01*
X150105136Y-63500000D01*
X150086734Y-63395637D01*
X150033748Y-63303862D01*
X149952568Y-63235744D01*
X149946483Y-63233529D01*
X149946481Y-63233528D01*
X149859073Y-63201715D01*
X149859070Y-63201714D01*
X149852986Y-63199500D01*
X149747014Y-63199500D01*
X149740935Y-63201712D01*
X149740931Y-63201713D01*
X149733723Y-63204337D01*
X149697188Y-63207941D01*
X149663418Y-63193544D01*
X149640722Y-63164688D01*
X149634616Y-63150859D01*
X149559141Y-63075384D01*
X149552870Y-63072615D01*
X149547794Y-63069138D01*
X149521030Y-63035880D01*
X149517091Y-62993372D01*
X149537288Y-62955762D01*
X149589345Y-62903705D01*
X149596965Y-62892581D01*
X149634988Y-62806469D01*
X149637876Y-62795855D01*
X149639752Y-62779684D01*
X149639999Y-62775413D01*
X149639999Y-62715077D01*
X150768318Y-62715077D01*
X150769252Y-62719630D01*
X150769253Y-62719634D01*
X150800429Y-62871513D01*
X150800430Y-62871518D01*
X150801366Y-62876074D01*
X150803405Y-62880255D01*
X150803407Y-62880260D01*
X150852155Y-62980209D01*
X150873414Y-63023796D01*
X150876429Y-63027339D01*
X150876430Y-63027340D01*
X150912003Y-63069138D01*
X150979935Y-63148958D01*
X151114236Y-63243697D01*
X151118589Y-63245350D01*
X151118590Y-63245351D01*
X151126885Y-63248502D01*
X151267879Y-63302061D01*
X151410914Y-63318104D01*
X151426582Y-63319862D01*
X151426582Y-63319861D01*
X151431210Y-63320381D01*
X152345327Y-63191911D01*
X152464124Y-63159634D01*
X152607030Y-63078453D01*
X152725257Y-62964283D01*
X152811376Y-62824298D01*
X152859977Y-62667293D01*
X152868006Y-62503135D01*
X152834958Y-62342138D01*
X152762910Y-62194416D01*
X152656388Y-62069254D01*
X152638210Y-62056431D01*
X152525892Y-61977199D01*
X152525891Y-61977198D01*
X152522087Y-61974515D01*
X152517736Y-61972862D01*
X152517732Y-61972860D01*
X152372797Y-61917804D01*
X152372792Y-61917803D01*
X152368444Y-61916151D01*
X152363822Y-61915632D01*
X152363816Y-61915631D01*
X152209741Y-61898350D01*
X152205114Y-61897831D01*
X152200511Y-61898477D01*
X152200503Y-61898478D01*
X151293299Y-62025977D01*
X151293291Y-62025978D01*
X151290997Y-62026301D01*
X151288760Y-62026908D01*
X151288749Y-62026911D01*
X151176689Y-62057357D01*
X151176681Y-62057360D01*
X151172199Y-62058578D01*
X151168159Y-62060872D01*
X151168154Y-62060875D01*
X151033338Y-62137461D01*
X151033334Y-62137463D01*
X151029294Y-62139759D01*
X151025951Y-62142987D01*
X151025946Y-62142991D01*
X150914416Y-62250694D01*
X150914412Y-62250698D01*
X150911067Y-62253929D01*
X150908630Y-62257890D01*
X150908627Y-62257894D01*
X150827385Y-62389951D01*
X150827382Y-62389957D01*
X150824948Y-62393914D01*
X150823573Y-62398355D01*
X150823571Y-62398360D01*
X150777722Y-62546471D01*
X150777720Y-62546477D01*
X150776346Y-62550919D01*
X150776119Y-62555558D01*
X150776118Y-62555565D01*
X150768545Y-62710428D01*
X150768318Y-62715077D01*
X149639999Y-62715077D01*
X149639999Y-62709743D01*
X149637939Y-62702059D01*
X149630256Y-62700000D01*
X148809742Y-62700000D01*
X148802058Y-62702059D01*
X148799999Y-62709743D01*
X148799999Y-62775413D01*
X148620499Y-62775413D01*
X148620498Y-62322378D01*
X148617729Y-62298502D01*
X148574615Y-62200859D01*
X148525576Y-62151820D01*
X148504612Y-62109717D01*
X148513254Y-62063485D01*
X148548012Y-62031799D01*
X148568828Y-62022608D01*
X148647608Y-61943828D01*
X148667304Y-61899218D01*
X148694601Y-61867108D01*
X148735000Y-61855107D01*
X148775399Y-61867108D01*
X148802695Y-61899218D01*
X148810171Y-61916151D01*
X148822392Y-61943828D01*
X148901172Y-62022608D01*
X148903413Y-62023597D01*
X148928417Y-62054670D01*
X148932356Y-62097177D01*
X148912160Y-62134787D01*
X148850650Y-62196297D01*
X148843032Y-62207418D01*
X148805009Y-62293530D01*
X148802121Y-62304144D01*
X148800245Y-62320315D01*
X148799999Y-62324587D01*
X148799999Y-62390257D01*
X148802058Y-62397940D01*
X148809742Y-62400000D01*
X149630256Y-62400000D01*
X149637939Y-62397940D01*
X149639999Y-62390257D01*
X149639999Y-62324587D01*
X149639752Y-62320315D01*
X149637876Y-62304144D01*
X149634988Y-62293530D01*
X149596965Y-62207418D01*
X149589347Y-62196297D01*
X149527838Y-62134788D01*
X149507642Y-62097178D01*
X149511581Y-62054670D01*
X149536584Y-62023598D01*
X149538828Y-62022608D01*
X149617608Y-61943828D01*
X149624047Y-61929242D01*
X149646742Y-61900387D01*
X149680515Y-61885989D01*
X149717052Y-61889595D01*
X149740930Y-61898286D01*
X149740931Y-61898286D01*
X149747014Y-61900500D01*
X149846509Y-61900500D01*
X149852986Y-61900500D01*
X149952568Y-61864256D01*
X150033748Y-61796138D01*
X150086734Y-61704363D01*
X150105136Y-61600000D01*
X150086734Y-61495637D01*
X150033748Y-61403862D01*
X149952568Y-61335744D01*
X149946483Y-61333529D01*
X149946481Y-61333528D01*
X149859073Y-61301715D01*
X149859070Y-61301714D01*
X149852986Y-61299500D01*
X149747014Y-61299500D01*
X149740933Y-61301713D01*
X149740928Y-61301714D01*
X149717049Y-61310405D01*
X149680513Y-61314010D01*
X149646741Y-61299612D01*
X149624046Y-61270754D01*
X149620377Y-61262444D01*
X149617608Y-61256172D01*
X149538828Y-61177392D01*
X149532555Y-61174622D01*
X149441997Y-61134637D01*
X149441993Y-61134636D01*
X149436909Y-61132391D01*
X149431388Y-61131750D01*
X149431383Y-61131749D01*
X149414119Y-61129746D01*
X149414103Y-61129745D01*
X149411991Y-61129500D01*
X149409847Y-61129500D01*
X149030155Y-61129500D01*
X149030137Y-61129500D01*
X149028010Y-61129501D01*
X149025884Y-61129747D01*
X149025876Y-61129748D01*
X149008622Y-61131749D01*
X149008618Y-61131749D01*
X149003091Y-61132391D01*
X148998002Y-61134637D01*
X148997998Y-61134639D01*
X148907444Y-61174622D01*
X148907441Y-61174623D01*
X148901172Y-61177392D01*
X148896326Y-61182237D01*
X148896323Y-61182240D01*
X148827240Y-61251323D01*
X148827237Y-61251326D01*
X148822392Y-61256172D01*
X148819623Y-61262441D01*
X148819622Y-61262444D01*
X148802695Y-61300782D01*
X148775399Y-61332891D01*
X148735000Y-61344892D01*
X148694601Y-61332891D01*
X148667305Y-61300782D01*
X148650377Y-61262444D01*
X148647608Y-61256172D01*
X148568828Y-61177392D01*
X148562555Y-61174622D01*
X148471997Y-61134637D01*
X148471993Y-61134636D01*
X148466909Y-61132391D01*
X148461388Y-61131750D01*
X148461383Y-61131749D01*
X148444119Y-61129746D01*
X148444103Y-61129745D01*
X148441991Y-61129500D01*
X148439847Y-61129500D01*
X148060155Y-61129500D01*
X148060137Y-61129500D01*
X148058010Y-61129501D01*
X148055884Y-61129747D01*
X148055876Y-61129748D01*
X148038622Y-61131749D01*
X148038618Y-61131749D01*
X148033091Y-61132391D01*
X148028002Y-61134637D01*
X148027998Y-61134639D01*
X147937444Y-61174622D01*
X147937441Y-61174623D01*
X147931172Y-61177392D01*
X147926326Y-61182237D01*
X147926323Y-61182240D01*
X147857240Y-61251323D01*
X147857237Y-61251326D01*
X147852392Y-61256172D01*
X147849623Y-61262441D01*
X147849622Y-61262444D01*
X147809637Y-61353002D01*
X147809635Y-61353007D01*
X147807391Y-61358091D01*
X147806750Y-61363609D01*
X147806749Y-61363616D01*
X147804746Y-61380880D01*
X147804745Y-61380897D01*
X147804500Y-61383009D01*
X147804500Y-61385151D01*
X147804500Y-61385152D01*
X147804500Y-61814844D01*
X147804500Y-61814861D01*
X147804501Y-61816990D01*
X147804747Y-61819116D01*
X147804748Y-61819123D01*
X147805470Y-61825350D01*
X147807391Y-61841909D01*
X147809638Y-61846999D01*
X147809639Y-61847001D01*
X147840901Y-61917804D01*
X147852392Y-61943828D01*
X147857240Y-61948675D01*
X147857240Y-61948676D01*
X147917734Y-62009170D01*
X147937930Y-62046778D01*
X147933992Y-62089284D01*
X147907232Y-62122543D01*
X147907122Y-62122617D01*
X147900858Y-62125384D01*
X147896015Y-62130226D01*
X147896012Y-62130229D01*
X147830231Y-62196010D01*
X147830228Y-62196013D01*
X147825383Y-62200859D01*
X147822614Y-62207128D01*
X147822613Y-62207131D01*
X147784515Y-62293413D01*
X147784513Y-62293419D01*
X147782269Y-62298502D01*
X147781628Y-62304020D01*
X147781627Y-62304027D01*
X147779745Y-62320248D01*
X147779744Y-62320265D01*
X147779499Y-62322377D01*
X147779499Y-62324519D01*
X147779499Y-62324520D01*
X147779499Y-62775476D01*
X147779499Y-62775493D01*
X147779500Y-62777622D01*
X147779746Y-62779748D01*
X147779747Y-62779755D01*
X147781614Y-62795855D01*
X147782269Y-62801498D01*
X147784516Y-62806586D01*
X147784517Y-62806590D01*
X147813184Y-62871513D01*
X147825383Y-62899141D01*
X147900858Y-62974616D01*
X147907134Y-62977387D01*
X147911785Y-62980573D01*
X147938549Y-63013832D01*
X147942488Y-63056339D01*
X147922292Y-63093949D01*
X147870233Y-63146008D01*
X147870228Y-63146014D01*
X147865384Y-63150859D01*
X147862616Y-63157127D01*
X147858738Y-63162789D01*
X147857698Y-63162076D01*
X147836087Y-63187499D01*
X147795688Y-63199500D01*
X147697014Y-63199500D01*
X147643823Y-63218859D01*
X147637307Y-63221231D01*
X147590775Y-63222584D01*
X147552642Y-63195882D01*
X147537999Y-63151694D01*
X147537999Y-63052790D01*
X147524917Y-62987014D01*
X147494245Y-62941111D01*
X147481775Y-62900000D01*
X147494246Y-62858888D01*
X147524917Y-62812986D01*
X147538000Y-62747211D01*
X147537999Y-62552790D01*
X147524917Y-62487014D01*
X147494246Y-62441111D01*
X147481775Y-62399998D01*
X147494246Y-62358887D01*
X147524917Y-62312986D01*
X147538000Y-62247211D01*
X147537999Y-62052790D01*
X147524917Y-61987014D01*
X147516565Y-61974515D01*
X147494246Y-61941112D01*
X147481775Y-61900000D01*
X147494246Y-61858888D01*
X147524917Y-61812986D01*
X147538000Y-61747211D01*
X147537999Y-61552790D01*
X147524917Y-61487014D01*
X147494245Y-61441111D01*
X147481775Y-61400000D01*
X147494246Y-61358888D01*
X147505673Y-61341786D01*
X147524917Y-61312986D01*
X147538000Y-61247211D01*
X147537999Y-61052790D01*
X147524917Y-60987014D01*
X147475077Y-60912423D01*
X147462265Y-60903862D01*
X147406547Y-60866632D01*
X147406543Y-60866630D01*
X147400486Y-60862583D01*
X147393337Y-60861161D01*
X147393335Y-60861160D01*
X147338282Y-60850210D01*
X147338279Y-60850209D01*
X147334711Y-60849500D01*
X147331071Y-60849500D01*
X147272135Y-60849500D01*
X146073999Y-60849500D01*
X146037000Y-60839587D01*
X146009914Y-60812501D01*
X146000000Y-60775501D01*
X146000000Y-60627742D01*
X146005633Y-60599423D01*
X146021674Y-60575416D01*
X146136998Y-60460092D01*
X146211677Y-60385413D01*
X148730000Y-60385413D01*
X148730246Y-60389684D01*
X148732122Y-60405855D01*
X148735010Y-60416469D01*
X148773033Y-60502581D01*
X148780651Y-60513702D01*
X148846297Y-60579348D01*
X148857418Y-60586966D01*
X148943530Y-60624989D01*
X148954144Y-60627877D01*
X148970315Y-60629753D01*
X148974587Y-60630000D01*
X149040257Y-60630000D01*
X149047940Y-60627940D01*
X149050000Y-60620257D01*
X149350000Y-60620257D01*
X149352059Y-60627940D01*
X149359743Y-60630000D01*
X149425413Y-60630000D01*
X149429684Y-60629753D01*
X149445855Y-60627877D01*
X149456469Y-60624989D01*
X149542581Y-60586966D01*
X149553702Y-60579348D01*
X149590356Y-60542694D01*
X150063496Y-60542694D01*
X150090823Y-60737132D01*
X150092525Y-60744152D01*
X150103633Y-60775961D01*
X150110888Y-60788278D01*
X150140920Y-60821926D01*
X150152334Y-60830527D01*
X150192957Y-60850121D01*
X150206795Y-60853700D01*
X150240432Y-60855610D01*
X150247650Y-60855310D01*
X150437563Y-60828619D01*
X150444562Y-60825839D01*
X150446343Y-60818518D01*
X150446343Y-60541921D01*
X150444283Y-60534237D01*
X150436600Y-60532178D01*
X150072641Y-60532178D01*
X150064696Y-60534506D01*
X150063496Y-60542694D01*
X149590356Y-60542694D01*
X149619348Y-60513702D01*
X149626966Y-60502581D01*
X149664989Y-60416469D01*
X149667877Y-60405855D01*
X149669753Y-60389684D01*
X149670000Y-60385413D01*
X149670000Y-60369743D01*
X149667940Y-60362059D01*
X149660257Y-60360000D01*
X149359743Y-60360000D01*
X149352059Y-60362059D01*
X149350000Y-60369743D01*
X149350000Y-60620257D01*
X149050000Y-60620257D01*
X149050000Y-60369743D01*
X149047940Y-60362059D01*
X149040257Y-60360000D01*
X148739743Y-60360000D01*
X148732059Y-60362059D01*
X148730000Y-60369743D01*
X148730000Y-60385413D01*
X146211677Y-60385413D01*
X146546831Y-60050257D01*
X148730000Y-60050257D01*
X148732059Y-60057940D01*
X148739743Y-60060000D01*
X149040257Y-60060000D01*
X149047940Y-60057940D01*
X149050000Y-60050257D01*
X149050000Y-59799743D01*
X149047940Y-59792059D01*
X149040257Y-59790000D01*
X148974587Y-59790000D01*
X148970315Y-59790246D01*
X148954144Y-59792122D01*
X148943530Y-59795010D01*
X148857418Y-59833033D01*
X148846297Y-59840651D01*
X148780651Y-59906297D01*
X148773033Y-59917418D01*
X148735010Y-60003530D01*
X148732122Y-60014144D01*
X148730246Y-60030315D01*
X148730000Y-60034587D01*
X148730000Y-60050257D01*
X146546831Y-60050257D01*
X146780038Y-59817049D01*
X146786220Y-59811526D01*
X146790708Y-59807946D01*
X146798224Y-59804328D01*
X146817149Y-59780596D01*
X146822672Y-59774415D01*
X146827748Y-59769341D01*
X146831570Y-59763258D01*
X146836351Y-59756518D01*
X146855290Y-59732771D01*
X146857145Y-59724639D01*
X146858582Y-59721656D01*
X146859676Y-59718528D01*
X146864116Y-59711464D01*
X146867513Y-59681304D01*
X146868902Y-59673129D01*
X146870500Y-59666130D01*
X146870500Y-59658952D01*
X146870965Y-59650668D01*
X146873428Y-59628801D01*
X146874362Y-59620514D01*
X146871607Y-59612641D01*
X146870965Y-59606942D01*
X146870500Y-59598655D01*
X146870500Y-58759063D01*
X146882501Y-58718664D01*
X146914610Y-58691368D01*
X146927897Y-58685501D01*
X146977016Y-58663813D01*
X147053813Y-58587016D01*
X147082578Y-58521868D01*
X147109874Y-58489760D01*
X147150273Y-58477759D01*
X147190671Y-58489759D01*
X147217968Y-58521868D01*
X147243838Y-58580458D01*
X147251454Y-58591575D01*
X147318424Y-58658545D01*
X147329541Y-58666161D01*
X147417362Y-58704939D01*
X147427983Y-58707828D01*
X147444573Y-58709753D01*
X147448845Y-58710000D01*
X147470257Y-58710000D01*
X147477940Y-58707940D01*
X147480000Y-58700257D01*
X147780000Y-58700257D01*
X147782059Y-58707940D01*
X147789743Y-58710000D01*
X147811155Y-58710000D01*
X147815426Y-58709753D01*
X147832016Y-58707828D01*
X147842637Y-58704939D01*
X147930458Y-58666161D01*
X147941575Y-58658545D01*
X148008545Y-58591575D01*
X148016161Y-58580458D01*
X148054939Y-58492637D01*
X148057828Y-58482016D01*
X148059753Y-58465426D01*
X148060000Y-58461155D01*
X148060000Y-58409743D01*
X148057940Y-58402059D01*
X148050257Y-58400000D01*
X147789743Y-58400000D01*
X147782059Y-58402059D01*
X147780000Y-58409743D01*
X147780000Y-58700257D01*
X147480000Y-58700257D01*
X147480000Y-58090257D01*
X147780000Y-58090257D01*
X147782059Y-58097940D01*
X147789743Y-58100000D01*
X148050257Y-58100000D01*
X148057940Y-58097940D01*
X148060000Y-58090257D01*
X148060000Y-58038845D01*
X148059753Y-58034573D01*
X148057828Y-58017983D01*
X148054939Y-58007362D01*
X148016161Y-57919541D01*
X148008545Y-57908424D01*
X147941575Y-57841454D01*
X147930458Y-57833838D01*
X147842637Y-57795060D01*
X147832016Y-57792171D01*
X147815426Y-57790246D01*
X147811155Y-57790000D01*
X147789743Y-57790000D01*
X147782059Y-57792059D01*
X147780000Y-57799743D01*
X147780000Y-58090257D01*
X147480000Y-58090257D01*
X147480000Y-57799743D01*
X147477738Y-57791304D01*
X147466335Y-57779901D01*
X147456730Y-57774015D01*
X147438634Y-57736076D01*
X147444121Y-57694401D01*
X147471420Y-57662438D01*
X147511723Y-57650500D01*
X147561180Y-57650500D01*
X147564820Y-57650500D01*
X147608722Y-57641767D01*
X147658504Y-57608504D01*
X147691767Y-57558722D01*
X147700500Y-57514820D01*
X147700500Y-57095412D01*
X147880000Y-57095412D01*
X147880246Y-57099683D01*
X147882122Y-57115854D01*
X147885010Y-57126468D01*
X147923033Y-57212580D01*
X147930651Y-57223701D01*
X147996297Y-57289347D01*
X148007418Y-57296965D01*
X148093530Y-57334988D01*
X148104144Y-57337876D01*
X148120315Y-57339752D01*
X148124587Y-57339999D01*
X148190257Y-57339999D01*
X148197940Y-57337939D01*
X148200000Y-57330256D01*
X148200000Y-57079742D01*
X148197940Y-57072058D01*
X148190257Y-57069999D01*
X147889743Y-57069999D01*
X147882059Y-57072058D01*
X147880000Y-57079742D01*
X147880000Y-57095412D01*
X147700500Y-57095412D01*
X147700500Y-56760256D01*
X147880000Y-56760256D01*
X147882059Y-56767939D01*
X147889743Y-56769999D01*
X148190257Y-56769999D01*
X148197940Y-56767939D01*
X148200000Y-56760256D01*
X148200000Y-56509742D01*
X148197940Y-56502058D01*
X148190257Y-56499999D01*
X148124587Y-56499999D01*
X148120315Y-56500245D01*
X148104144Y-56502121D01*
X148093530Y-56505009D01*
X148007418Y-56543032D01*
X147996297Y-56550650D01*
X147930651Y-56616296D01*
X147923033Y-56627417D01*
X147885010Y-56713529D01*
X147882122Y-56724143D01*
X147880246Y-56740314D01*
X147880000Y-56744586D01*
X147880000Y-56760256D01*
X147700500Y-56760256D01*
X147700500Y-55685180D01*
X147691767Y-55641278D01*
X147658504Y-55591496D01*
X147608722Y-55558233D01*
X147601576Y-55556811D01*
X147601575Y-55556811D01*
X147568389Y-55550210D01*
X147564820Y-55549500D01*
X147561180Y-55549500D01*
X146617142Y-55549500D01*
X146569576Y-55532188D01*
X146544266Y-55488351D01*
X146542387Y-55477698D01*
X146536734Y-55445637D01*
X146483748Y-55353862D01*
X146402568Y-55285744D01*
X146396483Y-55283529D01*
X146396481Y-55283528D01*
X146309073Y-55251715D01*
X146309070Y-55251714D01*
X146302986Y-55249500D01*
X146197014Y-55249500D01*
X146190930Y-55251714D01*
X146190926Y-55251715D01*
X146103518Y-55283528D01*
X146103513Y-55283530D01*
X146097432Y-55285744D01*
X146092472Y-55289905D01*
X146092470Y-55289907D01*
X146021210Y-55349701D01*
X146021207Y-55349703D01*
X146016252Y-55353862D01*
X146013017Y-55359463D01*
X146013016Y-55359466D01*
X145966502Y-55440031D01*
X145966500Y-55440033D01*
X145963266Y-55445637D01*
X145944864Y-55550000D01*
X145963266Y-55654363D01*
X145966501Y-55659967D01*
X145966502Y-55659968D01*
X145985811Y-55693412D01*
X146016252Y-55746138D01*
X146097432Y-55814256D01*
X146197014Y-55850500D01*
X146296515Y-55850500D01*
X146302986Y-55850500D01*
X146309064Y-55848287D01*
X146312653Y-55847655D01*
X146354812Y-55852584D01*
X146387327Y-55879868D01*
X146399500Y-55920531D01*
X146399500Y-56715342D01*
X146384857Y-56759532D01*
X146346724Y-56786233D01*
X146300191Y-56784879D01*
X146209073Y-56751715D01*
X146209070Y-56751714D01*
X146202986Y-56749500D01*
X146097014Y-56749500D01*
X146090930Y-56751714D01*
X146090926Y-56751715D01*
X146003518Y-56783528D01*
X146003513Y-56783530D01*
X145997432Y-56785744D01*
X145992472Y-56789905D01*
X145992470Y-56789907D01*
X145921210Y-56849701D01*
X145921207Y-56849703D01*
X145916252Y-56853862D01*
X145913017Y-56859463D01*
X145913016Y-56859466D01*
X145866502Y-56940031D01*
X145866500Y-56940033D01*
X145863266Y-56945637D01*
X145844864Y-57050000D01*
X145863266Y-57154363D01*
X145916252Y-57246138D01*
X145997432Y-57314256D01*
X146097014Y-57350500D01*
X146196509Y-57350500D01*
X146202986Y-57350500D01*
X146300191Y-57315120D01*
X146346724Y-57313767D01*
X146384857Y-57340468D01*
X146399500Y-57384658D01*
X146399500Y-57514820D01*
X146408233Y-57558722D01*
X146413486Y-57566583D01*
X146436883Y-57601601D01*
X146441496Y-57608504D01*
X146491278Y-57641767D01*
X146498425Y-57643188D01*
X146505159Y-57645978D01*
X146504851Y-57646720D01*
X146535265Y-57662752D01*
X146555772Y-57699569D01*
X146552855Y-57741611D01*
X146527459Y-57775242D01*
X146487971Y-57789500D01*
X146486628Y-57789501D01*
X146484521Y-57789745D01*
X146484509Y-57789746D01*
X146467868Y-57791676D01*
X146467863Y-57791677D01*
X146462338Y-57792318D01*
X146457249Y-57794564D01*
X146457245Y-57794566D01*
X146369256Y-57833417D01*
X146369253Y-57833418D01*
X146362984Y-57836187D01*
X146358138Y-57841032D01*
X146358135Y-57841035D01*
X146291035Y-57908135D01*
X146291032Y-57908138D01*
X146286187Y-57912984D01*
X146283418Y-57919253D01*
X146283417Y-57919256D01*
X146244565Y-58007247D01*
X146244563Y-58007252D01*
X146242318Y-58012338D01*
X146241676Y-58017863D01*
X146241114Y-58019933D01*
X146216819Y-58057572D01*
X146175260Y-58074296D01*
X146131666Y-58063976D01*
X146102015Y-58030394D01*
X146082505Y-57986209D01*
X146058527Y-57931903D01*
X145981730Y-57855106D01*
X145920368Y-57828012D01*
X145886090Y-57797173D01*
X145877041Y-57753553D01*
X145879076Y-57747740D01*
X145875678Y-57717585D01*
X145875214Y-57709302D01*
X145875214Y-57706285D01*
X145875214Y-57702124D01*
X145873614Y-57695119D01*
X145872226Y-57686943D01*
X145872094Y-57685773D01*
X145868830Y-57656790D01*
X145864392Y-57649728D01*
X145863303Y-57646614D01*
X145861860Y-57643618D01*
X145860004Y-57635483D01*
X145854801Y-57628959D01*
X145854801Y-57628958D01*
X145841079Y-57611750D01*
X145836281Y-57604989D01*
X145836250Y-57604939D01*
X145832463Y-57598913D01*
X145827384Y-57593833D01*
X145821855Y-57587646D01*
X145808138Y-57570446D01*
X145808136Y-57570445D01*
X145802938Y-57563926D01*
X145795426Y-57560308D01*
X145790930Y-57556723D01*
X145784742Y-57551193D01*
X145222174Y-56988625D01*
X145206133Y-56964618D01*
X145200500Y-56936299D01*
X145200500Y-55688820D01*
X145200500Y-55685180D01*
X145191767Y-55641278D01*
X145158504Y-55591496D01*
X145108722Y-55558233D01*
X145101576Y-55556811D01*
X145101575Y-55556811D01*
X145068389Y-55550210D01*
X145064820Y-55549500D01*
X144035180Y-55549500D01*
X144031611Y-55550209D01*
X144031610Y-55550210D01*
X143998424Y-55556811D01*
X143998421Y-55556811D01*
X143991278Y-55558233D01*
X143985220Y-55562280D01*
X143985219Y-55562281D01*
X143947556Y-55587446D01*
X143947553Y-55587448D01*
X143941496Y-55591496D01*
X143937448Y-55597553D01*
X143937446Y-55597556D01*
X143912281Y-55635219D01*
X143908233Y-55641278D01*
X143906811Y-55648421D01*
X143906811Y-55648424D01*
X143905630Y-55654363D01*
X143899500Y-55685180D01*
X143899500Y-57514820D01*
X143908233Y-57558722D01*
X143913486Y-57566583D01*
X143936883Y-57601601D01*
X143941496Y-57608504D01*
X143991278Y-57641767D01*
X144035180Y-57650500D01*
X145061180Y-57650500D01*
X145064820Y-57650500D01*
X145108722Y-57641767D01*
X145158504Y-57608504D01*
X145162555Y-57602440D01*
X145163395Y-57601601D01*
X145196569Y-57582447D01*
X145234875Y-57582446D01*
X145268049Y-57601599D01*
X145398042Y-57731592D01*
X145419006Y-57773691D01*
X145410367Y-57819921D01*
X145379412Y-57848146D01*
X145379628Y-57848461D01*
X145377374Y-57850004D01*
X145375615Y-57851609D01*
X145373974Y-57852333D01*
X145373966Y-57852338D01*
X145367698Y-57855106D01*
X145362852Y-57859951D01*
X145362849Y-57859954D01*
X145295749Y-57927054D01*
X145295746Y-57927057D01*
X145290901Y-57931903D01*
X145288132Y-57938172D01*
X145288129Y-57938178D01*
X145262134Y-57997050D01*
X145234838Y-58029159D01*
X145194439Y-58041159D01*
X145154041Y-58029158D01*
X145126745Y-57997049D01*
X145100876Y-57938462D01*
X145093259Y-57927343D01*
X145026289Y-57860373D01*
X145015172Y-57852757D01*
X144927351Y-57813979D01*
X144916730Y-57811090D01*
X144900140Y-57809165D01*
X144895869Y-57808919D01*
X144874457Y-57808919D01*
X144866773Y-57810978D01*
X144864714Y-57818662D01*
X144864714Y-58344919D01*
X144854800Y-58381919D01*
X144827714Y-58409005D01*
X144790714Y-58418919D01*
X144294453Y-58418919D01*
X144281220Y-58422464D01*
X144242917Y-58422463D01*
X144209745Y-58403311D01*
X144208695Y-58402261D01*
X144200257Y-58400000D01*
X143704000Y-58400000D01*
X143667000Y-58390086D01*
X143639914Y-58363000D01*
X143630000Y-58326000D01*
X143630000Y-58090257D01*
X143930000Y-58090257D01*
X143932059Y-58097940D01*
X143939743Y-58100000D01*
X144200259Y-58100000D01*
X144213489Y-58096455D01*
X144251794Y-58096454D01*
X144284968Y-58115607D01*
X144286018Y-58116657D01*
X144294457Y-58118919D01*
X144554971Y-58118919D01*
X144562654Y-58116859D01*
X144564714Y-58109176D01*
X144564714Y-57818662D01*
X144562654Y-57810978D01*
X144554971Y-57808919D01*
X144533559Y-57808919D01*
X144529287Y-57809165D01*
X144512697Y-57811090D01*
X144502076Y-57813979D01*
X144414255Y-57852757D01*
X144403138Y-57860373D01*
X144336168Y-57927343D01*
X144328551Y-57938462D01*
X144319227Y-57959578D01*
X144291930Y-57991686D01*
X144251531Y-58003685D01*
X144211133Y-57991684D01*
X144183838Y-57959575D01*
X144166162Y-57919543D01*
X144158545Y-57908424D01*
X144091575Y-57841454D01*
X144080458Y-57833838D01*
X143992637Y-57795060D01*
X143982016Y-57792171D01*
X143965426Y-57790246D01*
X143961155Y-57790000D01*
X143939743Y-57790000D01*
X143932059Y-57792059D01*
X143930000Y-57799743D01*
X143930000Y-58090257D01*
X143630000Y-58090257D01*
X143630000Y-57799743D01*
X143627940Y-57792059D01*
X143620257Y-57790000D01*
X143598845Y-57790000D01*
X143594573Y-57790246D01*
X143577983Y-57792171D01*
X143567362Y-57795060D01*
X143479541Y-57833838D01*
X143468424Y-57841454D01*
X143401454Y-57908424D01*
X143393835Y-57919545D01*
X143367967Y-57978131D01*
X143340671Y-58010240D01*
X143300273Y-58022240D01*
X143259874Y-58010239D01*
X143232578Y-57978130D01*
X143215755Y-57940031D01*
X143203813Y-57912984D01*
X143127016Y-57836187D01*
X143120743Y-57833417D01*
X143032750Y-57794564D01*
X143032746Y-57794563D01*
X143027662Y-57792318D01*
X143022141Y-57791677D01*
X143022136Y-57791676D01*
X143005501Y-57789746D01*
X143005485Y-57789745D01*
X143003373Y-57789500D01*
X143001229Y-57789500D01*
X142638773Y-57789500D01*
X142638755Y-57789500D01*
X142636628Y-57789501D01*
X142634502Y-57789747D01*
X142634494Y-57789748D01*
X142617868Y-57791676D01*
X142617863Y-57791677D01*
X142612338Y-57792318D01*
X142607248Y-57794565D01*
X142607242Y-57794567D01*
X142590882Y-57801791D01*
X142544768Y-57806295D01*
X142505014Y-57782494D01*
X142487207Y-57739718D01*
X142498328Y-57694738D01*
X142498540Y-57694401D01*
X142501328Y-57689961D01*
X142506121Y-57683204D01*
X142525053Y-57659468D01*
X142526909Y-57651332D01*
X142529397Y-57646166D01*
X142533453Y-57638836D01*
X142533878Y-57638161D01*
X142533878Y-57638159D01*
X142533929Y-57638079D01*
X142535213Y-57638888D01*
X142542019Y-57627410D01*
X142566685Y-57609711D01*
X142646779Y-57574347D01*
X142723576Y-57497550D01*
X142752341Y-57432402D01*
X142779637Y-57400294D01*
X142820036Y-57388293D01*
X142860434Y-57400293D01*
X142887731Y-57432402D01*
X142913601Y-57490992D01*
X142921217Y-57502109D01*
X142988187Y-57569079D01*
X142999304Y-57576695D01*
X143087125Y-57615473D01*
X143097746Y-57618362D01*
X143114336Y-57620287D01*
X143118608Y-57620534D01*
X143140020Y-57620534D01*
X143147703Y-57618474D01*
X143149763Y-57610791D01*
X143449763Y-57610791D01*
X143451822Y-57618474D01*
X143459506Y-57620534D01*
X143480918Y-57620534D01*
X143485189Y-57620287D01*
X143501779Y-57618362D01*
X143512400Y-57615473D01*
X143600221Y-57576695D01*
X143611338Y-57569079D01*
X143678308Y-57502109D01*
X143685924Y-57490992D01*
X143724702Y-57403171D01*
X143727591Y-57392550D01*
X143729516Y-57375960D01*
X143729763Y-57371689D01*
X143729763Y-57320277D01*
X143727703Y-57312593D01*
X143720020Y-57310534D01*
X143459506Y-57310534D01*
X143451822Y-57312593D01*
X143449763Y-57320277D01*
X143449763Y-57610791D01*
X143149763Y-57610791D01*
X143149763Y-57000791D01*
X143449763Y-57000791D01*
X143451822Y-57008474D01*
X143459506Y-57010534D01*
X143720020Y-57010534D01*
X143727703Y-57008474D01*
X143729763Y-57000791D01*
X143729763Y-56949379D01*
X143729516Y-56945107D01*
X143727591Y-56928517D01*
X143724702Y-56917896D01*
X143685924Y-56830075D01*
X143678308Y-56818958D01*
X143611338Y-56751988D01*
X143600221Y-56744372D01*
X143512400Y-56705594D01*
X143501779Y-56702705D01*
X143485189Y-56700780D01*
X143480918Y-56700534D01*
X143459506Y-56700534D01*
X143451822Y-56702593D01*
X143449763Y-56710277D01*
X143449763Y-57000791D01*
X143149763Y-57000791D01*
X143149763Y-56710277D01*
X143147703Y-56702593D01*
X143140020Y-56700534D01*
X143118608Y-56700534D01*
X143114336Y-56700780D01*
X143097746Y-56702705D01*
X143087120Y-56705596D01*
X143004391Y-56742126D01*
X142956451Y-56746197D01*
X142916141Y-56719931D01*
X142900500Y-56674432D01*
X142900500Y-56574500D01*
X142910414Y-56537500D01*
X142937500Y-56510414D01*
X142974500Y-56500500D01*
X143411180Y-56500500D01*
X143414820Y-56500500D01*
X143458722Y-56491767D01*
X143508504Y-56458504D01*
X143541767Y-56408722D01*
X143550500Y-56364820D01*
X143550500Y-55396673D01*
X143918048Y-55396673D01*
X143923596Y-55399466D01*
X143929010Y-55400000D01*
X144770991Y-55400000D01*
X144776401Y-55399466D01*
X144781950Y-55396673D01*
X144778564Y-55390696D01*
X144356887Y-54969019D01*
X144350000Y-54965042D01*
X144343112Y-54969019D01*
X143921434Y-55390696D01*
X143918048Y-55396673D01*
X143550500Y-55396673D01*
X143550500Y-55170984D01*
X143700000Y-55170984D01*
X143700533Y-55176403D01*
X143703325Y-55181950D01*
X143709303Y-55178563D01*
X144130980Y-54756887D01*
X144134956Y-54749999D01*
X144565042Y-54749999D01*
X144569019Y-54756887D01*
X144990696Y-55178564D01*
X144996673Y-55181950D01*
X144999466Y-55176401D01*
X145000000Y-55170991D01*
X145000000Y-55170984D01*
X147700000Y-55170984D01*
X147700533Y-55176403D01*
X147703325Y-55181950D01*
X147709303Y-55178563D01*
X148130980Y-54756887D01*
X148134956Y-54749999D01*
X148130980Y-54743112D01*
X147709303Y-54321435D01*
X147703325Y-54318049D01*
X147700532Y-54323597D01*
X147700000Y-54329010D01*
X147700000Y-55170984D01*
X145000000Y-55170984D01*
X145000000Y-54329010D01*
X144999466Y-54323596D01*
X144996673Y-54318048D01*
X144990696Y-54321434D01*
X144569019Y-54743112D01*
X144565042Y-54749999D01*
X144134956Y-54749999D01*
X144130980Y-54743112D01*
X143709303Y-54321435D01*
X143703325Y-54318049D01*
X143700532Y-54323597D01*
X143700000Y-54329010D01*
X143700000Y-55170984D01*
X143550500Y-55170984D01*
X143550500Y-55135180D01*
X143541767Y-55091278D01*
X143508504Y-55041496D01*
X143458722Y-55008233D01*
X143451576Y-55006811D01*
X143451575Y-55006811D01*
X143418389Y-55000210D01*
X143414820Y-54999500D01*
X141985180Y-54999500D01*
X141981611Y-55000209D01*
X141981610Y-55000210D01*
X141948424Y-55006811D01*
X141948421Y-55006811D01*
X141941278Y-55008233D01*
X141935220Y-55012280D01*
X141935219Y-55012281D01*
X141897556Y-55037446D01*
X141897553Y-55037448D01*
X141891496Y-55041496D01*
X141887448Y-55047553D01*
X141887446Y-55047556D01*
X141862281Y-55085219D01*
X141858233Y-55091278D01*
X141856811Y-55098421D01*
X141856811Y-55098424D01*
X141851970Y-55122762D01*
X141849500Y-55135180D01*
X141849500Y-56364820D01*
X141858233Y-56408722D01*
X141891496Y-56458504D01*
X141941278Y-56491767D01*
X141985180Y-56500500D01*
X142425500Y-56500500D01*
X142462500Y-56510414D01*
X142489586Y-56537500D01*
X142499500Y-56574500D01*
X142499500Y-56626034D01*
X142489586Y-56663034D01*
X142462500Y-56690120D01*
X142425500Y-56700034D01*
X142158536Y-56700034D01*
X142158518Y-56700034D01*
X142156391Y-56700035D01*
X142154265Y-56700281D01*
X142154257Y-56700282D01*
X142137631Y-56702210D01*
X142137626Y-56702211D01*
X142132101Y-56702852D01*
X142127012Y-56705098D01*
X142127008Y-56705100D01*
X142039019Y-56743951D01*
X142039016Y-56743952D01*
X142032747Y-56746721D01*
X142027901Y-56751566D01*
X142027898Y-56751569D01*
X141960798Y-56818669D01*
X141960795Y-56818672D01*
X141955950Y-56823518D01*
X141953181Y-56829787D01*
X141953180Y-56829790D01*
X141939902Y-56859863D01*
X141912606Y-56891973D01*
X141872207Y-56903973D01*
X141831808Y-56891972D01*
X141804512Y-56859863D01*
X141791359Y-56830075D01*
X141783813Y-56812984D01*
X141707016Y-56736187D01*
X141659806Y-56715342D01*
X141644610Y-56708632D01*
X141612501Y-56681336D01*
X141600500Y-56640937D01*
X141600500Y-54994885D01*
X141600965Y-54986598D01*
X141601607Y-54980899D01*
X141604362Y-54973026D01*
X141600964Y-54942871D01*
X141600500Y-54934588D01*
X141600500Y-54931571D01*
X141600500Y-54927410D01*
X141598900Y-54920405D01*
X141597512Y-54912229D01*
X141596664Y-54904703D01*
X141594116Y-54882076D01*
X141589677Y-54875013D01*
X141588586Y-54871893D01*
X141587146Y-54868903D01*
X141585290Y-54860769D01*
X141566369Y-54837044D01*
X141561566Y-54830274D01*
X141559960Y-54827718D01*
X141559957Y-54827715D01*
X141557748Y-54824198D01*
X141552670Y-54819120D01*
X141547141Y-54812932D01*
X141533423Y-54795730D01*
X141533420Y-54795727D01*
X141528224Y-54789212D01*
X141520714Y-54785595D01*
X141516214Y-54782006D01*
X141510028Y-54776478D01*
X141394683Y-54661133D01*
X141850001Y-54661133D01*
X141850711Y-54668347D01*
X141857281Y-54701377D01*
X141862752Y-54714586D01*
X141887806Y-54752083D01*
X141897916Y-54762193D01*
X141935414Y-54787248D01*
X141948619Y-54792718D01*
X141981655Y-54799289D01*
X141988865Y-54800000D01*
X142540257Y-54800000D01*
X142547940Y-54797940D01*
X142550000Y-54790257D01*
X142550000Y-54790256D01*
X142850000Y-54790256D01*
X142852059Y-54797939D01*
X142859743Y-54799999D01*
X143411133Y-54799999D01*
X143418347Y-54799288D01*
X143451377Y-54792718D01*
X143464586Y-54787247D01*
X143502083Y-54762193D01*
X143512193Y-54752083D01*
X143537248Y-54714585D01*
X143542718Y-54701380D01*
X143549289Y-54668344D01*
X143550000Y-54661135D01*
X143550000Y-54209743D01*
X143547940Y-54202059D01*
X143540257Y-54200000D01*
X142859743Y-54200000D01*
X142852059Y-54202059D01*
X142850000Y-54209743D01*
X142850000Y-54790256D01*
X142550000Y-54790256D01*
X142550000Y-54209743D01*
X142547940Y-54202059D01*
X142540257Y-54200000D01*
X141859744Y-54200000D01*
X141852060Y-54202059D01*
X141850001Y-54209743D01*
X141850001Y-54661133D01*
X141394683Y-54661133D01*
X141372174Y-54638624D01*
X141356133Y-54614617D01*
X141350500Y-54586298D01*
X141350500Y-54103325D01*
X143918049Y-54103325D01*
X143921435Y-54109303D01*
X144343112Y-54530980D01*
X144349999Y-54534956D01*
X144356887Y-54530980D01*
X144778563Y-54109303D01*
X144781950Y-54103325D01*
X147918049Y-54103325D01*
X147921435Y-54109303D01*
X148343112Y-54530980D01*
X148349999Y-54534956D01*
X148356887Y-54530980D01*
X148778563Y-54109303D01*
X148781950Y-54103325D01*
X148776403Y-54100533D01*
X148770984Y-54100000D01*
X147929010Y-54100000D01*
X147923597Y-54100532D01*
X147918049Y-54103325D01*
X144781950Y-54103325D01*
X144776403Y-54100533D01*
X144770984Y-54100000D01*
X143929010Y-54100000D01*
X143923597Y-54100532D01*
X143918049Y-54103325D01*
X141350500Y-54103325D01*
X141350500Y-53890257D01*
X141850000Y-53890257D01*
X141852059Y-53897940D01*
X141859743Y-53900000D01*
X142540257Y-53900000D01*
X142547940Y-53897940D01*
X142550000Y-53890257D01*
X142850000Y-53890257D01*
X142852059Y-53897940D01*
X142859743Y-53900000D01*
X143540256Y-53900000D01*
X143547939Y-53897940D01*
X143549999Y-53890257D01*
X143549999Y-53835380D01*
X149121560Y-53835380D01*
X149121860Y-53842599D01*
X149127915Y-53885683D01*
X149130695Y-53892682D01*
X149138017Y-53894463D01*
X149545892Y-53894463D01*
X149553575Y-53892403D01*
X149555635Y-53884720D01*
X149555635Y-53652039D01*
X149553306Y-53644094D01*
X149545118Y-53642894D01*
X149240041Y-53685771D01*
X149233013Y-53687475D01*
X149201212Y-53698579D01*
X149188890Y-53705837D01*
X149155244Y-53735867D01*
X149146643Y-53747281D01*
X149127049Y-53787904D01*
X149123470Y-53801742D01*
X149121560Y-53835380D01*
X143549999Y-53835380D01*
X143549999Y-53438867D01*
X143549288Y-53431652D01*
X143542718Y-53398622D01*
X143537247Y-53385413D01*
X143512193Y-53347916D01*
X143502083Y-53337806D01*
X143464585Y-53312751D01*
X143451380Y-53307281D01*
X143418344Y-53300710D01*
X143411135Y-53300000D01*
X142859743Y-53300000D01*
X142852059Y-53302059D01*
X142850000Y-53309743D01*
X142850000Y-53890257D01*
X142550000Y-53890257D01*
X142550000Y-53309744D01*
X142547940Y-53302060D01*
X142540257Y-53300001D01*
X141988867Y-53300001D01*
X141981652Y-53300711D01*
X141948622Y-53307281D01*
X141935413Y-53312752D01*
X141897916Y-53337806D01*
X141887806Y-53347916D01*
X141862751Y-53385414D01*
X141857281Y-53398619D01*
X141850710Y-53431655D01*
X141850000Y-53438865D01*
X141850000Y-53890257D01*
X141350500Y-53890257D01*
X141350500Y-53438820D01*
X141350500Y-53435180D01*
X141341767Y-53391278D01*
X141308504Y-53341496D01*
X141258722Y-53308233D01*
X141251576Y-53306811D01*
X141251575Y-53306811D01*
X141218389Y-53300210D01*
X141214820Y-53299500D01*
X139785180Y-53299500D01*
X139781611Y-53300209D01*
X139781610Y-53300210D01*
X139748424Y-53306811D01*
X139748421Y-53306811D01*
X139741278Y-53308233D01*
X139735220Y-53312280D01*
X139735219Y-53312281D01*
X139697556Y-53337446D01*
X139697553Y-53337448D01*
X139691496Y-53341496D01*
X139687448Y-53347553D01*
X139687446Y-53347556D01*
X139662281Y-53385219D01*
X139658233Y-53391278D01*
X139656811Y-53398421D01*
X139656811Y-53398424D01*
X139656772Y-53398622D01*
X139649500Y-53435180D01*
X139649500Y-54664820D01*
X139650210Y-54668389D01*
X139656772Y-54701380D01*
X139658233Y-54708722D01*
X139662281Y-54714780D01*
X139687205Y-54752083D01*
X139691496Y-54758504D01*
X139741278Y-54791767D01*
X139785180Y-54800500D01*
X140936298Y-54800500D01*
X140964617Y-54806133D01*
X140988624Y-54822174D01*
X141040124Y-54873674D01*
X141060376Y-54911563D01*
X141056165Y-54954319D01*
X141028910Y-54987529D01*
X140987798Y-55000000D01*
X140659743Y-55000000D01*
X140652059Y-55002059D01*
X140650000Y-55009743D01*
X140650000Y-56490256D01*
X140652059Y-56497939D01*
X140659743Y-56499999D01*
X141125500Y-56499999D01*
X141162500Y-56509913D01*
X141189586Y-56536999D01*
X141199500Y-56573999D01*
X141199500Y-56640937D01*
X141187499Y-56681336D01*
X141155390Y-56708632D01*
X141099256Y-56733417D01*
X141099253Y-56733418D01*
X141092984Y-56736187D01*
X141088138Y-56741032D01*
X141088135Y-56741035D01*
X141021035Y-56808135D01*
X141021032Y-56808138D01*
X141016187Y-56812984D01*
X141013418Y-56819253D01*
X141013415Y-56819259D01*
X140987420Y-56878131D01*
X140960124Y-56910240D01*
X140919725Y-56922240D01*
X140879327Y-56910239D01*
X140852031Y-56878130D01*
X140826162Y-56819543D01*
X140818545Y-56808424D01*
X140751575Y-56741454D01*
X140740458Y-56733838D01*
X140652637Y-56695060D01*
X140642016Y-56692171D01*
X140625426Y-56690246D01*
X140621155Y-56690000D01*
X140599743Y-56690000D01*
X140592059Y-56692059D01*
X140590000Y-56699743D01*
X140590000Y-57600257D01*
X140594844Y-57618335D01*
X140606992Y-57641062D01*
X140602782Y-57683817D01*
X140575528Y-57717027D01*
X140534417Y-57729500D01*
X140514524Y-57729500D01*
X140514506Y-57729500D01*
X140512378Y-57729501D01*
X140510252Y-57729747D01*
X140510244Y-57729748D01*
X140494033Y-57731628D01*
X140494029Y-57731628D01*
X140488502Y-57732270D01*
X140483413Y-57734516D01*
X140483409Y-57734518D01*
X140397131Y-57772614D01*
X140397128Y-57772615D01*
X140390859Y-57775384D01*
X140386013Y-57780229D01*
X140386010Y-57780232D01*
X140320232Y-57846010D01*
X140320229Y-57846013D01*
X140315384Y-57850859D01*
X140312615Y-57857128D01*
X140312614Y-57857131D01*
X140274516Y-57943413D01*
X140274514Y-57943419D01*
X140272270Y-57948502D01*
X140271629Y-57954020D01*
X140271628Y-57954027D01*
X140269746Y-57970248D01*
X140269745Y-57970265D01*
X140269500Y-57972377D01*
X140269500Y-57974519D01*
X140269500Y-57974520D01*
X140269500Y-58425476D01*
X140269500Y-58425493D01*
X140269501Y-58427622D01*
X140269747Y-58429748D01*
X140269748Y-58429755D01*
X140271472Y-58444623D01*
X140272270Y-58451498D01*
X140274517Y-58456587D01*
X140274518Y-58456590D01*
X140311695Y-58540787D01*
X140315384Y-58549141D01*
X140390859Y-58624616D01*
X140488502Y-58667730D01*
X140512377Y-58670500D01*
X140867622Y-58670499D01*
X140891498Y-58667730D01*
X140891524Y-58667958D01*
X140925884Y-58667859D01*
X140959196Y-58687048D01*
X141005395Y-58733246D01*
X141046852Y-58774704D01*
X141067104Y-58812591D01*
X141062894Y-58855346D01*
X141035640Y-58888556D01*
X141028614Y-58893251D01*
X140987502Y-58905724D01*
X140946388Y-58893253D01*
X140906547Y-58866632D01*
X140906543Y-58866630D01*
X140900486Y-58862583D01*
X140893337Y-58861161D01*
X140893335Y-58861160D01*
X140838282Y-58850210D01*
X140838279Y-58850209D01*
X140834711Y-58849500D01*
X140831071Y-58849500D01*
X140643931Y-58849500D01*
X140643921Y-58849500D01*
X140640290Y-58849501D01*
X140636724Y-58850210D01*
X140636716Y-58850211D01*
X140581663Y-58861161D01*
X140581662Y-58861161D01*
X140574514Y-58862583D01*
X140568456Y-58866630D01*
X140568453Y-58866632D01*
X140528612Y-58893253D01*
X140487500Y-58905724D01*
X140446388Y-58893253D01*
X140406547Y-58866632D01*
X140406543Y-58866630D01*
X140400486Y-58862583D01*
X140393337Y-58861161D01*
X140393335Y-58861160D01*
X140338282Y-58850210D01*
X140338279Y-58850209D01*
X140334711Y-58849500D01*
X140331071Y-58849500D01*
X140143931Y-58849500D01*
X140143921Y-58849500D01*
X140140290Y-58849501D01*
X140136724Y-58850210D01*
X140136716Y-58850211D01*
X140081663Y-58861161D01*
X140081662Y-58861161D01*
X140074514Y-58862583D01*
X140068456Y-58866630D01*
X140068453Y-58866632D01*
X140028612Y-58893253D01*
X139987500Y-58905724D01*
X139946388Y-58893253D01*
X139906547Y-58866632D01*
X139906543Y-58866630D01*
X139900486Y-58862583D01*
X139893337Y-58861161D01*
X139893335Y-58861160D01*
X139838282Y-58850210D01*
X139838279Y-58850209D01*
X139834711Y-58849500D01*
X139831071Y-58849500D01*
X139643931Y-58849500D01*
X139643921Y-58849500D01*
X139640290Y-58849501D01*
X139636724Y-58850210D01*
X139636716Y-58850211D01*
X139581663Y-58861161D01*
X139581662Y-58861161D01*
X139574514Y-58862583D01*
X139568454Y-58866631D01*
X139568454Y-58866632D01*
X139505983Y-58908373D01*
X139505980Y-58908375D01*
X139499923Y-58912423D01*
X139495875Y-58918480D01*
X139495873Y-58918483D01*
X139454132Y-58980952D01*
X139454129Y-58980957D01*
X139450083Y-58987014D01*
X139448661Y-58994160D01*
X139448660Y-58994164D01*
X139437710Y-59049217D01*
X139437000Y-59052789D01*
X139437000Y-59056429D01*
X139437000Y-60030497D01*
X139424529Y-60071609D01*
X139391319Y-60098864D01*
X139348563Y-60103075D01*
X139310674Y-60082823D01*
X139033130Y-59805279D01*
X139013977Y-59772106D01*
X139013977Y-59733800D01*
X139033130Y-59700627D01*
X139040132Y-59693625D01*
X139074616Y-59659141D01*
X139117730Y-59561498D01*
X139120500Y-59537623D01*
X139120499Y-59182378D01*
X139117730Y-59158502D01*
X139074616Y-59060859D01*
X138999141Y-58985384D01*
X138975683Y-58975026D01*
X138906586Y-58944516D01*
X138906582Y-58944515D01*
X138901498Y-58942270D01*
X138895977Y-58941629D01*
X138895972Y-58941628D01*
X138879751Y-58939746D01*
X138879735Y-58939745D01*
X138877623Y-58939500D01*
X138875479Y-58939500D01*
X138424523Y-58939500D01*
X138424505Y-58939500D01*
X138422378Y-58939501D01*
X138420252Y-58939747D01*
X138420244Y-58939748D01*
X138404033Y-58941628D01*
X138404029Y-58941628D01*
X138398502Y-58942270D01*
X138393413Y-58944516D01*
X138393409Y-58944518D01*
X138307131Y-58982614D01*
X138307128Y-58982615D01*
X138300859Y-58985384D01*
X138296013Y-58990229D01*
X138296010Y-58990232D01*
X138230231Y-59056011D01*
X138230228Y-59056014D01*
X138225384Y-59060859D01*
X138222616Y-59067127D01*
X138220162Y-59070710D01*
X138190557Y-59095874D01*
X138152284Y-59102571D01*
X138115894Y-59088954D01*
X138091419Y-59058776D01*
X138087198Y-59049217D01*
X138072608Y-59016172D01*
X137993828Y-58937392D01*
X137987554Y-58934622D01*
X137987553Y-58934621D01*
X137949218Y-58917695D01*
X137917108Y-58890399D01*
X137905107Y-58850000D01*
X137917108Y-58809601D01*
X137949218Y-58782305D01*
X137956153Y-58779243D01*
X137993828Y-58762608D01*
X138072608Y-58683828D01*
X138091420Y-58641220D01*
X138115893Y-58611045D01*
X138152285Y-58597428D01*
X138190558Y-58604125D01*
X138220163Y-58629291D01*
X138222615Y-58632871D01*
X138225384Y-58639141D01*
X138300859Y-58714616D01*
X138380995Y-58750000D01*
X138393408Y-58755481D01*
X138398502Y-58757730D01*
X138422377Y-58760500D01*
X138877622Y-58760499D01*
X138901498Y-58757730D01*
X138999141Y-58714616D01*
X139074616Y-58639141D01*
X139117730Y-58541498D01*
X139120500Y-58517623D01*
X139120499Y-58162378D01*
X139117730Y-58138502D01*
X139074616Y-58040859D01*
X138999141Y-57965384D01*
X138985206Y-57959231D01*
X138906586Y-57924516D01*
X138906582Y-57924515D01*
X138901498Y-57922270D01*
X138895977Y-57921629D01*
X138895972Y-57921628D01*
X138879751Y-57919746D01*
X138879735Y-57919745D01*
X138877623Y-57919500D01*
X138875479Y-57919500D01*
X138424523Y-57919500D01*
X138424505Y-57919500D01*
X138422378Y-57919501D01*
X138420252Y-57919747D01*
X138420244Y-57919748D01*
X138404033Y-57921628D01*
X138404029Y-57921628D01*
X138398502Y-57922270D01*
X138393413Y-57924516D01*
X138393409Y-57924518D01*
X138307131Y-57962614D01*
X138307128Y-57962615D01*
X138300859Y-57965384D01*
X138296013Y-57970229D01*
X138296010Y-57970232D01*
X138230232Y-58036010D01*
X138230229Y-58036013D01*
X138225384Y-58040859D01*
X138222616Y-58047127D01*
X138222611Y-58047135D01*
X138215515Y-58063206D01*
X138188218Y-58095314D01*
X138147819Y-58107313D01*
X138107420Y-58095311D01*
X138080127Y-58063201D01*
X138072608Y-58046172D01*
X137993828Y-57967392D01*
X137987555Y-57964622D01*
X137896997Y-57924637D01*
X137896993Y-57924636D01*
X137891909Y-57922391D01*
X137886388Y-57921750D01*
X137886383Y-57921749D01*
X137869119Y-57919746D01*
X137869103Y-57919745D01*
X137866991Y-57919500D01*
X137864847Y-57919500D01*
X137435155Y-57919500D01*
X137435137Y-57919500D01*
X137433010Y-57919501D01*
X137430884Y-57919747D01*
X137430876Y-57919748D01*
X137413622Y-57921749D01*
X137413618Y-57921749D01*
X137408091Y-57922391D01*
X137403002Y-57924637D01*
X137402998Y-57924639D01*
X137312444Y-57964622D01*
X137312441Y-57964623D01*
X137306172Y-57967392D01*
X137301326Y-57972237D01*
X137301323Y-57972240D01*
X137232240Y-58041323D01*
X137232237Y-58041326D01*
X137227392Y-58046172D01*
X137224623Y-58052441D01*
X137224622Y-58052444D01*
X137184637Y-58143002D01*
X137184635Y-58143007D01*
X137182391Y-58148091D01*
X137181750Y-58153609D01*
X137181749Y-58153616D01*
X137179746Y-58170880D01*
X137179745Y-58170897D01*
X137179500Y-58173009D01*
X137179500Y-58175151D01*
X137179500Y-58175152D01*
X137179500Y-58554844D01*
X137179500Y-58554861D01*
X137179501Y-58556990D01*
X137179747Y-58559116D01*
X137179748Y-58559123D01*
X137180628Y-58566712D01*
X137182391Y-58581909D01*
X137184638Y-58586999D01*
X137184639Y-58587001D01*
X137223994Y-58676132D01*
X137227392Y-58683828D01*
X137306172Y-58762608D01*
X137322343Y-58769748D01*
X137350782Y-58782305D01*
X137382891Y-58809601D01*
X137394892Y-58850000D01*
X137382891Y-58890399D01*
X137350782Y-58917695D01*
X137312444Y-58934622D01*
X137312441Y-58934623D01*
X137306172Y-58937392D01*
X137301326Y-58942237D01*
X137301323Y-58942240D01*
X137232240Y-59011323D01*
X137232237Y-59011326D01*
X137227392Y-59016172D01*
X137224623Y-59022441D01*
X137224622Y-59022444D01*
X137184637Y-59113002D01*
X137184635Y-59113007D01*
X137182391Y-59118091D01*
X137181750Y-59123609D01*
X137181749Y-59123616D01*
X137179746Y-59140880D01*
X137179745Y-59140897D01*
X137179500Y-59143009D01*
X137179500Y-59145151D01*
X137179500Y-59145152D01*
X137179500Y-59524844D01*
X137179500Y-59524861D01*
X137179501Y-59526990D01*
X137179747Y-59529116D01*
X137179748Y-59529123D01*
X137180485Y-59535479D01*
X137182391Y-59551909D01*
X137184638Y-59556999D01*
X137184639Y-59557001D01*
X137224622Y-59647555D01*
X137227392Y-59653828D01*
X137232240Y-59658675D01*
X137232240Y-59658676D01*
X137237238Y-59663674D01*
X137257490Y-59701563D01*
X137253279Y-59744319D01*
X137226024Y-59777529D01*
X137184912Y-59790000D01*
X137158845Y-59790000D01*
X137154573Y-59790246D01*
X137137983Y-59792171D01*
X137127362Y-59795060D01*
X137039541Y-59833838D01*
X137028424Y-59841454D01*
X136961454Y-59908424D01*
X136953838Y-59919541D01*
X136915060Y-60007362D01*
X136912171Y-60017983D01*
X136910246Y-60034573D01*
X136910000Y-60038845D01*
X136910000Y-60090257D01*
X136912059Y-60097940D01*
X136919743Y-60100000D01*
X137416000Y-60100000D01*
X137453000Y-60109914D01*
X137480086Y-60137000D01*
X137490000Y-60174000D01*
X137490000Y-60700257D01*
X137492059Y-60707940D01*
X137499743Y-60710000D01*
X137521155Y-60710000D01*
X137525426Y-60709753D01*
X137542016Y-60707828D01*
X137552637Y-60704939D01*
X137640458Y-60666161D01*
X137651575Y-60658545D01*
X137718545Y-60591575D01*
X137726162Y-60580457D01*
X137752031Y-60521869D01*
X137779327Y-60489760D01*
X137819725Y-60477759D01*
X137860124Y-60489759D01*
X137887420Y-60521868D01*
X137913415Y-60580740D01*
X137913417Y-60580743D01*
X137916187Y-60587016D01*
X137992984Y-60663813D01*
X138024748Y-60677838D01*
X138055390Y-60691368D01*
X138087499Y-60718664D01*
X138099500Y-60759063D01*
X138099500Y-60775501D01*
X138089586Y-60812501D01*
X138062500Y-60839587D01*
X138025500Y-60849501D01*
X137640290Y-60849501D01*
X137636724Y-60850210D01*
X137636716Y-60850211D01*
X137581663Y-60861161D01*
X137581662Y-60861161D01*
X137574514Y-60862583D01*
X137568454Y-60866631D01*
X137568454Y-60866632D01*
X137505983Y-60908373D01*
X137505980Y-60908375D01*
X137499923Y-60912423D01*
X137495875Y-60918480D01*
X137495873Y-60918483D01*
X137454132Y-60980952D01*
X137454129Y-60980957D01*
X137450083Y-60987014D01*
X137448661Y-60994160D01*
X137448660Y-60994164D01*
X137437710Y-61049217D01*
X137437000Y-61052789D01*
X137437000Y-61056427D01*
X137437000Y-61056428D01*
X137437000Y-61243568D01*
X137437000Y-61243577D01*
X137437001Y-61247210D01*
X137437710Y-61250776D01*
X137437711Y-61250783D01*
X137447656Y-61300782D01*
X137450083Y-61312986D01*
X137468071Y-61339907D01*
X137481054Y-61359338D01*
X137493525Y-61400449D01*
X137481055Y-61441561D01*
X137454603Y-61481149D01*
X137450364Y-61491385D01*
X137450973Y-61497568D01*
X137458989Y-61500000D01*
X138401000Y-61500000D01*
X138438000Y-61509914D01*
X138465086Y-61537000D01*
X138475000Y-61574000D01*
X138475000Y-61726000D01*
X138465086Y-61763000D01*
X138438000Y-61790086D01*
X138401000Y-61800000D01*
X137458989Y-61800000D01*
X137450973Y-61802431D01*
X137450364Y-61808614D01*
X137456734Y-61823992D01*
X137460944Y-61866746D01*
X137440692Y-61904635D01*
X137402804Y-61924887D01*
X137360050Y-61920677D01*
X137353781Y-61918080D01*
X137347725Y-61914034D01*
X137340579Y-61912612D01*
X137340578Y-61912612D01*
X137274659Y-61899500D01*
X137257134Y-61896014D01*
X137249985Y-61894592D01*
X137242836Y-61896014D01*
X137232460Y-61898078D01*
X137218023Y-61899500D01*
X132999485Y-61899500D01*
X132962485Y-61889586D01*
X132935399Y-61862500D01*
X132925485Y-61825500D01*
X132925485Y-61400000D01*
X135394864Y-61400000D01*
X135395988Y-61406375D01*
X135397715Y-61416168D01*
X135413266Y-61504363D01*
X135466252Y-61596138D01*
X135547432Y-61664256D01*
X135647014Y-61700500D01*
X135746509Y-61700500D01*
X135752986Y-61700500D01*
X135852568Y-61664256D01*
X135933748Y-61596138D01*
X135986734Y-61504363D01*
X136005136Y-61400000D01*
X136004012Y-61393625D01*
X135999652Y-61368898D01*
X136005461Y-61324774D01*
X136035528Y-61291962D01*
X136078978Y-61282330D01*
X136120091Y-61299359D01*
X136197432Y-61364256D01*
X136297014Y-61400500D01*
X136396509Y-61400500D01*
X136402986Y-61400500D01*
X136502568Y-61364256D01*
X136583748Y-61296138D01*
X136636734Y-61204363D01*
X136655136Y-61100000D01*
X136653425Y-61090299D01*
X136652647Y-61085885D01*
X136636734Y-60995637D01*
X136583748Y-60903862D01*
X136502568Y-60835744D01*
X136496483Y-60833529D01*
X136496481Y-60833528D01*
X136409073Y-60801715D01*
X136409070Y-60801714D01*
X136402986Y-60799500D01*
X136297014Y-60799500D01*
X136290930Y-60801714D01*
X136290926Y-60801715D01*
X136203518Y-60833528D01*
X136203513Y-60833530D01*
X136197432Y-60835744D01*
X136192472Y-60839905D01*
X136192470Y-60839907D01*
X136121210Y-60899701D01*
X136121207Y-60899703D01*
X136116252Y-60903862D01*
X136113017Y-60909463D01*
X136113016Y-60909466D01*
X136066502Y-60990031D01*
X136066500Y-60990033D01*
X136063266Y-60995637D01*
X136062142Y-61002010D01*
X136062142Y-61002011D01*
X136045988Y-61093625D01*
X136044864Y-61100000D01*
X136045988Y-61106375D01*
X136045988Y-61106378D01*
X136050347Y-61131103D01*
X136044537Y-61175226D01*
X136014470Y-61208038D01*
X135971021Y-61217669D01*
X135929907Y-61200639D01*
X135852568Y-61135744D01*
X135846483Y-61133529D01*
X135846481Y-61133528D01*
X135759073Y-61101715D01*
X135759070Y-61101714D01*
X135752986Y-61099500D01*
X135647014Y-61099500D01*
X135640930Y-61101714D01*
X135640926Y-61101715D01*
X135553518Y-61133528D01*
X135553513Y-61133530D01*
X135547432Y-61135744D01*
X135542472Y-61139905D01*
X135542470Y-61139907D01*
X135471210Y-61199701D01*
X135471207Y-61199703D01*
X135466252Y-61203862D01*
X135463017Y-61209463D01*
X135463016Y-61209466D01*
X135416502Y-61290031D01*
X135416500Y-61290033D01*
X135413266Y-61295637D01*
X135412142Y-61302010D01*
X135412142Y-61302011D01*
X135395988Y-61393625D01*
X135394864Y-61400000D01*
X132925485Y-61400000D01*
X132925485Y-59450000D01*
X133344864Y-59450000D01*
X133345988Y-59456375D01*
X133350776Y-59483528D01*
X133363266Y-59554363D01*
X133416252Y-59646138D01*
X133497432Y-59714256D01*
X133597014Y-59750500D01*
X133632858Y-59750500D01*
X133680422Y-59767811D01*
X133705733Y-59811645D01*
X133706331Y-59815035D01*
X133702995Y-59853194D01*
X133681027Y-59884574D01*
X133649024Y-59899500D01*
X133647014Y-59899500D01*
X133640932Y-59901713D01*
X133640929Y-59901714D01*
X133553518Y-59933528D01*
X133553513Y-59933530D01*
X133547432Y-59935744D01*
X133542472Y-59939905D01*
X133542470Y-59939907D01*
X133471210Y-59999701D01*
X133471207Y-59999703D01*
X133466252Y-60003862D01*
X133463017Y-60009463D01*
X133463016Y-60009466D01*
X133416502Y-60090031D01*
X133416500Y-60090033D01*
X133413266Y-60095637D01*
X133412142Y-60102010D01*
X133412142Y-60102011D01*
X133407980Y-60125617D01*
X133394864Y-60200000D01*
X133413266Y-60304363D01*
X133466252Y-60396138D01*
X133547432Y-60464256D01*
X133647014Y-60500500D01*
X133746509Y-60500500D01*
X133752986Y-60500500D01*
X133852568Y-60464256D01*
X133856264Y-60461155D01*
X136910000Y-60461155D01*
X136910246Y-60465426D01*
X136912171Y-60482016D01*
X136915060Y-60492637D01*
X136953838Y-60580458D01*
X136961454Y-60591575D01*
X137028424Y-60658545D01*
X137039541Y-60666161D01*
X137127362Y-60704939D01*
X137137983Y-60707828D01*
X137154573Y-60709753D01*
X137158845Y-60710000D01*
X137180257Y-60710000D01*
X137187940Y-60707940D01*
X137190000Y-60700257D01*
X137190000Y-60409743D01*
X137187940Y-60402059D01*
X137180257Y-60400000D01*
X136919743Y-60400000D01*
X136912059Y-60402059D01*
X136910000Y-60409743D01*
X136910000Y-60461155D01*
X133856264Y-60461155D01*
X133933748Y-60396138D01*
X133986734Y-60304363D01*
X134005136Y-60200000D01*
X133993667Y-60134957D01*
X133997006Y-60096799D01*
X134018977Y-60065421D01*
X134050977Y-60050500D01*
X134052986Y-60050500D01*
X134152568Y-60014256D01*
X134233748Y-59946138D01*
X134260386Y-59900000D01*
X135544864Y-59900000D01*
X135563266Y-60004363D01*
X135566501Y-60009967D01*
X135566502Y-60009968D01*
X135570362Y-60016654D01*
X135616252Y-60096138D01*
X135697432Y-60164256D01*
X135797014Y-60200500D01*
X135896509Y-60200500D01*
X135902986Y-60200500D01*
X136002568Y-60164256D01*
X136083748Y-60096138D01*
X136136734Y-60004363D01*
X136155136Y-59900000D01*
X136136734Y-59795637D01*
X136083748Y-59703862D01*
X136002568Y-59635744D01*
X135996483Y-59633529D01*
X135996481Y-59633528D01*
X135909073Y-59601715D01*
X135909070Y-59601714D01*
X135902986Y-59599500D01*
X135797014Y-59599500D01*
X135790930Y-59601714D01*
X135790926Y-59601715D01*
X135703518Y-59633528D01*
X135703513Y-59633530D01*
X135697432Y-59635744D01*
X135692472Y-59639905D01*
X135692470Y-59639907D01*
X135621210Y-59699701D01*
X135621207Y-59699703D01*
X135616252Y-59703862D01*
X135613017Y-59709463D01*
X135613016Y-59709466D01*
X135566502Y-59790031D01*
X135566500Y-59790033D01*
X135563266Y-59795637D01*
X135562142Y-59802010D01*
X135562142Y-59802011D01*
X135561727Y-59804363D01*
X135544864Y-59900000D01*
X134260386Y-59900000D01*
X134286734Y-59854363D01*
X134305136Y-59750000D01*
X134286734Y-59645637D01*
X134233748Y-59553862D01*
X134152568Y-59485744D01*
X134146483Y-59483529D01*
X134146481Y-59483528D01*
X134059073Y-59451715D01*
X134059070Y-59451714D01*
X134052986Y-59449500D01*
X134046509Y-59449500D01*
X134017142Y-59449500D01*
X133969576Y-59432188D01*
X133944266Y-59388351D01*
X133942387Y-59377698D01*
X133936734Y-59345637D01*
X133883748Y-59253862D01*
X133802568Y-59185744D01*
X133796483Y-59183529D01*
X133796481Y-59183528D01*
X133709073Y-59151715D01*
X133709070Y-59151714D01*
X133702986Y-59149500D01*
X133597014Y-59149500D01*
X133590930Y-59151714D01*
X133590926Y-59151715D01*
X133503518Y-59183528D01*
X133503513Y-59183530D01*
X133497432Y-59185744D01*
X133492472Y-59189905D01*
X133492470Y-59189907D01*
X133421210Y-59249701D01*
X133421207Y-59249703D01*
X133416252Y-59253862D01*
X133413017Y-59259463D01*
X133413016Y-59259466D01*
X133366502Y-59340031D01*
X133366500Y-59340033D01*
X133363266Y-59345637D01*
X133344864Y-59450000D01*
X132925485Y-59450000D01*
X132925485Y-57749508D01*
X132935399Y-57712508D01*
X132962485Y-57685422D01*
X132999485Y-57675508D01*
X139806257Y-57675508D01*
X139813528Y-57676486D01*
X139813579Y-57675946D01*
X139820021Y-57676548D01*
X139826269Y-57678264D01*
X139857151Y-57675751D01*
X139863150Y-57675508D01*
X139871025Y-57675508D01*
X139874658Y-57675508D01*
X139880499Y-57674345D01*
X139888942Y-57673165D01*
X139914318Y-57671102D01*
X139920203Y-57668400D01*
X139921052Y-57668179D01*
X139936240Y-57663258D01*
X139947724Y-57660974D01*
X139967694Y-57647629D01*
X139977930Y-57641909D01*
X139994607Y-57634257D01*
X140004005Y-57624972D01*
X140014887Y-57616097D01*
X140030585Y-57605609D01*
X140039958Y-57591578D01*
X140049471Y-57580057D01*
X140051217Y-57578333D01*
X140096680Y-57557268D01*
X140131892Y-57566517D01*
X140133272Y-57563393D01*
X140227362Y-57604939D01*
X140237983Y-57607828D01*
X140254573Y-57609753D01*
X140258845Y-57610000D01*
X140280257Y-57610000D01*
X140287940Y-57607940D01*
X140290000Y-57600257D01*
X140290000Y-56699743D01*
X140287940Y-56692059D01*
X140280257Y-56690000D01*
X140258845Y-56690000D01*
X140254573Y-56690246D01*
X140237983Y-56692171D01*
X140227362Y-56695060D01*
X140139541Y-56733838D01*
X140128424Y-56741454D01*
X140061453Y-56808425D01*
X140058150Y-56813247D01*
X140026800Y-56839201D01*
X139986467Y-56844652D01*
X139949352Y-56827952D01*
X139926682Y-56794153D01*
X139862961Y-56596727D01*
X139863036Y-56551040D01*
X139889927Y-56514103D01*
X139933384Y-56499999D01*
X140340256Y-56499999D01*
X140347940Y-56497940D01*
X140350000Y-56490257D01*
X140350000Y-55009744D01*
X140347940Y-55002060D01*
X140340257Y-55000001D01*
X139788867Y-55000001D01*
X139781652Y-55000711D01*
X139748622Y-55007281D01*
X139735413Y-55012752D01*
X139697916Y-55037806D01*
X139687806Y-55047916D01*
X139662751Y-55085414D01*
X139657281Y-55098619D01*
X139650710Y-55131655D01*
X139650000Y-55138865D01*
X139650000Y-55679553D01*
X139633583Y-55726031D01*
X139591615Y-55751887D01*
X139542719Y-55745647D01*
X139508590Y-55710080D01*
X139505851Y-55704031D01*
X139380911Y-55428139D01*
X139107719Y-54905606D01*
X138805451Y-54399336D01*
X138752753Y-54321435D01*
X138475648Y-53911800D01*
X138475071Y-53910947D01*
X138304739Y-53687475D01*
X138250539Y-53616365D01*
X138235394Y-53570951D01*
X138251219Y-53525770D01*
X138291388Y-53499731D01*
X142235768Y-52510492D01*
X143607499Y-52166466D01*
X143651553Y-52168981D01*
X143686344Y-52196124D01*
X143699500Y-52238243D01*
X143699500Y-52974674D01*
X143714034Y-53047740D01*
X143769399Y-53130601D01*
X143852260Y-53185966D01*
X143925326Y-53200500D01*
X143933035Y-53200500D01*
X143973699Y-53212674D01*
X144000983Y-53245190D01*
X144005910Y-53287349D01*
X143994864Y-53350000D01*
X144013266Y-53454363D01*
X144066252Y-53546138D01*
X144147432Y-53614256D01*
X144247014Y-53650500D01*
X144346509Y-53650500D01*
X144352986Y-53650500D01*
X144452568Y-53614256D01*
X144533748Y-53546138D01*
X144586734Y-53454363D01*
X144605136Y-53350000D01*
X144594089Y-53287349D01*
X144599017Y-53245190D01*
X144626301Y-53212674D01*
X144666965Y-53200500D01*
X144771034Y-53200500D01*
X144774674Y-53200500D01*
X144847740Y-53185966D01*
X144930601Y-53130601D01*
X144985966Y-53047740D01*
X145000500Y-52974674D01*
X145000500Y-52824500D01*
X145010414Y-52787500D01*
X145037500Y-52760414D01*
X145074500Y-52750500D01*
X147625500Y-52750500D01*
X147662500Y-52760414D01*
X147689586Y-52787500D01*
X147699500Y-52824500D01*
X147699500Y-52974674D01*
X147714034Y-53047740D01*
X147769399Y-53130601D01*
X147852260Y-53185966D01*
X147925326Y-53200500D01*
X148771034Y-53200500D01*
X148774674Y-53200500D01*
X148847740Y-53185966D01*
X148930601Y-53130601D01*
X148985966Y-53047740D01*
X149000500Y-52974674D01*
X149000500Y-52125326D01*
X148985966Y-52052260D01*
X148930601Y-51969399D01*
X148924535Y-51965346D01*
X148853798Y-51918082D01*
X148847740Y-51914034D01*
X148840594Y-51912612D01*
X148840593Y-51912612D01*
X148778244Y-51900210D01*
X148778242Y-51900209D01*
X148774674Y-51899500D01*
X147925326Y-51899500D01*
X147921758Y-51900209D01*
X147921755Y-51900210D01*
X147859406Y-51912612D01*
X147859403Y-51912613D01*
X147852260Y-51914034D01*
X147846202Y-51918081D01*
X147846201Y-51918082D01*
X147775459Y-51965349D01*
X147775456Y-51965351D01*
X147769399Y-51969399D01*
X147765351Y-51975456D01*
X147765349Y-51975459D01*
X147722038Y-52040281D01*
X147714034Y-52052260D01*
X147712613Y-52059403D01*
X147712612Y-52059406D01*
X147700210Y-52121755D01*
X147699500Y-52125326D01*
X147699500Y-52128966D01*
X147699500Y-52275500D01*
X147689586Y-52312500D01*
X147662500Y-52339586D01*
X147625500Y-52349500D01*
X145074500Y-52349500D01*
X145037500Y-52339586D01*
X145010414Y-52312500D01*
X145000500Y-52275500D01*
X145000500Y-52128966D01*
X145000500Y-52125326D01*
X144985966Y-52052260D01*
X144930601Y-51969399D01*
X144924540Y-51965349D01*
X144924537Y-51965346D01*
X144922705Y-51964122D01*
X144919714Y-51960523D01*
X144919387Y-51960196D01*
X144919417Y-51960165D01*
X144895806Y-51931754D01*
X144890907Y-51889953D01*
X144909592Y-51852242D01*
X144945815Y-51830819D01*
X154522079Y-49429117D01*
X154556670Y-49428779D01*
X154587636Y-49444201D01*
G37*
G04 #@! TD.AperFunction*
G04 #@! TA.AperFunction,Conductor*
G36*
X143340671Y-58489759D02*
G01*
X143367968Y-58521868D01*
X143393838Y-58580458D01*
X143401454Y-58591575D01*
X143473272Y-58663393D01*
X143472219Y-58664445D01*
X143489002Y-58683530D01*
X143497080Y-58719093D01*
X143487191Y-58754195D01*
X143466503Y-58790028D01*
X143466500Y-58790034D01*
X143463266Y-58795637D01*
X143462142Y-58802009D01*
X143462140Y-58802016D01*
X143462137Y-58802035D01*
X143462126Y-58802054D01*
X143459927Y-58808097D01*
X143459013Y-58807764D01*
X143439551Y-58843467D01*
X143396516Y-58862825D01*
X143389931Y-58863473D01*
X143387500Y-58871489D01*
X143387500Y-59813500D01*
X143377586Y-59850500D01*
X143350500Y-59877586D01*
X143313500Y-59887500D01*
X143161500Y-59887500D01*
X143124500Y-59877586D01*
X143097414Y-59850500D01*
X143087500Y-59813500D01*
X143087500Y-58871489D01*
X143084730Y-58862359D01*
X143074681Y-58854112D01*
X143065819Y-58850647D01*
X143041569Y-58818684D01*
X143037564Y-58778764D01*
X143040785Y-58760500D01*
X143042636Y-58750000D01*
X143042193Y-58747490D01*
X143053513Y-58709386D01*
X143085622Y-58682090D01*
X143095890Y-58677556D01*
X143127016Y-58663813D01*
X143203813Y-58587016D01*
X143232578Y-58521868D01*
X143259874Y-58489760D01*
X143300273Y-58477759D01*
X143340671Y-58489759D01*
G37*
G04 #@! TD.AperFunction*
M02*
