G04 #@! TF.GenerationSoftware,KiCad,Pcbnew,(7.0.0-0)*
G04 #@! TF.CreationDate,2024-01-01T11:18:48+08:00*
G04 #@! TF.ProjectId,SWDProgrammer,53574450-726f-4677-9261-6d6d65722e6b,rev?*
G04 #@! TF.SameCoordinates,Original*
G04 #@! TF.FileFunction,Copper,L1,Top*
G04 #@! TF.FilePolarity,Positive*
%FSLAX46Y46*%
G04 Gerber Fmt 4.6, Leading zero omitted, Abs format (unit mm)*
G04 Created by KiCad (PCBNEW (7.0.0-0)) date 2024-01-01 11:18:48*
%MOMM*%
%LPD*%
G01*
G04 APERTURE LIST*
G04 Aperture macros list*
%AMHorizOval*
0 Thick line with rounded ends*
0 $1 width*
0 $2 $3 position (X,Y) of the first rounded end (center of the circle)*
0 $4 $5 position (X,Y) of the second rounded end (center of the circle)*
0 Add line between two ends*
20,1,$1,$2,$3,$4,$5,0*
0 Add two circle primitives to create the rounded ends*
1,1,$1,$2,$3*
1,1,$1,$4,$5*%
%AMFreePoly0*
4,1,19,0.550000,-0.750000,0.000000,-0.750000,0.000000,-0.744911,-0.071157,-0.744911,-0.207708,-0.704816,-0.327430,-0.627875,-0.420627,-0.520320,-0.479746,-0.390866,-0.500000,-0.250000,-0.500000,0.250000,-0.479746,0.390866,-0.420627,0.520320,-0.327430,0.627875,-0.207708,0.704816,-0.071157,0.744911,0.000000,0.744911,0.000000,0.750000,0.550000,0.750000,0.550000,-0.750000,0.550000,-0.750000,
$1*%
%AMFreePoly1*
4,1,19,0.000000,0.744911,0.071157,0.744911,0.207708,0.704816,0.327430,0.627875,0.420627,0.520320,0.479746,0.390866,0.500000,0.250000,0.500000,-0.250000,0.479746,-0.390866,0.420627,-0.520320,0.327430,-0.627875,0.207708,-0.704816,0.071157,-0.744911,0.000000,-0.744911,0.000000,-0.750000,-0.550000,-0.750000,-0.550000,0.750000,0.000000,0.750000,0.000000,0.744911,0.000000,0.744911,
$1*%
%AMFreePoly2*
4,1,19,0.500000,-0.750000,0.000000,-0.750000,0.000000,-0.744911,-0.071157,-0.744911,-0.207708,-0.704816,-0.327430,-0.627875,-0.420627,-0.520320,-0.479746,-0.390866,-0.500000,-0.250000,-0.500000,0.250000,-0.479746,0.390866,-0.420627,0.520320,-0.327430,0.627875,-0.207708,0.704816,-0.071157,0.744911,0.000000,0.744911,0.000000,0.750000,0.500000,0.750000,0.500000,-0.750000,0.500000,-0.750000,
$1*%
%AMFreePoly3*
4,1,19,0.000000,0.744911,0.071157,0.744911,0.207708,0.704816,0.327430,0.627875,0.420627,0.520320,0.479746,0.390866,0.500000,0.250000,0.500000,-0.250000,0.479746,-0.390866,0.420627,-0.520320,0.327430,-0.627875,0.207708,-0.704816,0.071157,-0.744911,0.000000,-0.744911,0.000000,-0.750000,-0.500000,-0.750000,-0.500000,0.750000,0.000000,0.750000,0.000000,0.744911,0.000000,0.744911,
$1*%
G04 Aperture macros list end*
G04 #@! TA.AperFunction,SMDPad,CuDef*
%ADD10FreePoly0,180.000000*%
G04 #@! TD*
G04 #@! TA.AperFunction,SMDPad,CuDef*
%ADD11R,1.000000X1.500000*%
G04 #@! TD*
G04 #@! TA.AperFunction,SMDPad,CuDef*
%ADD12FreePoly1,180.000000*%
G04 #@! TD*
G04 #@! TA.AperFunction,SMDPad,CuDef*
%ADD13FreePoly2,90.000000*%
G04 #@! TD*
G04 #@! TA.AperFunction,SMDPad,CuDef*
%ADD14FreePoly3,90.000000*%
G04 #@! TD*
G04 #@! TA.AperFunction,SMDPad,CuDef*
%ADD15FreePoly2,0.000000*%
G04 #@! TD*
G04 #@! TA.AperFunction,SMDPad,CuDef*
%ADD16FreePoly3,0.000000*%
G04 #@! TD*
G04 #@! TA.AperFunction,SMDPad,CuDef*
%ADD17R,0.325000X0.180000*%
G04 #@! TD*
G04 #@! TA.AperFunction,SMDPad,CuDef*
%ADD18R,0.235000X0.750000*%
G04 #@! TD*
G04 #@! TA.AperFunction,SMDPad,CuDef*
%ADD19R,1.040000X0.215000*%
G04 #@! TD*
G04 #@! TA.AperFunction,ComponentPad*
%ADD20HorizOval,1.000000X-0.508829X0.317952X0.508829X-0.317952X0*%
G04 #@! TD*
G04 #@! TA.AperFunction,ComponentPad*
%ADD21HorizOval,1.000000X-0.339219X0.211968X0.339219X-0.211968X0*%
G04 #@! TD*
G04 #@! TA.AperFunction,ComponentPad*
%ADD22HorizOval,1.000000X0.594161X0.083504X-0.594161X-0.083504X0*%
G04 #@! TD*
G04 #@! TA.AperFunction,ComponentPad*
%ADD23HorizOval,1.000000X0.396107X0.055669X-0.396107X-0.055669X0*%
G04 #@! TD*
G04 #@! TA.AperFunction,ViaPad*
%ADD24C,0.300000*%
G04 #@! TD*
G04 #@! TA.AperFunction,Conductor*
%ADD25C,0.100000*%
G04 #@! TD*
G04 APERTURE END LIST*
G36*
X146950000Y-56750000D02*
G01*
X146350000Y-56750000D01*
X146350000Y-56250000D01*
X146950000Y-56250000D01*
X146950000Y-56750000D01*
G37*
D10*
X147050000Y-61557500D03*
D11*
X145749999Y-61557499D03*
D12*
X144450000Y-61557500D03*
D10*
X147000000Y-66100000D03*
D11*
X145699999Y-66099999D03*
D12*
X144400000Y-66100000D03*
D13*
X141250000Y-63100000D03*
D14*
X141250000Y-61800000D03*
D15*
X140300000Y-69200000D03*
D16*
X141600000Y-69200000D03*
D13*
X146650000Y-57150000D03*
D14*
X146650000Y-55850000D03*
D13*
X139250000Y-65900000D03*
D14*
X139250000Y-64600000D03*
D13*
X141250000Y-60350000D03*
D14*
X141250000Y-59050000D03*
D17*
X133087499Y-59099999D03*
X133087499Y-59449999D03*
X133087499Y-59799999D03*
X133087499Y-60149999D03*
X133087499Y-60499999D03*
X134862499Y-59099999D03*
X134862499Y-59449999D03*
X134862499Y-59799999D03*
X134862499Y-60149999D03*
X134862499Y-60499999D03*
D18*
X133042499Y-58364999D03*
D19*
X133974999Y-57784999D03*
D18*
X134907499Y-58364999D03*
X133042499Y-61234999D03*
D19*
X133974999Y-61814999D03*
D18*
X134907499Y-61234999D03*
D13*
X142150000Y-57050000D03*
D14*
X142150000Y-55750000D03*
D20*
X148316797Y-78015415D03*
X154225715Y-68559170D03*
D21*
X151003291Y-66545222D03*
X145094215Y-76001721D03*
D22*
X155581179Y-62080248D03*
X154029316Y-51038164D03*
D23*
X150266255Y-51566725D03*
X151818161Y-62609105D03*
D24*
X145250000Y-54500000D03*
X138000000Y-69250000D03*
X145150000Y-71550000D03*
X143300000Y-58700000D03*
X144150000Y-70900000D03*
X140250000Y-67000000D03*
X147750000Y-66450000D03*
X141050000Y-70550000D03*
X149800000Y-61600000D03*
X143750000Y-58900000D03*
X138900000Y-60600000D03*
X136950000Y-68450000D03*
X142737500Y-58750000D03*
X138300000Y-67350000D03*
X146150000Y-57050000D03*
X140200000Y-61000000D03*
X147850000Y-68450000D03*
X143800000Y-73200000D03*
X146550000Y-70450000D03*
X146000000Y-69600000D03*
X147100000Y-69700000D03*
X149750000Y-64600000D03*
X149800000Y-63500000D03*
X150000000Y-59700000D03*
X149300000Y-54900000D03*
X135850000Y-59900000D03*
X146250000Y-55550000D03*
X139850000Y-63400000D03*
X147750000Y-63500000D03*
X141350000Y-61900000D03*
X141300000Y-63250000D03*
X149450000Y-57050000D03*
X136350000Y-61100000D03*
X149300000Y-58050000D03*
X135700000Y-61400000D03*
X148750000Y-57500000D03*
X133650000Y-59450000D03*
X145450000Y-62850000D03*
X134000000Y-59750000D03*
X143300000Y-66900000D03*
X133700000Y-60200000D03*
X144300000Y-53350000D03*
D25*
X147750000Y-66450000D02*
X147350000Y-66450000D01*
X147050000Y-61557500D02*
X147092500Y-61600000D01*
X143750000Y-58150000D02*
X143750000Y-58900000D01*
X142150000Y-57050000D02*
X142650000Y-57050000D01*
X142650000Y-57050000D02*
X143750000Y-58150000D01*
X147092500Y-61600000D02*
X149800000Y-61600000D01*
X147350000Y-66450000D02*
X147000000Y-66100000D01*
X139400000Y-63374265D02*
X140250000Y-64224265D01*
X140300000Y-69200000D02*
X138450000Y-67350000D01*
X140250000Y-64224265D02*
X140250000Y-66300000D01*
X141080761Y-58050000D02*
X139400000Y-59730761D01*
X139200000Y-67350000D02*
X138300000Y-67350000D01*
X142037500Y-58050000D02*
X141080761Y-58050000D01*
X138450000Y-67350000D02*
X138300000Y-67350000D01*
X140250000Y-66300000D02*
X139200000Y-67350000D01*
X139400000Y-59730761D02*
X139400000Y-63374265D01*
X142737500Y-58750000D02*
X142037500Y-58050000D01*
X145850000Y-68450000D02*
X143800000Y-70500000D01*
X143800000Y-70500000D02*
X143800000Y-73200000D01*
X140850000Y-60350000D02*
X140200000Y-61000000D01*
X141250000Y-60350000D02*
X140850000Y-60350000D01*
X147850000Y-68450000D02*
X145850000Y-68450000D01*
X146450000Y-64600000D02*
X145700000Y-65350000D01*
X149750000Y-64600000D02*
X146450000Y-64600000D01*
X145700000Y-65350000D02*
X145700000Y-66100000D01*
X145750000Y-62100000D02*
X146350000Y-62700000D01*
X146350000Y-62700000D02*
X149000000Y-62700000D01*
X149000000Y-62700000D02*
X149800000Y-63500000D01*
X145750000Y-62150000D02*
X145750000Y-61557500D01*
X145750000Y-61557500D02*
X145750000Y-62100000D01*
X147950000Y-56250000D02*
X148350000Y-55850000D01*
X149300000Y-54900000D02*
X148350000Y-55850000D01*
X134660000Y-59800000D02*
X134862500Y-59800000D01*
X150000000Y-59700000D02*
X147950000Y-57650000D01*
X134862500Y-59800000D02*
X135750000Y-59800000D01*
X133087500Y-59100000D02*
X133960000Y-59100000D01*
X148350000Y-55850000D02*
X146650000Y-55850000D01*
X133960000Y-59100000D02*
X134660000Y-59800000D01*
X135750000Y-59800000D02*
X135850000Y-59900000D01*
X147950000Y-57650000D02*
X147950000Y-56250000D01*
X135125000Y-60150000D02*
X136075000Y-61100000D01*
X149300000Y-57200000D02*
X149450000Y-57050000D01*
X136075000Y-61100000D02*
X136350000Y-61100000D01*
X149300000Y-58050000D02*
X149300000Y-57200000D01*
X134862500Y-60150000D02*
X135125000Y-60150000D01*
X134935000Y-60500000D02*
X135750000Y-61315000D01*
X135750000Y-61350000D02*
X135700000Y-61400000D01*
X134862500Y-60500000D02*
X134935000Y-60500000D01*
X135750000Y-61315000D02*
X135750000Y-61350000D01*
X140750000Y-57800000D02*
X140750000Y-56450000D01*
X134907500Y-58365000D02*
X140185000Y-58365000D01*
X140185000Y-58365000D02*
X140750000Y-57800000D01*
X140750000Y-56450000D02*
X141450000Y-55750000D01*
X141450000Y-55750000D02*
X142150000Y-55750000D01*
X133395000Y-58365000D02*
X133975000Y-57785000D01*
X133042500Y-58365000D02*
X133395000Y-58365000D01*
X134555000Y-58365000D02*
X134907500Y-58365000D01*
X133975000Y-57785000D02*
X134555000Y-58365000D01*
X133087500Y-59450000D02*
X133650000Y-59450000D01*
X133950000Y-59800000D02*
X134000000Y-59750000D01*
X133087500Y-59800000D02*
X133950000Y-59800000D01*
X133650000Y-60150000D02*
X133700000Y-60200000D01*
X133087500Y-60150000D02*
X133650000Y-60150000D01*
X139250000Y-64600000D02*
X138450000Y-63800000D01*
X138450000Y-63800000D02*
X138450000Y-61150000D01*
X138450000Y-61150000D02*
X136400000Y-59100000D01*
X136400000Y-59100000D02*
X134862500Y-59100000D01*
X138400000Y-65900000D02*
X138000000Y-65500000D01*
X138000000Y-65500000D02*
X138000000Y-61350000D01*
X139250000Y-65900000D02*
X138400000Y-65900000D01*
X136100000Y-59450000D02*
X134862500Y-59450000D01*
X138000000Y-61350000D02*
X136100000Y-59450000D01*
G04 #@! TA.AperFunction,Conductor*
G36*
X154587636Y-49444201D02*
G01*
X154608209Y-49472014D01*
X154784228Y-49887248D01*
X154784987Y-49889107D01*
X154922670Y-50240112D01*
X154926259Y-50282060D01*
X154906387Y-50319177D01*
X154869487Y-50339448D01*
X154827502Y-50336311D01*
X154782006Y-50319028D01*
X154782001Y-50319027D01*
X154777653Y-50317375D01*
X154773031Y-50316856D01*
X154773025Y-50316855D01*
X154618950Y-50299574D01*
X154614323Y-50299055D01*
X154609720Y-50299701D01*
X154609712Y-50299702D01*
X153306399Y-50482871D01*
X153306391Y-50482872D01*
X153304097Y-50483195D01*
X153301860Y-50483802D01*
X153301849Y-50483805D01*
X153189790Y-50514251D01*
X153189782Y-50514254D01*
X153185300Y-50515472D01*
X153181260Y-50517766D01*
X153181255Y-50517769D01*
X153046439Y-50594355D01*
X153046435Y-50594357D01*
X153042395Y-50596653D01*
X153039052Y-50599881D01*
X153039047Y-50599885D01*
X152927516Y-50707589D01*
X152927512Y-50707593D01*
X152924167Y-50710824D01*
X152921730Y-50714785D01*
X152921727Y-50714789D01*
X152840488Y-50846840D01*
X152840484Y-50846847D01*
X152838048Y-50850808D01*
X152836672Y-50855251D01*
X152836670Y-50855257D01*
X152790823Y-51003366D01*
X152790822Y-51003370D01*
X152789447Y-51007813D01*
X152789219Y-51012455D01*
X152789219Y-51012461D01*
X152782567Y-51148491D01*
X152781419Y-51171971D01*
X152782353Y-51176524D01*
X152782354Y-51176528D01*
X152813530Y-51328408D01*
X152813531Y-51328413D01*
X152814467Y-51332969D01*
X152816506Y-51337150D01*
X152816508Y-51337155D01*
X152863380Y-51433257D01*
X152886515Y-51480690D01*
X152889530Y-51484232D01*
X152889531Y-51484234D01*
X152952788Y-51558560D01*
X152993037Y-51605852D01*
X153127338Y-51700591D01*
X153280981Y-51758955D01*
X153444311Y-51777275D01*
X154754537Y-51593135D01*
X154873334Y-51560858D01*
X155016239Y-51479677D01*
X155134466Y-51365506D01*
X155181989Y-51288257D01*
X155212720Y-51260453D01*
X155253581Y-51253530D01*
X155291756Y-51269662D01*
X155315271Y-51303788D01*
X155403292Y-51569812D01*
X155404453Y-51612446D01*
X155381890Y-51648640D01*
X155343099Y-51666370D01*
X150879218Y-52278949D01*
X150835897Y-52271740D01*
X150804291Y-52241250D01*
X150795530Y-52198216D01*
X150812700Y-52157796D01*
X150849755Y-52134225D01*
X150912218Y-52117254D01*
X151055124Y-52036073D01*
X151173351Y-51921903D01*
X151259470Y-51781918D01*
X151308071Y-51624913D01*
X151316100Y-51460755D01*
X151283052Y-51299758D01*
X151211004Y-51152036D01*
X151104482Y-51026874D01*
X151084050Y-51012461D01*
X150973986Y-50934819D01*
X150973985Y-50934818D01*
X150970181Y-50932135D01*
X150965830Y-50930482D01*
X150965826Y-50930480D01*
X150820891Y-50875424D01*
X150820886Y-50875423D01*
X150816538Y-50873771D01*
X150811916Y-50873252D01*
X150811910Y-50873251D01*
X150657835Y-50855970D01*
X150653208Y-50855451D01*
X150648605Y-50856097D01*
X150648597Y-50856098D01*
X149741393Y-50983597D01*
X149741385Y-50983598D01*
X149739091Y-50983921D01*
X149736854Y-50984528D01*
X149736843Y-50984531D01*
X149624783Y-51014977D01*
X149624775Y-51014980D01*
X149620293Y-51016198D01*
X149616253Y-51018492D01*
X149616248Y-51018495D01*
X149481432Y-51095081D01*
X149481428Y-51095083D01*
X149477388Y-51097379D01*
X149474045Y-51100607D01*
X149474040Y-51100611D01*
X149362510Y-51208314D01*
X149362506Y-51208318D01*
X149359161Y-51211549D01*
X149356724Y-51215510D01*
X149356721Y-51215514D01*
X149275479Y-51347571D01*
X149275476Y-51347577D01*
X149273042Y-51351534D01*
X149271667Y-51355975D01*
X149271665Y-51355980D01*
X149225816Y-51504091D01*
X149225814Y-51504097D01*
X149224440Y-51508539D01*
X149224213Y-51513178D01*
X149224212Y-51513185D01*
X149218531Y-51629359D01*
X149216412Y-51672697D01*
X149217346Y-51677250D01*
X149217347Y-51677254D01*
X149248523Y-51829133D01*
X149248524Y-51829138D01*
X149249460Y-51833694D01*
X149251499Y-51837875D01*
X149251501Y-51837880D01*
X149290791Y-51918436D01*
X149321508Y-51981416D01*
X149428029Y-52106578D01*
X149562330Y-52201317D01*
X149715973Y-52259681D01*
X149844018Y-52274043D01*
X149888078Y-52295238D01*
X149909303Y-52339282D01*
X149898429Y-52386950D01*
X149860203Y-52417432D01*
X149830831Y-52427706D01*
X149830571Y-52427796D01*
X149790568Y-52441621D01*
X149790561Y-52441624D01*
X149783883Y-52443933D01*
X149783514Y-52444259D01*
X149783050Y-52444422D01*
X149777800Y-52449111D01*
X149777799Y-52449113D01*
X149746293Y-52477262D01*
X149746087Y-52477445D01*
X149714598Y-52505367D01*
X149714595Y-52505370D01*
X149709318Y-52510050D01*
X149709102Y-52510492D01*
X149708736Y-52510820D01*
X149687330Y-52555260D01*
X149665733Y-52599668D01*
X149665703Y-52600159D01*
X149665490Y-52600603D01*
X149665092Y-52607672D01*
X149665092Y-52607673D01*
X149662731Y-52649632D01*
X149662715Y-52649909D01*
X149660195Y-52691866D01*
X149660195Y-52691870D01*
X149659759Y-52699144D01*
X149665798Y-52716618D01*
X149669130Y-52730449D01*
X150924435Y-61627963D01*
X150925046Y-61642430D01*
X150924452Y-61653049D01*
X150924452Y-61653052D01*
X150924046Y-61660327D01*
X150926453Y-61667203D01*
X150926454Y-61667205D01*
X150932643Y-61684880D01*
X150940334Y-61706843D01*
X150956940Y-61754312D01*
X150956967Y-61754342D01*
X150956981Y-61754382D01*
X150990443Y-61791809D01*
X151023338Y-61828626D01*
X151023375Y-61828643D01*
X151023403Y-61828675D01*
X151030151Y-61831923D01*
X151030153Y-61831924D01*
X151069126Y-61850680D01*
X151069127Y-61850681D01*
X151113121Y-61871872D01*
X151113161Y-61871874D01*
X151113200Y-61871893D01*
X151164279Y-61874749D01*
X151212619Y-61877469D01*
X151229541Y-61871548D01*
X151243597Y-61868131D01*
X156655064Y-61102907D01*
X156697487Y-61109485D01*
X156729120Y-61138512D01*
X156739313Y-61180217D01*
X156724594Y-61449493D01*
X156712307Y-61486455D01*
X156682952Y-61512058D01*
X156644663Y-61519207D01*
X156608049Y-61505923D01*
X156483159Y-61417823D01*
X156478808Y-61416170D01*
X156478804Y-61416168D01*
X156333869Y-61361112D01*
X156333864Y-61361111D01*
X156329516Y-61359459D01*
X156324894Y-61358940D01*
X156324888Y-61358939D01*
X156170813Y-61341658D01*
X156166186Y-61341139D01*
X156161583Y-61341785D01*
X156161575Y-61341786D01*
X154858262Y-61524955D01*
X154858254Y-61524956D01*
X154855960Y-61525279D01*
X154853723Y-61525886D01*
X154853712Y-61525889D01*
X154741653Y-61556335D01*
X154741645Y-61556338D01*
X154737163Y-61557556D01*
X154733123Y-61559850D01*
X154733118Y-61559853D01*
X154598302Y-61636439D01*
X154598298Y-61636441D01*
X154594258Y-61638737D01*
X154590915Y-61641965D01*
X154590910Y-61641969D01*
X154479379Y-61749673D01*
X154479375Y-61749677D01*
X154476030Y-61752908D01*
X154473593Y-61756869D01*
X154473590Y-61756873D01*
X154392351Y-61888924D01*
X154392347Y-61888931D01*
X154389911Y-61892892D01*
X154388535Y-61897335D01*
X154388533Y-61897341D01*
X154342686Y-62045450D01*
X154342685Y-62045454D01*
X154341310Y-62049897D01*
X154341082Y-62054539D01*
X154341082Y-62054545D01*
X154333509Y-62209406D01*
X154333282Y-62214055D01*
X154334216Y-62218608D01*
X154334217Y-62218612D01*
X154365393Y-62370492D01*
X154365394Y-62370497D01*
X154366330Y-62375053D01*
X154368369Y-62379234D01*
X154368371Y-62379239D01*
X154409533Y-62463633D01*
X154438378Y-62522774D01*
X154441393Y-62526316D01*
X154441394Y-62526318D01*
X154501065Y-62596430D01*
X154544900Y-62647936D01*
X154679201Y-62742675D01*
X154832844Y-62801039D01*
X154996174Y-62819359D01*
X156306400Y-62635219D01*
X156425197Y-62602942D01*
X156429242Y-62600643D01*
X156429247Y-62600642D01*
X156526307Y-62545504D01*
X156564907Y-62535874D01*
X156602915Y-62547624D01*
X156629346Y-62577357D01*
X156636561Y-62616480D01*
X156614018Y-62866929D01*
X156613739Y-62869517D01*
X156496759Y-63800919D01*
X156496390Y-63803495D01*
X156346726Y-64730250D01*
X156346266Y-64732811D01*
X156164112Y-65653712D01*
X156163562Y-65656256D01*
X155949141Y-66570185D01*
X155948502Y-66572707D01*
X155702083Y-67478513D01*
X155701356Y-67481012D01*
X155423231Y-68377621D01*
X155422416Y-68380093D01*
X155391362Y-68469024D01*
X155368730Y-68501595D01*
X155332531Y-68517801D01*
X155293162Y-68512987D01*
X155263063Y-68489420D01*
X155262290Y-68488036D01*
X155148948Y-68369015D01*
X155136790Y-68361418D01*
X154028858Y-67669105D01*
X154028859Y-67669105D01*
X154026893Y-67667877D01*
X154024790Y-67666905D01*
X154024784Y-67666902D01*
X153919370Y-67618194D01*
X153919368Y-67618193D01*
X153915143Y-67616241D01*
X153910563Y-67615400D01*
X153910562Y-67615400D01*
X153758064Y-67587411D01*
X153758057Y-67587410D01*
X153753488Y-67586572D01*
X153748851Y-67586896D01*
X153748848Y-67586896D01*
X153594179Y-67597711D01*
X153594177Y-67597711D01*
X153589534Y-67598036D01*
X153585116Y-67599505D01*
X153585114Y-67599506D01*
X153437999Y-67648444D01*
X153437994Y-67648446D01*
X153433582Y-67649914D01*
X153429673Y-67652432D01*
X153429669Y-67652435D01*
X153299343Y-67736425D01*
X153299338Y-67736428D01*
X153295431Y-67738947D01*
X153292270Y-67742359D01*
X153292268Y-67742362D01*
X153186923Y-67856123D01*
X153186918Y-67856129D01*
X153183762Y-67859538D01*
X153181549Y-67863629D01*
X153181548Y-67863632D01*
X153107804Y-68000018D01*
X153107802Y-68000022D01*
X153105591Y-68004112D01*
X153104467Y-68008619D01*
X153104465Y-68008625D01*
X153066955Y-68159066D01*
X153066954Y-68159071D01*
X153065829Y-68163585D01*
X153065861Y-68168239D01*
X153065861Y-68168244D01*
X153066944Y-68323280D01*
X153066977Y-68327936D01*
X153068166Y-68332436D01*
X153107771Y-68482340D01*
X153107773Y-68482346D01*
X153108960Y-68486837D01*
X153111228Y-68490896D01*
X153111229Y-68490897D01*
X153186870Y-68626242D01*
X153186872Y-68626245D01*
X153189142Y-68630306D01*
X153192350Y-68633675D01*
X153192351Y-68633676D01*
X153246022Y-68690036D01*
X153265184Y-68727527D01*
X153260794Y-68769402D01*
X153234274Y-68802104D01*
X153194209Y-68815047D01*
X153153569Y-68804041D01*
X152642352Y-68488536D01*
X151019518Y-67486981D01*
X150990621Y-67453747D01*
X150985725Y-67409980D01*
X151006564Y-67371181D01*
X151045757Y-67351094D01*
X151089422Y-67356833D01*
X151140028Y-67380216D01*
X151144255Y-67382169D01*
X151305910Y-67411838D01*
X151469864Y-67400374D01*
X151625816Y-67348496D01*
X151763967Y-67259464D01*
X151875636Y-67138872D01*
X151953807Y-66994298D01*
X151993569Y-66834825D01*
X151992421Y-66670475D01*
X151950438Y-66511573D01*
X151885706Y-66395749D01*
X151872527Y-66372167D01*
X151872525Y-66372165D01*
X151870256Y-66368104D01*
X151851586Y-66348499D01*
X151783474Y-66276974D01*
X151756914Y-66249083D01*
X151725661Y-66229554D01*
X151384246Y-66016214D01*
X150974080Y-65759913D01*
X150932025Y-65740481D01*
X150866555Y-65710229D01*
X150866550Y-65710227D01*
X150862329Y-65708277D01*
X150857747Y-65707436D01*
X150705250Y-65679447D01*
X150705243Y-65679446D01*
X150700674Y-65678608D01*
X150696037Y-65678932D01*
X150696034Y-65678932D01*
X150541365Y-65689747D01*
X150541363Y-65689747D01*
X150536720Y-65690072D01*
X150532302Y-65691541D01*
X150532300Y-65691542D01*
X150385184Y-65740481D01*
X150385181Y-65740482D01*
X150380769Y-65741950D01*
X150376857Y-65744470D01*
X150376857Y-65744471D01*
X150246529Y-65828461D01*
X150246524Y-65828464D01*
X150242617Y-65830983D01*
X150239461Y-65834390D01*
X150239455Y-65834396D01*
X150134109Y-65948159D01*
X150134104Y-65948165D01*
X150130948Y-65951574D01*
X150128735Y-65955665D01*
X150128734Y-65955668D01*
X150054990Y-66092054D01*
X150054988Y-66092058D01*
X150052777Y-66096148D01*
X150051653Y-66100655D01*
X150051651Y-66100661D01*
X150014141Y-66251102D01*
X150014140Y-66251107D01*
X150013015Y-66255621D01*
X150013047Y-66260275D01*
X150013047Y-66260280D01*
X150014130Y-66415315D01*
X150014163Y-66419971D01*
X150015352Y-66424471D01*
X150054957Y-66574376D01*
X150054959Y-66574382D01*
X150056146Y-66578873D01*
X150058414Y-66582932D01*
X150058415Y-66582933D01*
X150134056Y-66718278D01*
X150134058Y-66718281D01*
X150136328Y-66722342D01*
X150139536Y-66725711D01*
X150139537Y-66725712D01*
X150239127Y-66830292D01*
X150259255Y-66874860D01*
X150247190Y-66922251D01*
X150208200Y-66951768D01*
X150159314Y-66950521D01*
X150136223Y-66941770D01*
X150135830Y-66941600D01*
X150135314Y-66941282D01*
X150113041Y-66932984D01*
X150112707Y-66932859D01*
X150073519Y-66918009D01*
X150073518Y-66918008D01*
X150066924Y-66915510D01*
X150066188Y-66915532D01*
X150065503Y-66915277D01*
X150058477Y-66915530D01*
X150058474Y-66915530D01*
X150016738Y-66917037D01*
X150016324Y-66917051D01*
X149974333Y-66918331D01*
X149974332Y-66918331D01*
X149967315Y-66918545D01*
X149966645Y-66918846D01*
X149965913Y-66918873D01*
X149959539Y-66921786D01*
X149959534Y-66921788D01*
X149921479Y-66939185D01*
X149921104Y-66939355D01*
X149882864Y-66956579D01*
X149882859Y-66956581D01*
X149876450Y-66959469D01*
X149875946Y-66960004D01*
X149875280Y-66960309D01*
X149870493Y-66965453D01*
X149870489Y-66965457D01*
X149841946Y-66996137D01*
X149841667Y-66996436D01*
X149826556Y-67012498D01*
X149826545Y-67012510D01*
X149825401Y-67013727D01*
X149825080Y-67014239D01*
X149824802Y-67014568D01*
X149812364Y-67027938D01*
X149812362Y-67027941D01*
X149807402Y-67033273D01*
X149804860Y-67040095D01*
X149804858Y-67040099D01*
X149801486Y-67049152D01*
X149794895Y-67062536D01*
X145036885Y-74675661D01*
X145028278Y-74686882D01*
X145020521Y-74695208D01*
X145020516Y-74695215D01*
X145015552Y-74700544D01*
X145013003Y-74707367D01*
X145013002Y-74707371D01*
X144998361Y-74746579D01*
X144998236Y-74746912D01*
X144985535Y-74780428D01*
X144980894Y-74792677D01*
X144980913Y-74793310D01*
X144980692Y-74793903D01*
X144980941Y-74800963D01*
X144980941Y-74800967D01*
X144982419Y-74842783D01*
X144982431Y-74843141D01*
X144983714Y-74885252D01*
X144983714Y-74885254D01*
X144983929Y-74892287D01*
X144984189Y-74892865D01*
X144984212Y-74893496D01*
X144987143Y-74899920D01*
X144987144Y-74899924D01*
X145004581Y-74938142D01*
X145004726Y-74938462D01*
X145024854Y-74983151D01*
X145025313Y-74983583D01*
X145025577Y-74984161D01*
X145061610Y-75017733D01*
X145097434Y-75051439D01*
X145114893Y-75058055D01*
X145127574Y-75064305D01*
X146357364Y-75824603D01*
X149757171Y-77926478D01*
X149785469Y-77958459D01*
X149791386Y-78000750D01*
X149772950Y-78039269D01*
X149591426Y-78238434D01*
X149558295Y-78259375D01*
X149519115Y-78260458D01*
X149484879Y-78241378D01*
X149465190Y-78207489D01*
X149433554Y-78087750D01*
X149353372Y-77944281D01*
X149336418Y-77926478D01*
X149243238Y-77828629D01*
X149243239Y-77828629D01*
X149240030Y-77825260D01*
X149181491Y-77788681D01*
X148119940Y-77125350D01*
X148119941Y-77125350D01*
X148117975Y-77124122D01*
X148115872Y-77123150D01*
X148115866Y-77123147D01*
X148010452Y-77074439D01*
X148010450Y-77074438D01*
X148006225Y-77072486D01*
X148001645Y-77071645D01*
X148001644Y-77071645D01*
X147849146Y-77043656D01*
X147849139Y-77043655D01*
X147844570Y-77042817D01*
X147839933Y-77043141D01*
X147839930Y-77043141D01*
X147685261Y-77053956D01*
X147685259Y-77053956D01*
X147680616Y-77054281D01*
X147676198Y-77055750D01*
X147676196Y-77055751D01*
X147529081Y-77104689D01*
X147529076Y-77104691D01*
X147524664Y-77106159D01*
X147520755Y-77108677D01*
X147520751Y-77108680D01*
X147390425Y-77192670D01*
X147390420Y-77192673D01*
X147386513Y-77195192D01*
X147383352Y-77198604D01*
X147383350Y-77198607D01*
X147278005Y-77312368D01*
X147278000Y-77312374D01*
X147274844Y-77315783D01*
X147272631Y-77319874D01*
X147272630Y-77319877D01*
X147198886Y-77456263D01*
X147198884Y-77456267D01*
X147196673Y-77460357D01*
X147195549Y-77464864D01*
X147195547Y-77464870D01*
X147158037Y-77615311D01*
X147158036Y-77615316D01*
X147156911Y-77619830D01*
X147156943Y-77624484D01*
X147156943Y-77624489D01*
X147158026Y-77779525D01*
X147158059Y-77784181D01*
X147159248Y-77788681D01*
X147198853Y-77938585D01*
X147198855Y-77938591D01*
X147200042Y-77943082D01*
X147202310Y-77947141D01*
X147202311Y-77947142D01*
X147277952Y-78082487D01*
X147277954Y-78082490D01*
X147280224Y-78086551D01*
X147393566Y-78205572D01*
X148515621Y-78906710D01*
X148627372Y-78958346D01*
X148631953Y-78959186D01*
X148631954Y-78959187D01*
X148712427Y-78973957D01*
X148748293Y-78991488D01*
X148769833Y-79025099D01*
X148770778Y-79065009D01*
X148750853Y-79099602D01*
X148461938Y-79382637D01*
X148460422Y-79384081D01*
X148128583Y-79691258D01*
X148096131Y-79708776D01*
X148059254Y-79708456D01*
X148027111Y-79690378D01*
X147294269Y-78988016D01*
X145186343Y-76967762D01*
X145164575Y-76926631D01*
X145171666Y-76880637D01*
X145204813Y-76847972D01*
X145250904Y-76841554D01*
X145396834Y-76868337D01*
X145560788Y-76856873D01*
X145716740Y-76804995D01*
X145854891Y-76715963D01*
X145966560Y-76595371D01*
X146044731Y-76450797D01*
X146084493Y-76291324D01*
X146083345Y-76126974D01*
X146041362Y-75968072D01*
X145990167Y-75876470D01*
X145963451Y-75828666D01*
X145963449Y-75828664D01*
X145961180Y-75824603D01*
X145847838Y-75705582D01*
X145065004Y-75216412D01*
X145022949Y-75196980D01*
X144957479Y-75166728D01*
X144957474Y-75166726D01*
X144953253Y-75164776D01*
X144948671Y-75163935D01*
X144796174Y-75135946D01*
X144796167Y-75135945D01*
X144791598Y-75135107D01*
X144786961Y-75135431D01*
X144786958Y-75135431D01*
X144632289Y-75146246D01*
X144632287Y-75146246D01*
X144627644Y-75146571D01*
X144623226Y-75148040D01*
X144623224Y-75148041D01*
X144476108Y-75196980D01*
X144476105Y-75196981D01*
X144471693Y-75198449D01*
X144467781Y-75200969D01*
X144467781Y-75200970D01*
X144337453Y-75284960D01*
X144337448Y-75284963D01*
X144333541Y-75287482D01*
X144330385Y-75290889D01*
X144330379Y-75290895D01*
X144225033Y-75404658D01*
X144225028Y-75404664D01*
X144221872Y-75408073D01*
X144219659Y-75412164D01*
X144219658Y-75412167D01*
X144145914Y-75548553D01*
X144145912Y-75548557D01*
X144143701Y-75552647D01*
X144142577Y-75557154D01*
X144142575Y-75557160D01*
X144105065Y-75707601D01*
X144105064Y-75707606D01*
X144103939Y-75712120D01*
X144103971Y-75716774D01*
X144103971Y-75716779D01*
X144104250Y-75756741D01*
X144092210Y-75797719D01*
X144059532Y-75825218D01*
X144017100Y-75830079D01*
X143979050Y-75810682D01*
X141255074Y-73200000D01*
X143494864Y-73200000D01*
X143513266Y-73304363D01*
X143566252Y-73396138D01*
X143647432Y-73464256D01*
X143747014Y-73500500D01*
X143846509Y-73500500D01*
X143852986Y-73500500D01*
X143952568Y-73464256D01*
X144033748Y-73396138D01*
X144086734Y-73304363D01*
X144105136Y-73200000D01*
X144086734Y-73095637D01*
X144033748Y-73003862D01*
X144028790Y-72999701D01*
X144028786Y-72999697D01*
X144026932Y-72998142D01*
X144007433Y-72972729D01*
X144000500Y-72941456D01*
X144000500Y-70613701D01*
X144006133Y-70585382D01*
X144022174Y-70561375D01*
X144133549Y-70450000D01*
X146244864Y-70450000D01*
X146245988Y-70456375D01*
X146252423Y-70492872D01*
X146263266Y-70554363D01*
X146316252Y-70646138D01*
X146397432Y-70714256D01*
X146497014Y-70750500D01*
X146596509Y-70750500D01*
X146602986Y-70750500D01*
X146702568Y-70714256D01*
X146783748Y-70646138D01*
X146836734Y-70554363D01*
X146855136Y-70450000D01*
X146836734Y-70345637D01*
X146783748Y-70253862D01*
X146702568Y-70185744D01*
X146696483Y-70183529D01*
X146696481Y-70183528D01*
X146609073Y-70151715D01*
X146609070Y-70151714D01*
X146602986Y-70149500D01*
X146497014Y-70149500D01*
X146490930Y-70151714D01*
X146490926Y-70151715D01*
X146403518Y-70183528D01*
X146403513Y-70183530D01*
X146397432Y-70185744D01*
X146392472Y-70189905D01*
X146392470Y-70189907D01*
X146321210Y-70249701D01*
X146321207Y-70249703D01*
X146316252Y-70253862D01*
X146313017Y-70259463D01*
X146313016Y-70259466D01*
X146266502Y-70340031D01*
X146266500Y-70340033D01*
X146263266Y-70345637D01*
X146262142Y-70352010D01*
X146262142Y-70352011D01*
X146256539Y-70383790D01*
X146244864Y-70450000D01*
X144133549Y-70450000D01*
X144983550Y-69600000D01*
X145694864Y-69600000D01*
X145695988Y-69606375D01*
X145697808Y-69616694D01*
X145713266Y-69704363D01*
X145766252Y-69796138D01*
X145847432Y-69864256D01*
X145947014Y-69900500D01*
X146046509Y-69900500D01*
X146052986Y-69900500D01*
X146152568Y-69864256D01*
X146233748Y-69796138D01*
X146286734Y-69704363D01*
X146287503Y-69700000D01*
X146794864Y-69700000D01*
X146813266Y-69804363D01*
X146866252Y-69896138D01*
X146947432Y-69964256D01*
X147047014Y-70000500D01*
X147146509Y-70000500D01*
X147152986Y-70000500D01*
X147252568Y-69964256D01*
X147333748Y-69896138D01*
X147386734Y-69804363D01*
X147405136Y-69700000D01*
X147386734Y-69595637D01*
X147333748Y-69503862D01*
X147252568Y-69435744D01*
X147246483Y-69433529D01*
X147246481Y-69433528D01*
X147159073Y-69401715D01*
X147159070Y-69401714D01*
X147152986Y-69399500D01*
X147047014Y-69399500D01*
X147040930Y-69401714D01*
X147040926Y-69401715D01*
X146953518Y-69433528D01*
X146953513Y-69433530D01*
X146947432Y-69435744D01*
X146942472Y-69439905D01*
X146942470Y-69439907D01*
X146871210Y-69499701D01*
X146871207Y-69499703D01*
X146866252Y-69503862D01*
X146863017Y-69509463D01*
X146863016Y-69509466D01*
X146816502Y-69590031D01*
X146816500Y-69590033D01*
X146813266Y-69595637D01*
X146812142Y-69602010D01*
X146812142Y-69602011D01*
X146810001Y-69614153D01*
X146794864Y-69700000D01*
X146287503Y-69700000D01*
X146305136Y-69600000D01*
X146286734Y-69495637D01*
X146233748Y-69403862D01*
X146152568Y-69335744D01*
X146146483Y-69333529D01*
X146146481Y-69333528D01*
X146059073Y-69301715D01*
X146059070Y-69301714D01*
X146052986Y-69299500D01*
X145947014Y-69299500D01*
X145940930Y-69301714D01*
X145940926Y-69301715D01*
X145853518Y-69333528D01*
X145853513Y-69333530D01*
X145847432Y-69335744D01*
X145842472Y-69339905D01*
X145842470Y-69339907D01*
X145771210Y-69399701D01*
X145771207Y-69399703D01*
X145766252Y-69403862D01*
X145763017Y-69409463D01*
X145763016Y-69409466D01*
X145716502Y-69490031D01*
X145716500Y-69490033D01*
X145713266Y-69495637D01*
X145712142Y-69502010D01*
X145712142Y-69502011D01*
X145708916Y-69520306D01*
X145694864Y-69600000D01*
X144983550Y-69600000D01*
X145911376Y-68672174D01*
X145935383Y-68656133D01*
X145963702Y-68650500D01*
X147594517Y-68650500D01*
X147642082Y-68667812D01*
X147697432Y-68714256D01*
X147797014Y-68750500D01*
X147896509Y-68750500D01*
X147902986Y-68750500D01*
X148002568Y-68714256D01*
X148083748Y-68646138D01*
X148136734Y-68554363D01*
X148155136Y-68450000D01*
X148136734Y-68345637D01*
X148083748Y-68253862D01*
X148002568Y-68185744D01*
X147996483Y-68183529D01*
X147996481Y-68183528D01*
X147909073Y-68151715D01*
X147909070Y-68151714D01*
X147902986Y-68149500D01*
X147797014Y-68149500D01*
X147790930Y-68151714D01*
X147790926Y-68151715D01*
X147703518Y-68183528D01*
X147703513Y-68183530D01*
X147697432Y-68185744D01*
X147692472Y-68189905D01*
X147692470Y-68189907D01*
X147642083Y-68232187D01*
X147594517Y-68249500D01*
X145894885Y-68249500D01*
X145886598Y-68249035D01*
X145880897Y-68248392D01*
X145873026Y-68245638D01*
X145864740Y-68246571D01*
X145864738Y-68246571D01*
X145842872Y-68249035D01*
X145834588Y-68249500D01*
X145827410Y-68249500D01*
X145823371Y-68250421D01*
X145823358Y-68250423D01*
X145820403Y-68251098D01*
X145812232Y-68252486D01*
X145790358Y-68254950D01*
X145790354Y-68254951D01*
X145782076Y-68255884D01*
X145775023Y-68260315D01*
X145771888Y-68261412D01*
X145768889Y-68262856D01*
X145760769Y-68264710D01*
X145754256Y-68269903D01*
X145754249Y-68269907D01*
X145737034Y-68283636D01*
X145730277Y-68288431D01*
X145727717Y-68290039D01*
X145727711Y-68290043D01*
X145724199Y-68292251D01*
X145721267Y-68295182D01*
X145721259Y-68295189D01*
X145719116Y-68297333D01*
X145712940Y-68302851D01*
X145689212Y-68321776D01*
X145685596Y-68329283D01*
X145682014Y-68333776D01*
X145676485Y-68339964D01*
X143689971Y-70326478D01*
X143683786Y-70332006D01*
X143679285Y-70335594D01*
X143671776Y-70339212D01*
X143655623Y-70359466D01*
X143652852Y-70362941D01*
X143647329Y-70369121D01*
X143645187Y-70371262D01*
X143645180Y-70371270D01*
X143642252Y-70374199D01*
X143640047Y-70377706D01*
X143640040Y-70377716D01*
X143638429Y-70380280D01*
X143633638Y-70387032D01*
X143619906Y-70404252D01*
X143619904Y-70404254D01*
X143614710Y-70410769D01*
X143612856Y-70418889D01*
X143611412Y-70421888D01*
X143610315Y-70425023D01*
X143605884Y-70432076D01*
X143604951Y-70440354D01*
X143604950Y-70440358D01*
X143602486Y-70462232D01*
X143601098Y-70470403D01*
X143600423Y-70473358D01*
X143600421Y-70473371D01*
X143599500Y-70477410D01*
X143599500Y-70481562D01*
X143599500Y-70484588D01*
X143599035Y-70492872D01*
X143596571Y-70514738D01*
X143596571Y-70514740D01*
X143595638Y-70523026D01*
X143598392Y-70530897D01*
X143599035Y-70536598D01*
X143599500Y-70544885D01*
X143599500Y-72941456D01*
X143592567Y-72972729D01*
X143573068Y-72998142D01*
X143571213Y-72999697D01*
X143571206Y-72999704D01*
X143566252Y-73003862D01*
X143563016Y-73009465D01*
X143563014Y-73009469D01*
X143516502Y-73090031D01*
X143516500Y-73090033D01*
X143513266Y-73095637D01*
X143494864Y-73200000D01*
X141255074Y-73200000D01*
X138490073Y-70550000D01*
X140744864Y-70550000D01*
X140763266Y-70654363D01*
X140816252Y-70746138D01*
X140897432Y-70814256D01*
X140997014Y-70850500D01*
X141096509Y-70850500D01*
X141102986Y-70850500D01*
X141202568Y-70814256D01*
X141283748Y-70746138D01*
X141336734Y-70654363D01*
X141355136Y-70550000D01*
X141336734Y-70445637D01*
X141283748Y-70353862D01*
X141202568Y-70285744D01*
X141196483Y-70283529D01*
X141196481Y-70283528D01*
X141109073Y-70251715D01*
X141109070Y-70251714D01*
X141102986Y-70249500D01*
X140997014Y-70249500D01*
X140990930Y-70251714D01*
X140990926Y-70251715D01*
X140903518Y-70283528D01*
X140903513Y-70283530D01*
X140897432Y-70285744D01*
X140892472Y-70289905D01*
X140892470Y-70289907D01*
X140821210Y-70349701D01*
X140821207Y-70349703D01*
X140816252Y-70353862D01*
X140813017Y-70359463D01*
X140813016Y-70359466D01*
X140766502Y-70440031D01*
X140766500Y-70440033D01*
X140763266Y-70445637D01*
X140762142Y-70452010D01*
X140762142Y-70452011D01*
X140757074Y-70480751D01*
X140744864Y-70550000D01*
X138490073Y-70550000D01*
X136625494Y-68762972D01*
X136621314Y-68755302D01*
X136613385Y-68751366D01*
X136298941Y-68450000D01*
X136644864Y-68450000D01*
X136663266Y-68554363D01*
X136716252Y-68646138D01*
X136721214Y-68650301D01*
X136721274Y-68650373D01*
X136721906Y-68651890D01*
X136724264Y-68652861D01*
X136742083Y-68667813D01*
X136797432Y-68714256D01*
X136897014Y-68750500D01*
X136996509Y-68750500D01*
X137002986Y-68750500D01*
X137102568Y-68714256D01*
X137183748Y-68646138D01*
X137236734Y-68554363D01*
X137255136Y-68450000D01*
X137236734Y-68345637D01*
X137183748Y-68253862D01*
X137102568Y-68185744D01*
X137096483Y-68183529D01*
X137096481Y-68183528D01*
X137009073Y-68151715D01*
X137009070Y-68151714D01*
X137002986Y-68149500D01*
X136897014Y-68149500D01*
X136890930Y-68151714D01*
X136890926Y-68151715D01*
X136803518Y-68183528D01*
X136803513Y-68183530D01*
X136797432Y-68185744D01*
X136792472Y-68189905D01*
X136792470Y-68189907D01*
X136721210Y-68249701D01*
X136721207Y-68249703D01*
X136716252Y-68253862D01*
X136713017Y-68259463D01*
X136713016Y-68259466D01*
X136666502Y-68340031D01*
X136666500Y-68340033D01*
X136663266Y-68345637D01*
X136662142Y-68352010D01*
X136662142Y-68352011D01*
X136660483Y-68361418D01*
X136644864Y-68450000D01*
X136298941Y-68450000D01*
X135923282Y-68089966D01*
X135906422Y-68065584D01*
X135900485Y-68036541D01*
X135900485Y-66574508D01*
X135910399Y-66537508D01*
X135937485Y-66510422D01*
X135974485Y-66500508D01*
X137218023Y-66500508D01*
X137232459Y-66501929D01*
X137249985Y-66505416D01*
X137347725Y-66485974D01*
X137430586Y-66430609D01*
X137485951Y-66347748D01*
X137500485Y-66274682D01*
X137505393Y-66250008D01*
X137501906Y-66232482D01*
X137500485Y-66218046D01*
X137500485Y-62181962D01*
X137501907Y-62167525D01*
X137503971Y-62157149D01*
X137505393Y-62150000D01*
X137485951Y-62052260D01*
X137430586Y-61969399D01*
X137347725Y-61914034D01*
X137340579Y-61912612D01*
X137340578Y-61912612D01*
X137274659Y-61899500D01*
X137257134Y-61896014D01*
X137249985Y-61894592D01*
X137242836Y-61896014D01*
X137232460Y-61898078D01*
X137218023Y-61899500D01*
X135089792Y-61899500D01*
X135048680Y-61887029D01*
X135021425Y-61853818D01*
X135017214Y-61811063D01*
X135037467Y-61773174D01*
X135069804Y-61755889D01*
X135069646Y-61755507D01*
X135073527Y-61753899D01*
X135075356Y-61752922D01*
X135076378Y-61752718D01*
X135089586Y-61747247D01*
X135127083Y-61722193D01*
X135137193Y-61712083D01*
X135162248Y-61674585D01*
X135165732Y-61666175D01*
X135165529Y-61662049D01*
X135161264Y-61654934D01*
X134914387Y-61408057D01*
X134907499Y-61404081D01*
X134900612Y-61408057D01*
X134706359Y-61602309D01*
X134672013Y-61621766D01*
X134632550Y-61620796D01*
X134599201Y-61599677D01*
X134592409Y-61592183D01*
X134559585Y-61570251D01*
X134546380Y-61564781D01*
X134513344Y-61558210D01*
X134506135Y-61557500D01*
X134391815Y-61557500D01*
X134385081Y-61558839D01*
X134379373Y-61562653D01*
X134064202Y-61877826D01*
X134040195Y-61893867D01*
X134011876Y-61899500D01*
X133938124Y-61899500D01*
X133909805Y-61893867D01*
X133885798Y-61877826D01*
X133570626Y-61562654D01*
X133565789Y-61559422D01*
X133874168Y-61559422D01*
X133877288Y-61565260D01*
X133968111Y-61656083D01*
X133975000Y-61660060D01*
X133981887Y-61656084D01*
X134072707Y-61565263D01*
X134075829Y-61559422D01*
X134069493Y-61557500D01*
X133880506Y-61557500D01*
X133874168Y-61559422D01*
X133565789Y-61559422D01*
X133564916Y-61558839D01*
X133558183Y-61557500D01*
X133443856Y-61557500D01*
X133436662Y-61558209D01*
X133403622Y-61564781D01*
X133390413Y-61570252D01*
X133357587Y-61592185D01*
X133350793Y-61599681D01*
X133317444Y-61620797D01*
X133277983Y-61621765D01*
X133243639Y-61602309D01*
X132947159Y-61305829D01*
X132931118Y-61281822D01*
X132925485Y-61253503D01*
X132925485Y-61235000D01*
X133211581Y-61235000D01*
X133215557Y-61241887D01*
X133302238Y-61328568D01*
X133308076Y-61331688D01*
X133309999Y-61325351D01*
X134640000Y-61325351D01*
X134641922Y-61331687D01*
X134647763Y-61328565D01*
X134734442Y-61241887D01*
X134738418Y-61235000D01*
X134734441Y-61228111D01*
X134647760Y-61141430D01*
X134641922Y-61138310D01*
X134640000Y-61144648D01*
X134640000Y-61325351D01*
X133309999Y-61325351D01*
X133309999Y-61144648D01*
X133308076Y-61138310D01*
X133302238Y-61141430D01*
X133215558Y-61228111D01*
X133211581Y-61235000D01*
X132925485Y-61235000D01*
X132925485Y-61216497D01*
X132931118Y-61188178D01*
X132947159Y-61164171D01*
X133042500Y-61068830D01*
X133296262Y-60815066D01*
X133300529Y-60807948D01*
X133300731Y-60803825D01*
X133297246Y-60795411D01*
X133292020Y-60787589D01*
X133285870Y-60782015D01*
X133277822Y-60780000D01*
X133270873Y-60780000D01*
X133242554Y-60774367D01*
X133218547Y-60758326D01*
X133012547Y-60552326D01*
X132993394Y-60519153D01*
X132993394Y-60480847D01*
X133012547Y-60447674D01*
X133035174Y-60425047D01*
X133068347Y-60405894D01*
X133106653Y-60405894D01*
X133139826Y-60425047D01*
X133372324Y-60657545D01*
X133379709Y-60661492D01*
X133386182Y-60656181D01*
X133387247Y-60654586D01*
X133392719Y-60641378D01*
X133399289Y-60608344D01*
X133399999Y-60601135D01*
X133399999Y-60499239D01*
X133411588Y-60459478D01*
X133442725Y-60432171D01*
X133483658Y-60425871D01*
X133521564Y-60442550D01*
X133547432Y-60464256D01*
X133647014Y-60500500D01*
X133746509Y-60500500D01*
X133752986Y-60500500D01*
X133852568Y-60464256D01*
X133933748Y-60396138D01*
X133986734Y-60304363D01*
X134005136Y-60200000D01*
X133993667Y-60134957D01*
X133997006Y-60096799D01*
X134018977Y-60065421D01*
X134050977Y-60050500D01*
X134052986Y-60050500D01*
X134152568Y-60014256D01*
X134233748Y-59946138D01*
X134286734Y-59854363D01*
X134286735Y-59854354D01*
X134315263Y-59819333D01*
X134362703Y-59808814D01*
X134406437Y-59829987D01*
X134462785Y-59886335D01*
X134486478Y-59910028D01*
X134492006Y-59916214D01*
X134495595Y-59920714D01*
X134499212Y-59928224D01*
X134505727Y-59933420D01*
X134505730Y-59933423D01*
X134522932Y-59947141D01*
X134529120Y-59952670D01*
X134533498Y-59957048D01*
X134551985Y-59987892D01*
X134553750Y-60023809D01*
X134550210Y-60041604D01*
X134550208Y-60041617D01*
X134549500Y-60045180D01*
X134549500Y-60254820D01*
X134550210Y-60258389D01*
X134556810Y-60291573D01*
X134556811Y-60291577D01*
X134558233Y-60298722D01*
X134559798Y-60301065D01*
X134564559Y-60324997D01*
X134559798Y-60348934D01*
X134558233Y-60351278D01*
X134556813Y-60358415D01*
X134556811Y-60358421D01*
X134552168Y-60381767D01*
X134549500Y-60395180D01*
X134549500Y-60604820D01*
X134550210Y-60608389D01*
X134556283Y-60638923D01*
X134558233Y-60648722D01*
X134565948Y-60660268D01*
X134577687Y-60677838D01*
X134591496Y-60698504D01*
X134597556Y-60702553D01*
X134597558Y-60702555D01*
X134620415Y-60717827D01*
X134650117Y-60757873D01*
X134648512Y-60790548D01*
X134648617Y-60790543D01*
X134649470Y-60807947D01*
X134653737Y-60815067D01*
X135167238Y-61328568D01*
X135173076Y-61331688D01*
X135174999Y-61325351D01*
X135174999Y-61202200D01*
X135187470Y-61161088D01*
X135220680Y-61133833D01*
X135263436Y-61129622D01*
X135301325Y-61149874D01*
X135391096Y-61239645D01*
X135409345Y-61269719D01*
X135411646Y-61304821D01*
X135397643Y-61384240D01*
X135394864Y-61400000D01*
X135413266Y-61504363D01*
X135466252Y-61596138D01*
X135547432Y-61664256D01*
X135647014Y-61700500D01*
X135746509Y-61700500D01*
X135752986Y-61700500D01*
X135852568Y-61664256D01*
X135933748Y-61596138D01*
X135986734Y-61504363D01*
X136005136Y-61400000D01*
X136003234Y-61389213D01*
X136009303Y-61344533D01*
X136040178Y-61311670D01*
X136084393Y-61302826D01*
X136098026Y-61304362D01*
X136098206Y-61304298D01*
X136118888Y-61306172D01*
X136145083Y-61320330D01*
X136197432Y-61364256D01*
X136297014Y-61400500D01*
X136396509Y-61400500D01*
X136402986Y-61400500D01*
X136502568Y-61364256D01*
X136583748Y-61296138D01*
X136636734Y-61204363D01*
X136655136Y-61100000D01*
X136653425Y-61090299D01*
X136652647Y-61085885D01*
X136636734Y-60995637D01*
X136583748Y-60903862D01*
X136502568Y-60835744D01*
X136496483Y-60833529D01*
X136496481Y-60833528D01*
X136409073Y-60801715D01*
X136409070Y-60801714D01*
X136402986Y-60799500D01*
X136297014Y-60799500D01*
X136290930Y-60801714D01*
X136290926Y-60801715D01*
X136203516Y-60833529D01*
X136203512Y-60833530D01*
X136197432Y-60835744D01*
X136192474Y-60839903D01*
X136186864Y-60843143D01*
X136186496Y-60842506D01*
X136160691Y-60854999D01*
X136124504Y-60853418D01*
X136093403Y-60834853D01*
X135739397Y-60480847D01*
X135385374Y-60126825D01*
X135365123Y-60088937D01*
X135369334Y-60046181D01*
X135396589Y-60012971D01*
X135437701Y-60000500D01*
X135518312Y-60000500D01*
X135555312Y-60010414D01*
X135582398Y-60037501D01*
X135613014Y-60090531D01*
X135613016Y-60090533D01*
X135616252Y-60096138D01*
X135697432Y-60164256D01*
X135797014Y-60200500D01*
X135896509Y-60200500D01*
X135902986Y-60200500D01*
X136002568Y-60164256D01*
X136083748Y-60096138D01*
X136136734Y-60004363D01*
X136147137Y-59945363D01*
X136164377Y-59909422D01*
X136197761Y-59887639D01*
X136237602Y-59886335D01*
X136272338Y-59905887D01*
X137026342Y-60659892D01*
X137777826Y-61411376D01*
X137793867Y-61435383D01*
X137799500Y-61463702D01*
X137799500Y-65455115D01*
X137799035Y-65463402D01*
X137798392Y-65469102D01*
X137795638Y-65476974D01*
X137796571Y-65485258D01*
X137796571Y-65485261D01*
X137799035Y-65507128D01*
X137799500Y-65515412D01*
X137799500Y-65522590D01*
X137800425Y-65526642D01*
X137801097Y-65529588D01*
X137802485Y-65537760D01*
X137804950Y-65559640D01*
X137804950Y-65559642D01*
X137805884Y-65567924D01*
X137810318Y-65574981D01*
X137811415Y-65578115D01*
X137812855Y-65581105D01*
X137814710Y-65589231D01*
X137819906Y-65595747D01*
X137819907Y-65595748D01*
X137833634Y-65612961D01*
X137838432Y-65619723D01*
X137842252Y-65625801D01*
X137845191Y-65628739D01*
X137845191Y-65628740D01*
X137847324Y-65630873D01*
X137852853Y-65637060D01*
X137871776Y-65660788D01*
X137879288Y-65664405D01*
X137883783Y-65667990D01*
X137889971Y-65673520D01*
X138226478Y-66010028D01*
X138232006Y-66016214D01*
X138235595Y-66020714D01*
X138239212Y-66028224D01*
X138245727Y-66033420D01*
X138245730Y-66033423D01*
X138262932Y-66047141D01*
X138269119Y-66052669D01*
X138274198Y-66057748D01*
X138280273Y-66061564D01*
X138287043Y-66066368D01*
X138310769Y-66085290D01*
X138318900Y-66087145D01*
X138321882Y-66088581D01*
X138325013Y-66089676D01*
X138332076Y-66094115D01*
X138340364Y-66095048D01*
X138344486Y-66096491D01*
X138373689Y-66115364D01*
X138391048Y-66145491D01*
X138392531Y-66150543D01*
X138392533Y-66150550D01*
X138393275Y-66153075D01*
X138411418Y-66192804D01*
X138412847Y-66195028D01*
X138412850Y-66195033D01*
X138487718Y-66311530D01*
X138489150Y-66313758D01*
X138503451Y-66330262D01*
X138509959Y-66337773D01*
X138517753Y-66346767D01*
X138626414Y-66440921D01*
X138663155Y-66464533D01*
X138793940Y-66524261D01*
X138835847Y-66536566D01*
X138978162Y-66557028D01*
X139019189Y-66557028D01*
X139021838Y-66557028D01*
X139041499Y-66554201D01*
X139052031Y-66553448D01*
X139447969Y-66553448D01*
X139458500Y-66554201D01*
X139478162Y-66557028D01*
X139519201Y-66557028D01*
X139521838Y-66557028D01*
X139524448Y-66556652D01*
X139526178Y-66556529D01*
X139569217Y-66566699D01*
X139598770Y-66599599D01*
X139604281Y-66643479D01*
X139583783Y-66682666D01*
X139138625Y-67127826D01*
X139114618Y-67143867D01*
X139086299Y-67149500D01*
X138555483Y-67149500D01*
X138507917Y-67132187D01*
X138457529Y-67089907D01*
X138452568Y-67085744D01*
X138446483Y-67083529D01*
X138446481Y-67083528D01*
X138359073Y-67051715D01*
X138359070Y-67051714D01*
X138352986Y-67049500D01*
X138247014Y-67049500D01*
X138240930Y-67051714D01*
X138240926Y-67051715D01*
X138153518Y-67083528D01*
X138153513Y-67083530D01*
X138147432Y-67085744D01*
X138142472Y-67089905D01*
X138142470Y-67089907D01*
X138071210Y-67149701D01*
X138071207Y-67149703D01*
X138066252Y-67153862D01*
X138063017Y-67159463D01*
X138063016Y-67159466D01*
X138016502Y-67240031D01*
X138016500Y-67240033D01*
X138013266Y-67245637D01*
X138012142Y-67252010D01*
X138012142Y-67252011D01*
X137995988Y-67343625D01*
X137994864Y-67350000D01*
X138013266Y-67454363D01*
X138066252Y-67546138D01*
X138147432Y-67614256D01*
X138247014Y-67650500D01*
X138346509Y-67650500D01*
X138352986Y-67650500D01*
X138392243Y-67636211D01*
X138433564Y-67633503D01*
X138469874Y-67653423D01*
X139629555Y-68813104D01*
X139647442Y-68842060D01*
X139650476Y-68875959D01*
X139643349Y-68925536D01*
X139643349Y-68925541D01*
X139642972Y-68928162D01*
X139642972Y-68971838D01*
X139643347Y-68974448D01*
X139643348Y-68974458D01*
X139645799Y-68991500D01*
X139646552Y-69002031D01*
X139646552Y-69397969D01*
X139645799Y-69408500D01*
X139643348Y-69425541D01*
X139643347Y-69425552D01*
X139642972Y-69428162D01*
X139642972Y-69471838D01*
X139643347Y-69474448D01*
X139643348Y-69474458D01*
X139663057Y-69611536D01*
X139663059Y-69611545D01*
X139663434Y-69614153D01*
X139675739Y-69656060D01*
X139676831Y-69658451D01*
X139676834Y-69658459D01*
X139697798Y-69704363D01*
X139735467Y-69786845D01*
X139736889Y-69789058D01*
X139736892Y-69789063D01*
X139746725Y-69804363D01*
X139759079Y-69823586D01*
X139853233Y-69932247D01*
X139886242Y-69960850D01*
X140007196Y-70038582D01*
X140046925Y-70056725D01*
X140184880Y-70097232D01*
X140228111Y-70103448D01*
X140796360Y-70103448D01*
X140800000Y-70103448D01*
X140858722Y-70091767D01*
X140908504Y-70058504D01*
X140941767Y-70008722D01*
X140953448Y-69950000D01*
X140953448Y-69502031D01*
X140954201Y-69491500D01*
X140956651Y-69474458D01*
X140957028Y-69471838D01*
X140957028Y-69428162D01*
X140954201Y-69408500D01*
X140953448Y-69397969D01*
X140953448Y-69002031D01*
X140954201Y-68991500D01*
X140956651Y-68974458D01*
X140957028Y-68971838D01*
X140957028Y-68928162D01*
X140954201Y-68908500D01*
X140953448Y-68897969D01*
X140953448Y-68453640D01*
X140953448Y-68450000D01*
X140941767Y-68391278D01*
X140908504Y-68341496D01*
X140858722Y-68308233D01*
X140851576Y-68306811D01*
X140851575Y-68306811D01*
X140803569Y-68297262D01*
X140800000Y-68296552D01*
X140228111Y-68296552D01*
X140225499Y-68296927D01*
X140225492Y-68296928D01*
X140187490Y-68302392D01*
X140187480Y-68302394D01*
X140184880Y-68302768D01*
X140182361Y-68303507D01*
X140182350Y-68303510D01*
X140049453Y-68342532D01*
X140049443Y-68342535D01*
X140046925Y-68343275D01*
X140044529Y-68344368D01*
X140044524Y-68344371D01*
X140009606Y-68360317D01*
X140009601Y-68360319D01*
X140007196Y-68361418D01*
X140004977Y-68362843D01*
X140004966Y-68362850D01*
X139897725Y-68431770D01*
X139849808Y-68443093D01*
X139805392Y-68421843D01*
X139060375Y-67676826D01*
X139040123Y-67638937D01*
X139044334Y-67596181D01*
X139071589Y-67562971D01*
X139112701Y-67550500D01*
X139155115Y-67550500D01*
X139163402Y-67550965D01*
X139169101Y-67551607D01*
X139176974Y-67554362D01*
X139207128Y-67550964D01*
X139215412Y-67550500D01*
X139218429Y-67550500D01*
X139222590Y-67550500D01*
X139229589Y-67548902D01*
X139237764Y-67547513D01*
X139267924Y-67544116D01*
X139274988Y-67539676D01*
X139278116Y-67538582D01*
X139281099Y-67537145D01*
X139289231Y-67535290D01*
X139312978Y-67516351D01*
X139319718Y-67511570D01*
X139325801Y-67507748D01*
X139330875Y-67502672D01*
X139337056Y-67497149D01*
X139360788Y-67478224D01*
X139364406Y-67470708D01*
X139367986Y-67466220D01*
X139373509Y-67460038D01*
X139933547Y-66900000D01*
X142994864Y-66900000D01*
X142995988Y-66906375D01*
X142998039Y-66918009D01*
X143013266Y-67004363D01*
X143066252Y-67096138D01*
X143147432Y-67164256D01*
X143247014Y-67200500D01*
X143346509Y-67200500D01*
X143352986Y-67200500D01*
X143452568Y-67164256D01*
X143533748Y-67096138D01*
X143586734Y-67004363D01*
X143605136Y-66900000D01*
X143598933Y-66864820D01*
X145049500Y-66864820D01*
X145058233Y-66908722D01*
X145091496Y-66958504D01*
X145141278Y-66991767D01*
X145185180Y-67000500D01*
X146211180Y-67000500D01*
X146214820Y-67000500D01*
X146258722Y-66991767D01*
X146283888Y-66974951D01*
X146325000Y-66962480D01*
X146366111Y-66974951D01*
X146391278Y-66991767D01*
X146450000Y-67003448D01*
X147069242Y-67003448D01*
X147071889Y-67003448D01*
X147115120Y-66997232D01*
X147253075Y-66956725D01*
X147292804Y-66938582D01*
X147413758Y-66860850D01*
X147446767Y-66832247D01*
X147527255Y-66739357D01*
X147564594Y-66716189D01*
X147608487Y-66718279D01*
X147697014Y-66750500D01*
X147796509Y-66750500D01*
X147802986Y-66750500D01*
X147902568Y-66714256D01*
X147983748Y-66646138D01*
X148036734Y-66554363D01*
X148055136Y-66450000D01*
X148036734Y-66345637D01*
X147983748Y-66253862D01*
X147902568Y-66185744D01*
X147896483Y-66183529D01*
X147896481Y-66183528D01*
X147809073Y-66151715D01*
X147809070Y-66151714D01*
X147802986Y-66149500D01*
X147727448Y-66149500D01*
X147690448Y-66139586D01*
X147663362Y-66112500D01*
X147653448Y-66075500D01*
X147653448Y-65902031D01*
X147654201Y-65891500D01*
X147656651Y-65874458D01*
X147657028Y-65871838D01*
X147657028Y-65828162D01*
X147636566Y-65685847D01*
X147624261Y-65643940D01*
X147564533Y-65513155D01*
X147540921Y-65476414D01*
X147446767Y-65367753D01*
X147413758Y-65339150D01*
X147407581Y-65335180D01*
X147295033Y-65262850D01*
X147295028Y-65262847D01*
X147292804Y-65261418D01*
X147253075Y-65243275D01*
X147250551Y-65242533D01*
X147250546Y-65242532D01*
X147117649Y-65203510D01*
X147117641Y-65203508D01*
X147115120Y-65202768D01*
X147112516Y-65202393D01*
X147112509Y-65202392D01*
X147074507Y-65196928D01*
X147074501Y-65196927D01*
X147071889Y-65196552D01*
X146450000Y-65196552D01*
X146446431Y-65197261D01*
X146446430Y-65197262D01*
X146398424Y-65206811D01*
X146398421Y-65206811D01*
X146391278Y-65208233D01*
X146385220Y-65212280D01*
X146385219Y-65212281D01*
X146366112Y-65225048D01*
X146325000Y-65237519D01*
X146283888Y-65225048D01*
X146258722Y-65208233D01*
X146259418Y-65207190D01*
X146229853Y-65181263D01*
X146220571Y-65134604D01*
X146241611Y-65091937D01*
X146511375Y-64822173D01*
X146535382Y-64806133D01*
X146563701Y-64800500D01*
X149494517Y-64800500D01*
X149542082Y-64817812D01*
X149597432Y-64864256D01*
X149697014Y-64900500D01*
X149796509Y-64900500D01*
X149802986Y-64900500D01*
X149902568Y-64864256D01*
X149983748Y-64796138D01*
X150036734Y-64704363D01*
X150055136Y-64600000D01*
X150036734Y-64495637D01*
X149983748Y-64403862D01*
X149902568Y-64335744D01*
X149896483Y-64333529D01*
X149896481Y-64333528D01*
X149809073Y-64301715D01*
X149809070Y-64301714D01*
X149802986Y-64299500D01*
X149697014Y-64299500D01*
X149690930Y-64301714D01*
X149690926Y-64301715D01*
X149603518Y-64333528D01*
X149603513Y-64333530D01*
X149597432Y-64335744D01*
X149592472Y-64339905D01*
X149592470Y-64339907D01*
X149542083Y-64382187D01*
X149494517Y-64399500D01*
X146494885Y-64399500D01*
X146486598Y-64399035D01*
X146480897Y-64398392D01*
X146473026Y-64395638D01*
X146464740Y-64396571D01*
X146464738Y-64396571D01*
X146442872Y-64399035D01*
X146434588Y-64399500D01*
X146427410Y-64399500D01*
X146423371Y-64400421D01*
X146423358Y-64400423D01*
X146420403Y-64401098D01*
X146412232Y-64402486D01*
X146390358Y-64404950D01*
X146390354Y-64404951D01*
X146382076Y-64405884D01*
X146375023Y-64410315D01*
X146371888Y-64411412D01*
X146368889Y-64412856D01*
X146360769Y-64414710D01*
X146354254Y-64419904D01*
X146354252Y-64419906D01*
X146337032Y-64433638D01*
X146330280Y-64438429D01*
X146327716Y-64440040D01*
X146327706Y-64440047D01*
X146324199Y-64442252D01*
X146321270Y-64445180D01*
X146321262Y-64445187D01*
X146319121Y-64447329D01*
X146312945Y-64452847D01*
X146289212Y-64471776D01*
X146285594Y-64479285D01*
X146282006Y-64483786D01*
X146276478Y-64489971D01*
X145589971Y-65176478D01*
X145583806Y-65181990D01*
X145582117Y-65183338D01*
X145535956Y-65199500D01*
X145185180Y-65199500D01*
X145181611Y-65200209D01*
X145181610Y-65200210D01*
X145148424Y-65206811D01*
X145148421Y-65206811D01*
X145141278Y-65208233D01*
X145135220Y-65212280D01*
X145135219Y-65212281D01*
X145097556Y-65237446D01*
X145097553Y-65237448D01*
X145091496Y-65241496D01*
X145087448Y-65247553D01*
X145087446Y-65247556D01*
X145073016Y-65269153D01*
X145058233Y-65291278D01*
X145056811Y-65298421D01*
X145056811Y-65298424D01*
X145050210Y-65331610D01*
X145049500Y-65335180D01*
X145049500Y-66864820D01*
X143598933Y-66864820D01*
X143586734Y-66795637D01*
X143533748Y-66703862D01*
X143452568Y-66635744D01*
X143446483Y-66633529D01*
X143446481Y-66633528D01*
X143359073Y-66601715D01*
X143359070Y-66601714D01*
X143352986Y-66599500D01*
X143247014Y-66599500D01*
X143240930Y-66601714D01*
X143240926Y-66601715D01*
X143153518Y-66633528D01*
X143153513Y-66633530D01*
X143147432Y-66635744D01*
X143142472Y-66639905D01*
X143142470Y-66639907D01*
X143071210Y-66699701D01*
X143071207Y-66699703D01*
X143066252Y-66703862D01*
X143063017Y-66709463D01*
X143063016Y-66709466D01*
X143016502Y-66790031D01*
X143016500Y-66790033D01*
X143013266Y-66795637D01*
X142994864Y-66900000D01*
X139933547Y-66900000D01*
X140360045Y-66473502D01*
X140366229Y-66467977D01*
X140370705Y-66464407D01*
X140378224Y-66460788D01*
X140397153Y-66437050D01*
X140402668Y-66430880D01*
X140407748Y-66425802D01*
X140411570Y-66419717D01*
X140416358Y-66412967D01*
X140435290Y-66389231D01*
X140437146Y-66381094D01*
X140438578Y-66378121D01*
X140439672Y-66374992D01*
X140444115Y-66367924D01*
X140447512Y-66337762D01*
X140448901Y-66329593D01*
X140450500Y-66322590D01*
X140450500Y-66315410D01*
X140450965Y-66307125D01*
X140453428Y-66285260D01*
X140454362Y-66276974D01*
X140451607Y-66269101D01*
X140450965Y-66263402D01*
X140450500Y-66255115D01*
X140450500Y-64269159D01*
X140450965Y-64260872D01*
X140451607Y-64255165D01*
X140454363Y-64247292D01*
X140450965Y-64217132D01*
X140450500Y-64208847D01*
X140450500Y-64205831D01*
X140450500Y-64201675D01*
X140448904Y-64194681D01*
X140447513Y-64186496D01*
X140444116Y-64156341D01*
X140439678Y-64149278D01*
X140438588Y-64146163D01*
X140437146Y-64143169D01*
X140435290Y-64135034D01*
X140430087Y-64128510D01*
X140430087Y-64128509D01*
X140416365Y-64111301D01*
X140411567Y-64104540D01*
X140407749Y-64098464D01*
X140402670Y-64093385D01*
X140397141Y-64087197D01*
X140383423Y-64069995D01*
X140383420Y-64069992D01*
X140378224Y-64063477D01*
X140370714Y-64059860D01*
X140366214Y-64056271D01*
X140360028Y-64050743D01*
X140043888Y-63734603D01*
X140024209Y-63699342D01*
X140025970Y-63659000D01*
X140048645Y-63625592D01*
X140083748Y-63596138D01*
X140136734Y-63504363D01*
X140155136Y-63400000D01*
X140136734Y-63295637D01*
X140083748Y-63203862D01*
X140002568Y-63135744D01*
X139996483Y-63133529D01*
X139996481Y-63133528D01*
X139909073Y-63101715D01*
X139909070Y-63101714D01*
X139902986Y-63099500D01*
X139797014Y-63099500D01*
X139790930Y-63101714D01*
X139790926Y-63101715D01*
X139699809Y-63134879D01*
X139653276Y-63136233D01*
X139615143Y-63109532D01*
X139600500Y-63065342D01*
X139600500Y-61000000D01*
X139894864Y-61000000D01*
X139913266Y-61104363D01*
X139966252Y-61196138D01*
X140047432Y-61264256D01*
X140147014Y-61300500D01*
X140246509Y-61300500D01*
X140252986Y-61300500D01*
X140352568Y-61264256D01*
X140433748Y-61196138D01*
X140486734Y-61104363D01*
X140505136Y-61000000D01*
X140506008Y-61000153D01*
X140509645Y-60981871D01*
X140525685Y-60957864D01*
X140530853Y-60952695D01*
X140563679Y-60919868D01*
X140608092Y-60898619D01*
X140656010Y-60909942D01*
X140660929Y-60913103D01*
X140660934Y-60913106D01*
X140663155Y-60914533D01*
X140793940Y-60974261D01*
X140835847Y-60986566D01*
X140884943Y-60993625D01*
X140941473Y-61001753D01*
X140979402Y-61019075D01*
X141001944Y-61054152D01*
X141001944Y-61095848D01*
X140979402Y-61130925D01*
X140941473Y-61148247D01*
X140838463Y-61163057D01*
X140838451Y-61163059D01*
X140835847Y-61163434D01*
X140833310Y-61164178D01*
X140833305Y-61164180D01*
X140796476Y-61174994D01*
X140796471Y-61174995D01*
X140793940Y-61175739D01*
X140791552Y-61176829D01*
X140791540Y-61176834D01*
X140665551Y-61234372D01*
X140665542Y-61234376D01*
X140663155Y-61235467D01*
X140660947Y-61236885D01*
X140660936Y-61236892D01*
X140628633Y-61257652D01*
X140628624Y-61257658D01*
X140626414Y-61259079D01*
X140624426Y-61260801D01*
X140624420Y-61260806D01*
X140519752Y-61351500D01*
X140519745Y-61351506D01*
X140517753Y-61353233D01*
X140516026Y-61355225D01*
X140516019Y-61355233D01*
X140490884Y-61384240D01*
X140490879Y-61384246D01*
X140489150Y-61386242D01*
X140487723Y-61388461D01*
X140487718Y-61388469D01*
X140412850Y-61504966D01*
X140412843Y-61504977D01*
X140411418Y-61507196D01*
X140410319Y-61509601D01*
X140410317Y-61509606D01*
X140408968Y-61512562D01*
X140393275Y-61546925D01*
X140392535Y-61549443D01*
X140392532Y-61549453D01*
X140353510Y-61682350D01*
X140353507Y-61682361D01*
X140352768Y-61684880D01*
X140352394Y-61687480D01*
X140352392Y-61687490D01*
X140346928Y-61725492D01*
X140346927Y-61725499D01*
X140346552Y-61728111D01*
X140346552Y-62300000D01*
X140358233Y-62358722D01*
X140367292Y-62372280D01*
X140391496Y-62408504D01*
X140389644Y-62409741D01*
X140401830Y-62430847D01*
X140401830Y-62469153D01*
X140389644Y-62490258D01*
X140391496Y-62491496D01*
X140363341Y-62533634D01*
X140358233Y-62541278D01*
X140356811Y-62548421D01*
X140356811Y-62548424D01*
X140352166Y-62571776D01*
X140346552Y-62600000D01*
X140346552Y-63171889D01*
X140346927Y-63174501D01*
X140346928Y-63174507D01*
X140352392Y-63212509D01*
X140352393Y-63212516D01*
X140352768Y-63215120D01*
X140353508Y-63217641D01*
X140353510Y-63217649D01*
X140389495Y-63340202D01*
X140393275Y-63353075D01*
X140411418Y-63392804D01*
X140412847Y-63395028D01*
X140412850Y-63395033D01*
X140483112Y-63504363D01*
X140489150Y-63513758D01*
X140517753Y-63546767D01*
X140626414Y-63640921D01*
X140663155Y-63664533D01*
X140793940Y-63724261D01*
X140835847Y-63736566D01*
X140978162Y-63757028D01*
X141019189Y-63757028D01*
X141021838Y-63757028D01*
X141041499Y-63754201D01*
X141052031Y-63753448D01*
X141447969Y-63753448D01*
X141458500Y-63754201D01*
X141478162Y-63757028D01*
X141519189Y-63757028D01*
X141521838Y-63757028D01*
X141664153Y-63736566D01*
X141706060Y-63724261D01*
X141836845Y-63664533D01*
X141873586Y-63640921D01*
X141982247Y-63546767D01*
X142010850Y-63513758D01*
X142019692Y-63500000D01*
X147444864Y-63500000D01*
X147463266Y-63604363D01*
X147516252Y-63696138D01*
X147597432Y-63764256D01*
X147697014Y-63800500D01*
X147796509Y-63800500D01*
X147802986Y-63800500D01*
X147902568Y-63764256D01*
X147983748Y-63696138D01*
X148036734Y-63604363D01*
X148055136Y-63500000D01*
X148036734Y-63395637D01*
X147983748Y-63303862D01*
X147902568Y-63235744D01*
X147896483Y-63233529D01*
X147896481Y-63233528D01*
X147809073Y-63201715D01*
X147809070Y-63201714D01*
X147802986Y-63199500D01*
X147697014Y-63199500D01*
X147690930Y-63201714D01*
X147690926Y-63201715D01*
X147603518Y-63233528D01*
X147603513Y-63233530D01*
X147597432Y-63235744D01*
X147592472Y-63239905D01*
X147592470Y-63239907D01*
X147521210Y-63299701D01*
X147521207Y-63299703D01*
X147516252Y-63303862D01*
X147513017Y-63309463D01*
X147513016Y-63309466D01*
X147466502Y-63390031D01*
X147466500Y-63390033D01*
X147463266Y-63395637D01*
X147462142Y-63402010D01*
X147462142Y-63402011D01*
X147448100Y-63481649D01*
X147444864Y-63500000D01*
X142019692Y-63500000D01*
X142088582Y-63392804D01*
X142106725Y-63353075D01*
X142147232Y-63215120D01*
X142153448Y-63171889D01*
X142153448Y-62600000D01*
X142141767Y-62541278D01*
X142108504Y-62491496D01*
X142108504Y-62491495D01*
X142110355Y-62490258D01*
X142098170Y-62469153D01*
X142098170Y-62430847D01*
X142110355Y-62409741D01*
X142108504Y-62408504D01*
X142113852Y-62400500D01*
X142141767Y-62358722D01*
X142149008Y-62322320D01*
X145099500Y-62322320D01*
X145108233Y-62366222D01*
X145141496Y-62416004D01*
X145191278Y-62449267D01*
X145235180Y-62458000D01*
X145246359Y-62458000D01*
X145288804Y-62471383D01*
X145315896Y-62506691D01*
X145317837Y-62551153D01*
X145293925Y-62588686D01*
X145284697Y-62596430D01*
X145221210Y-62649701D01*
X145221207Y-62649703D01*
X145216252Y-62653862D01*
X145213017Y-62659463D01*
X145213016Y-62659466D01*
X145166502Y-62740031D01*
X145166500Y-62740033D01*
X145163266Y-62745637D01*
X145162142Y-62752010D01*
X145162142Y-62752011D01*
X145150267Y-62819359D01*
X145144864Y-62850000D01*
X145145988Y-62856375D01*
X145150169Y-62880089D01*
X145163266Y-62954363D01*
X145166501Y-62959967D01*
X145166502Y-62959968D01*
X145168993Y-62964283D01*
X145216252Y-63046138D01*
X145297432Y-63114256D01*
X145397014Y-63150500D01*
X145496509Y-63150500D01*
X145502986Y-63150500D01*
X145602568Y-63114256D01*
X145683748Y-63046138D01*
X145736734Y-62954363D01*
X145755136Y-62850000D01*
X145736734Y-62745637D01*
X145683748Y-62653862D01*
X145606074Y-62588686D01*
X145582163Y-62551153D01*
X145584104Y-62506691D01*
X145611196Y-62471383D01*
X145653641Y-62458000D01*
X145793799Y-62458000D01*
X145822118Y-62463633D01*
X145846125Y-62479674D01*
X146176481Y-62810030D01*
X146182011Y-62816218D01*
X146185593Y-62820710D01*
X146189212Y-62828224D01*
X146195731Y-62833422D01*
X146195732Y-62833424D01*
X146212937Y-62847145D01*
X146219125Y-62852674D01*
X146224199Y-62857748D01*
X146230272Y-62861564D01*
X146237032Y-62866360D01*
X146260769Y-62885290D01*
X146268904Y-62887146D01*
X146271900Y-62888589D01*
X146275014Y-62889678D01*
X146282076Y-62894116D01*
X146312236Y-62897513D01*
X146320405Y-62898900D01*
X146327410Y-62900500D01*
X146334588Y-62900500D01*
X146342871Y-62900964D01*
X146373026Y-62904362D01*
X146380899Y-62901607D01*
X146386598Y-62900965D01*
X146394885Y-62900500D01*
X148886299Y-62900500D01*
X148914618Y-62906133D01*
X148938625Y-62922174D01*
X149474314Y-63457864D01*
X149490355Y-63481871D01*
X149493991Y-63500153D01*
X149494864Y-63500000D01*
X149513266Y-63604363D01*
X149566252Y-63696138D01*
X149647432Y-63764256D01*
X149747014Y-63800500D01*
X149846509Y-63800500D01*
X149852986Y-63800500D01*
X149952568Y-63764256D01*
X150033748Y-63696138D01*
X150086734Y-63604363D01*
X150105136Y-63500000D01*
X150086734Y-63395637D01*
X150033748Y-63303862D01*
X149952568Y-63235744D01*
X149946483Y-63233529D01*
X149946481Y-63233528D01*
X149859073Y-63201715D01*
X149859070Y-63201714D01*
X149852986Y-63199500D01*
X149846509Y-63199500D01*
X149813702Y-63199500D01*
X149785383Y-63193867D01*
X149761376Y-63177826D01*
X149298626Y-62715077D01*
X150768318Y-62715077D01*
X150769252Y-62719630D01*
X150769253Y-62719634D01*
X150800429Y-62871513D01*
X150800430Y-62871518D01*
X150801366Y-62876074D01*
X150803405Y-62880255D01*
X150803407Y-62880260D01*
X150844388Y-62964283D01*
X150873414Y-63023796D01*
X150876429Y-63027339D01*
X150876430Y-63027340D01*
X150950401Y-63114256D01*
X150979935Y-63148958D01*
X151114236Y-63243697D01*
X151267879Y-63302061D01*
X151410914Y-63318104D01*
X151426582Y-63319862D01*
X151426582Y-63319861D01*
X151431210Y-63320381D01*
X152345327Y-63191911D01*
X152464124Y-63159634D01*
X152607030Y-63078453D01*
X152725257Y-62964283D01*
X152811376Y-62824298D01*
X152859977Y-62667293D01*
X152868006Y-62503135D01*
X152834958Y-62342138D01*
X152762910Y-62194416D01*
X152656388Y-62069254D01*
X152632297Y-62052260D01*
X152525892Y-61977199D01*
X152525891Y-61977198D01*
X152522087Y-61974515D01*
X152517736Y-61972862D01*
X152517732Y-61972860D01*
X152372797Y-61917804D01*
X152372792Y-61917803D01*
X152368444Y-61916151D01*
X152363822Y-61915632D01*
X152363816Y-61915631D01*
X152209741Y-61898350D01*
X152205114Y-61897831D01*
X152200511Y-61898477D01*
X152200503Y-61898478D01*
X151293299Y-62025977D01*
X151293291Y-62025978D01*
X151290997Y-62026301D01*
X151288760Y-62026908D01*
X151288749Y-62026911D01*
X151176689Y-62057357D01*
X151176681Y-62057360D01*
X151172199Y-62058578D01*
X151168159Y-62060872D01*
X151168154Y-62060875D01*
X151033338Y-62137461D01*
X151033334Y-62137463D01*
X151029294Y-62139759D01*
X151025951Y-62142987D01*
X151025946Y-62142991D01*
X150914416Y-62250694D01*
X150914412Y-62250698D01*
X150911067Y-62253929D01*
X150908630Y-62257890D01*
X150908627Y-62257894D01*
X150827385Y-62389951D01*
X150827382Y-62389957D01*
X150824948Y-62393914D01*
X150823573Y-62398355D01*
X150823571Y-62398360D01*
X150777722Y-62546471D01*
X150777720Y-62546477D01*
X150776346Y-62550919D01*
X150776119Y-62555558D01*
X150776118Y-62555565D01*
X150770437Y-62671739D01*
X150768318Y-62715077D01*
X149298626Y-62715077D01*
X149173520Y-62589971D01*
X149167990Y-62583783D01*
X149164405Y-62579288D01*
X149160788Y-62571776D01*
X149137060Y-62552853D01*
X149130873Y-62547324D01*
X149128740Y-62545191D01*
X149125801Y-62542252D01*
X149119723Y-62538432D01*
X149112961Y-62533634D01*
X149095748Y-62519907D01*
X149095747Y-62519906D01*
X149089231Y-62514710D01*
X149081105Y-62512855D01*
X149078115Y-62511415D01*
X149074981Y-62510318D01*
X149067924Y-62505884D01*
X149059642Y-62504950D01*
X149059640Y-62504950D01*
X149037760Y-62502485D01*
X149029588Y-62501097D01*
X149022590Y-62499500D01*
X149018432Y-62499500D01*
X149015412Y-62499500D01*
X149007128Y-62499035D01*
X148985261Y-62496571D01*
X148985258Y-62496571D01*
X148976974Y-62495638D01*
X148969102Y-62498392D01*
X148963402Y-62499035D01*
X148955115Y-62499500D01*
X147433904Y-62499500D01*
X147389557Y-62484740D01*
X147362902Y-62446348D01*
X147364570Y-62399640D01*
X147393897Y-62363247D01*
X147433258Y-62337951D01*
X147463758Y-62318350D01*
X147496767Y-62289747D01*
X147590921Y-62181086D01*
X147614533Y-62144345D01*
X147674261Y-62013560D01*
X147686566Y-61971653D01*
X147702048Y-61863968D01*
X147715017Y-61831576D01*
X147741387Y-61808726D01*
X147775296Y-61800500D01*
X149544517Y-61800500D01*
X149592082Y-61817812D01*
X149647432Y-61864256D01*
X149747014Y-61900500D01*
X149846509Y-61900500D01*
X149852986Y-61900500D01*
X149952568Y-61864256D01*
X150033748Y-61796138D01*
X150086734Y-61704363D01*
X150105136Y-61600000D01*
X150086734Y-61495637D01*
X150033748Y-61403862D01*
X149952568Y-61335744D01*
X149946483Y-61333529D01*
X149946481Y-61333528D01*
X149859073Y-61301715D01*
X149859070Y-61301714D01*
X149852986Y-61299500D01*
X149747014Y-61299500D01*
X149740930Y-61301714D01*
X149740926Y-61301715D01*
X149653518Y-61333528D01*
X149653513Y-61333530D01*
X149647432Y-61335744D01*
X149642472Y-61339905D01*
X149642470Y-61339907D01*
X149592083Y-61382187D01*
X149544517Y-61399500D01*
X147781028Y-61399500D01*
X147744028Y-61389586D01*
X147716942Y-61362500D01*
X147707028Y-61325500D01*
X147707028Y-61288311D01*
X147707028Y-61285662D01*
X147686566Y-61143347D01*
X147674261Y-61101440D01*
X147614533Y-60970655D01*
X147590921Y-60933914D01*
X147496767Y-60825253D01*
X147463758Y-60796650D01*
X147461530Y-60795218D01*
X147345033Y-60720350D01*
X147345028Y-60720347D01*
X147342804Y-60718918D01*
X147303075Y-60700775D01*
X147300551Y-60700033D01*
X147300546Y-60700032D01*
X147167649Y-60661010D01*
X147167641Y-60661008D01*
X147165120Y-60660268D01*
X147162516Y-60659893D01*
X147162509Y-60659892D01*
X147124507Y-60654428D01*
X147124501Y-60654427D01*
X147121889Y-60654052D01*
X146500000Y-60654052D01*
X146496431Y-60654761D01*
X146496430Y-60654762D01*
X146448424Y-60664311D01*
X146448421Y-60664311D01*
X146441278Y-60665733D01*
X146435220Y-60669780D01*
X146435219Y-60669781D01*
X146416112Y-60682548D01*
X146375000Y-60695019D01*
X146333888Y-60682548D01*
X146314780Y-60669781D01*
X146308722Y-60665733D01*
X146301576Y-60664311D01*
X146301575Y-60664311D01*
X146268389Y-60657710D01*
X146264820Y-60657000D01*
X145235180Y-60657000D01*
X145231611Y-60657709D01*
X145231610Y-60657710D01*
X145198424Y-60664311D01*
X145198421Y-60664311D01*
X145191278Y-60665733D01*
X145185220Y-60669780D01*
X145185219Y-60669781D01*
X145147556Y-60694946D01*
X145147553Y-60694948D01*
X145141496Y-60698996D01*
X145137448Y-60705053D01*
X145137446Y-60705056D01*
X145114160Y-60739907D01*
X145108233Y-60748778D01*
X145106811Y-60755921D01*
X145106811Y-60755924D01*
X145105696Y-60761530D01*
X145099500Y-60792680D01*
X145099500Y-62322320D01*
X142149008Y-62322320D01*
X142153448Y-62300000D01*
X142153448Y-61728111D01*
X142147232Y-61684880D01*
X142106725Y-61546925D01*
X142088582Y-61507196D01*
X142082664Y-61497988D01*
X142042431Y-61435383D01*
X142010850Y-61386242D01*
X141982247Y-61353233D01*
X141873586Y-61259079D01*
X141846835Y-61241887D01*
X141839063Y-61236892D01*
X141839058Y-61236889D01*
X141836845Y-61235467D01*
X141834451Y-61234373D01*
X141834448Y-61234372D01*
X141708459Y-61176834D01*
X141708451Y-61176831D01*
X141706060Y-61175739D01*
X141703523Y-61174994D01*
X141666694Y-61164180D01*
X141666692Y-61164179D01*
X141664153Y-61163434D01*
X141647836Y-61161088D01*
X141558525Y-61148246D01*
X141520597Y-61130924D01*
X141498054Y-61095847D01*
X141498055Y-61054150D01*
X141520598Y-61019073D01*
X141558522Y-61001753D01*
X141664153Y-60986566D01*
X141706060Y-60974261D01*
X141836845Y-60914533D01*
X141873586Y-60890921D01*
X141982247Y-60796767D01*
X142010850Y-60763758D01*
X142088582Y-60642804D01*
X142106725Y-60603075D01*
X142147232Y-60465120D01*
X142153448Y-60421889D01*
X142153448Y-59850000D01*
X142141767Y-59791278D01*
X142108504Y-59741496D01*
X142099753Y-59735649D01*
X142064780Y-59712281D01*
X142058722Y-59708233D01*
X142051576Y-59706811D01*
X142051575Y-59706811D01*
X142003569Y-59697262D01*
X142000000Y-59696552D01*
X141996360Y-59696552D01*
X141552031Y-59696552D01*
X141541500Y-59695799D01*
X141524458Y-59693348D01*
X141524448Y-59693347D01*
X141521838Y-59692972D01*
X141478162Y-59692972D01*
X141475552Y-59693347D01*
X141475541Y-59693348D01*
X141458500Y-59695799D01*
X141447969Y-59696552D01*
X141052031Y-59696552D01*
X141041500Y-59695799D01*
X141024458Y-59693348D01*
X141024448Y-59693347D01*
X141021838Y-59692972D01*
X140978162Y-59692972D01*
X140975552Y-59693347D01*
X140975541Y-59693348D01*
X140958500Y-59695799D01*
X140947969Y-59696552D01*
X140500000Y-59696552D01*
X140496431Y-59697261D01*
X140496430Y-59697262D01*
X140448424Y-59706811D01*
X140448421Y-59706811D01*
X140441278Y-59708233D01*
X140435220Y-59712280D01*
X140435219Y-59712281D01*
X140397556Y-59737446D01*
X140397553Y-59737448D01*
X140391496Y-59741496D01*
X140387448Y-59747553D01*
X140387446Y-59747556D01*
X140362281Y-59785219D01*
X140358233Y-59791278D01*
X140356811Y-59798421D01*
X140356811Y-59798424D01*
X140347262Y-59846430D01*
X140346552Y-59850000D01*
X140346552Y-60421889D01*
X140346927Y-60424501D01*
X140346928Y-60424507D01*
X140352392Y-60462509D01*
X140352393Y-60462516D01*
X140352768Y-60465120D01*
X140353508Y-60467643D01*
X140353511Y-60467653D01*
X140362769Y-60499183D01*
X140363467Y-60538331D01*
X140344093Y-60572355D01*
X140238626Y-60677825D01*
X140214618Y-60693867D01*
X140186299Y-60699500D01*
X140147014Y-60699500D01*
X140140930Y-60701714D01*
X140140926Y-60701715D01*
X140053518Y-60733528D01*
X140053513Y-60733530D01*
X140047432Y-60735744D01*
X140042472Y-60739905D01*
X140042470Y-60739907D01*
X139971210Y-60799701D01*
X139971207Y-60799703D01*
X139966252Y-60803862D01*
X139963017Y-60809463D01*
X139963016Y-60809466D01*
X139916502Y-60890031D01*
X139916500Y-60890033D01*
X139913266Y-60895637D01*
X139912142Y-60902010D01*
X139912142Y-60902011D01*
X139900038Y-60970655D01*
X139894864Y-61000000D01*
X139600500Y-61000000D01*
X139600500Y-59844462D01*
X139606133Y-59816143D01*
X139622174Y-59792136D01*
X141142136Y-58272174D01*
X141166143Y-58256133D01*
X141194462Y-58250500D01*
X141923799Y-58250500D01*
X141952118Y-58256133D01*
X141976125Y-58272174D01*
X142411814Y-58707864D01*
X142427855Y-58731871D01*
X142431491Y-58750153D01*
X142432364Y-58750000D01*
X142450766Y-58854363D01*
X142503752Y-58946138D01*
X142584932Y-59014256D01*
X142684514Y-59050500D01*
X142784009Y-59050500D01*
X142790486Y-59050500D01*
X142890068Y-59014256D01*
X142971248Y-58946138D01*
X143024234Y-58854363D01*
X143042636Y-58750000D01*
X143024234Y-58645637D01*
X142971248Y-58553862D01*
X142890068Y-58485744D01*
X142883983Y-58483529D01*
X142883981Y-58483528D01*
X142796573Y-58451715D01*
X142796570Y-58451714D01*
X142790486Y-58449500D01*
X142784009Y-58449500D01*
X142751202Y-58449500D01*
X142722883Y-58443867D01*
X142698876Y-58427826D01*
X142211020Y-57939971D01*
X142205490Y-57933783D01*
X142201905Y-57929288D01*
X142198288Y-57921776D01*
X142174560Y-57902853D01*
X142168373Y-57897324D01*
X142166240Y-57895191D01*
X142163301Y-57892252D01*
X142157223Y-57888432D01*
X142150461Y-57883634D01*
X142133248Y-57869907D01*
X142133247Y-57869906D01*
X142126731Y-57864710D01*
X142118605Y-57862855D01*
X142115615Y-57861415D01*
X142112481Y-57860318D01*
X142105424Y-57855884D01*
X142097142Y-57854950D01*
X142097140Y-57854950D01*
X142075260Y-57852485D01*
X142067087Y-57851096D01*
X142060503Y-57849594D01*
X142023480Y-57828591D01*
X142004152Y-57790666D01*
X142008916Y-57748367D01*
X142036194Y-57715690D01*
X142076962Y-57703448D01*
X142347969Y-57703448D01*
X142358500Y-57704201D01*
X142378162Y-57707028D01*
X142419189Y-57707028D01*
X142421838Y-57707028D01*
X142564153Y-57686566D01*
X142606060Y-57674261D01*
X142736845Y-57614533D01*
X142773586Y-57590921D01*
X142793196Y-57573928D01*
X142825923Y-57557546D01*
X142862502Y-57558852D01*
X142893979Y-57577528D01*
X143211641Y-57895191D01*
X143527826Y-58211376D01*
X143543867Y-58235383D01*
X143549500Y-58263702D01*
X143549500Y-58641456D01*
X143542567Y-58672729D01*
X143523068Y-58698142D01*
X143521213Y-58699697D01*
X143521206Y-58699704D01*
X143516252Y-58703862D01*
X143513016Y-58709465D01*
X143513014Y-58709469D01*
X143466502Y-58790031D01*
X143466500Y-58790033D01*
X143463266Y-58795637D01*
X143462142Y-58802010D01*
X143462142Y-58802011D01*
X143447151Y-58887030D01*
X143444864Y-58900000D01*
X143463266Y-59004363D01*
X143466501Y-59009967D01*
X143466502Y-59009968D01*
X143488624Y-59048284D01*
X143516252Y-59096138D01*
X143597432Y-59164256D01*
X143697014Y-59200500D01*
X143796509Y-59200500D01*
X143802986Y-59200500D01*
X143902568Y-59164256D01*
X143983748Y-59096138D01*
X144036734Y-59004363D01*
X144055136Y-58900000D01*
X144036734Y-58795637D01*
X143983748Y-58703862D01*
X143978790Y-58699701D01*
X143978786Y-58699697D01*
X143976932Y-58698142D01*
X143957433Y-58672729D01*
X143950500Y-58641456D01*
X143950500Y-58194885D01*
X143950965Y-58186598D01*
X143951607Y-58180899D01*
X143954362Y-58173026D01*
X143950964Y-58142871D01*
X143950500Y-58134588D01*
X143950500Y-58131571D01*
X143950500Y-58127410D01*
X143948900Y-58120405D01*
X143947512Y-58112229D01*
X143946328Y-58101721D01*
X143944116Y-58082076D01*
X143939678Y-58075014D01*
X143938589Y-58071900D01*
X143937146Y-58068904D01*
X143935290Y-58060769D01*
X143930087Y-58054245D01*
X143930087Y-58054244D01*
X143916365Y-58037036D01*
X143911567Y-58030275D01*
X143907749Y-58024199D01*
X143902670Y-58019120D01*
X143897141Y-58012932D01*
X143883424Y-57995732D01*
X143883422Y-57995731D01*
X143878224Y-57989212D01*
X143870712Y-57985594D01*
X143866216Y-57982009D01*
X143860028Y-57976479D01*
X143105438Y-57221889D01*
X145746552Y-57221889D01*
X145746927Y-57224501D01*
X145746928Y-57224507D01*
X145752392Y-57262509D01*
X145752393Y-57262516D01*
X145752768Y-57265120D01*
X145753508Y-57267641D01*
X145753510Y-57267649D01*
X145792532Y-57400546D01*
X145793275Y-57403075D01*
X145811418Y-57442804D01*
X145812847Y-57445028D01*
X145812850Y-57445033D01*
X145871503Y-57536299D01*
X145889150Y-57563758D01*
X145917753Y-57596767D01*
X146026414Y-57690921D01*
X146063155Y-57714533D01*
X146193940Y-57774261D01*
X146235847Y-57786566D01*
X146378162Y-57807028D01*
X146419189Y-57807028D01*
X146421838Y-57807028D01*
X146441499Y-57804201D01*
X146452031Y-57803448D01*
X146847969Y-57803448D01*
X146858500Y-57804201D01*
X146878162Y-57807028D01*
X146919189Y-57807028D01*
X146921838Y-57807028D01*
X147064153Y-57786566D01*
X147106060Y-57774261D01*
X147236845Y-57714533D01*
X147273586Y-57690921D01*
X147382247Y-57596767D01*
X147410850Y-57563758D01*
X147488582Y-57442804D01*
X147506725Y-57403075D01*
X147547232Y-57265120D01*
X147553448Y-57221889D01*
X147553448Y-56650000D01*
X147541767Y-56591278D01*
X147508504Y-56541496D01*
X147510355Y-56540258D01*
X147498170Y-56519153D01*
X147498170Y-56480847D01*
X147510355Y-56459741D01*
X147508504Y-56458504D01*
X147508503Y-56458504D01*
X147541767Y-56408722D01*
X147553448Y-56350000D01*
X147553448Y-56124500D01*
X147563362Y-56087500D01*
X147590448Y-56060414D01*
X147627448Y-56050500D01*
X147702101Y-56050500D01*
X147748240Y-56066645D01*
X147774246Y-56108036D01*
X147768893Y-56155522D01*
X147764710Y-56160769D01*
X147762855Y-56168891D01*
X147761414Y-56171885D01*
X147760316Y-56175020D01*
X147755884Y-56182076D01*
X147754951Y-56190354D01*
X147754950Y-56190358D01*
X147752486Y-56212232D01*
X147751098Y-56220403D01*
X147750423Y-56223358D01*
X147750421Y-56223371D01*
X147749500Y-56227410D01*
X147749500Y-56231562D01*
X147749500Y-56234588D01*
X147749035Y-56242872D01*
X147746571Y-56264738D01*
X147746571Y-56264740D01*
X147745638Y-56273026D01*
X147748392Y-56280897D01*
X147749035Y-56286598D01*
X147749500Y-56294885D01*
X147749500Y-57605115D01*
X147749035Y-57613402D01*
X147748392Y-57619102D01*
X147745638Y-57626974D01*
X147746571Y-57635258D01*
X147746571Y-57635261D01*
X147749035Y-57657128D01*
X147749500Y-57665412D01*
X147749500Y-57672590D01*
X147750425Y-57676642D01*
X147751097Y-57679588D01*
X147752485Y-57687760D01*
X147754950Y-57709640D01*
X147754950Y-57709642D01*
X147755884Y-57717924D01*
X147760318Y-57724981D01*
X147761415Y-57728115D01*
X147762855Y-57731105D01*
X147764710Y-57739231D01*
X147769906Y-57745747D01*
X147769907Y-57745748D01*
X147783634Y-57762961D01*
X147788432Y-57769723D01*
X147792252Y-57775801D01*
X147795191Y-57778740D01*
X147797324Y-57780873D01*
X147802853Y-57787060D01*
X147821776Y-57810788D01*
X147829288Y-57814405D01*
X147833783Y-57817990D01*
X147839971Y-57823520D01*
X149674314Y-59657864D01*
X149690355Y-59681871D01*
X149693991Y-59700153D01*
X149694864Y-59700000D01*
X149713266Y-59804363D01*
X149716501Y-59809967D01*
X149716502Y-59809968D01*
X149736417Y-59844462D01*
X149766252Y-59896138D01*
X149847432Y-59964256D01*
X149947014Y-60000500D01*
X150046509Y-60000500D01*
X150052986Y-60000500D01*
X150152568Y-59964256D01*
X150233748Y-59896138D01*
X150286734Y-59804363D01*
X150305136Y-59700000D01*
X150303900Y-59692993D01*
X150301900Y-59681649D01*
X150286734Y-59595637D01*
X150233748Y-59503862D01*
X150152568Y-59435744D01*
X150146483Y-59433529D01*
X150146481Y-59433528D01*
X150059073Y-59401715D01*
X150059070Y-59401714D01*
X150052986Y-59399500D01*
X150046509Y-59399500D01*
X150013702Y-59399500D01*
X149985383Y-59393867D01*
X149961376Y-59377826D01*
X148172174Y-57588625D01*
X148156133Y-57564618D01*
X148150500Y-57536299D01*
X148150500Y-57500000D01*
X148444864Y-57500000D01*
X148445988Y-57506375D01*
X148447614Y-57515596D01*
X148463266Y-57604363D01*
X148516252Y-57696138D01*
X148597432Y-57764256D01*
X148697014Y-57800500D01*
X148796509Y-57800500D01*
X148802986Y-57800500D01*
X148902568Y-57764256D01*
X148977935Y-57701015D01*
X149015841Y-57684337D01*
X149056774Y-57690637D01*
X149087911Y-57717944D01*
X149099500Y-57757704D01*
X149099500Y-57791456D01*
X149092567Y-57822729D01*
X149073068Y-57848142D01*
X149071213Y-57849697D01*
X149071206Y-57849704D01*
X149066252Y-57853862D01*
X149063016Y-57859465D01*
X149063014Y-57859469D01*
X149016502Y-57940031D01*
X149016500Y-57940033D01*
X149013266Y-57945637D01*
X149012142Y-57952010D01*
X149012142Y-57952011D01*
X149004433Y-57995732D01*
X148994864Y-58050000D01*
X149013266Y-58154363D01*
X149066252Y-58246138D01*
X149147432Y-58314256D01*
X149247014Y-58350500D01*
X149346509Y-58350500D01*
X149352986Y-58350500D01*
X149452568Y-58314256D01*
X149533748Y-58246138D01*
X149586734Y-58154363D01*
X149605136Y-58050000D01*
X149586734Y-57945637D01*
X149533748Y-57853862D01*
X149528790Y-57849701D01*
X149528786Y-57849697D01*
X149526932Y-57848142D01*
X149507433Y-57822729D01*
X149500500Y-57791456D01*
X149500500Y-57403220D01*
X149513883Y-57360775D01*
X149549188Y-57333684D01*
X149602568Y-57314256D01*
X149683748Y-57246138D01*
X149736734Y-57154363D01*
X149755136Y-57050000D01*
X149736734Y-56945637D01*
X149683748Y-56853862D01*
X149602568Y-56785744D01*
X149596483Y-56783529D01*
X149596481Y-56783528D01*
X149509073Y-56751715D01*
X149509070Y-56751714D01*
X149502986Y-56749500D01*
X149397014Y-56749500D01*
X149390930Y-56751714D01*
X149390926Y-56751715D01*
X149303518Y-56783528D01*
X149303513Y-56783530D01*
X149297432Y-56785744D01*
X149292472Y-56789905D01*
X149292470Y-56789907D01*
X149221210Y-56849701D01*
X149221207Y-56849703D01*
X149216252Y-56853862D01*
X149213017Y-56859463D01*
X149213016Y-56859466D01*
X149166502Y-56940031D01*
X149166500Y-56940033D01*
X149163266Y-56945637D01*
X149145268Y-57047705D01*
X149145267Y-57047710D01*
X149144864Y-57050000D01*
X149144489Y-57049934D01*
X149129845Y-57091788D01*
X149119907Y-57104249D01*
X149119903Y-57104256D01*
X149114710Y-57110769D01*
X149112856Y-57118889D01*
X149111412Y-57121888D01*
X149110315Y-57125023D01*
X149105884Y-57132076D01*
X149104951Y-57140354D01*
X149104950Y-57140358D01*
X149102486Y-57162232D01*
X149101098Y-57170403D01*
X149100423Y-57173358D01*
X149100421Y-57173371D01*
X149099500Y-57177410D01*
X149099500Y-57181562D01*
X149099500Y-57184588D01*
X149099035Y-57192871D01*
X149095638Y-57223026D01*
X149098391Y-57230894D01*
X149098712Y-57233741D01*
X149090709Y-57276400D01*
X149060162Y-57307234D01*
X149017579Y-57315635D01*
X148977612Y-57298713D01*
X148902568Y-57235744D01*
X148896483Y-57233529D01*
X148896481Y-57233528D01*
X148809073Y-57201715D01*
X148809070Y-57201714D01*
X148802986Y-57199500D01*
X148697014Y-57199500D01*
X148690930Y-57201714D01*
X148690926Y-57201715D01*
X148603518Y-57233528D01*
X148603513Y-57233530D01*
X148597432Y-57235744D01*
X148592472Y-57239905D01*
X148592470Y-57239907D01*
X148521210Y-57299701D01*
X148521207Y-57299703D01*
X148516252Y-57303862D01*
X148513017Y-57309463D01*
X148513016Y-57309466D01*
X148466502Y-57390031D01*
X148466500Y-57390033D01*
X148463266Y-57395637D01*
X148462142Y-57402010D01*
X148462142Y-57402011D01*
X148460385Y-57411977D01*
X148444864Y-57500000D01*
X148150500Y-57500000D01*
X148150500Y-56363701D01*
X148156133Y-56335382D01*
X148172174Y-56311375D01*
X148322780Y-56160769D01*
X148480885Y-56002663D01*
X148487066Y-55997141D01*
X148510788Y-55978224D01*
X148514406Y-55970708D01*
X148517986Y-55966220D01*
X148523509Y-55960038D01*
X149261375Y-55222174D01*
X149285383Y-55206133D01*
X149313702Y-55200500D01*
X149346509Y-55200500D01*
X149352986Y-55200500D01*
X149452568Y-55164256D01*
X149533748Y-55096138D01*
X149586734Y-55004363D01*
X149605136Y-54900000D01*
X149586734Y-54795637D01*
X149533748Y-54703862D01*
X149452568Y-54635744D01*
X149446483Y-54633529D01*
X149446481Y-54633528D01*
X149359073Y-54601715D01*
X149359070Y-54601714D01*
X149352986Y-54599500D01*
X149247014Y-54599500D01*
X149240930Y-54601714D01*
X149240926Y-54601715D01*
X149153518Y-54633528D01*
X149153513Y-54633530D01*
X149147432Y-54635744D01*
X149142472Y-54639905D01*
X149142470Y-54639907D01*
X149071210Y-54699701D01*
X149071207Y-54699703D01*
X149066252Y-54703862D01*
X149063017Y-54709463D01*
X149063016Y-54709466D01*
X149016502Y-54790031D01*
X149016500Y-54790033D01*
X149013266Y-54795637D01*
X149012142Y-54802010D01*
X149012142Y-54802011D01*
X148994864Y-54900000D01*
X148993991Y-54899846D01*
X148990355Y-54918128D01*
X148974314Y-54942135D01*
X148802270Y-55114180D01*
X148456845Y-55459606D01*
X148288625Y-55627826D01*
X148264618Y-55643867D01*
X148236299Y-55649500D01*
X147577513Y-55649500D01*
X147535311Y-55636286D01*
X147508180Y-55601365D01*
X147507467Y-55599453D01*
X147506725Y-55596925D01*
X147488582Y-55557196D01*
X147410850Y-55436242D01*
X147382247Y-55403233D01*
X147273586Y-55309079D01*
X147267602Y-55305233D01*
X147239063Y-55286892D01*
X147239058Y-55286889D01*
X147236845Y-55285467D01*
X147234451Y-55284373D01*
X147234448Y-55284372D01*
X147108459Y-55226834D01*
X147108451Y-55226831D01*
X147106060Y-55225739D01*
X147064153Y-55213434D01*
X147061545Y-55213059D01*
X147061536Y-55213057D01*
X146924458Y-55193348D01*
X146924448Y-55193347D01*
X146921838Y-55192972D01*
X146878162Y-55192972D01*
X146875552Y-55193347D01*
X146875541Y-55193348D01*
X146858500Y-55195799D01*
X146847969Y-55196552D01*
X146452031Y-55196552D01*
X146441500Y-55195799D01*
X146424458Y-55193348D01*
X146424448Y-55193347D01*
X146421838Y-55192972D01*
X146378162Y-55192972D01*
X146375552Y-55193347D01*
X146375541Y-55193348D01*
X146238463Y-55213057D01*
X146238451Y-55213059D01*
X146235847Y-55213434D01*
X146233310Y-55214178D01*
X146233305Y-55214180D01*
X146196476Y-55224994D01*
X146196471Y-55224995D01*
X146193940Y-55225739D01*
X146191552Y-55226829D01*
X146191540Y-55226834D01*
X146065551Y-55284372D01*
X146065542Y-55284376D01*
X146063155Y-55285467D01*
X146060947Y-55286885D01*
X146060936Y-55286892D01*
X146028633Y-55307652D01*
X146028624Y-55307658D01*
X146026414Y-55309079D01*
X146024426Y-55310801D01*
X146024420Y-55310806D01*
X145919752Y-55401500D01*
X145919745Y-55401506D01*
X145917753Y-55403233D01*
X145916026Y-55405225D01*
X145916019Y-55405233D01*
X145890884Y-55434240D01*
X145890879Y-55434246D01*
X145889150Y-55436242D01*
X145887723Y-55438461D01*
X145887718Y-55438469D01*
X145812850Y-55554966D01*
X145812843Y-55554977D01*
X145811418Y-55557196D01*
X145793275Y-55596925D01*
X145792535Y-55599443D01*
X145792532Y-55599453D01*
X145753510Y-55732350D01*
X145753507Y-55732361D01*
X145752768Y-55734880D01*
X145752394Y-55737480D01*
X145752392Y-55737490D01*
X145746928Y-55775492D01*
X145746927Y-55775499D01*
X145746552Y-55778111D01*
X145746552Y-56350000D01*
X145747262Y-56353569D01*
X145752932Y-56382076D01*
X145758233Y-56408722D01*
X145770720Y-56427410D01*
X145791496Y-56458504D01*
X145789644Y-56459741D01*
X145801830Y-56480847D01*
X145801830Y-56519153D01*
X145789644Y-56540258D01*
X145791496Y-56541496D01*
X145758233Y-56591278D01*
X145756811Y-56598421D01*
X145756811Y-56598424D01*
X145747262Y-56646430D01*
X145746552Y-56650000D01*
X145746552Y-57221889D01*
X143105438Y-57221889D01*
X143073605Y-57190056D01*
X143055716Y-57161094D01*
X143052686Y-57127188D01*
X143053071Y-57124511D01*
X143053071Y-57124510D01*
X143053448Y-57121889D01*
X143053448Y-56550000D01*
X143041767Y-56491278D01*
X143008504Y-56441496D01*
X143010355Y-56440258D01*
X142998170Y-56419153D01*
X142998170Y-56380847D01*
X143010355Y-56359741D01*
X143008504Y-56358504D01*
X143016618Y-56346360D01*
X143041767Y-56308722D01*
X143053448Y-56250000D01*
X143053448Y-55678111D01*
X143047232Y-55634880D01*
X143006725Y-55496925D01*
X142988582Y-55457196D01*
X142910850Y-55336242D01*
X142882247Y-55303233D01*
X142773586Y-55209079D01*
X142752922Y-55195799D01*
X142739063Y-55186892D01*
X142739058Y-55186889D01*
X142736845Y-55185467D01*
X142734451Y-55184373D01*
X142734448Y-55184372D01*
X142608459Y-55126834D01*
X142608451Y-55126831D01*
X142606060Y-55125739D01*
X142564153Y-55113434D01*
X142561545Y-55113059D01*
X142561536Y-55113057D01*
X142424458Y-55093348D01*
X142424448Y-55093347D01*
X142421838Y-55092972D01*
X142378162Y-55092972D01*
X142375552Y-55093347D01*
X142375541Y-55093348D01*
X142358500Y-55095799D01*
X142347969Y-55096552D01*
X141952031Y-55096552D01*
X141941500Y-55095799D01*
X141924458Y-55093348D01*
X141924448Y-55093347D01*
X141921838Y-55092972D01*
X141878162Y-55092972D01*
X141875552Y-55093347D01*
X141875541Y-55093348D01*
X141738463Y-55113057D01*
X141738451Y-55113059D01*
X141735847Y-55113434D01*
X141733310Y-55114178D01*
X141733305Y-55114180D01*
X141696476Y-55124994D01*
X141696471Y-55124995D01*
X141693940Y-55125739D01*
X141691552Y-55126829D01*
X141691540Y-55126834D01*
X141565551Y-55184372D01*
X141565542Y-55184376D01*
X141563155Y-55185467D01*
X141560947Y-55186885D01*
X141560936Y-55186892D01*
X141528633Y-55207652D01*
X141528624Y-55207658D01*
X141526414Y-55209079D01*
X141524426Y-55210801D01*
X141524420Y-55210806D01*
X141419752Y-55301500D01*
X141419745Y-55301506D01*
X141417753Y-55303233D01*
X141416026Y-55305225D01*
X141416019Y-55305233D01*
X141390884Y-55334240D01*
X141390879Y-55334246D01*
X141389150Y-55336242D01*
X141387723Y-55338461D01*
X141387718Y-55338469D01*
X141312850Y-55454966D01*
X141312843Y-55454977D01*
X141311418Y-55457196D01*
X141293275Y-55496925D01*
X141292535Y-55499443D01*
X141292532Y-55499453D01*
X141254839Y-55627826D01*
X141252768Y-55634880D01*
X141252393Y-55637490D01*
X141252390Y-55637503D01*
X141251435Y-55644143D01*
X141230515Y-55685933D01*
X140639971Y-56276478D01*
X140633786Y-56282006D01*
X140629285Y-56285594D01*
X140621776Y-56289212D01*
X140602852Y-56312941D01*
X140597329Y-56319121D01*
X140595187Y-56321262D01*
X140595180Y-56321270D01*
X140592252Y-56324199D01*
X140590047Y-56327706D01*
X140590040Y-56327716D01*
X140588429Y-56330280D01*
X140583638Y-56337032D01*
X140569906Y-56354252D01*
X140569904Y-56354254D01*
X140564710Y-56360769D01*
X140562856Y-56368889D01*
X140561412Y-56371888D01*
X140560315Y-56375023D01*
X140555884Y-56382076D01*
X140554951Y-56390354D01*
X140554950Y-56390358D01*
X140552486Y-56412232D01*
X140551098Y-56420403D01*
X140550423Y-56423358D01*
X140550421Y-56423371D01*
X140549500Y-56427410D01*
X140549500Y-56431562D01*
X140549500Y-56434588D01*
X140549035Y-56442872D01*
X140546571Y-56464738D01*
X140546571Y-56464740D01*
X140545638Y-56473026D01*
X140548392Y-56480897D01*
X140549035Y-56486598D01*
X140549500Y-56494885D01*
X140549500Y-57686298D01*
X140543867Y-57714617D01*
X140527826Y-57738624D01*
X140123625Y-58142826D01*
X140099618Y-58158867D01*
X140071299Y-58164500D01*
X135249500Y-58164500D01*
X135212500Y-58154586D01*
X135185414Y-58127500D01*
X135175500Y-58090500D01*
X135175500Y-57978820D01*
X135175500Y-57975180D01*
X135166767Y-57931278D01*
X135133504Y-57881496D01*
X135083722Y-57848233D01*
X135076576Y-57846811D01*
X135076575Y-57846811D01*
X135043389Y-57840210D01*
X135039820Y-57839500D01*
X134775180Y-57839500D01*
X134771611Y-57840209D01*
X134771610Y-57840210D01*
X134733937Y-57847704D01*
X134691182Y-57843493D01*
X134657971Y-57816238D01*
X134645500Y-57775126D01*
X134645500Y-57749508D01*
X134655414Y-57712508D01*
X134682500Y-57685422D01*
X134719500Y-57675508D01*
X139806257Y-57675508D01*
X139813528Y-57676486D01*
X139813579Y-57675946D01*
X139820021Y-57676548D01*
X139826269Y-57678264D01*
X139857151Y-57675751D01*
X139863150Y-57675508D01*
X139871025Y-57675508D01*
X139874658Y-57675508D01*
X139880499Y-57674345D01*
X139888942Y-57673165D01*
X139914318Y-57671102D01*
X139920203Y-57668400D01*
X139921052Y-57668179D01*
X139936240Y-57663258D01*
X139947724Y-57660974D01*
X139967694Y-57647629D01*
X139977930Y-57641909D01*
X139994607Y-57634257D01*
X140004005Y-57624972D01*
X140014887Y-57616097D01*
X140030585Y-57605609D01*
X140039958Y-57591578D01*
X140049480Y-57580049D01*
X140057453Y-57572174D01*
X140066161Y-57553789D01*
X140071499Y-57544373D01*
X140085950Y-57522748D01*
X140087841Y-57513239D01*
X140090959Y-57503809D01*
X140092499Y-57498197D01*
X140095275Y-57492340D01*
X140097834Y-57465002D01*
X140098929Y-57457493D01*
X140105392Y-57425008D01*
X140103970Y-57417857D01*
X140102940Y-57410479D01*
X140103511Y-57404385D01*
X140094770Y-57370951D01*
X140093792Y-57366694D01*
X140087372Y-57334417D01*
X140085950Y-57327268D01*
X140082501Y-57322107D01*
X140080257Y-57315427D01*
X140076147Y-57299701D01*
X140017786Y-57076414D01*
X139836672Y-56515278D01*
X139624154Y-55965268D01*
X139380911Y-55428139D01*
X139107719Y-54905606D01*
X138805451Y-54399336D01*
X138475071Y-53910947D01*
X138426407Y-53847101D01*
X138250539Y-53616365D01*
X138235394Y-53570951D01*
X138251219Y-53525770D01*
X138291388Y-53499731D01*
X138888408Y-53350000D01*
X143994864Y-53350000D01*
X144013266Y-53454363D01*
X144066252Y-53546138D01*
X144147432Y-53614256D01*
X144247014Y-53650500D01*
X144346509Y-53650500D01*
X144352986Y-53650500D01*
X144452568Y-53614256D01*
X144533748Y-53546138D01*
X144586734Y-53454363D01*
X144605136Y-53350000D01*
X144603982Y-53343458D01*
X144602647Y-53335885D01*
X144586734Y-53245637D01*
X144533748Y-53153862D01*
X144452568Y-53085744D01*
X144446483Y-53083529D01*
X144446481Y-53083528D01*
X144359073Y-53051715D01*
X144359070Y-53051714D01*
X144352986Y-53049500D01*
X144247014Y-53049500D01*
X144240930Y-53051714D01*
X144240926Y-53051715D01*
X144153518Y-53083528D01*
X144153513Y-53083530D01*
X144147432Y-53085744D01*
X144142472Y-53089905D01*
X144142470Y-53089907D01*
X144071210Y-53149701D01*
X144071207Y-53149703D01*
X144066252Y-53153862D01*
X144063017Y-53159463D01*
X144063016Y-53159466D01*
X144016502Y-53240031D01*
X144016500Y-53240033D01*
X144013266Y-53245637D01*
X144012142Y-53252010D01*
X144012142Y-53252011D01*
X143995988Y-53343625D01*
X143994864Y-53350000D01*
X138888408Y-53350000D01*
X154522079Y-49429117D01*
X154556670Y-49428779D01*
X154587636Y-49444201D01*
G37*
G04 #@! TD.AperFunction*
M02*
