G04 #@! TF.GenerationSoftware,KiCad,Pcbnew,(7.0.0-0)*
G04 #@! TF.CreationDate,2023-05-05T14:07:15+08:00*
G04 #@! TF.ProjectId,SWDProgrammer,53574450-726f-4677-9261-6d6d65722e6b,rev?*
G04 #@! TF.SameCoordinates,Original*
G04 #@! TF.FileFunction,Copper,L3,Inr*
G04 #@! TF.FilePolarity,Positive*
%FSLAX46Y46*%
G04 Gerber Fmt 4.6, Leading zero omitted, Abs format (unit mm)*
G04 Created by KiCad (PCBNEW (7.0.0-0)) date 2023-05-05 14:07:15*
%MOMM*%
%LPD*%
G01*
G04 APERTURE LIST*
G04 #@! TA.AperFunction,ComponentPad*
%ADD10C,1.300000*%
G04 #@! TD*
G04 #@! TA.AperFunction,ComponentPad*
%ADD11O,2.200000X1.000000*%
G04 #@! TD*
G04 #@! TA.AperFunction,ComponentPad*
%ADD12O,1.800000X1.000000*%
G04 #@! TD*
G04 #@! TA.AperFunction,ViaPad*
%ADD13C,0.500000*%
G04 #@! TD*
G04 APERTURE END LIST*
D10*
X140000000Y-88150000D03*
X140000000Y-89850000D03*
D11*
X120699999Y-94580299D03*
X120699999Y-83429699D03*
D12*
X124499999Y-83429399D03*
X124499999Y-94580299D03*
D13*
X128439193Y-89694500D03*
X128490000Y-88430000D03*
X131300000Y-91990000D03*
X135170000Y-82660000D03*
X133510000Y-95200000D03*
X128240000Y-93380000D03*
X138260000Y-84540000D03*
X138260000Y-85370000D03*
X132870000Y-90770000D03*
X130100011Y-83199989D03*
X135410000Y-88320000D03*
X137360589Y-91739411D03*
X132620000Y-85500000D03*
X134200000Y-82660000D03*
X126239376Y-84060624D03*
X132810000Y-82780000D03*
X134610000Y-95200000D03*
X132280000Y-95190000D03*
X126470000Y-92810000D03*
X138170000Y-83590000D03*
X137460000Y-82850000D03*
X137990000Y-95010000D03*
X131830000Y-87850000D03*
X136260000Y-82760000D03*
X132800000Y-92350000D03*
X130640000Y-90710000D03*
X133010000Y-83840000D03*
X138000039Y-93060000D03*
X129220000Y-83560000D03*
X126560589Y-86739411D03*
X127525261Y-91711897D03*
X129960000Y-95380000D03*
X126460589Y-85339411D03*
X126199502Y-92160000D03*
X126376147Y-87643853D03*
X126680000Y-88580000D03*
X126130000Y-89270000D03*
X126083158Y-88236434D03*
X128669963Y-84430651D03*
X130470000Y-88350000D03*
X132970000Y-88550000D03*
X133560000Y-86630000D03*
X133520000Y-85960000D03*
G04 #@! TA.AperFunction,Conductor*
G36*
X133817398Y-82266310D02*
G01*
X133862536Y-82309710D01*
X133880713Y-82369632D01*
X133867294Y-82430795D01*
X133824514Y-82514756D01*
X133814354Y-82534696D01*
X133812828Y-82544330D01*
X133812826Y-82544337D01*
X133801402Y-82616470D01*
X133794508Y-82660000D01*
X133796035Y-82669641D01*
X133812826Y-82775662D01*
X133812827Y-82775667D01*
X133814354Y-82785304D01*
X133871950Y-82898342D01*
X133961658Y-82988050D01*
X134074696Y-83045646D01*
X134200000Y-83065492D01*
X134325304Y-83045646D01*
X134438342Y-82988050D01*
X134528050Y-82898342D01*
X134574515Y-82807148D01*
X134620210Y-82757717D01*
X134685000Y-82739444D01*
X134749790Y-82757717D01*
X134795484Y-82807148D01*
X134841950Y-82898342D01*
X134931658Y-82988050D01*
X135044696Y-83045646D01*
X135170000Y-83065492D01*
X135295304Y-83045646D01*
X135408342Y-82988050D01*
X135498050Y-82898342D01*
X135555646Y-82785304D01*
X135575492Y-82660000D01*
X135555646Y-82534696D01*
X135551214Y-82525998D01*
X135551213Y-82525994D01*
X135502706Y-82430795D01*
X135489286Y-82369632D01*
X135507462Y-82309710D01*
X135552601Y-82266311D01*
X135613189Y-82250500D01*
X135903745Y-82250500D01*
X135960040Y-82264015D01*
X136004063Y-82301614D01*
X136026218Y-82355102D01*
X136021676Y-82412817D01*
X135991427Y-82462181D01*
X135931950Y-82521658D01*
X135927521Y-82530349D01*
X135927519Y-82530353D01*
X135881662Y-82620353D01*
X135874354Y-82634696D01*
X135872828Y-82644330D01*
X135872826Y-82644337D01*
X135857764Y-82739444D01*
X135854508Y-82760000D01*
X135856035Y-82769641D01*
X135872826Y-82875662D01*
X135872827Y-82875667D01*
X135874354Y-82885304D01*
X135931950Y-82998342D01*
X136021658Y-83088050D01*
X136134696Y-83145646D01*
X136260000Y-83165492D01*
X136385304Y-83145646D01*
X136498342Y-83088050D01*
X136588050Y-82998342D01*
X136645646Y-82885304D01*
X136665492Y-82760000D01*
X136645646Y-82634696D01*
X136588050Y-82521658D01*
X136528573Y-82462181D01*
X136498323Y-82412818D01*
X136493781Y-82355102D01*
X136515936Y-82301615D01*
X136559959Y-82264015D01*
X136616253Y-82250500D01*
X137237910Y-82250500D01*
X137301031Y-82267768D01*
X137346572Y-82314762D01*
X137361849Y-82378395D01*
X137342607Y-82440942D01*
X137294205Y-82484985D01*
X137230353Y-82517519D01*
X137230349Y-82517521D01*
X137221658Y-82521950D01*
X137214759Y-82528848D01*
X137214756Y-82528851D01*
X137138851Y-82604756D01*
X137138848Y-82604759D01*
X137131950Y-82611658D01*
X137127521Y-82620349D01*
X137127519Y-82620353D01*
X137102832Y-82668805D01*
X137074354Y-82724696D01*
X137072828Y-82734330D01*
X137072826Y-82734337D01*
X137059295Y-82819773D01*
X137054508Y-82850000D01*
X137056035Y-82859641D01*
X137072826Y-82965662D01*
X137072827Y-82965667D01*
X137074354Y-82975304D01*
X137131950Y-83088342D01*
X137221658Y-83178050D01*
X137334696Y-83235646D01*
X137460000Y-83255492D01*
X137585304Y-83235646D01*
X137671743Y-83191602D01*
X137731932Y-83178148D01*
X137791158Y-83195354D01*
X137794570Y-83198766D01*
X137778022Y-83141806D01*
X137791477Y-83081617D01*
X137841213Y-82984005D01*
X137841215Y-82984000D01*
X137845646Y-82975304D01*
X137865492Y-82850000D01*
X137854308Y-82779388D01*
X137847173Y-82734337D01*
X137847172Y-82734336D01*
X137845646Y-82724696D01*
X137788050Y-82611658D01*
X137698342Y-82521950D01*
X137684229Y-82514759D01*
X137684043Y-82514664D01*
X137639075Y-82475744D01*
X137617401Y-82420364D01*
X137624005Y-82361260D01*
X137657369Y-82312029D01*
X137709818Y-82283995D01*
X137769285Y-82283606D01*
X137876629Y-82309377D01*
X137895134Y-82315390D01*
X138058246Y-82382953D01*
X138075583Y-82391787D01*
X138226115Y-82484033D01*
X138241857Y-82495470D01*
X138376109Y-82610132D01*
X138389867Y-82623890D01*
X138504529Y-82758142D01*
X138515966Y-82773884D01*
X138608212Y-82924416D01*
X138617046Y-82941753D01*
X138684609Y-83104865D01*
X138690622Y-83123370D01*
X138722920Y-83257896D01*
X138720278Y-83325161D01*
X138682879Y-83381133D01*
X138621747Y-83409317D01*
X138554896Y-83401406D01*
X138502254Y-83359910D01*
X138498050Y-83351658D01*
X138408342Y-83261950D01*
X138295304Y-83204354D01*
X138285667Y-83202827D01*
X138285662Y-83202826D01*
X138179641Y-83186035D01*
X138170000Y-83184508D01*
X138160359Y-83186035D01*
X138054337Y-83202826D01*
X138054330Y-83202828D01*
X138044696Y-83204354D01*
X138036000Y-83208784D01*
X138035996Y-83208786D01*
X137958255Y-83248397D01*
X137898066Y-83261851D01*
X137838839Y-83244644D01*
X137835429Y-83241234D01*
X137851977Y-83298191D01*
X137838523Y-83358381D01*
X137788786Y-83455996D01*
X137788784Y-83456000D01*
X137784354Y-83464696D01*
X137782828Y-83474330D01*
X137782826Y-83474337D01*
X137771719Y-83544470D01*
X137764508Y-83590000D01*
X137766035Y-83599641D01*
X137782826Y-83705662D01*
X137782827Y-83705667D01*
X137784354Y-83715304D01*
X137788785Y-83724000D01*
X137835345Y-83815380D01*
X137841950Y-83828342D01*
X137931658Y-83918050D01*
X137984474Y-83944961D01*
X138044696Y-83975646D01*
X138043790Y-83977423D01*
X138080378Y-83999837D01*
X138110636Y-84049199D01*
X138115184Y-84106917D01*
X138093032Y-84160409D01*
X138049009Y-84198012D01*
X138030357Y-84207516D01*
X138030349Y-84207521D01*
X138021658Y-84211950D01*
X138014759Y-84218848D01*
X138014756Y-84218851D01*
X137938851Y-84294756D01*
X137938848Y-84294759D01*
X137931950Y-84301658D01*
X137927521Y-84310349D01*
X137927519Y-84310353D01*
X137880147Y-84403326D01*
X137874354Y-84414696D01*
X137872828Y-84424330D01*
X137872826Y-84424337D01*
X137856767Y-84525740D01*
X137854508Y-84540000D01*
X137856035Y-84549641D01*
X137872826Y-84655662D01*
X137872827Y-84655667D01*
X137874354Y-84665304D01*
X137903151Y-84721822D01*
X137924199Y-84763131D01*
X137931950Y-84778342D01*
X137938851Y-84785242D01*
X137938851Y-84785243D01*
X138020927Y-84867319D01*
X138053021Y-84922906D01*
X138053021Y-84987094D01*
X138020927Y-85042681D01*
X137938851Y-85124756D01*
X137938848Y-85124759D01*
X137931950Y-85131658D01*
X137927521Y-85140349D01*
X137927519Y-85140353D01*
X137878785Y-85235999D01*
X137874354Y-85244696D01*
X137872828Y-85254330D01*
X137872826Y-85254337D01*
X137859353Y-85339411D01*
X137854508Y-85370000D01*
X137856035Y-85379641D01*
X137872826Y-85485662D01*
X137872827Y-85485667D01*
X137874354Y-85495304D01*
X137931950Y-85608342D01*
X138021658Y-85698050D01*
X138134696Y-85755646D01*
X138260000Y-85775492D01*
X138385304Y-85755646D01*
X138498342Y-85698050D01*
X138537819Y-85658572D01*
X138587180Y-85628323D01*
X138644896Y-85623780D01*
X138698384Y-85645935D01*
X138735984Y-85689959D01*
X138749499Y-85746254D01*
X138749499Y-86755824D01*
X138749501Y-86755833D01*
X138749501Y-86799999D01*
X138749501Y-86883157D01*
X138750440Y-86888487D01*
X138750441Y-86888489D01*
X138777440Y-87041614D01*
X138777442Y-87041623D01*
X138778381Y-87046946D01*
X138780231Y-87052030D01*
X138780232Y-87052032D01*
X138833411Y-87198143D01*
X138833414Y-87198150D01*
X138835264Y-87203232D01*
X138837970Y-87207919D01*
X138837971Y-87207921D01*
X138915716Y-87342580D01*
X138915719Y-87342584D01*
X138918422Y-87347266D01*
X139025328Y-87474672D01*
X139152734Y-87581578D01*
X139157418Y-87584282D01*
X139157419Y-87584283D01*
X139231322Y-87626951D01*
X139277371Y-87673499D01*
X139293293Y-87737011D01*
X139278414Y-87787097D01*
X139280936Y-87788312D01*
X139277916Y-87794580D01*
X139274211Y-87800478D01*
X139271913Y-87807043D01*
X139271910Y-87807051D01*
X139216930Y-87964175D01*
X139216928Y-87964182D01*
X139214632Y-87970745D01*
X139213852Y-87977662D01*
X139213852Y-87977665D01*
X139198755Y-88111658D01*
X139194435Y-88150000D01*
X139195215Y-88156923D01*
X139211871Y-88304756D01*
X139214632Y-88329255D01*
X139216928Y-88335819D01*
X139216930Y-88335824D01*
X139271913Y-88492956D01*
X139274211Y-88499522D01*
X139277912Y-88505412D01*
X139363200Y-88641148D01*
X139370184Y-88652262D01*
X139497738Y-88779816D01*
X139628150Y-88861759D01*
X139670649Y-88906669D01*
X139686178Y-88966518D01*
X139686304Y-89032931D01*
X139670889Y-89093044D01*
X139628277Y-89138159D01*
X139503640Y-89216474D01*
X139503630Y-89216481D01*
X139497738Y-89220184D01*
X139492813Y-89225108D01*
X139492809Y-89225112D01*
X139375112Y-89342809D01*
X139375108Y-89342813D01*
X139370184Y-89347738D01*
X139366479Y-89353633D01*
X139366476Y-89353638D01*
X139277912Y-89494587D01*
X139277910Y-89494590D01*
X139274211Y-89500478D01*
X139271915Y-89507036D01*
X139271913Y-89507043D01*
X139216930Y-89664175D01*
X139216928Y-89664182D01*
X139214632Y-89670745D01*
X139213852Y-89677662D01*
X139213852Y-89677665D01*
X139211955Y-89694500D01*
X139194435Y-89850000D01*
X139195215Y-89856923D01*
X139204546Y-89939743D01*
X139214632Y-90029255D01*
X139216928Y-90035819D01*
X139216930Y-90035824D01*
X139239714Y-90100936D01*
X139274211Y-90199522D01*
X139277911Y-90205412D01*
X139280936Y-90211691D01*
X139278311Y-90212955D01*
X139293283Y-90262546D01*
X139277480Y-90326307D01*
X139231323Y-90373048D01*
X139203952Y-90388851D01*
X139152733Y-90418422D01*
X139148591Y-90421897D01*
X139148586Y-90421901D01*
X139029472Y-90521848D01*
X139029465Y-90521854D01*
X139025327Y-90525327D01*
X139021854Y-90529465D01*
X139021848Y-90529472D01*
X138921901Y-90648586D01*
X138921897Y-90648591D01*
X138918422Y-90652733D01*
X138915720Y-90657412D01*
X138915715Y-90657420D01*
X138837970Y-90792078D01*
X138837964Y-90792088D01*
X138835264Y-90796767D01*
X138833415Y-90801845D01*
X138833413Y-90801851D01*
X138780233Y-90947961D01*
X138778380Y-90953053D01*
X138777440Y-90958382D01*
X138777438Y-90958391D01*
X138753237Y-91095646D01*
X138749500Y-91116842D01*
X138749500Y-91122256D01*
X138749500Y-91175326D01*
X138749497Y-94455832D01*
X138749497Y-94495127D01*
X138749115Y-94504857D01*
X138734878Y-94685738D01*
X138731834Y-94704956D01*
X138690618Y-94876630D01*
X138684605Y-94895135D01*
X138630556Y-95025621D01*
X138591995Y-95076147D01*
X138533466Y-95100931D01*
X138470347Y-95093460D01*
X138419221Y-95055698D01*
X138393522Y-94997566D01*
X138375646Y-94884696D01*
X138318050Y-94771658D01*
X138228342Y-94681950D01*
X138115304Y-94624354D01*
X138105667Y-94622827D01*
X138105662Y-94622826D01*
X137999641Y-94606035D01*
X137990000Y-94604508D01*
X137980359Y-94606035D01*
X137874337Y-94622826D01*
X137874330Y-94622828D01*
X137864696Y-94624354D01*
X137856000Y-94628784D01*
X137855999Y-94628785D01*
X137760353Y-94677519D01*
X137760349Y-94677521D01*
X137751658Y-94681950D01*
X137744759Y-94688848D01*
X137744756Y-94688851D01*
X137668851Y-94764756D01*
X137668848Y-94764759D01*
X137661950Y-94771658D01*
X137657521Y-94780349D01*
X137657519Y-94780353D01*
X137608785Y-94875999D01*
X137604354Y-94884696D01*
X137602828Y-94894330D01*
X137602826Y-94894337D01*
X137590787Y-94970353D01*
X137584508Y-95010000D01*
X137586035Y-95019641D01*
X137602826Y-95125662D01*
X137602827Y-95125667D01*
X137604354Y-95135304D01*
X137615786Y-95157740D01*
X137654865Y-95234438D01*
X137661950Y-95248342D01*
X137751658Y-95338050D01*
X137864696Y-95395646D01*
X137957106Y-95410282D01*
X138015239Y-95435981D01*
X138053001Y-95487107D01*
X138060472Y-95550227D01*
X138035688Y-95608756D01*
X137985161Y-95647316D01*
X137895131Y-95684607D01*
X137876626Y-95690620D01*
X137704952Y-95731835D01*
X137685734Y-95734879D01*
X137504814Y-95749118D01*
X137495085Y-95749500D01*
X134922578Y-95749500D01*
X134862841Y-95734162D01*
X134817882Y-95691944D01*
X134798823Y-95633288D01*
X134810378Y-95572706D01*
X134846573Y-95528950D01*
X134848342Y-95528050D01*
X134938050Y-95438342D01*
X134995646Y-95325304D01*
X135015492Y-95200000D01*
X134995646Y-95074696D01*
X134938050Y-94961658D01*
X134848342Y-94871950D01*
X134836782Y-94866060D01*
X134744000Y-94818785D01*
X134735304Y-94814354D01*
X134725667Y-94812827D01*
X134725662Y-94812826D01*
X134619641Y-94796035D01*
X134610000Y-94794508D01*
X134600359Y-94796035D01*
X134494337Y-94812826D01*
X134494330Y-94812828D01*
X134484696Y-94814354D01*
X134476000Y-94818784D01*
X134475999Y-94818785D01*
X134380353Y-94867519D01*
X134380349Y-94867521D01*
X134371658Y-94871950D01*
X134364759Y-94878848D01*
X134364756Y-94878851D01*
X134288851Y-94954756D01*
X134288848Y-94954759D01*
X134281950Y-94961658D01*
X134277521Y-94970349D01*
X134277519Y-94970353D01*
X134229449Y-95064696D01*
X134224354Y-95074696D01*
X134222828Y-95084330D01*
X134222826Y-95084337D01*
X134213377Y-95144000D01*
X134204508Y-95200000D01*
X134206035Y-95209641D01*
X134222826Y-95315662D01*
X134222827Y-95315667D01*
X134224354Y-95325304D01*
X134281950Y-95438342D01*
X134371658Y-95528050D01*
X134373426Y-95528950D01*
X134409622Y-95572706D01*
X134421177Y-95633288D01*
X134402118Y-95691944D01*
X134357159Y-95734162D01*
X134297422Y-95749500D01*
X133822578Y-95749500D01*
X133762841Y-95734162D01*
X133717882Y-95691944D01*
X133698823Y-95633288D01*
X133710378Y-95572706D01*
X133746573Y-95528950D01*
X133748342Y-95528050D01*
X133838050Y-95438342D01*
X133895646Y-95325304D01*
X133915492Y-95200000D01*
X133895646Y-95074696D01*
X133838050Y-94961658D01*
X133748342Y-94871950D01*
X133736782Y-94866060D01*
X133644000Y-94818785D01*
X133635304Y-94814354D01*
X133625667Y-94812827D01*
X133625662Y-94812826D01*
X133519641Y-94796035D01*
X133510000Y-94794508D01*
X133500359Y-94796035D01*
X133394337Y-94812826D01*
X133394330Y-94812828D01*
X133384696Y-94814354D01*
X133376000Y-94818784D01*
X133375999Y-94818785D01*
X133280353Y-94867519D01*
X133280349Y-94867521D01*
X133271658Y-94871950D01*
X133264759Y-94878848D01*
X133264756Y-94878851D01*
X133188851Y-94954756D01*
X133188848Y-94954759D01*
X133181950Y-94961658D01*
X133177521Y-94970349D01*
X133177519Y-94970353D01*
X133129449Y-95064696D01*
X133124354Y-95074696D01*
X133122828Y-95084330D01*
X133122826Y-95084337D01*
X133113377Y-95144000D01*
X133104508Y-95200000D01*
X133106035Y-95209641D01*
X133122826Y-95315662D01*
X133122827Y-95315667D01*
X133124354Y-95325304D01*
X133181950Y-95438342D01*
X133271658Y-95528050D01*
X133273426Y-95528950D01*
X133309622Y-95572706D01*
X133321177Y-95633288D01*
X133302118Y-95691944D01*
X133257159Y-95734162D01*
X133197422Y-95749500D01*
X132578814Y-95749500D01*
X132519077Y-95734162D01*
X132474118Y-95691943D01*
X132455059Y-95633287D01*
X132466615Y-95572704D01*
X132505927Y-95525183D01*
X132509645Y-95522481D01*
X132518342Y-95518050D01*
X132608050Y-95428342D01*
X132665646Y-95315304D01*
X132685492Y-95190000D01*
X132665646Y-95064696D01*
X132608050Y-94951658D01*
X132518342Y-94861950D01*
X132498910Y-94852049D01*
X132414000Y-94808785D01*
X132405304Y-94804354D01*
X132395667Y-94802827D01*
X132395662Y-94802826D01*
X132289641Y-94786035D01*
X132280000Y-94784508D01*
X132270359Y-94786035D01*
X132164337Y-94802826D01*
X132164330Y-94802828D01*
X132154696Y-94804354D01*
X132146000Y-94808784D01*
X132145999Y-94808785D01*
X132050353Y-94857519D01*
X132050349Y-94857521D01*
X132041658Y-94861950D01*
X132034759Y-94868848D01*
X132034756Y-94868851D01*
X131958851Y-94944756D01*
X131958848Y-94944759D01*
X131951950Y-94951658D01*
X131947521Y-94960349D01*
X131947519Y-94960353D01*
X131898785Y-95055999D01*
X131894354Y-95064696D01*
X131892828Y-95074330D01*
X131892826Y-95074337D01*
X131880072Y-95154868D01*
X131874508Y-95190000D01*
X131876035Y-95199641D01*
X131892826Y-95305662D01*
X131892827Y-95305667D01*
X131894354Y-95315304D01*
X131907486Y-95341077D01*
X131945402Y-95415492D01*
X131951950Y-95428342D01*
X132041658Y-95518050D01*
X132050353Y-95522480D01*
X132054073Y-95525183D01*
X132093385Y-95572704D01*
X132104941Y-95633287D01*
X132085882Y-95691943D01*
X132040923Y-95734162D01*
X131981186Y-95749500D01*
X121007655Y-95749500D01*
X120997924Y-95749118D01*
X120817032Y-95734878D01*
X120797816Y-95731834D01*
X120626139Y-95690618D01*
X120607633Y-95684605D01*
X120444516Y-95617040D01*
X120427180Y-95608207D01*
X120276640Y-95515958D01*
X120260899Y-95504522D01*
X120195996Y-95449092D01*
X120161234Y-95400449D01*
X120153275Y-95341195D01*
X120173967Y-95285103D01*
X120218502Y-95245213D01*
X120276526Y-95230800D01*
X121337030Y-95230800D01*
X121340925Y-95230800D01*
X121463058Y-95215371D01*
X121615871Y-95154868D01*
X121748837Y-95058263D01*
X121853600Y-94931626D01*
X121923579Y-94782913D01*
X121954376Y-94621470D01*
X121944056Y-94457440D01*
X121893268Y-94301129D01*
X121805202Y-94162360D01*
X121736398Y-94097749D01*
X121691078Y-94055190D01*
X121691075Y-94055188D01*
X121685393Y-94049852D01*
X121679286Y-94046495D01*
X121640241Y-93999297D01*
X121628684Y-93938714D01*
X121647742Y-93880058D01*
X121692701Y-93837838D01*
X121752439Y-93822500D01*
X123654694Y-93822500D01*
X123714432Y-93837838D01*
X123759391Y-93880058D01*
X123778449Y-93938714D01*
X123766892Y-93999297D01*
X123727579Y-94046818D01*
X123657476Y-94097749D01*
X123657469Y-94097755D01*
X123651163Y-94102337D01*
X123646194Y-94108342D01*
X123646188Y-94108349D01*
X123551369Y-94222967D01*
X123546400Y-94228974D01*
X123543085Y-94236018D01*
X123543081Y-94236025D01*
X123479739Y-94370633D01*
X123479735Y-94370642D01*
X123476421Y-94377687D01*
X123474960Y-94385341D01*
X123474960Y-94385344D01*
X123447084Y-94531472D01*
X123447083Y-94531478D01*
X123445624Y-94539130D01*
X123446113Y-94546907D01*
X123446113Y-94546913D01*
X123455453Y-94695370D01*
X123455454Y-94695376D01*
X123455944Y-94703160D01*
X123458354Y-94710579D01*
X123458355Y-94710581D01*
X123492072Y-94814354D01*
X123506732Y-94859471D01*
X123510911Y-94866056D01*
X123510913Y-94866060D01*
X123560856Y-94944756D01*
X123594798Y-94998240D01*
X123714607Y-95110748D01*
X123858632Y-95189927D01*
X124017823Y-95230800D01*
X124937030Y-95230800D01*
X124940925Y-95230800D01*
X125063058Y-95215371D01*
X125215871Y-95154868D01*
X125348837Y-95058263D01*
X125453600Y-94931626D01*
X125523579Y-94782913D01*
X125554376Y-94621470D01*
X125544056Y-94457440D01*
X125493268Y-94301129D01*
X125405202Y-94162360D01*
X125285393Y-94049852D01*
X125205140Y-94005732D01*
X125162734Y-93982419D01*
X125117128Y-93939168D01*
X125098588Y-93879111D01*
X125111877Y-93817678D01*
X125153583Y-93770654D01*
X125164696Y-93763227D01*
X125180601Y-93752601D01*
X125235966Y-93669740D01*
X125250500Y-93596674D01*
X125255408Y-93572000D01*
X125252883Y-93559306D01*
X125250500Y-93535115D01*
X125250500Y-93380000D01*
X127834508Y-93380000D01*
X127836035Y-93389641D01*
X127852826Y-93495662D01*
X127852827Y-93495667D01*
X127854354Y-93505304D01*
X127858785Y-93514000D01*
X127900909Y-93596674D01*
X127911950Y-93618342D01*
X128001658Y-93708050D01*
X128114696Y-93765646D01*
X128124336Y-93767172D01*
X128124337Y-93767173D01*
X128177348Y-93775569D01*
X128240000Y-93785492D01*
X128365304Y-93765646D01*
X128478342Y-93708050D01*
X128568050Y-93618342D01*
X128625646Y-93505304D01*
X128645492Y-93380000D01*
X128625646Y-93254696D01*
X128568050Y-93141658D01*
X128478342Y-93051950D01*
X128365304Y-92994354D01*
X128355667Y-92992827D01*
X128355662Y-92992826D01*
X128249641Y-92976035D01*
X128240000Y-92974508D01*
X128230359Y-92976035D01*
X128124337Y-92992826D01*
X128124330Y-92992828D01*
X128114696Y-92994354D01*
X128106000Y-92998784D01*
X128105999Y-92998785D01*
X128010353Y-93047519D01*
X128010349Y-93047521D01*
X128001658Y-93051950D01*
X127994759Y-93058848D01*
X127994756Y-93058851D01*
X127918851Y-93134756D01*
X127918848Y-93134759D01*
X127911950Y-93141658D01*
X127907521Y-93150349D01*
X127907519Y-93150353D01*
X127858785Y-93245999D01*
X127854354Y-93254696D01*
X127852828Y-93264330D01*
X127852826Y-93264337D01*
X127843773Y-93321500D01*
X127834508Y-93380000D01*
X125250500Y-93380000D01*
X125250500Y-92160000D01*
X125794010Y-92160000D01*
X125795537Y-92169641D01*
X125812328Y-92275662D01*
X125812329Y-92275667D01*
X125813856Y-92285304D01*
X125818287Y-92294000D01*
X125857629Y-92371214D01*
X125871452Y-92398342D01*
X125961160Y-92488050D01*
X126028689Y-92522457D01*
X126072710Y-92560055D01*
X126094866Y-92613541D01*
X126090325Y-92671256D01*
X126088781Y-92676007D01*
X126084354Y-92684696D01*
X126082828Y-92694327D01*
X126082827Y-92694332D01*
X126073383Y-92753965D01*
X126064508Y-92810000D01*
X126066035Y-92819641D01*
X126082826Y-92925662D01*
X126082827Y-92925667D01*
X126084354Y-92935304D01*
X126141950Y-93048342D01*
X126231658Y-93138050D01*
X126344696Y-93195646D01*
X126470000Y-93215492D01*
X126595304Y-93195646D01*
X126708342Y-93138050D01*
X126798050Y-93048342D01*
X126855646Y-92935304D01*
X126875492Y-92810000D01*
X126855646Y-92684696D01*
X126798050Y-92571658D01*
X126708342Y-92481950D01*
X126640813Y-92447542D01*
X126596790Y-92409942D01*
X126574635Y-92356454D01*
X126579177Y-92298738D01*
X126580715Y-92294003D01*
X126585148Y-92285304D01*
X126604994Y-92160000D01*
X126585148Y-92034696D01*
X126562374Y-91990000D01*
X130894508Y-91990000D01*
X130896035Y-91999641D01*
X130912826Y-92105662D01*
X130912827Y-92105667D01*
X130914354Y-92115304D01*
X130971950Y-92228342D01*
X131061658Y-92318050D01*
X131174696Y-92375646D01*
X131300000Y-92395492D01*
X131425304Y-92375646D01*
X131475637Y-92350000D01*
X132394508Y-92350000D01*
X132396035Y-92359641D01*
X132412826Y-92465662D01*
X132412827Y-92465667D01*
X132414354Y-92475304D01*
X132471950Y-92588342D01*
X132561658Y-92678050D01*
X132674696Y-92735646D01*
X132800000Y-92755492D01*
X132925304Y-92735646D01*
X133038342Y-92678050D01*
X133128050Y-92588342D01*
X133185646Y-92475304D01*
X133205492Y-92350000D01*
X133185646Y-92224696D01*
X133128050Y-92111658D01*
X133038342Y-92021950D01*
X132925304Y-91964354D01*
X132915667Y-91962827D01*
X132915662Y-91962826D01*
X132809641Y-91946035D01*
X132800000Y-91944508D01*
X132790359Y-91946035D01*
X132684337Y-91962826D01*
X132684330Y-91962828D01*
X132674696Y-91964354D01*
X132666000Y-91968784D01*
X132665999Y-91968785D01*
X132570353Y-92017519D01*
X132570349Y-92017521D01*
X132561658Y-92021950D01*
X132554759Y-92028848D01*
X132554756Y-92028851D01*
X132478851Y-92104756D01*
X132478848Y-92104759D01*
X132471950Y-92111658D01*
X132467521Y-92120349D01*
X132467519Y-92120353D01*
X132447318Y-92160000D01*
X132414354Y-92224696D01*
X132412828Y-92234330D01*
X132412826Y-92234337D01*
X132403377Y-92294000D01*
X132394508Y-92350000D01*
X131475637Y-92350000D01*
X131538342Y-92318050D01*
X131628050Y-92228342D01*
X131685646Y-92115304D01*
X131705492Y-91990000D01*
X131685646Y-91864696D01*
X131628050Y-91751658D01*
X131615803Y-91739411D01*
X136955097Y-91739411D01*
X136956624Y-91749052D01*
X136973415Y-91855073D01*
X136973416Y-91855078D01*
X136974943Y-91864715D01*
X136979374Y-91873411D01*
X137027969Y-91968785D01*
X137032539Y-91977753D01*
X137122247Y-92067461D01*
X137235285Y-92125057D01*
X137360589Y-92144903D01*
X137485893Y-92125057D01*
X137598931Y-92067461D01*
X137688639Y-91977753D01*
X137746235Y-91864715D01*
X137766081Y-91739411D01*
X137746235Y-91614107D01*
X137688639Y-91501069D01*
X137598931Y-91411361D01*
X137485893Y-91353765D01*
X137476256Y-91352238D01*
X137476251Y-91352237D01*
X137370230Y-91335446D01*
X137360589Y-91333919D01*
X137350948Y-91335446D01*
X137244926Y-91352237D01*
X137244919Y-91352239D01*
X137235285Y-91353765D01*
X137226589Y-91358195D01*
X137226588Y-91358196D01*
X137130942Y-91406930D01*
X137130938Y-91406932D01*
X137122247Y-91411361D01*
X137115348Y-91418259D01*
X137115345Y-91418262D01*
X137039440Y-91494167D01*
X137039437Y-91494170D01*
X137032539Y-91501069D01*
X137028110Y-91509760D01*
X137028108Y-91509764D01*
X136989246Y-91586035D01*
X136974943Y-91614107D01*
X136973417Y-91623741D01*
X136973415Y-91623748D01*
X136968067Y-91657519D01*
X136955097Y-91739411D01*
X131615803Y-91739411D01*
X131538342Y-91661950D01*
X131425304Y-91604354D01*
X131415667Y-91602827D01*
X131415662Y-91602826D01*
X131309641Y-91586035D01*
X131300000Y-91584508D01*
X131290359Y-91586035D01*
X131184337Y-91602826D01*
X131184330Y-91602828D01*
X131174696Y-91604354D01*
X131166000Y-91608784D01*
X131165999Y-91608785D01*
X131070353Y-91657519D01*
X131070349Y-91657521D01*
X131061658Y-91661950D01*
X131054759Y-91668848D01*
X131054756Y-91668851D01*
X130978851Y-91744756D01*
X130978848Y-91744759D01*
X130971950Y-91751658D01*
X130967521Y-91760349D01*
X130967519Y-91760353D01*
X130919257Y-91855073D01*
X130914354Y-91864696D01*
X130912828Y-91874330D01*
X130912826Y-91874337D01*
X130906425Y-91914756D01*
X130894508Y-91990000D01*
X126562374Y-91990000D01*
X126527552Y-91921658D01*
X126437844Y-91831950D01*
X126324806Y-91774354D01*
X126315169Y-91772827D01*
X126315164Y-91772826D01*
X126209143Y-91756035D01*
X126199502Y-91754508D01*
X126189861Y-91756035D01*
X126083839Y-91772826D01*
X126083832Y-91772828D01*
X126074198Y-91774354D01*
X126065502Y-91778784D01*
X126065501Y-91778785D01*
X125969855Y-91827519D01*
X125969851Y-91827521D01*
X125961160Y-91831950D01*
X125954261Y-91838848D01*
X125954258Y-91838851D01*
X125878353Y-91914756D01*
X125878350Y-91914759D01*
X125871452Y-91921658D01*
X125867023Y-91930349D01*
X125867021Y-91930353D01*
X125831717Y-91999641D01*
X125813856Y-92034696D01*
X125812330Y-92044330D01*
X125812328Y-92044337D01*
X125796643Y-92143376D01*
X125794010Y-92160000D01*
X125250500Y-92160000D01*
X125250500Y-90710000D01*
X130234508Y-90710000D01*
X130236035Y-90719641D01*
X130252826Y-90825662D01*
X130252827Y-90825667D01*
X130254354Y-90835304D01*
X130258785Y-90844000D01*
X130289356Y-90904000D01*
X130311950Y-90948342D01*
X130401658Y-91038050D01*
X130514696Y-91095646D01*
X130640000Y-91115492D01*
X130765304Y-91095646D01*
X130878342Y-91038050D01*
X130968050Y-90948342D01*
X131025646Y-90835304D01*
X131035989Y-90770000D01*
X132464508Y-90770000D01*
X132466035Y-90779641D01*
X132482826Y-90885662D01*
X132482827Y-90885667D01*
X132484354Y-90895304D01*
X132541950Y-91008342D01*
X132631658Y-91098050D01*
X132744696Y-91155646D01*
X132870000Y-91175492D01*
X132995304Y-91155646D01*
X133108342Y-91098050D01*
X133198050Y-91008342D01*
X133255646Y-90895304D01*
X133275492Y-90770000D01*
X133255646Y-90644696D01*
X133198050Y-90531658D01*
X133108342Y-90441950D01*
X132995304Y-90384354D01*
X132985667Y-90382827D01*
X132985662Y-90382826D01*
X132879641Y-90366035D01*
X132870000Y-90364508D01*
X132860359Y-90366035D01*
X132754337Y-90382826D01*
X132754330Y-90382828D01*
X132744696Y-90384354D01*
X132736000Y-90388784D01*
X132735999Y-90388785D01*
X132640353Y-90437519D01*
X132640349Y-90437521D01*
X132631658Y-90441950D01*
X132624759Y-90448848D01*
X132624756Y-90448851D01*
X132548851Y-90524756D01*
X132548848Y-90524759D01*
X132541950Y-90531658D01*
X132537521Y-90540349D01*
X132537519Y-90540353D01*
X132510013Y-90594337D01*
X132484354Y-90644696D01*
X132482828Y-90654330D01*
X132482826Y-90654337D01*
X132473208Y-90715070D01*
X132464508Y-90770000D01*
X131035989Y-90770000D01*
X131045492Y-90710000D01*
X131025646Y-90584696D01*
X130968050Y-90471658D01*
X130878342Y-90381950D01*
X130765304Y-90324354D01*
X130755667Y-90322827D01*
X130755662Y-90322826D01*
X130649641Y-90306035D01*
X130640000Y-90304508D01*
X130630359Y-90306035D01*
X130524337Y-90322826D01*
X130524330Y-90322828D01*
X130514696Y-90324354D01*
X130506000Y-90328784D01*
X130505999Y-90328785D01*
X130410353Y-90377519D01*
X130410349Y-90377521D01*
X130401658Y-90381950D01*
X130394759Y-90388848D01*
X130394756Y-90388851D01*
X130318851Y-90464756D01*
X130318848Y-90464759D01*
X130311950Y-90471658D01*
X130307521Y-90480349D01*
X130307519Y-90480353D01*
X130284895Y-90524756D01*
X130254354Y-90584696D01*
X130252828Y-90594330D01*
X130252826Y-90594337D01*
X130236529Y-90697236D01*
X130234508Y-90710000D01*
X125250500Y-90710000D01*
X125250500Y-89694500D01*
X128033701Y-89694500D01*
X128035228Y-89704141D01*
X128052019Y-89810162D01*
X128052020Y-89810167D01*
X128053547Y-89819804D01*
X128111143Y-89932842D01*
X128200851Y-90022550D01*
X128313889Y-90080146D01*
X128439193Y-90099992D01*
X128564497Y-90080146D01*
X128677535Y-90022550D01*
X128767243Y-89932842D01*
X128824839Y-89819804D01*
X128844685Y-89694500D01*
X128824839Y-89569196D01*
X128767243Y-89456158D01*
X128677535Y-89366450D01*
X128564497Y-89308854D01*
X128554860Y-89307327D01*
X128554855Y-89307326D01*
X128448834Y-89290535D01*
X128439193Y-89289008D01*
X128429552Y-89290535D01*
X128323530Y-89307326D01*
X128323523Y-89307328D01*
X128313889Y-89308854D01*
X128305193Y-89313284D01*
X128305192Y-89313285D01*
X128209546Y-89362019D01*
X128209542Y-89362021D01*
X128200851Y-89366450D01*
X128193952Y-89373348D01*
X128193949Y-89373351D01*
X128118044Y-89449256D01*
X128118041Y-89449259D01*
X128111143Y-89456158D01*
X128106714Y-89464849D01*
X128106712Y-89464853D01*
X128057978Y-89560499D01*
X128053547Y-89569196D01*
X128052021Y-89578830D01*
X128052019Y-89578837D01*
X128036367Y-89677665D01*
X128033701Y-89694500D01*
X125250500Y-89694500D01*
X125250500Y-88236434D01*
X125677666Y-88236434D01*
X125679193Y-88246075D01*
X125695984Y-88352096D01*
X125695985Y-88352101D01*
X125697512Y-88361738D01*
X125755108Y-88474776D01*
X125844816Y-88564484D01*
X125957854Y-88622080D01*
X126035976Y-88634453D01*
X126098581Y-88663912D01*
X126135655Y-88722330D01*
X126135656Y-88791519D01*
X126098583Y-88849938D01*
X126035979Y-88879399D01*
X126014336Y-88882827D01*
X126014334Y-88882827D01*
X126004696Y-88884354D01*
X125996000Y-88888784D01*
X125995999Y-88888785D01*
X125900353Y-88937519D01*
X125900349Y-88937521D01*
X125891658Y-88941950D01*
X125884759Y-88948848D01*
X125884756Y-88948851D01*
X125808851Y-89024756D01*
X125808848Y-89024759D01*
X125801950Y-89031658D01*
X125797521Y-89040349D01*
X125797519Y-89040353D01*
X125748785Y-89135999D01*
X125744354Y-89144696D01*
X125742828Y-89154330D01*
X125742826Y-89154337D01*
X125732398Y-89220184D01*
X125724508Y-89270000D01*
X125726035Y-89279641D01*
X125742826Y-89385662D01*
X125742827Y-89385667D01*
X125744354Y-89395304D01*
X125801950Y-89508342D01*
X125891658Y-89598050D01*
X126004696Y-89655646D01*
X126130000Y-89675492D01*
X126255304Y-89655646D01*
X126368342Y-89598050D01*
X126458050Y-89508342D01*
X126515646Y-89395304D01*
X126535492Y-89270000D01*
X126515646Y-89144696D01*
X126512894Y-89139296D01*
X126509345Y-89079077D01*
X126536673Y-89022737D01*
X126588045Y-88986934D01*
X126650358Y-88980797D01*
X126680000Y-88985492D01*
X126805304Y-88965646D01*
X126918342Y-88908050D01*
X127008050Y-88818342D01*
X127065646Y-88705304D01*
X127085492Y-88580000D01*
X127065646Y-88454696D01*
X127053063Y-88430000D01*
X128084508Y-88430000D01*
X128086035Y-88439641D01*
X128102826Y-88545662D01*
X128102827Y-88545667D01*
X128104354Y-88555304D01*
X128161950Y-88668342D01*
X128251658Y-88758050D01*
X128364696Y-88815646D01*
X128490000Y-88835492D01*
X128615304Y-88815646D01*
X128728342Y-88758050D01*
X128818050Y-88668342D01*
X128875646Y-88555304D01*
X128895492Y-88430000D01*
X128882821Y-88350000D01*
X130064508Y-88350000D01*
X130066035Y-88359641D01*
X130082826Y-88465662D01*
X130082827Y-88465667D01*
X130084354Y-88475304D01*
X130141950Y-88588342D01*
X130231658Y-88678050D01*
X130344696Y-88735646D01*
X130470000Y-88755492D01*
X130595304Y-88735646D01*
X130708342Y-88678050D01*
X130798050Y-88588342D01*
X130817586Y-88550000D01*
X132564508Y-88550000D01*
X132566035Y-88559641D01*
X132582826Y-88665662D01*
X132582827Y-88665667D01*
X132584354Y-88675304D01*
X132588785Y-88684000D01*
X132628772Y-88762480D01*
X132641950Y-88788342D01*
X132731658Y-88878050D01*
X132844696Y-88935646D01*
X132970000Y-88955492D01*
X133095304Y-88935646D01*
X133208342Y-88878050D01*
X133298050Y-88788342D01*
X133355646Y-88675304D01*
X133375492Y-88550000D01*
X133361924Y-88464337D01*
X133357173Y-88434337D01*
X133357172Y-88434336D01*
X133355646Y-88424696D01*
X133302300Y-88320000D01*
X135004508Y-88320000D01*
X135006035Y-88329641D01*
X135022826Y-88435662D01*
X135022827Y-88435667D01*
X135024354Y-88445304D01*
X135081950Y-88558342D01*
X135171658Y-88648050D01*
X135284696Y-88705646D01*
X135410000Y-88725492D01*
X135535304Y-88705646D01*
X135648342Y-88648050D01*
X135738050Y-88558342D01*
X135795646Y-88445304D01*
X135815492Y-88320000D01*
X135800730Y-88226793D01*
X135797173Y-88204337D01*
X135797172Y-88204336D01*
X135795646Y-88194696D01*
X135738050Y-88081658D01*
X135648342Y-87991950D01*
X135632739Y-87984000D01*
X135544000Y-87938785D01*
X135535304Y-87934354D01*
X135525667Y-87932827D01*
X135525662Y-87932826D01*
X135419641Y-87916035D01*
X135410000Y-87914508D01*
X135400359Y-87916035D01*
X135294337Y-87932826D01*
X135294330Y-87932828D01*
X135284696Y-87934354D01*
X135276000Y-87938784D01*
X135275999Y-87938785D01*
X135180353Y-87987519D01*
X135180349Y-87987521D01*
X135171658Y-87991950D01*
X135164759Y-87998848D01*
X135164756Y-87998851D01*
X135088851Y-88074756D01*
X135088848Y-88074759D01*
X135081950Y-88081658D01*
X135077521Y-88090349D01*
X135077519Y-88090353D01*
X135028785Y-88185999D01*
X135024354Y-88194696D01*
X135022828Y-88204330D01*
X135022826Y-88204337D01*
X135008309Y-88295999D01*
X135004508Y-88320000D01*
X133302300Y-88320000D01*
X133298050Y-88311658D01*
X133208342Y-88221950D01*
X133095304Y-88164354D01*
X133085667Y-88162827D01*
X133085662Y-88162826D01*
X132979641Y-88146035D01*
X132970000Y-88144508D01*
X132960359Y-88146035D01*
X132854337Y-88162826D01*
X132854330Y-88162828D01*
X132844696Y-88164354D01*
X132836000Y-88168784D01*
X132835999Y-88168785D01*
X132740353Y-88217519D01*
X132740349Y-88217521D01*
X132731658Y-88221950D01*
X132724759Y-88228848D01*
X132724756Y-88228851D01*
X132648851Y-88304756D01*
X132648848Y-88304759D01*
X132641950Y-88311658D01*
X132637521Y-88320349D01*
X132637519Y-88320353D01*
X132588785Y-88415999D01*
X132584354Y-88424696D01*
X132582828Y-88434330D01*
X132582826Y-88434337D01*
X132571570Y-88505412D01*
X132564508Y-88550000D01*
X130817586Y-88550000D01*
X130855646Y-88475304D01*
X130875492Y-88350000D01*
X130855646Y-88224696D01*
X130798050Y-88111658D01*
X130708342Y-88021950D01*
X130595304Y-87964354D01*
X130585667Y-87962827D01*
X130585662Y-87962826D01*
X130479641Y-87946035D01*
X130470000Y-87944508D01*
X130460359Y-87946035D01*
X130354337Y-87962826D01*
X130354330Y-87962828D01*
X130344696Y-87964354D01*
X130336000Y-87968784D01*
X130335999Y-87968785D01*
X130240353Y-88017519D01*
X130240349Y-88017521D01*
X130231658Y-88021950D01*
X130224759Y-88028848D01*
X130224756Y-88028851D01*
X130148851Y-88104756D01*
X130148848Y-88104759D01*
X130141950Y-88111658D01*
X130137521Y-88120349D01*
X130137519Y-88120353D01*
X130097556Y-88198785D01*
X130084354Y-88224696D01*
X130082828Y-88234330D01*
X130082826Y-88234337D01*
X130066922Y-88334756D01*
X130064508Y-88350000D01*
X128882821Y-88350000D01*
X128875646Y-88304696D01*
X128818050Y-88191658D01*
X128728342Y-88101950D01*
X128615304Y-88044354D01*
X128605667Y-88042827D01*
X128605662Y-88042826D01*
X128499641Y-88026035D01*
X128490000Y-88024508D01*
X128480359Y-88026035D01*
X128374337Y-88042826D01*
X128374330Y-88042828D01*
X128364696Y-88044354D01*
X128356000Y-88048784D01*
X128355999Y-88048785D01*
X128260353Y-88097519D01*
X128260349Y-88097521D01*
X128251658Y-88101950D01*
X128244759Y-88108848D01*
X128244756Y-88108851D01*
X128168851Y-88184756D01*
X128168848Y-88184759D01*
X128161950Y-88191658D01*
X128157521Y-88200349D01*
X128157519Y-88200353D01*
X128127713Y-88258851D01*
X128104354Y-88304696D01*
X128102828Y-88314330D01*
X128102826Y-88314337D01*
X128093942Y-88370434D01*
X128084508Y-88430000D01*
X127053063Y-88430000D01*
X127008050Y-88341658D01*
X126918342Y-88251950D01*
X126877645Y-88231214D01*
X126850768Y-88217519D01*
X126805304Y-88194354D01*
X126795667Y-88192827D01*
X126795662Y-88192826D01*
X126688909Y-88175919D01*
X126627775Y-88147736D01*
X126590376Y-88091764D01*
X126587733Y-88024498D01*
X126620623Y-87965768D01*
X126704197Y-87882195D01*
X126720601Y-87850000D01*
X131424508Y-87850000D01*
X131426035Y-87859641D01*
X131442826Y-87965662D01*
X131442827Y-87965667D01*
X131444354Y-87975304D01*
X131465864Y-88017519D01*
X131495027Y-88074756D01*
X131501950Y-88088342D01*
X131591658Y-88178050D01*
X131704696Y-88235646D01*
X131830000Y-88255492D01*
X131955304Y-88235646D01*
X132068342Y-88178050D01*
X132158050Y-88088342D01*
X132215646Y-87975304D01*
X132235492Y-87850000D01*
X132218120Y-87740318D01*
X132217173Y-87734337D01*
X132217172Y-87734336D01*
X132215646Y-87724696D01*
X132158050Y-87611658D01*
X132068342Y-87521950D01*
X132044598Y-87509852D01*
X131964000Y-87468785D01*
X131955304Y-87464354D01*
X131945667Y-87462827D01*
X131945662Y-87462826D01*
X131839641Y-87446035D01*
X131830000Y-87444508D01*
X131820359Y-87446035D01*
X131714337Y-87462826D01*
X131714330Y-87462828D01*
X131704696Y-87464354D01*
X131696000Y-87468784D01*
X131695999Y-87468785D01*
X131600353Y-87517519D01*
X131600349Y-87517521D01*
X131591658Y-87521950D01*
X131584759Y-87528848D01*
X131584756Y-87528851D01*
X131508851Y-87604756D01*
X131508848Y-87604759D01*
X131501950Y-87611658D01*
X131497521Y-87620349D01*
X131497519Y-87620353D01*
X131448785Y-87715999D01*
X131444354Y-87724696D01*
X131442828Y-87734330D01*
X131442826Y-87734337D01*
X131434278Y-87788312D01*
X131424508Y-87850000D01*
X126720601Y-87850000D01*
X126761793Y-87769157D01*
X126781639Y-87643853D01*
X126761793Y-87518549D01*
X126704197Y-87405511D01*
X126614489Y-87315803D01*
X126501451Y-87258207D01*
X126491814Y-87256680D01*
X126491809Y-87256679D01*
X126385788Y-87239888D01*
X126376147Y-87238361D01*
X126366506Y-87239888D01*
X126260484Y-87256679D01*
X126260477Y-87256681D01*
X126250843Y-87258207D01*
X126242147Y-87262637D01*
X126242146Y-87262638D01*
X126146500Y-87311372D01*
X126146496Y-87311374D01*
X126137805Y-87315803D01*
X126130906Y-87322701D01*
X126130903Y-87322704D01*
X126054998Y-87398609D01*
X126054995Y-87398612D01*
X126048097Y-87405511D01*
X126043668Y-87414202D01*
X126043666Y-87414206D01*
X125994932Y-87509852D01*
X125990501Y-87518549D01*
X125988975Y-87528183D01*
X125988973Y-87528190D01*
X125976847Y-87604756D01*
X125970655Y-87643853D01*
X125972182Y-87653494D01*
X125972182Y-87653495D01*
X125985933Y-87740318D01*
X125983235Y-87791809D01*
X125959826Y-87837750D01*
X125919756Y-87870199D01*
X125853513Y-87903951D01*
X125853505Y-87903956D01*
X125844816Y-87908384D01*
X125837917Y-87915282D01*
X125837914Y-87915285D01*
X125762009Y-87991190D01*
X125762006Y-87991193D01*
X125755108Y-87998092D01*
X125750679Y-88006783D01*
X125750677Y-88006787D01*
X125704447Y-88097519D01*
X125697512Y-88111130D01*
X125695986Y-88120764D01*
X125695984Y-88120771D01*
X125680662Y-88217519D01*
X125677666Y-88236434D01*
X125250500Y-88236434D01*
X125250500Y-85339411D01*
X126055097Y-85339411D01*
X126056624Y-85349052D01*
X126073415Y-85455073D01*
X126073416Y-85455078D01*
X126074943Y-85464715D01*
X126132539Y-85577753D01*
X126222247Y-85667461D01*
X126335285Y-85725057D01*
X126460589Y-85744903D01*
X126585893Y-85725057D01*
X126698931Y-85667461D01*
X126788639Y-85577753D01*
X126828256Y-85500000D01*
X132214508Y-85500000D01*
X132216035Y-85509640D01*
X132216035Y-85509641D01*
X132232826Y-85615662D01*
X132232827Y-85615667D01*
X132234354Y-85625304D01*
X132238785Y-85634000D01*
X132267297Y-85689959D01*
X132291950Y-85738342D01*
X132381658Y-85828050D01*
X132494696Y-85885646D01*
X132620000Y-85905492D01*
X132745304Y-85885646D01*
X132858342Y-85828050D01*
X132917696Y-85768695D01*
X132970778Y-85737303D01*
X133032423Y-85735365D01*
X133087376Y-85763365D01*
X133122043Y-85814375D01*
X133127847Y-85875776D01*
X133123141Y-85905492D01*
X133114508Y-85960000D01*
X133116035Y-85969641D01*
X133132826Y-86075662D01*
X133132827Y-86075667D01*
X133134354Y-86085304D01*
X133138785Y-86094000D01*
X133187517Y-86189643D01*
X133191950Y-86198342D01*
X133198851Y-86205243D01*
X133222672Y-86229064D01*
X133252922Y-86278426D01*
X133257465Y-86336141D01*
X133236252Y-86387355D01*
X133231950Y-86391658D01*
X133227522Y-86400347D01*
X133227520Y-86400351D01*
X133178785Y-86495999D01*
X133174354Y-86504696D01*
X133172828Y-86514330D01*
X133172826Y-86514337D01*
X133156529Y-86617236D01*
X133154508Y-86630000D01*
X133156035Y-86639641D01*
X133172826Y-86745662D01*
X133172827Y-86745667D01*
X133174354Y-86755304D01*
X133231950Y-86868342D01*
X133321658Y-86958050D01*
X133434696Y-87015646D01*
X133560000Y-87035492D01*
X133685304Y-87015646D01*
X133798342Y-86958050D01*
X133888050Y-86868342D01*
X133945646Y-86755304D01*
X133965492Y-86630000D01*
X133945646Y-86504696D01*
X133888050Y-86391658D01*
X133857327Y-86360935D01*
X133827077Y-86311571D01*
X133822535Y-86253853D01*
X133843747Y-86202644D01*
X133848050Y-86198342D01*
X133905646Y-86085304D01*
X133925492Y-85960000D01*
X133905646Y-85834696D01*
X133848050Y-85721658D01*
X133758342Y-85631950D01*
X133645304Y-85574354D01*
X133635667Y-85572827D01*
X133635662Y-85572826D01*
X133529641Y-85556035D01*
X133520000Y-85554508D01*
X133510359Y-85556035D01*
X133404337Y-85572826D01*
X133404330Y-85572828D01*
X133394696Y-85574354D01*
X133386000Y-85578784D01*
X133385999Y-85578785D01*
X133290353Y-85627519D01*
X133290349Y-85627521D01*
X133281658Y-85631950D01*
X133274759Y-85638848D01*
X133274759Y-85638849D01*
X133222306Y-85691302D01*
X133169219Y-85722697D01*
X133107574Y-85724633D01*
X133052622Y-85696633D01*
X133017956Y-85645623D01*
X133012152Y-85584224D01*
X133025492Y-85500000D01*
X133005646Y-85374696D01*
X132948050Y-85261658D01*
X132858342Y-85171950D01*
X132745304Y-85114354D01*
X132735667Y-85112827D01*
X132735662Y-85112826D01*
X132629641Y-85096035D01*
X132620000Y-85094508D01*
X132610359Y-85096035D01*
X132504337Y-85112826D01*
X132504330Y-85112828D01*
X132494696Y-85114354D01*
X132486000Y-85118784D01*
X132485999Y-85118785D01*
X132390353Y-85167519D01*
X132390349Y-85167521D01*
X132381658Y-85171950D01*
X132374759Y-85178848D01*
X132374756Y-85178851D01*
X132298851Y-85254756D01*
X132298848Y-85254759D01*
X132291950Y-85261658D01*
X132287521Y-85270349D01*
X132287519Y-85270353D01*
X132247420Y-85349052D01*
X132234354Y-85374696D01*
X132232828Y-85384330D01*
X132232826Y-85384337D01*
X132218719Y-85473411D01*
X132214508Y-85500000D01*
X126828256Y-85500000D01*
X126846235Y-85464715D01*
X126866081Y-85339411D01*
X126846235Y-85214107D01*
X126788639Y-85101069D01*
X126698931Y-85011361D01*
X126585893Y-84953765D01*
X126576256Y-84952238D01*
X126576251Y-84952237D01*
X126470230Y-84935446D01*
X126460589Y-84933919D01*
X126450948Y-84935446D01*
X126344926Y-84952237D01*
X126344919Y-84952239D01*
X126335285Y-84953765D01*
X126326589Y-84958195D01*
X126326588Y-84958196D01*
X126230942Y-85006930D01*
X126230938Y-85006932D01*
X126222247Y-85011361D01*
X126215348Y-85018259D01*
X126215345Y-85018262D01*
X126139440Y-85094167D01*
X126139437Y-85094170D01*
X126132539Y-85101069D01*
X126128110Y-85109760D01*
X126128108Y-85109764D01*
X126079374Y-85205410D01*
X126074943Y-85214107D01*
X126073417Y-85223741D01*
X126073415Y-85223748D01*
X126057118Y-85326647D01*
X126055097Y-85339411D01*
X125250500Y-85339411D01*
X125250500Y-84464885D01*
X125252883Y-84440694D01*
X125253025Y-84439980D01*
X125255408Y-84428000D01*
X125235966Y-84330260D01*
X125180601Y-84247399D01*
X125170448Y-84240615D01*
X125170446Y-84240613D01*
X125161547Y-84234667D01*
X125118136Y-84184140D01*
X125107134Y-84118441D01*
X125130092Y-84060624D01*
X125833884Y-84060624D01*
X125835411Y-84070265D01*
X125852202Y-84176286D01*
X125852203Y-84176291D01*
X125853730Y-84185928D01*
X125858161Y-84194624D01*
X125904829Y-84286216D01*
X125911326Y-84298966D01*
X126001034Y-84388674D01*
X126114072Y-84446270D01*
X126239376Y-84466116D01*
X126364680Y-84446270D01*
X126395334Y-84430651D01*
X128264471Y-84430651D01*
X128265998Y-84440292D01*
X128282789Y-84546313D01*
X128282790Y-84546318D01*
X128284317Y-84555955D01*
X128341913Y-84668993D01*
X128431621Y-84758701D01*
X128544659Y-84816297D01*
X128669963Y-84836143D01*
X128795267Y-84816297D01*
X128908305Y-84758701D01*
X128998013Y-84668993D01*
X129055609Y-84555955D01*
X129075455Y-84430651D01*
X129055609Y-84305347D01*
X128998013Y-84192309D01*
X128908305Y-84102601D01*
X128795267Y-84045005D01*
X128785630Y-84043478D01*
X128785625Y-84043477D01*
X128679604Y-84026686D01*
X128669963Y-84025159D01*
X128660322Y-84026686D01*
X128554300Y-84043477D01*
X128554293Y-84043479D01*
X128544659Y-84045005D01*
X128535963Y-84049435D01*
X128535962Y-84049436D01*
X128440316Y-84098170D01*
X128440312Y-84098172D01*
X128431621Y-84102601D01*
X128424722Y-84109499D01*
X128424719Y-84109502D01*
X128348814Y-84185407D01*
X128348811Y-84185410D01*
X128341913Y-84192309D01*
X128337484Y-84201000D01*
X128337482Y-84201004D01*
X128291999Y-84290270D01*
X128284317Y-84305347D01*
X128282791Y-84314981D01*
X128282789Y-84314988D01*
X128271119Y-84388674D01*
X128264471Y-84430651D01*
X126395334Y-84430651D01*
X126477718Y-84388674D01*
X126567426Y-84298966D01*
X126625022Y-84185928D01*
X126644868Y-84060624D01*
X126625022Y-83935320D01*
X126567426Y-83822282D01*
X126477718Y-83732574D01*
X126467577Y-83727407D01*
X126373376Y-83679409D01*
X126364680Y-83674978D01*
X126355043Y-83673451D01*
X126355038Y-83673450D01*
X126249017Y-83656659D01*
X126239376Y-83655132D01*
X126229735Y-83656659D01*
X126123713Y-83673450D01*
X126123706Y-83673452D01*
X126114072Y-83674978D01*
X126105376Y-83679408D01*
X126105375Y-83679409D01*
X126009729Y-83728143D01*
X126009725Y-83728145D01*
X126001034Y-83732574D01*
X125994135Y-83739472D01*
X125994132Y-83739475D01*
X125918227Y-83815380D01*
X125918224Y-83815383D01*
X125911326Y-83822282D01*
X125906897Y-83830973D01*
X125906895Y-83830977D01*
X125860272Y-83922480D01*
X125853730Y-83935320D01*
X125852204Y-83944954D01*
X125852202Y-83944961D01*
X125839501Y-84025159D01*
X125833884Y-84060624D01*
X125130092Y-84060624D01*
X125131718Y-84056529D01*
X125184789Y-84016274D01*
X125215871Y-84003968D01*
X125348837Y-83907363D01*
X125453600Y-83780726D01*
X125523579Y-83632013D01*
X125554376Y-83470570D01*
X125544056Y-83306540D01*
X125509436Y-83199989D01*
X129694519Y-83199989D01*
X129696046Y-83209630D01*
X129712837Y-83315651D01*
X129712838Y-83315656D01*
X129714365Y-83325293D01*
X129727799Y-83351658D01*
X129757177Y-83409317D01*
X129771961Y-83438331D01*
X129861669Y-83528039D01*
X129974707Y-83585635D01*
X130100011Y-83605481D01*
X130225315Y-83585635D01*
X130338353Y-83528039D01*
X130428061Y-83438331D01*
X130485657Y-83325293D01*
X130505503Y-83199989D01*
X130485657Y-83074685D01*
X130428061Y-82961647D01*
X130338353Y-82871939D01*
X130295295Y-82850000D01*
X130243345Y-82823530D01*
X130225315Y-82814343D01*
X130215678Y-82812816D01*
X130215673Y-82812815D01*
X130109652Y-82796024D01*
X130100011Y-82794497D01*
X130090370Y-82796024D01*
X129984348Y-82812815D01*
X129984341Y-82812817D01*
X129974707Y-82814343D01*
X129966011Y-82818773D01*
X129966010Y-82818774D01*
X129870364Y-82867508D01*
X129870360Y-82867510D01*
X129861669Y-82871939D01*
X129854770Y-82878837D01*
X129854767Y-82878840D01*
X129778862Y-82954745D01*
X129778859Y-82954748D01*
X129771961Y-82961647D01*
X129767532Y-82970338D01*
X129767530Y-82970342D01*
X129739557Y-83025243D01*
X129714365Y-83074685D01*
X129712839Y-83084319D01*
X129712837Y-83084326D01*
X129699983Y-83165492D01*
X129694519Y-83199989D01*
X125509436Y-83199989D01*
X125493268Y-83150229D01*
X125405202Y-83011460D01*
X125285393Y-82898952D01*
X125278561Y-82895196D01*
X125148202Y-82823530D01*
X125148201Y-82823529D01*
X125141368Y-82819773D01*
X125133816Y-82817834D01*
X125133811Y-82817832D01*
X124989735Y-82780840D01*
X124989730Y-82780839D01*
X124982177Y-82778900D01*
X124059075Y-82778900D01*
X124055216Y-82779387D01*
X124055208Y-82779388D01*
X123944682Y-82793351D01*
X123944680Y-82793351D01*
X123936942Y-82794329D01*
X123929690Y-82797200D01*
X123929687Y-82797201D01*
X123791383Y-82851959D01*
X123791376Y-82851962D01*
X123784129Y-82854832D01*
X123777825Y-82859411D01*
X123777816Y-82859417D01*
X123657476Y-82946849D01*
X123657469Y-82946855D01*
X123651163Y-82951437D01*
X123646194Y-82957442D01*
X123646188Y-82957449D01*
X123556398Y-83065988D01*
X123546400Y-83078074D01*
X123543085Y-83085118D01*
X123543081Y-83085125D01*
X123479739Y-83219733D01*
X123479735Y-83219742D01*
X123476421Y-83226787D01*
X123474960Y-83234441D01*
X123474960Y-83234444D01*
X123447084Y-83380572D01*
X123447083Y-83380578D01*
X123445624Y-83388230D01*
X123446113Y-83396007D01*
X123446113Y-83396013D01*
X123455453Y-83544470D01*
X123455454Y-83544476D01*
X123455944Y-83552260D01*
X123458354Y-83559679D01*
X123458355Y-83559681D01*
X123497256Y-83679409D01*
X123506732Y-83708571D01*
X123510911Y-83715156D01*
X123510913Y-83715160D01*
X123582741Y-83828342D01*
X123594798Y-83847340D01*
X123658716Y-83907363D01*
X123714607Y-83959848D01*
X123713545Y-83960978D01*
X123746409Y-84000703D01*
X123757965Y-84061286D01*
X123738907Y-84119943D01*
X123693947Y-84162162D01*
X123634210Y-84177500D01*
X121759070Y-84177500D01*
X121699332Y-84162162D01*
X121654373Y-84119942D01*
X121635315Y-84061286D01*
X121646872Y-84000703D01*
X121686185Y-83953182D01*
X121715362Y-83931984D01*
X121748837Y-83907663D01*
X121853600Y-83781026D01*
X121923579Y-83632313D01*
X121954376Y-83470870D01*
X121944056Y-83306840D01*
X121893268Y-83150529D01*
X121888895Y-83143639D01*
X121839616Y-83065988D01*
X121805202Y-83011760D01*
X121685393Y-82899252D01*
X121541368Y-82820073D01*
X121533816Y-82818134D01*
X121533811Y-82818132D01*
X121389735Y-82781140D01*
X121389730Y-82781139D01*
X121382177Y-82779200D01*
X120264870Y-82779200D01*
X120206846Y-82764787D01*
X120162311Y-82724897D01*
X120141619Y-82668805D01*
X120149579Y-82609551D01*
X120184341Y-82560908D01*
X120260918Y-82495508D01*
X120276651Y-82484077D01*
X120427198Y-82391828D01*
X120444518Y-82383003D01*
X120607639Y-82315444D01*
X120626139Y-82309434D01*
X120797823Y-82268224D01*
X120817023Y-82265184D01*
X120998824Y-82250884D01*
X121008539Y-82250503D01*
X121046932Y-82250505D01*
X121046937Y-82250502D01*
X132473747Y-82250500D01*
X132530040Y-82264015D01*
X132574063Y-82301614D01*
X132596218Y-82355102D01*
X132591676Y-82412818D01*
X132561426Y-82462181D01*
X132481950Y-82541658D01*
X132477521Y-82550349D01*
X132477519Y-82550353D01*
X132429632Y-82644337D01*
X132424354Y-82654696D01*
X132422828Y-82664330D01*
X132422826Y-82664337D01*
X132408037Y-82757717D01*
X132404508Y-82780000D01*
X132406035Y-82789641D01*
X132422826Y-82895662D01*
X132422827Y-82895667D01*
X132424354Y-82905304D01*
X132428785Y-82914000D01*
X132475722Y-83006120D01*
X132481950Y-83018342D01*
X132571658Y-83108050D01*
X132684696Y-83165646D01*
X132810000Y-83185492D01*
X132935304Y-83165646D01*
X133048342Y-83108050D01*
X133138050Y-83018342D01*
X133195646Y-82905304D01*
X133215492Y-82780000D01*
X133195646Y-82654696D01*
X133138050Y-82541658D01*
X133058573Y-82462181D01*
X133028323Y-82412818D01*
X133023781Y-82355102D01*
X133045936Y-82301615D01*
X133089959Y-82264015D01*
X133146251Y-82250500D01*
X133756810Y-82250500D01*
X133817398Y-82266310D01*
G37*
G04 #@! TD.AperFunction*
M02*
