G04 #@! TF.GenerationSoftware,KiCad,Pcbnew,(7.0.0-0)*
G04 #@! TF.CreationDate,2024-01-01T11:18:48+08:00*
G04 #@! TF.ProjectId,SWDProgrammer,53574450-726f-4677-9261-6d6d65722e6b,rev?*
G04 #@! TF.SameCoordinates,Original*
G04 #@! TF.FileFunction,Soldermask,Top*
G04 #@! TF.FilePolarity,Negative*
%FSLAX46Y46*%
G04 Gerber Fmt 4.6, Leading zero omitted, Abs format (unit mm)*
G04 Created by KiCad (PCBNEW (7.0.0-0)) date 2024-01-01 11:18:48*
%MOMM*%
%LPD*%
G01*
G04 APERTURE LIST*
G04 Aperture macros list*
%AMHorizOval*
0 Thick line with rounded ends*
0 $1 width*
0 $2 $3 position (X,Y) of the first rounded end (center of the circle)*
0 $4 $5 position (X,Y) of the second rounded end (center of the circle)*
0 Add line between two ends*
20,1,$1,$2,$3,$4,$5,0*
0 Add two circle primitives to create the rounded ends*
1,1,$1,$2,$3*
1,1,$1,$4,$5*%
%AMFreePoly0*
4,1,19,0.550000,-0.750000,0.000000,-0.750000,0.000000,-0.744911,-0.071157,-0.744911,-0.207708,-0.704816,-0.327430,-0.627875,-0.420627,-0.520320,-0.479746,-0.390866,-0.500000,-0.250000,-0.500000,0.250000,-0.479746,0.390866,-0.420627,0.520320,-0.327430,0.627875,-0.207708,0.704816,-0.071157,0.744911,0.000000,0.744911,0.000000,0.750000,0.550000,0.750000,0.550000,-0.750000,0.550000,-0.750000,
$1*%
%AMFreePoly1*
4,1,19,0.000000,0.744911,0.071157,0.744911,0.207708,0.704816,0.327430,0.627875,0.420627,0.520320,0.479746,0.390866,0.500000,0.250000,0.500000,-0.250000,0.479746,-0.390866,0.420627,-0.520320,0.327430,-0.627875,0.207708,-0.704816,0.071157,-0.744911,0.000000,-0.744911,0.000000,-0.750000,-0.550000,-0.750000,-0.550000,0.750000,0.000000,0.750000,0.000000,0.744911,0.000000,0.744911,
$1*%
%AMFreePoly2*
4,1,19,0.500000,-0.750000,0.000000,-0.750000,0.000000,-0.744911,-0.071157,-0.744911,-0.207708,-0.704816,-0.327430,-0.627875,-0.420627,-0.520320,-0.479746,-0.390866,-0.500000,-0.250000,-0.500000,0.250000,-0.479746,0.390866,-0.420627,0.520320,-0.327430,0.627875,-0.207708,0.704816,-0.071157,0.744911,0.000000,0.744911,0.000000,0.750000,0.500000,0.750000,0.500000,-0.750000,0.500000,-0.750000,
$1*%
%AMFreePoly3*
4,1,19,0.000000,0.744911,0.071157,0.744911,0.207708,0.704816,0.327430,0.627875,0.420627,0.520320,0.479746,0.390866,0.500000,0.250000,0.500000,-0.250000,0.479746,-0.390866,0.420627,-0.520320,0.327430,-0.627875,0.207708,-0.704816,0.071157,-0.744911,0.000000,-0.744911,0.000000,-0.750000,-0.500000,-0.750000,-0.500000,0.750000,0.000000,0.750000,0.000000,0.744911,0.000000,0.744911,
$1*%
G04 Aperture macros list end*
%ADD10FreePoly0,180.000000*%
%ADD11R,1.000000X1.500000*%
%ADD12FreePoly1,180.000000*%
%ADD13FreePoly2,90.000000*%
%ADD14FreePoly3,90.000000*%
%ADD15FreePoly2,0.000000*%
%ADD16FreePoly3,0.000000*%
%ADD17R,0.325000X0.180000*%
%ADD18R,0.235000X0.750000*%
%ADD19R,1.040000X0.215000*%
%ADD20HorizOval,1.000000X-0.508829X0.317952X0.508829X-0.317952X0*%
%ADD21HorizOval,1.000000X-0.339219X0.211968X0.339219X-0.211968X0*%
%ADD22HorizOval,1.000000X0.594161X0.083504X-0.594161X-0.083504X0*%
%ADD23HorizOval,1.000000X0.396107X0.055669X-0.396107X-0.055669X0*%
G04 APERTURE END LIST*
D10*
X147050000Y-61557500D03*
D11*
X145749999Y-61557499D03*
D12*
X144450000Y-61557500D03*
D10*
X147000000Y-66100000D03*
D11*
X145699999Y-66099999D03*
D12*
X144400000Y-66100000D03*
D13*
X141250000Y-63100000D03*
D14*
X141250000Y-61800000D03*
D15*
X140300000Y-69200000D03*
D16*
X141600000Y-69200000D03*
D13*
X146650000Y-57150000D03*
D14*
X146650000Y-55850000D03*
D13*
X139250000Y-65900000D03*
D14*
X139250000Y-64600000D03*
D13*
X141250000Y-60350000D03*
D14*
X141250000Y-59050000D03*
D17*
X133087499Y-59099999D03*
X133087499Y-59449999D03*
X133087499Y-59799999D03*
X133087499Y-60149999D03*
X133087499Y-60499999D03*
X134862499Y-59099999D03*
X134862499Y-59449999D03*
X134862499Y-59799999D03*
X134862499Y-60149999D03*
X134862499Y-60499999D03*
D18*
X133042499Y-58364999D03*
D19*
X133974999Y-57784999D03*
D18*
X134907499Y-58364999D03*
X133042499Y-61234999D03*
D19*
X133974999Y-61814999D03*
D18*
X134907499Y-61234999D03*
D13*
X142150000Y-57050000D03*
D14*
X142150000Y-55750000D03*
D20*
X148316797Y-78015415D03*
X154225715Y-68559170D03*
D21*
X151003291Y-66545222D03*
X145094215Y-76001721D03*
D22*
X155581179Y-62080248D03*
X154029316Y-51038164D03*
D23*
X150266255Y-51566725D03*
X151818161Y-62609105D03*
M02*
