G04 #@! TF.GenerationSoftware,KiCad,Pcbnew,(7.0.0-0)*
G04 #@! TF.CreationDate,2024-02-04T16:48:37+08:00*
G04 #@! TF.ProjectId,SWDProgrammer,53574450-726f-4677-9261-6d6d65722e6b,rev?*
G04 #@! TF.SameCoordinates,Original*
G04 #@! TF.FileFunction,Legend,Top*
G04 #@! TF.FilePolarity,Positive*
%FSLAX46Y46*%
G04 Gerber Fmt 4.6, Leading zero omitted, Abs format (unit mm)*
G04 Created by KiCad (PCBNEW (7.0.0-0)) date 2024-02-04 16:48:37*
%MOMM*%
%LPD*%
G01*
G04 APERTURE LIST*
G04 Aperture macros list*
%AMRoundRect*
0 Rectangle with rounded corners*
0 $1 Rounding radius*
0 $2 $3 $4 $5 $6 $7 $8 $9 X,Y pos of 4 corners*
0 Add a 4 corners polygon primitive as box body*
4,1,4,$2,$3,$4,$5,$6,$7,$8,$9,$2,$3,0*
0 Add four circle primitives for the rounded corners*
1,1,$1+$1,$2,$3*
1,1,$1+$1,$4,$5*
1,1,$1+$1,$6,$7*
1,1,$1+$1,$8,$9*
0 Add four rect primitives between the rounded corners*
20,1,$1+$1,$2,$3,$4,$5,0*
20,1,$1+$1,$4,$5,$6,$7,0*
20,1,$1+$1,$6,$7,$8,$9,0*
20,1,$1+$1,$8,$9,$2,$3,0*%
%AMHorizOval*
0 Thick line with rounded ends*
0 $1 width*
0 $2 $3 position (X,Y) of the first rounded end (center of the circle)*
0 $4 $5 position (X,Y) of the second rounded end (center of the circle)*
0 Add line between two ends*
20,1,$1,$2,$3,$4,$5,0*
0 Add two circle primitives to create the rounded ends*
1,1,$1,$2,$3*
1,1,$1,$4,$5*%
%AMOutline5P*
0 Free polygon, 5 corners , with rotation*
0 The origin of the aperture is its center*
0 number of corners: always 5*
0 $1 to $10 corner X, Y*
0 $11 Rotation angle, in degrees counterclockwise*
0 create outline with 5 corners*
4,1,5,$1,$2,$3,$4,$5,$6,$7,$8,$9,$10,$1,$2,$11*%
%AMOutline6P*
0 Free polygon, 6 corners , with rotation*
0 The origin of the aperture is its center*
0 number of corners: always 6*
0 $1 to $12 corner X, Y*
0 $13 Rotation angle, in degrees counterclockwise*
0 create outline with 6 corners*
4,1,6,$1,$2,$3,$4,$5,$6,$7,$8,$9,$10,$11,$12,$1,$2,$13*%
%AMOutline7P*
0 Free polygon, 7 corners , with rotation*
0 The origin of the aperture is its center*
0 number of corners: always 7*
0 $1 to $14 corner X, Y*
0 $15 Rotation angle, in degrees counterclockwise*
0 create outline with 7 corners*
4,1,7,$1,$2,$3,$4,$5,$6,$7,$8,$9,$10,$11,$12,$13,$14,$1,$2,$15*%
%AMOutline8P*
0 Free polygon, 8 corners , with rotation*
0 The origin of the aperture is its center*
0 number of corners: always 8*
0 $1 to $16 corner X, Y*
0 $17 Rotation angle, in degrees counterclockwise*
0 create outline with 8 corners*
4,1,8,$1,$2,$3,$4,$5,$6,$7,$8,$9,$10,$11,$12,$13,$14,$15,$16,$1,$2,$17*%
%AMFreePoly0*
4,1,19,0.550000,-0.750000,0.000000,-0.750000,0.000000,-0.744911,-0.071157,-0.744911,-0.207708,-0.704816,-0.327430,-0.627875,-0.420627,-0.520320,-0.479746,-0.390866,-0.500000,-0.250000,-0.500000,0.250000,-0.479746,0.390866,-0.420627,0.520320,-0.327430,0.627875,-0.207708,0.704816,-0.071157,0.744911,0.000000,0.744911,0.000000,0.750000,0.550000,0.750000,0.550000,-0.750000,0.550000,-0.750000,
$1*%
%AMFreePoly1*
4,1,19,0.000000,0.744911,0.071157,0.744911,0.207708,0.704816,0.327430,0.627875,0.420627,0.520320,0.479746,0.390866,0.500000,0.250000,0.500000,-0.250000,0.479746,-0.390866,0.420627,-0.520320,0.327430,-0.627875,0.207708,-0.704816,0.071157,-0.744911,0.000000,-0.744911,0.000000,-0.750000,-0.550000,-0.750000,-0.550000,0.750000,0.000000,0.750000,0.000000,0.744911,0.000000,0.744911,
$1*%
%AMFreePoly2*
4,1,19,0.500000,-0.750000,0.000000,-0.750000,0.000000,-0.744911,-0.071157,-0.744911,-0.207708,-0.704816,-0.327430,-0.627875,-0.420627,-0.520320,-0.479746,-0.390866,-0.500000,-0.250000,-0.500000,0.250000,-0.479746,0.390866,-0.420627,0.520320,-0.327430,0.627875,-0.207708,0.704816,-0.071157,0.744911,0.000000,0.744911,0.000000,0.750000,0.500000,0.750000,0.500000,-0.750000,0.500000,-0.750000,
$1*%
%AMFreePoly3*
4,1,19,0.000000,0.744911,0.071157,0.744911,0.207708,0.704816,0.327430,0.627875,0.420627,0.520320,0.479746,0.390866,0.500000,0.250000,0.500000,-0.250000,0.479746,-0.390866,0.420627,-0.520320,0.327430,-0.627875,0.207708,-0.704816,0.071157,-0.744911,0.000000,-0.744911,0.000000,-0.750000,-0.500000,-0.750000,-0.500000,0.750000,0.000000,0.750000,0.000000,0.744911,0.000000,0.744911,
$1*%
G04 Aperture macros list end*
%ADD10C,0.300000*%
%ADD11C,0.200000*%
%ADD12C,0.100000*%
%ADD13C,0.120000*%
%ADD14C,0.150000*%
%ADD15FreePoly0,180.000000*%
%ADD16R,1.000000X1.500000*%
%ADD17FreePoly1,180.000000*%
%ADD18FreePoly2,90.000000*%
%ADD19FreePoly3,90.000000*%
%ADD20FreePoly2,0.000000*%
%ADD21FreePoly3,0.000000*%
%ADD22RoundRect,0.060000X-0.060000X-0.190000X0.060000X-0.190000X0.060000X0.190000X-0.060000X0.190000X0*%
%ADD23Outline5P,-0.200000X0.175000X0.060000X0.175000X0.200000X0.035000X0.200000X-0.175000X-0.200000X-0.175000X180.000000*%
%ADD24Outline6P,-0.130000X0.360000X0.026000X0.360000X0.130000X0.256000X0.130000X-0.256000X0.026000X-0.360000X-0.130000X-0.360000X0.000000*%
%ADD25Outline5P,-0.200000X0.035000X-0.060000X0.175000X0.200000X0.175000X0.200000X-0.175000X-0.200000X-0.175000X0.000000*%
%ADD26Outline5P,-0.200000X0.035000X-0.060000X0.175000X0.200000X0.175000X0.200000X-0.175000X-0.200000X-0.175000X180.000000*%
%ADD27Outline6P,-0.130000X0.256000X-0.026000X0.360000X0.130000X0.360000X0.130000X-0.360000X-0.026000X-0.360000X-0.130000X-0.256000X0.000000*%
%ADD28Outline5P,-0.200000X0.175000X0.060000X0.175000X0.200000X0.035000X0.200000X-0.175000X-0.200000X-0.175000X0.000000*%
%ADD29HorizOval,1.000000X-0.508829X0.317952X0.508829X-0.317952X0*%
%ADD30HorizOval,1.000000X-0.339219X0.211968X0.339219X-0.211968X0*%
%ADD31HorizOval,1.000000X0.594161X0.083504X-0.594161X-0.083504X0*%
%ADD32HorizOval,1.000000X0.396107X0.055669X-0.396107X-0.055669X0*%
G04 APERTURE END LIST*
D10*
X139735526Y-63770878D02*
G75*
G03*
X140154265Y-62427117I-9735526J3770878D01*
G01*
X136104033Y-68478281D02*
G75*
G03*
X138276481Y-66374978I-6104033J8478281D01*
G01*
X140335182Y-58522162D02*
G75*
G03*
X140000000Y-57000000I-10335182J-1477838D01*
G01*
X140000000Y-57000000D02*
G75*
G03*
X137857131Y-53125010I-10000000J-3000000D01*
G01*
D11*
X138731590Y-59656387D02*
X138255400Y-59656387D01*
X138255400Y-59656387D02*
X138207781Y-60132578D01*
X138207781Y-60132578D02*
X138255400Y-60084959D01*
X138255400Y-60084959D02*
X138350638Y-60037340D01*
X138350638Y-60037340D02*
X138588733Y-60037340D01*
X138588733Y-60037340D02*
X138683971Y-60084959D01*
X138683971Y-60084959D02*
X138731590Y-60132578D01*
X138731590Y-60132578D02*
X138779209Y-60227816D01*
X138779209Y-60227816D02*
X138779209Y-60465911D01*
X138779209Y-60465911D02*
X138731590Y-60561149D01*
X138731590Y-60561149D02*
X138683971Y-60608768D01*
X138683971Y-60608768D02*
X138588733Y-60656387D01*
X138588733Y-60656387D02*
X138350638Y-60656387D01*
X138350638Y-60656387D02*
X138255400Y-60608768D01*
X138255400Y-60608768D02*
X138207781Y-60561149D01*
X139112543Y-59989721D02*
X139350638Y-60656387D01*
X139350638Y-60656387D02*
X139588733Y-59989721D01*
X146164285Y-53582380D02*
X145688095Y-53582380D01*
X145688095Y-53582380D02*
X145640476Y-54058571D01*
X145640476Y-54058571D02*
X145688095Y-54010952D01*
X145688095Y-54010952D02*
X145783333Y-53963333D01*
X145783333Y-53963333D02*
X146021428Y-53963333D01*
X146021428Y-53963333D02*
X146116666Y-54010952D01*
X146116666Y-54010952D02*
X146164285Y-54058571D01*
X146164285Y-54058571D02*
X146211904Y-54153809D01*
X146211904Y-54153809D02*
X146211904Y-54391904D01*
X146211904Y-54391904D02*
X146164285Y-54487142D01*
X146164285Y-54487142D02*
X146116666Y-54534761D01*
X146116666Y-54534761D02*
X146021428Y-54582380D01*
X146021428Y-54582380D02*
X145783333Y-54582380D01*
X145783333Y-54582380D02*
X145688095Y-54534761D01*
X145688095Y-54534761D02*
X145640476Y-54487142D01*
X146497619Y-53582380D02*
X146830952Y-54582380D01*
X146830952Y-54582380D02*
X147164285Y-53582380D01*
G36*
X138077759Y-68785333D02*
G01*
X138086861Y-68791332D01*
X138096197Y-68794419D01*
X138106354Y-68795156D01*
X138116771Y-68793116D01*
X138126884Y-68787868D01*
X138128500Y-68786652D01*
X138149584Y-68770616D01*
X138170605Y-68754489D01*
X138191562Y-68738274D01*
X138212454Y-68721972D01*
X138233279Y-68705585D01*
X138254036Y-68689115D01*
X138274724Y-68672564D01*
X138295341Y-68655932D01*
X138315887Y-68639223D01*
X138336359Y-68622437D01*
X138356758Y-68605576D01*
X138377080Y-68588643D01*
X138397326Y-68571638D01*
X138417494Y-68554565D01*
X138437583Y-68537423D01*
X138457591Y-68520216D01*
X138477517Y-68502945D01*
X138497360Y-68485611D01*
X138517118Y-68468217D01*
X138536791Y-68450764D01*
X138556377Y-68433253D01*
X138575874Y-68415688D01*
X138595282Y-68398068D01*
X138614599Y-68380397D01*
X138633825Y-68362676D01*
X138652956Y-68344906D01*
X138671994Y-68327089D01*
X138690935Y-68309228D01*
X138709779Y-68291324D01*
X138728525Y-68273378D01*
X138747171Y-68255392D01*
X138765716Y-68237368D01*
X138777057Y-68245330D01*
X138788456Y-68253405D01*
X138799909Y-68261591D01*
X138811413Y-68269881D01*
X138822962Y-68278272D01*
X138834553Y-68286760D01*
X138846181Y-68295341D01*
X138857842Y-68304009D01*
X138869532Y-68312761D01*
X138881246Y-68321592D01*
X138892981Y-68330498D01*
X138904731Y-68339475D01*
X138916493Y-68348518D01*
X138928262Y-68357623D01*
X138940034Y-68366785D01*
X138951805Y-68376001D01*
X139047008Y-68450219D01*
X139055313Y-68455541D01*
X139066155Y-68459372D01*
X139077084Y-68460370D01*
X139087640Y-68458860D01*
X139097367Y-68455168D01*
X139105805Y-68449618D01*
X139110059Y-68445531D01*
X139116644Y-68435901D01*
X139120143Y-68426633D01*
X139121499Y-68416721D01*
X139120400Y-68406620D01*
X139116535Y-68396788D01*
X139109590Y-68387679D01*
X139107803Y-68385984D01*
X139105625Y-68384023D01*
X139098017Y-68377718D01*
X139090381Y-68371432D01*
X139082718Y-68365164D01*
X139075030Y-68358914D01*
X139067317Y-68352682D01*
X139059581Y-68346468D01*
X139051822Y-68340271D01*
X139044041Y-68334092D01*
X139036239Y-68327931D01*
X139028417Y-68321786D01*
X139020576Y-68315659D01*
X139012717Y-68309548D01*
X139004841Y-68303454D01*
X138996949Y-68297376D01*
X138989041Y-68291315D01*
X138981119Y-68285269D01*
X138973184Y-68279240D01*
X138965237Y-68273226D01*
X138957278Y-68267228D01*
X138949308Y-68261245D01*
X138941329Y-68255277D01*
X138933341Y-68249325D01*
X138925346Y-68243387D01*
X138917344Y-68237464D01*
X138909336Y-68231555D01*
X138901323Y-68225661D01*
X138893306Y-68219781D01*
X138885286Y-68213915D01*
X138877264Y-68208062D01*
X138869241Y-68202223D01*
X138861217Y-68196398D01*
X138853195Y-68190586D01*
X138841174Y-68181901D01*
X138829110Y-68173207D01*
X138816999Y-68164510D01*
X138804843Y-68155816D01*
X138792640Y-68147132D01*
X138780389Y-68138463D01*
X138768089Y-68129818D01*
X138755740Y-68121201D01*
X138743340Y-68112619D01*
X138730888Y-68104080D01*
X138718384Y-68095588D01*
X138705827Y-68087151D01*
X138693216Y-68078775D01*
X138680549Y-68070466D01*
X138667826Y-68062232D01*
X138655047Y-68054077D01*
X138642210Y-68046009D01*
X138629314Y-68038034D01*
X138616359Y-68030159D01*
X138603343Y-68022389D01*
X138590266Y-68014732D01*
X138577126Y-68007193D01*
X138563923Y-67999780D01*
X138550656Y-67992497D01*
X138537325Y-67985353D01*
X138523927Y-67978354D01*
X138510463Y-67971505D01*
X138496931Y-67964813D01*
X138483330Y-67958284D01*
X138469660Y-67951926D01*
X138455919Y-67945744D01*
X138442108Y-67939745D01*
X138431467Y-67935263D01*
X138420586Y-67930806D01*
X138409486Y-67926437D01*
X138398188Y-67922215D01*
X138386714Y-67918202D01*
X138375085Y-67914460D01*
X138363321Y-67911048D01*
X138351445Y-67908027D01*
X138339476Y-67905460D01*
X138327437Y-67903406D01*
X138315349Y-67901926D01*
X138303232Y-67901083D01*
X138291109Y-67900935D01*
X138278999Y-67901546D01*
X138266925Y-67902974D01*
X138254907Y-67905283D01*
X138245247Y-67909186D01*
X138236846Y-67915135D01*
X138233627Y-67918331D01*
X138227356Y-67927740D01*
X138223914Y-67937652D01*
X138223129Y-67948436D01*
X138225829Y-67959303D01*
X138231337Y-67967853D01*
X138234487Y-67971033D01*
X138242784Y-67976912D01*
X138252379Y-67981408D01*
X138262206Y-67984605D01*
X138273761Y-67987168D01*
X138284291Y-67988678D01*
X138295998Y-67989637D01*
X138299112Y-67989783D01*
X138310256Y-67991072D01*
X138321319Y-67992905D01*
X138332877Y-67995489D01*
X138343306Y-67998305D01*
X138355374Y-68002035D01*
X138369196Y-68006824D01*
X138379442Y-68010677D01*
X138390555Y-68015108D01*
X138402567Y-68020160D01*
X138415036Y-68025539D01*
X138427438Y-68031109D01*
X138439774Y-68036862D01*
X138452045Y-68042787D01*
X138464250Y-68048875D01*
X138476390Y-68055116D01*
X138488465Y-68061499D01*
X138500475Y-68068015D01*
X138512421Y-68074654D01*
X138524302Y-68081406D01*
X138536120Y-68088261D01*
X138547873Y-68095209D01*
X138559563Y-68102241D01*
X138571190Y-68109346D01*
X138582754Y-68116515D01*
X138594255Y-68123738D01*
X138604035Y-68129866D01*
X138613827Y-68136023D01*
X138623575Y-68142176D01*
X138633223Y-68148293D01*
X138642716Y-68154341D01*
X138651998Y-68160289D01*
X138661014Y-68166105D01*
X138669707Y-68171756D01*
X138678024Y-68177210D01*
X138688430Y-68184120D01*
X138690895Y-68185775D01*
X138673195Y-68202900D01*
X138655395Y-68219995D01*
X138637496Y-68237061D01*
X138619497Y-68254095D01*
X138601401Y-68271096D01*
X138583208Y-68288062D01*
X138564919Y-68304991D01*
X138546533Y-68321883D01*
X138528053Y-68338736D01*
X138509478Y-68355547D01*
X138490810Y-68372316D01*
X138472049Y-68389042D01*
X138453195Y-68405721D01*
X138434250Y-68422354D01*
X138415215Y-68438938D01*
X138396089Y-68455473D01*
X138376874Y-68471955D01*
X138357570Y-68488385D01*
X138338179Y-68504760D01*
X138318700Y-68521079D01*
X138299135Y-68537340D01*
X138279483Y-68553542D01*
X138259747Y-68569683D01*
X138239927Y-68585763D01*
X138220023Y-68601778D01*
X138200035Y-68617728D01*
X138179966Y-68633611D01*
X138159815Y-68649426D01*
X138139584Y-68665171D01*
X138119272Y-68680845D01*
X138098881Y-68696445D01*
X138078411Y-68711972D01*
X138073181Y-68717780D01*
X138067351Y-68726013D01*
X138063126Y-68737287D01*
X138061971Y-68749046D01*
X138063533Y-68760638D01*
X138067456Y-68771414D01*
X138073386Y-68780723D01*
X138077759Y-68785333D01*
G37*
G36*
X138553148Y-68829619D02*
G01*
X138563495Y-68832557D01*
X138572020Y-68837946D01*
X138574816Y-68840841D01*
X138580325Y-68849812D01*
X138583631Y-68860603D01*
X138584625Y-68872392D01*
X138583195Y-68884358D01*
X138579230Y-68895680D01*
X138572622Y-68905535D01*
X138572087Y-68906112D01*
X138563708Y-68912544D01*
X138554385Y-68916738D01*
X138544625Y-68919109D01*
X138532805Y-68921206D01*
X138521117Y-68924183D01*
X138509677Y-68928048D01*
X138498605Y-68932805D01*
X138488017Y-68938461D01*
X138478033Y-68945022D01*
X138468768Y-68952493D01*
X138460343Y-68960881D01*
X138454683Y-68967713D01*
X138449030Y-68975907D01*
X138444289Y-68984551D01*
X138443017Y-68987667D01*
X138439883Y-68996972D01*
X138437291Y-69009216D01*
X138436517Y-69021171D01*
X138437561Y-69032722D01*
X138440427Y-69043757D01*
X138445116Y-69054161D01*
X138451631Y-69063820D01*
X138459973Y-69072622D01*
X138469666Y-69079377D01*
X138473973Y-69081975D01*
X138482863Y-69086780D01*
X138492080Y-69091069D01*
X138501573Y-69094847D01*
X138511293Y-69098119D01*
X138521187Y-69100891D01*
X138531207Y-69103168D01*
X138541301Y-69104955D01*
X138551419Y-69106257D01*
X138561511Y-69107079D01*
X138571527Y-69107427D01*
X138581416Y-69107305D01*
X138595901Y-69106254D01*
X138609817Y-69104176D01*
X138622993Y-69101088D01*
X138621964Y-69098778D01*
X138618385Y-69089329D01*
X138615575Y-69079754D01*
X138613269Y-69069071D01*
X138611719Y-69057519D01*
X138611271Y-69049003D01*
X138700535Y-69049003D01*
X138700960Y-69057563D01*
X138701753Y-69056679D01*
X138708697Y-69048618D01*
X138716008Y-69039374D01*
X138722375Y-69029929D01*
X138724894Y-69019307D01*
X138718359Y-69016709D01*
X138716855Y-69016290D01*
X138707430Y-69019357D01*
X138703006Y-69027844D01*
X138700983Y-69038552D01*
X138700535Y-69049003D01*
X138611271Y-69049003D01*
X138611187Y-69047403D01*
X138611495Y-69035338D01*
X138612882Y-69023334D01*
X138615308Y-69011527D01*
X138618736Y-69000053D01*
X138623129Y-68989047D01*
X138628450Y-68978645D01*
X138634661Y-68968983D01*
X138641724Y-68960196D01*
X138648777Y-68953128D01*
X138656540Y-68946792D01*
X138664956Y-68941228D01*
X138673967Y-68936477D01*
X138683517Y-68932582D01*
X138693551Y-68929584D01*
X138704010Y-68927525D01*
X138714839Y-68926445D01*
X138719808Y-68926493D01*
X138731989Y-68927591D01*
X138743711Y-68930002D01*
X138754825Y-68933623D01*
X138765183Y-68938351D01*
X138774637Y-68944082D01*
X138783040Y-68950714D01*
X138787292Y-68954815D01*
X138794935Y-68963858D01*
X138801352Y-68973908D01*
X138806450Y-68984835D01*
X138810139Y-68996504D01*
X138812325Y-69008783D01*
X138812917Y-69021538D01*
X138812260Y-69031338D01*
X138810614Y-69041275D01*
X138808101Y-69051043D01*
X138804877Y-69060753D01*
X138800978Y-69070341D01*
X138796439Y-69079741D01*
X138791294Y-69088889D01*
X138785580Y-69097720D01*
X138779331Y-69106170D01*
X138772583Y-69114174D01*
X138752210Y-69128040D01*
X138754088Y-69126979D01*
X138762630Y-69132163D01*
X138772531Y-69140173D01*
X138782571Y-69147989D01*
X138792741Y-69155625D01*
X138803034Y-69163094D01*
X138813439Y-69170409D01*
X138823950Y-69177584D01*
X138834558Y-69184630D01*
X138845254Y-69191563D01*
X138856029Y-69198393D01*
X138866876Y-69205136D01*
X138877786Y-69211803D01*
X138888750Y-69218408D01*
X138899761Y-69224964D01*
X138910809Y-69231484D01*
X138921886Y-69237981D01*
X138932984Y-69244468D01*
X138941026Y-69249408D01*
X138944499Y-69252942D01*
X138950911Y-69262971D01*
X138954294Y-69274145D01*
X138954919Y-69285762D01*
X138953059Y-69297118D01*
X138948986Y-69307510D01*
X138942971Y-69316235D01*
X138940806Y-69318443D01*
X138931655Y-69324851D01*
X138922269Y-69328310D01*
X138911934Y-69329425D01*
X138901098Y-69327756D01*
X138892010Y-69323921D01*
X138879667Y-69316755D01*
X138867149Y-69309528D01*
X138854491Y-69302225D01*
X138841732Y-69294832D01*
X138828909Y-69287332D01*
X138816058Y-69279711D01*
X138803218Y-69271954D01*
X138790425Y-69264045D01*
X138777716Y-69255970D01*
X138765129Y-69247713D01*
X138752701Y-69239260D01*
X138740469Y-69230594D01*
X138728471Y-69221701D01*
X138716743Y-69212567D01*
X138705322Y-69203174D01*
X138694247Y-69193510D01*
X138677821Y-69177077D01*
X138662254Y-69182455D01*
X138645721Y-69186940D01*
X138628377Y-69190503D01*
X138610376Y-69193112D01*
X138591871Y-69194735D01*
X138573016Y-69195343D01*
X138553966Y-69194904D01*
X138534874Y-69193388D01*
X138515894Y-69190763D01*
X138497180Y-69186999D01*
X138478886Y-69182065D01*
X138461166Y-69175930D01*
X138444174Y-69168563D01*
X138428064Y-69159934D01*
X138412989Y-69150011D01*
X138399104Y-69138763D01*
X138396296Y-69136161D01*
X138389436Y-69129168D01*
X138382865Y-69121541D01*
X138376655Y-69113361D01*
X138370876Y-69104705D01*
X138365601Y-69095655D01*
X138360901Y-69086288D01*
X138356717Y-69076194D01*
X138353305Y-69065886D01*
X138350650Y-69055405D01*
X138348733Y-69044787D01*
X138347539Y-69034073D01*
X138347051Y-69023301D01*
X138347252Y-69012511D01*
X138348126Y-69001740D01*
X138349655Y-68991028D01*
X138351823Y-68980414D01*
X138354613Y-68969937D01*
X138358009Y-68959635D01*
X138361993Y-68949547D01*
X138366550Y-68939713D01*
X138371662Y-68930171D01*
X138377313Y-68920959D01*
X138392585Y-68902173D01*
X138399877Y-68894505D01*
X138407521Y-68887289D01*
X138415495Y-68880517D01*
X138423777Y-68874181D01*
X138432348Y-68868273D01*
X138441186Y-68862787D01*
X138450269Y-68857715D01*
X138459577Y-68853048D01*
X138469088Y-68848781D01*
X138478781Y-68844905D01*
X138488635Y-68841412D01*
X138498629Y-68838296D01*
X138508742Y-68835548D01*
X138518952Y-68833162D01*
X138529238Y-68831129D01*
X138539580Y-68829443D01*
X138543013Y-68829138D01*
X138553148Y-68829619D01*
G37*
G36*
X139214768Y-69776892D02*
G01*
X139222884Y-69783675D01*
X139231407Y-69789939D01*
X139240178Y-69795790D01*
X139249040Y-69801334D01*
X139254084Y-69804404D01*
X139269671Y-69812971D01*
X139285646Y-69820980D01*
X139301967Y-69828469D01*
X139318596Y-69835474D01*
X139335492Y-69842033D01*
X139352616Y-69848182D01*
X139369927Y-69853957D01*
X139387386Y-69859397D01*
X139404954Y-69864536D01*
X139422589Y-69869413D01*
X139440252Y-69874065D01*
X139457904Y-69878527D01*
X139475504Y-69882836D01*
X139493013Y-69887030D01*
X139510390Y-69891146D01*
X139527596Y-69895219D01*
X139538215Y-69896462D01*
X139548214Y-69895227D01*
X139558406Y-69891280D01*
X139566750Y-69885184D01*
X139568483Y-69883392D01*
X139574149Y-69874899D01*
X139577847Y-69864586D01*
X139579393Y-69853251D01*
X139578604Y-69841691D01*
X139575296Y-69830703D01*
X139569285Y-69821085D01*
X139566083Y-69817799D01*
X139557838Y-69812210D01*
X139548463Y-69808634D01*
X139545153Y-69807828D01*
X139526242Y-69803322D01*
X139516595Y-69800972D01*
X139506844Y-69798557D01*
X139497009Y-69796077D01*
X139487111Y-69793534D01*
X139477167Y-69790926D01*
X139467198Y-69788255D01*
X139457221Y-69785521D01*
X139447258Y-69782724D01*
X139437326Y-69779864D01*
X139427446Y-69776942D01*
X139417635Y-69773958D01*
X139407915Y-69770912D01*
X139398303Y-69767804D01*
X139388819Y-69764635D01*
X139379483Y-69761406D01*
X139361328Y-69754765D01*
X139343994Y-69747884D01*
X139327634Y-69740765D01*
X139312401Y-69733410D01*
X139298451Y-69725822D01*
X139285935Y-69718003D01*
X139275009Y-69709956D01*
X139270191Y-69705848D01*
X139268158Y-69703360D01*
X139269441Y-69690930D01*
X139271373Y-69678962D01*
X139273753Y-69667363D01*
X139276382Y-69656037D01*
X139279057Y-69644890D01*
X139281579Y-69633827D01*
X139283746Y-69622753D01*
X139285357Y-69611574D01*
X139286213Y-69600196D01*
X139286112Y-69588523D01*
X139285414Y-69580531D01*
X139283273Y-69569766D01*
X139280449Y-69559366D01*
X139276967Y-69549331D01*
X139272854Y-69539660D01*
X139268136Y-69530352D01*
X139262841Y-69521407D01*
X139256994Y-69512824D01*
X139250621Y-69504603D01*
X139243750Y-69496743D01*
X139236407Y-69489245D01*
X139231263Y-69484446D01*
X139221323Y-69476058D01*
X139210756Y-69468187D01*
X139199646Y-69460847D01*
X139188076Y-69454053D01*
X139176133Y-69447819D01*
X139163900Y-69442159D01*
X139151462Y-69437088D01*
X139138903Y-69432620D01*
X139126308Y-69428770D01*
X139113761Y-69425551D01*
X139105466Y-69423764D01*
X139095366Y-69421888D01*
X139085198Y-69420172D01*
X139074984Y-69418570D01*
X139064748Y-69417040D01*
X139054510Y-69415535D01*
X139044295Y-69414013D01*
X139034123Y-69412428D01*
X139024019Y-69410738D01*
X139014004Y-69408896D01*
X139004101Y-69406860D01*
X138994332Y-69404585D01*
X138984721Y-69402026D01*
X138975288Y-69399140D01*
X138966058Y-69395882D01*
X138952640Y-69390201D01*
X138948293Y-69388073D01*
X138939504Y-69382794D01*
X138931123Y-69377459D01*
X138925004Y-69372691D01*
X138918103Y-69365537D01*
X138919186Y-69355461D01*
X138924211Y-69347656D01*
X138932576Y-69339862D01*
X138941910Y-69333442D01*
X138952017Y-69327805D01*
X138962699Y-69322359D01*
X138971527Y-69317743D01*
X138980495Y-69312569D01*
X138989503Y-69306533D01*
X138995452Y-69297320D01*
X138998238Y-69287103D01*
X138998252Y-69276492D01*
X138995888Y-69266095D01*
X138991537Y-69256521D01*
X138985591Y-69248379D01*
X138982854Y-69245659D01*
X138974891Y-69239830D01*
X138965568Y-69235554D01*
X138955296Y-69233344D01*
X138944483Y-69233711D01*
X138933541Y-69237167D01*
X138929936Y-69239094D01*
X138920092Y-69244548D01*
X138910183Y-69250195D01*
X138900332Y-69256086D01*
X138890660Y-69262273D01*
X138881291Y-69268809D01*
X138872345Y-69275747D01*
X138863947Y-69283138D01*
X138856217Y-69291035D01*
X138849604Y-69299204D01*
X138843980Y-69307869D01*
X138839339Y-69316952D01*
X138835676Y-69326379D01*
X138832984Y-69336072D01*
X138831258Y-69345954D01*
X138830492Y-69355950D01*
X138830680Y-69365982D01*
X138831816Y-69375976D01*
X138833895Y-69385853D01*
X138836911Y-69395537D01*
X138840859Y-69404953D01*
X138845731Y-69414023D01*
X138851523Y-69422672D01*
X138858229Y-69430822D01*
X138865842Y-69438397D01*
X138876079Y-69446882D01*
X138886937Y-69454541D01*
X138898352Y-69461431D01*
X138910258Y-69467610D01*
X138922589Y-69473133D01*
X138935282Y-69478060D01*
X138948269Y-69482446D01*
X138961485Y-69486348D01*
X138974866Y-69489825D01*
X138988345Y-69492932D01*
X139001858Y-69495728D01*
X139015338Y-69498269D01*
X139028721Y-69500613D01*
X139041942Y-69502816D01*
X139054934Y-69504936D01*
X139067632Y-69507029D01*
X139078002Y-69509111D01*
X139088431Y-69511414D01*
X139098847Y-69513996D01*
X139109181Y-69516912D01*
X139119363Y-69520217D01*
X139129324Y-69523969D01*
X139138993Y-69528221D01*
X139148302Y-69533032D01*
X139157180Y-69538455D01*
X139165558Y-69544547D01*
X139170830Y-69549007D01*
X139181829Y-69560883D01*
X139187752Y-69569463D01*
X139193126Y-69582899D01*
X139195005Y-69596970D01*
X139194196Y-69611623D01*
X139192564Y-69621691D01*
X139190335Y-69631980D01*
X139187749Y-69642476D01*
X139185047Y-69653163D01*
X139182467Y-69664027D01*
X139180248Y-69675051D01*
X139178630Y-69686222D01*
X139177853Y-69697523D01*
X139178155Y-69708941D01*
X139179777Y-69720459D01*
X139181157Y-69726251D01*
X139185330Y-69737137D01*
X139190586Y-69747399D01*
X139196834Y-69757020D01*
X139203984Y-69765986D01*
X139211948Y-69774279D01*
X139214768Y-69776892D01*
G37*
G36*
X139688509Y-69758882D02*
G01*
X139706417Y-69761211D01*
X139724168Y-69765094D01*
X139741614Y-69770512D01*
X139758608Y-69777447D01*
X139775001Y-69785879D01*
X139790647Y-69795789D01*
X139805397Y-69807160D01*
X139806305Y-69807977D01*
X139809742Y-69811437D01*
X139816059Y-69820958D01*
X139819367Y-69831281D01*
X139819974Y-69841857D01*
X139818189Y-69852135D01*
X139814318Y-69861564D01*
X139808669Y-69869594D01*
X139804411Y-69873685D01*
X139795953Y-69879256D01*
X139786202Y-69882976D01*
X139775626Y-69884507D01*
X139764694Y-69883513D01*
X139753875Y-69879655D01*
X139745618Y-69874281D01*
X139741720Y-69871230D01*
X139733630Y-69865566D01*
X139725200Y-69860516D01*
X139712058Y-69854166D01*
X139698513Y-69849389D01*
X139684782Y-69846303D01*
X139671082Y-69845022D01*
X139657631Y-69845664D01*
X139644646Y-69848343D01*
X139632344Y-69853176D01*
X139620942Y-69860279D01*
X139610659Y-69869767D01*
X139600071Y-69885541D01*
X139597856Y-69889609D01*
X139593543Y-69899914D01*
X139591095Y-69910274D01*
X139590659Y-69920519D01*
X139592379Y-69930479D01*
X139596401Y-69939984D01*
X139602871Y-69948864D01*
X139607772Y-69953277D01*
X139609150Y-69954487D01*
X139618058Y-69960982D01*
X139627719Y-69965868D01*
X139637677Y-69968733D01*
X139647470Y-69969162D01*
X139658075Y-69966033D01*
X139661635Y-69964448D01*
X139672446Y-69961512D01*
X139683153Y-69961118D01*
X139693374Y-69963024D01*
X139702727Y-69966991D01*
X139710830Y-69972780D01*
X139717940Y-69981385D01*
X139722653Y-69992039D01*
X139724440Y-70001989D01*
X139724020Y-70012492D01*
X139721147Y-70023154D01*
X139715573Y-70033580D01*
X139664961Y-70100740D01*
X139675749Y-70103676D01*
X139686597Y-70106670D01*
X139697503Y-70109724D01*
X139708464Y-70112837D01*
X139719477Y-70116007D01*
X139730539Y-70119236D01*
X139741647Y-70122523D01*
X139752798Y-70125867D01*
X139763989Y-70129268D01*
X139775217Y-70132726D01*
X139786479Y-70136240D01*
X139797772Y-70139811D01*
X139809093Y-70143439D01*
X139820439Y-70147121D01*
X139831807Y-70150860D01*
X139843194Y-70154653D01*
X139854597Y-70158501D01*
X139866013Y-70162404D01*
X139877440Y-70166362D01*
X139888873Y-70170373D01*
X139900310Y-70174438D01*
X139911749Y-70178556D01*
X139923185Y-70182728D01*
X139934617Y-70186953D01*
X139946041Y-70191230D01*
X139957454Y-70195559D01*
X139968853Y-70199941D01*
X139980235Y-70204374D01*
X139991598Y-70208859D01*
X140002937Y-70213394D01*
X140014251Y-70217981D01*
X140025536Y-70222619D01*
X140037825Y-70229411D01*
X140041037Y-70232668D01*
X140046892Y-70241773D01*
X140049869Y-70251799D01*
X140050255Y-70262175D01*
X140048338Y-70272334D01*
X140044403Y-70281705D01*
X140038737Y-70289720D01*
X140036452Y-70292071D01*
X140028417Y-70298216D01*
X140018981Y-70302684D01*
X140008614Y-70305067D01*
X139997789Y-70304956D01*
X139986976Y-70301945D01*
X139977119Y-70298657D01*
X139965628Y-70294345D01*
X139954114Y-70290066D01*
X139942579Y-70285819D01*
X139931023Y-70281604D01*
X139919450Y-70277423D01*
X139907860Y-70273275D01*
X139896255Y-70269161D01*
X139884637Y-70265080D01*
X139873008Y-70261034D01*
X139861368Y-70257023D01*
X139849720Y-70253046D01*
X139838065Y-70249105D01*
X139826405Y-70245199D01*
X139814742Y-70241330D01*
X139803077Y-70237496D01*
X139791411Y-70233699D01*
X139779747Y-70229940D01*
X139768087Y-70226217D01*
X139756430Y-70222532D01*
X139744780Y-70218884D01*
X139733139Y-70215275D01*
X139721506Y-70211705D01*
X139709885Y-70208173D01*
X139698277Y-70204681D01*
X139686683Y-70201228D01*
X139675105Y-70197815D01*
X139663546Y-70194442D01*
X139652005Y-70191110D01*
X139640485Y-70187818D01*
X139628989Y-70184568D01*
X139617516Y-70181359D01*
X139606069Y-70178192D01*
X139604925Y-70179462D01*
X139394744Y-70458885D01*
X139392424Y-70461846D01*
X139385353Y-70470580D01*
X139378143Y-70479121D01*
X139370839Y-70487508D01*
X139363483Y-70495778D01*
X139356119Y-70503972D01*
X139350084Y-70510623D01*
X139340918Y-70520518D01*
X139331617Y-70530300D01*
X139322176Y-70539953D01*
X139312594Y-70549460D01*
X139302868Y-70558803D01*
X139292995Y-70567965D01*
X139282972Y-70576931D01*
X139272797Y-70585681D01*
X139262468Y-70594201D01*
X139251981Y-70602473D01*
X139243988Y-70608485D01*
X139235877Y-70614370D01*
X139227653Y-70620124D01*
X139219318Y-70625745D01*
X139210876Y-70631228D01*
X139202330Y-70636571D01*
X139193682Y-70641769D01*
X139184937Y-70646820D01*
X139176096Y-70651719D01*
X139167164Y-70656463D01*
X139158144Y-70661049D01*
X139149038Y-70665473D01*
X139139850Y-70669731D01*
X139130582Y-70673821D01*
X139121239Y-70677739D01*
X139111823Y-70681481D01*
X139102337Y-70685044D01*
X139092785Y-70688424D01*
X139083169Y-70691617D01*
X139073493Y-70694621D01*
X139063760Y-70697432D01*
X139053973Y-70700046D01*
X139044135Y-70702460D01*
X139034249Y-70704670D01*
X139024319Y-70706673D01*
X139014348Y-70708466D01*
X139004338Y-70710044D01*
X138994293Y-70711404D01*
X138984216Y-70712544D01*
X138974110Y-70713459D01*
X138963978Y-70714145D01*
X138953824Y-70714600D01*
X138942840Y-70714776D01*
X138931843Y-70714674D01*
X138920841Y-70714296D01*
X138909840Y-70713645D01*
X138898847Y-70712723D01*
X138887867Y-70711532D01*
X138876909Y-70710077D01*
X138865977Y-70708357D01*
X138855080Y-70706378D01*
X138844223Y-70704140D01*
X138833414Y-70701646D01*
X138822658Y-70698899D01*
X138811963Y-70695902D01*
X138801334Y-70692656D01*
X138790779Y-70689165D01*
X138780304Y-70685431D01*
X138769916Y-70681455D01*
X138759621Y-70677242D01*
X138749426Y-70672793D01*
X138739337Y-70668111D01*
X138729362Y-70663199D01*
X138719506Y-70658058D01*
X138709776Y-70652692D01*
X138700179Y-70647102D01*
X138690722Y-70641292D01*
X138681410Y-70635264D01*
X138672252Y-70629020D01*
X138663252Y-70622563D01*
X138654418Y-70615895D01*
X138645757Y-70609020D01*
X138637275Y-70601938D01*
X138628978Y-70594654D01*
X138621152Y-70587427D01*
X138613474Y-70579967D01*
X138605952Y-70572282D01*
X138598596Y-70564376D01*
X138591415Y-70556257D01*
X138584419Y-70547930D01*
X138577617Y-70539401D01*
X138571018Y-70530676D01*
X138564632Y-70521762D01*
X138558469Y-70512665D01*
X138552538Y-70503390D01*
X138546848Y-70493944D01*
X138541409Y-70484333D01*
X138536230Y-70474563D01*
X138531321Y-70464640D01*
X138526691Y-70454570D01*
X138520798Y-70440952D01*
X138515569Y-70427096D01*
X138511014Y-70413030D01*
X138507146Y-70398785D01*
X138503976Y-70384391D01*
X138501516Y-70369878D01*
X138499779Y-70355276D01*
X138498776Y-70340615D01*
X138498637Y-70332649D01*
X138587349Y-70332649D01*
X138587896Y-70343568D01*
X138589032Y-70354461D01*
X138590742Y-70365317D01*
X138593010Y-70376124D01*
X138595823Y-70386869D01*
X138599164Y-70397542D01*
X138603020Y-70408131D01*
X138607376Y-70418623D01*
X138612216Y-70429006D01*
X138617527Y-70439269D01*
X138623292Y-70449399D01*
X138629498Y-70459386D01*
X138635557Y-70468864D01*
X138641965Y-70478083D01*
X138648729Y-70487060D01*
X138655857Y-70495814D01*
X138663355Y-70504362D01*
X138671230Y-70512721D01*
X138679489Y-70520911D01*
X138688139Y-70528948D01*
X138696233Y-70536017D01*
X138704548Y-70542849D01*
X138713075Y-70549440D01*
X138721807Y-70555785D01*
X138730735Y-70561882D01*
X138739851Y-70567726D01*
X138749147Y-70573312D01*
X138758615Y-70578637D01*
X138768247Y-70583697D01*
X138778035Y-70588488D01*
X138787969Y-70593006D01*
X138798043Y-70597246D01*
X138808248Y-70601205D01*
X138818576Y-70604879D01*
X138829018Y-70608263D01*
X138839568Y-70611353D01*
X138850215Y-70614146D01*
X138860953Y-70616638D01*
X138871773Y-70618824D01*
X138882667Y-70620700D01*
X138893626Y-70622263D01*
X138904643Y-70623508D01*
X138915710Y-70624431D01*
X138926818Y-70625029D01*
X138937959Y-70625297D01*
X138949125Y-70625230D01*
X138960308Y-70624826D01*
X138971499Y-70624081D01*
X138982691Y-70622989D01*
X138993875Y-70621547D01*
X139005044Y-70619751D01*
X139016188Y-70617597D01*
X139035020Y-70613032D01*
X139053489Y-70607639D01*
X139071594Y-70601448D01*
X139089335Y-70594489D01*
X139106709Y-70586789D01*
X139123716Y-70578379D01*
X139140355Y-70569287D01*
X139156624Y-70559543D01*
X139172521Y-70549176D01*
X139188046Y-70538216D01*
X139203198Y-70526690D01*
X139217975Y-70514630D01*
X139232375Y-70502063D01*
X139246399Y-70489019D01*
X139260043Y-70475527D01*
X139273308Y-70461617D01*
X139291122Y-70441833D01*
X139301485Y-70430132D01*
X139311628Y-70418316D01*
X139321573Y-70406394D01*
X139331343Y-70394373D01*
X139340960Y-70382265D01*
X139350445Y-70370077D01*
X139359820Y-70357820D01*
X139369108Y-70345502D01*
X139378330Y-70333133D01*
X139387509Y-70320722D01*
X139396666Y-70308278D01*
X139405824Y-70295811D01*
X139415004Y-70283329D01*
X139424229Y-70270842D01*
X139433520Y-70258359D01*
X139442900Y-70245890D01*
X139512107Y-70154062D01*
X139506465Y-70152536D01*
X139495799Y-70149777D01*
X139486296Y-70147407D01*
X139476089Y-70144924D01*
X139465326Y-70142357D01*
X139454156Y-70139734D01*
X139442724Y-70137085D01*
X139431179Y-70134437D01*
X139418952Y-70131738D01*
X139406714Y-70129073D01*
X139394465Y-70126446D01*
X139382206Y-70123859D01*
X139369937Y-70121316D01*
X139357658Y-70118818D01*
X139345369Y-70116368D01*
X139333072Y-70113969D01*
X139320766Y-70111625D01*
X139308452Y-70109337D01*
X139296131Y-70107108D01*
X139283801Y-70104942D01*
X139271465Y-70102840D01*
X139259122Y-70100806D01*
X139246772Y-70098842D01*
X139234416Y-70096952D01*
X139222055Y-70095137D01*
X139209689Y-70093400D01*
X139197317Y-70091745D01*
X139184941Y-70090174D01*
X139172561Y-70088690D01*
X139160177Y-70087295D01*
X139147789Y-70085992D01*
X139135399Y-70084785D01*
X139123005Y-70083675D01*
X139110610Y-70082665D01*
X139098212Y-70081758D01*
X139085812Y-70080958D01*
X139073412Y-70080266D01*
X139061010Y-70079685D01*
X139048608Y-70079219D01*
X139036206Y-70078869D01*
X139025906Y-70078602D01*
X139015599Y-70078412D01*
X139005288Y-70078306D01*
X138994976Y-70078289D01*
X138984666Y-70078366D01*
X138974361Y-70078544D01*
X138964066Y-70078828D01*
X138953782Y-70079224D01*
X138943513Y-70079739D01*
X138933263Y-70080377D01*
X138923034Y-70081145D01*
X138912829Y-70082048D01*
X138902653Y-70083093D01*
X138892507Y-70084285D01*
X138882396Y-70085630D01*
X138872322Y-70087133D01*
X138862288Y-70088801D01*
X138852298Y-70090640D01*
X138842355Y-70092655D01*
X138832463Y-70094851D01*
X138822623Y-70097236D01*
X138812840Y-70099814D01*
X138803117Y-70102592D01*
X138793456Y-70105575D01*
X138783862Y-70108769D01*
X138774336Y-70112180D01*
X138764884Y-70115814D01*
X138755506Y-70119676D01*
X138746208Y-70123773D01*
X138736991Y-70128110D01*
X138727860Y-70132693D01*
X138718817Y-70137528D01*
X138707427Y-70143703D01*
X138696690Y-70150142D01*
X138686517Y-70156904D01*
X138676820Y-70164049D01*
X138667511Y-70171635D01*
X138658501Y-70179722D01*
X138649704Y-70188370D01*
X138641030Y-70197638D01*
X138629100Y-70210888D01*
X138622497Y-70219384D01*
X138616372Y-70228309D01*
X138610753Y-70237628D01*
X138605672Y-70247309D01*
X138601160Y-70257317D01*
X138597246Y-70267618D01*
X138593963Y-70278177D01*
X138591339Y-70288961D01*
X138589385Y-70299862D01*
X138588078Y-70310785D01*
X138587404Y-70321718D01*
X138587349Y-70332649D01*
X138498637Y-70332649D01*
X138498520Y-70325925D01*
X138499022Y-70311236D01*
X138500294Y-70296578D01*
X138502348Y-70281981D01*
X138505197Y-70267476D01*
X138508851Y-70253091D01*
X138513324Y-70238858D01*
X138518627Y-70224806D01*
X138523391Y-70212967D01*
X138528798Y-70201509D01*
X138534809Y-70190408D01*
X138541380Y-70179643D01*
X138548470Y-70169190D01*
X138556037Y-70159029D01*
X138564040Y-70149137D01*
X138572437Y-70139492D01*
X138579903Y-70131476D01*
X138587642Y-70123695D01*
X138595639Y-70116149D01*
X138603882Y-70108835D01*
X138612354Y-70101754D01*
X138621042Y-70094904D01*
X138629931Y-70088284D01*
X138639007Y-70081894D01*
X138648254Y-70075731D01*
X138657659Y-70069795D01*
X138667208Y-70064086D01*
X138676885Y-70058601D01*
X138686675Y-70053341D01*
X138696566Y-70048304D01*
X138706542Y-70043488D01*
X138716588Y-70038894D01*
X138727394Y-70034236D01*
X138738294Y-70029849D01*
X138749282Y-70025727D01*
X138760355Y-70021862D01*
X138771507Y-70018248D01*
X138782732Y-70014878D01*
X138794027Y-70011746D01*
X138805386Y-70008845D01*
X138816805Y-70006168D01*
X138828278Y-70003709D01*
X138839801Y-70001461D01*
X138851368Y-69999418D01*
X138862975Y-69997572D01*
X138874617Y-69995918D01*
X138886289Y-69994448D01*
X138897986Y-69993156D01*
X138909703Y-69992035D01*
X138921435Y-69991079D01*
X138933177Y-69990280D01*
X138944925Y-69989633D01*
X138956674Y-69989131D01*
X138968418Y-69988766D01*
X138980152Y-69988533D01*
X138991873Y-69988425D01*
X139003574Y-69988434D01*
X139015251Y-69988555D01*
X139026899Y-69988781D01*
X139038514Y-69989105D01*
X139050089Y-69989520D01*
X139061621Y-69990020D01*
X139073105Y-69990598D01*
X139084534Y-69991248D01*
X139098098Y-69992206D01*
X139111651Y-69993258D01*
X139125193Y-69994403D01*
X139138723Y-69995640D01*
X139152242Y-69996967D01*
X139165750Y-69998382D01*
X139179247Y-69999884D01*
X139192732Y-70001472D01*
X139206207Y-70003144D01*
X139219669Y-70004899D01*
X139233121Y-70006735D01*
X139246561Y-70008652D01*
X139259990Y-70010646D01*
X139273407Y-70012717D01*
X139286813Y-70014864D01*
X139300208Y-70017085D01*
X139313591Y-70019378D01*
X139326963Y-70021742D01*
X139340323Y-70024176D01*
X139353672Y-70026679D01*
X139367010Y-70029247D01*
X139380336Y-70031882D01*
X139393650Y-70034580D01*
X139406953Y-70037340D01*
X139420245Y-70040161D01*
X139433525Y-70043042D01*
X139446794Y-70045980D01*
X139460051Y-70048976D01*
X139473296Y-70052026D01*
X139486530Y-70055130D01*
X139499752Y-70058286D01*
X139512963Y-70061492D01*
X139571127Y-70075739D01*
X139592991Y-70047441D01*
X139585569Y-70044407D01*
X139576306Y-70039416D01*
X139567514Y-70033838D01*
X139558475Y-70027282D01*
X139549699Y-70019963D01*
X139542607Y-70013127D01*
X139535987Y-70005811D01*
X139529872Y-69998041D01*
X139524295Y-69989843D01*
X139519287Y-69981244D01*
X139514881Y-69972269D01*
X139511110Y-69962944D01*
X139508006Y-69953296D01*
X139505602Y-69943348D01*
X139503931Y-69933129D01*
X139503024Y-69922664D01*
X139502914Y-69911978D01*
X139503635Y-69901097D01*
X139505217Y-69890048D01*
X139507695Y-69878857D01*
X139511100Y-69867548D01*
X139511879Y-69865504D01*
X139516074Y-69855495D01*
X139520744Y-69845877D01*
X139525848Y-69836705D01*
X139531346Y-69828031D01*
X139537197Y-69819910D01*
X139544626Y-69810968D01*
X139557304Y-69798462D01*
X139571154Y-69787679D01*
X139586027Y-69778601D01*
X139601778Y-69771209D01*
X139618257Y-69765485D01*
X139635317Y-69761409D01*
X139652811Y-69758962D01*
X139670591Y-69758126D01*
X139688509Y-69758882D01*
G37*
G36*
X139970616Y-70478166D02*
G01*
X139978629Y-70484846D01*
X139987196Y-70491035D01*
X139996183Y-70496732D01*
X140005456Y-70501936D01*
X140014881Y-70506645D01*
X140024326Y-70510859D01*
X140033655Y-70514576D01*
X140042735Y-70517795D01*
X140054453Y-70521090D01*
X140066261Y-70523793D01*
X140078145Y-70525940D01*
X140090090Y-70527568D01*
X140102082Y-70528714D01*
X140114106Y-70529416D01*
X140126148Y-70529710D01*
X140138192Y-70529633D01*
X140150226Y-70529222D01*
X140162233Y-70528514D01*
X140174200Y-70527547D01*
X140186112Y-70526357D01*
X140197955Y-70524981D01*
X140209713Y-70523456D01*
X140221373Y-70521819D01*
X140232920Y-70520107D01*
X140243195Y-70517162D01*
X140251751Y-70512362D01*
X140259483Y-70505571D01*
X140265845Y-70496171D01*
X140269764Y-70485317D01*
X140271244Y-70473756D01*
X140270289Y-70462237D01*
X140266902Y-70451507D01*
X140261087Y-70442314D01*
X140258082Y-70439235D01*
X140249617Y-70433767D01*
X140239309Y-70430708D01*
X140229016Y-70430220D01*
X140225460Y-70430568D01*
X140211848Y-70432673D01*
X140198142Y-70434688D01*
X140184366Y-70436527D01*
X140170545Y-70438103D01*
X140156704Y-70439329D01*
X140142866Y-70440117D01*
X140129057Y-70440383D01*
X140115300Y-70440038D01*
X140101621Y-70438995D01*
X140088044Y-70437169D01*
X140079062Y-70435473D01*
X140068571Y-70432455D01*
X140058573Y-70428649D01*
X140049050Y-70423988D01*
X140039985Y-70418405D01*
X140031360Y-70411833D01*
X140028580Y-70409410D01*
X140022649Y-70399984D01*
X140022746Y-70388012D01*
X140026395Y-70376294D01*
X140031718Y-70365167D01*
X140036730Y-70356512D01*
X140043056Y-70346789D01*
X140050821Y-70335932D01*
X140060148Y-70323875D01*
X140065436Y-70317375D01*
X140082106Y-70298862D01*
X140088787Y-70291537D01*
X140095561Y-70284300D01*
X140102422Y-70277148D01*
X140109367Y-70270081D01*
X140116392Y-70263097D01*
X140123494Y-70256195D01*
X140130667Y-70249373D01*
X140137908Y-70242630D01*
X140145214Y-70235966D01*
X140152579Y-70229378D01*
X140160001Y-70222865D01*
X140167475Y-70216427D01*
X140174997Y-70210061D01*
X140182564Y-70203767D01*
X140190171Y-70197543D01*
X140197815Y-70191388D01*
X140205490Y-70185301D01*
X140213195Y-70179280D01*
X140228673Y-70167433D01*
X140244217Y-70155837D01*
X140259796Y-70144480D01*
X140275378Y-70133353D01*
X140290931Y-70122446D01*
X140306424Y-70111748D01*
X140321825Y-70101250D01*
X140322551Y-70101903D01*
X140330611Y-70107737D01*
X140341266Y-70111994D01*
X140352104Y-70113234D01*
X140362629Y-70111841D01*
X140372348Y-70108195D01*
X140380765Y-70102679D01*
X140384985Y-70098631D01*
X140390789Y-70090544D01*
X140395017Y-70081291D01*
X140397468Y-70071644D01*
X140397817Y-70060917D01*
X140395162Y-70051922D01*
X140403497Y-70046468D01*
X140412587Y-70040578D01*
X140422303Y-70034370D01*
X140432517Y-70027962D01*
X140440961Y-70022770D01*
X140449575Y-70017586D01*
X140458293Y-70012469D01*
X140467899Y-70004356D01*
X140474206Y-69994790D01*
X140477413Y-69984208D01*
X140477849Y-69973237D01*
X140475844Y-69962506D01*
X140471728Y-69952642D01*
X140465831Y-69944274D01*
X140463047Y-69941486D01*
X140454914Y-69935744D01*
X140445484Y-69931946D01*
X140435163Y-69930379D01*
X140424357Y-69931329D01*
X140413469Y-69935084D01*
X140409892Y-69937008D01*
X140399124Y-69943579D01*
X140388479Y-69950193D01*
X140378012Y-69956797D01*
X140367777Y-69963341D01*
X140357828Y-69969772D01*
X140348219Y-69976039D01*
X140339004Y-69982092D01*
X140330237Y-69987877D01*
X140164158Y-69838338D01*
X140156040Y-69832453D01*
X140145494Y-69828294D01*
X140134897Y-69827270D01*
X140124669Y-69828932D01*
X140115229Y-69832828D01*
X140106997Y-69838511D01*
X140102813Y-69842591D01*
X140096737Y-69850914D01*
X140092406Y-69860436D01*
X140090212Y-69870707D01*
X140090547Y-69881273D01*
X140093803Y-69891683D01*
X140100372Y-69901484D01*
X140104015Y-69905133D01*
X140253759Y-70039963D01*
X140243175Y-70047365D01*
X140232205Y-70055141D01*
X140220909Y-70063266D01*
X140209343Y-70071718D01*
X140197568Y-70080473D01*
X140189630Y-70086466D01*
X140181642Y-70092577D01*
X140173622Y-70098797D01*
X140165587Y-70105121D01*
X140157554Y-70111540D01*
X140149541Y-70118049D01*
X140141564Y-70124640D01*
X140133642Y-70131306D01*
X140129707Y-70134665D01*
X140122060Y-70140855D01*
X140114429Y-70147082D01*
X140106823Y-70153350D01*
X140099247Y-70159666D01*
X140091710Y-70166033D01*
X140084218Y-70172456D01*
X140076778Y-70178942D01*
X140069398Y-70185493D01*
X140062085Y-70192117D01*
X140054845Y-70198816D01*
X140047686Y-70205598D01*
X140040614Y-70212465D01*
X140033638Y-70219424D01*
X140026764Y-70226479D01*
X140019999Y-70233635D01*
X140013350Y-70240897D01*
X139980554Y-70281701D01*
X139972177Y-70293710D01*
X139966681Y-70302068D01*
X139961343Y-70310686D01*
X139956237Y-70319546D01*
X139951438Y-70328630D01*
X139947021Y-70337920D01*
X139943059Y-70347398D01*
X139939628Y-70357046D01*
X139936802Y-70366845D01*
X139934655Y-70376779D01*
X139933263Y-70386827D01*
X139932700Y-70396973D01*
X139933039Y-70407199D01*
X139934357Y-70417485D01*
X139936726Y-70427815D01*
X139938329Y-70432991D01*
X139942775Y-70442141D01*
X139947954Y-70451085D01*
X139953873Y-70459725D01*
X139960542Y-70467966D01*
X139967970Y-70475711D01*
X139970616Y-70478166D01*
G37*
G36*
X140317403Y-70418163D02*
G01*
X140327751Y-70421100D01*
X140336276Y-70426489D01*
X140339072Y-70429384D01*
X140344581Y-70438355D01*
X140347887Y-70449146D01*
X140348881Y-70460935D01*
X140347450Y-70472902D01*
X140343486Y-70484223D01*
X140336878Y-70494079D01*
X140336343Y-70494655D01*
X140327964Y-70501087D01*
X140318641Y-70505281D01*
X140308881Y-70507652D01*
X140297061Y-70509749D01*
X140285373Y-70512726D01*
X140273933Y-70516591D01*
X140262861Y-70521348D01*
X140252273Y-70527004D01*
X140242289Y-70533565D01*
X140233024Y-70541036D01*
X140224599Y-70549424D01*
X140218939Y-70556256D01*
X140213286Y-70564450D01*
X140208545Y-70573094D01*
X140207273Y-70576210D01*
X140204139Y-70585515D01*
X140201547Y-70597759D01*
X140200772Y-70609714D01*
X140201817Y-70621266D01*
X140204683Y-70632300D01*
X140209372Y-70642704D01*
X140215886Y-70652363D01*
X140224229Y-70661165D01*
X140233922Y-70667921D01*
X140238229Y-70670518D01*
X140247119Y-70675323D01*
X140256336Y-70679612D01*
X140265829Y-70683390D01*
X140275548Y-70686662D01*
X140285443Y-70689434D01*
X140295463Y-70691711D01*
X140305557Y-70693498D01*
X140315675Y-70694800D01*
X140325767Y-70695622D01*
X140335783Y-70695970D01*
X140345672Y-70695848D01*
X140360157Y-70694797D01*
X140374073Y-70692719D01*
X140387249Y-70689631D01*
X140386220Y-70687322D01*
X140382641Y-70677872D01*
X140379831Y-70668297D01*
X140377525Y-70657614D01*
X140375975Y-70646062D01*
X140375527Y-70637546D01*
X140464791Y-70637546D01*
X140465216Y-70646106D01*
X140466009Y-70645222D01*
X140472953Y-70637161D01*
X140480264Y-70627917D01*
X140486630Y-70618472D01*
X140489150Y-70607850D01*
X140482615Y-70605252D01*
X140481111Y-70604833D01*
X140471685Y-70607901D01*
X140467262Y-70616388D01*
X140465239Y-70627095D01*
X140464791Y-70637546D01*
X140375527Y-70637546D01*
X140375443Y-70635946D01*
X140375751Y-70623881D01*
X140377137Y-70611877D01*
X140379563Y-70600071D01*
X140382992Y-70588596D01*
X140387385Y-70577590D01*
X140392706Y-70567188D01*
X140398916Y-70557526D01*
X140405980Y-70548739D01*
X140413033Y-70541671D01*
X140420796Y-70535335D01*
X140429211Y-70529771D01*
X140438223Y-70525020D01*
X140447773Y-70521126D01*
X140457807Y-70518128D01*
X140468266Y-70516068D01*
X140479095Y-70514988D01*
X140484063Y-70515036D01*
X140496245Y-70516134D01*
X140507967Y-70518545D01*
X140519081Y-70522166D01*
X140529439Y-70526894D01*
X140538893Y-70532625D01*
X140547296Y-70539257D01*
X140551548Y-70543359D01*
X140559191Y-70552401D01*
X140565608Y-70562451D01*
X140570706Y-70573378D01*
X140574395Y-70585047D01*
X140576581Y-70597326D01*
X140577173Y-70610081D01*
X140576516Y-70619881D01*
X140574870Y-70629818D01*
X140572357Y-70639586D01*
X140569133Y-70649296D01*
X140565234Y-70658884D01*
X140560695Y-70668284D01*
X140555550Y-70677432D01*
X140549836Y-70686263D01*
X140543587Y-70694714D01*
X140536839Y-70702718D01*
X140516466Y-70716583D01*
X140518344Y-70715522D01*
X140526886Y-70720706D01*
X140536787Y-70728716D01*
X140546827Y-70736532D01*
X140556997Y-70744168D01*
X140567290Y-70751637D01*
X140577695Y-70758952D01*
X140588206Y-70766127D01*
X140598814Y-70773174D01*
X140609510Y-70780106D01*
X140620285Y-70786936D01*
X140631132Y-70793679D01*
X140642042Y-70800346D01*
X140653006Y-70806951D01*
X140664017Y-70813507D01*
X140675065Y-70820027D01*
X140686142Y-70826524D01*
X140697240Y-70833011D01*
X140705282Y-70837951D01*
X140708755Y-70841485D01*
X140715167Y-70851514D01*
X140718550Y-70862689D01*
X140719175Y-70874305D01*
X140717315Y-70885661D01*
X140713242Y-70896053D01*
X140707227Y-70904778D01*
X140705062Y-70906987D01*
X140695911Y-70913395D01*
X140686525Y-70916853D01*
X140676190Y-70917968D01*
X140665354Y-70916299D01*
X140656266Y-70912464D01*
X140643923Y-70905298D01*
X140631405Y-70898071D01*
X140618747Y-70890769D01*
X140605988Y-70883375D01*
X140593165Y-70875875D01*
X140580314Y-70868254D01*
X140567474Y-70860497D01*
X140554681Y-70852589D01*
X140541972Y-70844513D01*
X140529385Y-70836257D01*
X140516957Y-70827803D01*
X140504725Y-70819137D01*
X140492726Y-70810245D01*
X140480998Y-70801110D01*
X140469578Y-70791718D01*
X140458503Y-70782053D01*
X140442077Y-70765620D01*
X140426510Y-70770998D01*
X140409977Y-70775484D01*
X140392633Y-70779046D01*
X140374632Y-70781655D01*
X140356127Y-70783278D01*
X140337272Y-70783886D01*
X140318222Y-70783448D01*
X140299130Y-70781931D01*
X140280150Y-70779307D01*
X140261436Y-70775543D01*
X140243142Y-70770609D01*
X140225422Y-70764474D01*
X140208430Y-70757107D01*
X140192320Y-70748477D01*
X140177245Y-70738554D01*
X140163360Y-70727306D01*
X140160551Y-70724704D01*
X140153692Y-70717711D01*
X140147121Y-70710084D01*
X140140911Y-70701904D01*
X140135132Y-70693248D01*
X140129857Y-70684198D01*
X140125157Y-70674831D01*
X140120973Y-70664737D01*
X140117561Y-70654430D01*
X140114906Y-70643948D01*
X140112989Y-70633330D01*
X140111795Y-70622616D01*
X140111307Y-70611845D01*
X140111508Y-70601054D01*
X140112382Y-70590283D01*
X140113911Y-70579571D01*
X140116079Y-70568957D01*
X140118869Y-70558480D01*
X140122265Y-70548178D01*
X140126249Y-70538090D01*
X140130806Y-70528256D01*
X140135918Y-70518714D01*
X140141569Y-70509503D01*
X140156841Y-70490716D01*
X140164133Y-70483049D01*
X140171777Y-70475832D01*
X140179750Y-70469060D01*
X140188033Y-70462724D01*
X140196604Y-70456816D01*
X140205442Y-70451330D01*
X140214525Y-70446258D01*
X140223833Y-70441592D01*
X140233344Y-70437324D01*
X140243037Y-70433448D01*
X140252891Y-70429955D01*
X140262885Y-70426839D01*
X140272998Y-70424091D01*
X140283208Y-70421705D01*
X140293494Y-70419672D01*
X140303836Y-70417986D01*
X140307269Y-70417681D01*
X140317403Y-70418163D01*
G37*
G36*
X140979023Y-71365435D02*
G01*
X140987140Y-71372218D01*
X140995663Y-71378483D01*
X141004434Y-71384333D01*
X141013296Y-71389877D01*
X141018340Y-71392947D01*
X141033927Y-71401514D01*
X141049901Y-71409523D01*
X141066223Y-71417012D01*
X141082852Y-71424017D01*
X141099748Y-71430576D01*
X141116872Y-71436725D01*
X141134183Y-71442500D01*
X141151642Y-71447940D01*
X141169209Y-71453080D01*
X141186845Y-71457957D01*
X141204508Y-71462608D01*
X141222160Y-71467070D01*
X141239760Y-71471379D01*
X141257269Y-71475574D01*
X141274646Y-71479689D01*
X141291852Y-71483762D01*
X141302471Y-71485005D01*
X141312470Y-71483770D01*
X141322662Y-71479823D01*
X141331006Y-71473727D01*
X141332739Y-71471935D01*
X141338404Y-71463442D01*
X141342103Y-71453130D01*
X141343649Y-71441795D01*
X141342860Y-71430234D01*
X141339552Y-71419246D01*
X141333541Y-71409628D01*
X141330339Y-71406342D01*
X141322094Y-71400753D01*
X141312719Y-71397177D01*
X141309409Y-71396371D01*
X141290498Y-71391865D01*
X141280850Y-71389515D01*
X141271100Y-71387100D01*
X141261265Y-71384620D01*
X141251367Y-71382077D01*
X141241423Y-71379469D01*
X141231453Y-71376798D01*
X141221477Y-71374064D01*
X141211514Y-71371267D01*
X141201582Y-71368407D01*
X141191701Y-71365485D01*
X141181891Y-71362501D01*
X141172171Y-71359455D01*
X141162559Y-71356347D01*
X141153075Y-71353178D01*
X141143738Y-71349949D01*
X141125584Y-71343308D01*
X141108250Y-71336427D01*
X141091890Y-71329308D01*
X141076657Y-71321953D01*
X141062706Y-71314365D01*
X141050191Y-71306547D01*
X141039265Y-71298499D01*
X141034447Y-71294391D01*
X141032414Y-71291903D01*
X141033697Y-71279473D01*
X141035629Y-71267505D01*
X141038009Y-71255906D01*
X141040638Y-71244580D01*
X141043313Y-71233433D01*
X141045835Y-71222370D01*
X141048002Y-71211296D01*
X141049613Y-71200118D01*
X141050469Y-71188739D01*
X141050368Y-71177066D01*
X141049670Y-71169074D01*
X141047529Y-71158309D01*
X141044705Y-71147909D01*
X141041223Y-71137874D01*
X141037110Y-71128203D01*
X141032392Y-71118895D01*
X141027097Y-71109950D01*
X141021249Y-71101367D01*
X141014877Y-71093146D01*
X141008006Y-71085287D01*
X141000663Y-71077788D01*
X140995518Y-71072989D01*
X140985579Y-71064601D01*
X140975012Y-71056730D01*
X140963901Y-71049390D01*
X140952332Y-71042596D01*
X140940389Y-71036362D01*
X140928156Y-71030702D01*
X140915717Y-71025631D01*
X140903159Y-71021163D01*
X140890564Y-71017313D01*
X140878017Y-71014094D01*
X140869722Y-71012307D01*
X140859622Y-71010431D01*
X140849454Y-71008715D01*
X140839240Y-71007114D01*
X140829004Y-71005583D01*
X140818766Y-71004078D01*
X140808550Y-71002556D01*
X140798379Y-71000972D01*
X140788275Y-70999281D01*
X140778260Y-70997439D01*
X140768357Y-70995403D01*
X140758588Y-70993128D01*
X140748976Y-70990569D01*
X140739544Y-70987683D01*
X140730314Y-70984425D01*
X140716896Y-70978744D01*
X140712549Y-70976616D01*
X140703760Y-70971337D01*
X140695379Y-70966003D01*
X140689260Y-70961234D01*
X140682359Y-70954080D01*
X140683442Y-70944004D01*
X140688467Y-70936199D01*
X140696832Y-70928405D01*
X140706166Y-70921985D01*
X140716273Y-70916348D01*
X140726955Y-70910902D01*
X140735783Y-70906286D01*
X140744751Y-70901112D01*
X140753759Y-70895076D01*
X140759708Y-70885863D01*
X140762493Y-70875647D01*
X140762508Y-70865035D01*
X140760144Y-70854638D01*
X140755793Y-70845064D01*
X140749847Y-70836922D01*
X140747110Y-70834203D01*
X140739147Y-70828373D01*
X140729824Y-70824098D01*
X140719552Y-70821887D01*
X140708739Y-70822254D01*
X140697797Y-70825710D01*
X140694192Y-70827637D01*
X140684348Y-70833092D01*
X140674439Y-70838738D01*
X140664588Y-70844629D01*
X140654916Y-70850816D01*
X140645547Y-70857352D01*
X140636601Y-70864290D01*
X140628203Y-70871681D01*
X140620473Y-70879578D01*
X140613860Y-70887747D01*
X140608236Y-70896412D01*
X140603595Y-70905496D01*
X140599932Y-70914922D01*
X140597240Y-70924615D01*
X140595514Y-70934497D01*
X140594748Y-70944493D01*
X140594936Y-70954526D01*
X140596072Y-70964519D01*
X140598151Y-70974396D01*
X140601167Y-70984080D01*
X140605114Y-70993496D01*
X140609987Y-71002566D01*
X140615779Y-71011215D01*
X140622485Y-71019365D01*
X140630098Y-71026940D01*
X140640335Y-71035425D01*
X140651193Y-71043084D01*
X140662608Y-71049974D01*
X140674514Y-71056153D01*
X140686845Y-71061677D01*
X140699537Y-71066603D01*
X140712524Y-71070989D01*
X140725741Y-71074891D01*
X140739122Y-71078368D01*
X140752601Y-71081476D01*
X140766114Y-71084271D01*
X140779594Y-71086812D01*
X140792977Y-71089156D01*
X140806198Y-71091359D01*
X140819189Y-71093479D01*
X140831888Y-71095573D01*
X140842258Y-71097654D01*
X140852686Y-71099957D01*
X140863102Y-71102539D01*
X140873436Y-71105455D01*
X140883619Y-71108761D01*
X140893580Y-71112512D01*
X140903249Y-71116765D01*
X140912558Y-71121575D01*
X140921436Y-71126998D01*
X140929814Y-71133090D01*
X140935086Y-71137551D01*
X140946085Y-71149426D01*
X140952008Y-71158006D01*
X140957382Y-71171442D01*
X140959261Y-71185513D01*
X140958452Y-71200166D01*
X140956819Y-71210234D01*
X140954591Y-71220524D01*
X140952005Y-71231019D01*
X140949303Y-71241706D01*
X140946723Y-71252570D01*
X140944504Y-71263594D01*
X140942886Y-71274765D01*
X140942109Y-71286066D01*
X140942411Y-71297484D01*
X140944033Y-71309002D01*
X140945413Y-71314795D01*
X140949586Y-71325681D01*
X140954842Y-71335942D01*
X140961090Y-71345564D01*
X140968240Y-71354529D01*
X140976204Y-71362822D01*
X140979023Y-71365435D01*
G37*
G36*
X141452765Y-71347425D02*
G01*
X141470673Y-71349754D01*
X141488424Y-71353637D01*
X141505870Y-71359055D01*
X141522864Y-71365990D01*
X141539257Y-71374422D01*
X141554903Y-71384332D01*
X141569653Y-71395703D01*
X141570560Y-71396520D01*
X141573998Y-71399980D01*
X141580314Y-71409501D01*
X141583623Y-71419824D01*
X141584230Y-71430400D01*
X141582445Y-71440678D01*
X141578574Y-71450107D01*
X141572925Y-71458137D01*
X141568667Y-71462228D01*
X141560209Y-71467799D01*
X141550458Y-71471519D01*
X141539881Y-71473050D01*
X141528949Y-71472056D01*
X141518131Y-71468199D01*
X141509874Y-71462825D01*
X141505976Y-71459773D01*
X141497886Y-71454109D01*
X141489456Y-71449059D01*
X141476314Y-71442709D01*
X141462769Y-71437933D01*
X141449038Y-71434846D01*
X141435338Y-71433566D01*
X141421887Y-71434207D01*
X141408902Y-71436886D01*
X141396600Y-71441719D01*
X141385198Y-71448822D01*
X141374914Y-71458310D01*
X141364327Y-71474084D01*
X141362112Y-71478153D01*
X141357799Y-71488457D01*
X141355351Y-71498817D01*
X141354914Y-71509062D01*
X141356635Y-71519022D01*
X141360657Y-71528527D01*
X141367127Y-71537407D01*
X141372027Y-71541820D01*
X141373406Y-71543030D01*
X141382313Y-71549525D01*
X141391975Y-71554411D01*
X141401933Y-71557276D01*
X141411726Y-71557705D01*
X141422331Y-71554576D01*
X141425891Y-71552991D01*
X141436702Y-71550056D01*
X141447409Y-71549661D01*
X141457630Y-71551567D01*
X141466983Y-71555534D01*
X141475086Y-71561323D01*
X141482196Y-71569928D01*
X141486908Y-71580582D01*
X141488696Y-71590532D01*
X141488276Y-71601035D01*
X141485402Y-71611697D01*
X141479829Y-71622123D01*
X141429217Y-71689283D01*
X141440005Y-71692219D01*
X141450853Y-71695214D01*
X141461759Y-71698267D01*
X141472720Y-71701380D01*
X141483733Y-71704550D01*
X141494795Y-71707779D01*
X141505903Y-71711066D01*
X141517054Y-71714410D01*
X141528245Y-71717811D01*
X141539473Y-71721269D01*
X141550735Y-71724784D01*
X141562028Y-71728355D01*
X141573349Y-71731982D01*
X141584695Y-71735664D01*
X141596063Y-71739403D01*
X141607450Y-71743196D01*
X141618853Y-71747044D01*
X141630269Y-71750947D01*
X141641696Y-71754905D01*
X141653129Y-71758916D01*
X141664566Y-71762981D01*
X141676005Y-71767099D01*
X141687441Y-71771271D01*
X141698873Y-71775496D01*
X141710297Y-71779773D01*
X141721710Y-71784102D01*
X141733109Y-71788484D01*
X141744491Y-71792917D01*
X141755853Y-71797402D01*
X141767193Y-71801938D01*
X141778507Y-71806524D01*
X141789792Y-71811162D01*
X141802081Y-71817954D01*
X141805293Y-71821211D01*
X141811148Y-71830316D01*
X141814125Y-71840342D01*
X141814511Y-71850719D01*
X141812593Y-71860877D01*
X141808658Y-71870249D01*
X141802993Y-71878263D01*
X141800707Y-71880614D01*
X141792673Y-71886760D01*
X141783236Y-71891227D01*
X141772870Y-71893610D01*
X141762045Y-71893499D01*
X141751232Y-71890488D01*
X141741375Y-71887200D01*
X141729884Y-71882888D01*
X141718370Y-71878609D01*
X141706834Y-71874362D01*
X141695279Y-71870148D01*
X141683706Y-71865966D01*
X141672116Y-71861818D01*
X141660511Y-71857704D01*
X141648893Y-71853623D01*
X141637264Y-71849577D01*
X141625624Y-71845566D01*
X141613976Y-71841589D01*
X141602321Y-71837648D01*
X141590661Y-71833743D01*
X141578998Y-71829873D01*
X141567333Y-71826039D01*
X141555667Y-71822243D01*
X141544003Y-71818483D01*
X141532342Y-71814760D01*
X141520686Y-71811075D01*
X141509036Y-71807428D01*
X141497394Y-71803819D01*
X141485762Y-71800248D01*
X141474141Y-71796716D01*
X141462533Y-71793224D01*
X141450939Y-71789771D01*
X141439361Y-71786358D01*
X141427801Y-71782985D01*
X141416261Y-71779653D01*
X141404741Y-71776361D01*
X141393244Y-71773111D01*
X141381772Y-71769902D01*
X141370325Y-71766735D01*
X141369181Y-71768005D01*
X141158999Y-72047428D01*
X141156680Y-72050389D01*
X141149609Y-72059123D01*
X141142399Y-72067664D01*
X141135095Y-72076051D01*
X141127739Y-72084321D01*
X141120375Y-72092515D01*
X141114339Y-72099166D01*
X141105174Y-72109061D01*
X141095873Y-72118843D01*
X141086432Y-72128496D01*
X141076850Y-72138003D01*
X141067124Y-72147346D01*
X141057250Y-72156508D01*
X141047228Y-72165474D01*
X141037053Y-72174225D01*
X141026724Y-72182744D01*
X141016237Y-72191016D01*
X141008244Y-72197028D01*
X141000133Y-72202913D01*
X140991909Y-72208667D01*
X140983574Y-72214288D01*
X140975132Y-72219772D01*
X140966585Y-72225114D01*
X140957938Y-72230312D01*
X140949192Y-72235363D01*
X140940352Y-72240262D01*
X140931420Y-72245006D01*
X140922400Y-72249592D01*
X140913294Y-72254016D01*
X140904106Y-72258275D01*
X140894838Y-72262365D01*
X140885495Y-72266282D01*
X140876079Y-72270024D01*
X140866593Y-72273587D01*
X140857041Y-72276967D01*
X140847425Y-72280161D01*
X140837749Y-72283164D01*
X140828016Y-72285975D01*
X140818229Y-72288589D01*
X140808391Y-72291003D01*
X140798505Y-72293213D01*
X140788575Y-72295216D01*
X140778603Y-72297009D01*
X140768594Y-72298587D01*
X140758549Y-72299947D01*
X140748472Y-72301087D01*
X140738366Y-72302002D01*
X140728234Y-72302688D01*
X140718080Y-72303143D01*
X140707096Y-72303319D01*
X140696099Y-72303217D01*
X140685097Y-72302839D01*
X140674096Y-72302188D01*
X140663102Y-72301266D01*
X140652123Y-72300076D01*
X140641164Y-72298620D01*
X140630233Y-72296901D01*
X140619336Y-72294921D01*
X140608479Y-72292683D01*
X140597670Y-72290189D01*
X140586914Y-72287442D01*
X140576218Y-72284445D01*
X140565590Y-72281199D01*
X140555035Y-72277708D01*
X140544560Y-72273974D01*
X140534172Y-72269999D01*
X140523877Y-72265785D01*
X140513682Y-72261336D01*
X140503593Y-72256654D01*
X140493618Y-72251742D01*
X140483762Y-72246601D01*
X140474032Y-72241235D01*
X140464435Y-72235645D01*
X140454978Y-72229835D01*
X140445666Y-72223807D01*
X140436508Y-72217563D01*
X140427508Y-72211106D01*
X140418674Y-72204438D01*
X140410013Y-72197563D01*
X140401530Y-72190482D01*
X140393234Y-72183197D01*
X140385408Y-72175970D01*
X140377730Y-72168510D01*
X140370208Y-72160825D01*
X140362852Y-72152919D01*
X140355671Y-72144800D01*
X140348675Y-72136473D01*
X140341872Y-72127944D01*
X140335274Y-72119219D01*
X140328888Y-72110305D01*
X140322725Y-72101208D01*
X140316794Y-72091933D01*
X140311104Y-72082487D01*
X140305665Y-72072876D01*
X140300486Y-72063106D01*
X140295577Y-72053183D01*
X140290946Y-72043113D01*
X140285054Y-72029496D01*
X140279825Y-72015639D01*
X140275270Y-72001573D01*
X140271401Y-71987328D01*
X140268232Y-71972934D01*
X140265772Y-71958421D01*
X140264035Y-71943819D01*
X140263032Y-71929158D01*
X140262893Y-71921193D01*
X140351605Y-71921193D01*
X140352152Y-71932111D01*
X140353288Y-71943004D01*
X140354998Y-71953860D01*
X140357266Y-71964667D01*
X140360079Y-71975413D01*
X140363420Y-71986086D01*
X140367276Y-71996674D01*
X140371632Y-72007166D01*
X140376472Y-72017549D01*
X140381783Y-72027812D01*
X140387548Y-72037942D01*
X140393754Y-72047929D01*
X140399813Y-72057407D01*
X140406221Y-72066626D01*
X140412985Y-72075603D01*
X140420113Y-72084357D01*
X140427611Y-72092905D01*
X140435486Y-72101264D01*
X140443745Y-72109454D01*
X140452395Y-72117491D01*
X140460489Y-72124560D01*
X140468804Y-72131392D01*
X140477331Y-72137983D01*
X140486063Y-72144328D01*
X140494991Y-72150425D01*
X140504107Y-72156269D01*
X140513403Y-72161855D01*
X140522871Y-72167181D01*
X140532503Y-72172241D01*
X140542290Y-72177031D01*
X140552225Y-72181549D01*
X140562299Y-72185789D01*
X140572504Y-72189748D01*
X140582832Y-72193422D01*
X140593274Y-72196806D01*
X140603823Y-72199896D01*
X140614471Y-72202690D01*
X140625209Y-72205181D01*
X140636029Y-72207367D01*
X140646922Y-72209243D01*
X140657882Y-72210806D01*
X140668899Y-72212051D01*
X140679966Y-72212974D01*
X140691074Y-72213572D01*
X140702215Y-72213840D01*
X140713381Y-72213774D01*
X140724564Y-72213370D01*
X140735755Y-72212624D01*
X140746947Y-72211532D01*
X140758131Y-72210090D01*
X140769300Y-72208294D01*
X140780444Y-72206140D01*
X140799276Y-72201575D01*
X140817744Y-72196182D01*
X140835850Y-72189991D01*
X140853590Y-72183032D01*
X140870965Y-72175332D01*
X140887972Y-72166922D01*
X140904611Y-72157830D01*
X140920879Y-72148086D01*
X140936777Y-72137720D01*
X140952302Y-72126759D01*
X140967454Y-72115234D01*
X140982231Y-72103173D01*
X140996631Y-72090606D01*
X141010655Y-72077562D01*
X141024299Y-72064071D01*
X141037564Y-72050160D01*
X141055378Y-72030376D01*
X141065741Y-72018676D01*
X141075884Y-72006859D01*
X141085829Y-71994937D01*
X141095599Y-71982916D01*
X141105216Y-71970808D01*
X141114701Y-71958620D01*
X141124076Y-71946363D01*
X141133364Y-71934045D01*
X141142586Y-71921676D01*
X141151764Y-71909265D01*
X141160922Y-71896821D01*
X141170079Y-71884354D01*
X141179260Y-71871872D01*
X141188485Y-71859385D01*
X141197776Y-71846902D01*
X141207156Y-71834433D01*
X141276363Y-71742605D01*
X141270721Y-71741079D01*
X141260055Y-71738320D01*
X141250551Y-71735950D01*
X141240345Y-71733467D01*
X141229582Y-71730900D01*
X141218412Y-71728277D01*
X141206980Y-71725628D01*
X141195435Y-71722980D01*
X141183208Y-71720281D01*
X141170970Y-71717616D01*
X141158721Y-71714989D01*
X141146462Y-71712403D01*
X141134193Y-71709859D01*
X141121914Y-71707361D01*
X141109625Y-71704911D01*
X141097328Y-71702513D01*
X141085022Y-71700168D01*
X141072708Y-71697880D01*
X141060386Y-71695651D01*
X141048057Y-71693485D01*
X141035721Y-71691383D01*
X141023377Y-71689349D01*
X141011028Y-71687386D01*
X140998672Y-71685495D01*
X140986311Y-71683680D01*
X140973944Y-71681944D01*
X140961573Y-71680289D01*
X140949197Y-71678717D01*
X140936817Y-71677233D01*
X140924433Y-71675838D01*
X140912045Y-71674535D01*
X140899654Y-71673328D01*
X140887261Y-71672218D01*
X140874865Y-71671208D01*
X140862468Y-71670301D01*
X140850068Y-71669501D01*
X140837668Y-71668809D01*
X140825266Y-71668228D01*
X140812864Y-71667762D01*
X140800462Y-71667412D01*
X140790162Y-71667145D01*
X140779855Y-71666956D01*
X140769543Y-71666849D01*
X140759231Y-71666832D01*
X140748922Y-71666909D01*
X140738617Y-71667087D01*
X140728322Y-71667371D01*
X140718038Y-71667767D01*
X140707769Y-71668282D01*
X140697519Y-71668920D01*
X140687290Y-71669688D01*
X140677085Y-71670592D01*
X140666909Y-71671636D01*
X140656763Y-71672828D01*
X140646652Y-71674173D01*
X140636578Y-71675676D01*
X140626544Y-71677345D01*
X140616554Y-71679183D01*
X140606611Y-71681198D01*
X140596718Y-71683394D01*
X140586879Y-71685779D01*
X140577096Y-71688357D01*
X140567373Y-71691135D01*
X140557712Y-71694118D01*
X140548118Y-71697312D01*
X140538592Y-71700723D01*
X140529139Y-71704357D01*
X140519762Y-71708219D01*
X140510464Y-71712316D01*
X140501247Y-71716653D01*
X140492116Y-71721236D01*
X140483073Y-71726071D01*
X140471683Y-71732246D01*
X140460946Y-71738685D01*
X140450773Y-71745447D01*
X140441076Y-71752592D01*
X140431767Y-71760178D01*
X140422757Y-71768265D01*
X140413960Y-71776913D01*
X140405286Y-71786181D01*
X140393356Y-71799431D01*
X140386753Y-71807927D01*
X140380628Y-71816852D01*
X140375009Y-71826172D01*
X140369928Y-71835852D01*
X140365416Y-71845860D01*
X140361502Y-71856161D01*
X140358218Y-71866720D01*
X140355595Y-71877505D01*
X140353641Y-71888405D01*
X140352334Y-71899328D01*
X140351660Y-71910261D01*
X140351605Y-71921193D01*
X140262893Y-71921193D01*
X140262776Y-71914468D01*
X140263278Y-71899779D01*
X140264550Y-71885121D01*
X140266604Y-71870525D01*
X140269453Y-71856019D01*
X140273107Y-71841634D01*
X140277580Y-71827401D01*
X140282883Y-71813349D01*
X140287646Y-71801511D01*
X140293054Y-71790052D01*
X140299065Y-71778951D01*
X140305636Y-71768186D01*
X140312726Y-71757733D01*
X140320293Y-71747572D01*
X140328296Y-71737680D01*
X140336693Y-71728035D01*
X140344159Y-71720019D01*
X140351897Y-71712238D01*
X140359895Y-71704692D01*
X140368138Y-71697379D01*
X140376610Y-71690297D01*
X140385298Y-71683447D01*
X140394187Y-71676828D01*
X140403263Y-71670437D01*
X140412510Y-71664274D01*
X140421915Y-71658339D01*
X140431464Y-71652629D01*
X140441140Y-71647145D01*
X140450931Y-71641884D01*
X140460822Y-71636847D01*
X140470798Y-71632031D01*
X140480844Y-71627437D01*
X140491650Y-71622779D01*
X140502550Y-71618392D01*
X140513538Y-71614270D01*
X140524611Y-71610405D01*
X140535763Y-71606791D01*
X140546988Y-71603421D01*
X140558283Y-71600289D01*
X140569642Y-71597388D01*
X140581061Y-71594711D01*
X140592534Y-71592252D01*
X140604057Y-71590004D01*
X140615624Y-71587961D01*
X140627231Y-71586115D01*
X140638873Y-71584461D01*
X140650545Y-71582991D01*
X140662242Y-71581699D01*
X140673959Y-71580578D01*
X140685691Y-71579622D01*
X140697433Y-71578823D01*
X140709181Y-71578176D01*
X140720930Y-71577674D01*
X140732674Y-71577309D01*
X140744408Y-71577076D01*
X140756129Y-71576968D01*
X140767830Y-71576977D01*
X140779507Y-71577098D01*
X140791155Y-71577324D01*
X140802770Y-71577648D01*
X140814345Y-71578063D01*
X140825877Y-71578563D01*
X140837360Y-71579141D01*
X140848790Y-71579791D01*
X140862354Y-71580749D01*
X140875907Y-71581801D01*
X140889449Y-71582947D01*
X140902979Y-71584183D01*
X140916498Y-71585510D01*
X140930006Y-71586925D01*
X140943503Y-71588427D01*
X140956988Y-71590015D01*
X140970462Y-71591688D01*
X140983925Y-71593442D01*
X140997377Y-71595279D01*
X141010817Y-71597195D01*
X141024245Y-71599189D01*
X141037663Y-71601260D01*
X141051069Y-71603407D01*
X141064464Y-71605628D01*
X141077847Y-71607921D01*
X141091219Y-71610285D01*
X141104579Y-71612719D01*
X141117928Y-71615222D01*
X141131266Y-71617791D01*
X141144592Y-71620425D01*
X141157906Y-71623123D01*
X141171209Y-71625883D01*
X141184501Y-71628704D01*
X141197781Y-71631585D01*
X141211050Y-71634524D01*
X141224307Y-71637519D01*
X141237552Y-71640569D01*
X141250786Y-71643673D01*
X141264008Y-71646829D01*
X141277219Y-71650036D01*
X141335383Y-71664282D01*
X141357247Y-71635984D01*
X141349825Y-71632950D01*
X141340562Y-71627959D01*
X141331770Y-71622381D01*
X141322731Y-71615826D01*
X141313955Y-71608506D01*
X141306863Y-71601670D01*
X141300243Y-71594354D01*
X141294128Y-71586584D01*
X141288551Y-71578387D01*
X141283543Y-71569787D01*
X141279137Y-71560812D01*
X141275366Y-71551488D01*
X141272262Y-71541839D01*
X141269858Y-71531892D01*
X141268186Y-71521672D01*
X141267280Y-71511207D01*
X141267170Y-71500521D01*
X141267891Y-71489640D01*
X141269473Y-71478591D01*
X141271951Y-71467400D01*
X141275356Y-71456091D01*
X141276135Y-71454047D01*
X141280330Y-71444038D01*
X141285000Y-71434421D01*
X141290104Y-71425248D01*
X141295602Y-71416574D01*
X141301453Y-71408453D01*
X141308882Y-71399512D01*
X141321560Y-71387005D01*
X141335409Y-71376222D01*
X141350283Y-71367144D01*
X141366034Y-71359753D01*
X141382513Y-71354028D01*
X141399573Y-71349952D01*
X141417067Y-71347505D01*
X141434847Y-71346669D01*
X141452765Y-71347425D01*
G37*
G36*
X141830204Y-71971783D02*
G01*
X141833655Y-71981705D01*
X141842650Y-71987087D01*
X141851637Y-71992028D01*
X141859626Y-71998604D01*
X141870145Y-71996240D01*
X141879919Y-71994373D01*
X141890631Y-71992504D01*
X141901678Y-71990398D01*
X141912316Y-71987415D01*
X141913493Y-71986960D01*
X141918910Y-71978530D01*
X141924502Y-71967644D01*
X141928142Y-71957239D01*
X141929734Y-71947395D01*
X141928694Y-71936007D01*
X141924112Y-71925786D01*
X141915798Y-71916893D01*
X141911385Y-71913743D01*
X141907586Y-71904439D01*
X141906941Y-71898238D01*
X141896523Y-71896651D01*
X141884045Y-71895438D01*
X141873045Y-71895351D01*
X141861153Y-71896984D01*
X141851057Y-71900740D01*
X141842470Y-71906820D01*
X141835107Y-71915424D01*
X141833756Y-71917466D01*
X141824266Y-71923635D01*
X141819634Y-71933646D01*
X141820077Y-71944234D01*
X141822816Y-71954203D01*
X141827112Y-71964996D01*
X141830204Y-71971783D01*
G37*
G36*
X141910697Y-72230610D02*
G01*
X141920161Y-72238784D01*
X141929933Y-72246574D01*
X141939961Y-72253981D01*
X141950190Y-72261005D01*
X141960566Y-72267646D01*
X141971037Y-72273904D01*
X141981547Y-72279781D01*
X141992043Y-72285275D01*
X142002471Y-72290387D01*
X142012777Y-72295118D01*
X142019554Y-72298060D01*
X142034979Y-72304169D01*
X142050559Y-72309912D01*
X142066283Y-72315304D01*
X142082139Y-72320360D01*
X142098116Y-72325095D01*
X142114203Y-72329525D01*
X142130388Y-72333666D01*
X142146660Y-72337531D01*
X142163008Y-72341138D01*
X142179420Y-72344500D01*
X142195885Y-72347634D01*
X142212391Y-72350554D01*
X142228927Y-72353276D01*
X142245483Y-72355815D01*
X142262045Y-72358187D01*
X142278604Y-72360406D01*
X142288998Y-72360159D01*
X142299687Y-72357386D01*
X142308901Y-72352512D01*
X142316428Y-72346115D01*
X142317240Y-72345237D01*
X142323334Y-72336452D01*
X142327549Y-72326098D01*
X142329700Y-72314947D01*
X142329603Y-72303774D01*
X142327072Y-72293352D01*
X142321923Y-72284456D01*
X142319088Y-72281498D01*
X142310240Y-72275826D01*
X142300437Y-72272650D01*
X142295743Y-72271653D01*
X142282472Y-72269884D01*
X142269234Y-72268040D01*
X142256033Y-72266109D01*
X142242869Y-72264080D01*
X142229744Y-72261938D01*
X142216659Y-72259673D01*
X142203616Y-72257272D01*
X142190615Y-72254723D01*
X142177659Y-72252013D01*
X142164748Y-72249131D01*
X142151884Y-72246064D01*
X142139069Y-72242800D01*
X142126304Y-72239326D01*
X142113590Y-72235631D01*
X142100928Y-72231702D01*
X142088321Y-72227527D01*
X142077086Y-72223701D01*
X142066464Y-72219837D01*
X142056437Y-72215942D01*
X142046983Y-72212024D01*
X142033833Y-72206119D01*
X142021861Y-72200204D01*
X142010999Y-72194303D01*
X142001177Y-72188442D01*
X141992330Y-72182644D01*
X141984388Y-72176935D01*
X141975089Y-72169506D01*
X141970948Y-72165885D01*
X141962508Y-72157552D01*
X141956048Y-72149877D01*
X141949768Y-72140704D01*
X141944913Y-72132002D01*
X141943652Y-72130133D01*
X141940915Y-72120113D01*
X141940174Y-72109419D01*
X141942296Y-72098552D01*
X141947277Y-72089177D01*
X141949816Y-72086055D01*
X141958553Y-72079418D01*
X141967638Y-72075339D01*
X141977584Y-72071824D01*
X141987662Y-72068163D01*
X141997142Y-72063645D01*
X142005294Y-72057562D01*
X142006700Y-72056095D01*
X142012464Y-72046982D01*
X142015241Y-72036464D01*
X142015322Y-72025271D01*
X142013000Y-72014130D01*
X142008565Y-72003772D01*
X142002309Y-71994925D01*
X141999362Y-71991972D01*
X141990334Y-71985777D01*
X141980256Y-71982204D01*
X141969369Y-71981013D01*
X141957916Y-71981969D01*
X141946138Y-71984833D01*
X141934276Y-71989367D01*
X141922572Y-71995335D01*
X141911267Y-72002499D01*
X141900603Y-72010621D01*
X141890821Y-72019463D01*
X141884909Y-72025641D01*
X141876890Y-72035405D01*
X141869796Y-72045865D01*
X141863704Y-72056949D01*
X141858689Y-72068586D01*
X141854826Y-72080707D01*
X141852191Y-72093239D01*
X141850858Y-72106112D01*
X141850759Y-72115949D01*
X141850903Y-72119256D01*
X141852211Y-72131876D01*
X141854637Y-72144036D01*
X141858103Y-72155738D01*
X141862528Y-72166986D01*
X141867833Y-72177783D01*
X141873940Y-72188133D01*
X141880768Y-72198038D01*
X141888238Y-72207502D01*
X141896272Y-72216529D01*
X141904789Y-72225122D01*
X141910697Y-72230610D01*
G37*
G36*
X142075590Y-72004407D02*
G01*
X142085866Y-72009998D01*
X142095376Y-72013433D01*
X142105627Y-72015829D01*
X142116247Y-72017077D01*
X142126863Y-72017069D01*
X142137104Y-72015697D01*
X142146595Y-72012853D01*
X142152999Y-72009689D01*
X142162224Y-72005396D01*
X142168233Y-72000070D01*
X142173731Y-71991957D01*
X142176370Y-71983733D01*
X142179130Y-71973400D01*
X142178462Y-71962311D01*
X142175453Y-71952873D01*
X142170449Y-71944081D01*
X142163690Y-71936492D01*
X142153468Y-71930840D01*
X142143972Y-71927383D01*
X142133711Y-71924982D01*
X142123063Y-71923734D01*
X142112404Y-71923742D01*
X142102108Y-71925104D01*
X142092553Y-71927920D01*
X142086099Y-71931047D01*
X142076928Y-71935388D01*
X142070866Y-71940665D01*
X142065344Y-71949310D01*
X142062892Y-71956821D01*
X142060507Y-71966742D01*
X142061156Y-71977878D01*
X142064000Y-71987558D01*
X142068846Y-71996632D01*
X142075590Y-72004407D01*
G37*
G36*
X142577018Y-72804276D02*
G01*
X142585135Y-72811059D01*
X142593658Y-72817323D01*
X142602429Y-72823174D01*
X142611290Y-72828718D01*
X142616335Y-72831788D01*
X142631922Y-72840355D01*
X142647896Y-72848364D01*
X142664218Y-72855853D01*
X142680846Y-72862858D01*
X142697743Y-72869417D01*
X142714866Y-72875566D01*
X142732178Y-72881341D01*
X142749637Y-72886781D01*
X142767204Y-72891920D01*
X142784839Y-72896798D01*
X142802503Y-72901449D01*
X142820155Y-72905911D01*
X142837755Y-72910220D01*
X142855263Y-72914415D01*
X142872641Y-72918530D01*
X142889847Y-72922603D01*
X142900466Y-72923846D01*
X142910464Y-72922611D01*
X142920656Y-72918664D01*
X142929001Y-72912568D01*
X142930733Y-72910776D01*
X142936399Y-72902283D01*
X142940097Y-72891971D01*
X142941644Y-72880635D01*
X142940855Y-72869075D01*
X142937547Y-72858087D01*
X142931536Y-72848469D01*
X142928334Y-72845183D01*
X142920088Y-72839594D01*
X142910713Y-72836018D01*
X142907404Y-72835212D01*
X142888493Y-72830706D01*
X142878845Y-72828356D01*
X142869094Y-72825941D01*
X142859260Y-72823461D01*
X142849361Y-72820918D01*
X142839418Y-72818310D01*
X142829448Y-72815639D01*
X142819472Y-72812905D01*
X142809508Y-72810108D01*
X142799577Y-72807248D01*
X142789696Y-72804326D01*
X142779886Y-72801342D01*
X142770165Y-72798296D01*
X142760553Y-72795188D01*
X142751070Y-72792019D01*
X142741733Y-72788790D01*
X142723579Y-72782149D01*
X142706245Y-72775268D01*
X142689885Y-72768149D01*
X142674652Y-72760794D01*
X142660701Y-72753206D01*
X142648186Y-72745388D01*
X142637260Y-72737340D01*
X142632441Y-72733232D01*
X142630409Y-72730744D01*
X142631691Y-72718314D01*
X142633624Y-72706346D01*
X142636004Y-72694747D01*
X142638632Y-72683421D01*
X142641308Y-72672274D01*
X142643829Y-72661211D01*
X142645996Y-72650137D01*
X142647608Y-72638958D01*
X142648464Y-72627580D01*
X142648363Y-72615907D01*
X142647665Y-72607915D01*
X142645524Y-72597150D01*
X142642700Y-72586750D01*
X142639218Y-72576715D01*
X142635105Y-72567044D01*
X142630387Y-72557736D01*
X142625091Y-72548791D01*
X142619244Y-72540208D01*
X142612872Y-72531987D01*
X142606001Y-72524128D01*
X142598658Y-72516629D01*
X142593513Y-72511830D01*
X142583574Y-72503442D01*
X142573007Y-72495571D01*
X142561896Y-72488231D01*
X142550327Y-72481437D01*
X142538384Y-72475203D01*
X142526150Y-72469543D01*
X142513712Y-72464472D01*
X142501153Y-72460004D01*
X142488558Y-72456154D01*
X142476012Y-72452935D01*
X142467717Y-72451148D01*
X142457617Y-72449272D01*
X142447449Y-72447556D01*
X142437235Y-72445954D01*
X142426998Y-72444424D01*
X142416761Y-72442919D01*
X142406545Y-72441397D01*
X142396374Y-72439813D01*
X142386270Y-72438122D01*
X142376255Y-72436280D01*
X142366352Y-72434244D01*
X142356583Y-72431969D01*
X142346971Y-72429410D01*
X142337539Y-72426524D01*
X142328308Y-72423266D01*
X142314891Y-72417585D01*
X142310544Y-72415457D01*
X142301755Y-72410178D01*
X142293373Y-72404844D01*
X142287255Y-72400075D01*
X142280354Y-72392921D01*
X142281437Y-72382845D01*
X142286462Y-72375040D01*
X142294826Y-72367246D01*
X142304161Y-72360826D01*
X142314268Y-72355189D01*
X142324950Y-72349743D01*
X142333777Y-72345127D01*
X142342746Y-72339953D01*
X142351754Y-72333917D01*
X142357703Y-72324704D01*
X142360488Y-72314487D01*
X142360503Y-72303876D01*
X142358138Y-72293479D01*
X142353787Y-72283905D01*
X142347842Y-72275763D01*
X142345105Y-72273043D01*
X142337142Y-72267214D01*
X142327819Y-72262938D01*
X142317546Y-72260728D01*
X142306734Y-72261095D01*
X142295792Y-72264551D01*
X142292186Y-72266478D01*
X142282343Y-72271932D01*
X142272434Y-72277579D01*
X142262582Y-72283470D01*
X142252911Y-72289657D01*
X142243541Y-72296193D01*
X142234596Y-72303131D01*
X142226197Y-72310522D01*
X142218468Y-72318419D01*
X142211855Y-72326588D01*
X142206231Y-72335253D01*
X142201590Y-72344337D01*
X142197927Y-72353763D01*
X142195235Y-72363456D01*
X142193509Y-72373338D01*
X142192742Y-72383334D01*
X142192930Y-72393367D01*
X142194067Y-72403360D01*
X142196146Y-72413237D01*
X142199162Y-72422921D01*
X142203109Y-72432337D01*
X142207982Y-72441407D01*
X142213774Y-72450056D01*
X142220479Y-72458206D01*
X142228093Y-72465781D01*
X142238329Y-72474266D01*
X142249188Y-72481925D01*
X142260602Y-72488815D01*
X142272508Y-72494994D01*
X142284840Y-72500518D01*
X142297532Y-72505444D01*
X142310519Y-72509830D01*
X142323736Y-72513732D01*
X142337116Y-72517209D01*
X142350596Y-72520317D01*
X142364108Y-72523112D01*
X142377589Y-72525653D01*
X142390972Y-72527997D01*
X142404192Y-72530200D01*
X142417184Y-72532320D01*
X142429882Y-72534414D01*
X142440253Y-72536495D01*
X142450681Y-72538798D01*
X142461097Y-72541380D01*
X142471431Y-72544296D01*
X142481614Y-72547601D01*
X142491574Y-72551353D01*
X142501244Y-72555606D01*
X142510553Y-72560416D01*
X142519431Y-72565839D01*
X142527808Y-72571931D01*
X142533081Y-72576391D01*
X142544080Y-72588267D01*
X142550003Y-72596847D01*
X142555377Y-72610283D01*
X142557256Y-72624354D01*
X142556447Y-72639007D01*
X142554814Y-72649075D01*
X142552585Y-72659364D01*
X142550000Y-72669860D01*
X142547298Y-72680547D01*
X142544717Y-72691411D01*
X142542499Y-72702435D01*
X142540881Y-72713606D01*
X142540104Y-72724907D01*
X142540406Y-72736325D01*
X142542027Y-72747843D01*
X142543407Y-72753635D01*
X142547581Y-72764522D01*
X142552836Y-72774783D01*
X142559084Y-72784404D01*
X142566235Y-72793370D01*
X142574199Y-72801663D01*
X142577018Y-72804276D01*
G37*
G36*
X142860464Y-73127524D02*
G01*
X142870191Y-73135918D01*
X142880271Y-73143921D01*
X142890637Y-73151503D01*
X142901223Y-73158636D01*
X142911961Y-73165291D01*
X142922787Y-73171439D01*
X142933633Y-73177050D01*
X142944434Y-73182097D01*
X142955675Y-73187339D01*
X142967036Y-73192315D01*
X142978506Y-73197040D01*
X142990074Y-73201531D01*
X143001729Y-73205803D01*
X143013460Y-73209874D01*
X143025255Y-73213757D01*
X143037104Y-73217471D01*
X143048996Y-73221030D01*
X143060919Y-73224452D01*
X143072863Y-73227751D01*
X143084816Y-73230943D01*
X143096767Y-73234046D01*
X143108706Y-73237075D01*
X143120620Y-73240046D01*
X143132500Y-73242974D01*
X143146673Y-73246508D01*
X143160850Y-73250003D01*
X143175006Y-73253510D01*
X143189119Y-73257082D01*
X143203164Y-73260770D01*
X143217117Y-73264626D01*
X143230954Y-73268701D01*
X143244652Y-73273047D01*
X143258186Y-73277716D01*
X143271533Y-73282759D01*
X143284668Y-73288228D01*
X143297569Y-73294175D01*
X143310210Y-73300651D01*
X143322569Y-73307709D01*
X143334620Y-73315399D01*
X143346341Y-73323773D01*
X143355874Y-73328983D01*
X143365972Y-73332314D01*
X143376353Y-73333581D01*
X143386734Y-73332595D01*
X143396832Y-73329170D01*
X143406364Y-73323118D01*
X143409955Y-73319920D01*
X143416184Y-73310123D01*
X143419373Y-73300232D01*
X143420558Y-73289575D01*
X143419562Y-73278906D01*
X143416214Y-73268978D01*
X143410337Y-73260544D01*
X143408843Y-73259103D01*
X143405395Y-73255997D01*
X143396070Y-73249448D01*
X143386638Y-73243218D01*
X143377103Y-73237292D01*
X143367470Y-73231657D01*
X143357744Y-73226301D01*
X143347930Y-73221208D01*
X143338031Y-73216365D01*
X143328054Y-73211759D01*
X143318003Y-73207376D01*
X143307882Y-73203203D01*
X143297696Y-73199225D01*
X143287451Y-73195429D01*
X143277150Y-73191802D01*
X143266799Y-73188329D01*
X143256403Y-73184998D01*
X143245965Y-73181794D01*
X143235492Y-73178704D01*
X143224987Y-73175715D01*
X143214456Y-73172811D01*
X143203903Y-73169981D01*
X143193332Y-73167210D01*
X143182750Y-73164485D01*
X143172160Y-73161792D01*
X143161567Y-73159117D01*
X143150976Y-73156446D01*
X143140393Y-73153767D01*
X143129820Y-73151066D01*
X143119264Y-73148328D01*
X143108729Y-73145540D01*
X143098220Y-73142688D01*
X143087741Y-73139760D01*
X143077298Y-73136740D01*
X143066036Y-73133409D01*
X143054868Y-73129909D01*
X143043799Y-73126232D01*
X143032830Y-73122369D01*
X143021965Y-73118311D01*
X143011206Y-73114050D01*
X143000558Y-73109577D01*
X142990022Y-73104883D01*
X142979602Y-73099959D01*
X142969300Y-73094798D01*
X142962500Y-73091220D01*
X142952781Y-73085241D01*
X142943769Y-73079473D01*
X142935538Y-73073906D01*
X142927022Y-73067651D01*
X142919789Y-73061637D01*
X142911157Y-73053172D01*
X142904225Y-73044952D01*
X142896711Y-73033127D01*
X142892240Y-73021971D01*
X142890341Y-73011554D01*
X142891001Y-72998938D01*
X142894285Y-72987930D01*
X142899080Y-72978698D01*
X142905501Y-72969912D01*
X142907755Y-72967322D01*
X142913476Y-72960969D01*
X142921727Y-72952551D01*
X142930059Y-72945291D01*
X142940654Y-72937465D01*
X142950084Y-72931611D01*
X142960783Y-72926073D01*
X142972752Y-72921123D01*
X142985988Y-72917033D01*
X143000490Y-72914074D01*
X143010862Y-72912865D01*
X143016259Y-72912520D01*
X143026315Y-72912471D01*
X143035569Y-72915778D01*
X143035810Y-72915991D01*
X143040404Y-72914540D01*
X143029655Y-72917352D01*
X143023509Y-72926627D01*
X143020483Y-72936753D01*
X143020258Y-72947218D01*
X143022515Y-72957506D01*
X143026933Y-72967105D01*
X143033193Y-72975500D01*
X143036141Y-72978406D01*
X143044958Y-72984591D01*
X143054136Y-72988398D01*
X143064435Y-72990268D01*
X143075498Y-72989671D01*
X143085045Y-72986909D01*
X143088896Y-72985154D01*
X143097549Y-72979663D01*
X143105519Y-72973268D01*
X143109178Y-72969563D01*
X143116722Y-72959326D01*
X143122058Y-72948084D01*
X143125306Y-72936098D01*
X143126589Y-72923625D01*
X143126025Y-72910927D01*
X143123735Y-72898263D01*
X143119841Y-72885892D01*
X143114461Y-72874073D01*
X143107718Y-72863068D01*
X143099731Y-72853134D01*
X143093774Y-72847235D01*
X143085768Y-72841127D01*
X143077079Y-72835725D01*
X143074588Y-72834233D01*
X143063676Y-72829893D01*
X143052346Y-72826697D01*
X143040797Y-72824517D01*
X143029228Y-72823224D01*
X143017838Y-72822687D01*
X143006826Y-72822778D01*
X143002572Y-72822961D01*
X142992512Y-72824318D01*
X142982522Y-72826093D01*
X142972617Y-72828277D01*
X142962812Y-72830862D01*
X142953122Y-72833840D01*
X142943561Y-72837201D01*
X142934145Y-72840937D01*
X142924889Y-72845040D01*
X142915807Y-72849500D01*
X142906916Y-72854309D01*
X142898229Y-72859458D01*
X142889762Y-72864940D01*
X142881530Y-72870744D01*
X142873548Y-72876863D01*
X142865830Y-72883287D01*
X142858393Y-72890009D01*
X142843085Y-72904820D01*
X142835182Y-72914256D01*
X142827892Y-72924348D01*
X142821296Y-72935032D01*
X142815476Y-72946243D01*
X142810515Y-72957918D01*
X142806496Y-72969992D01*
X142803499Y-72982401D01*
X142801607Y-72995081D01*
X142800903Y-73007968D01*
X142801468Y-73020997D01*
X142802591Y-73029731D01*
X142804790Y-73040584D01*
X142807854Y-73051135D01*
X142811715Y-73061368D01*
X142816305Y-73071266D01*
X142821554Y-73080814D01*
X142827395Y-73089995D01*
X142833759Y-73098794D01*
X142840577Y-73107194D01*
X142847782Y-73115180D01*
X142855305Y-73122735D01*
X142860464Y-73127524D01*
G37*
D12*
X148231906Y-66270239D02*
X147946192Y-66270239D01*
X148089049Y-66270239D02*
X148089049Y-65770239D01*
X148089049Y-65770239D02*
X148041430Y-65841668D01*
X148041430Y-65841668D02*
X147993811Y-65889287D01*
X147993811Y-65889287D02*
X147946192Y-65913096D01*
D11*
X150301362Y-62344508D02*
X149311094Y-62483681D01*
X149311094Y-62483681D02*
X149258075Y-62106436D01*
X149258075Y-62106436D02*
X149291977Y-62005498D01*
X149291977Y-62005498D02*
X149332505Y-61951715D01*
X149332505Y-61951715D02*
X149420189Y-61891305D01*
X149420189Y-61891305D02*
X149561656Y-61871423D01*
X149561656Y-61871423D02*
X149662594Y-61905324D01*
X149662594Y-61905324D02*
X149716377Y-61945852D01*
X149716377Y-61945852D02*
X149776787Y-62033536D01*
X149776787Y-62033536D02*
X149829806Y-62410781D01*
X149885882Y-61441159D02*
X149819609Y-60969603D01*
X150182071Y-61495707D02*
X149145412Y-61304791D01*
X149145412Y-61304791D02*
X150089289Y-60835528D01*
X150002369Y-60559222D02*
X150029643Y-60411127D01*
X150029643Y-60411127D02*
X149996506Y-60175349D01*
X149996506Y-60175349D02*
X149936096Y-60087665D01*
X149936096Y-60087665D02*
X149882313Y-60047137D01*
X149882313Y-60047137D02*
X149781375Y-60013236D01*
X149781375Y-60013236D02*
X149687064Y-60026491D01*
X149687064Y-60026491D02*
X149599380Y-60086901D01*
X149599380Y-60086901D02*
X149558851Y-60140684D01*
X149558851Y-60140684D02*
X149524950Y-60241622D01*
X149524950Y-60241622D02*
X149504304Y-60436872D01*
X149504304Y-60436872D02*
X149470403Y-60537811D01*
X149470403Y-60537811D02*
X149429874Y-60591593D01*
X149429874Y-60591593D02*
X149342190Y-60652004D01*
X149342190Y-60652004D02*
X149247879Y-60665258D01*
X149247879Y-60665258D02*
X149146941Y-60631357D01*
X149146941Y-60631357D02*
X149093158Y-60590829D01*
X149093158Y-60590829D02*
X149032748Y-60503145D01*
X149032748Y-60503145D02*
X148999611Y-60267367D01*
X148999611Y-60267367D02*
X149026885Y-60119273D01*
X149869823Y-59616109D02*
X149897097Y-59468015D01*
X149897097Y-59468015D02*
X149863961Y-59232237D01*
X149863961Y-59232237D02*
X149803550Y-59144553D01*
X149803550Y-59144553D02*
X149749768Y-59104025D01*
X149749768Y-59104025D02*
X149648829Y-59070124D01*
X149648829Y-59070124D02*
X149554518Y-59083378D01*
X149554518Y-59083378D02*
X149466834Y-59143788D01*
X149466834Y-59143788D02*
X149426305Y-59197571D01*
X149426305Y-59197571D02*
X149392404Y-59298510D01*
X149392404Y-59298510D02*
X149371758Y-59493760D01*
X149371758Y-59493760D02*
X149337857Y-59594698D01*
X149337857Y-59594698D02*
X149297329Y-59648481D01*
X149297329Y-59648481D02*
X149209645Y-59708891D01*
X149209645Y-59708891D02*
X149115333Y-59722146D01*
X149115333Y-59722146D02*
X149014395Y-59688245D01*
X149014395Y-59688245D02*
X148960612Y-59647716D01*
X148960612Y-59647716D02*
X148900202Y-59560032D01*
X148900202Y-59560032D02*
X148867065Y-59324254D01*
X148867065Y-59324254D02*
X148894339Y-59176160D01*
X148807420Y-58899854D02*
X148727892Y-58333986D01*
X149757924Y-58477747D02*
X148767656Y-58616920D01*
X149671769Y-57864724D02*
X148681501Y-58003897D01*
X149153057Y-57937624D02*
X149073530Y-57371756D01*
X149592242Y-57298856D02*
X148601974Y-57438029D01*
X149446441Y-56261432D02*
X149021276Y-56657795D01*
X149525969Y-56827300D02*
X148535701Y-56966473D01*
X148535701Y-56966473D02*
X148482682Y-56589228D01*
X148482682Y-56589228D02*
X148516583Y-56488289D01*
X148516583Y-56488289D02*
X148557112Y-56434507D01*
X148557112Y-56434507D02*
X148644796Y-56374096D01*
X148644796Y-56374096D02*
X148786263Y-56354214D01*
X148786263Y-56354214D02*
X148887201Y-56388116D01*
X148887201Y-56388116D02*
X148940984Y-56428644D01*
X148940984Y-56428644D02*
X149001394Y-56516328D01*
X149001394Y-56516328D02*
X149054413Y-56893573D01*
X148370018Y-55787582D02*
X148343509Y-55598960D01*
X148343509Y-55598960D02*
X148377410Y-55498021D01*
X148377410Y-55498021D02*
X148458467Y-55390456D01*
X148458467Y-55390456D02*
X148640462Y-55316791D01*
X148640462Y-55316791D02*
X148970552Y-55270400D01*
X148970552Y-55270400D02*
X149165801Y-55291046D01*
X149165801Y-55291046D02*
X149273367Y-55372103D01*
X149273367Y-55372103D02*
X149333777Y-55459787D01*
X149333777Y-55459787D02*
X149360287Y-55648409D01*
X149360287Y-55648409D02*
X149326385Y-55749348D01*
X149326385Y-55749348D02*
X149245329Y-55856914D01*
X149245329Y-55856914D02*
X149063334Y-55930578D01*
X149063334Y-55930578D02*
X148733244Y-55976969D01*
X148733244Y-55976969D02*
X148537994Y-55956323D01*
X148537994Y-55956323D02*
X148430429Y-55875266D01*
X148430429Y-55875266D02*
X148370018Y-55787582D01*
X148250727Y-54938781D02*
X149052373Y-54826117D01*
X149052373Y-54826117D02*
X149140057Y-54765707D01*
X149140057Y-54765707D02*
X149180585Y-54711924D01*
X149180585Y-54711924D02*
X149214486Y-54610986D01*
X149214486Y-54610986D02*
X149187977Y-54422363D01*
X149187977Y-54422363D02*
X149127567Y-54334679D01*
X149127567Y-54334679D02*
X149073784Y-54294151D01*
X149073784Y-54294151D02*
X148972845Y-54260250D01*
X148972845Y-54260250D02*
X148171200Y-54372914D01*
X148079182Y-53376018D02*
X148045281Y-53476957D01*
X148045281Y-53476957D02*
X148065163Y-53618424D01*
X148065163Y-53618424D02*
X148132201Y-53753263D01*
X148132201Y-53753263D02*
X148239766Y-53834320D01*
X148239766Y-53834320D02*
X148340705Y-53868221D01*
X148340705Y-53868221D02*
X148535955Y-53888868D01*
X148535955Y-53888868D02*
X148677422Y-53868986D01*
X148677422Y-53868986D02*
X148859417Y-53795321D01*
X148859417Y-53795321D02*
X148947101Y-53734911D01*
X148947101Y-53734911D02*
X149028157Y-53627345D01*
X149028157Y-53627345D02*
X149055431Y-53479251D01*
X149055431Y-53479251D02*
X149042177Y-53384940D01*
X149042177Y-53384940D02*
X148975139Y-53250100D01*
X148975139Y-53250100D02*
X148921356Y-53209572D01*
X148921356Y-53209572D02*
X148591267Y-53255963D01*
X148591267Y-53255963D02*
X148617776Y-53444585D01*
X148956022Y-52771916D02*
X147965754Y-52911090D01*
X148437310Y-52844817D02*
X148357782Y-52278949D01*
X148876494Y-52206049D02*
X147886226Y-52345222D01*
X143102708Y-69905018D02*
X142769375Y-69428828D01*
X142531280Y-69905018D02*
X142531280Y-68905018D01*
X142531280Y-68905018D02*
X142912232Y-68905018D01*
X142912232Y-68905018D02*
X143007470Y-68952638D01*
X143007470Y-68952638D02*
X143055089Y-69000257D01*
X143055089Y-69000257D02*
X143102708Y-69095495D01*
X143102708Y-69095495D02*
X143102708Y-69238352D01*
X143102708Y-69238352D02*
X143055089Y-69333590D01*
X143055089Y-69333590D02*
X143007470Y-69381209D01*
X143007470Y-69381209D02*
X142912232Y-69428828D01*
X142912232Y-69428828D02*
X142531280Y-69428828D01*
X143483661Y-69857399D02*
X143626518Y-69905018D01*
X143626518Y-69905018D02*
X143864613Y-69905018D01*
X143864613Y-69905018D02*
X143959851Y-69857399D01*
X143959851Y-69857399D02*
X144007470Y-69809780D01*
X144007470Y-69809780D02*
X144055089Y-69714542D01*
X144055089Y-69714542D02*
X144055089Y-69619304D01*
X144055089Y-69619304D02*
X144007470Y-69524066D01*
X144007470Y-69524066D02*
X143959851Y-69476447D01*
X143959851Y-69476447D02*
X143864613Y-69428828D01*
X143864613Y-69428828D02*
X143674137Y-69381209D01*
X143674137Y-69381209D02*
X143578899Y-69333590D01*
X143578899Y-69333590D02*
X143531280Y-69285971D01*
X143531280Y-69285971D02*
X143483661Y-69190733D01*
X143483661Y-69190733D02*
X143483661Y-69095495D01*
X143483661Y-69095495D02*
X143531280Y-69000257D01*
X143531280Y-69000257D02*
X143578899Y-68952638D01*
X143578899Y-68952638D02*
X143674137Y-68905018D01*
X143674137Y-68905018D02*
X143912232Y-68905018D01*
X143912232Y-68905018D02*
X144055089Y-68952638D01*
X144340804Y-68905018D02*
X144912232Y-68905018D01*
X144626518Y-69905018D02*
X144626518Y-68905018D01*
X138777319Y-63375196D02*
X138443986Y-62899006D01*
X138205891Y-63375196D02*
X138205891Y-62375196D01*
X138205891Y-62375196D02*
X138586843Y-62375196D01*
X138586843Y-62375196D02*
X138682081Y-62422816D01*
X138682081Y-62422816D02*
X138729700Y-62470435D01*
X138729700Y-62470435D02*
X138777319Y-62565673D01*
X138777319Y-62565673D02*
X138777319Y-62708530D01*
X138777319Y-62708530D02*
X138729700Y-62803768D01*
X138729700Y-62803768D02*
X138682081Y-62851387D01*
X138682081Y-62851387D02*
X138586843Y-62899006D01*
X138586843Y-62899006D02*
X138205891Y-62899006D01*
X139110653Y-63375196D02*
X139634462Y-62708530D01*
X139110653Y-62708530D02*
X139634462Y-63375196D01*
X140390476Y-66384761D02*
X140533333Y-66432380D01*
X140533333Y-66432380D02*
X140771428Y-66432380D01*
X140771428Y-66432380D02*
X140866666Y-66384761D01*
X140866666Y-66384761D02*
X140914285Y-66337142D01*
X140914285Y-66337142D02*
X140961904Y-66241904D01*
X140961904Y-66241904D02*
X140961904Y-66146666D01*
X140961904Y-66146666D02*
X140914285Y-66051428D01*
X140914285Y-66051428D02*
X140866666Y-66003809D01*
X140866666Y-66003809D02*
X140771428Y-65956190D01*
X140771428Y-65956190D02*
X140580952Y-65908571D01*
X140580952Y-65908571D02*
X140485714Y-65860952D01*
X140485714Y-65860952D02*
X140438095Y-65813333D01*
X140438095Y-65813333D02*
X140390476Y-65718095D01*
X140390476Y-65718095D02*
X140390476Y-65622857D01*
X140390476Y-65622857D02*
X140438095Y-65527619D01*
X140438095Y-65527619D02*
X140485714Y-65480000D01*
X140485714Y-65480000D02*
X140580952Y-65432380D01*
X140580952Y-65432380D02*
X140819047Y-65432380D01*
X140819047Y-65432380D02*
X140961904Y-65480000D01*
X141390476Y-66432380D02*
X141390476Y-65432380D01*
X141390476Y-65432380D02*
X141628571Y-65432380D01*
X141628571Y-65432380D02*
X141771428Y-65480000D01*
X141771428Y-65480000D02*
X141866666Y-65575238D01*
X141866666Y-65575238D02*
X141914285Y-65670476D01*
X141914285Y-65670476D02*
X141961904Y-65860952D01*
X141961904Y-65860952D02*
X141961904Y-66003809D01*
X141961904Y-66003809D02*
X141914285Y-66194285D01*
X141914285Y-66194285D02*
X141866666Y-66289523D01*
X141866666Y-66289523D02*
X141771428Y-66384761D01*
X141771428Y-66384761D02*
X141628571Y-66432380D01*
X141628571Y-66432380D02*
X141390476Y-66432380D01*
X142342857Y-66146666D02*
X142819047Y-66146666D01*
X142247619Y-66432380D02*
X142580952Y-65432380D01*
X142580952Y-65432380D02*
X142914285Y-66432380D01*
X140440476Y-64984761D02*
X140583333Y-65032380D01*
X140583333Y-65032380D02*
X140821428Y-65032380D01*
X140821428Y-65032380D02*
X140916666Y-64984761D01*
X140916666Y-64984761D02*
X140964285Y-64937142D01*
X140964285Y-64937142D02*
X141011904Y-64841904D01*
X141011904Y-64841904D02*
X141011904Y-64746666D01*
X141011904Y-64746666D02*
X140964285Y-64651428D01*
X140964285Y-64651428D02*
X140916666Y-64603809D01*
X140916666Y-64603809D02*
X140821428Y-64556190D01*
X140821428Y-64556190D02*
X140630952Y-64508571D01*
X140630952Y-64508571D02*
X140535714Y-64460952D01*
X140535714Y-64460952D02*
X140488095Y-64413333D01*
X140488095Y-64413333D02*
X140440476Y-64318095D01*
X140440476Y-64318095D02*
X140440476Y-64222857D01*
X140440476Y-64222857D02*
X140488095Y-64127619D01*
X140488095Y-64127619D02*
X140535714Y-64080000D01*
X140535714Y-64080000D02*
X140630952Y-64032380D01*
X140630952Y-64032380D02*
X140869047Y-64032380D01*
X140869047Y-64032380D02*
X141011904Y-64080000D01*
X142011904Y-64937142D02*
X141964285Y-64984761D01*
X141964285Y-64984761D02*
X141821428Y-65032380D01*
X141821428Y-65032380D02*
X141726190Y-65032380D01*
X141726190Y-65032380D02*
X141583333Y-64984761D01*
X141583333Y-64984761D02*
X141488095Y-64889523D01*
X141488095Y-64889523D02*
X141440476Y-64794285D01*
X141440476Y-64794285D02*
X141392857Y-64603809D01*
X141392857Y-64603809D02*
X141392857Y-64460952D01*
X141392857Y-64460952D02*
X141440476Y-64270476D01*
X141440476Y-64270476D02*
X141488095Y-64175238D01*
X141488095Y-64175238D02*
X141583333Y-64080000D01*
X141583333Y-64080000D02*
X141726190Y-64032380D01*
X141726190Y-64032380D02*
X141821428Y-64032380D01*
X141821428Y-64032380D02*
X141964285Y-64080000D01*
X141964285Y-64080000D02*
X142011904Y-64127619D01*
X142916666Y-65032380D02*
X142440476Y-65032380D01*
X142440476Y-65032380D02*
X142440476Y-64032380D01*
X145136092Y-73883830D02*
X144278924Y-73368792D01*
X144278924Y-73368792D02*
X144401552Y-73164704D01*
X144401552Y-73164704D02*
X144515947Y-73066778D01*
X144515947Y-73066778D02*
X144646633Y-73034194D01*
X144646633Y-73034194D02*
X144752794Y-73042428D01*
X144752794Y-73042428D02*
X144940589Y-73099713D01*
X144940589Y-73099713D02*
X145063042Y-73173289D01*
X145063042Y-73173289D02*
X145201786Y-73312209D01*
X145201786Y-73312209D02*
X145258895Y-73402078D01*
X145258895Y-73402078D02*
X145291479Y-73532764D01*
X145291479Y-73532764D02*
X145258720Y-73679742D01*
X145258720Y-73679742D02*
X145136092Y-73883830D01*
X145202137Y-72756881D02*
X145373817Y-72471158D01*
X145896386Y-72618488D02*
X145651130Y-73026663D01*
X145651130Y-73026663D02*
X144793962Y-72511625D01*
X144793962Y-72511625D02*
X145039219Y-72103450D01*
X145839804Y-71695626D02*
X145954198Y-71597699D01*
X145954198Y-71597699D02*
X146019541Y-71581407D01*
X146019541Y-71581407D02*
X146125702Y-71589641D01*
X146125702Y-71589641D02*
X146248154Y-71663218D01*
X146248154Y-71663218D02*
X146305264Y-71753087D01*
X146305264Y-71753087D02*
X146321555Y-71818430D01*
X146321555Y-71818430D02*
X146313322Y-71924590D01*
X146313322Y-71924590D02*
X146117117Y-72251130D01*
X146117117Y-72251130D02*
X145259949Y-71736092D01*
X145259949Y-71736092D02*
X145431629Y-71450370D01*
X145431629Y-71450370D02*
X145521497Y-71393260D01*
X145521497Y-71393260D02*
X145586841Y-71376969D01*
X145586841Y-71376969D02*
X145693001Y-71385202D01*
X145693001Y-71385202D02*
X145774636Y-71434254D01*
X145774636Y-71434254D02*
X145831745Y-71524122D01*
X145831745Y-71524122D02*
X145848037Y-71589465D01*
X145848037Y-71589465D02*
X145839804Y-71695626D01*
X145839804Y-71695626D02*
X145668124Y-71981348D01*
X145774987Y-70878925D02*
X146468885Y-71295860D01*
X146468885Y-71295860D02*
X146575045Y-71304094D01*
X146575045Y-71304094D02*
X146640388Y-71287802D01*
X146640388Y-71287802D02*
X146730257Y-71230693D01*
X146730257Y-71230693D02*
X146828360Y-71067423D01*
X146828360Y-71067423D02*
X146836593Y-70961262D01*
X146836593Y-70961262D02*
X146820302Y-70895919D01*
X146820302Y-70895919D02*
X146763192Y-70806051D01*
X146763192Y-70806051D02*
X146069295Y-70389115D01*
X146625150Y-69556473D02*
X146535282Y-69613583D01*
X146535282Y-69613583D02*
X146461705Y-69736035D01*
X146461705Y-69736035D02*
X146428945Y-69883013D01*
X146428945Y-69883013D02*
X146461529Y-70013700D01*
X146461529Y-70013700D02*
X146518639Y-70103568D01*
X146518639Y-70103568D02*
X146657383Y-70242488D01*
X146657383Y-70242488D02*
X146779835Y-70316065D01*
X146779835Y-70316065D02*
X146967631Y-70373350D01*
X146967631Y-70373350D02*
X147073792Y-70381584D01*
X147073792Y-70381584D02*
X147204478Y-70349000D01*
X147204478Y-70349000D02*
X147318872Y-70251073D01*
X147318872Y-70251073D02*
X147367923Y-70169438D01*
X147367923Y-70169438D02*
X147400683Y-70022460D01*
X147400683Y-70022460D02*
X147384391Y-69957117D01*
X147384391Y-69957117D02*
X147098668Y-69785438D01*
X147098668Y-69785438D02*
X147000566Y-69948708D01*
X147140188Y-68699306D02*
X147050320Y-68756415D01*
X147050320Y-68756415D02*
X146976743Y-68878868D01*
X146976743Y-68878868D02*
X146943984Y-69025846D01*
X146943984Y-69025846D02*
X146976567Y-69156532D01*
X146976567Y-69156532D02*
X147033677Y-69246401D01*
X147033677Y-69246401D02*
X147172421Y-69385321D01*
X147172421Y-69385321D02*
X147294873Y-69458898D01*
X147294873Y-69458898D02*
X147482669Y-69516183D01*
X147482669Y-69516183D02*
X147588830Y-69524417D01*
X147588830Y-69524417D02*
X147719516Y-69491833D01*
X147719516Y-69491833D02*
X147833910Y-69393906D01*
X147833910Y-69393906D02*
X147882961Y-69312271D01*
X147882961Y-69312271D02*
X147915721Y-69165293D01*
X147915721Y-69165293D02*
X147899429Y-69099950D01*
X147899429Y-69099950D02*
X147613707Y-68928270D01*
X147613707Y-68928270D02*
X147515604Y-69091540D01*
X147752802Y-68511862D02*
X147924481Y-68226139D01*
X148447051Y-68373469D02*
X148201795Y-68781644D01*
X148201795Y-68781644D02*
X147344627Y-68266606D01*
X147344627Y-68266606D02*
X147589883Y-67858431D01*
X148962089Y-67516301D02*
X148382235Y-67556768D01*
X148667781Y-68006111D02*
X147810614Y-67491073D01*
X147810614Y-67491073D02*
X148006819Y-67164533D01*
X148006819Y-67164533D02*
X148096688Y-67107424D01*
X148096688Y-67107424D02*
X148162031Y-67091132D01*
X148162031Y-67091132D02*
X148268192Y-67099366D01*
X148268192Y-67099366D02*
X148390644Y-67172943D01*
X148390644Y-67172943D02*
X148447753Y-67262811D01*
X148447753Y-67262811D02*
X148464045Y-67328154D01*
X148464045Y-67328154D02*
X148455811Y-67434315D01*
X148455811Y-67434315D02*
X148259607Y-67760855D01*
D12*
X143343706Y-61272917D02*
X143391325Y-61272917D01*
X143391325Y-61272917D02*
X143438944Y-61296727D01*
X143438944Y-61296727D02*
X143462754Y-61320536D01*
X143462754Y-61320536D02*
X143486563Y-61368155D01*
X143486563Y-61368155D02*
X143510373Y-61463393D01*
X143510373Y-61463393D02*
X143510373Y-61582441D01*
X143510373Y-61582441D02*
X143486563Y-61677679D01*
X143486563Y-61677679D02*
X143462754Y-61725298D01*
X143462754Y-61725298D02*
X143438944Y-61749107D01*
X143438944Y-61749107D02*
X143391325Y-61772917D01*
X143391325Y-61772917D02*
X143343706Y-61772917D01*
X143343706Y-61772917D02*
X143296087Y-61749107D01*
X143296087Y-61749107D02*
X143272278Y-61725298D01*
X143272278Y-61725298D02*
X143248468Y-61677679D01*
X143248468Y-61677679D02*
X143224659Y-61582441D01*
X143224659Y-61582441D02*
X143224659Y-61463393D01*
X143224659Y-61463393D02*
X143248468Y-61368155D01*
X143248468Y-61368155D02*
X143272278Y-61320536D01*
X143272278Y-61320536D02*
X143296087Y-61296727D01*
X143296087Y-61296727D02*
X143343706Y-61272917D01*
D11*
X138193133Y-61044185D02*
X138764561Y-61044185D01*
X138478847Y-62044185D02*
X138478847Y-61044185D01*
X139002657Y-62044185D02*
X139526466Y-61377519D01*
X139002657Y-61377519D02*
X139526466Y-62044185D01*
X143621428Y-59208571D02*
X143764285Y-59256190D01*
X143764285Y-59256190D02*
X143811904Y-59303809D01*
X143811904Y-59303809D02*
X143859523Y-59399047D01*
X143859523Y-59399047D02*
X143859523Y-59541904D01*
X143859523Y-59541904D02*
X143811904Y-59637142D01*
X143811904Y-59637142D02*
X143764285Y-59684761D01*
X143764285Y-59684761D02*
X143669047Y-59732380D01*
X143669047Y-59732380D02*
X143288095Y-59732380D01*
X143288095Y-59732380D02*
X143288095Y-58732380D01*
X143288095Y-58732380D02*
X143621428Y-58732380D01*
X143621428Y-58732380D02*
X143716666Y-58780000D01*
X143716666Y-58780000D02*
X143764285Y-58827619D01*
X143764285Y-58827619D02*
X143811904Y-58922857D01*
X143811904Y-58922857D02*
X143811904Y-59018095D01*
X143811904Y-59018095D02*
X143764285Y-59113333D01*
X143764285Y-59113333D02*
X143716666Y-59160952D01*
X143716666Y-59160952D02*
X143621428Y-59208571D01*
X143621428Y-59208571D02*
X143288095Y-59208571D01*
X144478571Y-58732380D02*
X144669047Y-58732380D01*
X144669047Y-58732380D02*
X144764285Y-58780000D01*
X144764285Y-58780000D02*
X144859523Y-58875238D01*
X144859523Y-58875238D02*
X144907142Y-59065714D01*
X144907142Y-59065714D02*
X144907142Y-59399047D01*
X144907142Y-59399047D02*
X144859523Y-59589523D01*
X144859523Y-59589523D02*
X144764285Y-59684761D01*
X144764285Y-59684761D02*
X144669047Y-59732380D01*
X144669047Y-59732380D02*
X144478571Y-59732380D01*
X144478571Y-59732380D02*
X144383333Y-59684761D01*
X144383333Y-59684761D02*
X144288095Y-59589523D01*
X144288095Y-59589523D02*
X144240476Y-59399047D01*
X144240476Y-59399047D02*
X144240476Y-59065714D01*
X144240476Y-59065714D02*
X144288095Y-58875238D01*
X144288095Y-58875238D02*
X144383333Y-58780000D01*
X144383333Y-58780000D02*
X144478571Y-58732380D01*
X145526190Y-58732380D02*
X145716666Y-58732380D01*
X145716666Y-58732380D02*
X145811904Y-58780000D01*
X145811904Y-58780000D02*
X145907142Y-58875238D01*
X145907142Y-58875238D02*
X145954761Y-59065714D01*
X145954761Y-59065714D02*
X145954761Y-59399047D01*
X145954761Y-59399047D02*
X145907142Y-59589523D01*
X145907142Y-59589523D02*
X145811904Y-59684761D01*
X145811904Y-59684761D02*
X145716666Y-59732380D01*
X145716666Y-59732380D02*
X145526190Y-59732380D01*
X145526190Y-59732380D02*
X145430952Y-59684761D01*
X145430952Y-59684761D02*
X145335714Y-59589523D01*
X145335714Y-59589523D02*
X145288095Y-59399047D01*
X145288095Y-59399047D02*
X145288095Y-59065714D01*
X145288095Y-59065714D02*
X145335714Y-58875238D01*
X145335714Y-58875238D02*
X145430952Y-58780000D01*
X145430952Y-58780000D02*
X145526190Y-58732380D01*
X146240476Y-58732380D02*
X146811904Y-58732380D01*
X146526190Y-59732380D02*
X146526190Y-58732380D01*
X147335714Y-58732380D02*
X147430952Y-58732380D01*
X147430952Y-58732380D02*
X147526190Y-58780000D01*
X147526190Y-58780000D02*
X147573809Y-58827619D01*
X147573809Y-58827619D02*
X147621428Y-58922857D01*
X147621428Y-58922857D02*
X147669047Y-59113333D01*
X147669047Y-59113333D02*
X147669047Y-59351428D01*
X147669047Y-59351428D02*
X147621428Y-59541904D01*
X147621428Y-59541904D02*
X147573809Y-59637142D01*
X147573809Y-59637142D02*
X147526190Y-59684761D01*
X147526190Y-59684761D02*
X147430952Y-59732380D01*
X147430952Y-59732380D02*
X147335714Y-59732380D01*
X147335714Y-59732380D02*
X147240476Y-59684761D01*
X147240476Y-59684761D02*
X147192857Y-59637142D01*
X147192857Y-59637142D02*
X147145238Y-59541904D01*
X147145238Y-59541904D02*
X147097619Y-59351428D01*
X147097619Y-59351428D02*
X147097619Y-59113333D01*
X147097619Y-59113333D02*
X147145238Y-58922857D01*
X147145238Y-58922857D02*
X147192857Y-58827619D01*
X147192857Y-58827619D02*
X147240476Y-58780000D01*
X147240476Y-58780000D02*
X147335714Y-58732380D01*
D12*
X148256761Y-61754228D02*
X147971047Y-61754228D01*
X148113904Y-61754228D02*
X148113904Y-61254228D01*
X148113904Y-61254228D02*
X148066285Y-61325657D01*
X148066285Y-61325657D02*
X148018666Y-61373276D01*
X148018666Y-61373276D02*
X147971047Y-61397085D01*
X143318851Y-65788928D02*
X143366470Y-65788928D01*
X143366470Y-65788928D02*
X143414089Y-65812738D01*
X143414089Y-65812738D02*
X143437899Y-65836547D01*
X143437899Y-65836547D02*
X143461708Y-65884166D01*
X143461708Y-65884166D02*
X143485518Y-65979404D01*
X143485518Y-65979404D02*
X143485518Y-66098452D01*
X143485518Y-66098452D02*
X143461708Y-66193690D01*
X143461708Y-66193690D02*
X143437899Y-66241309D01*
X143437899Y-66241309D02*
X143414089Y-66265118D01*
X143414089Y-66265118D02*
X143366470Y-66288928D01*
X143366470Y-66288928D02*
X143318851Y-66288928D01*
X143318851Y-66288928D02*
X143271232Y-66265118D01*
X143271232Y-66265118D02*
X143247423Y-66241309D01*
X143247423Y-66241309D02*
X143223613Y-66193690D01*
X143223613Y-66193690D02*
X143199804Y-66098452D01*
X143199804Y-66098452D02*
X143199804Y-65979404D01*
X143199804Y-65979404D02*
X143223613Y-65884166D01*
X143223613Y-65884166D02*
X143247423Y-65836547D01*
X143247423Y-65836547D02*
X143271232Y-65812738D01*
X143271232Y-65812738D02*
X143318851Y-65788928D01*
D11*
X143871428Y-63808571D02*
X144014285Y-63856190D01*
X144014285Y-63856190D02*
X144061904Y-63903809D01*
X144061904Y-63903809D02*
X144109523Y-63999047D01*
X144109523Y-63999047D02*
X144109523Y-64141904D01*
X144109523Y-64141904D02*
X144061904Y-64237142D01*
X144061904Y-64237142D02*
X144014285Y-64284761D01*
X144014285Y-64284761D02*
X143919047Y-64332380D01*
X143919047Y-64332380D02*
X143538095Y-64332380D01*
X143538095Y-64332380D02*
X143538095Y-63332380D01*
X143538095Y-63332380D02*
X143871428Y-63332380D01*
X143871428Y-63332380D02*
X143966666Y-63380000D01*
X143966666Y-63380000D02*
X144014285Y-63427619D01*
X144014285Y-63427619D02*
X144061904Y-63522857D01*
X144061904Y-63522857D02*
X144061904Y-63618095D01*
X144061904Y-63618095D02*
X144014285Y-63713333D01*
X144014285Y-63713333D02*
X143966666Y-63760952D01*
X143966666Y-63760952D02*
X143871428Y-63808571D01*
X143871428Y-63808571D02*
X143538095Y-63808571D01*
X144728571Y-63332380D02*
X144919047Y-63332380D01*
X144919047Y-63332380D02*
X145014285Y-63380000D01*
X145014285Y-63380000D02*
X145109523Y-63475238D01*
X145109523Y-63475238D02*
X145157142Y-63665714D01*
X145157142Y-63665714D02*
X145157142Y-63999047D01*
X145157142Y-63999047D02*
X145109523Y-64189523D01*
X145109523Y-64189523D02*
X145014285Y-64284761D01*
X145014285Y-64284761D02*
X144919047Y-64332380D01*
X144919047Y-64332380D02*
X144728571Y-64332380D01*
X144728571Y-64332380D02*
X144633333Y-64284761D01*
X144633333Y-64284761D02*
X144538095Y-64189523D01*
X144538095Y-64189523D02*
X144490476Y-63999047D01*
X144490476Y-63999047D02*
X144490476Y-63665714D01*
X144490476Y-63665714D02*
X144538095Y-63475238D01*
X144538095Y-63475238D02*
X144633333Y-63380000D01*
X144633333Y-63380000D02*
X144728571Y-63332380D01*
X145776190Y-63332380D02*
X145966666Y-63332380D01*
X145966666Y-63332380D02*
X146061904Y-63380000D01*
X146061904Y-63380000D02*
X146157142Y-63475238D01*
X146157142Y-63475238D02*
X146204761Y-63665714D01*
X146204761Y-63665714D02*
X146204761Y-63999047D01*
X146204761Y-63999047D02*
X146157142Y-64189523D01*
X146157142Y-64189523D02*
X146061904Y-64284761D01*
X146061904Y-64284761D02*
X145966666Y-64332380D01*
X145966666Y-64332380D02*
X145776190Y-64332380D01*
X145776190Y-64332380D02*
X145680952Y-64284761D01*
X145680952Y-64284761D02*
X145585714Y-64189523D01*
X145585714Y-64189523D02*
X145538095Y-63999047D01*
X145538095Y-63999047D02*
X145538095Y-63665714D01*
X145538095Y-63665714D02*
X145585714Y-63475238D01*
X145585714Y-63475238D02*
X145680952Y-63380000D01*
X145680952Y-63380000D02*
X145776190Y-63332380D01*
X146490476Y-63332380D02*
X147061904Y-63332380D01*
X146776190Y-64332380D02*
X146776190Y-63332380D01*
X147919047Y-64332380D02*
X147347619Y-64332380D01*
X147633333Y-64332380D02*
X147633333Y-63332380D01*
X147633333Y-63332380D02*
X147538095Y-63475238D01*
X147538095Y-63475238D02*
X147442857Y-63570476D01*
X147442857Y-63570476D02*
X147347619Y-63618095D01*
X141492857Y-53532380D02*
X142111904Y-53532380D01*
X142111904Y-53532380D02*
X141778571Y-53913333D01*
X141778571Y-53913333D02*
X141921428Y-53913333D01*
X141921428Y-53913333D02*
X142016666Y-53960952D01*
X142016666Y-53960952D02*
X142064285Y-54008571D01*
X142064285Y-54008571D02*
X142111904Y-54103809D01*
X142111904Y-54103809D02*
X142111904Y-54341904D01*
X142111904Y-54341904D02*
X142064285Y-54437142D01*
X142064285Y-54437142D02*
X142016666Y-54484761D01*
X142016666Y-54484761D02*
X141921428Y-54532380D01*
X141921428Y-54532380D02*
X141635714Y-54532380D01*
X141635714Y-54532380D02*
X141540476Y-54484761D01*
X141540476Y-54484761D02*
X141492857Y-54437142D01*
X142397619Y-53532380D02*
X142730952Y-54532380D01*
X142730952Y-54532380D02*
X143064285Y-53532380D01*
X138111904Y-58330000D02*
X138016666Y-58282380D01*
X138016666Y-58282380D02*
X137873809Y-58282380D01*
X137873809Y-58282380D02*
X137730952Y-58330000D01*
X137730952Y-58330000D02*
X137635714Y-58425238D01*
X137635714Y-58425238D02*
X137588095Y-58520476D01*
X137588095Y-58520476D02*
X137540476Y-58710952D01*
X137540476Y-58710952D02*
X137540476Y-58853809D01*
X137540476Y-58853809D02*
X137588095Y-59044285D01*
X137588095Y-59044285D02*
X137635714Y-59139523D01*
X137635714Y-59139523D02*
X137730952Y-59234761D01*
X137730952Y-59234761D02*
X137873809Y-59282380D01*
X137873809Y-59282380D02*
X137969047Y-59282380D01*
X137969047Y-59282380D02*
X138111904Y-59234761D01*
X138111904Y-59234761D02*
X138159523Y-59187142D01*
X138159523Y-59187142D02*
X138159523Y-58853809D01*
X138159523Y-58853809D02*
X137969047Y-58853809D01*
X138588095Y-58615714D02*
X138588095Y-59282380D01*
X138588095Y-58710952D02*
X138635714Y-58663333D01*
X138635714Y-58663333D02*
X138730952Y-58615714D01*
X138730952Y-58615714D02*
X138873809Y-58615714D01*
X138873809Y-58615714D02*
X138969047Y-58663333D01*
X138969047Y-58663333D02*
X139016666Y-58758571D01*
X139016666Y-58758571D02*
X139016666Y-59282380D01*
X139921428Y-59282380D02*
X139921428Y-58282380D01*
X139921428Y-59234761D02*
X139826190Y-59282380D01*
X139826190Y-59282380D02*
X139635714Y-59282380D01*
X139635714Y-59282380D02*
X139540476Y-59234761D01*
X139540476Y-59234761D02*
X139492857Y-59187142D01*
X139492857Y-59187142D02*
X139445238Y-59091904D01*
X139445238Y-59091904D02*
X139445238Y-58806190D01*
X139445238Y-58806190D02*
X139492857Y-58710952D01*
X139492857Y-58710952D02*
X139540476Y-58663333D01*
X139540476Y-58663333D02*
X139635714Y-58615714D01*
X139635714Y-58615714D02*
X139826190Y-58615714D01*
X139826190Y-58615714D02*
X139921428Y-58663333D01*
D13*
X147800000Y-61257500D02*
X147800000Y-61857500D01*
X147250000Y-60057500D02*
X146650000Y-60057500D01*
X147150000Y-62557500D02*
X144350000Y-62557500D01*
X146950000Y-60357500D02*
X147250000Y-60057500D01*
X146950000Y-60357500D02*
X146650000Y-60057500D01*
X144350000Y-60557500D02*
X147150000Y-60557500D01*
X143700000Y-61857500D02*
X143700000Y-61257500D01*
X147100000Y-62557500D02*
G75*
G03*
X147800000Y-61857500I1J699999D01*
G01*
X147800000Y-61257500D02*
G75*
G03*
X147100000Y-60557500I-699999J1D01*
G01*
X143700000Y-61857500D02*
G75*
G03*
X144400000Y-62557500I700000J0D01*
G01*
X144400000Y-60557500D02*
G75*
G03*
X143700000Y-61257500I0J-700000D01*
G01*
X147750000Y-65800000D02*
X147750000Y-66400000D01*
X147200000Y-64600000D02*
X146600000Y-64600000D01*
X147100000Y-67100000D02*
X144300000Y-67100000D01*
X146900000Y-64900000D02*
X147200000Y-64600000D01*
X146900000Y-64900000D02*
X146600000Y-64600000D01*
X144300000Y-65100000D02*
X147100000Y-65100000D01*
X143650000Y-66400000D02*
X143650000Y-65800000D01*
X147050000Y-67100000D02*
G75*
G03*
X147750000Y-66400000I1J699999D01*
G01*
X147750000Y-65800000D02*
G75*
G03*
X147050000Y-65100000I-699999J1D01*
G01*
X143650000Y-66400000D02*
G75*
G03*
X144350000Y-67100000I700000J0D01*
G01*
X144350000Y-65100000D02*
G75*
G03*
X143650000Y-65800000I0J-700000D01*
G01*
X141550000Y-63850000D02*
X140950000Y-63850000D01*
X140250000Y-63150000D02*
X140250000Y-61750000D01*
X142250000Y-61750000D02*
X142250000Y-63150000D01*
X140950000Y-61050000D02*
X141550000Y-61050000D01*
X140250000Y-63150000D02*
G75*
G03*
X140950000Y-63850000I699999J-1D01*
G01*
X141550000Y-63850000D02*
G75*
G03*
X142250000Y-63150000I1J699999D01*
G01*
X140950000Y-61050000D02*
G75*
G03*
X140250000Y-61750000I0J-700000D01*
G01*
X142250000Y-61750000D02*
G75*
G03*
X141550000Y-61050000I-700000J0D01*
G01*
X139450000Y-68500000D02*
X139450000Y-67900000D01*
X140150000Y-67200000D02*
X141550000Y-67200000D01*
X141550000Y-69200000D02*
X140150000Y-69200000D01*
X142250000Y-67900000D02*
X142250000Y-68500000D01*
X140150000Y-67200000D02*
G75*
G03*
X139450000Y-67900000I-1J-699999D01*
G01*
X139450000Y-68500000D02*
G75*
G03*
X140150000Y-69200000I699999J-1D01*
G01*
X142250000Y-67900000D02*
G75*
G03*
X141550000Y-67200000I-700000J0D01*
G01*
X141550000Y-69200000D02*
G75*
G03*
X142250000Y-68500000I0J700000D01*
G01*
X146950000Y-57900000D02*
X146350000Y-57900000D01*
X145650000Y-57200000D02*
X145650000Y-55800000D01*
X147650000Y-55800000D02*
X147650000Y-57200000D01*
X146350000Y-55100000D02*
X146950000Y-55100000D01*
X145650000Y-57200000D02*
G75*
G03*
X146350000Y-57900000I699999J-1D01*
G01*
X146950000Y-57900000D02*
G75*
G03*
X147650000Y-57200000I1J699999D01*
G01*
X146350000Y-55100000D02*
G75*
G03*
X145650000Y-55800000I0J-700000D01*
G01*
X147650000Y-55800000D02*
G75*
G03*
X146950000Y-55100000I-700000J0D01*
G01*
D12*
X133099999Y-61175943D02*
X133099999Y-61375943D01*
X133099999Y-62275943D02*
X133099999Y-62675943D01*
X133799999Y-60975943D02*
X133349999Y-60975943D01*
X133799999Y-62675943D02*
X133099999Y-62675943D01*
X135599999Y-60975943D02*
X136299999Y-60975943D01*
X135599999Y-62675943D02*
X136299999Y-62675943D01*
X136299999Y-61375943D02*
X136299999Y-60975943D01*
X136299999Y-62675943D02*
X136299999Y-62275943D01*
D14*
X133166954Y-61000389D02*
G75*
G03*
X133166954Y-61000389I-1J0D01*
G01*
D13*
X139550000Y-66650000D02*
X138950000Y-66650000D01*
X138250000Y-65950000D02*
X138250000Y-64550000D01*
X140250000Y-64550000D02*
X140250000Y-65950000D01*
X138950000Y-63850000D02*
X139550000Y-63850000D01*
X138250000Y-65950000D02*
G75*
G03*
X138950000Y-66650000I699999J-1D01*
G01*
X139550000Y-66650000D02*
G75*
G03*
X140250000Y-65950000I1J699999D01*
G01*
X138950000Y-63850000D02*
G75*
G03*
X138250000Y-64550000I0J-700000D01*
G01*
X140250000Y-64550000D02*
G75*
G03*
X139550000Y-63850000I-700000J0D01*
G01*
X141550000Y-61100000D02*
X140950000Y-61100000D01*
X140250000Y-60400000D02*
X140250000Y-59000000D01*
X142250000Y-59000000D02*
X142250000Y-60400000D01*
X140950000Y-58300000D02*
X141550000Y-58300000D01*
X140250000Y-60400000D02*
G75*
G03*
X140950000Y-61100000I699999J-1D01*
G01*
X141550000Y-61100000D02*
G75*
G03*
X142250000Y-60400000I1J699999D01*
G01*
X140950000Y-58300000D02*
G75*
G03*
X140250000Y-59000000I0J-700000D01*
G01*
X142250000Y-59000000D02*
G75*
G03*
X141550000Y-58300000I-700000J0D01*
G01*
X142450000Y-57800000D02*
X141850000Y-57800000D01*
X141150000Y-57100000D02*
X141150000Y-55700000D01*
X143150000Y-55700000D02*
X143150000Y-57100000D01*
X141850000Y-55000000D02*
X142450000Y-55000000D01*
X141150000Y-57100000D02*
G75*
G03*
X141850000Y-57800000I699999J-1D01*
G01*
X142450000Y-57800000D02*
G75*
G03*
X143150000Y-57100000I1J699999D01*
G01*
X141850000Y-55000000D02*
G75*
G03*
X141150000Y-55700000I0J-700000D01*
G01*
X143150000Y-55700000D02*
G75*
G03*
X142450000Y-55000000I-700000J0D01*
G01*
%LPC*%
D15*
X147050000Y-61557500D03*
D16*
X145749999Y-61557499D03*
D17*
X144450000Y-61557500D03*
D15*
X147000000Y-66100000D03*
D16*
X145699999Y-66099999D03*
D17*
X144400000Y-66100000D03*
D18*
X141250000Y-63100000D03*
D19*
X141250000Y-61800000D03*
D20*
X140200000Y-68200000D03*
D21*
X141500000Y-68200000D03*
D18*
X146650000Y-57150000D03*
D19*
X146650000Y-55850000D03*
D22*
X133999999Y-61115943D03*
X134349999Y-61115943D03*
X134699999Y-61115943D03*
X135049999Y-61115943D03*
X135399999Y-61115943D03*
X133999999Y-62525943D03*
X134349999Y-62525943D03*
X134699999Y-62525943D03*
X135049999Y-62525943D03*
X135399999Y-62525943D03*
D23*
X133394998Y-61280943D03*
D24*
X133189998Y-61825942D03*
D25*
X133394998Y-62370942D03*
D26*
X136004998Y-61280942D03*
D27*
X136209998Y-61825942D03*
D28*
X136004998Y-62370942D03*
D18*
X139250000Y-65900000D03*
D19*
X139250000Y-64600000D03*
D18*
X141250000Y-60350000D03*
D19*
X141250000Y-59050000D03*
D18*
X142150000Y-57050000D03*
D19*
X142150000Y-55750000D03*
D29*
X148316797Y-78015415D03*
X154225715Y-68559170D03*
D30*
X151003291Y-66545222D03*
X145094215Y-76001721D03*
D31*
X155581179Y-62080248D03*
X154029316Y-51038164D03*
D32*
X150266255Y-51566725D03*
X151818161Y-62609105D03*
M02*
