%TF.GenerationSoftware,KiCad,Pcbnew,(7.0.0-0)*%
%TF.CreationDate,2024-01-25T23:02:35+08:00*%
%TF.ProjectId,SWDProgrammer,53574450-726f-4677-9261-6d6d65722e6b,rev?*%
%TF.SameCoordinates,Original*%
%TF.FileFunction,Drillmap*%
%TF.FilePolarity,Positive*%
%FSLAX45Y45*%
G04 Gerber Fmt 4.5, Leading zero omitted, Abs format (unit mm)*
G04 Created by KiCad (PCBNEW (7.0.0-0)) date 2024-01-25 23:02:35*
%MOMM*%
%LPD*%
G01*
G04 APERTURE LIST*
%ADD10C,0.100000*%
%ADD11C,0.150000*%
%ADD12C,0.200000*%
G04 APERTURE END LIST*
D10*
X14991280Y-5266442D02*
X15117694Y-6162457D01*
X14523280Y-7483485D02*
X15002475Y-6716741D01*
D11*
X13564998Y-6817501D02*
X14807443Y-8008270D01*
D10*
X15700666Y-6080020D02*
X15117694Y-6162457D01*
D11*
X13247500Y-6315001D02*
X13247500Y-6047501D01*
X13724998Y-6625001D02*
X13724998Y-6315001D01*
D10*
X15700000Y-6100000D02*
G75*
G03*
X15700666Y-6080020I-2696880J99900D01*
G01*
X15576364Y-5186151D02*
G75*
G03*
X15473045Y-4911860I-2576374J-813859D01*
G01*
D11*
X13564998Y-6817501D02*
X13564998Y-6625001D01*
X13724998Y-6047501D02*
X13724998Y-5742501D01*
X13564998Y-6625001D02*
X13724998Y-6625001D01*
D10*
X15002475Y-6716741D02*
X15500294Y-7023977D01*
D11*
X13984998Y-5742501D02*
X13724998Y-5742501D01*
D10*
X15576364Y-5186151D02*
X14991280Y-5266442D01*
X14807443Y-8008270D02*
G75*
G03*
X15022146Y-7791901I-1802433J2003260D01*
G01*
X15500294Y-7023977D02*
G75*
G03*
X15700000Y-6100000I-2500294J1023977D01*
G01*
D11*
X13773562Y-5338086D02*
X15473045Y-4911860D01*
D10*
X13984998Y-5742501D02*
G75*
G03*
X13773562Y-5338086I-984998J-257499D01*
G01*
D11*
X13247500Y-6047501D02*
X13724998Y-6047501D01*
D10*
X15022146Y-7791901D02*
X14523280Y-7483485D01*
D11*
X13247500Y-6315001D02*
X13724998Y-6315001D01*
D12*
X13487619Y-8309246D02*
X13487619Y-8109246D01*
X13487619Y-8109246D02*
X13535238Y-8109246D01*
X13535238Y-8109246D02*
X13563809Y-8118770D01*
X13563809Y-8118770D02*
X13582857Y-8137818D01*
X13582857Y-8137818D02*
X13592381Y-8156865D01*
X13592381Y-8156865D02*
X13601905Y-8194961D01*
X13601905Y-8194961D02*
X13601905Y-8223532D01*
X13601905Y-8223532D02*
X13592381Y-8261627D01*
X13592381Y-8261627D02*
X13582857Y-8280675D01*
X13582857Y-8280675D02*
X13563809Y-8299722D01*
X13563809Y-8299722D02*
X13535238Y-8309246D01*
X13535238Y-8309246D02*
X13487619Y-8309246D01*
X13687619Y-8309246D02*
X13687619Y-8175913D01*
X13687619Y-8214008D02*
X13697143Y-8194961D01*
X13697143Y-8194961D02*
X13706666Y-8185437D01*
X13706666Y-8185437D02*
X13725714Y-8175913D01*
X13725714Y-8175913D02*
X13744762Y-8175913D01*
X13811428Y-8309246D02*
X13811428Y-8175913D01*
X13811428Y-8109246D02*
X13801905Y-8118770D01*
X13801905Y-8118770D02*
X13811428Y-8128294D01*
X13811428Y-8128294D02*
X13820952Y-8118770D01*
X13820952Y-8118770D02*
X13811428Y-8109246D01*
X13811428Y-8109246D02*
X13811428Y-8128294D01*
X13935238Y-8309246D02*
X13916190Y-8299722D01*
X13916190Y-8299722D02*
X13906666Y-8280675D01*
X13906666Y-8280675D02*
X13906666Y-8109246D01*
X14040000Y-8309246D02*
X14020952Y-8299722D01*
X14020952Y-8299722D02*
X14011428Y-8280675D01*
X14011428Y-8280675D02*
X14011428Y-8109246D01*
X14236190Y-8309246D02*
X14236190Y-8109246D01*
X14236190Y-8109246D02*
X14302857Y-8252103D01*
X14302857Y-8252103D02*
X14369524Y-8109246D01*
X14369524Y-8109246D02*
X14369524Y-8309246D01*
X14550476Y-8309246D02*
X14550476Y-8204484D01*
X14550476Y-8204484D02*
X14540952Y-8185437D01*
X14540952Y-8185437D02*
X14521905Y-8175913D01*
X14521905Y-8175913D02*
X14483809Y-8175913D01*
X14483809Y-8175913D02*
X14464762Y-8185437D01*
X14550476Y-8299722D02*
X14531428Y-8309246D01*
X14531428Y-8309246D02*
X14483809Y-8309246D01*
X14483809Y-8309246D02*
X14464762Y-8299722D01*
X14464762Y-8299722D02*
X14455238Y-8280675D01*
X14455238Y-8280675D02*
X14455238Y-8261627D01*
X14455238Y-8261627D02*
X14464762Y-8242580D01*
X14464762Y-8242580D02*
X14483809Y-8233056D01*
X14483809Y-8233056D02*
X14531428Y-8233056D01*
X14531428Y-8233056D02*
X14550476Y-8223532D01*
X14645714Y-8175913D02*
X14645714Y-8375913D01*
X14645714Y-8185437D02*
X14664762Y-8175913D01*
X14664762Y-8175913D02*
X14702857Y-8175913D01*
X14702857Y-8175913D02*
X14721905Y-8185437D01*
X14721905Y-8185437D02*
X14731428Y-8194961D01*
X14731428Y-8194961D02*
X14740952Y-8214008D01*
X14740952Y-8214008D02*
X14740952Y-8271151D01*
X14740952Y-8271151D02*
X14731428Y-8290199D01*
X14731428Y-8290199D02*
X14721905Y-8299722D01*
X14721905Y-8299722D02*
X14702857Y-8309246D01*
X14702857Y-8309246D02*
X14664762Y-8309246D01*
X14664762Y-8309246D02*
X14645714Y-8299722D01*
X14826666Y-8290199D02*
X14836190Y-8299722D01*
X14836190Y-8299722D02*
X14826666Y-8309246D01*
X14826666Y-8309246D02*
X14817143Y-8299722D01*
X14817143Y-8299722D02*
X14826666Y-8290199D01*
X14826666Y-8290199D02*
X14826666Y-8309246D01*
X14826666Y-8185437D02*
X14836190Y-8194961D01*
X14836190Y-8194961D02*
X14826666Y-8204484D01*
X14826666Y-8204484D02*
X14817143Y-8194961D01*
X14817143Y-8194961D02*
X14826666Y-8185437D01*
X14826666Y-8185437D02*
X14826666Y-8204484D01*
M02*
