M48
; DRILL file {KiCad (7.0.0-0)} date Friday, May 05, 2023 at 02:07:24 PM
; FORMAT={-:-/ absolute / metric / decimal}
; #@! TF.CreationDate,2023-05-05T14:07:24+08:00
; #@! TF.GenerationSoftware,Kicad,Pcbnew,(7.0.0-0)
; #@! TF.FileFunction,Plated,1,4,PTH
FMAT,2
METRIC
; #@! TA.AperFunction,Plated,PTH,ViaDrill
T1C0.250
; #@! TA.AperFunction,Plated,PTH,ComponentDrill
T2C0.300
; #@! TA.AperFunction,Plated,PTH,ComponentDrill
T3C0.600
%
G90
G05
T1
X126.083Y-88.236
X126.13Y-89.27
X126.2Y-92.16
X126.239Y-84.061
X126.376Y-87.644
X126.461Y-85.339
X126.47Y-92.81
X126.561Y-86.739
X126.68Y-88.58
X127.525Y-91.712
X128.24Y-93.38
X128.439Y-89.694
X128.49Y-88.43
X128.67Y-84.431
X129.22Y-83.56
X129.96Y-95.38
X130.1Y-83.2
X130.47Y-88.35
X130.64Y-90.71
X131.3Y-91.99
X131.83Y-87.85
X132.28Y-95.19
X132.62Y-85.5
X132.8Y-92.35
X132.81Y-82.78
X132.87Y-90.77
X132.97Y-88.55
X133.01Y-83.84
X133.51Y-95.2
X133.52Y-85.96
X133.56Y-86.63
X134.2Y-82.66
X134.61Y-95.2
X135.17Y-82.66
X135.41Y-88.32
X136.26Y-82.76
X137.361Y-91.739
X137.46Y-82.85
X137.99Y-95.01
X138.0Y-93.06
X138.17Y-83.59
X138.26Y-84.54
X138.26Y-85.37
T2
X140.0Y-88.15
X140.0Y-89.85
T3
X120.1Y-83.43G85X121.3Y-83.43
G05
X120.1Y-94.58G85X121.3Y-94.58
G05
X124.1Y-83.429G85X124.9Y-83.429
G05
X124.1Y-94.58G85X124.9Y-94.58
G05
T0
M30
