G04 #@! TF.GenerationSoftware,KiCad,Pcbnew,(7.0.0-0)*
G04 #@! TF.CreationDate,2024-02-04T16:48:37+08:00*
G04 #@! TF.ProjectId,SWDProgrammer,53574450-726f-4677-9261-6d6d65722e6b,rev?*
G04 #@! TF.SameCoordinates,Original*
G04 #@! TF.FileFunction,Copper,L4,Bot*
G04 #@! TF.FilePolarity,Positive*
%FSLAX46Y46*%
G04 Gerber Fmt 4.6, Leading zero omitted, Abs format (unit mm)*
G04 Created by KiCad (PCBNEW (7.0.0-0)) date 2024-02-04 16:48:37*
%MOMM*%
%LPD*%
G01*
G04 APERTURE LIST*
G04 Aperture macros list*
%AMRoundRect*
0 Rectangle with rounded corners*
0 $1 Rounding radius*
0 $2 $3 $4 $5 $6 $7 $8 $9 X,Y pos of 4 corners*
0 Add a 4 corners polygon primitive as box body*
4,1,4,$2,$3,$4,$5,$6,$7,$8,$9,$2,$3,0*
0 Add four circle primitives for the rounded corners*
1,1,$1+$1,$2,$3*
1,1,$1+$1,$4,$5*
1,1,$1+$1,$6,$7*
1,1,$1+$1,$8,$9*
0 Add four rect primitives between the rounded corners*
20,1,$1+$1,$2,$3,$4,$5,0*
20,1,$1+$1,$4,$5,$6,$7,0*
20,1,$1+$1,$6,$7,$8,$9,0*
20,1,$1+$1,$8,$9,$2,$3,0*%
%AMHorizOval*
0 Thick line with rounded ends*
0 $1 width*
0 $2 $3 position (X,Y) of the first rounded end (center of the circle)*
0 $4 $5 position (X,Y) of the second rounded end (center of the circle)*
0 Add line between two ends*
20,1,$1,$2,$3,$4,$5,0*
0 Add two circle primitives to create the rounded ends*
1,1,$1,$2,$3*
1,1,$1,$4,$5*%
%AMRotRect*
0 Rectangle, with rotation*
0 The origin of the aperture is its center*
0 $1 length*
0 $2 width*
0 $3 Rotation angle, in degrees counterclockwise*
0 Add horizontal line*
21,1,$1,$2,0,0,$3*%
G04 Aperture macros list end*
G04 #@! TA.AperFunction,SMDPad,CuDef*
%ADD10RoundRect,0.140000X-0.170000X0.140000X-0.170000X-0.140000X0.170000X-0.140000X0.170000X0.140000X0*%
G04 #@! TD*
G04 #@! TA.AperFunction,SMDPad,CuDef*
%ADD11RoundRect,0.100000X-0.400000X-0.400000X0.400000X-0.400000X0.400000X0.400000X-0.400000X0.400000X0*%
G04 #@! TD*
G04 #@! TA.AperFunction,SMDPad,CuDef*
%ADD12RoundRect,0.140000X0.140000X0.170000X-0.140000X0.170000X-0.140000X-0.170000X0.140000X-0.170000X0*%
G04 #@! TD*
G04 #@! TA.AperFunction,SMDPad,CuDef*
%ADD13RoundRect,0.135000X0.185000X-0.135000X0.185000X0.135000X-0.185000X0.135000X-0.185000X-0.135000X0*%
G04 #@! TD*
G04 #@! TA.AperFunction,SMDPad,CuDef*
%ADD14R,1.000000X1.800000*%
G04 #@! TD*
G04 #@! TA.AperFunction,SMDPad,CuDef*
%ADD15RoundRect,0.135000X0.135000X0.185000X-0.135000X0.185000X-0.135000X-0.185000X0.135000X-0.185000X0*%
G04 #@! TD*
G04 #@! TA.AperFunction,SMDPad,CuDef*
%ADD16RoundRect,0.150000X0.512500X0.150000X-0.512500X0.150000X-0.512500X-0.150000X0.512500X-0.150000X0*%
G04 #@! TD*
G04 #@! TA.AperFunction,SMDPad,CuDef*
%ADD17RoundRect,0.135000X-0.185000X0.135000X-0.185000X-0.135000X0.185000X-0.135000X0.185000X0.135000X0*%
G04 #@! TD*
G04 #@! TA.AperFunction,SMDPad,CuDef*
%ADD18RoundRect,0.140000X0.170000X-0.140000X0.170000X0.140000X-0.170000X0.140000X-0.170000X-0.140000X0*%
G04 #@! TD*
G04 #@! TA.AperFunction,SMDPad,CuDef*
%ADD19RoundRect,0.147500X-0.172500X0.147500X-0.172500X-0.147500X0.172500X-0.147500X0.172500X0.147500X0*%
G04 #@! TD*
G04 #@! TA.AperFunction,SMDPad,CuDef*
%ADD20RoundRect,0.075000X-0.075000X0.662500X-0.075000X-0.662500X0.075000X-0.662500X0.075000X0.662500X0*%
G04 #@! TD*
G04 #@! TA.AperFunction,SMDPad,CuDef*
%ADD21RoundRect,0.075000X-0.662500X0.075000X-0.662500X-0.075000X0.662500X-0.075000X0.662500X0.075000X0*%
G04 #@! TD*
G04 #@! TA.AperFunction,SMDPad,CuDef*
%ADD22RoundRect,0.135000X-0.135000X-0.185000X0.135000X-0.185000X0.135000X0.185000X-0.135000X0.185000X0*%
G04 #@! TD*
G04 #@! TA.AperFunction,SMDPad,CuDef*
%ADD23RoundRect,0.140000X-0.140000X-0.170000X0.140000X-0.170000X0.140000X0.170000X-0.140000X0.170000X0*%
G04 #@! TD*
G04 #@! TA.AperFunction,SMDPad,CuDef*
%ADD24RotRect,0.540000X0.800000X58.000000*%
G04 #@! TD*
G04 #@! TA.AperFunction,SMDPad,CuDef*
%ADD25RotRect,0.300000X0.800000X58.000000*%
G04 #@! TD*
G04 #@! TA.AperFunction,ComponentPad*
%ADD26HorizOval,1.000000X-0.508829X0.317952X0.508829X-0.317952X0*%
G04 #@! TD*
G04 #@! TA.AperFunction,ComponentPad*
%ADD27HorizOval,1.000000X-0.339219X0.211968X0.339219X-0.211968X0*%
G04 #@! TD*
G04 #@! TA.AperFunction,SMDPad,CuDef*
%ADD28R,1.400000X1.200000*%
G04 #@! TD*
G04 #@! TA.AperFunction,SMDPad,CuDef*
%ADD29RoundRect,0.147500X-0.147500X-0.172500X0.147500X-0.172500X0.147500X0.172500X-0.147500X0.172500X0*%
G04 #@! TD*
G04 #@! TA.AperFunction,SMDPad,CuDef*
%ADD30RotRect,0.540000X0.800000X98.000000*%
G04 #@! TD*
G04 #@! TA.AperFunction,SMDPad,CuDef*
%ADD31RotRect,0.300000X0.800000X98.000000*%
G04 #@! TD*
G04 #@! TA.AperFunction,ComponentPad*
%ADD32HorizOval,1.000000X0.594161X0.083504X-0.594161X-0.083504X0*%
G04 #@! TD*
G04 #@! TA.AperFunction,ComponentPad*
%ADD33HorizOval,1.000000X0.396107X0.055669X-0.396107X-0.055669X0*%
G04 #@! TD*
G04 #@! TA.AperFunction,ViaPad*
%ADD34C,0.450000*%
G04 #@! TD*
G04 #@! TA.AperFunction,Conductor*
%ADD35C,0.100000*%
G04 #@! TD*
G04 APERTURE END LIST*
D10*
X149350000Y-65600000D03*
X149350000Y-66560000D03*
D11*
X144350000Y-54750000D03*
X148350000Y-54750000D03*
X144350000Y-52550000D03*
X148350000Y-52550000D03*
D12*
X147630000Y-58250000D03*
X146670000Y-58250000D03*
D13*
X137550000Y-68550001D03*
X137550000Y-67530001D03*
D14*
X147049999Y-56599999D03*
X144549999Y-56599999D03*
D15*
X147744721Y-67588413D03*
X146724721Y-67588413D03*
D16*
X143287500Y-69900000D03*
X143287500Y-70850000D03*
X143287500Y-71800000D03*
X141012500Y-71800000D03*
X141012500Y-69900000D03*
D17*
X144700000Y-71550000D03*
X144700000Y-72570000D03*
D12*
X143299763Y-57160534D03*
X142339763Y-57160534D03*
D18*
X138650000Y-69080000D03*
X138650000Y-68120000D03*
D12*
X143780000Y-58250000D03*
X142820000Y-58250000D03*
D19*
X137875000Y-57990000D03*
X137875000Y-58960000D03*
D18*
X139600000Y-70610000D03*
X139600000Y-69650000D03*
D12*
X145674714Y-58268919D03*
X144714714Y-58268919D03*
D20*
X139737500Y-59737500D03*
X140237500Y-59737500D03*
X140737500Y-59737500D03*
X141237500Y-59737500D03*
X141737500Y-59737500D03*
X142237500Y-59737500D03*
X142737500Y-59737500D03*
X143237500Y-59737500D03*
X143737500Y-59737500D03*
X144237500Y-59737500D03*
X144737500Y-59737500D03*
X145237500Y-59737500D03*
D21*
X146650000Y-61150000D03*
X146650000Y-61650000D03*
X146650000Y-62150000D03*
X146650000Y-62650000D03*
X146650000Y-63150000D03*
X146650000Y-63650000D03*
X146650000Y-64150000D03*
X146650000Y-64650000D03*
X146650000Y-65150000D03*
X146650000Y-65650000D03*
X146650000Y-66150000D03*
X146650000Y-66650000D03*
D20*
X145237500Y-68062500D03*
X144737500Y-68062500D03*
X144237500Y-68062500D03*
X143737500Y-68062500D03*
X143237500Y-68062500D03*
X142737500Y-68062500D03*
X142237500Y-68062500D03*
X141737500Y-68062500D03*
X141237500Y-68062500D03*
X140737500Y-68062500D03*
X140237500Y-68062500D03*
X139737500Y-68062500D03*
D21*
X138325000Y-66650000D03*
X138325000Y-66150000D03*
X138325000Y-65650000D03*
X138325000Y-65150000D03*
X138325000Y-64650000D03*
X138325000Y-64150000D03*
X138325000Y-63650000D03*
X138325000Y-63150000D03*
X138325000Y-62650000D03*
X138325000Y-62150000D03*
X138325000Y-61650000D03*
X138325000Y-61150000D03*
D22*
X148199999Y-62550000D03*
X149219999Y-62550000D03*
D23*
X137795000Y-59825000D03*
X138755000Y-59825000D03*
D24*
X145589689Y-73510425D03*
X148981172Y-68082918D03*
X146013624Y-72831987D03*
X148557236Y-68761356D03*
D25*
X147947829Y-69736611D03*
X147417910Y-70584660D03*
X147152950Y-71008684D03*
X146623031Y-71856732D03*
X146358071Y-72280756D03*
X146887991Y-71432708D03*
X147682870Y-70160635D03*
X148217028Y-69305803D03*
D26*
X148316797Y-78015415D03*
X154225715Y-68559170D03*
D27*
X151003291Y-66545222D03*
X145094215Y-76001721D03*
D10*
X148300000Y-65700000D03*
X148300000Y-66660000D03*
D28*
X140499999Y-54049999D03*
X142699999Y-54049999D03*
X142699999Y-55749999D03*
X140499999Y-55749999D03*
D23*
X142220000Y-73050000D03*
X143180000Y-73050000D03*
D29*
X148250000Y-61600000D03*
X149220000Y-61600000D03*
D23*
X140440000Y-57150000D03*
X141400000Y-57150000D03*
D17*
X138850000Y-57965000D03*
X138850000Y-58985000D03*
D13*
X148350000Y-56919999D03*
X148350000Y-55899999D03*
D30*
X150596342Y-60382177D03*
X149705634Y-54044462D03*
X150485003Y-59589963D03*
X149816972Y-54836676D03*
D31*
X149977021Y-55975484D03*
X150116194Y-56965753D03*
X150185781Y-57460887D03*
X150324954Y-58451155D03*
X150394541Y-58946289D03*
X150255367Y-57956021D03*
X150046608Y-56470619D03*
X149906321Y-55472428D03*
D32*
X155581179Y-62080248D03*
X154029316Y-51038164D03*
D33*
X150266255Y-51566725D03*
X151818161Y-62609105D03*
D15*
X149260000Y-64550000D03*
X148240000Y-64550000D03*
X149260000Y-63500000D03*
X148240000Y-63500000D03*
D22*
X146175532Y-68598922D03*
X147195532Y-68598922D03*
D15*
X141710000Y-58200000D03*
X140690000Y-58200000D03*
D13*
X149200000Y-60210000D03*
X149200000Y-59190000D03*
D34*
X143233206Y-58795658D03*
X145250000Y-71450000D03*
X146075000Y-67900000D03*
X140250000Y-67000000D03*
X145250000Y-54500000D03*
X137950000Y-69250000D03*
X136625000Y-61874500D03*
X147900000Y-65275000D03*
X137700000Y-60550000D03*
X138325000Y-60500000D03*
X141050000Y-70600000D03*
X143771839Y-58904409D03*
X147750000Y-66450000D03*
X149800000Y-61600000D03*
X136900000Y-68400000D03*
X142820000Y-58250000D03*
X138300000Y-67350000D03*
X147850000Y-68450000D03*
X143800000Y-73200000D03*
X146150000Y-57050000D03*
X140200000Y-61000000D03*
X146000000Y-69600000D03*
X146550000Y-70450000D03*
X147100000Y-69700000D03*
X149750000Y-64600000D03*
X149800000Y-63500000D03*
X150000000Y-59700000D03*
X134884560Y-61947724D03*
X149300000Y-54900000D03*
X146175000Y-55725000D03*
X147750000Y-63500000D03*
X139850000Y-63400000D03*
X141250000Y-61800000D03*
X141250000Y-63100000D03*
X137220000Y-61975500D03*
X149500000Y-57050000D03*
X149300000Y-58050000D03*
X148750000Y-57500000D03*
X133919458Y-62190775D03*
X132975000Y-61000000D03*
X139750000Y-58449500D03*
X134429034Y-61640397D03*
X145450000Y-62850000D03*
X133880236Y-61612597D03*
X143300000Y-66900000D03*
X135785499Y-61885780D03*
X143475000Y-52650000D03*
D35*
X137795000Y-59825000D02*
X137795000Y-60455000D01*
X143233206Y-58795658D02*
X143233206Y-58516794D01*
X148300000Y-65675000D02*
X147900000Y-65275000D01*
X140237500Y-67012500D02*
X140250000Y-67000000D01*
X146650000Y-66150000D02*
X147400000Y-66150000D01*
X138120000Y-69080000D02*
X137950000Y-69250000D01*
X144000000Y-70850000D02*
X144700000Y-71550000D01*
X143500000Y-58250000D02*
X143780000Y-58250000D01*
X138650000Y-69080000D02*
X138120000Y-69080000D01*
X144700000Y-71550000D02*
X145150000Y-71550000D01*
X145000000Y-54750000D02*
X145250000Y-54500000D01*
X140237500Y-68062500D02*
X140237500Y-67012500D01*
X144350000Y-54750000D02*
X145000000Y-54750000D01*
X143237500Y-58799952D02*
X143233206Y-58795658D01*
X146175532Y-68000532D02*
X146175532Y-68598922D01*
X137225000Y-61250000D02*
X136875000Y-61250000D01*
X143233206Y-58516794D02*
X143500000Y-58250000D01*
X146075000Y-67900000D02*
X146175532Y-68000532D01*
X137625000Y-61650000D02*
X137225000Y-61250000D01*
X143287500Y-70850000D02*
X144000000Y-70850000D01*
X148300000Y-65700000D02*
X148300000Y-65675000D01*
X138325000Y-61650000D02*
X137625000Y-61650000D01*
X147400000Y-66150000D02*
X147850000Y-65700000D01*
X145150000Y-71550000D02*
X145250000Y-71450000D01*
X143237500Y-59737500D02*
X143237500Y-58799952D01*
X147850000Y-65700000D02*
X148300000Y-65700000D01*
X137795000Y-60455000D02*
X137700000Y-60550000D01*
X141710000Y-58200000D02*
X142237500Y-58727500D01*
X142237500Y-58727500D02*
X142237500Y-59737500D01*
X142339763Y-57160534D02*
X142700000Y-56800297D01*
X142700000Y-56800297D02*
X142700000Y-55750000D01*
X141710000Y-58200000D02*
X142339763Y-57570237D01*
X142339763Y-57570237D02*
X142339763Y-57160534D01*
X141400000Y-57490000D02*
X141400000Y-57150000D01*
X141737500Y-59181802D02*
X140755698Y-58200000D01*
X141525000Y-55075000D02*
X140500000Y-54050000D01*
X141737500Y-59737500D02*
X141737500Y-59181802D01*
X140690000Y-58200000D02*
X141400000Y-57490000D01*
X140755698Y-58200000D02*
X140690000Y-58200000D01*
X141525000Y-57025000D02*
X141525000Y-55075000D01*
X141400000Y-57150000D02*
X141525000Y-57025000D01*
X138732500Y-59825000D02*
X138755000Y-59825000D01*
X137875000Y-58967500D02*
X138732500Y-59825000D01*
X138650000Y-68120000D02*
X138707500Y-68062500D01*
X138325000Y-61150000D02*
X138325000Y-60500000D01*
X138325000Y-60500000D02*
X138325000Y-60255000D01*
X137875000Y-58960000D02*
X137875000Y-58967500D01*
X137050001Y-68550001D02*
X136900000Y-68400000D01*
X147960000Y-66660000D02*
X147750000Y-66450000D01*
X137550000Y-68550001D02*
X137050001Y-68550001D01*
X149220000Y-61600000D02*
X149800000Y-61600000D01*
X146660000Y-66660000D02*
X146650000Y-66650000D01*
X141012500Y-69900000D02*
X141012500Y-70562500D01*
X148300000Y-66660000D02*
X147960000Y-66660000D01*
X139600000Y-69650000D02*
X139850000Y-69900000D01*
X138707500Y-68062500D02*
X139737500Y-68062500D01*
X143737500Y-59737500D02*
X143737500Y-58938748D01*
X139850000Y-69900000D02*
X141012500Y-69900000D01*
X137550000Y-68550001D02*
X138219999Y-68550001D01*
X147744721Y-67215279D02*
X148300000Y-66660000D01*
X139737500Y-69512500D02*
X139737500Y-68062500D01*
X141012500Y-70562500D02*
X141050000Y-70600000D01*
X138219999Y-68550001D02*
X138650000Y-68120000D01*
X138325000Y-60255000D02*
X138755000Y-59825000D01*
X148300000Y-66660000D02*
X146660000Y-66660000D01*
X139600000Y-69650000D02*
X139737500Y-69512500D01*
X147744721Y-67588413D02*
X147744721Y-67215279D01*
X143737500Y-58938748D02*
X143771839Y-58904409D01*
X137550000Y-67530001D02*
X138119999Y-67530001D01*
X142737500Y-58332500D02*
X142737500Y-59737500D01*
X138119999Y-67530001D02*
X138300000Y-67350000D01*
X142820000Y-58250000D02*
X142737500Y-58332500D01*
X143180000Y-73050000D02*
X143650000Y-73050000D01*
X148266954Y-67643046D02*
X149350000Y-66560000D01*
X143150736Y-71800000D02*
X142475000Y-71124264D01*
X148266954Y-68471074D02*
X148266954Y-67643046D01*
X143150736Y-69900000D02*
X143287500Y-69900000D01*
X148557237Y-68761357D02*
X148266954Y-68471074D01*
X148161357Y-68761357D02*
X147850000Y-68450000D01*
X145190095Y-72990095D02*
X145348202Y-72831988D01*
X144397044Y-72990095D02*
X145190095Y-72990095D01*
X143650000Y-73050000D02*
X143800000Y-73200000D01*
X142475000Y-71124264D02*
X142475000Y-70575736D01*
X148557237Y-68761357D02*
X148161357Y-68761357D01*
X143180000Y-73050000D02*
X143180000Y-71907500D01*
X143287500Y-71800000D02*
X143150736Y-71800000D01*
X143287500Y-71880551D02*
X144397044Y-72990095D01*
X145348202Y-72831988D02*
X146013625Y-72831988D01*
X142475000Y-70575736D02*
X143150736Y-69900000D01*
X143180000Y-71907500D02*
X143287500Y-71800000D01*
X143287500Y-71800000D02*
X143287500Y-71880551D01*
X148250000Y-61600000D02*
X148250000Y-62499999D01*
X148250000Y-62499999D02*
X148199999Y-62550000D01*
X147195532Y-68598922D02*
X147195532Y-68984314D01*
X147195532Y-68984314D02*
X147947830Y-69736612D01*
X146055283Y-70600000D02*
X146887992Y-71432709D01*
X146724721Y-69891471D02*
X147417911Y-70584661D01*
X146724721Y-67588413D02*
X146724721Y-69891471D01*
X141700000Y-69300000D02*
X141237500Y-68837500D01*
X145760000Y-70600000D02*
X146724721Y-69635279D01*
X141237500Y-68837500D02*
X141237500Y-68062500D01*
X144460000Y-69300000D02*
X141700000Y-69300000D01*
X145760000Y-70600000D02*
X146055283Y-70600000D01*
X145760000Y-70600000D02*
X144460000Y-69300000D01*
X146000000Y-69600000D02*
X145475000Y-69075000D01*
X142050000Y-69075000D02*
X141737500Y-68762500D01*
X147560636Y-70160636D02*
X147100000Y-69700000D01*
X141737500Y-68762500D02*
X141737500Y-68062500D01*
X147682871Y-70160636D02*
X147560636Y-70160636D01*
X145475000Y-69075000D02*
X142050000Y-69075000D01*
X147152951Y-71008685D02*
X147108685Y-71008685D01*
X147108685Y-71008685D02*
X146550000Y-70450000D01*
X146067790Y-71990475D02*
X146358072Y-72280757D01*
X144700000Y-72570000D02*
X145279525Y-71990475D01*
X145279525Y-71990475D02*
X146067790Y-71990475D01*
X149260000Y-64550000D02*
X149700000Y-64550000D01*
X149700000Y-64550000D02*
X149750000Y-64600000D01*
X149260000Y-63500000D02*
X149800000Y-63500000D01*
X150485004Y-59589964D02*
X150110036Y-59589964D01*
X149363323Y-54836677D02*
X149300000Y-54900000D01*
X149816973Y-54836677D02*
X149363323Y-54836677D01*
X150110036Y-59589964D02*
X150000000Y-59700000D01*
X148350000Y-55899999D02*
X148425486Y-55975485D01*
X148425486Y-55975485D02*
X149977022Y-55975485D01*
X146670000Y-59643540D02*
X145488541Y-60825000D01*
X145488541Y-60825000D02*
X141269302Y-60825000D01*
X141269302Y-60825000D02*
X140737500Y-60293198D01*
X146670000Y-58250000D02*
X146670000Y-59643540D01*
X147050000Y-56600000D02*
X147050000Y-57870000D01*
X140737500Y-60293198D02*
X140737500Y-59737500D01*
X147050000Y-57870000D02*
X146670000Y-58250000D01*
X145674714Y-57724714D02*
X145674714Y-58268919D01*
X141237500Y-60293198D02*
X141237500Y-59737500D01*
X145674714Y-58268919D02*
X145674714Y-60355984D01*
X141569302Y-60625000D02*
X141237500Y-60293198D01*
X145405698Y-60625000D02*
X141569302Y-60625000D01*
X144550000Y-56600000D02*
X145674714Y-57724714D01*
X145674714Y-60355984D02*
X145405698Y-60625000D01*
X138850000Y-57965000D02*
X137900000Y-57965000D01*
X137900000Y-57965000D02*
X137875000Y-57990000D01*
X138325000Y-63150000D02*
X139600000Y-63150000D01*
X148240000Y-63500000D02*
X147750000Y-63500000D01*
X139600000Y-63150000D02*
X139850000Y-63400000D01*
X146750000Y-64550000D02*
X146650000Y-64650000D01*
X148240000Y-64550000D02*
X146750000Y-64550000D01*
X138850000Y-58985000D02*
X138985000Y-58850000D01*
X140237500Y-59181802D02*
X140237500Y-59737500D01*
X139905698Y-58850000D02*
X140237500Y-59181802D01*
X138985000Y-58850000D02*
X139905698Y-58850000D01*
X142737500Y-63287500D02*
X141250000Y-61800000D01*
X142737500Y-68062500D02*
X142737500Y-63287500D01*
X141250000Y-63200000D02*
X141250000Y-63100000D01*
X142237500Y-64187500D02*
X142237500Y-68062500D01*
X142237500Y-64187500D02*
X141250000Y-63200000D01*
X150116195Y-56965754D02*
X149584246Y-56965754D01*
X149584246Y-56965754D02*
X149500000Y-57050000D01*
X149393978Y-57956022D02*
X149300000Y-58050000D01*
X150255368Y-57956022D02*
X149393978Y-57956022D01*
X149100000Y-56700000D02*
X149329380Y-56470620D01*
X148900000Y-57500000D02*
X148750000Y-57500000D01*
X149100000Y-57300000D02*
X149100000Y-56700000D01*
X149260888Y-57460888D02*
X149100000Y-57300000D01*
X150185782Y-57460888D02*
X149260888Y-57460888D01*
X149329380Y-56470620D02*
X150046609Y-56470620D01*
X149100000Y-57300000D02*
X148900000Y-57500000D01*
X149200000Y-59190000D02*
X149443710Y-58946290D01*
X149443710Y-58946290D02*
X150394542Y-58946290D01*
X146650000Y-62150000D02*
X146094302Y-62150000D01*
X145450000Y-62794302D02*
X145450000Y-62850000D01*
X146094302Y-62150000D02*
X145450000Y-62794302D01*
X144237500Y-67506802D02*
X143630698Y-66900000D01*
X144237500Y-68062500D02*
X144237500Y-67506802D01*
X143630698Y-66900000D02*
X143300000Y-66900000D01*
X143475000Y-52650000D02*
X144250000Y-52650000D01*
X144350000Y-52550000D02*
X148350000Y-52550000D01*
X144250000Y-52650000D02*
X144350000Y-52550000D01*
G04 #@! TA.AperFunction,Conductor*
G36*
X137446862Y-66330596D02*
G01*
X137480070Y-66357866D01*
X137480727Y-66358848D01*
X137480769Y-66358911D01*
X137493224Y-66400014D01*
X137480753Y-66441112D01*
X137454132Y-66480952D01*
X137454129Y-66480957D01*
X137450083Y-66487014D01*
X137448661Y-66494160D01*
X137448660Y-66494164D01*
X137437710Y-66549217D01*
X137437000Y-66552789D01*
X137437000Y-66556427D01*
X137437000Y-66556428D01*
X137437000Y-66743568D01*
X137437000Y-66743577D01*
X137437001Y-66747210D01*
X137437710Y-66750776D01*
X137437711Y-66750783D01*
X137447954Y-66802285D01*
X137450083Y-66812986D01*
X137499923Y-66887577D01*
X137505983Y-66891626D01*
X137568452Y-66933367D01*
X137568453Y-66933367D01*
X137574514Y-66937417D01*
X137640289Y-66950500D01*
X137989812Y-66950499D01*
X138030922Y-66962970D01*
X138058177Y-66996180D01*
X138062388Y-67038935D01*
X138042136Y-67076824D01*
X137996546Y-67122414D01*
X137996540Y-67122421D01*
X137992427Y-67126535D01*
X137989783Y-67131722D01*
X137989750Y-67131769D01*
X137960616Y-67155589D01*
X137923534Y-67162000D01*
X137899940Y-67153574D01*
X137899141Y-67155385D01*
X137806586Y-67114517D01*
X137806582Y-67114516D01*
X137801498Y-67112271D01*
X137795977Y-67111630D01*
X137795972Y-67111629D01*
X137779751Y-67109747D01*
X137779735Y-67109746D01*
X137777623Y-67109501D01*
X137775479Y-67109501D01*
X137324523Y-67109501D01*
X137324505Y-67109501D01*
X137322378Y-67109502D01*
X137320252Y-67109748D01*
X137320244Y-67109749D01*
X137304033Y-67111629D01*
X137304029Y-67111629D01*
X137298502Y-67112271D01*
X137293413Y-67114517D01*
X137293409Y-67114519D01*
X137207131Y-67152615D01*
X137207128Y-67152616D01*
X137200859Y-67155385D01*
X137196013Y-67160230D01*
X137196010Y-67160233D01*
X137130232Y-67226011D01*
X137130229Y-67226014D01*
X137125384Y-67230860D01*
X137122615Y-67237129D01*
X137122614Y-67237132D01*
X137084516Y-67323414D01*
X137084514Y-67323420D01*
X137082270Y-67328503D01*
X137081629Y-67334021D01*
X137081628Y-67334028D01*
X137079746Y-67350249D01*
X137079745Y-67350266D01*
X137079500Y-67352378D01*
X137079500Y-67354520D01*
X137079500Y-67354521D01*
X137079500Y-67705477D01*
X137079500Y-67705494D01*
X137079501Y-67707623D01*
X137079747Y-67709749D01*
X137079748Y-67709756D01*
X137081413Y-67724117D01*
X137082270Y-67731499D01*
X137084517Y-67736588D01*
X137084518Y-67736591D01*
X137119597Y-67816036D01*
X137125384Y-67829142D01*
X137200859Y-67904617D01*
X137286392Y-67942384D01*
X137293408Y-67945482D01*
X137298502Y-67947731D01*
X137322377Y-67950501D01*
X137777622Y-67950500D01*
X137801498Y-67947731D01*
X137899141Y-67904617D01*
X137974616Y-67829142D01*
X137998694Y-67774610D01*
X138025990Y-67742501D01*
X138066389Y-67730501D01*
X138075114Y-67730501D01*
X138083401Y-67730966D01*
X138089100Y-67731608D01*
X138096973Y-67734363D01*
X138127127Y-67730965D01*
X138135411Y-67730501D01*
X138138428Y-67730501D01*
X138142589Y-67730501D01*
X138146644Y-67729575D01*
X138150772Y-67729110D01*
X138150950Y-67730697D01*
X138183764Y-67732378D01*
X138217014Y-67755328D01*
X138233254Y-67792321D01*
X138227644Y-67832331D01*
X138194564Y-67907249D01*
X138194562Y-67907254D01*
X138192318Y-67912338D01*
X138191677Y-67917856D01*
X138191676Y-67917863D01*
X138189746Y-67934498D01*
X138189745Y-67934515D01*
X138189500Y-67936627D01*
X138189500Y-67938770D01*
X138189500Y-68266298D01*
X138183867Y-68294617D01*
X138167826Y-68318624D01*
X138158623Y-68327827D01*
X138134616Y-68343868D01*
X138106297Y-68349501D01*
X138066389Y-68349501D01*
X138025990Y-68337501D01*
X137998694Y-68305391D01*
X137993937Y-68294617D01*
X137974616Y-68250860D01*
X137899141Y-68175385D01*
X137891373Y-68171955D01*
X137806586Y-68134517D01*
X137806582Y-68134516D01*
X137801498Y-68132271D01*
X137795977Y-68131630D01*
X137795972Y-68131629D01*
X137779751Y-68129747D01*
X137779735Y-68129746D01*
X137777623Y-68129501D01*
X137775479Y-68129501D01*
X137324523Y-68129501D01*
X137324505Y-68129501D01*
X137322378Y-68129502D01*
X137320252Y-68129748D01*
X137320244Y-68129749D01*
X137304033Y-68131629D01*
X137304029Y-68131629D01*
X137298502Y-68132271D01*
X137293413Y-68134517D01*
X137293409Y-68134519D01*
X137251090Y-68153205D01*
X137207602Y-68158250D01*
X137168874Y-68137836D01*
X137127584Y-68096546D01*
X137127584Y-68096545D01*
X137123465Y-68092427D01*
X137017482Y-68038426D01*
X137011728Y-68037514D01*
X137011726Y-68037514D01*
X136905752Y-68020730D01*
X136900000Y-68019819D01*
X136894248Y-68020730D01*
X136788273Y-68037514D01*
X136788269Y-68037515D01*
X136782518Y-68038426D01*
X136777326Y-68041071D01*
X136777324Y-68041072D01*
X136681727Y-68089781D01*
X136681724Y-68089782D01*
X136676535Y-68092427D01*
X136672418Y-68096543D01*
X136672415Y-68096546D01*
X136596546Y-68172415D01*
X136596543Y-68172418D01*
X136592427Y-68176535D01*
X136589782Y-68181724D01*
X136589781Y-68181727D01*
X136546690Y-68266298D01*
X136538426Y-68282518D01*
X136537515Y-68288269D01*
X136537514Y-68288273D01*
X136528709Y-68343868D01*
X136519819Y-68400000D01*
X136520730Y-68405752D01*
X136536699Y-68506582D01*
X136538426Y-68517482D01*
X136592427Y-68623465D01*
X136676535Y-68707573D01*
X136782518Y-68761574D01*
X136900000Y-68780181D01*
X137017482Y-68761574D01*
X137017692Y-68761466D01*
X137049885Y-68759231D01*
X137082640Y-68773874D01*
X137104657Y-68802203D01*
X137122612Y-68842866D01*
X137122614Y-68842869D01*
X137125384Y-68849142D01*
X137200859Y-68924617D01*
X137274706Y-68957224D01*
X137293408Y-68965482D01*
X137298502Y-68967731D01*
X137322377Y-68970501D01*
X137777622Y-68970500D01*
X137801498Y-68967731D01*
X137899141Y-68924617D01*
X137974616Y-68849142D01*
X137998694Y-68794610D01*
X138025990Y-68762501D01*
X138066389Y-68750501D01*
X138133093Y-68750501D01*
X138178592Y-68766141D01*
X138204858Y-68806451D01*
X138200788Y-68854391D01*
X138195061Y-68867359D01*
X138192171Y-68877983D01*
X138190246Y-68894573D01*
X138190000Y-68898845D01*
X138190000Y-68920257D01*
X138192059Y-68927940D01*
X138199743Y-68930000D01*
X139100257Y-68930000D01*
X139107940Y-68927940D01*
X139110000Y-68920257D01*
X139110000Y-68898845D01*
X139109753Y-68894573D01*
X139107828Y-68877983D01*
X139104939Y-68867362D01*
X139066161Y-68779541D01*
X139058545Y-68768424D01*
X138991575Y-68701454D01*
X138980458Y-68693838D01*
X138921868Y-68667968D01*
X138889759Y-68640671D01*
X138877759Y-68600273D01*
X138889760Y-68559874D01*
X138921869Y-68532578D01*
X138987016Y-68503813D01*
X139063813Y-68427016D01*
X139107682Y-68327662D01*
X139108323Y-68322134D01*
X139109565Y-68317572D01*
X139136034Y-68278205D01*
X139180969Y-68263000D01*
X139363001Y-68263000D01*
X139400001Y-68272914D01*
X139427087Y-68300000D01*
X139437001Y-68337000D01*
X139437001Y-68747210D01*
X139437710Y-68750776D01*
X139437711Y-68750783D01*
X139445592Y-68790407D01*
X139450083Y-68812986D01*
X139470048Y-68842866D01*
X139495292Y-68880647D01*
X139499923Y-68887577D01*
X139505983Y-68891626D01*
X139511137Y-68896780D01*
X139510496Y-68897420D01*
X139528262Y-68917022D01*
X139537000Y-68951905D01*
X139537000Y-69145501D01*
X139527086Y-69182501D01*
X139500000Y-69209587D01*
X139463000Y-69219501D01*
X139386628Y-69219501D01*
X139384502Y-69219747D01*
X139384494Y-69219748D01*
X139367868Y-69221676D01*
X139367863Y-69221677D01*
X139362338Y-69222318D01*
X139357249Y-69224564D01*
X139357245Y-69224566D01*
X139269256Y-69263417D01*
X139269253Y-69263418D01*
X139262984Y-69266187D01*
X139258138Y-69271032D01*
X139258135Y-69271035D01*
X139236326Y-69292845D01*
X139198437Y-69313097D01*
X139155681Y-69308886D01*
X139122471Y-69281631D01*
X139112611Y-69249127D01*
X139112521Y-69249152D01*
X139111781Y-69246390D01*
X139110000Y-69240519D01*
X139110000Y-69239743D01*
X139107940Y-69232059D01*
X139100257Y-69230000D01*
X138809743Y-69230000D01*
X138802059Y-69232059D01*
X138800000Y-69239743D01*
X138800000Y-69500257D01*
X138802059Y-69507940D01*
X138809743Y-69510000D01*
X138861155Y-69510000D01*
X138865426Y-69509753D01*
X138882016Y-69507828D01*
X138892637Y-69504939D01*
X138980458Y-69466161D01*
X138991574Y-69458546D01*
X139013173Y-69436947D01*
X139051062Y-69416694D01*
X139093818Y-69420905D01*
X139127028Y-69448159D01*
X139139500Y-69489272D01*
X139139500Y-69831226D01*
X139139500Y-69831243D01*
X139139501Y-69833372D01*
X139139747Y-69835498D01*
X139139748Y-69835505D01*
X139141676Y-69852131D01*
X139141676Y-69852134D01*
X139142318Y-69857662D01*
X139144565Y-69862752D01*
X139144566Y-69862754D01*
X139183417Y-69950743D01*
X139186187Y-69957016D01*
X139262984Y-70033813D01*
X139298199Y-70049362D01*
X139328130Y-70062578D01*
X139360239Y-70089874D01*
X139372240Y-70130273D01*
X139360240Y-70170671D01*
X139328131Y-70197967D01*
X139269545Y-70223835D01*
X139258424Y-70231454D01*
X139191454Y-70298424D01*
X139183838Y-70309541D01*
X139145060Y-70397362D01*
X139142171Y-70407983D01*
X139140246Y-70424573D01*
X139140000Y-70428845D01*
X139140000Y-70450257D01*
X139142059Y-70457940D01*
X139149743Y-70460000D01*
X140050257Y-70460000D01*
X140057940Y-70457940D01*
X140060000Y-70450257D01*
X140060000Y-70428845D01*
X140059753Y-70424573D01*
X140057828Y-70407983D01*
X140054939Y-70397362D01*
X140016161Y-70309541D01*
X140008545Y-70298424D01*
X139936947Y-70226826D01*
X139916695Y-70188937D01*
X139920906Y-70146181D01*
X139948161Y-70112971D01*
X139989273Y-70100500D01*
X140145590Y-70100500D01*
X140185989Y-70112500D01*
X140213285Y-70144610D01*
X140245024Y-70216492D01*
X140247794Y-70222765D01*
X140327235Y-70302206D01*
X140430009Y-70347585D01*
X140455135Y-70350500D01*
X140634937Y-70350499D01*
X140681505Y-70366990D01*
X140707319Y-70409112D01*
X140700870Y-70458093D01*
X140688426Y-70482518D01*
X140687515Y-70488269D01*
X140687514Y-70488273D01*
X140677240Y-70553146D01*
X140669819Y-70600000D01*
X140670730Y-70605752D01*
X140687246Y-70710035D01*
X140688426Y-70717482D01*
X140742427Y-70823465D01*
X140826535Y-70907573D01*
X140932518Y-70961574D01*
X141050000Y-70980181D01*
X141167482Y-70961574D01*
X141273465Y-70907573D01*
X141357573Y-70823465D01*
X141411574Y-70717482D01*
X141430181Y-70600000D01*
X141411574Y-70482518D01*
X141399128Y-70458092D01*
X141392680Y-70409114D01*
X141418493Y-70366990D01*
X141465063Y-70350499D01*
X141567719Y-70350499D01*
X141569864Y-70350499D01*
X141594991Y-70347585D01*
X141697765Y-70302206D01*
X141777206Y-70222765D01*
X141822585Y-70119991D01*
X141825500Y-70094865D01*
X141825499Y-69705136D01*
X141822585Y-69680009D01*
X141789195Y-69604389D01*
X141785126Y-69556450D01*
X141811392Y-69516140D01*
X141856891Y-69500500D01*
X142443109Y-69500500D01*
X142488608Y-69516140D01*
X142514874Y-69556450D01*
X142510804Y-69604390D01*
X142479661Y-69674920D01*
X142479659Y-69674925D01*
X142477415Y-69680009D01*
X142476774Y-69685527D01*
X142476773Y-69685534D01*
X142474746Y-69703006D01*
X142474745Y-69703023D01*
X142474500Y-69705135D01*
X142474500Y-69707277D01*
X142474500Y-69707278D01*
X142474500Y-70092718D01*
X142474500Y-70092735D01*
X142474501Y-70094864D01*
X142474747Y-70096990D01*
X142474748Y-70096997D01*
X142476773Y-70114460D01*
X142476773Y-70114463D01*
X142477415Y-70119991D01*
X142479662Y-70125079D01*
X142479663Y-70125083D01*
X142508943Y-70191396D01*
X142513988Y-70234884D01*
X142493574Y-70273612D01*
X142364971Y-70402214D01*
X142358786Y-70407742D01*
X142354285Y-70411330D01*
X142346776Y-70414948D01*
X142341579Y-70421465D01*
X142327852Y-70438677D01*
X142322329Y-70444857D01*
X142320187Y-70446998D01*
X142320180Y-70447006D01*
X142317252Y-70449935D01*
X142315047Y-70453442D01*
X142315040Y-70453452D01*
X142313429Y-70456016D01*
X142308638Y-70462768D01*
X142294906Y-70479988D01*
X142294904Y-70479990D01*
X142289710Y-70486505D01*
X142287856Y-70494625D01*
X142286412Y-70497624D01*
X142285315Y-70500759D01*
X142280884Y-70507812D01*
X142279951Y-70516090D01*
X142279950Y-70516094D01*
X142277486Y-70537968D01*
X142276098Y-70546139D01*
X142275423Y-70549094D01*
X142275421Y-70549107D01*
X142274500Y-70553146D01*
X142274500Y-70557298D01*
X142274500Y-70560324D01*
X142274035Y-70568608D01*
X142271571Y-70590474D01*
X142271571Y-70590476D01*
X142270638Y-70598762D01*
X142273392Y-70606633D01*
X142274035Y-70612334D01*
X142274500Y-70620621D01*
X142274500Y-71079379D01*
X142274035Y-71087666D01*
X142273392Y-71093366D01*
X142270638Y-71101238D01*
X142271571Y-71109522D01*
X142271571Y-71109525D01*
X142274035Y-71131392D01*
X142274500Y-71139676D01*
X142274500Y-71146854D01*
X142275425Y-71150906D01*
X142276097Y-71153852D01*
X142277485Y-71162024D01*
X142279950Y-71183904D01*
X142279950Y-71183906D01*
X142280884Y-71192188D01*
X142285318Y-71199245D01*
X142286415Y-71202379D01*
X142287855Y-71205369D01*
X142289710Y-71213495D01*
X142294906Y-71220011D01*
X142294907Y-71220012D01*
X142308634Y-71237225D01*
X142313432Y-71243987D01*
X142317252Y-71250065D01*
X142320191Y-71253004D01*
X142322324Y-71255137D01*
X142327853Y-71261324D01*
X142346776Y-71285052D01*
X142354288Y-71288669D01*
X142358783Y-71292254D01*
X142364971Y-71297784D01*
X142493574Y-71426387D01*
X142513988Y-71465115D01*
X142508943Y-71508602D01*
X142479662Y-71574917D01*
X142479659Y-71574924D01*
X142477415Y-71580009D01*
X142476774Y-71585527D01*
X142476773Y-71585534D01*
X142474746Y-71603006D01*
X142474745Y-71603023D01*
X142474500Y-71605135D01*
X142474500Y-71607277D01*
X142474500Y-71607278D01*
X142474500Y-71992718D01*
X142474500Y-71992735D01*
X142474501Y-71994864D01*
X142474747Y-71996990D01*
X142474748Y-71996997D01*
X142476773Y-72014460D01*
X142476773Y-72014463D01*
X142477415Y-72019991D01*
X142479662Y-72025079D01*
X142479663Y-72025083D01*
X142509981Y-72093747D01*
X142522794Y-72122765D01*
X142602235Y-72202206D01*
X142705009Y-72247585D01*
X142730135Y-72250500D01*
X142905500Y-72250500D01*
X142942500Y-72260414D01*
X142969586Y-72287500D01*
X142979500Y-72324500D01*
X142979500Y-72540937D01*
X142967499Y-72581336D01*
X142935390Y-72608632D01*
X142879256Y-72633417D01*
X142879253Y-72633418D01*
X142872984Y-72636187D01*
X142868138Y-72641032D01*
X142868135Y-72641035D01*
X142801035Y-72708135D01*
X142801032Y-72708138D01*
X142796187Y-72712984D01*
X142793418Y-72719253D01*
X142793415Y-72719259D01*
X142767420Y-72778131D01*
X142740124Y-72810240D01*
X142699725Y-72822240D01*
X142659327Y-72810239D01*
X142632031Y-72778130D01*
X142606162Y-72719543D01*
X142598545Y-72708424D01*
X142531575Y-72641454D01*
X142520458Y-72633838D01*
X142432637Y-72595060D01*
X142422016Y-72592171D01*
X142405426Y-72590246D01*
X142401155Y-72590000D01*
X142379743Y-72590000D01*
X142372059Y-72592059D01*
X142370000Y-72599743D01*
X142370000Y-73500257D01*
X142372059Y-73507940D01*
X142379743Y-73510000D01*
X142401155Y-73510000D01*
X142405426Y-73509753D01*
X142422016Y-73507828D01*
X142432637Y-73504939D01*
X142520458Y-73466161D01*
X142531575Y-73458545D01*
X142598545Y-73391575D01*
X142606162Y-73380457D01*
X142632031Y-73321869D01*
X142659327Y-73289760D01*
X142699725Y-73277759D01*
X142740124Y-73289759D01*
X142767420Y-73321868D01*
X142793415Y-73380740D01*
X142793417Y-73380743D01*
X142796187Y-73387016D01*
X142872984Y-73463813D01*
X142972338Y-73507682D01*
X142996627Y-73510500D01*
X143363372Y-73510499D01*
X143387662Y-73507682D01*
X143472387Y-73470271D01*
X143515874Y-73465227D01*
X143554603Y-73485641D01*
X143576535Y-73507573D01*
X143682518Y-73561574D01*
X143800000Y-73580181D01*
X143917482Y-73561574D01*
X144023465Y-73507573D01*
X144107573Y-73423465D01*
X144161574Y-73317482D01*
X144178077Y-73213282D01*
X144202477Y-73169134D01*
X144249503Y-73150879D01*
X144297302Y-73167003D01*
X144307813Y-73175385D01*
X144315948Y-73177241D01*
X144318944Y-73178684D01*
X144322058Y-73179773D01*
X144329120Y-73184211D01*
X144359280Y-73187608D01*
X144367449Y-73188995D01*
X144374454Y-73190595D01*
X144381632Y-73190595D01*
X144389915Y-73191059D01*
X144420070Y-73194457D01*
X144427943Y-73191702D01*
X144433642Y-73191060D01*
X144441929Y-73190595D01*
X145007495Y-73190595D01*
X145045053Y-73200834D01*
X145072217Y-73228719D01*
X145081470Y-73266532D01*
X145070251Y-73303809D01*
X145040121Y-73352027D01*
X145038138Y-73358616D01*
X145044777Y-73360426D01*
X145665690Y-73360426D01*
X145702690Y-73370340D01*
X145729776Y-73397426D01*
X145739690Y-73434426D01*
X145739690Y-73586426D01*
X145729776Y-73623426D01*
X145702690Y-73650512D01*
X145665690Y-73660426D01*
X145049219Y-73660426D01*
X145043657Y-73662287D01*
X145047387Y-73666812D01*
X145515308Y-73959200D01*
X145541433Y-73987217D01*
X145550049Y-74024542D01*
X145538847Y-74061175D01*
X145120538Y-74730497D01*
X145108519Y-74745148D01*
X145107363Y-74746236D01*
X145107359Y-74746241D01*
X145100269Y-74752918D01*
X145097466Y-74762243D01*
X145097465Y-74762246D01*
X145088847Y-74790926D01*
X145088743Y-74791270D01*
X145079851Y-74820345D01*
X145079850Y-74820346D01*
X145077082Y-74829401D01*
X145077170Y-74829783D01*
X145077058Y-74830158D01*
X145079247Y-74839437D01*
X145079247Y-74839440D01*
X145086116Y-74868559D01*
X145085997Y-74868587D01*
X145086199Y-74868907D01*
X145093071Y-74898686D01*
X145093072Y-74898688D01*
X145095219Y-74907989D01*
X145095487Y-74908276D01*
X145095577Y-74908657D01*
X145122927Y-74937706D01*
X145150220Y-74966978D01*
X145159535Y-74969826D01*
X145159537Y-74969828D01*
X145161048Y-74970290D01*
X145178320Y-74978111D01*
X149912239Y-77904778D01*
X149940536Y-77936758D01*
X149946453Y-77979049D01*
X149928017Y-78017568D01*
X149604759Y-78372242D01*
X149567141Y-78394397D01*
X149523580Y-78391491D01*
X149489238Y-78364535D01*
X149476069Y-78322912D01*
X149475537Y-78246652D01*
X149433554Y-78087750D01*
X149353372Y-77944281D01*
X149240030Y-77825260D01*
X149205141Y-77803459D01*
X148119940Y-77125350D01*
X148119941Y-77125350D01*
X148117975Y-77124122D01*
X148115872Y-77123150D01*
X148115866Y-77123147D01*
X148010452Y-77074439D01*
X148010450Y-77074438D01*
X148006225Y-77072486D01*
X148001645Y-77071645D01*
X148001644Y-77071645D01*
X147849146Y-77043656D01*
X147849139Y-77043655D01*
X147844570Y-77042817D01*
X147839933Y-77043141D01*
X147839930Y-77043141D01*
X147685261Y-77053956D01*
X147685259Y-77053956D01*
X147680616Y-77054281D01*
X147676198Y-77055750D01*
X147676196Y-77055751D01*
X147529081Y-77104689D01*
X147529076Y-77104691D01*
X147524664Y-77106159D01*
X147520755Y-77108677D01*
X147520751Y-77108680D01*
X147390425Y-77192670D01*
X147390420Y-77192673D01*
X147386513Y-77195192D01*
X147383352Y-77198604D01*
X147383350Y-77198607D01*
X147278005Y-77312368D01*
X147278000Y-77312374D01*
X147274844Y-77315783D01*
X147272631Y-77319874D01*
X147272630Y-77319877D01*
X147198886Y-77456263D01*
X147198884Y-77456267D01*
X147196673Y-77460357D01*
X147195549Y-77464864D01*
X147195547Y-77464870D01*
X147158037Y-77615311D01*
X147158036Y-77615316D01*
X147156911Y-77619830D01*
X147156943Y-77624484D01*
X147156943Y-77624489D01*
X147158026Y-77779525D01*
X147158059Y-77784181D01*
X147159248Y-77788681D01*
X147198853Y-77938585D01*
X147198855Y-77938591D01*
X147200042Y-77943082D01*
X147202310Y-77947141D01*
X147202311Y-77947142D01*
X147277952Y-78082487D01*
X147277954Y-78082490D01*
X147280224Y-78086551D01*
X147393566Y-78205572D01*
X148515621Y-78906710D01*
X148627372Y-78958346D01*
X148789026Y-78988016D01*
X148823869Y-78985579D01*
X148867028Y-78995900D01*
X148896524Y-79029058D01*
X148901745Y-79073128D01*
X148880815Y-79112260D01*
X148530900Y-79455053D01*
X148529384Y-79456497D01*
X148127384Y-79828621D01*
X148094932Y-79846139D01*
X148058055Y-79845819D01*
X148025912Y-79827741D01*
X144864796Y-76798100D01*
X144843774Y-76760784D01*
X144846947Y-76718071D01*
X144873252Y-76684271D01*
X144913877Y-76670705D01*
X144955213Y-76681920D01*
X145121444Y-76785793D01*
X145121452Y-76785797D01*
X145123428Y-76787032D01*
X145235179Y-76838668D01*
X145396834Y-76868337D01*
X145560788Y-76856873D01*
X145716740Y-76804995D01*
X145854891Y-76715963D01*
X145966560Y-76595371D01*
X146044731Y-76450797D01*
X146084493Y-76291324D01*
X146083345Y-76126974D01*
X146041362Y-75968072D01*
X145961180Y-75824603D01*
X145847838Y-75705582D01*
X145065004Y-75216412D01*
X145022949Y-75196980D01*
X144957479Y-75166728D01*
X144957474Y-75166726D01*
X144953253Y-75164776D01*
X144948671Y-75163935D01*
X144796174Y-75135946D01*
X144796167Y-75135945D01*
X144791598Y-75135107D01*
X144786961Y-75135431D01*
X144786958Y-75135431D01*
X144632289Y-75146246D01*
X144632287Y-75146246D01*
X144627644Y-75146571D01*
X144623226Y-75148040D01*
X144623224Y-75148041D01*
X144476108Y-75196980D01*
X144476105Y-75196981D01*
X144471693Y-75198449D01*
X144467781Y-75200969D01*
X144467781Y-75200970D01*
X144337453Y-75284960D01*
X144337448Y-75284963D01*
X144333541Y-75287482D01*
X144330385Y-75290889D01*
X144330379Y-75290895D01*
X144225033Y-75404658D01*
X144225028Y-75404664D01*
X144221872Y-75408073D01*
X144219659Y-75412164D01*
X144219658Y-75412167D01*
X144145914Y-75548553D01*
X144145912Y-75548557D01*
X144143701Y-75552647D01*
X144142577Y-75557154D01*
X144142575Y-75557160D01*
X144105065Y-75707601D01*
X144105064Y-75707606D01*
X144103939Y-75712120D01*
X144103971Y-75716774D01*
X144103971Y-75716779D01*
X144104753Y-75828666D01*
X144105087Y-75876470D01*
X144106275Y-75880968D01*
X144106276Y-75880972D01*
X144106343Y-75881225D01*
X144106332Y-75881390D01*
X144106892Y-75885587D01*
X144106047Y-75885699D01*
X144103239Y-75928261D01*
X144072362Y-75963880D01*
X144026243Y-75973628D01*
X143983594Y-75953549D01*
X143908131Y-75881225D01*
X141174359Y-73261155D01*
X141790000Y-73261155D01*
X141790246Y-73265426D01*
X141792171Y-73282016D01*
X141795060Y-73292637D01*
X141833838Y-73380458D01*
X141841454Y-73391575D01*
X141908424Y-73458545D01*
X141919541Y-73466161D01*
X142007362Y-73504939D01*
X142017983Y-73507828D01*
X142034573Y-73509753D01*
X142038845Y-73510000D01*
X142060257Y-73510000D01*
X142067940Y-73507940D01*
X142070000Y-73500257D01*
X142070000Y-73209743D01*
X142067940Y-73202059D01*
X142060257Y-73200000D01*
X141799743Y-73200000D01*
X141792059Y-73202059D01*
X141790000Y-73209743D01*
X141790000Y-73261155D01*
X141174359Y-73261155D01*
X140787365Y-72890257D01*
X141790000Y-72890257D01*
X141792059Y-72897940D01*
X141799743Y-72900000D01*
X142060257Y-72900000D01*
X142067940Y-72897940D01*
X142070000Y-72890257D01*
X142070000Y-72599743D01*
X142067940Y-72592059D01*
X142060257Y-72590000D01*
X142038845Y-72590000D01*
X142034573Y-72590246D01*
X142017983Y-72592171D01*
X142007362Y-72595060D01*
X141919541Y-72633838D01*
X141908424Y-72641454D01*
X141841454Y-72708424D01*
X141833838Y-72719541D01*
X141795060Y-72807362D01*
X141792171Y-72817983D01*
X141790246Y-72834573D01*
X141790000Y-72838845D01*
X141790000Y-72890257D01*
X140787365Y-72890257D01*
X139850894Y-71992735D01*
X140199500Y-71992735D01*
X140199501Y-71994864D01*
X140199747Y-71996990D01*
X140199748Y-71996997D01*
X140201773Y-72014460D01*
X140201773Y-72014463D01*
X140202415Y-72019991D01*
X140204662Y-72025079D01*
X140204663Y-72025083D01*
X140234981Y-72093747D01*
X140247794Y-72122765D01*
X140327235Y-72202206D01*
X140430009Y-72247585D01*
X140455135Y-72250500D01*
X141569864Y-72250499D01*
X141594991Y-72247585D01*
X141697765Y-72202206D01*
X141777206Y-72122765D01*
X141822585Y-72019991D01*
X141825500Y-71994865D01*
X141825499Y-71605136D01*
X141822585Y-71580009D01*
X141777206Y-71477235D01*
X141697765Y-71397794D01*
X141691492Y-71395024D01*
X141600079Y-71354661D01*
X141600075Y-71354660D01*
X141594991Y-71352415D01*
X141589470Y-71351774D01*
X141589465Y-71351773D01*
X141571993Y-71349746D01*
X141571977Y-71349745D01*
X141569865Y-71349500D01*
X141567721Y-71349500D01*
X140457281Y-71349500D01*
X140457263Y-71349500D01*
X140455136Y-71349501D01*
X140453010Y-71349747D01*
X140453002Y-71349748D01*
X140435539Y-71351773D01*
X140435534Y-71351774D01*
X140430009Y-71352415D01*
X140424920Y-71354661D01*
X140424916Y-71354663D01*
X140333507Y-71395024D01*
X140333504Y-71395025D01*
X140327235Y-71397794D01*
X140322389Y-71402639D01*
X140322386Y-71402642D01*
X140252642Y-71472386D01*
X140252639Y-71472389D01*
X140247794Y-71477235D01*
X140245025Y-71483504D01*
X140245024Y-71483507D01*
X140204661Y-71574920D01*
X140204659Y-71574925D01*
X140202415Y-71580009D01*
X140201774Y-71585527D01*
X140201773Y-71585534D01*
X140199746Y-71603006D01*
X140199745Y-71603023D01*
X140199500Y-71605135D01*
X140199500Y-71607277D01*
X140199500Y-71607278D01*
X140199500Y-71992718D01*
X140199500Y-71992735D01*
X139850894Y-71992735D01*
X138597170Y-70791155D01*
X139140000Y-70791155D01*
X139140246Y-70795426D01*
X139142171Y-70812016D01*
X139145060Y-70822637D01*
X139183838Y-70910458D01*
X139191454Y-70921575D01*
X139258424Y-70988545D01*
X139269541Y-70996161D01*
X139357362Y-71034939D01*
X139367983Y-71037828D01*
X139384573Y-71039753D01*
X139388845Y-71040000D01*
X139440257Y-71040000D01*
X139447940Y-71037940D01*
X139450000Y-71030257D01*
X139750000Y-71030257D01*
X139752059Y-71037940D01*
X139759743Y-71040000D01*
X139811155Y-71040000D01*
X139815426Y-71039753D01*
X139832016Y-71037828D01*
X139842637Y-71034939D01*
X139930458Y-70996161D01*
X139941575Y-70988545D01*
X140008545Y-70921575D01*
X140016161Y-70910458D01*
X140054939Y-70822637D01*
X140057828Y-70812016D01*
X140059753Y-70795426D01*
X140060000Y-70791155D01*
X140060000Y-70769743D01*
X140057940Y-70762059D01*
X140050257Y-70760000D01*
X139759743Y-70760000D01*
X139752059Y-70762059D01*
X139750000Y-70769743D01*
X139750000Y-71030257D01*
X139450000Y-71030257D01*
X139450000Y-70769743D01*
X139447940Y-70762059D01*
X139440257Y-70760000D01*
X139149743Y-70760000D01*
X139142059Y-70762059D01*
X139140000Y-70769743D01*
X139140000Y-70791155D01*
X138597170Y-70791155D01*
X137000773Y-69261155D01*
X138190000Y-69261155D01*
X138190246Y-69265426D01*
X138192171Y-69282016D01*
X138195060Y-69292637D01*
X138233838Y-69380458D01*
X138241454Y-69391575D01*
X138308424Y-69458545D01*
X138319541Y-69466161D01*
X138407362Y-69504939D01*
X138417983Y-69507828D01*
X138434573Y-69509753D01*
X138438845Y-69510000D01*
X138490257Y-69510000D01*
X138497940Y-69507940D01*
X138500000Y-69500257D01*
X138500000Y-69239743D01*
X138497940Y-69232059D01*
X138490257Y-69230000D01*
X138199743Y-69230000D01*
X138192059Y-69232059D01*
X138190000Y-69239743D01*
X138190000Y-69261155D01*
X137000773Y-69261155D01*
X135823281Y-68132637D01*
X135806422Y-68108256D01*
X135800485Y-68079213D01*
X135800485Y-66474508D01*
X135810399Y-66437508D01*
X135837485Y-66410422D01*
X135874485Y-66400508D01*
X137220428Y-66400508D01*
X137239578Y-66403028D01*
X137249985Y-66405817D01*
X137327889Y-66384943D01*
X137350249Y-66362583D01*
X137366202Y-66346630D01*
X137404098Y-66326376D01*
X137446862Y-66330596D01*
G37*
G04 #@! TD.AperFunction*
G04 #@! TA.AperFunction,Conductor*
G36*
X144374618Y-69506133D02*
G01*
X144398624Y-69522173D01*
X144996441Y-70119991D01*
X145585865Y-70709415D01*
X145586485Y-70710035D01*
X145592015Y-70716223D01*
X145595593Y-70720710D01*
X145599212Y-70728224D01*
X145605731Y-70733422D01*
X145605732Y-70733424D01*
X145622932Y-70747141D01*
X145629120Y-70752670D01*
X145650584Y-70774134D01*
X145658452Y-70776886D01*
X145661257Y-70778649D01*
X145664247Y-70780089D01*
X145670769Y-70785290D01*
X145678899Y-70787145D01*
X145681895Y-70788588D01*
X145685017Y-70789680D01*
X145692076Y-70794116D01*
X145706817Y-70795776D01*
X145722979Y-70799465D01*
X145729100Y-70801607D01*
X145729101Y-70801607D01*
X145736974Y-70804362D01*
X145751707Y-70802702D01*
X145768284Y-70802702D01*
X145774737Y-70803429D01*
X145783026Y-70804363D01*
X145790899Y-70801607D01*
X145796606Y-70800965D01*
X145804893Y-70800500D01*
X145941582Y-70800500D01*
X145969901Y-70806133D01*
X145993908Y-70822174D01*
X146337824Y-71166090D01*
X146359022Y-71210037D01*
X146348256Y-71257627D01*
X146335722Y-71277687D01*
X146335719Y-71277692D01*
X146333800Y-71280764D01*
X146332516Y-71284152D01*
X146332515Y-71284155D01*
X146320522Y-71315810D01*
X146320521Y-71315815D01*
X146317942Y-71322623D01*
X146318164Y-71329902D01*
X146316961Y-71337095D01*
X146314221Y-71336636D01*
X146306737Y-71364296D01*
X146285158Y-71383146D01*
X146286771Y-71385408D01*
X146280836Y-71389641D01*
X146274193Y-71392634D01*
X146269201Y-71397940D01*
X146269199Y-71397942D01*
X146246011Y-71422591D01*
X146246005Y-71422597D01*
X146243523Y-71425237D01*
X146241602Y-71428310D01*
X146241599Y-71428315D01*
X146070761Y-71701712D01*
X146070756Y-71701720D01*
X146068840Y-71704788D01*
X146067558Y-71708171D01*
X146067550Y-71708188D01*
X146054669Y-71742191D01*
X146027517Y-71776868D01*
X145985469Y-71789975D01*
X145324410Y-71789975D01*
X145316123Y-71789510D01*
X145310422Y-71788867D01*
X145302551Y-71786113D01*
X145294265Y-71787046D01*
X145294263Y-71787046D01*
X145272397Y-71789510D01*
X145264113Y-71789975D01*
X145256935Y-71789975D01*
X145252884Y-71790899D01*
X145252283Y-71790967D01*
X145211891Y-71784103D01*
X145181342Y-71756802D01*
X145170000Y-71717432D01*
X145170000Y-71709743D01*
X145167940Y-71702059D01*
X145160257Y-71700000D01*
X144859743Y-71700000D01*
X144852059Y-71702059D01*
X144850000Y-71709743D01*
X144850000Y-71960257D01*
X144852058Y-71967940D01*
X144859528Y-71969942D01*
X144892701Y-71989095D01*
X144911854Y-72022268D01*
X144911855Y-72060573D01*
X144892702Y-72093747D01*
X144858623Y-72127826D01*
X144834616Y-72143867D01*
X144806297Y-72149500D01*
X144474523Y-72149500D01*
X144474505Y-72149500D01*
X144472378Y-72149501D01*
X144470252Y-72149747D01*
X144470244Y-72149748D01*
X144454033Y-72151628D01*
X144454029Y-72151628D01*
X144448502Y-72152270D01*
X144443413Y-72154516D01*
X144443409Y-72154518D01*
X144357131Y-72192614D01*
X144357128Y-72192615D01*
X144350859Y-72195384D01*
X144346013Y-72200229D01*
X144346010Y-72200232D01*
X144280232Y-72266010D01*
X144280229Y-72266013D01*
X144275384Y-72270859D01*
X144272615Y-72277128D01*
X144272614Y-72277131D01*
X144234516Y-72363413D01*
X144234514Y-72363419D01*
X144232270Y-72368502D01*
X144231629Y-72374025D01*
X144230167Y-72379401D01*
X144228853Y-72379043D01*
X144216117Y-72409526D01*
X144182701Y-72433124D01*
X144141854Y-72435364D01*
X144106058Y-72415560D01*
X143985060Y-72294562D01*
X143965907Y-72261388D01*
X143965908Y-72223083D01*
X143985058Y-72189912D01*
X144052206Y-72122765D01*
X144097585Y-72019991D01*
X144100500Y-71994865D01*
X144100499Y-71802626D01*
X144117026Y-71756014D01*
X144159225Y-71730222D01*
X144208246Y-71736771D01*
X144242194Y-71772737D01*
X144273034Y-71842582D01*
X144280651Y-71853702D01*
X144346297Y-71919348D01*
X144357418Y-71926966D01*
X144443530Y-71964989D01*
X144454144Y-71967877D01*
X144470315Y-71969753D01*
X144474587Y-71970000D01*
X144540257Y-71970000D01*
X144547940Y-71967940D01*
X144550000Y-71960257D01*
X144550000Y-71709743D01*
X144547940Y-71702059D01*
X144540257Y-71700000D01*
X144239743Y-71700000D01*
X144231302Y-71702261D01*
X144226823Y-71706741D01*
X144188934Y-71726992D01*
X144146180Y-71722781D01*
X144112970Y-71695526D01*
X144100499Y-71654414D01*
X144100499Y-71607281D01*
X144100499Y-71607278D01*
X144100499Y-71605136D01*
X144097585Y-71580009D01*
X144052206Y-71477235D01*
X143972765Y-71397794D01*
X143966492Y-71395024D01*
X143966491Y-71395023D01*
X143960599Y-71392422D01*
X143958052Y-71390257D01*
X144230000Y-71390257D01*
X144232059Y-71397940D01*
X144239743Y-71400000D01*
X144540257Y-71400000D01*
X144547940Y-71397940D01*
X144550000Y-71390257D01*
X144850000Y-71390257D01*
X144852059Y-71397940D01*
X144859743Y-71400000D01*
X145160257Y-71400000D01*
X145167940Y-71397940D01*
X145170000Y-71390257D01*
X145170000Y-71374587D01*
X145169753Y-71370315D01*
X145167877Y-71354144D01*
X145164989Y-71343530D01*
X145126966Y-71257418D01*
X145119348Y-71246297D01*
X145053702Y-71180651D01*
X145042581Y-71173033D01*
X144956469Y-71135010D01*
X144945855Y-71132122D01*
X144929684Y-71130246D01*
X144925413Y-71130000D01*
X144859743Y-71130000D01*
X144852059Y-71132059D01*
X144850000Y-71139743D01*
X144850000Y-71390257D01*
X144550000Y-71390257D01*
X144550000Y-71139743D01*
X144547940Y-71132059D01*
X144540257Y-71130000D01*
X144474587Y-71130000D01*
X144470315Y-71130246D01*
X144454144Y-71132122D01*
X144443530Y-71135010D01*
X144357418Y-71173033D01*
X144346297Y-71180651D01*
X144280651Y-71246297D01*
X144273033Y-71257418D01*
X144235010Y-71343530D01*
X144232122Y-71354144D01*
X144230246Y-71370315D01*
X144230000Y-71374587D01*
X144230000Y-71390257D01*
X143958052Y-71390257D01*
X143928489Y-71365126D01*
X143916488Y-71324726D01*
X143928489Y-71284327D01*
X143960600Y-71257031D01*
X143966206Y-71254555D01*
X143977326Y-71246938D01*
X144046938Y-71177326D01*
X144054556Y-71166205D01*
X144094843Y-71074963D01*
X144097731Y-71064349D01*
X144099753Y-71046921D01*
X144100000Y-71042650D01*
X144100000Y-71009743D01*
X144097940Y-71002059D01*
X144090257Y-71000000D01*
X143211500Y-71000000D01*
X143174500Y-70990086D01*
X143147414Y-70963000D01*
X143137500Y-70926000D01*
X143137500Y-70774000D01*
X143147414Y-70737000D01*
X143174500Y-70709914D01*
X143211500Y-70700000D01*
X144090256Y-70700000D01*
X144097939Y-70697940D01*
X144099999Y-70690257D01*
X144099999Y-70657353D01*
X144099751Y-70653074D01*
X144097731Y-70635656D01*
X144094841Y-70625032D01*
X144054556Y-70533794D01*
X144046938Y-70522673D01*
X143977326Y-70453061D01*
X143966203Y-70445442D01*
X143960596Y-70442966D01*
X143928487Y-70415668D01*
X143916488Y-70375268D01*
X143928491Y-70334869D01*
X143960602Y-70307576D01*
X143972765Y-70302206D01*
X144052206Y-70222765D01*
X144097585Y-70119991D01*
X144100500Y-70094865D01*
X144100499Y-69705136D01*
X144097585Y-69680009D01*
X144064195Y-69604389D01*
X144060126Y-69556450D01*
X144086392Y-69516140D01*
X144131891Y-69500500D01*
X144346299Y-69500500D01*
X144374618Y-69506133D01*
G37*
G04 #@! TD.AperFunction*
G04 #@! TA.AperFunction,Conductor*
G36*
X154646300Y-49326391D02*
G01*
X154666873Y-49354204D01*
X154876819Y-49849472D01*
X154877578Y-49851331D01*
X155051299Y-50294214D01*
X155053808Y-50340684D01*
X155028078Y-50379463D01*
X154984286Y-50395212D01*
X154939752Y-50381704D01*
X154935102Y-50378424D01*
X154931296Y-50375739D01*
X154926945Y-50374086D01*
X154926941Y-50374084D01*
X154782006Y-50319028D01*
X154782001Y-50319027D01*
X154777653Y-50317375D01*
X154773031Y-50316856D01*
X154773025Y-50316855D01*
X154618950Y-50299574D01*
X154614323Y-50299055D01*
X154609720Y-50299701D01*
X154609712Y-50299702D01*
X153306399Y-50482871D01*
X153306391Y-50482872D01*
X153304097Y-50483195D01*
X153301860Y-50483802D01*
X153301849Y-50483805D01*
X153189790Y-50514251D01*
X153189782Y-50514254D01*
X153185300Y-50515472D01*
X153181260Y-50517766D01*
X153181255Y-50517769D01*
X153046439Y-50594355D01*
X153046435Y-50594357D01*
X153042395Y-50596653D01*
X153039052Y-50599881D01*
X153039047Y-50599885D01*
X152927516Y-50707589D01*
X152927512Y-50707593D01*
X152924167Y-50710824D01*
X152921730Y-50714785D01*
X152921727Y-50714789D01*
X152840488Y-50846840D01*
X152840484Y-50846847D01*
X152838048Y-50850808D01*
X152836672Y-50855251D01*
X152836670Y-50855257D01*
X152790823Y-51003366D01*
X152790822Y-51003370D01*
X152789447Y-51007813D01*
X152789219Y-51012455D01*
X152789219Y-51012461D01*
X152783021Y-51139203D01*
X152781419Y-51171971D01*
X152782353Y-51176524D01*
X152782354Y-51176528D01*
X152813530Y-51328408D01*
X152813531Y-51328413D01*
X152814467Y-51332969D01*
X152816506Y-51337150D01*
X152816508Y-51337155D01*
X152871473Y-51449850D01*
X152886515Y-51480690D01*
X152889530Y-51484232D01*
X152889531Y-51484234D01*
X152952788Y-51558560D01*
X152993037Y-51605852D01*
X153127338Y-51700591D01*
X153280981Y-51758955D01*
X153444311Y-51777275D01*
X154754537Y-51593135D01*
X154873334Y-51560858D01*
X155016239Y-51479677D01*
X155134466Y-51365506D01*
X155220585Y-51225522D01*
X155235800Y-51176368D01*
X155261888Y-51139203D01*
X155304771Y-51124270D01*
X155348301Y-51137193D01*
X155376088Y-51173106D01*
X155390788Y-51213795D01*
X155391445Y-51215693D01*
X155535988Y-51652539D01*
X155537149Y-51695174D01*
X155514586Y-51731368D01*
X155475795Y-51749098D01*
X149921186Y-52511356D01*
X149902155Y-52511497D01*
X149900703Y-52511319D01*
X149900694Y-52511320D01*
X149891029Y-52510139D01*
X149854269Y-52525764D01*
X149854269Y-52525765D01*
X149826060Y-52537631D01*
X149826058Y-52537631D01*
X149817270Y-52541329D01*
X149817084Y-52541573D01*
X149816805Y-52541692D01*
X149811109Y-52549257D01*
X149811106Y-52549261D01*
X149792850Y-52573514D01*
X149792684Y-52573733D01*
X149774248Y-52598035D01*
X149774246Y-52598038D01*
X149768522Y-52605584D01*
X149768483Y-52605888D01*
X149768301Y-52606131D01*
X149767150Y-52615538D01*
X149767150Y-52615541D01*
X149764564Y-52636691D01*
X149763448Y-52645828D01*
X149758434Y-52685603D01*
X149762209Y-52694580D01*
X149762210Y-52694582D01*
X149762778Y-52695931D01*
X149767840Y-52714283D01*
X149883193Y-53531904D01*
X149880878Y-53563239D01*
X149865769Y-53590789D01*
X149857550Y-53600243D01*
X149855635Y-53608122D01*
X149855635Y-54120463D01*
X149845721Y-54157463D01*
X149818635Y-54184549D01*
X149781635Y-54194463D01*
X149181933Y-54194463D01*
X149173988Y-54196791D01*
X149172788Y-54204979D01*
X149200115Y-54399417D01*
X149201817Y-54406437D01*
X149215328Y-54445127D01*
X149214026Y-54445581D01*
X149221603Y-54474021D01*
X149210478Y-54512192D01*
X149181204Y-54539095D01*
X149145599Y-54557237D01*
X149107595Y-54576601D01*
X149058615Y-54583050D01*
X149016491Y-54557237D01*
X149000000Y-54510667D01*
X149000000Y-54329010D01*
X148999466Y-54323596D01*
X148996673Y-54318048D01*
X148990696Y-54321434D01*
X148569019Y-54743112D01*
X148565042Y-54749999D01*
X148569019Y-54756887D01*
X148990696Y-55178564D01*
X148998476Y-55182971D01*
X149017466Y-55182506D01*
X149017523Y-55184850D01*
X149028346Y-55182346D01*
X149067045Y-55200935D01*
X149067703Y-55200030D01*
X149072415Y-55203453D01*
X149076535Y-55207573D01*
X149182518Y-55261574D01*
X149277747Y-55276656D01*
X149310790Y-55290710D01*
X149333327Y-55318665D01*
X149340051Y-55353939D01*
X149338446Y-55382201D01*
X149338446Y-55382210D01*
X149338241Y-55385828D01*
X149338745Y-55389420D01*
X149338746Y-55389422D01*
X149381086Y-55690686D01*
X149375054Y-55731868D01*
X149347748Y-55763280D01*
X149307806Y-55774985D01*
X148892514Y-55774985D01*
X148858008Y-55766447D01*
X148831464Y-55742804D01*
X148819007Y-55709512D01*
X148818371Y-55704031D01*
X148817730Y-55698501D01*
X148774616Y-55600858D01*
X148700084Y-55526326D01*
X148679832Y-55488437D01*
X148684043Y-55445681D01*
X148711298Y-55412471D01*
X148752410Y-55400000D01*
X148770991Y-55400000D01*
X148776401Y-55399466D01*
X148781950Y-55396673D01*
X148778564Y-55390696D01*
X148356887Y-54969019D01*
X148350000Y-54965042D01*
X148343112Y-54969019D01*
X147921434Y-55390696D01*
X147918048Y-55396673D01*
X147923596Y-55399466D01*
X147929010Y-55400000D01*
X147947590Y-55400000D01*
X147988702Y-55412471D01*
X148015957Y-55445681D01*
X148020168Y-55488437D01*
X147999916Y-55526326D01*
X147930232Y-55596009D01*
X147930229Y-55596012D01*
X147925384Y-55600858D01*
X147922615Y-55607127D01*
X147922614Y-55607130D01*
X147884516Y-55693412D01*
X147884514Y-55693418D01*
X147882270Y-55698501D01*
X147881629Y-55704019D01*
X147881628Y-55704026D01*
X147879746Y-55720247D01*
X147879745Y-55720264D01*
X147879500Y-55722376D01*
X147879500Y-55724518D01*
X147879500Y-55724519D01*
X147879500Y-56075475D01*
X147879500Y-56075492D01*
X147879501Y-56077621D01*
X147879747Y-56079747D01*
X147879748Y-56079754D01*
X147880045Y-56082318D01*
X147882270Y-56101497D01*
X147925384Y-56199140D01*
X148000859Y-56274615D01*
X148072926Y-56306436D01*
X148093408Y-56315480D01*
X148098502Y-56317729D01*
X148122377Y-56320499D01*
X148577622Y-56320498D01*
X148601498Y-56317729D01*
X148699141Y-56274615D01*
X148774616Y-56199140D01*
X148775756Y-56200280D01*
X148793459Y-56184519D01*
X148827957Y-56175985D01*
X149164573Y-56175985D01*
X149209070Y-56190858D01*
X149235680Y-56229497D01*
X149233708Y-56276372D01*
X149209038Y-56306436D01*
X149210343Y-56308072D01*
X149207091Y-56310664D01*
X149203578Y-56312872D01*
X149200648Y-56315801D01*
X149200640Y-56315808D01*
X149198496Y-56317953D01*
X149192320Y-56323471D01*
X149185830Y-56328647D01*
X149175105Y-56337201D01*
X149175103Y-56337203D01*
X149168592Y-56342396D01*
X149164976Y-56349901D01*
X149161386Y-56354404D01*
X149155859Y-56360589D01*
X148989971Y-56526478D01*
X148983786Y-56532006D01*
X148979285Y-56535594D01*
X148971776Y-56539212D01*
X148952852Y-56562941D01*
X148947329Y-56569121D01*
X148945187Y-56571262D01*
X148945180Y-56571270D01*
X148942252Y-56574199D01*
X148940047Y-56577706D01*
X148940040Y-56577716D01*
X148938429Y-56580280D01*
X148933638Y-56587032D01*
X148919906Y-56604252D01*
X148919904Y-56604254D01*
X148914710Y-56610769D01*
X148912855Y-56618892D01*
X148910356Y-56624083D01*
X148910105Y-56624536D01*
X148909958Y-56624898D01*
X148909936Y-56624945D01*
X148909787Y-56625113D01*
X148906375Y-56631294D01*
X148905914Y-56632029D01*
X148904473Y-56631125D01*
X148882283Y-56656232D01*
X148842095Y-56667568D01*
X148802168Y-56655344D01*
X148782429Y-56631987D01*
X148780842Y-56633075D01*
X148769348Y-56616296D01*
X148703702Y-56550650D01*
X148692581Y-56543032D01*
X148606469Y-56505009D01*
X148595855Y-56502121D01*
X148579684Y-56500245D01*
X148575413Y-56499999D01*
X148509743Y-56499999D01*
X148502059Y-56502058D01*
X148500000Y-56509742D01*
X148500000Y-57188310D01*
X148494367Y-57216629D01*
X148478326Y-57240636D01*
X148446546Y-57272415D01*
X148446543Y-57272418D01*
X148442427Y-57276535D01*
X148439782Y-57281724D01*
X148439781Y-57281727D01*
X148391767Y-57375960D01*
X148388426Y-57382518D01*
X148387515Y-57388269D01*
X148387514Y-57388273D01*
X148376316Y-57458979D01*
X148369819Y-57500000D01*
X148370730Y-57505752D01*
X148387004Y-57608509D01*
X148388426Y-57617482D01*
X148403408Y-57646885D01*
X148439431Y-57717586D01*
X148442427Y-57723465D01*
X148526535Y-57807573D01*
X148632518Y-57861574D01*
X148750000Y-57880181D01*
X148851178Y-57864156D01*
X148896349Y-57871310D01*
X148928688Y-57903649D01*
X148935843Y-57948820D01*
X148921586Y-58038845D01*
X148919819Y-58050000D01*
X148920730Y-58055752D01*
X148934488Y-58142623D01*
X148938426Y-58167482D01*
X148992427Y-58273465D01*
X149076535Y-58357573D01*
X149182518Y-58411574D01*
X149300000Y-58430181D01*
X149417482Y-58411574D01*
X149523465Y-58357573D01*
X149607573Y-58273465D01*
X149621857Y-58245430D01*
X149648166Y-58216530D01*
X149685531Y-58205061D01*
X149723526Y-58214228D01*
X149747832Y-58237856D01*
X149747922Y-58238112D01*
X149752776Y-58243550D01*
X149756476Y-58249832D01*
X149754095Y-58251233D01*
X149766098Y-58277043D01*
X149761765Y-58305563D01*
X149764402Y-58306245D01*
X149762576Y-58313304D01*
X149759412Y-58319865D01*
X149758999Y-58327134D01*
X149758998Y-58327139D01*
X149757079Y-58360930D01*
X149757079Y-58360938D01*
X149756874Y-58364555D01*
X149757378Y-58368147D01*
X149757379Y-58368149D01*
X149759314Y-58381919D01*
X149798336Y-58659576D01*
X149798606Y-58661491D01*
X149792574Y-58702673D01*
X149765268Y-58734085D01*
X149725326Y-58745790D01*
X149488595Y-58745790D01*
X149480308Y-58745325D01*
X149474607Y-58744682D01*
X149466736Y-58741928D01*
X149458450Y-58742861D01*
X149458448Y-58742861D01*
X149436582Y-58745325D01*
X149428298Y-58745790D01*
X149421120Y-58745790D01*
X149417081Y-58746711D01*
X149417068Y-58746713D01*
X149414113Y-58747388D01*
X149405942Y-58748776D01*
X149384068Y-58751240D01*
X149384064Y-58751241D01*
X149375786Y-58752174D01*
X149368731Y-58756605D01*
X149365599Y-58757702D01*
X149362602Y-58759145D01*
X149354479Y-58761000D01*
X149351683Y-58763229D01*
X149324213Y-58769500D01*
X148974523Y-58769500D01*
X148974505Y-58769500D01*
X148972378Y-58769501D01*
X148970252Y-58769747D01*
X148970244Y-58769748D01*
X148954033Y-58771628D01*
X148954029Y-58771628D01*
X148948502Y-58772270D01*
X148943413Y-58774516D01*
X148943409Y-58774518D01*
X148857131Y-58812614D01*
X148857128Y-58812615D01*
X148850859Y-58815384D01*
X148846013Y-58820229D01*
X148846010Y-58820232D01*
X148780232Y-58886010D01*
X148780229Y-58886013D01*
X148775384Y-58890859D01*
X148772615Y-58897128D01*
X148772614Y-58897131D01*
X148734516Y-58983413D01*
X148734514Y-58983419D01*
X148732270Y-58988502D01*
X148731629Y-58994020D01*
X148731628Y-58994027D01*
X148729746Y-59010248D01*
X148729745Y-59010265D01*
X148729500Y-59012377D01*
X148729500Y-59014519D01*
X148729500Y-59014520D01*
X148729500Y-59365476D01*
X148729500Y-59365493D01*
X148729501Y-59367622D01*
X148729747Y-59369748D01*
X148729748Y-59369755D01*
X148730039Y-59372268D01*
X148732270Y-59391498D01*
X148734517Y-59396587D01*
X148734518Y-59396590D01*
X148755114Y-59443235D01*
X148775384Y-59489141D01*
X148850859Y-59564616D01*
X148948502Y-59607730D01*
X148972377Y-59610500D01*
X149427622Y-59610499D01*
X149451498Y-59607730D01*
X149523966Y-59575731D01*
X149562722Y-59569959D01*
X149598994Y-59584786D01*
X149622608Y-59616056D01*
X149626945Y-59655001D01*
X149622208Y-59684914D01*
X149619819Y-59700000D01*
X149620730Y-59705752D01*
X149620730Y-59705753D01*
X149627038Y-59745585D01*
X149622702Y-59784529D01*
X149599087Y-59815799D01*
X149562816Y-59830627D01*
X149524058Y-59824855D01*
X149456466Y-59795009D01*
X149445855Y-59792122D01*
X149429684Y-59790246D01*
X149425413Y-59790000D01*
X149359743Y-59790000D01*
X149352059Y-59792059D01*
X149350000Y-59799743D01*
X149350000Y-60050257D01*
X149352059Y-60057940D01*
X149359743Y-60060000D01*
X149660257Y-60060000D01*
X149667940Y-60057941D01*
X149669318Y-60052800D01*
X149695237Y-60013638D01*
X149739505Y-59997961D01*
X149775628Y-60009351D01*
X149776535Y-60007573D01*
X149882518Y-60061574D01*
X149951289Y-60072466D01*
X149984333Y-60086520D01*
X150006870Y-60114476D01*
X150013594Y-60149749D01*
X150012268Y-60173094D01*
X150012568Y-60180314D01*
X150018623Y-60223398D01*
X150021403Y-60230397D01*
X150028725Y-60232178D01*
X150672343Y-60232178D01*
X150709343Y-60242092D01*
X150736429Y-60269178D01*
X150746343Y-60306178D01*
X150746343Y-60774601D01*
X150748671Y-60782545D01*
X150756858Y-60783744D01*
X150830172Y-60773440D01*
X150868180Y-60778103D01*
X150898768Y-60801140D01*
X150913746Y-60836382D01*
X151023789Y-61616360D01*
X151023972Y-61635645D01*
X151023842Y-61636709D01*
X151023842Y-61636712D01*
X151022664Y-61646382D01*
X151026476Y-61655343D01*
X151026477Y-61655345D01*
X151033583Y-61672046D01*
X151038443Y-61683468D01*
X151054209Y-61720556D01*
X151054229Y-61720571D01*
X151054240Y-61720596D01*
X151087504Y-61745618D01*
X151118648Y-61769061D01*
X151118672Y-61769064D01*
X151118694Y-61769080D01*
X151160207Y-61774141D01*
X151198705Y-61778847D01*
X151208279Y-61774776D01*
X151208645Y-61774621D01*
X151227238Y-61769449D01*
X156761542Y-60986855D01*
X156803965Y-60993433D01*
X156835598Y-61022460D01*
X156845791Y-61064165D01*
X156819097Y-61552526D01*
X156804114Y-61593275D01*
X156768854Y-61618607D01*
X156725454Y-61619802D01*
X156688853Y-61596448D01*
X156617460Y-61512562D01*
X156607589Y-61505599D01*
X156486964Y-61420507D01*
X156486963Y-61420506D01*
X156483159Y-61417823D01*
X156478808Y-61416170D01*
X156478804Y-61416168D01*
X156333869Y-61361112D01*
X156333864Y-61361111D01*
X156329516Y-61359459D01*
X156324894Y-61358940D01*
X156324888Y-61358939D01*
X156170813Y-61341658D01*
X156166186Y-61341139D01*
X156161583Y-61341785D01*
X156161575Y-61341786D01*
X154858262Y-61524955D01*
X154858254Y-61524956D01*
X154855960Y-61525279D01*
X154853723Y-61525886D01*
X154853712Y-61525889D01*
X154741653Y-61556335D01*
X154741645Y-61556338D01*
X154737163Y-61557556D01*
X154733123Y-61559850D01*
X154733118Y-61559853D01*
X154598302Y-61636439D01*
X154598298Y-61636441D01*
X154594258Y-61638737D01*
X154590915Y-61641965D01*
X154590910Y-61641969D01*
X154479379Y-61749673D01*
X154479375Y-61749677D01*
X154476030Y-61752908D01*
X154473593Y-61756869D01*
X154473590Y-61756873D01*
X154392351Y-61888924D01*
X154392347Y-61888931D01*
X154389911Y-61892892D01*
X154388535Y-61897335D01*
X154388533Y-61897341D01*
X154342686Y-62045450D01*
X154342685Y-62045454D01*
X154341310Y-62049897D01*
X154341082Y-62054539D01*
X154341082Y-62054545D01*
X154333509Y-62209406D01*
X154333282Y-62214055D01*
X154334216Y-62218608D01*
X154334217Y-62218612D01*
X154365393Y-62370492D01*
X154365394Y-62370497D01*
X154366330Y-62375053D01*
X154368369Y-62379234D01*
X154368371Y-62379239D01*
X154413702Y-62472180D01*
X154438378Y-62522774D01*
X154441393Y-62526316D01*
X154441394Y-62526318D01*
X154478609Y-62570045D01*
X154544900Y-62647936D01*
X154679201Y-62742675D01*
X154832844Y-62801039D01*
X154996174Y-62819359D01*
X156306400Y-62635219D01*
X156425197Y-62602942D01*
X156568102Y-62521761D01*
X156619444Y-62472179D01*
X156658999Y-62452366D01*
X156702790Y-62458660D01*
X156735165Y-62488812D01*
X156744551Y-62532045D01*
X156713442Y-62877644D01*
X156713163Y-62880232D01*
X156595745Y-63815123D01*
X156595376Y-63817699D01*
X156445151Y-64747926D01*
X156444691Y-64750487D01*
X156261855Y-65674838D01*
X156261305Y-65677382D01*
X156046080Y-66594735D01*
X156045441Y-66597257D01*
X155798099Y-67506456D01*
X155797372Y-67508955D01*
X155518206Y-68408922D01*
X155517391Y-68411394D01*
X155457043Y-68584215D01*
X155432600Y-68618240D01*
X155393598Y-68633540D01*
X155352539Y-68625210D01*
X155322584Y-68595920D01*
X155316042Y-68584215D01*
X155272655Y-68506582D01*
X155264563Y-68492102D01*
X155264560Y-68492098D01*
X155262290Y-68488036D01*
X155148948Y-68369015D01*
X155123424Y-68353066D01*
X154090500Y-67707623D01*
X154026893Y-67667877D01*
X154024790Y-67666905D01*
X154024784Y-67666902D01*
X153919370Y-67618194D01*
X153919368Y-67618193D01*
X153915143Y-67616241D01*
X153910563Y-67615400D01*
X153910562Y-67615400D01*
X153758064Y-67587411D01*
X153758057Y-67587410D01*
X153753488Y-67586572D01*
X153748851Y-67586896D01*
X153748848Y-67586896D01*
X153594179Y-67597711D01*
X153594177Y-67597711D01*
X153589534Y-67598036D01*
X153585116Y-67599505D01*
X153585114Y-67599506D01*
X153437999Y-67648444D01*
X153437994Y-67648446D01*
X153433582Y-67649914D01*
X153429673Y-67652432D01*
X153429669Y-67652435D01*
X153299343Y-67736425D01*
X153299338Y-67736428D01*
X153295431Y-67738947D01*
X153292270Y-67742359D01*
X153292268Y-67742362D01*
X153186923Y-67856123D01*
X153186918Y-67856129D01*
X153183762Y-67859538D01*
X153181549Y-67863629D01*
X153181548Y-67863632D01*
X153107804Y-68000018D01*
X153107802Y-68000022D01*
X153105591Y-68004112D01*
X153104467Y-68008619D01*
X153104465Y-68008625D01*
X153066955Y-68159066D01*
X153066954Y-68159071D01*
X153065829Y-68163585D01*
X153065861Y-68168239D01*
X153065861Y-68168244D01*
X153066944Y-68323280D01*
X153066977Y-68327936D01*
X153068166Y-68332436D01*
X153107771Y-68482340D01*
X153107773Y-68482346D01*
X153108960Y-68486837D01*
X153111228Y-68490896D01*
X153111229Y-68490897D01*
X153186870Y-68626242D01*
X153186872Y-68626245D01*
X153189142Y-68630306D01*
X153302484Y-68749327D01*
X154424539Y-69450465D01*
X154536290Y-69502101D01*
X154697944Y-69531771D01*
X154861898Y-69520306D01*
X155010620Y-69470832D01*
X155051898Y-69469253D01*
X155087593Y-69490048D01*
X155106579Y-69526737D01*
X155102938Y-69567887D01*
X154960457Y-69934016D01*
X154934218Y-69967600D01*
X154893808Y-69981143D01*
X154852631Y-69970152D01*
X152258646Y-68369237D01*
X150129489Y-67055197D01*
X150114232Y-67042691D01*
X150113970Y-67042410D01*
X150113969Y-67042409D01*
X150107326Y-67035285D01*
X150087311Y-67029163D01*
X150087295Y-67029157D01*
X150086931Y-67028933D01*
X150085787Y-67028590D01*
X150085776Y-67028586D01*
X150068490Y-67023406D01*
X150068095Y-67023286D01*
X150039310Y-67014483D01*
X150039306Y-67014482D01*
X150030200Y-67011698D01*
X150029756Y-67011800D01*
X150029322Y-67011670D01*
X150020098Y-67013853D01*
X149990684Y-67020815D01*
X149990283Y-67020909D01*
X149960857Y-67027700D01*
X149960853Y-67027701D01*
X149951612Y-67029835D01*
X149951280Y-67030144D01*
X149950838Y-67030249D01*
X149943943Y-67036749D01*
X149943940Y-67036752D01*
X149921925Y-67057512D01*
X149921625Y-67057793D01*
X149908499Y-67070032D01*
X149908491Y-67070039D01*
X149907626Y-67070847D01*
X149907402Y-67071202D01*
X149907382Y-67071225D01*
X149899246Y-67078897D01*
X149899243Y-67078901D01*
X149892159Y-67085582D01*
X149889362Y-67094912D01*
X149889363Y-67094912D01*
X149889252Y-67095283D01*
X149881120Y-67113256D01*
X149454363Y-67796093D01*
X149426348Y-67822214D01*
X149389026Y-67830829D01*
X149352396Y-67819630D01*
X149139571Y-67686643D01*
X149132982Y-67684660D01*
X149131173Y-67691299D01*
X149131173Y-68158919D01*
X149121259Y-68195919D01*
X149094173Y-68223005D01*
X149057173Y-68232919D01*
X148905173Y-68232919D01*
X148868173Y-68223005D01*
X148841087Y-68195919D01*
X148831173Y-68158919D01*
X148831173Y-67510321D01*
X148828283Y-67501050D01*
X148817909Y-67492926D01*
X148793832Y-67459517D01*
X148791341Y-67418411D01*
X148811206Y-67382342D01*
X149181375Y-67012172D01*
X149205382Y-66996132D01*
X149233701Y-66990499D01*
X149561227Y-66990499D01*
X149563372Y-66990499D01*
X149587662Y-66987682D01*
X149687016Y-66943813D01*
X149763813Y-66867016D01*
X149807682Y-66767662D01*
X149810500Y-66743373D01*
X149810499Y-66376628D01*
X149807682Y-66352338D01*
X149764977Y-66255621D01*
X150013015Y-66255621D01*
X150013047Y-66260275D01*
X150013047Y-66260280D01*
X150014064Y-66405817D01*
X150014163Y-66419971D01*
X150015352Y-66424471D01*
X150054957Y-66574376D01*
X150054959Y-66574382D01*
X150056146Y-66578873D01*
X150058414Y-66582932D01*
X150058415Y-66582933D01*
X150134056Y-66718278D01*
X150134058Y-66718281D01*
X150136328Y-66722342D01*
X150139536Y-66725711D01*
X150139537Y-66725712D01*
X150156541Y-66743568D01*
X150249670Y-66841363D01*
X151032504Y-67330533D01*
X151144255Y-67382169D01*
X151305910Y-67411838D01*
X151469864Y-67400374D01*
X151625816Y-67348496D01*
X151763967Y-67259464D01*
X151875636Y-67138872D01*
X151953807Y-66994298D01*
X151993569Y-66834825D01*
X151992421Y-66670475D01*
X151950438Y-66511573D01*
X151875020Y-66376628D01*
X151872527Y-66372167D01*
X151872525Y-66372165D01*
X151870256Y-66368104D01*
X151864998Y-66362583D01*
X151767577Y-66260280D01*
X151756914Y-66249083D01*
X151730084Y-66232318D01*
X151377552Y-66012031D01*
X150974080Y-65759913D01*
X150931170Y-65740086D01*
X150866555Y-65710229D01*
X150866550Y-65710227D01*
X150862329Y-65708277D01*
X150857747Y-65707436D01*
X150705250Y-65679447D01*
X150705243Y-65679446D01*
X150700674Y-65678608D01*
X150696037Y-65678932D01*
X150696034Y-65678932D01*
X150541365Y-65689747D01*
X150541363Y-65689747D01*
X150536720Y-65690072D01*
X150532302Y-65691541D01*
X150532300Y-65691542D01*
X150385184Y-65740481D01*
X150385181Y-65740482D01*
X150380769Y-65741950D01*
X150376857Y-65744470D01*
X150376857Y-65744471D01*
X150246529Y-65828461D01*
X150246524Y-65828464D01*
X150242617Y-65830983D01*
X150239461Y-65834390D01*
X150239455Y-65834396D01*
X150134109Y-65948159D01*
X150134104Y-65948165D01*
X150130948Y-65951574D01*
X150128735Y-65955665D01*
X150128734Y-65955668D01*
X150054990Y-66092054D01*
X150054988Y-66092058D01*
X150052777Y-66096148D01*
X150051653Y-66100655D01*
X150051651Y-66100661D01*
X150014141Y-66251102D01*
X150014140Y-66251107D01*
X150013015Y-66255621D01*
X149764977Y-66255621D01*
X149763813Y-66252984D01*
X149687016Y-66176187D01*
X149680743Y-66173417D01*
X149680740Y-66173415D01*
X149621868Y-66147420D01*
X149589759Y-66120124D01*
X149577759Y-66079725D01*
X149589760Y-66039327D01*
X149621869Y-66012031D01*
X149680457Y-65986162D01*
X149691575Y-65978545D01*
X149758545Y-65911575D01*
X149766161Y-65900458D01*
X149804939Y-65812637D01*
X149807828Y-65802016D01*
X149809753Y-65785426D01*
X149810000Y-65781155D01*
X149810000Y-65759743D01*
X149807940Y-65752059D01*
X149800257Y-65750000D01*
X149274000Y-65750000D01*
X149237000Y-65740086D01*
X149209914Y-65713000D01*
X149200000Y-65676000D01*
X149200000Y-65440257D01*
X149500000Y-65440257D01*
X149502059Y-65447940D01*
X149509743Y-65450000D01*
X149800257Y-65450000D01*
X149807940Y-65447940D01*
X149810000Y-65440257D01*
X149810000Y-65418845D01*
X149809753Y-65414573D01*
X149807828Y-65397983D01*
X149804939Y-65387362D01*
X149766161Y-65299541D01*
X149758545Y-65288424D01*
X149691575Y-65221454D01*
X149680458Y-65213838D01*
X149592637Y-65175060D01*
X149582016Y-65172171D01*
X149565426Y-65170246D01*
X149561155Y-65170000D01*
X149509743Y-65170000D01*
X149502059Y-65172059D01*
X149500000Y-65179743D01*
X149500000Y-65440257D01*
X149200000Y-65440257D01*
X149200000Y-65179743D01*
X149197940Y-65172059D01*
X149190257Y-65170000D01*
X149138845Y-65170000D01*
X149134573Y-65170246D01*
X149117983Y-65172171D01*
X149107362Y-65175060D01*
X149019541Y-65213838D01*
X149008424Y-65221454D01*
X148941454Y-65288424D01*
X148933838Y-65299541D01*
X148895060Y-65387362D01*
X148892171Y-65397983D01*
X148890246Y-65414573D01*
X148890000Y-65418845D01*
X148890000Y-65442448D01*
X148873473Y-65489062D01*
X148831274Y-65514854D01*
X148782253Y-65508305D01*
X148748305Y-65472339D01*
X148716161Y-65399541D01*
X148708545Y-65388424D01*
X148641575Y-65321454D01*
X148630458Y-65313838D01*
X148542637Y-65275060D01*
X148532016Y-65272171D01*
X148515426Y-65270246D01*
X148511155Y-65270000D01*
X148459743Y-65270000D01*
X148452059Y-65272059D01*
X148450000Y-65279743D01*
X148450000Y-65776000D01*
X148440086Y-65813000D01*
X148413000Y-65840086D01*
X148376000Y-65850000D01*
X147849743Y-65850000D01*
X147842059Y-65852059D01*
X147840000Y-65859743D01*
X147840000Y-65881155D01*
X147840246Y-65885426D01*
X147842171Y-65902016D01*
X147845061Y-65912639D01*
X147871980Y-65973604D01*
X147877752Y-66012361D01*
X147862924Y-66048632D01*
X147831654Y-66072247D01*
X147792710Y-66076583D01*
X147755753Y-66070730D01*
X147755752Y-66070730D01*
X147750000Y-66069819D01*
X147744248Y-66070730D01*
X147638267Y-66087515D01*
X147638264Y-66087515D01*
X147632518Y-66088426D01*
X147628532Y-66090456D01*
X147588208Y-66091774D01*
X147552748Y-66070988D01*
X147533849Y-66034488D01*
X147525866Y-65994356D01*
X147520396Y-65981150D01*
X147493945Y-65941562D01*
X147481474Y-65900449D01*
X147493946Y-65859337D01*
X147506809Y-65840086D01*
X147524917Y-65812986D01*
X147538000Y-65747211D01*
X147537999Y-65552790D01*
X147535506Y-65540257D01*
X147840000Y-65540257D01*
X147842059Y-65547940D01*
X147849743Y-65550000D01*
X148140257Y-65550000D01*
X148147940Y-65547940D01*
X148150000Y-65540257D01*
X148150000Y-65279743D01*
X148147940Y-65272059D01*
X148140257Y-65270000D01*
X148088845Y-65270000D01*
X148084573Y-65270246D01*
X148067983Y-65272171D01*
X148057362Y-65275060D01*
X147969541Y-65313838D01*
X147958424Y-65321454D01*
X147891454Y-65388424D01*
X147883838Y-65399541D01*
X147845060Y-65487362D01*
X147842171Y-65497983D01*
X147840246Y-65514573D01*
X147840000Y-65518845D01*
X147840000Y-65540257D01*
X147535506Y-65540257D01*
X147524917Y-65487014D01*
X147494245Y-65441111D01*
X147481775Y-65400000D01*
X147494246Y-65358888D01*
X147524917Y-65312986D01*
X147538000Y-65247211D01*
X147537999Y-65052790D01*
X147524917Y-64987014D01*
X147501787Y-64952397D01*
X147494246Y-64941111D01*
X147481775Y-64899998D01*
X147494246Y-64858887D01*
X147524917Y-64812986D01*
X147526339Y-64805833D01*
X147529127Y-64799105D01*
X147531482Y-64800080D01*
X147551129Y-64767299D01*
X147598076Y-64750500D01*
X147752701Y-64750500D01*
X147797637Y-64765706D01*
X147821831Y-64801691D01*
X147822270Y-64801498D01*
X147823357Y-64803961D01*
X147823358Y-64803963D01*
X147824515Y-64806582D01*
X147824516Y-64806586D01*
X147860278Y-64887577D01*
X147865384Y-64899141D01*
X147940859Y-64974616D01*
X148026392Y-65012383D01*
X148033408Y-65015481D01*
X148038502Y-65017730D01*
X148062377Y-65020500D01*
X148417622Y-65020499D01*
X148441498Y-65017730D01*
X148539141Y-64974616D01*
X148614616Y-64899141D01*
X148657730Y-64801498D01*
X148660500Y-64777623D01*
X148660499Y-64322378D01*
X148657730Y-64298502D01*
X148614616Y-64200859D01*
X148539141Y-64125384D01*
X148465107Y-64092694D01*
X148432998Y-64065399D01*
X148420998Y-64025000D01*
X148432998Y-63984601D01*
X148465108Y-63957305D01*
X148539141Y-63924616D01*
X148614616Y-63849141D01*
X148657730Y-63751498D01*
X148660500Y-63727623D01*
X148660499Y-63272378D01*
X148657730Y-63248502D01*
X148614616Y-63150859D01*
X148539141Y-63075384D01*
X148532870Y-63072615D01*
X148528213Y-63069425D01*
X148501449Y-63036167D01*
X148497510Y-62993659D01*
X148517707Y-62956049D01*
X148569764Y-62903992D01*
X148574615Y-62899141D01*
X148617729Y-62801498D01*
X148620499Y-62777623D01*
X148620499Y-62775413D01*
X148799999Y-62775413D01*
X148800245Y-62779684D01*
X148802121Y-62795855D01*
X148805009Y-62806469D01*
X148843032Y-62892581D01*
X148850650Y-62903702D01*
X148916296Y-62969348D01*
X148932151Y-62980209D01*
X148958914Y-63013467D01*
X148962853Y-63055975D01*
X148942657Y-63093584D01*
X148890234Y-63146006D01*
X148890227Y-63146015D01*
X148885384Y-63150859D01*
X148882615Y-63157128D01*
X148882614Y-63157131D01*
X148844516Y-63243413D01*
X148844514Y-63243419D01*
X148842270Y-63248502D01*
X148841629Y-63254020D01*
X148841628Y-63254027D01*
X148839746Y-63270248D01*
X148839745Y-63270265D01*
X148839500Y-63272377D01*
X148839500Y-63274519D01*
X148839500Y-63274520D01*
X148839500Y-63725476D01*
X148839500Y-63725493D01*
X148839501Y-63727622D01*
X148842270Y-63751498D01*
X148844517Y-63756586D01*
X148844518Y-63756590D01*
X148881067Y-63839365D01*
X148885384Y-63849141D01*
X148960859Y-63924616D01*
X149034892Y-63957305D01*
X149067001Y-63984601D01*
X149079001Y-64025000D01*
X149067001Y-64065399D01*
X149034892Y-64092694D01*
X148960859Y-64125384D01*
X148956013Y-64130229D01*
X148956010Y-64130232D01*
X148890232Y-64196010D01*
X148890229Y-64196013D01*
X148885384Y-64200859D01*
X148882615Y-64207128D01*
X148882614Y-64207131D01*
X148844516Y-64293413D01*
X148844514Y-64293419D01*
X148842270Y-64298502D01*
X148841629Y-64304020D01*
X148841628Y-64304027D01*
X148839746Y-64320248D01*
X148839745Y-64320265D01*
X148839500Y-64322377D01*
X148839500Y-64324519D01*
X148839500Y-64324520D01*
X148839500Y-64775476D01*
X148839500Y-64775493D01*
X148839501Y-64777622D01*
X148842270Y-64801498D01*
X148844517Y-64806586D01*
X148844518Y-64806590D01*
X148880278Y-64887577D01*
X148885384Y-64899141D01*
X148960859Y-64974616D01*
X149046392Y-65012383D01*
X149053408Y-65015481D01*
X149058502Y-65017730D01*
X149082377Y-65020500D01*
X149437622Y-65020499D01*
X149461498Y-65017730D01*
X149559141Y-64974616D01*
X149563990Y-64969766D01*
X149565048Y-64969042D01*
X149596308Y-64956848D01*
X149628688Y-64959622D01*
X149632518Y-64961574D01*
X149750000Y-64980181D01*
X149867482Y-64961574D01*
X149973465Y-64907573D01*
X150057573Y-64823465D01*
X150111574Y-64717482D01*
X150130181Y-64600000D01*
X150111574Y-64482518D01*
X150057573Y-64376535D01*
X149973465Y-64292427D01*
X149867482Y-64238426D01*
X149861728Y-64237514D01*
X149861726Y-64237514D01*
X149755752Y-64220730D01*
X149750000Y-64219819D01*
X149744248Y-64220730D01*
X149744246Y-64220730D01*
X149702440Y-64227350D01*
X149661602Y-64222229D01*
X149635070Y-64200404D01*
X149634616Y-64200859D01*
X149559141Y-64125384D01*
X149485107Y-64092694D01*
X149452998Y-64065399D01*
X149440998Y-64025000D01*
X149452998Y-63984601D01*
X149485108Y-63957305D01*
X149559141Y-63924616D01*
X149605637Y-63878120D01*
X149640690Y-63858489D01*
X149679455Y-63860013D01*
X149682518Y-63861574D01*
X149800000Y-63880181D01*
X149917482Y-63861574D01*
X150023465Y-63807573D01*
X150107573Y-63723465D01*
X150161574Y-63617482D01*
X150180181Y-63500000D01*
X150161574Y-63382518D01*
X150107573Y-63276535D01*
X150023465Y-63192427D01*
X149917482Y-63138426D01*
X149911728Y-63137514D01*
X149911726Y-63137514D01*
X149805752Y-63120730D01*
X149800000Y-63119819D01*
X149794248Y-63120730D01*
X149688269Y-63137515D01*
X149688268Y-63137515D01*
X149682518Y-63138426D01*
X149679453Y-63139987D01*
X149640683Y-63141507D01*
X149605636Y-63121879D01*
X149563987Y-63080230D01*
X149563987Y-63080229D01*
X149559141Y-63075384D01*
X149552870Y-63072615D01*
X149547794Y-63069138D01*
X149521030Y-63035880D01*
X149517091Y-62993372D01*
X149537288Y-62955762D01*
X149589345Y-62903705D01*
X149596965Y-62892581D01*
X149634988Y-62806469D01*
X149637876Y-62795855D01*
X149639752Y-62779684D01*
X149639999Y-62775413D01*
X149639999Y-62715077D01*
X150768318Y-62715077D01*
X150769252Y-62719630D01*
X150769253Y-62719634D01*
X150800429Y-62871513D01*
X150800430Y-62871518D01*
X150801366Y-62876074D01*
X150803405Y-62880255D01*
X150803407Y-62880260D01*
X150852155Y-62980209D01*
X150873414Y-63023796D01*
X150876429Y-63027339D01*
X150876430Y-63027340D01*
X150911241Y-63068243D01*
X150979935Y-63148958D01*
X151114236Y-63243697D01*
X151267879Y-63302061D01*
X151410914Y-63318104D01*
X151426582Y-63319862D01*
X151426582Y-63319861D01*
X151431210Y-63320381D01*
X152345327Y-63191911D01*
X152464124Y-63159634D01*
X152607030Y-63078453D01*
X152725257Y-62964283D01*
X152811376Y-62824298D01*
X152859977Y-62667293D01*
X152868006Y-62503135D01*
X152834958Y-62342138D01*
X152762910Y-62194416D01*
X152656388Y-62069254D01*
X152638210Y-62056431D01*
X152525892Y-61977199D01*
X152525891Y-61977198D01*
X152522087Y-61974515D01*
X152517736Y-61972862D01*
X152517732Y-61972860D01*
X152372797Y-61917804D01*
X152372792Y-61917803D01*
X152368444Y-61916151D01*
X152363822Y-61915632D01*
X152363816Y-61915631D01*
X152209741Y-61898350D01*
X152205114Y-61897831D01*
X152200511Y-61898477D01*
X152200503Y-61898478D01*
X151293299Y-62025977D01*
X151293291Y-62025978D01*
X151290997Y-62026301D01*
X151288760Y-62026908D01*
X151288749Y-62026911D01*
X151176689Y-62057357D01*
X151176681Y-62057360D01*
X151172199Y-62058578D01*
X151168159Y-62060872D01*
X151168154Y-62060875D01*
X151033338Y-62137461D01*
X151033334Y-62137463D01*
X151029294Y-62139759D01*
X151025951Y-62142987D01*
X151025946Y-62142991D01*
X150914416Y-62250694D01*
X150914412Y-62250698D01*
X150911067Y-62253929D01*
X150908630Y-62257890D01*
X150908627Y-62257894D01*
X150827385Y-62389951D01*
X150827382Y-62389957D01*
X150824948Y-62393914D01*
X150823573Y-62398355D01*
X150823571Y-62398360D01*
X150777722Y-62546471D01*
X150777720Y-62546477D01*
X150776346Y-62550919D01*
X150776119Y-62555558D01*
X150776118Y-62555565D01*
X150768545Y-62710428D01*
X150768318Y-62715077D01*
X149639999Y-62715077D01*
X149639999Y-62709743D01*
X149637939Y-62702059D01*
X149630256Y-62700000D01*
X148809742Y-62700000D01*
X148802058Y-62702059D01*
X148799999Y-62709743D01*
X148799999Y-62775413D01*
X148620499Y-62775413D01*
X148620498Y-62322378D01*
X148617729Y-62298502D01*
X148574615Y-62200859D01*
X148525576Y-62151820D01*
X148504612Y-62109717D01*
X148513254Y-62063485D01*
X148548012Y-62031799D01*
X148568828Y-62022608D01*
X148647608Y-61943828D01*
X148667304Y-61899218D01*
X148694601Y-61867108D01*
X148735000Y-61855107D01*
X148775399Y-61867108D01*
X148802695Y-61899218D01*
X148817995Y-61933871D01*
X148822392Y-61943828D01*
X148901172Y-62022608D01*
X148903413Y-62023597D01*
X148928417Y-62054670D01*
X148932356Y-62097177D01*
X148912160Y-62134787D01*
X148850650Y-62196297D01*
X148843032Y-62207418D01*
X148805009Y-62293530D01*
X148802121Y-62304144D01*
X148800245Y-62320315D01*
X148799999Y-62324587D01*
X148799999Y-62390257D01*
X148802058Y-62397940D01*
X148809742Y-62400000D01*
X149630256Y-62400000D01*
X149637939Y-62397940D01*
X149639999Y-62390257D01*
X149639999Y-62324587D01*
X149639752Y-62320315D01*
X149637876Y-62304144D01*
X149634988Y-62293530D01*
X149596965Y-62207418D01*
X149589347Y-62196297D01*
X149527838Y-62134788D01*
X149507642Y-62097178D01*
X149511581Y-62054670D01*
X149536584Y-62023598D01*
X149538828Y-62022608D01*
X149589744Y-61971692D01*
X149630492Y-61950928D01*
X149671685Y-61957451D01*
X149671790Y-61957130D01*
X149673817Y-61957788D01*
X149675662Y-61958080D01*
X149682518Y-61961574D01*
X149800000Y-61980181D01*
X149917482Y-61961574D01*
X150023465Y-61907573D01*
X150107573Y-61823465D01*
X150161574Y-61717482D01*
X150180181Y-61600000D01*
X150161574Y-61482518D01*
X150107573Y-61376535D01*
X150023465Y-61292427D01*
X149917482Y-61238426D01*
X149911728Y-61237514D01*
X149911726Y-61237514D01*
X149805752Y-61220730D01*
X149800000Y-61219819D01*
X149794248Y-61220730D01*
X149688271Y-61237514D01*
X149688266Y-61237515D01*
X149682518Y-61238426D01*
X149677331Y-61241068D01*
X149677324Y-61241071D01*
X149675659Y-61241920D01*
X149673814Y-61242212D01*
X149671789Y-61242870D01*
X149671684Y-61242549D01*
X149630491Y-61249070D01*
X149589744Y-61228308D01*
X149543676Y-61182240D01*
X149538828Y-61177392D01*
X149532555Y-61174622D01*
X149441997Y-61134637D01*
X149441993Y-61134636D01*
X149436909Y-61132391D01*
X149431388Y-61131750D01*
X149431383Y-61131749D01*
X149414119Y-61129746D01*
X149414103Y-61129745D01*
X149411991Y-61129500D01*
X149409847Y-61129500D01*
X149030155Y-61129500D01*
X149030137Y-61129500D01*
X149028010Y-61129501D01*
X149025884Y-61129747D01*
X149025876Y-61129748D01*
X149008622Y-61131749D01*
X149008618Y-61131749D01*
X149003091Y-61132391D01*
X148998002Y-61134637D01*
X148997998Y-61134639D01*
X148907444Y-61174622D01*
X148907441Y-61174623D01*
X148901172Y-61177392D01*
X148896326Y-61182237D01*
X148896323Y-61182240D01*
X148827240Y-61251323D01*
X148827237Y-61251326D01*
X148822392Y-61256172D01*
X148819623Y-61262441D01*
X148819622Y-61262444D01*
X148802695Y-61300782D01*
X148775399Y-61332891D01*
X148735000Y-61344892D01*
X148694601Y-61332891D01*
X148667305Y-61300782D01*
X148660927Y-61286338D01*
X148647608Y-61256172D01*
X148568828Y-61177392D01*
X148562555Y-61174622D01*
X148471997Y-61134637D01*
X148471993Y-61134636D01*
X148466909Y-61132391D01*
X148461388Y-61131750D01*
X148461383Y-61131749D01*
X148444119Y-61129746D01*
X148444103Y-61129745D01*
X148441991Y-61129500D01*
X148439847Y-61129500D01*
X148060155Y-61129500D01*
X148060137Y-61129500D01*
X148058010Y-61129501D01*
X148055884Y-61129747D01*
X148055876Y-61129748D01*
X148038622Y-61131749D01*
X148038618Y-61131749D01*
X148033091Y-61132391D01*
X148028002Y-61134637D01*
X148027998Y-61134639D01*
X147937444Y-61174622D01*
X147937441Y-61174623D01*
X147931172Y-61177392D01*
X147926326Y-61182237D01*
X147926323Y-61182240D01*
X147857240Y-61251323D01*
X147857237Y-61251326D01*
X147852392Y-61256172D01*
X147849623Y-61262441D01*
X147849622Y-61262444D01*
X147809637Y-61353002D01*
X147809635Y-61353007D01*
X147807391Y-61358091D01*
X147806750Y-61363609D01*
X147806749Y-61363616D01*
X147804746Y-61380880D01*
X147804745Y-61380897D01*
X147804500Y-61383009D01*
X147804500Y-61385151D01*
X147804500Y-61385152D01*
X147804500Y-61814844D01*
X147804500Y-61814861D01*
X147804501Y-61816990D01*
X147804747Y-61819116D01*
X147804748Y-61819123D01*
X147806712Y-61836062D01*
X147807391Y-61841909D01*
X147809638Y-61846999D01*
X147809639Y-61847001D01*
X147849621Y-61937553D01*
X147852392Y-61943828D01*
X147857240Y-61948675D01*
X147857240Y-61948676D01*
X147917734Y-62009170D01*
X147937930Y-62046778D01*
X147933992Y-62089284D01*
X147907232Y-62122543D01*
X147907122Y-62122617D01*
X147900858Y-62125384D01*
X147896015Y-62130226D01*
X147896012Y-62130229D01*
X147830231Y-62196010D01*
X147830228Y-62196013D01*
X147825383Y-62200859D01*
X147822614Y-62207128D01*
X147822613Y-62207131D01*
X147784515Y-62293413D01*
X147784513Y-62293419D01*
X147782269Y-62298502D01*
X147781628Y-62304020D01*
X147781627Y-62304027D01*
X147779745Y-62320248D01*
X147779744Y-62320265D01*
X147779499Y-62322377D01*
X147779499Y-62324519D01*
X147779499Y-62324520D01*
X147779499Y-62775476D01*
X147779499Y-62775493D01*
X147779500Y-62777622D01*
X147779746Y-62779748D01*
X147779747Y-62779755D01*
X147781614Y-62795855D01*
X147782269Y-62801498D01*
X147825383Y-62899141D01*
X147900858Y-62974616D01*
X147907134Y-62977387D01*
X147911785Y-62980573D01*
X147938549Y-63013832D01*
X147942488Y-63056341D01*
X147922291Y-63093951D01*
X147903063Y-63113178D01*
X147873605Y-63131229D01*
X147839163Y-63133940D01*
X147755753Y-63120730D01*
X147755752Y-63120730D01*
X147750000Y-63119819D01*
X147744248Y-63120730D01*
X147638273Y-63137514D01*
X147638269Y-63137515D01*
X147632518Y-63138426D01*
X147632135Y-63138621D01*
X147589133Y-63138622D01*
X147552132Y-63111740D01*
X147537999Y-63068243D01*
X147537999Y-63056431D01*
X147537999Y-63052790D01*
X147524917Y-62987014D01*
X147494245Y-62941111D01*
X147481775Y-62900000D01*
X147494246Y-62858888D01*
X147524917Y-62812986D01*
X147538000Y-62747211D01*
X147537999Y-62552790D01*
X147524917Y-62487014D01*
X147494246Y-62441111D01*
X147481775Y-62399998D01*
X147494246Y-62358887D01*
X147524917Y-62312986D01*
X147538000Y-62247211D01*
X147537999Y-62052790D01*
X147524917Y-61987014D01*
X147516565Y-61974515D01*
X147508527Y-61962485D01*
X147494245Y-61941111D01*
X147481775Y-61900000D01*
X147494246Y-61858888D01*
X147524917Y-61812986D01*
X147538000Y-61747211D01*
X147537999Y-61552790D01*
X147524917Y-61487014D01*
X147494245Y-61441111D01*
X147481775Y-61400000D01*
X147494246Y-61358888D01*
X147505673Y-61341786D01*
X147524917Y-61312986D01*
X147538000Y-61247211D01*
X147537999Y-61052790D01*
X147524917Y-60987014D01*
X147475077Y-60912423D01*
X147464146Y-60905119D01*
X147406547Y-60866632D01*
X147406543Y-60866630D01*
X147400486Y-60862583D01*
X147393337Y-60861161D01*
X147393335Y-60861160D01*
X147338282Y-60850210D01*
X147338279Y-60850209D01*
X147334711Y-60849500D01*
X147331071Y-60849500D01*
X147272135Y-60849500D01*
X146073999Y-60849500D01*
X146037000Y-60839587D01*
X146009914Y-60812501D01*
X146000000Y-60775501D01*
X146000000Y-60627742D01*
X146005633Y-60599423D01*
X146021674Y-60575416D01*
X146141896Y-60455194D01*
X146211677Y-60385413D01*
X148730000Y-60385413D01*
X148730246Y-60389684D01*
X148732122Y-60405855D01*
X148735010Y-60416469D01*
X148773033Y-60502581D01*
X148780651Y-60513702D01*
X148846297Y-60579348D01*
X148857418Y-60586966D01*
X148943530Y-60624989D01*
X148954144Y-60627877D01*
X148970315Y-60629753D01*
X148974587Y-60630000D01*
X149040257Y-60630000D01*
X149047940Y-60627940D01*
X149050000Y-60620257D01*
X149350000Y-60620257D01*
X149352059Y-60627940D01*
X149359743Y-60630000D01*
X149425413Y-60630000D01*
X149429684Y-60629753D01*
X149445855Y-60627877D01*
X149456469Y-60624989D01*
X149542581Y-60586966D01*
X149553702Y-60579348D01*
X149590356Y-60542694D01*
X150063496Y-60542694D01*
X150090823Y-60737132D01*
X150092525Y-60744152D01*
X150103633Y-60775961D01*
X150110888Y-60788278D01*
X150140920Y-60821926D01*
X150152334Y-60830527D01*
X150192957Y-60850121D01*
X150206795Y-60853700D01*
X150240432Y-60855610D01*
X150247650Y-60855310D01*
X150437563Y-60828619D01*
X150444562Y-60825839D01*
X150446343Y-60818518D01*
X150446343Y-60541921D01*
X150444283Y-60534237D01*
X150436600Y-60532178D01*
X150072641Y-60532178D01*
X150064696Y-60534506D01*
X150063496Y-60542694D01*
X149590356Y-60542694D01*
X149619348Y-60513702D01*
X149626966Y-60502581D01*
X149664989Y-60416469D01*
X149667877Y-60405855D01*
X149669753Y-60389684D01*
X149670000Y-60385413D01*
X149670000Y-60369743D01*
X149667940Y-60362059D01*
X149660257Y-60360000D01*
X149359743Y-60360000D01*
X149352059Y-60362059D01*
X149350000Y-60369743D01*
X149350000Y-60620257D01*
X149050000Y-60620257D01*
X149050000Y-60369743D01*
X149047940Y-60362059D01*
X149040257Y-60360000D01*
X148739743Y-60360000D01*
X148732059Y-60362059D01*
X148730000Y-60369743D01*
X148730000Y-60385413D01*
X146211677Y-60385413D01*
X146546831Y-60050257D01*
X148730000Y-60050257D01*
X148732059Y-60057940D01*
X148739743Y-60060000D01*
X149040257Y-60060000D01*
X149047940Y-60057940D01*
X149050000Y-60050257D01*
X149050000Y-59799743D01*
X149047940Y-59792059D01*
X149040257Y-59790000D01*
X148974587Y-59790000D01*
X148970315Y-59790246D01*
X148954144Y-59792122D01*
X148943530Y-59795010D01*
X148857418Y-59833033D01*
X148846297Y-59840651D01*
X148780651Y-59906297D01*
X148773033Y-59917418D01*
X148735010Y-60003530D01*
X148732122Y-60014144D01*
X148730246Y-60030315D01*
X148730000Y-60034587D01*
X148730000Y-60050257D01*
X146546831Y-60050257D01*
X146780038Y-59817049D01*
X146786220Y-59811526D01*
X146790708Y-59807946D01*
X146798224Y-59804328D01*
X146817149Y-59780596D01*
X146822672Y-59774415D01*
X146827748Y-59769341D01*
X146831570Y-59763258D01*
X146836351Y-59756518D01*
X146855290Y-59732771D01*
X146857145Y-59724639D01*
X146858582Y-59721656D01*
X146859676Y-59718528D01*
X146864116Y-59711464D01*
X146867513Y-59681304D01*
X146868902Y-59673129D01*
X146870500Y-59666130D01*
X146870500Y-59658952D01*
X146870965Y-59650668D01*
X146873428Y-59628801D01*
X146874362Y-59620514D01*
X146871607Y-59612641D01*
X146870965Y-59606942D01*
X146870500Y-59598655D01*
X146870500Y-58759063D01*
X146882501Y-58718664D01*
X146914610Y-58691368D01*
X146927897Y-58685501D01*
X146977016Y-58663813D01*
X147053813Y-58587016D01*
X147082578Y-58521868D01*
X147109874Y-58489760D01*
X147150273Y-58477759D01*
X147190671Y-58489759D01*
X147217968Y-58521868D01*
X147243838Y-58580458D01*
X147251454Y-58591575D01*
X147318424Y-58658545D01*
X147329541Y-58666161D01*
X147417362Y-58704939D01*
X147427983Y-58707828D01*
X147444573Y-58709753D01*
X147448845Y-58710000D01*
X147470257Y-58710000D01*
X147477940Y-58707940D01*
X147480000Y-58700257D01*
X147780000Y-58700257D01*
X147782059Y-58707940D01*
X147789743Y-58710000D01*
X147811155Y-58710000D01*
X147815426Y-58709753D01*
X147832016Y-58707828D01*
X147842637Y-58704939D01*
X147930458Y-58666161D01*
X147941575Y-58658545D01*
X148008545Y-58591575D01*
X148016161Y-58580458D01*
X148054939Y-58492637D01*
X148057828Y-58482016D01*
X148059753Y-58465426D01*
X148060000Y-58461155D01*
X148060000Y-58409743D01*
X148057940Y-58402059D01*
X148050257Y-58400000D01*
X147789743Y-58400000D01*
X147782059Y-58402059D01*
X147780000Y-58409743D01*
X147780000Y-58700257D01*
X147480000Y-58700257D01*
X147480000Y-58090257D01*
X147780000Y-58090257D01*
X147782059Y-58097940D01*
X147789743Y-58100000D01*
X148050257Y-58100000D01*
X148057940Y-58097940D01*
X148060000Y-58090257D01*
X148060000Y-58038845D01*
X148059753Y-58034573D01*
X148057828Y-58017983D01*
X148054939Y-58007362D01*
X148016161Y-57919541D01*
X148008545Y-57908424D01*
X147941575Y-57841454D01*
X147930458Y-57833838D01*
X147842637Y-57795060D01*
X147832016Y-57792171D01*
X147815426Y-57790246D01*
X147811155Y-57790000D01*
X147789743Y-57790000D01*
X147782059Y-57792059D01*
X147780000Y-57799743D01*
X147780000Y-58090257D01*
X147480000Y-58090257D01*
X147480000Y-57799743D01*
X147477738Y-57791304D01*
X147466335Y-57779901D01*
X147456730Y-57774015D01*
X147438634Y-57736076D01*
X147444121Y-57694401D01*
X147471420Y-57662438D01*
X147511723Y-57650500D01*
X147561180Y-57650500D01*
X147564820Y-57650500D01*
X147608722Y-57641767D01*
X147658504Y-57608504D01*
X147691767Y-57558722D01*
X147700500Y-57514820D01*
X147700500Y-57095412D01*
X147880000Y-57095412D01*
X147880246Y-57099683D01*
X147882122Y-57115854D01*
X147885010Y-57126468D01*
X147923033Y-57212580D01*
X147930651Y-57223701D01*
X147996297Y-57289347D01*
X148007418Y-57296965D01*
X148093530Y-57334988D01*
X148104144Y-57337876D01*
X148120315Y-57339752D01*
X148124587Y-57339999D01*
X148190257Y-57339999D01*
X148197940Y-57337939D01*
X148200000Y-57330256D01*
X148200000Y-57079742D01*
X148197940Y-57072058D01*
X148190257Y-57069999D01*
X147889743Y-57069999D01*
X147882059Y-57072058D01*
X147880000Y-57079742D01*
X147880000Y-57095412D01*
X147700500Y-57095412D01*
X147700500Y-56760256D01*
X147880000Y-56760256D01*
X147882059Y-56767939D01*
X147889743Y-56769999D01*
X148190257Y-56769999D01*
X148197940Y-56767939D01*
X148200000Y-56760256D01*
X148200000Y-56509742D01*
X148197940Y-56502058D01*
X148190257Y-56499999D01*
X148124587Y-56499999D01*
X148120315Y-56500245D01*
X148104144Y-56502121D01*
X148093530Y-56505009D01*
X148007418Y-56543032D01*
X147996297Y-56550650D01*
X147930651Y-56616296D01*
X147923033Y-56627417D01*
X147885010Y-56713529D01*
X147882122Y-56724143D01*
X147880246Y-56740314D01*
X147880000Y-56744586D01*
X147880000Y-56760256D01*
X147700500Y-56760256D01*
X147700500Y-55685180D01*
X147691767Y-55641278D01*
X147658504Y-55591496D01*
X147608722Y-55558233D01*
X147601576Y-55556811D01*
X147601575Y-55556811D01*
X147568389Y-55550210D01*
X147564820Y-55549500D01*
X146552360Y-55549500D01*
X146513695Y-55538595D01*
X146486425Y-55509095D01*
X146485215Y-55506721D01*
X146482573Y-55501535D01*
X146398465Y-55417427D01*
X146292482Y-55363426D01*
X146286728Y-55362514D01*
X146286726Y-55362514D01*
X146180752Y-55345730D01*
X146175000Y-55344819D01*
X146169248Y-55345730D01*
X146063273Y-55362514D01*
X146063269Y-55362515D01*
X146057518Y-55363426D01*
X146052326Y-55366071D01*
X146052324Y-55366072D01*
X145956727Y-55414781D01*
X145956724Y-55414782D01*
X145951535Y-55417427D01*
X145947418Y-55421543D01*
X145947415Y-55421546D01*
X145871546Y-55497415D01*
X145871543Y-55497418D01*
X145867427Y-55501535D01*
X145864785Y-55506721D01*
X145864781Y-55506727D01*
X145816819Y-55600858D01*
X145813426Y-55607518D01*
X145812515Y-55613269D01*
X145812514Y-55613273D01*
X145799822Y-55693412D01*
X145794819Y-55725000D01*
X145813426Y-55842482D01*
X145867427Y-55948465D01*
X145951535Y-56032573D01*
X146057518Y-56086574D01*
X146175000Y-56105181D01*
X146292482Y-56086574D01*
X146297674Y-56083928D01*
X146302630Y-56082318D01*
X146348365Y-56082316D01*
X146385367Y-56109198D01*
X146399500Y-56152695D01*
X146399500Y-56634936D01*
X146383009Y-56681506D01*
X146340886Y-56707319D01*
X146291907Y-56700871D01*
X146267482Y-56688426D01*
X146261728Y-56687514D01*
X146261726Y-56687514D01*
X146155752Y-56670730D01*
X146150000Y-56669819D01*
X146144248Y-56670730D01*
X146038273Y-56687514D01*
X146038269Y-56687515D01*
X146032518Y-56688426D01*
X146027326Y-56691071D01*
X146027324Y-56691072D01*
X145931727Y-56739781D01*
X145931724Y-56739782D01*
X145926535Y-56742427D01*
X145922418Y-56746543D01*
X145922415Y-56746546D01*
X145846546Y-56822415D01*
X145846543Y-56822418D01*
X145842427Y-56826535D01*
X145839782Y-56831724D01*
X145839781Y-56831727D01*
X145791697Y-56926098D01*
X145788426Y-56932518D01*
X145787515Y-56938269D01*
X145787514Y-56938273D01*
X145777613Y-57000791D01*
X145769819Y-57050000D01*
X145770730Y-57055752D01*
X145774529Y-57079742D01*
X145788426Y-57167482D01*
X145842427Y-57273465D01*
X145926535Y-57357573D01*
X146032518Y-57411574D01*
X146150000Y-57430181D01*
X146267482Y-57411574D01*
X146291907Y-57399128D01*
X146340886Y-57392681D01*
X146383009Y-57418494D01*
X146399500Y-57465064D01*
X146399500Y-57514820D01*
X146400210Y-57518389D01*
X146405998Y-57547489D01*
X146408233Y-57558722D01*
X146418673Y-57574347D01*
X146436883Y-57601601D01*
X146441496Y-57608504D01*
X146491278Y-57641767D01*
X146498425Y-57643188D01*
X146505159Y-57645978D01*
X146504851Y-57646720D01*
X146535265Y-57662752D01*
X146555772Y-57699569D01*
X146552855Y-57741611D01*
X146527459Y-57775242D01*
X146487971Y-57789500D01*
X146486628Y-57789501D01*
X146484521Y-57789745D01*
X146484509Y-57789746D01*
X146467868Y-57791676D01*
X146467863Y-57791677D01*
X146462338Y-57792318D01*
X146457249Y-57794564D01*
X146457245Y-57794566D01*
X146369256Y-57833417D01*
X146369253Y-57833418D01*
X146362984Y-57836187D01*
X146358138Y-57841032D01*
X146358135Y-57841035D01*
X146291035Y-57908135D01*
X146291032Y-57908138D01*
X146286187Y-57912984D01*
X146283418Y-57919253D01*
X146283417Y-57919256D01*
X146244565Y-58007247D01*
X146244563Y-58007252D01*
X146242318Y-58012338D01*
X146241676Y-58017863D01*
X146241114Y-58019933D01*
X146216819Y-58057572D01*
X146175260Y-58074296D01*
X146131666Y-58063976D01*
X146102015Y-58030394D01*
X146082505Y-57986209D01*
X146058527Y-57931903D01*
X145981730Y-57855106D01*
X145920368Y-57828012D01*
X145886090Y-57797173D01*
X145877041Y-57753553D01*
X145879076Y-57747740D01*
X145875678Y-57717585D01*
X145875214Y-57709302D01*
X145875214Y-57706285D01*
X145875214Y-57702124D01*
X145873614Y-57695119D01*
X145872226Y-57686943D01*
X145871376Y-57679398D01*
X145868830Y-57656790D01*
X145864392Y-57649728D01*
X145863303Y-57646614D01*
X145861860Y-57643618D01*
X145860004Y-57635483D01*
X145854801Y-57628959D01*
X145854801Y-57628958D01*
X145841079Y-57611750D01*
X145836281Y-57604989D01*
X145835142Y-57603177D01*
X145832463Y-57598913D01*
X145827384Y-57593833D01*
X145821855Y-57587646D01*
X145808138Y-57570446D01*
X145808136Y-57570445D01*
X145802938Y-57563926D01*
X145795426Y-57560308D01*
X145790930Y-57556723D01*
X145784742Y-57551193D01*
X145222174Y-56988625D01*
X145206133Y-56964618D01*
X145200500Y-56936299D01*
X145200500Y-55688820D01*
X145200500Y-55685180D01*
X145191767Y-55641278D01*
X145158504Y-55591496D01*
X145108722Y-55558233D01*
X145101576Y-55556811D01*
X145101575Y-55556811D01*
X145068389Y-55550210D01*
X145064820Y-55549500D01*
X144035180Y-55549500D01*
X144031611Y-55550209D01*
X144031610Y-55550210D01*
X143998424Y-55556811D01*
X143998421Y-55556811D01*
X143991278Y-55558233D01*
X143985220Y-55562280D01*
X143985219Y-55562281D01*
X143947556Y-55587446D01*
X143947553Y-55587448D01*
X143941496Y-55591496D01*
X143937448Y-55597553D01*
X143937446Y-55597556D01*
X143912281Y-55635219D01*
X143908233Y-55641278D01*
X143906811Y-55648421D01*
X143906811Y-55648424D01*
X143900210Y-55681610D01*
X143899500Y-55685180D01*
X143899500Y-57514820D01*
X143900210Y-57518389D01*
X143905998Y-57547489D01*
X143908233Y-57558722D01*
X143918673Y-57574347D01*
X143936883Y-57601601D01*
X143941496Y-57608504D01*
X143991278Y-57641767D01*
X144035180Y-57650500D01*
X145061180Y-57650500D01*
X145064820Y-57650500D01*
X145108722Y-57641767D01*
X145158504Y-57608504D01*
X145162555Y-57602440D01*
X145163395Y-57601601D01*
X145196569Y-57582447D01*
X145234875Y-57582446D01*
X145268049Y-57601599D01*
X145398042Y-57731592D01*
X145419006Y-57773691D01*
X145410367Y-57819921D01*
X145379412Y-57848146D01*
X145379628Y-57848461D01*
X145377374Y-57850004D01*
X145375615Y-57851609D01*
X145373974Y-57852333D01*
X145373966Y-57852338D01*
X145367698Y-57855106D01*
X145362852Y-57859951D01*
X145362849Y-57859954D01*
X145295749Y-57927054D01*
X145295746Y-57927057D01*
X145290901Y-57931903D01*
X145288132Y-57938172D01*
X145288129Y-57938178D01*
X145262134Y-57997050D01*
X145234838Y-58029159D01*
X145194439Y-58041159D01*
X145154041Y-58029158D01*
X145126745Y-57997049D01*
X145100876Y-57938462D01*
X145093259Y-57927343D01*
X145026289Y-57860373D01*
X145015172Y-57852757D01*
X144927351Y-57813979D01*
X144916730Y-57811090D01*
X144900140Y-57809165D01*
X144895869Y-57808919D01*
X144874457Y-57808919D01*
X144866773Y-57810978D01*
X144864714Y-57818662D01*
X144864714Y-58344919D01*
X144854800Y-58381919D01*
X144827714Y-58409005D01*
X144790714Y-58418919D01*
X144294453Y-58418919D01*
X144281220Y-58422464D01*
X144242917Y-58422463D01*
X144209745Y-58403311D01*
X144208695Y-58402261D01*
X144200257Y-58400000D01*
X143704000Y-58400000D01*
X143667000Y-58390086D01*
X143639914Y-58363000D01*
X143630000Y-58326000D01*
X143630000Y-58090257D01*
X143930000Y-58090257D01*
X143932059Y-58097940D01*
X143939743Y-58100000D01*
X144200259Y-58100000D01*
X144213489Y-58096455D01*
X144251794Y-58096454D01*
X144284968Y-58115607D01*
X144286018Y-58116657D01*
X144294457Y-58118919D01*
X144554971Y-58118919D01*
X144562654Y-58116859D01*
X144564714Y-58109176D01*
X144564714Y-57818662D01*
X144562654Y-57810978D01*
X144554971Y-57808919D01*
X144533559Y-57808919D01*
X144529287Y-57809165D01*
X144512697Y-57811090D01*
X144502076Y-57813979D01*
X144414255Y-57852757D01*
X144403138Y-57860373D01*
X144336168Y-57927343D01*
X144328551Y-57938462D01*
X144319227Y-57959578D01*
X144291930Y-57991686D01*
X144251531Y-58003685D01*
X144211133Y-57991684D01*
X144183838Y-57959575D01*
X144166162Y-57919543D01*
X144158545Y-57908424D01*
X144091575Y-57841454D01*
X144080458Y-57833838D01*
X143992637Y-57795060D01*
X143982016Y-57792171D01*
X143965426Y-57790246D01*
X143961155Y-57790000D01*
X143939743Y-57790000D01*
X143932059Y-57792059D01*
X143930000Y-57799743D01*
X143930000Y-58090257D01*
X143630000Y-58090257D01*
X143630000Y-57799743D01*
X143627940Y-57792059D01*
X143620257Y-57790000D01*
X143598845Y-57790000D01*
X143594573Y-57790246D01*
X143577983Y-57792171D01*
X143567362Y-57795060D01*
X143479541Y-57833838D01*
X143468424Y-57841454D01*
X143401454Y-57908424D01*
X143393835Y-57919545D01*
X143367967Y-57978131D01*
X143340671Y-58010240D01*
X143300273Y-58022240D01*
X143259874Y-58010239D01*
X143232578Y-57978130D01*
X143217249Y-57943413D01*
X143203813Y-57912984D01*
X143127016Y-57836187D01*
X143120743Y-57833417D01*
X143032750Y-57794564D01*
X143032746Y-57794563D01*
X143027662Y-57792318D01*
X143022141Y-57791677D01*
X143022136Y-57791676D01*
X143005501Y-57789746D01*
X143005485Y-57789745D01*
X143003373Y-57789500D01*
X143001229Y-57789500D01*
X142638773Y-57789500D01*
X142638755Y-57789500D01*
X142636628Y-57789501D01*
X142634502Y-57789747D01*
X142634494Y-57789748D01*
X142617868Y-57791676D01*
X142617863Y-57791677D01*
X142612338Y-57792318D01*
X142607248Y-57794565D01*
X142607242Y-57794567D01*
X142590882Y-57801791D01*
X142544768Y-57806295D01*
X142505014Y-57782494D01*
X142487207Y-57739718D01*
X142498328Y-57694738D01*
X142498540Y-57694401D01*
X142501328Y-57689961D01*
X142506121Y-57683204D01*
X142525053Y-57659468D01*
X142526909Y-57651332D01*
X142529397Y-57646166D01*
X142533453Y-57638836D01*
X142533878Y-57638161D01*
X142533878Y-57638159D01*
X142533929Y-57638079D01*
X142535213Y-57638888D01*
X142542019Y-57627410D01*
X142566685Y-57609711D01*
X142646779Y-57574347D01*
X142723576Y-57497550D01*
X142752341Y-57432402D01*
X142779637Y-57400294D01*
X142820036Y-57388293D01*
X142860434Y-57400293D01*
X142887731Y-57432402D01*
X142913601Y-57490992D01*
X142921217Y-57502109D01*
X142988187Y-57569079D01*
X142999304Y-57576695D01*
X143087125Y-57615473D01*
X143097746Y-57618362D01*
X143114336Y-57620287D01*
X143118608Y-57620534D01*
X143140020Y-57620534D01*
X143147703Y-57618474D01*
X143149763Y-57610791D01*
X143449763Y-57610791D01*
X143451822Y-57618474D01*
X143459506Y-57620534D01*
X143480918Y-57620534D01*
X143485189Y-57620287D01*
X143501779Y-57618362D01*
X143512400Y-57615473D01*
X143600221Y-57576695D01*
X143611338Y-57569079D01*
X143678308Y-57502109D01*
X143685924Y-57490992D01*
X143724702Y-57403171D01*
X143727591Y-57392550D01*
X143729516Y-57375960D01*
X143729763Y-57371689D01*
X143729763Y-57320277D01*
X143727703Y-57312593D01*
X143720020Y-57310534D01*
X143459506Y-57310534D01*
X143451822Y-57312593D01*
X143449763Y-57320277D01*
X143449763Y-57610791D01*
X143149763Y-57610791D01*
X143149763Y-57000791D01*
X143449763Y-57000791D01*
X143451822Y-57008474D01*
X143459506Y-57010534D01*
X143720020Y-57010534D01*
X143727703Y-57008474D01*
X143729763Y-57000791D01*
X143729763Y-56949379D01*
X143729516Y-56945107D01*
X143727591Y-56928517D01*
X143724702Y-56917896D01*
X143685924Y-56830075D01*
X143678308Y-56818958D01*
X143611338Y-56751988D01*
X143600221Y-56744372D01*
X143512400Y-56705594D01*
X143501779Y-56702705D01*
X143485189Y-56700780D01*
X143480918Y-56700534D01*
X143459506Y-56700534D01*
X143451822Y-56702593D01*
X143449763Y-56710277D01*
X143449763Y-57000791D01*
X143149763Y-57000791D01*
X143149763Y-56710277D01*
X143147703Y-56702593D01*
X143140020Y-56700534D01*
X143118608Y-56700534D01*
X143114336Y-56700780D01*
X143097746Y-56702705D01*
X143087120Y-56705596D01*
X143004391Y-56742126D01*
X142956451Y-56746197D01*
X142916141Y-56719931D01*
X142900500Y-56674432D01*
X142900500Y-56574500D01*
X142910414Y-56537500D01*
X142937500Y-56510414D01*
X142974500Y-56500500D01*
X143411180Y-56500500D01*
X143414820Y-56500500D01*
X143458722Y-56491767D01*
X143508504Y-56458504D01*
X143541767Y-56408722D01*
X143550500Y-56364820D01*
X143550500Y-55396673D01*
X143918048Y-55396673D01*
X143923596Y-55399466D01*
X143929010Y-55400000D01*
X144770991Y-55400000D01*
X144776401Y-55399466D01*
X144781950Y-55396673D01*
X144778564Y-55390696D01*
X144356887Y-54969019D01*
X144350000Y-54965042D01*
X144343112Y-54969019D01*
X143921434Y-55390696D01*
X143918048Y-55396673D01*
X143550500Y-55396673D01*
X143550500Y-55170984D01*
X143700000Y-55170984D01*
X143700533Y-55176403D01*
X143703325Y-55181950D01*
X143709303Y-55178563D01*
X144130980Y-54756887D01*
X144134956Y-54749999D01*
X144565042Y-54749999D01*
X144569019Y-54756887D01*
X144990696Y-55178564D01*
X144996673Y-55181950D01*
X144999466Y-55176401D01*
X145000000Y-55170991D01*
X145000000Y-55170984D01*
X147700000Y-55170984D01*
X147700533Y-55176403D01*
X147703325Y-55181950D01*
X147709303Y-55178563D01*
X148130980Y-54756887D01*
X148134956Y-54749999D01*
X148130980Y-54743112D01*
X147709303Y-54321435D01*
X147703325Y-54318049D01*
X147700532Y-54323597D01*
X147700000Y-54329010D01*
X147700000Y-55170984D01*
X145000000Y-55170984D01*
X145000000Y-54329010D01*
X144999466Y-54323596D01*
X144996673Y-54318048D01*
X144990696Y-54321434D01*
X144569019Y-54743112D01*
X144565042Y-54749999D01*
X144134956Y-54749999D01*
X144130980Y-54743112D01*
X143709303Y-54321435D01*
X143703325Y-54318049D01*
X143700532Y-54323597D01*
X143700000Y-54329010D01*
X143700000Y-55170984D01*
X143550500Y-55170984D01*
X143550500Y-55135180D01*
X143541767Y-55091278D01*
X143508504Y-55041496D01*
X143458722Y-55008233D01*
X143451576Y-55006811D01*
X143451575Y-55006811D01*
X143418389Y-55000210D01*
X143414820Y-54999500D01*
X141985180Y-54999500D01*
X141981611Y-55000209D01*
X141981610Y-55000210D01*
X141948424Y-55006811D01*
X141948421Y-55006811D01*
X141941278Y-55008233D01*
X141935220Y-55012280D01*
X141935219Y-55012281D01*
X141897556Y-55037446D01*
X141897553Y-55037448D01*
X141891496Y-55041496D01*
X141887448Y-55047553D01*
X141887446Y-55047556D01*
X141860409Y-55088021D01*
X141825754Y-55115857D01*
X141781404Y-55118816D01*
X141743359Y-55095831D01*
X141725500Y-55055546D01*
X141725500Y-55052410D01*
X141723900Y-55045405D01*
X141722512Y-55037229D01*
X141720049Y-55015361D01*
X141719116Y-55007076D01*
X141714678Y-55000014D01*
X141713589Y-54996900D01*
X141712146Y-54993904D01*
X141710290Y-54985769D01*
X141705087Y-54979245D01*
X141705087Y-54979244D01*
X141691365Y-54962036D01*
X141686567Y-54955275D01*
X141682749Y-54949199D01*
X141677670Y-54944120D01*
X141672141Y-54937932D01*
X141658423Y-54920730D01*
X141658420Y-54920727D01*
X141653224Y-54914212D01*
X141645714Y-54910595D01*
X141641214Y-54907006D01*
X141635028Y-54901478D01*
X141394683Y-54661133D01*
X141850001Y-54661133D01*
X141850711Y-54668347D01*
X141857281Y-54701377D01*
X141862752Y-54714586D01*
X141887806Y-54752083D01*
X141897916Y-54762193D01*
X141935414Y-54787248D01*
X141948619Y-54792718D01*
X141981655Y-54799289D01*
X141988865Y-54800000D01*
X142540257Y-54800000D01*
X142547940Y-54797940D01*
X142550000Y-54790257D01*
X142550000Y-54790256D01*
X142850000Y-54790256D01*
X142852059Y-54797939D01*
X142859743Y-54799999D01*
X143411133Y-54799999D01*
X143418347Y-54799288D01*
X143451377Y-54792718D01*
X143464586Y-54787247D01*
X143502083Y-54762193D01*
X143512193Y-54752083D01*
X143537248Y-54714585D01*
X143542718Y-54701380D01*
X143549289Y-54668344D01*
X143550000Y-54661135D01*
X143550000Y-54209743D01*
X143547940Y-54202059D01*
X143540257Y-54200000D01*
X142859743Y-54200000D01*
X142852059Y-54202059D01*
X142850000Y-54209743D01*
X142850000Y-54790256D01*
X142550000Y-54790256D01*
X142550000Y-54209743D01*
X142547940Y-54202059D01*
X142540257Y-54200000D01*
X141859744Y-54200000D01*
X141852060Y-54202059D01*
X141850001Y-54209743D01*
X141850001Y-54661133D01*
X141394683Y-54661133D01*
X141372174Y-54638624D01*
X141356133Y-54614617D01*
X141350500Y-54586298D01*
X141350500Y-54103325D01*
X143918049Y-54103325D01*
X143921435Y-54109303D01*
X144343112Y-54530980D01*
X144349999Y-54534956D01*
X144356887Y-54530980D01*
X144778563Y-54109303D01*
X144781950Y-54103325D01*
X147918049Y-54103325D01*
X147921435Y-54109303D01*
X148343112Y-54530980D01*
X148349999Y-54534956D01*
X148356887Y-54530980D01*
X148778563Y-54109303D01*
X148781950Y-54103325D01*
X148776403Y-54100533D01*
X148770984Y-54100000D01*
X147929010Y-54100000D01*
X147923597Y-54100532D01*
X147918049Y-54103325D01*
X144781950Y-54103325D01*
X144776403Y-54100533D01*
X144770984Y-54100000D01*
X143929010Y-54100000D01*
X143923597Y-54100532D01*
X143918049Y-54103325D01*
X141350500Y-54103325D01*
X141350500Y-53890257D01*
X141850000Y-53890257D01*
X141852059Y-53897940D01*
X141859743Y-53900000D01*
X142540257Y-53900000D01*
X142547940Y-53897940D01*
X142550000Y-53890257D01*
X142850000Y-53890257D01*
X142852059Y-53897940D01*
X142859743Y-53900000D01*
X143540256Y-53900000D01*
X143547939Y-53897940D01*
X143549999Y-53890257D01*
X143549999Y-53835380D01*
X149121560Y-53835380D01*
X149121860Y-53842599D01*
X149127915Y-53885683D01*
X149130695Y-53892682D01*
X149138017Y-53894463D01*
X149545892Y-53894463D01*
X149553575Y-53892403D01*
X149555635Y-53884720D01*
X149555635Y-53652039D01*
X149553306Y-53644094D01*
X149545118Y-53642894D01*
X149240041Y-53685771D01*
X149233013Y-53687475D01*
X149201212Y-53698579D01*
X149188890Y-53705837D01*
X149155244Y-53735867D01*
X149146643Y-53747281D01*
X149127049Y-53787904D01*
X149123470Y-53801742D01*
X149121560Y-53835380D01*
X143549999Y-53835380D01*
X143549999Y-53438867D01*
X143549288Y-53431652D01*
X143542718Y-53398622D01*
X143537247Y-53385413D01*
X143512193Y-53347916D01*
X143502083Y-53337806D01*
X143464585Y-53312751D01*
X143451380Y-53307281D01*
X143418344Y-53300710D01*
X143411135Y-53300000D01*
X142859743Y-53300000D01*
X142852059Y-53302059D01*
X142850000Y-53309743D01*
X142850000Y-53890257D01*
X142550000Y-53890257D01*
X142550000Y-53309744D01*
X142547940Y-53302060D01*
X142540257Y-53300001D01*
X141988867Y-53300001D01*
X141981652Y-53300711D01*
X141948622Y-53307281D01*
X141935413Y-53312752D01*
X141897916Y-53337806D01*
X141887806Y-53347916D01*
X141862751Y-53385414D01*
X141857281Y-53398619D01*
X141850710Y-53431655D01*
X141850000Y-53438865D01*
X141850000Y-53890257D01*
X141350500Y-53890257D01*
X141350500Y-53438820D01*
X141350500Y-53435180D01*
X141341767Y-53391278D01*
X141308504Y-53341496D01*
X141258722Y-53308233D01*
X141251576Y-53306811D01*
X141251575Y-53306811D01*
X141218389Y-53300210D01*
X141214820Y-53299500D01*
X139785180Y-53299500D01*
X139781611Y-53300209D01*
X139781610Y-53300210D01*
X139748424Y-53306811D01*
X139748421Y-53306811D01*
X139741278Y-53308233D01*
X139735220Y-53312280D01*
X139735219Y-53312281D01*
X139697556Y-53337446D01*
X139697553Y-53337448D01*
X139691496Y-53341496D01*
X139687448Y-53347553D01*
X139687446Y-53347556D01*
X139662281Y-53385219D01*
X139658233Y-53391278D01*
X139656811Y-53398421D01*
X139656811Y-53398424D01*
X139650210Y-53431610D01*
X139649500Y-53435180D01*
X139649500Y-54664820D01*
X139650210Y-54668389D01*
X139656772Y-54701380D01*
X139658233Y-54708722D01*
X139662281Y-54714780D01*
X139687205Y-54752083D01*
X139691496Y-54758504D01*
X139741278Y-54791767D01*
X139785180Y-54800500D01*
X140936298Y-54800500D01*
X140964617Y-54806133D01*
X140988624Y-54822174D01*
X141040124Y-54873674D01*
X141060376Y-54911563D01*
X141056165Y-54954319D01*
X141028910Y-54987529D01*
X140987798Y-55000000D01*
X140659743Y-55000000D01*
X140652059Y-55002059D01*
X140650000Y-55009743D01*
X140650000Y-56490256D01*
X140652059Y-56497939D01*
X140659743Y-56499999D01*
X141211133Y-56499999D01*
X141218342Y-56499288D01*
X141236063Y-56495764D01*
X141278819Y-56499975D01*
X141312029Y-56527230D01*
X141324500Y-56568342D01*
X141324500Y-56615501D01*
X141314586Y-56652501D01*
X141287500Y-56679587D01*
X141250500Y-56689501D01*
X141216628Y-56689501D01*
X141214502Y-56689747D01*
X141214494Y-56689748D01*
X141197868Y-56691676D01*
X141197863Y-56691677D01*
X141192338Y-56692318D01*
X141187249Y-56694564D01*
X141187245Y-56694566D01*
X141099256Y-56733417D01*
X141099253Y-56733418D01*
X141092984Y-56736187D01*
X141088138Y-56741032D01*
X141088135Y-56741035D01*
X141021035Y-56808135D01*
X141021032Y-56808138D01*
X141016187Y-56812984D01*
X141013418Y-56819253D01*
X141013415Y-56819259D01*
X140987420Y-56878131D01*
X140960124Y-56910240D01*
X140919725Y-56922240D01*
X140879327Y-56910239D01*
X140852031Y-56878130D01*
X140826162Y-56819543D01*
X140818545Y-56808424D01*
X140751575Y-56741454D01*
X140740458Y-56733838D01*
X140652637Y-56695060D01*
X140642016Y-56692171D01*
X140625426Y-56690246D01*
X140621155Y-56690000D01*
X140599743Y-56690000D01*
X140592059Y-56692059D01*
X140590000Y-56699743D01*
X140590000Y-57600257D01*
X140594844Y-57618335D01*
X140606992Y-57641062D01*
X140602782Y-57683817D01*
X140575528Y-57717027D01*
X140534417Y-57729500D01*
X140514524Y-57729500D01*
X140514506Y-57729500D01*
X140512378Y-57729501D01*
X140510252Y-57729747D01*
X140510244Y-57729748D01*
X140494033Y-57731628D01*
X140494029Y-57731628D01*
X140488502Y-57732270D01*
X140483413Y-57734516D01*
X140483409Y-57734518D01*
X140397131Y-57772614D01*
X140397128Y-57772615D01*
X140390859Y-57775384D01*
X140386013Y-57780229D01*
X140386010Y-57780232D01*
X140320232Y-57846010D01*
X140320229Y-57846013D01*
X140315384Y-57850859D01*
X140312615Y-57857128D01*
X140312614Y-57857131D01*
X140274516Y-57943413D01*
X140274514Y-57943419D01*
X140272270Y-57948502D01*
X140271629Y-57954020D01*
X140271628Y-57954027D01*
X140269746Y-57970248D01*
X140269745Y-57970265D01*
X140269500Y-57972377D01*
X140269500Y-57974519D01*
X140269500Y-57974520D01*
X140269500Y-58388871D01*
X140257284Y-58428577D01*
X140272092Y-58449967D01*
X140272270Y-58451498D01*
X140274516Y-58456585D01*
X140274517Y-58456588D01*
X140312614Y-58542868D01*
X140315384Y-58549141D01*
X140390859Y-58624616D01*
X140488502Y-58667730D01*
X140512377Y-58670500D01*
X140867622Y-58670499D01*
X140891498Y-58667730D01*
X140891524Y-58667958D01*
X140925884Y-58667859D01*
X140959196Y-58687048D01*
X141004462Y-58732313D01*
X141046852Y-58774704D01*
X141067104Y-58812591D01*
X141062894Y-58855346D01*
X141035640Y-58888556D01*
X141028614Y-58893251D01*
X140987502Y-58905724D01*
X140946388Y-58893253D01*
X140906547Y-58866632D01*
X140906543Y-58866630D01*
X140900486Y-58862583D01*
X140893337Y-58861161D01*
X140893335Y-58861160D01*
X140838282Y-58850210D01*
X140838279Y-58850209D01*
X140834711Y-58849500D01*
X140831071Y-58849500D01*
X140643931Y-58849500D01*
X140643921Y-58849500D01*
X140640290Y-58849501D01*
X140636724Y-58850210D01*
X140636716Y-58850211D01*
X140581663Y-58861161D01*
X140581662Y-58861161D01*
X140574514Y-58862583D01*
X140568456Y-58866630D01*
X140568453Y-58866632D01*
X140528612Y-58893253D01*
X140487500Y-58905724D01*
X140446388Y-58893253D01*
X140406547Y-58866632D01*
X140406543Y-58866630D01*
X140400486Y-58862583D01*
X140393337Y-58861161D01*
X140393335Y-58861160D01*
X140338282Y-58850210D01*
X140338279Y-58850209D01*
X140334711Y-58849500D01*
X140331071Y-58849500D01*
X140219400Y-58849500D01*
X140191082Y-58843867D01*
X140167074Y-58827826D01*
X140080278Y-58741031D01*
X140059515Y-58700281D01*
X140066669Y-58655112D01*
X140111574Y-58566982D01*
X140128628Y-58459303D01*
X140140510Y-58437393D01*
X140122412Y-58400448D01*
X140111574Y-58332018D01*
X140057573Y-58226035D01*
X139973465Y-58141927D01*
X139867482Y-58087926D01*
X139861728Y-58087014D01*
X139861726Y-58087014D01*
X139755752Y-58070230D01*
X139750000Y-58069319D01*
X139744248Y-58070230D01*
X139638273Y-58087014D01*
X139638269Y-58087015D01*
X139632518Y-58087926D01*
X139627326Y-58090571D01*
X139627324Y-58090572D01*
X139531727Y-58139281D01*
X139531724Y-58139282D01*
X139526535Y-58141927D01*
X139522418Y-58146043D01*
X139522415Y-58146046D01*
X139443884Y-58224577D01*
X139403892Y-58245216D01*
X139359339Y-58238869D01*
X139326702Y-58207883D01*
X139318051Y-58163723D01*
X139320500Y-58142623D01*
X139320499Y-57787378D01*
X139317730Y-57763502D01*
X139280593Y-57679397D01*
X139276524Y-57631459D01*
X139302790Y-57591149D01*
X139348289Y-57575508D01*
X139817740Y-57575508D01*
X139818204Y-57575552D01*
X139820360Y-57576509D01*
X139851180Y-57575543D01*
X139853496Y-57575508D01*
X139864935Y-57575508D01*
X139869798Y-57575508D01*
X139871986Y-57574920D01*
X139872566Y-57574873D01*
X139889027Y-57574359D01*
X139897672Y-57569856D01*
X139912697Y-57564013D01*
X139913022Y-57563926D01*
X139927888Y-57559943D01*
X139934779Y-57553051D01*
X139935320Y-57552739D01*
X139936762Y-57551410D01*
X139942560Y-57546481D01*
X139949962Y-57542628D01*
X139960869Y-57528034D01*
X139967799Y-57520030D01*
X139976536Y-57511295D01*
X140009704Y-57492148D01*
X140048008Y-57492149D01*
X140081180Y-57511301D01*
X140128424Y-57558545D01*
X140139541Y-57566161D01*
X140227362Y-57604939D01*
X140237983Y-57607828D01*
X140254573Y-57609753D01*
X140258845Y-57610000D01*
X140280257Y-57610000D01*
X140287940Y-57607940D01*
X140290000Y-57600257D01*
X140290000Y-56699743D01*
X140287940Y-56692059D01*
X140280257Y-56690000D01*
X140258845Y-56690000D01*
X140254573Y-56690246D01*
X140237983Y-56692171D01*
X140227362Y-56695060D01*
X140139541Y-56733838D01*
X140128424Y-56741454D01*
X140061454Y-56808424D01*
X140053838Y-56819541D01*
X140015060Y-56907362D01*
X140012170Y-56917988D01*
X140011618Y-56922745D01*
X139989985Y-56966987D01*
X139945376Y-56987855D01*
X139897550Y-56976105D01*
X139867690Y-56936943D01*
X139793019Y-56705594D01*
X139757882Y-56596730D01*
X139757957Y-56551041D01*
X139784848Y-56514104D01*
X139828305Y-56500000D01*
X140340257Y-56500000D01*
X140347940Y-56497940D01*
X140350000Y-56490257D01*
X140350000Y-55909743D01*
X140347940Y-55902059D01*
X140340257Y-55900000D01*
X139659744Y-55900000D01*
X139652060Y-55902059D01*
X139650000Y-55909745D01*
X139650000Y-55921967D01*
X139633581Y-55968444D01*
X139591613Y-55994298D01*
X139542718Y-55988057D01*
X139508591Y-55952492D01*
X139344550Y-55590257D01*
X139650000Y-55590257D01*
X139652059Y-55597940D01*
X139659743Y-55600000D01*
X140340257Y-55600000D01*
X140347940Y-55597940D01*
X140350000Y-55590257D01*
X140350000Y-55009744D01*
X140347940Y-55002060D01*
X140340257Y-55000001D01*
X139788867Y-55000001D01*
X139781652Y-55000711D01*
X139748622Y-55007281D01*
X139735413Y-55012752D01*
X139697916Y-55037806D01*
X139687806Y-55047916D01*
X139662751Y-55085414D01*
X139657281Y-55098619D01*
X139650710Y-55131655D01*
X139650000Y-55138865D01*
X139650000Y-55590257D01*
X139344550Y-55590257D01*
X139290982Y-55471967D01*
X139020409Y-54954442D01*
X139019381Y-54952721D01*
X138721576Y-54453927D01*
X138721575Y-54453925D01*
X138721038Y-54453026D01*
X138684773Y-54399417D01*
X138394403Y-53970171D01*
X138393826Y-53969318D01*
X138079011Y-53556287D01*
X138063866Y-53510873D01*
X138079691Y-53465692D01*
X138119863Y-53439652D01*
X138123181Y-53438820D01*
X141445529Y-52605584D01*
X143607499Y-52063368D01*
X143651553Y-52065883D01*
X143686344Y-52093026D01*
X143699500Y-52135145D01*
X143699500Y-52222305D01*
X143685367Y-52265802D01*
X143648365Y-52292684D01*
X143602630Y-52292682D01*
X143597672Y-52291070D01*
X143592482Y-52288426D01*
X143586735Y-52287515D01*
X143586730Y-52287514D01*
X143480752Y-52270730D01*
X143475000Y-52269819D01*
X143469248Y-52270730D01*
X143363273Y-52287514D01*
X143363269Y-52287515D01*
X143357518Y-52288426D01*
X143352326Y-52291071D01*
X143352324Y-52291072D01*
X143256727Y-52339781D01*
X143256724Y-52339782D01*
X143251535Y-52342427D01*
X143247418Y-52346543D01*
X143247415Y-52346546D01*
X143171546Y-52422415D01*
X143171543Y-52422418D01*
X143167427Y-52426535D01*
X143164782Y-52431724D01*
X143164781Y-52431727D01*
X143116072Y-52527324D01*
X143113426Y-52532518D01*
X143112515Y-52538269D01*
X143112514Y-52538273D01*
X143101767Y-52606131D01*
X143094819Y-52650000D01*
X143095730Y-52655752D01*
X143112306Y-52760414D01*
X143113426Y-52767482D01*
X143167427Y-52873465D01*
X143251535Y-52957573D01*
X143357518Y-53011574D01*
X143475000Y-53030181D01*
X143592482Y-53011574D01*
X143610426Y-53002430D01*
X143649823Y-52994593D01*
X143687514Y-53008497D01*
X143712386Y-53040046D01*
X143712612Y-53040591D01*
X143714034Y-53047740D01*
X143769399Y-53130601D01*
X143852260Y-53185966D01*
X143925326Y-53200500D01*
X144771034Y-53200500D01*
X144774674Y-53200500D01*
X144847740Y-53185966D01*
X144930601Y-53130601D01*
X144985966Y-53047740D01*
X145000500Y-52974674D01*
X145000500Y-52824500D01*
X145010414Y-52787500D01*
X145037500Y-52760414D01*
X145074500Y-52750500D01*
X147625500Y-52750500D01*
X147662500Y-52760414D01*
X147689586Y-52787500D01*
X147699500Y-52824500D01*
X147699500Y-52974674D01*
X147700209Y-52978242D01*
X147700210Y-52978244D01*
X147712503Y-53040046D01*
X147714034Y-53047740D01*
X147769399Y-53130601D01*
X147852260Y-53185966D01*
X147925326Y-53200500D01*
X148771034Y-53200500D01*
X148774674Y-53200500D01*
X148847740Y-53185966D01*
X148930601Y-53130601D01*
X148985966Y-53047740D01*
X149000500Y-52974674D01*
X149000500Y-52125326D01*
X148985966Y-52052260D01*
X148930601Y-51969399D01*
X148847740Y-51914034D01*
X148840594Y-51912612D01*
X148840593Y-51912612D01*
X148778244Y-51900210D01*
X148778242Y-51900209D01*
X148774674Y-51899500D01*
X147925326Y-51899500D01*
X147921758Y-51900209D01*
X147921755Y-51900210D01*
X147859406Y-51912612D01*
X147859403Y-51912613D01*
X147852260Y-51914034D01*
X147846202Y-51918081D01*
X147846201Y-51918082D01*
X147775459Y-51965349D01*
X147775456Y-51965351D01*
X147769399Y-51969399D01*
X147765351Y-51975456D01*
X147765349Y-51975459D01*
X147718082Y-52046201D01*
X147714034Y-52052260D01*
X147712613Y-52059403D01*
X147712612Y-52059406D01*
X147700210Y-52121755D01*
X147699500Y-52125326D01*
X147699500Y-52128966D01*
X147699500Y-52275500D01*
X147689586Y-52312500D01*
X147662500Y-52339586D01*
X147625500Y-52349500D01*
X145074500Y-52349500D01*
X145037500Y-52339586D01*
X145010414Y-52312500D01*
X145000500Y-52275500D01*
X145000500Y-52128966D01*
X145000500Y-52125326D01*
X144985966Y-52052260D01*
X144930601Y-51969399D01*
X144847740Y-51914034D01*
X144840596Y-51912613D01*
X144840594Y-51912612D01*
X144811124Y-51906750D01*
X144768943Y-51881819D01*
X144751586Y-51835998D01*
X144766662Y-51789377D01*
X144807559Y-51762396D01*
X145165214Y-51672697D01*
X149216412Y-51672697D01*
X149217346Y-51677250D01*
X149217347Y-51677254D01*
X149248523Y-51829133D01*
X149248524Y-51829138D01*
X149249460Y-51833694D01*
X149251499Y-51837875D01*
X149251501Y-51837880D01*
X149290618Y-51918082D01*
X149321508Y-51981416D01*
X149324523Y-51984959D01*
X149324524Y-51984960D01*
X149365271Y-52032837D01*
X149428029Y-52106578D01*
X149562330Y-52201317D01*
X149715973Y-52259681D01*
X149859008Y-52275724D01*
X149874676Y-52277482D01*
X149874676Y-52277481D01*
X149879304Y-52278001D01*
X150793421Y-52149531D01*
X150912218Y-52117254D01*
X151055124Y-52036073D01*
X151173351Y-51921903D01*
X151259470Y-51781918D01*
X151308071Y-51624913D01*
X151316100Y-51460755D01*
X151283052Y-51299758D01*
X151211004Y-51152036D01*
X151104482Y-51026874D01*
X151084050Y-51012461D01*
X150973986Y-50934819D01*
X150973985Y-50934818D01*
X150970181Y-50932135D01*
X150965830Y-50930482D01*
X150965826Y-50930480D01*
X150820891Y-50875424D01*
X150820886Y-50875423D01*
X150816538Y-50873771D01*
X150811916Y-50873252D01*
X150811910Y-50873251D01*
X150657835Y-50855970D01*
X150653208Y-50855451D01*
X150648605Y-50856097D01*
X150648597Y-50856098D01*
X149741393Y-50983597D01*
X149741385Y-50983598D01*
X149739091Y-50983921D01*
X149736854Y-50984528D01*
X149736843Y-50984531D01*
X149624783Y-51014977D01*
X149624775Y-51014980D01*
X149620293Y-51016198D01*
X149616253Y-51018492D01*
X149616248Y-51018495D01*
X149481432Y-51095081D01*
X149481428Y-51095083D01*
X149477388Y-51097379D01*
X149474045Y-51100607D01*
X149474040Y-51100611D01*
X149362510Y-51208314D01*
X149362506Y-51208318D01*
X149359161Y-51211549D01*
X149356724Y-51215510D01*
X149356721Y-51215514D01*
X149275479Y-51347571D01*
X149275476Y-51347577D01*
X149273042Y-51351534D01*
X149271667Y-51355975D01*
X149271665Y-51355980D01*
X149225816Y-51504091D01*
X149225814Y-51504097D01*
X149224440Y-51508539D01*
X149224213Y-51513178D01*
X149224212Y-51513185D01*
X149216639Y-51668048D01*
X149216412Y-51672697D01*
X145165214Y-51672697D01*
X154580743Y-49311307D01*
X154615334Y-49310969D01*
X154646300Y-49326391D01*
G37*
G04 #@! TD.AperFunction*
G04 #@! TA.AperFunction,Conductor*
G36*
X140350500Y-67922414D02*
G01*
X140377586Y-67949500D01*
X140387500Y-67986500D01*
X140387500Y-68928511D01*
X140389931Y-68936526D01*
X140396114Y-68937135D01*
X140406350Y-68932896D01*
X140445937Y-68906445D01*
X140487049Y-68893974D01*
X140528161Y-68906445D01*
X140568452Y-68933367D01*
X140568453Y-68933367D01*
X140574514Y-68937417D01*
X140640289Y-68950500D01*
X140834710Y-68950499D01*
X140900486Y-68937417D01*
X140946387Y-68906746D01*
X140987496Y-68894275D01*
X141028606Y-68906742D01*
X141035453Y-68911317D01*
X141050183Y-68928347D01*
X141052210Y-68926731D01*
X141071134Y-68950461D01*
X141075932Y-68957223D01*
X141079752Y-68963301D01*
X141082691Y-68966240D01*
X141084824Y-68968373D01*
X141090353Y-68974560D01*
X141109276Y-68998288D01*
X141116788Y-69001905D01*
X141121283Y-69005490D01*
X141127471Y-69011020D01*
X141439624Y-69323174D01*
X141459876Y-69361063D01*
X141455665Y-69403819D01*
X141428410Y-69437029D01*
X141387298Y-69449500D01*
X140457281Y-69449500D01*
X140457263Y-69449500D01*
X140455136Y-69449501D01*
X140453010Y-69449747D01*
X140453002Y-69449748D01*
X140435539Y-69451773D01*
X140435534Y-69451774D01*
X140430009Y-69452415D01*
X140424920Y-69454661D01*
X140424916Y-69454663D01*
X140333507Y-69495024D01*
X140333504Y-69495025D01*
X140327235Y-69497794D01*
X140322389Y-69502639D01*
X140322386Y-69502642D01*
X140252642Y-69572386D01*
X140252639Y-69572389D01*
X140247794Y-69577235D01*
X140245025Y-69583504D01*
X140245024Y-69583507D01*
X140213285Y-69655390D01*
X140185989Y-69687500D01*
X140145590Y-69699500D01*
X140134500Y-69699500D01*
X140097500Y-69689586D01*
X140070414Y-69662500D01*
X140060500Y-69625500D01*
X140060499Y-69468773D01*
X140060499Y-69466628D01*
X140057682Y-69442338D01*
X140013813Y-69342984D01*
X139959674Y-69288845D01*
X139943633Y-69264838D01*
X139938000Y-69236519D01*
X139938000Y-68984043D01*
X139948528Y-68945999D01*
X139977117Y-68918781D01*
X140015632Y-68910132D01*
X140053113Y-68922515D01*
X140068648Y-68932895D01*
X140078885Y-68937135D01*
X140085068Y-68936526D01*
X140087500Y-68928511D01*
X140087500Y-67986500D01*
X140097414Y-67949500D01*
X140124500Y-67922414D01*
X140161500Y-67912500D01*
X140313500Y-67912500D01*
X140350500Y-67922414D01*
G37*
G04 #@! TD.AperFunction*
G04 #@! TA.AperFunction,Conductor*
G36*
X147678410Y-66872971D02*
G01*
X147705665Y-66906182D01*
X147709876Y-66948937D01*
X147689623Y-66986826D01*
X147634691Y-67041757D01*
X147628507Y-67047285D01*
X147624006Y-67050873D01*
X147616497Y-67054491D01*
X147597573Y-67078220D01*
X147592050Y-67084400D01*
X147589905Y-67086544D01*
X147589898Y-67086552D01*
X147586973Y-67089478D01*
X147584769Y-67092983D01*
X147582275Y-67096112D01*
X147545263Y-67120446D01*
X147543223Y-67120683D01*
X147538142Y-67122926D01*
X147538136Y-67122928D01*
X147451852Y-67161027D01*
X147451849Y-67161028D01*
X147445580Y-67163797D01*
X147440734Y-67168642D01*
X147440731Y-67168645D01*
X147374953Y-67234423D01*
X147374950Y-67234426D01*
X147370105Y-67239272D01*
X147367336Y-67245541D01*
X147367335Y-67245544D01*
X147329237Y-67331826D01*
X147329235Y-67331832D01*
X147326991Y-67336915D01*
X147326350Y-67342433D01*
X147326349Y-67342440D01*
X147324467Y-67358661D01*
X147324466Y-67358678D01*
X147324221Y-67360790D01*
X147324221Y-67362932D01*
X147324221Y-67362933D01*
X147324221Y-67813889D01*
X147324221Y-67813906D01*
X147324222Y-67816035D01*
X147324468Y-67818161D01*
X147324469Y-67818168D01*
X147326111Y-67832331D01*
X147326991Y-67839911D01*
X147329238Y-67844999D01*
X147329239Y-67845003D01*
X147355562Y-67904617D01*
X147370105Y-67937554D01*
X147374953Y-67942402D01*
X147435288Y-68002737D01*
X147455926Y-68042722D01*
X147449585Y-68087270D01*
X147418611Y-68119910D01*
X147377458Y-68127982D01*
X147377412Y-68128792D01*
X147375283Y-68128668D01*
X147373155Y-68128422D01*
X147371012Y-68128422D01*
X147087120Y-68128422D01*
X147046008Y-68115951D01*
X147018753Y-68082740D01*
X147014542Y-68039985D01*
X147034795Y-68002096D01*
X147094486Y-67942405D01*
X147094486Y-67942404D01*
X147099337Y-67937554D01*
X147142451Y-67839911D01*
X147145221Y-67816036D01*
X147145220Y-67360791D01*
X147142451Y-67336915D01*
X147099337Y-67239272D01*
X147023862Y-67163797D01*
X147017589Y-67161027D01*
X146931307Y-67122929D01*
X146931303Y-67122928D01*
X146926219Y-67120683D01*
X146920698Y-67120042D01*
X146920693Y-67120041D01*
X146904472Y-67118159D01*
X146904456Y-67118158D01*
X146902344Y-67117913D01*
X146900200Y-67117913D01*
X146549244Y-67117913D01*
X146549226Y-67117913D01*
X146547099Y-67117914D01*
X146544973Y-67118160D01*
X146544965Y-67118161D01*
X146528754Y-67120041D01*
X146528750Y-67120041D01*
X146523223Y-67120683D01*
X146518134Y-67122929D01*
X146518130Y-67122931D01*
X146431852Y-67161027D01*
X146431849Y-67161028D01*
X146425580Y-67163797D01*
X146420734Y-67168642D01*
X146420731Y-67168645D01*
X146354953Y-67234423D01*
X146354950Y-67234426D01*
X146350105Y-67239272D01*
X146347336Y-67245541D01*
X146347335Y-67245544D01*
X146309237Y-67331826D01*
X146309235Y-67331832D01*
X146306991Y-67336915D01*
X146306350Y-67342433D01*
X146306349Y-67342440D01*
X146304467Y-67358661D01*
X146304466Y-67358678D01*
X146304221Y-67360790D01*
X146304221Y-67362932D01*
X146304221Y-67362933D01*
X146304221Y-67813889D01*
X146304221Y-67813906D01*
X146304222Y-67816035D01*
X146304468Y-67818161D01*
X146304469Y-67818168D01*
X146306111Y-67832331D01*
X146306991Y-67839911D01*
X146309238Y-67844999D01*
X146309239Y-67845003D01*
X146335562Y-67904617D01*
X146350105Y-67937554D01*
X146354953Y-67942402D01*
X146415862Y-68003311D01*
X146436499Y-68043295D01*
X146430161Y-68087842D01*
X146399190Y-68120482D01*
X146357379Y-68128687D01*
X146357345Y-68129292D01*
X146350945Y-68128922D01*
X146335275Y-68128922D01*
X146327591Y-68130981D01*
X146325532Y-68138665D01*
X146325532Y-69059179D01*
X146327591Y-69066862D01*
X146335275Y-69068922D01*
X146350945Y-69068922D01*
X146355216Y-69068675D01*
X146371387Y-69066799D01*
X146382001Y-69063911D01*
X146420331Y-69046987D01*
X146468271Y-69042917D01*
X146508581Y-69069183D01*
X146524221Y-69114682D01*
X146524221Y-69521577D01*
X146518587Y-69549898D01*
X146502543Y-69573907D01*
X146496035Y-69580414D01*
X146460984Y-69600040D01*
X146420843Y-69598461D01*
X146387442Y-69576142D01*
X146370624Y-69539660D01*
X146361574Y-69482518D01*
X146307573Y-69376535D01*
X146223465Y-69292427D01*
X146117482Y-69238426D01*
X146111728Y-69237514D01*
X146111726Y-69237514D01*
X146005752Y-69220730D01*
X146000000Y-69219819D01*
X145994248Y-69220730D01*
X145994245Y-69220730D01*
X145953818Y-69227132D01*
X145919376Y-69224421D01*
X145889918Y-69206369D01*
X145852169Y-69168620D01*
X145830811Y-69123122D01*
X145843445Y-69074474D01*
X145884245Y-69045119D01*
X145934386Y-69048600D01*
X145969059Y-69063910D01*
X145979676Y-69066799D01*
X145995847Y-69068675D01*
X146000119Y-69068922D01*
X146015789Y-69068922D01*
X146023472Y-69066862D01*
X146025532Y-69059179D01*
X146025532Y-68758665D01*
X146023472Y-68750981D01*
X146015789Y-68748922D01*
X145765275Y-68748922D01*
X145757591Y-68750981D01*
X145755532Y-68758665D01*
X145755532Y-68824335D01*
X145755778Y-68828606D01*
X145757654Y-68844777D01*
X145760542Y-68855391D01*
X145775854Y-68890068D01*
X145779334Y-68940209D01*
X145749979Y-68981008D01*
X145701331Y-68993642D01*
X145655833Y-68972284D01*
X145648520Y-68964971D01*
X145642990Y-68958783D01*
X145639405Y-68954288D01*
X145635788Y-68946776D01*
X145612060Y-68927853D01*
X145605873Y-68922324D01*
X145603740Y-68920191D01*
X145603739Y-68920190D01*
X145600801Y-68917252D01*
X145594723Y-68913432D01*
X145587961Y-68908634D01*
X145570748Y-68894907D01*
X145570747Y-68894906D01*
X145564231Y-68889710D01*
X145562496Y-68889314D01*
X145531600Y-68858846D01*
X145525237Y-68811374D01*
X145538000Y-68747211D01*
X145538000Y-68439179D01*
X145755532Y-68439179D01*
X145757591Y-68446862D01*
X145765275Y-68448922D01*
X146015789Y-68448922D01*
X146023472Y-68446862D01*
X146025532Y-68439179D01*
X146025532Y-68138665D01*
X146023472Y-68130981D01*
X146015789Y-68128922D01*
X146000119Y-68128922D01*
X145995847Y-68129168D01*
X145979676Y-68131044D01*
X145969062Y-68133932D01*
X145882950Y-68171955D01*
X145871829Y-68179573D01*
X145806183Y-68245219D01*
X145798565Y-68256340D01*
X145760542Y-68342452D01*
X145757654Y-68353066D01*
X145755778Y-68369237D01*
X145755532Y-68373509D01*
X145755532Y-68439179D01*
X145538000Y-68439179D01*
X145537999Y-67573999D01*
X145547913Y-67537000D01*
X145574999Y-67509914D01*
X145611999Y-67500000D01*
X145990257Y-67500000D01*
X146000000Y-67500000D01*
X146000000Y-67024499D01*
X146009914Y-66987500D01*
X146037000Y-66960414D01*
X146074000Y-66950500D01*
X147272101Y-66950499D01*
X147334710Y-66950499D01*
X147400486Y-66937417D01*
X147475077Y-66887577D01*
X147478863Y-66881910D01*
X147502476Y-66866133D01*
X147530795Y-66860500D01*
X147637298Y-66860500D01*
X147678410Y-66872971D01*
G37*
G04 #@! TD.AperFunction*
G04 #@! TA.AperFunction,Conductor*
G36*
X137908000Y-59684914D02*
G01*
X137935086Y-59712000D01*
X137945000Y-59749000D01*
X137945000Y-60275257D01*
X137947261Y-60283695D01*
X137953309Y-60289743D01*
X137974071Y-60330487D01*
X137967549Y-60371687D01*
X137967870Y-60371792D01*
X137967213Y-60373812D01*
X137966922Y-60375654D01*
X137966074Y-60377318D01*
X137966071Y-60377326D01*
X137963426Y-60382518D01*
X137962515Y-60388269D01*
X137962514Y-60388273D01*
X137951915Y-60455194D01*
X137944819Y-60500000D01*
X137945730Y-60505752D01*
X137961140Y-60603053D01*
X137963426Y-60617482D01*
X137966072Y-60622675D01*
X138014781Y-60718273D01*
X138014782Y-60718275D01*
X138017427Y-60723465D01*
X138021544Y-60727582D01*
X138024759Y-60732007D01*
X138038662Y-60769697D01*
X138030824Y-60809098D01*
X138003554Y-60838597D01*
X137964890Y-60849501D01*
X137640290Y-60849501D01*
X137636724Y-60850210D01*
X137636716Y-60850211D01*
X137581663Y-60861161D01*
X137581662Y-60861161D01*
X137574514Y-60862583D01*
X137568454Y-60866631D01*
X137568454Y-60866632D01*
X137505983Y-60908373D01*
X137505980Y-60908375D01*
X137499923Y-60912423D01*
X137495875Y-60918480D01*
X137495873Y-60918483D01*
X137454132Y-60980952D01*
X137454129Y-60980957D01*
X137450083Y-60987014D01*
X137448661Y-60994160D01*
X137448660Y-60994164D01*
X137437710Y-61049217D01*
X137437000Y-61052789D01*
X137437000Y-61056427D01*
X137437000Y-61056428D01*
X137437000Y-61243568D01*
X137437000Y-61243577D01*
X137437001Y-61247210D01*
X137437710Y-61250776D01*
X137437711Y-61250783D01*
X137444783Y-61286338D01*
X137450083Y-61312986D01*
X137463383Y-61332891D01*
X137481054Y-61359338D01*
X137493525Y-61400449D01*
X137481055Y-61441561D01*
X137454602Y-61481151D01*
X137449133Y-61494355D01*
X137438208Y-61549276D01*
X137437840Y-61553017D01*
X137421088Y-61593079D01*
X137384747Y-61616845D01*
X137341831Y-61616142D01*
X137337482Y-61613926D01*
X137331731Y-61613015D01*
X137225752Y-61596230D01*
X137220000Y-61595319D01*
X137214248Y-61596230D01*
X137108273Y-61613014D01*
X137108269Y-61613015D01*
X137102518Y-61613926D01*
X137097326Y-61616571D01*
X137097324Y-61616572D01*
X137001727Y-61665281D01*
X137001724Y-61665282D01*
X136996535Y-61667927D01*
X136992418Y-61672043D01*
X136992415Y-61672046D01*
X136916546Y-61747915D01*
X136916543Y-61747918D01*
X136912427Y-61752035D01*
X136909782Y-61757224D01*
X136909781Y-61757227D01*
X136861072Y-61852824D01*
X136858426Y-61858018D01*
X136857515Y-61863769D01*
X136857514Y-61863773D01*
X136842025Y-61961574D01*
X136839819Y-61975500D01*
X136840730Y-61981252D01*
X136855307Y-62073293D01*
X136858426Y-62092982D01*
X136912427Y-62198965D01*
X136996535Y-62283073D01*
X137102518Y-62337074D01*
X137220000Y-62355681D01*
X137337482Y-62337074D01*
X137374902Y-62318007D01*
X137409463Y-62309948D01*
X137443804Y-62318909D01*
X137470024Y-62342830D01*
X137480753Y-62358887D01*
X137493224Y-62399998D01*
X137480754Y-62441110D01*
X137454132Y-62480953D01*
X137454132Y-62480954D01*
X137450083Y-62487014D01*
X137448661Y-62494160D01*
X137448660Y-62494164D01*
X137437710Y-62549217D01*
X137437000Y-62552789D01*
X137437000Y-62556427D01*
X137437000Y-62556428D01*
X137437000Y-62743568D01*
X137437000Y-62743577D01*
X137437001Y-62747210D01*
X137437710Y-62750776D01*
X137437711Y-62750783D01*
X137443473Y-62779751D01*
X137450083Y-62812986D01*
X137454131Y-62819045D01*
X137454132Y-62819046D01*
X137480753Y-62858888D01*
X137493224Y-62900000D01*
X137480753Y-62941112D01*
X137470773Y-62956049D01*
X137450083Y-62987014D01*
X137448950Y-62992706D01*
X137418179Y-63027796D01*
X137371519Y-63037077D01*
X137344884Y-63023942D01*
X137343215Y-63026834D01*
X137334779Y-63021963D01*
X137327889Y-63015073D01*
X137249984Y-62994199D01*
X137239577Y-62996987D01*
X137220427Y-62999508D01*
X132699499Y-62999508D01*
X132662499Y-62989594D01*
X132635413Y-62962508D01*
X132625499Y-62925508D01*
X132625499Y-61612597D01*
X133500055Y-61612597D01*
X133500966Y-61618349D01*
X133517153Y-61720556D01*
X133518662Y-61730079D01*
X133521308Y-61735272D01*
X133566244Y-61823465D01*
X133572663Y-61836062D01*
X133576782Y-61840181D01*
X133606572Y-61869971D01*
X133624624Y-61899429D01*
X133627335Y-61933871D01*
X133614617Y-61964577D01*
X133611885Y-61967310D01*
X133609240Y-61972499D01*
X133609239Y-61972502D01*
X133562003Y-62065209D01*
X133557884Y-62073293D01*
X133556973Y-62079044D01*
X133556972Y-62079048D01*
X133542379Y-62171189D01*
X133539277Y-62190775D01*
X133540188Y-62196527D01*
X133555551Y-62293530D01*
X133557884Y-62308257D01*
X133611885Y-62414240D01*
X133695993Y-62498348D01*
X133801976Y-62552349D01*
X133919458Y-62570956D01*
X134036940Y-62552349D01*
X134142923Y-62498348D01*
X134227031Y-62414240D01*
X134281032Y-62308257D01*
X134299639Y-62190775D01*
X134284592Y-62095773D01*
X134291746Y-62050604D01*
X134324086Y-62018264D01*
X134369255Y-62011110D01*
X134429034Y-62020578D01*
X134434785Y-62019667D01*
X134434787Y-62019667D01*
X134439337Y-62018945D01*
X134443080Y-62018353D01*
X134477523Y-62021061D01*
X134506982Y-62039112D01*
X134522978Y-62065209D01*
X134522986Y-62065206D01*
X134576987Y-62171189D01*
X134661095Y-62255297D01*
X134767078Y-62309298D01*
X134884560Y-62327905D01*
X135002042Y-62309298D01*
X135108025Y-62255297D01*
X135192133Y-62171189D01*
X135246134Y-62065206D01*
X135264741Y-61947724D01*
X135254930Y-61885780D01*
X135405318Y-61885780D01*
X135406229Y-61891532D01*
X135421351Y-61987014D01*
X135423925Y-62003262D01*
X135477926Y-62109245D01*
X135562034Y-62193353D01*
X135668017Y-62247354D01*
X135785499Y-62265961D01*
X135902981Y-62247354D01*
X136008964Y-62193353D01*
X136093072Y-62109245D01*
X136147073Y-62003262D01*
X136165680Y-61885780D01*
X136147073Y-61768298D01*
X136093072Y-61662315D01*
X136008964Y-61578207D01*
X135902981Y-61524206D01*
X135897227Y-61523294D01*
X135897225Y-61523294D01*
X135791251Y-61506510D01*
X135785499Y-61505599D01*
X135779747Y-61506510D01*
X135673772Y-61523294D01*
X135673768Y-61523295D01*
X135668017Y-61524206D01*
X135662825Y-61526851D01*
X135662823Y-61526852D01*
X135567226Y-61575561D01*
X135567223Y-61575562D01*
X135562034Y-61578207D01*
X135557917Y-61582323D01*
X135557914Y-61582326D01*
X135482045Y-61658195D01*
X135482042Y-61658198D01*
X135477926Y-61662315D01*
X135475281Y-61667504D01*
X135475280Y-61667507D01*
X135426571Y-61763104D01*
X135423925Y-61768298D01*
X135423014Y-61774049D01*
X135423013Y-61774053D01*
X135408275Y-61867108D01*
X135405318Y-61885780D01*
X135254930Y-61885780D01*
X135246134Y-61830242D01*
X135192133Y-61724259D01*
X135108025Y-61640151D01*
X135099181Y-61635645D01*
X135007235Y-61588796D01*
X135002042Y-61586150D01*
X134996288Y-61585238D01*
X134996286Y-61585238D01*
X134890312Y-61568454D01*
X134884560Y-61567543D01*
X134878808Y-61568454D01*
X134878805Y-61568454D01*
X134870507Y-61569768D01*
X134836064Y-61567057D01*
X134806606Y-61549004D01*
X134790616Y-61522910D01*
X134790608Y-61522915D01*
X134736607Y-61416932D01*
X134652499Y-61332824D01*
X134546516Y-61278823D01*
X134540762Y-61277911D01*
X134540760Y-61277911D01*
X134434786Y-61261127D01*
X134429034Y-61260216D01*
X134423282Y-61261127D01*
X134317307Y-61277911D01*
X134317303Y-61277912D01*
X134311552Y-61278823D01*
X134306360Y-61281468D01*
X134306358Y-61281469D01*
X134205569Y-61332824D01*
X134204877Y-61331466D01*
X134182505Y-61340721D01*
X134148076Y-61338002D01*
X134118631Y-61319954D01*
X134107820Y-61309143D01*
X134107819Y-61309142D01*
X134103701Y-61305024D01*
X133997718Y-61251023D01*
X133991964Y-61250111D01*
X133991962Y-61250111D01*
X133885988Y-61233327D01*
X133880236Y-61232416D01*
X133874484Y-61233327D01*
X133768509Y-61250111D01*
X133768505Y-61250112D01*
X133762754Y-61251023D01*
X133757562Y-61253668D01*
X133757560Y-61253669D01*
X133661963Y-61302378D01*
X133661960Y-61302379D01*
X133656771Y-61305024D01*
X133652654Y-61309140D01*
X133652651Y-61309143D01*
X133576782Y-61385012D01*
X133576779Y-61385015D01*
X133572663Y-61389132D01*
X133570018Y-61394321D01*
X133570017Y-61394324D01*
X133522148Y-61488273D01*
X133518662Y-61495115D01*
X133517751Y-61500866D01*
X133517750Y-61500870D01*
X133502647Y-61596230D01*
X133500055Y-61612597D01*
X132625499Y-61612597D01*
X132625499Y-61360110D01*
X132636403Y-61321446D01*
X132665902Y-61294176D01*
X132705303Y-61286338D01*
X132742993Y-61300241D01*
X132747417Y-61303455D01*
X132751535Y-61307573D01*
X132857518Y-61361574D01*
X132975000Y-61380181D01*
X133092482Y-61361574D01*
X133198465Y-61307573D01*
X133282573Y-61223465D01*
X133336574Y-61117482D01*
X133355181Y-61000000D01*
X133336574Y-60882518D01*
X133282573Y-60776535D01*
X133257872Y-60751833D01*
X133237620Y-60713945D01*
X133241831Y-60671189D01*
X133269086Y-60637979D01*
X133310198Y-60625508D01*
X137220428Y-60625508D01*
X137239578Y-60628028D01*
X137249985Y-60630817D01*
X137260391Y-60628029D01*
X137269833Y-60625499D01*
X137327889Y-60609943D01*
X137384920Y-60552913D01*
X137405794Y-60475008D01*
X137403005Y-60464601D01*
X137400485Y-60445451D01*
X137400485Y-60313199D01*
X137416126Y-60267700D01*
X137456436Y-60241434D01*
X137504375Y-60245504D01*
X137582360Y-60279938D01*
X137592983Y-60282828D01*
X137609573Y-60284753D01*
X137613845Y-60285000D01*
X137635257Y-60285000D01*
X137642940Y-60282940D01*
X137645000Y-60275257D01*
X137645000Y-59749000D01*
X137654914Y-59712000D01*
X137682000Y-59684914D01*
X137719000Y-59675000D01*
X137871000Y-59675000D01*
X137908000Y-59684914D01*
G37*
G04 #@! TD.AperFunction*
G04 #@! TA.AperFunction,Conductor*
G36*
X143340671Y-58489759D02*
G01*
X143367968Y-58521868D01*
X143393838Y-58580458D01*
X143401454Y-58591575D01*
X143435213Y-58625334D01*
X143455976Y-58666084D01*
X143448822Y-58711254D01*
X143410265Y-58786927D01*
X143409354Y-58792676D01*
X143409353Y-58792681D01*
X143403919Y-58826989D01*
X143395039Y-58852197D01*
X143392408Y-58855308D01*
X143387500Y-58871489D01*
X143387500Y-59813500D01*
X143377586Y-59850500D01*
X143350500Y-59877586D01*
X143313500Y-59887500D01*
X143161500Y-59887500D01*
X143124500Y-59877586D01*
X143097414Y-59850500D01*
X143087500Y-59813500D01*
X143087500Y-58871489D01*
X143085068Y-58863473D01*
X143078885Y-58862864D01*
X143068648Y-58867104D01*
X143053113Y-58877485D01*
X143015632Y-58889868D01*
X142977117Y-58881219D01*
X142948528Y-58854001D01*
X142938000Y-58815957D01*
X142938000Y-58783994D01*
X142946538Y-58749487D01*
X142970182Y-58722943D01*
X143003475Y-58710487D01*
X143027662Y-58707682D01*
X143127016Y-58663813D01*
X143203813Y-58587016D01*
X143232578Y-58521868D01*
X143259874Y-58489760D01*
X143300273Y-58477759D01*
X143340671Y-58489759D01*
G37*
G04 #@! TD.AperFunction*
M02*
