<?xml version="1.0" standalone="no"?>
 <!DOCTYPE svg PUBLIC "-//W3C//DTD SVG 1.1//EN" 
 "http://www.w3.org/Graphics/SVG/1.1/DTD/svg11.dtd"> 
<svg
  xmlns:svg="http://www.w3.org/2000/svg"
  xmlns="http://www.w3.org/2000/svg"
  xmlns:xlink="http://www.w3.org/1999/xlink"
  version="1.1"
  width="297.0022mm" height="210.0072mm" viewBox="0.0000 0.0000 297.0022 210.0072">
<title>SVG Image created as TopPCB-F_Paste.svg date 2023/05/05 12:08:02 </title>
  <desc>Image generated by PCBNEW </desc>
<g style="fill:#000000; fill-opacity:1.0000;stroke:#000000; stroke-opacity:1.0000;
stroke-linecap:round; stroke-linejoin:round;"
 transform="translate(0 0) scale(1 1)">
</g>
<g style="fill:#000000; fill-opacity:0.0; 
stroke:#000000; stroke-width:0.0000; stroke-opacity:1; 
stroke-linecap:round; stroke-linejoin:round;">
</g>
<g style="fill:#000000; fill-opacity:0.0; 
stroke:#000000; stroke-width:0.0212; stroke-opacity:1; 
stroke-linecap:round; stroke-linejoin:round;">
</g>
<g style="fill:#000000; fill-opacity:0.0; 
stroke:#000000; stroke-width:0.1500; stroke-opacity:1; 
stroke-linecap:round; stroke-linejoin:round;">
<path d="M177.0022 166.0072
L285.0022 166.0072
L285.0022 198.0072
L177.0022 198.0072
L177.0022 166.0072
" />
</g>
<g style="fill:#000000; fill-opacity:0.0; 
stroke:#000000; stroke-width:0.0212; stroke-opacity:1; 
stroke-linecap:round; stroke-linejoin:round;">
</g>
<g style="fill:#000000; fill-opacity:0.0; 
stroke:#000000; stroke-width:0.1500; stroke-opacity:1; 
stroke-linecap:round; stroke-linejoin:round;">
<path d="M10.0000 10.0000
L287.0022 10.0000
L287.0022 200.0072
L10.0000 200.0072
L10.0000 10.0000
" />
</g>
<g style="fill:#000000; fill-opacity:0.0; 
stroke:#000000; stroke-width:0.0212; stroke-opacity:1; 
stroke-linecap:round; stroke-linejoin:round;">
</g>
<g style="fill:#000000; fill-opacity:0.0; 
stroke:#000000; stroke-width:0.1500; stroke-opacity:1; 
stroke-linecap:round; stroke-linejoin:round;">
<path d="M12.0000 12.0000
L285.0022 12.0000
L285.0022 198.0072
L12.0000 198.0072
L12.0000 12.0000
" />
</g>
<g style="fill:#000000; fill-opacity:0.0; 
stroke:#000000; stroke-width:0.0212; stroke-opacity:1; 
stroke-linecap:round; stroke-linejoin:round;">
</g>
<g style="fill:#000000; fill-opacity:0.0; 
stroke:#000000; stroke-width:0.1500; stroke-opacity:1; 
stroke-linecap:round; stroke-linejoin:round;">
<path d="M60.0000 12.0000
L60.0000 10.0000
" />
</g>
<g style="fill:#000000; fill-opacity:0.0; 
stroke:#000000; stroke-width:0.0212; stroke-opacity:1; 
stroke-linecap:round; stroke-linejoin:round;">
</g>
<g style="fill:#000000; fill-opacity:0.0; 
stroke:#000000; stroke-width:0.1500; stroke-opacity:1; 
stroke-linecap:round; stroke-linejoin:round;">
<path d="M110.0000 12.0000
L110.0000 10.0000
" />
</g>
<g style="fill:#000000; fill-opacity:0.0; 
stroke:#000000; stroke-width:0.0212; stroke-opacity:1; 
stroke-linecap:round; stroke-linejoin:round;">
</g>
<g style="fill:#000000; fill-opacity:0.0; 
stroke:#000000; stroke-width:0.1500; stroke-opacity:1; 
stroke-linecap:round; stroke-linejoin:round;">
<path d="M160.0000 12.0000
L160.0000 10.0000
" />
</g>
<g style="fill:#000000; fill-opacity:0.0; 
stroke:#000000; stroke-width:0.0212; stroke-opacity:1; 
stroke-linecap:round; stroke-linejoin:round;">
</g>
<g style="fill:#000000; fill-opacity:0.0; 
stroke:#000000; stroke-width:0.1500; stroke-opacity:1; 
stroke-linecap:round; stroke-linejoin:round;">
<path d="M210.0000 12.0000
L210.0000 10.0000
" />
</g>
<g style="fill:#000000; fill-opacity:0.0; 
stroke:#000000; stroke-width:0.0212; stroke-opacity:1; 
stroke-linecap:round; stroke-linejoin:round;">
</g>
<g style="fill:#000000; fill-opacity:0.0; 
stroke:#000000; stroke-width:0.1500; stroke-opacity:1; 
stroke-linecap:round; stroke-linejoin:round;">
<path d="M260.0000 12.0000
L260.0000 10.0000
" />
</g>
<g style="fill:#000000; fill-opacity:0.0; 
stroke:#000000; stroke-width:0.0212; stroke-opacity:1; 
stroke-linecap:round; stroke-linejoin:round;">
</g>
<g style="fill:#000000; fill-opacity:0.0; 
stroke:#000000; stroke-width:0.1500; stroke-opacity:1; 
stroke-linecap:round; stroke-linejoin:round;">
<text x="35.0000" y="11.6500"
textLength="1.3531" font-size="1.7333" lengthAdjust="spacingAndGlyphs"
text-anchor="start" opacity="0">1</text>
<g class="stroked-text"><desc>1</desc>
<path d="M35.9905 11.4776
L35.2476 11.4776
" />
<path d="M35.6190 11.4776
L35.6190 10.1776
" />
<path d="M35.6190 10.1776
L35.4952 10.3633
" />
<path d="M35.4952 10.3633
L35.3714 10.4871
" />
<path d="M35.3714 10.4871
L35.2476 10.5490
" />
</g></g>
<g style="fill:#000000; fill-opacity:0.0; 
stroke:#000000; stroke-width:0.0212; stroke-opacity:1; 
stroke-linecap:round; stroke-linejoin:round;">
</g>
<g style="fill:#000000; fill-opacity:0.0; 
stroke:#000000; stroke-width:0.1500; stroke-opacity:1; 
stroke-linecap:round; stroke-linejoin:round;">
<text x="85.0000" y="11.6500"
textLength="1.3531" font-size="1.7333" lengthAdjust="spacingAndGlyphs"
text-anchor="start" opacity="0">2</text>
<g class="stroked-text"><desc>2</desc>
<path d="M85.2476 10.3014
L85.3095 10.2395
" />
<path d="M85.3095 10.2395
L85.4333 10.1776
" />
<path d="M85.4333 10.1776
L85.7429 10.1776
" />
<path d="M85.7429 10.1776
L85.8667 10.2395
" />
<path d="M85.8667 10.2395
L85.9286 10.3014
" />
<path d="M85.9286 10.3014
L85.9905 10.4252
" />
<path d="M85.9905 10.4252
L85.9905 10.5490
" />
<path d="M85.9905 10.5490
L85.9286 10.7347
" />
<path d="M85.9286 10.7347
L85.1857 11.4776
" />
<path d="M85.1857 11.4776
L85.9905 11.4776
" />
</g></g>
<g style="fill:#000000; fill-opacity:0.0; 
stroke:#000000; stroke-width:0.0212; stroke-opacity:1; 
stroke-linecap:round; stroke-linejoin:round;">
</g>
<g style="fill:#000000; fill-opacity:0.0; 
stroke:#000000; stroke-width:0.1500; stroke-opacity:1; 
stroke-linecap:round; stroke-linejoin:round;">
<text x="135.0000" y="11.6500"
textLength="1.3531" font-size="1.7333" lengthAdjust="spacingAndGlyphs"
text-anchor="start" opacity="0">3</text>
<g class="stroked-text"><desc>3</desc>
<path d="M135.1857 10.1776
L135.9905 10.1776
" />
<path d="M135.9905 10.1776
L135.5571 10.6728
" />
<path d="M135.5571 10.6728
L135.7429 10.6728
" />
<path d="M135.7429 10.6728
L135.8667 10.7347
" />
<path d="M135.8667 10.7347
L135.9286 10.7966
" />
<path d="M135.9286 10.7966
L135.9905 10.9205
" />
<path d="M135.9905 10.9205
L135.9905 11.2300
" />
<path d="M135.9905 11.2300
L135.9286 11.3538
" />
<path d="M135.9286 11.3538
L135.8667 11.4157
" />
<path d="M135.8667 11.4157
L135.7429 11.4776
" />
<path d="M135.7429 11.4776
L135.3714 11.4776
" />
<path d="M135.3714 11.4776
L135.2476 11.4157
" />
<path d="M135.2476 11.4157
L135.1857 11.3538
" />
</g></g>
<g style="fill:#000000; fill-opacity:0.0; 
stroke:#000000; stroke-width:0.0212; stroke-opacity:1; 
stroke-linecap:round; stroke-linejoin:round;">
</g>
<g style="fill:#000000; fill-opacity:0.0; 
stroke:#000000; stroke-width:0.1500; stroke-opacity:1; 
stroke-linecap:round; stroke-linejoin:round;">
<text x="185.0000" y="11.6500"
textLength="1.3531" font-size="1.7333" lengthAdjust="spacingAndGlyphs"
text-anchor="start" opacity="0">4</text>
<g class="stroked-text"><desc>4</desc>
<path d="M185.8667 10.6109
L185.8667 11.4776
" />
<path d="M185.5571 10.1157
L185.2476 11.0443
" />
<path d="M185.2476 11.0443
L186.0524 11.0443
" />
</g></g>
<g style="fill:#000000; fill-opacity:0.0; 
stroke:#000000; stroke-width:0.0212; stroke-opacity:1; 
stroke-linecap:round; stroke-linejoin:round;">
</g>
<g style="fill:#000000; fill-opacity:0.0; 
stroke:#000000; stroke-width:0.1500; stroke-opacity:1; 
stroke-linecap:round; stroke-linejoin:round;">
<text x="235.0000" y="11.6500"
textLength="1.3531" font-size="1.7333" lengthAdjust="spacingAndGlyphs"
text-anchor="start" opacity="0">5</text>
<g class="stroked-text"><desc>5</desc>
<path d="M235.9286 10.1776
L235.3095 10.1776
" />
<path d="M235.3095 10.1776
L235.2476 10.7966
" />
<path d="M235.2476 10.7966
L235.3095 10.7347
" />
<path d="M235.3095 10.7347
L235.4333 10.6728
" />
<path d="M235.4333 10.6728
L235.7429 10.6728
" />
<path d="M235.7429 10.6728
L235.8667 10.7347
" />
<path d="M235.8667 10.7347
L235.9286 10.7966
" />
<path d="M235.9286 10.7966
L235.9905 10.9205
" />
<path d="M235.9905 10.9205
L235.9905 11.2300
" />
<path d="M235.9905 11.2300
L235.9286 11.3538
" />
<path d="M235.9286 11.3538
L235.8667 11.4157
" />
<path d="M235.8667 11.4157
L235.7429 11.4776
" />
<path d="M235.7429 11.4776
L235.4333 11.4776
" />
<path d="M235.4333 11.4776
L235.3095 11.4157
" />
<path d="M235.3095 11.4157
L235.2476 11.3538
" />
</g></g>
<g style="fill:#000000; fill-opacity:0.0; 
stroke:#000000; stroke-width:0.0212; stroke-opacity:1; 
stroke-linecap:round; stroke-linejoin:round;">
</g>
<g style="fill:#000000; fill-opacity:0.0; 
stroke:#000000; stroke-width:0.1500; stroke-opacity:1; 
stroke-linecap:round; stroke-linejoin:round;">
<text x="285.0000" y="11.6500"
textLength="1.3531" font-size="1.7333" lengthAdjust="spacingAndGlyphs"
text-anchor="start" opacity="0">6</text>
<g class="stroked-text"><desc>6</desc>
<path d="M285.8667 10.1776
L285.6190 10.1776
" />
<path d="M285.6190 10.1776
L285.4952 10.2395
" />
<path d="M285.4952 10.2395
L285.4333 10.3014
" />
<path d="M285.4333 10.3014
L285.3095 10.4871
" />
<path d="M285.3095 10.4871
L285.2476 10.7347
" />
<path d="M285.2476 10.7347
L285.2476 11.2300
" />
<path d="M285.2476 11.2300
L285.3095 11.3538
" />
<path d="M285.3095 11.3538
L285.3714 11.4157
" />
<path d="M285.3714 11.4157
L285.4952 11.4776
" />
<path d="M285.4952 11.4776
L285.7429 11.4776
" />
<path d="M285.7429 11.4776
L285.8667 11.4157
" />
<path d="M285.8667 11.4157
L285.9286 11.3538
" />
<path d="M285.9286 11.3538
L285.9905 11.2300
" />
<path d="M285.9905 11.2300
L285.9905 10.9205
" />
<path d="M285.9905 10.9205
L285.9286 10.7966
" />
<path d="M285.9286 10.7966
L285.8667 10.7347
" />
<path d="M285.8667 10.7347
L285.7429 10.6728
" />
<path d="M285.7429 10.6728
L285.4952 10.6728
" />
<path d="M285.4952 10.6728
L285.3714 10.7347
" />
<path d="M285.3714 10.7347
L285.3095 10.7966
" />
<path d="M285.3095 10.7966
L285.2476 10.9205
" />
</g></g>
<g style="fill:#000000; fill-opacity:0.0; 
stroke:#000000; stroke-width:0.0212; stroke-opacity:1; 
stroke-linecap:round; stroke-linejoin:round;">
</g>
<g style="fill:#000000; fill-opacity:0.0; 
stroke:#000000; stroke-width:0.1500; stroke-opacity:1; 
stroke-linecap:round; stroke-linejoin:round;">
<path d="M60.0000 198.0072
L60.0000 200.0072
" />
</g>
<g style="fill:#000000; fill-opacity:0.0; 
stroke:#000000; stroke-width:0.0212; stroke-opacity:1; 
stroke-linecap:round; stroke-linejoin:round;">
</g>
<g style="fill:#000000; fill-opacity:0.0; 
stroke:#000000; stroke-width:0.1500; stroke-opacity:1; 
stroke-linecap:round; stroke-linejoin:round;">
<path d="M110.0000 198.0072
L110.0000 200.0072
" />
</g>
<g style="fill:#000000; fill-opacity:0.0; 
stroke:#000000; stroke-width:0.0212; stroke-opacity:1; 
stroke-linecap:round; stroke-linejoin:round;">
</g>
<g style="fill:#000000; fill-opacity:0.0; 
stroke:#000000; stroke-width:0.1500; stroke-opacity:1; 
stroke-linecap:round; stroke-linejoin:round;">
<path d="M160.0000 198.0072
L160.0000 200.0072
" />
</g>
<g style="fill:#000000; fill-opacity:0.0; 
stroke:#000000; stroke-width:0.0212; stroke-opacity:1; 
stroke-linecap:round; stroke-linejoin:round;">
</g>
<g style="fill:#000000; fill-opacity:0.0; 
stroke:#000000; stroke-width:0.1500; stroke-opacity:1; 
stroke-linecap:round; stroke-linejoin:round;">
<path d="M210.0000 198.0072
L210.0000 200.0072
" />
</g>
<g style="fill:#000000; fill-opacity:0.0; 
stroke:#000000; stroke-width:0.0212; stroke-opacity:1; 
stroke-linecap:round; stroke-linejoin:round;">
</g>
<g style="fill:#000000; fill-opacity:0.0; 
stroke:#000000; stroke-width:0.1500; stroke-opacity:1; 
stroke-linecap:round; stroke-linejoin:round;">
<path d="M260.0000 198.0072
L260.0000 200.0072
" />
</g>
<g style="fill:#000000; fill-opacity:0.0; 
stroke:#000000; stroke-width:0.0212; stroke-opacity:1; 
stroke-linecap:round; stroke-linejoin:round;">
</g>
<g style="fill:#000000; fill-opacity:0.0; 
stroke:#000000; stroke-width:0.1500; stroke-opacity:1; 
stroke-linecap:round; stroke-linejoin:round;">
<text x="35.0000" y="199.6572"
textLength="1.3531" font-size="1.7333" lengthAdjust="spacingAndGlyphs"
text-anchor="start" opacity="0">1</text>
<g class="stroked-text"><desc>1</desc>
<path d="M35.9905 199.4848
L35.2476 199.4848
" />
<path d="M35.6190 199.4848
L35.6190 198.1848
" />
<path d="M35.6190 198.1848
L35.4952 198.3705
" />
<path d="M35.4952 198.3705
L35.3714 198.4943
" />
<path d="M35.3714 198.4943
L35.2476 198.5562
" />
</g></g>
<g style="fill:#000000; fill-opacity:0.0; 
stroke:#000000; stroke-width:0.0212; stroke-opacity:1; 
stroke-linecap:round; stroke-linejoin:round;">
</g>
<g style="fill:#000000; fill-opacity:0.0; 
stroke:#000000; stroke-width:0.1500; stroke-opacity:1; 
stroke-linecap:round; stroke-linejoin:round;">
<text x="85.0000" y="199.6572"
textLength="1.3531" font-size="1.7333" lengthAdjust="spacingAndGlyphs"
text-anchor="start" opacity="0">2</text>
<g class="stroked-text"><desc>2</desc>
<path d="M85.2476 198.3086
L85.3095 198.2467
" />
<path d="M85.3095 198.2467
L85.4333 198.1848
" />
<path d="M85.4333 198.1848
L85.7429 198.1848
" />
<path d="M85.7429 198.1848
L85.8667 198.2467
" />
<path d="M85.8667 198.2467
L85.9286 198.3086
" />
<path d="M85.9286 198.3086
L85.9905 198.4324
" />
<path d="M85.9905 198.4324
L85.9905 198.5562
" />
<path d="M85.9905 198.5562
L85.9286 198.7419
" />
<path d="M85.9286 198.7419
L85.1857 199.4848
" />
<path d="M85.1857 199.4848
L85.9905 199.4848
" />
</g></g>
<g style="fill:#000000; fill-opacity:0.0; 
stroke:#000000; stroke-width:0.0212; stroke-opacity:1; 
stroke-linecap:round; stroke-linejoin:round;">
</g>
<g style="fill:#000000; fill-opacity:0.0; 
stroke:#000000; stroke-width:0.1500; stroke-opacity:1; 
stroke-linecap:round; stroke-linejoin:round;">
<text x="135.0000" y="199.6572"
textLength="1.3531" font-size="1.7333" lengthAdjust="spacingAndGlyphs"
text-anchor="start" opacity="0">3</text>
<g class="stroked-text"><desc>3</desc>
<path d="M135.1857 198.1848
L135.9905 198.1848
" />
<path d="M135.9905 198.1848
L135.5571 198.6800
" />
<path d="M135.5571 198.6800
L135.7429 198.6800
" />
<path d="M135.7429 198.6800
L135.8667 198.7419
" />
<path d="M135.8667 198.7419
L135.9286 198.8038
" />
<path d="M135.9286 198.8038
L135.9905 198.9277
" />
<path d="M135.9905 198.9277
L135.9905 199.2372
" />
<path d="M135.9905 199.2372
L135.9286 199.3610
" />
<path d="M135.9286 199.3610
L135.8667 199.4229
" />
<path d="M135.8667 199.4229
L135.7429 199.4848
" />
<path d="M135.7429 199.4848
L135.3714 199.4848
" />
<path d="M135.3714 199.4848
L135.2476 199.4229
" />
<path d="M135.2476 199.4229
L135.1857 199.3610
" />
</g></g>
<g style="fill:#000000; fill-opacity:0.0; 
stroke:#000000; stroke-width:0.0212; stroke-opacity:1; 
stroke-linecap:round; stroke-linejoin:round;">
</g>
<g style="fill:#000000; fill-opacity:0.0; 
stroke:#000000; stroke-width:0.1500; stroke-opacity:1; 
stroke-linecap:round; stroke-linejoin:round;">
<text x="185.0000" y="199.6572"
textLength="1.3531" font-size="1.7333" lengthAdjust="spacingAndGlyphs"
text-anchor="start" opacity="0">4</text>
<g class="stroked-text"><desc>4</desc>
<path d="M185.8667 198.6181
L185.8667 199.4848
" />
<path d="M185.5571 198.1229
L185.2476 199.0515
" />
<path d="M185.2476 199.0515
L186.0524 199.0515
" />
</g></g>
<g style="fill:#000000; fill-opacity:0.0; 
stroke:#000000; stroke-width:0.0212; stroke-opacity:1; 
stroke-linecap:round; stroke-linejoin:round;">
</g>
<g style="fill:#000000; fill-opacity:0.0; 
stroke:#000000; stroke-width:0.1500; stroke-opacity:1; 
stroke-linecap:round; stroke-linejoin:round;">
<text x="235.0000" y="199.6572"
textLength="1.3531" font-size="1.7333" lengthAdjust="spacingAndGlyphs"
text-anchor="start" opacity="0">5</text>
<g class="stroked-text"><desc>5</desc>
<path d="M235.9286 198.1848
L235.3095 198.1848
" />
<path d="M235.3095 198.1848
L235.2476 198.8038
" />
<path d="M235.2476 198.8038
L235.3095 198.7419
" />
<path d="M235.3095 198.7419
L235.4333 198.6800
" />
<path d="M235.4333 198.6800
L235.7429 198.6800
" />
<path d="M235.7429 198.6800
L235.8667 198.7419
" />
<path d="M235.8667 198.7419
L235.9286 198.8038
" />
<path d="M235.9286 198.8038
L235.9905 198.9277
" />
<path d="M235.9905 198.9277
L235.9905 199.2372
" />
<path d="M235.9905 199.2372
L235.9286 199.3610
" />
<path d="M235.9286 199.3610
L235.8667 199.4229
" />
<path d="M235.8667 199.4229
L235.7429 199.4848
" />
<path d="M235.7429 199.4848
L235.4333 199.4848
" />
<path d="M235.4333 199.4848
L235.3095 199.4229
" />
<path d="M235.3095 199.4229
L235.2476 199.3610
" />
</g></g>
<g style="fill:#000000; fill-opacity:0.0; 
stroke:#000000; stroke-width:0.0212; stroke-opacity:1; 
stroke-linecap:round; stroke-linejoin:round;">
</g>
<g style="fill:#000000; fill-opacity:0.0; 
stroke:#000000; stroke-width:0.1500; stroke-opacity:1; 
stroke-linecap:round; stroke-linejoin:round;">
<text x="285.0000" y="199.6572"
textLength="1.3531" font-size="1.7333" lengthAdjust="spacingAndGlyphs"
text-anchor="start" opacity="0">6</text>
<g class="stroked-text"><desc>6</desc>
<path d="M285.8667 198.1848
L285.6190 198.1848
" />
<path d="M285.6190 198.1848
L285.4952 198.2467
" />
<path d="M285.4952 198.2467
L285.4333 198.3086
" />
<path d="M285.4333 198.3086
L285.3095 198.4943
" />
<path d="M285.3095 198.4943
L285.2476 198.7419
" />
<path d="M285.2476 198.7419
L285.2476 199.2372
" />
<path d="M285.2476 199.2372
L285.3095 199.3610
" />
<path d="M285.3095 199.3610
L285.3714 199.4229
" />
<path d="M285.3714 199.4229
L285.4952 199.4848
" />
<path d="M285.4952 199.4848
L285.7429 199.4848
" />
<path d="M285.7429 199.4848
L285.8667 199.4229
" />
<path d="M285.8667 199.4229
L285.9286 199.3610
" />
<path d="M285.9286 199.3610
L285.9905 199.2372
" />
<path d="M285.9905 199.2372
L285.9905 198.9277
" />
<path d="M285.9905 198.9277
L285.9286 198.8038
" />
<path d="M285.9286 198.8038
L285.8667 198.7419
" />
<path d="M285.8667 198.7419
L285.7429 198.6800
" />
<path d="M285.7429 198.6800
L285.4952 198.6800
" />
<path d="M285.4952 198.6800
L285.3714 198.7419
" />
<path d="M285.3714 198.7419
L285.3095 198.8038
" />
<path d="M285.3095 198.8038
L285.2476 198.9277
" />
</g></g>
<g style="fill:#000000; fill-opacity:0.0; 
stroke:#000000; stroke-width:0.0212; stroke-opacity:1; 
stroke-linecap:round; stroke-linejoin:round;">
</g>
<g style="fill:#000000; fill-opacity:0.0; 
stroke:#000000; stroke-width:0.1500; stroke-opacity:1; 
stroke-linecap:round; stroke-linejoin:round;">
<path d="M10.0000 60.0000
L12.0000 60.0000
" />
</g>
<g style="fill:#000000; fill-opacity:0.0; 
stroke:#000000; stroke-width:0.0212; stroke-opacity:1; 
stroke-linecap:round; stroke-linejoin:round;">
</g>
<g style="fill:#000000; fill-opacity:0.0; 
stroke:#000000; stroke-width:0.1500; stroke-opacity:1; 
stroke-linecap:round; stroke-linejoin:round;">
<path d="M10.0000 110.0000
L12.0000 110.0000
" />
</g>
<g style="fill:#000000; fill-opacity:0.0; 
stroke:#000000; stroke-width:0.0212; stroke-opacity:1; 
stroke-linecap:round; stroke-linejoin:round;">
</g>
<g style="fill:#000000; fill-opacity:0.0; 
stroke:#000000; stroke-width:0.1500; stroke-opacity:1; 
stroke-linecap:round; stroke-linejoin:round;">
<path d="M10.0000 160.0000
L12.0000 160.0000
" />
</g>
<g style="fill:#000000; fill-opacity:0.0; 
stroke:#000000; stroke-width:0.0212; stroke-opacity:1; 
stroke-linecap:round; stroke-linejoin:round;">
</g>
<g style="fill:#000000; fill-opacity:0.0; 
stroke:#000000; stroke-width:0.1500; stroke-opacity:1; 
stroke-linecap:round; stroke-linejoin:round;">
<text x="11.0000" y="35.6500"
textLength="1.2293" font-size="1.7333" lengthAdjust="spacingAndGlyphs"
text-anchor="middle" opacity="0">A</text>
<g class="stroked-text"><desc>A</desc>
<path d="M10.6905 35.1062
L11.3095 35.1062
" />
<path d="M10.5667 35.4776
L11.0000 34.1776
" />
<path d="M11.0000 34.1776
L11.4333 35.4776
" />
</g></g>
<g style="fill:#000000; fill-opacity:0.0; 
stroke:#000000; stroke-width:0.0212; stroke-opacity:1; 
stroke-linecap:round; stroke-linejoin:round;">
</g>
<g style="fill:#000000; fill-opacity:0.0; 
stroke:#000000; stroke-width:0.1500; stroke-opacity:1; 
stroke-linecap:round; stroke-linejoin:round;">
<text x="11.0000" y="85.6500"
textLength="1.4150" font-size="1.7333" lengthAdjust="spacingAndGlyphs"
text-anchor="middle" opacity="0">B</text>
<g class="stroked-text"><desc>B</desc>
<path d="M11.0929 84.7966
L11.2786 84.8585
" />
<path d="M11.2786 84.8585
L11.3405 84.9205
" />
<path d="M11.3405 84.9205
L11.4024 85.0443
" />
<path d="M11.4024 85.0443
L11.4024 85.2300
" />
<path d="M11.4024 85.2300
L11.3405 85.3538
" />
<path d="M11.3405 85.3538
L11.2786 85.4157
" />
<path d="M11.2786 85.4157
L11.1548 85.4776
" />
<path d="M11.1548 85.4776
L10.6595 85.4776
" />
<path d="M10.6595 85.4776
L10.6595 84.1776
" />
<path d="M10.6595 84.1776
L11.0929 84.1776
" />
<path d="M11.0929 84.1776
L11.2167 84.2395
" />
<path d="M11.2167 84.2395
L11.2786 84.3014
" />
<path d="M11.2786 84.3014
L11.3405 84.4252
" />
<path d="M11.3405 84.4252
L11.3405 84.5490
" />
<path d="M11.3405 84.5490
L11.2786 84.6728
" />
<path d="M11.2786 84.6728
L11.2167 84.7347
" />
<path d="M11.2167 84.7347
L11.0929 84.7966
" />
<path d="M11.0929 84.7966
L10.6595 84.7966
" />
</g></g>
<g style="fill:#000000; fill-opacity:0.0; 
stroke:#000000; stroke-width:0.0212; stroke-opacity:1; 
stroke-linecap:round; stroke-linejoin:round;">
</g>
<g style="fill:#000000; fill-opacity:0.0; 
stroke:#000000; stroke-width:0.1500; stroke-opacity:1; 
stroke-linecap:round; stroke-linejoin:round;">
<text x="11.0000" y="135.6500"
textLength="1.4150" font-size="1.7333" lengthAdjust="spacingAndGlyphs"
text-anchor="middle" opacity="0">C</text>
<g class="stroked-text"><desc>C</desc>
<path d="M11.4024 135.3538
L11.3405 135.4157
" />
<path d="M11.3405 135.4157
L11.1548 135.4776
" />
<path d="M11.1548 135.4776
L11.0310 135.4776
" />
<path d="M11.0310 135.4776
L10.8452 135.4157
" />
<path d="M10.8452 135.4157
L10.7214 135.2919
" />
<path d="M10.7214 135.2919
L10.6595 135.1681
" />
<path d="M10.6595 135.1681
L10.5976 134.9205
" />
<path d="M10.5976 134.9205
L10.5976 134.7347
" />
<path d="M10.5976 134.7347
L10.6595 134.4871
" />
<path d="M10.6595 134.4871
L10.7214 134.3633
" />
<path d="M10.7214 134.3633
L10.8452 134.2395
" />
<path d="M10.8452 134.2395
L11.0310 134.1776
" />
<path d="M11.0310 134.1776
L11.1548 134.1776
" />
<path d="M11.1548 134.1776
L11.3405 134.2395
" />
<path d="M11.3405 134.2395
L11.4024 134.3014
" />
</g></g>
<g style="fill:#000000; fill-opacity:0.0; 
stroke:#000000; stroke-width:0.0212; stroke-opacity:1; 
stroke-linecap:round; stroke-linejoin:round;">
</g>
<g style="fill:#000000; fill-opacity:0.0; 
stroke:#000000; stroke-width:0.1500; stroke-opacity:1; 
stroke-linecap:round; stroke-linejoin:round;">
<text x="11.0000" y="185.6500"
textLength="1.4150" font-size="1.7333" lengthAdjust="spacingAndGlyphs"
text-anchor="middle" opacity="0">D</text>
<g class="stroked-text"><desc>D</desc>
<path d="M10.6595 185.4776
L10.6595 184.1776
" />
<path d="M10.6595 184.1776
L10.9690 184.1776
" />
<path d="M10.9690 184.1776
L11.1548 184.2395
" />
<path d="M11.1548 184.2395
L11.2786 184.3633
" />
<path d="M11.2786 184.3633
L11.3405 184.4871
" />
<path d="M11.3405 184.4871
L11.4024 184.7347
" />
<path d="M11.4024 184.7347
L11.4024 184.9205
" />
<path d="M11.4024 184.9205
L11.3405 185.1681
" />
<path d="M11.3405 185.1681
L11.2786 185.2919
" />
<path d="M11.2786 185.2919
L11.1548 185.4157
" />
<path d="M11.1548 185.4157
L10.9690 185.4776
" />
<path d="M10.9690 185.4776
L10.6595 185.4776
" />
</g></g>
<g style="fill:#000000; fill-opacity:0.0; 
stroke:#000000; stroke-width:0.0212; stroke-opacity:1; 
stroke-linecap:round; stroke-linejoin:round;">
</g>
<g style="fill:#000000; fill-opacity:0.0; 
stroke:#000000; stroke-width:0.1500; stroke-opacity:1; 
stroke-linecap:round; stroke-linejoin:round;">
<path d="M287.0022 60.0000
L285.0022 60.0000
" />
</g>
<g style="fill:#000000; fill-opacity:0.0; 
stroke:#000000; stroke-width:0.0212; stroke-opacity:1; 
stroke-linecap:round; stroke-linejoin:round;">
</g>
<g style="fill:#000000; fill-opacity:0.0; 
stroke:#000000; stroke-width:0.1500; stroke-opacity:1; 
stroke-linecap:round; stroke-linejoin:round;">
<path d="M287.0022 110.0000
L285.0022 110.0000
" />
</g>
<g style="fill:#000000; fill-opacity:0.0; 
stroke:#000000; stroke-width:0.0212; stroke-opacity:1; 
stroke-linecap:round; stroke-linejoin:round;">
</g>
<g style="fill:#000000; fill-opacity:0.0; 
stroke:#000000; stroke-width:0.1500; stroke-opacity:1; 
stroke-linecap:round; stroke-linejoin:round;">
<path d="M287.0022 160.0000
L285.0022 160.0000
" />
</g>
<g style="fill:#000000; fill-opacity:0.0; 
stroke:#000000; stroke-width:0.0212; stroke-opacity:1; 
stroke-linecap:round; stroke-linejoin:round;">
</g>
<g style="fill:#000000; fill-opacity:0.0; 
stroke:#000000; stroke-width:0.1500; stroke-opacity:1; 
stroke-linecap:round; stroke-linejoin:round;">
<text x="286.0022" y="35.6500"
textLength="1.2293" font-size="1.7333" lengthAdjust="spacingAndGlyphs"
text-anchor="middle" opacity="0">A</text>
<g class="stroked-text"><desc>A</desc>
<path d="M285.6927 35.1062
L286.3117 35.1062
" />
<path d="M285.5689 35.4776
L286.0022 34.1776
" />
<path d="M286.0022 34.1776
L286.4355 35.4776
" />
</g></g>
<g style="fill:#000000; fill-opacity:0.0; 
stroke:#000000; stroke-width:0.0212; stroke-opacity:1; 
stroke-linecap:round; stroke-linejoin:round;">
</g>
<g style="fill:#000000; fill-opacity:0.0; 
stroke:#000000; stroke-width:0.1500; stroke-opacity:1; 
stroke-linecap:round; stroke-linejoin:round;">
<text x="286.0022" y="85.6500"
textLength="1.4150" font-size="1.7333" lengthAdjust="spacingAndGlyphs"
text-anchor="middle" opacity="0">B</text>
<g class="stroked-text"><desc>B</desc>
<path d="M286.0951 84.7966
L286.2808 84.8585
" />
<path d="M286.2808 84.8585
L286.3427 84.9205
" />
<path d="M286.3427 84.9205
L286.4046 85.0443
" />
<path d="M286.4046 85.0443
L286.4046 85.2300
" />
<path d="M286.4046 85.2300
L286.3427 85.3538
" />
<path d="M286.3427 85.3538
L286.2808 85.4157
" />
<path d="M286.2808 85.4157
L286.1570 85.4776
" />
<path d="M286.1570 85.4776
L285.6617 85.4776
" />
<path d="M285.6617 85.4776
L285.6617 84.1776
" />
<path d="M285.6617 84.1776
L286.0951 84.1776
" />
<path d="M286.0951 84.1776
L286.2189 84.2395
" />
<path d="M286.2189 84.2395
L286.2808 84.3014
" />
<path d="M286.2808 84.3014
L286.3427 84.4252
" />
<path d="M286.3427 84.4252
L286.3427 84.5490
" />
<path d="M286.3427 84.5490
L286.2808 84.6728
" />
<path d="M286.2808 84.6728
L286.2189 84.7347
" />
<path d="M286.2189 84.7347
L286.0951 84.7966
" />
<path d="M286.0951 84.7966
L285.6617 84.7966
" />
</g></g>
<g style="fill:#000000; fill-opacity:0.0; 
stroke:#000000; stroke-width:0.0212; stroke-opacity:1; 
stroke-linecap:round; stroke-linejoin:round;">
</g>
<g style="fill:#000000; fill-opacity:0.0; 
stroke:#000000; stroke-width:0.1500; stroke-opacity:1; 
stroke-linecap:round; stroke-linejoin:round;">
<text x="286.0022" y="135.6500"
textLength="1.4150" font-size="1.7333" lengthAdjust="spacingAndGlyphs"
text-anchor="middle" opacity="0">C</text>
<g class="stroked-text"><desc>C</desc>
<path d="M286.4046 135.3538
L286.3427 135.4157
" />
<path d="M286.3427 135.4157
L286.1570 135.4776
" />
<path d="M286.1570 135.4776
L286.0332 135.4776
" />
<path d="M286.0332 135.4776
L285.8474 135.4157
" />
<path d="M285.8474 135.4157
L285.7236 135.2919
" />
<path d="M285.7236 135.2919
L285.6617 135.1681
" />
<path d="M285.6617 135.1681
L285.5998 134.9205
" />
<path d="M285.5998 134.9205
L285.5998 134.7347
" />
<path d="M285.5998 134.7347
L285.6617 134.4871
" />
<path d="M285.6617 134.4871
L285.7236 134.3633
" />
<path d="M285.7236 134.3633
L285.8474 134.2395
" />
<path d="M285.8474 134.2395
L286.0332 134.1776
" />
<path d="M286.0332 134.1776
L286.1570 134.1776
" />
<path d="M286.1570 134.1776
L286.3427 134.2395
" />
<path d="M286.3427 134.2395
L286.4046 134.3014
" />
</g></g>
<g style="fill:#000000; fill-opacity:0.0; 
stroke:#000000; stroke-width:0.0212; stroke-opacity:1; 
stroke-linecap:round; stroke-linejoin:round;">
</g>
<g style="fill:#000000; fill-opacity:0.0; 
stroke:#000000; stroke-width:0.1500; stroke-opacity:1; 
stroke-linecap:round; stroke-linejoin:round;">
<text x="286.0022" y="185.6500"
textLength="1.4150" font-size="1.7333" lengthAdjust="spacingAndGlyphs"
text-anchor="middle" opacity="0">D</text>
<g class="stroked-text"><desc>D</desc>
<path d="M285.6617 185.4776
L285.6617 184.1776
" />
<path d="M285.6617 184.1776
L285.9712 184.1776
" />
<path d="M285.9712 184.1776
L286.1570 184.2395
" />
<path d="M286.1570 184.2395
L286.2808 184.3633
" />
<path d="M286.2808 184.3633
L286.3427 184.4871
" />
<path d="M286.3427 184.4871
L286.4046 184.7347
" />
<path d="M286.4046 184.7347
L286.4046 184.9205
" />
<path d="M286.4046 184.9205
L286.3427 185.1681
" />
<path d="M286.3427 185.1681
L286.2808 185.2919
" />
<path d="M286.2808 185.2919
L286.1570 185.4157
" />
<path d="M286.1570 185.4157
L285.9712 185.4776
" />
<path d="M285.9712 185.4776
L285.6617 185.4776
" />
</g></g>
<g style="fill:#000000; fill-opacity:0.0; 
stroke:#000000; stroke-width:0.0212; stroke-opacity:1; 
stroke-linecap:round; stroke-linejoin:round;">
</g>
<g style="fill:#000000; fill-opacity:0.0; 
stroke:#000000; stroke-width:0.1500; stroke-opacity:1; 
stroke-linecap:round; stroke-linejoin:round;">
<text x="200.0022" y="193.8572"
textLength="6.6893" font-size="2.0000" lengthAdjust="spacingAndGlyphs"
text-anchor="start" opacity="0">Date: </text>
<g class="stroked-text"><desc>Date: </desc>
<path d="M200.3593 193.6583
L200.3593 192.1583
" />
<path d="M200.3593 192.1583
L200.7165 192.1583
" />
<path d="M200.7165 192.1583
L200.9308 192.2297
" />
<path d="M200.9308 192.2297
L201.0736 192.3726
" />
<path d="M201.0736 192.3726
L201.1451 192.5154
" />
<path d="M201.1451 192.5154
L201.2165 192.8011
" />
<path d="M201.2165 192.8011
L201.2165 193.0154
" />
<path d="M201.2165 193.0154
L201.1451 193.3011
" />
<path d="M201.1451 193.3011
L201.0736 193.4440
" />
<path d="M201.0736 193.4440
L200.9308 193.5868
" />
<path d="M200.9308 193.5868
L200.7165 193.6583
" />
<path d="M200.7165 193.6583
L200.3593 193.6583
" />
<path d="M202.5022 193.6583
L202.5022 192.8726
" />
<path d="M202.5022 192.8726
L202.4308 192.7297
" />
<path d="M202.4308 192.7297
L202.2879 192.6583
" />
<path d="M202.2879 192.6583
L202.0022 192.6583
" />
<path d="M202.0022 192.6583
L201.8593 192.7297
" />
<path d="M202.5022 193.5868
L202.3593 193.6583
" />
<path d="M202.3593 193.6583
L202.0022 193.6583
" />
<path d="M202.0022 193.6583
L201.8593 193.5868
" />
<path d="M201.8593 193.5868
L201.7879 193.4440
" />
<path d="M201.7879 193.4440
L201.7879 193.3011
" />
<path d="M201.7879 193.3011
L201.8593 193.1583
" />
<path d="M201.8593 193.1583
L202.0022 193.0868
" />
<path d="M202.0022 193.0868
L202.3593 193.0868
" />
<path d="M202.3593 193.0868
L202.5022 193.0154
" />
<path d="M203.0022 192.6583
L203.5736 192.6583
" />
<path d="M203.2165 192.1583
L203.2165 193.4440
" />
<path d="M203.2165 193.4440
L203.2879 193.5868
" />
<path d="M203.2879 193.5868
L203.4308 193.6583
" />
<path d="M203.4308 193.6583
L203.5736 193.6583
" />
<path d="M204.6451 193.5868
L204.5022 193.6583
" />
<path d="M204.5022 193.6583
L204.2165 193.6583
" />
<path d="M204.2165 193.6583
L204.0736 193.5868
" />
<path d="M204.0736 193.5868
L204.0022 193.4440
" />
<path d="M204.0022 193.4440
L204.0022 192.8726
" />
<path d="M204.0022 192.8726
L204.0736 192.7297
" />
<path d="M204.0736 192.7297
L204.2165 192.6583
" />
<path d="M204.2165 192.6583
L204.5022 192.6583
" />
<path d="M204.5022 192.6583
L204.6451 192.7297
" />
<path d="M204.6451 192.7297
L204.7165 192.8726
" />
<path d="M204.7165 192.8726
L204.7165 193.0154
" />
<path d="M204.7165 193.0154
L204.0022 193.1583
" />
<path d="M205.3593 193.5154
L205.4308 193.5868
" />
<path d="M205.4308 193.5868
L205.3593 193.6583
" />
<path d="M205.3593 193.6583
L205.2879 193.5868
" />
<path d="M205.2879 193.5868
L205.3593 193.5154
" />
<path d="M205.3593 193.5154
L205.3593 193.6583
" />
<path d="M205.3593 192.7297
L205.4308 192.8011
" />
<path d="M205.4308 192.8011
L205.3593 192.8726
" />
<path d="M205.3593 192.8726
L205.2879 192.8011
" />
<path d="M205.2879 192.8011
L205.3593 192.7297
" />
<path d="M205.3593 192.7297
L205.3593 192.8726
" />
</g></g>
<g style="fill:#000000; fill-opacity:0.0; 
stroke:#000000; stroke-width:0.0212; stroke-opacity:1; 
stroke-linecap:round; stroke-linejoin:round;">
</g>
<g style="fill:#000000; fill-opacity:0.0; 
stroke:#000000; stroke-width:0.1500; stroke-opacity:1; 
stroke-linecap:round; stroke-linejoin:round;">
<path d="M177.0022 194.5072
L285.0022 194.5072
" />
</g>
<g style="fill:#000000; fill-opacity:0.0; 
stroke:#000000; stroke-width:0.0212; stroke-opacity:1; 
stroke-linecap:round; stroke-linejoin:round;">
</g>
<g style="fill:#000000; fill-opacity:0.0; 
stroke:#000000; stroke-width:0.1500; stroke-opacity:1; 
stroke-linecap:round; stroke-linejoin:round;">
<text x="178.0022" y="196.6572"
textLength="35.6036" font-size="2.0000" lengthAdjust="spacingAndGlyphs"
text-anchor="start" opacity="0">KiCad E.D.A.  pcbnew (7.0.0-0)</text>
<g class="stroked-text"><desc>KiCad E.D.A.  pcbnew (7.0.0-0)</desc>
<path d="M178.3593 196.4583
L178.3593 194.9583
" />
<path d="M179.2165 196.4583
L178.5736 195.6011
" />
<path d="M179.2165 194.9583
L178.3593 195.8154
" />
<path d="M179.8593 196.4583
L179.8593 195.4583
" />
<path d="M179.8593 194.9583
L179.7879 195.0297
" />
<path d="M179.7879 195.0297
L179.8593 195.1011
" />
<path d="M179.8593 195.1011
L179.9308 195.0297
" />
<path d="M179.9308 195.0297
L179.8593 194.9583
" />
<path d="M179.8593 194.9583
L179.8593 195.1011
" />
<path d="M181.4308 196.3154
L181.3593 196.3868
" />
<path d="M181.3593 196.3868
L181.1451 196.4583
" />
<path d="M181.1451 196.4583
L181.0022 196.4583
" />
<path d="M181.0022 196.4583
L180.7879 196.3868
" />
<path d="M180.7879 196.3868
L180.6451 196.2440
" />
<path d="M180.6451 196.2440
L180.5736 196.1011
" />
<path d="M180.5736 196.1011
L180.5022 195.8154
" />
<path d="M180.5022 195.8154
L180.5022 195.6011
" />
<path d="M180.5022 195.6011
L180.5736 195.3154
" />
<path d="M180.5736 195.3154
L180.6451 195.1726
" />
<path d="M180.6451 195.1726
L180.7879 195.0297
" />
<path d="M180.7879 195.0297
L181.0022 194.9583
" />
<path d="M181.0022 194.9583
L181.1451 194.9583
" />
<path d="M181.1451 194.9583
L181.3593 195.0297
" />
<path d="M181.3593 195.0297
L181.4308 195.1011
" />
<path d="M182.7165 196.4583
L182.7165 195.6726
" />
<path d="M182.7165 195.6726
L182.6451 195.5297
" />
<path d="M182.6451 195.5297
L182.5022 195.4583
" />
<path d="M182.5022 195.4583
L182.2165 195.4583
" />
<path d="M182.2165 195.4583
L182.0736 195.5297
" />
<path d="M182.7165 196.3868
L182.5736 196.4583
" />
<path d="M182.5736 196.4583
L182.2165 196.4583
" />
<path d="M182.2165 196.4583
L182.0736 196.3868
" />
<path d="M182.0736 196.3868
L182.0022 196.2440
" />
<path d="M182.0022 196.2440
L182.0022 196.1011
" />
<path d="M182.0022 196.1011
L182.0736 195.9583
" />
<path d="M182.0736 195.9583
L182.2165 195.8868
" />
<path d="M182.2165 195.8868
L182.5736 195.8868
" />
<path d="M182.5736 195.8868
L182.7165 195.8154
" />
<path d="M184.0736 196.4583
L184.0736 194.9583
" />
<path d="M184.0736 196.3868
L183.9308 196.4583
" />
<path d="M183.9308 196.4583
L183.6451 196.4583
" />
<path d="M183.6451 196.4583
L183.5022 196.3868
" />
<path d="M183.5022 196.3868
L183.4308 196.3154
" />
<path d="M183.4308 196.3154
L183.3593 196.1726
" />
<path d="M183.3593 196.1726
L183.3593 195.7440
" />
<path d="M183.3593 195.7440
L183.4308 195.6011
" />
<path d="M183.4308 195.6011
L183.5022 195.5297
" />
<path d="M183.5022 195.5297
L183.6451 195.4583
" />
<path d="M183.6451 195.4583
L183.9308 195.4583
" />
<path d="M183.9308 195.4583
L184.0736 195.5297
" />
<path d="M185.6879 195.6726
L186.1879 195.6726
" />
<path d="M186.4022 196.4583
L185.6879 196.4583
" />
<path d="M185.6879 196.4583
L185.6879 194.9583
" />
<path d="M185.6879 194.9583
L186.4022 194.9583
" />
<path d="M187.0451 196.3154
L187.1165 196.3868
" />
<path d="M187.1165 196.3868
L187.0451 196.4583
" />
<path d="M187.0451 196.4583
L186.9736 196.3868
" />
<path d="M186.9736 196.3868
L187.0451 196.3154
" />
<path d="M187.0451 196.3154
L187.0451 196.4583
" />
<path d="M187.7593 196.4583
L187.7593 194.9583
" />
<path d="M187.7593 194.9583
L188.1165 194.9583
" />
<path d="M188.1165 194.9583
L188.3308 195.0297
" />
<path d="M188.3308 195.0297
L188.4736 195.1726
" />
<path d="M188.4736 195.1726
L188.5451 195.3154
" />
<path d="M188.5451 195.3154
L188.6165 195.6011
" />
<path d="M188.6165 195.6011
L188.6165 195.8154
" />
<path d="M188.6165 195.8154
L188.5451 196.1011
" />
<path d="M188.5451 196.1011
L188.4736 196.2440
" />
<path d="M188.4736 196.2440
L188.3308 196.3868
" />
<path d="M188.3308 196.3868
L188.1165 196.4583
" />
<path d="M188.1165 196.4583
L187.7593 196.4583
" />
<path d="M189.2593 196.3154
L189.3308 196.3868
" />
<path d="M189.3308 196.3868
L189.2593 196.4583
" />
<path d="M189.2593 196.4583
L189.1879 196.3868
" />
<path d="M189.1879 196.3868
L189.2593 196.3154
" />
<path d="M189.2593 196.3154
L189.2593 196.4583
" />
<path d="M189.9022 196.0297
L190.6165 196.0297
" />
<path d="M189.7593 196.4583
L190.2593 194.9583
" />
<path d="M190.2593 194.9583
L190.7593 196.4583
" />
<path d="M191.2593 196.3154
L191.3308 196.3868
" />
<path d="M191.3308 196.3868
L191.2593 196.4583
" />
<path d="M191.2593 196.4583
L191.1879 196.3868
" />
<path d="M191.1879 196.3868
L191.2593 196.3154
" />
<path d="M191.2593 196.3154
L191.2593 196.4583
" />
<path d="M193.7736 195.4583
L193.7736 196.9583
" />
<path d="M193.7736 195.5297
L193.9165 195.4583
" />
<path d="M193.9165 195.4583
L194.2022 195.4583
" />
<path d="M194.2022 195.4583
L194.3451 195.5297
" />
<path d="M194.3451 195.5297
L194.4165 195.6011
" />
<path d="M194.4165 195.6011
L194.4879 195.7440
" />
<path d="M194.4879 195.7440
L194.4879 196.1726
" />
<path d="M194.4879 196.1726
L194.4165 196.3154
" />
<path d="M194.4165 196.3154
L194.3451 196.3868
" />
<path d="M194.3451 196.3868
L194.2022 196.4583
" />
<path d="M194.2022 196.4583
L193.9165 196.4583
" />
<path d="M193.9165 196.4583
L193.7736 196.3868
" />
<path d="M195.7736 196.3868
L195.6308 196.4583
" />
<path d="M195.6308 196.4583
L195.3451 196.4583
" />
<path d="M195.3451 196.4583
L195.2022 196.3868
" />
<path d="M195.2022 196.3868
L195.1308 196.3154
" />
<path d="M195.1308 196.3154
L195.0593 196.1726
" />
<path d="M195.0593 196.1726
L195.0593 195.7440
" />
<path d="M195.0593 195.7440
L195.1308 195.6011
" />
<path d="M195.1308 195.6011
L195.2022 195.5297
" />
<path d="M195.2022 195.5297
L195.3451 195.4583
" />
<path d="M195.3451 195.4583
L195.6308 195.4583
" />
<path d="M195.6308 195.4583
L195.7736 195.5297
" />
<path d="M196.4165 196.4583
L196.4165 194.9583
" />
<path d="M196.4165 195.5297
L196.5593 195.4583
" />
<path d="M196.5593 195.4583
L196.8451 195.4583
" />
<path d="M196.8451 195.4583
L196.9879 195.5297
" />
<path d="M196.9879 195.5297
L197.0593 195.6011
" />
<path d="M197.0593 195.6011
L197.1308 195.7440
" />
<path d="M197.1308 195.7440
L197.1308 196.1726
" />
<path d="M197.1308 196.1726
L197.0593 196.3154
" />
<path d="M197.0593 196.3154
L196.9879 196.3868
" />
<path d="M196.9879 196.3868
L196.8451 196.4583
" />
<path d="M196.8451 196.4583
L196.5593 196.4583
" />
<path d="M196.5593 196.4583
L196.4165 196.3868
" />
<path d="M197.7736 195.4583
L197.7736 196.4583
" />
<path d="M197.7736 195.6011
L197.8451 195.5297
" />
<path d="M197.8451 195.5297
L197.9879 195.4583
" />
<path d="M197.9879 195.4583
L198.2022 195.4583
" />
<path d="M198.2022 195.4583
L198.3451 195.5297
" />
<path d="M198.3451 195.5297
L198.4165 195.6726
" />
<path d="M198.4165 195.6726
L198.4165 196.4583
" />
<path d="M199.7022 196.3868
L199.5593 196.4583
" />
<path d="M199.5593 196.4583
L199.2736 196.4583
" />
<path d="M199.2736 196.4583
L199.1308 196.3868
" />
<path d="M199.1308 196.3868
L199.0593 196.2440
" />
<path d="M199.0593 196.2440
L199.0593 195.6726
" />
<path d="M199.0593 195.6726
L199.1308 195.5297
" />
<path d="M199.1308 195.5297
L199.2736 195.4583
" />
<path d="M199.2736 195.4583
L199.5593 195.4583
" />
<path d="M199.5593 195.4583
L199.7022 195.5297
" />
<path d="M199.7022 195.5297
L199.7736 195.6726
" />
<path d="M199.7736 195.6726
L199.7736 195.8154
" />
<path d="M199.7736 195.8154
L199.0593 195.9583
" />
<path d="M200.2736 195.4583
L200.5593 196.4583
" />
<path d="M200.5593 196.4583
L200.8451 195.7440
" />
<path d="M200.8451 195.7440
L201.1308 196.4583
" />
<path d="M201.1308 196.4583
L201.4165 195.4583
" />
<path d="M203.3165 197.0297
L203.2451 196.9583
" />
<path d="M203.2451 196.9583
L203.1022 196.7440
" />
<path d="M203.1022 196.7440
L203.0308 196.6011
" />
<path d="M203.0308 196.6011
L202.9593 196.3868
" />
<path d="M202.9593 196.3868
L202.8879 196.0297
" />
<path d="M202.8879 196.0297
L202.8879 195.7440
" />
<path d="M202.8879 195.7440
L202.9593 195.3868
" />
<path d="M202.9593 195.3868
L203.0308 195.1726
" />
<path d="M203.0308 195.1726
L203.1022 195.0297
" />
<path d="M203.1022 195.0297
L203.2451 194.8154
" />
<path d="M203.2451 194.8154
L203.3165 194.7440
" />
<path d="M203.7451 194.9583
L204.7451 194.9583
" />
<path d="M204.7451 194.9583
L204.1022 196.4583
" />
<path d="M205.3165 196.3154
L205.3879 196.3868
" />
<path d="M205.3879 196.3868
L205.3165 196.4583
" />
<path d="M205.3165 196.4583
L205.2451 196.3868
" />
<path d="M205.2451 196.3868
L205.3165 196.3154
" />
<path d="M205.3165 196.3154
L205.3165 196.4583
" />
<path d="M206.3165 194.9583
L206.4593 194.9583
" />
<path d="M206.4593 194.9583
L206.6022 195.0297
" />
<path d="M206.6022 195.0297
L206.6736 195.1011
" />
<path d="M206.6736 195.1011
L206.7451 195.2440
" />
<path d="M206.7451 195.2440
L206.8165 195.5297
" />
<path d="M206.8165 195.5297
L206.8165 195.8868
" />
<path d="M206.8165 195.8868
L206.7451 196.1726
" />
<path d="M206.7451 196.1726
L206.6736 196.3154
" />
<path d="M206.6736 196.3154
L206.6022 196.3868
" />
<path d="M206.6022 196.3868
L206.4593 196.4583
" />
<path d="M206.4593 196.4583
L206.3165 196.4583
" />
<path d="M206.3165 196.4583
L206.1736 196.3868
" />
<path d="M206.1736 196.3868
L206.1022 196.3154
" />
<path d="M206.1022 196.3154
L206.0308 196.1726
" />
<path d="M206.0308 196.1726
L205.9593 195.8868
" />
<path d="M205.9593 195.8868
L205.9593 195.5297
" />
<path d="M205.9593 195.5297
L206.0308 195.2440
" />
<path d="M206.0308 195.2440
L206.1022 195.1011
" />
<path d="M206.1022 195.1011
L206.1736 195.0297
" />
<path d="M206.1736 195.0297
L206.3165 194.9583
" />
<path d="M207.4593 196.3154
L207.5308 196.3868
" />
<path d="M207.5308 196.3868
L207.4593 196.4583
" />
<path d="M207.4593 196.4583
L207.3879 196.3868
" />
<path d="M207.3879 196.3868
L207.4593 196.3154
" />
<path d="M207.4593 196.3154
L207.4593 196.4583
" />
<path d="M208.4593 194.9583
L208.6022 194.9583
" />
<path d="M208.6022 194.9583
L208.7451 195.0297
" />
<path d="M208.7451 195.0297
L208.8165 195.1011
" />
<path d="M208.8165 195.1011
L208.8879 195.2440
" />
<path d="M208.8879 195.2440
L208.9593 195.5297
" />
<path d="M208.9593 195.5297
L208.9593 195.8868
" />
<path d="M208.9593 195.8868
L208.8879 196.1726
" />
<path d="M208.8879 196.1726
L208.8165 196.3154
" />
<path d="M208.8165 196.3154
L208.7451 196.3868
" />
<path d="M208.7451 196.3868
L208.6022 196.4583
" />
<path d="M208.6022 196.4583
L208.4593 196.4583
" />
<path d="M208.4593 196.4583
L208.3165 196.3868
" />
<path d="M208.3165 196.3868
L208.2451 196.3154
" />
<path d="M208.2451 196.3154
L208.1736 196.1726
" />
<path d="M208.1736 196.1726
L208.1022 195.8868
" />
<path d="M208.1022 195.8868
L208.1022 195.5297
" />
<path d="M208.1022 195.5297
L208.1736 195.2440
" />
<path d="M208.1736 195.2440
L208.2451 195.1011
" />
<path d="M208.2451 195.1011
L208.3165 195.0297
" />
<path d="M208.3165 195.0297
L208.4593 194.9583
" />
<path d="M209.6022 195.8868
L210.7451 195.8868
" />
<path d="M211.7451 194.9583
L211.8879 194.9583
" />
<path d="M211.8879 194.9583
L212.0308 195.0297
" />
<path d="M212.0308 195.0297
L212.1022 195.1011
" />
<path d="M212.1022 195.1011
L212.1736 195.2440
" />
<path d="M212.1736 195.2440
L212.2451 195.5297
" />
<path d="M212.2451 195.5297
L212.2451 195.8868
" />
<path d="M212.2451 195.8868
L212.1736 196.1726
" />
<path d="M212.1736 196.1726
L212.1022 196.3154
" />
<path d="M212.1022 196.3154
L212.0308 196.3868
" />
<path d="M212.0308 196.3868
L211.8879 196.4583
" />
<path d="M211.8879 196.4583
L211.7451 196.4583
" />
<path d="M211.7451 196.4583
L211.6022 196.3868
" />
<path d="M211.6022 196.3868
L211.5308 196.3154
" />
<path d="M211.5308 196.3154
L211.4593 196.1726
" />
<path d="M211.4593 196.1726
L211.3879 195.8868
" />
<path d="M211.3879 195.8868
L211.3879 195.5297
" />
<path d="M211.3879 195.5297
L211.4593 195.2440
" />
<path d="M211.4593 195.2440
L211.5308 195.1011
" />
<path d="M211.5308 195.1011
L211.6022 195.0297
" />
<path d="M211.6022 195.0297
L211.7451 194.9583
" />
<path d="M212.7451 197.0297
L212.8165 196.9583
" />
<path d="M212.8165 196.9583
L212.9593 196.7440
" />
<path d="M212.9593 196.7440
L213.0308 196.6011
" />
<path d="M213.0308 196.6011
L213.1022 196.3868
" />
<path d="M213.1022 196.3868
L213.1736 196.0297
" />
<path d="M213.1736 196.0297
L213.1736 195.7440
" />
<path d="M213.1736 195.7440
L213.1022 195.3868
" />
<path d="M213.1022 195.3868
L213.0308 195.1726
" />
<path d="M213.0308 195.1726
L212.9593 195.0297
" />
<path d="M212.9593 195.0297
L212.8165 194.8154
" />
<path d="M212.8165 194.8154
L212.7451 194.7440
" />
</g></g>
<g style="fill:#000000; fill-opacity:0.0; 
stroke:#000000; stroke-width:0.0212; stroke-opacity:1; 
stroke-linecap:round; stroke-linejoin:round;">
</g>
<g style="fill:#000000; fill-opacity:0.0; 
stroke:#000000; stroke-width:0.1500; stroke-opacity:1; 
stroke-linecap:round; stroke-linejoin:round;">
<path d="M177.0022 191.5072
L285.0022 191.5072
" />
</g>
<g style="fill:#000000; fill-opacity:0.0; 
stroke:#000000; stroke-width:0.0212; stroke-opacity:1; 
stroke-linecap:round; stroke-linejoin:round;">
</g>
<g style="fill:#000000; fill-opacity:0.0; 
stroke:#000000; stroke-width:0.3000; stroke-opacity:1; 
stroke-linecap:round; stroke-linejoin:round;">
<text x="263.0022" y="193.8572"
textLength="5.9929" font-size="2.0000" lengthAdjust="spacingAndGlyphs"
text-anchor="start" opacity="0">Rev: </text>
<g class="stroked-text"><desc>Rev: </desc>
<path d="M264.2165 193.6583
L263.7165 192.9440
" />
<path d="M263.3593 193.6583
L263.3593 192.1583
" />
<path d="M263.3593 192.1583
L263.9308 192.1583
" />
<path d="M263.9308 192.1583
L264.0736 192.2297
" />
<path d="M264.0736 192.2297
L264.1451 192.3011
" />
<path d="M264.1451 192.3011
L264.2165 192.4440
" />
<path d="M264.2165 192.4440
L264.2165 192.6583
" />
<path d="M264.2165 192.6583
L264.1451 192.8011
" />
<path d="M264.1451 192.8011
L264.0736 192.8726
" />
<path d="M264.0736 192.8726
L263.9308 192.9440
" />
<path d="M263.9308 192.9440
L263.3593 192.9440
" />
<path d="M265.4308 193.5868
L265.2879 193.6583
" />
<path d="M265.2879 193.6583
L265.0022 193.6583
" />
<path d="M265.0022 193.6583
L264.8593 193.5868
" />
<path d="M264.8593 193.5868
L264.7879 193.4440
" />
<path d="M264.7879 193.4440
L264.7879 192.8726
" />
<path d="M264.7879 192.8726
L264.8593 192.7297
" />
<path d="M264.8593 192.7297
L265.0022 192.6583
" />
<path d="M265.0022 192.6583
L265.2879 192.6583
" />
<path d="M265.2879 192.6583
L265.4308 192.7297
" />
<path d="M265.4308 192.7297
L265.5022 192.8726
" />
<path d="M265.5022 192.8726
L265.5022 193.0154
" />
<path d="M265.5022 193.0154
L264.7879 193.1583
" />
<path d="M266.0022 192.6583
L266.3593 193.6583
" />
<path d="M266.3593 193.6583
L266.7165 192.6583
" />
<path d="M267.2879 193.5154
L267.3593 193.5868
" />
<path d="M267.3593 193.5868
L267.2879 193.6583
" />
<path d="M267.2879 193.6583
L267.2165 193.5868
" />
<path d="M267.2165 193.5868
L267.2879 193.5154
" />
<path d="M267.2879 193.5154
L267.2879 193.6583
" />
<path d="M267.2879 192.7297
L267.3593 192.8011
" />
<path d="M267.3593 192.8011
L267.2879 192.8726
" />
<path d="M267.2879 192.8726
L267.2165 192.8011
" />
<path d="M267.2165 192.8011
L267.2879 192.7297
" />
<path d="M267.2879 192.7297
L267.2879 192.8726
" />
</g></g>
<g style="fill:#000000; fill-opacity:0.0; 
stroke:#000000; stroke-width:0.0212; stroke-opacity:1; 
stroke-linecap:round; stroke-linejoin:round;">
</g>
<g style="fill:#000000; fill-opacity:0.0; 
stroke:#000000; stroke-width:0.1500; stroke-opacity:1; 
stroke-linecap:round; stroke-linejoin:round;">
<text x="178.0022" y="193.8572"
textLength="9.0464" font-size="2.0000" lengthAdjust="spacingAndGlyphs"
text-anchor="start" opacity="0">Size: A4</text>
<g class="stroked-text"><desc>Size: A4</desc>
<path d="M178.2879 193.5868
L178.5022 193.6583
" />
<path d="M178.5022 193.6583
L178.8593 193.6583
" />
<path d="M178.8593 193.6583
L179.0022 193.5868
" />
<path d="M179.0022 193.5868
L179.0736 193.5154
" />
<path d="M179.0736 193.5154
L179.1451 193.3726
" />
<path d="M179.1451 193.3726
L179.1451 193.2297
" />
<path d="M179.1451 193.2297
L179.0736 193.0868
" />
<path d="M179.0736 193.0868
L179.0022 193.0154
" />
<path d="M179.0022 193.0154
L178.8593 192.9440
" />
<path d="M178.8593 192.9440
L178.5736 192.8726
" />
<path d="M178.5736 192.8726
L178.4308 192.8011
" />
<path d="M178.4308 192.8011
L178.3593 192.7297
" />
<path d="M178.3593 192.7297
L178.2879 192.5868
" />
<path d="M178.2879 192.5868
L178.2879 192.4440
" />
<path d="M178.2879 192.4440
L178.3593 192.3011
" />
<path d="M178.3593 192.3011
L178.4308 192.2297
" />
<path d="M178.4308 192.2297
L178.5736 192.1583
" />
<path d="M178.5736 192.1583
L178.9308 192.1583
" />
<path d="M178.9308 192.1583
L179.1451 192.2297
" />
<path d="M179.7879 193.6583
L179.7879 192.6583
" />
<path d="M179.7879 192.1583
L179.7165 192.2297
" />
<path d="M179.7165 192.2297
L179.7879 192.3011
" />
<path d="M179.7879 192.3011
L179.8593 192.2297
" />
<path d="M179.8593 192.2297
L179.7879 192.1583
" />
<path d="M179.7879 192.1583
L179.7879 192.3011
" />
<path d="M180.3593 192.6583
L181.1451 192.6583
" />
<path d="M181.1451 192.6583
L180.3593 193.6583
" />
<path d="M180.3593 193.6583
L181.1451 193.6583
" />
<path d="M182.2879 193.5868
L182.1451 193.6583
" />
<path d="M182.1451 193.6583
L181.8593 193.6583
" />
<path d="M181.8593 193.6583
L181.7165 193.5868
" />
<path d="M181.7165 193.5868
L181.6451 193.4440
" />
<path d="M181.6451 193.4440
L181.6451 192.8726
" />
<path d="M181.6451 192.8726
L181.7165 192.7297
" />
<path d="M181.7165 192.7297
L181.8593 192.6583
" />
<path d="M181.8593 192.6583
L182.1451 192.6583
" />
<path d="M182.1451 192.6583
L182.2879 192.7297
" />
<path d="M182.2879 192.7297
L182.3593 192.8726
" />
<path d="M182.3593 192.8726
L182.3593 193.0154
" />
<path d="M182.3593 193.0154
L181.6451 193.1583
" />
<path d="M183.0022 193.5154
L183.0736 193.5868
" />
<path d="M183.0736 193.5868
L183.0022 193.6583
" />
<path d="M183.0022 193.6583
L182.9308 193.5868
" />
<path d="M182.9308 193.5868
L183.0022 193.5154
" />
<path d="M183.0022 193.5154
L183.0022 193.6583
" />
<path d="M183.0022 192.7297
L183.0736 192.8011
" />
<path d="M183.0736 192.8011
L183.0022 192.8726
" />
<path d="M183.0022 192.8726
L182.9308 192.8011
" />
<path d="M182.9308 192.8011
L183.0022 192.7297
" />
<path d="M183.0022 192.7297
L183.0022 192.8726
" />
<path d="M184.5451 193.2297
L185.2593 193.2297
" />
<path d="M184.4022 193.6583
L184.9022 192.1583
" />
<path d="M184.9022 192.1583
L185.4022 193.6583
" />
<path d="M186.5451 192.6583
L186.5451 193.6583
" />
<path d="M186.1879 192.0868
L185.8308 193.1583
" />
<path d="M185.8308 193.1583
L186.7593 193.1583
" />
</g></g>
<g style="fill:#000000; fill-opacity:0.0; 
stroke:#000000; stroke-width:0.0212; stroke-opacity:1; 
stroke-linecap:round; stroke-linejoin:round;">
</g>
<g style="fill:#000000; fill-opacity:0.0; 
stroke:#000000; stroke-width:0.1500; stroke-opacity:1; 
stroke-linecap:round; stroke-linejoin:round;">
<text x="263.0022" y="196.6572"
textLength="8.1893" font-size="2.0000" lengthAdjust="spacingAndGlyphs"
text-anchor="start" opacity="0">Id: 1/1</text>
<g class="stroked-text"><desc>Id: 1/1</desc>
<path d="M263.3593 196.4583
L263.3593 194.9583
" />
<path d="M264.7165 196.4583
L264.7165 194.9583
" />
<path d="M264.7165 196.3868
L264.5736 196.4583
" />
<path d="M264.5736 196.4583
L264.2879 196.4583
" />
<path d="M264.2879 196.4583
L264.1451 196.3868
" />
<path d="M264.1451 196.3868
L264.0736 196.3154
" />
<path d="M264.0736 196.3154
L264.0022 196.1726
" />
<path d="M264.0022 196.1726
L264.0022 195.7440
" />
<path d="M264.0022 195.7440
L264.0736 195.6011
" />
<path d="M264.0736 195.6011
L264.1451 195.5297
" />
<path d="M264.1451 195.5297
L264.2879 195.4583
" />
<path d="M264.2879 195.4583
L264.5736 195.4583
" />
<path d="M264.5736 195.4583
L264.7165 195.5297
" />
<path d="M265.4308 196.3154
L265.5022 196.3868
" />
<path d="M265.5022 196.3868
L265.4308 196.4583
" />
<path d="M265.4308 196.4583
L265.3593 196.3868
" />
<path d="M265.3593 196.3868
L265.4308 196.3154
" />
<path d="M265.4308 196.3154
L265.4308 196.4583
" />
<path d="M265.4308 195.5297
L265.5022 195.6011
" />
<path d="M265.5022 195.6011
L265.4308 195.6726
" />
<path d="M265.4308 195.6726
L265.3593 195.6011
" />
<path d="M265.3593 195.6011
L265.4308 195.5297
" />
<path d="M265.4308 195.5297
L265.4308 195.6726
" />
<path d="M267.8308 196.4583
L266.9736 196.4583
" />
<path d="M267.4022 196.4583
L267.4022 194.9583
" />
<path d="M267.4022 194.9583
L267.2593 195.1726
" />
<path d="M267.2593 195.1726
L267.1165 195.3154
" />
<path d="M267.1165 195.3154
L266.9736 195.3868
" />
<path d="M269.5451 194.8868
L268.2593 196.8154
" />
<path d="M270.8308 196.4583
L269.9736 196.4583
" />
<path d="M270.4022 196.4583
L270.4022 194.9583
" />
<path d="M270.4022 194.9583
L270.2593 195.1726
" />
<path d="M270.2593 195.1726
L270.1165 195.3154
" />
<path d="M270.1165 195.3154
L269.9736 195.3868
" />
</g></g>
<g style="fill:#000000; fill-opacity:0.0; 
stroke:#000000; stroke-width:0.0212; stroke-opacity:1; 
stroke-linecap:round; stroke-linejoin:round;">
</g>
<g style="fill:#000000; fill-opacity:0.0; 
stroke:#000000; stroke-width:0.1500; stroke-opacity:1; 
stroke-linecap:round; stroke-linejoin:round;">
<path d="M177.0022 187.5072
L285.0022 187.5072
" />
</g>
<g style="fill:#000000; fill-opacity:0.0; 
stroke:#000000; stroke-width:0.0212; stroke-opacity:1; 
stroke-linecap:round; stroke-linejoin:round;">
</g>
<g style="fill:#000000; fill-opacity:0.0; 
stroke:#000000; stroke-width:0.4000; stroke-opacity:1; 
stroke-linecap:round; stroke-linejoin:round;">
<text x="178.0022" y="190.3072"
textLength="9.1333" font-size="2.6667" lengthAdjust="spacingAndGlyphs"
text-anchor="start" opacity="0">Title: </text>
<g class="stroked-text"><desc>Title: </desc>
<path d="M178.4546 188.0420
L179.5974 188.0420
" />
<path d="M178.7760 190.0420
L179.0260 188.0420
" />
<path d="M180.0141 190.0420
L180.1808 188.7086
" />
<path d="M180.2641 188.0420
L180.1570 188.1372
" />
<path d="M180.1570 188.1372
L180.2403 188.2324
" />
<path d="M180.2403 188.2324
L180.3474 188.1372
" />
<path d="M180.3474 188.1372
L180.2641 188.0420
" />
<path d="M180.2641 188.0420
L180.2403 188.2324
" />
<path d="M180.8474 188.7086
L181.6093 188.7086
" />
<path d="M181.2165 188.0420
L181.0022 189.7562
" />
<path d="M181.0022 189.7562
L181.0736 189.9467
" />
<path d="M181.0736 189.9467
L181.2522 190.0420
" />
<path d="M181.2522 190.0420
L181.4427 190.0420
" />
<path d="M182.3951 190.0420
L182.2165 189.9467
" />
<path d="M182.2165 189.9467
L182.1451 189.7562
" />
<path d="M182.1451 189.7562
L182.3593 188.0420
" />
<path d="M183.9308 189.9467
L183.7284 190.0420
" />
<path d="M183.7284 190.0420
L183.3474 190.0420
" />
<path d="M183.3474 190.0420
L183.1689 189.9467
" />
<path d="M183.1689 189.9467
L183.0974 189.7562
" />
<path d="M183.0974 189.7562
L183.1927 188.9943
" />
<path d="M183.1927 188.9943
L183.3117 188.8039
" />
<path d="M183.3117 188.8039
L183.5141 188.7086
" />
<path d="M183.5141 188.7086
L183.8951 188.7086
" />
<path d="M183.8951 188.7086
L184.0736 188.8039
" />
<path d="M184.0736 188.8039
L184.1451 188.9943
" />
<path d="M184.1451 188.9943
L184.1212 189.1848
" />
<path d="M184.1212 189.1848
L183.1451 189.3753
" />
<path d="M184.8951 189.8515
L184.9784 189.9467
" />
<path d="M184.9784 189.9467
L184.8712 190.0420
" />
<path d="M184.8712 190.0420
L184.7879 189.9467
" />
<path d="M184.7879 189.9467
L184.8951 189.8515
" />
<path d="M184.8951 189.8515
L184.8712 190.0420
" />
<path d="M185.0260 188.8039
L185.1093 188.8991
" />
<path d="M185.1093 188.8991
L185.0022 188.9943
" />
<path d="M185.0022 188.9943
L184.9189 188.8991
" />
<path d="M184.9189 188.8991
L185.0260 188.8039
" />
<path d="M185.0260 188.8039
L185.0022 188.9943
" />
</g></g>
<g style="fill:#000000; fill-opacity:0.0; 
stroke:#000000; stroke-width:0.0212; stroke-opacity:1; 
stroke-linecap:round; stroke-linejoin:round;">
</g>
<g style="fill:#000000; fill-opacity:0.0; 
stroke:#000000; stroke-width:0.1500; stroke-opacity:1; 
stroke-linecap:round; stroke-linejoin:round;">
<text x="178.0022" y="186.4572"
textLength="25.9036" font-size="2.0000" lengthAdjust="spacingAndGlyphs"
text-anchor="start" opacity="0">File: TopPCB.kicad_pcb</text>
<g class="stroked-text"><desc>File: TopPCB.kicad_pcb</desc>
<path d="M178.8593 185.4726
L178.3593 185.4726
" />
<path d="M178.3593 186.2583
L178.3593 184.7583
" />
<path d="M178.3593 184.7583
L179.0736 184.7583
" />
<path d="M179.6451 186.2583
L179.6451 185.2583
" />
<path d="M179.6451 184.7583
L179.5736 184.8297
" />
<path d="M179.5736 184.8297
L179.6451 184.9011
" />
<path d="M179.6451 184.9011
L179.7165 184.8297
" />
<path d="M179.7165 184.8297
L179.6451 184.7583
" />
<path d="M179.6451 184.7583
L179.6451 184.9011
" />
<path d="M180.5736 186.2583
L180.4308 186.1868
" />
<path d="M180.4308 186.1868
L180.3593 186.0440
" />
<path d="M180.3593 186.0440
L180.3593 184.7583
" />
<path d="M181.7165 186.1868
L181.5736 186.2583
" />
<path d="M181.5736 186.2583
L181.2879 186.2583
" />
<path d="M181.2879 186.2583
L181.1451 186.1868
" />
<path d="M181.1451 186.1868
L181.0736 186.0440
" />
<path d="M181.0736 186.0440
L181.0736 185.4726
" />
<path d="M181.0736 185.4726
L181.1451 185.3297
" />
<path d="M181.1451 185.3297
L181.2879 185.2583
" />
<path d="M181.2879 185.2583
L181.5736 185.2583
" />
<path d="M181.5736 185.2583
L181.7165 185.3297
" />
<path d="M181.7165 185.3297
L181.7879 185.4726
" />
<path d="M181.7879 185.4726
L181.7879 185.6154
" />
<path d="M181.7879 185.6154
L181.0736 185.7583
" />
<path d="M182.4308 186.1154
L182.5022 186.1868
" />
<path d="M182.5022 186.1868
L182.4308 186.2583
" />
<path d="M182.4308 186.2583
L182.3593 186.1868
" />
<path d="M182.3593 186.1868
L182.4308 186.1154
" />
<path d="M182.4308 186.1154
L182.4308 186.2583
" />
<path d="M182.4308 185.3297
L182.5022 185.4011
" />
<path d="M182.5022 185.4011
L182.4308 185.4726
" />
<path d="M182.4308 185.4726
L182.3593 185.4011
" />
<path d="M182.3593 185.4011
L182.4308 185.3297
" />
<path d="M182.4308 185.3297
L182.4308 185.4726
" />
<path d="M183.8308 184.7583
L184.6879 184.7583
" />
<path d="M184.2593 186.2583
L184.2593 184.7583
" />
<path d="M185.4022 186.2583
L185.2593 186.1868
" />
<path d="M185.2593 186.1868
L185.1879 186.1154
" />
<path d="M185.1879 186.1154
L185.1165 185.9726
" />
<path d="M185.1165 185.9726
L185.1165 185.5440
" />
<path d="M185.1165 185.5440
L185.1879 185.4011
" />
<path d="M185.1879 185.4011
L185.2593 185.3297
" />
<path d="M185.2593 185.3297
L185.4022 185.2583
" />
<path d="M185.4022 185.2583
L185.6165 185.2583
" />
<path d="M185.6165 185.2583
L185.7593 185.3297
" />
<path d="M185.7593 185.3297
L185.8308 185.4011
" />
<path d="M185.8308 185.4011
L185.9022 185.5440
" />
<path d="M185.9022 185.5440
L185.9022 185.9726
" />
<path d="M185.9022 185.9726
L185.8308 186.1154
" />
<path d="M185.8308 186.1154
L185.7593 186.1868
" />
<path d="M185.7593 186.1868
L185.6165 186.2583
" />
<path d="M185.6165 186.2583
L185.4022 186.2583
" />
<path d="M186.5451 185.2583
L186.5451 186.7583
" />
<path d="M186.5451 185.3297
L186.6879 185.2583
" />
<path d="M186.6879 185.2583
L186.9736 185.2583
" />
<path d="M186.9736 185.2583
L187.1165 185.3297
" />
<path d="M187.1165 185.3297
L187.1879 185.4011
" />
<path d="M187.1879 185.4011
L187.2593 185.5440
" />
<path d="M187.2593 185.5440
L187.2593 185.9726
" />
<path d="M187.2593 185.9726
L187.1879 186.1154
" />
<path d="M187.1879 186.1154
L187.1165 186.1868
" />
<path d="M187.1165 186.1868
L186.9736 186.2583
" />
<path d="M186.9736 186.2583
L186.6879 186.2583
" />
<path d="M186.6879 186.2583
L186.5451 186.1868
" />
<path d="M187.9022 186.2583
L187.9022 184.7583
" />
<path d="M187.9022 184.7583
L188.4736 184.7583
" />
<path d="M188.4736 184.7583
L188.6165 184.8297
" />
<path d="M188.6165 184.8297
L188.6879 184.9011
" />
<path d="M188.6879 184.9011
L188.7593 185.0440
" />
<path d="M188.7593 185.0440
L188.7593 185.2583
" />
<path d="M188.7593 185.2583
L188.6879 185.4011
" />
<path d="M188.6879 185.4011
L188.6165 185.4726
" />
<path d="M188.6165 185.4726
L188.4736 185.5440
" />
<path d="M188.4736 185.5440
L187.9022 185.5440
" />
<path d="M190.2593 186.1154
L190.1879 186.1868
" />
<path d="M190.1879 186.1868
L189.9736 186.2583
" />
<path d="M189.9736 186.2583
L189.8308 186.2583
" />
<path d="M189.8308 186.2583
L189.6165 186.1868
" />
<path d="M189.6165 186.1868
L189.4736 186.0440
" />
<path d="M189.4736 186.0440
L189.4022 185.9011
" />
<path d="M189.4022 185.9011
L189.3308 185.6154
" />
<path d="M189.3308 185.6154
L189.3308 185.4011
" />
<path d="M189.3308 185.4011
L189.4022 185.1154
" />
<path d="M189.4022 185.1154
L189.4736 184.9726
" />
<path d="M189.4736 184.9726
L189.6165 184.8297
" />
<path d="M189.6165 184.8297
L189.8308 184.7583
" />
<path d="M189.8308 184.7583
L189.9736 184.7583
" />
<path d="M189.9736 184.7583
L190.1879 184.8297
" />
<path d="M190.1879 184.8297
L190.2593 184.9011
" />
<path d="M191.4022 185.4726
L191.6165 185.5440
" />
<path d="M191.6165 185.5440
L191.6879 185.6154
" />
<path d="M191.6879 185.6154
L191.7593 185.7583
" />
<path d="M191.7593 185.7583
L191.7593 185.9726
" />
<path d="M191.7593 185.9726
L191.6879 186.1154
" />
<path d="M191.6879 186.1154
L191.6165 186.1868
" />
<path d="M191.6165 186.1868
L191.4736 186.2583
" />
<path d="M191.4736 186.2583
L190.9022 186.2583
" />
<path d="M190.9022 186.2583
L190.9022 184.7583
" />
<path d="M190.9022 184.7583
L191.4022 184.7583
" />
<path d="M191.4022 184.7583
L191.5451 184.8297
" />
<path d="M191.5451 184.8297
L191.6165 184.9011
" />
<path d="M191.6165 184.9011
L191.6879 185.0440
" />
<path d="M191.6879 185.0440
L191.6879 185.1868
" />
<path d="M191.6879 185.1868
L191.6165 185.3297
" />
<path d="M191.6165 185.3297
L191.5451 185.4011
" />
<path d="M191.5451 185.4011
L191.4022 185.4726
" />
<path d="M191.4022 185.4726
L190.9022 185.4726
" />
<path d="M192.4022 186.1154
L192.4736 186.1868
" />
<path d="M192.4736 186.1868
L192.4022 186.2583
" />
<path d="M192.4022 186.2583
L192.3308 186.1868
" />
<path d="M192.3308 186.1868
L192.4022 186.1154
" />
<path d="M192.4022 186.1154
L192.4022 186.2583
" />
<path d="M193.1165 186.2583
L193.1165 184.7583
" />
<path d="M193.2593 185.6868
L193.6879 186.2583
" />
<path d="M193.6879 185.2583
L193.1165 185.8297
" />
<path d="M194.3308 186.2583
L194.3308 185.2583
" />
<path d="M194.3308 184.7583
L194.2593 184.8297
" />
<path d="M194.2593 184.8297
L194.3308 184.9011
" />
<path d="M194.3308 184.9011
L194.4022 184.8297
" />
<path d="M194.4022 184.8297
L194.3308 184.7583
" />
<path d="M194.3308 184.7583
L194.3308 184.9011
" />
<path d="M195.6879 186.1868
L195.5451 186.2583
" />
<path d="M195.5451 186.2583
L195.2593 186.2583
" />
<path d="M195.2593 186.2583
L195.1165 186.1868
" />
<path d="M195.1165 186.1868
L195.0451 186.1154
" />
<path d="M195.0451 186.1154
L194.9736 185.9726
" />
<path d="M194.9736 185.9726
L194.9736 185.5440
" />
<path d="M194.9736 185.5440
L195.0451 185.4011
" />
<path d="M195.0451 185.4011
L195.1165 185.3297
" />
<path d="M195.1165 185.3297
L195.2593 185.2583
" />
<path d="M195.2593 185.2583
L195.5451 185.2583
" />
<path d="M195.5451 185.2583
L195.6879 185.3297
" />
<path d="M196.9736 186.2583
L196.9736 185.4726
" />
<path d="M196.9736 185.4726
L196.9022 185.3297
" />
<path d="M196.9022 185.3297
L196.7593 185.2583
" />
<path d="M196.7593 185.2583
L196.4736 185.2583
" />
<path d="M196.4736 185.2583
L196.3308 185.3297
" />
<path d="M196.9736 186.1868
L196.8308 186.2583
" />
<path d="M196.8308 186.2583
L196.4736 186.2583
" />
<path d="M196.4736 186.2583
L196.3308 186.1868
" />
<path d="M196.3308 186.1868
L196.2593 186.0440
" />
<path d="M196.2593 186.0440
L196.2593 185.9011
" />
<path d="M196.2593 185.9011
L196.3308 185.7583
" />
<path d="M196.3308 185.7583
L196.4736 185.6868
" />
<path d="M196.4736 185.6868
L196.8308 185.6868
" />
<path d="M196.8308 185.6868
L196.9736 185.6154
" />
<path d="M198.3308 186.2583
L198.3308 184.7583
" />
<path d="M198.3308 186.1868
L198.1879 186.2583
" />
<path d="M198.1879 186.2583
L197.9022 186.2583
" />
<path d="M197.9022 186.2583
L197.7593 186.1868
" />
<path d="M197.7593 186.1868
L197.6879 186.1154
" />
<path d="M197.6879 186.1154
L197.6165 185.9726
" />
<path d="M197.6165 185.9726
L197.6165 185.5440
" />
<path d="M197.6165 185.5440
L197.6879 185.4011
" />
<path d="M197.6879 185.4011
L197.7593 185.3297
" />
<path d="M197.7593 185.3297
L197.9022 185.2583
" />
<path d="M197.9022 185.2583
L198.1879 185.2583
" />
<path d="M198.1879 185.2583
L198.3308 185.3297
" />
<path d="M198.6879 186.4011
L199.8308 186.4011
" />
<path d="M200.1879 185.2583
L200.1879 186.7583
" />
<path d="M200.1879 185.3297
L200.3308 185.2583
" />
<path d="M200.3308 185.2583
L200.6165 185.2583
" />
<path d="M200.6165 185.2583
L200.7593 185.3297
" />
<path d="M200.7593 185.3297
L200.8308 185.4011
" />
<path d="M200.8308 185.4011
L200.9022 185.5440
" />
<path d="M200.9022 185.5440
L200.9022 185.9726
" />
<path d="M200.9022 185.9726
L200.8308 186.1154
" />
<path d="M200.8308 186.1154
L200.7593 186.1868
" />
<path d="M200.7593 186.1868
L200.6165 186.2583
" />
<path d="M200.6165 186.2583
L200.3308 186.2583
" />
<path d="M200.3308 186.2583
L200.1879 186.1868
" />
<path d="M202.1879 186.1868
L202.0451 186.2583
" />
<path d="M202.0451 186.2583
L201.7593 186.2583
" />
<path d="M201.7593 186.2583
L201.6165 186.1868
" />
<path d="M201.6165 186.1868
L201.5451 186.1154
" />
<path d="M201.5451 186.1154
L201.4736 185.9726
" />
<path d="M201.4736 185.9726
L201.4736 185.5440
" />
<path d="M201.4736 185.5440
L201.5451 185.4011
" />
<path d="M201.5451 185.4011
L201.6165 185.3297
" />
<path d="M201.6165 185.3297
L201.7593 185.2583
" />
<path d="M201.7593 185.2583
L202.0451 185.2583
" />
<path d="M202.0451 185.2583
L202.1879 185.3297
" />
<path d="M202.8308 186.2583
L202.8308 184.7583
" />
<path d="M202.8308 185.3297
L202.9736 185.2583
" />
<path d="M202.9736 185.2583
L203.2593 185.2583
" />
<path d="M203.2593 185.2583
L203.4022 185.3297
" />
<path d="M203.4022 185.3297
L203.4736 185.4011
" />
<path d="M203.4736 185.4011
L203.5451 185.5440
" />
<path d="M203.5451 185.5440
L203.5451 185.9726
" />
<path d="M203.5451 185.9726
L203.4736 186.1154
" />
<path d="M203.4736 186.1154
L203.4022 186.1868
" />
<path d="M203.4022 186.1868
L203.2593 186.2583
" />
<path d="M203.2593 186.2583
L202.9736 186.2583
" />
<path d="M202.9736 186.2583
L202.8308 186.1868
" />
</g></g>
<g style="fill:#000000; fill-opacity:0.0; 
stroke:#000000; stroke-width:0.0212; stroke-opacity:1; 
stroke-linecap:round; stroke-linejoin:round;">
</g>
<g style="fill:#000000; fill-opacity:0.0; 
stroke:#000000; stroke-width:0.1500; stroke-opacity:1; 
stroke-linecap:round; stroke-linejoin:round;">
<path d="M177.0022 181.5072
L285.0022 181.5072
" />
</g>
<g style="fill:#000000; fill-opacity:0.0; 
stroke:#000000; stroke-width:0.0212; stroke-opacity:1; 
stroke-linecap:round; stroke-linejoin:round;">
</g>
<g style="fill:#000000; fill-opacity:0.0; 
stroke:#000000; stroke-width:0.1500; stroke-opacity:1; 
stroke-linecap:round; stroke-linejoin:round;">
<text x="178.0022" y="183.7572"
textLength="7.9036" font-size="2.0000" lengthAdjust="spacingAndGlyphs"
text-anchor="start" opacity="0">Sheet: </text>
<g class="stroked-text"><desc>Sheet: </desc>
<path d="M178.2879 183.4868
L178.5022 183.5583
" />
<path d="M178.5022 183.5583
L178.8593 183.5583
" />
<path d="M178.8593 183.5583
L179.0022 183.4868
" />
<path d="M179.0022 183.4868
L179.0736 183.4154
" />
<path d="M179.0736 183.4154
L179.1451 183.2726
" />
<path d="M179.1451 183.2726
L179.1451 183.1297
" />
<path d="M179.1451 183.1297
L179.0736 182.9868
" />
<path d="M179.0736 182.9868
L179.0022 182.9154
" />
<path d="M179.0022 182.9154
L178.8593 182.8440
" />
<path d="M178.8593 182.8440
L178.5736 182.7726
" />
<path d="M178.5736 182.7726
L178.4308 182.7011
" />
<path d="M178.4308 182.7011
L178.3593 182.6297
" />
<path d="M178.3593 182.6297
L178.2879 182.4868
" />
<path d="M178.2879 182.4868
L178.2879 182.3440
" />
<path d="M178.2879 182.3440
L178.3593 182.2011
" />
<path d="M178.3593 182.2011
L178.4308 182.1297
" />
<path d="M178.4308 182.1297
L178.5736 182.0583
" />
<path d="M178.5736 182.0583
L178.9308 182.0583
" />
<path d="M178.9308 182.0583
L179.1451 182.1297
" />
<path d="M179.7879 183.5583
L179.7879 182.0583
" />
<path d="M180.4308 183.5583
L180.4308 182.7726
" />
<path d="M180.4308 182.7726
L180.3593 182.6297
" />
<path d="M180.3593 182.6297
L180.2165 182.5583
" />
<path d="M180.2165 182.5583
L180.0022 182.5583
" />
<path d="M180.0022 182.5583
L179.8593 182.6297
" />
<path d="M179.8593 182.6297
L179.7879 182.7011
" />
<path d="M181.7165 183.4868
L181.5736 183.5583
" />
<path d="M181.5736 183.5583
L181.2879 183.5583
" />
<path d="M181.2879 183.5583
L181.1451 183.4868
" />
<path d="M181.1451 183.4868
L181.0736 183.3440
" />
<path d="M181.0736 183.3440
L181.0736 182.7726
" />
<path d="M181.0736 182.7726
L181.1451 182.6297
" />
<path d="M181.1451 182.6297
L181.2879 182.5583
" />
<path d="M181.2879 182.5583
L181.5736 182.5583
" />
<path d="M181.5736 182.5583
L181.7165 182.6297
" />
<path d="M181.7165 182.6297
L181.7879 182.7726
" />
<path d="M181.7879 182.7726
L181.7879 182.9154
" />
<path d="M181.7879 182.9154
L181.0736 183.0583
" />
<path d="M183.0022 183.4868
L182.8593 183.5583
" />
<path d="M182.8593 183.5583
L182.5736 183.5583
" />
<path d="M182.5736 183.5583
L182.4308 183.4868
" />
<path d="M182.4308 183.4868
L182.3593 183.3440
" />
<path d="M182.3593 183.3440
L182.3593 182.7726
" />
<path d="M182.3593 182.7726
L182.4308 182.6297
" />
<path d="M182.4308 182.6297
L182.5736 182.5583
" />
<path d="M182.5736 182.5583
L182.8593 182.5583
" />
<path d="M182.8593 182.5583
L183.0022 182.6297
" />
<path d="M183.0022 182.6297
L183.0736 182.7726
" />
<path d="M183.0736 182.7726
L183.0736 182.9154
" />
<path d="M183.0736 182.9154
L182.3593 183.0583
" />
<path d="M183.5022 182.5583
L184.0736 182.5583
" />
<path d="M183.7165 182.0583
L183.7165 183.3440
" />
<path d="M183.7165 183.3440
L183.7879 183.4868
" />
<path d="M183.7879 183.4868
L183.9308 183.5583
" />
<path d="M183.9308 183.5583
L184.0736 183.5583
" />
<path d="M184.5736 183.4154
L184.6451 183.4868
" />
<path d="M184.6451 183.4868
L184.5736 183.5583
" />
<path d="M184.5736 183.5583
L184.5022 183.4868
" />
<path d="M184.5022 183.4868
L184.5736 183.4154
" />
<path d="M184.5736 183.4154
L184.5736 183.5583
" />
<path d="M184.5736 182.6297
L184.6451 182.7011
" />
<path d="M184.6451 182.7011
L184.5736 182.7726
" />
<path d="M184.5736 182.7726
L184.5022 182.7011
" />
<path d="M184.5022 182.7011
L184.5736 182.6297
" />
<path d="M184.5736 182.6297
L184.5736 182.7726
" />
</g></g>
<g style="fill:#000000; fill-opacity:0.0; 
stroke:#000000; stroke-width:0.0212; stroke-opacity:1; 
stroke-linecap:round; stroke-linejoin:round;">
</g>
<g style="fill:#000000; fill-opacity:0.0; 
stroke:#000000; stroke-width:0.3000; stroke-opacity:1; 
stroke-linecap:round; stroke-linejoin:round;">
<text x="178.0022" y="180.7572"
textLength="0.7500" font-size="2.0000" lengthAdjust="spacingAndGlyphs"
text-anchor="start" opacity="0"></text>
<g class="stroked-text"><desc></desc>
</g></g>
<g style="fill:#000000; fill-opacity:0.0; 
stroke:#000000; stroke-width:0.0212; stroke-opacity:1; 
stroke-linecap:round; stroke-linejoin:round;">
</g>
<g style="fill:#000000; fill-opacity:0.0; 
stroke:#000000; stroke-width:0.1500; stroke-opacity:1; 
stroke-linecap:round; stroke-linejoin:round;">
<text x="178.0022" y="177.7572"
textLength="0.3750" font-size="2.0000" lengthAdjust="spacingAndGlyphs"
text-anchor="start" opacity="0"></text>
<g class="stroked-text"><desc></desc>
</g></g>
<g style="fill:#000000; fill-opacity:0.0; 
stroke:#000000; stroke-width:0.0212; stroke-opacity:1; 
stroke-linecap:round; stroke-linejoin:round;">
</g>
<g style="fill:#000000; fill-opacity:0.0; 
stroke:#000000; stroke-width:0.1500; stroke-opacity:1; 
stroke-linecap:round; stroke-linejoin:round;">
<text x="178.0022" y="174.7572"
textLength="0.3750" font-size="2.0000" lengthAdjust="spacingAndGlyphs"
text-anchor="start" opacity="0"></text>
<g class="stroked-text"><desc></desc>
</g></g>
<g style="fill:#000000; fill-opacity:0.0; 
stroke:#000000; stroke-width:0.0212; stroke-opacity:1; 
stroke-linecap:round; stroke-linejoin:round;">
</g>
<g style="fill:#000000; fill-opacity:0.0; 
stroke:#000000; stroke-width:0.1500; stroke-opacity:1; 
stroke-linecap:round; stroke-linejoin:round;">
<text x="178.0022" y="171.7572"
textLength="0.3750" font-size="2.0000" lengthAdjust="spacingAndGlyphs"
text-anchor="start" opacity="0"></text>
<g class="stroked-text"><desc></desc>
</g></g>
<g style="fill:#000000; fill-opacity:0.0; 
stroke:#000000; stroke-width:0.0212; stroke-opacity:1; 
stroke-linecap:round; stroke-linejoin:round;">
</g>
<g style="fill:#000000; fill-opacity:0.0; 
stroke:#000000; stroke-width:0.1500; stroke-opacity:1; 
stroke-linecap:round; stroke-linejoin:round;">
<text x="178.0022" y="168.7572"
textLength="0.3750" font-size="2.0000" lengthAdjust="spacingAndGlyphs"
text-anchor="start" opacity="0"></text>
<g class="stroked-text"><desc></desc>
</g></g>
<g style="fill:#000000; fill-opacity:0.0; 
stroke:#000000; stroke-width:0.0212; stroke-opacity:1; 
stroke-linecap:round; stroke-linejoin:round;">
</g>
<g style="fill:#000000; fill-opacity:0.0; 
stroke:#000000; stroke-width:0.1500; stroke-opacity:1; 
stroke-linecap:round; stroke-linejoin:round;">
<path d="M197.0022 191.5072
L197.0022 194.5072
" />
</g>
<g style="fill:#000000; fill-opacity:0.0; 
stroke:#000000; stroke-width:0.0212; stroke-opacity:1; 
stroke-linecap:round; stroke-linejoin:round;">
</g>
<g style="fill:#000000; fill-opacity:0.0; 
stroke:#000000; stroke-width:0.1500; stroke-opacity:1; 
stroke-linecap:round; stroke-linejoin:round;">
<path d="M261.0022 191.5072
L261.0022 198.0072
" />
<g >
</g>
<g style="fill:#B4A09A; fill-opacity:0.0; 
stroke:#B4A09A; stroke-width:0.1500; stroke-opacity:1; 
stroke-linecap:round; stroke-linejoin:round;">
</g>
<g style="fill:#B4A09A; fill-opacity:0.0; 
stroke:#B4A09A; stroke-width:0.0000; stroke-opacity:1; 
stroke-linecap:round; stroke-linejoin:round;">
</g>
<g style="fill:#B4A09A; fill-opacity:0.9000; 
stroke:#B4A09A; stroke-width:0.0000; stroke-opacity:1; 
stroke-linecap:round; stroke-linejoin:round;">
<path style="fill:#B4A09A; fill-opacity:0.9000; 
stroke:#B4A09A; stroke-width:0.0000; stroke-opacity:1; 
stroke-linecap:round; stroke-linejoin:round;fill-rule:evenodd;"
d="M 78.8650,38.8050
78.8840,38.7093
78.9382,38.6282
79.0193,38.5740
79.1150,38.5550
79.6250,38.5550
79.7207,38.5740
79.8018,38.6282
79.8560,38.7093
79.8750,38.8050
79.8750,39.5950
79.8560,39.6907
79.8018,39.7718
79.7207,39.8260
79.6250,39.8450
79.1150,39.8450
79.0193,39.8260
78.9382,39.7718
78.8840,39.6907
78.8650,39.5950
Z" /> 
<path style="fill:#B4A09A; fill-opacity:0.9000; 
stroke:#B4A09A; stroke-width:0.0000; stroke-opacity:1; 
stroke-linecap:round; stroke-linejoin:round;fill-rule:evenodd;"
d="M 78.8650,40.4050
78.8840,40.3093
78.9382,40.2282
79.0193,40.1740
79.1150,40.1550
79.6250,40.1550
79.7207,40.1740
79.8018,40.2282
79.8560,40.3093
79.8750,40.4050
79.8750,41.1950
79.8560,41.2907
79.8018,41.3718
79.7207,41.4260
79.6250,41.4450
79.1150,41.4450
79.0193,41.4260
78.9382,41.3718
78.8840,41.2907
78.8650,41.1950
Z" /> 
<path style="fill:#B4A09A; fill-opacity:0.9000; 
stroke:#B4A09A; stroke-width:0.0000; stroke-opacity:1; 
stroke-linecap:round; stroke-linejoin:round;fill-rule:evenodd;"
d="M 80.1250,38.8050
80.1440,38.7093
80.1982,38.6282
80.2793,38.5740
80.3750,38.5550
80.8850,38.5550
80.9807,38.5740
81.0618,38.6282
81.1160,38.7093
81.1350,38.8050
81.1350,39.5950
81.1160,39.6907
81.0618,39.7718
80.9807,39.8260
80.8850,39.8450
80.3750,39.8450
80.2793,39.8260
80.1982,39.7718
80.1440,39.6907
80.1250,39.5950
Z" /> 
<path style="fill:#B4A09A; fill-opacity:0.9000; 
stroke:#B4A09A; stroke-width:0.0000; stroke-opacity:1; 
stroke-linecap:round; stroke-linejoin:round;fill-rule:evenodd;"
d="M 80.1250,40.4050
80.1440,40.3093
80.1982,40.2282
80.2793,40.1740
80.3750,40.1550
80.8850,40.1550
80.9807,40.1740
81.0618,40.2282
81.1160,40.3093
81.1350,40.4050
81.1350,41.1950
81.1160,41.2907
81.0618,41.3718
80.9807,41.4260
80.8850,41.4450
80.3750,41.4450
80.2793,41.4260
80.1982,41.3718
80.1440,41.2907
80.1250,41.1950
Z" /> 
<path style="fill:#B4A09A; fill-opacity:0.9000; 
stroke:#B4A09A; stroke-width:0.0000; stroke-opacity:1; 
stroke-linecap:round; stroke-linejoin:round;fill-rule:evenodd;"
d="M 76.5500,37.9450
76.5614,37.8876
76.5939,37.8389
76.6426,37.8064
76.7000,37.7950
78.0250,37.7950
78.0824,37.8064
78.1311,37.8389
78.1636,37.8876
78.1750,37.9450
78.1750,38.2450
78.1636,38.3024
78.1311,38.3511
78.0824,38.3836
78.0250,38.3950
76.7000,38.3950
76.6426,38.3836
76.5939,38.3511
76.5614,38.3024
76.5500,38.2450
Z" /> 
<path style="fill:#B4A09A; fill-opacity:0.9000; 
stroke:#B4A09A; stroke-width:0.0000; stroke-opacity:1; 
stroke-linecap:round; stroke-linejoin:round;fill-rule:evenodd;"
d="M 76.5500,39.2150
76.5614,39.1576
76.5939,39.1089
76.6426,39.0764
76.7000,39.0650
78.0250,39.0650
78.0824,39.0764
78.1311,39.1089
78.1636,39.1576
78.1750,39.2150
78.1750,39.5150
78.1636,39.5724
78.1311,39.6211
78.0824,39.6536
78.0250,39.6650
76.7000,39.6650
76.6426,39.6536
76.5939,39.6211
76.5614,39.5724
76.5500,39.5150
Z" /> 
<path style="fill:#B4A09A; fill-opacity:0.9000; 
stroke:#B4A09A; stroke-width:0.0000; stroke-opacity:1; 
stroke-linecap:round; stroke-linejoin:round;fill-rule:evenodd;"
d="M 76.5500,40.4850
76.5614,40.4276
76.5939,40.3789
76.6426,40.3464
76.7000,40.3350
78.0250,40.3350
78.0824,40.3464
78.1311,40.3789
78.1636,40.4276
78.1750,40.4850
78.1750,40.7850
78.1636,40.8424
78.1311,40.8911
78.0824,40.9236
78.0250,40.9350
76.7000,40.9350
76.6426,40.9236
76.5939,40.8911
76.5614,40.8424
76.5500,40.7850
Z" /> 
<path style="fill:#B4A09A; fill-opacity:0.9000; 
stroke:#B4A09A; stroke-width:0.0000; stroke-opacity:1; 
stroke-linecap:round; stroke-linejoin:round;fill-rule:evenodd;"
d="M 76.5500,41.7550
76.5614,41.6976
76.5939,41.6489
76.6426,41.6164
76.7000,41.6050
78.0250,41.6050
78.0824,41.6164
78.1311,41.6489
78.1636,41.6976
78.1750,41.7550
78.1750,42.0550
78.1636,42.1124
78.1311,42.1611
78.0824,42.1936
78.0250,42.2050
76.7000,42.2050
76.6426,42.1936
76.5939,42.1611
76.5614,42.1124
76.5500,42.0550
Z" /> 
<path style="fill:#B4A09A; fill-opacity:0.9000; 
stroke:#B4A09A; stroke-width:0.0000; stroke-opacity:1; 
stroke-linecap:round; stroke-linejoin:round;fill-rule:evenodd;"
d="M 81.8250,41.7550
81.8364,41.6976
81.8689,41.6489
81.9176,41.6164
81.9750,41.6050
83.3000,41.6050
83.3574,41.6164
83.4061,41.6489
83.4386,41.6976
83.4500,41.7550
83.4500,42.0550
83.4386,42.1124
83.4061,42.1611
83.3574,42.1936
83.3000,42.2050
81.9750,42.2050
81.9176,42.1936
81.8689,42.1611
81.8364,42.1124
81.8250,42.0550
Z" /> 
<path style="fill:#B4A09A; fill-opacity:0.9000; 
stroke:#B4A09A; stroke-width:0.0000; stroke-opacity:1; 
stroke-linecap:round; stroke-linejoin:round;fill-rule:evenodd;"
d="M 81.8250,40.4850
81.8364,40.4276
81.8689,40.3789
81.9176,40.3464
81.9750,40.3350
83.3000,40.3350
83.3574,40.3464
83.4061,40.3789
83.4386,40.4276
83.4500,40.4850
83.4500,40.7850
83.4386,40.8424
83.4061,40.8911
83.3574,40.9236
83.3000,40.9350
81.9750,40.9350
81.9176,40.9236
81.8689,40.8911
81.8364,40.8424
81.8250,40.7850
Z" /> 
<path style="fill:#B4A09A; fill-opacity:0.9000; 
stroke:#B4A09A; stroke-width:0.0000; stroke-opacity:1; 
stroke-linecap:round; stroke-linejoin:round;fill-rule:evenodd;"
d="M 81.8250,39.2150
81.8364,39.1576
81.8689,39.1089
81.9176,39.0764
81.9750,39.0650
83.3000,39.0650
83.3574,39.0764
83.4061,39.1089
83.4386,39.1576
83.4500,39.2150
83.4500,39.5150
83.4386,39.5724
83.4061,39.6211
83.3574,39.6536
83.3000,39.6650
81.9750,39.6650
81.9176,39.6536
81.8689,39.6211
81.8364,39.5724
81.8250,39.5150
Z" /> 
<path style="fill:#B4A09A; fill-opacity:0.9000; 
stroke:#B4A09A; stroke-width:0.0000; stroke-opacity:1; 
stroke-linecap:round; stroke-linejoin:round;fill-rule:evenodd;"
d="M 81.8250,37.9450
81.8364,37.8876
81.8689,37.8389
81.9176,37.8064
81.9750,37.7950
83.3000,37.7950
83.3574,37.8064
83.4061,37.8389
83.4386,37.8876
83.4500,37.9450
83.4500,38.2450
83.4386,38.3024
83.4061,38.3511
83.3574,38.3836
83.3000,38.3950
81.9750,38.3950
81.9176,38.3836
81.8689,38.3511
81.8364,38.3024
81.8250,38.2450
Z" /> 
</g>
<g >
</g>
<g >
</g>
<g style="fill:#B4A09A; fill-opacity:0.9000; 
stroke:#B4A09A; stroke-width:0.0000; stroke-opacity:1; 
stroke-linecap:round; stroke-linejoin:round;">
<path style="fill:#B4A09A; fill-opacity:0.9000; 
stroke:#B4A09A; stroke-width:0.0000; stroke-opacity:1; 
stroke-linecap:round; stroke-linejoin:round;fill-rule:evenodd;"
d="M 76.2866,44.0105
76.2695,44.0623
76.2338,44.1037
76.1850,44.1283
76.1306,44.1324
75.8526,44.0982
75.8008,44.0811
75.7594,44.0455
75.7348,43.9967
75.7308,43.9422
75.7722,43.6048
75.7893,43.5529
75.8250,43.5115
75.8737,43.4869
75.9282,43.4829
76.2061,43.5170
76.2580,43.5341
76.2994,43.5697
76.3240,43.6185
76.3280,43.6730
Z" /> 
<path style="fill:#B4A09A; fill-opacity:0.9000; 
stroke:#B4A09A; stroke-width:0.0000; stroke-opacity:1; 
stroke-linecap:round; stroke-linejoin:round;fill-rule:evenodd;"
d="M 77.2394,44.1275
77.2223,44.1793
77.1867,44.2207
77.1379,44.2453
77.0834,44.2494
76.8055,44.2152
76.7536,44.1981
76.7122,44.1625
76.6876,44.1137
76.6836,44.0592
76.7250,43.7218
76.7421,43.6699
76.7778,43.6285
76.8266,43.6039
76.8810,43.5999
77.1590,43.6340
77.2108,43.6511
77.2522,43.6867
77.2768,43.7355
77.2809,43.7900
Z" /> 
</g>
<g >
</g>
<g style="fill:#B4A09A; fill-opacity:0.9000; 
stroke:#B4A09A; stroke-width:0.0000; stroke-opacity:1; 
stroke-linecap:round; stroke-linejoin:round;">
<path style="fill:#B4A09A; fill-opacity:0.9000; 
stroke:#B4A09A; stroke-width:0.0000; stroke-opacity:1; 
stroke-linecap:round; stroke-linejoin:round;fill-rule:evenodd;"
d="M 77.2936,43.0164
77.2811,43.0696
77.2492,43.1139
77.2027,43.1427
77.1488,43.1514
76.8690,43.1417
76.8158,43.1292
76.7715,43.0972
76.7427,43.0508
76.7339,42.9969
76.7458,42.6571
76.7583,42.6039
76.7902,42.5596
76.8367,42.5308
76.8906,42.5221
77.1704,42.5318
77.2236,42.5443
77.2679,42.5763
77.2967,42.6227
77.3055,42.6766
Z" /> 
<path style="fill:#B4A09A; fill-opacity:0.9000; 
stroke:#B4A09A; stroke-width:0.0000; stroke-opacity:1; 
stroke-linecap:round; stroke-linejoin:round;fill-rule:evenodd;"
d="M 76.3342,42.9829
76.3217,43.0361
76.2898,43.0804
76.2433,43.1092
76.1894,43.1179
75.9096,43.1082
75.8564,43.0957
75.8121,43.0637
75.7833,43.0173
75.7745,42.9634
75.7864,42.6236
75.7989,42.5704
75.8308,42.5261
75.8773,42.4973
75.9312,42.4886
76.2110,42.4983
76.2642,42.5108
76.3085,42.5428
76.3373,42.5892
76.3461,42.6431
Z" /> 
</g>
<g >
</g>
<g style="fill:#B4A09A; fill-opacity:0.9000; 
stroke:#B4A09A; stroke-width:0.0000; stroke-opacity:1; 
stroke-linecap:round; stroke-linejoin:round;">
<path style="fill:#B4A09A; fill-opacity:0.9000; 
stroke:#B4A09A; stroke-width:0.0000; stroke-opacity:1; 
stroke-linecap:round; stroke-linejoin:round;fill-rule:evenodd;"
d="M 78.0794,44.4097
78.0344,44.3824
78.0032,44.3399
77.9907,44.2887
77.9987,44.2367
78.0910,43.9829
78.1184,43.9379
78.1608,43.9068
78.2120,43.8942
78.2641,43.9023
78.6118,44.0288
78.6568,44.0561
78.6879,44.0986
78.7005,44.1498
78.6924,44.2018
78.6001,44.4555
78.5728,44.5006
78.5303,44.5317
78.4791,44.5442
78.4271,44.5362
Z" /> 
<path style="fill:#B4A09A; fill-opacity:0.9000; 
stroke:#B4A09A; stroke-width:0.0000; stroke-opacity:1; 
stroke-linecap:round; stroke-linejoin:round;fill-rule:evenodd;"
d="M 78.4282,43.4512
78.3832,43.4239
78.3521,43.3814
78.3395,43.3302
78.3476,43.2782
78.4399,43.0245
78.4672,42.9794
78.5097,42.9483
78.5609,42.9358
78.6129,42.9438
78.9606,43.0703
79.0057,43.0976
79.0368,43.1401
79.0493,43.1913
79.0413,43.2433
78.9490,43.4971
78.9216,43.5421
78.8792,43.5732
78.8280,43.5858
78.7759,43.5777
Z" /> 
</g>
<g >
</g>
<g >
</g>
<g style="fill:#B4A09A; fill-opacity:0.9000; 
stroke:#B4A09A; stroke-width:0.0000; stroke-opacity:1; 
stroke-linecap:round; stroke-linejoin:round;">
<path style="fill:#B4A09A; fill-opacity:0.9000; 
stroke:#B4A09A; stroke-width:0.0000; stroke-opacity:1; 
stroke-linecap:round; stroke-linejoin:round;fill-rule:evenodd;"
d="M 79.1530,44.4447
79.1071,44.4189
79.0745,44.3776
79.0602,44.3269
79.0663,44.2745
79.1498,44.0178
79.1755,43.9718
79.2169,43.9392
79.2676,43.9249
79.3199,43.9311
79.6718,44.0454
79.7177,44.0712
79.7503,44.1125
79.7646,44.1632
79.7585,44.2155
79.6750,44.4723
79.6493,44.5183
79.6079,44.5509
79.5572,44.5652
79.5049,44.5590
Z" /> 
<path style="fill:#B4A09A; fill-opacity:0.9000; 
stroke:#B4A09A; stroke-width:0.0000; stroke-opacity:1; 
stroke-linecap:round; stroke-linejoin:round;fill-rule:evenodd;"
d="M 79.4682,43.4746
79.4223,43.4488
79.3897,43.4075
79.3754,43.3568
79.3815,43.3045
79.4650,43.0477
79.4907,43.0017
79.5321,42.9691
79.5828,42.9548
79.6351,42.9610
79.9870,43.0753
80.0329,43.1011
80.0655,43.1424
80.0798,43.1931
80.0737,43.2455
79.9902,43.5022
79.9645,43.5482
79.9231,43.5808
79.8724,43.5951
79.8201,43.5889
Z" /> 
</g>
<g >
</g>
<g >
</g>
<g >
</g>
<g >
</g>
<g >
</g>
<g >
</g>
</g>
<g style="fill:#000000; fill-opacity:1.0000; 
stroke:#000000; stroke-width:0.0000; stroke-opacity:1; 
stroke-linecap:round; stroke-linejoin:round;">
</g>
<g style="fill:#D0D2CD; fill-opacity:1.0000; 
stroke:#D0D2CD; stroke-width:0.0000; stroke-opacity:1; 
stroke-linecap:round; stroke-linejoin:round;">
</g>
<g style="fill:#D0D2CD; fill-opacity:0.0; 
stroke:#D0D2CD; stroke-width:0.0100; stroke-opacity:1; 
stroke-linecap:round; stroke-linejoin:round;">
<path d="M79.9392,44.4283 C79.8503,44.5591 79.7760,44.7236 79.7097,44.9381" />
<path d="M75.9856,40.0133 C75.9950,39.9592 76.0004,39.9025 76.0040,39.8220" />
<path d="M74.3691 45.2694 A7.7119 7.7119 0.0 0 0 78.8766 47.6297" />
<path d="M75.9383 40.1995
L74.3691 45.2694
" />
<path d="M80.2362,44.1357 C80.1157,44.2138 80.0197,44.3097 79.9392,44.4283" />
<path d="M80.8326,43.9124 C80.5772,43.9667 80.3865,44.0382 80.2362,44.1357" />
<path d="M78.8766 47.6297
L79.7097 44.9381
" />
<path d="M80.8326 43.9124 A4.0000 4.0000 0.0 1 0 76.0040 39.8220" />
<path d="M75.9383,40.1995 C75.9621,40.1225 75.9762,40.0673 75.9856,40.0133" />
<g >
</g>
<g >
</g>
<g >
</g>
<g >
</g>
<g >
</g>
<g >
</g>
<g >
</g>
<g >
</g>
<g >
</g>
<g >
</g>
<g >
</g>
<g >
</g>
<g >
</g>
</g> 
</svg>
