%TF.GenerationSoftware,KiCad,Pcbnew,(7.0.0-0)*%
%TF.CreationDate,2023-11-27T19:54:33+08:00*%
%TF.ProjectId,TopPCB,546f7050-4342-42e6-9b69-6361645f7063,rev?*%
%TF.SameCoordinates,Original*%
%TF.FileFunction,Drillmap*%
%TF.FilePolarity,Positive*%
%FSLAX45Y45*%
G04 Gerber Fmt 4.5, Leading zero omitted, Abs format (unit mm)*
G04 Created by KiCad (PCBNEW (7.0.0-0)) date 2023-11-27 19:54:33*
%MOMM*%
%LPD*%
G01*
G04 APERTURE LIST*
%ADD10C,0.010000*%
%ADD11C,0.200000*%
%ADD12C,0.040000*%
G04 APERTURE END LIST*
D10*
X8083261Y-4391239D02*
X8076195Y-4392937D01*
X8069477Y-4394704D01*
X8063094Y-4396543D01*
X8057034Y-4398456D01*
X8051287Y-4400447D01*
X8045839Y-4402517D01*
X8040680Y-4404671D01*
X8035797Y-4406910D01*
X8031179Y-4409238D01*
X8026814Y-4411658D01*
X8022691Y-4414171D01*
X8018796Y-4416782D01*
X8015120Y-4419494D01*
X8011649Y-4422308D01*
X8008373Y-4425227D01*
X8005278Y-4428256D01*
X8002355Y-4431396D01*
X7999590Y-4434650D01*
X7996972Y-4438021D01*
X7994490Y-4441513D01*
X7992131Y-4445127D01*
X7989884Y-4448867D01*
X7987736Y-4452735D01*
X7985677Y-4456735D01*
X7983695Y-4460869D01*
X7981777Y-4465141D01*
X7979911Y-4469552D01*
X7978087Y-4474106D01*
X7976292Y-4478806D01*
X7974515Y-4483654D01*
X7972744Y-4488654D01*
X7970966Y-4493808D01*
X7598562Y-4001327D02*
X7598733Y-4000310D01*
X7598896Y-3999284D01*
X7599049Y-3998245D01*
X7599195Y-3997191D01*
X7599332Y-3996118D01*
X7599461Y-3995023D01*
X7599583Y-3993903D01*
X7599697Y-3992756D01*
X7599805Y-3991577D01*
X7599906Y-3990365D01*
X7600001Y-3989115D01*
X7600090Y-3987825D01*
X7600174Y-3986491D01*
X7600253Y-3985111D01*
X7600327Y-3983682D01*
X7600396Y-3982200D01*
X7436911Y-4526941D02*
G75*
G03*
X7887662Y-4762965I563089J526941D01*
G01*
X7593825Y-4019950D02*
X7436911Y-4526941D01*
X7887662Y-4762965D02*
X7970966Y-4493808D01*
X8083261Y-4391238D02*
G75*
G03*
X7600396Y-3982200I-83261J391238D01*
G01*
X7593825Y-4019950D02*
X7594261Y-4018531D01*
X7594674Y-4017161D01*
X7595067Y-4015835D01*
X7595438Y-4014552D01*
X7595790Y-4013308D01*
X7596123Y-4012099D01*
X7596437Y-4010924D01*
X7596734Y-4009778D01*
X7597014Y-4008659D01*
X7597278Y-4007565D01*
X7597526Y-4006491D01*
X7597760Y-4005434D01*
X7597979Y-4004393D01*
X7598186Y-4003363D01*
X7598379Y-4002342D01*
X7598562Y-4001327D01*
D11*
D12*
X7593722Y-4101223D02*
X7633722Y-4141223D01*
X7633722Y-4101223D02*
X7593722Y-4141223D01*
X7646000Y-4409000D02*
X7686000Y-4449000D01*
X7686000Y-4409000D02*
X7646000Y-4449000D01*
X7946485Y-4203272D02*
X7986485Y-4243272D01*
X7986485Y-4203272D02*
X7946485Y-4243272D01*
X8079000Y-4252000D02*
X8119000Y-4292000D01*
X8119000Y-4252000D02*
X8079000Y-4292000D01*
X8167569Y-3915056D02*
X8207569Y-3955056D01*
X8207569Y-3915056D02*
X8167569Y-3955056D01*
X8182636Y-4250413D02*
X8222636Y-4290413D01*
X8222636Y-4250413D02*
X8182636Y-4290413D01*
D11*
X7684030Y-5056941D02*
X7684030Y-4856941D01*
X7684030Y-4856941D02*
X7731649Y-4856941D01*
X7731649Y-4856941D02*
X7760221Y-4866465D01*
X7760221Y-4866465D02*
X7779268Y-4885513D01*
X7779268Y-4885513D02*
X7788792Y-4904561D01*
X7788792Y-4904561D02*
X7798316Y-4942656D01*
X7798316Y-4942656D02*
X7798316Y-4971227D01*
X7798316Y-4971227D02*
X7788792Y-5009322D01*
X7788792Y-5009322D02*
X7779268Y-5028370D01*
X7779268Y-5028370D02*
X7760221Y-5047418D01*
X7760221Y-5047418D02*
X7731649Y-5056941D01*
X7731649Y-5056941D02*
X7684030Y-5056941D01*
X7884030Y-5056941D02*
X7884030Y-4923608D01*
X7884030Y-4961703D02*
X7893554Y-4942656D01*
X7893554Y-4942656D02*
X7903078Y-4933132D01*
X7903078Y-4933132D02*
X7922125Y-4923608D01*
X7922125Y-4923608D02*
X7941173Y-4923608D01*
X8007840Y-5056941D02*
X8007840Y-4923608D01*
X8007840Y-4856941D02*
X7998316Y-4866465D01*
X7998316Y-4866465D02*
X8007840Y-4875989D01*
X8007840Y-4875989D02*
X8017363Y-4866465D01*
X8017363Y-4866465D02*
X8007840Y-4856941D01*
X8007840Y-4856941D02*
X8007840Y-4875989D01*
X8131649Y-5056941D02*
X8112601Y-5047418D01*
X8112601Y-5047418D02*
X8103078Y-5028370D01*
X8103078Y-5028370D02*
X8103078Y-4856941D01*
X8236411Y-5056941D02*
X8217363Y-5047418D01*
X8217363Y-5047418D02*
X8207840Y-5028370D01*
X8207840Y-5028370D02*
X8207840Y-4856941D01*
X8432602Y-5056941D02*
X8432602Y-4856941D01*
X8432602Y-4856941D02*
X8499268Y-4999799D01*
X8499268Y-4999799D02*
X8565935Y-4856941D01*
X8565935Y-4856941D02*
X8565935Y-5056941D01*
X8746887Y-5056941D02*
X8746887Y-4952180D01*
X8746887Y-4952180D02*
X8737363Y-4933132D01*
X8737363Y-4933132D02*
X8718316Y-4923608D01*
X8718316Y-4923608D02*
X8680221Y-4923608D01*
X8680221Y-4923608D02*
X8661173Y-4933132D01*
X8746887Y-5047418D02*
X8727840Y-5056941D01*
X8727840Y-5056941D02*
X8680221Y-5056941D01*
X8680221Y-5056941D02*
X8661173Y-5047418D01*
X8661173Y-5047418D02*
X8651649Y-5028370D01*
X8651649Y-5028370D02*
X8651649Y-5009322D01*
X8651649Y-5009322D02*
X8661173Y-4990275D01*
X8661173Y-4990275D02*
X8680221Y-4980751D01*
X8680221Y-4980751D02*
X8727840Y-4980751D01*
X8727840Y-4980751D02*
X8746887Y-4971227D01*
X8842125Y-4923608D02*
X8842125Y-5123608D01*
X8842125Y-4933132D02*
X8861173Y-4923608D01*
X8861173Y-4923608D02*
X8899268Y-4923608D01*
X8899268Y-4923608D02*
X8918316Y-4933132D01*
X8918316Y-4933132D02*
X8927840Y-4942656D01*
X8927840Y-4942656D02*
X8937363Y-4961703D01*
X8937363Y-4961703D02*
X8937363Y-5018846D01*
X8937363Y-5018846D02*
X8927840Y-5037894D01*
X8927840Y-5037894D02*
X8918316Y-5047418D01*
X8918316Y-5047418D02*
X8899268Y-5056941D01*
X8899268Y-5056941D02*
X8861173Y-5056941D01*
X8861173Y-5056941D02*
X8842125Y-5047418D01*
X9023078Y-5037894D02*
X9032602Y-5047418D01*
X9032602Y-5047418D02*
X9023078Y-5056941D01*
X9023078Y-5056941D02*
X9013554Y-5047418D01*
X9013554Y-5047418D02*
X9023078Y-5037894D01*
X9023078Y-5037894D02*
X9023078Y-5056941D01*
X9023078Y-4933132D02*
X9032602Y-4942656D01*
X9032602Y-4942656D02*
X9023078Y-4952180D01*
X9023078Y-4952180D02*
X9013554Y-4942656D01*
X9013554Y-4942656D02*
X9023078Y-4933132D01*
X9023078Y-4933132D02*
X9023078Y-4952180D01*
D12*
X7396411Y-5383465D02*
X7436411Y-5423465D01*
X7436411Y-5383465D02*
X7396411Y-5423465D01*
D11*
X7722125Y-5276941D02*
X7741173Y-5276941D01*
X7741173Y-5276941D02*
X7760221Y-5286465D01*
X7760221Y-5286465D02*
X7769744Y-5295989D01*
X7769744Y-5295989D02*
X7779268Y-5315037D01*
X7779268Y-5315037D02*
X7788792Y-5353132D01*
X7788792Y-5353132D02*
X7788792Y-5400751D01*
X7788792Y-5400751D02*
X7779268Y-5438846D01*
X7779268Y-5438846D02*
X7769744Y-5457894D01*
X7769744Y-5457894D02*
X7760221Y-5467418D01*
X7760221Y-5467418D02*
X7741173Y-5476941D01*
X7741173Y-5476941D02*
X7722125Y-5476941D01*
X7722125Y-5476941D02*
X7703078Y-5467418D01*
X7703078Y-5467418D02*
X7693554Y-5457894D01*
X7693554Y-5457894D02*
X7684030Y-5438846D01*
X7684030Y-5438846D02*
X7674506Y-5400751D01*
X7674506Y-5400751D02*
X7674506Y-5353132D01*
X7674506Y-5353132D02*
X7684030Y-5315037D01*
X7684030Y-5315037D02*
X7693554Y-5295989D01*
X7693554Y-5295989D02*
X7703078Y-5286465D01*
X7703078Y-5286465D02*
X7722125Y-5276941D01*
X7874506Y-5457894D02*
X7884030Y-5467418D01*
X7884030Y-5467418D02*
X7874506Y-5476941D01*
X7874506Y-5476941D02*
X7864982Y-5467418D01*
X7864982Y-5467418D02*
X7874506Y-5457894D01*
X7874506Y-5457894D02*
X7874506Y-5476941D01*
X8055459Y-5343608D02*
X8055459Y-5476941D01*
X8007840Y-5267418D02*
X7960221Y-5410275D01*
X7960221Y-5410275D02*
X8084030Y-5410275D01*
X8198316Y-5276941D02*
X8217363Y-5276941D01*
X8217363Y-5276941D02*
X8236411Y-5286465D01*
X8236411Y-5286465D02*
X8245935Y-5295989D01*
X8245935Y-5295989D02*
X8255459Y-5315037D01*
X8255459Y-5315037D02*
X8264982Y-5353132D01*
X8264982Y-5353132D02*
X8264982Y-5400751D01*
X8264982Y-5400751D02*
X8255459Y-5438846D01*
X8255459Y-5438846D02*
X8245935Y-5457894D01*
X8245935Y-5457894D02*
X8236411Y-5467418D01*
X8236411Y-5467418D02*
X8217363Y-5476941D01*
X8217363Y-5476941D02*
X8198316Y-5476941D01*
X8198316Y-5476941D02*
X8179268Y-5467418D01*
X8179268Y-5467418D02*
X8169744Y-5457894D01*
X8169744Y-5457894D02*
X8160221Y-5438846D01*
X8160221Y-5438846D02*
X8150697Y-5400751D01*
X8150697Y-5400751D02*
X8150697Y-5353132D01*
X8150697Y-5353132D02*
X8160221Y-5315037D01*
X8160221Y-5315037D02*
X8169744Y-5295989D01*
X8169744Y-5295989D02*
X8179268Y-5286465D01*
X8179268Y-5286465D02*
X8198316Y-5276941D01*
X8388792Y-5276941D02*
X8407840Y-5276941D01*
X8407840Y-5276941D02*
X8426887Y-5286465D01*
X8426887Y-5286465D02*
X8436411Y-5295989D01*
X8436411Y-5295989D02*
X8445935Y-5315037D01*
X8445935Y-5315037D02*
X8455459Y-5353132D01*
X8455459Y-5353132D02*
X8455459Y-5400751D01*
X8455459Y-5400751D02*
X8445935Y-5438846D01*
X8445935Y-5438846D02*
X8436411Y-5457894D01*
X8436411Y-5457894D02*
X8426887Y-5467418D01*
X8426887Y-5467418D02*
X8407840Y-5476941D01*
X8407840Y-5476941D02*
X8388792Y-5476941D01*
X8388792Y-5476941D02*
X8369744Y-5467418D01*
X8369744Y-5467418D02*
X8360221Y-5457894D01*
X8360221Y-5457894D02*
X8350697Y-5438846D01*
X8350697Y-5438846D02*
X8341173Y-5400751D01*
X8341173Y-5400751D02*
X8341173Y-5353132D01*
X8341173Y-5353132D02*
X8350697Y-5315037D01*
X8350697Y-5315037D02*
X8360221Y-5295989D01*
X8360221Y-5295989D02*
X8369744Y-5286465D01*
X8369744Y-5286465D02*
X8388792Y-5276941D01*
X8541173Y-5476941D02*
X8541173Y-5343608D01*
X8541173Y-5362656D02*
X8550697Y-5353132D01*
X8550697Y-5353132D02*
X8569744Y-5343608D01*
X8569744Y-5343608D02*
X8598316Y-5343608D01*
X8598316Y-5343608D02*
X8617364Y-5353132D01*
X8617364Y-5353132D02*
X8626887Y-5372180D01*
X8626887Y-5372180D02*
X8626887Y-5476941D01*
X8626887Y-5372180D02*
X8636411Y-5353132D01*
X8636411Y-5353132D02*
X8655459Y-5343608D01*
X8655459Y-5343608D02*
X8684030Y-5343608D01*
X8684030Y-5343608D02*
X8703078Y-5353132D01*
X8703078Y-5353132D02*
X8712602Y-5372180D01*
X8712602Y-5372180D02*
X8712602Y-5476941D01*
X8807840Y-5476941D02*
X8807840Y-5343608D01*
X8807840Y-5362656D02*
X8817364Y-5353132D01*
X8817364Y-5353132D02*
X8836411Y-5343608D01*
X8836411Y-5343608D02*
X8864983Y-5343608D01*
X8864983Y-5343608D02*
X8884030Y-5353132D01*
X8884030Y-5353132D02*
X8893554Y-5372180D01*
X8893554Y-5372180D02*
X8893554Y-5476941D01*
X8893554Y-5372180D02*
X8903078Y-5353132D01*
X8903078Y-5353132D02*
X8922125Y-5343608D01*
X8922125Y-5343608D02*
X8950697Y-5343608D01*
X8950697Y-5343608D02*
X8969745Y-5353132D01*
X8969745Y-5353132D02*
X8979268Y-5372180D01*
X8979268Y-5372180D02*
X8979268Y-5476941D01*
X9337364Y-5267418D02*
X9165935Y-5524561D01*
X9562125Y-5276941D02*
X9581173Y-5276941D01*
X9581173Y-5276941D02*
X9600221Y-5286465D01*
X9600221Y-5286465D02*
X9609745Y-5295989D01*
X9609745Y-5295989D02*
X9619268Y-5315037D01*
X9619268Y-5315037D02*
X9628792Y-5353132D01*
X9628792Y-5353132D02*
X9628792Y-5400751D01*
X9628792Y-5400751D02*
X9619268Y-5438846D01*
X9619268Y-5438846D02*
X9609745Y-5457894D01*
X9609745Y-5457894D02*
X9600221Y-5467418D01*
X9600221Y-5467418D02*
X9581173Y-5476941D01*
X9581173Y-5476941D02*
X9562125Y-5476941D01*
X9562125Y-5476941D02*
X9543078Y-5467418D01*
X9543078Y-5467418D02*
X9533554Y-5457894D01*
X9533554Y-5457894D02*
X9524030Y-5438846D01*
X9524030Y-5438846D02*
X9514506Y-5400751D01*
X9514506Y-5400751D02*
X9514506Y-5353132D01*
X9514506Y-5353132D02*
X9524030Y-5315037D01*
X9524030Y-5315037D02*
X9533554Y-5295989D01*
X9533554Y-5295989D02*
X9543078Y-5286465D01*
X9543078Y-5286465D02*
X9562125Y-5276941D01*
X9714506Y-5457894D02*
X9724030Y-5467418D01*
X9724030Y-5467418D02*
X9714506Y-5476941D01*
X9714506Y-5476941D02*
X9704983Y-5467418D01*
X9704983Y-5467418D02*
X9714506Y-5457894D01*
X9714506Y-5457894D02*
X9714506Y-5476941D01*
X9847840Y-5276941D02*
X9866887Y-5276941D01*
X9866887Y-5276941D02*
X9885935Y-5286465D01*
X9885935Y-5286465D02*
X9895459Y-5295989D01*
X9895459Y-5295989D02*
X9904983Y-5315037D01*
X9904983Y-5315037D02*
X9914506Y-5353132D01*
X9914506Y-5353132D02*
X9914506Y-5400751D01*
X9914506Y-5400751D02*
X9904983Y-5438846D01*
X9904983Y-5438846D02*
X9895459Y-5457894D01*
X9895459Y-5457894D02*
X9885935Y-5467418D01*
X9885935Y-5467418D02*
X9866887Y-5476941D01*
X9866887Y-5476941D02*
X9847840Y-5476941D01*
X9847840Y-5476941D02*
X9828792Y-5467418D01*
X9828792Y-5467418D02*
X9819268Y-5457894D01*
X9819268Y-5457894D02*
X9809745Y-5438846D01*
X9809745Y-5438846D02*
X9800221Y-5400751D01*
X9800221Y-5400751D02*
X9800221Y-5353132D01*
X9800221Y-5353132D02*
X9809745Y-5315037D01*
X9809745Y-5315037D02*
X9819268Y-5295989D01*
X9819268Y-5295989D02*
X9828792Y-5286465D01*
X9828792Y-5286465D02*
X9847840Y-5276941D01*
X10104983Y-5476941D02*
X9990697Y-5476941D01*
X10047840Y-5476941D02*
X10047840Y-5276941D01*
X10047840Y-5276941D02*
X10028792Y-5305513D01*
X10028792Y-5305513D02*
X10009745Y-5324561D01*
X10009745Y-5324561D02*
X9990697Y-5334084D01*
X10285935Y-5276941D02*
X10190697Y-5276941D01*
X10190697Y-5276941D02*
X10181173Y-5372180D01*
X10181173Y-5372180D02*
X10190697Y-5362656D01*
X10190697Y-5362656D02*
X10209745Y-5353132D01*
X10209745Y-5353132D02*
X10257364Y-5353132D01*
X10257364Y-5353132D02*
X10276411Y-5362656D01*
X10276411Y-5362656D02*
X10285935Y-5372180D01*
X10285935Y-5372180D02*
X10295459Y-5391227D01*
X10295459Y-5391227D02*
X10295459Y-5438846D01*
X10295459Y-5438846D02*
X10285935Y-5457894D01*
X10285935Y-5457894D02*
X10276411Y-5467418D01*
X10276411Y-5467418D02*
X10257364Y-5476941D01*
X10257364Y-5476941D02*
X10209745Y-5476941D01*
X10209745Y-5476941D02*
X10190697Y-5467418D01*
X10190697Y-5467418D02*
X10181173Y-5457894D01*
X10362126Y-5276941D02*
X10495459Y-5276941D01*
X10495459Y-5276941D02*
X10409745Y-5476941D01*
X10562126Y-5276941D02*
X10562126Y-5315037D01*
X10638316Y-5276941D02*
X10638316Y-5315037D01*
X10901173Y-5553132D02*
X10891649Y-5543608D01*
X10891649Y-5543608D02*
X10872602Y-5515037D01*
X10872602Y-5515037D02*
X10863078Y-5495989D01*
X10863078Y-5495989D02*
X10853554Y-5467418D01*
X10853554Y-5467418D02*
X10844030Y-5419799D01*
X10844030Y-5419799D02*
X10844030Y-5381703D01*
X10844030Y-5381703D02*
X10853554Y-5334084D01*
X10853554Y-5334084D02*
X10863078Y-5305513D01*
X10863078Y-5305513D02*
X10872602Y-5286465D01*
X10872602Y-5286465D02*
X10891649Y-5257894D01*
X10891649Y-5257894D02*
X10901173Y-5248370D01*
X11063078Y-5276941D02*
X11024983Y-5276941D01*
X11024983Y-5276941D02*
X11005935Y-5286465D01*
X11005935Y-5286465D02*
X10996411Y-5295989D01*
X10996411Y-5295989D02*
X10977364Y-5324561D01*
X10977364Y-5324561D02*
X10967840Y-5362656D01*
X10967840Y-5362656D02*
X10967840Y-5438846D01*
X10967840Y-5438846D02*
X10977364Y-5457894D01*
X10977364Y-5457894D02*
X10986887Y-5467418D01*
X10986887Y-5467418D02*
X11005935Y-5476941D01*
X11005935Y-5476941D02*
X11044030Y-5476941D01*
X11044030Y-5476941D02*
X11063078Y-5467418D01*
X11063078Y-5467418D02*
X11072602Y-5457894D01*
X11072602Y-5457894D02*
X11082126Y-5438846D01*
X11082126Y-5438846D02*
X11082126Y-5391227D01*
X11082126Y-5391227D02*
X11072602Y-5372180D01*
X11072602Y-5372180D02*
X11063078Y-5362656D01*
X11063078Y-5362656D02*
X11044030Y-5353132D01*
X11044030Y-5353132D02*
X11005935Y-5353132D01*
X11005935Y-5353132D02*
X10986887Y-5362656D01*
X10986887Y-5362656D02*
X10977364Y-5372180D01*
X10977364Y-5372180D02*
X10967840Y-5391227D01*
X11287840Y-5476941D02*
X11287840Y-5276941D01*
X11373554Y-5476941D02*
X11373554Y-5372180D01*
X11373554Y-5372180D02*
X11364030Y-5353132D01*
X11364030Y-5353132D02*
X11344983Y-5343608D01*
X11344983Y-5343608D02*
X11316411Y-5343608D01*
X11316411Y-5343608D02*
X11297364Y-5353132D01*
X11297364Y-5353132D02*
X11287840Y-5362656D01*
X11497364Y-5476941D02*
X11478316Y-5467418D01*
X11478316Y-5467418D02*
X11468792Y-5457894D01*
X11468792Y-5457894D02*
X11459268Y-5438846D01*
X11459268Y-5438846D02*
X11459268Y-5381703D01*
X11459268Y-5381703D02*
X11468792Y-5362656D01*
X11468792Y-5362656D02*
X11478316Y-5353132D01*
X11478316Y-5353132D02*
X11497364Y-5343608D01*
X11497364Y-5343608D02*
X11525935Y-5343608D01*
X11525935Y-5343608D02*
X11544983Y-5353132D01*
X11544983Y-5353132D02*
X11554506Y-5362656D01*
X11554506Y-5362656D02*
X11564030Y-5381703D01*
X11564030Y-5381703D02*
X11564030Y-5438846D01*
X11564030Y-5438846D02*
X11554506Y-5457894D01*
X11554506Y-5457894D02*
X11544983Y-5467418D01*
X11544983Y-5467418D02*
X11525935Y-5476941D01*
X11525935Y-5476941D02*
X11497364Y-5476941D01*
X11678316Y-5476941D02*
X11659268Y-5467418D01*
X11659268Y-5467418D02*
X11649745Y-5448370D01*
X11649745Y-5448370D02*
X11649745Y-5276941D01*
X11830697Y-5467418D02*
X11811649Y-5476941D01*
X11811649Y-5476941D02*
X11773554Y-5476941D01*
X11773554Y-5476941D02*
X11754506Y-5467418D01*
X11754506Y-5467418D02*
X11744983Y-5448370D01*
X11744983Y-5448370D02*
X11744983Y-5372180D01*
X11744983Y-5372180D02*
X11754506Y-5353132D01*
X11754506Y-5353132D02*
X11773554Y-5343608D01*
X11773554Y-5343608D02*
X11811649Y-5343608D01*
X11811649Y-5343608D02*
X11830697Y-5353132D01*
X11830697Y-5353132D02*
X11840221Y-5372180D01*
X11840221Y-5372180D02*
X11840221Y-5391227D01*
X11840221Y-5391227D02*
X11744983Y-5410275D01*
X11916411Y-5467418D02*
X11935459Y-5476941D01*
X11935459Y-5476941D02*
X11973554Y-5476941D01*
X11973554Y-5476941D02*
X11992602Y-5467418D01*
X11992602Y-5467418D02*
X12002126Y-5448370D01*
X12002126Y-5448370D02*
X12002126Y-5438846D01*
X12002126Y-5438846D02*
X11992602Y-5419799D01*
X11992602Y-5419799D02*
X11973554Y-5410275D01*
X11973554Y-5410275D02*
X11944983Y-5410275D01*
X11944983Y-5410275D02*
X11925935Y-5400751D01*
X11925935Y-5400751D02*
X11916411Y-5381703D01*
X11916411Y-5381703D02*
X11916411Y-5372180D01*
X11916411Y-5372180D02*
X11925935Y-5353132D01*
X11925935Y-5353132D02*
X11944983Y-5343608D01*
X11944983Y-5343608D02*
X11973554Y-5343608D01*
X11973554Y-5343608D02*
X11992602Y-5353132D01*
X12068792Y-5553132D02*
X12078316Y-5543608D01*
X12078316Y-5543608D02*
X12097364Y-5515037D01*
X12097364Y-5515037D02*
X12106887Y-5495989D01*
X12106887Y-5495989D02*
X12116411Y-5467418D01*
X12116411Y-5467418D02*
X12125935Y-5419799D01*
X12125935Y-5419799D02*
X12125935Y-5381703D01*
X12125935Y-5381703D02*
X12116411Y-5334084D01*
X12116411Y-5334084D02*
X12106887Y-5305513D01*
X12106887Y-5305513D02*
X12097364Y-5286465D01*
X12097364Y-5286465D02*
X12078316Y-5257894D01*
X12078316Y-5257894D02*
X12068792Y-5248370D01*
M02*
