G04 #@! TF.GenerationSoftware,KiCad,Pcbnew,(7.0.0-0)*
G04 #@! TF.CreationDate,2023-11-27T19:54:27+08:00*
G04 #@! TF.ProjectId,TopPCB,546f7050-4342-42e6-9b69-6361645f7063,rev?*
G04 #@! TF.SameCoordinates,Original*
G04 #@! TF.FileFunction,Copper,L4,Bot*
G04 #@! TF.FilePolarity,Positive*
%FSLAX46Y46*%
G04 Gerber Fmt 4.6, Leading zero omitted, Abs format (unit mm)*
G04 Created by KiCad (PCBNEW (7.0.0-0)) date 2023-11-27 19:54:27*
%MOMM*%
%LPD*%
G01*
G04 APERTURE LIST*
G04 Aperture macros list*
%AMRoundRect*
0 Rectangle with rounded corners*
0 $1 Rounding radius*
0 $2 $3 $4 $5 $6 $7 $8 $9 X,Y pos of 4 corners*
0 Add a 4 corners polygon primitive as box body*
4,1,4,$2,$3,$4,$5,$6,$7,$8,$9,$2,$3,0*
0 Add four circle primitives for the rounded corners*
1,1,$1+$1,$2,$3*
1,1,$1+$1,$4,$5*
1,1,$1+$1,$6,$7*
1,1,$1+$1,$8,$9*
0 Add four rect primitives between the rounded corners*
20,1,$1+$1,$2,$3,$4,$5,0*
20,1,$1+$1,$4,$5,$6,$7,0*
20,1,$1+$1,$6,$7,$8,$9,0*
20,1,$1+$1,$8,$9,$2,$3,0*%
G04 Aperture macros list end*
G04 #@! TA.AperFunction,SMDPad,CuDef*
%ADD10RoundRect,0.250000X0.469527X0.636038X-0.006001X0.790547X-0.469527X-0.636038X0.006001X-0.790547X0*%
G04 #@! TD*
G04 #@! TA.AperFunction,ViaPad*
%ADD11C,0.800000*%
G04 #@! TD*
G04 #@! TA.AperFunction,Conductor*
%ADD12C,0.250000*%
G04 #@! TD*
G04 APERTURE END LIST*
D10*
X78796126Y-45704129D03*
X77840000Y-44680000D03*
X76740000Y-44110000D03*
X75567872Y-43681249D03*
D11*
X76660000Y-44290000D03*
X76137221Y-41212235D03*
X82026358Y-42704129D03*
X79664848Y-42232720D03*
X81875695Y-39350563D03*
X80990000Y-42720000D03*
D12*
X77970164Y-44355542D02*
X78190000Y-44135706D01*
X78190000Y-44135706D02*
X78190000Y-43707568D01*
X78190000Y-43707568D02*
X79664848Y-42232720D01*
X76660000Y-43731344D02*
X76964196Y-43427148D01*
X76660000Y-44290000D02*
X76660000Y-43731344D01*
X81671310Y-39350563D02*
X81875695Y-39350563D01*
X79664848Y-42232720D02*
X81000000Y-40897568D01*
X81000000Y-40021873D02*
X81671310Y-39350563D01*
X81000000Y-40897568D02*
X81000000Y-40021873D01*
X80990000Y-42720000D02*
X78796126Y-44913874D01*
X78796126Y-44913874D02*
X78796126Y-45704129D01*
G04 #@! TA.AperFunction,Conductor*
G36*
X80103288Y-36012124D02*
G01*
X80476796Y-36039383D01*
X80488698Y-36040834D01*
X80857799Y-36104105D01*
X80869503Y-36106700D01*
X81230774Y-36205396D01*
X81242169Y-36209111D01*
X81592169Y-36342294D01*
X81603176Y-36347105D01*
X81938643Y-36513529D01*
X81949118Y-36519374D01*
X82100536Y-36613766D01*
X82266910Y-36717481D01*
X82276784Y-36724322D01*
X82573903Y-36952240D01*
X82583070Y-36960005D01*
X82856748Y-37215614D01*
X82865119Y-37224229D01*
X83112775Y-37505115D01*
X83120274Y-37514501D01*
X83339578Y-37818022D01*
X83346134Y-37828088D01*
X83535049Y-38151423D01*
X83540599Y-38162077D01*
X83697342Y-38502177D01*
X83701836Y-38513318D01*
X83824925Y-38866968D01*
X83828320Y-38878491D01*
X83916614Y-39242408D01*
X83918878Y-39254206D01*
X83971543Y-39624963D01*
X83972654Y-39636924D01*
X83989197Y-40011024D01*
X83989146Y-40023038D01*
X83969408Y-40396998D01*
X83968194Y-40408949D01*
X83912366Y-40779228D01*
X83910002Y-40791006D01*
X83818603Y-41154158D01*
X83815110Y-41165652D01*
X83689000Y-41518252D01*
X83684411Y-41529354D01*
X83524777Y-41868088D01*
X83519136Y-41878694D01*
X83327464Y-42200409D01*
X83320826Y-42210413D01*
X83262064Y-42290295D01*
X83098934Y-42512054D01*
X83091356Y-42521374D01*
X82841299Y-42800148D01*
X82832853Y-42808691D01*
X82557021Y-43061935D01*
X82547789Y-43069622D01*
X82248722Y-43295004D01*
X82238790Y-43301760D01*
X81919334Y-43497137D01*
X81908793Y-43502902D01*
X81571912Y-43666456D01*
X81560868Y-43671171D01*
X81335687Y-43754663D01*
X81209762Y-43801353D01*
X81198310Y-43804978D01*
X80833305Y-43901353D01*
X80832951Y-43901437D01*
X80832790Y-43901489D01*
X80832140Y-43901660D01*
X80830577Y-43902073D01*
X80830560Y-43902008D01*
X80827567Y-43902723D01*
X80827174Y-43902807D01*
X80826547Y-43899876D01*
X80826258Y-43899900D01*
X80826989Y-43902937D01*
X80761419Y-43918699D01*
X80761376Y-43918520D01*
X80761165Y-43918595D01*
X80761196Y-43918712D01*
X80760462Y-43918904D01*
X80759923Y-43919039D01*
X80759852Y-43919064D01*
X80759422Y-43919178D01*
X80759376Y-43919190D01*
X80759372Y-43919178D01*
X80759250Y-43919208D01*
X80759252Y-43919219D01*
X80758957Y-43919290D01*
X80758832Y-43919321D01*
X80758762Y-43919331D01*
X80758244Y-43919462D01*
X80757591Y-43919620D01*
X80757565Y-43919514D01*
X80757334Y-43919549D01*
X80757378Y-43919716D01*
X80693997Y-43936388D01*
X80693960Y-43936250D01*
X80693782Y-43936317D01*
X80693804Y-43936393D01*
X80693254Y-43936551D01*
X80692910Y-43936645D01*
X80692867Y-43936662D01*
X80692064Y-43936894D01*
X80692059Y-43936880D01*
X80691863Y-43936934D01*
X80691867Y-43936948D01*
X80691128Y-43937142D01*
X80691076Y-43937150D01*
X80690656Y-43937267D01*
X80690152Y-43937400D01*
X80690130Y-43937317D01*
X80689938Y-43937351D01*
X80689980Y-43937493D01*
X80689980Y-43937494D01*
X80629905Y-43954800D01*
X80629868Y-43954674D01*
X80629479Y-43954831D01*
X80629493Y-43954874D01*
X80629055Y-43955011D01*
X80628984Y-43955032D01*
X80628968Y-43955039D01*
X80627968Y-43955355D01*
X80627963Y-43955340D01*
X80627781Y-43955395D01*
X80627786Y-43955410D01*
X80626798Y-43955694D01*
X80626778Y-43955698D01*
X80626722Y-43955715D01*
X80626341Y-43955826D01*
X80626330Y-43955789D01*
X80625875Y-43955882D01*
X80625914Y-43956004D01*
X80611385Y-43960591D01*
X80597503Y-43961141D01*
X80593558Y-43962175D01*
X80589572Y-43961455D01*
X80546195Y-43963174D01*
X80488717Y-43932310D01*
X80454862Y-43876541D01*
X80454000Y-43811306D01*
X80486370Y-43754665D01*
X80834217Y-43406819D01*
X80874445Y-43379939D01*
X80921898Y-43370500D01*
X81061485Y-43370500D01*
X81068985Y-43370500D01*
X81222365Y-43332696D01*
X81362240Y-43259283D01*
X81480483Y-43154530D01*
X81570220Y-43024523D01*
X81626237Y-42876818D01*
X81645278Y-42720000D01*
X81626237Y-42563182D01*
X81570220Y-42415477D01*
X81480483Y-42285470D01*
X81395768Y-42210420D01*
X81367856Y-42185692D01*
X81367854Y-42185690D01*
X81362240Y-42180717D01*
X81355595Y-42177229D01*
X81355593Y-42177228D01*
X81229006Y-42110789D01*
X81229002Y-42110787D01*
X81222365Y-42107304D01*
X81215087Y-42105510D01*
X81215084Y-42105509D01*
X81076267Y-42071294D01*
X81076260Y-42071293D01*
X81068985Y-42069500D01*
X80911015Y-42069500D01*
X80903740Y-42071292D01*
X80903732Y-42071294D01*
X80764915Y-42105509D01*
X80764909Y-42105510D01*
X80757635Y-42107304D01*
X80751000Y-42110786D01*
X80750993Y-42110789D01*
X80624406Y-42177228D01*
X80624400Y-42177231D01*
X80617760Y-42180717D01*
X80612147Y-42185688D01*
X80612139Y-42185695D01*
X80520175Y-42267167D01*
X80460302Y-42296320D01*
X80393982Y-42290295D01*
X80340343Y-42250830D01*
X80314854Y-42189307D01*
X80313951Y-42181870D01*
X80319827Y-42126474D01*
X80349363Y-42079240D01*
X81228889Y-41199714D01*
X81248747Y-41183589D01*
X81257836Y-41177652D01*
X81277279Y-41152670D01*
X81280742Y-41148777D01*
X81280571Y-41148632D01*
X81283883Y-41144721D01*
X81287519Y-41141086D01*
X81299614Y-41124144D01*
X81302621Y-41120110D01*
X81334809Y-41078757D01*
X81337390Y-41071236D01*
X81342010Y-41064767D01*
X81356955Y-41014563D01*
X81358479Y-41009806D01*
X81375500Y-40960228D01*
X81375500Y-40952274D01*
X81377768Y-40944656D01*
X81375606Y-40892375D01*
X81375500Y-40887252D01*
X81375500Y-40228772D01*
X81384939Y-40181320D01*
X81411816Y-40141093D01*
X81550816Y-40002092D01*
X81605195Y-39970332D01*
X81668164Y-39969380D01*
X81796710Y-40001063D01*
X81947180Y-40001063D01*
X81954680Y-40001063D01*
X82108060Y-39963259D01*
X82247935Y-39889846D01*
X82366178Y-39785093D01*
X82455915Y-39655086D01*
X82511932Y-39507381D01*
X82530973Y-39350563D01*
X82511932Y-39193745D01*
X82455915Y-39046040D01*
X82366178Y-38916033D01*
X82360567Y-38911062D01*
X82253551Y-38816255D01*
X82253549Y-38816253D01*
X82247935Y-38811280D01*
X82241290Y-38807792D01*
X82241288Y-38807791D01*
X82114701Y-38741352D01*
X82114697Y-38741350D01*
X82108060Y-38737867D01*
X82100782Y-38736073D01*
X82100779Y-38736072D01*
X81961962Y-38701857D01*
X81961955Y-38701856D01*
X81954680Y-38700063D01*
X81796710Y-38700063D01*
X81789435Y-38701855D01*
X81789427Y-38701857D01*
X81650610Y-38736072D01*
X81650604Y-38736073D01*
X81643330Y-38737867D01*
X81636695Y-38741349D01*
X81636688Y-38741352D01*
X81510101Y-38807791D01*
X81510095Y-38807794D01*
X81503455Y-38811280D01*
X81497843Y-38816250D01*
X81497838Y-38816255D01*
X81390822Y-38911062D01*
X81390817Y-38911066D01*
X81385212Y-38916033D01*
X81380957Y-38922197D01*
X81380952Y-38922203D01*
X81299738Y-39039863D01*
X81299735Y-39039866D01*
X81295475Y-39046040D01*
X81292815Y-39053051D01*
X81292813Y-39053057D01*
X81242118Y-39186728D01*
X81242118Y-39186730D01*
X81239458Y-39193745D01*
X81238554Y-39201185D01*
X81238551Y-39201200D01*
X81236649Y-39216868D01*
X81225040Y-39256203D01*
X81201235Y-39289599D01*
X80771107Y-39719726D01*
X80751258Y-39735846D01*
X80742164Y-39741789D01*
X80735858Y-39749890D01*
X80735852Y-39749896D01*
X80722720Y-39766768D01*
X80719273Y-39770695D01*
X80719418Y-39770818D01*
X80716105Y-39774728D01*
X80712480Y-39778355D01*
X80709505Y-39782521D01*
X80709498Y-39782530D01*
X80700401Y-39795272D01*
X80697342Y-39799374D01*
X80671500Y-39832576D01*
X80671496Y-39832583D01*
X80665191Y-39840684D01*
X80662609Y-39848204D01*
X80657990Y-39854674D01*
X80655060Y-39864514D01*
X80655058Y-39864519D01*
X80643056Y-39904830D01*
X80641495Y-39909702D01*
X80627836Y-39949492D01*
X80627835Y-39949497D01*
X80624500Y-39959213D01*
X80624500Y-39967167D01*
X80622232Y-39974785D01*
X80622656Y-39985048D01*
X80622656Y-39985052D01*
X80624394Y-40027066D01*
X80624500Y-40032189D01*
X80624500Y-40690669D01*
X80615061Y-40738122D01*
X80588181Y-40778349D01*
X80386533Y-40979997D01*
X79820628Y-41545901D01*
X79780400Y-41572781D01*
X79732947Y-41582220D01*
X79585863Y-41582220D01*
X79578588Y-41584012D01*
X79578580Y-41584014D01*
X79439763Y-41618229D01*
X79439757Y-41618230D01*
X79432483Y-41620024D01*
X79425848Y-41623506D01*
X79425841Y-41623509D01*
X79299254Y-41689948D01*
X79299248Y-41689951D01*
X79292608Y-41693437D01*
X79286996Y-41698407D01*
X79286991Y-41698412D01*
X79179975Y-41793219D01*
X79179970Y-41793223D01*
X79174365Y-41798190D01*
X79170110Y-41804354D01*
X79170105Y-41804360D01*
X79088891Y-41922020D01*
X79088888Y-41922023D01*
X79084628Y-41928197D01*
X79081968Y-41935208D01*
X79081966Y-41935214D01*
X79031271Y-42068887D01*
X79028611Y-42075902D01*
X79027707Y-42083342D01*
X79027706Y-42083349D01*
X79015280Y-42185692D01*
X79009570Y-42232720D01*
X79010474Y-42240165D01*
X79010474Y-42240167D01*
X79015744Y-42283574D01*
X79009865Y-42338969D01*
X78980329Y-42386200D01*
X78011049Y-43355479D01*
X77958729Y-43386649D01*
X77897878Y-43389150D01*
X77892048Y-43387925D01*
X77892045Y-43387924D01*
X77884459Y-43386331D01*
X77876709Y-43386663D01*
X77803701Y-43389792D01*
X77751758Y-43380803D01*
X77708243Y-43351048D01*
X77681020Y-43305905D01*
X77677305Y-43295004D01*
X77660061Y-43244403D01*
X77577138Y-43126771D01*
X77570200Y-43121261D01*
X77570198Y-43121259D01*
X77470501Y-43042086D01*
X77470497Y-43042083D01*
X77464432Y-43037267D01*
X77457363Y-43034099D01*
X77457359Y-43034097D01*
X77412741Y-43014105D01*
X77412730Y-43014101D01*
X77409720Y-43012752D01*
X77406575Y-43011730D01*
X77406567Y-43011727D01*
X76846288Y-42829682D01*
X76846280Y-42829679D01*
X76843132Y-42828657D01*
X76839886Y-42827975D01*
X76839882Y-42827974D01*
X76792049Y-42817925D01*
X76792045Y-42817924D01*
X76784459Y-42816331D01*
X76776710Y-42816663D01*
X76649532Y-42822114D01*
X76649531Y-42822114D01*
X76640669Y-42822494D01*
X76632278Y-42825353D01*
X76632270Y-42825355D01*
X76608776Y-42833362D01*
X76556404Y-42839371D01*
X76506268Y-42823080D01*
X76467430Y-42787435D01*
X76409749Y-42705611D01*
X76397702Y-42692855D01*
X76298121Y-42613773D01*
X76284972Y-42605780D01*
X76240438Y-42585825D01*
X76234224Y-42583431D01*
X75881831Y-42468932D01*
X75870520Y-42468042D01*
X75867872Y-42479073D01*
X75867872Y-44345828D01*
X75861803Y-44384144D01*
X75854210Y-44407515D01*
X75780702Y-44633747D01*
X75780698Y-44633760D01*
X75779677Y-44636904D01*
X75778996Y-44640144D01*
X75778994Y-44640153D01*
X75768945Y-44687987D01*
X75768944Y-44687992D01*
X75767351Y-44695578D01*
X75767683Y-44703325D01*
X75767683Y-44703327D01*
X75771473Y-44791761D01*
X75773514Y-44839368D01*
X75776373Y-44847759D01*
X75776374Y-44847761D01*
X75792569Y-44895285D01*
X75819939Y-44975597D01*
X75902862Y-45093229D01*
X75909799Y-45098738D01*
X75909801Y-45098740D01*
X76009498Y-45177913D01*
X76009500Y-45177914D01*
X76015568Y-45182733D01*
X76070280Y-45207248D01*
X76636868Y-45391343D01*
X76695541Y-45403669D01*
X76776299Y-45400207D01*
X76828240Y-45409196D01*
X76871755Y-45438950D01*
X76898978Y-45484093D01*
X76917077Y-45537201D01*
X76917079Y-45537205D01*
X76919939Y-45545597D01*
X77002862Y-45663229D01*
X77009799Y-45668738D01*
X77009801Y-45668740D01*
X77109498Y-45747913D01*
X77109500Y-45747914D01*
X77115568Y-45752733D01*
X77170280Y-45777248D01*
X77736868Y-45961343D01*
X77776413Y-45969650D01*
X77836915Y-46001666D01*
X77871213Y-46060906D01*
X77868851Y-46129318D01*
X77836830Y-46227870D01*
X77836826Y-46227882D01*
X77835803Y-46231033D01*
X77835122Y-46234273D01*
X77835120Y-46234282D01*
X77825071Y-46282116D01*
X77825070Y-46282121D01*
X77823477Y-46289707D01*
X77829640Y-46433497D01*
X77876065Y-46569726D01*
X77958988Y-46687358D01*
X77965925Y-46692867D01*
X77965927Y-46692869D01*
X78065624Y-46772042D01*
X78065626Y-46772043D01*
X78071694Y-46776862D01*
X78126406Y-46801377D01*
X78692994Y-46985472D01*
X78751667Y-46997798D01*
X78889560Y-46991887D01*
X78947191Y-47003353D01*
X78993074Y-47040066D01*
X79016902Y-47093781D01*
X79013324Y-47152435D01*
X78901832Y-47512668D01*
X78871212Y-47563532D01*
X78820456Y-47594332D01*
X78761200Y-47598007D01*
X78372878Y-47527421D01*
X78364731Y-47525655D01*
X77870822Y-47401094D01*
X77862813Y-47398785D01*
X77378406Y-47241328D01*
X77370570Y-47238487D01*
X76897800Y-47048826D01*
X76890172Y-47045464D01*
X76431236Y-46824480D01*
X76423851Y-46820613D01*
X75980796Y-46569292D01*
X75973688Y-46564938D01*
X75968227Y-46561335D01*
X75548505Y-46284410D01*
X75541712Y-46279592D01*
X75482166Y-46234282D01*
X75254319Y-46060906D01*
X75136358Y-45971146D01*
X75129897Y-45965878D01*
X74746164Y-45630880D01*
X74740073Y-45625190D01*
X74433955Y-45319358D01*
X74401234Y-45261455D01*
X74403138Y-45194977D01*
X74546126Y-44732982D01*
X74576917Y-44681950D01*
X74627966Y-44651178D01*
X74687476Y-44647781D01*
X74741695Y-44672545D01*
X74837617Y-44748721D01*
X74850771Y-44756717D01*
X74895305Y-44776672D01*
X74901519Y-44779066D01*
X75253912Y-44893565D01*
X75265223Y-44894455D01*
X75267872Y-44883425D01*
X75267872Y-42503241D01*
X75262699Y-42484773D01*
X75258114Y-42449651D01*
X75263645Y-42414673D01*
X75947671Y-40204584D01*
X75948353Y-40204795D01*
X75948353Y-40204781D01*
X75947680Y-40204575D01*
X75948301Y-40202550D01*
X75948418Y-40202585D01*
X75948431Y-40202127D01*
X75948903Y-40200607D01*
X75948902Y-40200603D01*
X75948905Y-40200595D01*
X75948901Y-40200594D01*
X75952005Y-40190486D01*
X75952440Y-40190486D01*
X75954455Y-40191104D01*
X75954458Y-40191094D01*
X75952440Y-40190486D01*
X75952005Y-40190486D01*
X75952042Y-40190364D01*
X75952051Y-40190366D01*
X75952056Y-40190346D01*
X75952059Y-40190344D01*
X75952650Y-40188384D01*
X75953260Y-40186398D01*
X75953267Y-40186376D01*
X75955730Y-40187133D01*
X75955735Y-40187118D01*
X75953257Y-40186371D01*
X75956112Y-40176908D01*
X75957185Y-40176908D01*
X75958678Y-40177359D01*
X75958681Y-40177351D01*
X75957185Y-40176908D01*
X75956112Y-40176908D01*
X75956201Y-40176612D01*
X75956213Y-40176615D01*
X75956772Y-40174728D01*
X75956973Y-40174056D01*
X75957407Y-40172617D01*
X75957397Y-40172614D01*
X75960151Y-40163306D01*
X75960163Y-40163309D01*
X75960170Y-40163282D01*
X75960172Y-40163281D01*
X75960688Y-40161495D01*
X75960801Y-40161109D01*
X75961328Y-40159332D01*
X75961327Y-40159330D01*
X75961336Y-40159303D01*
X75961324Y-40159300D01*
X75963898Y-40150413D01*
X75966347Y-40151122D01*
X75966356Y-40151089D01*
X75963916Y-40150400D01*
X75964391Y-40148719D01*
X75964620Y-40147921D01*
X75965055Y-40146420D01*
X75967541Y-40147140D01*
X75967550Y-40147110D01*
X75965046Y-40146402D01*
X75967448Y-40137906D01*
X75969879Y-40138593D01*
X75969889Y-40138560D01*
X75967467Y-40137894D01*
X75967472Y-40137877D01*
X75967953Y-40136126D01*
X75968117Y-40135540D01*
X75968575Y-40133924D01*
X75968574Y-40133923D01*
X75968580Y-40133905D01*
X75971023Y-40134596D01*
X75971031Y-40134565D01*
X75968570Y-40133887D01*
X75970792Y-40125822D01*
X75971064Y-40125822D01*
X75973173Y-40126403D01*
X75973178Y-40126386D01*
X75971064Y-40125822D01*
X75970792Y-40125822D01*
X75970811Y-40125753D01*
X75970825Y-40125757D01*
X75970833Y-40125723D01*
X75970835Y-40125722D01*
X75971249Y-40124168D01*
X75971463Y-40123380D01*
X75971909Y-40121767D01*
X75971908Y-40121766D01*
X75971919Y-40121730D01*
X75974265Y-40122378D01*
X75974266Y-40122357D01*
X75971903Y-40121725D01*
X75973989Y-40113926D01*
X75976377Y-40114564D01*
X75976386Y-40114531D01*
X75974010Y-40113918D01*
X75974402Y-40112400D01*
X75974700Y-40111268D01*
X75975066Y-40109904D01*
X75977368Y-40110521D01*
X75977375Y-40110492D01*
X75975052Y-40109891D01*
X75976863Y-40102899D01*
X75978960Y-40102899D01*
X75979355Y-40103001D01*
X75979357Y-40102998D01*
X75978960Y-40102899D01*
X75976863Y-40102899D01*
X75976995Y-40102390D01*
X75977012Y-40102394D01*
X75977022Y-40102355D01*
X75977408Y-40100808D01*
X75977608Y-40100023D01*
X75977910Y-40098860D01*
X75980077Y-40098860D01*
X75980214Y-40098896D01*
X75980214Y-40098895D01*
X75980077Y-40098860D01*
X75977910Y-40098860D01*
X75978031Y-40098393D01*
X75978030Y-40098390D01*
X75978041Y-40098351D01*
X75978024Y-40098347D01*
X75979832Y-40091121D01*
X75982120Y-40091693D01*
X75982127Y-40091669D01*
X75979852Y-40091123D01*
X75980206Y-40089648D01*
X75980478Y-40088539D01*
X75980835Y-40087117D01*
X75980834Y-40087113D01*
X75980841Y-40087086D01*
X75980902Y-40087086D01*
X75983116Y-40087642D01*
X75983121Y-40087620D01*
X75980902Y-40087086D01*
X75980841Y-40087086D01*
X75980845Y-40087072D01*
X75980827Y-40087068D01*
X75982509Y-40080085D01*
X75982528Y-40080089D01*
X75982537Y-40080046D01*
X75982539Y-40080045D01*
X75982893Y-40078512D01*
X75983102Y-40077622D01*
X75983476Y-40076075D01*
X75983475Y-40076074D01*
X75983487Y-40076029D01*
X75983468Y-40076025D01*
X75985029Y-40069271D01*
X75985109Y-40069271D01*
X75987400Y-40069801D01*
X75987405Y-40069777D01*
X75985109Y-40069271D01*
X75985029Y-40069271D01*
X75985033Y-40069254D01*
X75985052Y-40069258D01*
X75985061Y-40069213D01*
X75985063Y-40069212D01*
X75985397Y-40067699D01*
X75985611Y-40066749D01*
X75985962Y-40065237D01*
X75985961Y-40065236D01*
X75985972Y-40065193D01*
X75988277Y-40065727D01*
X75988283Y-40065701D01*
X75985953Y-40065186D01*
X75987410Y-40058598D01*
X75987430Y-40058602D01*
X75987439Y-40058555D01*
X75987441Y-40058554D01*
X75987753Y-40057069D01*
X75987972Y-40056053D01*
X75988301Y-40054573D01*
X75988300Y-40054570D01*
X75988311Y-40054524D01*
X75988291Y-40054520D01*
X75989648Y-40048085D01*
X75989669Y-40048089D01*
X75989679Y-40048040D01*
X75989946Y-40046699D01*
X75990216Y-40045387D01*
X75990499Y-40044053D01*
X75990498Y-40044051D01*
X75990509Y-40044002D01*
X75990488Y-40043998D01*
X75991753Y-40037688D01*
X75994114Y-40038161D01*
X75994120Y-40038126D01*
X75991776Y-40037683D01*
X75992030Y-40036339D01*
X75992280Y-40035055D01*
X75992563Y-40033648D01*
X75992562Y-40033646D01*
X75992571Y-40033606D01*
X75994870Y-40034068D01*
X75994877Y-40034033D01*
X75992551Y-40033592D01*
X75993731Y-40027378D01*
X75996092Y-40027826D01*
X75996100Y-40027780D01*
X75993756Y-40027362D01*
X75993996Y-40026019D01*
X75994222Y-40024786D01*
X75994500Y-40023331D01*
X75994499Y-40023329D01*
X75994505Y-40023301D01*
X75996832Y-40023744D01*
X75996841Y-40023699D01*
X75994488Y-40023277D01*
X75995530Y-40017470D01*
X75997515Y-40017470D01*
X75997888Y-40017537D01*
X75997888Y-40017532D01*
X75997515Y-40017470D01*
X75995530Y-40017470D01*
X75995592Y-40017125D01*
X75995613Y-40017128D01*
X75995621Y-40017080D01*
X75995622Y-40017079D01*
X75995864Y-40015643D01*
X75996043Y-40014609D01*
X75996284Y-40013274D01*
X75997846Y-40013274D01*
X75998526Y-40013397D01*
X75998527Y-40013389D01*
X75997846Y-40013274D01*
X75996284Y-40013274D01*
X75996320Y-40013072D01*
X75996319Y-40013067D01*
X75996328Y-40013018D01*
X75996307Y-40013015D01*
X75997347Y-40006853D01*
X75997368Y-40006856D01*
X75997580Y-40005516D01*
X75997797Y-40004185D01*
X75998033Y-40002790D01*
X75998032Y-40002788D01*
X75998041Y-40002739D01*
X75998020Y-40002736D01*
X75998980Y-39996679D01*
X76000209Y-39996679D01*
X76001326Y-39996856D01*
X76001328Y-39996843D01*
X76000209Y-39996679D01*
X75998980Y-39996679D01*
X75999010Y-39996489D01*
X75999031Y-39996492D01*
X75999038Y-39996442D01*
X75999040Y-39996440D01*
X75999250Y-39995010D01*
X75999443Y-39993750D01*
X75999628Y-39992590D01*
X76001163Y-39992590D01*
X76001947Y-39992715D01*
X76001949Y-39992706D01*
X76001163Y-39992590D01*
X75999628Y-39992590D01*
X75999655Y-39992420D01*
X75999654Y-39992419D01*
X75999663Y-39992369D01*
X75999642Y-39992366D01*
X76000583Y-39985999D01*
X76002958Y-39986350D01*
X76002966Y-39986299D01*
X76000607Y-39985975D01*
X76000609Y-39985953D01*
X76000611Y-39985952D01*
X76000834Y-39984329D01*
X76000962Y-39983432D01*
X76001186Y-39981921D01*
X76001185Y-39981919D01*
X76001189Y-39981897D01*
X76003423Y-39982227D01*
X76003430Y-39982179D01*
X76001173Y-39981869D01*
X76002070Y-39975355D01*
X76004394Y-39975675D01*
X76004400Y-39975631D01*
X76002094Y-39975338D01*
X76002278Y-39973891D01*
X76002439Y-39972674D01*
X76002633Y-39971270D01*
X76002632Y-39971268D01*
X76002637Y-39971238D01*
X76004959Y-39971559D01*
X76004965Y-39971517D01*
X76002619Y-39971218D01*
X76003474Y-39964526D01*
X76005809Y-39964824D01*
X76005821Y-39964725D01*
X76003503Y-39964452D01*
X76003671Y-39963028D01*
X76003822Y-39961801D01*
X76003971Y-39960644D01*
X76003997Y-39960437D01*
X76003996Y-39960436D01*
X76003998Y-39960427D01*
X76006163Y-39960704D01*
X76006171Y-39960644D01*
X76003983Y-39960386D01*
X76004797Y-39953484D01*
X76007096Y-39953755D01*
X76007100Y-39953722D01*
X76004819Y-39953476D01*
X76004980Y-39951987D01*
X76005124Y-39950714D01*
X76005286Y-39949348D01*
X76007471Y-39949607D01*
X76007468Y-39949578D01*
X76005267Y-39949339D01*
X76006043Y-39942198D01*
X76008351Y-39942448D01*
X76008358Y-39942395D01*
X76006066Y-39942167D01*
X76006216Y-39940659D01*
X76006339Y-39939481D01*
X76006492Y-39938079D01*
X76008868Y-39938338D01*
X76008874Y-39938287D01*
X76006477Y-39938048D01*
X76007217Y-39930633D01*
X76009639Y-39930874D01*
X76009644Y-39930827D01*
X76007237Y-39930608D01*
X76007366Y-39929191D01*
X76007473Y-39928071D01*
X76007629Y-39926514D01*
X76010060Y-39926757D01*
X76010054Y-39926701D01*
X76007614Y-39926479D01*
X76008305Y-39918906D01*
X76009831Y-39918906D01*
X76010760Y-39918990D01*
X76010760Y-39918983D01*
X76009831Y-39918906D01*
X76008305Y-39918906D01*
X76008318Y-39918768D01*
X76008336Y-39918769D01*
X76008471Y-39917143D01*
X76008541Y-39916326D01*
X76008695Y-39914651D01*
X76008693Y-39914647D01*
X76008697Y-39914612D01*
X76008682Y-39914611D01*
X76009341Y-39906715D01*
X76011175Y-39906715D01*
X76011852Y-39906771D01*
X76011852Y-39906766D01*
X76011175Y-39906715D01*
X76009341Y-39906715D01*
X76009354Y-39906563D01*
X76009370Y-39906564D01*
X76009499Y-39904865D01*
X76009552Y-39904191D01*
X76009686Y-39902584D01*
X76012067Y-39902584D01*
X76012220Y-39902597D01*
X76012220Y-39902595D01*
X76012067Y-39902584D01*
X76009686Y-39902584D01*
X76009698Y-39902442D01*
X76009697Y-39902439D01*
X76009700Y-39902404D01*
X76009685Y-39902403D01*
X76010325Y-39893993D01*
X76010340Y-39893994D01*
X76010342Y-39893960D01*
X76010343Y-39893959D01*
X76010469Y-39892130D01*
X76010524Y-39891382D01*
X76010643Y-39889832D01*
X76010628Y-39889831D01*
X76011238Y-39881022D01*
X76013852Y-39881203D01*
X76013854Y-39881183D01*
X76011251Y-39881022D01*
X76011342Y-39879558D01*
X76011404Y-39878613D01*
X76011526Y-39876866D01*
X76014140Y-39877048D01*
X76014142Y-39877023D01*
X76011512Y-39876858D01*
X76012093Y-39867625D01*
X76012104Y-39867625D01*
X76012105Y-39867600D01*
X76012107Y-39867597D01*
X76012226Y-39865507D01*
X76012353Y-39863490D01*
X76012352Y-39863487D01*
X76012354Y-39863460D01*
X76012342Y-39863460D01*
X76012895Y-39853767D01*
X76012906Y-39853767D01*
X76012907Y-39853743D01*
X76012908Y-39853742D01*
X76012999Y-39851968D01*
X76013020Y-39851583D01*
X76013130Y-39849659D01*
X76014281Y-39849659D01*
X76015547Y-39849732D01*
X76015547Y-39849725D01*
X76014281Y-39849659D01*
X76013130Y-39849659D01*
X76013132Y-39849629D01*
X76013131Y-39849627D01*
X76013133Y-39849600D01*
X76013122Y-39849600D01*
X76013648Y-39839421D01*
X76013659Y-39839421D01*
X76013744Y-39837591D01*
X76013763Y-39837192D01*
X76013863Y-39835277D01*
X76013862Y-39835276D01*
X76013864Y-39835251D01*
X76013854Y-39835251D01*
X76014292Y-39825882D01*
X76014299Y-39825882D01*
X76014299Y-39825873D01*
X76014300Y-39825873D01*
X76014314Y-39825540D01*
X76014730Y-39819490D01*
X76016989Y-39795272D01*
X76049778Y-39443618D01*
X76051470Y-39431733D01*
X76065641Y-39358008D01*
X76122153Y-39063986D01*
X76124988Y-39052318D01*
X76128662Y-39039863D01*
X76230927Y-38693129D01*
X76234879Y-38681790D01*
X76235538Y-38680159D01*
X76375070Y-38334557D01*
X76380100Y-38323652D01*
X76382311Y-38319412D01*
X76553245Y-37991591D01*
X76559295Y-37981244D01*
X76763769Y-37667483D01*
X76770785Y-37657779D01*
X77004656Y-37365282D01*
X77012585Y-37356295D01*
X77273666Y-37087797D01*
X77282424Y-37079623D01*
X77568268Y-36837642D01*
X77577780Y-36830351D01*
X77885667Y-36617188D01*
X77895853Y-36610843D01*
X78222935Y-36428465D01*
X78233684Y-36423137D01*
X78576885Y-36273262D01*
X78588079Y-36269007D01*
X78944170Y-36153048D01*
X78955742Y-36149890D01*
X79321384Y-36068931D01*
X79333198Y-36066909D01*
X79704957Y-36021712D01*
X79716929Y-36020843D01*
X80091307Y-36011832D01*
X80103288Y-36012124D01*
G37*
G04 #@! TD.AperFunction*
G04 #@! TA.AperFunction,NonConductor*
G36*
X80260870Y-42662426D02*
G01*
X80314510Y-42701896D01*
X80339994Y-42763424D01*
X80340896Y-42770854D01*
X80335017Y-42826248D01*
X80305481Y-42873479D01*
X79023309Y-44155651D01*
X78974955Y-44185568D01*
X78918331Y-44190758D01*
X78865344Y-44170128D01*
X78827136Y-44128017D01*
X78811742Y-44073282D01*
X78806486Y-43950632D01*
X78760061Y-43814403D01*
X78754952Y-43807155D01*
X78750926Y-43799254D01*
X78753448Y-43797968D01*
X78738622Y-43761166D01*
X78743462Y-43703945D01*
X78773560Y-43655043D01*
X79509065Y-42919539D01*
X79549293Y-42892659D01*
X79596746Y-42883220D01*
X79736333Y-42883220D01*
X79743833Y-42883220D01*
X79897213Y-42845416D01*
X80037088Y-42772003D01*
X80134670Y-42685553D01*
X80194547Y-42656399D01*
X80260870Y-42662426D01*
G37*
G04 #@! TD.AperFunction*
M02*
