%TF.GenerationSoftware,KiCad,Pcbnew,(7.0.0)*%
%TF.CreationDate,2024-02-07T16:47:58+08:00*%
%TF.ProjectId,revopod1,7265766f-706f-4643-912e-6b696361645f,rev?*%
%TF.SameCoordinates,Original*%
%TF.FileFunction,Drillmap*%
%TF.FilePolarity,Positive*%
%FSLAX45Y45*%
G04 Gerber Fmt 4.5, Leading zero omitted, Abs format (unit mm)*
G04 Created by KiCad (PCBNEW (7.0.0)) date 2024-02-07 16:47:58*
%MOMM*%
%LPD*%
G01*
G04 APERTURE LIST*
%ADD10C,0.100000*%
%ADD11C,0.200000*%
G04 APERTURE END LIST*
D10*
X8800000Y-10100000D02*
X10000000Y-10100000D01*
X8800000Y-10000000D02*
X8800000Y-10100000D01*
X10000000Y-10100000D02*
X10000000Y-13500000D01*
X10665000Y-13360000D02*
G75*
G03*
X10665000Y-13360000I-65000J0D01*
G01*
X14800000Y-10000000D02*
X14800000Y-10100000D01*
X13600000Y-10100000D02*
X14800000Y-10100000D01*
X14800000Y-10000000D02*
X14800000Y-9800000D01*
X13075000Y-10240000D02*
G75*
G03*
X13075000Y-10240000I-65000J0D01*
G01*
X8800000Y-9800000D02*
X8800000Y-10000000D01*
X10665000Y-10240000D02*
G75*
G03*
X10665000Y-10240000I-65000J0D01*
G01*
X13600000Y-10100000D02*
X13600000Y-13500000D01*
X13600000Y-13500000D02*
X10000000Y-13500000D01*
X14800000Y-9800000D02*
X8800000Y-9800000D01*
D11*
X9042619Y-13798476D02*
X9042619Y-13598476D01*
X9042619Y-13598476D02*
X9090238Y-13598476D01*
X9090238Y-13598476D02*
X9118810Y-13608000D01*
X9118810Y-13608000D02*
X9137857Y-13627048D01*
X9137857Y-13627048D02*
X9147381Y-13646095D01*
X9147381Y-13646095D02*
X9156905Y-13684190D01*
X9156905Y-13684190D02*
X9156905Y-13712762D01*
X9156905Y-13712762D02*
X9147381Y-13750857D01*
X9147381Y-13750857D02*
X9137857Y-13769905D01*
X9137857Y-13769905D02*
X9118810Y-13788952D01*
X9118810Y-13788952D02*
X9090238Y-13798476D01*
X9090238Y-13798476D02*
X9042619Y-13798476D01*
X9242619Y-13798476D02*
X9242619Y-13665143D01*
X9242619Y-13703238D02*
X9252143Y-13684190D01*
X9252143Y-13684190D02*
X9261667Y-13674667D01*
X9261667Y-13674667D02*
X9280714Y-13665143D01*
X9280714Y-13665143D02*
X9299762Y-13665143D01*
X9366429Y-13798476D02*
X9366429Y-13665143D01*
X9366429Y-13598476D02*
X9356905Y-13608000D01*
X9356905Y-13608000D02*
X9366429Y-13617524D01*
X9366429Y-13617524D02*
X9375952Y-13608000D01*
X9375952Y-13608000D02*
X9366429Y-13598476D01*
X9366429Y-13598476D02*
X9366429Y-13617524D01*
X9490238Y-13798476D02*
X9471190Y-13788952D01*
X9471190Y-13788952D02*
X9461667Y-13769905D01*
X9461667Y-13769905D02*
X9461667Y-13598476D01*
X9595000Y-13798476D02*
X9575952Y-13788952D01*
X9575952Y-13788952D02*
X9566429Y-13769905D01*
X9566429Y-13769905D02*
X9566429Y-13598476D01*
X9791190Y-13798476D02*
X9791190Y-13598476D01*
X9791190Y-13598476D02*
X9857857Y-13741333D01*
X9857857Y-13741333D02*
X9924524Y-13598476D01*
X9924524Y-13598476D02*
X9924524Y-13798476D01*
X10105476Y-13798476D02*
X10105476Y-13693714D01*
X10105476Y-13693714D02*
X10095952Y-13674667D01*
X10095952Y-13674667D02*
X10076905Y-13665143D01*
X10076905Y-13665143D02*
X10038809Y-13665143D01*
X10038809Y-13665143D02*
X10019762Y-13674667D01*
X10105476Y-13788952D02*
X10086429Y-13798476D01*
X10086429Y-13798476D02*
X10038809Y-13798476D01*
X10038809Y-13798476D02*
X10019762Y-13788952D01*
X10019762Y-13788952D02*
X10010238Y-13769905D01*
X10010238Y-13769905D02*
X10010238Y-13750857D01*
X10010238Y-13750857D02*
X10019762Y-13731809D01*
X10019762Y-13731809D02*
X10038809Y-13722286D01*
X10038809Y-13722286D02*
X10086429Y-13722286D01*
X10086429Y-13722286D02*
X10105476Y-13712762D01*
X10200714Y-13665143D02*
X10200714Y-13865143D01*
X10200714Y-13674667D02*
X10219762Y-13665143D01*
X10219762Y-13665143D02*
X10257857Y-13665143D01*
X10257857Y-13665143D02*
X10276905Y-13674667D01*
X10276905Y-13674667D02*
X10286429Y-13684190D01*
X10286429Y-13684190D02*
X10295952Y-13703238D01*
X10295952Y-13703238D02*
X10295952Y-13760381D01*
X10295952Y-13760381D02*
X10286429Y-13779428D01*
X10286429Y-13779428D02*
X10276905Y-13788952D01*
X10276905Y-13788952D02*
X10257857Y-13798476D01*
X10257857Y-13798476D02*
X10219762Y-13798476D01*
X10219762Y-13798476D02*
X10200714Y-13788952D01*
X10381667Y-13779428D02*
X10391190Y-13788952D01*
X10391190Y-13788952D02*
X10381667Y-13798476D01*
X10381667Y-13798476D02*
X10372143Y-13788952D01*
X10372143Y-13788952D02*
X10381667Y-13779428D01*
X10381667Y-13779428D02*
X10381667Y-13798476D01*
X10381667Y-13674667D02*
X10391190Y-13684190D01*
X10391190Y-13684190D02*
X10381667Y-13693714D01*
X10381667Y-13693714D02*
X10372143Y-13684190D01*
X10372143Y-13684190D02*
X10381667Y-13674667D01*
X10381667Y-13674667D02*
X10381667Y-13693714D01*
M02*
