G04 #@! TF.GenerationSoftware,KiCad,Pcbnew,8.0.0*
G04 #@! TF.CreationDate,2024-03-19T21:42:45+08:00*
G04 #@! TF.ProjectId,revopod1,7265766f-706f-4643-912e-6b696361645f,rev?*
G04 #@! TF.SameCoordinates,Original*
G04 #@! TF.FileFunction,Legend,Top*
G04 #@! TF.FilePolarity,Positive*
%FSLAX46Y46*%
G04 Gerber Fmt 4.6, Leading zero omitted, Abs format (unit mm)*
G04 Created by KiCad (PCBNEW 8.0.0) date 2024-03-19 21:42:45*
%MOMM*%
%LPD*%
G01*
G04 APERTURE LIST*
G04 Aperture macros list*
%AMRoundRect*
0 Rectangle with rounded corners*
0 $1 Rounding radius*
0 $2 $3 $4 $5 $6 $7 $8 $9 X,Y pos of 4 corners*
0 Add a 4 corners polygon primitive as box body*
4,1,4,$2,$3,$4,$5,$6,$7,$8,$9,$2,$3,0*
0 Add four circle primitives for the rounded corners*
1,1,$1+$1,$2,$3*
1,1,$1+$1,$4,$5*
1,1,$1+$1,$6,$7*
1,1,$1+$1,$8,$9*
0 Add four rect primitives between the rounded corners*
20,1,$1+$1,$2,$3,$4,$5,0*
20,1,$1+$1,$4,$5,$6,$7,0*
20,1,$1+$1,$6,$7,$8,$9,0*
20,1,$1+$1,$8,$9,$2,$3,0*%
%AMOutline5P*
0 Free polygon, 5 corners , with rotation*
0 The origin of the aperture is its center*
0 number of corners: always 5*
0 $1 to $10 corner X, Y*
0 $11 Rotation angle, in degrees counterclockwise*
0 create outline with 5 corners*
4,1,5,$1,$2,$3,$4,$5,$6,$7,$8,$9,$10,$1,$2,$11*%
%AMOutline6P*
0 Free polygon, 6 corners , with rotation*
0 The origin of the aperture is its center*
0 number of corners: always 6*
0 $1 to $12 corner X, Y*
0 $13 Rotation angle, in degrees counterclockwise*
0 create outline with 6 corners*
4,1,6,$1,$2,$3,$4,$5,$6,$7,$8,$9,$10,$11,$12,$1,$2,$13*%
%AMOutline7P*
0 Free polygon, 7 corners , with rotation*
0 The origin of the aperture is its center*
0 number of corners: always 7*
0 $1 to $14 corner X, Y*
0 $15 Rotation angle, in degrees counterclockwise*
0 create outline with 7 corners*
4,1,7,$1,$2,$3,$4,$5,$6,$7,$8,$9,$10,$11,$12,$13,$14,$1,$2,$15*%
%AMOutline8P*
0 Free polygon, 8 corners , with rotation*
0 The origin of the aperture is its center*
0 number of corners: always 8*
0 $1 to $16 corner X, Y*
0 $17 Rotation angle, in degrees counterclockwise*
0 create outline with 8 corners*
4,1,8,$1,$2,$3,$4,$5,$6,$7,$8,$9,$10,$11,$12,$13,$14,$15,$16,$1,$2,$17*%
G04 Aperture macros list end*
%ADD10C,0.125000*%
%ADD11C,0.100000*%
%ADD12C,0.120000*%
%ADD13C,0.200000*%
%ADD14C,0.127000*%
%ADD15C,0.152400*%
%ADD16C,0.150000*%
%ADD17RoundRect,0.160000X0.160000X-0.222500X0.160000X0.222500X-0.160000X0.222500X-0.160000X-0.222500X0*%
%ADD18RoundRect,0.160000X0.160000X-0.197500X0.160000X0.197500X-0.160000X0.197500X-0.160000X-0.197500X0*%
%ADD19RoundRect,0.160000X-0.197500X-0.160000X0.197500X-0.160000X0.197500X0.160000X-0.197500X0.160000X0*%
%ADD20RoundRect,0.155000X-0.212500X-0.155000X0.212500X-0.155000X0.212500X0.155000X-0.212500X0.155000X0*%
%ADD21RoundRect,0.062500X-0.375000X-0.062500X0.375000X-0.062500X0.375000X0.062500X-0.375000X0.062500X0*%
%ADD22RoundRect,0.062500X-0.062500X-0.375000X0.062500X-0.375000X0.062500X0.375000X-0.062500X0.375000X0*%
%ADD23R,1.600000X1.600000*%
%ADD24RoundRect,0.155000X0.212500X0.155000X-0.212500X0.155000X-0.212500X-0.155000X0.212500X-0.155000X0*%
%ADD25R,0.450000X0.590000*%
%ADD26RoundRect,0.087500X0.087500X-0.087500X0.087500X0.087500X-0.087500X0.087500X-0.087500X-0.087500X0*%
%ADD27RoundRect,0.500000X-1.000000X-0.500000X1.000000X-0.500000X1.000000X0.500000X-1.000000X0.500000X0*%
%ADD28RoundRect,0.102000X-0.550000X-0.300000X0.550000X-0.300000X0.550000X0.300000X-0.550000X0.300000X0*%
%ADD29Outline5P,-0.625000X0.375000X-0.375000X0.625000X0.625000X0.625000X0.625000X-0.625000X-0.625000X-0.625000X0.000000*%
%ADD30C,1.250000*%
%ADD31C,2.200000*%
%ADD32R,1.500000X2.200000*%
%ADD33RoundRect,0.160000X0.197500X0.160000X-0.197500X0.160000X-0.197500X-0.160000X0.197500X-0.160000X0*%
%ADD34RoundRect,0.500000X-0.750000X-0.500000X0.750000X-0.500000X0.750000X0.500000X-0.750000X0.500000X0*%
%ADD35RoundRect,0.160000X-0.160000X0.197500X-0.160000X-0.197500X0.160000X-0.197500X0.160000X0.197500X0*%
%ADD36RoundRect,0.155000X0.155000X-0.212500X0.155000X0.212500X-0.155000X0.212500X-0.155000X-0.212500X0*%
%ADD37RoundRect,0.150000X-0.587500X-0.150000X0.587500X-0.150000X0.587500X0.150000X-0.587500X0.150000X0*%
%ADD38R,0.600000X1.200000*%
%ADD39RoundRect,0.100000X-0.400000X-0.400000X0.400000X-0.400000X0.400000X0.400000X-0.400000X0.400000X0*%
%ADD40RoundRect,0.150000X0.150000X-0.587500X0.150000X0.587500X-0.150000X0.587500X-0.150000X-0.587500X0*%
%ADD41R,2.000000X2.400000*%
%ADD42R,0.699000X0.508000*%
%ADD43R,1.600000X0.550000*%
%ADD44R,0.550000X1.600000*%
%ADD45R,1.500000X1.300000*%
%ADD46RoundRect,0.050000X-0.100000X0.100000X-0.100000X-0.100000X0.100000X-0.100000X0.100000X0.100000X0*%
%ADD47O,0.300000X0.950000*%
%ADD48R,0.575000X0.400000*%
%ADD49R,0.675000X0.400000*%
%ADD50R,1.950000X2.600000*%
G04 APERTURE END LIST*
D10*
G36*
X109707046Y-103975462D02*
G01*
X109674989Y-103785685D01*
X109721884Y-103785685D01*
X109727465Y-103746528D01*
X109742097Y-103708300D01*
X109765384Y-103679629D01*
X109797326Y-103660516D01*
X109837924Y-103650959D01*
X109861468Y-103649764D01*
X109898116Y-103653347D01*
X109933899Y-103665946D01*
X109963914Y-103687615D01*
X109980720Y-103707100D01*
X109998912Y-103738939D01*
X110011907Y-103777121D01*
X110019013Y-103815734D01*
X110021937Y-103852695D01*
X110022302Y-103872513D01*
X109883633Y-103872513D01*
X109880232Y-103835297D01*
X109865865Y-103802904D01*
X109833156Y-103784166D01*
X109808529Y-103781655D01*
X109771266Y-103789999D01*
X109742530Y-103815031D01*
X109732142Y-103832213D01*
X109718908Y-103867848D01*
X109711188Y-103907016D01*
X109707659Y-103947476D01*
X109707046Y-103975462D01*
G37*
G36*
X109452423Y-104212500D02*
G01*
X109452423Y-104092332D01*
X109834724Y-104092332D01*
X109834724Y-104212500D01*
X109452423Y-104212500D01*
G37*
G36*
X109567827Y-104212500D02*
G01*
X109567827Y-103661488D01*
X109686346Y-103661488D01*
X109707046Y-103819574D01*
X109707046Y-104212500D01*
X109567827Y-104212500D01*
G37*
G36*
X109473122Y-103781655D02*
G01*
X109473122Y-103661488D01*
X109679202Y-103661488D01*
X109689460Y-103781655D01*
X109473122Y-103781655D01*
G37*
G36*
X110392330Y-104224223D02*
G01*
X110349597Y-104222407D01*
X110310013Y-104216960D01*
X110273577Y-104207882D01*
X110234009Y-104192194D01*
X110198976Y-104171277D01*
X110173244Y-104149851D01*
X110147036Y-104119613D01*
X110126250Y-104084816D01*
X110110886Y-104045459D01*
X110102225Y-104009178D01*
X110097330Y-103969732D01*
X110096125Y-103935894D01*
X110097726Y-103894957D01*
X110102529Y-103856979D01*
X110112520Y-103815315D01*
X110127121Y-103777913D01*
X110146334Y-103744775D01*
X110161704Y-103725052D01*
X110188196Y-103699466D01*
X110223906Y-103676306D01*
X110258630Y-103662189D01*
X110297154Y-103653367D01*
X110339478Y-103649838D01*
X110346901Y-103649764D01*
X110388922Y-103652205D01*
X110427195Y-103659527D01*
X110467110Y-103674239D01*
X110501923Y-103695596D01*
X110527702Y-103719190D01*
X110552612Y-103752588D01*
X110569094Y-103786029D01*
X110581081Y-103823913D01*
X110588573Y-103866241D01*
X110591383Y-103904909D01*
X110591632Y-103921240D01*
X110590854Y-103957876D01*
X110588518Y-103992681D01*
X110187716Y-103992681D01*
X110187716Y-103895961D01*
X110454612Y-103895961D01*
X110450671Y-103857106D01*
X110436110Y-103821217D01*
X110426585Y-103808949D01*
X110395359Y-103787255D01*
X110357282Y-103778990D01*
X110348000Y-103778724D01*
X110310485Y-103784314D01*
X110277576Y-103802986D01*
X110263187Y-103818475D01*
X110244880Y-103852976D01*
X110236079Y-103888890D01*
X110233174Y-103926779D01*
X110233145Y-103931315D01*
X110235927Y-103968421D01*
X110245708Y-104004499D01*
X110264835Y-104037551D01*
X110277658Y-104051299D01*
X110309261Y-104072938D01*
X110343974Y-104085560D01*
X110384628Y-104091691D01*
X110404603Y-104092332D01*
X110441515Y-104091370D01*
X110477876Y-104088485D01*
X110514330Y-104083906D01*
X110551516Y-104077861D01*
X110564888Y-104209752D01*
X110526858Y-104215805D01*
X110488507Y-104220212D01*
X110469084Y-104221659D01*
X110430597Y-104223499D01*
X110392330Y-104224223D01*
G37*
G36*
X110868970Y-104212500D02*
G01*
X110681941Y-103661488D01*
X110824091Y-103661488D01*
X110953967Y-104089401D01*
X110963309Y-104089401D01*
X111093185Y-103661488D01*
X111235334Y-103661488D01*
X111048306Y-104212500D01*
X110868970Y-104212500D01*
G37*
G36*
X111615860Y-103652398D02*
G01*
X111654495Y-103660300D01*
X111689396Y-103673470D01*
X111725392Y-103695492D01*
X111756304Y-103724685D01*
X111778342Y-103754977D01*
X111795820Y-103789661D01*
X111808739Y-103828737D01*
X111816021Y-103864655D01*
X111820138Y-103903623D01*
X111821151Y-103936994D01*
X111819568Y-103978252D01*
X111814818Y-104016506D01*
X111804939Y-104058443D01*
X111790501Y-104096053D01*
X111771503Y-104129335D01*
X111756304Y-104149118D01*
X111725392Y-104178383D01*
X111689396Y-104200460D01*
X111654495Y-104213662D01*
X111615860Y-104221583D01*
X111573489Y-104224223D01*
X111531056Y-104221583D01*
X111492370Y-104213662D01*
X111457433Y-104200460D01*
X111421411Y-104178383D01*
X111390490Y-104149118D01*
X111368452Y-104118722D01*
X111350974Y-104083997D01*
X111338055Y-104044945D01*
X111329696Y-104001565D01*
X111326213Y-103962110D01*
X111325643Y-103936994D01*
X111473471Y-103936994D01*
X111475543Y-103976073D01*
X111482706Y-104013275D01*
X111498055Y-104049274D01*
X111499666Y-104051849D01*
X111526814Y-104079523D01*
X111562097Y-104091699D01*
X111573672Y-104092332D01*
X111611208Y-104084583D01*
X111640470Y-104061337D01*
X111647311Y-104051849D01*
X111663162Y-104016635D01*
X111670783Y-103980088D01*
X111673298Y-103941598D01*
X111673323Y-103936994D01*
X111671265Y-103897677D01*
X111664153Y-103860383D01*
X111648911Y-103824508D01*
X111647311Y-103821955D01*
X111620378Y-103794406D01*
X111585101Y-103782285D01*
X111573489Y-103781655D01*
X111536007Y-103789369D01*
X111506590Y-103812510D01*
X111499666Y-103821955D01*
X111483704Y-103857023D01*
X111476029Y-103893645D01*
X111473497Y-103932356D01*
X111473471Y-103936994D01*
X111325643Y-103936994D01*
X111327226Y-103895585D01*
X111331976Y-103857227D01*
X111341855Y-103815223D01*
X111356293Y-103777612D01*
X111375291Y-103744392D01*
X111390490Y-103724685D01*
X111421411Y-103695492D01*
X111457433Y-103673470D01*
X111492370Y-103660300D01*
X111531056Y-103652398D01*
X111573489Y-103649764D01*
X111615860Y-103652398D01*
G37*
G36*
X112269581Y-104224223D02*
G01*
X112232929Y-104222227D01*
X112195279Y-104214851D01*
X112158992Y-104199767D01*
X112126763Y-104174313D01*
X112120837Y-104167437D01*
X112100962Y-104134704D01*
X112088229Y-104099095D01*
X112079844Y-104056981D01*
X112076118Y-104015708D01*
X112075408Y-103985537D01*
X112075408Y-103438738D01*
X112214443Y-103438738D01*
X112214443Y-103979675D01*
X112217234Y-104017399D01*
X112221587Y-104035362D01*
X112244508Y-104064634D01*
X112249431Y-104067419D01*
X112285198Y-104076465D01*
X112310797Y-104077677D01*
X112348080Y-104074921D01*
X112384266Y-104068413D01*
X112420809Y-104059283D01*
X112425102Y-104058077D01*
X112441039Y-104202424D01*
X112403327Y-104211170D01*
X112366808Y-104217531D01*
X112356592Y-104218911D01*
X112319922Y-104222542D01*
X112281078Y-104224140D01*
X112269581Y-104224223D01*
G37*
G36*
X111920802Y-103567698D02*
G01*
X111920802Y-103438738D01*
X112084567Y-103438738D01*
X112084567Y-103567698D01*
X111920802Y-103567698D01*
G37*
G36*
X112723506Y-104224223D02*
G01*
X112686778Y-104220983D01*
X112650714Y-104209592D01*
X112617169Y-104187317D01*
X112602972Y-104172383D01*
X112582340Y-104139861D01*
X112569669Y-104105308D01*
X112562333Y-104065443D01*
X112560291Y-104026203D01*
X112560291Y-103661488D01*
X112699876Y-103661488D01*
X112699876Y-103992864D01*
X112703943Y-104030401D01*
X112719817Y-104064856D01*
X112721125Y-104066503D01*
X112752323Y-104088069D01*
X112780293Y-104092332D01*
X112818495Y-104084899D01*
X112849233Y-104060438D01*
X112854115Y-104053497D01*
X112869408Y-104016978D01*
X112876246Y-103979886D01*
X112878990Y-103939932D01*
X112879211Y-103923255D01*
X112907055Y-104106987D01*
X112864740Y-104106987D01*
X112853149Y-104142806D01*
X112833889Y-104174821D01*
X112814914Y-104193998D01*
X112781977Y-104213568D01*
X112746476Y-104222777D01*
X112723506Y-104224223D01*
G37*
G36*
X112888370Y-104217629D02*
G01*
X112879211Y-104085921D01*
X112879211Y-103989384D01*
X113018796Y-103989384D01*
X113018796Y-104086470D01*
X113094084Y-104098011D01*
X113094084Y-104212500D01*
X112888370Y-104217629D01*
G37*
G36*
X112879211Y-104056978D02*
G01*
X112879211Y-103661488D01*
X113018796Y-103661488D01*
X113018796Y-104025837D01*
X112879211Y-104056978D01*
G37*
G36*
X113533538Y-104224223D02*
G01*
X113491364Y-104222819D01*
X113453002Y-104218606D01*
X113411996Y-104209843D01*
X113376477Y-104197036D01*
X113341974Y-104176983D01*
X113329473Y-104166704D01*
X113304990Y-104138226D01*
X113286521Y-104103121D01*
X113275477Y-104067757D01*
X113268850Y-104027524D01*
X113266703Y-103990278D01*
X113266641Y-103982423D01*
X113266641Y-103910249D01*
X113405860Y-103910249D01*
X113405860Y-103969783D01*
X113408990Y-104006455D01*
X113421011Y-104041489D01*
X113437916Y-104063206D01*
X113470974Y-104082064D01*
X113509667Y-104090512D01*
X113543979Y-104092332D01*
X113581279Y-104090786D01*
X113594537Y-104089584D01*
X113631274Y-104085277D01*
X113656270Y-104082074D01*
X113668543Y-104211950D01*
X113630882Y-104217823D01*
X113602231Y-104221109D01*
X113564628Y-104223627D01*
X113533538Y-104224223D01*
G37*
G36*
X113266641Y-103942855D02*
G01*
X113266641Y-103497356D01*
X113405860Y-103497356D01*
X113405860Y-103942855D01*
X113266641Y-103942855D01*
G37*
G36*
X113135849Y-103790448D02*
G01*
X113135849Y-103661488D01*
X113648026Y-103661488D01*
X113648026Y-103790448D01*
X113135849Y-103790448D01*
G37*
G36*
X114080886Y-104224223D02*
G01*
X114038153Y-104222407D01*
X113998568Y-104216960D01*
X113962132Y-104207882D01*
X113922565Y-104192194D01*
X113887531Y-104171277D01*
X113861800Y-104149851D01*
X113835591Y-104119613D01*
X113814805Y-104084816D01*
X113799441Y-104045459D01*
X113790781Y-104009178D01*
X113785885Y-103969732D01*
X113784680Y-103935894D01*
X113786281Y-103894957D01*
X113791084Y-103856979D01*
X113801075Y-103815315D01*
X113815677Y-103777913D01*
X113834889Y-103744775D01*
X113850259Y-103725052D01*
X113876751Y-103699466D01*
X113912461Y-103676306D01*
X113947186Y-103662189D01*
X113985710Y-103653367D01*
X114028033Y-103649838D01*
X114035457Y-103649764D01*
X114077478Y-103652205D01*
X114115750Y-103659527D01*
X114155665Y-103674239D01*
X114190478Y-103695596D01*
X114216257Y-103719190D01*
X114241168Y-103752588D01*
X114257650Y-103786029D01*
X114269637Y-103823913D01*
X114277129Y-103866241D01*
X114279938Y-103904909D01*
X114280188Y-103921240D01*
X114279409Y-103957876D01*
X114277074Y-103992681D01*
X113876271Y-103992681D01*
X113876271Y-103895961D01*
X114143168Y-103895961D01*
X114139226Y-103857106D01*
X114124666Y-103821217D01*
X114115141Y-103808949D01*
X114083915Y-103787255D01*
X114045837Y-103778990D01*
X114036556Y-103778724D01*
X113999041Y-103784314D01*
X113966132Y-103802986D01*
X113951742Y-103818475D01*
X113933436Y-103852976D01*
X113924634Y-103888890D01*
X113921730Y-103926779D01*
X113921700Y-103931315D01*
X113924483Y-103968421D01*
X113934263Y-104004499D01*
X113953390Y-104037551D01*
X113966214Y-104051299D01*
X113997816Y-104072938D01*
X114032529Y-104085560D01*
X114073184Y-104091691D01*
X114093159Y-104092332D01*
X114130070Y-104091370D01*
X114166432Y-104088485D01*
X114202885Y-104083906D01*
X114240071Y-104077861D01*
X114253443Y-104209752D01*
X114215413Y-104215805D01*
X114177062Y-104220212D01*
X114157639Y-104221659D01*
X114119152Y-104223499D01*
X114080886Y-104224223D01*
G37*
G36*
X115325792Y-104224223D02*
G01*
X115280902Y-104222407D01*
X115239313Y-104216960D01*
X115201025Y-104207882D01*
X115166037Y-104195172D01*
X115128408Y-104175126D01*
X115095532Y-104149851D01*
X115067891Y-104119613D01*
X115045969Y-104084816D01*
X115029766Y-104045459D01*
X115020632Y-104009178D01*
X115015470Y-103969732D01*
X115014199Y-103935894D01*
X115016006Y-103894957D01*
X115021426Y-103856979D01*
X115032700Y-103815315D01*
X115049178Y-103777913D01*
X115070859Y-103744775D01*
X115088204Y-103725052D01*
X115118260Y-103699466D01*
X115152785Y-103679173D01*
X115191779Y-103664175D01*
X115227688Y-103655719D01*
X115266701Y-103650940D01*
X115300146Y-103649764D01*
X115340950Y-103651859D01*
X115378731Y-103658145D01*
X115417622Y-103670224D01*
X115445226Y-103683286D01*
X115476447Y-103704228D01*
X115504612Y-103732628D01*
X115525907Y-103766431D01*
X115530956Y-103777625D01*
X115429839Y-103859141D01*
X115406110Y-103828023D01*
X115376827Y-103804390D01*
X115372503Y-103801805D01*
X115338253Y-103787342D01*
X115301105Y-103781734D01*
X115295933Y-103781655D01*
X115258978Y-103785448D01*
X115221952Y-103800011D01*
X115197198Y-103820490D01*
X115175765Y-103854089D01*
X115164809Y-103892990D01*
X115162027Y-103930582D01*
X115164889Y-103967791D01*
X115174951Y-104004013D01*
X115194629Y-104037258D01*
X115207822Y-104051116D01*
X115240316Y-104072851D01*
X115275984Y-104085530D01*
X115312797Y-104091326D01*
X115338248Y-104092332D01*
X115375113Y-104091462D01*
X115412070Y-104088852D01*
X115448569Y-104084547D01*
X115484061Y-104078960D01*
X115498349Y-104208836D01*
X115461404Y-104215693D01*
X115423336Y-104220236D01*
X115412254Y-104221109D01*
X115373885Y-104223238D01*
X115336359Y-104224174D01*
X115325792Y-104224223D01*
G37*
G36*
X115968394Y-104212500D02*
G01*
X115968394Y-103878192D01*
X115964503Y-103841707D01*
X115949312Y-103808340D01*
X115948061Y-103806751D01*
X115917781Y-103785797D01*
X115889993Y-103781655D01*
X115849094Y-103788659D01*
X115818240Y-103809670D01*
X115797432Y-103844688D01*
X115787592Y-103885853D01*
X115785029Y-103928018D01*
X115753155Y-103760223D01*
X115798401Y-103760223D01*
X115807289Y-103722450D01*
X115825536Y-103688475D01*
X115835954Y-103677241D01*
X115868006Y-103658458D01*
X115904911Y-103650730D01*
X115926629Y-103649764D01*
X115967490Y-103653084D01*
X116003428Y-103663045D01*
X116037974Y-103682188D01*
X116060535Y-103702887D01*
X116083470Y-103736231D01*
X116097555Y-103771686D01*
X116105709Y-103812613D01*
X116107979Y-103852913D01*
X116107979Y-104212500D01*
X115968394Y-104212500D01*
G37*
G36*
X115645444Y-104212500D02*
G01*
X115645444Y-103438738D01*
X115785029Y-103438738D01*
X115785029Y-104212500D01*
X115645444Y-104212500D01*
G37*
G36*
X116591946Y-104217629D02*
G01*
X116580040Y-104053497D01*
X116578025Y-103979858D01*
X116578025Y-103869216D01*
X116569814Y-103831980D01*
X116542955Y-103804061D01*
X116540655Y-103802721D01*
X116504307Y-103788719D01*
X116468200Y-103782186D01*
X116429647Y-103779457D01*
X116290062Y-103775793D01*
X116300321Y-103649764D01*
X116419389Y-103651413D01*
X116463892Y-103653406D01*
X116504665Y-103658128D01*
X116541709Y-103665578D01*
X116581237Y-103678119D01*
X116615395Y-103694588D01*
X116639757Y-103711313D01*
X116667879Y-103739091D01*
X116689095Y-103771936D01*
X116703402Y-103809847D01*
X116710169Y-103846374D01*
X116711931Y-103879658D01*
X116711931Y-104086470D01*
X116787768Y-104098011D01*
X116787768Y-104212500D01*
X116591946Y-104217629D01*
G37*
G36*
X116406933Y-104224223D02*
G01*
X116365831Y-104221487D01*
X116329538Y-104213278D01*
X116294456Y-104197502D01*
X116271378Y-104180443D01*
X116245875Y-104149484D01*
X116230999Y-104115473D01*
X116223773Y-104075637D01*
X116223018Y-104056062D01*
X116226051Y-104017124D01*
X116236944Y-103977754D01*
X116255760Y-103943857D01*
X116282499Y-103915432D01*
X116286399Y-103912264D01*
X116321409Y-103890305D01*
X116357491Y-103876238D01*
X116398656Y-103866974D01*
X116437988Y-103862856D01*
X116466284Y-103862072D01*
X116503114Y-103862984D01*
X116539624Y-103866258D01*
X116543770Y-103866835D01*
X116580832Y-103873610D01*
X116609898Y-103881123D01*
X116587367Y-103989750D01*
X116550537Y-103982721D01*
X116528016Y-103980591D01*
X116490699Y-103979434D01*
X116472878Y-103979309D01*
X116436149Y-103981640D01*
X116398997Y-103992001D01*
X116371555Y-104016609D01*
X116364801Y-104045621D01*
X116374832Y-104081256D01*
X116384218Y-104091233D01*
X116419740Y-104105448D01*
X116441554Y-104106987D01*
X116478304Y-104103586D01*
X116513349Y-104091370D01*
X116517208Y-104089218D01*
X116546607Y-104066214D01*
X116562821Y-104044155D01*
X116575887Y-104009236D01*
X116578025Y-103987735D01*
X116578025Y-103952198D01*
X116597625Y-104095629D01*
X116553845Y-104095629D01*
X116571796Y-104078777D01*
X116567522Y-104115558D01*
X116554926Y-104151385D01*
X116550181Y-104159743D01*
X116526001Y-104188090D01*
X116493761Y-104208286D01*
X116456618Y-104219725D01*
X116419349Y-104223974D01*
X116406933Y-104224223D01*
G37*
G36*
X117084157Y-103975462D02*
G01*
X117052100Y-103785685D01*
X117098995Y-103785685D01*
X117104576Y-103746528D01*
X117119208Y-103708300D01*
X117142495Y-103679629D01*
X117174437Y-103660516D01*
X117215035Y-103650959D01*
X117238579Y-103649764D01*
X117275227Y-103653347D01*
X117311010Y-103665946D01*
X117341025Y-103687615D01*
X117357831Y-103707100D01*
X117376023Y-103738939D01*
X117389018Y-103777121D01*
X117396124Y-103815734D01*
X117399048Y-103852695D01*
X117399413Y-103872513D01*
X117260744Y-103872513D01*
X117257343Y-103835297D01*
X117242976Y-103802904D01*
X117210266Y-103784166D01*
X117185640Y-103781655D01*
X117148377Y-103789999D01*
X117119641Y-103815031D01*
X117109253Y-103832213D01*
X117096019Y-103867848D01*
X117088299Y-103907016D01*
X117084770Y-103947476D01*
X117084157Y-103975462D01*
G37*
G36*
X116829534Y-104212500D02*
G01*
X116829534Y-104092332D01*
X117211835Y-104092332D01*
X117211835Y-104212500D01*
X116829534Y-104212500D01*
G37*
G36*
X116944938Y-104212500D02*
G01*
X116944938Y-103661488D01*
X117063457Y-103661488D01*
X117084157Y-103819574D01*
X117084157Y-104212500D01*
X116944938Y-104212500D01*
G37*
G36*
X116850233Y-103781655D02*
G01*
X116850233Y-103661488D01*
X117056313Y-103661488D01*
X117066571Y-103781655D01*
X116850233Y-103781655D01*
G37*
G36*
X117505659Y-104455765D02*
G01*
X117500530Y-104332667D01*
X117675652Y-104327538D01*
X117713105Y-104323564D01*
X117750342Y-104310994D01*
X117780249Y-104287604D01*
X117800007Y-104254142D01*
X117809506Y-104218582D01*
X117812641Y-104180614D01*
X117812672Y-104176046D01*
X117812672Y-103777259D01*
X117822930Y-103661488D01*
X117952257Y-103661488D01*
X117952257Y-104160293D01*
X117950584Y-104204100D01*
X117945567Y-104244159D01*
X117937204Y-104280471D01*
X117922752Y-104319098D01*
X117903484Y-104352328D01*
X117883747Y-104375898D01*
X117855196Y-104399735D01*
X117820927Y-104419037D01*
X117780939Y-104433806D01*
X117743247Y-104442651D01*
X117701584Y-104448346D01*
X117665394Y-104450636D01*
X117505659Y-104455765D01*
G37*
G36*
X117666859Y-104224223D02*
G01*
X117624617Y-104220673D01*
X117586687Y-104210023D01*
X117553070Y-104192273D01*
X117523765Y-104167422D01*
X117508956Y-104150034D01*
X117486972Y-104114509D01*
X117472426Y-104079175D01*
X117461848Y-104039333D01*
X117456062Y-104002687D01*
X117453032Y-103962911D01*
X117452536Y-103937543D01*
X117453914Y-103896130D01*
X117458046Y-103857759D01*
X117466641Y-103815727D01*
X117479203Y-103778074D01*
X117495733Y-103744801D01*
X117508956Y-103725052D01*
X117535849Y-103695716D01*
X117567159Y-103673586D01*
X117602888Y-103658660D01*
X117643034Y-103650940D01*
X117667958Y-103649764D01*
X117707227Y-103653011D01*
X117744483Y-103665220D01*
X117762480Y-103677241D01*
X117786378Y-103706593D01*
X117800845Y-103743644D01*
X117804429Y-103760406D01*
X117844729Y-103760406D01*
X117812672Y-103937543D01*
X117811012Y-103899705D01*
X117804268Y-103860102D01*
X117789327Y-103823866D01*
X117786111Y-103819024D01*
X117757715Y-103793479D01*
X117722118Y-103782567D01*
X117706060Y-103781655D01*
X117668493Y-103788397D01*
X117636557Y-103810737D01*
X117627292Y-103822505D01*
X117610325Y-103857830D01*
X117602167Y-103894431D01*
X117599475Y-103932939D01*
X117599448Y-103937543D01*
X117601578Y-103977820D01*
X117608941Y-104015537D01*
X117624719Y-104051022D01*
X117626376Y-104053497D01*
X117654972Y-104080045D01*
X117690253Y-104091384D01*
X117706060Y-104092332D01*
X117742830Y-104087981D01*
X117777231Y-104069859D01*
X117789225Y-104055512D01*
X117803513Y-104021664D01*
X117810382Y-103983933D01*
X117812649Y-103942572D01*
X117812672Y-103937543D01*
X117849858Y-104113581D01*
X117801315Y-104113581D01*
X117791423Y-104151182D01*
X117772335Y-104183138D01*
X117758450Y-104196563D01*
X117723969Y-104215471D01*
X117687493Y-104223251D01*
X117666859Y-104224223D01*
G37*
G36*
X118302318Y-104212500D02*
G01*
X118302318Y-103692445D01*
X118441353Y-103692445D01*
X118441353Y-104212500D01*
X118302318Y-104212500D01*
G37*
G36*
X118100268Y-104212500D02*
G01*
X118100268Y-104083539D01*
X118312576Y-104083539D01*
X118312576Y-104212500D01*
X118100268Y-104212500D01*
G37*
G36*
X118431095Y-104212500D02*
G01*
X118431095Y-104083539D01*
X118603103Y-104083539D01*
X118603103Y-104212500D01*
X118431095Y-104212500D01*
G37*
G36*
X118131226Y-103790448D02*
G01*
X118131226Y-103661488D01*
X118441353Y-103661488D01*
X118441353Y-103790448D01*
X118131226Y-103790448D01*
G37*
G36*
X118365699Y-103588215D02*
G01*
X118327703Y-103581235D01*
X118301219Y-103563485D01*
X118281223Y-103530764D01*
X118276489Y-103498822D01*
X118283469Y-103460826D01*
X118301219Y-103434342D01*
X118333792Y-103414197D01*
X118365699Y-103409429D01*
X118403552Y-103416460D01*
X118429996Y-103434342D01*
X118449992Y-103466915D01*
X118454726Y-103498822D01*
X118447746Y-103536869D01*
X118429996Y-103563485D01*
X118397480Y-103583481D01*
X118365699Y-103588215D01*
G37*
G36*
X119042191Y-104212500D02*
G01*
X119042191Y-103886435D01*
X119038835Y-103849345D01*
X119025491Y-103814237D01*
X119021857Y-103808949D01*
X118991577Y-103786160D01*
X118963789Y-103781655D01*
X118922890Y-103789115D01*
X118892036Y-103811493D01*
X118871228Y-103848790D01*
X118862516Y-103884566D01*
X118858928Y-103927952D01*
X118858825Y-103937543D01*
X118826952Y-103761322D01*
X118872198Y-103761322D01*
X118881085Y-103723163D01*
X118899332Y-103688802D01*
X118909750Y-103677424D01*
X118941802Y-103658516D01*
X118978707Y-103650736D01*
X119000425Y-103649764D01*
X119041286Y-103653084D01*
X119077224Y-103663045D01*
X119111770Y-103682188D01*
X119134331Y-103702887D01*
X119157266Y-103736231D01*
X119171351Y-103771686D01*
X119179505Y-103812613D01*
X119181775Y-103852913D01*
X119181775Y-104212500D01*
X119042191Y-104212500D01*
G37*
G36*
X118719241Y-104212500D02*
G01*
X118719241Y-103661488D01*
X118843804Y-103661488D01*
X118858825Y-103777991D01*
X118858825Y-104212500D01*
X118719241Y-104212500D01*
G37*
G36*
X119349937Y-104455765D02*
G01*
X119344808Y-104332667D01*
X119519930Y-104327538D01*
X119557383Y-104323564D01*
X119594619Y-104310994D01*
X119624527Y-104287604D01*
X119644285Y-104254142D01*
X119653784Y-104218582D01*
X119656918Y-104180614D01*
X119656950Y-104176046D01*
X119656950Y-103777259D01*
X119667208Y-103661488D01*
X119796535Y-103661488D01*
X119796535Y-104160293D01*
X119794862Y-104204100D01*
X119789844Y-104244159D01*
X119781481Y-104280471D01*
X119767030Y-104319098D01*
X119747761Y-104352328D01*
X119728025Y-104375898D01*
X119699474Y-104399735D01*
X119665205Y-104419037D01*
X119625217Y-104433806D01*
X119587525Y-104442651D01*
X119545861Y-104448346D01*
X119509672Y-104450636D01*
X119349937Y-104455765D01*
G37*
G36*
X119511137Y-104224223D02*
G01*
X119468895Y-104220673D01*
X119430965Y-104210023D01*
X119397348Y-104192273D01*
X119368043Y-104167422D01*
X119353234Y-104150034D01*
X119331250Y-104114509D01*
X119316704Y-104079175D01*
X119306125Y-104039333D01*
X119300340Y-104002687D01*
X119297310Y-103962911D01*
X119296814Y-103937543D01*
X119298191Y-103896130D01*
X119302324Y-103857759D01*
X119310919Y-103815727D01*
X119323481Y-103778074D01*
X119340011Y-103744801D01*
X119353234Y-103725052D01*
X119380127Y-103695716D01*
X119411437Y-103673586D01*
X119447166Y-103658660D01*
X119487312Y-103650940D01*
X119512236Y-103649764D01*
X119551505Y-103653011D01*
X119588760Y-103665220D01*
X119606758Y-103677241D01*
X119630655Y-103706593D01*
X119645123Y-103743644D01*
X119648707Y-103760406D01*
X119689007Y-103760406D01*
X119656950Y-103937543D01*
X119655290Y-103899705D01*
X119648546Y-103860102D01*
X119633605Y-103823866D01*
X119630389Y-103819024D01*
X119601993Y-103793479D01*
X119566396Y-103782567D01*
X119550338Y-103781655D01*
X119512771Y-103788397D01*
X119480834Y-103810737D01*
X119471570Y-103822505D01*
X119454602Y-103857830D01*
X119446445Y-103894431D01*
X119443753Y-103932939D01*
X119443726Y-103937543D01*
X119445856Y-103977820D01*
X119453219Y-104015537D01*
X119468997Y-104051022D01*
X119470654Y-104053497D01*
X119499249Y-104080045D01*
X119534530Y-104091384D01*
X119550338Y-104092332D01*
X119587108Y-104087981D01*
X119621509Y-104069859D01*
X119633503Y-104055512D01*
X119647791Y-104021664D01*
X119654660Y-103983933D01*
X119656927Y-103942572D01*
X119656950Y-103937543D01*
X119694136Y-104113581D01*
X119645593Y-104113581D01*
X119635701Y-104151182D01*
X119616613Y-104183138D01*
X119602728Y-104196563D01*
X119568247Y-104215471D01*
X119531771Y-104223251D01*
X119511137Y-104224223D01*
G37*
G36*
X120563518Y-104446973D02*
G01*
X120563518Y-103661488D01*
X120692845Y-103661488D01*
X120703103Y-103777259D01*
X120703103Y-104446973D01*
X120563518Y-104446973D01*
G37*
G36*
X120848916Y-104224223D02*
G01*
X120812286Y-104220955D01*
X120775861Y-104208664D01*
X120757142Y-104196563D01*
X120732022Y-104167065D01*
X120717676Y-104130194D01*
X120714460Y-104113581D01*
X120665917Y-104113581D01*
X120703103Y-103937543D01*
X120704580Y-103975347D01*
X120710580Y-104014810D01*
X120723872Y-104050737D01*
X120726734Y-104055512D01*
X120754338Y-104080682D01*
X120792088Y-104091433D01*
X120809715Y-104092332D01*
X120848198Y-104085923D01*
X120880175Y-104064685D01*
X120889216Y-104053497D01*
X120905737Y-104018902D01*
X120913680Y-103981925D01*
X120916301Y-103942315D01*
X120916327Y-103937543D01*
X120914125Y-103898449D01*
X120906511Y-103861197D01*
X120890196Y-103825090D01*
X120888483Y-103822505D01*
X120862140Y-103796056D01*
X120825114Y-103782652D01*
X120809715Y-103781655D01*
X120770906Y-103787822D01*
X120738849Y-103808259D01*
X120729848Y-103819024D01*
X120713550Y-103853208D01*
X120705715Y-103891100D01*
X120703129Y-103932514D01*
X120703103Y-103937543D01*
X120671229Y-103760406D01*
X120711346Y-103760406D01*
X120721796Y-103722522D01*
X120740268Y-103690550D01*
X120753295Y-103677241D01*
X120787255Y-103658458D01*
X120825517Y-103650730D01*
X120847817Y-103649764D01*
X120884662Y-103652411D01*
X120923546Y-103662189D01*
X120958013Y-103679173D01*
X120988061Y-103703362D01*
X121006819Y-103725052D01*
X121028803Y-103760890D01*
X121043349Y-103796353D01*
X121053928Y-103836195D01*
X121059713Y-103872742D01*
X121062743Y-103912331D01*
X121063239Y-103937543D01*
X121061862Y-103979197D01*
X121057729Y-104017721D01*
X121049134Y-104059817D01*
X121036572Y-104097405D01*
X121020043Y-104130485D01*
X121006819Y-104150034D01*
X120979979Y-104178942D01*
X120948826Y-104200749D01*
X120913361Y-104215457D01*
X120873583Y-104223064D01*
X120848916Y-104224223D01*
G37*
G36*
X121452008Y-103652398D02*
G01*
X121490643Y-103660300D01*
X121525544Y-103673470D01*
X121561540Y-103695492D01*
X121592452Y-103724685D01*
X121614490Y-103754977D01*
X121631968Y-103789661D01*
X121644887Y-103828737D01*
X121652169Y-103864655D01*
X121656286Y-103903623D01*
X121657299Y-103936994D01*
X121655716Y-103978252D01*
X121650966Y-104016506D01*
X121641087Y-104058443D01*
X121626649Y-104096053D01*
X121607651Y-104129335D01*
X121592452Y-104149118D01*
X121561540Y-104178383D01*
X121525544Y-104200460D01*
X121490643Y-104213662D01*
X121452008Y-104221583D01*
X121409637Y-104224223D01*
X121367203Y-104221583D01*
X121328518Y-104213662D01*
X121293581Y-104200460D01*
X121257559Y-104178383D01*
X121226638Y-104149118D01*
X121204600Y-104118722D01*
X121187122Y-104083997D01*
X121174203Y-104044945D01*
X121165844Y-104001565D01*
X121162361Y-103962110D01*
X121161791Y-103936994D01*
X121309619Y-103936994D01*
X121311691Y-103976073D01*
X121318854Y-104013275D01*
X121334203Y-104049274D01*
X121335814Y-104051849D01*
X121362962Y-104079523D01*
X121398245Y-104091699D01*
X121409820Y-104092332D01*
X121447356Y-104084583D01*
X121476618Y-104061337D01*
X121483459Y-104051849D01*
X121499310Y-104016635D01*
X121506931Y-103980088D01*
X121509445Y-103941598D01*
X121509471Y-103936994D01*
X121507413Y-103897677D01*
X121500301Y-103860383D01*
X121485059Y-103824508D01*
X121483459Y-103821955D01*
X121456526Y-103794406D01*
X121421249Y-103782285D01*
X121409637Y-103781655D01*
X121372155Y-103789369D01*
X121342738Y-103812510D01*
X121335814Y-103821955D01*
X121319852Y-103857023D01*
X121312177Y-103893645D01*
X121309645Y-103932356D01*
X121309619Y-103936994D01*
X121161791Y-103936994D01*
X121163374Y-103895585D01*
X121168124Y-103857227D01*
X121178003Y-103815223D01*
X121192441Y-103777612D01*
X121211439Y-103744392D01*
X121226638Y-103724685D01*
X121257559Y-103695492D01*
X121293581Y-103673470D01*
X121328518Y-103660300D01*
X121367203Y-103652398D01*
X121409637Y-103649764D01*
X121452008Y-103652398D01*
G37*
G36*
X121970174Y-104224223D02*
G01*
X121927932Y-104220673D01*
X121890002Y-104210023D01*
X121856385Y-104192273D01*
X121827080Y-104167422D01*
X121812271Y-104150034D01*
X121790287Y-104114509D01*
X121775741Y-104079175D01*
X121765162Y-104039333D01*
X121759377Y-104002687D01*
X121756347Y-103962911D01*
X121755851Y-103937543D01*
X121757228Y-103896130D01*
X121761361Y-103857759D01*
X121769956Y-103815727D01*
X121782518Y-103778074D01*
X121799047Y-103744801D01*
X121812271Y-103725052D01*
X121839164Y-103695716D01*
X121870474Y-103673586D01*
X121906203Y-103658660D01*
X121946349Y-103650940D01*
X121971273Y-103649764D01*
X122008952Y-103653011D01*
X122044775Y-103665220D01*
X122062131Y-103677241D01*
X122085207Y-103706593D01*
X122099163Y-103743644D01*
X122102615Y-103760406D01*
X122148044Y-103760406D01*
X122115987Y-103937543D01*
X122114327Y-103899705D01*
X122107583Y-103860102D01*
X122092642Y-103823866D01*
X122089426Y-103819024D01*
X122061030Y-103793479D01*
X122025433Y-103782567D01*
X122009375Y-103781655D01*
X121971808Y-103788397D01*
X121939871Y-103810737D01*
X121930607Y-103822505D01*
X121913639Y-103857830D01*
X121905482Y-103894431D01*
X121902790Y-103932939D01*
X121902763Y-103937543D01*
X121904893Y-103977820D01*
X121912256Y-104015537D01*
X121928034Y-104051022D01*
X121929691Y-104053497D01*
X121958286Y-104080045D01*
X121993567Y-104091384D01*
X122009375Y-104092332D01*
X122046145Y-104087981D01*
X122080546Y-104069859D01*
X122092540Y-104055512D01*
X122106828Y-104021664D01*
X122113697Y-103983933D01*
X122115964Y-103942572D01*
X122115987Y-103937543D01*
X122153173Y-104113581D01*
X122104630Y-104113581D01*
X122094738Y-104151182D01*
X122075650Y-104183138D01*
X122061765Y-104196563D01*
X122027284Y-104215471D01*
X121990808Y-104223251D01*
X121970174Y-104224223D01*
G37*
G36*
X122136137Y-104217629D02*
G01*
X122115987Y-104109368D01*
X122115987Y-103438738D01*
X122255572Y-103438738D01*
X122255572Y-104212500D01*
X122136137Y-104217629D01*
G37*
G36*
X123148218Y-104212500D02*
G01*
X122959174Y-103485633D01*
X123099858Y-103485633D01*
X123249152Y-104091233D01*
X123258494Y-104091233D01*
X123407787Y-103485633D01*
X123548471Y-103485633D01*
X123359427Y-104212500D01*
X123148218Y-104212500D01*
G37*
G36*
X123814452Y-104212500D02*
G01*
X123814452Y-103485633D01*
X123953670Y-103485633D01*
X123953670Y-104212500D01*
X123814452Y-104212500D01*
G37*
G36*
X123638230Y-104212500D02*
G01*
X123638230Y-104092332D01*
X123824710Y-104092332D01*
X123824710Y-104212500D01*
X123638230Y-104212500D01*
G37*
G36*
X123943229Y-104212500D02*
G01*
X123943229Y-104092332D01*
X124110291Y-104092332D01*
X124110291Y-104212500D01*
X123943229Y-104212500D01*
G37*
G36*
X123648672Y-103675959D02*
G01*
X123648672Y-103546999D01*
X123814452Y-103485633D01*
X123814452Y-103617524D01*
X123648672Y-103675959D01*
G37*
G36*
X124483433Y-104224223D02*
G01*
X124447209Y-104217354D01*
X124416938Y-104196746D01*
X124396467Y-104166338D01*
X124389644Y-104130434D01*
X124396467Y-104094210D01*
X124416938Y-104063939D01*
X124449298Y-104042642D01*
X124483433Y-104036645D01*
X124519611Y-104043468D01*
X124549745Y-104063939D01*
X124571042Y-104096299D01*
X124577039Y-104130434D01*
X124569336Y-104168399D01*
X124549745Y-104196746D01*
X124517527Y-104218186D01*
X124483433Y-104224223D01*
G37*
G36*
X125132576Y-103771634D02*
G01*
X125147102Y-103786235D01*
X125162506Y-103820418D01*
X125166153Y-103854378D01*
X125161390Y-103892663D01*
X125147102Y-103922522D01*
X125116891Y-103945137D01*
X125096910Y-103948168D01*
X125061808Y-103937123D01*
X125047451Y-103922522D01*
X125032194Y-103888339D01*
X125028583Y-103854378D01*
X125033300Y-103816093D01*
X125047451Y-103786235D01*
X125077264Y-103763620D01*
X125096910Y-103760589D01*
X125132576Y-103771634D01*
G37*
G36*
X125144318Y-103477251D02*
G01*
X125185907Y-103487279D01*
X125222959Y-103503990D01*
X125255474Y-103527387D01*
X125283452Y-103557468D01*
X125306893Y-103594234D01*
X125325797Y-103637685D01*
X125340164Y-103687820D01*
X125347222Y-103724957D01*
X125352263Y-103765066D01*
X125355288Y-103808145D01*
X125356296Y-103854195D01*
X125355288Y-103899003D01*
X125352263Y-103940921D01*
X125347222Y-103979947D01*
X125340164Y-104016082D01*
X125325797Y-104064865D01*
X125306893Y-104107144D01*
X125283452Y-104142918D01*
X125255474Y-104172188D01*
X125222959Y-104194953D01*
X125185907Y-104211214D01*
X125144318Y-104220971D01*
X125098192Y-104224223D01*
X125052033Y-104220971D01*
X125010415Y-104211214D01*
X124973337Y-104194953D01*
X124940799Y-104172188D01*
X124912801Y-104142918D01*
X124889343Y-104107144D01*
X124870426Y-104064865D01*
X124856048Y-104016082D01*
X124848986Y-103979947D01*
X124843941Y-103940921D01*
X124840914Y-103899003D01*
X124839905Y-103854195D01*
X124978574Y-103854195D01*
X124979625Y-103898324D01*
X124982779Y-103938113D01*
X124990256Y-103984412D01*
X125001470Y-104022995D01*
X125020744Y-104060372D01*
X125051583Y-104089309D01*
X125090833Y-104100884D01*
X125098192Y-104101125D01*
X125138096Y-104092444D01*
X125169745Y-104066400D01*
X125189812Y-104031435D01*
X125201737Y-103994781D01*
X125209993Y-103950411D01*
X125213777Y-103912069D01*
X125215497Y-103869387D01*
X125215612Y-103854195D01*
X125214580Y-103808233D01*
X125211484Y-103766792D01*
X125206324Y-103729871D01*
X125196233Y-103687676D01*
X125182473Y-103653518D01*
X125160113Y-103622124D01*
X125125712Y-103601026D01*
X125098192Y-103597008D01*
X125057541Y-103606049D01*
X125025300Y-103633175D01*
X125004857Y-103669593D01*
X124992709Y-103707769D01*
X124984298Y-103753982D01*
X124980443Y-103793917D01*
X124978691Y-103838372D01*
X124978574Y-103854195D01*
X124839905Y-103854195D01*
X124840914Y-103808145D01*
X124843941Y-103765066D01*
X124848986Y-103724957D01*
X124856048Y-103687820D01*
X124870426Y-103637685D01*
X124889343Y-103594234D01*
X124912801Y-103557468D01*
X124940799Y-103527387D01*
X124973337Y-103503990D01*
X125010415Y-103487279D01*
X125052033Y-103477251D01*
X125098192Y-103473909D01*
X125144318Y-103477251D01*
G37*
D11*
X131303884Y-133491466D02*
X132065789Y-133491466D01*
X131684836Y-133872419D02*
X131684836Y-133110514D01*
X131303884Y-130491466D02*
X132065789Y-130491466D01*
X101084836Y-115433609D02*
X101084836Y-114933609D01*
X101084836Y-114933609D02*
X101251503Y-115290752D01*
X101251503Y-115290752D02*
X101418169Y-114933609D01*
X101418169Y-114933609D02*
X101418169Y-115433609D01*
X101751503Y-114933609D02*
X101846741Y-114933609D01*
X101846741Y-114933609D02*
X101894360Y-114957419D01*
X101894360Y-114957419D02*
X101941979Y-115005038D01*
X101941979Y-115005038D02*
X101965789Y-115100276D01*
X101965789Y-115100276D02*
X101965789Y-115266942D01*
X101965789Y-115266942D02*
X101941979Y-115362180D01*
X101941979Y-115362180D02*
X101894360Y-115409800D01*
X101894360Y-115409800D02*
X101846741Y-115433609D01*
X101846741Y-115433609D02*
X101751503Y-115433609D01*
X101751503Y-115433609D02*
X101703884Y-115409800D01*
X101703884Y-115409800D02*
X101656265Y-115362180D01*
X101656265Y-115362180D02*
X101632456Y-115266942D01*
X101632456Y-115266942D02*
X101632456Y-115100276D01*
X101632456Y-115100276D02*
X101656265Y-115005038D01*
X101656265Y-115005038D02*
X101703884Y-114957419D01*
X101703884Y-114957419D02*
X101751503Y-114933609D01*
X102156266Y-115409800D02*
X102227694Y-115433609D01*
X102227694Y-115433609D02*
X102346742Y-115433609D01*
X102346742Y-115433609D02*
X102394361Y-115409800D01*
X102394361Y-115409800D02*
X102418170Y-115385990D01*
X102418170Y-115385990D02*
X102441980Y-115338371D01*
X102441980Y-115338371D02*
X102441980Y-115290752D01*
X102441980Y-115290752D02*
X102418170Y-115243133D01*
X102418170Y-115243133D02*
X102394361Y-115219323D01*
X102394361Y-115219323D02*
X102346742Y-115195514D01*
X102346742Y-115195514D02*
X102251504Y-115171704D01*
X102251504Y-115171704D02*
X102203885Y-115147895D01*
X102203885Y-115147895D02*
X102180075Y-115124085D01*
X102180075Y-115124085D02*
X102156266Y-115076466D01*
X102156266Y-115076466D02*
X102156266Y-115028847D01*
X102156266Y-115028847D02*
X102180075Y-114981228D01*
X102180075Y-114981228D02*
X102203885Y-114957419D01*
X102203885Y-114957419D02*
X102251504Y-114933609D01*
X102251504Y-114933609D02*
X102370551Y-114933609D01*
X102370551Y-114933609D02*
X102441980Y-114957419D01*
X102656265Y-115433609D02*
X102656265Y-114933609D01*
X101213408Y-107933609D02*
X101380074Y-108433609D01*
X101380074Y-108433609D02*
X101546741Y-107933609D01*
X101999121Y-108385990D02*
X101975312Y-108409800D01*
X101975312Y-108409800D02*
X101903883Y-108433609D01*
X101903883Y-108433609D02*
X101856264Y-108433609D01*
X101856264Y-108433609D02*
X101784836Y-108409800D01*
X101784836Y-108409800D02*
X101737217Y-108362180D01*
X101737217Y-108362180D02*
X101713407Y-108314561D01*
X101713407Y-108314561D02*
X101689598Y-108219323D01*
X101689598Y-108219323D02*
X101689598Y-108147895D01*
X101689598Y-108147895D02*
X101713407Y-108052657D01*
X101713407Y-108052657D02*
X101737217Y-108005038D01*
X101737217Y-108005038D02*
X101784836Y-107957419D01*
X101784836Y-107957419D02*
X101856264Y-107933609D01*
X101856264Y-107933609D02*
X101903883Y-107933609D01*
X101903883Y-107933609D02*
X101975312Y-107957419D01*
X101975312Y-107957419D02*
X101999121Y-107981228D01*
X102499121Y-108385990D02*
X102475312Y-108409800D01*
X102475312Y-108409800D02*
X102403883Y-108433609D01*
X102403883Y-108433609D02*
X102356264Y-108433609D01*
X102356264Y-108433609D02*
X102284836Y-108409800D01*
X102284836Y-108409800D02*
X102237217Y-108362180D01*
X102237217Y-108362180D02*
X102213407Y-108314561D01*
X102213407Y-108314561D02*
X102189598Y-108219323D01*
X102189598Y-108219323D02*
X102189598Y-108147895D01*
X102189598Y-108147895D02*
X102213407Y-108052657D01*
X102213407Y-108052657D02*
X102237217Y-108005038D01*
X102237217Y-108005038D02*
X102284836Y-107957419D01*
X102284836Y-107957419D02*
X102356264Y-107933609D01*
X102356264Y-107933609D02*
X102403883Y-107933609D01*
X102403883Y-107933609D02*
X102475312Y-107957419D01*
X102475312Y-107957419D02*
X102499121Y-107981228D01*
X101084836Y-104833609D02*
X101084836Y-104333609D01*
X101084836Y-104333609D02*
X101251503Y-104690752D01*
X101251503Y-104690752D02*
X101418169Y-104333609D01*
X101418169Y-104333609D02*
X101418169Y-104833609D01*
X101656265Y-104833609D02*
X101656265Y-104333609D01*
X101870551Y-104809800D02*
X101941979Y-104833609D01*
X101941979Y-104833609D02*
X102061027Y-104833609D01*
X102061027Y-104833609D02*
X102108646Y-104809800D01*
X102108646Y-104809800D02*
X102132455Y-104785990D01*
X102132455Y-104785990D02*
X102156265Y-104738371D01*
X102156265Y-104738371D02*
X102156265Y-104690752D01*
X102156265Y-104690752D02*
X102132455Y-104643133D01*
X102132455Y-104643133D02*
X102108646Y-104619323D01*
X102108646Y-104619323D02*
X102061027Y-104595514D01*
X102061027Y-104595514D02*
X101965789Y-104571704D01*
X101965789Y-104571704D02*
X101918170Y-104547895D01*
X101918170Y-104547895D02*
X101894360Y-104524085D01*
X101894360Y-104524085D02*
X101870551Y-104476466D01*
X101870551Y-104476466D02*
X101870551Y-104428847D01*
X101870551Y-104428847D02*
X101894360Y-104381228D01*
X101894360Y-104381228D02*
X101918170Y-104357419D01*
X101918170Y-104357419D02*
X101965789Y-104333609D01*
X101965789Y-104333609D02*
X102084836Y-104333609D01*
X102084836Y-104333609D02*
X102156265Y-104357419D01*
X102465788Y-104333609D02*
X102561026Y-104333609D01*
X102561026Y-104333609D02*
X102608645Y-104357419D01*
X102608645Y-104357419D02*
X102656264Y-104405038D01*
X102656264Y-104405038D02*
X102680074Y-104500276D01*
X102680074Y-104500276D02*
X102680074Y-104666942D01*
X102680074Y-104666942D02*
X102656264Y-104762180D01*
X102656264Y-104762180D02*
X102608645Y-104809800D01*
X102608645Y-104809800D02*
X102561026Y-104833609D01*
X102561026Y-104833609D02*
X102465788Y-104833609D01*
X102465788Y-104833609D02*
X102418169Y-104809800D01*
X102418169Y-104809800D02*
X102370550Y-104762180D01*
X102370550Y-104762180D02*
X102346741Y-104666942D01*
X102346741Y-104666942D02*
X102346741Y-104500276D01*
X102346741Y-104500276D02*
X102370550Y-104405038D01*
X102370550Y-104405038D02*
X102418169Y-104357419D01*
X102418169Y-104357419D02*
X102465788Y-104333609D01*
X101261027Y-111809800D02*
X101332455Y-111833609D01*
X101332455Y-111833609D02*
X101451503Y-111833609D01*
X101451503Y-111833609D02*
X101499122Y-111809800D01*
X101499122Y-111809800D02*
X101522931Y-111785990D01*
X101522931Y-111785990D02*
X101546741Y-111738371D01*
X101546741Y-111738371D02*
X101546741Y-111690752D01*
X101546741Y-111690752D02*
X101522931Y-111643133D01*
X101522931Y-111643133D02*
X101499122Y-111619323D01*
X101499122Y-111619323D02*
X101451503Y-111595514D01*
X101451503Y-111595514D02*
X101356265Y-111571704D01*
X101356265Y-111571704D02*
X101308646Y-111547895D01*
X101308646Y-111547895D02*
X101284836Y-111524085D01*
X101284836Y-111524085D02*
X101261027Y-111476466D01*
X101261027Y-111476466D02*
X101261027Y-111428847D01*
X101261027Y-111428847D02*
X101284836Y-111381228D01*
X101284836Y-111381228D02*
X101308646Y-111357419D01*
X101308646Y-111357419D02*
X101356265Y-111333609D01*
X101356265Y-111333609D02*
X101475312Y-111333609D01*
X101475312Y-111333609D02*
X101546741Y-111357419D01*
X102046740Y-111785990D02*
X102022931Y-111809800D01*
X102022931Y-111809800D02*
X101951502Y-111833609D01*
X101951502Y-111833609D02*
X101903883Y-111833609D01*
X101903883Y-111833609D02*
X101832455Y-111809800D01*
X101832455Y-111809800D02*
X101784836Y-111762180D01*
X101784836Y-111762180D02*
X101761026Y-111714561D01*
X101761026Y-111714561D02*
X101737217Y-111619323D01*
X101737217Y-111619323D02*
X101737217Y-111547895D01*
X101737217Y-111547895D02*
X101761026Y-111452657D01*
X101761026Y-111452657D02*
X101784836Y-111405038D01*
X101784836Y-111405038D02*
X101832455Y-111357419D01*
X101832455Y-111357419D02*
X101903883Y-111333609D01*
X101903883Y-111333609D02*
X101951502Y-111333609D01*
X101951502Y-111333609D02*
X102022931Y-111357419D01*
X102022931Y-111357419D02*
X102046740Y-111381228D01*
X102261026Y-111833609D02*
X102261026Y-111333609D01*
X102546740Y-111833609D02*
X102332455Y-111547895D01*
X102546740Y-111333609D02*
X102261026Y-111619323D01*
X101570550Y-118933609D02*
X101403884Y-118695514D01*
X101284836Y-118933609D02*
X101284836Y-118433609D01*
X101284836Y-118433609D02*
X101475312Y-118433609D01*
X101475312Y-118433609D02*
X101522931Y-118457419D01*
X101522931Y-118457419D02*
X101546741Y-118481228D01*
X101546741Y-118481228D02*
X101570550Y-118528847D01*
X101570550Y-118528847D02*
X101570550Y-118600276D01*
X101570550Y-118600276D02*
X101546741Y-118647895D01*
X101546741Y-118647895D02*
X101522931Y-118671704D01*
X101522931Y-118671704D02*
X101475312Y-118695514D01*
X101475312Y-118695514D02*
X101284836Y-118695514D01*
X101761027Y-118909800D02*
X101832455Y-118933609D01*
X101832455Y-118933609D02*
X101951503Y-118933609D01*
X101951503Y-118933609D02*
X101999122Y-118909800D01*
X101999122Y-118909800D02*
X102022931Y-118885990D01*
X102022931Y-118885990D02*
X102046741Y-118838371D01*
X102046741Y-118838371D02*
X102046741Y-118790752D01*
X102046741Y-118790752D02*
X102022931Y-118743133D01*
X102022931Y-118743133D02*
X101999122Y-118719323D01*
X101999122Y-118719323D02*
X101951503Y-118695514D01*
X101951503Y-118695514D02*
X101856265Y-118671704D01*
X101856265Y-118671704D02*
X101808646Y-118647895D01*
X101808646Y-118647895D02*
X101784836Y-118624085D01*
X101784836Y-118624085D02*
X101761027Y-118576466D01*
X101761027Y-118576466D02*
X101761027Y-118528847D01*
X101761027Y-118528847D02*
X101784836Y-118481228D01*
X101784836Y-118481228D02*
X101808646Y-118457419D01*
X101808646Y-118457419D02*
X101856265Y-118433609D01*
X101856265Y-118433609D02*
X101975312Y-118433609D01*
X101975312Y-118433609D02*
X102046741Y-118457419D01*
X102189598Y-118433609D02*
X102475312Y-118433609D01*
X102332455Y-118933609D02*
X102332455Y-118433609D01*
X101413408Y-128933609D02*
X101699122Y-128933609D01*
X101556265Y-129433609D02*
X101556265Y-128933609D01*
X101818169Y-128933609D02*
X102151502Y-129433609D01*
X102151502Y-128933609D02*
X101818169Y-129433609D01*
X101770550Y-125833609D02*
X101603884Y-125595514D01*
X101484836Y-125833609D02*
X101484836Y-125333609D01*
X101484836Y-125333609D02*
X101675312Y-125333609D01*
X101675312Y-125333609D02*
X101722931Y-125357419D01*
X101722931Y-125357419D02*
X101746741Y-125381228D01*
X101746741Y-125381228D02*
X101770550Y-125428847D01*
X101770550Y-125428847D02*
X101770550Y-125500276D01*
X101770550Y-125500276D02*
X101746741Y-125547895D01*
X101746741Y-125547895D02*
X101722931Y-125571704D01*
X101722931Y-125571704D02*
X101675312Y-125595514D01*
X101675312Y-125595514D02*
X101484836Y-125595514D01*
X101937217Y-125333609D02*
X102270550Y-125833609D01*
X102270550Y-125333609D02*
X101937217Y-125833609D01*
X101446741Y-121957419D02*
X101399122Y-121933609D01*
X101399122Y-121933609D02*
X101327693Y-121933609D01*
X101327693Y-121933609D02*
X101256265Y-121957419D01*
X101256265Y-121957419D02*
X101208646Y-122005038D01*
X101208646Y-122005038D02*
X101184836Y-122052657D01*
X101184836Y-122052657D02*
X101161027Y-122147895D01*
X101161027Y-122147895D02*
X101161027Y-122219323D01*
X101161027Y-122219323D02*
X101184836Y-122314561D01*
X101184836Y-122314561D02*
X101208646Y-122362180D01*
X101208646Y-122362180D02*
X101256265Y-122409800D01*
X101256265Y-122409800D02*
X101327693Y-122433609D01*
X101327693Y-122433609D02*
X101375312Y-122433609D01*
X101375312Y-122433609D02*
X101446741Y-122409800D01*
X101446741Y-122409800D02*
X101470550Y-122385990D01*
X101470550Y-122385990D02*
X101470550Y-122219323D01*
X101470550Y-122219323D02*
X101375312Y-122219323D01*
X101684836Y-122433609D02*
X101684836Y-121933609D01*
X101684836Y-121933609D02*
X101970550Y-122433609D01*
X101970550Y-122433609D02*
X101970550Y-121933609D01*
X102208646Y-122433609D02*
X102208646Y-121933609D01*
X102208646Y-121933609D02*
X102327694Y-121933609D01*
X102327694Y-121933609D02*
X102399122Y-121957419D01*
X102399122Y-121957419D02*
X102446741Y-122005038D01*
X102446741Y-122005038D02*
X102470551Y-122052657D01*
X102470551Y-122052657D02*
X102494360Y-122147895D01*
X102494360Y-122147895D02*
X102494360Y-122219323D01*
X102494360Y-122219323D02*
X102470551Y-122314561D01*
X102470551Y-122314561D02*
X102446741Y-122362180D01*
X102446741Y-122362180D02*
X102399122Y-122409800D01*
X102399122Y-122409800D02*
X102327694Y-122433609D01*
X102327694Y-122433609D02*
X102208646Y-122433609D01*
X130313408Y-127272419D02*
X130480074Y-128272419D01*
X130480074Y-128272419D02*
X130646741Y-127272419D01*
X130980074Y-127748609D02*
X131051502Y-127796228D01*
X131051502Y-127796228D02*
X131075312Y-127843847D01*
X131075312Y-127843847D02*
X131099121Y-127939085D01*
X131099121Y-127939085D02*
X131099121Y-128081942D01*
X131099121Y-128081942D02*
X131075312Y-128177180D01*
X131075312Y-128177180D02*
X131051502Y-128224800D01*
X131051502Y-128224800D02*
X131003883Y-128272419D01*
X131003883Y-128272419D02*
X130813407Y-128272419D01*
X130813407Y-128272419D02*
X130813407Y-127272419D01*
X130813407Y-127272419D02*
X130980074Y-127272419D01*
X130980074Y-127272419D02*
X131027693Y-127320038D01*
X131027693Y-127320038D02*
X131051502Y-127367657D01*
X131051502Y-127367657D02*
X131075312Y-127462895D01*
X131075312Y-127462895D02*
X131075312Y-127558133D01*
X131075312Y-127558133D02*
X131051502Y-127653371D01*
X131051502Y-127653371D02*
X131027693Y-127700990D01*
X131027693Y-127700990D02*
X130980074Y-127748609D01*
X130980074Y-127748609D02*
X130813407Y-127748609D01*
X131313407Y-127272419D02*
X131313407Y-128081942D01*
X131313407Y-128081942D02*
X131337217Y-128177180D01*
X131337217Y-128177180D02*
X131361026Y-128224800D01*
X131361026Y-128224800D02*
X131408645Y-128272419D01*
X131408645Y-128272419D02*
X131503883Y-128272419D01*
X131503883Y-128272419D02*
X131551502Y-128224800D01*
X131551502Y-128224800D02*
X131575312Y-128177180D01*
X131575312Y-128177180D02*
X131599121Y-128081942D01*
X131599121Y-128081942D02*
X131599121Y-127272419D01*
X131813408Y-128224800D02*
X131884836Y-128272419D01*
X131884836Y-128272419D02*
X132003884Y-128272419D01*
X132003884Y-128272419D02*
X132051503Y-128224800D01*
X132051503Y-128224800D02*
X132075312Y-128177180D01*
X132075312Y-128177180D02*
X132099122Y-128081942D01*
X132099122Y-128081942D02*
X132099122Y-127986704D01*
X132099122Y-127986704D02*
X132075312Y-127891466D01*
X132075312Y-127891466D02*
X132051503Y-127843847D01*
X132051503Y-127843847D02*
X132003884Y-127796228D01*
X132003884Y-127796228D02*
X131908646Y-127748609D01*
X131908646Y-127748609D02*
X131861027Y-127700990D01*
X131861027Y-127700990D02*
X131837217Y-127653371D01*
X131837217Y-127653371D02*
X131813408Y-127558133D01*
X131813408Y-127558133D02*
X131813408Y-127462895D01*
X131813408Y-127462895D02*
X131837217Y-127367657D01*
X131837217Y-127367657D02*
X131861027Y-127320038D01*
X131861027Y-127320038D02*
X131908646Y-127272419D01*
X131908646Y-127272419D02*
X132027693Y-127272419D01*
X132027693Y-127272419D02*
X132099122Y-127320038D01*
X129550000Y-107765000D02*
G75*
G02*
X129450000Y-107765000I-50000J0D01*
G01*
X129450000Y-107765000D02*
G75*
G02*
X129550000Y-107765000I50000J0D01*
G01*
D12*
X134210000Y-117087621D02*
X134210000Y-116752379D01*
X134970000Y-117087621D02*
X134970000Y-116752379D01*
X118072379Y-110090000D02*
X118407621Y-110090000D01*
X118072379Y-110850000D02*
X118407621Y-110850000D01*
X118104165Y-112120000D02*
X118335835Y-112120000D01*
X118104165Y-112840000D02*
X118335835Y-112840000D01*
X120717500Y-113210000D02*
X120717500Y-112735000D01*
X121192500Y-109990000D02*
X120717500Y-109990000D01*
X121192500Y-113210000D02*
X120717500Y-113210000D01*
X123462500Y-109990000D02*
X123937500Y-109990000D01*
X123462500Y-113210000D02*
X123937500Y-113210000D01*
X123937500Y-109990000D02*
X123937500Y-110465000D01*
X123937500Y-113210000D02*
X123937500Y-112735000D01*
X127532379Y-127840000D02*
X127867621Y-127840000D01*
X127532379Y-128600000D02*
X127867621Y-128600000D01*
X122485835Y-107860000D02*
X122254165Y-107860000D01*
X122485835Y-108580000D02*
X122254165Y-108580000D01*
D11*
X115230000Y-118165000D02*
X115830000Y-118165000D01*
D13*
X128100000Y-100100000D02*
X128100000Y-100200000D01*
D12*
X127250000Y-99950000D02*
X128250000Y-99950000D01*
X128250000Y-98950000D01*
X127250000Y-98950000D01*
X127250000Y-99950000D01*
D13*
X108600000Y-100100000D02*
X108600000Y-100200000D01*
D12*
X107750000Y-99950000D02*
X108750000Y-99950000D01*
X108750000Y-98950000D01*
X107750000Y-98950000D01*
X107750000Y-99950000D01*
X118012379Y-114020000D02*
X118347621Y-114020000D01*
X118012379Y-114780000D02*
X118347621Y-114780000D01*
D14*
X122040000Y-128800000D02*
X122992500Y-128800000D01*
X122040000Y-131340000D02*
X122040000Y-128800000D01*
X123627500Y-128800000D02*
X122992500Y-128800000D01*
X123627500Y-128800000D02*
X124580000Y-128800000D01*
X124580000Y-128800000D02*
X124580000Y-131340000D01*
X124580000Y-131340000D02*
X122040000Y-131340000D01*
D15*
X123627500Y-128800000D02*
G75*
G02*
X122992500Y-128800000I-317500J0D01*
G01*
D12*
X108304165Y-109640000D02*
X108535835Y-109640000D01*
X108304165Y-110360000D02*
X108535835Y-110360000D01*
D13*
X112547148Y-113312746D02*
G75*
G02*
X109547150Y-113312746I-1499999J0D01*
G01*
X109547150Y-113312746D02*
G75*
G02*
X112547148Y-113312746I1499999J0D01*
G01*
X115186852Y-110579254D02*
G75*
G02*
X112186850Y-110579254I-1500001J0D01*
G01*
X112186850Y-110579254D02*
G75*
G02*
X115186852Y-110579254I1500001J0D01*
G01*
D12*
X130036665Y-110180000D02*
X130268335Y-110180000D01*
X130036665Y-110900000D02*
X130268335Y-110900000D01*
X108580000Y-119440000D02*
X115980000Y-119440000D01*
X108580000Y-121740000D02*
X108580000Y-119440000D01*
X108580000Y-126840000D02*
X108580000Y-124540000D01*
X115980000Y-119440000D02*
X115980000Y-121740000D01*
X115980000Y-124540000D02*
X115980000Y-126840000D01*
X115980000Y-126840000D02*
X108580000Y-126840000D01*
X122577621Y-114670000D02*
X122242379Y-114670000D01*
X122577621Y-115430000D02*
X122242379Y-115430000D01*
X126675835Y-106750000D02*
X126444165Y-106750000D01*
X126675835Y-107470000D02*
X126444165Y-107470000D01*
X107450000Y-112712379D02*
X107450000Y-113047621D01*
X108210000Y-112712379D02*
X108210000Y-113047621D01*
X105010000Y-130185835D02*
X105010000Y-129954165D01*
X105730000Y-130185835D02*
X105730000Y-129954165D01*
X127612379Y-133220000D02*
X127947621Y-133220000D01*
X127612379Y-133980000D02*
X127947621Y-133980000D01*
X112300000Y-105140000D02*
X110625000Y-105140000D01*
X112300000Y-105140000D02*
X112950000Y-105140000D01*
X112300000Y-108260000D02*
X111650000Y-108260000D01*
X112300000Y-108260000D02*
X112950000Y-108260000D01*
X112612379Y-117090000D02*
X112947621Y-117090000D01*
X112612379Y-117850000D02*
X112947621Y-117850000D01*
X107040000Y-130145835D02*
X107040000Y-129914165D01*
X107760000Y-130145835D02*
X107760000Y-129914165D01*
D13*
X95600000Y-100100000D02*
X95600000Y-100200000D01*
D12*
X94750000Y-99950000D02*
X95750000Y-99950000D01*
X95750000Y-98950000D01*
X94750000Y-98950000D01*
X94750000Y-99950000D01*
D13*
X104240000Y-120070000D02*
X104240000Y-115970000D01*
X104240000Y-120070000D02*
X107140000Y-120070000D01*
D12*
X118072379Y-108240000D02*
X118407621Y-108240000D01*
X118072379Y-109000000D02*
X118407621Y-109000000D01*
D13*
X121600000Y-100100000D02*
X121600000Y-100200000D01*
D12*
X120750000Y-99950000D02*
X121750000Y-99950000D01*
X121750000Y-98950000D01*
X120750000Y-98950000D01*
X120750000Y-99950000D01*
X126376665Y-110190000D02*
X126608335Y-110190000D01*
X126376665Y-110910000D02*
X126608335Y-110910000D01*
D11*
X104850000Y-106300000D02*
X104850000Y-107300000D01*
X105100000Y-105150000D02*
X107900000Y-105150000D01*
X105100000Y-108450000D02*
X107900000Y-108450000D01*
X108150000Y-106300000D02*
X108150000Y-107300000D01*
D13*
X141100000Y-100100000D02*
X141100000Y-100200000D01*
D12*
X140250000Y-99950000D02*
X141250000Y-99950000D01*
X141250000Y-98950000D01*
X140250000Y-98950000D01*
X140250000Y-99950000D01*
D11*
X131550000Y-107765000D02*
G75*
G02*
X131450000Y-107765000I-50000J0D01*
G01*
X131450000Y-107765000D02*
G75*
G02*
X131550000Y-107765000I50000J0D01*
G01*
D13*
X89100000Y-100100000D02*
X89100000Y-100200000D01*
D12*
X88250000Y-99950000D02*
X89250000Y-99950000D01*
X89250000Y-98950000D01*
X88250000Y-98950000D01*
X88250000Y-99950000D01*
X128640000Y-124312500D02*
X128640000Y-123662500D01*
X128640000Y-124312500D02*
X128640000Y-124962500D01*
X131760000Y-124312500D02*
X131760000Y-123662500D01*
X131760000Y-124312500D02*
X131760000Y-124962500D01*
X128690000Y-125475000D02*
X128360000Y-125715000D01*
X128360000Y-125235000D01*
X128690000Y-125475000D01*
G36*
X128690000Y-125475000D02*
G01*
X128360000Y-125715000D01*
X128360000Y-125235000D01*
X128690000Y-125475000D01*
G37*
D13*
X109500000Y-131700000D02*
X115250000Y-131700000D01*
X115250000Y-128100000D02*
X109500000Y-128100000D01*
X115250000Y-131700000D02*
X115250000Y-128100000D01*
D12*
X124294165Y-133280000D02*
X124525835Y-133280000D01*
X124294165Y-134000000D02*
X124525835Y-134000000D01*
X123062379Y-105930000D02*
X123397621Y-105930000D01*
X123062379Y-106690000D02*
X123397621Y-106690000D01*
D13*
X102100000Y-100100000D02*
X102100000Y-100200000D01*
D12*
X101250000Y-99950000D02*
X102250000Y-99950000D01*
X102250000Y-98950000D01*
X101250000Y-98950000D01*
X101250000Y-99950000D01*
D13*
X134600000Y-100100000D02*
X134600000Y-100200000D01*
D12*
X133750000Y-99950000D02*
X134750000Y-99950000D01*
X134750000Y-98950000D01*
X133750000Y-98950000D01*
X133750000Y-99950000D01*
D13*
X116590000Y-128570000D02*
X116590000Y-130070000D01*
X116590000Y-128570000D02*
X120090000Y-128570000D01*
D16*
X118675000Y-118075000D02*
X118675000Y-118400000D01*
X118675000Y-118075000D02*
X119000000Y-118075000D01*
X118675000Y-125325000D02*
X118675000Y-125000000D01*
X118675000Y-125325000D02*
X119000000Y-125325000D01*
X125925000Y-118075000D02*
X125600000Y-118075000D01*
X125925000Y-118075000D02*
X125925000Y-118400000D01*
X125925000Y-125100000D02*
X127350000Y-125100000D01*
X125925000Y-125325000D02*
X125600000Y-125325000D01*
X125925000Y-125325000D02*
X125925000Y-125100000D01*
D12*
X127604165Y-129560000D02*
X127835835Y-129560000D01*
X127604165Y-130280000D02*
X127835835Y-130280000D01*
X109472379Y-117030000D02*
X109807621Y-117030000D01*
X109472379Y-117790000D02*
X109807621Y-117790000D01*
D13*
X104270000Y-109185000D02*
X104270000Y-111185000D01*
X106270000Y-109185000D02*
X104270000Y-109185000D01*
D12*
X130517621Y-120780000D02*
X130182379Y-120780000D01*
X130517621Y-121540000D02*
X130182379Y-121540000D01*
X126302379Y-112020000D02*
X126637621Y-112020000D01*
X126302379Y-112780000D02*
X126637621Y-112780000D01*
D13*
X115100000Y-100100000D02*
X115100000Y-100200000D01*
D12*
X114250000Y-99950000D02*
X115250000Y-99950000D01*
X115250000Y-98950000D01*
X114250000Y-98950000D01*
X114250000Y-99950000D01*
X130025000Y-114720000D02*
X130175000Y-114720000D01*
X130025000Y-115320000D02*
X130025000Y-114720000D01*
X130025000Y-117520000D02*
X130025000Y-116120000D01*
X130025000Y-118920000D02*
X130025000Y-118320000D01*
X130025000Y-118920000D02*
X130175000Y-118920000D01*
X132822393Y-115319299D02*
X132822393Y-114419299D01*
X132825000Y-117520000D02*
X132825000Y-116120000D01*
X132825000Y-118320000D02*
X132825000Y-118920000D01*
X132825000Y-118920000D02*
X132675000Y-118920000D01*
X130022379Y-112010000D02*
X130357621Y-112010000D01*
X130022379Y-112770000D02*
X130357621Y-112770000D01*
X133574165Y-112150000D02*
X133805835Y-112150000D01*
X133574165Y-112870000D02*
X133805835Y-112870000D01*
X126282379Y-114050000D02*
X126617621Y-114050000D01*
X126282379Y-114810000D02*
X126617621Y-114810000D01*
D13*
X147600000Y-100100000D02*
X147600000Y-100200000D01*
D12*
X146750000Y-99950000D02*
X147750000Y-99950000D01*
X147750000Y-98950000D01*
X146750000Y-98950000D01*
X146750000Y-99950000D01*
X126322379Y-108570000D02*
X126657621Y-108570000D01*
X126322379Y-109330000D02*
X126657621Y-109330000D01*
X133602379Y-120740000D02*
X133937621Y-120740000D01*
X133602379Y-121500000D02*
X133937621Y-121500000D01*
X127552379Y-131310000D02*
X127887621Y-131310000D01*
X127552379Y-132070000D02*
X127887621Y-132070000D01*
%LPC*%
D17*
X129500000Y-107072500D03*
X129500000Y-105927500D03*
D18*
X134590000Y-117517500D03*
X134590000Y-116322500D03*
D19*
X117642500Y-110470000D03*
X118837500Y-110470000D03*
D20*
X117652500Y-112480000D03*
X118787500Y-112480000D03*
D21*
X120890000Y-110850000D03*
X120890000Y-111350000D03*
X120890000Y-111850000D03*
X120890000Y-112350000D03*
D22*
X121577500Y-113037500D03*
X122077500Y-113037500D03*
X122577500Y-113037500D03*
X123077500Y-113037500D03*
D21*
X123765000Y-112350000D03*
X123765000Y-111850000D03*
X123765000Y-111350000D03*
X123765000Y-110850000D03*
D22*
X123077500Y-110162500D03*
X122577500Y-110162500D03*
X122077500Y-110162500D03*
X121577500Y-110162500D03*
D23*
X122327500Y-111600000D03*
D19*
X127102500Y-128220000D03*
X128297500Y-128220000D03*
D24*
X122937500Y-108220000D03*
X121802500Y-108220000D03*
D25*
X115530000Y-117675000D03*
X115530000Y-115565000D03*
D26*
X127400000Y-99800000D03*
X127400000Y-99100000D03*
X128100000Y-99800000D03*
X128100000Y-99100000D03*
D27*
X134000000Y-133500000D03*
X134000000Y-130500000D03*
D26*
X107900000Y-99800000D03*
X107900000Y-99100000D03*
X108600000Y-99800000D03*
X108600000Y-99100000D03*
D19*
X117582500Y-114400000D03*
X118777500Y-114400000D03*
D28*
X122010000Y-129120000D03*
X122010000Y-130070000D03*
X122010000Y-131020000D03*
X124610000Y-131020000D03*
X124610000Y-130070000D03*
X124610000Y-129120000D03*
D29*
X116000000Y-106000000D03*
D30*
X118000000Y-106000000D03*
X120000000Y-106000000D03*
D20*
X107852500Y-110000000D03*
X108987500Y-110000000D03*
D31*
X113682683Y-110583570D03*
X111051317Y-113308430D03*
D20*
X129585000Y-110540000D03*
X130720000Y-110540000D03*
D32*
X109080000Y-123140000D03*
X115480000Y-123140000D03*
D33*
X123007500Y-115050000D03*
X121812500Y-115050000D03*
D34*
X101800000Y-106200000D03*
X101800000Y-109700000D03*
X101800000Y-113200000D03*
X101800000Y-116700000D03*
X101800000Y-120200000D03*
X101800000Y-123700000D03*
X101800000Y-127200000D03*
X101800000Y-130700000D03*
D24*
X127127500Y-107110000D03*
X125992500Y-107110000D03*
D35*
X107830000Y-112282500D03*
X107830000Y-113477500D03*
D36*
X105370000Y-130637500D03*
X105370000Y-129502500D03*
D19*
X127182500Y-133600000D03*
X128377500Y-133600000D03*
D37*
X111362500Y-105750000D03*
X111362500Y-107650000D03*
X113237500Y-106700000D03*
D19*
X112182500Y-117470000D03*
X113377500Y-117470000D03*
D36*
X107400000Y-130597500D03*
X107400000Y-129462500D03*
D26*
X94900000Y-99800000D03*
X94900000Y-99100000D03*
X95600000Y-99800000D03*
X95600000Y-99100000D03*
D38*
X104790000Y-119170000D03*
X105740000Y-119170000D03*
X106690000Y-119170000D03*
X106690000Y-116570000D03*
X105740000Y-116570000D03*
X104790000Y-116570000D03*
D19*
X117642500Y-108620000D03*
X118837500Y-108620000D03*
D26*
X120900000Y-99800000D03*
X120900000Y-99100000D03*
X121600000Y-99800000D03*
X121600000Y-99100000D03*
D20*
X125925000Y-110550000D03*
X127060000Y-110550000D03*
D39*
X104500000Y-105700000D03*
X108500000Y-105700000D03*
X104500000Y-107900000D03*
X108500000Y-107900000D03*
D26*
X140400000Y-99800000D03*
X140400000Y-99100000D03*
X141100000Y-99800000D03*
X141100000Y-99100000D03*
D27*
X134000000Y-127500000D03*
X134000000Y-124500000D03*
D17*
X131500000Y-107072500D03*
X131500000Y-105927500D03*
D26*
X88400000Y-99800000D03*
X88400000Y-99100000D03*
X89100000Y-99800000D03*
X89100000Y-99100000D03*
D40*
X130200000Y-123375000D03*
X131150000Y-125250000D03*
X129250000Y-125250000D03*
D41*
X114050000Y-129900000D03*
X110350000Y-129900000D03*
D20*
X123842500Y-133640000D03*
X124977500Y-133640000D03*
D19*
X122632500Y-106310000D03*
X123827500Y-106310000D03*
D26*
X101400000Y-99800000D03*
X101400000Y-99100000D03*
X102100000Y-99800000D03*
X102100000Y-99100000D03*
X133900000Y-99800000D03*
X133900000Y-99100000D03*
X134600000Y-99800000D03*
X134600000Y-99100000D03*
D42*
X117177500Y-129069000D03*
X117177500Y-130070000D03*
X117177500Y-131071000D03*
X119502500Y-131071000D03*
X119502500Y-130070000D03*
X119502500Y-129069000D03*
D43*
X126550000Y-124500000D03*
X126550000Y-123700000D03*
X126550000Y-122900000D03*
X126550000Y-122100000D03*
X126550000Y-121300000D03*
X126550000Y-120500000D03*
X126550000Y-119700000D03*
X126550000Y-118900000D03*
D44*
X125100000Y-117450000D03*
X124300000Y-117450000D03*
X123500000Y-117450000D03*
X122700000Y-117450000D03*
X121900000Y-117450000D03*
X121100000Y-117450000D03*
X120300000Y-117450000D03*
X119500000Y-117450000D03*
D43*
X118050000Y-118900000D03*
X118050000Y-119700000D03*
X118050000Y-120500000D03*
X118050000Y-121300000D03*
X118050000Y-122100000D03*
X118050000Y-122900000D03*
X118050000Y-123700000D03*
X118050000Y-124500000D03*
D44*
X119500000Y-125950000D03*
X120300000Y-125950000D03*
X121100000Y-125950000D03*
X121900000Y-125950000D03*
X122700000Y-125950000D03*
X123500000Y-125950000D03*
X124300000Y-125950000D03*
X125100000Y-125950000D03*
D20*
X127152500Y-129920000D03*
X128287500Y-129920000D03*
D19*
X109042500Y-117410000D03*
X110237500Y-117410000D03*
D45*
X105270000Y-110085000D03*
X105270000Y-114185000D03*
D33*
X130947500Y-121160000D03*
X129752500Y-121160000D03*
D19*
X125872500Y-112400000D03*
X127067500Y-112400000D03*
D26*
X114400000Y-99800000D03*
X114400000Y-99100000D03*
X115100000Y-99800000D03*
X115100000Y-99100000D03*
D46*
X132425000Y-114520000D03*
D47*
X132425000Y-114845000D03*
D46*
X132025000Y-114520000D03*
D47*
X132025000Y-114845000D03*
D46*
X131625000Y-114520000D03*
D47*
X131625000Y-114845000D03*
D46*
X131225000Y-114520000D03*
D47*
X131225000Y-114845000D03*
D46*
X130825000Y-114520000D03*
D47*
X130825000Y-114845000D03*
D46*
X130425000Y-114520000D03*
D47*
X130425000Y-114845000D03*
X130425000Y-118795000D03*
D46*
X130425000Y-119120000D03*
D47*
X130825000Y-118795000D03*
D46*
X130825000Y-119120000D03*
D47*
X131225000Y-118795000D03*
D46*
X131225000Y-119120000D03*
D47*
X131625000Y-118795000D03*
D46*
X131625000Y-119120000D03*
D47*
X132025000Y-118795000D03*
D46*
X132025000Y-119120000D03*
D47*
X132425000Y-118795000D03*
D46*
X132425000Y-119120000D03*
D48*
X132790000Y-115720000D03*
D49*
X132737500Y-115720000D03*
X130112500Y-115720000D03*
D48*
X130060000Y-115720000D03*
D50*
X131425000Y-116820000D03*
X131425000Y-116820000D03*
D48*
X132790000Y-117920000D03*
D49*
X132737500Y-117920000D03*
X130112500Y-117920000D03*
D48*
X130060000Y-117920000D03*
D19*
X129592500Y-112390000D03*
X130787500Y-112390000D03*
D20*
X133122500Y-112510000D03*
X134257500Y-112510000D03*
D19*
X125852500Y-114430000D03*
X127047500Y-114430000D03*
D26*
X146900000Y-99800000D03*
X146900000Y-99100000D03*
X147600000Y-99800000D03*
X147600000Y-99100000D03*
D19*
X125892500Y-108950000D03*
X127087500Y-108950000D03*
X133172500Y-121120000D03*
X134367500Y-121120000D03*
X127122500Y-131690000D03*
X128317500Y-131690000D03*
%LPD*%
M02*
