%TF.GenerationSoftware,KiCad,Pcbnew,8.0.0*%
%TF.CreationDate,2024-03-19T21:42:55+08:00*%
%TF.ProjectId,revopod1,7265766f-706f-4643-912e-6b696361645f,rev?*%
%TF.SameCoordinates,Original*%
%TF.FileFunction,Drillmap*%
%TF.FilePolarity,Positive*%
%FSLAX45Y45*%
G04 Gerber Fmt 4.5, Leading zero omitted, Abs format (unit mm)*
G04 Created by KiCad (PCBNEW 8.0.0) date 2024-03-19 21:42:55*
%MOMM*%
%LPD*%
G01*
G04 APERTURE LIST*
%ADD10C,0.100000*%
%ADD11C,0.200000*%
G04 APERTURE END LIST*
D10*
X8800000Y-10100000D02*
X10000000Y-10100000D01*
X8800000Y-10000000D02*
X8800000Y-10100000D01*
X10000000Y-10100000D02*
X10000000Y-13500000D01*
X10665000Y-13360000D02*
G75*
G02*
X10535000Y-13360000I-65000J0D01*
G01*
X10535000Y-13360000D02*
G75*
G02*
X10665000Y-13360000I65000J0D01*
G01*
X14800000Y-10000000D02*
X14800000Y-10100000D01*
X13600000Y-10100000D02*
X14800000Y-10100000D01*
X14800000Y-10000000D02*
X14800000Y-9800000D01*
X13075000Y-10240000D02*
G75*
G02*
X12945000Y-10240000I-65000J0D01*
G01*
X12945000Y-10240000D02*
G75*
G02*
X13075000Y-10240000I65000J0D01*
G01*
X8800000Y-9800000D02*
X8800000Y-10000000D01*
X10665000Y-10240000D02*
G75*
G02*
X10535000Y-10240000I-65000J0D01*
G01*
X10535000Y-10240000D02*
G75*
G02*
X10665000Y-10240000I65000J0D01*
G01*
X13600000Y-10100000D02*
X13600000Y-13500000D01*
X13600000Y-13500000D02*
X10000000Y-13500000D01*
X14800000Y-9800000D02*
X8800000Y-9800000D01*
D11*
X9055777Y-13816484D02*
X9055777Y-13616484D01*
X9055777Y-13616484D02*
X9103396Y-13616484D01*
X9103396Y-13616484D02*
X9131967Y-13626008D01*
X9131967Y-13626008D02*
X9151015Y-13645055D01*
X9151015Y-13645055D02*
X9160539Y-13664103D01*
X9160539Y-13664103D02*
X9170063Y-13702198D01*
X9170063Y-13702198D02*
X9170063Y-13730769D01*
X9170063Y-13730769D02*
X9160539Y-13768865D01*
X9160539Y-13768865D02*
X9151015Y-13787912D01*
X9151015Y-13787912D02*
X9131967Y-13806960D01*
X9131967Y-13806960D02*
X9103396Y-13816484D01*
X9103396Y-13816484D02*
X9055777Y-13816484D01*
X9255777Y-13816484D02*
X9255777Y-13683150D01*
X9255777Y-13721246D02*
X9265301Y-13702198D01*
X9265301Y-13702198D02*
X9274824Y-13692674D01*
X9274824Y-13692674D02*
X9293872Y-13683150D01*
X9293872Y-13683150D02*
X9312920Y-13683150D01*
X9379586Y-13816484D02*
X9379586Y-13683150D01*
X9379586Y-13616484D02*
X9370063Y-13626008D01*
X9370063Y-13626008D02*
X9379586Y-13635531D01*
X9379586Y-13635531D02*
X9389110Y-13626008D01*
X9389110Y-13626008D02*
X9379586Y-13616484D01*
X9379586Y-13616484D02*
X9379586Y-13635531D01*
X9503396Y-13816484D02*
X9484348Y-13806960D01*
X9484348Y-13806960D02*
X9474824Y-13787912D01*
X9474824Y-13787912D02*
X9474824Y-13616484D01*
X9608158Y-13816484D02*
X9589110Y-13806960D01*
X9589110Y-13806960D02*
X9579586Y-13787912D01*
X9579586Y-13787912D02*
X9579586Y-13616484D01*
X9836729Y-13816484D02*
X9836729Y-13616484D01*
X9836729Y-13616484D02*
X9903396Y-13759341D01*
X9903396Y-13759341D02*
X9970063Y-13616484D01*
X9970063Y-13616484D02*
X9970063Y-13816484D01*
X10151015Y-13816484D02*
X10151015Y-13711722D01*
X10151015Y-13711722D02*
X10141491Y-13692674D01*
X10141491Y-13692674D02*
X10122444Y-13683150D01*
X10122444Y-13683150D02*
X10084348Y-13683150D01*
X10084348Y-13683150D02*
X10065301Y-13692674D01*
X10151015Y-13806960D02*
X10131967Y-13816484D01*
X10131967Y-13816484D02*
X10084348Y-13816484D01*
X10084348Y-13816484D02*
X10065301Y-13806960D01*
X10065301Y-13806960D02*
X10055777Y-13787912D01*
X10055777Y-13787912D02*
X10055777Y-13768865D01*
X10055777Y-13768865D02*
X10065301Y-13749817D01*
X10065301Y-13749817D02*
X10084348Y-13740293D01*
X10084348Y-13740293D02*
X10131967Y-13740293D01*
X10131967Y-13740293D02*
X10151015Y-13730769D01*
X10246253Y-13683150D02*
X10246253Y-13883150D01*
X10246253Y-13692674D02*
X10265301Y-13683150D01*
X10265301Y-13683150D02*
X10303396Y-13683150D01*
X10303396Y-13683150D02*
X10322444Y-13692674D01*
X10322444Y-13692674D02*
X10331967Y-13702198D01*
X10331967Y-13702198D02*
X10341491Y-13721246D01*
X10341491Y-13721246D02*
X10341491Y-13778388D01*
X10341491Y-13778388D02*
X10331967Y-13797436D01*
X10331967Y-13797436D02*
X10322444Y-13806960D01*
X10322444Y-13806960D02*
X10303396Y-13816484D01*
X10303396Y-13816484D02*
X10265301Y-13816484D01*
X10265301Y-13816484D02*
X10246253Y-13806960D01*
X10427205Y-13797436D02*
X10436729Y-13806960D01*
X10436729Y-13806960D02*
X10427205Y-13816484D01*
X10427205Y-13816484D02*
X10417682Y-13806960D01*
X10417682Y-13806960D02*
X10427205Y-13797436D01*
X10427205Y-13797436D02*
X10427205Y-13816484D01*
X10427205Y-13692674D02*
X10436729Y-13702198D01*
X10436729Y-13702198D02*
X10427205Y-13711722D01*
X10427205Y-13711722D02*
X10417682Y-13702198D01*
X10417682Y-13702198D02*
X10427205Y-13692674D01*
X10427205Y-13692674D02*
X10427205Y-13711722D01*
M02*
