M48
; DRILL file {KiCad 8.0.0} date 2024-03-19T21:42:54+0800
; FORMAT={-:-/ absolute / metric / decimal}
; #@! TF.CreationDate,2024-03-19T21:42:54+08:00
; #@! TF.GenerationSoftware,Kicad,Pcbnew,8.0.0
; #@! TF.FileFunction,Plated,1,4,PTH
FMAT,2
METRIC
; #@! TA.AperFunction,Plated,PTH,ComponentDrill
T1C0.300
; #@! TA.AperFunction,Plated,PTH,ViaDrill
T2C0.400
; #@! TA.AperFunction,Plated,PTH,ComponentDrill
T3C0.750
%
G90
G05
T1
X130.925Y-115.92
X130.925Y-116.82
X130.925Y-117.72
X131.925Y-115.92
X131.925Y-116.82
X131.925Y-117.72
T2
X102.562Y-107.817
X103.664Y-117.648
X103.666Y-113.908
X103.766Y-115.053
X105.41Y-106.612
X105.783Y-120.92
X106.982Y-115.352
X108.724Y-129.716
X108.733Y-104.592
X113.823Y-118.9
X115.48Y-124.852
X115.658Y-129.9
X118.445Y-107.693
X118.612Y-116.743
X119.837Y-111.85
X120.074Y-98.843
X120.381Y-118.854
X121.49Y-124.25
X121.778Y-118.88
X122.495Y-124.545
X122.869Y-133.756
X123.234Y-123.818
X123.31Y-128.574
X123.719Y-120.758
X123.842Y-109.708
X124.555Y-121.593
X124.579Y-118.864
X124.85Y-123.4
X125.675Y-115.391
X125.68Y-128.457
X126.164Y-111.47
X126.175Y-133.756
X126.401Y-129.169
X127.102Y-127.287
X127.127Y-107.76
X127.29Y-116.84
X128.038Y-114.069
X128.697Y-123.439
X129.458Y-108.072
X129.51Y-127.19
X129.66Y-118.76
X129.71Y-120.0
X130.317Y-113.22
X130.43Y-133.5
X130.71Y-109.66
X130.898Y-111.46
X131.626Y-122.556
X131.903Y-128.51
X133.677Y-115.946
X134.015Y-114.455
X134.368Y-122.066
X135.19Y-113.19
X137.7Y-98.638
X139.621Y-99.269
X145.627Y-99.199
T3
X116.0Y-106.0
X118.0Y-106.0
X120.0Y-106.0
M30
