M48
; DRILL file {KiCad (7.0.0)} date Wed Feb  7 16:47:47 2024
; FORMAT={-:-/ absolute / metric / decimal}
; #@! TF.CreationDate,2024-02-07T16:47:47+08:00
; #@! TF.GenerationSoftware,Kicad,Pcbnew,(7.0.0)
; #@! TF.FileFunction,Plated,1,4,PTH
FMAT,2
METRIC
; #@! TA.AperFunction,Plated,PTH,ComponentDrill
T1C0.300
; #@! TA.AperFunction,Plated,PTH,ViaDrill
T2C0.400
; #@! TA.AperFunction,Plated,PTH,ComponentDrill
T3C0.750
%
G90
G05
T1
X130.7Y-116.2
X130.7Y-117.1
X130.7Y-118.0
X131.7Y-116.2
X131.7Y-117.1
X131.7Y-118.0
T2
X102.878Y-114.836
X103.656Y-117.315
X105.305Y-106.725
X106.5Y-105.7
X106.942Y-110.906
X107.885Y-118.065
X109.341Y-115.906
X111.87Y-128.323
X113.03Y-116.6
X113.622Y-98.893
X113.678Y-122.845
X115.661Y-129.9
X116.462Y-118.792
X116.527Y-111.597
X116.865Y-116.006
X118.61Y-117.249
X119.29Y-112.541
X119.686Y-115.271
X119.8Y-110.8
X119.969Y-109.774
X120.343Y-112.544
X120.406Y-119.43
X121.099Y-116.046
X121.1Y-124.5
X121.352Y-114.756
X122.823Y-120.061
X123.2Y-124.544
X123.322Y-122.268
X123.754Y-129.309
X124.087Y-108.879
X124.265Y-120.864
X124.649Y-116.022
X125.137Y-118.9
X125.985Y-117.45
X126.042Y-112.078
X126.209Y-125.421
X127.242Y-107.596
X128.2Y-125.4
X128.568Y-107.324
X129.695Y-122.622
X129.7Y-110.2
X129.7Y-113.9
X130.6Y-113.3
X130.81Y-120.485
X130.865Y-131.849
X131.076Y-104.376
X131.624Y-121.355
X131.643Y-109.968
X131.643Y-113.4
X131.88Y-126.811
X132.349Y-122.1
X132.352Y-132.071
X132.725Y-120.05
X133.341Y-111.783
X133.8Y-118.8
X133.825Y-114.0
X134.063Y-121.008
X134.35Y-119.7
X134.7Y-111.9
X144.19Y-98.64
T3
X116.0Y-106.0
X118.0Y-106.0
X120.0Y-106.0
T0
M30
