G04 #@! TF.GenerationSoftware,KiCad,Pcbnew,8.0.0*
G04 #@! TF.CreationDate,2024-03-19T21:42:44+08:00*
G04 #@! TF.ProjectId,revopod1,7265766f-706f-4643-912e-6b696361645f,rev?*
G04 #@! TF.SameCoordinates,Original*
G04 #@! TF.FileFunction,Copper,L4,Bot*
G04 #@! TF.FilePolarity,Positive*
%FSLAX46Y46*%
G04 Gerber Fmt 4.6, Leading zero omitted, Abs format (unit mm)*
G04 Created by KiCad (PCBNEW 8.0.0) date 2024-03-19 21:42:44*
%MOMM*%
%LPD*%
G01*
G04 APERTURE LIST*
G04 Aperture macros list*
%AMOutline5P*
0 Free polygon, 5 corners , with rotation*
0 The origin of the aperture is its center*
0 number of corners: always 5*
0 $1 to $10 corner X, Y*
0 $11 Rotation angle, in degrees counterclockwise*
0 create outline with 5 corners*
4,1,5,$1,$2,$3,$4,$5,$6,$7,$8,$9,$10,$1,$2,$11*%
%AMOutline6P*
0 Free polygon, 6 corners , with rotation*
0 The origin of the aperture is its center*
0 number of corners: always 6*
0 $1 to $12 corner X, Y*
0 $13 Rotation angle, in degrees counterclockwise*
0 create outline with 6 corners*
4,1,6,$1,$2,$3,$4,$5,$6,$7,$8,$9,$10,$11,$12,$1,$2,$13*%
%AMOutline7P*
0 Free polygon, 7 corners , with rotation*
0 The origin of the aperture is its center*
0 number of corners: always 7*
0 $1 to $14 corner X, Y*
0 $15 Rotation angle, in degrees counterclockwise*
0 create outline with 7 corners*
4,1,7,$1,$2,$3,$4,$5,$6,$7,$8,$9,$10,$11,$12,$13,$14,$1,$2,$15*%
%AMOutline8P*
0 Free polygon, 8 corners , with rotation*
0 The origin of the aperture is its center*
0 number of corners: always 8*
0 $1 to $16 corner X, Y*
0 $17 Rotation angle, in degrees counterclockwise*
0 create outline with 8 corners*
4,1,8,$1,$2,$3,$4,$5,$6,$7,$8,$9,$10,$11,$12,$13,$14,$15,$16,$1,$2,$17*%
G04 Aperture macros list end*
G04 #@! TA.AperFunction,ComponentPad*
%ADD10Outline5P,-0.625000X0.375000X-0.375000X0.625000X0.625000X0.625000X0.625000X-0.625000X-0.625000X-0.625000X0.000000*%
G04 #@! TD*
G04 #@! TA.AperFunction,ComponentPad*
%ADD11C,1.250000*%
G04 #@! TD*
G04 #@! TA.AperFunction,ComponentPad*
%ADD12C,0.600000*%
G04 #@! TD*
G04 #@! TA.AperFunction,SMDPad,CuDef*
%ADD13R,1.950000X2.600000*%
G04 #@! TD*
G04 #@! TA.AperFunction,ViaPad*
%ADD14C,0.800000*%
G04 #@! TD*
G04 #@! TA.AperFunction,Conductor*
%ADD15C,0.250000*%
G04 #@! TD*
G04 APERTURE END LIST*
D10*
X116000000Y-106000000D03*
D11*
X118000000Y-106000000D03*
X120000000Y-106000000D03*
D12*
X131925000Y-115920000D03*
X130925000Y-115920000D03*
X131925000Y-116820000D03*
D13*
X131425000Y-116820000D03*
D12*
X130925000Y-116820000D03*
X131925000Y-117720000D03*
X130925000Y-117720000D03*
D14*
X129710000Y-120000000D03*
X130430000Y-133500000D03*
X118444700Y-107693000D03*
X129510000Y-127190000D03*
X135190000Y-113190000D03*
X127127500Y-107760000D03*
X124850000Y-123400000D03*
X130710000Y-109660000D03*
X131902800Y-128510000D03*
X123842300Y-109708400D03*
X128696800Y-123438600D03*
X126164200Y-111470000D03*
X125674800Y-115390900D03*
X123310000Y-128574300D03*
X122869100Y-133756000D03*
X125680200Y-128456900D03*
X126174700Y-133756000D03*
X126401100Y-129168600D03*
X115480000Y-124852500D03*
X106981800Y-115351500D03*
X131626200Y-122555600D03*
X120073900Y-98842500D03*
X139621300Y-99268600D03*
X105409600Y-106612300D03*
X145627300Y-99199000D03*
X124578900Y-118863600D03*
X129458200Y-108072100D03*
X128038400Y-114069100D03*
X105783200Y-120919900D03*
X103766500Y-115052700D03*
X121777600Y-118880100D03*
X137700000Y-98637900D03*
X130317500Y-113220000D03*
X119836700Y-111850000D03*
X130898200Y-111460000D03*
X129660000Y-118760000D03*
X123234500Y-123818300D03*
X133676931Y-115946150D03*
X134367500Y-122066400D03*
X134015000Y-114455000D03*
X127290000Y-116840000D03*
X121490000Y-124250000D03*
X122495400Y-124545000D03*
X108733400Y-104591600D03*
X127102500Y-127287300D03*
X108723700Y-129716400D03*
X123719100Y-120758300D03*
X115657900Y-129900000D03*
X124554800Y-121593200D03*
X120381500Y-118854100D03*
X103663800Y-117647700D03*
X118612400Y-116742800D03*
X102562000Y-107817000D03*
X113822600Y-118900000D03*
X103666200Y-113908300D03*
D15*
X124955200Y-128757205D02*
X129697995Y-133500000D01*
X129710000Y-120000000D02*
X124955200Y-124754800D01*
X124955200Y-124754800D02*
X124955200Y-128757205D01*
X129697995Y-133500000D02*
X130430000Y-133500000D01*
X129592500Y-112919695D02*
X129592500Y-114987500D01*
X130017195Y-112495000D02*
X129592500Y-112919695D01*
X131425000Y-116820000D02*
X130925000Y-116820000D01*
X130480000Y-109430000D02*
X128797500Y-109430000D01*
X129592500Y-114987500D02*
X131425000Y-116820000D01*
X128797500Y-109430000D02*
X127127500Y-107760000D01*
X134495000Y-112495000D02*
X130017195Y-112495000D01*
X130710000Y-109660000D02*
X130480000Y-109430000D01*
X135190000Y-113190000D02*
X134495000Y-112495000D01*
X126401100Y-129168600D02*
X131626200Y-123943500D01*
X131626200Y-123943500D02*
X131626200Y-122555600D01*
X132725000Y-118265000D02*
X132230000Y-118760000D01*
X130750000Y-113220000D02*
X132725000Y-115195000D01*
X132230000Y-118760000D02*
X129660000Y-118760000D01*
X132725000Y-115195000D02*
X132725000Y-118265000D01*
X130317500Y-113220000D02*
X130750000Y-113220000D01*
X123959500Y-123517995D02*
X123534805Y-123093300D01*
X123861800Y-122318200D02*
X124855105Y-122318200D01*
X122195095Y-125270000D02*
X122808105Y-125270000D01*
X122808105Y-125270000D02*
X123959500Y-124118605D01*
X121490000Y-124564905D02*
X122195095Y-125270000D01*
X123534805Y-123093300D02*
X123534805Y-122645195D01*
X123959500Y-124118605D02*
X123959500Y-123517995D01*
X127290000Y-119883305D02*
X127290000Y-116840000D01*
X121490000Y-124250000D02*
X121490000Y-124564905D01*
X123534805Y-122645195D02*
X123861800Y-122318200D01*
X124855105Y-122318200D02*
X127290000Y-119883305D01*
G04 #@! TA.AperFunction,Conductor*
G36*
X119409279Y-98019685D02*
G01*
X119455034Y-98072489D01*
X119464978Y-98141647D01*
X119435953Y-98205203D01*
X119434390Y-98206972D01*
X119341366Y-98310285D01*
X119246721Y-98474215D01*
X119246718Y-98474222D01*
X119188227Y-98654240D01*
X119188226Y-98654244D01*
X119168440Y-98842500D01*
X119188226Y-99030756D01*
X119188227Y-99030759D01*
X119246718Y-99210777D01*
X119246721Y-99210784D01*
X119341367Y-99374716D01*
X119415329Y-99456859D01*
X119468029Y-99515388D01*
X119621165Y-99626648D01*
X119621170Y-99626651D01*
X119794092Y-99703642D01*
X119794097Y-99703644D01*
X119979254Y-99743000D01*
X119979255Y-99743000D01*
X120168544Y-99743000D01*
X120168546Y-99743000D01*
X120353703Y-99703644D01*
X120526630Y-99626651D01*
X120679771Y-99515388D01*
X120806433Y-99374716D01*
X120901079Y-99210784D01*
X120959574Y-99030756D01*
X120979360Y-98842500D01*
X120959574Y-98654244D01*
X120901079Y-98474216D01*
X120806433Y-98310284D01*
X120713409Y-98206971D01*
X120683180Y-98143981D01*
X120691805Y-98074646D01*
X120736546Y-98020980D01*
X120803199Y-98000022D01*
X120805560Y-98000000D01*
X136813710Y-98000000D01*
X136880749Y-98019685D01*
X136926504Y-98072489D01*
X136936448Y-98141647D01*
X136921097Y-98185998D01*
X136902121Y-98218866D01*
X136872821Y-98269615D01*
X136872818Y-98269622D01*
X136825631Y-98414851D01*
X136814326Y-98449644D01*
X136794540Y-98637900D01*
X136814326Y-98826156D01*
X136814327Y-98826159D01*
X136872818Y-99006177D01*
X136872821Y-99006184D01*
X136967467Y-99170116D01*
X137004085Y-99210784D01*
X137094129Y-99310788D01*
X137247265Y-99422048D01*
X137247270Y-99422051D01*
X137420192Y-99499042D01*
X137420197Y-99499044D01*
X137605354Y-99538400D01*
X137605355Y-99538400D01*
X137794644Y-99538400D01*
X137794646Y-99538400D01*
X137979803Y-99499044D01*
X138152730Y-99422051D01*
X138305871Y-99310788D01*
X138432533Y-99170116D01*
X138499862Y-99053497D01*
X138550427Y-99005284D01*
X138619034Y-98992060D01*
X138683899Y-99018028D01*
X138724428Y-99074942D01*
X138730568Y-99128459D01*
X138715840Y-99268600D01*
X138735626Y-99456856D01*
X138735627Y-99456859D01*
X138794118Y-99636877D01*
X138794121Y-99636884D01*
X138888767Y-99800816D01*
X138952761Y-99871888D01*
X139015429Y-99941488D01*
X139168565Y-100052748D01*
X139168570Y-100052751D01*
X139341492Y-100129742D01*
X139341497Y-100129744D01*
X139526654Y-100169100D01*
X139526655Y-100169100D01*
X139715944Y-100169100D01*
X139715946Y-100169100D01*
X139901103Y-100129744D01*
X140074030Y-100052751D01*
X140227171Y-99941488D01*
X140353833Y-99800816D01*
X140448479Y-99636884D01*
X140506974Y-99456856D01*
X140526760Y-99268600D01*
X140519445Y-99199000D01*
X144721840Y-99199000D01*
X144741626Y-99387256D01*
X144741627Y-99387259D01*
X144800118Y-99567277D01*
X144800121Y-99567284D01*
X144894767Y-99731216D01*
X145021429Y-99871888D01*
X145174565Y-99983148D01*
X145174570Y-99983151D01*
X145347492Y-100060142D01*
X145347497Y-100060144D01*
X145532654Y-100099500D01*
X145532655Y-100099500D01*
X145721944Y-100099500D01*
X145721946Y-100099500D01*
X145907103Y-100060144D01*
X146080030Y-99983151D01*
X146233171Y-99871888D01*
X146359833Y-99731216D01*
X146454479Y-99567284D01*
X146512974Y-99387256D01*
X146532760Y-99199000D01*
X146512974Y-99010744D01*
X146454479Y-98830716D01*
X146359833Y-98666784D01*
X146233171Y-98526112D01*
X146233170Y-98526111D01*
X146080034Y-98414851D01*
X146080029Y-98414848D01*
X145907107Y-98337857D01*
X145907102Y-98337855D01*
X145761301Y-98306865D01*
X145721946Y-98298500D01*
X145532654Y-98298500D01*
X145500197Y-98305398D01*
X145347497Y-98337855D01*
X145347492Y-98337857D01*
X145174570Y-98414848D01*
X145174565Y-98414851D01*
X145021429Y-98526111D01*
X144894766Y-98666785D01*
X144800121Y-98830715D01*
X144800118Y-98830722D01*
X144741627Y-99010740D01*
X144741626Y-99010744D01*
X144721840Y-99199000D01*
X140519445Y-99199000D01*
X140506974Y-99080344D01*
X140448479Y-98900316D01*
X140353833Y-98736384D01*
X140227171Y-98595712D01*
X140227170Y-98595711D01*
X140074034Y-98484451D01*
X140074029Y-98484448D01*
X139901107Y-98407457D01*
X139901102Y-98407455D01*
X139755301Y-98376465D01*
X139715946Y-98368100D01*
X139526654Y-98368100D01*
X139494197Y-98374998D01*
X139341497Y-98407455D01*
X139341492Y-98407457D01*
X139168570Y-98484448D01*
X139168565Y-98484451D01*
X139015429Y-98595711D01*
X138888765Y-98736385D01*
X138821438Y-98853000D01*
X138770871Y-98901216D01*
X138702264Y-98914438D01*
X138637399Y-98888470D01*
X138596871Y-98831556D01*
X138590730Y-98778043D01*
X138605460Y-98637900D01*
X138585674Y-98449644D01*
X138527179Y-98269616D01*
X138478902Y-98185998D01*
X138462430Y-98118100D01*
X138485283Y-98052073D01*
X138540204Y-98008882D01*
X138586290Y-98000000D01*
X147876000Y-98000000D01*
X147943039Y-98019685D01*
X147988794Y-98072489D01*
X148000000Y-98124000D01*
X148000000Y-100876000D01*
X147980315Y-100943039D01*
X147927511Y-100988794D01*
X147876000Y-101000000D01*
X136000000Y-101000000D01*
X136000000Y-134876000D01*
X135980315Y-134943039D01*
X135927511Y-134988794D01*
X135876000Y-135000000D01*
X100124000Y-135000000D01*
X100056961Y-134980315D01*
X100011206Y-134927511D01*
X100000000Y-134876000D01*
X100000000Y-133600000D01*
X105347417Y-133600000D01*
X105367919Y-133762290D01*
X105367919Y-133762293D01*
X105428136Y-133914382D01*
X105428141Y-133914391D01*
X105524283Y-134046720D01*
X105524284Y-134046721D01*
X105524286Y-134046722D01*
X105524287Y-134046724D01*
X105650329Y-134150994D01*
X105798341Y-134220643D01*
X105959024Y-134251295D01*
X106122282Y-134241024D01*
X106277856Y-134190475D01*
X106415972Y-134102824D01*
X106527951Y-133983579D01*
X106606756Y-133840232D01*
X106628383Y-133756000D01*
X121963640Y-133756000D01*
X121983426Y-133944256D01*
X121983427Y-133944259D01*
X122041918Y-134124277D01*
X122041921Y-134124284D01*
X122136567Y-134288216D01*
X122202230Y-134361142D01*
X122263229Y-134428888D01*
X122416365Y-134540148D01*
X122416370Y-134540151D01*
X122589292Y-134617142D01*
X122589297Y-134617144D01*
X122774454Y-134656500D01*
X122774455Y-134656500D01*
X122963744Y-134656500D01*
X122963746Y-134656500D01*
X123148903Y-134617144D01*
X123321830Y-134540151D01*
X123474971Y-134428888D01*
X123601633Y-134288216D01*
X123696279Y-134124284D01*
X123754774Y-133944256D01*
X123774560Y-133756000D01*
X125269240Y-133756000D01*
X125289026Y-133944256D01*
X125289027Y-133944259D01*
X125347518Y-134124277D01*
X125347521Y-134124284D01*
X125442167Y-134288216D01*
X125507830Y-134361142D01*
X125568829Y-134428888D01*
X125721965Y-134540148D01*
X125721970Y-134540151D01*
X125894892Y-134617142D01*
X125894897Y-134617144D01*
X126080054Y-134656500D01*
X126080055Y-134656500D01*
X126269344Y-134656500D01*
X126269346Y-134656500D01*
X126454503Y-134617144D01*
X126627430Y-134540151D01*
X126780571Y-134428888D01*
X126907233Y-134288216D01*
X127001879Y-134124284D01*
X127060374Y-133944256D01*
X127080160Y-133756000D01*
X127060374Y-133567744D01*
X127001879Y-133387716D01*
X126907233Y-133223784D01*
X126780571Y-133083112D01*
X126733631Y-133049008D01*
X126627434Y-132971851D01*
X126627429Y-132971848D01*
X126454507Y-132894857D01*
X126454502Y-132894855D01*
X126308701Y-132863865D01*
X126269346Y-132855500D01*
X126080054Y-132855500D01*
X126047597Y-132862398D01*
X125894897Y-132894855D01*
X125894892Y-132894857D01*
X125721970Y-132971848D01*
X125721965Y-132971851D01*
X125568829Y-133083111D01*
X125442166Y-133223785D01*
X125347521Y-133387715D01*
X125347518Y-133387722D01*
X125289027Y-133567740D01*
X125289026Y-133567744D01*
X125269240Y-133756000D01*
X123774560Y-133756000D01*
X123754774Y-133567744D01*
X123696279Y-133387716D01*
X123601633Y-133223784D01*
X123474971Y-133083112D01*
X123428031Y-133049008D01*
X123321834Y-132971851D01*
X123321829Y-132971848D01*
X123148907Y-132894857D01*
X123148902Y-132894855D01*
X123003101Y-132863865D01*
X122963746Y-132855500D01*
X122774454Y-132855500D01*
X122741997Y-132862398D01*
X122589297Y-132894855D01*
X122589292Y-132894857D01*
X122416370Y-132971848D01*
X122416365Y-132971851D01*
X122263229Y-133083111D01*
X122136566Y-133223785D01*
X122041921Y-133387715D01*
X122041918Y-133387722D01*
X121983427Y-133567740D01*
X121983426Y-133567744D01*
X121963640Y-133756000D01*
X106628383Y-133756000D01*
X106647437Y-133681790D01*
X106650000Y-133600000D01*
X106647437Y-133518210D01*
X106606756Y-133359768D01*
X106606755Y-133359767D01*
X106606755Y-133359765D01*
X106527954Y-133216426D01*
X106527951Y-133216421D01*
X106415973Y-133097177D01*
X106415972Y-133097176D01*
X106340068Y-133049006D01*
X106277855Y-133009524D01*
X106122282Y-132958976D01*
X105959027Y-132948705D01*
X105959026Y-132948705D01*
X105959024Y-132948705D01*
X105881801Y-132963435D01*
X105798343Y-132979356D01*
X105798341Y-132979357D01*
X105650329Y-133049006D01*
X105650327Y-133049007D01*
X105650326Y-133049008D01*
X105524284Y-133153278D01*
X105524283Y-133153279D01*
X105428141Y-133285608D01*
X105428136Y-133285617D01*
X105367919Y-133437706D01*
X105367919Y-133437709D01*
X105347417Y-133599999D01*
X105347417Y-133600000D01*
X100000000Y-133600000D01*
X100000000Y-129716400D01*
X107818240Y-129716400D01*
X107838026Y-129904656D01*
X107838027Y-129904659D01*
X107896518Y-130084677D01*
X107896521Y-130084684D01*
X107991167Y-130248616D01*
X108117829Y-130389288D01*
X108270965Y-130500548D01*
X108270970Y-130500551D01*
X108443892Y-130577542D01*
X108443897Y-130577544D01*
X108629054Y-130616900D01*
X108629055Y-130616900D01*
X108818344Y-130616900D01*
X108818346Y-130616900D01*
X109003503Y-130577544D01*
X109176430Y-130500551D01*
X109329571Y-130389288D01*
X109456233Y-130248616D01*
X109550879Y-130084684D01*
X109609374Y-129904656D01*
X109609863Y-129900000D01*
X114752440Y-129900000D01*
X114772226Y-130088256D01*
X114772227Y-130088259D01*
X114830718Y-130268277D01*
X114830721Y-130268284D01*
X114925367Y-130432216D01*
X115052029Y-130572888D01*
X115205165Y-130684148D01*
X115205170Y-130684151D01*
X115378092Y-130761142D01*
X115378097Y-130761144D01*
X115563254Y-130800500D01*
X115563255Y-130800500D01*
X115752544Y-130800500D01*
X115752546Y-130800500D01*
X115937703Y-130761144D01*
X116110630Y-130684151D01*
X116263771Y-130572888D01*
X116390433Y-130432216D01*
X116485079Y-130268284D01*
X116543574Y-130088256D01*
X116563360Y-129900000D01*
X116543574Y-129711744D01*
X116485079Y-129531716D01*
X116390433Y-129367784D01*
X116263771Y-129227112D01*
X116263770Y-129227111D01*
X116110634Y-129115851D01*
X116110629Y-129115848D01*
X115937707Y-129038857D01*
X115937702Y-129038855D01*
X115791901Y-129007865D01*
X115752546Y-128999500D01*
X115563254Y-128999500D01*
X115530797Y-129006398D01*
X115378097Y-129038855D01*
X115378092Y-129038857D01*
X115205170Y-129115848D01*
X115205165Y-129115851D01*
X115052029Y-129227111D01*
X114925366Y-129367785D01*
X114830721Y-129531715D01*
X114830718Y-129531722D01*
X114772227Y-129711740D01*
X114772226Y-129711744D01*
X114752440Y-129900000D01*
X109609863Y-129900000D01*
X109629160Y-129716400D01*
X109609374Y-129528144D01*
X109550879Y-129348116D01*
X109456233Y-129184184D01*
X109329571Y-129043512D01*
X109329570Y-129043511D01*
X109176434Y-128932251D01*
X109176429Y-128932248D01*
X109003507Y-128855257D01*
X109003502Y-128855255D01*
X108857701Y-128824265D01*
X108818346Y-128815900D01*
X108629054Y-128815900D01*
X108596597Y-128822798D01*
X108443897Y-128855255D01*
X108443892Y-128855257D01*
X108270970Y-128932248D01*
X108270965Y-128932251D01*
X108117829Y-129043511D01*
X107991166Y-129184185D01*
X107896521Y-129348115D01*
X107896518Y-129348122D01*
X107838027Y-129528140D01*
X107838026Y-129528144D01*
X107818240Y-129716400D01*
X100000000Y-129716400D01*
X100000000Y-124852500D01*
X114574540Y-124852500D01*
X114594326Y-125040756D01*
X114594327Y-125040759D01*
X114652818Y-125220777D01*
X114652821Y-125220784D01*
X114747467Y-125384716D01*
X114874129Y-125525388D01*
X115027265Y-125636648D01*
X115027270Y-125636651D01*
X115200192Y-125713642D01*
X115200197Y-125713644D01*
X115385354Y-125753000D01*
X115385355Y-125753000D01*
X115574644Y-125753000D01*
X115574646Y-125753000D01*
X115759803Y-125713644D01*
X115932730Y-125636651D01*
X116085871Y-125525388D01*
X116212533Y-125384716D01*
X116307179Y-125220784D01*
X116365674Y-125040756D01*
X116385460Y-124852500D01*
X116365674Y-124664244D01*
X116307179Y-124484216D01*
X116212533Y-124320284D01*
X116149249Y-124250000D01*
X120584540Y-124250000D01*
X120604326Y-124438256D01*
X120604327Y-124438259D01*
X120662818Y-124618277D01*
X120662821Y-124618284D01*
X120757467Y-124782216D01*
X120825745Y-124858046D01*
X120884129Y-124922888D01*
X121037265Y-125034148D01*
X121037266Y-125034148D01*
X121037270Y-125034151D01*
X121077856Y-125052221D01*
X121083666Y-125054808D01*
X121120911Y-125080406D01*
X121706111Y-125665606D01*
X121706140Y-125665637D01*
X121796359Y-125755856D01*
X121796362Y-125755858D01*
X121873285Y-125807256D01*
X121898805Y-125824309D01*
X121898807Y-125824310D01*
X121898810Y-125824312D01*
X121965491Y-125851931D01*
X121965493Y-125851933D01*
X122005735Y-125868601D01*
X122012643Y-125871463D01*
X122073066Y-125883481D01*
X122133488Y-125895500D01*
X122869712Y-125895500D01*
X122930134Y-125883481D01*
X122990557Y-125871463D01*
X122990560Y-125871461D01*
X122990563Y-125871461D01*
X123023892Y-125857654D01*
X123023891Y-125857654D01*
X123023897Y-125857652D01*
X123104391Y-125824312D01*
X123155614Y-125790084D01*
X123206838Y-125755858D01*
X123293963Y-125668733D01*
X123293963Y-125668731D01*
X123304171Y-125658524D01*
X123304172Y-125658521D01*
X124118020Y-124844674D01*
X124179342Y-124811190D01*
X124249034Y-124816174D01*
X124304967Y-124858046D01*
X124329384Y-124923510D01*
X124329700Y-124932356D01*
X124329700Y-128076698D01*
X124310015Y-128143737D01*
X124257211Y-128189492D01*
X124188053Y-128199436D01*
X124124497Y-128170411D01*
X124098313Y-128138698D01*
X124062517Y-128076698D01*
X124042533Y-128042084D01*
X123915871Y-127901412D01*
X123915870Y-127901411D01*
X123762734Y-127790151D01*
X123762729Y-127790148D01*
X123589807Y-127713157D01*
X123589802Y-127713155D01*
X123444001Y-127682165D01*
X123404646Y-127673800D01*
X123215354Y-127673800D01*
X123182897Y-127680698D01*
X123030197Y-127713155D01*
X123030192Y-127713157D01*
X122857270Y-127790148D01*
X122857265Y-127790151D01*
X122704129Y-127901411D01*
X122577466Y-128042085D01*
X122482821Y-128206015D01*
X122482818Y-128206022D01*
X122445218Y-128321744D01*
X122424326Y-128386044D01*
X122404540Y-128574300D01*
X122424326Y-128762556D01*
X122424327Y-128762559D01*
X122482818Y-128942577D01*
X122482821Y-128942584D01*
X122577467Y-129106516D01*
X122700415Y-129243063D01*
X122704129Y-129247188D01*
X122857265Y-129358448D01*
X122857270Y-129358451D01*
X123030192Y-129435442D01*
X123030197Y-129435444D01*
X123215354Y-129474800D01*
X123215355Y-129474800D01*
X123404644Y-129474800D01*
X123404646Y-129474800D01*
X123589803Y-129435444D01*
X123762730Y-129358451D01*
X123915871Y-129247188D01*
X124042533Y-129106516D01*
X124137179Y-128942584D01*
X124137181Y-128942575D01*
X124138253Y-128940720D01*
X124188820Y-128892504D01*
X124257427Y-128879280D01*
X124322292Y-128905248D01*
X124360201Y-128955263D01*
X124367546Y-128972994D01*
X124367547Y-128972998D01*
X124400885Y-129053486D01*
X124400890Y-129053495D01*
X124425774Y-129090735D01*
X124425775Y-129090736D01*
X124469341Y-129155937D01*
X124469344Y-129155941D01*
X124560786Y-129247383D01*
X124560808Y-129247403D01*
X129209011Y-133895606D01*
X129209040Y-133895637D01*
X129299259Y-133985856D01*
X129299262Y-133985858D01*
X129350485Y-134020084D01*
X129401709Y-134054312D01*
X129465499Y-134080734D01*
X129515543Y-134101463D01*
X129575966Y-134113481D01*
X129636388Y-134125500D01*
X129636389Y-134125500D01*
X129726252Y-134125500D01*
X129793291Y-134145185D01*
X129818400Y-134166526D01*
X129824126Y-134172885D01*
X129824130Y-134172889D01*
X129977265Y-134284148D01*
X129977270Y-134284151D01*
X130150192Y-134361142D01*
X130150197Y-134361144D01*
X130335354Y-134400500D01*
X130335355Y-134400500D01*
X130524644Y-134400500D01*
X130524646Y-134400500D01*
X130709803Y-134361144D01*
X130882730Y-134284151D01*
X131035871Y-134172888D01*
X131162533Y-134032216D01*
X131257179Y-133868284D01*
X131315674Y-133688256D01*
X131335460Y-133500000D01*
X131315674Y-133311744D01*
X131257179Y-133131716D01*
X131162533Y-132967784D01*
X131035871Y-132827112D01*
X131035870Y-132827111D01*
X130882734Y-132715851D01*
X130882729Y-132715848D01*
X130709807Y-132638857D01*
X130709802Y-132638855D01*
X130564001Y-132607865D01*
X130524646Y-132599500D01*
X130335354Y-132599500D01*
X130302897Y-132606398D01*
X130150197Y-132638855D01*
X130150192Y-132638857D01*
X129977270Y-132715848D01*
X129977267Y-132715850D01*
X129959366Y-132728856D01*
X129893559Y-132752334D01*
X129825505Y-132736507D01*
X129798802Y-132716217D01*
X127050900Y-129968315D01*
X127017415Y-129906992D01*
X127022399Y-129837300D01*
X127046429Y-129797664D01*
X127133633Y-129700816D01*
X127228279Y-129536884D01*
X127286774Y-129356856D01*
X127304421Y-129188945D01*
X127331005Y-129124332D01*
X127340052Y-129114236D01*
X127944288Y-128510000D01*
X130997340Y-128510000D01*
X131017126Y-128698256D01*
X131017127Y-128698259D01*
X131075618Y-128878277D01*
X131075621Y-128878284D01*
X131170267Y-129042216D01*
X131244205Y-129124332D01*
X131296929Y-129182888D01*
X131450065Y-129294148D01*
X131450070Y-129294151D01*
X131622992Y-129371142D01*
X131622997Y-129371144D01*
X131808154Y-129410500D01*
X131808155Y-129410500D01*
X131997444Y-129410500D01*
X131997446Y-129410500D01*
X132182603Y-129371144D01*
X132355530Y-129294151D01*
X132508671Y-129182888D01*
X132635333Y-129042216D01*
X132729979Y-128878284D01*
X132788474Y-128698256D01*
X132808260Y-128510000D01*
X132788474Y-128321744D01*
X132729979Y-128141716D01*
X132635333Y-127977784D01*
X132508671Y-127837112D01*
X132508670Y-127837111D01*
X132355534Y-127725851D01*
X132355529Y-127725848D01*
X132182607Y-127648857D01*
X132182602Y-127648855D01*
X132021303Y-127614571D01*
X131997446Y-127609500D01*
X131808154Y-127609500D01*
X131784297Y-127614571D01*
X131622997Y-127648855D01*
X131622992Y-127648857D01*
X131450070Y-127725848D01*
X131450065Y-127725851D01*
X131296929Y-127837111D01*
X131170266Y-127977785D01*
X131075621Y-128141715D01*
X131075618Y-128141722D01*
X131017127Y-128321740D01*
X131017126Y-128321744D01*
X130997340Y-128510000D01*
X127944288Y-128510000D01*
X132024929Y-124429360D01*
X132024933Y-124429358D01*
X132112058Y-124342233D01*
X132180511Y-124239786D01*
X132227663Y-124125952D01*
X132251700Y-124005106D01*
X132251700Y-123254287D01*
X132271385Y-123187248D01*
X132283550Y-123171315D01*
X132314817Y-123136589D01*
X132358733Y-123087816D01*
X132453379Y-122923884D01*
X132511874Y-122743856D01*
X132531660Y-122555600D01*
X132511874Y-122367344D01*
X132453379Y-122187316D01*
X132383568Y-122066400D01*
X133462040Y-122066400D01*
X133481826Y-122254656D01*
X133481827Y-122254659D01*
X133540318Y-122434677D01*
X133540321Y-122434684D01*
X133634967Y-122598616D01*
X133761629Y-122739288D01*
X133914765Y-122850548D01*
X133914770Y-122850551D01*
X134087692Y-122927542D01*
X134087697Y-122927544D01*
X134272854Y-122966900D01*
X134272855Y-122966900D01*
X134462144Y-122966900D01*
X134462146Y-122966900D01*
X134647303Y-122927544D01*
X134820230Y-122850551D01*
X134973371Y-122739288D01*
X135100033Y-122598616D01*
X135194679Y-122434684D01*
X135253174Y-122254656D01*
X135272960Y-122066400D01*
X135253174Y-121878144D01*
X135194679Y-121698116D01*
X135100033Y-121534184D01*
X134973371Y-121393512D01*
X134973370Y-121393511D01*
X134820234Y-121282251D01*
X134820229Y-121282248D01*
X134647307Y-121205257D01*
X134647302Y-121205255D01*
X134501501Y-121174265D01*
X134462146Y-121165900D01*
X134272854Y-121165900D01*
X134240397Y-121172798D01*
X134087697Y-121205255D01*
X134087692Y-121205257D01*
X133914770Y-121282248D01*
X133914765Y-121282251D01*
X133761629Y-121393511D01*
X133634966Y-121534185D01*
X133540321Y-121698115D01*
X133540318Y-121698122D01*
X133496708Y-121832341D01*
X133481826Y-121878144D01*
X133462040Y-122066400D01*
X132383568Y-122066400D01*
X132358733Y-122023384D01*
X132232071Y-121882712D01*
X132225784Y-121878144D01*
X132078934Y-121771451D01*
X132078929Y-121771448D01*
X131906007Y-121694457D01*
X131906002Y-121694455D01*
X131738253Y-121658800D01*
X131720846Y-121655100D01*
X131531554Y-121655100D01*
X131514147Y-121658800D01*
X131346397Y-121694455D01*
X131346392Y-121694457D01*
X131173470Y-121771448D01*
X131173465Y-121771451D01*
X131020329Y-121882711D01*
X130893666Y-122023385D01*
X130799021Y-122187315D01*
X130799018Y-122187322D01*
X130740527Y-122367340D01*
X130740526Y-122367344D01*
X130720740Y-122555600D01*
X130740526Y-122743856D01*
X130740527Y-122743859D01*
X130799018Y-122923877D01*
X130799021Y-122923884D01*
X130893667Y-123087816D01*
X130936972Y-123135910D01*
X130968850Y-123171315D01*
X130999080Y-123234306D01*
X131000700Y-123254287D01*
X131000700Y-123633047D01*
X130981015Y-123700086D01*
X130964381Y-123720728D01*
X127972436Y-126712672D01*
X127911113Y-126746157D01*
X127841421Y-126741173D01*
X127792605Y-126707963D01*
X127708370Y-126614411D01*
X127555234Y-126503151D01*
X127555229Y-126503148D01*
X127382307Y-126426157D01*
X127382302Y-126426155D01*
X127236501Y-126395165D01*
X127197146Y-126386800D01*
X127007854Y-126386800D01*
X126975397Y-126393698D01*
X126822697Y-126426155D01*
X126822692Y-126426157D01*
X126649770Y-126503148D01*
X126649765Y-126503151D01*
X126496629Y-126614411D01*
X126369966Y-126755085D01*
X126275321Y-126919015D01*
X126275318Y-126919022D01*
X126216827Y-127099040D01*
X126216826Y-127099044D01*
X126197040Y-127287300D01*
X126216826Y-127475556D01*
X126216827Y-127475558D01*
X126219861Y-127484898D01*
X126221853Y-127554740D01*
X126185770Y-127614571D01*
X126123067Y-127645396D01*
X126053653Y-127637428D01*
X126051492Y-127636490D01*
X125960006Y-127595757D01*
X125960002Y-127595755D01*
X125814201Y-127564765D01*
X125774846Y-127556400D01*
X125704700Y-127556400D01*
X125637661Y-127536715D01*
X125591906Y-127483911D01*
X125580700Y-127432400D01*
X125580700Y-125065252D01*
X125600385Y-124998213D01*
X125617019Y-124977571D01*
X126644698Y-123949892D01*
X127675372Y-122919218D01*
X127736692Y-122885735D01*
X127806384Y-122890719D01*
X127862317Y-122932591D01*
X127886734Y-122998055D01*
X127871882Y-123066328D01*
X127870446Y-123068886D01*
X127869623Y-123070310D01*
X127869618Y-123070322D01*
X127836804Y-123171315D01*
X127811126Y-123250344D01*
X127791340Y-123438600D01*
X127811126Y-123626856D01*
X127811127Y-123626859D01*
X127869618Y-123806877D01*
X127869621Y-123806884D01*
X127964267Y-123970816D01*
X128052088Y-124068351D01*
X128090929Y-124111488D01*
X128244065Y-124222748D01*
X128244070Y-124222751D01*
X128416992Y-124299742D01*
X128416997Y-124299744D01*
X128602154Y-124339100D01*
X128602155Y-124339100D01*
X128791444Y-124339100D01*
X128791446Y-124339100D01*
X128976603Y-124299744D01*
X129149530Y-124222751D01*
X129302671Y-124111488D01*
X129429333Y-123970816D01*
X129523979Y-123806884D01*
X129582474Y-123626856D01*
X129602260Y-123438600D01*
X129582474Y-123250344D01*
X129523979Y-123070316D01*
X129429333Y-122906384D01*
X129302671Y-122765712D01*
X129272589Y-122743856D01*
X129149534Y-122654451D01*
X129149529Y-122654448D01*
X128976607Y-122577457D01*
X128976602Y-122577455D01*
X128830801Y-122546465D01*
X128791446Y-122538100D01*
X128602154Y-122538100D01*
X128569697Y-122544998D01*
X128416997Y-122577455D01*
X128307426Y-122626240D01*
X128238176Y-122635524D01*
X128174900Y-122605896D01*
X128137687Y-122546761D01*
X128138352Y-122476894D01*
X128169307Y-122425283D01*
X129657772Y-120936819D01*
X129719095Y-120903334D01*
X129745453Y-120900500D01*
X129804644Y-120900500D01*
X129804646Y-120900500D01*
X129989803Y-120861144D01*
X130162730Y-120784151D01*
X130315871Y-120672888D01*
X130442533Y-120532216D01*
X130537179Y-120368284D01*
X130595674Y-120188256D01*
X130615460Y-120000000D01*
X130595674Y-119811744D01*
X130537179Y-119631716D01*
X130502412Y-119571498D01*
X130485940Y-119503600D01*
X130508793Y-119437573D01*
X130563714Y-119394382D01*
X130609800Y-119385500D01*
X132291608Y-119385500D01*
X132291608Y-119385499D01*
X132379944Y-119367929D01*
X132379945Y-119367929D01*
X132390878Y-119365754D01*
X132412452Y-119361463D01*
X132463761Y-119340210D01*
X132526286Y-119314312D01*
X132595170Y-119268284D01*
X132628733Y-119245858D01*
X132715858Y-119158733D01*
X132715859Y-119158730D01*
X133210858Y-118663733D01*
X133279312Y-118561285D01*
X133326463Y-118447451D01*
X133329523Y-118432070D01*
X133350500Y-118326606D01*
X133350500Y-116950509D01*
X133370185Y-116883470D01*
X133422989Y-116837715D01*
X133492147Y-116827771D01*
X133500261Y-116829215D01*
X133582285Y-116846650D01*
X133582286Y-116846650D01*
X133771575Y-116846650D01*
X133771577Y-116846650D01*
X133956734Y-116807294D01*
X134129661Y-116730301D01*
X134282802Y-116619038D01*
X134409464Y-116478366D01*
X134504110Y-116314434D01*
X134562605Y-116134406D01*
X134582391Y-115946150D01*
X134562605Y-115757894D01*
X134504110Y-115577866D01*
X134409959Y-115414792D01*
X134393487Y-115346894D01*
X134416340Y-115280867D01*
X134462518Y-115243109D01*
X134462107Y-115242397D01*
X134466469Y-115239878D01*
X134466916Y-115239513D01*
X134467730Y-115239151D01*
X134620871Y-115127888D01*
X134747533Y-114987216D01*
X134842179Y-114823284D01*
X134900674Y-114643256D01*
X134920460Y-114455000D01*
X134900674Y-114266744D01*
X134842179Y-114086716D01*
X134747533Y-113922784D01*
X134620871Y-113782112D01*
X134579720Y-113752214D01*
X134467734Y-113670851D01*
X134467729Y-113670848D01*
X134294807Y-113593857D01*
X134294802Y-113593855D01*
X134149001Y-113562865D01*
X134109646Y-113554500D01*
X133920354Y-113554500D01*
X133887897Y-113561398D01*
X133735197Y-113593855D01*
X133735192Y-113593857D01*
X133562270Y-113670848D01*
X133562265Y-113670851D01*
X133409129Y-113782111D01*
X133282466Y-113922785D01*
X133187821Y-114086715D01*
X133187818Y-114086722D01*
X133132376Y-114257356D01*
X133129326Y-114266744D01*
X133121275Y-114343344D01*
X133113893Y-114413582D01*
X133087308Y-114478196D01*
X133030011Y-114518181D01*
X132960192Y-114520841D01*
X132902891Y-114488301D01*
X131240198Y-112825608D01*
X131240178Y-112825586D01*
X131148733Y-112734141D01*
X131097509Y-112699915D01*
X131097508Y-112699914D01*
X131046294Y-112665693D01*
X131046291Y-112665691D01*
X131046286Y-112665688D01*
X131046279Y-112665685D01*
X131040917Y-112662819D01*
X131041295Y-112662111D01*
X131001758Y-112634169D01*
X130937208Y-112562479D01*
X130906979Y-112499488D01*
X130915605Y-112430152D01*
X130960346Y-112376487D01*
X131003575Y-112358219D01*
X131178003Y-112321144D01*
X131350930Y-112244151D01*
X131504071Y-112132888D01*
X131630733Y-111992216D01*
X131725379Y-111828284D01*
X131783874Y-111648256D01*
X131803660Y-111460000D01*
X131783874Y-111271744D01*
X131725379Y-111091716D01*
X131630733Y-110927784D01*
X131504071Y-110787112D01*
X131504070Y-110787111D01*
X131350934Y-110675851D01*
X131350929Y-110675848D01*
X131178007Y-110598857D01*
X131178002Y-110598855D01*
X131032201Y-110567865D01*
X130992846Y-110559500D01*
X130803554Y-110559500D01*
X130771097Y-110566398D01*
X130618397Y-110598855D01*
X130618392Y-110598857D01*
X130445470Y-110675848D01*
X130445465Y-110675851D01*
X130292329Y-110787111D01*
X130165666Y-110927785D01*
X130071021Y-111091715D01*
X130071018Y-111091722D01*
X130012527Y-111271740D01*
X130012526Y-111271744D01*
X129992740Y-111460000D01*
X130012526Y-111648256D01*
X130012527Y-111648259D01*
X130071018Y-111828277D01*
X130071021Y-111828284D01*
X130165667Y-111992216D01*
X130227913Y-112061347D01*
X130278490Y-112117519D01*
X130308720Y-112180511D01*
X130300095Y-112249846D01*
X130255353Y-112303511D01*
X130212121Y-112321781D01*
X130037697Y-112358855D01*
X130037692Y-112358857D01*
X129864770Y-112435848D01*
X129864765Y-112435851D01*
X129711629Y-112547111D01*
X129584966Y-112687785D01*
X129490321Y-112851715D01*
X129490318Y-112851722D01*
X129439606Y-113007800D01*
X129431826Y-113031744D01*
X129412040Y-113220000D01*
X129431826Y-113408256D01*
X129431827Y-113408259D01*
X129490318Y-113588277D01*
X129490321Y-113588284D01*
X129584967Y-113752216D01*
X129611885Y-113782111D01*
X129711629Y-113892888D01*
X129864765Y-114004148D01*
X129864770Y-114004151D01*
X130037692Y-114081142D01*
X130037697Y-114081144D01*
X130222854Y-114120500D01*
X130222855Y-114120500D01*
X130412144Y-114120500D01*
X130412146Y-114120500D01*
X130597303Y-114081144D01*
X130608879Y-114075989D01*
X130678127Y-114066703D01*
X130741404Y-114096330D01*
X130746997Y-114101587D01*
X131638681Y-114993271D01*
X131672166Y-115054594D01*
X131675000Y-115080952D01*
X131675000Y-115316446D01*
X131924999Y-115566446D01*
X131925000Y-115566446D01*
X132063181Y-115704626D01*
X132096666Y-115765949D01*
X132099500Y-115792308D01*
X132099500Y-116149553D01*
X132079815Y-116216592D01*
X132027011Y-116262347D01*
X131975500Y-116273553D01*
X131925000Y-116273553D01*
X131828553Y-116369999D01*
X131925001Y-116466446D01*
X131975500Y-116466446D01*
X132042539Y-116486131D01*
X132088294Y-116538935D01*
X132099500Y-116590446D01*
X132099500Y-117049553D01*
X132079815Y-117116592D01*
X132027011Y-117162347D01*
X131975500Y-117173553D01*
X131925000Y-117173553D01*
X131828553Y-117269999D01*
X131925001Y-117366446D01*
X131975500Y-117366446D01*
X132042539Y-117386131D01*
X132088294Y-117438935D01*
X132099500Y-117490446D01*
X132099500Y-117847690D01*
X132079815Y-117914729D01*
X132063181Y-117935371D01*
X131900371Y-118098181D01*
X131839048Y-118131666D01*
X131812690Y-118134500D01*
X131037310Y-118134500D01*
X130970271Y-118114815D01*
X130949629Y-118098181D01*
X130925001Y-118073553D01*
X130601285Y-117749837D01*
X130775000Y-117749837D01*
X130797836Y-117804968D01*
X130840032Y-117847164D01*
X130895163Y-117870000D01*
X130954837Y-117870000D01*
X131009968Y-117847164D01*
X131052164Y-117804968D01*
X131075000Y-117749837D01*
X131075000Y-117719999D01*
X131278553Y-117719999D01*
X131425000Y-117866446D01*
X131541610Y-117749837D01*
X131775000Y-117749837D01*
X131797836Y-117804968D01*
X131840032Y-117847164D01*
X131895163Y-117870000D01*
X131954837Y-117870000D01*
X132009968Y-117847164D01*
X132052164Y-117804968D01*
X132075000Y-117749837D01*
X132075000Y-117690163D01*
X132052164Y-117635032D01*
X132009968Y-117592836D01*
X131954837Y-117570000D01*
X131895163Y-117570000D01*
X131840032Y-117592836D01*
X131797836Y-117635032D01*
X131775000Y-117690163D01*
X131775000Y-117749837D01*
X131541610Y-117749837D01*
X131571446Y-117720001D01*
X131571446Y-117720000D01*
X131425000Y-117573553D01*
X131278553Y-117719999D01*
X131075000Y-117719999D01*
X131075000Y-117690163D01*
X131052164Y-117635032D01*
X131009968Y-117592836D01*
X130954837Y-117570000D01*
X130895163Y-117570000D01*
X130840032Y-117592836D01*
X130797836Y-117635032D01*
X130775000Y-117690163D01*
X130775000Y-117749837D01*
X130601285Y-117749837D01*
X130219137Y-117367690D01*
X130185652Y-117306367D01*
X130182818Y-117280009D01*
X130182818Y-117269999D01*
X130828553Y-117269999D01*
X130925000Y-117366446D01*
X131021446Y-117270001D01*
X131021446Y-117270000D01*
X130925000Y-117173553D01*
X130828553Y-117269999D01*
X130182818Y-117269999D01*
X130182818Y-117259990D01*
X130202503Y-117192951D01*
X130219137Y-117172308D01*
X130321446Y-117070000D01*
X129950000Y-117070000D01*
X129950000Y-117747896D01*
X129930315Y-117814935D01*
X129877511Y-117860690D01*
X129808353Y-117870634D01*
X129800221Y-117869187D01*
X129790067Y-117867029D01*
X129754646Y-117859500D01*
X129565354Y-117859500D01*
X129532897Y-117866398D01*
X129380197Y-117898855D01*
X129380192Y-117898857D01*
X129207270Y-117975848D01*
X129207265Y-117975851D01*
X129054129Y-118087111D01*
X128927466Y-118227785D01*
X128832821Y-118391715D01*
X128832818Y-118391722D01*
X128774327Y-118571740D01*
X128774326Y-118571744D01*
X128754540Y-118760000D01*
X128774326Y-118948256D01*
X128774327Y-118948259D01*
X128832818Y-119128277D01*
X128832821Y-119128284D01*
X128927464Y-119292212D01*
X128927465Y-119292214D01*
X128927467Y-119292216D01*
X128959412Y-119327694D01*
X128989641Y-119390684D01*
X128981016Y-119460019D01*
X128974649Y-119472664D01*
X128882820Y-119631718D01*
X128882818Y-119631722D01*
X128834445Y-119780600D01*
X128824326Y-119811744D01*
X128815349Y-119897155D01*
X128806679Y-119979649D01*
X128780094Y-120044263D01*
X128771039Y-120054368D01*
X124796681Y-124028727D01*
X124735358Y-124062212D01*
X124665666Y-124057228D01*
X124609733Y-124015356D01*
X124585316Y-123949892D01*
X124585000Y-123941046D01*
X124585000Y-123456388D01*
X124583734Y-123450027D01*
X124583734Y-123450016D01*
X124583733Y-123450017D01*
X124560964Y-123335550D01*
X124560963Y-123335543D01*
X124513811Y-123221709D01*
X124469175Y-123154907D01*
X124462830Y-123145411D01*
X124456936Y-123136589D01*
X124436059Y-123069912D01*
X124454544Y-123002532D01*
X124506524Y-122955842D01*
X124560039Y-122943700D01*
X124916713Y-122943700D01*
X124916713Y-122943699D01*
X124997935Y-122927544D01*
X124997936Y-122927544D01*
X125011385Y-122924868D01*
X125037557Y-122919663D01*
X125070897Y-122905852D01*
X125151391Y-122872512D01*
X125218536Y-122827646D01*
X125253838Y-122804058D01*
X125340963Y-122716933D01*
X125340963Y-122716931D01*
X125351171Y-122706724D01*
X125351172Y-122706721D01*
X127775858Y-120282038D01*
X127844312Y-120179590D01*
X127877896Y-120098510D01*
X127883322Y-120085412D01*
X127891461Y-120065761D01*
X127891463Y-120065757D01*
X127900684Y-120019400D01*
X127909685Y-119974149D01*
X127915501Y-119944913D01*
X127915501Y-119816588D01*
X127915500Y-119816562D01*
X127915500Y-117538687D01*
X127935185Y-117471648D01*
X127947350Y-117455715D01*
X127983390Y-117415688D01*
X128022533Y-117372216D01*
X128117179Y-117208284D01*
X128175674Y-117028256D01*
X128194426Y-116849837D01*
X130775000Y-116849837D01*
X130797836Y-116904968D01*
X130840032Y-116947164D01*
X130895163Y-116970000D01*
X130954837Y-116970000D01*
X131009968Y-116947164D01*
X131052164Y-116904968D01*
X131075000Y-116849837D01*
X131775000Y-116849837D01*
X131797836Y-116904968D01*
X131840032Y-116947164D01*
X131895163Y-116970000D01*
X131954837Y-116970000D01*
X132009968Y-116947164D01*
X132052164Y-116904968D01*
X132075000Y-116849837D01*
X132075000Y-116790163D01*
X132052164Y-116735032D01*
X132009968Y-116692836D01*
X131954837Y-116670000D01*
X131895163Y-116670000D01*
X131840032Y-116692836D01*
X131797836Y-116735032D01*
X131775000Y-116790163D01*
X131775000Y-116849837D01*
X131075000Y-116849837D01*
X131075000Y-116790163D01*
X131052164Y-116735032D01*
X131009968Y-116692836D01*
X130954837Y-116670000D01*
X130895163Y-116670000D01*
X130840032Y-116692836D01*
X130797836Y-116735032D01*
X130775000Y-116790163D01*
X130775000Y-116849837D01*
X128194426Y-116849837D01*
X128195460Y-116840000D01*
X128175674Y-116651744D01*
X128149114Y-116570000D01*
X129950000Y-116570000D01*
X130321446Y-116570000D01*
X130321446Y-116569999D01*
X130219137Y-116467690D01*
X130185652Y-116406367D01*
X130182818Y-116380009D01*
X130182818Y-116369999D01*
X130828553Y-116369999D01*
X130925000Y-116466446D01*
X131021446Y-116370001D01*
X131021446Y-116370000D01*
X130925000Y-116273553D01*
X130828553Y-116369999D01*
X130182818Y-116369999D01*
X130182818Y-116359990D01*
X130202503Y-116292951D01*
X130219137Y-116272309D01*
X130541609Y-115949837D01*
X130775000Y-115949837D01*
X130797836Y-116004968D01*
X130840032Y-116047164D01*
X130895163Y-116070000D01*
X130954837Y-116070000D01*
X131009968Y-116047164D01*
X131052164Y-116004968D01*
X131075000Y-115949837D01*
X131775000Y-115949837D01*
X131797836Y-116004968D01*
X131840032Y-116047164D01*
X131895163Y-116070000D01*
X131954837Y-116070000D01*
X132009968Y-116047164D01*
X132052164Y-116004968D01*
X132075000Y-115949837D01*
X132075000Y-115890163D01*
X132052164Y-115835032D01*
X132009968Y-115792836D01*
X131954837Y-115770000D01*
X131895163Y-115770000D01*
X131840032Y-115792836D01*
X131797836Y-115835032D01*
X131775000Y-115890163D01*
X131775000Y-115949837D01*
X131075000Y-115949837D01*
X131075000Y-115890163D01*
X131052164Y-115835032D01*
X131009968Y-115792836D01*
X130954837Y-115770000D01*
X130895163Y-115770000D01*
X130840032Y-115792836D01*
X130797836Y-115835032D01*
X130775000Y-115890163D01*
X130775000Y-115949837D01*
X130541609Y-115949837D01*
X130925000Y-115566447D01*
X131174999Y-115316446D01*
X131175000Y-115316445D01*
X131175000Y-115020000D01*
X130402155Y-115020000D01*
X130342627Y-115026401D01*
X130342620Y-115026403D01*
X130207913Y-115076645D01*
X130207906Y-115076649D01*
X130092812Y-115162809D01*
X130092809Y-115162812D01*
X130006649Y-115277906D01*
X130006645Y-115277913D01*
X129956403Y-115412620D01*
X129956401Y-115412627D01*
X129950000Y-115472155D01*
X129950000Y-116570000D01*
X128149114Y-116570000D01*
X128117179Y-116471716D01*
X128022533Y-116307784D01*
X127895871Y-116167112D01*
X127895870Y-116167111D01*
X127742734Y-116055851D01*
X127742729Y-116055848D01*
X127569807Y-115978857D01*
X127569802Y-115978855D01*
X127415932Y-115946150D01*
X127384646Y-115939500D01*
X127195354Y-115939500D01*
X127164068Y-115946150D01*
X127010197Y-115978855D01*
X127010192Y-115978857D01*
X126837270Y-116055848D01*
X126837265Y-116055851D01*
X126684129Y-116167111D01*
X126557466Y-116307785D01*
X126462821Y-116471715D01*
X126462818Y-116471722D01*
X126404327Y-116651740D01*
X126404326Y-116651744D01*
X126384540Y-116840000D01*
X126404326Y-117028256D01*
X126404327Y-117028259D01*
X126462818Y-117208277D01*
X126462821Y-117208284D01*
X126557467Y-117372216D01*
X126596610Y-117415688D01*
X126632650Y-117455715D01*
X126662880Y-117518706D01*
X126664500Y-117538687D01*
X126664500Y-119572852D01*
X126644815Y-119639891D01*
X126628181Y-119660533D01*
X125351490Y-120937223D01*
X125290167Y-120970708D01*
X125220475Y-120965724D01*
X125171660Y-120932515D01*
X125160677Y-120920317D01*
X125160669Y-120920310D01*
X125007534Y-120809051D01*
X125007529Y-120809048D01*
X124834607Y-120732057D01*
X124834602Y-120732055D01*
X124705062Y-120704521D01*
X124643580Y-120671329D01*
X124609804Y-120610166D01*
X124607522Y-120596190D01*
X124604774Y-120570045D01*
X124604772Y-120570040D01*
X124546279Y-120390016D01*
X124451633Y-120226084D01*
X124324971Y-120085412D01*
X124297921Y-120065759D01*
X124171834Y-119974151D01*
X124171829Y-119974148D01*
X123998907Y-119897157D01*
X123998902Y-119897155D01*
X123853101Y-119866165D01*
X123813746Y-119857800D01*
X123624454Y-119857800D01*
X123591997Y-119864698D01*
X123439297Y-119897155D01*
X123439292Y-119897157D01*
X123266370Y-119974148D01*
X123266365Y-119974151D01*
X123113229Y-120085411D01*
X122986566Y-120226085D01*
X122891921Y-120390015D01*
X122891918Y-120390022D01*
X122833427Y-120570040D01*
X122833426Y-120570044D01*
X122813640Y-120758300D01*
X122833426Y-120946556D01*
X122833427Y-120946559D01*
X122891918Y-121126577D01*
X122891921Y-121126584D01*
X122986567Y-121290516D01*
X123079305Y-121393512D01*
X123113229Y-121431188D01*
X123266365Y-121542448D01*
X123266370Y-121542451D01*
X123439381Y-121619482D01*
X123492618Y-121664732D01*
X123512939Y-121731582D01*
X123493893Y-121798805D01*
X123467604Y-121828619D01*
X123463067Y-121832341D01*
X123419505Y-121875904D01*
X123375942Y-121919467D01*
X123375939Y-121919470D01*
X123136075Y-122159334D01*
X123136072Y-122159337D01*
X123108094Y-122187315D01*
X123048947Y-122246461D01*
X123017385Y-122293698D01*
X123017384Y-122293700D01*
X122980492Y-122348909D01*
X122980490Y-122348913D01*
X122948860Y-122425279D01*
X122947152Y-122429402D01*
X122941628Y-122442738D01*
X122933342Y-122462740D01*
X122933340Y-122462748D01*
X122909305Y-122583584D01*
X122909305Y-122896840D01*
X122889620Y-122963879D01*
X122836816Y-123009634D01*
X122835741Y-123010119D01*
X122781770Y-123034148D01*
X122781765Y-123034151D01*
X122628629Y-123145411D01*
X122501966Y-123286085D01*
X122407321Y-123450015D01*
X122407318Y-123450022D01*
X122362051Y-123589341D01*
X122322613Y-123647017D01*
X122269905Y-123672312D01*
X122265808Y-123673183D01*
X122196141Y-123667870D01*
X122147873Y-123634866D01*
X122140663Y-123626859D01*
X122095871Y-123577112D01*
X122095870Y-123577111D01*
X122095864Y-123577106D01*
X121942734Y-123465851D01*
X121942729Y-123465848D01*
X121769807Y-123388857D01*
X121769802Y-123388855D01*
X121624001Y-123357865D01*
X121584646Y-123349500D01*
X121395354Y-123349500D01*
X121362897Y-123356398D01*
X121210197Y-123388855D01*
X121210192Y-123388857D01*
X121037270Y-123465848D01*
X121037265Y-123465851D01*
X120884129Y-123577111D01*
X120757466Y-123717785D01*
X120662821Y-123881715D01*
X120662818Y-123881722D01*
X120605793Y-124057228D01*
X120604326Y-124061744D01*
X120584540Y-124250000D01*
X116149249Y-124250000D01*
X116085871Y-124179612D01*
X116085870Y-124179611D01*
X115932734Y-124068351D01*
X115932729Y-124068348D01*
X115759807Y-123991357D01*
X115759802Y-123991355D01*
X115614001Y-123960365D01*
X115574646Y-123952000D01*
X115385354Y-123952000D01*
X115352897Y-123958898D01*
X115200197Y-123991355D01*
X115200192Y-123991357D01*
X115027270Y-124068348D01*
X115027265Y-124068351D01*
X114874129Y-124179611D01*
X114747466Y-124320285D01*
X114652821Y-124484215D01*
X114652818Y-124484222D01*
X114609259Y-124618284D01*
X114594326Y-124664244D01*
X114574540Y-124852500D01*
X100000000Y-124852500D01*
X100000000Y-120919900D01*
X104877740Y-120919900D01*
X104897526Y-121108156D01*
X104897527Y-121108159D01*
X104956018Y-121288177D01*
X104956021Y-121288184D01*
X105050667Y-121452116D01*
X105177329Y-121592788D01*
X105330465Y-121704048D01*
X105330470Y-121704051D01*
X105503392Y-121781042D01*
X105503397Y-121781044D01*
X105688554Y-121820400D01*
X105688555Y-121820400D01*
X105877844Y-121820400D01*
X105877846Y-121820400D01*
X106063003Y-121781044D01*
X106235930Y-121704051D01*
X106389071Y-121592788D01*
X106515733Y-121452116D01*
X106610379Y-121288184D01*
X106668874Y-121108156D01*
X106688660Y-120919900D01*
X106668874Y-120731644D01*
X106610379Y-120551616D01*
X106515733Y-120387684D01*
X106389071Y-120247012D01*
X106389070Y-120247011D01*
X106235934Y-120135751D01*
X106235929Y-120135748D01*
X106063007Y-120058757D01*
X106063002Y-120058755D01*
X105917201Y-120027765D01*
X105877846Y-120019400D01*
X105688554Y-120019400D01*
X105656097Y-120026298D01*
X105503397Y-120058755D01*
X105503392Y-120058757D01*
X105330470Y-120135748D01*
X105330465Y-120135751D01*
X105177329Y-120247011D01*
X105050666Y-120387685D01*
X104956021Y-120551615D01*
X104956018Y-120551622D01*
X104897527Y-120731640D01*
X104897526Y-120731644D01*
X104877740Y-120919900D01*
X100000000Y-120919900D01*
X100000000Y-118900000D01*
X112917140Y-118900000D01*
X112936926Y-119088256D01*
X112936927Y-119088259D01*
X112995418Y-119268277D01*
X112995420Y-119268281D01*
X112995421Y-119268284D01*
X113090067Y-119432216D01*
X113215479Y-119571500D01*
X113216729Y-119572888D01*
X113369865Y-119684148D01*
X113369870Y-119684151D01*
X113542792Y-119761142D01*
X113542797Y-119761144D01*
X113727954Y-119800500D01*
X113727955Y-119800500D01*
X113917244Y-119800500D01*
X113917246Y-119800500D01*
X114102403Y-119761144D01*
X114275330Y-119684151D01*
X114428471Y-119572888D01*
X114555133Y-119432216D01*
X114649779Y-119268284D01*
X114708274Y-119088256D01*
X114728060Y-118900000D01*
X114723236Y-118854100D01*
X119476040Y-118854100D01*
X119495826Y-119042356D01*
X119495827Y-119042359D01*
X119554318Y-119222377D01*
X119554321Y-119222384D01*
X119648967Y-119386316D01*
X119754570Y-119503600D01*
X119775629Y-119526988D01*
X119928765Y-119638248D01*
X119928770Y-119638251D01*
X120101692Y-119715242D01*
X120101697Y-119715244D01*
X120286854Y-119754600D01*
X120286855Y-119754600D01*
X120476144Y-119754600D01*
X120476146Y-119754600D01*
X120661303Y-119715244D01*
X120834230Y-119638251D01*
X120987371Y-119526988D01*
X120987370Y-119526988D01*
X120992629Y-119523168D01*
X120994070Y-119525152D01*
X121047064Y-119499703D01*
X121116402Y-119508309D01*
X121159226Y-119539103D01*
X121171727Y-119552986D01*
X121171735Y-119552993D01*
X121324865Y-119664248D01*
X121324870Y-119664251D01*
X121497792Y-119741242D01*
X121497797Y-119741244D01*
X121682954Y-119780600D01*
X121682955Y-119780600D01*
X121872244Y-119780600D01*
X121872246Y-119780600D01*
X122057403Y-119741244D01*
X122230330Y-119664251D01*
X122383471Y-119552988D01*
X122510133Y-119412316D01*
X122604779Y-119248384D01*
X122663274Y-119068356D01*
X122683060Y-118880100D01*
X122681326Y-118863600D01*
X123673440Y-118863600D01*
X123693226Y-119051856D01*
X123693227Y-119051859D01*
X123751718Y-119231877D01*
X123751721Y-119231884D01*
X123846367Y-119395816D01*
X123961036Y-119523168D01*
X123973029Y-119536488D01*
X124126165Y-119647748D01*
X124126170Y-119647751D01*
X124299092Y-119724742D01*
X124299097Y-119724744D01*
X124484254Y-119764100D01*
X124484255Y-119764100D01*
X124673544Y-119764100D01*
X124673546Y-119764100D01*
X124858703Y-119724744D01*
X125031630Y-119647751D01*
X125184771Y-119536488D01*
X125311433Y-119395816D01*
X125406079Y-119231884D01*
X125464574Y-119051856D01*
X125484360Y-118863600D01*
X125464574Y-118675344D01*
X125406079Y-118495316D01*
X125311433Y-118331384D01*
X125184771Y-118190712D01*
X125171697Y-118181213D01*
X125031634Y-118079451D01*
X125031629Y-118079448D01*
X124858707Y-118002457D01*
X124858702Y-118002455D01*
X124712901Y-117971465D01*
X124673546Y-117963100D01*
X124484254Y-117963100D01*
X124451797Y-117969998D01*
X124299097Y-118002455D01*
X124299092Y-118002457D01*
X124126170Y-118079448D01*
X124126165Y-118079451D01*
X123973029Y-118190711D01*
X123846366Y-118331385D01*
X123751721Y-118495315D01*
X123751718Y-118495322D01*
X123693227Y-118675340D01*
X123693226Y-118675344D01*
X123673440Y-118863600D01*
X122681326Y-118863600D01*
X122663274Y-118691844D01*
X122604779Y-118511816D01*
X122510133Y-118347884D01*
X122383471Y-118207212D01*
X122360761Y-118190712D01*
X122230334Y-118095951D01*
X122230329Y-118095948D01*
X122057407Y-118018957D01*
X122057402Y-118018955D01*
X121911601Y-117987965D01*
X121872246Y-117979600D01*
X121682954Y-117979600D01*
X121650497Y-117986498D01*
X121497797Y-118018955D01*
X121497792Y-118018957D01*
X121324870Y-118095948D01*
X121324865Y-118095951D01*
X121166472Y-118211031D01*
X121165039Y-118209058D01*
X121111957Y-118234509D01*
X121042625Y-118225859D01*
X120999873Y-118195096D01*
X120987372Y-118181213D01*
X120987364Y-118181206D01*
X120834234Y-118069951D01*
X120834229Y-118069948D01*
X120661307Y-117992957D01*
X120661302Y-117992955D01*
X120515501Y-117961965D01*
X120476146Y-117953600D01*
X120286854Y-117953600D01*
X120254397Y-117960498D01*
X120101697Y-117992955D01*
X120101692Y-117992957D01*
X119928770Y-118069948D01*
X119928765Y-118069951D01*
X119775629Y-118181211D01*
X119648966Y-118321885D01*
X119554321Y-118485815D01*
X119554318Y-118485822D01*
X119496512Y-118663733D01*
X119495826Y-118665844D01*
X119476040Y-118854100D01*
X114723236Y-118854100D01*
X114708274Y-118711744D01*
X114649779Y-118531716D01*
X114555133Y-118367784D01*
X114428471Y-118227112D01*
X114428470Y-118227111D01*
X114275334Y-118115851D01*
X114275329Y-118115848D01*
X114102407Y-118038857D01*
X114102402Y-118038855D01*
X113947398Y-118005909D01*
X113917246Y-117999500D01*
X113727954Y-117999500D01*
X113697802Y-118005909D01*
X113542797Y-118038855D01*
X113542792Y-118038857D01*
X113369870Y-118115848D01*
X113369865Y-118115851D01*
X113216729Y-118227111D01*
X113090066Y-118367785D01*
X112995421Y-118531715D01*
X112995418Y-118531722D01*
X112948754Y-118675340D01*
X112936926Y-118711744D01*
X112917140Y-118900000D01*
X100000000Y-118900000D01*
X100000000Y-117647700D01*
X102758340Y-117647700D01*
X102778126Y-117835956D01*
X102778127Y-117835959D01*
X102836618Y-118015977D01*
X102836621Y-118015984D01*
X102931267Y-118179916D01*
X103057929Y-118320588D01*
X103211065Y-118431848D01*
X103211070Y-118431851D01*
X103383992Y-118508842D01*
X103383997Y-118508844D01*
X103569154Y-118548200D01*
X103569155Y-118548200D01*
X103758444Y-118548200D01*
X103758446Y-118548200D01*
X103943603Y-118508844D01*
X104116530Y-118431851D01*
X104269671Y-118320588D01*
X104396333Y-118179916D01*
X104490979Y-118015984D01*
X104549474Y-117835956D01*
X104569260Y-117647700D01*
X104549474Y-117459444D01*
X104490979Y-117279416D01*
X104396333Y-117115484D01*
X104269671Y-116974812D01*
X104231617Y-116947164D01*
X104116534Y-116863551D01*
X104116529Y-116863548D01*
X103943607Y-116786557D01*
X103943602Y-116786555D01*
X103797801Y-116755565D01*
X103758446Y-116747200D01*
X103569154Y-116747200D01*
X103536697Y-116754098D01*
X103383997Y-116786555D01*
X103383992Y-116786557D01*
X103211070Y-116863548D01*
X103211065Y-116863551D01*
X103057929Y-116974811D01*
X102931266Y-117115485D01*
X102836621Y-117279415D01*
X102836618Y-117279422D01*
X102778127Y-117459440D01*
X102778126Y-117459444D01*
X102758340Y-117647700D01*
X100000000Y-117647700D01*
X100000000Y-116742800D01*
X117706940Y-116742800D01*
X117726726Y-116931056D01*
X117726727Y-116931059D01*
X117785218Y-117111077D01*
X117785221Y-117111084D01*
X117879867Y-117275016D01*
X117967385Y-117372214D01*
X118006529Y-117415688D01*
X118159665Y-117526948D01*
X118159670Y-117526951D01*
X118332592Y-117603942D01*
X118332597Y-117603944D01*
X118517754Y-117643300D01*
X118517755Y-117643300D01*
X118707044Y-117643300D01*
X118707046Y-117643300D01*
X118892203Y-117603944D01*
X119065130Y-117526951D01*
X119218271Y-117415688D01*
X119344933Y-117275016D01*
X119439579Y-117111084D01*
X119498074Y-116931056D01*
X119517860Y-116742800D01*
X119498074Y-116554544D01*
X119439579Y-116374516D01*
X119344933Y-116210584D01*
X119218271Y-116069912D01*
X119198915Y-116055849D01*
X119065134Y-115958651D01*
X119065129Y-115958648D01*
X118892207Y-115881657D01*
X118892202Y-115881655D01*
X118746401Y-115850665D01*
X118707046Y-115842300D01*
X118517754Y-115842300D01*
X118485297Y-115849198D01*
X118332597Y-115881655D01*
X118332592Y-115881657D01*
X118159670Y-115958648D01*
X118159665Y-115958651D01*
X118006529Y-116069911D01*
X117879866Y-116210585D01*
X117785221Y-116374515D01*
X117785218Y-116374522D01*
X117726727Y-116554540D01*
X117726726Y-116554544D01*
X117706940Y-116742800D01*
X100000000Y-116742800D01*
X100000000Y-113908300D01*
X102760740Y-113908300D01*
X102780526Y-114096556D01*
X102780527Y-114096559D01*
X102839018Y-114276577D01*
X102839021Y-114276584D01*
X102933665Y-114440514D01*
X102933670Y-114440521D01*
X102962627Y-114472680D01*
X102992857Y-114535672D01*
X102984233Y-114605007D01*
X102977866Y-114617652D01*
X102939320Y-114684416D01*
X102882697Y-114858685D01*
X102880826Y-114864444D01*
X102861040Y-115052700D01*
X102880826Y-115240956D01*
X102880827Y-115240959D01*
X102939318Y-115420977D01*
X102939321Y-115420984D01*
X103033967Y-115584916D01*
X103141755Y-115704626D01*
X103160629Y-115725588D01*
X103313765Y-115836848D01*
X103313770Y-115836851D01*
X103486692Y-115913842D01*
X103486697Y-115913844D01*
X103671854Y-115953200D01*
X103671855Y-115953200D01*
X103861144Y-115953200D01*
X103861146Y-115953200D01*
X104046303Y-115913844D01*
X104219230Y-115836851D01*
X104372371Y-115725588D01*
X104499033Y-115584916D01*
X104593679Y-115420984D01*
X104616256Y-115351500D01*
X106076340Y-115351500D01*
X106096126Y-115539756D01*
X106096127Y-115539759D01*
X106154618Y-115719777D01*
X106154621Y-115719784D01*
X106249267Y-115883716D01*
X106316739Y-115958651D01*
X106375929Y-116024388D01*
X106529065Y-116135648D01*
X106529070Y-116135651D01*
X106701992Y-116212642D01*
X106701997Y-116212644D01*
X106887154Y-116252000D01*
X106887155Y-116252000D01*
X107076444Y-116252000D01*
X107076446Y-116252000D01*
X107261603Y-116212644D01*
X107434530Y-116135651D01*
X107587671Y-116024388D01*
X107714333Y-115883716D01*
X107808979Y-115719784D01*
X107867474Y-115539756D01*
X107883119Y-115390900D01*
X124769340Y-115390900D01*
X124789126Y-115579156D01*
X124789127Y-115579159D01*
X124847618Y-115759177D01*
X124847621Y-115759184D01*
X124942267Y-115923116D01*
X125068929Y-116063788D01*
X125222065Y-116175048D01*
X125222070Y-116175051D01*
X125394992Y-116252042D01*
X125394997Y-116252044D01*
X125580154Y-116291400D01*
X125580155Y-116291400D01*
X125769444Y-116291400D01*
X125769446Y-116291400D01*
X125954603Y-116252044D01*
X126127530Y-116175051D01*
X126280671Y-116063788D01*
X126407333Y-115923116D01*
X126501979Y-115759184D01*
X126560474Y-115579156D01*
X126580260Y-115390900D01*
X126560474Y-115202644D01*
X126505912Y-115034723D01*
X126501981Y-115022622D01*
X126501980Y-115022621D01*
X126501979Y-115022616D01*
X126407333Y-114858684D01*
X126280671Y-114718012D01*
X126280670Y-114718011D01*
X126127534Y-114606751D01*
X126127529Y-114606748D01*
X125954607Y-114529757D01*
X125954602Y-114529755D01*
X125808801Y-114498765D01*
X125769446Y-114490400D01*
X125580154Y-114490400D01*
X125547697Y-114497298D01*
X125394997Y-114529755D01*
X125394992Y-114529757D01*
X125222070Y-114606748D01*
X125222065Y-114606751D01*
X125068929Y-114718011D01*
X124942266Y-114858685D01*
X124847621Y-115022615D01*
X124847618Y-115022622D01*
X124789127Y-115202640D01*
X124789126Y-115202644D01*
X124769340Y-115390900D01*
X107883119Y-115390900D01*
X107887260Y-115351500D01*
X107867474Y-115163244D01*
X107808979Y-114983216D01*
X107714333Y-114819284D01*
X107587671Y-114678612D01*
X107539012Y-114643259D01*
X107434534Y-114567351D01*
X107434529Y-114567348D01*
X107261607Y-114490357D01*
X107261602Y-114490355D01*
X107115801Y-114459365D01*
X107076446Y-114451000D01*
X106887154Y-114451000D01*
X106854697Y-114457898D01*
X106701997Y-114490355D01*
X106701992Y-114490357D01*
X106529070Y-114567348D01*
X106529065Y-114567351D01*
X106375929Y-114678611D01*
X106249266Y-114819285D01*
X106154621Y-114983215D01*
X106154618Y-114983222D01*
X106096267Y-115162809D01*
X106096126Y-115163244D01*
X106076340Y-115351500D01*
X104616256Y-115351500D01*
X104652174Y-115240956D01*
X104671960Y-115052700D01*
X104652174Y-114864444D01*
X104593679Y-114684416D01*
X104499033Y-114520484D01*
X104496959Y-114518181D01*
X104470070Y-114488317D01*
X104439840Y-114425325D01*
X104448466Y-114355990D01*
X104454828Y-114343355D01*
X104493379Y-114276584D01*
X104551874Y-114096556D01*
X104554760Y-114069100D01*
X127132940Y-114069100D01*
X127152726Y-114257356D01*
X127152727Y-114257359D01*
X127211218Y-114437377D01*
X127211221Y-114437384D01*
X127305867Y-114601316D01*
X127402952Y-114709139D01*
X127432529Y-114741988D01*
X127585665Y-114853248D01*
X127585670Y-114853251D01*
X127758592Y-114930242D01*
X127758597Y-114930244D01*
X127943754Y-114969600D01*
X127943755Y-114969600D01*
X128133044Y-114969600D01*
X128133046Y-114969600D01*
X128318203Y-114930244D01*
X128491130Y-114853251D01*
X128644271Y-114741988D01*
X128770933Y-114601316D01*
X128865579Y-114437384D01*
X128924074Y-114257356D01*
X128943860Y-114069100D01*
X128924074Y-113880844D01*
X128865579Y-113700816D01*
X128770933Y-113536884D01*
X128644271Y-113396212D01*
X128644270Y-113396211D01*
X128491134Y-113284951D01*
X128491129Y-113284948D01*
X128318207Y-113207957D01*
X128318202Y-113207955D01*
X128172401Y-113176965D01*
X128133046Y-113168600D01*
X127943754Y-113168600D01*
X127911297Y-113175498D01*
X127758597Y-113207955D01*
X127758592Y-113207957D01*
X127585670Y-113284948D01*
X127585665Y-113284951D01*
X127432529Y-113396211D01*
X127305866Y-113536885D01*
X127211221Y-113700815D01*
X127211218Y-113700822D01*
X127152727Y-113880840D01*
X127152726Y-113880844D01*
X127132940Y-114069100D01*
X104554760Y-114069100D01*
X104571660Y-113908300D01*
X104551874Y-113720044D01*
X104493379Y-113540016D01*
X104398733Y-113376084D01*
X104272071Y-113235412D01*
X104272070Y-113235411D01*
X104118934Y-113124151D01*
X104118929Y-113124148D01*
X103946007Y-113047157D01*
X103946002Y-113047155D01*
X103800201Y-113016165D01*
X103760846Y-113007800D01*
X103571554Y-113007800D01*
X103539097Y-113014698D01*
X103386397Y-113047155D01*
X103386392Y-113047157D01*
X103213470Y-113124148D01*
X103213465Y-113124151D01*
X103060329Y-113235411D01*
X102933666Y-113376085D01*
X102839021Y-113540015D01*
X102839018Y-113540022D01*
X102780527Y-113720040D01*
X102780526Y-113720044D01*
X102760740Y-113908300D01*
X100000000Y-113908300D01*
X100000000Y-111850000D01*
X118931240Y-111850000D01*
X118951026Y-112038256D01*
X118951027Y-112038259D01*
X119009518Y-112218277D01*
X119009521Y-112218284D01*
X119104167Y-112382216D01*
X119230829Y-112522888D01*
X119383965Y-112634148D01*
X119383970Y-112634151D01*
X119556892Y-112711142D01*
X119556897Y-112711144D01*
X119742054Y-112750500D01*
X119742055Y-112750500D01*
X119931344Y-112750500D01*
X119931346Y-112750500D01*
X120116503Y-112711144D01*
X120289430Y-112634151D01*
X120442571Y-112522888D01*
X120569233Y-112382216D01*
X120663879Y-112218284D01*
X120722374Y-112038256D01*
X120742160Y-111850000D01*
X120722374Y-111661744D01*
X120663879Y-111481716D01*
X120657115Y-111470000D01*
X125258740Y-111470000D01*
X125278526Y-111658256D01*
X125278527Y-111658259D01*
X125337018Y-111838277D01*
X125337021Y-111838284D01*
X125431667Y-112002216D01*
X125535487Y-112117519D01*
X125558329Y-112142888D01*
X125711465Y-112254148D01*
X125711470Y-112254151D01*
X125884392Y-112331142D01*
X125884397Y-112331144D01*
X126069554Y-112370500D01*
X126069555Y-112370500D01*
X126258844Y-112370500D01*
X126258846Y-112370500D01*
X126444003Y-112331144D01*
X126616930Y-112254151D01*
X126770071Y-112142888D01*
X126896733Y-112002216D01*
X126991379Y-111838284D01*
X127049874Y-111658256D01*
X127069660Y-111470000D01*
X127049874Y-111281744D01*
X126991379Y-111101716D01*
X126896733Y-110937784D01*
X126770071Y-110797112D01*
X126770070Y-110797111D01*
X126616934Y-110685851D01*
X126616929Y-110685848D01*
X126444007Y-110608857D01*
X126444002Y-110608855D01*
X126298201Y-110577865D01*
X126258846Y-110569500D01*
X126069554Y-110569500D01*
X126037097Y-110576398D01*
X125884397Y-110608855D01*
X125884392Y-110608857D01*
X125711470Y-110685848D01*
X125711465Y-110685851D01*
X125558329Y-110797111D01*
X125431666Y-110937785D01*
X125337021Y-111101715D01*
X125337018Y-111101722D01*
X125281775Y-111271744D01*
X125278526Y-111281744D01*
X125258740Y-111470000D01*
X120657115Y-111470000D01*
X120569233Y-111317784D01*
X120442571Y-111177112D01*
X120442570Y-111177111D01*
X120289434Y-111065851D01*
X120289429Y-111065848D01*
X120116507Y-110988857D01*
X120116502Y-110988855D01*
X119970701Y-110957865D01*
X119931346Y-110949500D01*
X119742054Y-110949500D01*
X119709597Y-110956398D01*
X119556897Y-110988855D01*
X119556892Y-110988857D01*
X119383970Y-111065848D01*
X119383965Y-111065851D01*
X119230829Y-111177111D01*
X119104166Y-111317785D01*
X119009521Y-111481715D01*
X119009518Y-111481722D01*
X118952159Y-111658256D01*
X118951026Y-111661744D01*
X118931240Y-111850000D01*
X100000000Y-111850000D01*
X100000000Y-109708400D01*
X122936840Y-109708400D01*
X122956626Y-109896656D01*
X122956627Y-109896659D01*
X123015118Y-110076677D01*
X123015121Y-110076684D01*
X123109767Y-110240616D01*
X123236429Y-110381288D01*
X123389565Y-110492548D01*
X123389570Y-110492551D01*
X123562492Y-110569542D01*
X123562497Y-110569544D01*
X123747654Y-110608900D01*
X123747655Y-110608900D01*
X123936944Y-110608900D01*
X123936946Y-110608900D01*
X124122103Y-110569544D01*
X124295030Y-110492551D01*
X124448171Y-110381288D01*
X124574833Y-110240616D01*
X124669479Y-110076684D01*
X124727974Y-109896656D01*
X124747760Y-109708400D01*
X124727974Y-109520144D01*
X124669479Y-109340116D01*
X124574833Y-109176184D01*
X124448171Y-109035512D01*
X124448170Y-109035511D01*
X124295034Y-108924251D01*
X124295029Y-108924248D01*
X124122107Y-108847257D01*
X124122102Y-108847255D01*
X123976301Y-108816265D01*
X123936946Y-108807900D01*
X123747654Y-108807900D01*
X123715197Y-108814798D01*
X123562497Y-108847255D01*
X123562492Y-108847257D01*
X123389570Y-108924248D01*
X123389565Y-108924251D01*
X123236429Y-109035511D01*
X123109766Y-109176185D01*
X123015121Y-109340115D01*
X123015118Y-109340122D01*
X122956627Y-109520140D01*
X122956626Y-109520144D01*
X122936840Y-109708400D01*
X100000000Y-109708400D01*
X100000000Y-107817000D01*
X101656540Y-107817000D01*
X101676326Y-108005256D01*
X101676327Y-108005259D01*
X101734818Y-108185277D01*
X101734821Y-108185284D01*
X101829467Y-108349216D01*
X101956129Y-108489888D01*
X102109265Y-108601148D01*
X102109270Y-108601151D01*
X102282192Y-108678142D01*
X102282197Y-108678144D01*
X102467354Y-108717500D01*
X102467355Y-108717500D01*
X102656644Y-108717500D01*
X102656646Y-108717500D01*
X102841803Y-108678144D01*
X103014730Y-108601151D01*
X103167871Y-108489888D01*
X103294533Y-108349216D01*
X103389179Y-108185284D01*
X103425955Y-108072100D01*
X128552740Y-108072100D01*
X128572526Y-108260356D01*
X128572527Y-108260359D01*
X128631018Y-108440377D01*
X128631021Y-108440384D01*
X128725667Y-108604316D01*
X128827579Y-108717500D01*
X128852329Y-108744988D01*
X129005465Y-108856248D01*
X129005470Y-108856251D01*
X129178392Y-108933242D01*
X129178397Y-108933244D01*
X129363554Y-108972600D01*
X129363555Y-108972600D01*
X129552844Y-108972600D01*
X129552846Y-108972600D01*
X129738003Y-108933244D01*
X129910930Y-108856251D01*
X130064071Y-108744988D01*
X130190733Y-108604316D01*
X130285379Y-108440384D01*
X130343874Y-108260356D01*
X130363660Y-108072100D01*
X130343874Y-107883844D01*
X130285379Y-107703816D01*
X130190733Y-107539884D01*
X130064071Y-107399212D01*
X130060267Y-107396448D01*
X129910934Y-107287951D01*
X129910929Y-107287948D01*
X129738007Y-107210957D01*
X129738002Y-107210955D01*
X129592201Y-107179965D01*
X129552846Y-107171600D01*
X129363554Y-107171600D01*
X129331097Y-107178498D01*
X129178397Y-107210955D01*
X129178392Y-107210957D01*
X129005470Y-107287948D01*
X129005465Y-107287951D01*
X128852329Y-107399211D01*
X128725666Y-107539885D01*
X128631021Y-107703815D01*
X128631018Y-107703822D01*
X128572527Y-107883840D01*
X128572526Y-107883844D01*
X128552740Y-108072100D01*
X103425955Y-108072100D01*
X103447674Y-108005256D01*
X103467460Y-107817000D01*
X103447674Y-107628744D01*
X103389179Y-107448716D01*
X103294533Y-107284784D01*
X103167871Y-107144112D01*
X103142254Y-107125500D01*
X103014734Y-107032851D01*
X103014729Y-107032848D01*
X102841807Y-106955857D01*
X102841802Y-106955855D01*
X102696001Y-106924865D01*
X102656646Y-106916500D01*
X102467354Y-106916500D01*
X102434897Y-106923398D01*
X102282197Y-106955855D01*
X102282192Y-106955857D01*
X102109270Y-107032848D01*
X102109265Y-107032851D01*
X101956129Y-107144111D01*
X101829466Y-107284785D01*
X101734821Y-107448715D01*
X101734818Y-107448722D01*
X101705198Y-107539885D01*
X101676326Y-107628744D01*
X101656540Y-107817000D01*
X100000000Y-107817000D01*
X100000000Y-106612300D01*
X104504140Y-106612300D01*
X104523926Y-106800556D01*
X104523927Y-106800559D01*
X104582418Y-106980577D01*
X104582421Y-106980584D01*
X104677067Y-107144516D01*
X104736890Y-107210956D01*
X104803729Y-107285188D01*
X104956865Y-107396448D01*
X104956870Y-107396451D01*
X105129792Y-107473442D01*
X105129797Y-107473444D01*
X105314954Y-107512800D01*
X105314955Y-107512800D01*
X105504244Y-107512800D01*
X105504246Y-107512800D01*
X105689403Y-107473444D01*
X105862330Y-107396451D01*
X106015471Y-107285188D01*
X106142133Y-107144516D01*
X106236779Y-106980584D01*
X106295274Y-106800556D01*
X106308694Y-106672870D01*
X114874500Y-106672870D01*
X114874501Y-106672876D01*
X114880908Y-106732483D01*
X114931202Y-106867328D01*
X114931206Y-106867335D01*
X115017452Y-106982544D01*
X115017455Y-106982547D01*
X115132664Y-107068793D01*
X115132671Y-107068797D01*
X115267517Y-107119091D01*
X115267516Y-107119091D01*
X115274444Y-107119835D01*
X115327127Y-107125500D01*
X116672872Y-107125499D01*
X116732483Y-107119091D01*
X116867331Y-107068796D01*
X116982546Y-106982546D01*
X117068796Y-106867331D01*
X117119091Y-106732483D01*
X117125500Y-106672873D01*
X117125499Y-106572305D01*
X117145183Y-106505270D01*
X117161818Y-106484627D01*
X117625000Y-106021446D01*
X117625000Y-106049370D01*
X117650556Y-106144745D01*
X117699925Y-106230255D01*
X117769745Y-106300075D01*
X117855255Y-106349444D01*
X117950630Y-106375000D01*
X117978553Y-106375000D01*
X117401151Y-106952399D01*
X117496394Y-107011372D01*
X117496396Y-107011373D01*
X117690802Y-107086686D01*
X117690812Y-107086689D01*
X117895756Y-107125000D01*
X118104244Y-107125000D01*
X118309187Y-107086689D01*
X118309197Y-107086686D01*
X118503603Y-107011373D01*
X118503607Y-107011371D01*
X118598846Y-106952400D01*
X118598846Y-106952399D01*
X118021448Y-106375000D01*
X118049370Y-106375000D01*
X118144745Y-106349444D01*
X118230255Y-106300075D01*
X118300075Y-106230255D01*
X118349444Y-106144745D01*
X118375000Y-106049370D01*
X118375000Y-106021448D01*
X118955312Y-106601760D01*
X118972604Y-106600561D01*
X119040845Y-106615560D01*
X119080137Y-106649537D01*
X119164683Y-106761495D01*
X119297290Y-106882380D01*
X119318829Y-106902016D01*
X119496172Y-107011823D01*
X119690673Y-107087173D01*
X119895707Y-107125500D01*
X119895710Y-107125500D01*
X120104290Y-107125500D01*
X120104293Y-107125500D01*
X120309327Y-107087173D01*
X120503828Y-107011823D01*
X120681171Y-106902016D01*
X120835318Y-106761493D01*
X120961019Y-106595038D01*
X121053994Y-106408319D01*
X121111076Y-106207696D01*
X121130322Y-106000000D01*
X121111076Y-105792304D01*
X121053994Y-105591681D01*
X120961019Y-105404962D01*
X120835318Y-105238507D01*
X120681171Y-105097984D01*
X120503828Y-104988177D01*
X120503827Y-104988176D01*
X120356758Y-104931202D01*
X120309327Y-104912827D01*
X120104293Y-104874500D01*
X119895707Y-104874500D01*
X119690673Y-104912827D01*
X119690670Y-104912827D01*
X119690670Y-104912828D01*
X119496172Y-104988176D01*
X119496171Y-104988177D01*
X119318827Y-105097985D01*
X119164683Y-105238505D01*
X119080137Y-105350461D01*
X119024027Y-105392097D01*
X118972602Y-105399437D01*
X118955313Y-105398237D01*
X118375000Y-105978551D01*
X118375000Y-105950630D01*
X118349444Y-105855255D01*
X118300075Y-105769745D01*
X118230255Y-105699925D01*
X118144745Y-105650556D01*
X118049370Y-105625000D01*
X118021448Y-105625000D01*
X118598847Y-105047599D01*
X118503602Y-104988626D01*
X118503601Y-104988625D01*
X118309197Y-104913313D01*
X118309187Y-104913310D01*
X118104244Y-104875000D01*
X117895756Y-104875000D01*
X117690812Y-104913310D01*
X117690811Y-104913310D01*
X117496398Y-104988625D01*
X117496392Y-104988629D01*
X117401152Y-105047598D01*
X117401151Y-105047599D01*
X117978553Y-105625000D01*
X117950630Y-105625000D01*
X117855255Y-105650556D01*
X117769745Y-105699925D01*
X117699925Y-105769745D01*
X117650556Y-105855255D01*
X117625000Y-105950630D01*
X117625000Y-105978553D01*
X117161818Y-105515371D01*
X117128333Y-105454048D01*
X117125499Y-105427690D01*
X117125499Y-105327129D01*
X117125498Y-105327123D01*
X117119091Y-105267516D01*
X117068797Y-105132671D01*
X117068793Y-105132664D01*
X116982547Y-105017455D01*
X116982544Y-105017452D01*
X116867335Y-104931206D01*
X116867328Y-104931202D01*
X116732482Y-104880908D01*
X116732483Y-104880908D01*
X116672883Y-104874501D01*
X116672881Y-104874500D01*
X116672873Y-104874500D01*
X116672864Y-104874500D01*
X115584029Y-104874500D01*
X115499950Y-104885060D01*
X115366984Y-104940136D01*
X115300065Y-104992121D01*
X115300058Y-104992127D01*
X114992117Y-105300067D01*
X114992108Y-105300077D01*
X114940136Y-105366982D01*
X114885060Y-105499950D01*
X114874500Y-105584019D01*
X114874500Y-106672870D01*
X106308694Y-106672870D01*
X106315060Y-106612300D01*
X106295274Y-106424044D01*
X106236779Y-106244016D01*
X106142133Y-106080084D01*
X106015471Y-105939412D01*
X106015470Y-105939411D01*
X105862334Y-105828151D01*
X105862329Y-105828148D01*
X105689407Y-105751157D01*
X105689402Y-105751155D01*
X105543601Y-105720165D01*
X105504246Y-105711800D01*
X105314954Y-105711800D01*
X105282497Y-105718698D01*
X105129797Y-105751155D01*
X105129792Y-105751157D01*
X104956870Y-105828148D01*
X104956865Y-105828151D01*
X104803729Y-105939411D01*
X104677066Y-106080085D01*
X104582421Y-106244015D01*
X104582418Y-106244022D01*
X104539861Y-106375000D01*
X104523926Y-106424044D01*
X104504140Y-106612300D01*
X100000000Y-106612300D01*
X100000000Y-104591600D01*
X107827940Y-104591600D01*
X107847726Y-104779856D01*
X107847727Y-104779859D01*
X107906218Y-104959877D01*
X107906221Y-104959884D01*
X108000867Y-105123816D01*
X108104134Y-105238505D01*
X108127529Y-105264488D01*
X108280665Y-105375748D01*
X108280670Y-105375751D01*
X108453592Y-105452742D01*
X108453597Y-105452744D01*
X108638754Y-105492100D01*
X108638755Y-105492100D01*
X108828044Y-105492100D01*
X108828046Y-105492100D01*
X109013203Y-105452744D01*
X109186130Y-105375751D01*
X109339271Y-105264488D01*
X109465933Y-105123816D01*
X109560579Y-104959884D01*
X109619074Y-104779856D01*
X109638860Y-104591600D01*
X109619074Y-104403344D01*
X109560579Y-104223316D01*
X109465933Y-104059384D01*
X109339271Y-103918712D01*
X109339270Y-103918711D01*
X109186134Y-103807451D01*
X109186129Y-103807448D01*
X109013207Y-103730457D01*
X109013202Y-103730455D01*
X108867401Y-103699465D01*
X108828046Y-103691100D01*
X108638754Y-103691100D01*
X108606297Y-103697998D01*
X108453597Y-103730455D01*
X108453592Y-103730457D01*
X108280670Y-103807448D01*
X108280665Y-103807451D01*
X108127529Y-103918711D01*
X108000866Y-104059385D01*
X107906221Y-104223315D01*
X107906218Y-104223322D01*
X107847727Y-104403340D01*
X107847726Y-104403344D01*
X107827940Y-104591600D01*
X100000000Y-104591600D01*
X100000000Y-102400000D01*
X105347417Y-102400000D01*
X105367919Y-102562290D01*
X105367919Y-102562293D01*
X105428136Y-102714382D01*
X105428141Y-102714391D01*
X105524283Y-102846720D01*
X105524284Y-102846721D01*
X105524286Y-102846722D01*
X105524287Y-102846724D01*
X105650329Y-102950994D01*
X105798341Y-103020643D01*
X105959024Y-103051295D01*
X106122282Y-103041024D01*
X106277856Y-102990475D01*
X106415972Y-102902824D01*
X106527951Y-102783579D01*
X106606756Y-102640232D01*
X106647437Y-102481790D01*
X106650000Y-102400000D01*
X129447417Y-102400000D01*
X129467919Y-102562290D01*
X129467919Y-102562293D01*
X129528136Y-102714382D01*
X129528141Y-102714391D01*
X129624283Y-102846720D01*
X129624284Y-102846721D01*
X129624286Y-102846722D01*
X129624287Y-102846724D01*
X129750329Y-102950994D01*
X129898341Y-103020643D01*
X130059024Y-103051295D01*
X130222282Y-103041024D01*
X130377856Y-102990475D01*
X130515972Y-102902824D01*
X130627951Y-102783579D01*
X130706756Y-102640232D01*
X130747437Y-102481790D01*
X130750000Y-102400000D01*
X130747437Y-102318210D01*
X130706756Y-102159768D01*
X130706755Y-102159767D01*
X130706755Y-102159765D01*
X130627954Y-102016426D01*
X130627951Y-102016421D01*
X130515973Y-101897177D01*
X130515972Y-101897176D01*
X130440068Y-101849006D01*
X130377855Y-101809524D01*
X130222282Y-101758976D01*
X130059027Y-101748705D01*
X130059026Y-101748705D01*
X130059024Y-101748705D01*
X129981801Y-101763435D01*
X129898343Y-101779356D01*
X129898341Y-101779357D01*
X129750329Y-101849006D01*
X129750327Y-101849007D01*
X129750326Y-101849008D01*
X129624284Y-101953278D01*
X129624283Y-101953279D01*
X129528141Y-102085608D01*
X129528136Y-102085617D01*
X129467919Y-102237706D01*
X129467919Y-102237709D01*
X129447417Y-102399999D01*
X129447417Y-102400000D01*
X106650000Y-102400000D01*
X106647437Y-102318210D01*
X106606756Y-102159768D01*
X106606755Y-102159767D01*
X106606755Y-102159765D01*
X106527954Y-102016426D01*
X106527951Y-102016421D01*
X106415973Y-101897177D01*
X106415972Y-101897176D01*
X106340068Y-101849006D01*
X106277855Y-101809524D01*
X106122282Y-101758976D01*
X105959027Y-101748705D01*
X105959026Y-101748705D01*
X105959024Y-101748705D01*
X105881801Y-101763435D01*
X105798343Y-101779356D01*
X105798341Y-101779357D01*
X105650329Y-101849006D01*
X105650327Y-101849007D01*
X105650326Y-101849008D01*
X105524284Y-101953278D01*
X105524283Y-101953279D01*
X105428141Y-102085608D01*
X105428136Y-102085617D01*
X105367919Y-102237706D01*
X105367919Y-102237709D01*
X105347417Y-102399999D01*
X105347417Y-102400000D01*
X100000000Y-102400000D01*
X100000000Y-101000000D01*
X88124000Y-101000000D01*
X88056961Y-100980315D01*
X88011206Y-100927511D01*
X88000000Y-100876000D01*
X88000000Y-98124000D01*
X88019685Y-98056961D01*
X88072489Y-98011206D01*
X88124000Y-98000000D01*
X119342240Y-98000000D01*
X119409279Y-98019685D01*
G37*
G04 #@! TD.AperFunction*
M02*
