%TF.GenerationSoftware,KiCad,Pcbnew,(7.0.0)*%
%TF.CreationDate,2024-02-07T16:47:58+08:00*%
%TF.ProjectId,revopod1,7265766f-706f-4643-912e-6b696361645f,rev?*%
%TF.SameCoordinates,Original*%
%TF.FileFunction,Drillmap*%
%TF.FilePolarity,Positive*%
%FSLAX45Y45*%
G04 Gerber Fmt 4.5, Leading zero omitted, Abs format (unit mm)*
G04 Created by KiCad (PCBNEW (7.0.0)) date 2024-02-07 16:47:58*
%MOMM*%
%LPD*%
G01*
G04 APERTURE LIST*
%ADD10C,0.100000*%
%ADD11C,0.200000*%
%ADD12C,0.030000*%
%ADD13C,0.040000*%
%ADD14C,0.075000*%
G04 APERTURE END LIST*
D10*
X8800000Y-10100000D02*
X10000000Y-10100000D01*
X8800000Y-10000000D02*
X8800000Y-10100000D01*
X10000000Y-10100000D02*
X10000000Y-13500000D01*
X10665000Y-13360000D02*
G75*
G03*
X10665000Y-13360000I-65000J0D01*
G01*
X14800000Y-10000000D02*
X14800000Y-10100000D01*
X13600000Y-10100000D02*
X14800000Y-10100000D01*
X14800000Y-10000000D02*
X14800000Y-9800000D01*
X13075000Y-10240000D02*
G75*
G03*
X13075000Y-10240000I-65000J0D01*
G01*
X8800000Y-9800000D02*
X8800000Y-10000000D01*
X10665000Y-10240000D02*
G75*
G03*
X10665000Y-10240000I-65000J0D01*
G01*
X13600000Y-10100000D02*
X13600000Y-13500000D01*
X13600000Y-13500000D02*
X10000000Y-13500000D01*
X14800000Y-9800000D02*
X8800000Y-9800000D01*
D11*
D12*
X13055000Y-11605000D02*
X13085000Y-11635000D01*
X13085000Y-11605000D02*
X13055000Y-11635000D01*
X13055000Y-11695000D02*
X13085000Y-11725000D01*
X13085000Y-11695000D02*
X13055000Y-11725000D01*
X13055000Y-11785000D02*
X13085000Y-11815000D01*
X13085000Y-11785000D02*
X13055000Y-11815000D01*
X13155000Y-11605000D02*
X13185000Y-11635000D01*
X13185000Y-11605000D02*
X13155000Y-11635000D01*
X13155000Y-11695000D02*
X13185000Y-11725000D01*
X13185000Y-11695000D02*
X13155000Y-11725000D01*
X13155000Y-11785000D02*
X13185000Y-11815000D01*
X13185000Y-11785000D02*
X13155000Y-11815000D01*
D13*
X10307800Y-11483600D02*
G75*
G03*
X10307800Y-11483600I-20000J0D01*
G01*
X10385580Y-11731460D02*
G75*
G03*
X10385580Y-11731460I-20000J0D01*
G01*
X10550530Y-10672550D02*
G75*
G03*
X10550530Y-10672550I-20000J0D01*
G01*
X10670000Y-10570000D02*
G75*
G03*
X10670000Y-10570000I-20000J0D01*
G01*
X10714230Y-11090560D02*
G75*
G03*
X10714230Y-11090560I-20000J0D01*
G01*
X10808460Y-11806540D02*
G75*
G03*
X10808460Y-11806540I-20000J0D01*
G01*
X10954120Y-11590600D02*
G75*
G03*
X10954120Y-11590600I-20000J0D01*
G01*
X11207030Y-12832280D02*
G75*
G03*
X11207030Y-12832280I-20000J0D01*
G01*
X11323010Y-11660000D02*
G75*
G03*
X11323010Y-11660000I-20000J0D01*
G01*
X11382200Y-9889300D02*
G75*
G03*
X11382200Y-9889300I-20000J0D01*
G01*
X11387840Y-12284470D02*
G75*
G03*
X11387840Y-12284470I-20000J0D01*
G01*
X11586150Y-12990000D02*
G75*
G03*
X11586150Y-12990000I-20000J0D01*
G01*
X11666150Y-11879250D02*
G75*
G03*
X11666150Y-11879250I-20000J0D01*
G01*
X11672730Y-11159750D02*
G75*
G03*
X11672730Y-11159750I-20000J0D01*
G01*
X11706480Y-11600600D02*
G75*
G03*
X11706480Y-11600600I-20000J0D01*
G01*
X11881020Y-11724880D02*
G75*
G03*
X11881020Y-11724880I-20000J0D01*
G01*
X11948970Y-11254140D02*
G75*
G03*
X11948970Y-11254140I-20000J0D01*
G01*
X11988600Y-11527070D02*
G75*
G03*
X11988600Y-11527070I-20000J0D01*
G01*
X12000000Y-11080000D02*
G75*
G03*
X12000000Y-11080000I-20000J0D01*
G01*
X12016897Y-10977444D02*
G75*
G03*
X12016897Y-10977444I-20000J0D01*
G01*
X12054310Y-11254380D02*
G75*
G03*
X12054310Y-11254380I-20000J0D01*
G01*
X12060640Y-11943000D02*
G75*
G03*
X12060640Y-11943000I-20000J0D01*
G01*
X12129880Y-11604560D02*
G75*
G03*
X12129880Y-11604560I-20000J0D01*
G01*
X12130000Y-12450000D02*
G75*
G03*
X12130000Y-12450000I-20000J0D01*
G01*
X12155170Y-11475630D02*
G75*
G03*
X12155170Y-11475630I-20000J0D01*
G01*
X12302300Y-12006090D02*
G75*
G03*
X12302300Y-12006090I-20000J0D01*
G01*
X12340000Y-12454450D02*
G75*
G03*
X12340000Y-12454450I-20000J0D01*
G01*
X12352168Y-12226841D02*
G75*
G03*
X12352168Y-12226841I-20000J0D01*
G01*
X12395450Y-12930920D02*
G75*
G03*
X12395450Y-12930920I-20000J0D01*
G01*
X12428660Y-10887930D02*
G75*
G03*
X12428660Y-10887930I-20000J0D01*
G01*
X12446500Y-12086380D02*
G75*
G03*
X12446500Y-12086380I-20000J0D01*
G01*
X12484870Y-11602170D02*
G75*
G03*
X12484870Y-11602170I-20000J0D01*
G01*
X12533700Y-11890000D02*
G75*
G03*
X12533700Y-11890000I-20000J0D01*
G01*
X12618480Y-11745000D02*
G75*
G03*
X12618480Y-11745000I-20000J0D01*
G01*
X12624170Y-11207820D02*
G75*
G03*
X12624170Y-11207820I-20000J0D01*
G01*
X12640940Y-12542130D02*
G75*
G03*
X12640940Y-12542130I-20000J0D01*
G01*
X12744240Y-10759570D02*
G75*
G03*
X12744240Y-10759570I-20000J0D01*
G01*
X12840000Y-12540000D02*
G75*
G03*
X12840000Y-12540000I-20000J0D01*
G01*
X12876820Y-10732380D02*
G75*
G03*
X12876820Y-10732380I-20000J0D01*
G01*
X12989490Y-12262200D02*
G75*
G03*
X12989490Y-12262200I-20000J0D01*
G01*
X12990000Y-11020000D02*
G75*
G03*
X12990000Y-11020000I-20000J0D01*
G01*
X12990000Y-11390000D02*
G75*
G03*
X12990000Y-11390000I-20000J0D01*
G01*
X13080000Y-11330000D02*
G75*
G03*
X13080000Y-11330000I-20000J0D01*
G01*
X13101037Y-12048548D02*
G75*
G03*
X13101037Y-12048548I-20000J0D01*
G01*
X13106460Y-13184850D02*
G75*
G03*
X13106460Y-13184850I-20000J0D01*
G01*
X13127650Y-10437600D02*
G75*
G03*
X13127650Y-10437600I-20000J0D01*
G01*
X13182430Y-12135542D02*
G75*
G03*
X13182430Y-12135542I-20000J0D01*
G01*
X13184300Y-10996780D02*
G75*
G03*
X13184300Y-10996780I-20000J0D01*
G01*
X13184300Y-11340000D02*
G75*
G03*
X13184300Y-11340000I-20000J0D01*
G01*
X13207970Y-12681120D02*
G75*
G03*
X13207970Y-12681120I-20000J0D01*
G01*
X13254880Y-12210000D02*
G75*
G03*
X13254880Y-12210000I-20000J0D01*
G01*
X13255230Y-13207110D02*
G75*
G03*
X13255230Y-13207110I-20000J0D01*
G01*
X13292545Y-12004995D02*
G75*
G03*
X13292545Y-12004995I-20000J0D01*
G01*
X13354140Y-11178320D02*
G75*
G03*
X13354140Y-11178320I-20000J0D01*
G01*
X13400000Y-11880000D02*
G75*
G03*
X13400000Y-11880000I-20000J0D01*
G01*
X13402450Y-11400000D02*
G75*
G03*
X13402450Y-11400000I-20000J0D01*
G01*
X13426290Y-12100840D02*
G75*
G03*
X13426290Y-12100840I-20000J0D01*
G01*
X13455040Y-11970000D02*
G75*
G03*
X13455040Y-11970000I-20000J0D01*
G01*
X13490000Y-11190000D02*
G75*
G03*
X13490000Y-11190000I-20000J0D01*
G01*
X14438970Y-9864030D02*
G75*
G03*
X14438970Y-9864030I-20000J0D01*
G01*
D14*
X11600000Y-10562500D02*
X11600000Y-10637500D01*
X11562500Y-10600000D02*
X11637500Y-10600000D01*
X11800000Y-10562500D02*
X11800000Y-10637500D01*
X11762500Y-10600000D02*
X11837500Y-10600000D01*
X12000000Y-10562500D02*
X12000000Y-10637500D01*
X11962500Y-10600000D02*
X12037500Y-10600000D01*
D11*
X9042619Y-13798476D02*
X9042619Y-13598476D01*
X9042619Y-13598476D02*
X9090238Y-13598476D01*
X9090238Y-13598476D02*
X9118810Y-13608000D01*
X9118810Y-13608000D02*
X9137857Y-13627048D01*
X9137857Y-13627048D02*
X9147381Y-13646095D01*
X9147381Y-13646095D02*
X9156905Y-13684190D01*
X9156905Y-13684190D02*
X9156905Y-13712762D01*
X9156905Y-13712762D02*
X9147381Y-13750857D01*
X9147381Y-13750857D02*
X9137857Y-13769905D01*
X9137857Y-13769905D02*
X9118810Y-13788952D01*
X9118810Y-13788952D02*
X9090238Y-13798476D01*
X9090238Y-13798476D02*
X9042619Y-13798476D01*
X9242619Y-13798476D02*
X9242619Y-13665143D01*
X9242619Y-13703238D02*
X9252143Y-13684190D01*
X9252143Y-13684190D02*
X9261667Y-13674667D01*
X9261667Y-13674667D02*
X9280714Y-13665143D01*
X9280714Y-13665143D02*
X9299762Y-13665143D01*
X9366429Y-13798476D02*
X9366429Y-13665143D01*
X9366429Y-13598476D02*
X9356905Y-13608000D01*
X9356905Y-13608000D02*
X9366429Y-13617524D01*
X9366429Y-13617524D02*
X9375952Y-13608000D01*
X9375952Y-13608000D02*
X9366429Y-13598476D01*
X9366429Y-13598476D02*
X9366429Y-13617524D01*
X9490238Y-13798476D02*
X9471190Y-13788952D01*
X9471190Y-13788952D02*
X9461667Y-13769905D01*
X9461667Y-13769905D02*
X9461667Y-13598476D01*
X9595000Y-13798476D02*
X9575952Y-13788952D01*
X9575952Y-13788952D02*
X9566429Y-13769905D01*
X9566429Y-13769905D02*
X9566429Y-13598476D01*
X9791190Y-13798476D02*
X9791190Y-13598476D01*
X9791190Y-13598476D02*
X9857857Y-13741333D01*
X9857857Y-13741333D02*
X9924524Y-13598476D01*
X9924524Y-13598476D02*
X9924524Y-13798476D01*
X10105476Y-13798476D02*
X10105476Y-13693714D01*
X10105476Y-13693714D02*
X10095952Y-13674667D01*
X10095952Y-13674667D02*
X10076905Y-13665143D01*
X10076905Y-13665143D02*
X10038809Y-13665143D01*
X10038809Y-13665143D02*
X10019762Y-13674667D01*
X10105476Y-13788952D02*
X10086429Y-13798476D01*
X10086429Y-13798476D02*
X10038809Y-13798476D01*
X10038809Y-13798476D02*
X10019762Y-13788952D01*
X10019762Y-13788952D02*
X10010238Y-13769905D01*
X10010238Y-13769905D02*
X10010238Y-13750857D01*
X10010238Y-13750857D02*
X10019762Y-13731809D01*
X10019762Y-13731809D02*
X10038809Y-13722286D01*
X10038809Y-13722286D02*
X10086429Y-13722286D01*
X10086429Y-13722286D02*
X10105476Y-13712762D01*
X10200714Y-13665143D02*
X10200714Y-13865143D01*
X10200714Y-13674667D02*
X10219762Y-13665143D01*
X10219762Y-13665143D02*
X10257857Y-13665143D01*
X10257857Y-13665143D02*
X10276905Y-13674667D01*
X10276905Y-13674667D02*
X10286429Y-13684190D01*
X10286429Y-13684190D02*
X10295952Y-13703238D01*
X10295952Y-13703238D02*
X10295952Y-13760381D01*
X10295952Y-13760381D02*
X10286429Y-13779428D01*
X10286429Y-13779428D02*
X10276905Y-13788952D01*
X10276905Y-13788952D02*
X10257857Y-13798476D01*
X10257857Y-13798476D02*
X10219762Y-13798476D01*
X10219762Y-13798476D02*
X10200714Y-13788952D01*
X10381667Y-13779428D02*
X10391190Y-13788952D01*
X10391190Y-13788952D02*
X10381667Y-13798476D01*
X10381667Y-13798476D02*
X10372143Y-13788952D01*
X10372143Y-13788952D02*
X10381667Y-13779428D01*
X10381667Y-13779428D02*
X10381667Y-13798476D01*
X10381667Y-13674667D02*
X10391190Y-13684190D01*
X10391190Y-13684190D02*
X10381667Y-13693714D01*
X10381667Y-13693714D02*
X10372143Y-13684190D01*
X10372143Y-13684190D02*
X10381667Y-13674667D01*
X10381667Y-13674667D02*
X10381667Y-13693714D01*
D12*
X8765000Y-14130000D02*
X8795000Y-14160000D01*
X8795000Y-14130000D02*
X8765000Y-14160000D01*
D11*
X9080714Y-14018476D02*
X9099762Y-14018476D01*
X9099762Y-14018476D02*
X9118810Y-14028000D01*
X9118810Y-14028000D02*
X9128333Y-14037524D01*
X9128333Y-14037524D02*
X9137857Y-14056571D01*
X9137857Y-14056571D02*
X9147381Y-14094667D01*
X9147381Y-14094667D02*
X9147381Y-14142286D01*
X9147381Y-14142286D02*
X9137857Y-14180381D01*
X9137857Y-14180381D02*
X9128333Y-14199428D01*
X9128333Y-14199428D02*
X9118810Y-14208952D01*
X9118810Y-14208952D02*
X9099762Y-14218476D01*
X9099762Y-14218476D02*
X9080714Y-14218476D01*
X9080714Y-14218476D02*
X9061667Y-14208952D01*
X9061667Y-14208952D02*
X9052143Y-14199428D01*
X9052143Y-14199428D02*
X9042619Y-14180381D01*
X9042619Y-14180381D02*
X9033095Y-14142286D01*
X9033095Y-14142286D02*
X9033095Y-14094667D01*
X9033095Y-14094667D02*
X9042619Y-14056571D01*
X9042619Y-14056571D02*
X9052143Y-14037524D01*
X9052143Y-14037524D02*
X9061667Y-14028000D01*
X9061667Y-14028000D02*
X9080714Y-14018476D01*
X9233095Y-14199428D02*
X9242619Y-14208952D01*
X9242619Y-14208952D02*
X9233095Y-14218476D01*
X9233095Y-14218476D02*
X9223571Y-14208952D01*
X9223571Y-14208952D02*
X9233095Y-14199428D01*
X9233095Y-14199428D02*
X9233095Y-14218476D01*
X9309286Y-14018476D02*
X9433095Y-14018476D01*
X9433095Y-14018476D02*
X9366429Y-14094667D01*
X9366429Y-14094667D02*
X9395000Y-14094667D01*
X9395000Y-14094667D02*
X9414048Y-14104190D01*
X9414048Y-14104190D02*
X9423571Y-14113714D01*
X9423571Y-14113714D02*
X9433095Y-14132762D01*
X9433095Y-14132762D02*
X9433095Y-14180381D01*
X9433095Y-14180381D02*
X9423571Y-14199428D01*
X9423571Y-14199428D02*
X9414048Y-14208952D01*
X9414048Y-14208952D02*
X9395000Y-14218476D01*
X9395000Y-14218476D02*
X9337857Y-14218476D01*
X9337857Y-14218476D02*
X9318810Y-14208952D01*
X9318810Y-14208952D02*
X9309286Y-14199428D01*
X9556905Y-14018476D02*
X9575952Y-14018476D01*
X9575952Y-14018476D02*
X9595000Y-14028000D01*
X9595000Y-14028000D02*
X9604524Y-14037524D01*
X9604524Y-14037524D02*
X9614048Y-14056571D01*
X9614048Y-14056571D02*
X9623571Y-14094667D01*
X9623571Y-14094667D02*
X9623571Y-14142286D01*
X9623571Y-14142286D02*
X9614048Y-14180381D01*
X9614048Y-14180381D02*
X9604524Y-14199428D01*
X9604524Y-14199428D02*
X9595000Y-14208952D01*
X9595000Y-14208952D02*
X9575952Y-14218476D01*
X9575952Y-14218476D02*
X9556905Y-14218476D01*
X9556905Y-14218476D02*
X9537857Y-14208952D01*
X9537857Y-14208952D02*
X9528333Y-14199428D01*
X9528333Y-14199428D02*
X9518810Y-14180381D01*
X9518810Y-14180381D02*
X9509286Y-14142286D01*
X9509286Y-14142286D02*
X9509286Y-14094667D01*
X9509286Y-14094667D02*
X9518810Y-14056571D01*
X9518810Y-14056571D02*
X9528333Y-14037524D01*
X9528333Y-14037524D02*
X9537857Y-14028000D01*
X9537857Y-14028000D02*
X9556905Y-14018476D01*
X9747381Y-14018476D02*
X9766429Y-14018476D01*
X9766429Y-14018476D02*
X9785476Y-14028000D01*
X9785476Y-14028000D02*
X9795000Y-14037524D01*
X9795000Y-14037524D02*
X9804524Y-14056571D01*
X9804524Y-14056571D02*
X9814048Y-14094667D01*
X9814048Y-14094667D02*
X9814048Y-14142286D01*
X9814048Y-14142286D02*
X9804524Y-14180381D01*
X9804524Y-14180381D02*
X9795000Y-14199428D01*
X9795000Y-14199428D02*
X9785476Y-14208952D01*
X9785476Y-14208952D02*
X9766429Y-14218476D01*
X9766429Y-14218476D02*
X9747381Y-14218476D01*
X9747381Y-14218476D02*
X9728333Y-14208952D01*
X9728333Y-14208952D02*
X9718810Y-14199428D01*
X9718810Y-14199428D02*
X9709286Y-14180381D01*
X9709286Y-14180381D02*
X9699762Y-14142286D01*
X9699762Y-14142286D02*
X9699762Y-14094667D01*
X9699762Y-14094667D02*
X9709286Y-14056571D01*
X9709286Y-14056571D02*
X9718810Y-14037524D01*
X9718810Y-14037524D02*
X9728333Y-14028000D01*
X9728333Y-14028000D02*
X9747381Y-14018476D01*
X9899762Y-14218476D02*
X9899762Y-14085143D01*
X9899762Y-14104190D02*
X9909286Y-14094667D01*
X9909286Y-14094667D02*
X9928333Y-14085143D01*
X9928333Y-14085143D02*
X9956905Y-14085143D01*
X9956905Y-14085143D02*
X9975952Y-14094667D01*
X9975952Y-14094667D02*
X9985476Y-14113714D01*
X9985476Y-14113714D02*
X9985476Y-14218476D01*
X9985476Y-14113714D02*
X9995000Y-14094667D01*
X9995000Y-14094667D02*
X10014048Y-14085143D01*
X10014048Y-14085143D02*
X10042619Y-14085143D01*
X10042619Y-14085143D02*
X10061667Y-14094667D01*
X10061667Y-14094667D02*
X10071191Y-14113714D01*
X10071191Y-14113714D02*
X10071191Y-14218476D01*
X10166429Y-14218476D02*
X10166429Y-14085143D01*
X10166429Y-14104190D02*
X10175952Y-14094667D01*
X10175952Y-14094667D02*
X10195000Y-14085143D01*
X10195000Y-14085143D02*
X10223572Y-14085143D01*
X10223572Y-14085143D02*
X10242619Y-14094667D01*
X10242619Y-14094667D02*
X10252143Y-14113714D01*
X10252143Y-14113714D02*
X10252143Y-14218476D01*
X10252143Y-14113714D02*
X10261667Y-14094667D01*
X10261667Y-14094667D02*
X10280714Y-14085143D01*
X10280714Y-14085143D02*
X10309286Y-14085143D01*
X10309286Y-14085143D02*
X10328333Y-14094667D01*
X10328333Y-14094667D02*
X10337857Y-14113714D01*
X10337857Y-14113714D02*
X10337857Y-14218476D01*
X10695952Y-14008952D02*
X10524524Y-14266095D01*
X10920714Y-14018476D02*
X10939762Y-14018476D01*
X10939762Y-14018476D02*
X10958810Y-14028000D01*
X10958810Y-14028000D02*
X10968333Y-14037524D01*
X10968333Y-14037524D02*
X10977857Y-14056571D01*
X10977857Y-14056571D02*
X10987381Y-14094667D01*
X10987381Y-14094667D02*
X10987381Y-14142286D01*
X10987381Y-14142286D02*
X10977857Y-14180381D01*
X10977857Y-14180381D02*
X10968333Y-14199428D01*
X10968333Y-14199428D02*
X10958810Y-14208952D01*
X10958810Y-14208952D02*
X10939762Y-14218476D01*
X10939762Y-14218476D02*
X10920714Y-14218476D01*
X10920714Y-14218476D02*
X10901667Y-14208952D01*
X10901667Y-14208952D02*
X10892143Y-14199428D01*
X10892143Y-14199428D02*
X10882619Y-14180381D01*
X10882619Y-14180381D02*
X10873095Y-14142286D01*
X10873095Y-14142286D02*
X10873095Y-14094667D01*
X10873095Y-14094667D02*
X10882619Y-14056571D01*
X10882619Y-14056571D02*
X10892143Y-14037524D01*
X10892143Y-14037524D02*
X10901667Y-14028000D01*
X10901667Y-14028000D02*
X10920714Y-14018476D01*
X11073095Y-14199428D02*
X11082619Y-14208952D01*
X11082619Y-14208952D02*
X11073095Y-14218476D01*
X11073095Y-14218476D02*
X11063572Y-14208952D01*
X11063572Y-14208952D02*
X11073095Y-14199428D01*
X11073095Y-14199428D02*
X11073095Y-14218476D01*
X11206429Y-14018476D02*
X11225476Y-14018476D01*
X11225476Y-14018476D02*
X11244524Y-14028000D01*
X11244524Y-14028000D02*
X11254048Y-14037524D01*
X11254048Y-14037524D02*
X11263571Y-14056571D01*
X11263571Y-14056571D02*
X11273095Y-14094667D01*
X11273095Y-14094667D02*
X11273095Y-14142286D01*
X11273095Y-14142286D02*
X11263571Y-14180381D01*
X11263571Y-14180381D02*
X11254048Y-14199428D01*
X11254048Y-14199428D02*
X11244524Y-14208952D01*
X11244524Y-14208952D02*
X11225476Y-14218476D01*
X11225476Y-14218476D02*
X11206429Y-14218476D01*
X11206429Y-14218476D02*
X11187381Y-14208952D01*
X11187381Y-14208952D02*
X11177857Y-14199428D01*
X11177857Y-14199428D02*
X11168333Y-14180381D01*
X11168333Y-14180381D02*
X11158810Y-14142286D01*
X11158810Y-14142286D02*
X11158810Y-14094667D01*
X11158810Y-14094667D02*
X11168333Y-14056571D01*
X11168333Y-14056571D02*
X11177857Y-14037524D01*
X11177857Y-14037524D02*
X11187381Y-14028000D01*
X11187381Y-14028000D02*
X11206429Y-14018476D01*
X11463571Y-14218476D02*
X11349286Y-14218476D01*
X11406429Y-14218476D02*
X11406429Y-14018476D01*
X11406429Y-14018476D02*
X11387381Y-14047048D01*
X11387381Y-14047048D02*
X11368333Y-14066095D01*
X11368333Y-14066095D02*
X11349286Y-14075619D01*
X11654048Y-14218476D02*
X11539762Y-14218476D01*
X11596905Y-14218476D02*
X11596905Y-14018476D01*
X11596905Y-14018476D02*
X11577857Y-14047048D01*
X11577857Y-14047048D02*
X11558810Y-14066095D01*
X11558810Y-14066095D02*
X11539762Y-14075619D01*
X11768333Y-14104190D02*
X11749286Y-14094667D01*
X11749286Y-14094667D02*
X11739762Y-14085143D01*
X11739762Y-14085143D02*
X11730238Y-14066095D01*
X11730238Y-14066095D02*
X11730238Y-14056571D01*
X11730238Y-14056571D02*
X11739762Y-14037524D01*
X11739762Y-14037524D02*
X11749286Y-14028000D01*
X11749286Y-14028000D02*
X11768333Y-14018476D01*
X11768333Y-14018476D02*
X11806429Y-14018476D01*
X11806429Y-14018476D02*
X11825476Y-14028000D01*
X11825476Y-14028000D02*
X11835000Y-14037524D01*
X11835000Y-14037524D02*
X11844524Y-14056571D01*
X11844524Y-14056571D02*
X11844524Y-14066095D01*
X11844524Y-14066095D02*
X11835000Y-14085143D01*
X11835000Y-14085143D02*
X11825476Y-14094667D01*
X11825476Y-14094667D02*
X11806429Y-14104190D01*
X11806429Y-14104190D02*
X11768333Y-14104190D01*
X11768333Y-14104190D02*
X11749286Y-14113714D01*
X11749286Y-14113714D02*
X11739762Y-14123238D01*
X11739762Y-14123238D02*
X11730238Y-14142286D01*
X11730238Y-14142286D02*
X11730238Y-14180381D01*
X11730238Y-14180381D02*
X11739762Y-14199428D01*
X11739762Y-14199428D02*
X11749286Y-14208952D01*
X11749286Y-14208952D02*
X11768333Y-14218476D01*
X11768333Y-14218476D02*
X11806429Y-14218476D01*
X11806429Y-14218476D02*
X11825476Y-14208952D01*
X11825476Y-14208952D02*
X11835000Y-14199428D01*
X11835000Y-14199428D02*
X11844524Y-14180381D01*
X11844524Y-14180381D02*
X11844524Y-14142286D01*
X11844524Y-14142286D02*
X11835000Y-14123238D01*
X11835000Y-14123238D02*
X11825476Y-14113714D01*
X11825476Y-14113714D02*
X11806429Y-14104190D01*
X11920714Y-14018476D02*
X11920714Y-14056571D01*
X11996905Y-14018476D02*
X11996905Y-14056571D01*
X12259762Y-14294667D02*
X12250238Y-14285143D01*
X12250238Y-14285143D02*
X12231191Y-14256571D01*
X12231191Y-14256571D02*
X12221667Y-14237524D01*
X12221667Y-14237524D02*
X12212143Y-14208952D01*
X12212143Y-14208952D02*
X12202619Y-14161333D01*
X12202619Y-14161333D02*
X12202619Y-14123238D01*
X12202619Y-14123238D02*
X12212143Y-14075619D01*
X12212143Y-14075619D02*
X12221667Y-14047048D01*
X12221667Y-14047048D02*
X12231191Y-14028000D01*
X12231191Y-14028000D02*
X12250238Y-13999428D01*
X12250238Y-13999428D02*
X12259762Y-13989905D01*
X12421667Y-14018476D02*
X12383571Y-14018476D01*
X12383571Y-14018476D02*
X12364524Y-14028000D01*
X12364524Y-14028000D02*
X12355000Y-14037524D01*
X12355000Y-14037524D02*
X12335952Y-14066095D01*
X12335952Y-14066095D02*
X12326429Y-14104190D01*
X12326429Y-14104190D02*
X12326429Y-14180381D01*
X12326429Y-14180381D02*
X12335952Y-14199428D01*
X12335952Y-14199428D02*
X12345476Y-14208952D01*
X12345476Y-14208952D02*
X12364524Y-14218476D01*
X12364524Y-14218476D02*
X12402619Y-14218476D01*
X12402619Y-14218476D02*
X12421667Y-14208952D01*
X12421667Y-14208952D02*
X12431191Y-14199428D01*
X12431191Y-14199428D02*
X12440714Y-14180381D01*
X12440714Y-14180381D02*
X12440714Y-14132762D01*
X12440714Y-14132762D02*
X12431191Y-14113714D01*
X12431191Y-14113714D02*
X12421667Y-14104190D01*
X12421667Y-14104190D02*
X12402619Y-14094667D01*
X12402619Y-14094667D02*
X12364524Y-14094667D01*
X12364524Y-14094667D02*
X12345476Y-14104190D01*
X12345476Y-14104190D02*
X12335952Y-14113714D01*
X12335952Y-14113714D02*
X12326429Y-14132762D01*
X12646429Y-14218476D02*
X12646429Y-14018476D01*
X12732143Y-14218476D02*
X12732143Y-14113714D01*
X12732143Y-14113714D02*
X12722619Y-14094667D01*
X12722619Y-14094667D02*
X12703572Y-14085143D01*
X12703572Y-14085143D02*
X12675000Y-14085143D01*
X12675000Y-14085143D02*
X12655952Y-14094667D01*
X12655952Y-14094667D02*
X12646429Y-14104190D01*
X12855952Y-14218476D02*
X12836905Y-14208952D01*
X12836905Y-14208952D02*
X12827381Y-14199428D01*
X12827381Y-14199428D02*
X12817857Y-14180381D01*
X12817857Y-14180381D02*
X12817857Y-14123238D01*
X12817857Y-14123238D02*
X12827381Y-14104190D01*
X12827381Y-14104190D02*
X12836905Y-14094667D01*
X12836905Y-14094667D02*
X12855952Y-14085143D01*
X12855952Y-14085143D02*
X12884524Y-14085143D01*
X12884524Y-14085143D02*
X12903572Y-14094667D01*
X12903572Y-14094667D02*
X12913095Y-14104190D01*
X12913095Y-14104190D02*
X12922619Y-14123238D01*
X12922619Y-14123238D02*
X12922619Y-14180381D01*
X12922619Y-14180381D02*
X12913095Y-14199428D01*
X12913095Y-14199428D02*
X12903572Y-14208952D01*
X12903572Y-14208952D02*
X12884524Y-14218476D01*
X12884524Y-14218476D02*
X12855952Y-14218476D01*
X13036905Y-14218476D02*
X13017857Y-14208952D01*
X13017857Y-14208952D02*
X13008333Y-14189905D01*
X13008333Y-14189905D02*
X13008333Y-14018476D01*
X13189286Y-14208952D02*
X13170238Y-14218476D01*
X13170238Y-14218476D02*
X13132143Y-14218476D01*
X13132143Y-14218476D02*
X13113095Y-14208952D01*
X13113095Y-14208952D02*
X13103572Y-14189905D01*
X13103572Y-14189905D02*
X13103572Y-14113714D01*
X13103572Y-14113714D02*
X13113095Y-14094667D01*
X13113095Y-14094667D02*
X13132143Y-14085143D01*
X13132143Y-14085143D02*
X13170238Y-14085143D01*
X13170238Y-14085143D02*
X13189286Y-14094667D01*
X13189286Y-14094667D02*
X13198810Y-14113714D01*
X13198810Y-14113714D02*
X13198810Y-14132762D01*
X13198810Y-14132762D02*
X13103572Y-14151809D01*
X13275000Y-14208952D02*
X13294048Y-14218476D01*
X13294048Y-14218476D02*
X13332143Y-14218476D01*
X13332143Y-14218476D02*
X13351191Y-14208952D01*
X13351191Y-14208952D02*
X13360714Y-14189905D01*
X13360714Y-14189905D02*
X13360714Y-14180381D01*
X13360714Y-14180381D02*
X13351191Y-14161333D01*
X13351191Y-14161333D02*
X13332143Y-14151809D01*
X13332143Y-14151809D02*
X13303572Y-14151809D01*
X13303572Y-14151809D02*
X13284524Y-14142286D01*
X13284524Y-14142286D02*
X13275000Y-14123238D01*
X13275000Y-14123238D02*
X13275000Y-14113714D01*
X13275000Y-14113714D02*
X13284524Y-14094667D01*
X13284524Y-14094667D02*
X13303572Y-14085143D01*
X13303572Y-14085143D02*
X13332143Y-14085143D01*
X13332143Y-14085143D02*
X13351191Y-14094667D01*
X13427381Y-14294667D02*
X13436905Y-14285143D01*
X13436905Y-14285143D02*
X13455953Y-14256571D01*
X13455953Y-14256571D02*
X13465476Y-14237524D01*
X13465476Y-14237524D02*
X13475000Y-14208952D01*
X13475000Y-14208952D02*
X13484524Y-14161333D01*
X13484524Y-14161333D02*
X13484524Y-14123238D01*
X13484524Y-14123238D02*
X13475000Y-14075619D01*
X13475000Y-14075619D02*
X13465476Y-14047048D01*
X13465476Y-14047048D02*
X13455953Y-14028000D01*
X13455953Y-14028000D02*
X13436905Y-13999428D01*
X13436905Y-13999428D02*
X13427381Y-13989905D01*
D13*
X8795000Y-14409000D02*
G75*
G03*
X8795000Y-14409000I-20000J0D01*
G01*
D11*
X9080714Y-14282476D02*
X9099762Y-14282476D01*
X9099762Y-14282476D02*
X9118810Y-14292000D01*
X9118810Y-14292000D02*
X9128333Y-14301524D01*
X9128333Y-14301524D02*
X9137857Y-14320571D01*
X9137857Y-14320571D02*
X9147381Y-14358667D01*
X9147381Y-14358667D02*
X9147381Y-14406286D01*
X9147381Y-14406286D02*
X9137857Y-14444381D01*
X9137857Y-14444381D02*
X9128333Y-14463428D01*
X9128333Y-14463428D02*
X9118810Y-14472952D01*
X9118810Y-14472952D02*
X9099762Y-14482476D01*
X9099762Y-14482476D02*
X9080714Y-14482476D01*
X9080714Y-14482476D02*
X9061667Y-14472952D01*
X9061667Y-14472952D02*
X9052143Y-14463428D01*
X9052143Y-14463428D02*
X9042619Y-14444381D01*
X9042619Y-14444381D02*
X9033095Y-14406286D01*
X9033095Y-14406286D02*
X9033095Y-14358667D01*
X9033095Y-14358667D02*
X9042619Y-14320571D01*
X9042619Y-14320571D02*
X9052143Y-14301524D01*
X9052143Y-14301524D02*
X9061667Y-14292000D01*
X9061667Y-14292000D02*
X9080714Y-14282476D01*
X9233095Y-14463428D02*
X9242619Y-14472952D01*
X9242619Y-14472952D02*
X9233095Y-14482476D01*
X9233095Y-14482476D02*
X9223571Y-14472952D01*
X9223571Y-14472952D02*
X9233095Y-14463428D01*
X9233095Y-14463428D02*
X9233095Y-14482476D01*
X9414048Y-14349143D02*
X9414048Y-14482476D01*
X9366429Y-14272952D02*
X9318810Y-14415809D01*
X9318810Y-14415809D02*
X9442619Y-14415809D01*
X9556905Y-14282476D02*
X9575952Y-14282476D01*
X9575952Y-14282476D02*
X9595000Y-14292000D01*
X9595000Y-14292000D02*
X9604524Y-14301524D01*
X9604524Y-14301524D02*
X9614048Y-14320571D01*
X9614048Y-14320571D02*
X9623571Y-14358667D01*
X9623571Y-14358667D02*
X9623571Y-14406286D01*
X9623571Y-14406286D02*
X9614048Y-14444381D01*
X9614048Y-14444381D02*
X9604524Y-14463428D01*
X9604524Y-14463428D02*
X9595000Y-14472952D01*
X9595000Y-14472952D02*
X9575952Y-14482476D01*
X9575952Y-14482476D02*
X9556905Y-14482476D01*
X9556905Y-14482476D02*
X9537857Y-14472952D01*
X9537857Y-14472952D02*
X9528333Y-14463428D01*
X9528333Y-14463428D02*
X9518810Y-14444381D01*
X9518810Y-14444381D02*
X9509286Y-14406286D01*
X9509286Y-14406286D02*
X9509286Y-14358667D01*
X9509286Y-14358667D02*
X9518810Y-14320571D01*
X9518810Y-14320571D02*
X9528333Y-14301524D01*
X9528333Y-14301524D02*
X9537857Y-14292000D01*
X9537857Y-14292000D02*
X9556905Y-14282476D01*
X9747381Y-14282476D02*
X9766429Y-14282476D01*
X9766429Y-14282476D02*
X9785476Y-14292000D01*
X9785476Y-14292000D02*
X9795000Y-14301524D01*
X9795000Y-14301524D02*
X9804524Y-14320571D01*
X9804524Y-14320571D02*
X9814048Y-14358667D01*
X9814048Y-14358667D02*
X9814048Y-14406286D01*
X9814048Y-14406286D02*
X9804524Y-14444381D01*
X9804524Y-14444381D02*
X9795000Y-14463428D01*
X9795000Y-14463428D02*
X9785476Y-14472952D01*
X9785476Y-14472952D02*
X9766429Y-14482476D01*
X9766429Y-14482476D02*
X9747381Y-14482476D01*
X9747381Y-14482476D02*
X9728333Y-14472952D01*
X9728333Y-14472952D02*
X9718810Y-14463428D01*
X9718810Y-14463428D02*
X9709286Y-14444381D01*
X9709286Y-14444381D02*
X9699762Y-14406286D01*
X9699762Y-14406286D02*
X9699762Y-14358667D01*
X9699762Y-14358667D02*
X9709286Y-14320571D01*
X9709286Y-14320571D02*
X9718810Y-14301524D01*
X9718810Y-14301524D02*
X9728333Y-14292000D01*
X9728333Y-14292000D02*
X9747381Y-14282476D01*
X9899762Y-14482476D02*
X9899762Y-14349143D01*
X9899762Y-14368190D02*
X9909286Y-14358667D01*
X9909286Y-14358667D02*
X9928333Y-14349143D01*
X9928333Y-14349143D02*
X9956905Y-14349143D01*
X9956905Y-14349143D02*
X9975952Y-14358667D01*
X9975952Y-14358667D02*
X9985476Y-14377714D01*
X9985476Y-14377714D02*
X9985476Y-14482476D01*
X9985476Y-14377714D02*
X9995000Y-14358667D01*
X9995000Y-14358667D02*
X10014048Y-14349143D01*
X10014048Y-14349143D02*
X10042619Y-14349143D01*
X10042619Y-14349143D02*
X10061667Y-14358667D01*
X10061667Y-14358667D02*
X10071191Y-14377714D01*
X10071191Y-14377714D02*
X10071191Y-14482476D01*
X10166429Y-14482476D02*
X10166429Y-14349143D01*
X10166429Y-14368190D02*
X10175952Y-14358667D01*
X10175952Y-14358667D02*
X10195000Y-14349143D01*
X10195000Y-14349143D02*
X10223572Y-14349143D01*
X10223572Y-14349143D02*
X10242619Y-14358667D01*
X10242619Y-14358667D02*
X10252143Y-14377714D01*
X10252143Y-14377714D02*
X10252143Y-14482476D01*
X10252143Y-14377714D02*
X10261667Y-14358667D01*
X10261667Y-14358667D02*
X10280714Y-14349143D01*
X10280714Y-14349143D02*
X10309286Y-14349143D01*
X10309286Y-14349143D02*
X10328333Y-14358667D01*
X10328333Y-14358667D02*
X10337857Y-14377714D01*
X10337857Y-14377714D02*
X10337857Y-14482476D01*
X10695952Y-14272952D02*
X10524524Y-14530095D01*
X10920714Y-14282476D02*
X10939762Y-14282476D01*
X10939762Y-14282476D02*
X10958810Y-14292000D01*
X10958810Y-14292000D02*
X10968333Y-14301524D01*
X10968333Y-14301524D02*
X10977857Y-14320571D01*
X10977857Y-14320571D02*
X10987381Y-14358667D01*
X10987381Y-14358667D02*
X10987381Y-14406286D01*
X10987381Y-14406286D02*
X10977857Y-14444381D01*
X10977857Y-14444381D02*
X10968333Y-14463428D01*
X10968333Y-14463428D02*
X10958810Y-14472952D01*
X10958810Y-14472952D02*
X10939762Y-14482476D01*
X10939762Y-14482476D02*
X10920714Y-14482476D01*
X10920714Y-14482476D02*
X10901667Y-14472952D01*
X10901667Y-14472952D02*
X10892143Y-14463428D01*
X10892143Y-14463428D02*
X10882619Y-14444381D01*
X10882619Y-14444381D02*
X10873095Y-14406286D01*
X10873095Y-14406286D02*
X10873095Y-14358667D01*
X10873095Y-14358667D02*
X10882619Y-14320571D01*
X10882619Y-14320571D02*
X10892143Y-14301524D01*
X10892143Y-14301524D02*
X10901667Y-14292000D01*
X10901667Y-14292000D02*
X10920714Y-14282476D01*
X11073095Y-14463428D02*
X11082619Y-14472952D01*
X11082619Y-14472952D02*
X11073095Y-14482476D01*
X11073095Y-14482476D02*
X11063572Y-14472952D01*
X11063572Y-14472952D02*
X11073095Y-14463428D01*
X11073095Y-14463428D02*
X11073095Y-14482476D01*
X11206429Y-14282476D02*
X11225476Y-14282476D01*
X11225476Y-14282476D02*
X11244524Y-14292000D01*
X11244524Y-14292000D02*
X11254048Y-14301524D01*
X11254048Y-14301524D02*
X11263571Y-14320571D01*
X11263571Y-14320571D02*
X11273095Y-14358667D01*
X11273095Y-14358667D02*
X11273095Y-14406286D01*
X11273095Y-14406286D02*
X11263571Y-14444381D01*
X11263571Y-14444381D02*
X11254048Y-14463428D01*
X11254048Y-14463428D02*
X11244524Y-14472952D01*
X11244524Y-14472952D02*
X11225476Y-14482476D01*
X11225476Y-14482476D02*
X11206429Y-14482476D01*
X11206429Y-14482476D02*
X11187381Y-14472952D01*
X11187381Y-14472952D02*
X11177857Y-14463428D01*
X11177857Y-14463428D02*
X11168333Y-14444381D01*
X11168333Y-14444381D02*
X11158810Y-14406286D01*
X11158810Y-14406286D02*
X11158810Y-14358667D01*
X11158810Y-14358667D02*
X11168333Y-14320571D01*
X11168333Y-14320571D02*
X11177857Y-14301524D01*
X11177857Y-14301524D02*
X11187381Y-14292000D01*
X11187381Y-14292000D02*
X11206429Y-14282476D01*
X11463571Y-14482476D02*
X11349286Y-14482476D01*
X11406429Y-14482476D02*
X11406429Y-14282476D01*
X11406429Y-14282476D02*
X11387381Y-14311048D01*
X11387381Y-14311048D02*
X11368333Y-14330095D01*
X11368333Y-14330095D02*
X11349286Y-14339619D01*
X11644524Y-14282476D02*
X11549286Y-14282476D01*
X11549286Y-14282476D02*
X11539762Y-14377714D01*
X11539762Y-14377714D02*
X11549286Y-14368190D01*
X11549286Y-14368190D02*
X11568333Y-14358667D01*
X11568333Y-14358667D02*
X11615952Y-14358667D01*
X11615952Y-14358667D02*
X11635000Y-14368190D01*
X11635000Y-14368190D02*
X11644524Y-14377714D01*
X11644524Y-14377714D02*
X11654048Y-14396762D01*
X11654048Y-14396762D02*
X11654048Y-14444381D01*
X11654048Y-14444381D02*
X11644524Y-14463428D01*
X11644524Y-14463428D02*
X11635000Y-14472952D01*
X11635000Y-14472952D02*
X11615952Y-14482476D01*
X11615952Y-14482476D02*
X11568333Y-14482476D01*
X11568333Y-14482476D02*
X11549286Y-14472952D01*
X11549286Y-14472952D02*
X11539762Y-14463428D01*
X11720714Y-14282476D02*
X11854048Y-14282476D01*
X11854048Y-14282476D02*
X11768333Y-14482476D01*
X11920714Y-14282476D02*
X11920714Y-14320571D01*
X11996905Y-14282476D02*
X11996905Y-14320571D01*
X12259762Y-14558667D02*
X12250238Y-14549143D01*
X12250238Y-14549143D02*
X12231191Y-14520571D01*
X12231191Y-14520571D02*
X12221667Y-14501524D01*
X12221667Y-14501524D02*
X12212143Y-14472952D01*
X12212143Y-14472952D02*
X12202619Y-14425333D01*
X12202619Y-14425333D02*
X12202619Y-14387238D01*
X12202619Y-14387238D02*
X12212143Y-14339619D01*
X12212143Y-14339619D02*
X12221667Y-14311048D01*
X12221667Y-14311048D02*
X12231191Y-14292000D01*
X12231191Y-14292000D02*
X12250238Y-14263428D01*
X12250238Y-14263428D02*
X12259762Y-14253905D01*
X12421667Y-14282476D02*
X12383571Y-14282476D01*
X12383571Y-14282476D02*
X12364524Y-14292000D01*
X12364524Y-14292000D02*
X12355000Y-14301524D01*
X12355000Y-14301524D02*
X12335952Y-14330095D01*
X12335952Y-14330095D02*
X12326429Y-14368190D01*
X12326429Y-14368190D02*
X12326429Y-14444381D01*
X12326429Y-14444381D02*
X12335952Y-14463428D01*
X12335952Y-14463428D02*
X12345476Y-14472952D01*
X12345476Y-14472952D02*
X12364524Y-14482476D01*
X12364524Y-14482476D02*
X12402619Y-14482476D01*
X12402619Y-14482476D02*
X12421667Y-14472952D01*
X12421667Y-14472952D02*
X12431191Y-14463428D01*
X12431191Y-14463428D02*
X12440714Y-14444381D01*
X12440714Y-14444381D02*
X12440714Y-14396762D01*
X12440714Y-14396762D02*
X12431191Y-14377714D01*
X12431191Y-14377714D02*
X12421667Y-14368190D01*
X12421667Y-14368190D02*
X12402619Y-14358667D01*
X12402619Y-14358667D02*
X12364524Y-14358667D01*
X12364524Y-14358667D02*
X12345476Y-14368190D01*
X12345476Y-14368190D02*
X12335952Y-14377714D01*
X12335952Y-14377714D02*
X12326429Y-14396762D01*
X12564524Y-14282476D02*
X12583572Y-14282476D01*
X12583572Y-14282476D02*
X12602619Y-14292000D01*
X12602619Y-14292000D02*
X12612143Y-14301524D01*
X12612143Y-14301524D02*
X12621667Y-14320571D01*
X12621667Y-14320571D02*
X12631191Y-14358667D01*
X12631191Y-14358667D02*
X12631191Y-14406286D01*
X12631191Y-14406286D02*
X12621667Y-14444381D01*
X12621667Y-14444381D02*
X12612143Y-14463428D01*
X12612143Y-14463428D02*
X12602619Y-14472952D01*
X12602619Y-14472952D02*
X12583572Y-14482476D01*
X12583572Y-14482476D02*
X12564524Y-14482476D01*
X12564524Y-14482476D02*
X12545476Y-14472952D01*
X12545476Y-14472952D02*
X12535952Y-14463428D01*
X12535952Y-14463428D02*
X12526429Y-14444381D01*
X12526429Y-14444381D02*
X12516905Y-14406286D01*
X12516905Y-14406286D02*
X12516905Y-14358667D01*
X12516905Y-14358667D02*
X12526429Y-14320571D01*
X12526429Y-14320571D02*
X12535952Y-14301524D01*
X12535952Y-14301524D02*
X12545476Y-14292000D01*
X12545476Y-14292000D02*
X12564524Y-14282476D01*
X12836905Y-14482476D02*
X12836905Y-14282476D01*
X12922619Y-14482476D02*
X12922619Y-14377714D01*
X12922619Y-14377714D02*
X12913095Y-14358667D01*
X12913095Y-14358667D02*
X12894048Y-14349143D01*
X12894048Y-14349143D02*
X12865476Y-14349143D01*
X12865476Y-14349143D02*
X12846429Y-14358667D01*
X12846429Y-14358667D02*
X12836905Y-14368190D01*
X13046429Y-14482476D02*
X13027381Y-14472952D01*
X13027381Y-14472952D02*
X13017857Y-14463428D01*
X13017857Y-14463428D02*
X13008333Y-14444381D01*
X13008333Y-14444381D02*
X13008333Y-14387238D01*
X13008333Y-14387238D02*
X13017857Y-14368190D01*
X13017857Y-14368190D02*
X13027381Y-14358667D01*
X13027381Y-14358667D02*
X13046429Y-14349143D01*
X13046429Y-14349143D02*
X13075000Y-14349143D01*
X13075000Y-14349143D02*
X13094048Y-14358667D01*
X13094048Y-14358667D02*
X13103572Y-14368190D01*
X13103572Y-14368190D02*
X13113095Y-14387238D01*
X13113095Y-14387238D02*
X13113095Y-14444381D01*
X13113095Y-14444381D02*
X13103572Y-14463428D01*
X13103572Y-14463428D02*
X13094048Y-14472952D01*
X13094048Y-14472952D02*
X13075000Y-14482476D01*
X13075000Y-14482476D02*
X13046429Y-14482476D01*
X13227381Y-14482476D02*
X13208333Y-14472952D01*
X13208333Y-14472952D02*
X13198810Y-14453905D01*
X13198810Y-14453905D02*
X13198810Y-14282476D01*
X13379762Y-14472952D02*
X13360714Y-14482476D01*
X13360714Y-14482476D02*
X13322619Y-14482476D01*
X13322619Y-14482476D02*
X13303572Y-14472952D01*
X13303572Y-14472952D02*
X13294048Y-14453905D01*
X13294048Y-14453905D02*
X13294048Y-14377714D01*
X13294048Y-14377714D02*
X13303572Y-14358667D01*
X13303572Y-14358667D02*
X13322619Y-14349143D01*
X13322619Y-14349143D02*
X13360714Y-14349143D01*
X13360714Y-14349143D02*
X13379762Y-14358667D01*
X13379762Y-14358667D02*
X13389286Y-14377714D01*
X13389286Y-14377714D02*
X13389286Y-14396762D01*
X13389286Y-14396762D02*
X13294048Y-14415809D01*
X13465476Y-14472952D02*
X13484524Y-14482476D01*
X13484524Y-14482476D02*
X13522619Y-14482476D01*
X13522619Y-14482476D02*
X13541667Y-14472952D01*
X13541667Y-14472952D02*
X13551191Y-14453905D01*
X13551191Y-14453905D02*
X13551191Y-14444381D01*
X13551191Y-14444381D02*
X13541667Y-14425333D01*
X13541667Y-14425333D02*
X13522619Y-14415809D01*
X13522619Y-14415809D02*
X13494048Y-14415809D01*
X13494048Y-14415809D02*
X13475000Y-14406286D01*
X13475000Y-14406286D02*
X13465476Y-14387238D01*
X13465476Y-14387238D02*
X13465476Y-14377714D01*
X13465476Y-14377714D02*
X13475000Y-14358667D01*
X13475000Y-14358667D02*
X13494048Y-14349143D01*
X13494048Y-14349143D02*
X13522619Y-14349143D01*
X13522619Y-14349143D02*
X13541667Y-14358667D01*
X13617857Y-14558667D02*
X13627381Y-14549143D01*
X13627381Y-14549143D02*
X13646429Y-14520571D01*
X13646429Y-14520571D02*
X13655953Y-14501524D01*
X13655953Y-14501524D02*
X13665476Y-14472952D01*
X13665476Y-14472952D02*
X13675000Y-14425333D01*
X13675000Y-14425333D02*
X13675000Y-14387238D01*
X13675000Y-14387238D02*
X13665476Y-14339619D01*
X13665476Y-14339619D02*
X13655953Y-14311048D01*
X13655953Y-14311048D02*
X13646429Y-14292000D01*
X13646429Y-14292000D02*
X13627381Y-14263428D01*
X13627381Y-14263428D02*
X13617857Y-14253905D01*
D14*
X8757500Y-14635500D02*
X8757500Y-14710500D01*
X8720000Y-14673000D02*
X8795000Y-14673000D01*
D11*
X9080714Y-14546476D02*
X9099762Y-14546476D01*
X9099762Y-14546476D02*
X9118810Y-14556000D01*
X9118810Y-14556000D02*
X9128333Y-14565524D01*
X9128333Y-14565524D02*
X9137857Y-14584571D01*
X9137857Y-14584571D02*
X9147381Y-14622667D01*
X9147381Y-14622667D02*
X9147381Y-14670286D01*
X9147381Y-14670286D02*
X9137857Y-14708381D01*
X9137857Y-14708381D02*
X9128333Y-14727428D01*
X9128333Y-14727428D02*
X9118810Y-14736952D01*
X9118810Y-14736952D02*
X9099762Y-14746476D01*
X9099762Y-14746476D02*
X9080714Y-14746476D01*
X9080714Y-14746476D02*
X9061667Y-14736952D01*
X9061667Y-14736952D02*
X9052143Y-14727428D01*
X9052143Y-14727428D02*
X9042619Y-14708381D01*
X9042619Y-14708381D02*
X9033095Y-14670286D01*
X9033095Y-14670286D02*
X9033095Y-14622667D01*
X9033095Y-14622667D02*
X9042619Y-14584571D01*
X9042619Y-14584571D02*
X9052143Y-14565524D01*
X9052143Y-14565524D02*
X9061667Y-14556000D01*
X9061667Y-14556000D02*
X9080714Y-14546476D01*
X9233095Y-14727428D02*
X9242619Y-14736952D01*
X9242619Y-14736952D02*
X9233095Y-14746476D01*
X9233095Y-14746476D02*
X9223571Y-14736952D01*
X9223571Y-14736952D02*
X9233095Y-14727428D01*
X9233095Y-14727428D02*
X9233095Y-14746476D01*
X9309286Y-14546476D02*
X9442619Y-14546476D01*
X9442619Y-14546476D02*
X9356905Y-14746476D01*
X9614048Y-14546476D02*
X9518810Y-14546476D01*
X9518810Y-14546476D02*
X9509286Y-14641714D01*
X9509286Y-14641714D02*
X9518810Y-14632190D01*
X9518810Y-14632190D02*
X9537857Y-14622667D01*
X9537857Y-14622667D02*
X9585476Y-14622667D01*
X9585476Y-14622667D02*
X9604524Y-14632190D01*
X9604524Y-14632190D02*
X9614048Y-14641714D01*
X9614048Y-14641714D02*
X9623571Y-14660762D01*
X9623571Y-14660762D02*
X9623571Y-14708381D01*
X9623571Y-14708381D02*
X9614048Y-14727428D01*
X9614048Y-14727428D02*
X9604524Y-14736952D01*
X9604524Y-14736952D02*
X9585476Y-14746476D01*
X9585476Y-14746476D02*
X9537857Y-14746476D01*
X9537857Y-14746476D02*
X9518810Y-14736952D01*
X9518810Y-14736952D02*
X9509286Y-14727428D01*
X9747381Y-14546476D02*
X9766429Y-14546476D01*
X9766429Y-14546476D02*
X9785476Y-14556000D01*
X9785476Y-14556000D02*
X9795000Y-14565524D01*
X9795000Y-14565524D02*
X9804524Y-14584571D01*
X9804524Y-14584571D02*
X9814048Y-14622667D01*
X9814048Y-14622667D02*
X9814048Y-14670286D01*
X9814048Y-14670286D02*
X9804524Y-14708381D01*
X9804524Y-14708381D02*
X9795000Y-14727428D01*
X9795000Y-14727428D02*
X9785476Y-14736952D01*
X9785476Y-14736952D02*
X9766429Y-14746476D01*
X9766429Y-14746476D02*
X9747381Y-14746476D01*
X9747381Y-14746476D02*
X9728333Y-14736952D01*
X9728333Y-14736952D02*
X9718810Y-14727428D01*
X9718810Y-14727428D02*
X9709286Y-14708381D01*
X9709286Y-14708381D02*
X9699762Y-14670286D01*
X9699762Y-14670286D02*
X9699762Y-14622667D01*
X9699762Y-14622667D02*
X9709286Y-14584571D01*
X9709286Y-14584571D02*
X9718810Y-14565524D01*
X9718810Y-14565524D02*
X9728333Y-14556000D01*
X9728333Y-14556000D02*
X9747381Y-14546476D01*
X9899762Y-14746476D02*
X9899762Y-14613143D01*
X9899762Y-14632190D02*
X9909286Y-14622667D01*
X9909286Y-14622667D02*
X9928333Y-14613143D01*
X9928333Y-14613143D02*
X9956905Y-14613143D01*
X9956905Y-14613143D02*
X9975952Y-14622667D01*
X9975952Y-14622667D02*
X9985476Y-14641714D01*
X9985476Y-14641714D02*
X9985476Y-14746476D01*
X9985476Y-14641714D02*
X9995000Y-14622667D01*
X9995000Y-14622667D02*
X10014048Y-14613143D01*
X10014048Y-14613143D02*
X10042619Y-14613143D01*
X10042619Y-14613143D02*
X10061667Y-14622667D01*
X10061667Y-14622667D02*
X10071191Y-14641714D01*
X10071191Y-14641714D02*
X10071191Y-14746476D01*
X10166429Y-14746476D02*
X10166429Y-14613143D01*
X10166429Y-14632190D02*
X10175952Y-14622667D01*
X10175952Y-14622667D02*
X10195000Y-14613143D01*
X10195000Y-14613143D02*
X10223572Y-14613143D01*
X10223572Y-14613143D02*
X10242619Y-14622667D01*
X10242619Y-14622667D02*
X10252143Y-14641714D01*
X10252143Y-14641714D02*
X10252143Y-14746476D01*
X10252143Y-14641714D02*
X10261667Y-14622667D01*
X10261667Y-14622667D02*
X10280714Y-14613143D01*
X10280714Y-14613143D02*
X10309286Y-14613143D01*
X10309286Y-14613143D02*
X10328333Y-14622667D01*
X10328333Y-14622667D02*
X10337857Y-14641714D01*
X10337857Y-14641714D02*
X10337857Y-14746476D01*
X10695952Y-14536952D02*
X10524524Y-14794095D01*
X10920714Y-14546476D02*
X10939762Y-14546476D01*
X10939762Y-14546476D02*
X10958810Y-14556000D01*
X10958810Y-14556000D02*
X10968333Y-14565524D01*
X10968333Y-14565524D02*
X10977857Y-14584571D01*
X10977857Y-14584571D02*
X10987381Y-14622667D01*
X10987381Y-14622667D02*
X10987381Y-14670286D01*
X10987381Y-14670286D02*
X10977857Y-14708381D01*
X10977857Y-14708381D02*
X10968333Y-14727428D01*
X10968333Y-14727428D02*
X10958810Y-14736952D01*
X10958810Y-14736952D02*
X10939762Y-14746476D01*
X10939762Y-14746476D02*
X10920714Y-14746476D01*
X10920714Y-14746476D02*
X10901667Y-14736952D01*
X10901667Y-14736952D02*
X10892143Y-14727428D01*
X10892143Y-14727428D02*
X10882619Y-14708381D01*
X10882619Y-14708381D02*
X10873095Y-14670286D01*
X10873095Y-14670286D02*
X10873095Y-14622667D01*
X10873095Y-14622667D02*
X10882619Y-14584571D01*
X10882619Y-14584571D02*
X10892143Y-14565524D01*
X10892143Y-14565524D02*
X10901667Y-14556000D01*
X10901667Y-14556000D02*
X10920714Y-14546476D01*
X11073095Y-14727428D02*
X11082619Y-14736952D01*
X11082619Y-14736952D02*
X11073095Y-14746476D01*
X11073095Y-14746476D02*
X11063572Y-14736952D01*
X11063572Y-14736952D02*
X11073095Y-14727428D01*
X11073095Y-14727428D02*
X11073095Y-14746476D01*
X11206429Y-14546476D02*
X11225476Y-14546476D01*
X11225476Y-14546476D02*
X11244524Y-14556000D01*
X11244524Y-14556000D02*
X11254048Y-14565524D01*
X11254048Y-14565524D02*
X11263571Y-14584571D01*
X11263571Y-14584571D02*
X11273095Y-14622667D01*
X11273095Y-14622667D02*
X11273095Y-14670286D01*
X11273095Y-14670286D02*
X11263571Y-14708381D01*
X11263571Y-14708381D02*
X11254048Y-14727428D01*
X11254048Y-14727428D02*
X11244524Y-14736952D01*
X11244524Y-14736952D02*
X11225476Y-14746476D01*
X11225476Y-14746476D02*
X11206429Y-14746476D01*
X11206429Y-14746476D02*
X11187381Y-14736952D01*
X11187381Y-14736952D02*
X11177857Y-14727428D01*
X11177857Y-14727428D02*
X11168333Y-14708381D01*
X11168333Y-14708381D02*
X11158810Y-14670286D01*
X11158810Y-14670286D02*
X11158810Y-14622667D01*
X11158810Y-14622667D02*
X11168333Y-14584571D01*
X11168333Y-14584571D02*
X11177857Y-14565524D01*
X11177857Y-14565524D02*
X11187381Y-14556000D01*
X11187381Y-14556000D02*
X11206429Y-14546476D01*
X11349286Y-14565524D02*
X11358810Y-14556000D01*
X11358810Y-14556000D02*
X11377857Y-14546476D01*
X11377857Y-14546476D02*
X11425476Y-14546476D01*
X11425476Y-14546476D02*
X11444524Y-14556000D01*
X11444524Y-14556000D02*
X11454048Y-14565524D01*
X11454048Y-14565524D02*
X11463571Y-14584571D01*
X11463571Y-14584571D02*
X11463571Y-14603619D01*
X11463571Y-14603619D02*
X11454048Y-14632190D01*
X11454048Y-14632190D02*
X11339762Y-14746476D01*
X11339762Y-14746476D02*
X11463571Y-14746476D01*
X11558810Y-14746476D02*
X11596905Y-14746476D01*
X11596905Y-14746476D02*
X11615952Y-14736952D01*
X11615952Y-14736952D02*
X11625476Y-14727428D01*
X11625476Y-14727428D02*
X11644524Y-14698857D01*
X11644524Y-14698857D02*
X11654048Y-14660762D01*
X11654048Y-14660762D02*
X11654048Y-14584571D01*
X11654048Y-14584571D02*
X11644524Y-14565524D01*
X11644524Y-14565524D02*
X11635000Y-14556000D01*
X11635000Y-14556000D02*
X11615952Y-14546476D01*
X11615952Y-14546476D02*
X11577857Y-14546476D01*
X11577857Y-14546476D02*
X11558810Y-14556000D01*
X11558810Y-14556000D02*
X11549286Y-14565524D01*
X11549286Y-14565524D02*
X11539762Y-14584571D01*
X11539762Y-14584571D02*
X11539762Y-14632190D01*
X11539762Y-14632190D02*
X11549286Y-14651238D01*
X11549286Y-14651238D02*
X11558810Y-14660762D01*
X11558810Y-14660762D02*
X11577857Y-14670286D01*
X11577857Y-14670286D02*
X11615952Y-14670286D01*
X11615952Y-14670286D02*
X11635000Y-14660762D01*
X11635000Y-14660762D02*
X11644524Y-14651238D01*
X11644524Y-14651238D02*
X11654048Y-14632190D01*
X11835000Y-14546476D02*
X11739762Y-14546476D01*
X11739762Y-14546476D02*
X11730238Y-14641714D01*
X11730238Y-14641714D02*
X11739762Y-14632190D01*
X11739762Y-14632190D02*
X11758810Y-14622667D01*
X11758810Y-14622667D02*
X11806429Y-14622667D01*
X11806429Y-14622667D02*
X11825476Y-14632190D01*
X11825476Y-14632190D02*
X11835000Y-14641714D01*
X11835000Y-14641714D02*
X11844524Y-14660762D01*
X11844524Y-14660762D02*
X11844524Y-14708381D01*
X11844524Y-14708381D02*
X11835000Y-14727428D01*
X11835000Y-14727428D02*
X11825476Y-14736952D01*
X11825476Y-14736952D02*
X11806429Y-14746476D01*
X11806429Y-14746476D02*
X11758810Y-14746476D01*
X11758810Y-14746476D02*
X11739762Y-14736952D01*
X11739762Y-14736952D02*
X11730238Y-14727428D01*
X11920714Y-14546476D02*
X11920714Y-14584571D01*
X11996905Y-14546476D02*
X11996905Y-14584571D01*
X12259762Y-14822667D02*
X12250238Y-14813143D01*
X12250238Y-14813143D02*
X12231191Y-14784571D01*
X12231191Y-14784571D02*
X12221667Y-14765524D01*
X12221667Y-14765524D02*
X12212143Y-14736952D01*
X12212143Y-14736952D02*
X12202619Y-14689333D01*
X12202619Y-14689333D02*
X12202619Y-14651238D01*
X12202619Y-14651238D02*
X12212143Y-14603619D01*
X12212143Y-14603619D02*
X12221667Y-14575048D01*
X12221667Y-14575048D02*
X12231191Y-14556000D01*
X12231191Y-14556000D02*
X12250238Y-14527428D01*
X12250238Y-14527428D02*
X12259762Y-14517905D01*
X12316905Y-14546476D02*
X12440714Y-14546476D01*
X12440714Y-14546476D02*
X12374048Y-14622667D01*
X12374048Y-14622667D02*
X12402619Y-14622667D01*
X12402619Y-14622667D02*
X12421667Y-14632190D01*
X12421667Y-14632190D02*
X12431191Y-14641714D01*
X12431191Y-14641714D02*
X12440714Y-14660762D01*
X12440714Y-14660762D02*
X12440714Y-14708381D01*
X12440714Y-14708381D02*
X12431191Y-14727428D01*
X12431191Y-14727428D02*
X12421667Y-14736952D01*
X12421667Y-14736952D02*
X12402619Y-14746476D01*
X12402619Y-14746476D02*
X12345476Y-14746476D01*
X12345476Y-14746476D02*
X12326429Y-14736952D01*
X12326429Y-14736952D02*
X12316905Y-14727428D01*
X12646429Y-14746476D02*
X12646429Y-14546476D01*
X12732143Y-14746476D02*
X12732143Y-14641714D01*
X12732143Y-14641714D02*
X12722619Y-14622667D01*
X12722619Y-14622667D02*
X12703572Y-14613143D01*
X12703572Y-14613143D02*
X12675000Y-14613143D01*
X12675000Y-14613143D02*
X12655952Y-14622667D01*
X12655952Y-14622667D02*
X12646429Y-14632190D01*
X12855952Y-14746476D02*
X12836905Y-14736952D01*
X12836905Y-14736952D02*
X12827381Y-14727428D01*
X12827381Y-14727428D02*
X12817857Y-14708381D01*
X12817857Y-14708381D02*
X12817857Y-14651238D01*
X12817857Y-14651238D02*
X12827381Y-14632190D01*
X12827381Y-14632190D02*
X12836905Y-14622667D01*
X12836905Y-14622667D02*
X12855952Y-14613143D01*
X12855952Y-14613143D02*
X12884524Y-14613143D01*
X12884524Y-14613143D02*
X12903572Y-14622667D01*
X12903572Y-14622667D02*
X12913095Y-14632190D01*
X12913095Y-14632190D02*
X12922619Y-14651238D01*
X12922619Y-14651238D02*
X12922619Y-14708381D01*
X12922619Y-14708381D02*
X12913095Y-14727428D01*
X12913095Y-14727428D02*
X12903572Y-14736952D01*
X12903572Y-14736952D02*
X12884524Y-14746476D01*
X12884524Y-14746476D02*
X12855952Y-14746476D01*
X13036905Y-14746476D02*
X13017857Y-14736952D01*
X13017857Y-14736952D02*
X13008333Y-14717905D01*
X13008333Y-14717905D02*
X13008333Y-14546476D01*
X13189286Y-14736952D02*
X13170238Y-14746476D01*
X13170238Y-14746476D02*
X13132143Y-14746476D01*
X13132143Y-14746476D02*
X13113095Y-14736952D01*
X13113095Y-14736952D02*
X13103572Y-14717905D01*
X13103572Y-14717905D02*
X13103572Y-14641714D01*
X13103572Y-14641714D02*
X13113095Y-14622667D01*
X13113095Y-14622667D02*
X13132143Y-14613143D01*
X13132143Y-14613143D02*
X13170238Y-14613143D01*
X13170238Y-14613143D02*
X13189286Y-14622667D01*
X13189286Y-14622667D02*
X13198810Y-14641714D01*
X13198810Y-14641714D02*
X13198810Y-14660762D01*
X13198810Y-14660762D02*
X13103572Y-14679809D01*
X13275000Y-14736952D02*
X13294048Y-14746476D01*
X13294048Y-14746476D02*
X13332143Y-14746476D01*
X13332143Y-14746476D02*
X13351191Y-14736952D01*
X13351191Y-14736952D02*
X13360714Y-14717905D01*
X13360714Y-14717905D02*
X13360714Y-14708381D01*
X13360714Y-14708381D02*
X13351191Y-14689333D01*
X13351191Y-14689333D02*
X13332143Y-14679809D01*
X13332143Y-14679809D02*
X13303572Y-14679809D01*
X13303572Y-14679809D02*
X13284524Y-14670286D01*
X13284524Y-14670286D02*
X13275000Y-14651238D01*
X13275000Y-14651238D02*
X13275000Y-14641714D01*
X13275000Y-14641714D02*
X13284524Y-14622667D01*
X13284524Y-14622667D02*
X13303572Y-14613143D01*
X13303572Y-14613143D02*
X13332143Y-14613143D01*
X13332143Y-14613143D02*
X13351191Y-14622667D01*
X13427381Y-14822667D02*
X13436905Y-14813143D01*
X13436905Y-14813143D02*
X13455953Y-14784571D01*
X13455953Y-14784571D02*
X13465476Y-14765524D01*
X13465476Y-14765524D02*
X13475000Y-14736952D01*
X13475000Y-14736952D02*
X13484524Y-14689333D01*
X13484524Y-14689333D02*
X13484524Y-14651238D01*
X13484524Y-14651238D02*
X13475000Y-14603619D01*
X13475000Y-14603619D02*
X13465476Y-14575048D01*
X13465476Y-14575048D02*
X13455953Y-14556000D01*
X13455953Y-14556000D02*
X13436905Y-14527428D01*
X13436905Y-14527428D02*
X13427381Y-14517905D01*
M02*
