G04 #@! TF.GenerationSoftware,KiCad,Pcbnew,(7.0.0)*
G04 #@! TF.CreationDate,2024-02-07T16:47:37+08:00*
G04 #@! TF.ProjectId,revopod1,7265766f-706f-4643-912e-6b696361645f,rev?*
G04 #@! TF.SameCoordinates,Original*
G04 #@! TF.FileFunction,Copper,L3,Inr*
G04 #@! TF.FilePolarity,Positive*
%FSLAX46Y46*%
G04 Gerber Fmt 4.6, Leading zero omitted, Abs format (unit mm)*
G04 Created by KiCad (PCBNEW (7.0.0)) date 2024-02-07 16:47:37*
%MOMM*%
%LPD*%
G01*
G04 APERTURE LIST*
G04 Aperture macros list*
%AMOutline5P*
0 Free polygon, 5 corners , with rotation*
0 The origin of the aperture is its center*
0 number of corners: always 5*
0 $1 to $10 corner X, Y*
0 $11 Rotation angle, in degrees counterclockwise*
0 create outline with 5 corners*
4,1,5,$1,$2,$3,$4,$5,$6,$7,$8,$9,$10,$1,$2,$11*%
%AMOutline6P*
0 Free polygon, 6 corners , with rotation*
0 The origin of the aperture is its center*
0 number of corners: always 6*
0 $1 to $12 corner X, Y*
0 $13 Rotation angle, in degrees counterclockwise*
0 create outline with 6 corners*
4,1,6,$1,$2,$3,$4,$5,$6,$7,$8,$9,$10,$11,$12,$1,$2,$13*%
%AMOutline7P*
0 Free polygon, 7 corners , with rotation*
0 The origin of the aperture is its center*
0 number of corners: always 7*
0 $1 to $14 corner X, Y*
0 $15 Rotation angle, in degrees counterclockwise*
0 create outline with 7 corners*
4,1,7,$1,$2,$3,$4,$5,$6,$7,$8,$9,$10,$11,$12,$13,$14,$1,$2,$15*%
%AMOutline8P*
0 Free polygon, 8 corners , with rotation*
0 The origin of the aperture is its center*
0 number of corners: always 8*
0 $1 to $16 corner X, Y*
0 $17 Rotation angle, in degrees counterclockwise*
0 create outline with 8 corners*
4,1,8,$1,$2,$3,$4,$5,$6,$7,$8,$9,$10,$11,$12,$13,$14,$15,$16,$1,$2,$17*%
G04 Aperture macros list end*
G04 #@! TA.AperFunction,ComponentPad*
%ADD10Outline5P,-0.625000X0.375000X-0.375000X0.625000X0.625000X0.625000X0.625000X-0.625000X-0.625000X-0.625000X0.000000*%
G04 #@! TD*
G04 #@! TA.AperFunction,ComponentPad*
%ADD11C,1.250000*%
G04 #@! TD*
G04 #@! TA.AperFunction,ComponentPad*
%ADD12C,0.600000*%
G04 #@! TD*
G04 #@! TA.AperFunction,ViaPad*
%ADD13C,0.800000*%
G04 #@! TD*
G04 #@! TA.AperFunction,Conductor*
%ADD14C,0.200000*%
G04 #@! TD*
G04 #@! TA.AperFunction,Conductor*
%ADD15C,0.250000*%
G04 #@! TD*
G04 APERTURE END LIST*
D10*
X115999999Y-105999999D03*
D11*
X118000000Y-106000000D03*
X120000000Y-106000000D03*
D12*
X131700000Y-116200000D03*
X130700000Y-116200000D03*
X131700000Y-117100000D03*
X130700000Y-117100000D03*
X131700000Y-118000000D03*
X130700000Y-118000000D03*
D13*
X132352300Y-132071100D03*
X134350400Y-119700000D03*
X129700000Y-113900000D03*
X134062900Y-121008400D03*
X131624300Y-121355417D03*
X134700000Y-111900000D03*
X130600000Y-113300000D03*
X124086600Y-108879300D03*
X131879700Y-126811200D03*
X126041700Y-112078200D03*
X116864800Y-116006000D03*
X127242400Y-107595700D03*
X129694900Y-122622000D03*
X113678400Y-122844700D03*
X129700000Y-110200000D03*
X113622000Y-98893000D03*
X124265000Y-120863800D03*
X124648700Y-116021700D03*
X128568200Y-107323800D03*
X119289700Y-112541400D03*
X116527300Y-111597500D03*
X131076500Y-104376000D03*
X121098800Y-116045600D03*
X144189700Y-98640300D03*
X133800000Y-118800000D03*
X119800000Y-110800000D03*
X132348800Y-122100000D03*
X128200000Y-125400000D03*
X121100000Y-124500000D03*
X133824500Y-114000000D03*
X131643000Y-109967800D03*
X131643000Y-113400000D03*
X125984800Y-117450000D03*
X123321682Y-122268412D03*
X132725451Y-120049951D03*
X133341400Y-111783200D03*
X126209400Y-125421300D03*
X121351700Y-114756300D03*
X120343100Y-112543800D03*
X123754500Y-129309200D03*
X130864600Y-131848500D03*
X106942300Y-110905600D03*
X107884600Y-118065400D03*
X119686000Y-115270700D03*
X106500000Y-105700000D03*
X123200000Y-124544500D03*
X113030100Y-116600000D03*
X125137000Y-118900000D03*
X111870300Y-128322800D03*
X109341200Y-115906000D03*
X115661500Y-129900000D03*
X122823000Y-120060900D03*
X119968974Y-109774440D03*
X130810370Y-120485485D03*
X120406400Y-119430000D03*
X103655800Y-117314600D03*
X118610200Y-117248800D03*
X105305300Y-106725500D03*
X102878000Y-114836000D03*
X116461500Y-118792500D03*
D14*
X129705025Y-113894975D02*
X130205025Y-113894975D01*
X131624300Y-121355417D02*
X132694983Y-121355417D01*
X134524500Y-113710050D02*
X134524500Y-116926991D01*
X134524500Y-116926991D02*
X131624300Y-119827191D01*
X132751471Y-113300000D02*
X134114450Y-113300000D01*
X131624300Y-119827191D02*
X131624300Y-121355417D01*
X134114450Y-113300000D02*
X134524500Y-113710050D01*
X130410050Y-114100000D02*
X131951471Y-114100000D01*
X131951471Y-114100000D02*
X132751471Y-113300000D01*
X130205025Y-113894975D02*
X130410050Y-114100000D01*
X129700000Y-113900000D02*
X129705025Y-113894975D01*
X132694983Y-121355417D02*
X134350400Y-119700000D01*
D15*
X134700000Y-111900000D02*
X134091800Y-112508200D01*
X134091800Y-112508200D02*
X131391800Y-112508200D01*
X131391800Y-112508200D02*
X130600000Y-113300000D01*
X119324600Y-116006000D02*
X116864800Y-116006000D01*
X120097500Y-116778900D02*
X119324600Y-116006000D01*
X121393800Y-116778900D02*
X120097500Y-116778900D01*
X126041700Y-112131000D02*
X121393800Y-116778900D01*
X126041700Y-112078200D02*
X126041700Y-112131000D01*
X123784400Y-122846200D02*
X126049600Y-122846200D01*
X128975000Y-110925000D02*
X129700000Y-110200000D01*
X126049600Y-122846200D02*
X126051100Y-122844700D01*
X113678400Y-122844700D02*
X122882600Y-122844700D01*
X122882600Y-122844700D02*
X123033200Y-122995300D01*
X123033200Y-122995300D02*
X123635300Y-122995300D01*
X123635300Y-122995300D02*
X123784400Y-122846200D01*
X126051100Y-122844700D02*
X129472200Y-122844700D01*
X129694900Y-122622000D02*
X128975000Y-121902100D01*
X129472200Y-122844700D02*
X129694900Y-122622000D01*
X128975000Y-121902100D02*
X128975000Y-110925000D01*
X124977200Y-110914800D02*
X128568200Y-107323800D01*
X119289700Y-112541400D02*
X120916300Y-110914800D01*
X120916300Y-110914800D02*
X124977200Y-110914800D01*
X123748800Y-104376000D02*
X116527300Y-111597500D01*
X131076500Y-104376000D02*
X123748800Y-104376000D01*
X137841300Y-98640300D02*
X131301700Y-105179900D01*
X122951100Y-114193300D02*
X121098800Y-116045600D01*
X144189700Y-98640300D02*
X137841300Y-98640300D01*
X131301700Y-105661500D02*
X122951100Y-114012100D01*
X131301700Y-105179900D02*
X131301700Y-105661500D01*
X122951100Y-114012100D02*
X122951100Y-114193300D01*
D14*
X131100320Y-119785485D02*
X129984850Y-119785485D01*
X130394900Y-123205100D02*
X128200000Y-125400000D01*
X130394900Y-122332050D02*
X130394900Y-123205100D01*
X133824500Y-114000000D02*
X133100000Y-114724500D01*
X133100000Y-114724500D02*
X133100000Y-117785805D01*
X129984850Y-119785485D02*
X129984850Y-121922000D01*
X128200000Y-125400000D02*
X126645000Y-123845000D01*
X129984850Y-121922000D02*
X130394900Y-122332050D01*
X126645000Y-123845000D02*
X121755000Y-123845000D01*
X121755000Y-123845000D02*
X121100000Y-124500000D01*
X133100000Y-117785805D02*
X131100320Y-119785485D01*
D15*
X125984800Y-120169305D02*
X123885693Y-122268412D01*
X123885693Y-122268412D02*
X123321682Y-122268412D01*
X125984800Y-117450000D02*
X125984800Y-120169305D01*
X121351700Y-114756300D02*
X121351600Y-114756300D01*
X121351600Y-114756300D02*
X121351600Y-113552300D01*
X121351600Y-113552300D02*
X120343100Y-112543800D01*
X130864600Y-131848500D02*
X128325300Y-129309200D01*
X128325300Y-129309200D02*
X123754500Y-129309200D01*
X116283900Y-116600000D02*
X117935100Y-118251200D01*
X113030100Y-116600000D02*
X116283900Y-116600000D01*
X117935100Y-118251200D02*
X124488200Y-118251200D01*
X124488200Y-118251200D02*
X125137000Y-118900000D01*
X117429600Y-118703100D02*
X121645600Y-118703100D01*
X109341200Y-115906000D02*
X111500700Y-118065500D01*
X116792000Y-118065500D02*
X117429600Y-118703100D01*
X122913200Y-119970700D02*
X122823000Y-120060900D01*
X121645600Y-118703100D02*
X122913200Y-119970700D01*
X111500700Y-118065500D02*
X116792000Y-118065500D01*
X105860600Y-119519400D02*
X120317000Y-119519400D01*
X103655800Y-117314600D02*
X105860600Y-119519400D01*
X120317000Y-119519400D02*
X120406400Y-119430000D01*
X102878000Y-114836000D02*
X106834500Y-118792500D01*
X106834500Y-118792500D02*
X116461500Y-118792500D01*
M02*
