%TF.GenerationSoftware,KiCad,Pcbnew,8.0.0*%
%TF.CreationDate,2024-03-19T21:42:55+08:00*%
%TF.ProjectId,revopod1,7265766f-706f-4643-912e-6b696361645f,rev?*%
%TF.SameCoordinates,Original*%
%TF.FileFunction,Drillmap*%
%TF.FilePolarity,Positive*%
%FSLAX45Y45*%
G04 Gerber Fmt 4.5, Leading zero omitted, Abs format (unit mm)*
G04 Created by KiCad (PCBNEW 8.0.0) date 2024-03-19 21:42:55*
%MOMM*%
%LPD*%
G01*
G04 APERTURE LIST*
%ADD10C,0.100000*%
%ADD11C,0.200000*%
G04 APERTURE END LIST*
D10*
X8800000Y-10100000D02*
X10000000Y-10100000D01*
X8800000Y-10000000D02*
X8800000Y-10100000D01*
X10000000Y-10100000D02*
X10000000Y-13500000D01*
X10665000Y-13360000D02*
G75*
G02*
X10535000Y-13360000I-65000J0D01*
G01*
X10535000Y-13360000D02*
G75*
G02*
X10665000Y-13360000I65000J0D01*
G01*
X14800000Y-10000000D02*
X14800000Y-10100000D01*
X13600000Y-10100000D02*
X14800000Y-10100000D01*
X14800000Y-10000000D02*
X14800000Y-9800000D01*
X13075000Y-10240000D02*
G75*
G02*
X12945000Y-10240000I-65000J0D01*
G01*
X12945000Y-10240000D02*
G75*
G02*
X13075000Y-10240000I65000J0D01*
G01*
X8800000Y-9800000D02*
X8800000Y-10000000D01*
X10665000Y-10240000D02*
G75*
G02*
X10535000Y-10240000I-65000J0D01*
G01*
X10535000Y-10240000D02*
G75*
G02*
X10665000Y-10240000I65000J0D01*
G01*
X13600000Y-10100000D02*
X13600000Y-13500000D01*
X13600000Y-13500000D02*
X10000000Y-13500000D01*
X14800000Y-9800000D02*
X8800000Y-9800000D01*
D11*
D10*
X13077500Y-11577000D02*
X13107500Y-11607000D01*
X13107500Y-11577000D02*
X13077500Y-11607000D01*
X13077500Y-11667000D02*
X13107500Y-11697000D01*
X13107500Y-11667000D02*
X13077500Y-11697000D01*
X13077500Y-11757000D02*
X13107500Y-11787000D01*
X13107500Y-11757000D02*
X13077500Y-11787000D01*
X13177500Y-11577000D02*
X13207500Y-11607000D01*
X13207500Y-11577000D02*
X13177500Y-11607000D01*
X13177500Y-11667000D02*
X13207500Y-11697000D01*
X13207500Y-11667000D02*
X13177500Y-11697000D01*
X13177500Y-11757000D02*
X13207500Y-11787000D01*
X13207500Y-11757000D02*
X13177500Y-11787000D01*
X10276200Y-10781700D02*
G75*
G02*
X10236200Y-10781700I-20000J0D01*
G01*
X10236200Y-10781700D02*
G75*
G02*
X10276200Y-10781700I20000J0D01*
G01*
X10386380Y-11764770D02*
G75*
G02*
X10346380Y-11764770I-20000J0D01*
G01*
X10346380Y-11764770D02*
G75*
G02*
X10386380Y-11764770I20000J0D01*
G01*
X10386620Y-11390830D02*
G75*
G02*
X10346620Y-11390830I-20000J0D01*
G01*
X10346620Y-11390830D02*
G75*
G02*
X10386620Y-11390830I20000J0D01*
G01*
X10396650Y-11505270D02*
G75*
G02*
X10356650Y-11505270I-20000J0D01*
G01*
X10356650Y-11505270D02*
G75*
G02*
X10396650Y-11505270I20000J0D01*
G01*
X10560960Y-10661230D02*
G75*
G02*
X10520960Y-10661230I-20000J0D01*
G01*
X10520960Y-10661230D02*
G75*
G02*
X10560960Y-10661230I20000J0D01*
G01*
X10598320Y-12091990D02*
G75*
G02*
X10558320Y-12091990I-20000J0D01*
G01*
X10558320Y-12091990D02*
G75*
G02*
X10598320Y-12091990I20000J0D01*
G01*
X10718180Y-11535150D02*
G75*
G02*
X10678180Y-11535150I-20000J0D01*
G01*
X10678180Y-11535150D02*
G75*
G02*
X10718180Y-11535150I20000J0D01*
G01*
X10892370Y-12971640D02*
G75*
G02*
X10852370Y-12971640I-20000J0D01*
G01*
X10852370Y-12971640D02*
G75*
G02*
X10892370Y-12971640I20000J0D01*
G01*
X10893340Y-10459160D02*
G75*
G02*
X10853340Y-10459160I-20000J0D01*
G01*
X10853340Y-10459160D02*
G75*
G02*
X10893340Y-10459160I20000J0D01*
G01*
X11402260Y-11890000D02*
G75*
G02*
X11362260Y-11890000I-20000J0D01*
G01*
X11362260Y-11890000D02*
G75*
G02*
X11402260Y-11890000I20000J0D01*
G01*
X11568000Y-12485250D02*
G75*
G02*
X11528000Y-12485250I-20000J0D01*
G01*
X11528000Y-12485250D02*
G75*
G02*
X11568000Y-12485250I20000J0D01*
G01*
X11585790Y-12990000D02*
G75*
G02*
X11545790Y-12990000I-20000J0D01*
G01*
X11545790Y-12990000D02*
G75*
G02*
X11585790Y-12990000I20000J0D01*
G01*
X11864470Y-10769300D02*
G75*
G02*
X11824470Y-10769300I-20000J0D01*
G01*
X11824470Y-10769300D02*
G75*
G02*
X11864470Y-10769300I20000J0D01*
G01*
X11881240Y-11674280D02*
G75*
G02*
X11841240Y-11674280I-20000J0D01*
G01*
X11841240Y-11674280D02*
G75*
G02*
X11881240Y-11674280I20000J0D01*
G01*
X12003670Y-11185000D02*
G75*
G02*
X11963670Y-11185000I-20000J0D01*
G01*
X11963670Y-11185000D02*
G75*
G02*
X12003670Y-11185000I20000J0D01*
G01*
X12027390Y-9884250D02*
G75*
G02*
X11987390Y-9884250I-20000J0D01*
G01*
X11987390Y-9884250D02*
G75*
G02*
X12027390Y-9884250I20000J0D01*
G01*
X12058150Y-11885410D02*
G75*
G02*
X12018150Y-11885410I-20000J0D01*
G01*
X12018150Y-11885410D02*
G75*
G02*
X12058150Y-11885410I20000J0D01*
G01*
X12169000Y-12425000D02*
G75*
G02*
X12129000Y-12425000I-20000J0D01*
G01*
X12129000Y-12425000D02*
G75*
G02*
X12169000Y-12425000I20000J0D01*
G01*
X12197760Y-11888010D02*
G75*
G02*
X12157760Y-11888010I-20000J0D01*
G01*
X12157760Y-11888010D02*
G75*
G02*
X12197760Y-11888010I20000J0D01*
G01*
X12269540Y-12454500D02*
G75*
G02*
X12229540Y-12454500I-20000J0D01*
G01*
X12229540Y-12454500D02*
G75*
G02*
X12269540Y-12454500I20000J0D01*
G01*
X12306910Y-13375600D02*
G75*
G02*
X12266910Y-13375600I-20000J0D01*
G01*
X12266910Y-13375600D02*
G75*
G02*
X12306910Y-13375600I20000J0D01*
G01*
X12343450Y-12381830D02*
G75*
G02*
X12303450Y-12381830I-20000J0D01*
G01*
X12303450Y-12381830D02*
G75*
G02*
X12343450Y-12381830I20000J0D01*
G01*
X12351000Y-12857430D02*
G75*
G02*
X12311000Y-12857430I-20000J0D01*
G01*
X12311000Y-12857430D02*
G75*
G02*
X12351000Y-12857430I20000J0D01*
G01*
X12391910Y-12075830D02*
G75*
G02*
X12351910Y-12075830I-20000J0D01*
G01*
X12351910Y-12075830D02*
G75*
G02*
X12391910Y-12075830I20000J0D01*
G01*
X12404230Y-10970840D02*
G75*
G02*
X12364230Y-10970840I-20000J0D01*
G01*
X12364230Y-10970840D02*
G75*
G02*
X12404230Y-10970840I20000J0D01*
G01*
X12475480Y-12159320D02*
G75*
G02*
X12435480Y-12159320I-20000J0D01*
G01*
X12435480Y-12159320D02*
G75*
G02*
X12475480Y-12159320I20000J0D01*
G01*
X12477890Y-11886360D02*
G75*
G02*
X12437890Y-11886360I-20000J0D01*
G01*
X12437890Y-11886360D02*
G75*
G02*
X12477890Y-11886360I20000J0D01*
G01*
X12505000Y-12340000D02*
G75*
G02*
X12465000Y-12340000I-20000J0D01*
G01*
X12465000Y-12340000D02*
G75*
G02*
X12505000Y-12340000I20000J0D01*
G01*
X12587480Y-11539090D02*
G75*
G02*
X12547480Y-11539090I-20000J0D01*
G01*
X12547480Y-11539090D02*
G75*
G02*
X12587480Y-11539090I20000J0D01*
G01*
X12588020Y-12845690D02*
G75*
G02*
X12548020Y-12845690I-20000J0D01*
G01*
X12548020Y-12845690D02*
G75*
G02*
X12588020Y-12845690I20000J0D01*
G01*
X12636420Y-11147000D02*
G75*
G02*
X12596420Y-11147000I-20000J0D01*
G01*
X12596420Y-11147000D02*
G75*
G02*
X12636420Y-11147000I20000J0D01*
G01*
X12637470Y-13375600D02*
G75*
G02*
X12597470Y-13375600I-20000J0D01*
G01*
X12597470Y-13375600D02*
G75*
G02*
X12637470Y-13375600I20000J0D01*
G01*
X12660110Y-12916860D02*
G75*
G02*
X12620110Y-12916860I-20000J0D01*
G01*
X12620110Y-12916860D02*
G75*
G02*
X12660110Y-12916860I20000J0D01*
G01*
X12730250Y-12728730D02*
G75*
G02*
X12690250Y-12728730I-20000J0D01*
G01*
X12690250Y-12728730D02*
G75*
G02*
X12730250Y-12728730I20000J0D01*
G01*
X12732750Y-10776000D02*
G75*
G02*
X12692750Y-10776000I-20000J0D01*
G01*
X12692750Y-10776000D02*
G75*
G02*
X12732750Y-10776000I20000J0D01*
G01*
X12749000Y-11684000D02*
G75*
G02*
X12709000Y-11684000I-20000J0D01*
G01*
X12709000Y-11684000D02*
G75*
G02*
X12749000Y-11684000I20000J0D01*
G01*
X12823840Y-11406910D02*
G75*
G02*
X12783840Y-11406910I-20000J0D01*
G01*
X12783840Y-11406910D02*
G75*
G02*
X12823840Y-11406910I20000J0D01*
G01*
X12889680Y-12343860D02*
G75*
G02*
X12849680Y-12343860I-20000J0D01*
G01*
X12849680Y-12343860D02*
G75*
G02*
X12889680Y-12343860I20000J0D01*
G01*
X12965820Y-10807210D02*
G75*
G02*
X12925820Y-10807210I-20000J0D01*
G01*
X12925820Y-10807210D02*
G75*
G02*
X12965820Y-10807210I20000J0D01*
G01*
X12971000Y-12719000D02*
G75*
G02*
X12931000Y-12719000I-20000J0D01*
G01*
X12931000Y-12719000D02*
G75*
G02*
X12971000Y-12719000I20000J0D01*
G01*
X12986000Y-11876000D02*
G75*
G02*
X12946000Y-11876000I-20000J0D01*
G01*
X12946000Y-11876000D02*
G75*
G02*
X12986000Y-11876000I20000J0D01*
G01*
X12991000Y-12000000D02*
G75*
G02*
X12951000Y-12000000I-20000J0D01*
G01*
X12951000Y-12000000D02*
G75*
G02*
X12991000Y-12000000I20000J0D01*
G01*
X13051750Y-11322000D02*
G75*
G02*
X13011750Y-11322000I-20000J0D01*
G01*
X13011750Y-11322000D02*
G75*
G02*
X13051750Y-11322000I20000J0D01*
G01*
X13063000Y-13350000D02*
G75*
G02*
X13023000Y-13350000I-20000J0D01*
G01*
X13023000Y-13350000D02*
G75*
G02*
X13063000Y-13350000I20000J0D01*
G01*
X13091000Y-10966000D02*
G75*
G02*
X13051000Y-10966000I-20000J0D01*
G01*
X13051000Y-10966000D02*
G75*
G02*
X13091000Y-10966000I20000J0D01*
G01*
X13109820Y-11146000D02*
G75*
G02*
X13069820Y-11146000I-20000J0D01*
G01*
X13069820Y-11146000D02*
G75*
G02*
X13109820Y-11146000I20000J0D01*
G01*
X13182620Y-12255560D02*
G75*
G02*
X13142620Y-12255560I-20000J0D01*
G01*
X13142620Y-12255560D02*
G75*
G02*
X13182620Y-12255560I20000J0D01*
G01*
X13210280Y-12851000D02*
G75*
G02*
X13170280Y-12851000I-20000J0D01*
G01*
X13170280Y-12851000D02*
G75*
G02*
X13210280Y-12851000I20000J0D01*
G01*
X13387693Y-11594615D02*
G75*
G02*
X13347693Y-11594615I-20000J0D01*
G01*
X13347693Y-11594615D02*
G75*
G02*
X13387693Y-11594615I20000J0D01*
G01*
X13421500Y-11445500D02*
G75*
G02*
X13381500Y-11445500I-20000J0D01*
G01*
X13381500Y-11445500D02*
G75*
G02*
X13421500Y-11445500I20000J0D01*
G01*
X13456750Y-12206640D02*
G75*
G02*
X13416750Y-12206640I-20000J0D01*
G01*
X13416750Y-12206640D02*
G75*
G02*
X13456750Y-12206640I20000J0D01*
G01*
X13539000Y-11319000D02*
G75*
G02*
X13499000Y-11319000I-20000J0D01*
G01*
X13499000Y-11319000D02*
G75*
G02*
X13539000Y-11319000I20000J0D01*
G01*
X13790000Y-9863790D02*
G75*
G02*
X13750000Y-9863790I-20000J0D01*
G01*
X13750000Y-9863790D02*
G75*
G02*
X13790000Y-9863790I20000J0D01*
G01*
X13982130Y-9926860D02*
G75*
G02*
X13942130Y-9926860I-20000J0D01*
G01*
X13942130Y-9926860D02*
G75*
G02*
X13982130Y-9926860I20000J0D01*
G01*
X14582730Y-9919900D02*
G75*
G02*
X14542730Y-9919900I-20000J0D01*
G01*
X14542730Y-9919900D02*
G75*
G02*
X14582730Y-9919900I20000J0D01*
G01*
X11600000Y-10562500D02*
X11600000Y-10637500D01*
X11562500Y-10600000D02*
X11637500Y-10600000D01*
X11800000Y-10562500D02*
X11800000Y-10637500D01*
X11762500Y-10600000D02*
X11837500Y-10600000D01*
X12000000Y-10562500D02*
X12000000Y-10637500D01*
X11962500Y-10600000D02*
X12037500Y-10600000D01*
D11*
X9055777Y-13816484D02*
X9055777Y-13616484D01*
X9055777Y-13616484D02*
X9103396Y-13616484D01*
X9103396Y-13616484D02*
X9131967Y-13626008D01*
X9131967Y-13626008D02*
X9151015Y-13645055D01*
X9151015Y-13645055D02*
X9160539Y-13664103D01*
X9160539Y-13664103D02*
X9170063Y-13702198D01*
X9170063Y-13702198D02*
X9170063Y-13730769D01*
X9170063Y-13730769D02*
X9160539Y-13768865D01*
X9160539Y-13768865D02*
X9151015Y-13787912D01*
X9151015Y-13787912D02*
X9131967Y-13806960D01*
X9131967Y-13806960D02*
X9103396Y-13816484D01*
X9103396Y-13816484D02*
X9055777Y-13816484D01*
X9255777Y-13816484D02*
X9255777Y-13683150D01*
X9255777Y-13721246D02*
X9265301Y-13702198D01*
X9265301Y-13702198D02*
X9274824Y-13692674D01*
X9274824Y-13692674D02*
X9293872Y-13683150D01*
X9293872Y-13683150D02*
X9312920Y-13683150D01*
X9379586Y-13816484D02*
X9379586Y-13683150D01*
X9379586Y-13616484D02*
X9370063Y-13626008D01*
X9370063Y-13626008D02*
X9379586Y-13635531D01*
X9379586Y-13635531D02*
X9389110Y-13626008D01*
X9389110Y-13626008D02*
X9379586Y-13616484D01*
X9379586Y-13616484D02*
X9379586Y-13635531D01*
X9503396Y-13816484D02*
X9484348Y-13806960D01*
X9484348Y-13806960D02*
X9474824Y-13787912D01*
X9474824Y-13787912D02*
X9474824Y-13616484D01*
X9608158Y-13816484D02*
X9589110Y-13806960D01*
X9589110Y-13806960D02*
X9579586Y-13787912D01*
X9579586Y-13787912D02*
X9579586Y-13616484D01*
X9836729Y-13816484D02*
X9836729Y-13616484D01*
X9836729Y-13616484D02*
X9903396Y-13759341D01*
X9903396Y-13759341D02*
X9970063Y-13616484D01*
X9970063Y-13616484D02*
X9970063Y-13816484D01*
X10151015Y-13816484D02*
X10151015Y-13711722D01*
X10151015Y-13711722D02*
X10141491Y-13692674D01*
X10141491Y-13692674D02*
X10122444Y-13683150D01*
X10122444Y-13683150D02*
X10084348Y-13683150D01*
X10084348Y-13683150D02*
X10065301Y-13692674D01*
X10151015Y-13806960D02*
X10131967Y-13816484D01*
X10131967Y-13816484D02*
X10084348Y-13816484D01*
X10084348Y-13816484D02*
X10065301Y-13806960D01*
X10065301Y-13806960D02*
X10055777Y-13787912D01*
X10055777Y-13787912D02*
X10055777Y-13768865D01*
X10055777Y-13768865D02*
X10065301Y-13749817D01*
X10065301Y-13749817D02*
X10084348Y-13740293D01*
X10084348Y-13740293D02*
X10131967Y-13740293D01*
X10131967Y-13740293D02*
X10151015Y-13730769D01*
X10246253Y-13683150D02*
X10246253Y-13883150D01*
X10246253Y-13692674D02*
X10265301Y-13683150D01*
X10265301Y-13683150D02*
X10303396Y-13683150D01*
X10303396Y-13683150D02*
X10322444Y-13692674D01*
X10322444Y-13692674D02*
X10331967Y-13702198D01*
X10331967Y-13702198D02*
X10341491Y-13721246D01*
X10341491Y-13721246D02*
X10341491Y-13778388D01*
X10341491Y-13778388D02*
X10331967Y-13797436D01*
X10331967Y-13797436D02*
X10322444Y-13806960D01*
X10322444Y-13806960D02*
X10303396Y-13816484D01*
X10303396Y-13816484D02*
X10265301Y-13816484D01*
X10265301Y-13816484D02*
X10246253Y-13806960D01*
X10427205Y-13797436D02*
X10436729Y-13806960D01*
X10436729Y-13806960D02*
X10427205Y-13816484D01*
X10427205Y-13816484D02*
X10417682Y-13806960D01*
X10417682Y-13806960D02*
X10427205Y-13797436D01*
X10427205Y-13797436D02*
X10427205Y-13816484D01*
X10427205Y-13692674D02*
X10436729Y-13702198D01*
X10436729Y-13702198D02*
X10427205Y-13711722D01*
X10427205Y-13711722D02*
X10417682Y-13702198D01*
X10417682Y-13702198D02*
X10427205Y-13692674D01*
X10427205Y-13692674D02*
X10427205Y-13711722D01*
D10*
X8765000Y-14130000D02*
X8795000Y-14160000D01*
X8795000Y-14130000D02*
X8765000Y-14160000D01*
D11*
X9093872Y-14036484D02*
X9112920Y-14036484D01*
X9112920Y-14036484D02*
X9131967Y-14046008D01*
X9131967Y-14046008D02*
X9141491Y-14055531D01*
X9141491Y-14055531D02*
X9151015Y-14074579D01*
X9151015Y-14074579D02*
X9160539Y-14112674D01*
X9160539Y-14112674D02*
X9160539Y-14160293D01*
X9160539Y-14160293D02*
X9151015Y-14198388D01*
X9151015Y-14198388D02*
X9141491Y-14217436D01*
X9141491Y-14217436D02*
X9131967Y-14226960D01*
X9131967Y-14226960D02*
X9112920Y-14236484D01*
X9112920Y-14236484D02*
X9093872Y-14236484D01*
X9093872Y-14236484D02*
X9074824Y-14226960D01*
X9074824Y-14226960D02*
X9065301Y-14217436D01*
X9065301Y-14217436D02*
X9055777Y-14198388D01*
X9055777Y-14198388D02*
X9046253Y-14160293D01*
X9046253Y-14160293D02*
X9046253Y-14112674D01*
X9046253Y-14112674D02*
X9055777Y-14074579D01*
X9055777Y-14074579D02*
X9065301Y-14055531D01*
X9065301Y-14055531D02*
X9074824Y-14046008D01*
X9074824Y-14046008D02*
X9093872Y-14036484D01*
X9246253Y-14217436D02*
X9255777Y-14226960D01*
X9255777Y-14226960D02*
X9246253Y-14236484D01*
X9246253Y-14236484D02*
X9236729Y-14226960D01*
X9236729Y-14226960D02*
X9246253Y-14217436D01*
X9246253Y-14217436D02*
X9246253Y-14236484D01*
X9322444Y-14036484D02*
X9446253Y-14036484D01*
X9446253Y-14036484D02*
X9379586Y-14112674D01*
X9379586Y-14112674D02*
X9408158Y-14112674D01*
X9408158Y-14112674D02*
X9427205Y-14122198D01*
X9427205Y-14122198D02*
X9436729Y-14131722D01*
X9436729Y-14131722D02*
X9446253Y-14150769D01*
X9446253Y-14150769D02*
X9446253Y-14198388D01*
X9446253Y-14198388D02*
X9436729Y-14217436D01*
X9436729Y-14217436D02*
X9427205Y-14226960D01*
X9427205Y-14226960D02*
X9408158Y-14236484D01*
X9408158Y-14236484D02*
X9351015Y-14236484D01*
X9351015Y-14236484D02*
X9331967Y-14226960D01*
X9331967Y-14226960D02*
X9322444Y-14217436D01*
X9570063Y-14036484D02*
X9589110Y-14036484D01*
X9589110Y-14036484D02*
X9608158Y-14046008D01*
X9608158Y-14046008D02*
X9617682Y-14055531D01*
X9617682Y-14055531D02*
X9627205Y-14074579D01*
X9627205Y-14074579D02*
X9636729Y-14112674D01*
X9636729Y-14112674D02*
X9636729Y-14160293D01*
X9636729Y-14160293D02*
X9627205Y-14198388D01*
X9627205Y-14198388D02*
X9617682Y-14217436D01*
X9617682Y-14217436D02*
X9608158Y-14226960D01*
X9608158Y-14226960D02*
X9589110Y-14236484D01*
X9589110Y-14236484D02*
X9570063Y-14236484D01*
X9570063Y-14236484D02*
X9551015Y-14226960D01*
X9551015Y-14226960D02*
X9541491Y-14217436D01*
X9541491Y-14217436D02*
X9531967Y-14198388D01*
X9531967Y-14198388D02*
X9522444Y-14160293D01*
X9522444Y-14160293D02*
X9522444Y-14112674D01*
X9522444Y-14112674D02*
X9531967Y-14074579D01*
X9531967Y-14074579D02*
X9541491Y-14055531D01*
X9541491Y-14055531D02*
X9551015Y-14046008D01*
X9551015Y-14046008D02*
X9570063Y-14036484D01*
X9760539Y-14036484D02*
X9779586Y-14036484D01*
X9779586Y-14036484D02*
X9798634Y-14046008D01*
X9798634Y-14046008D02*
X9808158Y-14055531D01*
X9808158Y-14055531D02*
X9817682Y-14074579D01*
X9817682Y-14074579D02*
X9827205Y-14112674D01*
X9827205Y-14112674D02*
X9827205Y-14160293D01*
X9827205Y-14160293D02*
X9817682Y-14198388D01*
X9817682Y-14198388D02*
X9808158Y-14217436D01*
X9808158Y-14217436D02*
X9798634Y-14226960D01*
X9798634Y-14226960D02*
X9779586Y-14236484D01*
X9779586Y-14236484D02*
X9760539Y-14236484D01*
X9760539Y-14236484D02*
X9741491Y-14226960D01*
X9741491Y-14226960D02*
X9731967Y-14217436D01*
X9731967Y-14217436D02*
X9722444Y-14198388D01*
X9722444Y-14198388D02*
X9712920Y-14160293D01*
X9712920Y-14160293D02*
X9712920Y-14112674D01*
X9712920Y-14112674D02*
X9722444Y-14074579D01*
X9722444Y-14074579D02*
X9731967Y-14055531D01*
X9731967Y-14055531D02*
X9741491Y-14046008D01*
X9741491Y-14046008D02*
X9760539Y-14036484D01*
X9912920Y-14236484D02*
X9912920Y-14103150D01*
X9912920Y-14122198D02*
X9922444Y-14112674D01*
X9922444Y-14112674D02*
X9941491Y-14103150D01*
X9941491Y-14103150D02*
X9970063Y-14103150D01*
X9970063Y-14103150D02*
X9989110Y-14112674D01*
X9989110Y-14112674D02*
X9998634Y-14131722D01*
X9998634Y-14131722D02*
X9998634Y-14236484D01*
X9998634Y-14131722D02*
X10008158Y-14112674D01*
X10008158Y-14112674D02*
X10027205Y-14103150D01*
X10027205Y-14103150D02*
X10055777Y-14103150D01*
X10055777Y-14103150D02*
X10074825Y-14112674D01*
X10074825Y-14112674D02*
X10084348Y-14131722D01*
X10084348Y-14131722D02*
X10084348Y-14236484D01*
X10179586Y-14236484D02*
X10179586Y-14103150D01*
X10179586Y-14122198D02*
X10189110Y-14112674D01*
X10189110Y-14112674D02*
X10208158Y-14103150D01*
X10208158Y-14103150D02*
X10236729Y-14103150D01*
X10236729Y-14103150D02*
X10255777Y-14112674D01*
X10255777Y-14112674D02*
X10265301Y-14131722D01*
X10265301Y-14131722D02*
X10265301Y-14236484D01*
X10265301Y-14131722D02*
X10274825Y-14112674D01*
X10274825Y-14112674D02*
X10293872Y-14103150D01*
X10293872Y-14103150D02*
X10322444Y-14103150D01*
X10322444Y-14103150D02*
X10341491Y-14112674D01*
X10341491Y-14112674D02*
X10351015Y-14131722D01*
X10351015Y-14131722D02*
X10351015Y-14236484D01*
X10741491Y-14026960D02*
X10570063Y-14284103D01*
X10998634Y-14036484D02*
X11017682Y-14036484D01*
X11017682Y-14036484D02*
X11036729Y-14046008D01*
X11036729Y-14046008D02*
X11046253Y-14055531D01*
X11046253Y-14055531D02*
X11055777Y-14074579D01*
X11055777Y-14074579D02*
X11065301Y-14112674D01*
X11065301Y-14112674D02*
X11065301Y-14160293D01*
X11065301Y-14160293D02*
X11055777Y-14198388D01*
X11055777Y-14198388D02*
X11046253Y-14217436D01*
X11046253Y-14217436D02*
X11036729Y-14226960D01*
X11036729Y-14226960D02*
X11017682Y-14236484D01*
X11017682Y-14236484D02*
X10998634Y-14236484D01*
X10998634Y-14236484D02*
X10979587Y-14226960D01*
X10979587Y-14226960D02*
X10970063Y-14217436D01*
X10970063Y-14217436D02*
X10960539Y-14198388D01*
X10960539Y-14198388D02*
X10951015Y-14160293D01*
X10951015Y-14160293D02*
X10951015Y-14112674D01*
X10951015Y-14112674D02*
X10960539Y-14074579D01*
X10960539Y-14074579D02*
X10970063Y-14055531D01*
X10970063Y-14055531D02*
X10979587Y-14046008D01*
X10979587Y-14046008D02*
X10998634Y-14036484D01*
X11151015Y-14217436D02*
X11160539Y-14226960D01*
X11160539Y-14226960D02*
X11151015Y-14236484D01*
X11151015Y-14236484D02*
X11141491Y-14226960D01*
X11141491Y-14226960D02*
X11151015Y-14217436D01*
X11151015Y-14217436D02*
X11151015Y-14236484D01*
X11284348Y-14036484D02*
X11303396Y-14036484D01*
X11303396Y-14036484D02*
X11322444Y-14046008D01*
X11322444Y-14046008D02*
X11331967Y-14055531D01*
X11331967Y-14055531D02*
X11341491Y-14074579D01*
X11341491Y-14074579D02*
X11351015Y-14112674D01*
X11351015Y-14112674D02*
X11351015Y-14160293D01*
X11351015Y-14160293D02*
X11341491Y-14198388D01*
X11341491Y-14198388D02*
X11331967Y-14217436D01*
X11331967Y-14217436D02*
X11322444Y-14226960D01*
X11322444Y-14226960D02*
X11303396Y-14236484D01*
X11303396Y-14236484D02*
X11284348Y-14236484D01*
X11284348Y-14236484D02*
X11265301Y-14226960D01*
X11265301Y-14226960D02*
X11255777Y-14217436D01*
X11255777Y-14217436D02*
X11246253Y-14198388D01*
X11246253Y-14198388D02*
X11236729Y-14160293D01*
X11236729Y-14160293D02*
X11236729Y-14112674D01*
X11236729Y-14112674D02*
X11246253Y-14074579D01*
X11246253Y-14074579D02*
X11255777Y-14055531D01*
X11255777Y-14055531D02*
X11265301Y-14046008D01*
X11265301Y-14046008D02*
X11284348Y-14036484D01*
X11541491Y-14236484D02*
X11427206Y-14236484D01*
X11484348Y-14236484D02*
X11484348Y-14036484D01*
X11484348Y-14036484D02*
X11465301Y-14065055D01*
X11465301Y-14065055D02*
X11446253Y-14084103D01*
X11446253Y-14084103D02*
X11427206Y-14093627D01*
X11731967Y-14236484D02*
X11617682Y-14236484D01*
X11674825Y-14236484D02*
X11674825Y-14036484D01*
X11674825Y-14036484D02*
X11655777Y-14065055D01*
X11655777Y-14065055D02*
X11636729Y-14084103D01*
X11636729Y-14084103D02*
X11617682Y-14093627D01*
X11846253Y-14122198D02*
X11827206Y-14112674D01*
X11827206Y-14112674D02*
X11817682Y-14103150D01*
X11817682Y-14103150D02*
X11808158Y-14084103D01*
X11808158Y-14084103D02*
X11808158Y-14074579D01*
X11808158Y-14074579D02*
X11817682Y-14055531D01*
X11817682Y-14055531D02*
X11827206Y-14046008D01*
X11827206Y-14046008D02*
X11846253Y-14036484D01*
X11846253Y-14036484D02*
X11884348Y-14036484D01*
X11884348Y-14036484D02*
X11903396Y-14046008D01*
X11903396Y-14046008D02*
X11912920Y-14055531D01*
X11912920Y-14055531D02*
X11922444Y-14074579D01*
X11922444Y-14074579D02*
X11922444Y-14084103D01*
X11922444Y-14084103D02*
X11912920Y-14103150D01*
X11912920Y-14103150D02*
X11903396Y-14112674D01*
X11903396Y-14112674D02*
X11884348Y-14122198D01*
X11884348Y-14122198D02*
X11846253Y-14122198D01*
X11846253Y-14122198D02*
X11827206Y-14131722D01*
X11827206Y-14131722D02*
X11817682Y-14141246D01*
X11817682Y-14141246D02*
X11808158Y-14160293D01*
X11808158Y-14160293D02*
X11808158Y-14198388D01*
X11808158Y-14198388D02*
X11817682Y-14217436D01*
X11817682Y-14217436D02*
X11827206Y-14226960D01*
X11827206Y-14226960D02*
X11846253Y-14236484D01*
X11846253Y-14236484D02*
X11884348Y-14236484D01*
X11884348Y-14236484D02*
X11903396Y-14226960D01*
X11903396Y-14226960D02*
X11912920Y-14217436D01*
X11912920Y-14217436D02*
X11922444Y-14198388D01*
X11922444Y-14198388D02*
X11922444Y-14160293D01*
X11922444Y-14160293D02*
X11912920Y-14141246D01*
X11912920Y-14141246D02*
X11903396Y-14131722D01*
X11903396Y-14131722D02*
X11884348Y-14122198D01*
X11998634Y-14036484D02*
X11998634Y-14074579D01*
X12074825Y-14036484D02*
X12074825Y-14074579D01*
X12370063Y-14312674D02*
X12360539Y-14303150D01*
X12360539Y-14303150D02*
X12341491Y-14274579D01*
X12341491Y-14274579D02*
X12331968Y-14255531D01*
X12331968Y-14255531D02*
X12322444Y-14226960D01*
X12322444Y-14226960D02*
X12312920Y-14179341D01*
X12312920Y-14179341D02*
X12312920Y-14141246D01*
X12312920Y-14141246D02*
X12322444Y-14093627D01*
X12322444Y-14093627D02*
X12331968Y-14065055D01*
X12331968Y-14065055D02*
X12341491Y-14046008D01*
X12341491Y-14046008D02*
X12360539Y-14017436D01*
X12360539Y-14017436D02*
X12370063Y-14007912D01*
X12531968Y-14036484D02*
X12493872Y-14036484D01*
X12493872Y-14036484D02*
X12474825Y-14046008D01*
X12474825Y-14046008D02*
X12465301Y-14055531D01*
X12465301Y-14055531D02*
X12446253Y-14084103D01*
X12446253Y-14084103D02*
X12436729Y-14122198D01*
X12436729Y-14122198D02*
X12436729Y-14198388D01*
X12436729Y-14198388D02*
X12446253Y-14217436D01*
X12446253Y-14217436D02*
X12455777Y-14226960D01*
X12455777Y-14226960D02*
X12474825Y-14236484D01*
X12474825Y-14236484D02*
X12512920Y-14236484D01*
X12512920Y-14236484D02*
X12531968Y-14226960D01*
X12531968Y-14226960D02*
X12541491Y-14217436D01*
X12541491Y-14217436D02*
X12551015Y-14198388D01*
X12551015Y-14198388D02*
X12551015Y-14150769D01*
X12551015Y-14150769D02*
X12541491Y-14131722D01*
X12541491Y-14131722D02*
X12531968Y-14122198D01*
X12531968Y-14122198D02*
X12512920Y-14112674D01*
X12512920Y-14112674D02*
X12474825Y-14112674D01*
X12474825Y-14112674D02*
X12455777Y-14122198D01*
X12455777Y-14122198D02*
X12446253Y-14131722D01*
X12446253Y-14131722D02*
X12436729Y-14150769D01*
X12789110Y-14236484D02*
X12789110Y-14036484D01*
X12874825Y-14236484D02*
X12874825Y-14131722D01*
X12874825Y-14131722D02*
X12865301Y-14112674D01*
X12865301Y-14112674D02*
X12846253Y-14103150D01*
X12846253Y-14103150D02*
X12817682Y-14103150D01*
X12817682Y-14103150D02*
X12798634Y-14112674D01*
X12798634Y-14112674D02*
X12789110Y-14122198D01*
X12998634Y-14236484D02*
X12979587Y-14226960D01*
X12979587Y-14226960D02*
X12970063Y-14217436D01*
X12970063Y-14217436D02*
X12960539Y-14198388D01*
X12960539Y-14198388D02*
X12960539Y-14141246D01*
X12960539Y-14141246D02*
X12970063Y-14122198D01*
X12970063Y-14122198D02*
X12979587Y-14112674D01*
X12979587Y-14112674D02*
X12998634Y-14103150D01*
X12998634Y-14103150D02*
X13027206Y-14103150D01*
X13027206Y-14103150D02*
X13046253Y-14112674D01*
X13046253Y-14112674D02*
X13055777Y-14122198D01*
X13055777Y-14122198D02*
X13065301Y-14141246D01*
X13065301Y-14141246D02*
X13065301Y-14198388D01*
X13065301Y-14198388D02*
X13055777Y-14217436D01*
X13055777Y-14217436D02*
X13046253Y-14226960D01*
X13046253Y-14226960D02*
X13027206Y-14236484D01*
X13027206Y-14236484D02*
X12998634Y-14236484D01*
X13179587Y-14236484D02*
X13160539Y-14226960D01*
X13160539Y-14226960D02*
X13151015Y-14207912D01*
X13151015Y-14207912D02*
X13151015Y-14036484D01*
X13331968Y-14226960D02*
X13312920Y-14236484D01*
X13312920Y-14236484D02*
X13274825Y-14236484D01*
X13274825Y-14236484D02*
X13255777Y-14226960D01*
X13255777Y-14226960D02*
X13246253Y-14207912D01*
X13246253Y-14207912D02*
X13246253Y-14131722D01*
X13246253Y-14131722D02*
X13255777Y-14112674D01*
X13255777Y-14112674D02*
X13274825Y-14103150D01*
X13274825Y-14103150D02*
X13312920Y-14103150D01*
X13312920Y-14103150D02*
X13331968Y-14112674D01*
X13331968Y-14112674D02*
X13341491Y-14131722D01*
X13341491Y-14131722D02*
X13341491Y-14150769D01*
X13341491Y-14150769D02*
X13246253Y-14169817D01*
X13417682Y-14226960D02*
X13436730Y-14236484D01*
X13436730Y-14236484D02*
X13474825Y-14236484D01*
X13474825Y-14236484D02*
X13493872Y-14226960D01*
X13493872Y-14226960D02*
X13503396Y-14207912D01*
X13503396Y-14207912D02*
X13503396Y-14198388D01*
X13503396Y-14198388D02*
X13493872Y-14179341D01*
X13493872Y-14179341D02*
X13474825Y-14169817D01*
X13474825Y-14169817D02*
X13446253Y-14169817D01*
X13446253Y-14169817D02*
X13427206Y-14160293D01*
X13427206Y-14160293D02*
X13417682Y-14141246D01*
X13417682Y-14141246D02*
X13417682Y-14131722D01*
X13417682Y-14131722D02*
X13427206Y-14112674D01*
X13427206Y-14112674D02*
X13446253Y-14103150D01*
X13446253Y-14103150D02*
X13474825Y-14103150D01*
X13474825Y-14103150D02*
X13493872Y-14112674D01*
X13570063Y-14312674D02*
X13579587Y-14303150D01*
X13579587Y-14303150D02*
X13598634Y-14274579D01*
X13598634Y-14274579D02*
X13608158Y-14255531D01*
X13608158Y-14255531D02*
X13617682Y-14226960D01*
X13617682Y-14226960D02*
X13627206Y-14179341D01*
X13627206Y-14179341D02*
X13627206Y-14141246D01*
X13627206Y-14141246D02*
X13617682Y-14093627D01*
X13617682Y-14093627D02*
X13608158Y-14065055D01*
X13608158Y-14065055D02*
X13598634Y-14046008D01*
X13598634Y-14046008D02*
X13579587Y-14017436D01*
X13579587Y-14017436D02*
X13570063Y-14007912D01*
D10*
X8795000Y-14409000D02*
G75*
G02*
X8755000Y-14409000I-20000J0D01*
G01*
X8755000Y-14409000D02*
G75*
G02*
X8795000Y-14409000I20000J0D01*
G01*
D11*
X9093872Y-14300484D02*
X9112920Y-14300484D01*
X9112920Y-14300484D02*
X9131967Y-14310008D01*
X9131967Y-14310008D02*
X9141491Y-14319531D01*
X9141491Y-14319531D02*
X9151015Y-14338579D01*
X9151015Y-14338579D02*
X9160539Y-14376674D01*
X9160539Y-14376674D02*
X9160539Y-14424293D01*
X9160539Y-14424293D02*
X9151015Y-14462388D01*
X9151015Y-14462388D02*
X9141491Y-14481436D01*
X9141491Y-14481436D02*
X9131967Y-14490960D01*
X9131967Y-14490960D02*
X9112920Y-14500484D01*
X9112920Y-14500484D02*
X9093872Y-14500484D01*
X9093872Y-14500484D02*
X9074824Y-14490960D01*
X9074824Y-14490960D02*
X9065301Y-14481436D01*
X9065301Y-14481436D02*
X9055777Y-14462388D01*
X9055777Y-14462388D02*
X9046253Y-14424293D01*
X9046253Y-14424293D02*
X9046253Y-14376674D01*
X9046253Y-14376674D02*
X9055777Y-14338579D01*
X9055777Y-14338579D02*
X9065301Y-14319531D01*
X9065301Y-14319531D02*
X9074824Y-14310008D01*
X9074824Y-14310008D02*
X9093872Y-14300484D01*
X9246253Y-14481436D02*
X9255777Y-14490960D01*
X9255777Y-14490960D02*
X9246253Y-14500484D01*
X9246253Y-14500484D02*
X9236729Y-14490960D01*
X9236729Y-14490960D02*
X9246253Y-14481436D01*
X9246253Y-14481436D02*
X9246253Y-14500484D01*
X9427205Y-14367150D02*
X9427205Y-14500484D01*
X9379586Y-14290960D02*
X9331967Y-14433817D01*
X9331967Y-14433817D02*
X9455777Y-14433817D01*
X9570063Y-14300484D02*
X9589110Y-14300484D01*
X9589110Y-14300484D02*
X9608158Y-14310008D01*
X9608158Y-14310008D02*
X9617682Y-14319531D01*
X9617682Y-14319531D02*
X9627205Y-14338579D01*
X9627205Y-14338579D02*
X9636729Y-14376674D01*
X9636729Y-14376674D02*
X9636729Y-14424293D01*
X9636729Y-14424293D02*
X9627205Y-14462388D01*
X9627205Y-14462388D02*
X9617682Y-14481436D01*
X9617682Y-14481436D02*
X9608158Y-14490960D01*
X9608158Y-14490960D02*
X9589110Y-14500484D01*
X9589110Y-14500484D02*
X9570063Y-14500484D01*
X9570063Y-14500484D02*
X9551015Y-14490960D01*
X9551015Y-14490960D02*
X9541491Y-14481436D01*
X9541491Y-14481436D02*
X9531967Y-14462388D01*
X9531967Y-14462388D02*
X9522444Y-14424293D01*
X9522444Y-14424293D02*
X9522444Y-14376674D01*
X9522444Y-14376674D02*
X9531967Y-14338579D01*
X9531967Y-14338579D02*
X9541491Y-14319531D01*
X9541491Y-14319531D02*
X9551015Y-14310008D01*
X9551015Y-14310008D02*
X9570063Y-14300484D01*
X9760539Y-14300484D02*
X9779586Y-14300484D01*
X9779586Y-14300484D02*
X9798634Y-14310008D01*
X9798634Y-14310008D02*
X9808158Y-14319531D01*
X9808158Y-14319531D02*
X9817682Y-14338579D01*
X9817682Y-14338579D02*
X9827205Y-14376674D01*
X9827205Y-14376674D02*
X9827205Y-14424293D01*
X9827205Y-14424293D02*
X9817682Y-14462388D01*
X9817682Y-14462388D02*
X9808158Y-14481436D01*
X9808158Y-14481436D02*
X9798634Y-14490960D01*
X9798634Y-14490960D02*
X9779586Y-14500484D01*
X9779586Y-14500484D02*
X9760539Y-14500484D01*
X9760539Y-14500484D02*
X9741491Y-14490960D01*
X9741491Y-14490960D02*
X9731967Y-14481436D01*
X9731967Y-14481436D02*
X9722444Y-14462388D01*
X9722444Y-14462388D02*
X9712920Y-14424293D01*
X9712920Y-14424293D02*
X9712920Y-14376674D01*
X9712920Y-14376674D02*
X9722444Y-14338579D01*
X9722444Y-14338579D02*
X9731967Y-14319531D01*
X9731967Y-14319531D02*
X9741491Y-14310008D01*
X9741491Y-14310008D02*
X9760539Y-14300484D01*
X9912920Y-14500484D02*
X9912920Y-14367150D01*
X9912920Y-14386198D02*
X9922444Y-14376674D01*
X9922444Y-14376674D02*
X9941491Y-14367150D01*
X9941491Y-14367150D02*
X9970063Y-14367150D01*
X9970063Y-14367150D02*
X9989110Y-14376674D01*
X9989110Y-14376674D02*
X9998634Y-14395722D01*
X9998634Y-14395722D02*
X9998634Y-14500484D01*
X9998634Y-14395722D02*
X10008158Y-14376674D01*
X10008158Y-14376674D02*
X10027205Y-14367150D01*
X10027205Y-14367150D02*
X10055777Y-14367150D01*
X10055777Y-14367150D02*
X10074825Y-14376674D01*
X10074825Y-14376674D02*
X10084348Y-14395722D01*
X10084348Y-14395722D02*
X10084348Y-14500484D01*
X10179586Y-14500484D02*
X10179586Y-14367150D01*
X10179586Y-14386198D02*
X10189110Y-14376674D01*
X10189110Y-14376674D02*
X10208158Y-14367150D01*
X10208158Y-14367150D02*
X10236729Y-14367150D01*
X10236729Y-14367150D02*
X10255777Y-14376674D01*
X10255777Y-14376674D02*
X10265301Y-14395722D01*
X10265301Y-14395722D02*
X10265301Y-14500484D01*
X10265301Y-14395722D02*
X10274825Y-14376674D01*
X10274825Y-14376674D02*
X10293872Y-14367150D01*
X10293872Y-14367150D02*
X10322444Y-14367150D01*
X10322444Y-14367150D02*
X10341491Y-14376674D01*
X10341491Y-14376674D02*
X10351015Y-14395722D01*
X10351015Y-14395722D02*
X10351015Y-14500484D01*
X10741491Y-14290960D02*
X10570063Y-14548103D01*
X10998634Y-14300484D02*
X11017682Y-14300484D01*
X11017682Y-14300484D02*
X11036729Y-14310008D01*
X11036729Y-14310008D02*
X11046253Y-14319531D01*
X11046253Y-14319531D02*
X11055777Y-14338579D01*
X11055777Y-14338579D02*
X11065301Y-14376674D01*
X11065301Y-14376674D02*
X11065301Y-14424293D01*
X11065301Y-14424293D02*
X11055777Y-14462388D01*
X11055777Y-14462388D02*
X11046253Y-14481436D01*
X11046253Y-14481436D02*
X11036729Y-14490960D01*
X11036729Y-14490960D02*
X11017682Y-14500484D01*
X11017682Y-14500484D02*
X10998634Y-14500484D01*
X10998634Y-14500484D02*
X10979587Y-14490960D01*
X10979587Y-14490960D02*
X10970063Y-14481436D01*
X10970063Y-14481436D02*
X10960539Y-14462388D01*
X10960539Y-14462388D02*
X10951015Y-14424293D01*
X10951015Y-14424293D02*
X10951015Y-14376674D01*
X10951015Y-14376674D02*
X10960539Y-14338579D01*
X10960539Y-14338579D02*
X10970063Y-14319531D01*
X10970063Y-14319531D02*
X10979587Y-14310008D01*
X10979587Y-14310008D02*
X10998634Y-14300484D01*
X11151015Y-14481436D02*
X11160539Y-14490960D01*
X11160539Y-14490960D02*
X11151015Y-14500484D01*
X11151015Y-14500484D02*
X11141491Y-14490960D01*
X11141491Y-14490960D02*
X11151015Y-14481436D01*
X11151015Y-14481436D02*
X11151015Y-14500484D01*
X11284348Y-14300484D02*
X11303396Y-14300484D01*
X11303396Y-14300484D02*
X11322444Y-14310008D01*
X11322444Y-14310008D02*
X11331967Y-14319531D01*
X11331967Y-14319531D02*
X11341491Y-14338579D01*
X11341491Y-14338579D02*
X11351015Y-14376674D01*
X11351015Y-14376674D02*
X11351015Y-14424293D01*
X11351015Y-14424293D02*
X11341491Y-14462388D01*
X11341491Y-14462388D02*
X11331967Y-14481436D01*
X11331967Y-14481436D02*
X11322444Y-14490960D01*
X11322444Y-14490960D02*
X11303396Y-14500484D01*
X11303396Y-14500484D02*
X11284348Y-14500484D01*
X11284348Y-14500484D02*
X11265301Y-14490960D01*
X11265301Y-14490960D02*
X11255777Y-14481436D01*
X11255777Y-14481436D02*
X11246253Y-14462388D01*
X11246253Y-14462388D02*
X11236729Y-14424293D01*
X11236729Y-14424293D02*
X11236729Y-14376674D01*
X11236729Y-14376674D02*
X11246253Y-14338579D01*
X11246253Y-14338579D02*
X11255777Y-14319531D01*
X11255777Y-14319531D02*
X11265301Y-14310008D01*
X11265301Y-14310008D02*
X11284348Y-14300484D01*
X11541491Y-14500484D02*
X11427206Y-14500484D01*
X11484348Y-14500484D02*
X11484348Y-14300484D01*
X11484348Y-14300484D02*
X11465301Y-14329055D01*
X11465301Y-14329055D02*
X11446253Y-14348103D01*
X11446253Y-14348103D02*
X11427206Y-14357627D01*
X11722444Y-14300484D02*
X11627206Y-14300484D01*
X11627206Y-14300484D02*
X11617682Y-14395722D01*
X11617682Y-14395722D02*
X11627206Y-14386198D01*
X11627206Y-14386198D02*
X11646253Y-14376674D01*
X11646253Y-14376674D02*
X11693872Y-14376674D01*
X11693872Y-14376674D02*
X11712920Y-14386198D01*
X11712920Y-14386198D02*
X11722444Y-14395722D01*
X11722444Y-14395722D02*
X11731967Y-14414769D01*
X11731967Y-14414769D02*
X11731967Y-14462388D01*
X11731967Y-14462388D02*
X11722444Y-14481436D01*
X11722444Y-14481436D02*
X11712920Y-14490960D01*
X11712920Y-14490960D02*
X11693872Y-14500484D01*
X11693872Y-14500484D02*
X11646253Y-14500484D01*
X11646253Y-14500484D02*
X11627206Y-14490960D01*
X11627206Y-14490960D02*
X11617682Y-14481436D01*
X11798634Y-14300484D02*
X11931967Y-14300484D01*
X11931967Y-14300484D02*
X11846253Y-14500484D01*
X11998634Y-14300484D02*
X11998634Y-14338579D01*
X12074825Y-14300484D02*
X12074825Y-14338579D01*
X12370063Y-14576674D02*
X12360539Y-14567150D01*
X12360539Y-14567150D02*
X12341491Y-14538579D01*
X12341491Y-14538579D02*
X12331968Y-14519531D01*
X12331968Y-14519531D02*
X12322444Y-14490960D01*
X12322444Y-14490960D02*
X12312920Y-14443341D01*
X12312920Y-14443341D02*
X12312920Y-14405246D01*
X12312920Y-14405246D02*
X12322444Y-14357627D01*
X12322444Y-14357627D02*
X12331968Y-14329055D01*
X12331968Y-14329055D02*
X12341491Y-14310008D01*
X12341491Y-14310008D02*
X12360539Y-14281436D01*
X12360539Y-14281436D02*
X12370063Y-14271912D01*
X12541491Y-14300484D02*
X12446253Y-14300484D01*
X12446253Y-14300484D02*
X12436729Y-14395722D01*
X12436729Y-14395722D02*
X12446253Y-14386198D01*
X12446253Y-14386198D02*
X12465301Y-14376674D01*
X12465301Y-14376674D02*
X12512920Y-14376674D01*
X12512920Y-14376674D02*
X12531968Y-14386198D01*
X12531968Y-14386198D02*
X12541491Y-14395722D01*
X12541491Y-14395722D02*
X12551015Y-14414769D01*
X12551015Y-14414769D02*
X12551015Y-14462388D01*
X12551015Y-14462388D02*
X12541491Y-14481436D01*
X12541491Y-14481436D02*
X12531968Y-14490960D01*
X12531968Y-14490960D02*
X12512920Y-14500484D01*
X12512920Y-14500484D02*
X12465301Y-14500484D01*
X12465301Y-14500484D02*
X12446253Y-14490960D01*
X12446253Y-14490960D02*
X12436729Y-14481436D01*
X12731968Y-14300484D02*
X12636729Y-14300484D01*
X12636729Y-14300484D02*
X12627206Y-14395722D01*
X12627206Y-14395722D02*
X12636729Y-14386198D01*
X12636729Y-14386198D02*
X12655777Y-14376674D01*
X12655777Y-14376674D02*
X12703396Y-14376674D01*
X12703396Y-14376674D02*
X12722444Y-14386198D01*
X12722444Y-14386198D02*
X12731968Y-14395722D01*
X12731968Y-14395722D02*
X12741491Y-14414769D01*
X12741491Y-14414769D02*
X12741491Y-14462388D01*
X12741491Y-14462388D02*
X12731968Y-14481436D01*
X12731968Y-14481436D02*
X12722444Y-14490960D01*
X12722444Y-14490960D02*
X12703396Y-14500484D01*
X12703396Y-14500484D02*
X12655777Y-14500484D01*
X12655777Y-14500484D02*
X12636729Y-14490960D01*
X12636729Y-14490960D02*
X12627206Y-14481436D01*
X12979587Y-14500484D02*
X12979587Y-14300484D01*
X13065301Y-14500484D02*
X13065301Y-14395722D01*
X13065301Y-14395722D02*
X13055777Y-14376674D01*
X13055777Y-14376674D02*
X13036730Y-14367150D01*
X13036730Y-14367150D02*
X13008158Y-14367150D01*
X13008158Y-14367150D02*
X12989110Y-14376674D01*
X12989110Y-14376674D02*
X12979587Y-14386198D01*
X13189110Y-14500484D02*
X13170063Y-14490960D01*
X13170063Y-14490960D02*
X13160539Y-14481436D01*
X13160539Y-14481436D02*
X13151015Y-14462388D01*
X13151015Y-14462388D02*
X13151015Y-14405246D01*
X13151015Y-14405246D02*
X13160539Y-14386198D01*
X13160539Y-14386198D02*
X13170063Y-14376674D01*
X13170063Y-14376674D02*
X13189110Y-14367150D01*
X13189110Y-14367150D02*
X13217682Y-14367150D01*
X13217682Y-14367150D02*
X13236730Y-14376674D01*
X13236730Y-14376674D02*
X13246253Y-14386198D01*
X13246253Y-14386198D02*
X13255777Y-14405246D01*
X13255777Y-14405246D02*
X13255777Y-14462388D01*
X13255777Y-14462388D02*
X13246253Y-14481436D01*
X13246253Y-14481436D02*
X13236730Y-14490960D01*
X13236730Y-14490960D02*
X13217682Y-14500484D01*
X13217682Y-14500484D02*
X13189110Y-14500484D01*
X13370063Y-14500484D02*
X13351015Y-14490960D01*
X13351015Y-14490960D02*
X13341491Y-14471912D01*
X13341491Y-14471912D02*
X13341491Y-14300484D01*
X13522444Y-14490960D02*
X13503396Y-14500484D01*
X13503396Y-14500484D02*
X13465301Y-14500484D01*
X13465301Y-14500484D02*
X13446253Y-14490960D01*
X13446253Y-14490960D02*
X13436730Y-14471912D01*
X13436730Y-14471912D02*
X13436730Y-14395722D01*
X13436730Y-14395722D02*
X13446253Y-14376674D01*
X13446253Y-14376674D02*
X13465301Y-14367150D01*
X13465301Y-14367150D02*
X13503396Y-14367150D01*
X13503396Y-14367150D02*
X13522444Y-14376674D01*
X13522444Y-14376674D02*
X13531968Y-14395722D01*
X13531968Y-14395722D02*
X13531968Y-14414769D01*
X13531968Y-14414769D02*
X13436730Y-14433817D01*
X13608158Y-14490960D02*
X13627206Y-14500484D01*
X13627206Y-14500484D02*
X13665301Y-14500484D01*
X13665301Y-14500484D02*
X13684349Y-14490960D01*
X13684349Y-14490960D02*
X13693872Y-14471912D01*
X13693872Y-14471912D02*
X13693872Y-14462388D01*
X13693872Y-14462388D02*
X13684349Y-14443341D01*
X13684349Y-14443341D02*
X13665301Y-14433817D01*
X13665301Y-14433817D02*
X13636730Y-14433817D01*
X13636730Y-14433817D02*
X13617682Y-14424293D01*
X13617682Y-14424293D02*
X13608158Y-14405246D01*
X13608158Y-14405246D02*
X13608158Y-14395722D01*
X13608158Y-14395722D02*
X13617682Y-14376674D01*
X13617682Y-14376674D02*
X13636730Y-14367150D01*
X13636730Y-14367150D02*
X13665301Y-14367150D01*
X13665301Y-14367150D02*
X13684349Y-14376674D01*
X13760539Y-14576674D02*
X13770063Y-14567150D01*
X13770063Y-14567150D02*
X13789111Y-14538579D01*
X13789111Y-14538579D02*
X13798634Y-14519531D01*
X13798634Y-14519531D02*
X13808158Y-14490960D01*
X13808158Y-14490960D02*
X13817682Y-14443341D01*
X13817682Y-14443341D02*
X13817682Y-14405246D01*
X13817682Y-14405246D02*
X13808158Y-14357627D01*
X13808158Y-14357627D02*
X13798634Y-14329055D01*
X13798634Y-14329055D02*
X13789111Y-14310008D01*
X13789111Y-14310008D02*
X13770063Y-14281436D01*
X13770063Y-14281436D02*
X13760539Y-14271912D01*
D10*
X8757500Y-14635500D02*
X8757500Y-14710500D01*
X8720000Y-14673000D02*
X8795000Y-14673000D01*
D11*
X9093872Y-14564484D02*
X9112920Y-14564484D01*
X9112920Y-14564484D02*
X9131967Y-14574008D01*
X9131967Y-14574008D02*
X9141491Y-14583531D01*
X9141491Y-14583531D02*
X9151015Y-14602579D01*
X9151015Y-14602579D02*
X9160539Y-14640674D01*
X9160539Y-14640674D02*
X9160539Y-14688293D01*
X9160539Y-14688293D02*
X9151015Y-14726388D01*
X9151015Y-14726388D02*
X9141491Y-14745436D01*
X9141491Y-14745436D02*
X9131967Y-14754960D01*
X9131967Y-14754960D02*
X9112920Y-14764484D01*
X9112920Y-14764484D02*
X9093872Y-14764484D01*
X9093872Y-14764484D02*
X9074824Y-14754960D01*
X9074824Y-14754960D02*
X9065301Y-14745436D01*
X9065301Y-14745436D02*
X9055777Y-14726388D01*
X9055777Y-14726388D02*
X9046253Y-14688293D01*
X9046253Y-14688293D02*
X9046253Y-14640674D01*
X9046253Y-14640674D02*
X9055777Y-14602579D01*
X9055777Y-14602579D02*
X9065301Y-14583531D01*
X9065301Y-14583531D02*
X9074824Y-14574008D01*
X9074824Y-14574008D02*
X9093872Y-14564484D01*
X9246253Y-14745436D02*
X9255777Y-14754960D01*
X9255777Y-14754960D02*
X9246253Y-14764484D01*
X9246253Y-14764484D02*
X9236729Y-14754960D01*
X9236729Y-14754960D02*
X9246253Y-14745436D01*
X9246253Y-14745436D02*
X9246253Y-14764484D01*
X9322444Y-14564484D02*
X9455777Y-14564484D01*
X9455777Y-14564484D02*
X9370063Y-14764484D01*
X9627205Y-14564484D02*
X9531967Y-14564484D01*
X9531967Y-14564484D02*
X9522444Y-14659722D01*
X9522444Y-14659722D02*
X9531967Y-14650198D01*
X9531967Y-14650198D02*
X9551015Y-14640674D01*
X9551015Y-14640674D02*
X9598634Y-14640674D01*
X9598634Y-14640674D02*
X9617682Y-14650198D01*
X9617682Y-14650198D02*
X9627205Y-14659722D01*
X9627205Y-14659722D02*
X9636729Y-14678769D01*
X9636729Y-14678769D02*
X9636729Y-14726388D01*
X9636729Y-14726388D02*
X9627205Y-14745436D01*
X9627205Y-14745436D02*
X9617682Y-14754960D01*
X9617682Y-14754960D02*
X9598634Y-14764484D01*
X9598634Y-14764484D02*
X9551015Y-14764484D01*
X9551015Y-14764484D02*
X9531967Y-14754960D01*
X9531967Y-14754960D02*
X9522444Y-14745436D01*
X9760539Y-14564484D02*
X9779586Y-14564484D01*
X9779586Y-14564484D02*
X9798634Y-14574008D01*
X9798634Y-14574008D02*
X9808158Y-14583531D01*
X9808158Y-14583531D02*
X9817682Y-14602579D01*
X9817682Y-14602579D02*
X9827205Y-14640674D01*
X9827205Y-14640674D02*
X9827205Y-14688293D01*
X9827205Y-14688293D02*
X9817682Y-14726388D01*
X9817682Y-14726388D02*
X9808158Y-14745436D01*
X9808158Y-14745436D02*
X9798634Y-14754960D01*
X9798634Y-14754960D02*
X9779586Y-14764484D01*
X9779586Y-14764484D02*
X9760539Y-14764484D01*
X9760539Y-14764484D02*
X9741491Y-14754960D01*
X9741491Y-14754960D02*
X9731967Y-14745436D01*
X9731967Y-14745436D02*
X9722444Y-14726388D01*
X9722444Y-14726388D02*
X9712920Y-14688293D01*
X9712920Y-14688293D02*
X9712920Y-14640674D01*
X9712920Y-14640674D02*
X9722444Y-14602579D01*
X9722444Y-14602579D02*
X9731967Y-14583531D01*
X9731967Y-14583531D02*
X9741491Y-14574008D01*
X9741491Y-14574008D02*
X9760539Y-14564484D01*
X9912920Y-14764484D02*
X9912920Y-14631150D01*
X9912920Y-14650198D02*
X9922444Y-14640674D01*
X9922444Y-14640674D02*
X9941491Y-14631150D01*
X9941491Y-14631150D02*
X9970063Y-14631150D01*
X9970063Y-14631150D02*
X9989110Y-14640674D01*
X9989110Y-14640674D02*
X9998634Y-14659722D01*
X9998634Y-14659722D02*
X9998634Y-14764484D01*
X9998634Y-14659722D02*
X10008158Y-14640674D01*
X10008158Y-14640674D02*
X10027205Y-14631150D01*
X10027205Y-14631150D02*
X10055777Y-14631150D01*
X10055777Y-14631150D02*
X10074825Y-14640674D01*
X10074825Y-14640674D02*
X10084348Y-14659722D01*
X10084348Y-14659722D02*
X10084348Y-14764484D01*
X10179586Y-14764484D02*
X10179586Y-14631150D01*
X10179586Y-14650198D02*
X10189110Y-14640674D01*
X10189110Y-14640674D02*
X10208158Y-14631150D01*
X10208158Y-14631150D02*
X10236729Y-14631150D01*
X10236729Y-14631150D02*
X10255777Y-14640674D01*
X10255777Y-14640674D02*
X10265301Y-14659722D01*
X10265301Y-14659722D02*
X10265301Y-14764484D01*
X10265301Y-14659722D02*
X10274825Y-14640674D01*
X10274825Y-14640674D02*
X10293872Y-14631150D01*
X10293872Y-14631150D02*
X10322444Y-14631150D01*
X10322444Y-14631150D02*
X10341491Y-14640674D01*
X10341491Y-14640674D02*
X10351015Y-14659722D01*
X10351015Y-14659722D02*
X10351015Y-14764484D01*
X10741491Y-14554960D02*
X10570063Y-14812103D01*
X10998634Y-14564484D02*
X11017682Y-14564484D01*
X11017682Y-14564484D02*
X11036729Y-14574008D01*
X11036729Y-14574008D02*
X11046253Y-14583531D01*
X11046253Y-14583531D02*
X11055777Y-14602579D01*
X11055777Y-14602579D02*
X11065301Y-14640674D01*
X11065301Y-14640674D02*
X11065301Y-14688293D01*
X11065301Y-14688293D02*
X11055777Y-14726388D01*
X11055777Y-14726388D02*
X11046253Y-14745436D01*
X11046253Y-14745436D02*
X11036729Y-14754960D01*
X11036729Y-14754960D02*
X11017682Y-14764484D01*
X11017682Y-14764484D02*
X10998634Y-14764484D01*
X10998634Y-14764484D02*
X10979587Y-14754960D01*
X10979587Y-14754960D02*
X10970063Y-14745436D01*
X10970063Y-14745436D02*
X10960539Y-14726388D01*
X10960539Y-14726388D02*
X10951015Y-14688293D01*
X10951015Y-14688293D02*
X10951015Y-14640674D01*
X10951015Y-14640674D02*
X10960539Y-14602579D01*
X10960539Y-14602579D02*
X10970063Y-14583531D01*
X10970063Y-14583531D02*
X10979587Y-14574008D01*
X10979587Y-14574008D02*
X10998634Y-14564484D01*
X11151015Y-14745436D02*
X11160539Y-14754960D01*
X11160539Y-14754960D02*
X11151015Y-14764484D01*
X11151015Y-14764484D02*
X11141491Y-14754960D01*
X11141491Y-14754960D02*
X11151015Y-14745436D01*
X11151015Y-14745436D02*
X11151015Y-14764484D01*
X11284348Y-14564484D02*
X11303396Y-14564484D01*
X11303396Y-14564484D02*
X11322444Y-14574008D01*
X11322444Y-14574008D02*
X11331967Y-14583531D01*
X11331967Y-14583531D02*
X11341491Y-14602579D01*
X11341491Y-14602579D02*
X11351015Y-14640674D01*
X11351015Y-14640674D02*
X11351015Y-14688293D01*
X11351015Y-14688293D02*
X11341491Y-14726388D01*
X11341491Y-14726388D02*
X11331967Y-14745436D01*
X11331967Y-14745436D02*
X11322444Y-14754960D01*
X11322444Y-14754960D02*
X11303396Y-14764484D01*
X11303396Y-14764484D02*
X11284348Y-14764484D01*
X11284348Y-14764484D02*
X11265301Y-14754960D01*
X11265301Y-14754960D02*
X11255777Y-14745436D01*
X11255777Y-14745436D02*
X11246253Y-14726388D01*
X11246253Y-14726388D02*
X11236729Y-14688293D01*
X11236729Y-14688293D02*
X11236729Y-14640674D01*
X11236729Y-14640674D02*
X11246253Y-14602579D01*
X11246253Y-14602579D02*
X11255777Y-14583531D01*
X11255777Y-14583531D02*
X11265301Y-14574008D01*
X11265301Y-14574008D02*
X11284348Y-14564484D01*
X11427206Y-14583531D02*
X11436729Y-14574008D01*
X11436729Y-14574008D02*
X11455777Y-14564484D01*
X11455777Y-14564484D02*
X11503396Y-14564484D01*
X11503396Y-14564484D02*
X11522444Y-14574008D01*
X11522444Y-14574008D02*
X11531967Y-14583531D01*
X11531967Y-14583531D02*
X11541491Y-14602579D01*
X11541491Y-14602579D02*
X11541491Y-14621627D01*
X11541491Y-14621627D02*
X11531967Y-14650198D01*
X11531967Y-14650198D02*
X11417682Y-14764484D01*
X11417682Y-14764484D02*
X11541491Y-14764484D01*
X11636729Y-14764484D02*
X11674825Y-14764484D01*
X11674825Y-14764484D02*
X11693872Y-14754960D01*
X11693872Y-14754960D02*
X11703396Y-14745436D01*
X11703396Y-14745436D02*
X11722444Y-14716865D01*
X11722444Y-14716865D02*
X11731967Y-14678769D01*
X11731967Y-14678769D02*
X11731967Y-14602579D01*
X11731967Y-14602579D02*
X11722444Y-14583531D01*
X11722444Y-14583531D02*
X11712920Y-14574008D01*
X11712920Y-14574008D02*
X11693872Y-14564484D01*
X11693872Y-14564484D02*
X11655777Y-14564484D01*
X11655777Y-14564484D02*
X11636729Y-14574008D01*
X11636729Y-14574008D02*
X11627206Y-14583531D01*
X11627206Y-14583531D02*
X11617682Y-14602579D01*
X11617682Y-14602579D02*
X11617682Y-14650198D01*
X11617682Y-14650198D02*
X11627206Y-14669246D01*
X11627206Y-14669246D02*
X11636729Y-14678769D01*
X11636729Y-14678769D02*
X11655777Y-14688293D01*
X11655777Y-14688293D02*
X11693872Y-14688293D01*
X11693872Y-14688293D02*
X11712920Y-14678769D01*
X11712920Y-14678769D02*
X11722444Y-14669246D01*
X11722444Y-14669246D02*
X11731967Y-14650198D01*
X11912920Y-14564484D02*
X11817682Y-14564484D01*
X11817682Y-14564484D02*
X11808158Y-14659722D01*
X11808158Y-14659722D02*
X11817682Y-14650198D01*
X11817682Y-14650198D02*
X11836729Y-14640674D01*
X11836729Y-14640674D02*
X11884348Y-14640674D01*
X11884348Y-14640674D02*
X11903396Y-14650198D01*
X11903396Y-14650198D02*
X11912920Y-14659722D01*
X11912920Y-14659722D02*
X11922444Y-14678769D01*
X11922444Y-14678769D02*
X11922444Y-14726388D01*
X11922444Y-14726388D02*
X11912920Y-14745436D01*
X11912920Y-14745436D02*
X11903396Y-14754960D01*
X11903396Y-14754960D02*
X11884348Y-14764484D01*
X11884348Y-14764484D02*
X11836729Y-14764484D01*
X11836729Y-14764484D02*
X11817682Y-14754960D01*
X11817682Y-14754960D02*
X11808158Y-14745436D01*
X11998634Y-14564484D02*
X11998634Y-14602579D01*
X12074825Y-14564484D02*
X12074825Y-14602579D01*
X12370063Y-14840674D02*
X12360539Y-14831150D01*
X12360539Y-14831150D02*
X12341491Y-14802579D01*
X12341491Y-14802579D02*
X12331968Y-14783531D01*
X12331968Y-14783531D02*
X12322444Y-14754960D01*
X12322444Y-14754960D02*
X12312920Y-14707341D01*
X12312920Y-14707341D02*
X12312920Y-14669246D01*
X12312920Y-14669246D02*
X12322444Y-14621627D01*
X12322444Y-14621627D02*
X12331968Y-14593055D01*
X12331968Y-14593055D02*
X12341491Y-14574008D01*
X12341491Y-14574008D02*
X12360539Y-14545436D01*
X12360539Y-14545436D02*
X12370063Y-14535912D01*
X12427206Y-14564484D02*
X12551015Y-14564484D01*
X12551015Y-14564484D02*
X12484348Y-14640674D01*
X12484348Y-14640674D02*
X12512920Y-14640674D01*
X12512920Y-14640674D02*
X12531968Y-14650198D01*
X12531968Y-14650198D02*
X12541491Y-14659722D01*
X12541491Y-14659722D02*
X12551015Y-14678769D01*
X12551015Y-14678769D02*
X12551015Y-14726388D01*
X12551015Y-14726388D02*
X12541491Y-14745436D01*
X12541491Y-14745436D02*
X12531968Y-14754960D01*
X12531968Y-14754960D02*
X12512920Y-14764484D01*
X12512920Y-14764484D02*
X12455777Y-14764484D01*
X12455777Y-14764484D02*
X12436729Y-14754960D01*
X12436729Y-14754960D02*
X12427206Y-14745436D01*
X12789110Y-14764484D02*
X12789110Y-14564484D01*
X12874825Y-14764484D02*
X12874825Y-14659722D01*
X12874825Y-14659722D02*
X12865301Y-14640674D01*
X12865301Y-14640674D02*
X12846253Y-14631150D01*
X12846253Y-14631150D02*
X12817682Y-14631150D01*
X12817682Y-14631150D02*
X12798634Y-14640674D01*
X12798634Y-14640674D02*
X12789110Y-14650198D01*
X12998634Y-14764484D02*
X12979587Y-14754960D01*
X12979587Y-14754960D02*
X12970063Y-14745436D01*
X12970063Y-14745436D02*
X12960539Y-14726388D01*
X12960539Y-14726388D02*
X12960539Y-14669246D01*
X12960539Y-14669246D02*
X12970063Y-14650198D01*
X12970063Y-14650198D02*
X12979587Y-14640674D01*
X12979587Y-14640674D02*
X12998634Y-14631150D01*
X12998634Y-14631150D02*
X13027206Y-14631150D01*
X13027206Y-14631150D02*
X13046253Y-14640674D01*
X13046253Y-14640674D02*
X13055777Y-14650198D01*
X13055777Y-14650198D02*
X13065301Y-14669246D01*
X13065301Y-14669246D02*
X13065301Y-14726388D01*
X13065301Y-14726388D02*
X13055777Y-14745436D01*
X13055777Y-14745436D02*
X13046253Y-14754960D01*
X13046253Y-14754960D02*
X13027206Y-14764484D01*
X13027206Y-14764484D02*
X12998634Y-14764484D01*
X13179587Y-14764484D02*
X13160539Y-14754960D01*
X13160539Y-14754960D02*
X13151015Y-14735912D01*
X13151015Y-14735912D02*
X13151015Y-14564484D01*
X13331968Y-14754960D02*
X13312920Y-14764484D01*
X13312920Y-14764484D02*
X13274825Y-14764484D01*
X13274825Y-14764484D02*
X13255777Y-14754960D01*
X13255777Y-14754960D02*
X13246253Y-14735912D01*
X13246253Y-14735912D02*
X13246253Y-14659722D01*
X13246253Y-14659722D02*
X13255777Y-14640674D01*
X13255777Y-14640674D02*
X13274825Y-14631150D01*
X13274825Y-14631150D02*
X13312920Y-14631150D01*
X13312920Y-14631150D02*
X13331968Y-14640674D01*
X13331968Y-14640674D02*
X13341491Y-14659722D01*
X13341491Y-14659722D02*
X13341491Y-14678769D01*
X13341491Y-14678769D02*
X13246253Y-14697817D01*
X13417682Y-14754960D02*
X13436730Y-14764484D01*
X13436730Y-14764484D02*
X13474825Y-14764484D01*
X13474825Y-14764484D02*
X13493872Y-14754960D01*
X13493872Y-14754960D02*
X13503396Y-14735912D01*
X13503396Y-14735912D02*
X13503396Y-14726388D01*
X13503396Y-14726388D02*
X13493872Y-14707341D01*
X13493872Y-14707341D02*
X13474825Y-14697817D01*
X13474825Y-14697817D02*
X13446253Y-14697817D01*
X13446253Y-14697817D02*
X13427206Y-14688293D01*
X13427206Y-14688293D02*
X13417682Y-14669246D01*
X13417682Y-14669246D02*
X13417682Y-14659722D01*
X13417682Y-14659722D02*
X13427206Y-14640674D01*
X13427206Y-14640674D02*
X13446253Y-14631150D01*
X13446253Y-14631150D02*
X13474825Y-14631150D01*
X13474825Y-14631150D02*
X13493872Y-14640674D01*
X13570063Y-14840674D02*
X13579587Y-14831150D01*
X13579587Y-14831150D02*
X13598634Y-14802579D01*
X13598634Y-14802579D02*
X13608158Y-14783531D01*
X13608158Y-14783531D02*
X13617682Y-14754960D01*
X13617682Y-14754960D02*
X13627206Y-14707341D01*
X13627206Y-14707341D02*
X13627206Y-14669246D01*
X13627206Y-14669246D02*
X13617682Y-14621627D01*
X13617682Y-14621627D02*
X13608158Y-14593055D01*
X13608158Y-14593055D02*
X13598634Y-14574008D01*
X13598634Y-14574008D02*
X13579587Y-14545436D01*
X13579587Y-14545436D02*
X13570063Y-14535912D01*
M02*
