G04 #@! TF.GenerationSoftware,KiCad,Pcbnew,(7.0.0)*
G04 #@! TF.CreationDate,2024-02-07T16:47:37+08:00*
G04 #@! TF.ProjectId,revopod1,7265766f-706f-4643-912e-6b696361645f,rev?*
G04 #@! TF.SameCoordinates,Original*
G04 #@! TF.FileFunction,Paste,Top*
G04 #@! TF.FilePolarity,Positive*
%FSLAX46Y46*%
G04 Gerber Fmt 4.6, Leading zero omitted, Abs format (unit mm)*
G04 Created by KiCad (PCBNEW (7.0.0)) date 2024-02-07 16:47:37*
%MOMM*%
%LPD*%
G01*
G04 APERTURE LIST*
G04 Aperture macros list*
%AMRoundRect*
0 Rectangle with rounded corners*
0 $1 Rounding radius*
0 $2 $3 $4 $5 $6 $7 $8 $9 X,Y pos of 4 corners*
0 Add a 4 corners polygon primitive as box body*
4,1,4,$2,$3,$4,$5,$6,$7,$8,$9,$2,$3,0*
0 Add four circle primitives for the rounded corners*
1,1,$1+$1,$2,$3*
1,1,$1+$1,$4,$5*
1,1,$1+$1,$6,$7*
1,1,$1+$1,$8,$9*
0 Add four rect primitives between the rounded corners*
20,1,$1+$1,$2,$3,$4,$5,0*
20,1,$1+$1,$4,$5,$6,$7,0*
20,1,$1+$1,$6,$7,$8,$9,0*
20,1,$1+$1,$8,$9,$2,$3,0*%
G04 Aperture macros list end*
%ADD10RoundRect,0.160000X0.160000X-0.222500X0.160000X0.222500X-0.160000X0.222500X-0.160000X-0.222500X0*%
%ADD11RoundRect,0.160000X-0.197500X-0.160000X0.197500X-0.160000X0.197500X0.160000X-0.197500X0.160000X0*%
%ADD12RoundRect,0.160000X0.197500X0.160000X-0.197500X0.160000X-0.197500X-0.160000X0.197500X-0.160000X0*%
%ADD13RoundRect,0.160000X-0.160000X-0.160000X0.160000X-0.160000X0.160000X0.160000X-0.160000X0.160000X0*%
%ADD14RoundRect,0.062500X-0.375000X-0.062500X0.375000X-0.062500X0.375000X0.062500X-0.375000X0.062500X0*%
%ADD15RoundRect,0.062500X-0.062500X-0.375000X0.062500X-0.375000X0.062500X0.375000X-0.062500X0.375000X0*%
%ADD16RoundRect,0.087500X0.087500X-0.087500X0.087500X0.087500X-0.087500X0.087500X-0.087500X-0.087500X0*%
%ADD17RoundRect,0.155000X-0.212500X-0.155000X0.212500X-0.155000X0.212500X0.155000X-0.212500X0.155000X0*%
%ADD18RoundRect,0.500000X-1.000000X-0.500000X1.000000X-0.500000X1.000000X0.500000X-1.000000X0.500000X0*%
%ADD19RoundRect,0.155000X0.212500X0.155000X-0.212500X0.155000X-0.212500X-0.155000X0.212500X-0.155000X0*%
%ADD20RoundRect,0.160000X-0.160000X0.197500X-0.160000X-0.197500X0.160000X-0.197500X0.160000X0.197500X0*%
%ADD21R,1.100000X0.600000*%
%ADD22C,2.200000*%
%ADD23R,1.500000X2.200000*%
%ADD24RoundRect,0.160000X0.160000X-0.197500X0.160000X0.197500X-0.160000X0.197500X-0.160000X-0.197500X0*%
%ADD25RoundRect,0.155000X0.155000X-0.212500X0.155000X0.212500X-0.155000X0.212500X-0.155000X-0.212500X0*%
%ADD26RoundRect,0.500000X-0.750000X-0.500000X0.750000X-0.500000X0.750000X0.500000X-0.750000X0.500000X0*%
%ADD27RoundRect,0.150000X-0.587500X-0.150000X0.587500X-0.150000X0.587500X0.150000X-0.587500X0.150000X0*%
%ADD28RoundRect,0.150000X-0.150000X0.587500X-0.150000X-0.587500X0.150000X-0.587500X0.150000X0.587500X0*%
%ADD29R,0.600000X1.200000*%
%ADD30RoundRect,0.100000X-0.400000X-0.400000X0.400000X-0.400000X0.400000X0.400000X-0.400000X0.400000X0*%
%ADD31R,2.000000X2.400000*%
%ADD32R,0.699000X0.508000*%
%ADD33R,1.600000X0.550000*%
%ADD34R,0.550000X1.600000*%
%ADD35R,1.500000X1.300000*%
%ADD36R,0.200000X0.200000*%
%ADD37O,0.200000X0.850000*%
%ADD38R,0.575000X0.400000*%
%ADD39R,0.775000X1.100000*%
G04 APERTURE END LIST*
D10*
X129500000Y-107072500D03*
X129500000Y-105927500D03*
D11*
X117502500Y-108000000D03*
X118697500Y-108000000D03*
D12*
X130900000Y-130900000D03*
X129705000Y-130900000D03*
D13*
X121850000Y-110640000D03*
X121850000Y-111440000D03*
X122650000Y-110640000D03*
X122650000Y-111440000D03*
D14*
X120812500Y-110290000D03*
X120812500Y-110790000D03*
X120812500Y-111290000D03*
X120812500Y-111790000D03*
D15*
X121500000Y-112477500D03*
X122000000Y-112477500D03*
X122500000Y-112477500D03*
X123000000Y-112477500D03*
D14*
X123687500Y-111790000D03*
X123687500Y-111290000D03*
X123687500Y-110790000D03*
X123687500Y-110290000D03*
D15*
X123000000Y-109602500D03*
X122500000Y-109602500D03*
X122000000Y-109602500D03*
X121500000Y-109602500D03*
D12*
X118697500Y-109800000D03*
X117502500Y-109800000D03*
D16*
X127400000Y-99800000D03*
X127400000Y-99100000D03*
X128100000Y-99800000D03*
X128100000Y-99100000D03*
D17*
X129665000Y-128600000D03*
X130800000Y-128600000D03*
D18*
X134000000Y-133500000D03*
X134000000Y-130500000D03*
D19*
X126867500Y-109700000D03*
X125732500Y-109700000D03*
D16*
X107900000Y-99800000D03*
X107900000Y-99100000D03*
X108600000Y-99800000D03*
X108600000Y-99100000D03*
D19*
X122067500Y-107900000D03*
X120932500Y-107900000D03*
D20*
X107900000Y-110067500D03*
X107900000Y-111262500D03*
D12*
X115197500Y-116600000D03*
X114002500Y-116600000D03*
D21*
X122599999Y-129149999D03*
X122599999Y-130099999D03*
X122599999Y-131049999D03*
X125199999Y-131049999D03*
X125199999Y-130099999D03*
X125199999Y-129149999D03*
D12*
X111297500Y-116600000D03*
X110102500Y-116600000D03*
D22*
X113682683Y-110583570D03*
X111051317Y-113308430D03*
D23*
X109099999Y-122099999D03*
X115499999Y-122099999D03*
D24*
X127700000Y-130597500D03*
X127700000Y-129402500D03*
X128710000Y-110997500D03*
X128710000Y-109802500D03*
D12*
X126897500Y-114100000D03*
X125702500Y-114100000D03*
D25*
X107900000Y-114635000D03*
X107900000Y-113500000D03*
D26*
X101800000Y-106200000D03*
X101800000Y-109700000D03*
X101800000Y-113200000D03*
X101800000Y-116700000D03*
X101800000Y-120200000D03*
X101800000Y-123700000D03*
X101800000Y-127200000D03*
X101800000Y-130700000D03*
D12*
X118710000Y-113397500D03*
X117515000Y-113397500D03*
D27*
X111362500Y-105750000D03*
X111362500Y-107650000D03*
X113237500Y-106700000D03*
D16*
X94900000Y-99800000D03*
X94900000Y-99100000D03*
X95600000Y-99800000D03*
X95600000Y-99100000D03*
D28*
X131250000Y-123962500D03*
X129350000Y-123962500D03*
X130300000Y-125837500D03*
D29*
X104849999Y-119199999D03*
X105799999Y-119199999D03*
X106749999Y-119199999D03*
X106749999Y-116599999D03*
X105799999Y-116599999D03*
X104849999Y-116599999D03*
D16*
X120900000Y-99800000D03*
X120900000Y-99100000D03*
X121600000Y-99800000D03*
X121600000Y-99100000D03*
D19*
X106000000Y-123200000D03*
X104865000Y-123200000D03*
D30*
X104500000Y-105700000D03*
X108500000Y-105700000D03*
X104500000Y-107900000D03*
X108500000Y-107900000D03*
D16*
X140400000Y-99800000D03*
X140400000Y-99100000D03*
X141100000Y-99800000D03*
X141100000Y-99100000D03*
D18*
X134000000Y-127500000D03*
X134000000Y-124500000D03*
D25*
X134710000Y-110967500D03*
X134710000Y-109832500D03*
D10*
X131500000Y-107072500D03*
X131500000Y-105927500D03*
D16*
X88400000Y-99800000D03*
X88400000Y-99100000D03*
X89100000Y-99800000D03*
X89100000Y-99100000D03*
D12*
X110797500Y-110000000D03*
X109602500Y-110000000D03*
X118697500Y-115200000D03*
X117502500Y-115200000D03*
D31*
X114049999Y-129899999D03*
X110349999Y-129899999D03*
D24*
X130700000Y-110997500D03*
X130700000Y-109802500D03*
X132690000Y-110997500D03*
X132690000Y-109802500D03*
D16*
X101400000Y-99800000D03*
X101400000Y-99100000D03*
X102100000Y-99800000D03*
X102100000Y-99100000D03*
X133900000Y-99800000D03*
X133900000Y-99100000D03*
X134600000Y-99800000D03*
X134600000Y-99100000D03*
D24*
X135000000Y-118697500D03*
X135000000Y-117502500D03*
D32*
X117437499Y-128971499D03*
X117437499Y-129972499D03*
X117437499Y-130973499D03*
X119762499Y-130973499D03*
X119762499Y-129972499D03*
X119762499Y-128971499D03*
D33*
X126549999Y-124499999D03*
X126549999Y-123699999D03*
X126549999Y-122899999D03*
X126549999Y-122099999D03*
X126549999Y-121299999D03*
X126549999Y-120499999D03*
X126549999Y-119699999D03*
X126549999Y-118899999D03*
D34*
X125099999Y-117449999D03*
X124299999Y-117449999D03*
X123499999Y-117449999D03*
X122699999Y-117449999D03*
X121899999Y-117449999D03*
X121099999Y-117449999D03*
X120299999Y-117449999D03*
X119499999Y-117449999D03*
D33*
X118049999Y-118899999D03*
X118049999Y-119699999D03*
X118049999Y-120499999D03*
X118049999Y-121299999D03*
X118049999Y-122099999D03*
X118049999Y-122899999D03*
X118049999Y-123699999D03*
X118049999Y-124499999D03*
D34*
X119499999Y-125949999D03*
X120299999Y-125949999D03*
X121099999Y-125949999D03*
X121899999Y-125949999D03*
X122699999Y-125949999D03*
X123499999Y-125949999D03*
X124299999Y-125949999D03*
X125099999Y-125949999D03*
D35*
X104999999Y-110249999D03*
X104999999Y-114349999D03*
D19*
X125067500Y-107900000D03*
X123932500Y-107900000D03*
D16*
X114400000Y-99800000D03*
X114400000Y-99100000D03*
X115100000Y-99800000D03*
X115100000Y-99100000D03*
D36*
X132199999Y-114799999D03*
D37*
X132199999Y-115124999D03*
D36*
X131799999Y-114799999D03*
D37*
X131799999Y-115124999D03*
D36*
X131399999Y-114799999D03*
D37*
X131399999Y-115124999D03*
D36*
X130999999Y-114799999D03*
D37*
X130999999Y-115124999D03*
D36*
X130599999Y-114799999D03*
D37*
X130599999Y-115124999D03*
D36*
X130199999Y-114799999D03*
D37*
X130199999Y-115124999D03*
X130199999Y-119074999D03*
D36*
X130199999Y-119399999D03*
D37*
X130599999Y-119074999D03*
D36*
X130599999Y-119399999D03*
D37*
X130999999Y-119074999D03*
D36*
X130999999Y-119399999D03*
D37*
X131399999Y-119074999D03*
D36*
X131399999Y-119399999D03*
D37*
X131799999Y-119074999D03*
D36*
X131799999Y-119399999D03*
D37*
X132199999Y-119074999D03*
D36*
X132199999Y-119399999D03*
D38*
X132564999Y-115999999D03*
X129834999Y-115999999D03*
D39*
X131687499Y-116449999D03*
X130712499Y-116449999D03*
X131687499Y-117749999D03*
X130712499Y-117749999D03*
D38*
X132564999Y-118199999D03*
X129834999Y-118199999D03*
D25*
X135000000Y-122165000D03*
X135000000Y-121030000D03*
D12*
X118710000Y-111597500D03*
X117515000Y-111597500D03*
D16*
X146900000Y-99800000D03*
X146900000Y-99100000D03*
X147600000Y-99800000D03*
X147600000Y-99100000D03*
M02*
