%FSLAX45Y45*%
G04 Gerber Fmt 4.5, Leading zero omitted, Abs format (unit mm)*
G04 Created by KiCad (PCBNEW (6.0.2-0)) date 2022-10-10 18:33:46*
%MOMM*%
%LPD*%
G01*
G04 APERTURE LIST*
%TA.AperFunction,Profile*%
%ADD10C,0.100000*%
%TD*%
%ADD11C,0.200000*%
G04 APERTURE END LIST*
D10*
X18330000Y-8200000D02*
X16600000Y-8200000D01*
X16600000Y-9340000D02*
X16600000Y-8200000D01*
X16600000Y-9340000D02*
X18330000Y-9340000D01*
X18330000Y-9040000D02*
X18330000Y-9340000D01*
X18330000Y-9040000D02*
X18330000Y-8200000D01*
D11*
X16852619Y-9655476D02*
X16852619Y-9455476D01*
X16900238Y-9455476D01*
X16928810Y-9465000D01*
X16947857Y-9484048D01*
X16957381Y-9503095D01*
X16966905Y-9541190D01*
X16966905Y-9569762D01*
X16957381Y-9607857D01*
X16947857Y-9626905D01*
X16928810Y-9645952D01*
X16900238Y-9655476D01*
X16852619Y-9655476D01*
X17052619Y-9655476D02*
X17052619Y-9522143D01*
X17052619Y-9560238D02*
X17062143Y-9541190D01*
X17071667Y-9531667D01*
X17090714Y-9522143D01*
X17109762Y-9522143D01*
X17176429Y-9655476D02*
X17176429Y-9522143D01*
X17176429Y-9455476D02*
X17166905Y-9465000D01*
X17176429Y-9474524D01*
X17185952Y-9465000D01*
X17176429Y-9455476D01*
X17176429Y-9474524D01*
X17300238Y-9655476D02*
X17281190Y-9645952D01*
X17271667Y-9626905D01*
X17271667Y-9455476D01*
X17405000Y-9655476D02*
X17385952Y-9645952D01*
X17376429Y-9626905D01*
X17376429Y-9455476D01*
X17633571Y-9655476D02*
X17633571Y-9455476D01*
X17700238Y-9598333D01*
X17766905Y-9455476D01*
X17766905Y-9655476D01*
X17947857Y-9655476D02*
X17947857Y-9550714D01*
X17938333Y-9531667D01*
X17919286Y-9522143D01*
X17881190Y-9522143D01*
X17862143Y-9531667D01*
X17947857Y-9645952D02*
X17928810Y-9655476D01*
X17881190Y-9655476D01*
X17862143Y-9645952D01*
X17852619Y-9626905D01*
X17852619Y-9607857D01*
X17862143Y-9588810D01*
X17881190Y-9579286D01*
X17928810Y-9579286D01*
X17947857Y-9569762D01*
X18043095Y-9522143D02*
X18043095Y-9722143D01*
X18043095Y-9531667D02*
X18062143Y-9522143D01*
X18100238Y-9522143D01*
X18119286Y-9531667D01*
X18128810Y-9541190D01*
X18138333Y-9560238D01*
X18138333Y-9617381D01*
X18128810Y-9636429D01*
X18119286Y-9645952D01*
X18100238Y-9655476D01*
X18062143Y-9655476D01*
X18043095Y-9645952D01*
X18224048Y-9636429D02*
X18233571Y-9645952D01*
X18224048Y-9655476D01*
X18214524Y-9645952D01*
X18224048Y-9636429D01*
X18224048Y-9655476D01*
X18224048Y-9531667D02*
X18233571Y-9541190D01*
X18224048Y-9550714D01*
X18214524Y-9541190D01*
X18224048Y-9531667D01*
X18224048Y-9550714D01*
M02*
