G04 #@! TF.GenerationSoftware,KiCad,Pcbnew,(7.0.0-0)*
G04 #@! TF.CreationDate,2023-11-27T20:18:25+08:00*
G04 #@! TF.ProjectId,Revolute,5265766f-6c75-4746-952e-6b696361645f,rev?*
G04 #@! TF.SameCoordinates,Original*
G04 #@! TF.FileFunction,Copper,L1,Top*
G04 #@! TF.FilePolarity,Positive*
%FSLAX46Y46*%
G04 Gerber Fmt 4.6, Leading zero omitted, Abs format (unit mm)*
G04 Created by KiCad (PCBNEW (7.0.0-0)) date 2023-11-27 20:18:25*
%MOMM*%
%LPD*%
G01*
G04 APERTURE LIST*
G04 Aperture macros list*
%AMRoundRect*
0 Rectangle with rounded corners*
0 $1 Rounding radius*
0 $2 $3 $4 $5 $6 $7 $8 $9 X,Y pos of 4 corners*
0 Add a 4 corners polygon primitive as box body*
4,1,4,$2,$3,$4,$5,$6,$7,$8,$9,$2,$3,0*
0 Add four circle primitives for the rounded corners*
1,1,$1+$1,$2,$3*
1,1,$1+$1,$4,$5*
1,1,$1+$1,$6,$7*
1,1,$1+$1,$8,$9*
0 Add four rect primitives between the rounded corners*
20,1,$1+$1,$2,$3,$4,$5,0*
20,1,$1+$1,$4,$5,$6,$7,0*
20,1,$1+$1,$6,$7,$8,$9,0*
20,1,$1+$1,$8,$9,$2,$3,0*%
G04 Aperture macros list end*
G04 #@! TA.AperFunction,SMDPad,CuDef*
%ADD10RoundRect,0.135000X-0.135000X-0.185000X0.135000X-0.185000X0.135000X0.185000X-0.135000X0.185000X0*%
G04 #@! TD*
G04 #@! TA.AperFunction,SMDPad,CuDef*
%ADD11RoundRect,0.140000X-0.170000X0.140000X-0.170000X-0.140000X0.170000X-0.140000X0.170000X0.140000X0*%
G04 #@! TD*
G04 #@! TA.AperFunction,SMDPad,CuDef*
%ADD12RoundRect,0.140000X0.170000X-0.140000X0.170000X0.140000X-0.170000X0.140000X-0.170000X-0.140000X0*%
G04 #@! TD*
G04 #@! TA.AperFunction,SMDPad,CuDef*
%ADD13RoundRect,0.140000X0.140000X0.170000X-0.140000X0.170000X-0.140000X-0.170000X0.140000X-0.170000X0*%
G04 #@! TD*
G04 #@! TA.AperFunction,SMDPad,CuDef*
%ADD14RoundRect,0.147500X-0.172500X0.147500X-0.172500X-0.147500X0.172500X-0.147500X0.172500X0.147500X0*%
G04 #@! TD*
G04 #@! TA.AperFunction,SMDPad,CuDef*
%ADD15RoundRect,0.250000X0.250000X0.250000X-0.250000X0.250000X-0.250000X-0.250000X0.250000X-0.250000X0*%
G04 #@! TD*
G04 #@! TA.AperFunction,SMDPad,CuDef*
%ADD16RoundRect,0.147500X0.172500X-0.147500X0.172500X0.147500X-0.172500X0.147500X-0.172500X-0.147500X0*%
G04 #@! TD*
G04 #@! TA.AperFunction,SMDPad,CuDef*
%ADD17RoundRect,0.150000X-0.350000X-0.300000X0.350000X-0.300000X0.350000X0.300000X-0.350000X0.300000X0*%
G04 #@! TD*
G04 #@! TA.AperFunction,SMDPad,CuDef*
%ADD18RoundRect,0.140000X-0.140000X-0.170000X0.140000X-0.170000X0.140000X0.170000X-0.140000X0.170000X0*%
G04 #@! TD*
G04 #@! TA.AperFunction,SMDPad,CuDef*
%ADD19C,0.250000*%
G04 #@! TD*
G04 #@! TA.AperFunction,SMDPad,CuDef*
%ADD20R,4.000000X4.000000*%
G04 #@! TD*
G04 #@! TA.AperFunction,SMDPad,CuDef*
%ADD21RoundRect,0.218750X-0.256250X0.218750X-0.256250X-0.218750X0.256250X-0.218750X0.256250X0.218750X0*%
G04 #@! TD*
G04 #@! TA.AperFunction,SMDPad,CuDef*
%ADD22R,1.100000X0.600000*%
G04 #@! TD*
G04 #@! TA.AperFunction,SMDPad,CuDef*
%ADD23R,1.060000X0.650000*%
G04 #@! TD*
G04 #@! TA.AperFunction,ViaPad*
%ADD24C,0.500000*%
G04 #@! TD*
G04 #@! TA.AperFunction,Conductor*
%ADD25C,0.250000*%
G04 #@! TD*
G04 #@! TA.AperFunction,Conductor*
%ADD26C,0.150000*%
G04 #@! TD*
G04 APERTURE END LIST*
D10*
X176940000Y-90100000D03*
X177960000Y-90100000D03*
D11*
X177600000Y-91012132D03*
X177600000Y-91972132D03*
D12*
X169362780Y-84202132D03*
X169362780Y-83242132D03*
D13*
X168182780Y-92042132D03*
X167222780Y-92042132D03*
X168182780Y-89012132D03*
X167222780Y-89012132D03*
X168182780Y-85322132D03*
X167222780Y-85322132D03*
D14*
X170402780Y-83217132D03*
X170402780Y-84187132D03*
D15*
X180810000Y-84600000D03*
X181290000Y-83400000D03*
D12*
X173552780Y-84182132D03*
X173552780Y-83222132D03*
D16*
X171462780Y-84197132D03*
X171462780Y-83227132D03*
D13*
X177970000Y-89000000D03*
X177010000Y-89000000D03*
D17*
X177192780Y-84952132D03*
X179392780Y-84952132D03*
X179392780Y-83352132D03*
X177192780Y-83352132D03*
D11*
X175642780Y-83222132D03*
X175642780Y-84182132D03*
X177980000Y-87000000D03*
X177980000Y-87960000D03*
D13*
X168172780Y-84302132D03*
X167212780Y-84302132D03*
D18*
X167222780Y-90022132D03*
X168182780Y-90022132D03*
D19*
X171437780Y-85417132D03*
X171937780Y-85417132D03*
X172437780Y-85417132D03*
X172937780Y-85417132D03*
X173437780Y-85417132D03*
X173937780Y-85417132D03*
X174437780Y-85417132D03*
X174937780Y-85417132D03*
X175437780Y-85417132D03*
X175937780Y-90917132D03*
X169937780Y-91167132D03*
X170687780Y-91417132D03*
X171687780Y-91417132D03*
X172187780Y-91417132D03*
X172687780Y-91417132D03*
X173187780Y-91417132D03*
X173687780Y-91417132D03*
X174187780Y-91417132D03*
X174687780Y-91417132D03*
X175937780Y-91417132D03*
X169937780Y-91917132D03*
X170437780Y-91917132D03*
X170937780Y-91917132D03*
X171437780Y-91917132D03*
X171937780Y-91917132D03*
X172437780Y-91917132D03*
X172937780Y-91917132D03*
X173437780Y-91917132D03*
X173937780Y-91917132D03*
X174437780Y-91917132D03*
X174937780Y-91917132D03*
X175437780Y-91917132D03*
X169437780Y-85917132D03*
X170187780Y-85917132D03*
X170687780Y-85917132D03*
X171187780Y-85917132D03*
X171687780Y-85917132D03*
X172187780Y-85917132D03*
X172687780Y-85917132D03*
X173187780Y-85917132D03*
X173687780Y-85917132D03*
X174187780Y-85917132D03*
X175937780Y-85917132D03*
X169437780Y-86417132D03*
X169937780Y-86667132D03*
X175437780Y-86667132D03*
X175937780Y-86917132D03*
D20*
X172687779Y-88667131D03*
D19*
X169937780Y-87167132D03*
X175437780Y-87167132D03*
X169437780Y-87417132D03*
X169937780Y-87667132D03*
X175437780Y-87667132D03*
X169437780Y-87917132D03*
X175937780Y-87917132D03*
X169937780Y-88167132D03*
X169437780Y-88417132D03*
X175937780Y-88417132D03*
X169937780Y-88667132D03*
X169437780Y-88917132D03*
X175937780Y-88917132D03*
X169937780Y-89167132D03*
X175437780Y-89167132D03*
X169437780Y-89417132D03*
X175937780Y-89417132D03*
X169937780Y-89667132D03*
X175437780Y-89667132D03*
X169437780Y-89917132D03*
X175937780Y-89917132D03*
X175437780Y-90167132D03*
X169437780Y-90417132D03*
X175937780Y-90417132D03*
X169937780Y-90667132D03*
X175437780Y-90667132D03*
D21*
X179770000Y-90392500D03*
X179770000Y-91967500D03*
D15*
X181160000Y-90730000D03*
D12*
X177060000Y-87980000D03*
X177060000Y-87020000D03*
D15*
X181160000Y-91930000D03*
D11*
X178600000Y-91120000D03*
X178600000Y-92080000D03*
D22*
X167702779Y-86462131D03*
X167702779Y-87862131D03*
D12*
X174602780Y-84182132D03*
X174602780Y-83222132D03*
D18*
X167222780Y-91032132D03*
X168182780Y-91032132D03*
D13*
X178400000Y-86000000D03*
X177440000Y-86000000D03*
D12*
X172502780Y-84172132D03*
X172502780Y-83212132D03*
D23*
X179249999Y-87119999D03*
X179249999Y-88069999D03*
X179249999Y-89019999D03*
X181449999Y-89019999D03*
X181449999Y-87119999D03*
D13*
X181690000Y-85760000D03*
X180730000Y-85760000D03*
D24*
X171700000Y-87700000D03*
X172700000Y-87700000D03*
X166480000Y-92050000D03*
X176270000Y-83220000D03*
X178470000Y-85070000D03*
X166490000Y-85320000D03*
X166490000Y-91020000D03*
X179392780Y-84952132D03*
X173700000Y-87700000D03*
X166490000Y-84300000D03*
X166480000Y-90030000D03*
X166480000Y-89010000D03*
X168180000Y-90150000D03*
X181900000Y-85620000D03*
X175130000Y-84910000D03*
X176170000Y-91910000D03*
X169610000Y-85260000D03*
X175910000Y-87390000D03*
X170730000Y-85290000D03*
X167557188Y-83520000D03*
X179250000Y-87120000D03*
X168320000Y-92480000D03*
X166610000Y-86480000D03*
X170220000Y-92480000D03*
X170300000Y-90160000D03*
X176240000Y-90890000D03*
X175380000Y-91260000D03*
X176960000Y-91430000D03*
X168880000Y-87670000D03*
X181860000Y-89870000D03*
X181760000Y-87960000D03*
X170287132Y-87667132D03*
X175080000Y-88080000D03*
X180420000Y-83980000D03*
X181280000Y-83420000D03*
X175437780Y-88820000D03*
D25*
X171187780Y-85917132D02*
X171187780Y-87167132D01*
X166515320Y-85320000D02*
X166518726Y-85323406D01*
X166490000Y-85320000D02*
X166515320Y-85320000D01*
X173500000Y-87700000D02*
X174032868Y-87167132D01*
X166522132Y-85322132D02*
X167222780Y-85322132D01*
X171187780Y-87167132D02*
X172687780Y-88667132D01*
D26*
X178400000Y-86000000D02*
X178400000Y-85238994D01*
D25*
X167212780Y-84302132D02*
X166492132Y-84302132D01*
X178339584Y-91012132D02*
X177600000Y-91012132D01*
X175642780Y-83222132D02*
X176267868Y-83222132D01*
D26*
X179250000Y-88070000D02*
X178245563Y-88070000D01*
D25*
X167222780Y-90022132D02*
X166487868Y-90022132D01*
X167222780Y-91032132D02*
X166502132Y-91032132D01*
X177192780Y-83352132D02*
X176402132Y-83352132D01*
X173500000Y-87700000D02*
X173500000Y-87854912D01*
X179392780Y-84952132D02*
X178587868Y-84952132D01*
X173500000Y-87854912D02*
X172687780Y-88667132D01*
X167222780Y-89012132D02*
X166482132Y-89012132D01*
X167222780Y-92042132D02*
X166487868Y-92042132D01*
X174032868Y-87167132D02*
X175437780Y-87167132D01*
X166487868Y-90022100D02*
G75*
G03*
X166480000Y-90030000I32J-7900D01*
G01*
X166522136Y-85322120D02*
G75*
G03*
X166518727Y-85323406I-936J-2680D01*
G01*
X176269968Y-83220000D02*
G75*
G03*
X176402132Y-83352132I132132J0D01*
G01*
X176267868Y-83222100D02*
G75*
G03*
X176270000Y-83220000I32J2100D01*
G01*
D26*
X179392780Y-84952120D02*
G75*
G03*
X179828243Y-84771758I20J615820D01*
G01*
D25*
X166487868Y-92042100D02*
G75*
G03*
X166480000Y-92050000I32J-7900D01*
G01*
X166479968Y-89010000D02*
G75*
G03*
X166482132Y-89012132I2132J0D01*
G01*
X178587868Y-84952100D02*
G75*
G03*
X178470000Y-85070000I32J-117900D01*
G01*
X166489968Y-91020000D02*
G75*
G03*
X166502132Y-91032132I12132J0D01*
G01*
X166489968Y-84300000D02*
G75*
G03*
X166492132Y-84302132I2132J0D01*
G01*
D26*
X177980011Y-87959989D02*
G75*
G03*
X178245563Y-88070000I265589J265589D01*
G01*
X178470001Y-85070001D02*
G75*
G03*
X178400000Y-85238994I168999J-168999D01*
G01*
D25*
X178600005Y-91119995D02*
G75*
G03*
X178339584Y-91012132I-260405J-260405D01*
G01*
D26*
X175937780Y-85917132D02*
X176752780Y-85102132D01*
X177440000Y-86000000D02*
X177440000Y-85548973D01*
X176752780Y-85102132D02*
X177192780Y-85102132D01*
X177440007Y-85548973D02*
G75*
G03*
X177192780Y-84952132I-844107J-27D01*
G01*
X178592780Y-84152132D02*
X179392780Y-83352132D01*
X175437780Y-85417132D02*
X176702780Y-84152132D01*
X175642780Y-84182132D02*
X176672780Y-84182132D01*
X176702780Y-84152132D02*
X178592780Y-84152132D01*
X176672780Y-84182132D02*
X176702780Y-84152132D01*
D25*
X168182780Y-90022132D02*
X168484166Y-90022132D01*
D26*
X177545000Y-91917132D02*
X177600000Y-91972132D01*
X168182780Y-90147220D02*
X168182780Y-90022132D01*
X177600000Y-91972132D02*
X176232132Y-91972132D01*
X178492132Y-91972132D02*
X177600000Y-91972132D01*
X173280648Y-92260000D02*
X175094912Y-92260000D01*
X178600000Y-92080000D02*
X179170086Y-91509914D01*
X179870000Y-91220000D02*
X180070274Y-91220000D01*
X174988120Y-84567473D02*
X174602780Y-84182132D01*
X169610000Y-85501357D02*
X169610000Y-85260000D01*
X175437780Y-91917132D02*
X176162868Y-91917132D01*
X181690000Y-86540589D02*
X181690000Y-85760000D01*
X168180000Y-90150000D02*
X168182780Y-90147220D01*
X169610000Y-85260000D02*
X169610000Y-84798973D01*
X181160000Y-90730000D02*
X181094069Y-90795931D01*
D25*
X169511004Y-90490355D02*
X169437780Y-90417132D01*
D26*
X181690000Y-85760000D02*
X181780502Y-85669498D01*
D25*
X174937780Y-84990893D02*
X174937780Y-85417132D01*
D26*
X178600000Y-92080000D02*
X178492132Y-91972132D01*
X169437803Y-85917155D02*
G75*
G03*
X169610000Y-85501357I-415803J415755D01*
G01*
D25*
X169511018Y-90490341D02*
G75*
G03*
X169937780Y-90667132I426782J426741D01*
G01*
D26*
X175094912Y-92259980D02*
G75*
G03*
X175437780Y-91917132I-12J342880D01*
G01*
X172937700Y-91917132D02*
G75*
G03*
X173280648Y-92260000I342900J32D01*
G01*
X176169968Y-91910000D02*
G75*
G03*
X176232132Y-91972132I62132J0D01*
G01*
D25*
X177599988Y-91972144D02*
G75*
G03*
X177467219Y-91917132I-132788J-132756D01*
G01*
D26*
X181900000Y-85620002D02*
G75*
G03*
X181780502Y-85669498I0J-168998D01*
G01*
D25*
X174937779Y-84990893D02*
G75*
G03*
X174602780Y-84182132I-1143779J-7D01*
G01*
D26*
X169610007Y-84798973D02*
G75*
G03*
X169362780Y-84202132I-844107J-27D01*
G01*
X176162868Y-91917100D02*
G75*
G03*
X176170000Y-91910000I32J7100D01*
G01*
D25*
X169437788Y-90417124D02*
G75*
G03*
X168484166Y-90022132I-953588J-953576D01*
G01*
D26*
X180070274Y-91219971D02*
G75*
G03*
X181094068Y-90795930I26J1447871D01*
G01*
X181450003Y-87120003D02*
G75*
G03*
X181690000Y-86540589I-579403J579403D01*
G01*
X175130001Y-84910000D02*
G75*
G03*
X174988120Y-84567473I-484401J0D01*
G01*
X179870000Y-91219992D02*
G75*
G03*
X179170086Y-91509914I0J-989808D01*
G01*
X168690000Y-84540000D02*
X168649664Y-84499664D01*
X168940000Y-85919352D02*
X168940000Y-85143553D01*
X168940068Y-85919352D02*
G75*
G03*
X169437780Y-86417132I497732J-48D01*
G01*
X168940019Y-85143553D02*
G75*
G03*
X168690000Y-84540000I-853619J-47D01*
G01*
X168649664Y-84499664D02*
G75*
G03*
X168172780Y-84302132I-476864J-476836D01*
G01*
X177010000Y-89000000D02*
X176137841Y-89000000D01*
X175937765Y-88917147D02*
G75*
G03*
X176137841Y-89000000I200035J200047D01*
G01*
X175910000Y-86944912D02*
X175937780Y-86917132D01*
X175910000Y-87390000D02*
X175910000Y-86944912D01*
D25*
X171300083Y-84589917D02*
X170821924Y-85068076D01*
X173552780Y-84182132D02*
X171498993Y-84182132D01*
X170687780Y-85917132D02*
X170687780Y-85332220D01*
X171300067Y-84589901D02*
G75*
G03*
X171462780Y-84197132I-392767J392801D01*
G01*
X170730000Y-85289980D02*
G75*
G03*
X170687780Y-85332220I0J-42220D01*
G01*
X170821934Y-85068086D02*
G75*
G03*
X170730000Y-85290000I221866J-221914D01*
G01*
X171498993Y-84182114D02*
G75*
G03*
X171462780Y-84197132I7J-51186D01*
G01*
D26*
X176729203Y-86689203D02*
X177060000Y-87020000D01*
X175913698Y-86470000D02*
X176200000Y-86470000D01*
X176729202Y-86689204D02*
G75*
G03*
X176200000Y-86470000I-529202J-529196D01*
G01*
X175913698Y-86469985D02*
G75*
G03*
X175437781Y-86667133I2J-673015D01*
G01*
X169937780Y-86667132D02*
X169868269Y-86736643D01*
X167689470Y-86448823D02*
X167702780Y-86462132D01*
X167702780Y-86462132D02*
X167716089Y-86448823D01*
X169868269Y-86736643D02*
X168365508Y-86736643D01*
X167702775Y-86462137D02*
G75*
G03*
X168365508Y-86736643I662725J662737D01*
G01*
X167716073Y-86448807D02*
G75*
G03*
X168182780Y-85322132I-1126673J1126707D01*
G01*
X167709018Y-87868371D02*
X167702780Y-87862132D01*
X167696542Y-87868371D02*
X167702780Y-87862132D01*
X169751567Y-87090000D02*
X168670000Y-87090000D01*
X168336964Y-87227948D02*
X167702780Y-87862132D01*
X168670000Y-87090005D02*
G75*
G03*
X168336964Y-87227948I0J-470995D01*
G01*
X168182769Y-89012132D02*
G75*
G03*
X167709018Y-87868371I-1617469J32D01*
G01*
X169937787Y-87167125D02*
G75*
G03*
X169751567Y-87090000I-186187J-186175D01*
G01*
D25*
X168182780Y-92342780D02*
X168182780Y-92042132D01*
D26*
X180170000Y-88197738D02*
X180170000Y-88030000D01*
X179260000Y-87120000D02*
X179250000Y-87120000D01*
D25*
X169636004Y-92042132D02*
X168182780Y-92042132D01*
D26*
X178960295Y-87000000D02*
X177980000Y-87000000D01*
X179250000Y-89020000D02*
X179347738Y-89020000D01*
D25*
X168320000Y-92480000D02*
X168182780Y-92342780D01*
D26*
X179347738Y-89020000D02*
G75*
G03*
X180170000Y-88197738I-38J822300D01*
G01*
D25*
X169636004Y-92042147D02*
G75*
G03*
X169937780Y-91917132I-4J426747D01*
G01*
D26*
X180170000Y-88030000D02*
G75*
G03*
X179260000Y-87120000I-910000J0D01*
G01*
X179250002Y-87119998D02*
G75*
G03*
X178960295Y-87000000I-289702J-289702D01*
G01*
X170562780Y-91542132D02*
X169414028Y-91542132D01*
X170687780Y-91417132D02*
X170562780Y-91542132D01*
X168182769Y-91032143D02*
G75*
G03*
X169414028Y-91542132I1231231J1231243D01*
G01*
X179344430Y-92590000D02*
X172610648Y-92590000D01*
X179770000Y-91967500D02*
X179770000Y-92164430D01*
X179344430Y-92590000D02*
G75*
G03*
X179770000Y-92164430I-30J425600D01*
G01*
X171937700Y-91917132D02*
G75*
G03*
X172610648Y-92590000I672900J32D01*
G01*
X179063843Y-90100000D02*
X177960000Y-90100000D01*
X179769988Y-90392512D02*
G75*
G03*
X179063843Y-90100000I-706188J-706188D01*
G01*
D25*
X170437780Y-92192220D02*
X170437780Y-91917132D01*
X170437780Y-92192220D02*
X170437780Y-92262220D01*
X170220000Y-92479980D02*
G75*
G03*
X170437780Y-92262220I0J217780D01*
G01*
X171462780Y-83227132D02*
X170426922Y-83227132D01*
X170402771Y-83217141D02*
G75*
G03*
X170426922Y-83227132I24129J24141D01*
G01*
X171057291Y-91264074D02*
X171057291Y-91797621D01*
X170467101Y-90980000D02*
X170773217Y-90980000D01*
X170359731Y-90872630D02*
X170467101Y-90980000D01*
X170773217Y-90980000D02*
X171057291Y-91264074D01*
X170359731Y-90219731D02*
X170359731Y-90872630D01*
X171057291Y-91797621D02*
X170937780Y-91917132D01*
X170300000Y-90160000D02*
X170359731Y-90219731D01*
X170187780Y-85917132D02*
X170187780Y-84706187D01*
X170402793Y-84187145D02*
G75*
G03*
X170187780Y-84706187I519007J-519055D01*
G01*
D26*
X176240000Y-90890000D02*
X176212868Y-90917132D01*
X176212868Y-90917132D02*
X175937780Y-90917132D01*
X175237132Y-91117132D02*
X172987780Y-91117132D01*
X175380000Y-91260000D02*
X175237132Y-91117132D01*
X172987780Y-91117132D02*
X172687780Y-91417132D01*
X176960000Y-91430000D02*
X176947132Y-91417132D01*
X176947132Y-91417132D02*
X175937780Y-91417132D01*
X169132868Y-87417132D02*
X169437780Y-87417132D01*
X168880000Y-87670000D02*
X169132868Y-87417132D01*
X170287132Y-87667132D02*
X169937780Y-87667132D01*
X174960000Y-88790000D02*
X174960000Y-89189352D01*
X175080000Y-88221304D02*
X175070444Y-88230860D01*
X174960000Y-88503202D02*
X174960000Y-88790000D01*
X175080000Y-88080000D02*
X175080000Y-88221304D01*
X175070455Y-88230871D02*
G75*
G03*
X174960000Y-88503202I305145J-282329D01*
G01*
X174960068Y-89189352D02*
G75*
G03*
X175437780Y-89667132I477732J-48D01*
G01*
X175437780Y-88820000D02*
X175437780Y-89167132D01*
G04 #@! TA.AperFunction,Conductor*
G36*
X179067442Y-90325855D02*
G01*
X179077754Y-90326871D01*
X179111610Y-90338984D01*
X179135762Y-90365629D01*
X179144500Y-90400514D01*
X179144500Y-90643623D01*
X179144500Y-90643636D01*
X179144501Y-90646294D01*
X179154957Y-90718067D01*
X179209081Y-90828780D01*
X179296220Y-90915919D01*
X179385654Y-90959640D01*
X179415765Y-90986676D01*
X179427151Y-91025509D01*
X179416409Y-91064524D01*
X179386750Y-91092055D01*
X179235610Y-91169066D01*
X179235601Y-91169071D01*
X179233025Y-91170384D01*
X179230692Y-91172078D01*
X179230679Y-91172087D01*
X179080614Y-91281120D01*
X179080607Y-91281125D01*
X179078263Y-91282829D01*
X179062766Y-91298326D01*
X179038762Y-91314367D01*
X179010442Y-91320000D01*
X178474000Y-91320000D01*
X178437000Y-91310086D01*
X178409914Y-91283000D01*
X178400000Y-91246000D01*
X178400000Y-90910257D01*
X178800000Y-90910257D01*
X178802059Y-90917940D01*
X178809743Y-90920000D01*
X179047594Y-90920000D01*
X179055499Y-90917717D01*
X179056357Y-90912581D01*
X179054937Y-90907360D01*
X179016161Y-90819541D01*
X179008545Y-90808424D01*
X178941575Y-90741454D01*
X178930458Y-90733838D01*
X178842637Y-90695060D01*
X178832016Y-90692171D01*
X178815426Y-90690246D01*
X178811155Y-90690000D01*
X178809743Y-90690000D01*
X178802059Y-90692059D01*
X178800000Y-90699743D01*
X178800000Y-90910257D01*
X178400000Y-90910257D01*
X178400000Y-90699743D01*
X178397940Y-90692059D01*
X178390257Y-90690000D01*
X178388845Y-90690000D01*
X178384573Y-90690246D01*
X178367983Y-90692171D01*
X178357362Y-90695060D01*
X178269541Y-90733838D01*
X178258424Y-90741454D01*
X178191454Y-90808424D01*
X178185922Y-90816500D01*
X178156317Y-90841664D01*
X178118044Y-90848361D01*
X178081654Y-90834744D01*
X178057179Y-90804568D01*
X178016161Y-90711673D01*
X178008545Y-90700556D01*
X178004814Y-90696825D01*
X177984562Y-90658936D01*
X177988773Y-90616180D01*
X178016028Y-90582970D01*
X178057139Y-90570499D01*
X178137622Y-90570499D01*
X178161498Y-90567730D01*
X178259141Y-90524616D01*
X178334616Y-90449141D01*
X178369733Y-90369608D01*
X178397029Y-90337500D01*
X178437428Y-90325500D01*
X179060200Y-90325500D01*
X179067442Y-90325855D01*
G37*
G04 #@! TD.AperFunction*
G04 #@! TA.AperFunction,Conductor*
G36*
X181773222Y-82360782D02*
G01*
X181812078Y-82364181D01*
X181935374Y-82374968D01*
X181948067Y-82377205D01*
X182102177Y-82418498D01*
X182114297Y-82422910D01*
X182258889Y-82490335D01*
X182270050Y-82496779D01*
X182400734Y-82588285D01*
X182410615Y-82596576D01*
X182523423Y-82709384D01*
X182531714Y-82719265D01*
X182554550Y-82751878D01*
X182608918Y-82829524D01*
X182623217Y-82849944D01*
X182629667Y-82861115D01*
X182697089Y-83005703D01*
X182701501Y-83017824D01*
X182742792Y-83171924D01*
X182745031Y-83184627D01*
X182759218Y-83346777D01*
X182759500Y-83353227D01*
X182759500Y-92046773D01*
X182759218Y-92053223D01*
X182745031Y-92215372D01*
X182742792Y-92228075D01*
X182701501Y-92382175D01*
X182697089Y-92394296D01*
X182629667Y-92538884D01*
X182623217Y-92550055D01*
X182531714Y-92680734D01*
X182523423Y-92690615D01*
X182410615Y-92803423D01*
X182400734Y-92811714D01*
X182270055Y-92903217D01*
X182258884Y-92909667D01*
X182114296Y-92977089D01*
X182102175Y-92981501D01*
X181948075Y-93022792D01*
X181935372Y-93025031D01*
X181773223Y-93039218D01*
X181766773Y-93039500D01*
X167003227Y-93039500D01*
X166996777Y-93039218D01*
X166834627Y-93025031D01*
X166821924Y-93022792D01*
X166667824Y-92981501D01*
X166655703Y-92977089D01*
X166511115Y-92909667D01*
X166499944Y-92903217D01*
X166474630Y-92885492D01*
X166421651Y-92848395D01*
X166369265Y-92811714D01*
X166359384Y-92803423D01*
X166246576Y-92690615D01*
X166238285Y-92680734D01*
X166190434Y-92612396D01*
X166146779Y-92550050D01*
X166140335Y-92538889D01*
X166072910Y-92394296D01*
X166068498Y-92382175D01*
X166067687Y-92379148D01*
X166033963Y-92253287D01*
X166792780Y-92253287D01*
X166793026Y-92257558D01*
X166794951Y-92274148D01*
X166797840Y-92284769D01*
X166836618Y-92372590D01*
X166844234Y-92383707D01*
X166911204Y-92450677D01*
X166922321Y-92458293D01*
X167010140Y-92497069D01*
X167015361Y-92498489D01*
X167020497Y-92497631D01*
X167022780Y-92489726D01*
X167022780Y-92251875D01*
X167020720Y-92244191D01*
X167013037Y-92242132D01*
X166802523Y-92242132D01*
X166794839Y-92244191D01*
X166792780Y-92251875D01*
X166792780Y-92253287D01*
X166033963Y-92253287D01*
X166027205Y-92228067D01*
X166024968Y-92215371D01*
X166023326Y-92196607D01*
X166010782Y-92053222D01*
X166010500Y-92046773D01*
X166010500Y-88802389D01*
X166792780Y-88802389D01*
X166794839Y-88810072D01*
X166802523Y-88812132D01*
X167013037Y-88812132D01*
X167020720Y-88810072D01*
X167022780Y-88802389D01*
X167022780Y-88564538D01*
X167020497Y-88556632D01*
X167015361Y-88555774D01*
X167010140Y-88557194D01*
X166922321Y-88595970D01*
X166911204Y-88603586D01*
X166844234Y-88670556D01*
X166836618Y-88681673D01*
X166797840Y-88769494D01*
X166794951Y-88780115D01*
X166793026Y-88796705D01*
X166792780Y-88800977D01*
X166792780Y-88802389D01*
X166010500Y-88802389D01*
X166010500Y-86480000D01*
X166204508Y-86480000D01*
X166205419Y-86485752D01*
X166220958Y-86583867D01*
X166224354Y-86605304D01*
X166281950Y-86718342D01*
X166371658Y-86808050D01*
X166484696Y-86865646D01*
X166610000Y-86885492D01*
X166735304Y-86865646D01*
X166848342Y-86808050D01*
X166884005Y-86772386D01*
X166918347Y-86752931D01*
X166957808Y-86753898D01*
X166991157Y-86775014D01*
X167008907Y-86810270D01*
X167009590Y-86813705D01*
X167009591Y-86813709D01*
X167011013Y-86820854D01*
X167044276Y-86870636D01*
X167094058Y-86903899D01*
X167137960Y-86912632D01*
X168017245Y-86912632D01*
X168040110Y-86916253D01*
X168093234Y-86933514D01*
X168139068Y-86940773D01*
X168175548Y-86957589D01*
X168197868Y-86990987D01*
X168199450Y-87031125D01*
X168179829Y-87066177D01*
X168177528Y-87068479D01*
X168177515Y-87068492D01*
X168145803Y-87100201D01*
X168145795Y-87100211D01*
X167856049Y-87389958D01*
X167832042Y-87405999D01*
X167803723Y-87411632D01*
X167137960Y-87411632D01*
X167134391Y-87412341D01*
X167134390Y-87412342D01*
X167101204Y-87418943D01*
X167101201Y-87418943D01*
X167094058Y-87420365D01*
X167088000Y-87424412D01*
X167087999Y-87424413D01*
X167050336Y-87449578D01*
X167050333Y-87449580D01*
X167044276Y-87453628D01*
X167040228Y-87459685D01*
X167040226Y-87459688D01*
X167015061Y-87497351D01*
X167011013Y-87503410D01*
X167009591Y-87510553D01*
X167009591Y-87510556D01*
X167008647Y-87515304D01*
X167002280Y-87547312D01*
X167002280Y-88176952D01*
X167011013Y-88220854D01*
X167044276Y-88270636D01*
X167094058Y-88303899D01*
X167137960Y-88312632D01*
X167723046Y-88312632D01*
X167762123Y-88323791D01*
X167789415Y-88353903D01*
X167849171Y-88475077D01*
X167852875Y-88484020D01*
X167872850Y-88542867D01*
X167874844Y-88583457D01*
X167855103Y-88618978D01*
X167803817Y-88670263D01*
X167803810Y-88670272D01*
X167798967Y-88675116D01*
X167796198Y-88681385D01*
X167796195Y-88681391D01*
X167770200Y-88740263D01*
X167742904Y-88772372D01*
X167702505Y-88784372D01*
X167662107Y-88772371D01*
X167634811Y-88740262D01*
X167608942Y-88681675D01*
X167601325Y-88670556D01*
X167534355Y-88603586D01*
X167523238Y-88595970D01*
X167435419Y-88557194D01*
X167430198Y-88555774D01*
X167425062Y-88556632D01*
X167422780Y-88564538D01*
X167422780Y-89138132D01*
X167412866Y-89175132D01*
X167385780Y-89202218D01*
X167348780Y-89212132D01*
X166802523Y-89212132D01*
X166794839Y-89214191D01*
X166792780Y-89221875D01*
X166792780Y-89223287D01*
X166793026Y-89227558D01*
X166794951Y-89244148D01*
X166797840Y-89254769D01*
X166836618Y-89342590D01*
X166844234Y-89353707D01*
X166911204Y-89420677D01*
X166922325Y-89428296D01*
X166970206Y-89449438D01*
X167002315Y-89476734D01*
X167014315Y-89517132D01*
X167002315Y-89557530D01*
X166970206Y-89584826D01*
X166922325Y-89605967D01*
X166911204Y-89613586D01*
X166844234Y-89680556D01*
X166836618Y-89691673D01*
X166797840Y-89779494D01*
X166794951Y-89790115D01*
X166793026Y-89806705D01*
X166792780Y-89810977D01*
X166792780Y-89812389D01*
X166794839Y-89820072D01*
X166802523Y-89822132D01*
X167348780Y-89822132D01*
X167385780Y-89832046D01*
X167412866Y-89859132D01*
X167422780Y-89896132D01*
X167422780Y-90148132D01*
X167412866Y-90185132D01*
X167385780Y-90212218D01*
X167348780Y-90222132D01*
X166802523Y-90222132D01*
X166794839Y-90224191D01*
X166792780Y-90231875D01*
X166792780Y-90233287D01*
X166793026Y-90237558D01*
X166794951Y-90254148D01*
X166797840Y-90264769D01*
X166836618Y-90352590D01*
X166844234Y-90363707D01*
X166911204Y-90430677D01*
X166922325Y-90438296D01*
X166970206Y-90459438D01*
X167002315Y-90486734D01*
X167014315Y-90527132D01*
X167002315Y-90567530D01*
X166970206Y-90594826D01*
X166922325Y-90615967D01*
X166911204Y-90623586D01*
X166844234Y-90690556D01*
X166836618Y-90701673D01*
X166797840Y-90789494D01*
X166794951Y-90800115D01*
X166793026Y-90816705D01*
X166792780Y-90820977D01*
X166792780Y-90822389D01*
X166794839Y-90830072D01*
X166802523Y-90832132D01*
X167348780Y-90832132D01*
X167385780Y-90842046D01*
X167412866Y-90869132D01*
X167422780Y-90906132D01*
X167422780Y-91158132D01*
X167412866Y-91195132D01*
X167385780Y-91222218D01*
X167348780Y-91232132D01*
X166802523Y-91232132D01*
X166794839Y-91234191D01*
X166792780Y-91241875D01*
X166792780Y-91243287D01*
X166793026Y-91247558D01*
X166794951Y-91264148D01*
X166797840Y-91274769D01*
X166836618Y-91362590D01*
X166844234Y-91373707D01*
X166911204Y-91440677D01*
X166922325Y-91448296D01*
X166970206Y-91469438D01*
X167002315Y-91496734D01*
X167014315Y-91537132D01*
X167002315Y-91577530D01*
X166970206Y-91604826D01*
X166922325Y-91625967D01*
X166911204Y-91633586D01*
X166844234Y-91700556D01*
X166836618Y-91711673D01*
X166797840Y-91799494D01*
X166794951Y-91810115D01*
X166793026Y-91826705D01*
X166792780Y-91830977D01*
X166792780Y-91832389D01*
X166794839Y-91840072D01*
X166802523Y-91842132D01*
X167348780Y-91842132D01*
X167385780Y-91852046D01*
X167412866Y-91879132D01*
X167422780Y-91916132D01*
X167422780Y-92489726D01*
X167425062Y-92497631D01*
X167430198Y-92498489D01*
X167435419Y-92497069D01*
X167523238Y-92458293D01*
X167534355Y-92450677D01*
X167601325Y-92383707D01*
X167608942Y-92372589D01*
X167634811Y-92314001D01*
X167662107Y-92281892D01*
X167702505Y-92269891D01*
X167742904Y-92281891D01*
X167770200Y-92314000D01*
X167796195Y-92372872D01*
X167796197Y-92372875D01*
X167798967Y-92379148D01*
X167875764Y-92455945D01*
X167882036Y-92458714D01*
X167887694Y-92462590D01*
X167886581Y-92464213D01*
X167905159Y-92478766D01*
X167919633Y-92512359D01*
X167933442Y-92599548D01*
X167933442Y-92599550D01*
X167934354Y-92605304D01*
X167991950Y-92718342D01*
X168081658Y-92808050D01*
X168194696Y-92865646D01*
X168320000Y-92885492D01*
X168445304Y-92865646D01*
X168558342Y-92808050D01*
X168648050Y-92718342D01*
X168705646Y-92605304D01*
X168725492Y-92480000D01*
X168713329Y-92403206D01*
X168718816Y-92361534D01*
X168746115Y-92329570D01*
X168786418Y-92317632D01*
X169587429Y-92317632D01*
X169635952Y-92317632D01*
X169636007Y-92317639D01*
X169636007Y-92317647D01*
X169705178Y-92317646D01*
X169730864Y-92312536D01*
X169740476Y-92310624D01*
X169786772Y-92316409D01*
X169820404Y-92348744D01*
X169828005Y-92394776D01*
X169815419Y-92474247D01*
X169814508Y-92480000D01*
X169815419Y-92485752D01*
X169833442Y-92599548D01*
X169833442Y-92599550D01*
X169834354Y-92605304D01*
X169891950Y-92718342D01*
X169981658Y-92808050D01*
X170094696Y-92865646D01*
X170220000Y-92885492D01*
X170345304Y-92865646D01*
X170458342Y-92808050D01*
X170548050Y-92718342D01*
X170605646Y-92605304D01*
X170609611Y-92580266D01*
X170624848Y-92545698D01*
X170640299Y-92526326D01*
X170688533Y-92426185D01*
X170713275Y-92317821D01*
X170713277Y-92289365D01*
X170713280Y-92289353D01*
X170713280Y-92256212D01*
X170713281Y-92236905D01*
X170723810Y-92198867D01*
X170752397Y-92171650D01*
X170790909Y-92163001D01*
X170816772Y-92171543D01*
X170817491Y-92169809D01*
X170824226Y-92172598D01*
X170830285Y-92176647D01*
X170937780Y-92198029D01*
X171045275Y-92176647D01*
X171051369Y-92172574D01*
X171051526Y-92172471D01*
X171051960Y-92172339D01*
X171058069Y-92169809D01*
X171058318Y-92170410D01*
X171092637Y-92160000D01*
X171282923Y-92160000D01*
X171317241Y-92170410D01*
X171317491Y-92169809D01*
X171323599Y-92172339D01*
X171324034Y-92172471D01*
X171324223Y-92172597D01*
X171324224Y-92172597D01*
X171330285Y-92176647D01*
X171437780Y-92198029D01*
X171545275Y-92176647D01*
X171551369Y-92172574D01*
X171551526Y-92172471D01*
X171551960Y-92172339D01*
X171558069Y-92169809D01*
X171558318Y-92170410D01*
X171592637Y-92160000D01*
X171689343Y-92160000D01*
X171730454Y-92172470D01*
X171757708Y-92205677D01*
X171814472Y-92342696D01*
X171912800Y-92489837D01*
X171915362Y-92492399D01*
X171915364Y-92492401D01*
X172035373Y-92612396D01*
X172035376Y-92612399D01*
X172037946Y-92614968D01*
X172185099Y-92713279D01*
X172348604Y-92780993D01*
X172522178Y-92815506D01*
X172610664Y-92815500D01*
X179299581Y-92815500D01*
X179299584Y-92815500D01*
X179299591Y-92815503D01*
X179344446Y-92815500D01*
X179368132Y-92815500D01*
X179368138Y-92815498D01*
X179417801Y-92815496D01*
X179560830Y-92782843D01*
X179693009Y-92719184D01*
X179807711Y-92627711D01*
X179817873Y-92614968D01*
X179843080Y-92583361D01*
X179868828Y-92562827D01*
X179900935Y-92555499D01*
X180058623Y-92555499D01*
X180061294Y-92555499D01*
X180133067Y-92545043D01*
X180243780Y-92490919D01*
X180330919Y-92403780D01*
X180385043Y-92293067D01*
X180386063Y-92293565D01*
X180408879Y-92261299D01*
X180452487Y-92246685D01*
X180496306Y-92260655D01*
X180523409Y-92297812D01*
X180527479Y-92310338D01*
X180579713Y-92412852D01*
X180586478Y-92422164D01*
X180667835Y-92503521D01*
X180677147Y-92510286D01*
X180779658Y-92562518D01*
X180790607Y-92566076D01*
X180875646Y-92579544D01*
X180881428Y-92580000D01*
X180950257Y-92580000D01*
X180957940Y-92577940D01*
X180960000Y-92570257D01*
X180960000Y-92570256D01*
X181360000Y-92570256D01*
X181362059Y-92577939D01*
X181369743Y-92579999D01*
X181438571Y-92579999D01*
X181444354Y-92579543D01*
X181529393Y-92566076D01*
X181540340Y-92562519D01*
X181642852Y-92510286D01*
X181652164Y-92503521D01*
X181733521Y-92422164D01*
X181740286Y-92412852D01*
X181792518Y-92310341D01*
X181796076Y-92299392D01*
X181809544Y-92214353D01*
X181810000Y-92208572D01*
X181810000Y-92139743D01*
X181807940Y-92132059D01*
X181800257Y-92130000D01*
X181369743Y-92130000D01*
X181362059Y-92132059D01*
X181360000Y-92139743D01*
X181360000Y-92570256D01*
X180960000Y-92570256D01*
X180960000Y-91804000D01*
X180969914Y-91767000D01*
X180997000Y-91739914D01*
X181034000Y-91730000D01*
X181800256Y-91730000D01*
X181807939Y-91727940D01*
X181809999Y-91720257D01*
X181809999Y-91651429D01*
X181809543Y-91645645D01*
X181796076Y-91560606D01*
X181792519Y-91549659D01*
X181740286Y-91447147D01*
X181733521Y-91437835D01*
X181678365Y-91382679D01*
X181659212Y-91349506D01*
X181659212Y-91311200D01*
X181678365Y-91278027D01*
X181696501Y-91259891D01*
X181738050Y-91218342D01*
X181795646Y-91105304D01*
X181810500Y-91011519D01*
X181810499Y-90448482D01*
X181800577Y-90385833D01*
X181796511Y-90360156D01*
X181801998Y-90318482D01*
X181829297Y-90286519D01*
X181860292Y-90277337D01*
X181860000Y-90275492D01*
X181985304Y-90255646D01*
X182098342Y-90198050D01*
X182188050Y-90108342D01*
X182245646Y-89995304D01*
X182265492Y-89870000D01*
X182245646Y-89744696D01*
X182188050Y-89631658D01*
X182099960Y-89543568D01*
X182078642Y-89498495D01*
X182090757Y-89450131D01*
X182121767Y-89403722D01*
X182130500Y-89359820D01*
X182130500Y-88680180D01*
X182121767Y-88636278D01*
X182088504Y-88586496D01*
X182038722Y-88553233D01*
X182031576Y-88551811D01*
X182031575Y-88551811D01*
X181998389Y-88545210D01*
X181994820Y-88544500D01*
X180905180Y-88544500D01*
X180901611Y-88545209D01*
X180901610Y-88545210D01*
X180868424Y-88551811D01*
X180868421Y-88551811D01*
X180861278Y-88553233D01*
X180855220Y-88557280D01*
X180855219Y-88557281D01*
X180817556Y-88582446D01*
X180817553Y-88582448D01*
X180811496Y-88586496D01*
X180807448Y-88592553D01*
X180807446Y-88592556D01*
X180789792Y-88618978D01*
X180778233Y-88636278D01*
X180776811Y-88643421D01*
X180776811Y-88643424D01*
X180771472Y-88670267D01*
X180769500Y-88680180D01*
X180769500Y-89359820D01*
X180778233Y-89403722D01*
X180811496Y-89453504D01*
X180861278Y-89486767D01*
X180905180Y-89495500D01*
X181489456Y-89495500D01*
X181530568Y-89507971D01*
X181557823Y-89541181D01*
X181562034Y-89583937D01*
X181541782Y-89621826D01*
X181536069Y-89627538D01*
X181536066Y-89627541D01*
X181531950Y-89631658D01*
X181529305Y-89636847D01*
X181529304Y-89636850D01*
X181492532Y-89709019D01*
X181474354Y-89744696D01*
X181473442Y-89750447D01*
X181473442Y-89750451D01*
X181460920Y-89829515D01*
X181454508Y-89870000D01*
X181455419Y-89875752D01*
X181474135Y-89993924D01*
X181468648Y-90035599D01*
X181441349Y-90067562D01*
X181401046Y-90079500D01*
X180881391Y-90079500D01*
X180881378Y-90079500D01*
X180878482Y-90079501D01*
X180875609Y-90079955D01*
X180875608Y-90079956D01*
X180790450Y-90093442D01*
X180790445Y-90093443D01*
X180784696Y-90094354D01*
X180779508Y-90096997D01*
X180779503Y-90096999D01*
X180676850Y-90149304D01*
X180676847Y-90149305D01*
X180671658Y-90151950D01*
X180667541Y-90156066D01*
X180667538Y-90156069D01*
X180586069Y-90237538D01*
X180586066Y-90237541D01*
X180581950Y-90241658D01*
X180579306Y-90246845D01*
X180579305Y-90246848D01*
X180535433Y-90332952D01*
X180500479Y-90366559D01*
X180452224Y-90371311D01*
X180411385Y-90345169D01*
X180395499Y-90299356D01*
X180395499Y-90141377D01*
X180395499Y-90138706D01*
X180385043Y-90066933D01*
X180330919Y-89956220D01*
X180243780Y-89869081D01*
X180201685Y-89848502D01*
X180138227Y-89817479D01*
X180138223Y-89817478D01*
X180133067Y-89814957D01*
X180127388Y-89814129D01*
X180127383Y-89814128D01*
X180063949Y-89804886D01*
X180063939Y-89804885D01*
X180061295Y-89804500D01*
X180058611Y-89804500D01*
X179481376Y-89804500D01*
X179481362Y-89804500D01*
X179478706Y-89804501D01*
X179476063Y-89804885D01*
X179476063Y-89804886D01*
X179434253Y-89810977D01*
X179406933Y-89814957D01*
X179401771Y-89817480D01*
X179401766Y-89817482D01*
X179301728Y-89866387D01*
X179301722Y-89866391D01*
X179296220Y-89869081D01*
X179291885Y-89873415D01*
X179291379Y-89873777D01*
X179265356Y-89885578D01*
X179236803Y-89886640D01*
X179163063Y-89874958D01*
X179163056Y-89874957D01*
X179160194Y-89874504D01*
X179157296Y-89874503D01*
X179157286Y-89874503D01*
X179111781Y-89874501D01*
X179111779Y-89874501D01*
X179111775Y-89874500D01*
X179111762Y-89874500D01*
X179063853Y-89874500D01*
X179019010Y-89874498D01*
X179018998Y-89874498D01*
X179018993Y-89874499D01*
X179018991Y-89874500D01*
X178437428Y-89874500D01*
X178397029Y-89862500D01*
X178369733Y-89830391D01*
X178364032Y-89817479D01*
X178334616Y-89750859D01*
X178259141Y-89675384D01*
X178252868Y-89672614D01*
X178166586Y-89634516D01*
X178166582Y-89634515D01*
X178161498Y-89632270D01*
X178155977Y-89631629D01*
X178155972Y-89631628D01*
X178139751Y-89629746D01*
X178139735Y-89629745D01*
X178137623Y-89629500D01*
X178135479Y-89629500D01*
X177784523Y-89629500D01*
X177784505Y-89629500D01*
X177782378Y-89629501D01*
X177780252Y-89629747D01*
X177780244Y-89629748D01*
X177764033Y-89631628D01*
X177764029Y-89631628D01*
X177758502Y-89632270D01*
X177753413Y-89634516D01*
X177753409Y-89634518D01*
X177667131Y-89672614D01*
X177667128Y-89672615D01*
X177660859Y-89675384D01*
X177656013Y-89680229D01*
X177656010Y-89680232D01*
X177590232Y-89746010D01*
X177590229Y-89746013D01*
X177585384Y-89750859D01*
X177582615Y-89757128D01*
X177582614Y-89757131D01*
X177544516Y-89843413D01*
X177544514Y-89843419D01*
X177542270Y-89848502D01*
X177541629Y-89854020D01*
X177541628Y-89854027D01*
X177539746Y-89870248D01*
X177539745Y-89870265D01*
X177539500Y-89872377D01*
X177539500Y-89874519D01*
X177539500Y-89874520D01*
X177539500Y-90325476D01*
X177539500Y-90325493D01*
X177539501Y-90327622D01*
X177539747Y-90329748D01*
X177539748Y-90329755D01*
X177541615Y-90345855D01*
X177542270Y-90351498D01*
X177544517Y-90356587D01*
X177544518Y-90356590D01*
X177580780Y-90438715D01*
X177585384Y-90449141D01*
X177660859Y-90524616D01*
X177753409Y-90565481D01*
X177755891Y-90566577D01*
X177788000Y-90593873D01*
X177800000Y-90634272D01*
X177800000Y-91138132D01*
X177790086Y-91175132D01*
X177763000Y-91202218D01*
X177726000Y-91212132D01*
X177339176Y-91212132D01*
X177310857Y-91206499D01*
X177286850Y-91190458D01*
X177202461Y-91106069D01*
X177198342Y-91101950D01*
X177085304Y-91044354D01*
X177079550Y-91043442D01*
X177079548Y-91043442D01*
X176965752Y-91025419D01*
X176960000Y-91024508D01*
X176954248Y-91025419D01*
X176840451Y-91043442D01*
X176840447Y-91043442D01*
X176834696Y-91044354D01*
X176730887Y-91097247D01*
X176688593Y-91104799D01*
X176649229Y-91087577D01*
X176626069Y-91051388D01*
X176626780Y-91015483D01*
X176625646Y-91015304D01*
X176644581Y-90895752D01*
X176645492Y-90890000D01*
X176625646Y-90764696D01*
X176568050Y-90651658D01*
X176561938Y-90645546D01*
X176560942Y-90643425D01*
X176560507Y-90642826D01*
X176560621Y-90642742D01*
X176540580Y-90600048D01*
X176553214Y-90551400D01*
X176594013Y-90522045D01*
X176644155Y-90525525D01*
X176733528Y-90564987D01*
X176734773Y-90565326D01*
X176737717Y-90564834D01*
X176740000Y-90556928D01*
X177140000Y-90556928D01*
X177142282Y-90564834D01*
X177158952Y-90567621D01*
X177195169Y-90584648D01*
X177217225Y-90618041D01*
X177218669Y-90658035D01*
X177199078Y-90692932D01*
X177191454Y-90700555D01*
X177183838Y-90711673D01*
X177145062Y-90799492D01*
X177143642Y-90804713D01*
X177144500Y-90809849D01*
X177152406Y-90812132D01*
X177390257Y-90812132D01*
X177397940Y-90810072D01*
X177400000Y-90802389D01*
X177400000Y-90591875D01*
X177397940Y-90584191D01*
X177390257Y-90582132D01*
X177388845Y-90582132D01*
X177384570Y-90582379D01*
X177365098Y-90584638D01*
X177320935Y-90575985D01*
X177289951Y-90543346D01*
X177283607Y-90498793D01*
X177304248Y-90458802D01*
X177309349Y-90453701D01*
X177316966Y-90442581D01*
X177354989Y-90356469D01*
X177357877Y-90345855D01*
X177359753Y-90329684D01*
X177360000Y-90325413D01*
X177360000Y-90309743D01*
X177357940Y-90302059D01*
X177350257Y-90300000D01*
X177149743Y-90300000D01*
X177142059Y-90302059D01*
X177140000Y-90309743D01*
X177140000Y-90556928D01*
X176740000Y-90556928D01*
X176740000Y-90309743D01*
X176737940Y-90302059D01*
X176730257Y-90300000D01*
X176529743Y-90300000D01*
X176522059Y-90302059D01*
X176520000Y-90309743D01*
X176520000Y-90325413D01*
X176520246Y-90329684D01*
X176522122Y-90345855D01*
X176525010Y-90356469D01*
X176563034Y-90442584D01*
X176569918Y-90452633D01*
X176582735Y-90498894D01*
X176564466Y-90543287D01*
X176522801Y-90567128D01*
X176475273Y-90560386D01*
X176370497Y-90507000D01*
X176365304Y-90504354D01*
X176359550Y-90503442D01*
X176359548Y-90503442D01*
X176279679Y-90490792D01*
X176247759Y-90477570D01*
X176225320Y-90451298D01*
X176217970Y-90420683D01*
X176218677Y-90417132D01*
X176197295Y-90309637D01*
X176192469Y-90302415D01*
X176191661Y-90299752D01*
X176190457Y-90296843D01*
X176190743Y-90296724D01*
X176180000Y-90261305D01*
X176180000Y-90072959D01*
X176190743Y-90037539D01*
X176190457Y-90037421D01*
X176191661Y-90034511D01*
X176192470Y-90031848D01*
X176197295Y-90024627D01*
X176218677Y-89917132D01*
X176213331Y-89890257D01*
X176520000Y-89890257D01*
X176522059Y-89897940D01*
X176529743Y-89900000D01*
X176730257Y-89900000D01*
X176737940Y-89897940D01*
X176740000Y-89890257D01*
X177140000Y-89890257D01*
X177142059Y-89897940D01*
X177149743Y-89900000D01*
X177350257Y-89900000D01*
X177357940Y-89897940D01*
X177360000Y-89890257D01*
X177360000Y-89874587D01*
X177359753Y-89870315D01*
X177357877Y-89854144D01*
X177354989Y-89843530D01*
X177316966Y-89757418D01*
X177309348Y-89746297D01*
X177243702Y-89680651D01*
X177232581Y-89673033D01*
X177146474Y-89635012D01*
X177145226Y-89634673D01*
X177142282Y-89635165D01*
X177140000Y-89643072D01*
X177140000Y-89890257D01*
X176740000Y-89890257D01*
X176740000Y-89643072D01*
X176737717Y-89635165D01*
X176734773Y-89634673D01*
X176733525Y-89635012D01*
X176647418Y-89673033D01*
X176636297Y-89680651D01*
X176570651Y-89746297D01*
X176563033Y-89757418D01*
X176525010Y-89843530D01*
X176522122Y-89854144D01*
X176520246Y-89870315D01*
X176520000Y-89874587D01*
X176520000Y-89890257D01*
X176213331Y-89890257D01*
X176197295Y-89809637D01*
X176192469Y-89802415D01*
X176191661Y-89799752D01*
X176190457Y-89796843D01*
X176190743Y-89796724D01*
X176180000Y-89761305D01*
X176180000Y-89572959D01*
X176190743Y-89537539D01*
X176190457Y-89537421D01*
X176191661Y-89534511D01*
X176192470Y-89531848D01*
X176197295Y-89524627D01*
X176218677Y-89417132D01*
X176198150Y-89313935D01*
X176202361Y-89271182D01*
X176229616Y-89237971D01*
X176270728Y-89225500D01*
X176528729Y-89225500D01*
X176569128Y-89237500D01*
X176596424Y-89269610D01*
X176617253Y-89316783D01*
X176626187Y-89337016D01*
X176702984Y-89413813D01*
X176802338Y-89457682D01*
X176826627Y-89460500D01*
X177193372Y-89460499D01*
X177217662Y-89457682D01*
X177317016Y-89413813D01*
X177393813Y-89337016D01*
X177422578Y-89271868D01*
X177449874Y-89239760D01*
X177490273Y-89227759D01*
X177530671Y-89239759D01*
X177557968Y-89271868D01*
X177583838Y-89330458D01*
X177591454Y-89341575D01*
X177658424Y-89408545D01*
X177669541Y-89416161D01*
X177757360Y-89454937D01*
X177762581Y-89456357D01*
X177767717Y-89455499D01*
X177770000Y-89447594D01*
X178170000Y-89447594D01*
X178172282Y-89455499D01*
X178177418Y-89456357D01*
X178182639Y-89454937D01*
X178270458Y-89416161D01*
X178281575Y-89408545D01*
X178348545Y-89341575D01*
X178356161Y-89330458D01*
X178394939Y-89242637D01*
X178397828Y-89232016D01*
X178399753Y-89215426D01*
X178400000Y-89211155D01*
X178400000Y-89209743D01*
X178397940Y-89202059D01*
X178390257Y-89200000D01*
X178179743Y-89200000D01*
X178172059Y-89202059D01*
X178170000Y-89209743D01*
X178170000Y-89447594D01*
X177770000Y-89447594D01*
X177770000Y-88790257D01*
X178170000Y-88790257D01*
X178172059Y-88797940D01*
X178179743Y-88800000D01*
X178390257Y-88800000D01*
X178397940Y-88797940D01*
X178400000Y-88790257D01*
X178400000Y-88788845D01*
X178399753Y-88784573D01*
X178397828Y-88767983D01*
X178394939Y-88757362D01*
X178356161Y-88669541D01*
X178348545Y-88658424D01*
X178281575Y-88591454D01*
X178270458Y-88583838D01*
X178182639Y-88545062D01*
X178177418Y-88543642D01*
X178172282Y-88544500D01*
X178170000Y-88552406D01*
X178170000Y-88790257D01*
X177770000Y-88790257D01*
X177770000Y-88552406D01*
X177767717Y-88544500D01*
X177762581Y-88543642D01*
X177757360Y-88545062D01*
X177669541Y-88583838D01*
X177658424Y-88591454D01*
X177591454Y-88658424D01*
X177583835Y-88669545D01*
X177557967Y-88728131D01*
X177530671Y-88760240D01*
X177490273Y-88772240D01*
X177449874Y-88760239D01*
X177422578Y-88728130D01*
X177397156Y-88670556D01*
X177393813Y-88662984D01*
X177317016Y-88586187D01*
X177308543Y-88582446D01*
X177238899Y-88551695D01*
X177202932Y-88517748D01*
X177196382Y-88468726D01*
X177222175Y-88426527D01*
X177268789Y-88410000D01*
X177271155Y-88410000D01*
X177275426Y-88409753D01*
X177292016Y-88407828D01*
X177302637Y-88404939D01*
X177390458Y-88366161D01*
X177401575Y-88358545D01*
X177473393Y-88286728D01*
X177474061Y-88287396D01*
X177501400Y-88265392D01*
X177543911Y-88261449D01*
X177581525Y-88281646D01*
X177638424Y-88338545D01*
X177649541Y-88346161D01*
X177737362Y-88384939D01*
X177747983Y-88387828D01*
X177764573Y-88389753D01*
X177768845Y-88390000D01*
X177770257Y-88390000D01*
X177777940Y-88387940D01*
X177780000Y-88380257D01*
X177780000Y-88169743D01*
X177777940Y-88162059D01*
X177770257Y-88160000D01*
X177569743Y-88160000D01*
X177558042Y-88163135D01*
X177541233Y-88174367D01*
X177512914Y-88180000D01*
X176612406Y-88180000D01*
X176604500Y-88182282D01*
X176603642Y-88187418D01*
X176605062Y-88192639D01*
X176643838Y-88280458D01*
X176651454Y-88291575D01*
X176718424Y-88358545D01*
X176729543Y-88366162D01*
X176814421Y-88403640D01*
X176848003Y-88433291D01*
X176858323Y-88476884D01*
X176841599Y-88518444D01*
X176805111Y-88541996D01*
X176802338Y-88542318D01*
X176797247Y-88544565D01*
X176797246Y-88544566D01*
X176709256Y-88583417D01*
X176709253Y-88583418D01*
X176702984Y-88586187D01*
X176698138Y-88591032D01*
X176698135Y-88591035D01*
X176631035Y-88658135D01*
X176631032Y-88658138D01*
X176626187Y-88662984D01*
X176623418Y-88669253D01*
X176623417Y-88669256D01*
X176596424Y-88730390D01*
X176569128Y-88762500D01*
X176528729Y-88774500D01*
X176254000Y-88774500D01*
X176217000Y-88764586D01*
X176189914Y-88737500D01*
X176180000Y-88700500D01*
X176180000Y-88572959D01*
X176190743Y-88537539D01*
X176190457Y-88537421D01*
X176191661Y-88534511D01*
X176192470Y-88531848D01*
X176197295Y-88524627D01*
X176218677Y-88417132D01*
X176197295Y-88309637D01*
X176192469Y-88302415D01*
X176191661Y-88299752D01*
X176190457Y-88296843D01*
X176190743Y-88296724D01*
X176180000Y-88261305D01*
X176180000Y-88072959D01*
X176190743Y-88037539D01*
X176190457Y-88037421D01*
X176191661Y-88034511D01*
X176192470Y-88031848D01*
X176197295Y-88024627D01*
X176218677Y-87917132D01*
X176197295Y-87809637D01*
X176192469Y-87802415D01*
X176191661Y-87799752D01*
X176190457Y-87796843D01*
X176190743Y-87796724D01*
X176180000Y-87761305D01*
X176180000Y-87717044D01*
X176185633Y-87688725D01*
X176201674Y-87664718D01*
X176213788Y-87652604D01*
X176238050Y-87628342D01*
X176295646Y-87515304D01*
X176315492Y-87390000D01*
X176295646Y-87264696D01*
X176238050Y-87151658D01*
X176205680Y-87119288D01*
X176184361Y-87074198D01*
X176193291Y-87038595D01*
X176190457Y-87037421D01*
X176193246Y-87030686D01*
X176197295Y-87024627D01*
X176218677Y-86917132D01*
X176197295Y-86809637D01*
X176193519Y-86803987D01*
X176191087Y-86754475D01*
X176220789Y-86714426D01*
X176269153Y-86702311D01*
X176294765Y-86704834D01*
X176308982Y-86707662D01*
X176393137Y-86733189D01*
X176406532Y-86738738D01*
X176484087Y-86780193D01*
X176496141Y-86788247D01*
X176544596Y-86828014D01*
X176566948Y-86846358D01*
X176572323Y-86851229D01*
X176577822Y-86856728D01*
X176593866Y-86880735D01*
X176599500Y-86909057D01*
X176599500Y-87201226D01*
X176599500Y-87201243D01*
X176599501Y-87203372D01*
X176599747Y-87205498D01*
X176599748Y-87205505D01*
X176601676Y-87222131D01*
X176601676Y-87222134D01*
X176602318Y-87227662D01*
X176604565Y-87232752D01*
X176604566Y-87232754D01*
X176637356Y-87307016D01*
X176646187Y-87327016D01*
X176722984Y-87403813D01*
X176742835Y-87412578D01*
X176788130Y-87432578D01*
X176820239Y-87459874D01*
X176832240Y-87500273D01*
X176820240Y-87540671D01*
X176788131Y-87567967D01*
X176729545Y-87593835D01*
X176718424Y-87601454D01*
X176651454Y-87668424D01*
X176643838Y-87679541D01*
X176605062Y-87767360D01*
X176603642Y-87772581D01*
X176604500Y-87777717D01*
X176612406Y-87780000D01*
X177470257Y-87780000D01*
X177481957Y-87776864D01*
X177498767Y-87765633D01*
X177527086Y-87760000D01*
X178106000Y-87760000D01*
X178143000Y-87769914D01*
X178170086Y-87797000D01*
X178180000Y-87834000D01*
X178180000Y-88380257D01*
X178182059Y-88387940D01*
X178189743Y-88390000D01*
X178191155Y-88390000D01*
X178195426Y-88389753D01*
X178212016Y-88387828D01*
X178222637Y-88384939D01*
X178310458Y-88346161D01*
X178321575Y-88338545D01*
X178388545Y-88271575D01*
X178396162Y-88260456D01*
X178428305Y-88187660D01*
X178462252Y-88151693D01*
X178511274Y-88145143D01*
X178553473Y-88170936D01*
X178570000Y-88217550D01*
X178570000Y-88406132D01*
X178570711Y-88413347D01*
X178577281Y-88446377D01*
X178582752Y-88459586D01*
X178611856Y-88503144D01*
X178610004Y-88504381D01*
X178622190Y-88525487D01*
X178622190Y-88563793D01*
X178609754Y-88585332D01*
X178611496Y-88586496D01*
X178578233Y-88636278D01*
X178576811Y-88643421D01*
X178576811Y-88643424D01*
X178571472Y-88670267D01*
X178569500Y-88680180D01*
X178569500Y-89359820D01*
X178578233Y-89403722D01*
X178611496Y-89453504D01*
X178661278Y-89486767D01*
X178705180Y-89495500D01*
X179791180Y-89495500D01*
X179794820Y-89495500D01*
X179838722Y-89486767D01*
X179888504Y-89453504D01*
X179921767Y-89403722D01*
X179930500Y-89359820D01*
X179930500Y-89110987D01*
X179937433Y-89079714D01*
X179956933Y-89054300D01*
X180000812Y-89017480D01*
X180091436Y-88941436D01*
X180209280Y-88800998D01*
X180300947Y-88642230D01*
X180363654Y-88469958D01*
X180395496Y-88289414D01*
X180395497Y-88245674D01*
X180395500Y-88245670D01*
X180395500Y-88195236D01*
X180395502Y-88152894D01*
X180395500Y-88152889D01*
X180395500Y-88006298D01*
X180395500Y-87930657D01*
X180360998Y-87734988D01*
X180293043Y-87548284D01*
X180193700Y-87376216D01*
X180065986Y-87224014D01*
X179956933Y-87132507D01*
X179937433Y-87107095D01*
X179930500Y-87075821D01*
X179930500Y-86783820D01*
X179930500Y-86780180D01*
X179921767Y-86736278D01*
X179888504Y-86686496D01*
X179838722Y-86653233D01*
X179831576Y-86651811D01*
X179831575Y-86651811D01*
X179798389Y-86645210D01*
X179794820Y-86644500D01*
X178705180Y-86644500D01*
X178701611Y-86645209D01*
X178701610Y-86645210D01*
X178668424Y-86651811D01*
X178668421Y-86651811D01*
X178661278Y-86653233D01*
X178655220Y-86657280D01*
X178655219Y-86657281D01*
X178617556Y-86682446D01*
X178617553Y-86682448D01*
X178611496Y-86686496D01*
X178607448Y-86692553D01*
X178607446Y-86692556D01*
X178578233Y-86736278D01*
X178577268Y-86735633D01*
X178555609Y-86762027D01*
X178514495Y-86774500D01*
X178478024Y-86774500D01*
X178437625Y-86762499D01*
X178410329Y-86730390D01*
X178410253Y-86730219D01*
X178393813Y-86692984D01*
X178317016Y-86616187D01*
X178304129Y-86610497D01*
X178222386Y-86574404D01*
X178186947Y-86541467D01*
X178179433Y-86493672D01*
X178194441Y-86466848D01*
X178200000Y-86447594D01*
X178600000Y-86447594D01*
X178602282Y-86455499D01*
X178607418Y-86456357D01*
X178612639Y-86454937D01*
X178700458Y-86416161D01*
X178711575Y-86408545D01*
X178778545Y-86341575D01*
X178786161Y-86330458D01*
X178824939Y-86242637D01*
X178827828Y-86232016D01*
X178829753Y-86215426D01*
X178830000Y-86211155D01*
X178830000Y-86209743D01*
X178827940Y-86202059D01*
X178820257Y-86200000D01*
X178609743Y-86200000D01*
X178602059Y-86202059D01*
X178600000Y-86209743D01*
X178600000Y-86447594D01*
X178200000Y-86447594D01*
X178200000Y-85971155D01*
X180300000Y-85971155D01*
X180300246Y-85975426D01*
X180302171Y-85992016D01*
X180305060Y-86002637D01*
X180343838Y-86090458D01*
X180351454Y-86101575D01*
X180418424Y-86168545D01*
X180429541Y-86176161D01*
X180517360Y-86214937D01*
X180522581Y-86216357D01*
X180527717Y-86215499D01*
X180530000Y-86207594D01*
X180530000Y-85969743D01*
X180527940Y-85962059D01*
X180520257Y-85960000D01*
X180309743Y-85960000D01*
X180302059Y-85962059D01*
X180300000Y-85969743D01*
X180300000Y-85971155D01*
X178200000Y-85971155D01*
X178200000Y-85790257D01*
X178600000Y-85790257D01*
X178602059Y-85797940D01*
X178609743Y-85800000D01*
X178820257Y-85800000D01*
X178827940Y-85797940D01*
X178830000Y-85790257D01*
X178830000Y-85788845D01*
X178829753Y-85784573D01*
X178827828Y-85767983D01*
X178824939Y-85757362D01*
X178786161Y-85669541D01*
X178778545Y-85658424D01*
X178711575Y-85591454D01*
X178700458Y-85583838D01*
X178612639Y-85545062D01*
X178607418Y-85543642D01*
X178602282Y-85544500D01*
X178600000Y-85552406D01*
X178600000Y-85790257D01*
X178200000Y-85790257D01*
X178200000Y-85552406D01*
X178197717Y-85544500D01*
X178192581Y-85543642D01*
X178187360Y-85545062D01*
X178099541Y-85583838D01*
X178088424Y-85591454D01*
X178021454Y-85658424D01*
X178013835Y-85669545D01*
X177987967Y-85728131D01*
X177960671Y-85760240D01*
X177920273Y-85772240D01*
X177879874Y-85760239D01*
X177852578Y-85728130D01*
X177826582Y-85669256D01*
X177823813Y-85662984D01*
X177747016Y-85586187D01*
X177747668Y-85585534D01*
X177725615Y-85558131D01*
X177721675Y-85515622D01*
X177741872Y-85478011D01*
X177790135Y-85429748D01*
X177794986Y-85424897D01*
X177840365Y-85322123D01*
X177843280Y-85296997D01*
X177843280Y-85294779D01*
X178742781Y-85294779D01*
X178743028Y-85299057D01*
X178745048Y-85316475D01*
X178747938Y-85327099D01*
X178788223Y-85418337D01*
X178795841Y-85429458D01*
X178865453Y-85499070D01*
X178876574Y-85506688D01*
X178967816Y-85546975D01*
X178978430Y-85549863D01*
X178995858Y-85551885D01*
X179000130Y-85552132D01*
X179183037Y-85552132D01*
X179190720Y-85550072D01*
X179192780Y-85542389D01*
X179192780Y-85161875D01*
X179190720Y-85154191D01*
X179183037Y-85152132D01*
X178752524Y-85152132D01*
X178744840Y-85154191D01*
X178742781Y-85161875D01*
X178742781Y-85294779D01*
X177843280Y-85294779D01*
X177843279Y-84742389D01*
X178742780Y-84742389D01*
X178744839Y-84750072D01*
X178752523Y-84752132D01*
X179183037Y-84752132D01*
X179190720Y-84750072D01*
X179192780Y-84742389D01*
X179192780Y-84361876D01*
X179190720Y-84354192D01*
X179183037Y-84352133D01*
X179000133Y-84352133D01*
X178995854Y-84352380D01*
X178978436Y-84354400D01*
X178967812Y-84357290D01*
X178876572Y-84397576D01*
X178872269Y-84400524D01*
X178835526Y-84410444D01*
X178836147Y-84417012D01*
X178815934Y-84454712D01*
X178795842Y-84474804D01*
X178788223Y-84485926D01*
X178747936Y-84577168D01*
X178745048Y-84587782D01*
X178743026Y-84605210D01*
X178742780Y-84609482D01*
X178742780Y-84742389D01*
X177843279Y-84742389D01*
X177843279Y-84607268D01*
X177840365Y-84582141D01*
X177818351Y-84532284D01*
X177795938Y-84481522D01*
X177791868Y-84433582D01*
X177818134Y-84393272D01*
X177863633Y-84377632D01*
X178584919Y-84377632D01*
X178588792Y-84377733D01*
X178628844Y-84379832D01*
X178651592Y-84371099D01*
X178662710Y-84367805D01*
X178686548Y-84362739D01*
X178693419Y-84357746D01*
X178710404Y-84348523D01*
X178718340Y-84345478D01*
X178723569Y-84340248D01*
X178761299Y-84329286D01*
X178766362Y-84302479D01*
X178768350Y-84299035D01*
X178780109Y-84283707D01*
X179089511Y-83974305D01*
X179113519Y-83958264D01*
X179141838Y-83952631D01*
X179785499Y-83952631D01*
X179787644Y-83952631D01*
X179812771Y-83949717D01*
X179911529Y-83906110D01*
X179959469Y-83902041D01*
X179999779Y-83928307D01*
X180015419Y-83973806D01*
X180015419Y-83974248D01*
X180014508Y-83980000D01*
X180015419Y-83985752D01*
X180031733Y-84088760D01*
X180034354Y-84105304D01*
X180091950Y-84218342D01*
X180096069Y-84222461D01*
X180137967Y-84264359D01*
X180155065Y-84291066D01*
X180158861Y-84318481D01*
X180159500Y-84318481D01*
X180159500Y-84502394D01*
X180142973Y-84549008D01*
X180100774Y-84574801D01*
X180051752Y-84568251D01*
X180017805Y-84532284D01*
X179997336Y-84485926D01*
X179989718Y-84474805D01*
X179920106Y-84405193D01*
X179908985Y-84397575D01*
X179817743Y-84357288D01*
X179807129Y-84354400D01*
X179789701Y-84352378D01*
X179785430Y-84352132D01*
X179602523Y-84352132D01*
X179594839Y-84354191D01*
X179592780Y-84361875D01*
X179592780Y-85542388D01*
X179594839Y-85550071D01*
X179602523Y-85552131D01*
X179785427Y-85552131D01*
X179789705Y-85551883D01*
X179807123Y-85549863D01*
X179817747Y-85546973D01*
X179908985Y-85506688D01*
X179920106Y-85499070D01*
X179989718Y-85429458D01*
X179997336Y-85418337D01*
X180037623Y-85327095D01*
X180040511Y-85316481D01*
X180042533Y-85299053D01*
X180042779Y-85294781D01*
X180042779Y-85025305D01*
X180058665Y-84979492D01*
X180099504Y-84953350D01*
X180147760Y-84958102D01*
X180182712Y-84991708D01*
X180231950Y-85088342D01*
X180321658Y-85178050D01*
X180411295Y-85223722D01*
X180445575Y-85260181D01*
X180448811Y-85310121D01*
X180422811Y-85346146D01*
X180423272Y-85346607D01*
X180420420Y-85349458D01*
X180419523Y-85350702D01*
X180418424Y-85351454D01*
X180351454Y-85418424D01*
X180343838Y-85429541D01*
X180305060Y-85517362D01*
X180302171Y-85527983D01*
X180300246Y-85544573D01*
X180300000Y-85548845D01*
X180300000Y-85550257D01*
X180302059Y-85557940D01*
X180309743Y-85560000D01*
X180856000Y-85560000D01*
X180893000Y-85569914D01*
X180920086Y-85597000D01*
X180930000Y-85634000D01*
X180930000Y-86207594D01*
X180932282Y-86215499D01*
X180937418Y-86216357D01*
X180942639Y-86214937D01*
X181030458Y-86176161D01*
X181041575Y-86168545D01*
X181108545Y-86101575D01*
X181116162Y-86090457D01*
X181142031Y-86031869D01*
X181169327Y-85999760D01*
X181209725Y-85987759D01*
X181250124Y-85999759D01*
X181277420Y-86031868D01*
X181303415Y-86090740D01*
X181303417Y-86090743D01*
X181306187Y-86097016D01*
X181382984Y-86173813D01*
X181420391Y-86190329D01*
X181452499Y-86217625D01*
X181464500Y-86258024D01*
X181464500Y-86495735D01*
X181464499Y-86495737D01*
X181464499Y-86495742D01*
X181464499Y-86495743D01*
X181464499Y-86536956D01*
X181464143Y-86544205D01*
X181460841Y-86577749D01*
X181448727Y-86611610D01*
X181422082Y-86635762D01*
X181387197Y-86644500D01*
X180905180Y-86644500D01*
X180901611Y-86645209D01*
X180901610Y-86645210D01*
X180868424Y-86651811D01*
X180868421Y-86651811D01*
X180861278Y-86653233D01*
X180855220Y-86657280D01*
X180855219Y-86657281D01*
X180817556Y-86682446D01*
X180817553Y-86682448D01*
X180811496Y-86686496D01*
X180807448Y-86692553D01*
X180807446Y-86692556D01*
X180790217Y-86718342D01*
X180778233Y-86736278D01*
X180776811Y-86743421D01*
X180776811Y-86743424D01*
X180770210Y-86776610D01*
X180769500Y-86780180D01*
X180769500Y-87459820D01*
X180770210Y-87463389D01*
X180776484Y-87494933D01*
X180778233Y-87503722D01*
X180782281Y-87509780D01*
X180807358Y-87547312D01*
X180811496Y-87553504D01*
X180861278Y-87586767D01*
X180905180Y-87595500D01*
X181379502Y-87595500D01*
X181418166Y-87606404D01*
X181445436Y-87635904D01*
X181453274Y-87675304D01*
X181439370Y-87712994D01*
X181436064Y-87717543D01*
X181431950Y-87721658D01*
X181429309Y-87726840D01*
X181429306Y-87726845D01*
X181387122Y-87809637D01*
X181374354Y-87834696D01*
X181373442Y-87840447D01*
X181373442Y-87840451D01*
X181360165Y-87924281D01*
X181354508Y-87960000D01*
X181355419Y-87965752D01*
X181372655Y-88074581D01*
X181374354Y-88085304D01*
X181431950Y-88198342D01*
X181521658Y-88288050D01*
X181634696Y-88345646D01*
X181760000Y-88365492D01*
X181885304Y-88345646D01*
X181998342Y-88288050D01*
X182088050Y-88198342D01*
X182145646Y-88085304D01*
X182165492Y-87960000D01*
X182145646Y-87834696D01*
X182088050Y-87721658D01*
X182051190Y-87684798D01*
X182030938Y-87646908D01*
X182035149Y-87604153D01*
X182062405Y-87570943D01*
X182082441Y-87557555D01*
X182082440Y-87557555D01*
X182088504Y-87553504D01*
X182121767Y-87503722D01*
X182130500Y-87459820D01*
X182130500Y-86780180D01*
X182121767Y-86736278D01*
X182088504Y-86686496D01*
X182038722Y-86653233D01*
X182031576Y-86651811D01*
X182031575Y-86651811D01*
X181998389Y-86645210D01*
X181994820Y-86644500D01*
X181991180Y-86644500D01*
X181989500Y-86644500D01*
X181988523Y-86644238D01*
X181987566Y-86644144D01*
X181987581Y-86643985D01*
X181952500Y-86634586D01*
X181925414Y-86607500D01*
X181915500Y-86570500D01*
X181915500Y-86258024D01*
X181927501Y-86217625D01*
X181959608Y-86190329D01*
X181997016Y-86173813D01*
X182073813Y-86097016D01*
X182117682Y-85997662D01*
X182118513Y-85990497D01*
X182119097Y-85989288D01*
X182119785Y-85986763D01*
X182120257Y-85986891D01*
X182139693Y-85946698D01*
X182228050Y-85858342D01*
X182285646Y-85745304D01*
X182305492Y-85620000D01*
X182285646Y-85494696D01*
X182228050Y-85381658D01*
X182138342Y-85291950D01*
X182025304Y-85234354D01*
X182019550Y-85233442D01*
X182019548Y-85233442D01*
X181905752Y-85215419D01*
X181900000Y-85214508D01*
X181894248Y-85215419D01*
X181780451Y-85233442D01*
X181780447Y-85233442D01*
X181774696Y-85234354D01*
X181662667Y-85291435D01*
X181629076Y-85299500D01*
X181508773Y-85299500D01*
X181508755Y-85299500D01*
X181506628Y-85299501D01*
X181504503Y-85299747D01*
X181504493Y-85299748D01*
X181487868Y-85301676D01*
X181487863Y-85301677D01*
X181482338Y-85302318D01*
X181477249Y-85304564D01*
X181477245Y-85304566D01*
X181389256Y-85343417D01*
X181389253Y-85343418D01*
X181382984Y-85346187D01*
X181378138Y-85351032D01*
X181378135Y-85351035D01*
X181311035Y-85418135D01*
X181311032Y-85418138D01*
X181306187Y-85422984D01*
X181303418Y-85429253D01*
X181303415Y-85429259D01*
X181277420Y-85488131D01*
X181250124Y-85520240D01*
X181209725Y-85532240D01*
X181169327Y-85520239D01*
X181142031Y-85488130D01*
X181116162Y-85429543D01*
X181108545Y-85418424D01*
X181063947Y-85373826D01*
X181044318Y-85338775D01*
X181045895Y-85298632D01*
X181068215Y-85265229D01*
X181104695Y-85248412D01*
X181185304Y-85235646D01*
X181298342Y-85178050D01*
X181388050Y-85088342D01*
X181445646Y-84975304D01*
X181460500Y-84881519D01*
X181460499Y-84318482D01*
X181445646Y-84224696D01*
X181411709Y-84158092D01*
X181405261Y-84109114D01*
X181431074Y-84066990D01*
X181477644Y-84050499D01*
X181568609Y-84050499D01*
X181571518Y-84050499D01*
X181665304Y-84035646D01*
X181778342Y-83978050D01*
X181868050Y-83888342D01*
X181925646Y-83775304D01*
X181940500Y-83681519D01*
X181940499Y-83118482D01*
X181925646Y-83024696D01*
X181868050Y-82911658D01*
X181778342Y-82821950D01*
X181665304Y-82764354D01*
X181659550Y-82763442D01*
X181659548Y-82763442D01*
X181574391Y-82749954D01*
X181574380Y-82749953D01*
X181571519Y-82749500D01*
X181568610Y-82749500D01*
X181011391Y-82749500D01*
X181011378Y-82749500D01*
X181008482Y-82749501D01*
X181005609Y-82749955D01*
X181005608Y-82749956D01*
X180920450Y-82763442D01*
X180920445Y-82763443D01*
X180914696Y-82764354D01*
X180909508Y-82766997D01*
X180909503Y-82766999D01*
X180806850Y-82819304D01*
X180806847Y-82819305D01*
X180801658Y-82821950D01*
X180797541Y-82826066D01*
X180797538Y-82826069D01*
X180716069Y-82907538D01*
X180716066Y-82907541D01*
X180711950Y-82911658D01*
X180709305Y-82916847D01*
X180709304Y-82916850D01*
X180658451Y-83016655D01*
X180654354Y-83024696D01*
X180653442Y-83030447D01*
X180653442Y-83030451D01*
X180639954Y-83115608D01*
X180639952Y-83115620D01*
X180639500Y-83118481D01*
X180639500Y-83121390D01*
X180639500Y-83524066D01*
X180625367Y-83567563D01*
X180588366Y-83594444D01*
X180545481Y-83594444D01*
X180545304Y-83594354D01*
X180539550Y-83593442D01*
X180539548Y-83593442D01*
X180425752Y-83575419D01*
X180420000Y-83574508D01*
X180414248Y-83575419D01*
X180300451Y-83593442D01*
X180300447Y-83593442D01*
X180294696Y-83594354D01*
X180289504Y-83596999D01*
X180289502Y-83597000D01*
X180186850Y-83649304D01*
X180186847Y-83649305D01*
X180181658Y-83651950D01*
X180177544Y-83656063D01*
X180177537Y-83656069D01*
X180169603Y-83664004D01*
X180131713Y-83684255D01*
X180088959Y-83680042D01*
X180055750Y-83652788D01*
X180043279Y-83611678D01*
X180043279Y-83007268D01*
X180040365Y-82982141D01*
X179994986Y-82879367D01*
X179915545Y-82799926D01*
X179909272Y-82797156D01*
X179817859Y-82756793D01*
X179817855Y-82756792D01*
X179812771Y-82754547D01*
X179807250Y-82753906D01*
X179807245Y-82753905D01*
X179789773Y-82751878D01*
X179789757Y-82751877D01*
X179787645Y-82751632D01*
X179785501Y-82751632D01*
X179000061Y-82751632D01*
X179000043Y-82751632D01*
X178997916Y-82751633D01*
X178995790Y-82751879D01*
X178995782Y-82751880D01*
X178978319Y-82753905D01*
X178978314Y-82753906D01*
X178972789Y-82754547D01*
X178967700Y-82756793D01*
X178967696Y-82756795D01*
X178876287Y-82797156D01*
X178876284Y-82797157D01*
X178870015Y-82799926D01*
X178865169Y-82804771D01*
X178865166Y-82804774D01*
X178795422Y-82874518D01*
X178795419Y-82874521D01*
X178790574Y-82879367D01*
X178787805Y-82885636D01*
X178787804Y-82885639D01*
X178747441Y-82977052D01*
X178747439Y-82977057D01*
X178745195Y-82982141D01*
X178744554Y-82987659D01*
X178744553Y-82987666D01*
X178742526Y-83005138D01*
X178742525Y-83005155D01*
X178742280Y-83007267D01*
X178742280Y-83009410D01*
X178742280Y-83653074D01*
X178736647Y-83681392D01*
X178720606Y-83705400D01*
X178521049Y-83904958D01*
X178497042Y-83920999D01*
X178468723Y-83926632D01*
X177863087Y-83926632D01*
X177817588Y-83910992D01*
X177791322Y-83870682D01*
X177795392Y-83822742D01*
X177837623Y-83727095D01*
X177840511Y-83716481D01*
X177842533Y-83699053D01*
X177842780Y-83694782D01*
X177842780Y-83561875D01*
X177840720Y-83554191D01*
X177833037Y-83552132D01*
X176552524Y-83552132D01*
X176544840Y-83554191D01*
X176542781Y-83561875D01*
X176542781Y-83694779D01*
X176543028Y-83699057D01*
X176545048Y-83716475D01*
X176547938Y-83727099D01*
X176588223Y-83818337D01*
X176595841Y-83829458D01*
X176596689Y-83830306D01*
X176597636Y-83832079D01*
X176599717Y-83835116D01*
X176599382Y-83835345D01*
X176616941Y-83868195D01*
X176612730Y-83910951D01*
X176585475Y-83944161D01*
X176544363Y-83956632D01*
X176140804Y-83956632D01*
X176100405Y-83944631D01*
X176073109Y-83912522D01*
X176072433Y-83910992D01*
X176056593Y-83875116D01*
X175979796Y-83798319D01*
X175973523Y-83795549D01*
X175973520Y-83795547D01*
X175914648Y-83769552D01*
X175882539Y-83742256D01*
X175870539Y-83701857D01*
X175882540Y-83661459D01*
X175914649Y-83634163D01*
X175973237Y-83608294D01*
X175984355Y-83600677D01*
X176051325Y-83533707D01*
X176058941Y-83522590D01*
X176097717Y-83434771D01*
X176099137Y-83429550D01*
X176098279Y-83424414D01*
X176090374Y-83422132D01*
X175516780Y-83422132D01*
X175479780Y-83412218D01*
X175452694Y-83385132D01*
X175442780Y-83348132D01*
X175442780Y-83142389D01*
X176542780Y-83142389D01*
X176544839Y-83150072D01*
X176552523Y-83152132D01*
X176983037Y-83152132D01*
X176990720Y-83150072D01*
X176992780Y-83142389D01*
X177392780Y-83142389D01*
X177394839Y-83150072D01*
X177402523Y-83152132D01*
X177833036Y-83152132D01*
X177840719Y-83150072D01*
X177842779Y-83142389D01*
X177842779Y-83009485D01*
X177842531Y-83005206D01*
X177840511Y-82987788D01*
X177837621Y-82977164D01*
X177797336Y-82885926D01*
X177789718Y-82874805D01*
X177720106Y-82805193D01*
X177708985Y-82797575D01*
X177617743Y-82757288D01*
X177607129Y-82754400D01*
X177589701Y-82752378D01*
X177585430Y-82752132D01*
X177402523Y-82752132D01*
X177394839Y-82754191D01*
X177392780Y-82761875D01*
X177392780Y-83142389D01*
X176992780Y-83142389D01*
X176992780Y-82761876D01*
X176990720Y-82754192D01*
X176983037Y-82752133D01*
X176800133Y-82752133D01*
X176795854Y-82752380D01*
X176778436Y-82754400D01*
X176767812Y-82757290D01*
X176676574Y-82797575D01*
X176665453Y-82805193D01*
X176595841Y-82874805D01*
X176588223Y-82885926D01*
X176547936Y-82977168D01*
X176545048Y-82987782D01*
X176543026Y-83005210D01*
X176542780Y-83009482D01*
X176542780Y-83142389D01*
X175442780Y-83142389D01*
X175442780Y-83012389D01*
X175842780Y-83012389D01*
X175844839Y-83020072D01*
X175852523Y-83022132D01*
X176090374Y-83022132D01*
X176098279Y-83019849D01*
X176099137Y-83014713D01*
X176097717Y-83009492D01*
X176058941Y-82921673D01*
X176051325Y-82910556D01*
X175984355Y-82843586D01*
X175973238Y-82835970D01*
X175885417Y-82797192D01*
X175874796Y-82794303D01*
X175858206Y-82792378D01*
X175853935Y-82792132D01*
X175852523Y-82792132D01*
X175844839Y-82794191D01*
X175842780Y-82801875D01*
X175842780Y-83012389D01*
X175442780Y-83012389D01*
X175442780Y-82801875D01*
X175440720Y-82794191D01*
X175433037Y-82792132D01*
X175431625Y-82792132D01*
X175427353Y-82792378D01*
X175410763Y-82794303D01*
X175400142Y-82797192D01*
X175312321Y-82835970D01*
X175301204Y-82843586D01*
X175234234Y-82910556D01*
X175226615Y-82921677D01*
X175190474Y-83003529D01*
X175163179Y-83035638D01*
X175122780Y-83047638D01*
X175082381Y-83035638D01*
X175055086Y-83003529D01*
X175018944Y-82921677D01*
X175011325Y-82910556D01*
X174944355Y-82843586D01*
X174933238Y-82835970D01*
X174845417Y-82797192D01*
X174834796Y-82794303D01*
X174818206Y-82792378D01*
X174813935Y-82792132D01*
X174812523Y-82792132D01*
X174804839Y-82794191D01*
X174802780Y-82801875D01*
X174802780Y-83348132D01*
X174792866Y-83385132D01*
X174765780Y-83412218D01*
X174728780Y-83422132D01*
X174476780Y-83422132D01*
X174439780Y-83412218D01*
X174412694Y-83385132D01*
X174402780Y-83348132D01*
X174402780Y-82801875D01*
X174400720Y-82794191D01*
X174393037Y-82792132D01*
X174391625Y-82792132D01*
X174387353Y-82792378D01*
X174370763Y-82794303D01*
X174360142Y-82797192D01*
X174272321Y-82835970D01*
X174261204Y-82843586D01*
X174194234Y-82910556D01*
X174186618Y-82921673D01*
X174145593Y-83014586D01*
X174143167Y-83013515D01*
X174122703Y-83043932D01*
X174077780Y-83059128D01*
X174032857Y-83043932D01*
X174012392Y-83013515D01*
X174009967Y-83014586D01*
X173968941Y-82921673D01*
X173961325Y-82910556D01*
X173894355Y-82843586D01*
X173883238Y-82835970D01*
X173795417Y-82797192D01*
X173784796Y-82794303D01*
X173768206Y-82792378D01*
X173763935Y-82792132D01*
X173762523Y-82792132D01*
X173754839Y-82794191D01*
X173752780Y-82801875D01*
X173752780Y-83348132D01*
X173742866Y-83385132D01*
X173715780Y-83412218D01*
X173678780Y-83422132D01*
X173426780Y-83422132D01*
X173389780Y-83412218D01*
X173362694Y-83385132D01*
X173352780Y-83348132D01*
X173352780Y-82801875D01*
X173350720Y-82794191D01*
X173343037Y-82792132D01*
X173341625Y-82792132D01*
X173337353Y-82792378D01*
X173320763Y-82794303D01*
X173310142Y-82797192D01*
X173222321Y-82835970D01*
X173211204Y-82843586D01*
X173144234Y-82910556D01*
X173136615Y-82921677D01*
X173097129Y-83011104D01*
X173067477Y-83044686D01*
X173023882Y-83055004D01*
X172982322Y-83038278D01*
X172960443Y-83004375D01*
X172959967Y-83004586D01*
X172958640Y-83001582D01*
X172958030Y-83000636D01*
X172957720Y-82999498D01*
X172918941Y-82911673D01*
X172911325Y-82900556D01*
X172844355Y-82833586D01*
X172833238Y-82825970D01*
X172745417Y-82787192D01*
X172734796Y-82784303D01*
X172718206Y-82782378D01*
X172713935Y-82782132D01*
X172712523Y-82782132D01*
X172704839Y-82784191D01*
X172702780Y-82791875D01*
X172702780Y-83338132D01*
X172692866Y-83375132D01*
X172665780Y-83402218D01*
X172628780Y-83412132D01*
X172376780Y-83412132D01*
X172339780Y-83402218D01*
X172312694Y-83375132D01*
X172302780Y-83338132D01*
X172302780Y-82791875D01*
X172300720Y-82784191D01*
X172293037Y-82782132D01*
X172291625Y-82782132D01*
X172287353Y-82782378D01*
X172270763Y-82784303D01*
X172260142Y-82787192D01*
X172172321Y-82825970D01*
X172161204Y-82833586D01*
X172094234Y-82900556D01*
X172086615Y-82911677D01*
X172054440Y-82984546D01*
X172027144Y-83016655D01*
X171986745Y-83028655D01*
X171946347Y-83016654D01*
X171919051Y-82984545D01*
X171900749Y-82943094D01*
X171885388Y-82908304D01*
X171806608Y-82829524D01*
X171800335Y-82826754D01*
X171709777Y-82786769D01*
X171709773Y-82786768D01*
X171704689Y-82784523D01*
X171699168Y-82783882D01*
X171699163Y-82783881D01*
X171681899Y-82781878D01*
X171681883Y-82781877D01*
X171679771Y-82781632D01*
X171677627Y-82781632D01*
X171247935Y-82781632D01*
X171247917Y-82781632D01*
X171245790Y-82781633D01*
X171243664Y-82781879D01*
X171243656Y-82781880D01*
X171226402Y-82783881D01*
X171226398Y-82783881D01*
X171220871Y-82784523D01*
X171215782Y-82786769D01*
X171215778Y-82786771D01*
X171125224Y-82826754D01*
X171125221Y-82826755D01*
X171118952Y-82829524D01*
X171114106Y-82834369D01*
X171114103Y-82834372D01*
X171045018Y-82903457D01*
X171045015Y-82903460D01*
X171040172Y-82908304D01*
X171037403Y-82914573D01*
X171034063Y-82919451D01*
X171007519Y-82943094D01*
X170973013Y-82951632D01*
X170897153Y-82951632D01*
X170856754Y-82939631D01*
X170829458Y-82907521D01*
X170828158Y-82904578D01*
X170828157Y-82904576D01*
X170825388Y-82898304D01*
X170746608Y-82819524D01*
X170740335Y-82816754D01*
X170649777Y-82776769D01*
X170649773Y-82776768D01*
X170644689Y-82774523D01*
X170639168Y-82773882D01*
X170639163Y-82773881D01*
X170621899Y-82771878D01*
X170621883Y-82771877D01*
X170619771Y-82771632D01*
X170617627Y-82771632D01*
X170187935Y-82771632D01*
X170187917Y-82771632D01*
X170185790Y-82771633D01*
X170183664Y-82771879D01*
X170183656Y-82771880D01*
X170166402Y-82773881D01*
X170166398Y-82773881D01*
X170160871Y-82774523D01*
X170155782Y-82776769D01*
X170155778Y-82776771D01*
X170065224Y-82816754D01*
X170065221Y-82816755D01*
X170058952Y-82819524D01*
X170054106Y-82824369D01*
X170054103Y-82824372D01*
X169985020Y-82893455D01*
X169985017Y-82893458D01*
X169980172Y-82898304D01*
X169977403Y-82904573D01*
X169977402Y-82904576D01*
X169937677Y-82994545D01*
X169910381Y-83026655D01*
X169869982Y-83038655D01*
X169829583Y-83026655D01*
X169802287Y-82994545D01*
X169778942Y-82941675D01*
X169771325Y-82930556D01*
X169704355Y-82863586D01*
X169693238Y-82855970D01*
X169605417Y-82817192D01*
X169594796Y-82814303D01*
X169578206Y-82812378D01*
X169573935Y-82812132D01*
X169572523Y-82812132D01*
X169564839Y-82814191D01*
X169562780Y-82821875D01*
X169562780Y-83368132D01*
X169552866Y-83405132D01*
X169525780Y-83432218D01*
X169488780Y-83442132D01*
X168915186Y-83442132D01*
X168907280Y-83444414D01*
X168906422Y-83449550D01*
X168907842Y-83454771D01*
X168946618Y-83542590D01*
X168954234Y-83553707D01*
X169021204Y-83620677D01*
X169032323Y-83628294D01*
X169090910Y-83654163D01*
X169123019Y-83681459D01*
X169135020Y-83721857D01*
X169123020Y-83762256D01*
X169090911Y-83789552D01*
X169032039Y-83815547D01*
X169032033Y-83815550D01*
X169025764Y-83818319D01*
X169020918Y-83823164D01*
X169020915Y-83823167D01*
X168953815Y-83890267D01*
X168953812Y-83890270D01*
X168948967Y-83895116D01*
X168946198Y-83901385D01*
X168946197Y-83901388D01*
X168907344Y-83989381D01*
X168907342Y-83989386D01*
X168905098Y-83994470D01*
X168904457Y-83999988D01*
X168904456Y-83999995D01*
X168902526Y-84016630D01*
X168902525Y-84016647D01*
X168902280Y-84018759D01*
X168902280Y-84020901D01*
X168902280Y-84020902D01*
X168902280Y-84254721D01*
X168889808Y-84295834D01*
X168856598Y-84323089D01*
X168813842Y-84327299D01*
X168775953Y-84307045D01*
X168761104Y-84292195D01*
X168761096Y-84292188D01*
X168759041Y-84290133D01*
X168756685Y-84288421D01*
X168646804Y-84208584D01*
X168646800Y-84208581D01*
X168644443Y-84206869D01*
X168641846Y-84205545D01*
X168639371Y-84204029D01*
X168639972Y-84203046D01*
X168614188Y-84179221D01*
X168603279Y-84140548D01*
X168603279Y-84090905D01*
X168603279Y-84088760D01*
X168600462Y-84064470D01*
X168556593Y-83965116D01*
X168479796Y-83888319D01*
X168471319Y-83884576D01*
X168385530Y-83846696D01*
X168385526Y-83846695D01*
X168380442Y-83844450D01*
X168374921Y-83843809D01*
X168374916Y-83843808D01*
X168358281Y-83841878D01*
X168358265Y-83841877D01*
X168356153Y-83841632D01*
X168354009Y-83841632D01*
X167991553Y-83841632D01*
X167991535Y-83841632D01*
X167989408Y-83841633D01*
X167987289Y-83841878D01*
X167987284Y-83841879D01*
X167970722Y-83843800D01*
X167931759Y-83837741D01*
X167901440Y-83812531D01*
X167888372Y-83775329D01*
X167896265Y-83736700D01*
X167942834Y-83645304D01*
X167962680Y-83520000D01*
X167942834Y-83394696D01*
X167885238Y-83281658D01*
X167795530Y-83191950D01*
X167682492Y-83134354D01*
X167676738Y-83133442D01*
X167676736Y-83133442D01*
X167562940Y-83115419D01*
X167557188Y-83114508D01*
X167551436Y-83115419D01*
X167437639Y-83133442D01*
X167437635Y-83133442D01*
X167431884Y-83134354D01*
X167426692Y-83136999D01*
X167426690Y-83137000D01*
X167324038Y-83189304D01*
X167324035Y-83189305D01*
X167318846Y-83191950D01*
X167314729Y-83196066D01*
X167314726Y-83196069D01*
X167233257Y-83277538D01*
X167233254Y-83277541D01*
X167229138Y-83281658D01*
X167226493Y-83286847D01*
X167226492Y-83286850D01*
X167174188Y-83389502D01*
X167171542Y-83394696D01*
X167170630Y-83400447D01*
X167170630Y-83400451D01*
X167152870Y-83512586D01*
X167151696Y-83520000D01*
X167152607Y-83525752D01*
X167168723Y-83627510D01*
X167171542Y-83645304D01*
X167229138Y-83758342D01*
X167318846Y-83848050D01*
X167349080Y-83863455D01*
X167372376Y-83875325D01*
X167401876Y-83902594D01*
X167412780Y-83941259D01*
X167412780Y-84428132D01*
X167402866Y-84465132D01*
X167375780Y-84492218D01*
X167338780Y-84502132D01*
X166792523Y-84502132D01*
X166784839Y-84504191D01*
X166782780Y-84511875D01*
X166782780Y-84513287D01*
X166783026Y-84517558D01*
X166784951Y-84534148D01*
X166787840Y-84544769D01*
X166826618Y-84632590D01*
X166834234Y-84643707D01*
X166901204Y-84710677D01*
X166912323Y-84718294D01*
X166976529Y-84746644D01*
X167008638Y-84773940D01*
X167020639Y-84814338D01*
X167008639Y-84854737D01*
X166976530Y-84882033D01*
X166922326Y-84905967D01*
X166911204Y-84913586D01*
X166844234Y-84980556D01*
X166836618Y-84991673D01*
X166797840Y-85079494D01*
X166794951Y-85090115D01*
X166793026Y-85106705D01*
X166792780Y-85110977D01*
X166792780Y-85112389D01*
X166794839Y-85120072D01*
X166802523Y-85122132D01*
X167348780Y-85122132D01*
X167385780Y-85132046D01*
X167412866Y-85159132D01*
X167422780Y-85196132D01*
X167422780Y-85769726D01*
X167425062Y-85777631D01*
X167430198Y-85778489D01*
X167435419Y-85777069D01*
X167523238Y-85738293D01*
X167534355Y-85730677D01*
X167601325Y-85663707D01*
X167608942Y-85652589D01*
X167634811Y-85594001D01*
X167662107Y-85561892D01*
X167702505Y-85549891D01*
X167742904Y-85561891D01*
X167770200Y-85594000D01*
X167796195Y-85652872D01*
X167796197Y-85652875D01*
X167798967Y-85659148D01*
X167803815Y-85663996D01*
X167854127Y-85714308D01*
X167873868Y-85749831D01*
X167871874Y-85790421D01*
X167854708Y-85840989D01*
X167851003Y-85849932D01*
X167791612Y-85970362D01*
X167764321Y-86000473D01*
X167725244Y-86011632D01*
X167137960Y-86011632D01*
X167134391Y-86012341D01*
X167134390Y-86012342D01*
X167101204Y-86018943D01*
X167101201Y-86018943D01*
X167094058Y-86020365D01*
X167088000Y-86024412D01*
X167087999Y-86024413D01*
X167050336Y-86049578D01*
X167050333Y-86049580D01*
X167044276Y-86053628D01*
X167040228Y-86059685D01*
X167040226Y-86059688D01*
X167015296Y-86097000D01*
X167011013Y-86103410D01*
X167009592Y-86110551D01*
X167009591Y-86110555D01*
X167002979Y-86143796D01*
X166985230Y-86179053D01*
X166951881Y-86200171D01*
X166912420Y-86201139D01*
X166878075Y-86181683D01*
X166852461Y-86156069D01*
X166852461Y-86156068D01*
X166848342Y-86151950D01*
X166735304Y-86094354D01*
X166729550Y-86093442D01*
X166729548Y-86093442D01*
X166615752Y-86075419D01*
X166610000Y-86074508D01*
X166604248Y-86075419D01*
X166490451Y-86093442D01*
X166490447Y-86093442D01*
X166484696Y-86094354D01*
X166479504Y-86096999D01*
X166479502Y-86097000D01*
X166376850Y-86149304D01*
X166376847Y-86149305D01*
X166371658Y-86151950D01*
X166367541Y-86156066D01*
X166367538Y-86156069D01*
X166286069Y-86237538D01*
X166286066Y-86237541D01*
X166281950Y-86241658D01*
X166279305Y-86246847D01*
X166279304Y-86246850D01*
X166230892Y-86341864D01*
X166224354Y-86354696D01*
X166223442Y-86360447D01*
X166223442Y-86360451D01*
X166207636Y-86460251D01*
X166204508Y-86480000D01*
X166010500Y-86480000D01*
X166010500Y-85533287D01*
X166792780Y-85533287D01*
X166793026Y-85537558D01*
X166794951Y-85554148D01*
X166797840Y-85564769D01*
X166836618Y-85652590D01*
X166844234Y-85663707D01*
X166911204Y-85730677D01*
X166922321Y-85738293D01*
X167010140Y-85777069D01*
X167015361Y-85778489D01*
X167020497Y-85777631D01*
X167022780Y-85769726D01*
X167022780Y-85531875D01*
X167020720Y-85524191D01*
X167013037Y-85522132D01*
X166802523Y-85522132D01*
X166794839Y-85524191D01*
X166792780Y-85531875D01*
X166792780Y-85533287D01*
X166010500Y-85533287D01*
X166010500Y-84092389D01*
X166782780Y-84092389D01*
X166784839Y-84100072D01*
X166792523Y-84102132D01*
X167003037Y-84102132D01*
X167010720Y-84100072D01*
X167012780Y-84092389D01*
X167012780Y-83854538D01*
X167010497Y-83846632D01*
X167005361Y-83845774D01*
X167000140Y-83847194D01*
X166912321Y-83885970D01*
X166901204Y-83893586D01*
X166834234Y-83960556D01*
X166826618Y-83971673D01*
X166787840Y-84059494D01*
X166784951Y-84070115D01*
X166783026Y-84086705D01*
X166782780Y-84090977D01*
X166782780Y-84092389D01*
X166010500Y-84092389D01*
X166010500Y-83353227D01*
X166010782Y-83346778D01*
X166023967Y-83196069D01*
X166024968Y-83184623D01*
X166027205Y-83171934D01*
X166063973Y-83034713D01*
X168906422Y-83034713D01*
X168907280Y-83039849D01*
X168915186Y-83042132D01*
X169153037Y-83042132D01*
X169160720Y-83040072D01*
X169162780Y-83032389D01*
X169162780Y-82821875D01*
X169160720Y-82814191D01*
X169153037Y-82812132D01*
X169151625Y-82812132D01*
X169147353Y-82812378D01*
X169130763Y-82814303D01*
X169120142Y-82817192D01*
X169032321Y-82855970D01*
X169021204Y-82863586D01*
X168954234Y-82930556D01*
X168946618Y-82941673D01*
X168907842Y-83029492D01*
X168906422Y-83034713D01*
X166063973Y-83034713D01*
X166068500Y-83017818D01*
X166072910Y-83005703D01*
X166073142Y-83005206D01*
X166140337Y-82861105D01*
X166146775Y-82849954D01*
X166238289Y-82719259D01*
X166246570Y-82709390D01*
X166359390Y-82596570D01*
X166369259Y-82588289D01*
X166499954Y-82496775D01*
X166511105Y-82490337D01*
X166655705Y-82422908D01*
X166667818Y-82418500D01*
X166821934Y-82377205D01*
X166834623Y-82374968D01*
X166964305Y-82363622D01*
X166996778Y-82360782D01*
X167003227Y-82360500D01*
X167003412Y-82360500D01*
X181766588Y-82360500D01*
X181766773Y-82360500D01*
X181773222Y-82360782D01*
G37*
G04 #@! TD.AperFunction*
M02*
