G04 #@! TF.GenerationSoftware,KiCad,Pcbnew,8.0.6*
G04 #@! TF.CreationDate,2025-02-24T12:04:57+08:00*
G04 #@! TF.ProjectId,flex3kicad_pcb,666c6578-336b-4696-9361-645f7063622e,rev?*
G04 #@! TF.SameCoordinates,Original*
G04 #@! TF.FileFunction,Profile,NP*
%FSLAX46Y46*%
G04 Gerber Fmt 4.6, Leading zero omitted, Abs format (unit mm)*
G04 Created by KiCad (PCBNEW 8.0.6) date 2025-02-24 12:04:57*
%MOMM*%
%LPD*%
G01*
G04 APERTURE LIST*
G04 #@! TA.AperFunction,Profile*
%ADD10C,0.010000*%
G04 #@! TD*
G04 APERTURE END LIST*
D10*
X4800000Y4606619D02*
X4800000Y6742902D01*
X9000000Y9589157D02*
X9000000Y8277466D01*
X9000000Y1000000D02*
X4800000Y1000000D01*
X9000000Y8277466D02*
X9000000Y6742902D01*
X4800000Y1000000D02*
X4800000Y3205256D01*
X9000000Y6742902D02*
X9000000Y4606619D01*
X4800000Y3749799D02*
X4800000Y4606619D01*
X4800000Y6742902D02*
X4800000Y8277466D01*
X4800000Y28603857D02*
X4800000Y29915519D01*
X4800000Y31015519D02*
X4800000Y31330157D01*
X9000000Y31015519D02*
X9000000Y29915519D01*
X4799994Y9589097D02*
X4800000Y9589097D01*
X9000000Y29915519D02*
X9000000Y28603857D01*
X4800000Y28603857D02*
G75*
G02*
X4109988Y27653159I-1000000J43D01*
G01*
X9000000Y4606619D02*
X9000000Y3749799D01*
X4800000Y3205256D02*
X4800000Y3749799D01*
X9000000Y3749799D02*
X9000000Y3205256D01*
X9000000Y9589157D02*
G75*
G02*
X9690008Y10539839I1000000J-57D01*
G01*
X4110000Y10539864D02*
G75*
G02*
X4109996Y27653135I2790000J8556636D01*
G01*
X4799989Y31330157D02*
X4800000Y31330157D01*
X9000000Y3205256D02*
X9000000Y1000000D01*
X9690000Y27653122D02*
G75*
G02*
X8999961Y28603857I310000J950778D01*
G01*
X9690000Y27653122D02*
G75*
G02*
X9689996Y10539877I-2790000J-8556622D01*
G01*
X4095238Y32285644D02*
G75*
G02*
X9704762Y32285644I2804762J9076523D01*
G01*
X4110000Y10539864D02*
G75*
G02*
X4800026Y9589097I-310000J-950764D01*
G01*
X9000000Y31330257D02*
G75*
G02*
X9704768Y32285626I1000000J-57D01*
G01*
X4800000Y29915519D02*
X4800000Y31015519D01*
X4800000Y8277466D02*
X4800000Y9589097D01*
X9000000Y31330257D02*
X9000000Y31015519D01*
X4095238Y32285644D02*
G75*
G02*
X4799994Y31330157I-295138J-955344D01*
G01*
M02*
