G04 #@! TF.GenerationSoftware,KiCad,Pcbnew,8.0.6*
G04 #@! TF.CreationDate,2024-12-08T21:28:17+08:00*
G04 #@! TF.ProjectId,flex3kicad_pcb,666c6578-336b-4696-9361-645f7063622e,rev?*
G04 #@! TF.SameCoordinates,Original*
G04 #@! TF.FileFunction,Other,User*
%FSLAX46Y46*%
G04 Gerber Fmt 4.6, Leading zero omitted, Abs format (unit mm)*
G04 Created by KiCad (PCBNEW 8.0.6) date 2024-12-08 21:28:17*
%MOMM*%
%LPD*%
G01*
G04 APERTURE LIST*
%ADD10C,0.300000*%
G04 APERTURE END LIST*
G36*
X4800000Y4300000D02*
G01*
X9000000Y4300000D01*
X9000000Y1000000D01*
X4800000Y1000000D01*
X4800000Y4300000D01*
G37*
D10*
X22383082Y24870600D02*
X22597368Y24799172D01*
X22597368Y24799172D02*
X22954510Y24799172D01*
X22954510Y24799172D02*
X23097368Y24870600D01*
X23097368Y24870600D02*
X23168796Y24942029D01*
X23168796Y24942029D02*
X23240225Y25084886D01*
X23240225Y25084886D02*
X23240225Y25227743D01*
X23240225Y25227743D02*
X23168796Y25370600D01*
X23168796Y25370600D02*
X23097368Y25442029D01*
X23097368Y25442029D02*
X22954510Y25513458D01*
X22954510Y25513458D02*
X22668796Y25584886D01*
X22668796Y25584886D02*
X22525939Y25656315D01*
X22525939Y25656315D02*
X22454510Y25727743D01*
X22454510Y25727743D02*
X22383082Y25870600D01*
X22383082Y25870600D02*
X22383082Y26013458D01*
X22383082Y26013458D02*
X22454510Y26156315D01*
X22454510Y26156315D02*
X22525939Y26227743D01*
X22525939Y26227743D02*
X22668796Y26299172D01*
X22668796Y26299172D02*
X23025939Y26299172D01*
X23025939Y26299172D02*
X23240225Y26227743D01*
X23668796Y25799172D02*
X24240224Y25799172D01*
X23883081Y26299172D02*
X23883081Y25013458D01*
X23883081Y25013458D02*
X23954510Y24870600D01*
X23954510Y24870600D02*
X24097367Y24799172D01*
X24097367Y24799172D02*
X24240224Y24799172D01*
X25383082Y24799172D02*
X25383082Y25584886D01*
X25383082Y25584886D02*
X25311653Y25727743D01*
X25311653Y25727743D02*
X25168796Y25799172D01*
X25168796Y25799172D02*
X24883082Y25799172D01*
X24883082Y25799172D02*
X24740224Y25727743D01*
X25383082Y24870600D02*
X25240224Y24799172D01*
X25240224Y24799172D02*
X24883082Y24799172D01*
X24883082Y24799172D02*
X24740224Y24870600D01*
X24740224Y24870600D02*
X24668796Y25013458D01*
X24668796Y25013458D02*
X24668796Y25156315D01*
X24668796Y25156315D02*
X24740224Y25299172D01*
X24740224Y25299172D02*
X24883082Y25370600D01*
X24883082Y25370600D02*
X25240224Y25370600D01*
X25240224Y25370600D02*
X25383082Y25442029D01*
X26740225Y24870600D02*
X26597367Y24799172D01*
X26597367Y24799172D02*
X26311653Y24799172D01*
X26311653Y24799172D02*
X26168796Y24870600D01*
X26168796Y24870600D02*
X26097367Y24942029D01*
X26097367Y24942029D02*
X26025939Y25084886D01*
X26025939Y25084886D02*
X26025939Y25513458D01*
X26025939Y25513458D02*
X26097367Y25656315D01*
X26097367Y25656315D02*
X26168796Y25727743D01*
X26168796Y25727743D02*
X26311653Y25799172D01*
X26311653Y25799172D02*
X26597367Y25799172D01*
X26597367Y25799172D02*
X26740225Y25727743D01*
X27383081Y24799172D02*
X27383081Y26299172D01*
X27525939Y25370600D02*
X27954510Y24799172D01*
X27954510Y25799172D02*
X27383081Y25227743D01*
X30383082Y25799172D02*
X30383082Y24799172D01*
X29740224Y25799172D02*
X29740224Y25013458D01*
X29740224Y25013458D02*
X29811653Y24870600D01*
X29811653Y24870600D02*
X29954510Y24799172D01*
X29954510Y24799172D02*
X30168796Y24799172D01*
X30168796Y24799172D02*
X30311653Y24870600D01*
X30311653Y24870600D02*
X30383082Y24942029D01*
X31097367Y25799172D02*
X31097367Y24299172D01*
X31097367Y25727743D02*
X31240225Y25799172D01*
X31240225Y25799172D02*
X31525939Y25799172D01*
X31525939Y25799172D02*
X31668796Y25727743D01*
X31668796Y25727743D02*
X31740225Y25656315D01*
X31740225Y25656315D02*
X31811653Y25513458D01*
X31811653Y25513458D02*
X31811653Y25084886D01*
X31811653Y25084886D02*
X31740225Y24942029D01*
X31740225Y24942029D02*
X31668796Y24870600D01*
X31668796Y24870600D02*
X31525939Y24799172D01*
X31525939Y24799172D02*
X31240225Y24799172D01*
X31240225Y24799172D02*
X31097367Y24870600D01*
X34025939Y26299172D02*
X34025939Y25227743D01*
X34025939Y25227743D02*
X33954510Y25013458D01*
X33954510Y25013458D02*
X33811653Y24870600D01*
X33811653Y24870600D02*
X33597367Y24799172D01*
X33597367Y24799172D02*
X33454510Y24799172D01*
X35454510Y24799172D02*
X34740224Y24799172D01*
X34740224Y24799172D02*
X34740224Y26299172D01*
X36811653Y24942029D02*
X36740225Y24870600D01*
X36740225Y24870600D02*
X36525939Y24799172D01*
X36525939Y24799172D02*
X36383082Y24799172D01*
X36383082Y24799172D02*
X36168796Y24870600D01*
X36168796Y24870600D02*
X36025939Y25013458D01*
X36025939Y25013458D02*
X35954510Y25156315D01*
X35954510Y25156315D02*
X35883082Y25442029D01*
X35883082Y25442029D02*
X35883082Y25656315D01*
X35883082Y25656315D02*
X35954510Y25942029D01*
X35954510Y25942029D02*
X36025939Y26084886D01*
X36025939Y26084886D02*
X36168796Y26227743D01*
X36168796Y26227743D02*
X36383082Y26299172D01*
X36383082Y26299172D02*
X36525939Y26299172D01*
X36525939Y26299172D02*
X36740225Y26227743D01*
X36740225Y26227743D02*
X36811653Y26156315D01*
X37740225Y26299172D02*
X37883082Y26299172D01*
X37883082Y26299172D02*
X38025939Y26227743D01*
X38025939Y26227743D02*
X38097368Y26156315D01*
X38097368Y26156315D02*
X38168796Y26013458D01*
X38168796Y26013458D02*
X38240225Y25727743D01*
X38240225Y25727743D02*
X38240225Y25370600D01*
X38240225Y25370600D02*
X38168796Y25084886D01*
X38168796Y25084886D02*
X38097368Y24942029D01*
X38097368Y24942029D02*
X38025939Y24870600D01*
X38025939Y24870600D02*
X37883082Y24799172D01*
X37883082Y24799172D02*
X37740225Y24799172D01*
X37740225Y24799172D02*
X37597368Y24870600D01*
X37597368Y24870600D02*
X37525939Y24942029D01*
X37525939Y24942029D02*
X37454510Y25084886D01*
X37454510Y25084886D02*
X37383082Y25370600D01*
X37383082Y25370600D02*
X37383082Y25727743D01*
X37383082Y25727743D02*
X37454510Y26013458D01*
X37454510Y26013458D02*
X37525939Y26156315D01*
X37525939Y26156315D02*
X37597368Y26227743D01*
X37597368Y26227743D02*
X37740225Y26299172D01*
X39525939Y25799172D02*
X39525939Y24799172D01*
X39168796Y26370600D02*
X38811653Y25299172D01*
X38811653Y25299172D02*
X39740224Y25299172D01*
X41097367Y24799172D02*
X40240224Y24799172D01*
X40668795Y24799172D02*
X40668795Y26299172D01*
X40668795Y26299172D02*
X40525938Y26084886D01*
X40525938Y26084886D02*
X40383081Y25942029D01*
X40383081Y25942029D02*
X40240224Y25870600D01*
X42383081Y26299172D02*
X42097366Y26299172D01*
X42097366Y26299172D02*
X41954509Y26227743D01*
X41954509Y26227743D02*
X41883081Y26156315D01*
X41883081Y26156315D02*
X41740223Y25942029D01*
X41740223Y25942029D02*
X41668795Y25656315D01*
X41668795Y25656315D02*
X41668795Y25084886D01*
X41668795Y25084886D02*
X41740223Y24942029D01*
X41740223Y24942029D02*
X41811652Y24870600D01*
X41811652Y24870600D02*
X41954509Y24799172D01*
X41954509Y24799172D02*
X42240223Y24799172D01*
X42240223Y24799172D02*
X42383081Y24870600D01*
X42383081Y24870600D02*
X42454509Y24942029D01*
X42454509Y24942029D02*
X42525938Y25084886D01*
X42525938Y25084886D02*
X42525938Y25442029D01*
X42525938Y25442029D02*
X42454509Y25584886D01*
X42454509Y25584886D02*
X42383081Y25656315D01*
X42383081Y25656315D02*
X42240223Y25727743D01*
X42240223Y25727743D02*
X41954509Y25727743D01*
X41954509Y25727743D02*
X41811652Y25656315D01*
X41811652Y25656315D02*
X41740223Y25584886D01*
X41740223Y25584886D02*
X41668795Y25442029D01*
X43954509Y24799172D02*
X43097366Y24799172D01*
X43525937Y24799172D02*
X43525937Y26299172D01*
X43525937Y26299172D02*
X43383080Y26084886D01*
X43383080Y26084886D02*
X43240223Y25942029D01*
X43240223Y25942029D02*
X43097366Y25870600D01*
X44597365Y24799172D02*
X44597365Y26299172D01*
X44597365Y25584886D02*
X45454508Y25584886D01*
X45454508Y24799172D02*
X45454508Y26299172D01*
X46168794Y25370600D02*
X47311652Y25370600D01*
X47883080Y26299172D02*
X48883080Y26299172D01*
X48883080Y26299172D02*
X48240223Y24799172D01*
X50097366Y26299172D02*
X49811651Y26299172D01*
X49811651Y26299172D02*
X49668794Y26227743D01*
X49668794Y26227743D02*
X49597366Y26156315D01*
X49597366Y26156315D02*
X49454508Y25942029D01*
X49454508Y25942029D02*
X49383080Y25656315D01*
X49383080Y25656315D02*
X49383080Y25084886D01*
X49383080Y25084886D02*
X49454508Y24942029D01*
X49454508Y24942029D02*
X49525937Y24870600D01*
X49525937Y24870600D02*
X49668794Y24799172D01*
X49668794Y24799172D02*
X49954508Y24799172D01*
X49954508Y24799172D02*
X50097366Y24870600D01*
X50097366Y24870600D02*
X50168794Y24942029D01*
X50168794Y24942029D02*
X50240223Y25084886D01*
X50240223Y25084886D02*
X50240223Y25442029D01*
X50240223Y25442029D02*
X50168794Y25584886D01*
X50168794Y25584886D02*
X50097366Y25656315D01*
X50097366Y25656315D02*
X49954508Y25727743D01*
X49954508Y25727743D02*
X49668794Y25727743D01*
X49668794Y25727743D02*
X49525937Y25656315D01*
X49525937Y25656315D02*
X49454508Y25584886D01*
X49454508Y25584886D02*
X49383080Y25442029D01*
X50811651Y26156315D02*
X50883079Y26227743D01*
X50883079Y26227743D02*
X51025937Y26299172D01*
X51025937Y26299172D02*
X51383079Y26299172D01*
X51383079Y26299172D02*
X51525937Y26227743D01*
X51525937Y26227743D02*
X51597365Y26156315D01*
X51597365Y26156315D02*
X51668794Y26013458D01*
X51668794Y26013458D02*
X51668794Y25870600D01*
X51668794Y25870600D02*
X51597365Y25656315D01*
X51597365Y25656315D02*
X50740222Y24799172D01*
X50740222Y24799172D02*
X51668794Y24799172D01*
X52525936Y25656315D02*
X52383079Y25727743D01*
X52383079Y25727743D02*
X52311650Y25799172D01*
X52311650Y25799172D02*
X52240222Y25942029D01*
X52240222Y25942029D02*
X52240222Y26013458D01*
X52240222Y26013458D02*
X52311650Y26156315D01*
X52311650Y26156315D02*
X52383079Y26227743D01*
X52383079Y26227743D02*
X52525936Y26299172D01*
X52525936Y26299172D02*
X52811650Y26299172D01*
X52811650Y26299172D02*
X52954508Y26227743D01*
X52954508Y26227743D02*
X53025936Y26156315D01*
X53025936Y26156315D02*
X53097365Y26013458D01*
X53097365Y26013458D02*
X53097365Y25942029D01*
X53097365Y25942029D02*
X53025936Y25799172D01*
X53025936Y25799172D02*
X52954508Y25727743D01*
X52954508Y25727743D02*
X52811650Y25656315D01*
X52811650Y25656315D02*
X52525936Y25656315D01*
X52525936Y25656315D02*
X52383079Y25584886D01*
X52383079Y25584886D02*
X52311650Y25513458D01*
X52311650Y25513458D02*
X52240222Y25370600D01*
X52240222Y25370600D02*
X52240222Y25084886D01*
X52240222Y25084886D02*
X52311650Y24942029D01*
X52311650Y24942029D02*
X52383079Y24870600D01*
X52383079Y24870600D02*
X52525936Y24799172D01*
X52525936Y24799172D02*
X52811650Y24799172D01*
X52811650Y24799172D02*
X52954508Y24870600D01*
X52954508Y24870600D02*
X53025936Y24942029D01*
X53025936Y24942029D02*
X53097365Y25084886D01*
X53097365Y25084886D02*
X53097365Y25370600D01*
X53097365Y25370600D02*
X53025936Y25513458D01*
X53025936Y25513458D02*
X52954508Y25584886D01*
X52954508Y25584886D02*
X52811650Y25656315D01*
M02*
