%TF.GenerationSoftware,KiCad,Pcbnew,8.0.6*%
%TF.CreationDate,2025-02-24T12:04:57+08:00*%
%TF.ProjectId,flex3kicad_pcb,666c6578-336b-4696-9361-645f7063622e,rev?*%
%TF.SameCoordinates,Original*%
%TF.FileFunction,Drillmap*%
%TF.FilePolarity,Positive*%
%FSLAX45Y45*%
G04 Gerber Fmt 4.5, Leading zero omitted, Abs format (unit mm)*
G04 Created by KiCad (PCBNEW 8.0.6) date 2025-02-24 12:04:57*
%MOMM*%
%LPD*%
G01*
G04 APERTURE LIST*
%ADD10C,0.010000*%
%ADD11C,0.200000*%
%ADD12C,0.100000*%
G04 APERTURE END LIST*
D10*
X480000Y460662D02*
X480000Y674290D01*
X900000Y958916D02*
X900000Y827747D01*
X900000Y100000D02*
X480000Y100000D01*
X900000Y827747D02*
X900000Y674290D01*
X480000Y100000D02*
X480000Y320526D01*
X900000Y674290D02*
X900000Y460662D01*
X480000Y374980D02*
X480000Y460662D01*
X480000Y674290D02*
X480000Y827747D01*
X480000Y2860386D02*
X480000Y2991552D01*
X480000Y3101552D02*
X480000Y3133016D01*
X900000Y3101552D02*
X900000Y2991552D01*
X479999Y958910D02*
X480000Y958910D01*
X900000Y2991552D02*
X900000Y2860386D01*
X480000Y2860386D02*
G75*
G02*
X410999Y2765316I-100000J4D01*
G01*
X900000Y460662D02*
X900000Y374980D01*
X480000Y320526D02*
X480000Y374980D01*
X900000Y374980D02*
X900000Y320526D01*
X900000Y958916D02*
G75*
G02*
X969001Y1053984I100000J-6D01*
G01*
X411000Y1053986D02*
G75*
G02*
X411000Y2765314I279000J855664D01*
G01*
X479999Y3133016D02*
X480000Y3133016D01*
X900000Y320526D02*
X900000Y100000D01*
X969000Y2765312D02*
G75*
G02*
X899996Y2860386I31000J95078D01*
G01*
X969000Y2765312D02*
G75*
G02*
X969000Y1053988I-279000J-855662D01*
G01*
X409524Y3228564D02*
G75*
G02*
X970476Y3228564I280476J907652D01*
G01*
X411000Y1053986D02*
G75*
G02*
X480003Y958910I-31000J-95076D01*
G01*
X900000Y3133026D02*
G75*
G02*
X970477Y3228563I100000J-6D01*
G01*
X480000Y2991552D02*
X480000Y3101552D01*
X480000Y827747D02*
X480000Y958910D01*
X900000Y3133026D02*
X900000Y3101552D01*
X409524Y3228564D02*
G75*
G02*
X479999Y3133016I-29514J-95534D01*
G01*
D11*
D12*
X520000Y830000D02*
X550000Y800000D01*
X550000Y830000D02*
X520000Y800000D01*
X824999Y1924649D02*
X854999Y1894649D01*
X854999Y1924649D02*
X824999Y1894649D01*
D11*
X277Y-211984D02*
X277Y-11984D01*
X277Y-11984D02*
X47896Y-11984D01*
X47896Y-11984D02*
X76468Y-21508D01*
X76468Y-21508D02*
X95515Y-40555D01*
X95515Y-40555D02*
X105039Y-59603D01*
X105039Y-59603D02*
X114563Y-97698D01*
X114563Y-97698D02*
X114563Y-126269D01*
X114563Y-126269D02*
X105039Y-164365D01*
X105039Y-164365D02*
X95515Y-183412D01*
X95515Y-183412D02*
X76468Y-202460D01*
X76468Y-202460D02*
X47896Y-211984D01*
X47896Y-211984D02*
X277Y-211984D01*
X200277Y-211984D02*
X200277Y-78650D01*
X200277Y-116746D02*
X209801Y-97698D01*
X209801Y-97698D02*
X219325Y-88174D01*
X219325Y-88174D02*
X238372Y-78650D01*
X238372Y-78650D02*
X257420Y-78650D01*
X324087Y-211984D02*
X324087Y-78650D01*
X324087Y-11984D02*
X314563Y-21508D01*
X314563Y-21508D02*
X324087Y-31031D01*
X324087Y-31031D02*
X333610Y-21508D01*
X333610Y-21508D02*
X324087Y-11984D01*
X324087Y-11984D02*
X324087Y-31031D01*
X447896Y-211984D02*
X428848Y-202460D01*
X428848Y-202460D02*
X419325Y-183412D01*
X419325Y-183412D02*
X419325Y-11984D01*
X552658Y-211984D02*
X533610Y-202460D01*
X533610Y-202460D02*
X524086Y-183412D01*
X524086Y-183412D02*
X524086Y-11984D01*
X781229Y-211984D02*
X781229Y-11984D01*
X781229Y-11984D02*
X847896Y-154841D01*
X847896Y-154841D02*
X914563Y-11984D01*
X914563Y-11984D02*
X914563Y-211984D01*
X1095515Y-211984D02*
X1095515Y-107222D01*
X1095515Y-107222D02*
X1085991Y-88174D01*
X1085991Y-88174D02*
X1066944Y-78650D01*
X1066944Y-78650D02*
X1028848Y-78650D01*
X1028848Y-78650D02*
X1009801Y-88174D01*
X1095515Y-202460D02*
X1076468Y-211984D01*
X1076468Y-211984D02*
X1028848Y-211984D01*
X1028848Y-211984D02*
X1009801Y-202460D01*
X1009801Y-202460D02*
X1000277Y-183412D01*
X1000277Y-183412D02*
X1000277Y-164365D01*
X1000277Y-164365D02*
X1009801Y-145317D01*
X1009801Y-145317D02*
X1028848Y-135793D01*
X1028848Y-135793D02*
X1076468Y-135793D01*
X1076468Y-135793D02*
X1095515Y-126269D01*
X1190753Y-78650D02*
X1190753Y-278650D01*
X1190753Y-88174D02*
X1209801Y-78650D01*
X1209801Y-78650D02*
X1247896Y-78650D01*
X1247896Y-78650D02*
X1266944Y-88174D01*
X1266944Y-88174D02*
X1276468Y-97698D01*
X1276468Y-97698D02*
X1285991Y-116746D01*
X1285991Y-116746D02*
X1285991Y-173889D01*
X1285991Y-173889D02*
X1276468Y-192936D01*
X1276468Y-192936D02*
X1266944Y-202460D01*
X1266944Y-202460D02*
X1247896Y-211984D01*
X1247896Y-211984D02*
X1209801Y-211984D01*
X1209801Y-211984D02*
X1190753Y-202460D01*
X1371706Y-192936D02*
X1381229Y-202460D01*
X1381229Y-202460D02*
X1371706Y-211984D01*
X1371706Y-211984D02*
X1362182Y-202460D01*
X1362182Y-202460D02*
X1371706Y-192936D01*
X1371706Y-192936D02*
X1371706Y-211984D01*
X1371706Y-88174D02*
X1381229Y-97698D01*
X1381229Y-97698D02*
X1371706Y-107222D01*
X1371706Y-107222D02*
X1362182Y-97698D01*
X1362182Y-97698D02*
X1371706Y-88174D01*
X1371706Y-88174D02*
X1371706Y-107222D01*
D12*
X-290500Y-525500D02*
X-260500Y-555500D01*
X-260500Y-525500D02*
X-290500Y-555500D01*
D11*
X38372Y-431984D02*
X57420Y-431984D01*
X57420Y-431984D02*
X76468Y-441508D01*
X76468Y-441508D02*
X85991Y-451031D01*
X85991Y-451031D02*
X95515Y-470079D01*
X95515Y-470079D02*
X105039Y-508174D01*
X105039Y-508174D02*
X105039Y-555793D01*
X105039Y-555793D02*
X95515Y-593889D01*
X95515Y-593889D02*
X85991Y-612936D01*
X85991Y-612936D02*
X76468Y-622460D01*
X76468Y-622460D02*
X57420Y-631984D01*
X57420Y-631984D02*
X38372Y-631984D01*
X38372Y-631984D02*
X19325Y-622460D01*
X19325Y-622460D02*
X9801Y-612936D01*
X9801Y-612936D02*
X277Y-593889D01*
X277Y-593889D02*
X-9247Y-555793D01*
X-9247Y-555793D02*
X-9247Y-508174D01*
X-9247Y-508174D02*
X277Y-470079D01*
X277Y-470079D02*
X9801Y-451031D01*
X9801Y-451031D02*
X19325Y-441508D01*
X19325Y-441508D02*
X38372Y-431984D01*
X190753Y-612936D02*
X200277Y-622460D01*
X200277Y-622460D02*
X190753Y-631984D01*
X190753Y-631984D02*
X181229Y-622460D01*
X181229Y-622460D02*
X190753Y-612936D01*
X190753Y-612936D02*
X190753Y-631984D01*
X266944Y-431984D02*
X390753Y-431984D01*
X390753Y-431984D02*
X324087Y-508174D01*
X324087Y-508174D02*
X352658Y-508174D01*
X352658Y-508174D02*
X371706Y-517698D01*
X371706Y-517698D02*
X381229Y-527222D01*
X381229Y-527222D02*
X390753Y-546270D01*
X390753Y-546270D02*
X390753Y-593889D01*
X390753Y-593889D02*
X381229Y-612936D01*
X381229Y-612936D02*
X371706Y-622460D01*
X371706Y-622460D02*
X352658Y-631984D01*
X352658Y-631984D02*
X295515Y-631984D01*
X295515Y-631984D02*
X276468Y-622460D01*
X276468Y-622460D02*
X266944Y-612936D01*
X514563Y-431984D02*
X533610Y-431984D01*
X533610Y-431984D02*
X552658Y-441508D01*
X552658Y-441508D02*
X562182Y-451031D01*
X562182Y-451031D02*
X571706Y-470079D01*
X571706Y-470079D02*
X581229Y-508174D01*
X581229Y-508174D02*
X581229Y-555793D01*
X581229Y-555793D02*
X571706Y-593889D01*
X571706Y-593889D02*
X562182Y-612936D01*
X562182Y-612936D02*
X552658Y-622460D01*
X552658Y-622460D02*
X533610Y-631984D01*
X533610Y-631984D02*
X514563Y-631984D01*
X514563Y-631984D02*
X495515Y-622460D01*
X495515Y-622460D02*
X485991Y-612936D01*
X485991Y-612936D02*
X476467Y-593889D01*
X476467Y-593889D02*
X466944Y-555793D01*
X466944Y-555793D02*
X466944Y-508174D01*
X466944Y-508174D02*
X476467Y-470079D01*
X476467Y-470079D02*
X485991Y-451031D01*
X485991Y-451031D02*
X495515Y-441508D01*
X495515Y-441508D02*
X514563Y-431984D01*
X705039Y-431984D02*
X724087Y-431984D01*
X724087Y-431984D02*
X743134Y-441508D01*
X743134Y-441508D02*
X752658Y-451031D01*
X752658Y-451031D02*
X762182Y-470079D01*
X762182Y-470079D02*
X771706Y-508174D01*
X771706Y-508174D02*
X771706Y-555793D01*
X771706Y-555793D02*
X762182Y-593889D01*
X762182Y-593889D02*
X752658Y-612936D01*
X752658Y-612936D02*
X743134Y-622460D01*
X743134Y-622460D02*
X724087Y-631984D01*
X724087Y-631984D02*
X705039Y-631984D01*
X705039Y-631984D02*
X685991Y-622460D01*
X685991Y-622460D02*
X676468Y-612936D01*
X676468Y-612936D02*
X666944Y-593889D01*
X666944Y-593889D02*
X657420Y-555793D01*
X657420Y-555793D02*
X657420Y-508174D01*
X657420Y-508174D02*
X666944Y-470079D01*
X666944Y-470079D02*
X676468Y-451031D01*
X676468Y-451031D02*
X685991Y-441508D01*
X685991Y-441508D02*
X705039Y-431984D01*
X857420Y-631984D02*
X857420Y-498650D01*
X857420Y-517698D02*
X866944Y-508174D01*
X866944Y-508174D02*
X885991Y-498650D01*
X885991Y-498650D02*
X914563Y-498650D01*
X914563Y-498650D02*
X933610Y-508174D01*
X933610Y-508174D02*
X943134Y-527222D01*
X943134Y-527222D02*
X943134Y-631984D01*
X943134Y-527222D02*
X952658Y-508174D01*
X952658Y-508174D02*
X971706Y-498650D01*
X971706Y-498650D02*
X1000277Y-498650D01*
X1000277Y-498650D02*
X1019325Y-508174D01*
X1019325Y-508174D02*
X1028848Y-527222D01*
X1028848Y-527222D02*
X1028848Y-631984D01*
X1124087Y-631984D02*
X1124087Y-498650D01*
X1124087Y-517698D02*
X1133610Y-508174D01*
X1133610Y-508174D02*
X1152658Y-498650D01*
X1152658Y-498650D02*
X1181230Y-498650D01*
X1181230Y-498650D02*
X1200277Y-508174D01*
X1200277Y-508174D02*
X1209801Y-527222D01*
X1209801Y-527222D02*
X1209801Y-631984D01*
X1209801Y-527222D02*
X1219325Y-508174D01*
X1219325Y-508174D02*
X1238372Y-498650D01*
X1238372Y-498650D02*
X1266944Y-498650D01*
X1266944Y-498650D02*
X1285991Y-508174D01*
X1285991Y-508174D02*
X1295515Y-527222D01*
X1295515Y-527222D02*
X1295515Y-631984D01*
X1685991Y-422460D02*
X1514563Y-679603D01*
X1943134Y-431984D02*
X1962182Y-431984D01*
X1962182Y-431984D02*
X1981230Y-441508D01*
X1981230Y-441508D02*
X1990753Y-451031D01*
X1990753Y-451031D02*
X2000277Y-470079D01*
X2000277Y-470079D02*
X2009801Y-508174D01*
X2009801Y-508174D02*
X2009801Y-555793D01*
X2009801Y-555793D02*
X2000277Y-593889D01*
X2000277Y-593889D02*
X1990753Y-612936D01*
X1990753Y-612936D02*
X1981230Y-622460D01*
X1981230Y-622460D02*
X1962182Y-631984D01*
X1962182Y-631984D02*
X1943134Y-631984D01*
X1943134Y-631984D02*
X1924087Y-622460D01*
X1924087Y-622460D02*
X1914563Y-612936D01*
X1914563Y-612936D02*
X1905039Y-593889D01*
X1905039Y-593889D02*
X1895515Y-555793D01*
X1895515Y-555793D02*
X1895515Y-508174D01*
X1895515Y-508174D02*
X1905039Y-470079D01*
X1905039Y-470079D02*
X1914563Y-451031D01*
X1914563Y-451031D02*
X1924087Y-441508D01*
X1924087Y-441508D02*
X1943134Y-431984D01*
X2095515Y-612936D02*
X2105039Y-622460D01*
X2105039Y-622460D02*
X2095515Y-631984D01*
X2095515Y-631984D02*
X2085991Y-622460D01*
X2085991Y-622460D02*
X2095515Y-612936D01*
X2095515Y-612936D02*
X2095515Y-631984D01*
X2228849Y-431984D02*
X2247896Y-431984D01*
X2247896Y-431984D02*
X2266944Y-441508D01*
X2266944Y-441508D02*
X2276468Y-451031D01*
X2276468Y-451031D02*
X2285992Y-470079D01*
X2285992Y-470079D02*
X2295515Y-508174D01*
X2295515Y-508174D02*
X2295515Y-555793D01*
X2295515Y-555793D02*
X2285992Y-593889D01*
X2285992Y-593889D02*
X2276468Y-612936D01*
X2276468Y-612936D02*
X2266944Y-622460D01*
X2266944Y-622460D02*
X2247896Y-631984D01*
X2247896Y-631984D02*
X2228849Y-631984D01*
X2228849Y-631984D02*
X2209801Y-622460D01*
X2209801Y-622460D02*
X2200277Y-612936D01*
X2200277Y-612936D02*
X2190753Y-593889D01*
X2190753Y-593889D02*
X2181230Y-555793D01*
X2181230Y-555793D02*
X2181230Y-508174D01*
X2181230Y-508174D02*
X2190753Y-470079D01*
X2190753Y-470079D02*
X2200277Y-451031D01*
X2200277Y-451031D02*
X2209801Y-441508D01*
X2209801Y-441508D02*
X2228849Y-431984D01*
X2485992Y-631984D02*
X2371706Y-631984D01*
X2428849Y-631984D02*
X2428849Y-431984D01*
X2428849Y-431984D02*
X2409801Y-460555D01*
X2409801Y-460555D02*
X2390753Y-479603D01*
X2390753Y-479603D02*
X2371706Y-489127D01*
X2676468Y-631984D02*
X2562182Y-631984D01*
X2619325Y-631984D02*
X2619325Y-431984D01*
X2619325Y-431984D02*
X2600277Y-460555D01*
X2600277Y-460555D02*
X2581230Y-479603D01*
X2581230Y-479603D02*
X2562182Y-489127D01*
X2790753Y-517698D02*
X2771706Y-508174D01*
X2771706Y-508174D02*
X2762182Y-498650D01*
X2762182Y-498650D02*
X2752658Y-479603D01*
X2752658Y-479603D02*
X2752658Y-470079D01*
X2752658Y-470079D02*
X2762182Y-451031D01*
X2762182Y-451031D02*
X2771706Y-441508D01*
X2771706Y-441508D02*
X2790753Y-431984D01*
X2790753Y-431984D02*
X2828849Y-431984D01*
X2828849Y-431984D02*
X2847896Y-441508D01*
X2847896Y-441508D02*
X2857420Y-451031D01*
X2857420Y-451031D02*
X2866944Y-470079D01*
X2866944Y-470079D02*
X2866944Y-479603D01*
X2866944Y-479603D02*
X2857420Y-498650D01*
X2857420Y-498650D02*
X2847896Y-508174D01*
X2847896Y-508174D02*
X2828849Y-517698D01*
X2828849Y-517698D02*
X2790753Y-517698D01*
X2790753Y-517698D02*
X2771706Y-527222D01*
X2771706Y-527222D02*
X2762182Y-536746D01*
X2762182Y-536746D02*
X2752658Y-555793D01*
X2752658Y-555793D02*
X2752658Y-593889D01*
X2752658Y-593889D02*
X2762182Y-612936D01*
X2762182Y-612936D02*
X2771706Y-622460D01*
X2771706Y-622460D02*
X2790753Y-631984D01*
X2790753Y-631984D02*
X2828849Y-631984D01*
X2828849Y-631984D02*
X2847896Y-622460D01*
X2847896Y-622460D02*
X2857420Y-612936D01*
X2857420Y-612936D02*
X2866944Y-593889D01*
X2866944Y-593889D02*
X2866944Y-555793D01*
X2866944Y-555793D02*
X2857420Y-536746D01*
X2857420Y-536746D02*
X2847896Y-527222D01*
X2847896Y-527222D02*
X2828849Y-517698D01*
X2943134Y-431984D02*
X2943134Y-470079D01*
X3019325Y-431984D02*
X3019325Y-470079D01*
X3314563Y-708174D02*
X3305039Y-698650D01*
X3305039Y-698650D02*
X3285992Y-670079D01*
X3285992Y-670079D02*
X3276468Y-651031D01*
X3276468Y-651031D02*
X3266944Y-622460D01*
X3266944Y-622460D02*
X3257420Y-574841D01*
X3257420Y-574841D02*
X3257420Y-536746D01*
X3257420Y-536746D02*
X3266944Y-489127D01*
X3266944Y-489127D02*
X3276468Y-460555D01*
X3276468Y-460555D02*
X3285992Y-441508D01*
X3285992Y-441508D02*
X3305039Y-412936D01*
X3305039Y-412936D02*
X3314563Y-403412D01*
X3381230Y-451031D02*
X3390753Y-441508D01*
X3390753Y-441508D02*
X3409801Y-431984D01*
X3409801Y-431984D02*
X3457420Y-431984D01*
X3457420Y-431984D02*
X3476468Y-441508D01*
X3476468Y-441508D02*
X3485992Y-451031D01*
X3485992Y-451031D02*
X3495515Y-470079D01*
X3495515Y-470079D02*
X3495515Y-489127D01*
X3495515Y-489127D02*
X3485992Y-517698D01*
X3485992Y-517698D02*
X3371706Y-631984D01*
X3371706Y-631984D02*
X3495515Y-631984D01*
X3733611Y-631984D02*
X3733611Y-431984D01*
X3819325Y-631984D02*
X3819325Y-527222D01*
X3819325Y-527222D02*
X3809801Y-508174D01*
X3809801Y-508174D02*
X3790754Y-498650D01*
X3790754Y-498650D02*
X3762182Y-498650D01*
X3762182Y-498650D02*
X3743134Y-508174D01*
X3743134Y-508174D02*
X3733611Y-517698D01*
X3943134Y-631984D02*
X3924087Y-622460D01*
X3924087Y-622460D02*
X3914563Y-612936D01*
X3914563Y-612936D02*
X3905039Y-593889D01*
X3905039Y-593889D02*
X3905039Y-536746D01*
X3905039Y-536746D02*
X3914563Y-517698D01*
X3914563Y-517698D02*
X3924087Y-508174D01*
X3924087Y-508174D02*
X3943134Y-498650D01*
X3943134Y-498650D02*
X3971706Y-498650D01*
X3971706Y-498650D02*
X3990754Y-508174D01*
X3990754Y-508174D02*
X4000277Y-517698D01*
X4000277Y-517698D02*
X4009801Y-536746D01*
X4009801Y-536746D02*
X4009801Y-593889D01*
X4009801Y-593889D02*
X4000277Y-612936D01*
X4000277Y-612936D02*
X3990754Y-622460D01*
X3990754Y-622460D02*
X3971706Y-631984D01*
X3971706Y-631984D02*
X3943134Y-631984D01*
X4124087Y-631984D02*
X4105039Y-622460D01*
X4105039Y-622460D02*
X4095515Y-603412D01*
X4095515Y-603412D02*
X4095515Y-431984D01*
X4276468Y-622460D02*
X4257420Y-631984D01*
X4257420Y-631984D02*
X4219325Y-631984D01*
X4219325Y-631984D02*
X4200277Y-622460D01*
X4200277Y-622460D02*
X4190754Y-603412D01*
X4190754Y-603412D02*
X4190754Y-527222D01*
X4190754Y-527222D02*
X4200277Y-508174D01*
X4200277Y-508174D02*
X4219325Y-498650D01*
X4219325Y-498650D02*
X4257420Y-498650D01*
X4257420Y-498650D02*
X4276468Y-508174D01*
X4276468Y-508174D02*
X4285992Y-527222D01*
X4285992Y-527222D02*
X4285992Y-546270D01*
X4285992Y-546270D02*
X4190754Y-565317D01*
X4362182Y-622460D02*
X4381230Y-631984D01*
X4381230Y-631984D02*
X4419325Y-631984D01*
X4419325Y-631984D02*
X4438373Y-622460D01*
X4438373Y-622460D02*
X4447897Y-603412D01*
X4447897Y-603412D02*
X4447897Y-593889D01*
X4447897Y-593889D02*
X4438373Y-574841D01*
X4438373Y-574841D02*
X4419325Y-565317D01*
X4419325Y-565317D02*
X4390754Y-565317D01*
X4390754Y-565317D02*
X4371706Y-555793D01*
X4371706Y-555793D02*
X4362182Y-536746D01*
X4362182Y-536746D02*
X4362182Y-527222D01*
X4362182Y-527222D02*
X4371706Y-508174D01*
X4371706Y-508174D02*
X4390754Y-498650D01*
X4390754Y-498650D02*
X4419325Y-498650D01*
X4419325Y-498650D02*
X4438373Y-508174D01*
X4514563Y-708174D02*
X4524087Y-698650D01*
X4524087Y-698650D02*
X4543135Y-670079D01*
X4543135Y-670079D02*
X4552658Y-651031D01*
X4552658Y-651031D02*
X4562182Y-622460D01*
X4562182Y-622460D02*
X4571706Y-574841D01*
X4571706Y-574841D02*
X4571706Y-536746D01*
X4571706Y-536746D02*
X4562182Y-489127D01*
X4562182Y-489127D02*
X4552658Y-460555D01*
X4552658Y-460555D02*
X4543135Y-441508D01*
X4543135Y-441508D02*
X4524087Y-412936D01*
X4524087Y-412936D02*
X4514563Y-403412D01*
M02*
