G04 #@! TF.GenerationSoftware,KiCad,Pcbnew,8.0.6*
G04 #@! TF.CreationDate,2024-12-08T21:28:17+08:00*
G04 #@! TF.ProjectId,flex3kicad_pcb,666c6578-336b-4696-9361-645f7063622e,rev?*
G04 #@! TF.SameCoordinates,Original*
G04 #@! TF.FileFunction,Legend,Bot*
G04 #@! TF.FilePolarity,Positive*
%FSLAX46Y46*%
G04 Gerber Fmt 4.6, Leading zero omitted, Abs format (unit mm)*
G04 Created by KiCad (PCBNEW 8.0.6) date 2024-12-08 21:28:17*
%MOMM*%
%LPD*%
G01*
G04 APERTURE LIST*
%ADD10C,0.300000*%
%ADD11C,0.125000*%
%ADD12C,0.010000*%
G04 APERTURE END LIST*
D10*
G36*
X13270198Y18729237D02*
G01*
X13193791Y18791211D01*
X13193017Y18795182D01*
X13173479Y18899333D01*
X13154796Y19003666D01*
X13136964Y19108149D01*
X13119981Y19212746D01*
X13103841Y19317423D01*
X13088543Y19422146D01*
X13074082Y19526880D01*
X13060454Y19631592D01*
X13047656Y19736246D01*
X13035685Y19840809D01*
X13024537Y19945245D01*
X13014208Y20049522D01*
X13004695Y20153604D01*
X12995994Y20257457D01*
X12988101Y20361046D01*
X12981014Y20464338D01*
X12883708Y20475643D01*
X12783838Y20485857D01*
X12681926Y20495010D01*
X12578493Y20503133D01*
X12518907Y20507325D01*
X12278083Y20524422D01*
X12198172Y20580641D01*
X12190644Y20615768D01*
X12246251Y20696881D01*
X12273687Y20701253D01*
X12279549Y20701253D01*
X12378428Y20696570D01*
X12477592Y20690430D01*
X12576895Y20683025D01*
X12676190Y20674544D01*
X12775334Y20665178D01*
X12874180Y20655116D01*
X12913603Y20650939D01*
X13031999Y20637911D01*
X13151305Y20623645D01*
X13271057Y20607457D01*
X13390792Y20588657D01*
X13510047Y20566561D01*
X13628357Y20540481D01*
X13745258Y20509729D01*
X13860288Y20473619D01*
X13960246Y20436275D01*
X14048164Y20393433D01*
X14136654Y20329225D01*
X14184643Y20274317D01*
X14198809Y20226445D01*
X14135938Y20149777D01*
X14127001Y20149265D01*
X14033878Y20186511D01*
X14005857Y20207883D01*
X13921550Y20257806D01*
X13824026Y20296866D01*
X13811440Y20301184D01*
X13707621Y20333767D01*
X13601879Y20361084D01*
X13495038Y20384096D01*
X13387923Y20403766D01*
X13289701Y20420670D01*
X13191858Y20436396D01*
X13161265Y20440891D01*
X13168233Y20342520D01*
X13175953Y20243798D01*
X13184433Y20144749D01*
X13193681Y20045400D01*
X13203704Y19945776D01*
X13214511Y19845904D01*
X13226109Y19745807D01*
X13238507Y19645514D01*
X13251712Y19545048D01*
X13265732Y19444437D01*
X13280574Y19343705D01*
X13296248Y19242879D01*
X13312760Y19141985D01*
X13330118Y19041047D01*
X13348331Y18940092D01*
X13367406Y18839146D01*
X13367406Y18823514D01*
X13312441Y18739887D01*
X13270198Y18729237D01*
G37*
G36*
X12095160Y19400904D02*
G01*
X12134468Y19372084D01*
X12187252Y19288179D01*
X12197971Y19224073D01*
X12176422Y19128593D01*
X12126653Y19053591D01*
X12046751Y18993972D01*
X12037260Y18989600D01*
X12105270Y18911303D01*
X12188836Y18853649D01*
X12284326Y18818579D01*
X12294203Y18816676D01*
X12317650Y18813745D01*
X12413123Y18850549D01*
X12458823Y18923654D01*
X12466639Y18980318D01*
X12444994Y19078795D01*
X12397274Y19155196D01*
X12373826Y19212838D01*
X12425155Y19299609D01*
X12465173Y19312489D01*
X12524768Y19281714D01*
X12584468Y19195747D01*
X12626387Y19100478D01*
X12645336Y18998054D01*
X12645913Y18976899D01*
X12643470Y18928539D01*
X12611665Y18825365D01*
X12551488Y18735930D01*
X12466338Y18670252D01*
X12446611Y18660849D01*
X12350783Y18635707D01*
X12319604Y18633982D01*
X12212737Y18650005D01*
X12109283Y18693539D01*
X12014303Y18757784D01*
X11932861Y18835940D01*
X11870017Y18921206D01*
X11854078Y18950032D01*
X11807671Y18947590D01*
X11704218Y18952824D01*
X11600024Y18966459D01*
X11496592Y18985398D01*
X11395427Y19006541D01*
X11339214Y19018420D01*
X11274019Y19091863D01*
X11273756Y19098043D01*
X11324858Y19183613D01*
X11366080Y19194764D01*
X11384643Y19191344D01*
X11485263Y19170881D01*
X11585838Y19152571D01*
X11686687Y19138382D01*
X11788132Y19130283D01*
X11809137Y19122468D01*
X11799750Y19160795D01*
X11980328Y19160795D01*
X12021140Y19224073D01*
X12008439Y19242635D01*
X11995250Y19247520D01*
X11980328Y19160795D01*
X11799750Y19160795D01*
X11797413Y19170339D01*
X11812299Y19268526D01*
X11838446Y19329586D01*
X11909460Y19402065D01*
X12000623Y19427283D01*
X12095160Y19400904D01*
G37*
G36*
X10253310Y18777108D02*
G01*
X10158055Y18788832D01*
X10054682Y18817145D01*
X9953023Y18855628D01*
X9853347Y18901361D01*
X9755925Y18951429D01*
X9661027Y19002914D01*
X9630002Y19019886D01*
X9585061Y19092182D01*
X9637291Y19175447D01*
X9676408Y19186459D01*
X9720860Y19173270D01*
X9808141Y19126306D01*
X9899957Y19079572D01*
X9992685Y19036233D01*
X10100062Y18993162D01*
X10197277Y18965002D01*
X10266011Y18956871D01*
X10272361Y18957848D01*
X10327129Y19045934D01*
X10378753Y19129410D01*
X10411091Y19163500D01*
X10497391Y19212600D01*
X10599089Y19233283D01*
X10620163Y19233842D01*
X10725023Y19221220D01*
X10818656Y19190769D01*
X10888341Y19155685D01*
X10975088Y19099722D01*
X11061620Y19045155D01*
X11151158Y19003969D01*
X11169709Y18998392D01*
X11224908Y18990088D01*
X11259590Y19026236D01*
X11232736Y19124571D01*
X11217581Y19174736D01*
X11281487Y19251788D01*
X11308927Y19256313D01*
X11393587Y19202941D01*
X11396366Y19195252D01*
X11426441Y19097123D01*
X11436422Y19019397D01*
X11410683Y18921369D01*
X11342708Y18848599D01*
X11246362Y18814326D01*
X11224908Y18813256D01*
X11119800Y18829277D01*
X11018584Y18869982D01*
X10922589Y18924333D01*
X10833142Y18981295D01*
X10745156Y19028118D01*
X10651140Y19055340D01*
X10623582Y19057011D01*
X10591342Y19054080D01*
X10505057Y18995215D01*
X10452361Y18901631D01*
X10390033Y18821408D01*
X10371035Y18807394D01*
X10276314Y18778103D01*
X10253310Y18777108D01*
G37*
G36*
X9444263Y19504084D02*
G01*
X9543561Y19458369D01*
X9626244Y19389973D01*
X9685705Y19303475D01*
X9715335Y19203452D01*
X9717441Y19167897D01*
X9701574Y19067616D01*
X9691551Y19038937D01*
X9637145Y18953904D01*
X9554895Y18892585D01*
X9459729Y18865569D01*
X9430211Y18864059D01*
X9332764Y18879595D01*
X9329095Y18881156D01*
X9323722Y18809837D01*
X9429235Y18753172D01*
X9524629Y18700966D01*
X9619118Y18647202D01*
X9712577Y18591743D01*
X9804880Y18534453D01*
X9895901Y18475194D01*
X9985513Y18413828D01*
X10073591Y18350218D01*
X10160009Y18284226D01*
X10248973Y18210763D01*
X10335913Y18132521D01*
X10418806Y18049086D01*
X10495628Y17960046D01*
X10564356Y17864987D01*
X10622964Y17763493D01*
X10643121Y17721002D01*
X10679340Y17628048D01*
X10705821Y17531624D01*
X10720479Y17433360D01*
X10722745Y17378574D01*
X10715173Y17277335D01*
X10688551Y17179760D01*
X10643985Y17085567D01*
X10583111Y17002559D01*
X10508414Y16931963D01*
X10422378Y16875006D01*
X10369081Y16849055D01*
X10275896Y16814225D01*
X10179864Y16791124D01*
X10072281Y16778817D01*
X10029583Y16777736D01*
X9919275Y16784571D01*
X9810182Y16804650D01*
X9703946Y16837336D01*
X9602211Y16881993D01*
X9506621Y16937982D01*
X9418819Y17004666D01*
X9386248Y17034191D01*
X9317268Y17108564D01*
X9256875Y17189848D01*
X9205069Y17276870D01*
X9161850Y17368456D01*
X9127217Y17463432D01*
X9101171Y17560624D01*
X9093156Y17599858D01*
X9079290Y17697108D01*
X9072079Y17795711D01*
X9070198Y17885622D01*
X9070293Y17890995D01*
X9249960Y17890995D01*
X9249960Y17837750D01*
X9256671Y17722858D01*
X9274175Y17609800D01*
X9303477Y17499795D01*
X9345581Y17394060D01*
X9401493Y17293812D01*
X9423373Y17261826D01*
X9496753Y17176298D01*
X9581250Y17103764D01*
X9674675Y17044839D01*
X9774834Y17000138D01*
X9879538Y16970275D01*
X9986593Y16955867D01*
X10029583Y16954568D01*
X10127509Y16961405D01*
X10209835Y16979481D01*
X10307597Y17015243D01*
X10393326Y17067429D01*
X10463565Y17136235D01*
X10494622Y17181714D01*
X10531922Y17273368D01*
X10542982Y17348288D01*
X10542982Y17383947D01*
X10534739Y17481766D01*
X10507811Y17577387D01*
X10468401Y17671309D01*
X10418536Y17759268D01*
X10359780Y17841810D01*
X10293698Y17919485D01*
X10221856Y17992839D01*
X10145819Y18062421D01*
X10114580Y18089320D01*
X10038055Y18152602D01*
X9959234Y18213274D01*
X9878387Y18271564D01*
X9795782Y18327701D01*
X9711689Y18381916D01*
X9626377Y18434436D01*
X9540114Y18485490D01*
X9453170Y18535308D01*
X9363007Y18584893D01*
X9306625Y18614443D01*
X9286597Y18385343D01*
X9276430Y18276938D01*
X9265812Y18169261D01*
X9256676Y18061637D01*
X9250953Y17953390D01*
X9249960Y17890995D01*
X9070293Y17890995D01*
X9071958Y17985584D01*
X9073128Y18004324D01*
X9134678Y18700905D01*
X9134678Y18704324D01*
X9027504Y18757089D01*
X8918256Y18808998D01*
X8807290Y18859838D01*
X8717521Y18899598D01*
X8627065Y18938429D01*
X8536106Y18976223D01*
X8444826Y19012870D01*
X8421977Y19021840D01*
X8402926Y19030144D01*
X8342917Y19107725D01*
X8342354Y19117583D01*
X8398344Y19201355D01*
X8424419Y19205999D01*
X8451775Y19199648D01*
X8566370Y19157498D01*
X8679861Y19112861D01*
X8791644Y19066185D01*
X8901115Y19017916D01*
X9007669Y18968503D01*
X9110704Y18918392D01*
X9150798Y18898253D01*
X9165452Y19065803D01*
X9224528Y19144045D01*
X9253868Y19149823D01*
X9338136Y19096371D01*
X9341307Y19089251D01*
X9429474Y19040938D01*
X9433142Y19040891D01*
X9446332Y19040891D01*
X9525704Y19101161D01*
X9535236Y19131260D01*
X9540609Y19168874D01*
X9503051Y19267560D01*
X9419811Y19324399D01*
X9333980Y19342775D01*
X9252510Y19402744D01*
X9246541Y19434122D01*
X9300645Y19516298D01*
X9332514Y19522537D01*
X9334957Y19522537D01*
X9444263Y19504084D01*
G37*
G36*
X8191412Y18746334D02*
G01*
X8092534Y18761763D01*
X8031188Y18783947D01*
X7937977Y18839875D01*
X7856133Y18910815D01*
X7783114Y18989985D01*
X7745424Y19035029D01*
X7725396Y19092182D01*
X7778722Y19178502D01*
X7816255Y19188902D01*
X7876338Y19158127D01*
X7941678Y19080336D01*
X8013371Y19008444D01*
X8087364Y18954917D01*
X8182613Y18926573D01*
X8197274Y18926096D01*
X8255953Y19015625D01*
X8265662Y19112209D01*
X8265662Y19162035D01*
X8262564Y19261076D01*
X8253906Y19359620D01*
X8240636Y19457243D01*
X8223706Y19553520D01*
X8199896Y19666677D01*
X8173826Y19776550D01*
X8171872Y19776550D01*
X8089440Y19833840D01*
X8083456Y19864966D01*
X8130840Y19948008D01*
X8104617Y20043082D01*
X8089807Y20091135D01*
X8086387Y20116048D01*
X8145944Y20196556D01*
X8177734Y20202998D01*
X8259989Y20146165D01*
X8262731Y20138518D01*
X8290086Y20043019D01*
X8313045Y19956313D01*
X8760009Y19956313D01*
X8840106Y19899023D01*
X8845494Y19867897D01*
X8793188Y19782875D01*
X8760009Y19776550D01*
X8357008Y19776550D01*
X8378575Y19679346D01*
X8397380Y19581862D01*
X8413296Y19480040D01*
X8414650Y19469781D01*
X8429147Y19372310D01*
X8440066Y19274248D01*
X8445261Y19175865D01*
X8445424Y19156173D01*
X8439562Y19051637D01*
X8422646Y18952867D01*
X8385748Y18857622D01*
X8318045Y18781732D01*
X8299856Y18770269D01*
X8202224Y18746575D01*
X8191412Y18746334D01*
G37*
G36*
X7347080Y19400904D02*
G01*
X7386387Y19372084D01*
X7439171Y19288179D01*
X7449890Y19224073D01*
X7428341Y19128593D01*
X7378572Y19053591D01*
X7298670Y18993972D01*
X7289179Y18989600D01*
X7357189Y18911303D01*
X7440755Y18853649D01*
X7536245Y18818579D01*
X7546122Y18816676D01*
X7569569Y18813745D01*
X7665042Y18850549D01*
X7710742Y18923654D01*
X7718558Y18980318D01*
X7696913Y19078795D01*
X7649193Y19155196D01*
X7625745Y19212838D01*
X7677074Y19299609D01*
X7717092Y19312489D01*
X7776687Y19281714D01*
X7836387Y19195747D01*
X7878306Y19100478D01*
X7897255Y18998054D01*
X7897832Y18976899D01*
X7895389Y18928539D01*
X7863584Y18825365D01*
X7803407Y18735930D01*
X7718257Y18670252D01*
X7698530Y18660849D01*
X7602703Y18635707D01*
X7571523Y18633982D01*
X7464656Y18650005D01*
X7361202Y18693539D01*
X7266222Y18757784D01*
X7184780Y18835940D01*
X7121936Y18921206D01*
X7105997Y18950032D01*
X7059590Y18947590D01*
X6956137Y18952824D01*
X6851943Y18966459D01*
X6748511Y18985398D01*
X6647346Y19006541D01*
X6591133Y19018420D01*
X6525938Y19091863D01*
X6525676Y19098043D01*
X6576777Y19183613D01*
X6617999Y19194764D01*
X6636562Y19191344D01*
X6737182Y19170881D01*
X6837757Y19152571D01*
X6938606Y19138382D01*
X7040051Y19130283D01*
X7061056Y19122468D01*
X7051669Y19160795D01*
X7232247Y19160795D01*
X7273059Y19224073D01*
X7260358Y19242635D01*
X7247169Y19247520D01*
X7232247Y19160795D01*
X7051669Y19160795D01*
X7049332Y19170339D01*
X7064218Y19268526D01*
X7090365Y19329586D01*
X7161379Y19402065D01*
X7252542Y19427283D01*
X7347080Y19400904D01*
G37*
G36*
X5505229Y18777108D02*
G01*
X5409974Y18788832D01*
X5306602Y18817145D01*
X5204942Y18855628D01*
X5105266Y18901361D01*
X5007844Y18951429D01*
X4912946Y19002914D01*
X4881921Y19019886D01*
X4836981Y19092182D01*
X4889210Y19175447D01*
X4928327Y19186459D01*
X4972780Y19173270D01*
X5060060Y19126306D01*
X5151876Y19079572D01*
X5244604Y19036233D01*
X5351981Y18993162D01*
X5449196Y18965002D01*
X5517930Y18956871D01*
X5524280Y18957848D01*
X5579048Y19045934D01*
X5630672Y19129410D01*
X5663010Y19163500D01*
X5749310Y19212600D01*
X5851008Y19233283D01*
X5872082Y19233842D01*
X5976942Y19221220D01*
X6070575Y19190769D01*
X6140260Y19155685D01*
X6227007Y19099722D01*
X6313539Y19045155D01*
X6403077Y19003969D01*
X6421628Y18998392D01*
X6476827Y18990088D01*
X6511509Y19026236D01*
X6484655Y19124571D01*
X6469500Y19174736D01*
X6533406Y19251788D01*
X6560847Y19256313D01*
X6645506Y19202941D01*
X6648285Y19195252D01*
X6678360Y19097123D01*
X6688341Y19019397D01*
X6662602Y18921369D01*
X6594627Y18848599D01*
X6498281Y18814326D01*
X6476827Y18813256D01*
X6371719Y18829277D01*
X6270503Y18869982D01*
X6174508Y18924333D01*
X6085061Y18981295D01*
X5997075Y19028118D01*
X5903059Y19055340D01*
X5875501Y19057011D01*
X5843261Y19054080D01*
X5756976Y18995215D01*
X5704280Y18901631D01*
X5641952Y18821408D01*
X5622954Y18807394D01*
X5528233Y18778103D01*
X5505229Y18777108D01*
G37*
G36*
X4696182Y19504084D02*
G01*
X4795480Y19458369D01*
X4878163Y19389973D01*
X4937624Y19303475D01*
X4967254Y19203452D01*
X4969360Y19167897D01*
X4953493Y19067616D01*
X4943470Y19038937D01*
X4889064Y18953904D01*
X4806814Y18892585D01*
X4711648Y18865569D01*
X4682131Y18864059D01*
X4584683Y18879595D01*
X4581014Y18881156D01*
X4575641Y18809837D01*
X4681154Y18753172D01*
X4776548Y18700966D01*
X4871037Y18647202D01*
X4964496Y18591743D01*
X5056799Y18534453D01*
X5147820Y18475194D01*
X5237432Y18413828D01*
X5325510Y18350218D01*
X5411928Y18284226D01*
X5500892Y18210763D01*
X5587833Y18132521D01*
X5670725Y18049086D01*
X5747547Y17960046D01*
X5816275Y17864987D01*
X5874883Y17763493D01*
X5895041Y17721002D01*
X5931259Y17628048D01*
X5957740Y17531624D01*
X5972398Y17433360D01*
X5974664Y17378574D01*
X5967092Y17277335D01*
X5940470Y17179760D01*
X5895904Y17085567D01*
X5835030Y17002559D01*
X5760333Y16931963D01*
X5674297Y16875006D01*
X5621000Y16849055D01*
X5527815Y16814225D01*
X5431783Y16791124D01*
X5324200Y16778817D01*
X5281502Y16777736D01*
X5171195Y16784571D01*
X5062101Y16804650D01*
X4955865Y16837336D01*
X4854130Y16881993D01*
X4758540Y16937982D01*
X4670739Y17004666D01*
X4638167Y17034191D01*
X4569187Y17108564D01*
X4508794Y17189848D01*
X4456988Y17276870D01*
X4413769Y17368456D01*
X4379136Y17463432D01*
X4353090Y17560624D01*
X4345075Y17599858D01*
X4331209Y17697108D01*
X4323998Y17795711D01*
X4322117Y17885622D01*
X4322212Y17890995D01*
X4501879Y17890995D01*
X4501879Y17837750D01*
X4508590Y17722858D01*
X4526094Y17609800D01*
X4555396Y17499795D01*
X4597500Y17394060D01*
X4653412Y17293812D01*
X4675292Y17261826D01*
X4748672Y17176298D01*
X4833169Y17103764D01*
X4926594Y17044839D01*
X5026753Y17000138D01*
X5131457Y16970275D01*
X5238512Y16955867D01*
X5281502Y16954568D01*
X5379428Y16961405D01*
X5461754Y16979481D01*
X5559516Y17015243D01*
X5645245Y17067429D01*
X5715484Y17136235D01*
X5746541Y17181714D01*
X5783841Y17273368D01*
X5794901Y17348288D01*
X5794901Y17383947D01*
X5786658Y17481766D01*
X5759730Y17577387D01*
X5720320Y17671309D01*
X5670455Y17759268D01*
X5611699Y17841810D01*
X5545617Y17919485D01*
X5473775Y17992839D01*
X5397738Y18062421D01*
X5366499Y18089320D01*
X5289974Y18152602D01*
X5211153Y18213274D01*
X5130306Y18271564D01*
X5047701Y18327701D01*
X4963608Y18381916D01*
X4878296Y18434436D01*
X4792033Y18485490D01*
X4705089Y18535308D01*
X4614926Y18584893D01*
X4558544Y18614443D01*
X4538516Y18385343D01*
X4528349Y18276938D01*
X4517731Y18169261D01*
X4508595Y18061637D01*
X4502873Y17953390D01*
X4501879Y17890995D01*
X4322212Y17890995D01*
X4323877Y17985584D01*
X4325047Y18004324D01*
X4386597Y18700905D01*
X4386597Y18704324D01*
X4279423Y18757089D01*
X4170175Y18808998D01*
X4059209Y18859838D01*
X3969440Y18899598D01*
X3878984Y18938429D01*
X3788025Y18976223D01*
X3696745Y19012870D01*
X3673896Y19021840D01*
X3654845Y19030144D01*
X3594836Y19107725D01*
X3594273Y19117583D01*
X3650263Y19201355D01*
X3676338Y19205999D01*
X3703694Y19199648D01*
X3818289Y19157498D01*
X3931780Y19112861D01*
X4043563Y19066185D01*
X4153034Y19017916D01*
X4259588Y18968503D01*
X4362623Y18918392D01*
X4402717Y18898253D01*
X4417371Y19065803D01*
X4476448Y19144045D01*
X4505787Y19149823D01*
X4590055Y19096371D01*
X4593226Y19089251D01*
X4681393Y19040938D01*
X4685061Y19040891D01*
X4698251Y19040891D01*
X4777623Y19101161D01*
X4787155Y19131260D01*
X4792528Y19168874D01*
X4754970Y19267560D01*
X4671730Y19324399D01*
X4585899Y19342775D01*
X4504429Y19402744D01*
X4498460Y19434122D01*
X4552564Y19516298D01*
X4584433Y19522537D01*
X4586876Y19522537D01*
X4696182Y19504084D01*
G37*
G36*
X3412556Y19015001D02*
G01*
X3368104Y19025747D01*
X3297116Y19095081D01*
X3290923Y19120025D01*
X3343748Y19205892D01*
X3380805Y19214303D01*
X3427211Y19200137D01*
X3500233Y19129660D01*
X3503903Y19109279D01*
X3453924Y19021931D01*
X3412556Y19015001D01*
G37*
G36*
X2962661Y18738029D02*
G01*
X2863287Y18745706D01*
X2761083Y18767714D01*
X2710602Y18783459D01*
X2618073Y18820365D01*
X2527818Y18863357D01*
X2439739Y18911412D01*
X2353741Y18963504D01*
X2269725Y19018610D01*
X2242144Y19037471D01*
X2205020Y19111721D01*
X2252493Y19197769D01*
X2287574Y19208930D01*
X2335445Y19192321D01*
X2424166Y19132817D01*
X2514353Y19076794D01*
X2606921Y19025534D01*
X2702787Y18980318D01*
X2794320Y18944915D01*
X2891751Y18920588D01*
X2959730Y18914861D01*
X3048146Y18931470D01*
X3097971Y19005231D01*
X3058970Y19097952D01*
X3053519Y19125887D01*
X3116580Y19204610D01*
X3150239Y19211372D01*
X3234575Y19157750D01*
X3270658Y19060292D01*
X3275292Y19008162D01*
X3256790Y18909244D01*
X3200553Y18823514D01*
X3119401Y18768130D01*
X3018981Y18741280D01*
X2962661Y18738029D01*
G37*
G36*
X3020302Y19294903D02*
G01*
X2930896Y19340990D01*
X2898181Y19390646D01*
X2888411Y19425329D01*
X2898181Y19460500D01*
X2980246Y19513745D01*
X3069772Y19467787D01*
X3102856Y19418002D01*
X3112626Y19383319D01*
X3102856Y19348637D01*
X3020302Y19294903D01*
G37*
G36*
X1204601Y18777108D02*
G01*
X1109346Y18788832D01*
X1005973Y18817145D01*
X904314Y18855628D01*
X804638Y18901361D01*
X707216Y18951429D01*
X612318Y19002914D01*
X581293Y19019886D01*
X536352Y19092182D01*
X588582Y19175447D01*
X627699Y19186459D01*
X672151Y19173270D01*
X759432Y19126306D01*
X851248Y19079572D01*
X943976Y19036233D01*
X1051353Y18993162D01*
X1148568Y18965002D01*
X1217302Y18956871D01*
X1223652Y18957848D01*
X1278420Y19045934D01*
X1330044Y19129410D01*
X1362382Y19163500D01*
X1448682Y19212600D01*
X1550380Y19233283D01*
X1571454Y19233842D01*
X1676314Y19221220D01*
X1769947Y19190769D01*
X1839632Y19155685D01*
X1926379Y19099722D01*
X2012911Y19045155D01*
X2102449Y19003969D01*
X2121000Y18998392D01*
X2176199Y18990088D01*
X2210881Y19026236D01*
X2184027Y19124571D01*
X2168872Y19174736D01*
X2232778Y19251788D01*
X2260218Y19256313D01*
X2344878Y19202941D01*
X2347657Y19195252D01*
X2377732Y19097123D01*
X2387713Y19019397D01*
X2361974Y18921369D01*
X2293999Y18848599D01*
X2197653Y18814326D01*
X2176199Y18813256D01*
X2071091Y18829277D01*
X1969875Y18869982D01*
X1873880Y18924333D01*
X1784433Y18981295D01*
X1696447Y19028118D01*
X1602430Y19055340D01*
X1574873Y19057011D01*
X1542633Y19054080D01*
X1456348Y18995215D01*
X1403652Y18901631D01*
X1341324Y18821408D01*
X1322326Y18807394D01*
X1227605Y18778103D01*
X1204601Y18777108D01*
G37*
G36*
X350728Y18675992D02*
G01*
X248512Y18684296D01*
X152891Y18707255D01*
X59048Y18739449D01*
X-32184Y18778696D01*
X-121126Y18822522D01*
X-208100Y18868455D01*
X-298250Y18916494D01*
X-388860Y18961974D01*
X-481372Y19000231D01*
X-577228Y19026602D01*
X-634059Y19034540D01*
X-714568Y19090113D01*
X-723452Y19125399D01*
X-668397Y19207839D01*
X-640410Y19214303D01*
X-631128Y19214303D01*
X-520564Y19194672D01*
X-415543Y19162274D01*
X-314668Y19120439D01*
X-216540Y19072499D01*
X-119764Y19021787D01*
X-22940Y18971633D01*
X16115Y18952475D01*
X108622Y18911439D01*
X203169Y18878551D01*
X247657Y18866501D01*
X345594Y18853374D01*
X350728Y18853312D01*
X450850Y18879489D01*
X494715Y18970520D01*
X494831Y18977387D01*
X494831Y18994484D01*
X477153Y19094510D01*
X428259Y19180632D01*
X406904Y19204045D01*
X373198Y19225050D01*
X368313Y19233354D01*
X380526Y19214791D01*
X317989Y19137201D01*
X289179Y19132726D01*
X205115Y19185534D01*
X201740Y19193298D01*
X192459Y19243612D01*
X228059Y19335189D01*
X312397Y19392608D01*
X379060Y19404812D01*
X424978Y19398462D01*
X510764Y19351289D01*
X547099Y19318839D01*
X606038Y19236492D01*
X647320Y19144234D01*
X669604Y19046180D01*
X671663Y19026236D01*
X674594Y18983738D01*
X660194Y18885223D01*
X615449Y18794076D01*
X567616Y18743891D01*
X477979Y18695582D01*
X378981Y18676866D01*
X350728Y18675992D01*
G37*
G04 #@! TO.C,REF\u002A\u002A*
D11*
X4637500Y1025000D02*
G75*
G02*
X4512500Y1025000I-62500J0D01*
G01*
X4512500Y1025000D02*
G75*
G02*
X4637500Y1025000I62500J0D01*
G01*
D12*
X9000000Y1000000D02*
X4800000Y1000000D01*
X4800000Y3950000D01*
X9000000Y3950000D01*
X9000000Y1000000D01*
G04 #@! TD*
%LPC*%
%LPD*%
M02*
