%TF.GenerationSoftware,KiCad,Pcbnew,(7.0.0-0)*%
%TF.CreationDate,2024-02-07T16:44:55+08:00*%
%TF.ProjectId,SWDProgrammer,53574450-726f-4677-9261-6d6d65722e6b,rev?*%
%TF.SameCoordinates,Original*%
%TF.FileFunction,Drillmap*%
%TF.FilePolarity,Positive*%
%FSLAX45Y45*%
G04 Gerber Fmt 4.5, Leading zero omitted, Abs format (unit mm)*
G04 Created by KiCad (PCBNEW (7.0.0-0)) date 2024-02-07 16:44:55*
%MOMM*%
%LPD*%
G01*
G04 APERTURE LIST*
%ADD10C,0.100000*%
%ADD11C,0.010000*%
%ADD12C,0.150000*%
%ADD13C,0.200000*%
G04 APERTURE END LIST*
D10*
X14991280Y-5266442D02*
X15117694Y-6162457D01*
X14523280Y-7483485D02*
X15002475Y-6716741D01*
D11*
X13564998Y-6817501D02*
X14703600Y-7909169D01*
D10*
X15700666Y-6080020D02*
X15117694Y-6162457D01*
D11*
X13247500Y-6315001D02*
X13247500Y-6047501D01*
X13724998Y-6625001D02*
X13724998Y-6315001D01*
D10*
X15700000Y-6100000D02*
G75*
G03*
X15700666Y-6080020I-2696880J99900D01*
G01*
D11*
X15576363Y-5186151D02*
G75*
G03*
X15528426Y-5047604I-2576513J-813899D01*
G01*
X15528424Y-5047605D02*
G75*
G03*
X15323444Y-4949376I-158984J-68775D01*
G01*
D12*
X13564998Y-6817501D02*
X13564998Y-6625001D01*
D11*
X13724998Y-6047501D02*
X13724998Y-5742501D01*
X14703602Y-7909166D02*
G75*
G03*
X14917856Y-7903124I103938J116106D01*
G01*
D12*
X13564998Y-6625001D02*
X13724998Y-6625001D01*
D10*
X15002475Y-6716741D02*
X15500294Y-7023977D01*
D12*
X13984998Y-5742501D02*
X13724998Y-5742501D01*
D11*
X15576364Y-5186151D02*
X14991280Y-5266442D01*
X14917856Y-7903124D02*
G75*
G03*
X15022146Y-7791901I-1912726J1898004D01*
G01*
D10*
X15500294Y-7023977D02*
G75*
G03*
X15700000Y-6100000I-2500294J1023977D01*
G01*
D11*
X13773562Y-5338086D02*
X15323444Y-4949376D01*
D10*
X13984998Y-5742501D02*
G75*
G03*
X13773562Y-5338086I-984998J-257499D01*
G01*
D11*
X13247500Y-6047501D02*
X13724998Y-6047501D01*
X15022146Y-7791901D02*
X14523280Y-7483485D01*
X13247500Y-6315001D02*
X13724998Y-6315001D01*
D13*
X13494619Y-8242868D02*
X13494619Y-8042868D01*
X13494619Y-8042868D02*
X13542238Y-8042868D01*
X13542238Y-8042868D02*
X13570809Y-8052392D01*
X13570809Y-8052392D02*
X13589857Y-8071440D01*
X13589857Y-8071440D02*
X13599381Y-8090487D01*
X13599381Y-8090487D02*
X13608905Y-8128583D01*
X13608905Y-8128583D02*
X13608905Y-8157154D01*
X13608905Y-8157154D02*
X13599381Y-8195249D01*
X13599381Y-8195249D02*
X13589857Y-8214297D01*
X13589857Y-8214297D02*
X13570809Y-8233344D01*
X13570809Y-8233344D02*
X13542238Y-8242868D01*
X13542238Y-8242868D02*
X13494619Y-8242868D01*
X13694619Y-8242868D02*
X13694619Y-8109535D01*
X13694619Y-8147630D02*
X13704143Y-8128583D01*
X13704143Y-8128583D02*
X13713666Y-8119059D01*
X13713666Y-8119059D02*
X13732714Y-8109535D01*
X13732714Y-8109535D02*
X13751762Y-8109535D01*
X13818428Y-8242868D02*
X13818428Y-8109535D01*
X13818428Y-8042868D02*
X13808905Y-8052392D01*
X13808905Y-8052392D02*
X13818428Y-8061916D01*
X13818428Y-8061916D02*
X13827952Y-8052392D01*
X13827952Y-8052392D02*
X13818428Y-8042868D01*
X13818428Y-8042868D02*
X13818428Y-8061916D01*
X13942238Y-8242868D02*
X13923190Y-8233344D01*
X13923190Y-8233344D02*
X13913666Y-8214297D01*
X13913666Y-8214297D02*
X13913666Y-8042868D01*
X14047000Y-8242868D02*
X14027952Y-8233344D01*
X14027952Y-8233344D02*
X14018428Y-8214297D01*
X14018428Y-8214297D02*
X14018428Y-8042868D01*
X14243190Y-8242868D02*
X14243190Y-8042868D01*
X14243190Y-8042868D02*
X14309857Y-8185725D01*
X14309857Y-8185725D02*
X14376524Y-8042868D01*
X14376524Y-8042868D02*
X14376524Y-8242868D01*
X14557476Y-8242868D02*
X14557476Y-8138106D01*
X14557476Y-8138106D02*
X14547952Y-8119059D01*
X14547952Y-8119059D02*
X14528905Y-8109535D01*
X14528905Y-8109535D02*
X14490809Y-8109535D01*
X14490809Y-8109535D02*
X14471762Y-8119059D01*
X14557476Y-8233344D02*
X14538428Y-8242868D01*
X14538428Y-8242868D02*
X14490809Y-8242868D01*
X14490809Y-8242868D02*
X14471762Y-8233344D01*
X14471762Y-8233344D02*
X14462238Y-8214297D01*
X14462238Y-8214297D02*
X14462238Y-8195249D01*
X14462238Y-8195249D02*
X14471762Y-8176202D01*
X14471762Y-8176202D02*
X14490809Y-8166678D01*
X14490809Y-8166678D02*
X14538428Y-8166678D01*
X14538428Y-8166678D02*
X14557476Y-8157154D01*
X14652714Y-8109535D02*
X14652714Y-8309535D01*
X14652714Y-8119059D02*
X14671762Y-8109535D01*
X14671762Y-8109535D02*
X14709857Y-8109535D01*
X14709857Y-8109535D02*
X14728905Y-8119059D01*
X14728905Y-8119059D02*
X14738428Y-8128583D01*
X14738428Y-8128583D02*
X14747952Y-8147630D01*
X14747952Y-8147630D02*
X14747952Y-8204773D01*
X14747952Y-8204773D02*
X14738428Y-8223821D01*
X14738428Y-8223821D02*
X14728905Y-8233344D01*
X14728905Y-8233344D02*
X14709857Y-8242868D01*
X14709857Y-8242868D02*
X14671762Y-8242868D01*
X14671762Y-8242868D02*
X14652714Y-8233344D01*
X14833666Y-8223821D02*
X14843190Y-8233344D01*
X14843190Y-8233344D02*
X14833666Y-8242868D01*
X14833666Y-8242868D02*
X14824143Y-8233344D01*
X14824143Y-8233344D02*
X14833666Y-8223821D01*
X14833666Y-8223821D02*
X14833666Y-8242868D01*
X14833666Y-8119059D02*
X14843190Y-8128583D01*
X14843190Y-8128583D02*
X14833666Y-8138106D01*
X14833666Y-8138106D02*
X14824143Y-8128583D01*
X14824143Y-8128583D02*
X14833666Y-8119059D01*
X14833666Y-8119059D02*
X14833666Y-8138106D01*
M02*
