G04 #@! TF.GenerationSoftware,KiCad,Pcbnew,(7.0.0-0)*
G04 #@! TF.CreationDate,2024-02-07T16:44:52+08:00*
G04 #@! TF.ProjectId,SWDProgrammer,53574450-726f-4677-9261-6d6d65722e6b,rev?*
G04 #@! TF.SameCoordinates,Original*
G04 #@! TF.FileFunction,Profile,NP*
%FSLAX46Y46*%
G04 Gerber Fmt 4.6, Leading zero omitted, Abs format (unit mm)*
G04 Created by KiCad (PCBNEW (7.0.0-0)) date 2024-02-07 16:44:52*
%MOMM*%
%LPD*%
G01*
G04 APERTURE LIST*
G04 #@! TA.AperFunction,Profile*
%ADD10C,0.100000*%
G04 #@! TD*
G04 #@! TA.AperFunction,Profile*
%ADD11C,0.010000*%
G04 #@! TD*
G04 #@! TA.AperFunction,Profile*
%ADD12C,0.150000*%
G04 #@! TD*
G04 APERTURE END LIST*
D10*
X149912796Y-52664420D02*
X151176938Y-61624566D01*
X145232796Y-74834851D02*
X150024750Y-67167412D01*
D11*
X135649985Y-68175008D02*
X147035997Y-79091691D01*
D10*
X157006660Y-60800197D02*
X151176938Y-61624566D01*
D11*
X132474999Y-63150008D02*
X132475000Y-60475008D01*
X137249985Y-66250008D02*
X137249984Y-63150008D01*
D10*
X156999999Y-61000000D02*
G75*
G03*
X157006660Y-60800197I-26968799J999000D01*
G01*
D11*
X155763634Y-51861510D02*
G75*
G03*
X155284265Y-50476036I-25765134J-8138990D01*
G01*
X155284243Y-50476046D02*
G75*
G03*
X153234441Y-49493757I-1589843J-687754D01*
G01*
D12*
X135649985Y-68175008D02*
X135649985Y-66250008D01*
D11*
X137249985Y-60475008D02*
X137249985Y-57425008D01*
X147036023Y-79091661D02*
G75*
G03*
X149178561Y-79031238I1039377J1161061D01*
G01*
D12*
X135649985Y-66250008D02*
X137249985Y-66250008D01*
D10*
X150024750Y-67167412D02*
X155002941Y-70239773D01*
D12*
X139849984Y-57425008D02*
X137249985Y-57425008D01*
D11*
X155763636Y-51861509D02*
X149912796Y-52664420D01*
X149178561Y-79031238D02*
G75*
G03*
X150221459Y-77919010I-19127261J18980038D01*
G01*
D10*
X155002941Y-70239773D02*
G75*
G03*
X157000000Y-61000000I-25002941J10239773D01*
G01*
D11*
X137735616Y-53380860D02*
X153234441Y-49493756D01*
D10*
X139849984Y-57425008D02*
G75*
G03*
X137735616Y-53380860I-9849984J-2574992D01*
G01*
D11*
X132475000Y-60475008D02*
X137249985Y-60475008D01*
X150221459Y-77919010D02*
X145232796Y-74834851D01*
X132474999Y-63150008D02*
X137249984Y-63150008D01*
M02*
