%TF.GenerationSoftware,KiCad,Pcbnew,(7.0.0-0)*%
%TF.CreationDate,2024-01-01T11:20:27+08:00*%
%TF.ProjectId,Revolute,5265766f-6c75-4746-952e-6b696361645f,rev?*%
%TF.SameCoordinates,Original*%
%TF.FileFunction,Drillmap*%
%TF.FilePolarity,Positive*%
%FSLAX45Y45*%
G04 Gerber Fmt 4.5, Leading zero omitted, Abs format (unit mm)*
G04 Created by KiCad (PCBNEW (7.0.0-0)) date 2024-01-01 11:20:27*
%MOMM*%
%LPD*%
G01*
G04 APERTURE LIST*
%ADD10C,0.050000*%
%ADD11C,0.200000*%
G04 APERTURE END LIST*
D10*
X18048683Y-9816228D02*
X18015361Y-9814509D01*
X18076187Y-9283070D02*
G75*
G03*
X18048683Y-9816228I-976187J-216931D01*
G01*
X18042865Y-9281351D02*
X18015361Y-9814509D01*
X18076187Y-9283070D02*
X18042865Y-9281351D01*
D11*
X16345119Y-10795976D02*
X16345119Y-10595976D01*
X16345119Y-10595976D02*
X16392738Y-10595976D01*
X16392738Y-10595976D02*
X16421309Y-10605500D01*
X16421309Y-10605500D02*
X16440357Y-10624548D01*
X16440357Y-10624548D02*
X16449881Y-10643595D01*
X16449881Y-10643595D02*
X16459405Y-10681690D01*
X16459405Y-10681690D02*
X16459405Y-10710262D01*
X16459405Y-10710262D02*
X16449881Y-10748357D01*
X16449881Y-10748357D02*
X16440357Y-10767405D01*
X16440357Y-10767405D02*
X16421309Y-10786452D01*
X16421309Y-10786452D02*
X16392738Y-10795976D01*
X16392738Y-10795976D02*
X16345119Y-10795976D01*
X16545119Y-10795976D02*
X16545119Y-10662643D01*
X16545119Y-10700738D02*
X16554643Y-10681690D01*
X16554643Y-10681690D02*
X16564167Y-10672167D01*
X16564167Y-10672167D02*
X16583214Y-10662643D01*
X16583214Y-10662643D02*
X16602262Y-10662643D01*
X16668928Y-10795976D02*
X16668928Y-10662643D01*
X16668928Y-10595976D02*
X16659405Y-10605500D01*
X16659405Y-10605500D02*
X16668928Y-10615024D01*
X16668928Y-10615024D02*
X16678452Y-10605500D01*
X16678452Y-10605500D02*
X16668928Y-10595976D01*
X16668928Y-10595976D02*
X16668928Y-10615024D01*
X16792738Y-10795976D02*
X16773690Y-10786452D01*
X16773690Y-10786452D02*
X16764167Y-10767405D01*
X16764167Y-10767405D02*
X16764167Y-10595976D01*
X16897500Y-10795976D02*
X16878452Y-10786452D01*
X16878452Y-10786452D02*
X16868929Y-10767405D01*
X16868929Y-10767405D02*
X16868929Y-10595976D01*
X17093690Y-10795976D02*
X17093690Y-10595976D01*
X17093690Y-10595976D02*
X17160357Y-10738833D01*
X17160357Y-10738833D02*
X17227024Y-10595976D01*
X17227024Y-10595976D02*
X17227024Y-10795976D01*
X17407976Y-10795976D02*
X17407976Y-10691214D01*
X17407976Y-10691214D02*
X17398452Y-10672167D01*
X17398452Y-10672167D02*
X17379405Y-10662643D01*
X17379405Y-10662643D02*
X17341309Y-10662643D01*
X17341309Y-10662643D02*
X17322262Y-10672167D01*
X17407976Y-10786452D02*
X17388929Y-10795976D01*
X17388929Y-10795976D02*
X17341309Y-10795976D01*
X17341309Y-10795976D02*
X17322262Y-10786452D01*
X17322262Y-10786452D02*
X17312738Y-10767405D01*
X17312738Y-10767405D02*
X17312738Y-10748357D01*
X17312738Y-10748357D02*
X17322262Y-10729310D01*
X17322262Y-10729310D02*
X17341309Y-10719786D01*
X17341309Y-10719786D02*
X17388929Y-10719786D01*
X17388929Y-10719786D02*
X17407976Y-10710262D01*
X17503214Y-10662643D02*
X17503214Y-10862643D01*
X17503214Y-10672167D02*
X17522262Y-10662643D01*
X17522262Y-10662643D02*
X17560357Y-10662643D01*
X17560357Y-10662643D02*
X17579405Y-10672167D01*
X17579405Y-10672167D02*
X17588929Y-10681690D01*
X17588929Y-10681690D02*
X17598452Y-10700738D01*
X17598452Y-10700738D02*
X17598452Y-10757881D01*
X17598452Y-10757881D02*
X17588929Y-10776929D01*
X17588929Y-10776929D02*
X17579405Y-10786452D01*
X17579405Y-10786452D02*
X17560357Y-10795976D01*
X17560357Y-10795976D02*
X17522262Y-10795976D01*
X17522262Y-10795976D02*
X17503214Y-10786452D01*
X17684167Y-10776929D02*
X17693690Y-10786452D01*
X17693690Y-10786452D02*
X17684167Y-10795976D01*
X17684167Y-10795976D02*
X17674643Y-10786452D01*
X17674643Y-10786452D02*
X17684167Y-10776929D01*
X17684167Y-10776929D02*
X17684167Y-10795976D01*
X17684167Y-10672167D02*
X17693690Y-10681690D01*
X17693690Y-10681690D02*
X17684167Y-10691214D01*
X17684167Y-10691214D02*
X17674643Y-10681690D01*
X17674643Y-10681690D02*
X17684167Y-10672167D01*
X17684167Y-10672167D02*
X17684167Y-10691214D01*
M02*
