G04 #@! TF.GenerationSoftware,KiCad,Pcbnew,(7.0.0-0)*
G04 #@! TF.CreationDate,2024-01-26T00:14:48+08:00*
G04 #@! TF.ProjectId,Revolute,5265766f-6c75-4746-952e-6b696361645f,rev?*
G04 #@! TF.SameCoordinates,Original*
G04 #@! TF.FileFunction,Copper,L1,Top*
G04 #@! TF.FilePolarity,Positive*
%FSLAX46Y46*%
G04 Gerber Fmt 4.6, Leading zero omitted, Abs format (unit mm)*
G04 Created by KiCad (PCBNEW (7.0.0-0)) date 2024-01-26 00:14:48*
%MOMM*%
%LPD*%
G01*
G04 APERTURE LIST*
G04 Aperture macros list*
%AMFreePoly0*
4,1,39,0.368228,1.454100,0.602543,1.373660,0.820422,1.255750,1.015922,1.103586,1.183711,0.921319,1.319211,0.713921,1.418726,0.487049,1.479542,0.246892,1.500000,0.000000,1.479542,-0.246892,1.418726,-0.487049,1.319211,-0.713921,1.183711,-0.921319,1.015922,-1.103586,0.820422,-1.255750,0.602543,-1.373660,0.368228,-1.454100,0.123869,-1.494877,-0.123869,-1.494877,-0.368228,-1.454100,
-0.602543,-1.373660,-0.820422,-1.255750,-1.015922,-1.103586,-1.183711,-0.921319,-1.319211,-0.713921,-1.418726,-0.487049,-1.479542,-0.246892,-1.500000,0.000000,-1.479542,0.246892,-1.418726,0.487049,-1.319211,0.713921,-1.183711,0.921319,-1.015922,1.103586,-0.820422,1.255750,-0.602543,1.373660,-0.368228,1.454100,-0.123869,1.494877,0.123869,1.494877,0.368228,1.454100,0.368228,1.454100,
$1*%
G04 Aperture macros list end*
G04 #@! TA.AperFunction,NonConductor*
%ADD10C,0.800000*%
G04 #@! TD*
G04 #@! TA.AperFunction,SMDPad,CuDef*
%ADD11FreePoly0,0.000000*%
G04 #@! TD*
G04 #@! TA.AperFunction,ComponentPad*
%ADD12C,0.600000*%
G04 #@! TD*
G04 #@! TA.AperFunction,SMDPad,CuDef*
%ADD13R,1.950000X2.600000*%
G04 #@! TD*
G04 #@! TA.AperFunction,ViaPad*
%ADD14C,0.450000*%
G04 #@! TD*
G04 #@! TA.AperFunction,ViaPad*
%ADD15C,0.800000*%
G04 #@! TD*
G04 #@! TA.AperFunction,Conductor*
%ADD16C,0.400000*%
G04 #@! TD*
G04 APERTURE END LIST*
D10*
X180600000Y-95000000D02*
G75*
G03*
X180600000Y-95000000I-9600000J0D01*
G01*
D11*
X171000000Y-95000000D03*
D12*
X174775000Y-93425000D03*
X175775000Y-93425000D03*
X174775000Y-92525000D03*
D13*
X175274999Y-92524999D03*
D12*
X175775000Y-92525000D03*
X174775000Y-91625000D03*
X175775000Y-91625000D03*
D14*
X164859812Y-98140188D03*
X176974773Y-102514392D03*
X175075000Y-101800000D03*
X180150000Y-92200000D03*
X162760000Y-98180000D03*
X173070000Y-101600000D03*
X162442836Y-90461363D03*
X169700000Y-98550000D03*
X164930000Y-100200000D03*
X169650000Y-89820000D03*
X179911016Y-98562057D03*
X174794755Y-103788534D03*
X165190000Y-91647017D03*
X173847847Y-104118323D03*
X179003299Y-100302672D03*
X171197360Y-104516761D03*
X166164828Y-88520000D03*
X177728879Y-101845893D03*
X167764828Y-90914500D03*
X165820000Y-101120000D03*
X174200000Y-87125000D03*
X161630000Y-97120000D03*
X177250000Y-96700000D03*
D15*
X175750000Y-88100000D03*
D14*
X165485188Y-93614812D03*
X179505160Y-99451662D03*
X171570000Y-99170000D03*
X174075000Y-99550000D03*
X164930000Y-101090000D03*
X163698572Y-98148521D03*
X170350000Y-92300000D03*
X167850000Y-97200000D03*
X166950000Y-91750000D03*
X162600000Y-92350000D03*
D15*
X178450000Y-90750000D03*
D14*
X171875000Y-102050000D03*
X175325000Y-96725000D03*
X163250000Y-97400000D03*
X163199979Y-92750054D03*
X173725000Y-95150000D03*
X173206347Y-95424500D03*
X162600000Y-93450000D03*
X168700000Y-94050000D03*
X174800000Y-99600000D03*
X167550000Y-100400000D03*
X171000000Y-100100000D03*
X169480000Y-103070000D03*
X173300000Y-90975000D03*
X174675000Y-95050000D03*
X176850000Y-89775000D03*
X171725000Y-90150000D03*
X173650000Y-94525000D03*
X178000000Y-93050000D03*
X179300000Y-93050000D03*
X162350000Y-95600000D03*
X170825000Y-97500000D03*
X175775000Y-95250000D03*
X162600000Y-95050000D03*
X176400000Y-95275000D03*
X171625000Y-97075000D03*
X179050000Y-98650000D03*
X162600000Y-94450000D03*
X176050500Y-96875000D03*
X168700000Y-90780000D03*
X168550000Y-94600000D03*
X165695578Y-92150000D03*
X165850000Y-91550000D03*
X169650000Y-90780000D03*
X174362500Y-98612500D03*
X162800000Y-96000000D03*
X162320999Y-96348941D03*
X176550000Y-98450000D03*
D16*
X168675050Y-94033479D02*
X168683479Y-94033479D01*
X168683479Y-94033479D02*
X168725000Y-94075000D01*
X168725000Y-94075000D02*
X170075000Y-94075000D01*
X170075000Y-94075000D02*
X171000000Y-95000000D01*
M02*
