G04 #@! TF.GenerationSoftware,KiCad,Pcbnew,(7.0.0-0)*
G04 #@! TF.CreationDate,2024-02-23T22:29:39+08:00*
G04 #@! TF.ProjectId,Revolute,5265766f-6c75-4746-952e-6b696361645f,rev?*
G04 #@! TF.SameCoordinates,Original*
G04 #@! TF.FileFunction,Copper,L2,Inr*
G04 #@! TF.FilePolarity,Positive*
%FSLAX46Y46*%
G04 Gerber Fmt 4.6, Leading zero omitted, Abs format (unit mm)*
G04 Created by KiCad (PCBNEW (7.0.0-0)) date 2024-02-23 22:29:39*
%MOMM*%
%LPD*%
G01*
G04 APERTURE LIST*
G04 #@! TA.AperFunction,ViaPad*
%ADD10C,0.450000*%
G04 #@! TD*
G04 #@! TA.AperFunction,ViaPad*
%ADD11C,0.800000*%
G04 #@! TD*
G04 #@! TA.AperFunction,Conductor*
%ADD12C,0.100000*%
G04 #@! TD*
G04 #@! TA.AperFunction,Conductor*
%ADD13C,0.300000*%
G04 #@! TD*
G04 #@! TA.AperFunction,Conductor*
%ADD14C,0.200000*%
G04 #@! TD*
G04 APERTURE END LIST*
D10*
X164860188Y-98320188D03*
X176974773Y-102514392D03*
X175075000Y-101800000D03*
X180150000Y-92200000D03*
X162530000Y-98190000D03*
X162170000Y-97260000D03*
X173070000Y-101600000D03*
X163002637Y-90024235D03*
X169700000Y-98550000D03*
X164930000Y-100200000D03*
X169450000Y-90200000D03*
X179911016Y-98562057D03*
X174794755Y-103788534D03*
X165190000Y-91647017D03*
X173847847Y-104118323D03*
X179003299Y-100302672D03*
X171197360Y-104516761D03*
X166164828Y-88520000D03*
X177728879Y-101845893D03*
X167764828Y-90914500D03*
X165820000Y-101120000D03*
X173042312Y-91762312D03*
X177280000Y-96930000D03*
D11*
X175240000Y-88600000D03*
D10*
X165485188Y-93614812D03*
X179505160Y-99451662D03*
X171570000Y-99170000D03*
X174075000Y-99550000D03*
X165257553Y-100780442D03*
X163705500Y-94005610D03*
X163490000Y-98190000D03*
X170350000Y-92300000D03*
X167829500Y-97390877D03*
X166950000Y-91750000D03*
D11*
X177770000Y-91230000D03*
D10*
X171875000Y-102050000D03*
X175325000Y-96725000D03*
X163250000Y-97400000D03*
X163199979Y-92750054D03*
X173725000Y-95150000D03*
X173206347Y-95424500D03*
X163893472Y-93316129D03*
X174800000Y-99600000D03*
X167550000Y-100400000D03*
X171000000Y-100100000D03*
X169480000Y-103044502D03*
X173300000Y-90975000D03*
X174675000Y-95050000D03*
X176850000Y-89775000D03*
X173650000Y-94525000D03*
X178000000Y-93050000D03*
X171875000Y-90100000D03*
X178570000Y-93050000D03*
X170825000Y-97500000D03*
X175775000Y-95250000D03*
X163705500Y-95634390D03*
X162878125Y-95220000D03*
X176400000Y-95275000D03*
X171625000Y-97075000D03*
X177782947Y-98050500D03*
X163705500Y-94834390D03*
X175831146Y-96938938D03*
X163521115Y-92010576D03*
X169075498Y-94270000D03*
X165695578Y-92150000D03*
X165850000Y-91550000D03*
X168795000Y-90825000D03*
X167283750Y-96707446D03*
X169095000Y-97637500D03*
X171520000Y-92810000D03*
X164990000Y-97753518D03*
X168620000Y-93750000D03*
X167478125Y-94420000D03*
X168531500Y-94347580D03*
X163689290Y-96424268D03*
X174202934Y-98520019D03*
X176550000Y-98450000D03*
X162878125Y-96020000D03*
X168476199Y-94932946D03*
D12*
X174075000Y-99550000D02*
X173695000Y-99170000D01*
X173695000Y-99170000D02*
X171570000Y-99170000D01*
D13*
X175300000Y-96700000D02*
X175325000Y-96725000D01*
X163965000Y-97993248D02*
X163965000Y-98445000D01*
X163371752Y-97400000D02*
X163965000Y-97993248D01*
X175300000Y-94775000D02*
X175300000Y-96700000D01*
X179860000Y-93615000D02*
X179075000Y-94400000D01*
X179860000Y-92581752D02*
X179860000Y-93615000D01*
X178508248Y-91230000D02*
X179860000Y-92581752D01*
X177770000Y-91230000D02*
X178508248Y-91230000D01*
X179075000Y-94400000D02*
X175675000Y-94400000D01*
X175675000Y-94400000D02*
X175300000Y-94775000D01*
X163250000Y-97400000D02*
X163371752Y-97400000D01*
X163965000Y-98445000D02*
X167570000Y-102050000D01*
X167570000Y-102050000D02*
X171875000Y-102050000D01*
D12*
X173725000Y-95150000D02*
X173615000Y-95260000D01*
X166197674Y-95090000D02*
X163867674Y-92760000D01*
X173051016Y-95049500D02*
X172530516Y-95570000D01*
X163867674Y-92760000D02*
X163230000Y-92760000D01*
X173615000Y-95260000D02*
X173572178Y-95260000D01*
X172530516Y-95570000D02*
X168570000Y-95570000D01*
X168570000Y-95570000D02*
X168090000Y-95090000D01*
X173361678Y-95049500D02*
X173051016Y-95049500D01*
X173572178Y-95260000D02*
X173361678Y-95049500D01*
X168090000Y-95090000D02*
X166197674Y-95090000D01*
X168007158Y-95290000D02*
X168727158Y-96010000D01*
X164140961Y-93316129D02*
X166114832Y-95290000D01*
X163893472Y-93316129D02*
X164140961Y-93316129D01*
X166114832Y-95290000D02*
X168007158Y-95290000D01*
X168727158Y-96010000D02*
X172620847Y-96010000D01*
X172620847Y-96010000D02*
X173206347Y-95424500D01*
D14*
X177050000Y-94000000D02*
X175484718Y-94000000D01*
X178570000Y-93050000D02*
X178000000Y-93050000D01*
X178000000Y-93050000D02*
X177050000Y-94000000D01*
X175484718Y-94000000D02*
X174959718Y-94525000D01*
X174959718Y-94525000D02*
X173650000Y-94525000D01*
D12*
X168679980Y-96862500D02*
X169453184Y-96862500D01*
X176875000Y-97345000D02*
X176470000Y-97750000D01*
X176625000Y-94850000D02*
X176875000Y-95100000D01*
X175775000Y-95250000D02*
X176175000Y-94850000D01*
X163962842Y-95890000D02*
X167707480Y-95890000D01*
X169453184Y-96862500D02*
X170090684Y-97500000D01*
X167707480Y-95890000D02*
X168679980Y-96862500D01*
X176470000Y-97750000D02*
X171075000Y-97750000D01*
X171075000Y-97750000D02*
X170825000Y-97500000D01*
X170090684Y-97500000D02*
X170825000Y-97500000D01*
X176875000Y-95100000D02*
X176875000Y-97345000D01*
X163705500Y-95634390D02*
X163707232Y-95634390D01*
X176175000Y-94850000D02*
X176625000Y-94850000D01*
X163707232Y-95634390D02*
X163962842Y-95890000D01*
X164747158Y-95220000D02*
X165217158Y-95690000D01*
X165217158Y-95690000D02*
X167790322Y-95690000D01*
X169536026Y-96662500D02*
X169948526Y-97075000D01*
X162878125Y-95220000D02*
X164747158Y-95220000D01*
X176400000Y-95275000D02*
X176425000Y-95300000D01*
X172050000Y-97500000D02*
X171625000Y-97075000D01*
X169948526Y-97075000D02*
X171625000Y-97075000D01*
X167790322Y-95690000D02*
X168762822Y-96662500D01*
X176425000Y-95300000D02*
X176425000Y-97285000D01*
X168762822Y-96662500D02*
X169536026Y-96662500D01*
X176425000Y-97285000D02*
X176210000Y-97500000D01*
X176210000Y-97500000D02*
X172050000Y-97500000D01*
X164644390Y-94834390D02*
X163705500Y-94834390D01*
X169618868Y-96462500D02*
X168896816Y-96462500D01*
X168896816Y-96462500D02*
X167924316Y-95490000D01*
X169856368Y-96700000D02*
X169618868Y-96462500D01*
X172630000Y-97200000D02*
X172130000Y-96700000D01*
X165300000Y-95490000D02*
X164644390Y-94834390D01*
X167924316Y-95490000D02*
X165300000Y-95490000D01*
X175570084Y-97200000D02*
X172630000Y-97200000D01*
X172130000Y-96700000D02*
X169856368Y-96700000D01*
X175831146Y-96938938D02*
X175570084Y-97200000D01*
X163660539Y-92150000D02*
X165695578Y-92150000D01*
X169075498Y-94270000D02*
X169075498Y-93165498D01*
X168690000Y-92780000D02*
X166325578Y-92780000D01*
X169075498Y-93165498D02*
X168690000Y-92780000D01*
X166325578Y-92780000D02*
X165695578Y-92150000D01*
X163521115Y-92010576D02*
X163660539Y-92150000D01*
X167180000Y-90270000D02*
X165880000Y-91570000D01*
X168795000Y-90825000D02*
X168240000Y-90270000D01*
X168240000Y-90270000D02*
X167180000Y-90270000D01*
X168920000Y-97462500D02*
X168431453Y-97462500D01*
X167676400Y-96707446D02*
X167283750Y-96707446D01*
X168431453Y-97462500D02*
X167676400Y-96707446D01*
X169095000Y-97637500D02*
X168920000Y-97462500D01*
X174202934Y-98520019D02*
X173982915Y-98300000D01*
X163823558Y-96290000D02*
X163689290Y-96424268D01*
X169250331Y-97262500D02*
X168514296Y-97262500D01*
X168514296Y-97262500D02*
X167541796Y-96290000D01*
X170287831Y-98300000D02*
X169250331Y-97262500D01*
X167541796Y-96290000D02*
X163823558Y-96290000D01*
X173982915Y-98300000D02*
X170287831Y-98300000D01*
X167624638Y-96090000D02*
X168597138Y-97062500D01*
X163880000Y-96090000D02*
X167624638Y-96090000D01*
X163810000Y-96020000D02*
X163880000Y-96090000D01*
X176150000Y-98050000D02*
X176550000Y-98450000D01*
X162878125Y-96020000D02*
X163810000Y-96020000D01*
X168597138Y-97062500D02*
X169333173Y-97062500D01*
X170320673Y-98050000D02*
X176150000Y-98050000D01*
X169333173Y-97062500D02*
X170320673Y-98050000D01*
G04 #@! TA.AperFunction,Conductor*
G36*
X167475373Y-85811438D02*
G01*
X167515495Y-85856019D01*
X167530000Y-85914216D01*
X167530000Y-88420000D01*
X174513674Y-88420000D01*
X174530000Y-88420000D01*
X174530000Y-85937956D01*
X174544369Y-85880016D01*
X174584146Y-85835504D01*
X174640113Y-85814736D01*
X174699298Y-85822526D01*
X174901657Y-85901937D01*
X174908847Y-85905024D01*
X175467654Y-86166103D01*
X175474634Y-86169636D01*
X176015891Y-86465451D01*
X176022610Y-86469404D01*
X176333119Y-86665502D01*
X176544139Y-86798769D01*
X176550619Y-86803154D01*
X177050304Y-87164728D01*
X177056495Y-87169512D01*
X177532404Y-87561898D01*
X177538280Y-87567063D01*
X177647301Y-87669158D01*
X177988493Y-87988677D01*
X177994012Y-87994182D01*
X178109900Y-88117319D01*
X178416752Y-88443366D01*
X178421931Y-88449230D01*
X178815477Y-88924147D01*
X178820277Y-88930326D01*
X179183092Y-89429123D01*
X179187493Y-89435592D01*
X179518143Y-89956300D01*
X179522126Y-89963034D01*
X179819266Y-90503534D01*
X179822817Y-90510505D01*
X180085281Y-91068673D01*
X180088380Y-91075841D01*
X180315129Y-91649473D01*
X180317774Y-91656836D01*
X180507889Y-92243605D01*
X180510064Y-92251120D01*
X180589027Y-92560078D01*
X180589956Y-92617591D01*
X180564834Y-92669336D01*
X180519067Y-92704177D01*
X180462502Y-92714618D01*
X180417929Y-92712319D01*
X180417925Y-92712318D01*
X180417925Y-92712319D01*
X180410959Y-92711960D01*
X180401215Y-92711458D01*
X180393042Y-92716774D01*
X180389355Y-92718420D01*
X180389355Y-92718421D01*
X180380444Y-92722396D01*
X180371023Y-92724930D01*
X180364891Y-92732513D01*
X180357653Y-92739041D01*
X180357651Y-92739044D01*
X180354648Y-92741752D01*
X180346471Y-92747073D01*
X180345657Y-92749195D01*
X180297932Y-92775484D01*
X180241331Y-92777892D01*
X180189565Y-92754873D01*
X180153442Y-92711231D01*
X180140500Y-92656076D01*
X180140500Y-92629715D01*
X180140693Y-92626930D01*
X180142622Y-92621176D01*
X180140632Y-92578130D01*
X180140500Y-92572404D01*
X180140500Y-92561494D01*
X180140500Y-92555759D01*
X180139464Y-92550222D01*
X180139096Y-92544911D01*
X180138309Y-92527894D01*
X180137779Y-92516419D01*
X180133138Y-92505908D01*
X180131223Y-92497765D01*
X180128200Y-92489963D01*
X180126089Y-92478668D01*
X180113261Y-92457950D01*
X180105262Y-92442776D01*
X180095421Y-92420486D01*
X180087294Y-92412359D01*
X180082567Y-92405458D01*
X180076931Y-92399275D01*
X180070883Y-92389507D01*
X180061716Y-92382584D01*
X180061713Y-92382581D01*
X180051439Y-92374823D01*
X180038486Y-92363551D01*
X178740508Y-91065573D01*
X178738673Y-91063465D01*
X178735969Y-91058033D01*
X178704115Y-91028994D01*
X178699973Y-91025038D01*
X178692270Y-91017335D01*
X178688212Y-91013277D01*
X178683560Y-91010090D01*
X178679537Y-91006588D01*
X178678434Y-91005582D01*
X178658470Y-90987383D01*
X178647755Y-90983232D01*
X178640638Y-90978825D01*
X178632985Y-90975446D01*
X178623510Y-90968955D01*
X178612329Y-90966325D01*
X178612324Y-90966323D01*
X178599793Y-90963376D01*
X178583395Y-90958298D01*
X178571398Y-90953650D01*
X178571392Y-90953648D01*
X178560683Y-90949500D01*
X178549198Y-90949500D01*
X178540971Y-90947962D01*
X178532610Y-90947575D01*
X178521427Y-90944945D01*
X178510049Y-90946532D01*
X178510045Y-90946532D01*
X178497298Y-90948311D01*
X178480166Y-90949500D01*
X178284595Y-90949500D01*
X178229751Y-90936712D01*
X178186220Y-90900987D01*
X178148357Y-90851643D01*
X178113635Y-90825000D01*
X178043986Y-90771556D01*
X178037539Y-90766609D01*
X178030030Y-90763498D01*
X178030029Y-90763498D01*
X177915997Y-90716264D01*
X177915994Y-90716263D01*
X177908488Y-90713154D01*
X177900434Y-90712093D01*
X177900428Y-90712092D01*
X177778059Y-90695983D01*
X177770000Y-90694922D01*
X177761941Y-90695983D01*
X177639571Y-90712092D01*
X177639563Y-90712094D01*
X177631512Y-90713154D01*
X177624007Y-90716262D01*
X177624002Y-90716264D01*
X177509970Y-90763498D01*
X177509966Y-90763500D01*
X177502461Y-90766609D01*
X177496016Y-90771553D01*
X177496013Y-90771556D01*
X177398085Y-90846699D01*
X177398081Y-90846702D01*
X177391643Y-90851643D01*
X177386702Y-90858081D01*
X177386699Y-90858085D01*
X177311556Y-90956013D01*
X177311553Y-90956016D01*
X177306609Y-90962461D01*
X177303500Y-90969966D01*
X177303498Y-90969970D01*
X177256264Y-91084002D01*
X177256262Y-91084007D01*
X177253154Y-91091512D01*
X177252094Y-91099563D01*
X177252092Y-91099571D01*
X177239294Y-91196790D01*
X177234922Y-91230000D01*
X177235983Y-91238059D01*
X177252092Y-91360428D01*
X177252093Y-91360434D01*
X177253154Y-91368488D01*
X177256263Y-91375994D01*
X177256264Y-91375997D01*
X177303498Y-91490029D01*
X177306609Y-91497539D01*
X177311556Y-91503986D01*
X177386697Y-91601912D01*
X177391643Y-91608357D01*
X177502461Y-91693391D01*
X177631512Y-91746846D01*
X177770000Y-91765078D01*
X177908488Y-91746846D01*
X178037539Y-91693391D01*
X178148357Y-91608357D01*
X178186220Y-91559012D01*
X178229751Y-91523288D01*
X178284595Y-91510500D01*
X178340699Y-91510500D01*
X178388152Y-91519939D01*
X178428380Y-91546819D01*
X179543181Y-92661620D01*
X179570061Y-92701848D01*
X179579500Y-92749301D01*
X179579500Y-93447451D01*
X179570061Y-93494904D01*
X179543181Y-93535132D01*
X178995132Y-94083181D01*
X178954904Y-94110061D01*
X178907451Y-94119500D01*
X177555838Y-94119500D01*
X177499543Y-94105985D01*
X177455520Y-94068385D01*
X177433365Y-94014898D01*
X177437907Y-93957182D01*
X177468157Y-93907819D01*
X177931253Y-93444723D01*
X177971481Y-93417843D01*
X178000343Y-93412101D01*
X178000000Y-93409931D01*
X178111225Y-93392315D01*
X178211562Y-93341190D01*
X178215244Y-93337507D01*
X178259219Y-93317929D01*
X178310781Y-93317929D01*
X178354755Y-93337507D01*
X178358438Y-93341190D01*
X178458775Y-93392315D01*
X178570000Y-93409931D01*
X178681225Y-93392315D01*
X178781562Y-93341190D01*
X178861190Y-93261562D01*
X178912315Y-93161225D01*
X178929931Y-93050000D01*
X178912315Y-92938775D01*
X178861190Y-92838438D01*
X178781562Y-92758810D01*
X178758527Y-92747073D01*
X178689924Y-92712117D01*
X178689921Y-92712116D01*
X178681225Y-92707685D01*
X178671586Y-92706158D01*
X178671582Y-92706157D01*
X178579641Y-92691596D01*
X178570000Y-92690069D01*
X178560359Y-92691596D01*
X178468417Y-92706157D01*
X178468411Y-92706158D01*
X178458775Y-92707685D01*
X178450080Y-92712115D01*
X178450075Y-92712117D01*
X178367133Y-92754379D01*
X178367130Y-92754381D01*
X178358438Y-92758810D01*
X178354755Y-92762492D01*
X178310779Y-92782071D01*
X178259221Y-92782071D01*
X178215244Y-92762492D01*
X178211562Y-92758810D01*
X178188527Y-92747073D01*
X178119924Y-92712117D01*
X178119921Y-92712116D01*
X178111225Y-92707685D01*
X178101586Y-92706158D01*
X178101582Y-92706157D01*
X178009641Y-92691596D01*
X178000000Y-92690069D01*
X177990359Y-92691596D01*
X177898417Y-92706157D01*
X177898411Y-92706158D01*
X177888775Y-92707685D01*
X177880080Y-92712115D01*
X177880075Y-92712117D01*
X177797139Y-92754376D01*
X177797136Y-92754377D01*
X177788438Y-92758810D01*
X177781536Y-92765711D01*
X177781533Y-92765714D01*
X177715714Y-92831533D01*
X177715711Y-92831536D01*
X177708810Y-92838438D01*
X177704377Y-92847136D01*
X177704376Y-92847139D01*
X177662117Y-92930075D01*
X177662115Y-92930080D01*
X177657685Y-92938775D01*
X177656158Y-92948411D01*
X177656157Y-92948417D01*
X177640069Y-93050000D01*
X177637918Y-93049659D01*
X177632105Y-93078641D01*
X177605276Y-93118746D01*
X176990842Y-93733181D01*
X176950614Y-93760061D01*
X176903161Y-93769500D01*
X175494009Y-93769500D01*
X175487519Y-93769330D01*
X175460866Y-93767933D01*
X175447854Y-93767251D01*
X175435688Y-93771920D01*
X175435687Y-93771921D01*
X175428156Y-93774812D01*
X175409509Y-93780335D01*
X175401618Y-93782012D01*
X175401612Y-93782014D01*
X175388871Y-93784723D01*
X175378331Y-93792380D01*
X175373233Y-93794650D01*
X175368540Y-93797697D01*
X175356374Y-93802368D01*
X175347159Y-93811582D01*
X175347155Y-93811585D01*
X175341456Y-93817284D01*
X175326672Y-93829911D01*
X175320140Y-93834657D01*
X175320137Y-93834660D01*
X175309596Y-93842319D01*
X175303079Y-93853604D01*
X175294361Y-93863288D01*
X175294082Y-93863036D01*
X175288727Y-93870013D01*
X174900560Y-94258181D01*
X174860332Y-94285061D01*
X174812879Y-94294500D01*
X173973614Y-94294500D01*
X173926161Y-94285061D01*
X173885933Y-94258181D01*
X173868466Y-94240714D01*
X173861562Y-94233810D01*
X173828844Y-94217139D01*
X173769924Y-94187117D01*
X173769921Y-94187116D01*
X173761225Y-94182685D01*
X173751586Y-94181158D01*
X173751582Y-94181157D01*
X173659641Y-94166596D01*
X173650000Y-94165069D01*
X173640359Y-94166596D01*
X173548417Y-94181157D01*
X173548411Y-94181158D01*
X173538775Y-94182685D01*
X173530080Y-94187115D01*
X173530075Y-94187117D01*
X173447139Y-94229376D01*
X173447136Y-94229377D01*
X173438438Y-94233810D01*
X173431536Y-94240711D01*
X173431533Y-94240714D01*
X173365714Y-94306533D01*
X173365711Y-94306536D01*
X173358810Y-94313438D01*
X173354377Y-94322136D01*
X173354376Y-94322139D01*
X173312117Y-94405075D01*
X173312115Y-94405080D01*
X173307685Y-94413775D01*
X173306158Y-94423411D01*
X173306157Y-94423417D01*
X173295855Y-94488466D01*
X173290069Y-94525000D01*
X173291596Y-94534641D01*
X173306157Y-94626582D01*
X173306158Y-94626586D01*
X173307685Y-94636225D01*
X173334426Y-94688707D01*
X173347845Y-94749868D01*
X173329668Y-94809790D01*
X173284530Y-94853189D01*
X173223941Y-94869000D01*
X173078688Y-94869000D01*
X173056336Y-94866969D01*
X173054601Y-94866651D01*
X173039791Y-94863937D01*
X173025418Y-94868415D01*
X173025415Y-94868416D01*
X173006108Y-94874433D01*
X172998896Y-94876443D01*
X172975264Y-94882268D01*
X172975260Y-94882269D01*
X172964623Y-94884892D01*
X172960323Y-94888700D01*
X172954842Y-94890409D01*
X172947097Y-94898153D01*
X172947094Y-94898155D01*
X172929875Y-94915374D01*
X172924428Y-94920501D01*
X172898023Y-94943894D01*
X172897943Y-94943804D01*
X172894093Y-94947373D01*
X172895985Y-94949264D01*
X172895985Y-94949265D01*
X172684026Y-95161225D01*
X172492070Y-95353181D01*
X172451842Y-95380061D01*
X172404389Y-95389500D01*
X168821759Y-95389500D01*
X168765464Y-95375985D01*
X168721441Y-95338385D01*
X168699286Y-95284898D01*
X168703828Y-95227182D01*
X168734078Y-95177819D01*
X168741973Y-95169924D01*
X168767389Y-95144508D01*
X168818514Y-95044171D01*
X168836130Y-94932946D01*
X168818514Y-94821721D01*
X168796546Y-94778608D01*
X168783093Y-94718424D01*
X168800299Y-94659197D01*
X168843910Y-94615586D01*
X168903136Y-94598378D01*
X168945340Y-94607811D01*
X168946297Y-94604868D01*
X168955573Y-94607882D01*
X168964273Y-94612315D01*
X169075498Y-94629931D01*
X169186723Y-94612315D01*
X169287060Y-94561190D01*
X169366688Y-94481562D01*
X169417813Y-94381225D01*
X169435429Y-94270000D01*
X169417813Y-94158775D01*
X169366688Y-94058438D01*
X169292317Y-93984066D01*
X169265437Y-93943839D01*
X169255998Y-93896386D01*
X169255998Y-93193170D01*
X169258029Y-93170818D01*
X169261061Y-93154273D01*
X169250560Y-93120577D01*
X169248549Y-93113361D01*
X169247717Y-93109985D01*
X169240106Y-93079105D01*
X169236297Y-93074806D01*
X169234589Y-93069323D01*
X169209636Y-93044370D01*
X169204503Y-93038918D01*
X169181102Y-93012504D01*
X169181197Y-93012419D01*
X169177631Y-93008569D01*
X169175733Y-93010468D01*
X168975265Y-92810000D01*
X171160069Y-92810000D01*
X171161596Y-92819641D01*
X171176157Y-92911582D01*
X171176158Y-92911586D01*
X171177685Y-92921225D01*
X171182116Y-92929921D01*
X171182117Y-92929924D01*
X171199060Y-92963175D01*
X171228810Y-93021562D01*
X171308438Y-93101190D01*
X171408775Y-93152315D01*
X171520000Y-93169931D01*
X171631225Y-93152315D01*
X171731562Y-93101190D01*
X171811190Y-93021562D01*
X171862315Y-92921225D01*
X171879931Y-92810000D01*
X171862315Y-92698775D01*
X171811190Y-92598438D01*
X171731562Y-92518810D01*
X171714136Y-92509931D01*
X171639924Y-92472117D01*
X171639921Y-92472116D01*
X171631225Y-92467685D01*
X171621586Y-92466158D01*
X171621582Y-92466157D01*
X171529641Y-92451596D01*
X171520000Y-92450069D01*
X171510359Y-92451596D01*
X171418417Y-92466157D01*
X171418411Y-92466158D01*
X171408775Y-92467685D01*
X171400080Y-92472115D01*
X171400075Y-92472117D01*
X171317139Y-92514376D01*
X171317136Y-92514377D01*
X171308438Y-92518810D01*
X171301536Y-92525711D01*
X171301533Y-92525714D01*
X171235714Y-92591533D01*
X171235711Y-92591536D01*
X171228810Y-92598438D01*
X171224377Y-92607136D01*
X171224376Y-92607139D01*
X171182117Y-92690075D01*
X171182115Y-92690080D01*
X171177685Y-92698775D01*
X171176158Y-92708411D01*
X171176157Y-92708417D01*
X171165154Y-92777892D01*
X171160069Y-92810000D01*
X168975265Y-92810000D01*
X168837200Y-92671935D01*
X168822835Y-92654699D01*
X168813276Y-92640850D01*
X168799944Y-92633852D01*
X168799943Y-92633852D01*
X168782020Y-92624445D01*
X168775496Y-92620766D01*
X168754692Y-92608189D01*
X168754691Y-92608188D01*
X168745306Y-92602515D01*
X168739573Y-92602168D01*
X168734489Y-92599500D01*
X168723523Y-92599500D01*
X168699197Y-92599500D01*
X168691712Y-92599274D01*
X168656490Y-92597144D01*
X168656497Y-92597023D01*
X168651255Y-92596826D01*
X168651255Y-92599500D01*
X166451706Y-92599500D01*
X166404253Y-92590061D01*
X166364025Y-92563181D01*
X166231838Y-92430994D01*
X166100843Y-92300000D01*
X169990069Y-92300000D01*
X169991596Y-92309641D01*
X170006157Y-92401582D01*
X170006158Y-92401586D01*
X170007685Y-92411225D01*
X170012116Y-92419921D01*
X170012117Y-92419924D01*
X170036453Y-92467685D01*
X170058810Y-92511562D01*
X170138438Y-92591190D01*
X170238775Y-92642315D01*
X170350000Y-92659931D01*
X170461225Y-92642315D01*
X170561562Y-92591190D01*
X170641190Y-92511562D01*
X170692315Y-92411225D01*
X170709931Y-92300000D01*
X170692315Y-92188775D01*
X170641190Y-92088438D01*
X170561562Y-92008810D01*
X170544488Y-92000110D01*
X170469924Y-91962117D01*
X170469921Y-91962116D01*
X170461225Y-91957685D01*
X170451586Y-91956158D01*
X170451582Y-91956157D01*
X170359641Y-91941596D01*
X170350000Y-91940069D01*
X170340359Y-91941596D01*
X170248417Y-91956157D01*
X170248411Y-91956158D01*
X170238775Y-91957685D01*
X170230080Y-91962115D01*
X170230075Y-91962117D01*
X170147139Y-92004376D01*
X170147136Y-92004377D01*
X170138438Y-92008810D01*
X170131536Y-92015711D01*
X170131533Y-92015714D01*
X170065714Y-92081533D01*
X170065711Y-92081536D01*
X170058810Y-92088438D01*
X170054377Y-92097136D01*
X170054376Y-92097139D01*
X170012117Y-92180075D01*
X170012115Y-92180080D01*
X170007685Y-92188775D01*
X170006158Y-92198411D01*
X170006157Y-92198417D01*
X169993646Y-92277414D01*
X169990069Y-92300000D01*
X166100843Y-92300000D01*
X166085872Y-92285029D01*
X166055622Y-92235665D01*
X166051081Y-92177953D01*
X166055509Y-92150000D01*
X166037893Y-92038775D01*
X166018190Y-92000106D01*
X166004675Y-91943814D01*
X166018191Y-91887518D01*
X166054829Y-91844620D01*
X166061562Y-91841190D01*
X166141190Y-91761562D01*
X166147081Y-91750000D01*
X166590069Y-91750000D01*
X166591596Y-91759641D01*
X166606157Y-91851582D01*
X166606158Y-91851586D01*
X166607685Y-91861225D01*
X166612116Y-91869921D01*
X166612117Y-91869924D01*
X166647859Y-91940069D01*
X166658810Y-91961562D01*
X166738438Y-92041190D01*
X166838775Y-92092315D01*
X166950000Y-92109931D01*
X167061225Y-92092315D01*
X167161562Y-92041190D01*
X167241190Y-91961562D01*
X167292315Y-91861225D01*
X167309931Y-91750000D01*
X167292315Y-91638775D01*
X167241190Y-91538438D01*
X167161562Y-91458810D01*
X167122242Y-91438775D01*
X167069924Y-91412117D01*
X167069921Y-91412116D01*
X167061225Y-91407685D01*
X167051586Y-91406158D01*
X167051582Y-91406157D01*
X166959641Y-91391596D01*
X166950000Y-91390069D01*
X166940359Y-91391596D01*
X166848417Y-91406157D01*
X166848411Y-91406158D01*
X166838775Y-91407685D01*
X166830080Y-91412115D01*
X166830075Y-91412117D01*
X166747139Y-91454376D01*
X166747136Y-91454377D01*
X166738438Y-91458810D01*
X166731536Y-91465711D01*
X166731533Y-91465714D01*
X166665714Y-91531533D01*
X166665711Y-91531536D01*
X166658810Y-91538438D01*
X166654377Y-91547136D01*
X166654376Y-91547139D01*
X166612117Y-91630075D01*
X166612115Y-91630080D01*
X166607685Y-91638775D01*
X166606158Y-91648411D01*
X166606157Y-91648417D01*
X166597650Y-91702132D01*
X166590069Y-91750000D01*
X166147081Y-91750000D01*
X166192315Y-91661225D01*
X166209931Y-91550000D01*
X166209097Y-91544736D01*
X166217843Y-91500769D01*
X166244723Y-91460541D01*
X166467206Y-91238059D01*
X166970620Y-90734645D01*
X167218447Y-90486819D01*
X167258675Y-90459939D01*
X167306128Y-90450500D01*
X168113873Y-90450500D01*
X168161326Y-90459939D01*
X168201553Y-90486818D01*
X168404704Y-90689970D01*
X168434953Y-90739330D01*
X168439496Y-90797045D01*
X168436595Y-90815361D01*
X168436595Y-90815365D01*
X168435069Y-90825000D01*
X168436595Y-90834635D01*
X168436595Y-90834639D01*
X168451157Y-90926582D01*
X168451158Y-90926586D01*
X168452685Y-90936225D01*
X168457116Y-90944921D01*
X168457117Y-90944924D01*
X168494013Y-91017335D01*
X168503810Y-91036562D01*
X168583438Y-91116190D01*
X168683775Y-91167315D01*
X168795000Y-91184931D01*
X168906225Y-91167315D01*
X169006562Y-91116190D01*
X169086190Y-91036562D01*
X169117558Y-90975000D01*
X172940069Y-90975000D01*
X172941596Y-90984641D01*
X172956157Y-91076582D01*
X172956158Y-91076586D01*
X172957685Y-91086225D01*
X172962116Y-91094921D01*
X172962117Y-91094924D01*
X172971167Y-91112685D01*
X173008810Y-91186562D01*
X173088438Y-91266190D01*
X173188775Y-91317315D01*
X173300000Y-91334931D01*
X173411225Y-91317315D01*
X173511562Y-91266190D01*
X173591190Y-91186562D01*
X173642315Y-91086225D01*
X173659931Y-90975000D01*
X173642315Y-90863775D01*
X173591190Y-90763438D01*
X173511562Y-90683810D01*
X173502860Y-90679376D01*
X173419924Y-90637117D01*
X173419921Y-90637116D01*
X173411225Y-90632685D01*
X173401586Y-90631158D01*
X173401582Y-90631157D01*
X173309641Y-90616596D01*
X173300000Y-90615069D01*
X173290359Y-90616596D01*
X173198417Y-90631157D01*
X173198411Y-90631158D01*
X173188775Y-90632685D01*
X173180080Y-90637115D01*
X173180075Y-90637117D01*
X173097139Y-90679376D01*
X173097136Y-90679377D01*
X173088438Y-90683810D01*
X173081536Y-90690711D01*
X173081533Y-90690714D01*
X173015714Y-90756533D01*
X173015711Y-90756536D01*
X173008810Y-90763438D01*
X173004377Y-90772136D01*
X173004376Y-90772139D01*
X172962117Y-90855075D01*
X172962115Y-90855080D01*
X172957685Y-90863775D01*
X172956158Y-90873411D01*
X172956157Y-90873417D01*
X172946210Y-90936225D01*
X172940069Y-90975000D01*
X169117558Y-90975000D01*
X169137315Y-90936225D01*
X169154931Y-90825000D01*
X169137315Y-90713775D01*
X169086190Y-90613438D01*
X169006562Y-90533810D01*
X168947143Y-90503534D01*
X168914924Y-90487117D01*
X168914921Y-90487116D01*
X168906225Y-90482685D01*
X168896586Y-90481158D01*
X168896582Y-90481157D01*
X168804639Y-90466595D01*
X168804635Y-90466595D01*
X168795000Y-90465069D01*
X168785365Y-90466595D01*
X168785361Y-90466595D01*
X168767045Y-90469496D01*
X168709330Y-90464953D01*
X168659970Y-90434704D01*
X168387199Y-90161934D01*
X168372835Y-90144699D01*
X168363276Y-90130850D01*
X168349944Y-90123852D01*
X168349943Y-90123852D01*
X168332020Y-90114445D01*
X168325496Y-90110766D01*
X168307688Y-90100000D01*
X171515069Y-90100000D01*
X171516596Y-90109641D01*
X171531157Y-90201582D01*
X171531158Y-90201586D01*
X171532685Y-90211225D01*
X171583810Y-90311562D01*
X171663438Y-90391190D01*
X171763775Y-90442315D01*
X171875000Y-90459931D01*
X171986225Y-90442315D01*
X172086562Y-90391190D01*
X172166190Y-90311562D01*
X172217315Y-90211225D01*
X172234931Y-90100000D01*
X172217315Y-89988775D01*
X172166190Y-89888438D01*
X172086562Y-89808810D01*
X172077860Y-89804376D01*
X172020208Y-89775000D01*
X176490069Y-89775000D01*
X176491596Y-89784641D01*
X176506157Y-89876582D01*
X176506158Y-89876586D01*
X176507685Y-89886225D01*
X176512116Y-89894921D01*
X176512117Y-89894924D01*
X176545070Y-89959596D01*
X176558810Y-89986562D01*
X176638438Y-90066190D01*
X176738775Y-90117315D01*
X176850000Y-90134931D01*
X176961225Y-90117315D01*
X177061562Y-90066190D01*
X177141190Y-89986562D01*
X177192315Y-89886225D01*
X177209931Y-89775000D01*
X177192315Y-89663775D01*
X177141190Y-89563438D01*
X177061562Y-89483810D01*
X176983585Y-89444078D01*
X176969924Y-89437117D01*
X176969921Y-89437116D01*
X176961225Y-89432685D01*
X176951586Y-89431158D01*
X176951582Y-89431157D01*
X176859641Y-89416596D01*
X176850000Y-89415069D01*
X176840359Y-89416596D01*
X176748417Y-89431157D01*
X176748411Y-89431158D01*
X176738775Y-89432685D01*
X176730080Y-89437115D01*
X176730075Y-89437117D01*
X176647139Y-89479376D01*
X176647136Y-89479377D01*
X176638438Y-89483810D01*
X176631536Y-89490711D01*
X176631533Y-89490714D01*
X176565714Y-89556533D01*
X176565711Y-89556536D01*
X176558810Y-89563438D01*
X176554377Y-89572136D01*
X176554376Y-89572139D01*
X176512117Y-89655075D01*
X176512115Y-89655080D01*
X176507685Y-89663775D01*
X176506158Y-89673411D01*
X176506157Y-89673417D01*
X176493053Y-89756157D01*
X176490069Y-89775000D01*
X172020208Y-89775000D01*
X171994924Y-89762117D01*
X171994921Y-89762116D01*
X171986225Y-89757685D01*
X171976586Y-89756158D01*
X171976582Y-89756157D01*
X171884641Y-89741596D01*
X171875000Y-89740069D01*
X171865359Y-89741596D01*
X171773417Y-89756157D01*
X171773411Y-89756158D01*
X171763775Y-89757685D01*
X171755080Y-89762115D01*
X171755075Y-89762117D01*
X171672139Y-89804376D01*
X171672136Y-89804377D01*
X171663438Y-89808810D01*
X171656536Y-89815711D01*
X171656533Y-89815714D01*
X171590714Y-89881533D01*
X171590711Y-89881536D01*
X171583810Y-89888438D01*
X171579377Y-89897136D01*
X171579376Y-89897139D01*
X171537117Y-89980075D01*
X171537115Y-89980080D01*
X171532685Y-89988775D01*
X171531158Y-89998411D01*
X171531157Y-89998417D01*
X171520424Y-90066190D01*
X171515069Y-90100000D01*
X168307688Y-90100000D01*
X168304692Y-90098189D01*
X168304691Y-90098188D01*
X168295306Y-90092515D01*
X168289573Y-90092168D01*
X168284489Y-90089500D01*
X168273523Y-90089500D01*
X168249197Y-90089500D01*
X168241712Y-90089274D01*
X168206490Y-90087144D01*
X168206497Y-90087023D01*
X168201255Y-90086826D01*
X168201255Y-90089500D01*
X167207673Y-90089500D01*
X167185321Y-90087469D01*
X167183585Y-90087150D01*
X167183581Y-90087150D01*
X167168776Y-90084437D01*
X167154402Y-90088915D01*
X167154401Y-90088916D01*
X167135081Y-90094936D01*
X167127872Y-90096945D01*
X167104253Y-90102767D01*
X167104250Y-90102768D01*
X167093607Y-90105392D01*
X167089309Y-90109199D01*
X167083826Y-90110908D01*
X167076074Y-90118659D01*
X167076073Y-90118660D01*
X167058850Y-90135882D01*
X167053403Y-90141009D01*
X167027007Y-90164394D01*
X167026927Y-90164304D01*
X167023079Y-90167872D01*
X167024970Y-90169763D01*
X166028192Y-91166540D01*
X165978829Y-91196790D01*
X165921113Y-91201332D01*
X165850000Y-91190069D01*
X165840359Y-91191596D01*
X165748417Y-91206157D01*
X165748411Y-91206158D01*
X165738775Y-91207685D01*
X165730080Y-91212115D01*
X165730075Y-91212117D01*
X165647139Y-91254376D01*
X165647136Y-91254377D01*
X165638438Y-91258810D01*
X165631536Y-91265711D01*
X165631533Y-91265714D01*
X165565714Y-91331533D01*
X165565711Y-91331536D01*
X165558810Y-91338438D01*
X165554377Y-91347136D01*
X165554376Y-91347139D01*
X165512117Y-91430075D01*
X165512115Y-91430080D01*
X165507685Y-91438775D01*
X165506158Y-91448411D01*
X165506157Y-91448417D01*
X165496325Y-91510500D01*
X165490069Y-91550000D01*
X165491596Y-91559641D01*
X165506157Y-91651582D01*
X165506158Y-91651586D01*
X165507685Y-91661225D01*
X165527387Y-91699893D01*
X165540902Y-91756183D01*
X165527388Y-91812477D01*
X165490747Y-91855380D01*
X165484016Y-91858810D01*
X165477120Y-91865705D01*
X165477117Y-91865708D01*
X165409645Y-91933181D01*
X165369417Y-91960061D01*
X165321964Y-91969500D01*
X163974708Y-91969500D01*
X163924271Y-91958779D01*
X163882556Y-91928470D01*
X163865219Y-91898439D01*
X163863430Y-91899351D01*
X163812305Y-91799014D01*
X163732677Y-91719386D01*
X163694415Y-91699890D01*
X163641039Y-91672693D01*
X163641036Y-91672692D01*
X163632340Y-91668261D01*
X163622701Y-91666734D01*
X163622697Y-91666733D01*
X163530756Y-91652172D01*
X163521115Y-91650645D01*
X163511474Y-91652172D01*
X163419532Y-91666733D01*
X163419526Y-91666734D01*
X163409890Y-91668261D01*
X163401195Y-91672691D01*
X163401190Y-91672693D01*
X163318254Y-91714952D01*
X163318251Y-91714953D01*
X163309553Y-91719386D01*
X163302651Y-91726287D01*
X163302648Y-91726290D01*
X163236829Y-91792109D01*
X163236826Y-91792112D01*
X163229925Y-91799014D01*
X163225492Y-91807712D01*
X163225491Y-91807715D01*
X163183232Y-91890651D01*
X163183230Y-91890656D01*
X163178800Y-91899351D01*
X163177273Y-91908987D01*
X163177272Y-91908993D01*
X163163377Y-91996724D01*
X163161184Y-92010576D01*
X163162711Y-92020217D01*
X163177272Y-92112158D01*
X163177273Y-92112162D01*
X163178800Y-92121801D01*
X163229407Y-92221122D01*
X163242922Y-92277414D01*
X163229407Y-92333709D01*
X163191808Y-92377732D01*
X163138321Y-92399888D01*
X163098396Y-92406211D01*
X163098390Y-92406212D01*
X163088754Y-92407739D01*
X163080059Y-92412169D01*
X163080054Y-92412171D01*
X162997118Y-92454430D01*
X162997115Y-92454431D01*
X162988417Y-92458864D01*
X162981515Y-92465765D01*
X162981512Y-92465768D01*
X162915693Y-92531587D01*
X162915690Y-92531590D01*
X162908789Y-92538492D01*
X162904356Y-92547190D01*
X162904355Y-92547193D01*
X162862096Y-92630129D01*
X162862094Y-92630134D01*
X162857664Y-92638829D01*
X162856137Y-92648465D01*
X162856136Y-92648471D01*
X162844286Y-92723296D01*
X162840048Y-92750054D01*
X162841575Y-92759695D01*
X162856136Y-92851636D01*
X162856137Y-92851640D01*
X162857664Y-92861279D01*
X162862095Y-92869975D01*
X162862096Y-92869978D01*
X162897385Y-92939234D01*
X162908789Y-92961616D01*
X162988417Y-93041244D01*
X163088754Y-93092369D01*
X163199979Y-93109985D01*
X163311204Y-93092369D01*
X163377778Y-93058447D01*
X163434065Y-93044933D01*
X163490360Y-93058447D01*
X163534383Y-93096044D01*
X163556541Y-93149530D01*
X163552372Y-93202517D01*
X163551157Y-93204904D01*
X163549631Y-93214536D01*
X163549630Y-93214541D01*
X163542183Y-93261562D01*
X163533541Y-93316129D01*
X163535068Y-93325770D01*
X163549629Y-93417711D01*
X163549630Y-93417715D01*
X163551157Y-93427354D01*
X163555587Y-93436048D01*
X163555588Y-93436051D01*
X163567185Y-93458810D01*
X163599190Y-93521623D01*
X163612536Y-93584405D01*
X163592702Y-93645451D01*
X163545003Y-93688400D01*
X163493938Y-93714420D01*
X163487036Y-93721321D01*
X163487033Y-93721324D01*
X163421214Y-93787143D01*
X163421211Y-93787146D01*
X163414310Y-93794048D01*
X163409877Y-93802746D01*
X163409876Y-93802749D01*
X163367617Y-93885685D01*
X163367616Y-93885688D01*
X163363185Y-93894385D01*
X163361658Y-93904021D01*
X163361657Y-93904027D01*
X163348981Y-93984067D01*
X163345569Y-94005610D01*
X163347096Y-94015251D01*
X163361657Y-94107192D01*
X163361658Y-94107196D01*
X163363185Y-94116835D01*
X163367616Y-94125531D01*
X163367617Y-94125534D01*
X163392552Y-94174470D01*
X163414310Y-94217172D01*
X163493938Y-94296800D01*
X163518895Y-94309516D01*
X163568327Y-94355211D01*
X163586599Y-94420000D01*
X163568327Y-94484789D01*
X163518895Y-94530483D01*
X163513613Y-94533175D01*
X163502637Y-94538767D01*
X163502634Y-94538768D01*
X163493938Y-94543200D01*
X163487036Y-94550101D01*
X163487033Y-94550104D01*
X163421214Y-94615923D01*
X163421211Y-94615926D01*
X163414310Y-94622828D01*
X163409877Y-94631526D01*
X163409876Y-94631529D01*
X163367617Y-94714465D01*
X163367615Y-94714470D01*
X163363185Y-94723165D01*
X163361658Y-94732801D01*
X163361657Y-94732807D01*
X163348687Y-94814705D01*
X163345569Y-94834390D01*
X163347096Y-94844031D01*
X163347096Y-94844032D01*
X163351792Y-94873683D01*
X163345988Y-94935084D01*
X163311321Y-94986094D01*
X163256368Y-95014094D01*
X163194724Y-95012156D01*
X163141638Y-94980761D01*
X163096591Y-94935714D01*
X163089687Y-94928810D01*
X163051790Y-94909500D01*
X162998049Y-94882117D01*
X162998046Y-94882116D01*
X162989350Y-94877685D01*
X162979711Y-94876158D01*
X162979707Y-94876157D01*
X162887766Y-94861596D01*
X162878125Y-94860069D01*
X162868484Y-94861596D01*
X162776542Y-94876157D01*
X162776536Y-94876158D01*
X162766900Y-94877685D01*
X162758205Y-94882115D01*
X162758200Y-94882117D01*
X162675264Y-94924376D01*
X162675261Y-94924377D01*
X162666563Y-94928810D01*
X162659661Y-94935711D01*
X162659658Y-94935714D01*
X162593839Y-95001533D01*
X162593836Y-95001536D01*
X162586935Y-95008438D01*
X162582502Y-95017136D01*
X162582501Y-95017139D01*
X162540242Y-95100075D01*
X162540240Y-95100080D01*
X162535810Y-95108775D01*
X162534283Y-95118411D01*
X162534282Y-95118417D01*
X162520586Y-95204898D01*
X162518194Y-95220000D01*
X162519721Y-95229641D01*
X162534282Y-95321582D01*
X162534283Y-95321586D01*
X162535810Y-95331225D01*
X162540241Y-95339921D01*
X162540242Y-95339924D01*
X162564679Y-95387883D01*
X162586935Y-95431562D01*
X162666563Y-95511190D01*
X162675256Y-95515619D01*
X162680849Y-95519683D01*
X162718448Y-95563706D01*
X162731963Y-95620000D01*
X162718448Y-95676294D01*
X162680849Y-95720317D01*
X162675254Y-95724381D01*
X162666563Y-95728810D01*
X162659666Y-95735706D01*
X162659663Y-95735709D01*
X162593839Y-95801533D01*
X162593836Y-95801536D01*
X162586935Y-95808438D01*
X162582502Y-95817136D01*
X162582501Y-95817139D01*
X162540242Y-95900075D01*
X162540240Y-95900080D01*
X162535810Y-95908775D01*
X162534283Y-95918411D01*
X162534282Y-95918417D01*
X162520387Y-96006148D01*
X162518194Y-96020000D01*
X162519721Y-96029641D01*
X162534282Y-96121582D01*
X162534283Y-96121586D01*
X162535810Y-96131225D01*
X162540241Y-96139921D01*
X162540242Y-96139924D01*
X162566309Y-96191082D01*
X162586935Y-96231562D01*
X162666563Y-96311190D01*
X162766900Y-96362315D01*
X162878125Y-96379931D01*
X162989350Y-96362315D01*
X163089687Y-96311190D01*
X163125889Y-96274987D01*
X163178972Y-96243593D01*
X163240617Y-96241655D01*
X163295570Y-96269654D01*
X163330237Y-96320663D01*
X163336043Y-96382064D01*
X163329359Y-96424268D01*
X163330886Y-96433909D01*
X163345447Y-96525850D01*
X163345448Y-96525854D01*
X163346975Y-96535493D01*
X163351406Y-96544189D01*
X163351407Y-96544192D01*
X163374147Y-96588821D01*
X163398100Y-96635830D01*
X163477728Y-96715458D01*
X163578065Y-96766583D01*
X163689290Y-96784199D01*
X163800515Y-96766583D01*
X163900852Y-96715458D01*
X163980480Y-96635830D01*
X164030224Y-96538202D01*
X164075917Y-96488772D01*
X164140707Y-96470500D01*
X166816162Y-96470500D01*
X166868076Y-96481890D01*
X166910452Y-96513968D01*
X166935506Y-96560841D01*
X166938635Y-96613897D01*
X166934068Y-96642734D01*
X166923819Y-96707446D01*
X166925346Y-96717087D01*
X166939907Y-96809028D01*
X166939908Y-96809032D01*
X166941435Y-96818671D01*
X166945866Y-96827367D01*
X166945867Y-96827370D01*
X166959946Y-96855000D01*
X166992560Y-96919008D01*
X167072188Y-96998636D01*
X167172525Y-97049761D01*
X167283750Y-97067377D01*
X167382333Y-97051763D01*
X167449181Y-97059675D01*
X167502047Y-97101350D01*
X167525347Y-97164506D01*
X167512214Y-97230530D01*
X167491984Y-97270234D01*
X167487185Y-97279652D01*
X167485658Y-97289288D01*
X167485657Y-97289294D01*
X167475973Y-97350443D01*
X167469569Y-97390877D01*
X167471096Y-97400518D01*
X167485657Y-97492459D01*
X167485658Y-97492463D01*
X167487185Y-97502102D01*
X167491616Y-97510798D01*
X167491617Y-97510801D01*
X167533876Y-97593737D01*
X167538310Y-97602439D01*
X167617938Y-97682067D01*
X167718275Y-97733192D01*
X167829500Y-97750808D01*
X167940725Y-97733192D01*
X168041062Y-97682067D01*
X168120690Y-97602439D01*
X168121077Y-97602826D01*
X168168698Y-97565515D01*
X168236336Y-97558129D01*
X168297689Y-97587544D01*
X168299622Y-97589257D01*
X168308177Y-97601650D01*
X168339434Y-97618054D01*
X168345945Y-97621726D01*
X168376147Y-97639985D01*
X168381879Y-97640331D01*
X168386964Y-97643000D01*
X168422256Y-97643000D01*
X168429741Y-97643226D01*
X168464963Y-97645356D01*
X168464955Y-97645476D01*
X168470198Y-97645674D01*
X168470198Y-97643000D01*
X168630034Y-97643000D01*
X168686325Y-97656513D01*
X168730346Y-97694107D01*
X168745493Y-97730664D01*
X168748143Y-97729804D01*
X168751157Y-97739083D01*
X168752685Y-97748725D01*
X168757116Y-97757421D01*
X168757117Y-97757424D01*
X168787448Y-97816950D01*
X168803810Y-97849062D01*
X168883438Y-97928690D01*
X168983775Y-97979815D01*
X169095000Y-97997431D01*
X169206225Y-97979815D01*
X169306562Y-97928690D01*
X169386190Y-97849062D01*
X169386706Y-97848048D01*
X169421729Y-97816926D01*
X169472589Y-97801497D01*
X169525237Y-97808779D01*
X169569999Y-97837433D01*
X169856017Y-98123452D01*
X170140630Y-98408065D01*
X170154998Y-98425305D01*
X170156001Y-98426758D01*
X170164555Y-98439150D01*
X170195799Y-98455548D01*
X170202313Y-98459222D01*
X170222085Y-98471174D01*
X170232525Y-98477485D01*
X170238258Y-98477831D01*
X170243342Y-98480500D01*
X170278623Y-98480500D01*
X170286108Y-98480725D01*
X170321341Y-98482857D01*
X170321333Y-98482976D01*
X170326578Y-98483175D01*
X170326578Y-98480500D01*
X173730838Y-98480500D01*
X173787133Y-98494015D01*
X173831156Y-98531615D01*
X173853311Y-98585103D01*
X173859091Y-98621600D01*
X173859092Y-98621603D01*
X173860619Y-98631244D01*
X173865050Y-98639940D01*
X173865051Y-98639943D01*
X173904082Y-98716544D01*
X173911744Y-98731581D01*
X173991372Y-98811209D01*
X174091709Y-98862334D01*
X174202934Y-98879950D01*
X174314159Y-98862334D01*
X174414496Y-98811209D01*
X174494124Y-98731581D01*
X174545249Y-98631244D01*
X174562865Y-98520019D01*
X174545249Y-98408794D01*
X174540817Y-98400095D01*
X174538453Y-98392820D01*
X174533909Y-98335104D01*
X174556064Y-98281615D01*
X174600088Y-98244015D01*
X174656383Y-98230500D01*
X176023873Y-98230500D01*
X176071326Y-98239939D01*
X176111554Y-98266819D01*
X176159703Y-98314968D01*
X176189953Y-98364330D01*
X176194496Y-98422045D01*
X176191595Y-98440361D01*
X176191595Y-98440365D01*
X176190069Y-98450000D01*
X176191595Y-98459635D01*
X176191595Y-98459639D01*
X176206157Y-98551582D01*
X176206158Y-98551586D01*
X176207685Y-98561225D01*
X176212116Y-98569921D01*
X176212117Y-98569924D01*
X176243362Y-98631244D01*
X176258810Y-98661562D01*
X176338438Y-98741190D01*
X176438775Y-98792315D01*
X176550000Y-98809931D01*
X176661225Y-98792315D01*
X176761562Y-98741190D01*
X176841190Y-98661562D01*
X176892315Y-98561225D01*
X176909931Y-98450000D01*
X176892315Y-98338775D01*
X176841190Y-98238438D01*
X176761562Y-98158810D01*
X176714529Y-98134845D01*
X176669924Y-98112117D01*
X176669921Y-98112116D01*
X176661225Y-98107685D01*
X176648090Y-98105604D01*
X176643818Y-98103634D01*
X176642304Y-98103143D01*
X176642362Y-98102963D01*
X176586959Y-98077420D01*
X176568973Y-98050500D01*
X177423016Y-98050500D01*
X177424543Y-98060141D01*
X177439104Y-98152082D01*
X177439105Y-98152086D01*
X177440632Y-98161725D01*
X177445063Y-98170421D01*
X177445064Y-98170424D01*
X177481702Y-98242328D01*
X177491757Y-98262062D01*
X177571385Y-98341690D01*
X177671722Y-98392815D01*
X177782947Y-98410431D01*
X177894172Y-98392815D01*
X177994509Y-98341690D01*
X178074137Y-98262062D01*
X178125262Y-98161725D01*
X178142878Y-98050500D01*
X178125262Y-97939275D01*
X178074137Y-97838938D01*
X177994509Y-97759310D01*
X177972919Y-97748309D01*
X177902871Y-97712617D01*
X177902868Y-97712616D01*
X177894172Y-97708185D01*
X177884533Y-97706658D01*
X177884529Y-97706657D01*
X177792588Y-97692096D01*
X177782947Y-97690569D01*
X177773306Y-97692096D01*
X177681364Y-97706657D01*
X177681358Y-97706658D01*
X177671722Y-97708185D01*
X177663027Y-97712615D01*
X177663022Y-97712617D01*
X177580086Y-97754876D01*
X177580083Y-97754877D01*
X177571385Y-97759310D01*
X177564483Y-97766211D01*
X177564480Y-97766214D01*
X177498661Y-97832033D01*
X177498658Y-97832036D01*
X177491757Y-97838938D01*
X177487324Y-97847636D01*
X177487323Y-97847639D01*
X177445064Y-97930575D01*
X177445062Y-97930580D01*
X177440632Y-97939275D01*
X177439105Y-97948911D01*
X177439104Y-97948917D01*
X177427617Y-98021448D01*
X177423016Y-98050500D01*
X176568973Y-98050500D01*
X176549562Y-98021448D01*
X176546920Y-97954183D01*
X176579812Y-97895452D01*
X176591134Y-97884129D01*
X176596566Y-97879016D01*
X176622994Y-97855604D01*
X176622994Y-97855603D01*
X176622996Y-97855602D01*
X176623075Y-97855691D01*
X176626920Y-97852124D01*
X176625030Y-97850234D01*
X176800102Y-97675162D01*
X176983066Y-97492197D01*
X177000306Y-97477831D01*
X177014150Y-97468276D01*
X177030563Y-97437000D01*
X177034220Y-97430516D01*
X177052484Y-97400307D01*
X177052830Y-97394575D01*
X177055500Y-97389489D01*
X177055500Y-97354193D01*
X177055726Y-97346707D01*
X177057856Y-97311491D01*
X177057976Y-97311498D01*
X177058175Y-97306256D01*
X177055500Y-97306256D01*
X177055500Y-95127672D01*
X177057531Y-95105320D01*
X177060563Y-95088775D01*
X177050062Y-95055079D01*
X177048051Y-95047863D01*
X177042235Y-95024267D01*
X177039608Y-95013607D01*
X177035799Y-95009308D01*
X177034091Y-95003825D01*
X177009138Y-94978872D01*
X177004005Y-94973420D01*
X176980604Y-94947006D01*
X176980699Y-94946921D01*
X176977133Y-94943071D01*
X176975235Y-94944970D01*
X176922446Y-94892181D01*
X176892196Y-94842818D01*
X176887654Y-94785102D01*
X176909809Y-94731615D01*
X176953832Y-94694015D01*
X177010127Y-94680500D01*
X179027037Y-94680500D01*
X179029821Y-94680693D01*
X179035576Y-94682622D01*
X179074753Y-94680810D01*
X179078622Y-94680632D01*
X179084348Y-94680500D01*
X179095258Y-94680500D01*
X179100993Y-94680500D01*
X179106530Y-94679464D01*
X179111818Y-94679096D01*
X179140333Y-94677779D01*
X179150847Y-94673136D01*
X179158986Y-94671222D01*
X179166783Y-94668201D01*
X179178084Y-94666089D01*
X179198799Y-94653261D01*
X179213978Y-94645261D01*
X179236266Y-94635421D01*
X179244394Y-94627292D01*
X179251295Y-94622565D01*
X179257472Y-94616933D01*
X179267245Y-94610883D01*
X179281928Y-94591437D01*
X179293195Y-94578490D01*
X180024436Y-93847249D01*
X180026530Y-93845427D01*
X180031967Y-93842721D01*
X180056179Y-93816161D01*
X180106366Y-93782831D01*
X180166341Y-93777090D01*
X180221943Y-93800294D01*
X180260045Y-93846965D01*
X180271651Y-93906086D01*
X180052423Y-98155807D01*
X180052063Y-98162774D01*
X180052063Y-98162778D01*
X180051561Y-98172522D01*
X180056883Y-98180703D01*
X180058522Y-98184374D01*
X180058524Y-98184377D01*
X180062499Y-98193286D01*
X180065034Y-98202714D01*
X180072625Y-98208851D01*
X180075314Y-98211832D01*
X180075325Y-98211846D01*
X180081851Y-98219082D01*
X180087176Y-98227266D01*
X180096290Y-98230756D01*
X180104745Y-98235628D01*
X180104754Y-98235632D01*
X180108229Y-98237634D01*
X180115822Y-98243773D01*
X180132533Y-98244634D01*
X180132534Y-98244635D01*
X180132535Y-98244635D01*
X180132537Y-98244636D01*
X180177111Y-98246935D01*
X180232296Y-98263138D01*
X180274237Y-98302504D01*
X180293902Y-98356560D01*
X180287060Y-98413673D01*
X180176725Y-98712865D01*
X180173788Y-98720117D01*
X179924301Y-99284216D01*
X179920912Y-99291268D01*
X179636349Y-99838505D01*
X179632522Y-99845329D01*
X179314020Y-100373521D01*
X179309771Y-100380090D01*
X178958584Y-100887156D01*
X178953928Y-100893445D01*
X178571463Y-101377352D01*
X178566420Y-101383334D01*
X178154201Y-101842153D01*
X178148791Y-101847805D01*
X177708465Y-102279707D01*
X177702710Y-102285007D01*
X177236000Y-102688301D01*
X177229921Y-102693227D01*
X176738726Y-103066268D01*
X176732349Y-103070801D01*
X176218604Y-103412124D01*
X176211954Y-103416246D01*
X175677694Y-103724496D01*
X175670797Y-103728190D01*
X175118174Y-104002128D01*
X175111058Y-104005380D01*
X174542256Y-104243921D01*
X174534949Y-104246718D01*
X173952224Y-104448917D01*
X173944755Y-104451247D01*
X173350456Y-104616289D01*
X173342855Y-104618144D01*
X172739324Y-104745379D01*
X172731621Y-104746751D01*
X172121257Y-104835672D01*
X172113483Y-104836555D01*
X171498734Y-104886806D01*
X171490920Y-104887197D01*
X170874220Y-104898578D01*
X170866397Y-104898475D01*
X170250231Y-104870943D01*
X170242429Y-104870348D01*
X169629188Y-104804007D01*
X169621440Y-104802920D01*
X169013630Y-104698041D01*
X169005966Y-104696468D01*
X168405978Y-104553466D01*
X168398428Y-104551413D01*
X167808647Y-104370855D01*
X167801242Y-104368330D01*
X167224021Y-104150937D01*
X167216790Y-104147950D01*
X166654424Y-103894585D01*
X166647395Y-103891147D01*
X166102149Y-103602832D01*
X166095351Y-103598959D01*
X165569345Y-103276814D01*
X165562806Y-103272519D01*
X165238376Y-103044502D01*
X169120069Y-103044502D01*
X169121596Y-103054143D01*
X169136157Y-103146084D01*
X169136158Y-103146088D01*
X169137685Y-103155727D01*
X169188810Y-103256064D01*
X169268438Y-103335692D01*
X169368775Y-103386817D01*
X169480000Y-103404433D01*
X169591225Y-103386817D01*
X169691562Y-103335692D01*
X169771190Y-103256064D01*
X169822315Y-103155727D01*
X169839931Y-103044502D01*
X169822315Y-102933277D01*
X169771190Y-102832940D01*
X169691562Y-102753312D01*
X169682860Y-102748878D01*
X169599924Y-102706619D01*
X169599921Y-102706618D01*
X169591225Y-102702187D01*
X169581586Y-102700660D01*
X169581582Y-102700659D01*
X169489641Y-102686098D01*
X169480000Y-102684571D01*
X169470359Y-102686098D01*
X169378417Y-102700659D01*
X169378411Y-102700660D01*
X169368775Y-102702187D01*
X169360080Y-102706617D01*
X169360075Y-102706619D01*
X169277139Y-102748878D01*
X169277136Y-102748879D01*
X169268438Y-102753312D01*
X169261536Y-102760213D01*
X169261533Y-102760216D01*
X169195714Y-102826035D01*
X169195711Y-102826038D01*
X169188810Y-102832940D01*
X169184377Y-102841638D01*
X169184376Y-102841641D01*
X169142117Y-102924577D01*
X169142115Y-102924582D01*
X169137685Y-102933277D01*
X169136158Y-102942913D01*
X169136157Y-102942919D01*
X169125908Y-103007634D01*
X169120069Y-103044502D01*
X165238376Y-103044502D01*
X165058172Y-102917850D01*
X165051915Y-102913151D01*
X164570657Y-102527365D01*
X164564710Y-102522281D01*
X164108751Y-102106922D01*
X164103136Y-102101474D01*
X163674260Y-101658167D01*
X163669000Y-101652375D01*
X163268935Y-101182905D01*
X163264051Y-101176792D01*
X162894403Y-100683042D01*
X162889914Y-100676634D01*
X162552137Y-100160550D01*
X162548061Y-100153872D01*
X162243502Y-99617510D01*
X162239855Y-99610588D01*
X162079404Y-99281225D01*
X161969722Y-99056077D01*
X161966523Y-99048947D01*
X161964773Y-99044693D01*
X161776225Y-98586274D01*
X161731898Y-98478501D01*
X161729152Y-98471174D01*
X161584456Y-98044708D01*
X161530978Y-97887090D01*
X161528700Y-97879610D01*
X161399059Y-97400000D01*
X162890069Y-97400000D01*
X162891596Y-97409641D01*
X162906157Y-97501582D01*
X162906158Y-97501586D01*
X162907685Y-97511225D01*
X162912116Y-97519921D01*
X162912117Y-97519924D01*
X162954359Y-97602826D01*
X162958810Y-97611562D01*
X163038438Y-97691190D01*
X163138775Y-97742315D01*
X163154070Y-97744737D01*
X163215202Y-97772916D01*
X163252604Y-97828887D01*
X163255250Y-97896153D01*
X163222358Y-97954889D01*
X163205715Y-97971532D01*
X163205712Y-97971535D01*
X163198810Y-97978438D01*
X163194377Y-97987136D01*
X163194376Y-97987139D01*
X163152117Y-98070075D01*
X163152115Y-98070080D01*
X163147685Y-98078775D01*
X163146158Y-98088411D01*
X163146157Y-98088417D01*
X163135009Y-98158810D01*
X163130069Y-98190000D01*
X163131596Y-98199641D01*
X163146157Y-98291582D01*
X163146158Y-98291586D01*
X163147685Y-98301225D01*
X163152116Y-98309921D01*
X163152117Y-98309924D01*
X163159750Y-98324904D01*
X163198810Y-98401562D01*
X163278438Y-98481190D01*
X163378775Y-98532315D01*
X163490000Y-98549931D01*
X163596394Y-98533080D01*
X163650084Y-98536389D01*
X163697321Y-98562124D01*
X163716222Y-98587795D01*
X163718443Y-98586274D01*
X163724938Y-98595755D01*
X163729579Y-98606266D01*
X163737704Y-98614391D01*
X163742433Y-98621294D01*
X163748066Y-98627473D01*
X163754117Y-98637245D01*
X163763289Y-98644171D01*
X163773554Y-98651923D01*
X163786509Y-98663196D01*
X165333670Y-100210357D01*
X165363920Y-100259720D01*
X165368462Y-100317436D01*
X165346307Y-100370923D01*
X165302284Y-100408523D01*
X165257362Y-100419307D01*
X165257553Y-100420511D01*
X165155970Y-100436599D01*
X165155964Y-100436600D01*
X165146328Y-100438127D01*
X165137633Y-100442557D01*
X165137628Y-100442559D01*
X165054692Y-100484818D01*
X165054689Y-100484819D01*
X165045991Y-100489252D01*
X165039089Y-100496153D01*
X165039086Y-100496156D01*
X164973267Y-100561975D01*
X164973264Y-100561978D01*
X164966363Y-100568880D01*
X164961930Y-100577578D01*
X164961929Y-100577581D01*
X164919670Y-100660517D01*
X164919668Y-100660522D01*
X164915238Y-100669217D01*
X164913711Y-100678853D01*
X164913710Y-100678859D01*
X164899815Y-100766590D01*
X164897622Y-100780442D01*
X164899149Y-100790083D01*
X164913710Y-100882024D01*
X164913711Y-100882028D01*
X164915238Y-100891667D01*
X164966363Y-100992004D01*
X165045991Y-101071632D01*
X165146328Y-101122757D01*
X165257553Y-101140373D01*
X165368778Y-101122757D01*
X165469115Y-101071632D01*
X165548743Y-100992004D01*
X165599868Y-100891667D01*
X165617484Y-100780442D01*
X165618687Y-100780632D01*
X165629472Y-100735711D01*
X165667072Y-100691688D01*
X165720559Y-100669533D01*
X165778275Y-100674075D01*
X165827638Y-100704325D01*
X167337740Y-102214427D01*
X167339573Y-102216533D01*
X167342279Y-102221967D01*
X167374120Y-102250994D01*
X167378262Y-102254949D01*
X167390036Y-102266723D01*
X167394681Y-102269905D01*
X167398699Y-102273401D01*
X167419778Y-102292617D01*
X167430493Y-102296767D01*
X167437603Y-102301170D01*
X167445254Y-102304548D01*
X167454738Y-102311045D01*
X167478450Y-102316621D01*
X167494856Y-102321702D01*
X167506847Y-102326348D01*
X167506849Y-102326348D01*
X167517565Y-102330500D01*
X167529059Y-102330500D01*
X167537281Y-102332037D01*
X167545631Y-102332423D01*
X167556821Y-102335055D01*
X167580949Y-102331689D01*
X167598082Y-102330500D01*
X171612689Y-102330500D01*
X171668980Y-102344014D01*
X171763775Y-102392315D01*
X171875000Y-102409931D01*
X171986225Y-102392315D01*
X172086562Y-102341190D01*
X172166190Y-102261562D01*
X172217315Y-102161225D01*
X172234931Y-102050000D01*
X172217315Y-101938775D01*
X172166190Y-101838438D01*
X172086562Y-101758810D01*
X172036263Y-101733181D01*
X171994924Y-101712117D01*
X171994921Y-101712116D01*
X171986225Y-101707685D01*
X171976586Y-101706158D01*
X171976582Y-101706157D01*
X171884641Y-101691596D01*
X171875000Y-101690069D01*
X171865359Y-101691596D01*
X171773417Y-101706157D01*
X171773411Y-101706158D01*
X171763775Y-101707685D01*
X171668980Y-101755985D01*
X171612689Y-101769500D01*
X167737549Y-101769500D01*
X167690096Y-101760061D01*
X167649868Y-101733181D01*
X166316687Y-100400000D01*
X167190069Y-100400000D01*
X167191596Y-100409641D01*
X167206157Y-100501582D01*
X167206158Y-100501586D01*
X167207685Y-100511225D01*
X167212116Y-100519921D01*
X167212117Y-100519924D01*
X167254376Y-100602860D01*
X167258810Y-100611562D01*
X167338438Y-100691190D01*
X167438775Y-100742315D01*
X167550000Y-100759931D01*
X167661225Y-100742315D01*
X167761562Y-100691190D01*
X167841190Y-100611562D01*
X167892315Y-100511225D01*
X167909931Y-100400000D01*
X167892315Y-100288775D01*
X167841190Y-100188438D01*
X167761562Y-100108810D01*
X167744272Y-100100000D01*
X170640069Y-100100000D01*
X170641596Y-100109641D01*
X170656157Y-100201582D01*
X170656158Y-100201586D01*
X170657685Y-100211225D01*
X170708810Y-100311562D01*
X170788438Y-100391190D01*
X170888775Y-100442315D01*
X171000000Y-100459931D01*
X171111225Y-100442315D01*
X171211562Y-100391190D01*
X171291190Y-100311562D01*
X171342315Y-100211225D01*
X171359931Y-100100000D01*
X171342315Y-99988775D01*
X171291190Y-99888438D01*
X171211562Y-99808810D01*
X171157093Y-99781056D01*
X171119924Y-99762117D01*
X171119921Y-99762116D01*
X171111225Y-99757685D01*
X171101586Y-99756158D01*
X171101582Y-99756157D01*
X171009641Y-99741596D01*
X171000000Y-99740069D01*
X170990359Y-99741596D01*
X170898417Y-99756157D01*
X170898411Y-99756158D01*
X170888775Y-99757685D01*
X170880080Y-99762115D01*
X170880075Y-99762117D01*
X170797139Y-99804376D01*
X170797136Y-99804377D01*
X170788438Y-99808810D01*
X170781536Y-99815711D01*
X170781533Y-99815714D01*
X170715714Y-99881533D01*
X170715711Y-99881536D01*
X170708810Y-99888438D01*
X170704377Y-99897136D01*
X170704376Y-99897139D01*
X170662117Y-99980075D01*
X170662115Y-99980080D01*
X170657685Y-99988775D01*
X170656158Y-99998411D01*
X170656157Y-99998417D01*
X170649561Y-100040069D01*
X170640069Y-100100000D01*
X167744272Y-100100000D01*
X167669924Y-100062117D01*
X167669921Y-100062116D01*
X167661225Y-100057685D01*
X167651586Y-100056158D01*
X167651582Y-100056157D01*
X167559641Y-100041596D01*
X167550000Y-100040069D01*
X167540359Y-100041596D01*
X167448417Y-100056157D01*
X167448411Y-100056158D01*
X167438775Y-100057685D01*
X167430080Y-100062115D01*
X167430075Y-100062117D01*
X167347139Y-100104376D01*
X167347136Y-100104377D01*
X167338438Y-100108810D01*
X167331536Y-100115711D01*
X167331533Y-100115714D01*
X167265714Y-100181533D01*
X167265711Y-100181536D01*
X167258810Y-100188438D01*
X167254377Y-100197136D01*
X167254376Y-100197139D01*
X167212117Y-100280075D01*
X167212115Y-100280080D01*
X167207685Y-100288775D01*
X167206158Y-100298411D01*
X167206157Y-100298417D01*
X167202982Y-100318466D01*
X167190069Y-100400000D01*
X166316687Y-100400000D01*
X165086687Y-99170000D01*
X171210069Y-99170000D01*
X171211596Y-99179641D01*
X171226157Y-99271582D01*
X171226158Y-99271586D01*
X171227685Y-99281225D01*
X171232116Y-99289921D01*
X171232117Y-99289924D01*
X171256728Y-99338225D01*
X171278810Y-99381562D01*
X171358438Y-99461190D01*
X171458775Y-99512315D01*
X171570000Y-99529931D01*
X171681225Y-99512315D01*
X171781562Y-99461190D01*
X171855933Y-99386819D01*
X171896161Y-99359939D01*
X171943614Y-99350500D01*
X173568873Y-99350500D01*
X173616326Y-99359939D01*
X173656554Y-99386819D01*
X173684703Y-99414968D01*
X173714953Y-99464330D01*
X173719496Y-99522045D01*
X173716595Y-99540361D01*
X173716595Y-99540365D01*
X173715069Y-99550000D01*
X173716595Y-99559635D01*
X173716595Y-99559639D01*
X173731157Y-99651582D01*
X173731158Y-99651586D01*
X173732685Y-99661225D01*
X173737116Y-99669921D01*
X173737117Y-99669924D01*
X173762594Y-99719924D01*
X173783810Y-99761562D01*
X173863438Y-99841190D01*
X173963775Y-99892315D01*
X174075000Y-99909931D01*
X174186225Y-99892315D01*
X174286562Y-99841190D01*
X174326186Y-99801565D01*
X174370945Y-99772912D01*
X174423592Y-99765629D01*
X174474452Y-99781056D01*
X174508797Y-99811574D01*
X174508810Y-99811562D01*
X174588438Y-99891190D01*
X174688775Y-99942315D01*
X174800000Y-99959931D01*
X174911225Y-99942315D01*
X175011562Y-99891190D01*
X175091190Y-99811562D01*
X175142315Y-99711225D01*
X175159931Y-99600000D01*
X175142315Y-99488775D01*
X175091190Y-99388438D01*
X175011562Y-99308810D01*
X175002860Y-99304376D01*
X174919924Y-99262117D01*
X174919921Y-99262116D01*
X174911225Y-99257685D01*
X174901586Y-99256158D01*
X174901582Y-99256157D01*
X174809641Y-99241596D01*
X174800000Y-99240069D01*
X174790359Y-99241596D01*
X174698417Y-99256157D01*
X174698411Y-99256158D01*
X174688775Y-99257685D01*
X174680080Y-99262115D01*
X174680075Y-99262117D01*
X174597139Y-99304376D01*
X174597136Y-99304377D01*
X174588438Y-99308810D01*
X174581535Y-99315712D01*
X174581532Y-99315715D01*
X174548813Y-99348434D01*
X174504051Y-99377088D01*
X174451404Y-99384370D01*
X174400545Y-99368942D01*
X174366202Y-99338425D01*
X174366190Y-99338438D01*
X174286562Y-99258810D01*
X174252778Y-99241596D01*
X174194924Y-99212117D01*
X174194921Y-99212116D01*
X174186225Y-99207685D01*
X174176586Y-99206158D01*
X174176582Y-99206157D01*
X174084639Y-99191595D01*
X174084635Y-99191595D01*
X174075000Y-99190069D01*
X174065365Y-99191595D01*
X174065361Y-99191595D01*
X174047045Y-99194496D01*
X173989330Y-99189953D01*
X173939968Y-99159703D01*
X173842200Y-99061935D01*
X173827831Y-99044693D01*
X173818276Y-99030850D01*
X173804944Y-99023852D01*
X173804943Y-99023852D01*
X173787020Y-99014445D01*
X173780496Y-99010766D01*
X173759692Y-98998189D01*
X173759691Y-98998188D01*
X173750306Y-98992515D01*
X173744573Y-98992168D01*
X173739489Y-98989500D01*
X173728523Y-98989500D01*
X173704197Y-98989500D01*
X173696712Y-98989274D01*
X173661490Y-98987144D01*
X173661497Y-98987023D01*
X173656255Y-98986826D01*
X173656255Y-98989500D01*
X171943614Y-98989500D01*
X171896161Y-98980061D01*
X171855933Y-98953181D01*
X171788466Y-98885714D01*
X171781562Y-98878810D01*
X171772860Y-98874376D01*
X171689924Y-98832117D01*
X171689921Y-98832116D01*
X171681225Y-98827685D01*
X171671586Y-98826158D01*
X171671582Y-98826157D01*
X171579641Y-98811596D01*
X171570000Y-98810069D01*
X171560359Y-98811596D01*
X171468417Y-98826157D01*
X171468411Y-98826158D01*
X171458775Y-98827685D01*
X171450080Y-98832115D01*
X171450075Y-98832117D01*
X171367139Y-98874376D01*
X171367136Y-98874377D01*
X171358438Y-98878810D01*
X171351536Y-98885711D01*
X171351533Y-98885714D01*
X171285714Y-98951533D01*
X171285711Y-98951536D01*
X171278810Y-98958438D01*
X171274377Y-98967136D01*
X171274376Y-98967139D01*
X171232117Y-99050075D01*
X171232115Y-99050080D01*
X171227685Y-99058775D01*
X171226158Y-99068411D01*
X171226157Y-99068417D01*
X171212262Y-99156148D01*
X171210069Y-99170000D01*
X165086687Y-99170000D01*
X164281819Y-98365132D01*
X164254939Y-98324904D01*
X164245500Y-98277451D01*
X164245500Y-98041211D01*
X164245693Y-98038426D01*
X164247622Y-98032672D01*
X164245632Y-97989626D01*
X164245500Y-97983900D01*
X164245500Y-97972990D01*
X164245500Y-97967255D01*
X164244464Y-97961718D01*
X164244096Y-97956407D01*
X164243309Y-97939391D01*
X164242779Y-97927915D01*
X164238136Y-97917400D01*
X164236221Y-97909258D01*
X164233200Y-97901460D01*
X164231089Y-97890164D01*
X164218264Y-97869451D01*
X164210256Y-97854258D01*
X164205062Y-97842494D01*
X164205061Y-97842493D01*
X164200420Y-97831981D01*
X164192291Y-97823852D01*
X164187563Y-97816950D01*
X164181932Y-97810772D01*
X164175883Y-97801003D01*
X164166716Y-97794080D01*
X164166713Y-97794077D01*
X164156439Y-97786319D01*
X164143486Y-97775047D01*
X164121957Y-97753518D01*
X164630069Y-97753518D01*
X164631596Y-97763159D01*
X164646157Y-97855100D01*
X164646158Y-97855104D01*
X164647685Y-97864743D01*
X164652116Y-97873439D01*
X164652117Y-97873442D01*
X164690574Y-97948917D01*
X164698810Y-97965080D01*
X164778438Y-98044708D01*
X164878775Y-98095833D01*
X164990000Y-98113449D01*
X165101225Y-98095833D01*
X165201562Y-98044708D01*
X165281190Y-97965080D01*
X165332315Y-97864743D01*
X165349931Y-97753518D01*
X165332315Y-97642293D01*
X165281190Y-97541956D01*
X165201562Y-97462328D01*
X165192860Y-97457894D01*
X165109924Y-97415635D01*
X165109921Y-97415634D01*
X165101225Y-97411203D01*
X165091586Y-97409676D01*
X165091582Y-97409675D01*
X164999641Y-97395114D01*
X164990000Y-97393587D01*
X164980359Y-97395114D01*
X164888417Y-97409675D01*
X164888411Y-97409676D01*
X164878775Y-97411203D01*
X164870080Y-97415633D01*
X164870075Y-97415635D01*
X164787139Y-97457894D01*
X164787136Y-97457895D01*
X164778438Y-97462328D01*
X164771536Y-97469229D01*
X164771533Y-97469232D01*
X164705714Y-97535051D01*
X164705711Y-97535054D01*
X164698810Y-97541956D01*
X164694377Y-97550654D01*
X164694376Y-97550657D01*
X164652117Y-97633593D01*
X164652115Y-97633598D01*
X164647685Y-97642293D01*
X164646158Y-97651929D01*
X164646157Y-97651935D01*
X164637491Y-97706657D01*
X164630069Y-97753518D01*
X164121957Y-97753518D01*
X163604012Y-97235573D01*
X163602177Y-97233465D01*
X163599473Y-97228033D01*
X163567619Y-97198994D01*
X163563477Y-97195038D01*
X163555774Y-97187335D01*
X163551716Y-97183277D01*
X163547064Y-97180090D01*
X163543041Y-97176588D01*
X163530467Y-97165125D01*
X163530465Y-97165124D01*
X163521974Y-97157383D01*
X163511257Y-97153231D01*
X163509637Y-97152228D01*
X163487234Y-97134482D01*
X163468466Y-97115714D01*
X163461562Y-97108810D01*
X163446921Y-97101350D01*
X163369924Y-97062117D01*
X163369921Y-97062116D01*
X163361225Y-97057685D01*
X163351586Y-97056158D01*
X163351582Y-97056157D01*
X163259641Y-97041596D01*
X163250000Y-97040069D01*
X163240359Y-97041596D01*
X163148417Y-97056157D01*
X163148411Y-97056158D01*
X163138775Y-97057685D01*
X163130080Y-97062115D01*
X163130075Y-97062117D01*
X163047139Y-97104376D01*
X163047136Y-97104377D01*
X163038438Y-97108810D01*
X163031536Y-97115711D01*
X163031533Y-97115714D01*
X162965714Y-97181533D01*
X162965711Y-97181536D01*
X162958810Y-97188438D01*
X162954377Y-97197136D01*
X162954376Y-97197139D01*
X162912117Y-97280075D01*
X162912115Y-97280080D01*
X162907685Y-97288775D01*
X162906158Y-97298411D01*
X162906157Y-97298417D01*
X162897918Y-97350443D01*
X162890069Y-97400000D01*
X161399059Y-97400000D01*
X161367744Y-97284150D01*
X161365951Y-97276573D01*
X161242872Y-96672160D01*
X161241555Y-96664460D01*
X161241403Y-96663366D01*
X161156837Y-96053482D01*
X161156009Y-96045709D01*
X161154086Y-96020000D01*
X161109992Y-95430624D01*
X161109657Y-95422859D01*
X161102522Y-94806048D01*
X161102679Y-94798231D01*
X161104768Y-94757749D01*
X161134455Y-94182264D01*
X161135104Y-94174470D01*
X161140739Y-94125534D01*
X161205666Y-93561695D01*
X161206801Y-93553988D01*
X161315873Y-92946854D01*
X161317485Y-92939267D01*
X161464626Y-92340238D01*
X161466728Y-92332714D01*
X161467064Y-92331645D01*
X161651347Y-91744177D01*
X161653921Y-91736799D01*
X161657962Y-91726290D01*
X161875289Y-91161076D01*
X161878311Y-91153900D01*
X162135554Y-90593268D01*
X162139025Y-90586292D01*
X162431123Y-90042979D01*
X162435015Y-90036259D01*
X162760783Y-89512470D01*
X162765105Y-89505985D01*
X163123265Y-89003772D01*
X163127980Y-88997583D01*
X163517105Y-88518953D01*
X163522197Y-88513078D01*
X163940718Y-88059954D01*
X163946185Y-88054397D01*
X164392458Y-87628562D01*
X164398243Y-87623381D01*
X164870494Y-87226529D01*
X164876583Y-87221731D01*
X165372943Y-86855436D01*
X165379336Y-86851023D01*
X165897771Y-86516784D01*
X165904431Y-86512782D01*
X166442923Y-86211897D01*
X166449829Y-86208319D01*
X167006209Y-85942002D01*
X167013340Y-85938861D01*
X167359624Y-85799214D01*
X167419022Y-85790902D01*
X167475373Y-85811438D01*
G37*
G04 #@! TD.AperFunction*
G04 #@! TA.AperFunction,Conductor*
G36*
X163848168Y-92333694D02*
G01*
X163860335Y-92330500D01*
X165321964Y-92330500D01*
X165369417Y-92339939D01*
X165409645Y-92366818D01*
X165484016Y-92441190D01*
X165584353Y-92492315D01*
X165695578Y-92509931D01*
X165723531Y-92505503D01*
X165781243Y-92510044D01*
X165830607Y-92540294D01*
X166004930Y-92714618D01*
X166178377Y-92888065D01*
X166192745Y-92905305D01*
X166193748Y-92906758D01*
X166202302Y-92919150D01*
X166233546Y-92935548D01*
X166240060Y-92939222D01*
X166260869Y-92951801D01*
X166270272Y-92957485D01*
X166276005Y-92957831D01*
X166281089Y-92960500D01*
X166316370Y-92960500D01*
X166323855Y-92960725D01*
X166359088Y-92962857D01*
X166359080Y-92962976D01*
X166364325Y-92963175D01*
X166364325Y-92960500D01*
X168563873Y-92960500D01*
X168611326Y-92969939D01*
X168651554Y-92996819D01*
X168858679Y-93203944D01*
X168885559Y-93244172D01*
X168894998Y-93291625D01*
X168894998Y-93291832D01*
X168881483Y-93348127D01*
X168843884Y-93392150D01*
X168790397Y-93414305D01*
X168735782Y-93410007D01*
X168731225Y-93407685D01*
X168721590Y-93406159D01*
X168721587Y-93406158D01*
X168629641Y-93391596D01*
X168620000Y-93390069D01*
X168610359Y-93391596D01*
X168518417Y-93406157D01*
X168518411Y-93406158D01*
X168508775Y-93407685D01*
X168500080Y-93412115D01*
X168500075Y-93412117D01*
X168417139Y-93454376D01*
X168417136Y-93454377D01*
X168408438Y-93458810D01*
X168401536Y-93465711D01*
X168401533Y-93465714D01*
X168335714Y-93531533D01*
X168335711Y-93531536D01*
X168328810Y-93538438D01*
X168324377Y-93547136D01*
X168324376Y-93547139D01*
X168282117Y-93630075D01*
X168282115Y-93630080D01*
X168277685Y-93638775D01*
X168276158Y-93648411D01*
X168276157Y-93648417D01*
X168271743Y-93676289D01*
X168260069Y-93750000D01*
X168262400Y-93764719D01*
X168276157Y-93851582D01*
X168276158Y-93851586D01*
X168277685Y-93861225D01*
X168316923Y-93938232D01*
X168330268Y-93988037D01*
X168322202Y-94038964D01*
X168294120Y-94082207D01*
X168247215Y-94129112D01*
X168247212Y-94129115D01*
X168240310Y-94136018D01*
X168235877Y-94144716D01*
X168235876Y-94144719D01*
X168193617Y-94227655D01*
X168193615Y-94227660D01*
X168189185Y-94236355D01*
X168187658Y-94245991D01*
X168187657Y-94245997D01*
X168176976Y-94313438D01*
X168171569Y-94347580D01*
X168173096Y-94357221D01*
X168187657Y-94449162D01*
X168187658Y-94449166D01*
X168189185Y-94458805D01*
X168235506Y-94549715D01*
X168248852Y-94599517D01*
X168240787Y-94650444D01*
X168212705Y-94693687D01*
X168185009Y-94721384D01*
X168180576Y-94730082D01*
X168180575Y-94730085D01*
X168138315Y-94813023D01*
X168138313Y-94813027D01*
X168133884Y-94821721D01*
X168133076Y-94826817D01*
X168109026Y-94868474D01*
X168067311Y-94898780D01*
X168016877Y-94909500D01*
X167790739Y-94909500D01*
X167734444Y-94895985D01*
X167690421Y-94858385D01*
X167668266Y-94804898D01*
X167672808Y-94747182D01*
X167703058Y-94697819D01*
X167731133Y-94669744D01*
X167769315Y-94631562D01*
X167820440Y-94531225D01*
X167838056Y-94420000D01*
X167820440Y-94308775D01*
X167769315Y-94208438D01*
X167689687Y-94128810D01*
X167680985Y-94124376D01*
X167598049Y-94082117D01*
X167598046Y-94082116D01*
X167589350Y-94077685D01*
X167579711Y-94076158D01*
X167579707Y-94076157D01*
X167487766Y-94061596D01*
X167478125Y-94060069D01*
X167468484Y-94061596D01*
X167376542Y-94076157D01*
X167376536Y-94076158D01*
X167366900Y-94077685D01*
X167358205Y-94082115D01*
X167358200Y-94082117D01*
X167275264Y-94124376D01*
X167275261Y-94124377D01*
X167266563Y-94128810D01*
X167259661Y-94135711D01*
X167259658Y-94135714D01*
X167193839Y-94201533D01*
X167193836Y-94201536D01*
X167186935Y-94208438D01*
X167182502Y-94217136D01*
X167182501Y-94217139D01*
X167140242Y-94300075D01*
X167140240Y-94300080D01*
X167135810Y-94308775D01*
X167134283Y-94318411D01*
X167134282Y-94318417D01*
X167124335Y-94381225D01*
X167118194Y-94420000D01*
X167119721Y-94429641D01*
X167134282Y-94521582D01*
X167134283Y-94521586D01*
X167135810Y-94531225D01*
X167140241Y-94539921D01*
X167140242Y-94539924D01*
X167174833Y-94607811D01*
X167186935Y-94631562D01*
X167193839Y-94638466D01*
X167253192Y-94697819D01*
X167283442Y-94747182D01*
X167287984Y-94804898D01*
X167265829Y-94858385D01*
X167221806Y-94895985D01*
X167165511Y-94909500D01*
X166323802Y-94909500D01*
X166276349Y-94900061D01*
X166236121Y-94873181D01*
X164014874Y-92651935D01*
X164000509Y-92634699D01*
X163990950Y-92620850D01*
X163977618Y-92613852D01*
X163977617Y-92613852D01*
X163959694Y-92604445D01*
X163953170Y-92600766D01*
X163932366Y-92588189D01*
X163932365Y-92588188D01*
X163922980Y-92582515D01*
X163917247Y-92582168D01*
X163912163Y-92579500D01*
X163901197Y-92579500D01*
X163876871Y-92579500D01*
X163869386Y-92579274D01*
X163852850Y-92578274D01*
X163850974Y-92577658D01*
X163828929Y-92576826D01*
X163828929Y-92579500D01*
X163704091Y-92579500D01*
X163640973Y-92562234D01*
X163595432Y-92515243D01*
X163580152Y-92451614D01*
X163599388Y-92389068D01*
X163647780Y-92345022D01*
X163649746Y-92344021D01*
X163706053Y-92330500D01*
X163835483Y-92330500D01*
X163848168Y-92333694D01*
G37*
G04 #@! TD.AperFunction*
M02*
