G04 #@! TF.GenerationSoftware,KiCad,Pcbnew,(7.0.0-0)*
G04 #@! TF.CreationDate,2024-01-25T23:02:00+08:00*
G04 #@! TF.ProjectId,Revolute,5265766f-6c75-4746-952e-6b696361645f,rev?*
G04 #@! TF.SameCoordinates,Original*
G04 #@! TF.FileFunction,Copper,L4,Bot*
G04 #@! TF.FilePolarity,Positive*
%FSLAX46Y46*%
G04 Gerber Fmt 4.6, Leading zero omitted, Abs format (unit mm)*
G04 Created by KiCad (PCBNEW (7.0.0-0)) date 2024-01-25 23:02:00*
%MOMM*%
%LPD*%
G01*
G04 APERTURE LIST*
G04 Aperture macros list*
%AMRoundRect*
0 Rectangle with rounded corners*
0 $1 Rounding radius*
0 $2 $3 $4 $5 $6 $7 $8 $9 X,Y pos of 4 corners*
0 Add a 4 corners polygon primitive as box body*
4,1,4,$2,$3,$4,$5,$6,$7,$8,$9,$2,$3,0*
0 Add four circle primitives for the rounded corners*
1,1,$1+$1,$2,$3*
1,1,$1+$1,$4,$5*
1,1,$1+$1,$6,$7*
1,1,$1+$1,$8,$9*
0 Add four rect primitives between the rounded corners*
20,1,$1+$1,$2,$3,$4,$5,0*
20,1,$1+$1,$4,$5,$6,$7,0*
20,1,$1+$1,$6,$7,$8,$9,0*
20,1,$1+$1,$8,$9,$2,$3,0*%
G04 Aperture macros list end*
G04 #@! TA.AperFunction,SMDPad,CuDef*
%ADD10RoundRect,0.200000X0.200000X-0.200000X0.200000X0.200000X-0.200000X0.200000X-0.200000X-0.200000X0*%
G04 #@! TD*
G04 #@! TA.AperFunction,SMDPad,CuDef*
%ADD11RoundRect,0.200000X0.730867X-1.340087X0.866940X1.256350X-0.730867X1.340087X-0.866940X-1.256350X0*%
G04 #@! TD*
G04 #@! TA.AperFunction,SMDPad,CuDef*
%ADD12RoundRect,0.300000X1.135552X-1.261159X1.261159X1.135552X-1.135552X1.261159X-1.261159X-1.135552X0*%
G04 #@! TD*
G04 #@! TA.AperFunction,SMDPad,CuDef*
%ADD13RoundRect,0.140000X0.021213X-0.219203X0.219203X-0.021213X-0.021213X0.219203X-0.219203X0.021213X0*%
G04 #@! TD*
G04 #@! TA.AperFunction,SMDPad,CuDef*
%ADD14RoundRect,0.140000X0.140000X0.170000X-0.140000X0.170000X-0.140000X-0.170000X0.140000X-0.170000X0*%
G04 #@! TD*
G04 #@! TA.AperFunction,SMDPad,CuDef*
%ADD15C,2.500000*%
G04 #@! TD*
G04 #@! TA.AperFunction,SMDPad,CuDef*
%ADD16RoundRect,0.147500X-0.147500X-0.172500X0.147500X-0.172500X0.147500X0.172500X-0.147500X0.172500X0*%
G04 #@! TD*
G04 #@! TA.AperFunction,SMDPad,CuDef*
%ADD17RoundRect,0.135000X-0.185000X0.135000X-0.185000X-0.135000X0.185000X-0.135000X0.185000X0.135000X0*%
G04 #@! TD*
G04 #@! TA.AperFunction,SMDPad,CuDef*
%ADD18RoundRect,0.200000X-0.200000X-0.275000X0.200000X-0.275000X0.200000X0.275000X-0.200000X0.275000X0*%
G04 #@! TD*
G04 #@! TA.AperFunction,SMDPad,CuDef*
%ADD19RoundRect,0.147500X-0.172500X0.147500X-0.172500X-0.147500X0.172500X-0.147500X0.172500X0.147500X0*%
G04 #@! TD*
G04 #@! TA.AperFunction,SMDPad,CuDef*
%ADD20RoundRect,0.250000X-0.350000X-0.650000X0.350000X-0.650000X0.350000X0.650000X-0.350000X0.650000X0*%
G04 #@! TD*
G04 #@! TA.AperFunction,SMDPad,CuDef*
%ADD21RoundRect,0.147500X0.172500X-0.147500X0.172500X0.147500X-0.172500X0.147500X-0.172500X-0.147500X0*%
G04 #@! TD*
G04 #@! TA.AperFunction,SMDPad,CuDef*
%ADD22RoundRect,0.140000X-0.140000X-0.170000X0.140000X-0.170000X0.140000X0.170000X-0.140000X0.170000X0*%
G04 #@! TD*
G04 #@! TA.AperFunction,SMDPad,CuDef*
%ADD23R,0.180000X0.325000*%
G04 #@! TD*
G04 #@! TA.AperFunction,SMDPad,CuDef*
%ADD24R,0.750000X0.235000*%
G04 #@! TD*
G04 #@! TA.AperFunction,SMDPad,CuDef*
%ADD25R,0.215000X1.040000*%
G04 #@! TD*
G04 #@! TA.AperFunction,SMDPad,CuDef*
%ADD26RoundRect,0.140000X-0.170000X0.140000X-0.170000X-0.140000X0.170000X-0.140000X0.170000X0.140000X0*%
G04 #@! TD*
G04 #@! TA.AperFunction,SMDPad,CuDef*
%ADD27RoundRect,0.062500X0.062500X-0.375000X0.062500X0.375000X-0.062500X0.375000X-0.062500X-0.375000X0*%
G04 #@! TD*
G04 #@! TA.AperFunction,SMDPad,CuDef*
%ADD28RoundRect,0.062500X0.375000X-0.062500X0.375000X0.062500X-0.375000X0.062500X-0.375000X-0.062500X0*%
G04 #@! TD*
G04 #@! TA.AperFunction,SMDPad,CuDef*
%ADD29R,1.600000X1.600000*%
G04 #@! TD*
G04 #@! TA.AperFunction,SMDPad,CuDef*
%ADD30RoundRect,0.150000X0.300000X-0.350000X0.300000X0.350000X-0.300000X0.350000X-0.300000X-0.350000X0*%
G04 #@! TD*
G04 #@! TA.AperFunction,SMDPad,CuDef*
%ADD31R,1.100000X0.600000*%
G04 #@! TD*
G04 #@! TA.AperFunction,SMDPad,CuDef*
%ADD32RoundRect,0.135000X0.135000X0.185000X-0.135000X0.185000X-0.135000X-0.185000X0.135000X-0.185000X0*%
G04 #@! TD*
G04 #@! TA.AperFunction,SMDPad,CuDef*
%ADD33RoundRect,0.140000X0.170000X-0.140000X0.170000X0.140000X-0.170000X0.140000X-0.170000X-0.140000X0*%
G04 #@! TD*
G04 #@! TA.AperFunction,SMDPad,CuDef*
%ADD34RoundRect,0.135000X-0.135000X-0.185000X0.135000X-0.185000X0.135000X0.185000X-0.135000X0.185000X0*%
G04 #@! TD*
G04 #@! TA.AperFunction,SMDPad,CuDef*
%ADD35RoundRect,0.062500X0.062500X-0.212500X0.062500X0.212500X-0.062500X0.212500X-0.062500X-0.212500X0*%
G04 #@! TD*
G04 #@! TA.AperFunction,SMDPad,CuDef*
%ADD36RoundRect,0.062500X0.212500X-0.062500X0.212500X0.062500X-0.212500X0.062500X-0.212500X-0.062500X0*%
G04 #@! TD*
G04 #@! TA.AperFunction,SMDPad,CuDef*
%ADD37R,3.600000X3.600000*%
G04 #@! TD*
G04 #@! TA.AperFunction,SMDPad,CuDef*
%ADD38RoundRect,0.135000X0.185000X-0.135000X0.185000X0.135000X-0.185000X0.135000X-0.185000X-0.135000X0*%
G04 #@! TD*
G04 #@! TA.AperFunction,SMDPad,CuDef*
%ADD39RoundRect,0.147500X0.147500X0.172500X-0.147500X0.172500X-0.147500X-0.172500X0.147500X-0.172500X0*%
G04 #@! TD*
G04 #@! TA.AperFunction,SMDPad,CuDef*
%ADD40RoundRect,0.150000X-0.150000X0.662500X-0.150000X-0.662500X0.150000X-0.662500X0.150000X0.662500X0*%
G04 #@! TD*
G04 #@! TA.AperFunction,SMDPad,CuDef*
%ADD41R,3.200000X2.514000*%
G04 #@! TD*
G04 #@! TA.AperFunction,SMDPad,CuDef*
%ADD42RoundRect,0.150000X0.512500X0.150000X-0.512500X0.150000X-0.512500X-0.150000X0.512500X-0.150000X0*%
G04 #@! TD*
G04 #@! TA.AperFunction,SMDPad,CuDef*
%ADD43R,0.200000X0.200000*%
G04 #@! TD*
G04 #@! TA.AperFunction,SMDPad,CuDef*
%ADD44O,0.200000X0.850000*%
G04 #@! TD*
G04 #@! TA.AperFunction,SMDPad,CuDef*
%ADD45R,0.575000X0.400000*%
G04 #@! TD*
G04 #@! TA.AperFunction,SMDPad,CuDef*
%ADD46R,0.675000X0.400000*%
G04 #@! TD*
G04 #@! TA.AperFunction,ComponentPad*
%ADD47C,0.600000*%
G04 #@! TD*
G04 #@! TA.AperFunction,SMDPad,CuDef*
%ADD48R,0.975000X1.300000*%
G04 #@! TD*
G04 #@! TA.AperFunction,SMDPad,CuDef*
%ADD49R,1.950000X2.600000*%
G04 #@! TD*
G04 #@! TA.AperFunction,ViaPad*
%ADD50C,0.800000*%
G04 #@! TD*
G04 #@! TA.AperFunction,ViaPad*
%ADD51C,0.450000*%
G04 #@! TD*
G04 #@! TA.AperFunction,Conductor*
%ADD52C,0.200000*%
G04 #@! TD*
G04 #@! TA.AperFunction,Conductor*
%ADD53C,0.300000*%
G04 #@! TD*
G04 #@! TA.AperFunction,Conductor*
%ADD54C,0.100000*%
G04 #@! TD*
G04 #@! TA.AperFunction,Conductor*
%ADD55C,0.556000*%
G04 #@! TD*
G04 #@! TA.AperFunction,Conductor*
%ADD56C,0.400000*%
G04 #@! TD*
G04 APERTURE END LIST*
D10*
X179050000Y-98675000D03*
D11*
X179121196Y-96534972D03*
D12*
X178755903Y-94012005D03*
D13*
X177071178Y-89553822D03*
X177750000Y-88875000D03*
D14*
X165574341Y-98181217D03*
X164614341Y-98181217D03*
X176055000Y-102825000D03*
X175095000Y-102825000D03*
D15*
X178450000Y-90750000D03*
D16*
X167065000Y-86450000D03*
X168035000Y-86450000D03*
D17*
X166880000Y-100510000D03*
X166880000Y-101530000D03*
D18*
X171825000Y-89300000D03*
X173475000Y-89300000D03*
D19*
X170650000Y-88715000D03*
X170650000Y-89685000D03*
D20*
X169375000Y-87075000D03*
X172275000Y-87075000D03*
D21*
X164150000Y-90576909D03*
X164150000Y-89606909D03*
D22*
X164870000Y-101120000D03*
X165830000Y-101120000D03*
D14*
X171580000Y-90800000D03*
X170620000Y-90800000D03*
D21*
X166830000Y-99540000D03*
X166830000Y-98570000D03*
D23*
X174999999Y-95937499D03*
X175349999Y-95937499D03*
X175699999Y-95937499D03*
X176049999Y-95937499D03*
X176399999Y-95937499D03*
X174999999Y-97712499D03*
X175349999Y-97712499D03*
X175699999Y-97712499D03*
X176049999Y-97712499D03*
X176399999Y-97712499D03*
D24*
X174264999Y-95892499D03*
D25*
X173684999Y-96824999D03*
D24*
X174264999Y-97757499D03*
X177134999Y-95892499D03*
D25*
X177714999Y-96824999D03*
D24*
X177134999Y-97757499D03*
D22*
X166920000Y-87450000D03*
X167880000Y-87450000D03*
D26*
X165100000Y-89620000D03*
X165100000Y-90580000D03*
X164940000Y-99240000D03*
X164940000Y-100200000D03*
D19*
X167780000Y-98270000D03*
X167780000Y-99240000D03*
D27*
X170230000Y-103357500D03*
X169730000Y-103357500D03*
X169230000Y-103357500D03*
X168730000Y-103357500D03*
D28*
X168042500Y-102670000D03*
X168042500Y-102170000D03*
X168042500Y-101670000D03*
X168042500Y-101170000D03*
D27*
X168730000Y-100482500D03*
X169230000Y-100482500D03*
X169730000Y-100482500D03*
X170230000Y-100482500D03*
D28*
X170917500Y-101170000D03*
X170917500Y-101670000D03*
X170917500Y-102170000D03*
X170917500Y-102670000D03*
D29*
X169479999Y-101919999D03*
D30*
X166100000Y-90720000D03*
X166100000Y-88520000D03*
X167700000Y-88520000D03*
X167700000Y-90720000D03*
D31*
X163752003Y-100380375D03*
X163752003Y-98980375D03*
D17*
X174011227Y-100156601D03*
X174011227Y-101176601D03*
D26*
X169650000Y-89820000D03*
X169650000Y-90780000D03*
D32*
X173490000Y-99190000D03*
X172470000Y-99190000D03*
D14*
X163698572Y-98148521D03*
X162738572Y-98148521D03*
D22*
X166900078Y-91799010D03*
X167860078Y-91799010D03*
D33*
X168700000Y-90780000D03*
X168700000Y-89820000D03*
D14*
X165159810Y-88628342D03*
X164199810Y-88628342D03*
D15*
X175750000Y-88100000D03*
D34*
X172085453Y-104031759D03*
X173105453Y-104031759D03*
D22*
X164920000Y-102120000D03*
X165880000Y-102120000D03*
X172070000Y-102070000D03*
X173030000Y-102070000D03*
D35*
X167380000Y-97320000D03*
X166980000Y-97320000D03*
X166580000Y-97320000D03*
X166180000Y-97320000D03*
X165780000Y-97320000D03*
X165380000Y-97320000D03*
X164980000Y-97320000D03*
X164580000Y-97320000D03*
X164180000Y-97320000D03*
X163780000Y-97320000D03*
D36*
X163280000Y-96820000D03*
X163280000Y-96420000D03*
X163280000Y-96020000D03*
X163280000Y-95620000D03*
X163280000Y-95220000D03*
X163280000Y-94820000D03*
X163280000Y-94420000D03*
X163280000Y-94020000D03*
X163280000Y-93620000D03*
X163280000Y-93220000D03*
D35*
X163780000Y-92720000D03*
X164180000Y-92720000D03*
X164580000Y-92720000D03*
X164980000Y-92720000D03*
X165380000Y-92720000D03*
X165780000Y-92720000D03*
X166180000Y-92720000D03*
X166580000Y-92720000D03*
X166980000Y-92720000D03*
X167380000Y-92720000D03*
D36*
X167880000Y-93220000D03*
X167880000Y-93620000D03*
X167880000Y-94020000D03*
X167880000Y-94420000D03*
X167880000Y-94820000D03*
X167880000Y-95220000D03*
X167880000Y-95620000D03*
X167880000Y-96020000D03*
X167880000Y-96420000D03*
X167880000Y-96820000D03*
D37*
X165579999Y-95019999D03*
D22*
X172070000Y-103020000D03*
X173030000Y-103020000D03*
D26*
X165864166Y-99240000D03*
X165864166Y-100200000D03*
D38*
X174001959Y-103078670D03*
X174001959Y-102058670D03*
D34*
X172050000Y-101140000D03*
X173070000Y-101140000D03*
D14*
X165130000Y-91500000D03*
X164170000Y-91500000D03*
D22*
X172500000Y-90575000D03*
X173460000Y-90575000D03*
D33*
X161870000Y-93510000D03*
X161870000Y-92550000D03*
D39*
X173055000Y-100190000D03*
X172085000Y-100190000D03*
D32*
X171570000Y-99180000D03*
X170550000Y-99180000D03*
D26*
X166830000Y-102440000D03*
X166830000Y-103400000D03*
D22*
X162050000Y-91620000D03*
X163010000Y-91620000D03*
D40*
X169095000Y-92362500D03*
X170365000Y-92362500D03*
X171635000Y-92362500D03*
X172905000Y-92362500D03*
X172905000Y-97637500D03*
X171635000Y-97637500D03*
X170365000Y-97637500D03*
X169095000Y-97637500D03*
D41*
X170999999Y-94999999D03*
D14*
X176052732Y-101800000D03*
X175092732Y-101800000D03*
D42*
X177712500Y-98675000D03*
X177712500Y-99625000D03*
X177712500Y-100575000D03*
X175437500Y-100575000D03*
X175437500Y-98675000D03*
D22*
X168700000Y-99170000D03*
X169660000Y-99170000D03*
D34*
X168640000Y-88900000D03*
X169660000Y-88900000D03*
D43*
X176274999Y-94824999D03*
D44*
X176274999Y-94499999D03*
D43*
X175874999Y-94824999D03*
D44*
X175874999Y-94499999D03*
D43*
X175474999Y-94824999D03*
D44*
X175474999Y-94499999D03*
D43*
X175074999Y-94824999D03*
D44*
X175074999Y-94499999D03*
D43*
X174674999Y-94824999D03*
D44*
X174674999Y-94499999D03*
D43*
X174274999Y-94824999D03*
D44*
X174274999Y-94499999D03*
X174274999Y-90549999D03*
D43*
X174274999Y-90224999D03*
D44*
X174674999Y-90549999D03*
D43*
X174674999Y-90224999D03*
D44*
X175074999Y-90549999D03*
D43*
X175074999Y-90224999D03*
D44*
X175474999Y-90549999D03*
D43*
X175474999Y-90224999D03*
D44*
X175874999Y-90549999D03*
D43*
X175874999Y-90224999D03*
D44*
X176274999Y-90549999D03*
D43*
X176274999Y-90224999D03*
D45*
X173909999Y-93624999D03*
D46*
X173962499Y-93624999D03*
X176587499Y-93624999D03*
D45*
X176639999Y-93624999D03*
D47*
X174775000Y-93425000D03*
X175775000Y-93425000D03*
D48*
X174787499Y-93174999D03*
X175762499Y-93174999D03*
D47*
X174775000Y-92525000D03*
D49*
X175274999Y-92524999D03*
D47*
X175775000Y-92525000D03*
D48*
X174787499Y-91874999D03*
X175762499Y-91874999D03*
D47*
X174775000Y-91625000D03*
X175775000Y-91625000D03*
D45*
X173909999Y-91424999D03*
D46*
X173962499Y-91424999D03*
X176587499Y-91424999D03*
D45*
X176639999Y-91424999D03*
D26*
X163180000Y-89690000D03*
X163180000Y-90650000D03*
D22*
X161588577Y-96975111D03*
X162548577Y-96975111D03*
D34*
X170146193Y-104516761D03*
X171166193Y-104516761D03*
D50*
X175750000Y-88100000D03*
D51*
X164859812Y-98140188D03*
X176974773Y-102514392D03*
X175075000Y-101800000D03*
X180150000Y-92200000D03*
X162760000Y-98180000D03*
X173070000Y-101600000D03*
X162442836Y-90461363D03*
X169700000Y-98550000D03*
X164930000Y-100200000D03*
X169650000Y-89820000D03*
X179911016Y-98562057D03*
X174794755Y-103788534D03*
X165190000Y-91647017D03*
X173847847Y-104118323D03*
X179003299Y-100302672D03*
X171197360Y-104516761D03*
X166164828Y-88520000D03*
X177728879Y-101845893D03*
X167764828Y-90914500D03*
X165820000Y-101120000D03*
X174200000Y-87125000D03*
X161630000Y-97120000D03*
X177250000Y-96700000D03*
X165485188Y-93614812D03*
X179505160Y-99451662D03*
X171570000Y-99170000D03*
X174075000Y-99550000D03*
X164930000Y-101090000D03*
X163698572Y-98148521D03*
X170350000Y-92300000D03*
X167850000Y-97200000D03*
X166950000Y-91750000D03*
X162600000Y-92350000D03*
D50*
X178450000Y-90750000D03*
D51*
X171875000Y-102050000D03*
X175325000Y-96725000D03*
X163250000Y-97400000D03*
X163199979Y-92750054D03*
X173725000Y-95150000D03*
X173206347Y-95424500D03*
X162600000Y-93450000D03*
X168700000Y-94050000D03*
X174800000Y-99600000D03*
X167550000Y-100400000D03*
X171000000Y-100100000D03*
X169480000Y-103070000D03*
X173300000Y-90975000D03*
X174675000Y-95050000D03*
X176850000Y-89775000D03*
X171725000Y-90150000D03*
X173650000Y-94525000D03*
X178000000Y-93050000D03*
X179300000Y-93050000D03*
X162350000Y-95600000D03*
X170825000Y-97500000D03*
X175775000Y-95250000D03*
X162600000Y-95050000D03*
X176400000Y-95275000D03*
X171625000Y-97075000D03*
X179050000Y-98650000D03*
X162600000Y-94450000D03*
X176050500Y-96875000D03*
X168700000Y-90780000D03*
X168550000Y-94600000D03*
X165695578Y-92150000D03*
X165850000Y-91550000D03*
X169650000Y-90780000D03*
X174362500Y-98612500D03*
X162800000Y-96000000D03*
X162320999Y-96348941D03*
X176550000Y-98450000D03*
D52*
X173055000Y-100190000D02*
X173095805Y-100190000D01*
X173095805Y-100190000D02*
X174011227Y-101105422D01*
X174011227Y-101105422D02*
X174011227Y-101176601D01*
X174362500Y-98612500D02*
X174362500Y-98520860D01*
X174362500Y-98520860D02*
X175000000Y-97883360D01*
X175000000Y-97883360D02*
X175000000Y-97712500D01*
X176550000Y-98450000D02*
X176200000Y-98100000D01*
X176200000Y-98100000D02*
X175522993Y-98100000D01*
X175522993Y-98100000D02*
X175350000Y-97927007D01*
X175350000Y-97927007D02*
X175350000Y-97712500D01*
D53*
X176598376Y-99198376D02*
X176598376Y-100098376D01*
X176598376Y-100098376D02*
X177075000Y-100575000D01*
X177075000Y-100575000D02*
X177712500Y-100575000D01*
X177712500Y-98675000D02*
X177121752Y-98675000D01*
X177121752Y-98675000D02*
X176196752Y-99600000D01*
X176196752Y-99600000D02*
X174800000Y-99600000D01*
X177712500Y-98675000D02*
X177425736Y-98675000D01*
D54*
X172085453Y-104031759D02*
X171559737Y-104031759D01*
X171559737Y-104031759D02*
X170885478Y-103357500D01*
X170885478Y-103357500D02*
X170230000Y-103357500D01*
X170917500Y-102670000D02*
X170917500Y-102918750D01*
X170917500Y-102918750D02*
X171532638Y-103533888D01*
X171532638Y-103533888D02*
X173546741Y-103533888D01*
X173546741Y-103533888D02*
X174001959Y-103078670D01*
X165574341Y-98181217D02*
X165055558Y-98700000D01*
X164570180Y-98700000D02*
X164289804Y-98980376D01*
X165055558Y-98700000D02*
X164570180Y-98700000D01*
X164289804Y-98980376D02*
X163752004Y-98980376D01*
X164940000Y-99240000D02*
X165480000Y-98700000D01*
X166004341Y-98545659D02*
X166004341Y-98354021D01*
X166004341Y-98354021D02*
X166584181Y-97774181D01*
X165480000Y-98700000D02*
X165850000Y-98700000D01*
X165850000Y-98700000D02*
X166004341Y-98545659D01*
X166584181Y-97774181D02*
X166701339Y-97774181D01*
X166701339Y-97774181D02*
X166980000Y-97495520D01*
X166980000Y-97495520D02*
X166980000Y-97320000D01*
X166580000Y-97320000D02*
X166580000Y-97495520D01*
X166580000Y-97495520D02*
X165894303Y-98181217D01*
X165894303Y-98181217D02*
X165574341Y-98181217D01*
X166204341Y-98899825D02*
X166204341Y-98436863D01*
X166204341Y-98436863D02*
X166667023Y-97974181D01*
X166667023Y-97974181D02*
X166901339Y-97974181D01*
X166901339Y-97974181D02*
X167380000Y-97495520D01*
X165864166Y-99240000D02*
X166204341Y-98899825D01*
X167380000Y-97495520D02*
X167380000Y-97320000D01*
D55*
X164199810Y-88489294D02*
X164199810Y-88628342D01*
X165782272Y-86906832D02*
X164199810Y-88489294D01*
X166303066Y-86593880D02*
X165782272Y-86906832D01*
X166580798Y-86450000D02*
X166303066Y-86593880D01*
X167065000Y-86450000D02*
X166580798Y-86450000D01*
D53*
X171825000Y-89300000D02*
X172225705Y-89300000D01*
X172225705Y-89300000D02*
X173460000Y-90534295D01*
X173460000Y-90534295D02*
X173460000Y-90575000D01*
D52*
X173475000Y-89300000D02*
X174168421Y-89300000D01*
X174168421Y-89300000D02*
X174675000Y-89806579D01*
X174675000Y-89806579D02*
X174675000Y-90550000D01*
D54*
X162738572Y-98148521D02*
X162738572Y-98158572D01*
X166100000Y-88520000D02*
X166100000Y-88570000D01*
X162420000Y-91250000D02*
X162420000Y-90484199D01*
X166180000Y-95620000D02*
X165580000Y-95020000D01*
X164940000Y-100200000D02*
X164930000Y-100200000D01*
X168042500Y-101170000D02*
X168730000Y-101170000D01*
X165830000Y-101120000D02*
X165920000Y-101030000D01*
X167880000Y-95620000D02*
X166180000Y-95620000D01*
X168700000Y-89820000D02*
X168700000Y-88960000D01*
X164614341Y-98181217D02*
X164818783Y-98181217D01*
X176975000Y-88100000D02*
X175750000Y-88100000D01*
X173105453Y-104031759D02*
X173761283Y-104031759D01*
X165830000Y-101120000D02*
X165820000Y-101120000D01*
X162420000Y-90484199D02*
X162442836Y-90461363D01*
X165580000Y-95020000D02*
X165485188Y-94925188D01*
X165380000Y-92720000D02*
X165380000Y-94820000D01*
X162420000Y-91250000D02*
X162050000Y-91620000D01*
X170917500Y-101670000D02*
X169730000Y-101670000D01*
X165130520Y-92295000D02*
X165380000Y-92544480D01*
X165100000Y-92295000D02*
X165130520Y-92295000D01*
X169660000Y-99170000D02*
X169660000Y-98590000D01*
X169730000Y-101670000D02*
X169480000Y-101920000D01*
X161588577Y-97078577D02*
X161630000Y-97120000D01*
X168042500Y-102670000D02*
X168730000Y-102670000D01*
X167902500Y-101030000D02*
X168042500Y-101170000D01*
X171197360Y-104516761D02*
X171202148Y-104511973D01*
X165130000Y-91500000D02*
X165100000Y-91530000D01*
X171166193Y-104516761D02*
X171197360Y-104516761D01*
X165100000Y-91530000D02*
X165100000Y-92295000D01*
X165485188Y-94925188D02*
X165485188Y-93614812D01*
X177715000Y-97077500D02*
X177715000Y-96825000D01*
X170620000Y-90790000D02*
X170620000Y-90800000D01*
X164818783Y-98181217D02*
X164859812Y-98140188D01*
X173030000Y-101640000D02*
X173070000Y-101600000D01*
X177135000Y-97657500D02*
X177383750Y-97408750D01*
X175750000Y-88100000D02*
X174775000Y-87125000D01*
X163180000Y-89690000D02*
X162420000Y-90450000D01*
X177135000Y-97757500D02*
X177135000Y-97657500D01*
X177250000Y-96700000D02*
X177250000Y-97275000D01*
X168730000Y-102670000D02*
X169480000Y-101920000D01*
D52*
X175475000Y-93462500D02*
X175762500Y-93175000D01*
D54*
X177715000Y-96825000D02*
X177715000Y-96472500D01*
X167700000Y-90720000D02*
X167764828Y-90784828D01*
X177750000Y-88875000D02*
X176975000Y-88100000D01*
X177135000Y-97757500D02*
X176445000Y-97757500D01*
X167700000Y-90720000D02*
X167700000Y-90770000D01*
X168730000Y-101170000D02*
X169480000Y-101920000D01*
X166100000Y-88270000D02*
X166100000Y-88520000D01*
X166920000Y-87450000D02*
X166100000Y-88270000D01*
X173070000Y-101140000D02*
X173070000Y-101600000D01*
X165380000Y-92544480D02*
X165380000Y-92720000D01*
X173761283Y-104031759D02*
X173847847Y-104118323D01*
X175092732Y-101800000D02*
X175075000Y-101800000D01*
X165920000Y-101030000D02*
X167902500Y-101030000D01*
X167764828Y-90784828D02*
X167764828Y-90914500D01*
X167700000Y-90770000D02*
X167850000Y-90920000D01*
X173105453Y-104031759D02*
X172620451Y-104516761D01*
X176445000Y-97757500D02*
X176400000Y-97712500D01*
X168700000Y-88960000D02*
X168640000Y-88900000D01*
X174775000Y-87125000D02*
X174200000Y-87125000D01*
X165380000Y-94820000D02*
X165580000Y-95020000D01*
X177250000Y-97275000D02*
X177383750Y-97408750D01*
X177715000Y-96472500D02*
X177135000Y-95892500D01*
X169660000Y-98590000D02*
X169700000Y-98550000D01*
X161588577Y-96975111D02*
X161588577Y-97078577D01*
X177383750Y-97408750D02*
X177715000Y-97077500D01*
X169650000Y-89820000D02*
X170620000Y-90790000D01*
X162738572Y-98158572D02*
X162760000Y-98180000D01*
X173030000Y-102070000D02*
X173030000Y-101640000D01*
D52*
X175475000Y-94500000D02*
X175475000Y-93462500D01*
D54*
X161630000Y-97120000D02*
X161640000Y-97130000D01*
X163280000Y-94020000D02*
X162380000Y-94020000D01*
X171570000Y-99170000D02*
X171560000Y-99160000D01*
X170365000Y-92315000D02*
X170350000Y-92300000D01*
X164180000Y-97320000D02*
X164180000Y-97667093D01*
X167380000Y-92720000D02*
X168737500Y-92720000D01*
X167880000Y-97170000D02*
X167850000Y-97200000D01*
X164870000Y-101120000D02*
X164870000Y-102070000D01*
X161870000Y-93510000D02*
X162600000Y-92780000D01*
X163010000Y-91940000D02*
X162600000Y-92350000D01*
X166900990Y-91799010D02*
X166950000Y-91750000D01*
X166830000Y-102440000D02*
X166690000Y-102580000D01*
X173685000Y-96825000D02*
X173685000Y-96472500D01*
X173490000Y-99190000D02*
X173490000Y-98532500D01*
X164870000Y-101120000D02*
X164900000Y-101120000D01*
X168737500Y-92720000D02*
X169095000Y-92362500D01*
X167380000Y-92278932D02*
X166900078Y-91799010D01*
X173490000Y-98532500D02*
X174265000Y-97757500D01*
X169095000Y-92362500D02*
X170365000Y-92362500D01*
X164580000Y-97320000D02*
X163751479Y-98148521D01*
X162600000Y-92780000D02*
X162600000Y-92350000D01*
X174265000Y-97757500D02*
X173685000Y-97177500D01*
X167380000Y-92720000D02*
X167380000Y-92278932D01*
X166690000Y-102580000D02*
X165380000Y-102580000D01*
X173685000Y-96472500D02*
X174265000Y-95892500D01*
X163010000Y-91620000D02*
X163010000Y-91940000D01*
X170365000Y-92362500D02*
X170365000Y-92315000D01*
X174922500Y-99190000D02*
X173490000Y-99190000D01*
X162380000Y-94020000D02*
X161870000Y-93510000D01*
X165380000Y-102580000D02*
X164920000Y-102120000D01*
X173715000Y-99190000D02*
X174075000Y-99550000D01*
X175437500Y-98675000D02*
X174922500Y-99190000D01*
X171570000Y-99180000D02*
X171570000Y-99170000D01*
X164180000Y-97667093D02*
X163698572Y-98148521D01*
X164870000Y-102070000D02*
X164920000Y-102120000D01*
X163751479Y-98148521D02*
X163698572Y-98148521D01*
X166900078Y-91799010D02*
X166900990Y-91799010D01*
X167880000Y-96820000D02*
X167880000Y-97170000D01*
X173685000Y-97177500D02*
X173685000Y-96825000D01*
X164900000Y-101120000D02*
X164930000Y-101090000D01*
X173490000Y-99190000D02*
X173715000Y-99190000D01*
D53*
X175325000Y-96725000D02*
X175325000Y-96825000D01*
D54*
X163780000Y-97320000D02*
X163330000Y-97320000D01*
D52*
X175700000Y-97200000D02*
X175700000Y-97712500D01*
D54*
X170917500Y-101170000D02*
X171295000Y-101170000D01*
D52*
X175400000Y-96725000D02*
X175700000Y-96425000D01*
D54*
X172070000Y-102070000D02*
X172070000Y-103020000D01*
X171295000Y-101170000D02*
X172070000Y-101945000D01*
X163330000Y-97320000D02*
X163250000Y-97400000D01*
D52*
X175325000Y-96725000D02*
X175400000Y-96725000D01*
D54*
X172070000Y-102070000D02*
X171895000Y-102070000D01*
D52*
X175700000Y-96425000D02*
X175700000Y-95937500D01*
D54*
X172070000Y-101945000D02*
X172070000Y-102070000D01*
D52*
X175325000Y-96825000D02*
X175700000Y-97200000D01*
D54*
X171895000Y-102070000D02*
X171875000Y-102050000D01*
X170650000Y-89685000D02*
X171050000Y-90085000D01*
X171050000Y-90085000D02*
X171050000Y-92914264D01*
X167985000Y-93325000D02*
X167880000Y-93220000D01*
X170639264Y-93325000D02*
X167985000Y-93325000D01*
X171050000Y-92914264D02*
X170639264Y-93325000D01*
X169660000Y-88900000D02*
X170465000Y-88900000D01*
X170465000Y-88900000D02*
X170650000Y-88715000D01*
X175100000Y-95425000D02*
X174000000Y-95425000D01*
X174000000Y-95425000D02*
X173725000Y-95150000D01*
X163280000Y-93220000D02*
X163280000Y-92830075D01*
X175350000Y-95675000D02*
X175100000Y-95425000D01*
X175350000Y-95937500D02*
X175350000Y-95675000D01*
X163280000Y-92830075D02*
X163199979Y-92750054D01*
X173406847Y-95625000D02*
X173206347Y-95424500D01*
X162770000Y-93620000D02*
X162600000Y-93450000D01*
X163280000Y-93620000D02*
X162770000Y-93620000D01*
X174790000Y-95625000D02*
X173406847Y-95625000D01*
X175000000Y-95937500D02*
X175000000Y-95835000D01*
X175000000Y-95835000D02*
X174790000Y-95625000D01*
X168670000Y-94020000D02*
X168700000Y-94050000D01*
X167880000Y-94020000D02*
X168670000Y-94020000D01*
D53*
X177277732Y-100575000D02*
X176052732Y-101800000D01*
D54*
X169730000Y-100170000D02*
X170040000Y-99860000D01*
X170040000Y-99860000D02*
X170760000Y-99860000D01*
X169730000Y-100482500D02*
X169730000Y-100170000D01*
X167440000Y-100510000D02*
X167550000Y-100400000D01*
X170760000Y-99860000D02*
X171000000Y-100100000D01*
X171995000Y-100100000D02*
X171000000Y-100100000D01*
X166880000Y-100510000D02*
X167440000Y-100510000D01*
D53*
X176052732Y-101800000D02*
X176052732Y-102822732D01*
D54*
X172085000Y-100190000D02*
X171995000Y-100100000D01*
D53*
X176052732Y-102822732D02*
X176055000Y-102825000D01*
D54*
X169230000Y-100482500D02*
X169730000Y-100482500D01*
D53*
X177712500Y-100575000D02*
X177277732Y-100575000D01*
D54*
X169480000Y-103107500D02*
X169730000Y-103357500D01*
X169480000Y-103107500D02*
X169230000Y-103357500D01*
X169480000Y-103070000D02*
X169480000Y-103107500D01*
D56*
X173460000Y-90575000D02*
X173460000Y-90815000D01*
D52*
X174250000Y-90575000D02*
X174275000Y-90550000D01*
D56*
X173460000Y-90815000D02*
X173300000Y-90975000D01*
D52*
X173460000Y-90575000D02*
X174250000Y-90575000D01*
D54*
X177071178Y-89553822D02*
X176850000Y-89775000D01*
X174675000Y-95050000D02*
X174675000Y-94500000D01*
X172850000Y-88675000D02*
X173475000Y-89300000D01*
X171580000Y-90800000D02*
X171275000Y-90495000D01*
D52*
X178716087Y-94711271D02*
X178716087Y-93646926D01*
X178716087Y-94711271D02*
X178716087Y-93633913D01*
X178716087Y-93646926D02*
X179171757Y-93191256D01*
D54*
X171580000Y-90295000D02*
X171725000Y-90150000D01*
D52*
X178716087Y-93766087D02*
X178000000Y-93050000D01*
X174275000Y-94500000D02*
X173675000Y-94500000D01*
D54*
X171480025Y-88675000D02*
X172850000Y-88675000D01*
D52*
X173675000Y-94500000D02*
X173650000Y-94525000D01*
D54*
X171580000Y-90800000D02*
X171580000Y-90295000D01*
D52*
X178716087Y-94711271D02*
X178716087Y-93766087D01*
D54*
X171275000Y-90495000D02*
X171275000Y-88880025D01*
D52*
X178716087Y-93633913D02*
X179300000Y-93050000D01*
X178000000Y-93050000D02*
X178000000Y-93000000D01*
D54*
X171275000Y-88880025D02*
X171480025Y-88675000D01*
D55*
X168880000Y-86450000D02*
X169480000Y-87050000D01*
X168035000Y-86450000D02*
X168880000Y-86450000D01*
D54*
X170365000Y-98995000D02*
X170365000Y-97637500D01*
D52*
X175775000Y-95250000D02*
X175875000Y-95150000D01*
D54*
X162350000Y-95600000D02*
X162370000Y-95620000D01*
X170550000Y-99180000D02*
X170365000Y-98995000D01*
X175775000Y-95250000D02*
X176050000Y-95525000D01*
X176050000Y-95525000D02*
X176050000Y-95937500D01*
X170825000Y-97500000D02*
X170687500Y-97637500D01*
D52*
X175875000Y-95150000D02*
X175875000Y-94500000D01*
D54*
X170365000Y-97637500D02*
X170687500Y-97637500D01*
X162370000Y-95620000D02*
X163280000Y-95620000D01*
D52*
X176400000Y-95275000D02*
X176275000Y-95150000D01*
X176275000Y-95150000D02*
X176275000Y-94500000D01*
D54*
X162600000Y-95050000D02*
X162770000Y-95220000D01*
X162770000Y-95220000D02*
X163280000Y-95220000D01*
X176400000Y-95275000D02*
X176400000Y-95937500D01*
X171625000Y-97075000D02*
X171635000Y-97085000D01*
X172470000Y-99190000D02*
X171635000Y-98355000D01*
X171635000Y-97085000D02*
X171635000Y-97637500D01*
X171635000Y-98355000D02*
X171635000Y-97637500D01*
X169226761Y-104516761D02*
X168730000Y-104020000D01*
X170146193Y-104516761D02*
X169226761Y-104516761D01*
X168730000Y-104020000D02*
X168730000Y-103357500D01*
D52*
X176050000Y-96875500D02*
X176050000Y-97712500D01*
D54*
X163280000Y-94820000D02*
X162970000Y-94820000D01*
D52*
X176050500Y-96875000D02*
X176050000Y-96875500D01*
D54*
X162970000Y-94820000D02*
X162600000Y-94450000D01*
X179050000Y-98675000D02*
X179050000Y-98650000D01*
X164940000Y-99240000D02*
X163799624Y-100380376D01*
X163799624Y-100380376D02*
X163752004Y-100380376D01*
X162703688Y-96820000D02*
X162548577Y-96975111D01*
X163280000Y-96820000D02*
X162703688Y-96820000D01*
X167780000Y-98270000D02*
X168505000Y-97545000D01*
X168700000Y-99190000D02*
X168700000Y-99270000D01*
X165780000Y-92720000D02*
X165780000Y-92234422D01*
X167880000Y-96020000D02*
X168380000Y-96020000D01*
X165780000Y-92234422D02*
X165695578Y-92150000D01*
X168505000Y-96145000D02*
X168380000Y-96020000D01*
X168380000Y-96020000D02*
X168550000Y-95850000D01*
X168550000Y-95850000D02*
X168550000Y-94600000D01*
X167780000Y-98270000D02*
X168700000Y-99190000D01*
X168505000Y-97545000D02*
X168505000Y-96145000D01*
X163505048Y-90975048D02*
X163505048Y-92445048D01*
X163180000Y-90650000D02*
X163505048Y-90975048D01*
X163505048Y-92445048D02*
X163780000Y-92720000D01*
D55*
X164150000Y-90576909D02*
X164150000Y-91480000D01*
D54*
X164170000Y-91500000D02*
X164170000Y-91655000D01*
X164170000Y-91655000D02*
X164980000Y-92465000D01*
D55*
X164150000Y-91480000D02*
X164170000Y-91500000D01*
D54*
X164980000Y-92465000D02*
X164980000Y-92720000D01*
X166639956Y-92259010D02*
X166470078Y-92089132D01*
X166470078Y-92089132D02*
X166470078Y-91508888D01*
X166940000Y-91038966D02*
X166940000Y-89280000D01*
X166980000Y-92720000D02*
X166980000Y-92470000D01*
X166769010Y-92259010D02*
X166639956Y-92259010D01*
X166980000Y-92470000D02*
X166769010Y-92259010D01*
X166940000Y-89280000D02*
X167700000Y-88520000D01*
X166470078Y-91508888D02*
X166940000Y-91038966D01*
X167700000Y-87630000D02*
X167880000Y-87450000D01*
X167700000Y-88520000D02*
X167700000Y-87630000D01*
X166100000Y-90720000D02*
X165960000Y-90580000D01*
X166270078Y-90890078D02*
X166270078Y-92234558D01*
X166100000Y-90720000D02*
X166270078Y-90890078D01*
X165960000Y-90580000D02*
X165100000Y-90580000D01*
X166580000Y-92544480D02*
X166580000Y-92720000D01*
X166270078Y-92234558D02*
X166580000Y-92544480D01*
X166070078Y-92610078D02*
X166070078Y-91770078D01*
X166180000Y-92720000D02*
X166070078Y-92610078D01*
X166070078Y-91770078D02*
X165850000Y-91550000D01*
D55*
X164150000Y-88678152D02*
X164199810Y-88628342D01*
X164150000Y-89606909D02*
X164150000Y-88678152D01*
D54*
X167480000Y-99540000D02*
X167780000Y-99240000D01*
X166830000Y-99540000D02*
X167480000Y-99540000D01*
X168305000Y-96595000D02*
X168130000Y-96420000D01*
X167384181Y-97774181D02*
X167975819Y-97774181D01*
X167975819Y-97774181D02*
X168305000Y-97445000D01*
X166830000Y-98570000D02*
X166830000Y-98328362D01*
X166830000Y-98328362D02*
X167384181Y-97774181D01*
X168130000Y-96420000D02*
X167880000Y-96420000D01*
X168305000Y-97445000D02*
X168305000Y-96595000D01*
X170230000Y-100482500D02*
X171392500Y-100482500D01*
X171392500Y-100482500D02*
X172050000Y-101140000D01*
X167520000Y-102170000D02*
X166880000Y-101530000D01*
X168042500Y-102170000D02*
X167520000Y-102170000D01*
X173514626Y-99660000D02*
X174011227Y-100156601D01*
X168730000Y-100244480D02*
X169314480Y-99660000D01*
X169314480Y-99660000D02*
X173514626Y-99660000D01*
X168730000Y-100482500D02*
X168730000Y-100244480D01*
X162800000Y-96000000D02*
X162820000Y-96020000D01*
X162820000Y-96020000D02*
X163280000Y-96020000D01*
X162392058Y-96420000D02*
X163280000Y-96420000D01*
X162320999Y-96348941D02*
X162392058Y-96420000D01*
G04 #@! TA.AperFunction,Conductor*
G36*
X171656724Y-104281403D02*
G01*
X171701372Y-104321870D01*
X171759038Y-104408174D01*
X171846860Y-104466854D01*
X171924306Y-104482259D01*
X172246599Y-104482258D01*
X172324046Y-104466854D01*
X172411868Y-104408174D01*
X172453339Y-104346106D01*
X172502204Y-104303487D01*
X172565900Y-104291357D01*
X172627010Y-104313034D01*
X172668824Y-104362591D01*
X172687219Y-104402040D01*
X172699474Y-104419541D01*
X172767670Y-104487737D01*
X172785171Y-104499992D01*
X172873814Y-104541327D01*
X172891815Y-104546574D01*
X172931198Y-104551759D01*
X172931088Y-104552586D01*
X172982459Y-104568671D01*
X173024057Y-104609792D01*
X173042177Y-104665406D01*
X173032787Y-104723139D01*
X172997978Y-104770145D01*
X172945494Y-104795965D01*
X172869600Y-104812864D01*
X172861997Y-104814309D01*
X172253842Y-104910377D01*
X172246164Y-104911346D01*
X171756151Y-104957667D01*
X171697003Y-104948767D01*
X171648902Y-104913215D01*
X171623040Y-104859281D01*
X171625436Y-104799515D01*
X171630277Y-104782907D01*
X171628388Y-104770633D01*
X171615101Y-104766761D01*
X171040193Y-104766761D01*
X170978193Y-104750148D01*
X170932806Y-104704761D01*
X170916193Y-104642761D01*
X170916193Y-104390761D01*
X170932806Y-104328761D01*
X170978193Y-104283374D01*
X171040193Y-104266761D01*
X171598270Y-104266761D01*
X171656724Y-104281403D01*
G37*
G04 #@! TD.AperFunction*
G04 #@! TA.AperFunction,Conductor*
G36*
X168105500Y-102561613D02*
G01*
X168150887Y-102607000D01*
X168167500Y-102669000D01*
X168167500Y-102978674D01*
X168170950Y-102991549D01*
X168183826Y-102995000D01*
X168350500Y-102995000D01*
X168412500Y-103011613D01*
X168457887Y-103057000D01*
X168474500Y-103119000D01*
X168474500Y-103751508D01*
X168475688Y-103757483D01*
X168475689Y-103757488D01*
X168480517Y-103781759D01*
X168485698Y-103807805D01*
X168492481Y-103817957D01*
X168492482Y-103817958D01*
X168528355Y-103871645D01*
X168526430Y-103872930D01*
X168540061Y-103893330D01*
X168549500Y-103940783D01*
X168549500Y-103992328D01*
X168547469Y-104014679D01*
X168544437Y-104031225D01*
X168548916Y-104045600D01*
X168548917Y-104045603D01*
X168554934Y-104064913D01*
X168556945Y-104072126D01*
X168562767Y-104095749D01*
X168562769Y-104095753D01*
X168565392Y-104106393D01*
X168569200Y-104110692D01*
X168570909Y-104116174D01*
X168578661Y-104123926D01*
X168595852Y-104141117D01*
X168600986Y-104146570D01*
X168624396Y-104172994D01*
X168624311Y-104173068D01*
X168627880Y-104176914D01*
X168629765Y-104175030D01*
X169005468Y-104550733D01*
X169037275Y-104605269D01*
X169038107Y-104668397D01*
X169007749Y-104723753D01*
X168954071Y-104756987D01*
X168890986Y-104759483D01*
X168541362Y-104682087D01*
X168533862Y-104680179D01*
X167942179Y-104509860D01*
X167934812Y-104507488D01*
X167354911Y-104300592D01*
X167347707Y-104297766D01*
X166928430Y-104117963D01*
X166876265Y-104075885D01*
X166853615Y-104012807D01*
X166867098Y-103947157D01*
X166912775Y-103898112D01*
X166977302Y-103880000D01*
X167035787Y-103880000D01*
X167043859Y-103879470D01*
X167079951Y-103874719D01*
X167097952Y-103869472D01*
X167188193Y-103827392D01*
X167205694Y-103815137D01*
X167275135Y-103745696D01*
X167287393Y-103728190D01*
X167317244Y-103664173D01*
X167319367Y-103652858D01*
X167308216Y-103650000D01*
X166351784Y-103650000D01*
X166339172Y-103653232D01*
X166335332Y-103664964D01*
X166307155Y-103712033D01*
X166261427Y-103742339D01*
X166207099Y-103749950D01*
X166154804Y-103733376D01*
X165782898Y-103515488D01*
X165687122Y-103459376D01*
X165680584Y-103455266D01*
X165169764Y-103111478D01*
X165163481Y-103106958D01*
X165155127Y-103100544D01*
X164741368Y-102782852D01*
X164703593Y-102734907D01*
X164693269Y-102674748D01*
X164712898Y-102616952D01*
X164757724Y-102575523D01*
X164816885Y-102560500D01*
X165053873Y-102560500D01*
X165101326Y-102569939D01*
X165141554Y-102596819D01*
X165232797Y-102688062D01*
X165247162Y-102705297D01*
X165256724Y-102719150D01*
X165270052Y-102726145D01*
X165270056Y-102726148D01*
X165287984Y-102735557D01*
X165294511Y-102739238D01*
X165324693Y-102757484D01*
X165330424Y-102757830D01*
X165335511Y-102760500D01*
X165370808Y-102760500D01*
X165378293Y-102760725D01*
X165413510Y-102762856D01*
X165413502Y-102762976D01*
X165418745Y-102763175D01*
X165418745Y-102760500D01*
X166381451Y-102760500D01*
X166441567Y-102776047D01*
X166486608Y-102818789D01*
X166505281Y-102878008D01*
X166492903Y-102938855D01*
X166460997Y-102976213D01*
X166461976Y-102977192D01*
X166384864Y-103054303D01*
X166372606Y-103071809D01*
X166342755Y-103135826D01*
X166340632Y-103147141D01*
X166351784Y-103150000D01*
X167308216Y-103150000D01*
X167319367Y-103147141D01*
X167317245Y-103135828D01*
X167283782Y-103064066D01*
X167273088Y-102996549D01*
X167299798Y-102933625D01*
X167355794Y-102894417D01*
X167424058Y-102890839D01*
X167483845Y-102923980D01*
X167488401Y-102928536D01*
X167554923Y-102972985D01*
X167577055Y-102982152D01*
X167635663Y-102993810D01*
X167647740Y-102995000D01*
X167901174Y-102995000D01*
X167914049Y-102991549D01*
X167917500Y-102978674D01*
X167917500Y-102669000D01*
X167934113Y-102607000D01*
X167979500Y-102561613D01*
X168041500Y-102545000D01*
X168043500Y-102545000D01*
X168105500Y-102561613D01*
G37*
G04 #@! TD.AperFunction*
G04 #@! TA.AperFunction,Conductor*
G36*
X176392818Y-100308618D02*
G01*
X176442181Y-100338868D01*
X176691998Y-100588685D01*
X176724092Y-100644272D01*
X176724092Y-100708460D01*
X176691998Y-100764047D01*
X176132864Y-101323181D01*
X176092636Y-101350061D01*
X176045183Y-101359500D01*
X175886092Y-101359500D01*
X175880117Y-101360688D01*
X175880111Y-101360689D01*
X175819166Y-101372812D01*
X175819164Y-101372812D01*
X175807188Y-101375195D01*
X175797037Y-101381977D01*
X175797034Y-101381979D01*
X175727868Y-101428195D01*
X175727866Y-101428196D01*
X175717713Y-101434981D01*
X175710928Y-101445134D01*
X175704567Y-101451496D01*
X175659295Y-101480336D01*
X175606077Y-101487341D01*
X175554885Y-101471199D01*
X175515311Y-101434934D01*
X175507868Y-101424304D01*
X175438428Y-101354864D01*
X175420922Y-101342606D01*
X175356905Y-101312755D01*
X175345590Y-101310632D01*
X175342732Y-101321784D01*
X175342732Y-102266235D01*
X175343293Y-102270502D01*
X175346032Y-102281187D01*
X175346032Y-102342754D01*
X175345000Y-102346781D01*
X175345000Y-103303216D01*
X175347858Y-103314367D01*
X175359173Y-103312244D01*
X175423190Y-103282393D01*
X175440696Y-103270135D01*
X175510133Y-103200698D01*
X175517577Y-103190067D01*
X175557151Y-103153801D01*
X175608345Y-103137658D01*
X175661564Y-103144664D01*
X175706836Y-103173505D01*
X175713196Y-103179865D01*
X175719981Y-103190019D01*
X175809456Y-103249805D01*
X175888360Y-103265500D01*
X175894456Y-103265500D01*
X176186287Y-103265500D01*
X176248124Y-103282019D01*
X176293485Y-103327174D01*
X176310286Y-103388935D01*
X176294049Y-103450846D01*
X176249101Y-103496413D01*
X175792460Y-103764703D01*
X175785669Y-103768413D01*
X175236378Y-104046591D01*
X175229368Y-104049870D01*
X174663802Y-104293237D01*
X174656601Y-104296073D01*
X174076946Y-104503689D01*
X174069582Y-104506070D01*
X173625367Y-104634534D01*
X173560718Y-104635681D01*
X173504280Y-104604126D01*
X173471400Y-104548450D01*
X173471019Y-104483791D01*
X173503241Y-104427731D01*
X173511432Y-104419539D01*
X173523686Y-104402040D01*
X173565019Y-104313400D01*
X173569536Y-104297904D01*
X173567648Y-104285631D01*
X173554361Y-104281759D01*
X172979453Y-104281759D01*
X172917453Y-104265146D01*
X172872066Y-104219759D01*
X172855453Y-104157759D01*
X172855453Y-103838388D01*
X172872066Y-103776388D01*
X172917453Y-103731001D01*
X172979453Y-103714388D01*
X173246627Y-103714388D01*
X173299033Y-103726006D01*
X173341618Y-103758684D01*
X173345162Y-103765493D01*
X173357639Y-103777970D01*
X173371779Y-103781759D01*
X173554361Y-103781759D01*
X173569290Y-103777407D01*
X173570555Y-103775964D01*
X173585746Y-103736953D01*
X173623545Y-103700859D01*
X173633134Y-103698496D01*
X173637433Y-103694687D01*
X173642915Y-103692979D01*
X173667888Y-103668004D01*
X173673307Y-103662904D01*
X173699735Y-103639492D01*
X173699735Y-103639491D01*
X173699737Y-103639490D01*
X173699816Y-103639579D01*
X173703661Y-103636012D01*
X173701771Y-103634122D01*
X173820405Y-103515488D01*
X173860633Y-103488608D01*
X173908086Y-103479169D01*
X174207015Y-103479169D01*
X174213105Y-103479169D01*
X174290552Y-103463765D01*
X174378374Y-103405085D01*
X174437054Y-103317263D01*
X174452181Y-103241213D01*
X174476085Y-103189063D01*
X174520904Y-103153252D01*
X174577044Y-103141448D01*
X174632490Y-103156175D01*
X174675373Y-103194282D01*
X174679864Y-103200696D01*
X174749303Y-103270135D01*
X174766809Y-103282393D01*
X174830826Y-103312244D01*
X174842141Y-103314367D01*
X174845000Y-103303216D01*
X174845000Y-102358765D01*
X174844438Y-102354502D01*
X174841700Y-102343817D01*
X174841701Y-102282238D01*
X174842732Y-102278216D01*
X174842732Y-101321784D01*
X174839873Y-101310632D01*
X174828558Y-101312755D01*
X174764541Y-101342606D01*
X174747038Y-101354861D01*
X174673073Y-101428827D01*
X174621384Y-101459807D01*
X174561194Y-101462761D01*
X174506720Y-101436992D01*
X174470826Y-101388586D01*
X174463291Y-101337748D01*
X174461727Y-101337748D01*
X174461726Y-101021544D01*
X174461726Y-101015455D01*
X174447751Y-100945193D01*
X174448253Y-100934559D01*
X174437576Y-100924919D01*
X174436917Y-100923933D01*
X174387642Y-100850186D01*
X174299820Y-100791506D01*
X174283289Y-100788217D01*
X174223310Y-100757656D01*
X174188137Y-100700258D01*
X174188138Y-100632940D01*
X174223313Y-100575543D01*
X174283294Y-100544983D01*
X174283422Y-100544957D01*
X174299820Y-100541696D01*
X174387642Y-100483016D01*
X174417396Y-100438484D01*
X174464205Y-100396889D01*
X174525368Y-100383470D01*
X174585290Y-100401646D01*
X174628689Y-100446785D01*
X174644500Y-100507374D01*
X174644500Y-100766880D01*
X174644910Y-100770418D01*
X174644911Y-100770427D01*
X174646145Y-100781067D01*
X174646146Y-100781073D01*
X174647221Y-100790333D01*
X174654115Y-100805946D01*
X174660204Y-100841759D01*
X174682802Y-100870917D01*
X174689580Y-100886267D01*
X174763733Y-100960420D01*
X174859667Y-101002779D01*
X174868931Y-101003853D01*
X174868932Y-101003854D01*
X174870878Y-101004079D01*
X174883120Y-101005500D01*
X175988306Y-101005500D01*
X175991880Y-101005500D01*
X176015333Y-101002779D01*
X176111267Y-100960420D01*
X176185420Y-100886267D01*
X176227779Y-100790333D01*
X176230500Y-100766880D01*
X176230500Y-100426549D01*
X176244015Y-100370254D01*
X176281615Y-100326231D01*
X176335102Y-100304076D01*
X176392818Y-100308618D01*
G37*
G04 #@! TD.AperFunction*
G04 #@! TA.AperFunction,Conductor*
G36*
X173258000Y-100906613D02*
G01*
X173303387Y-100952000D01*
X173320000Y-101014000D01*
X173320000Y-101614613D01*
X173310561Y-101662066D01*
X173283812Y-101702096D01*
X173280000Y-101716326D01*
X173280000Y-101803674D01*
X173283450Y-101816549D01*
X173296326Y-101820000D01*
X173425633Y-101820000D01*
X173452149Y-101812895D01*
X173484243Y-101808670D01*
X174127959Y-101808670D01*
X174189959Y-101825283D01*
X174235346Y-101870670D01*
X174251959Y-101932670D01*
X174251959Y-102184670D01*
X174235346Y-102246670D01*
X174189959Y-102292057D01*
X174127959Y-102308670D01*
X173566326Y-102308670D01*
X173539810Y-102315775D01*
X173536824Y-102316168D01*
X173536092Y-102316355D01*
X173535480Y-102316344D01*
X173507716Y-102320000D01*
X173506236Y-102320000D01*
X173506236Y-102315862D01*
X173504713Y-102315837D01*
X173504713Y-102320000D01*
X173296326Y-102320000D01*
X173283450Y-102323450D01*
X173280000Y-102336326D01*
X173280000Y-103229388D01*
X173263387Y-103291388D01*
X173218000Y-103336775D01*
X173156000Y-103353388D01*
X172904000Y-103353388D01*
X172842000Y-103336775D01*
X172796613Y-103291388D01*
X172780000Y-103229388D01*
X172780000Y-101605387D01*
X172789439Y-101557934D01*
X172816187Y-101517903D01*
X172820000Y-101503674D01*
X172820000Y-101014000D01*
X172836613Y-100952000D01*
X172882000Y-100906613D01*
X172944000Y-100890000D01*
X173196000Y-100890000D01*
X173258000Y-100906613D01*
G37*
G04 #@! TD.AperFunction*
G04 #@! TA.AperFunction,Conductor*
G36*
X180129750Y-98149748D02*
G01*
X180130146Y-98148188D01*
X180144894Y-98151921D01*
X180145171Y-98152700D01*
X180153024Y-98156439D01*
X180155155Y-98155682D01*
X180303878Y-98163354D01*
X180359055Y-98179553D01*
X180400993Y-98218907D01*
X180420666Y-98272948D01*
X180413842Y-98330052D01*
X180262692Y-98740353D01*
X180259791Y-98747528D01*
X180011330Y-99310872D01*
X180007988Y-99317852D01*
X179724864Y-99864611D01*
X179721093Y-99871369D01*
X179404406Y-100399414D01*
X179400220Y-100405923D01*
X179051228Y-100913157D01*
X179046645Y-100919393D01*
X178666674Y-101403891D01*
X178661710Y-101409829D01*
X178252262Y-101869673D01*
X178246938Y-101875289D01*
X177809601Y-102308696D01*
X177803936Y-102313969D01*
X177340413Y-102719252D01*
X177334431Y-102724162D01*
X176846535Y-103099736D01*
X176840258Y-103104263D01*
X176634257Y-103243275D01*
X176575076Y-103264070D01*
X176513290Y-103253240D01*
X176464710Y-103213556D01*
X176441769Y-103155174D01*
X176449169Y-103101495D01*
X176449805Y-103100544D01*
X176465500Y-103021640D01*
X176465500Y-102628360D01*
X176449805Y-102549456D01*
X176390019Y-102459981D01*
X176379865Y-102453196D01*
X176371229Y-102444560D01*
X176373407Y-102442381D01*
X176347876Y-102414216D01*
X176333232Y-102355758D01*
X176333232Y-102267531D01*
X176342671Y-102220078D01*
X176369551Y-102179850D01*
X176377596Y-102171804D01*
X176387751Y-102165019D01*
X176447537Y-102075544D01*
X176463232Y-101996640D01*
X176463232Y-101837549D01*
X176472671Y-101790096D01*
X176499551Y-101749868D01*
X177207600Y-101041819D01*
X177247828Y-101014939D01*
X177295281Y-101005500D01*
X178263306Y-101005500D01*
X178266880Y-101005500D01*
X178290333Y-101002779D01*
X178386267Y-100960420D01*
X178460420Y-100886267D01*
X178502779Y-100790333D01*
X178505500Y-100766880D01*
X178505500Y-100383120D01*
X178502779Y-100359667D01*
X178460420Y-100263733D01*
X178433512Y-100236825D01*
X178401418Y-100181238D01*
X178401418Y-100117050D01*
X178433512Y-100061463D01*
X178506517Y-99988457D01*
X178518300Y-99971953D01*
X178560858Y-99884900D01*
X178562698Y-99878946D01*
X178562584Y-99877321D01*
X178551923Y-99875000D01*
X177586500Y-99875000D01*
X177524500Y-99858387D01*
X177479113Y-99813000D01*
X177462500Y-99751000D01*
X177462500Y-99499000D01*
X177479113Y-99437000D01*
X177524500Y-99391613D01*
X177586500Y-99375000D01*
X178551923Y-99375000D01*
X178562584Y-99372678D01*
X178562698Y-99371053D01*
X178560860Y-99365105D01*
X178550070Y-99343034D01*
X178537558Y-99283904D01*
X178554483Y-99225884D01*
X178596825Y-99182756D01*
X178654525Y-99164767D01*
X178713874Y-99176190D01*
X178754541Y-99195153D01*
X178754542Y-99195153D01*
X178763141Y-99199163D01*
X178811276Y-99205500D01*
X179284671Y-99205500D01*
X179288724Y-99205500D01*
X179336859Y-99199163D01*
X179442491Y-99149906D01*
X179524906Y-99067491D01*
X179574163Y-98961859D01*
X179580500Y-98913724D01*
X179580500Y-98436276D01*
X179574163Y-98388141D01*
X179570153Y-98379541D01*
X179567362Y-98373555D01*
X179556126Y-98311421D01*
X179576944Y-98251810D01*
X179624416Y-98210179D01*
X179686230Y-98197321D01*
X179873437Y-98207133D01*
X179921837Y-98203324D01*
X180029903Y-98159663D01*
X180031876Y-98157886D01*
X180085049Y-98140982D01*
X180129750Y-98149748D01*
G37*
G04 #@! TD.AperFunction*
G04 #@! TA.AperFunction,Conductor*
G36*
X166052166Y-99966613D02*
G01*
X166097553Y-100012000D01*
X166114166Y-100074000D01*
X166114166Y-100640447D01*
X166104727Y-100687900D01*
X166085108Y-100717260D01*
X166080000Y-100736326D01*
X166080000Y-100853674D01*
X166083450Y-100866549D01*
X166096326Y-100870000D01*
X166287010Y-100870000D01*
X166301940Y-100865648D01*
X166322217Y-100842526D01*
X166322517Y-100841867D01*
X166323196Y-100841409D01*
X166323867Y-100840645D01*
X166324068Y-100840821D01*
X166378496Y-100804165D01*
X166445930Y-100801367D01*
X166500582Y-100831921D01*
X166503585Y-100836415D01*
X166591407Y-100895095D01*
X166607933Y-100898382D01*
X166667912Y-100928940D01*
X166703087Y-100986336D01*
X166703090Y-101053653D01*
X166667919Y-101111051D01*
X166607941Y-101141615D01*
X166603391Y-101142520D01*
X166603384Y-101142522D01*
X166591407Y-101144905D01*
X166581253Y-101151689D01*
X166581252Y-101151690D01*
X166513737Y-101196801D01*
X166513734Y-101196803D01*
X166503585Y-101203585D01*
X166496803Y-101213734D01*
X166496801Y-101213737D01*
X166451687Y-101281256D01*
X166451686Y-101281258D01*
X166444905Y-101291407D01*
X166442859Y-101301689D01*
X166408139Y-101348683D01*
X166354202Y-101374554D01*
X166294428Y-101372162D01*
X166287010Y-101370000D01*
X166096326Y-101370000D01*
X166083450Y-101373450D01*
X166080000Y-101386326D01*
X166080000Y-101553674D01*
X166083788Y-101567813D01*
X166093681Y-101577706D01*
X166120561Y-101617934D01*
X166130000Y-101665387D01*
X166130000Y-102246000D01*
X166113387Y-102308000D01*
X166068000Y-102353387D01*
X166006000Y-102370000D01*
X165754000Y-102370000D01*
X165692000Y-102353387D01*
X165646613Y-102308000D01*
X165630000Y-102246000D01*
X165630000Y-101686326D01*
X165626211Y-101672186D01*
X165616319Y-101662294D01*
X165589439Y-101622066D01*
X165580000Y-101574613D01*
X165580000Y-100649553D01*
X165589439Y-100602100D01*
X165609057Y-100572739D01*
X165614166Y-100553674D01*
X165614166Y-100466326D01*
X165610715Y-100453450D01*
X165597840Y-100450000D01*
X164814000Y-100450000D01*
X164752000Y-100433387D01*
X164706613Y-100388000D01*
X164690000Y-100326000D01*
X164690000Y-100074000D01*
X164706613Y-100012000D01*
X164752000Y-99966613D01*
X164814000Y-99950000D01*
X165990166Y-99950000D01*
X166052166Y-99966613D01*
G37*
G04 #@! TD.AperFunction*
G04 #@! TA.AperFunction,Conductor*
G36*
X168323529Y-99506820D02*
G01*
X168362814Y-99531776D01*
X168364981Y-99535019D01*
X168454456Y-99594805D01*
X168533360Y-99610500D01*
X168539456Y-99610500D01*
X168809352Y-99610500D01*
X168865647Y-99624015D01*
X168909670Y-99661614D01*
X168931825Y-99715101D01*
X168927283Y-99772817D01*
X168897034Y-99822180D01*
X168841035Y-99878180D01*
X168800806Y-99905061D01*
X168753353Y-99914500D01*
X168648492Y-99914500D01*
X168642517Y-99915688D01*
X168642511Y-99915689D01*
X168604173Y-99923315D01*
X168604170Y-99923315D01*
X168592195Y-99925698D01*
X168582043Y-99932480D01*
X168582041Y-99932482D01*
X168538508Y-99961570D01*
X168538505Y-99961572D01*
X168528355Y-99968355D01*
X168521572Y-99978505D01*
X168521570Y-99978508D01*
X168492482Y-100022041D01*
X168492480Y-100022043D01*
X168485698Y-100032195D01*
X168483315Y-100044170D01*
X168483315Y-100044173D01*
X168475689Y-100082511D01*
X168475688Y-100082517D01*
X168474500Y-100088492D01*
X168474500Y-100094588D01*
X168474500Y-100721000D01*
X168457887Y-100783000D01*
X168412500Y-100828387D01*
X168350500Y-100845000D01*
X168183826Y-100845000D01*
X168170950Y-100848450D01*
X168167500Y-100861326D01*
X168167500Y-101171000D01*
X168150887Y-101233000D01*
X168105500Y-101278387D01*
X168043500Y-101295000D01*
X168041500Y-101295000D01*
X167979500Y-101278387D01*
X167934113Y-101233000D01*
X167917500Y-101171000D01*
X167917500Y-100861326D01*
X167914049Y-100848450D01*
X167885406Y-100840775D01*
X167885654Y-100839848D01*
X167850819Y-100831485D01*
X167806796Y-100793885D01*
X167784641Y-100740398D01*
X167789183Y-100682682D01*
X167819433Y-100633319D01*
X167819812Y-100632940D01*
X167841190Y-100611562D01*
X167892315Y-100511225D01*
X167909931Y-100400000D01*
X167892315Y-100288775D01*
X167841190Y-100188438D01*
X167761562Y-100108810D01*
X167733650Y-100094588D01*
X167669924Y-100062117D01*
X167669921Y-100062116D01*
X167661225Y-100057685D01*
X167651586Y-100056158D01*
X167651582Y-100056157D01*
X167559641Y-100041596D01*
X167550000Y-100040069D01*
X167540359Y-100041596D01*
X167448417Y-100056157D01*
X167448411Y-100056158D01*
X167438775Y-100057685D01*
X167430080Y-100062115D01*
X167430075Y-100062117D01*
X167355728Y-100100000D01*
X167338438Y-100108810D01*
X167331537Y-100115710D01*
X167323640Y-100121448D01*
X167323003Y-100120571D01*
X167284890Y-100144269D01*
X167228853Y-100149787D01*
X167190459Y-100135339D01*
X167190035Y-100136365D01*
X167185742Y-100134587D01*
X167183195Y-100132605D01*
X167176152Y-100129955D01*
X167168599Y-100124909D01*
X167170207Y-100122500D01*
X167133808Y-100094180D01*
X167109859Y-100032891D01*
X167120641Y-99967978D01*
X167159406Y-99922112D01*
X167162329Y-99920822D01*
X167235822Y-99847329D01*
X167259188Y-99794409D01*
X167286299Y-99755479D01*
X167326051Y-99729577D01*
X167372620Y-99720500D01*
X167452328Y-99720500D01*
X167474679Y-99722530D01*
X167491225Y-99725563D01*
X167524934Y-99715057D01*
X167532124Y-99713053D01*
X167539862Y-99711146D01*
X167555731Y-99707236D01*
X167555731Y-99707235D01*
X167566393Y-99704608D01*
X167570692Y-99700799D01*
X167576174Y-99699091D01*
X167583935Y-99691329D01*
X167585123Y-99690706D01*
X167588644Y-99687342D01*
X167595195Y-99683382D01*
X167659342Y-99665500D01*
X167990429Y-99665500D01*
X167994004Y-99665500D01*
X168017251Y-99662803D01*
X168112329Y-99620822D01*
X168185822Y-99547329D01*
X168185976Y-99546979D01*
X168218590Y-99516547D01*
X168269975Y-99499980D01*
X168323529Y-99506820D01*
G37*
G04 #@! TD.AperFunction*
G04 #@! TA.AperFunction,Conductor*
G36*
X167364002Y-100835737D02*
G01*
X167412407Y-100875460D01*
X167435230Y-100933769D01*
X167426652Y-100995796D01*
X167417847Y-101017052D01*
X167406188Y-101075669D01*
X167405396Y-101083708D01*
X167383370Y-101142950D01*
X167335006Y-101183640D01*
X167272870Y-101195207D01*
X167213104Y-101174646D01*
X167207647Y-101171000D01*
X167168593Y-101144905D01*
X167152062Y-101141616D01*
X167092083Y-101111055D01*
X167056910Y-101053657D01*
X167056911Y-100986339D01*
X167092086Y-100928942D01*
X167152067Y-100898382D01*
X167152195Y-100898356D01*
X167168593Y-100895095D01*
X167243200Y-100845244D01*
X167302360Y-100824729D01*
X167364002Y-100835737D01*
G37*
G04 #@! TD.AperFunction*
G04 #@! TA.AperFunction,Conductor*
G36*
X161433606Y-92904438D02*
G01*
X161494304Y-92965136D01*
X161504934Y-92972579D01*
X161541199Y-93012153D01*
X161557341Y-93063345D01*
X161550336Y-93116563D01*
X161521496Y-93161835D01*
X161515134Y-93168196D01*
X161504981Y-93174981D01*
X161498196Y-93185134D01*
X161498195Y-93185136D01*
X161451979Y-93254302D01*
X161451977Y-93254305D01*
X161445195Y-93264456D01*
X161442812Y-93276432D01*
X161442812Y-93276434D01*
X161430689Y-93337379D01*
X161430688Y-93337385D01*
X161429500Y-93343360D01*
X161429500Y-93676640D01*
X161430688Y-93682615D01*
X161430689Y-93682620D01*
X161434954Y-93704061D01*
X161445195Y-93755544D01*
X161451978Y-93765696D01*
X161451979Y-93765697D01*
X161497375Y-93833637D01*
X161504981Y-93845019D01*
X161594456Y-93904805D01*
X161673360Y-93920500D01*
X161973873Y-93920500D01*
X162021326Y-93929939D01*
X162061554Y-93956819D01*
X162232797Y-94128062D01*
X162247162Y-94145297D01*
X162256724Y-94159150D01*
X162258630Y-94160150D01*
X162281972Y-94192412D01*
X162292028Y-94245470D01*
X162278578Y-94297770D01*
X162266162Y-94322139D01*
X162257685Y-94338775D01*
X162256158Y-94348411D01*
X162256157Y-94348417D01*
X162249819Y-94388438D01*
X162240069Y-94450000D01*
X162241596Y-94459641D01*
X162256157Y-94551582D01*
X162256158Y-94551586D01*
X162257685Y-94561225D01*
X162262116Y-94569921D01*
X162262117Y-94569924D01*
X162295900Y-94636225D01*
X162308810Y-94661562D01*
X162315714Y-94668466D01*
X162321448Y-94676358D01*
X162318788Y-94678290D01*
X162341661Y-94717906D01*
X162341661Y-94782094D01*
X162318788Y-94821709D01*
X162321448Y-94823642D01*
X162315713Y-94831534D01*
X162308810Y-94838438D01*
X162304377Y-94847136D01*
X162304376Y-94847139D01*
X162262117Y-94930075D01*
X162262115Y-94930080D01*
X162257685Y-94938775D01*
X162256158Y-94948411D01*
X162256157Y-94948417D01*
X162244820Y-95020000D01*
X162240069Y-95050000D01*
X162241596Y-95059641D01*
X162241596Y-95059643D01*
X162256316Y-95152585D01*
X162253618Y-95204075D01*
X162230210Y-95250016D01*
X162190140Y-95282465D01*
X162147140Y-95304375D01*
X162147135Y-95304378D01*
X162138438Y-95308810D01*
X162131536Y-95315711D01*
X162131533Y-95315714D01*
X162065714Y-95381533D01*
X162065711Y-95381536D01*
X162058810Y-95388438D01*
X162054377Y-95397136D01*
X162054376Y-95397139D01*
X162012117Y-95480075D01*
X162012115Y-95480080D01*
X162007685Y-95488775D01*
X162006158Y-95498411D01*
X162006157Y-95498417D01*
X161993423Y-95578825D01*
X161990069Y-95600000D01*
X161991596Y-95609641D01*
X162006157Y-95701582D01*
X162006158Y-95701586D01*
X162007685Y-95711225D01*
X162012116Y-95719921D01*
X162012117Y-95719924D01*
X162027100Y-95749329D01*
X162058810Y-95811562D01*
X162065714Y-95818465D01*
X162065714Y-95818466D01*
X162121136Y-95873888D01*
X162149790Y-95918649D01*
X162157073Y-95971294D01*
X162141648Y-96022153D01*
X162110497Y-96057210D01*
X162109437Y-96057751D01*
X162102541Y-96064646D01*
X162102538Y-96064649D01*
X162036713Y-96130474D01*
X162036710Y-96130477D01*
X162029809Y-96137379D01*
X162025376Y-96146077D01*
X162025375Y-96146080D01*
X161983116Y-96229016D01*
X161983114Y-96229021D01*
X161978684Y-96237716D01*
X161977157Y-96247352D01*
X161977156Y-96247358D01*
X161965957Y-96318070D01*
X161961068Y-96348941D01*
X161962595Y-96358582D01*
X161962595Y-96359048D01*
X161950833Y-96411760D01*
X161917780Y-96454472D01*
X161869705Y-96479082D01*
X161856307Y-96479538D01*
X161841809Y-96484284D01*
X161838577Y-96496895D01*
X161838577Y-97453327D01*
X161841435Y-97464478D01*
X161852750Y-97462355D01*
X161916767Y-97432504D01*
X161934273Y-97420246D01*
X162003710Y-97350809D01*
X162011154Y-97340178D01*
X162050728Y-97303912D01*
X162101922Y-97287769D01*
X162155141Y-97294775D01*
X162200413Y-97323616D01*
X162206773Y-97329976D01*
X162213558Y-97340130D01*
X162303033Y-97399916D01*
X162381937Y-97415611D01*
X162388033Y-97415611D01*
X162441900Y-97415611D01*
X162505765Y-97433322D01*
X162551385Y-97481396D01*
X162565730Y-97546100D01*
X162544701Y-97608951D01*
X162494305Y-97651993D01*
X162410378Y-97691128D01*
X162392877Y-97703383D01*
X162323434Y-97772826D01*
X162311179Y-97790327D01*
X162269099Y-97880569D01*
X162267141Y-97887284D01*
X162268275Y-97894648D01*
X162281562Y-97898521D01*
X162864572Y-97898521D01*
X162926572Y-97915134D01*
X162971959Y-97960521D01*
X162988572Y-98022521D01*
X162988572Y-98626737D01*
X162992086Y-98640448D01*
X162993126Y-98641558D01*
X163030609Y-98663289D01*
X163060820Y-98704966D01*
X163071504Y-98755320D01*
X163071504Y-99287137D01*
X163071504Y-99287147D01*
X163071505Y-99293230D01*
X163072692Y-99299200D01*
X163072693Y-99299207D01*
X163076692Y-99319314D01*
X163079075Y-99331295D01*
X163107918Y-99374462D01*
X163151085Y-99403305D01*
X163189149Y-99410876D01*
X164214496Y-99410875D01*
X164270791Y-99424390D01*
X164314814Y-99461990D01*
X164336969Y-99515477D01*
X164332427Y-99573193D01*
X164302177Y-99622556D01*
X164011176Y-99913557D01*
X163970948Y-99940437D01*
X163923495Y-99949876D01*
X163195242Y-99949876D01*
X163195231Y-99949876D01*
X163189150Y-99949877D01*
X163183180Y-99951064D01*
X163183172Y-99951065D01*
X163163065Y-99955064D01*
X163163062Y-99955065D01*
X163151085Y-99957447D01*
X163140931Y-99964231D01*
X163140930Y-99964232D01*
X163118070Y-99979506D01*
X163118067Y-99979508D01*
X163107918Y-99986290D01*
X163101136Y-99996439D01*
X163101134Y-99996442D01*
X163085858Y-100019305D01*
X163079075Y-100029457D01*
X163076693Y-100041429D01*
X163076693Y-100041431D01*
X163072691Y-100061550D01*
X163072690Y-100061556D01*
X163071504Y-100067521D01*
X163071504Y-100073609D01*
X163071504Y-100073610D01*
X163071504Y-100692293D01*
X163055873Y-100752561D01*
X163012920Y-100797634D01*
X162953475Y-100816149D01*
X162892524Y-100803438D01*
X162845435Y-100762705D01*
X162843521Y-100759931D01*
X162777543Y-100664289D01*
X162606459Y-100416287D01*
X162602266Y-100409783D01*
X162284943Y-99882161D01*
X162281163Y-99875408D01*
X161997360Y-99328993D01*
X161994009Y-99322017D01*
X161990710Y-99314563D01*
X161769015Y-98813584D01*
X161744852Y-98758982D01*
X161741942Y-98751811D01*
X161699029Y-98635765D01*
X161615453Y-98409757D01*
X162267141Y-98409757D01*
X162269099Y-98416472D01*
X162311179Y-98506714D01*
X162323434Y-98524215D01*
X162392875Y-98593656D01*
X162410381Y-98605914D01*
X162474398Y-98635765D01*
X162485713Y-98637888D01*
X162488572Y-98626737D01*
X162488572Y-98414847D01*
X162485121Y-98401971D01*
X162472246Y-98398521D01*
X162281562Y-98398521D01*
X162268275Y-98402393D01*
X162267141Y-98409757D01*
X161615453Y-98409757D01*
X161528378Y-98174286D01*
X161525927Y-98166962D01*
X161525700Y-98166207D01*
X161348813Y-97577271D01*
X161346822Y-97569802D01*
X161346718Y-97569358D01*
X161335564Y-97521578D01*
X161336200Y-97462602D01*
X161338577Y-97453328D01*
X161338577Y-96496895D01*
X161335718Y-96485743D01*
X161324406Y-96487865D01*
X161287438Y-96505104D01*
X161232093Y-96516686D01*
X161177360Y-96502492D01*
X161134619Y-96465472D01*
X161112758Y-96413327D01*
X161103004Y-96355437D01*
X161101964Y-96347822D01*
X161037729Y-95735442D01*
X161037163Y-95727729D01*
X161011252Y-95112529D01*
X161011169Y-95104839D01*
X161023686Y-94489240D01*
X161024084Y-94481514D01*
X161026698Y-94450000D01*
X161074979Y-93867891D01*
X161075859Y-93860206D01*
X161079744Y-93833637D01*
X161164930Y-93250967D01*
X161166288Y-93243350D01*
X161174462Y-93204541D01*
X161224587Y-92966560D01*
X161254753Y-92908074D01*
X161310597Y-92873258D01*
X161376393Y-92871920D01*
X161433606Y-92904438D01*
G37*
G04 #@! TD.AperFunction*
G04 #@! TA.AperFunction,Conductor*
G36*
X169205237Y-94123182D02*
G01*
X169252232Y-94168723D01*
X169269500Y-94231844D01*
X169269500Y-96263761D01*
X169269500Y-96263771D01*
X169269501Y-96269854D01*
X169270688Y-96275824D01*
X169270689Y-96275831D01*
X169273934Y-96292145D01*
X169277071Y-96307919D01*
X169305914Y-96351086D01*
X169349081Y-96379929D01*
X169387145Y-96387500D01*
X172612854Y-96387499D01*
X172650919Y-96379929D01*
X172694086Y-96351086D01*
X172722929Y-96307919D01*
X172730500Y-96269855D01*
X172730499Y-95750762D01*
X172744014Y-95694471D01*
X172781614Y-95650448D01*
X172835101Y-95628293D01*
X172892817Y-95632835D01*
X172942180Y-95663085D01*
X172994785Y-95715690D01*
X173095122Y-95766815D01*
X173206347Y-95784431D01*
X173252970Y-95777046D01*
X173296189Y-95777829D01*
X173336515Y-95793401D01*
X173351541Y-95802485D01*
X173357274Y-95802831D01*
X173362358Y-95805500D01*
X173397639Y-95805500D01*
X173405124Y-95805725D01*
X173440357Y-95807857D01*
X173440349Y-95807976D01*
X173445594Y-95808175D01*
X173445594Y-95805500D01*
X173635501Y-95805500D01*
X173697501Y-95822113D01*
X173742888Y-95867500D01*
X173759500Y-95929498D01*
X173759501Y-96022854D01*
X173760689Y-96028831D01*
X173761286Y-96034886D01*
X173759975Y-96035015D01*
X173758853Y-96080635D01*
X173734422Y-96129167D01*
X173691587Y-96162595D01*
X173638573Y-96174500D01*
X173570738Y-96174500D01*
X173570728Y-96174500D01*
X173564646Y-96174501D01*
X173558675Y-96175688D01*
X173558669Y-96175689D01*
X173538561Y-96179688D01*
X173538558Y-96179689D01*
X173526581Y-96182071D01*
X173516427Y-96188855D01*
X173516426Y-96188856D01*
X173493566Y-96204130D01*
X173493563Y-96204132D01*
X173483414Y-96210914D01*
X173476632Y-96221063D01*
X173476630Y-96221066D01*
X173461354Y-96243929D01*
X173454571Y-96254081D01*
X173452189Y-96266053D01*
X173452189Y-96266055D01*
X173448187Y-96286174D01*
X173448186Y-96286180D01*
X173447000Y-96292145D01*
X173447000Y-96298233D01*
X173447000Y-96298234D01*
X173447000Y-96580062D01*
X173428862Y-96644632D01*
X173379754Y-96690312D01*
X173314042Y-96703738D01*
X173261828Y-96684906D01*
X173261189Y-96686214D01*
X173164900Y-96639141D01*
X173158946Y-96637301D01*
X173157321Y-96637415D01*
X173155000Y-96648077D01*
X173155000Y-97371174D01*
X173158450Y-97384049D01*
X173171326Y-97387500D01*
X173383835Y-97387500D01*
X173431288Y-97396939D01*
X173471516Y-97423819D01*
X173476630Y-97428933D01*
X173483414Y-97439086D01*
X173526581Y-97467929D01*
X173564645Y-97475500D01*
X173638569Y-97475499D01*
X173691581Y-97487402D01*
X173734417Y-97520828D01*
X173758850Y-97569358D01*
X173759974Y-97614977D01*
X173761285Y-97615107D01*
X173760687Y-97621174D01*
X173759500Y-97627145D01*
X173759500Y-97633233D01*
X173759500Y-97633234D01*
X173759500Y-97881761D01*
X173759500Y-97881770D01*
X173759501Y-97887854D01*
X173766459Y-97922846D01*
X173763501Y-97983027D01*
X173732522Y-98034710D01*
X173616680Y-98150552D01*
X173567319Y-98180802D01*
X173509602Y-98185344D01*
X173456115Y-98163189D01*
X173418515Y-98119166D01*
X173405000Y-98062871D01*
X173405000Y-97903826D01*
X173401549Y-97890950D01*
X173388674Y-97887500D01*
X173171326Y-97887500D01*
X173158450Y-97890950D01*
X173155000Y-97903826D01*
X173155000Y-98626923D01*
X173157643Y-98639061D01*
X173171914Y-98658097D01*
X173194972Y-98711855D01*
X173190821Y-98770202D01*
X173164938Y-98812680D01*
X173163585Y-98813585D01*
X173156803Y-98823734D01*
X173156800Y-98823738D01*
X173120993Y-98877329D01*
X173104905Y-98901407D01*
X173101656Y-98917744D01*
X173101617Y-98917938D01*
X173071054Y-98977917D01*
X173013656Y-99013089D01*
X172946339Y-99013088D01*
X172888943Y-98977914D01*
X172858382Y-98917934D01*
X172858344Y-98917744D01*
X172855095Y-98901407D01*
X172796415Y-98813585D01*
X172784470Y-98805604D01*
X172708593Y-98754905D01*
X172710271Y-98752392D01*
X172682858Y-98732627D01*
X172656417Y-98682072D01*
X172655681Y-98640270D01*
X172655000Y-98640270D01*
X172655000Y-97903826D01*
X172651549Y-97890950D01*
X172638674Y-97887500D01*
X172421327Y-97887500D01*
X172408451Y-97890950D01*
X172405001Y-97903826D01*
X172405001Y-98328730D01*
X172405647Y-98337656D01*
X172413524Y-98391721D01*
X172419141Y-98409900D01*
X172461699Y-98496953D01*
X172473482Y-98513457D01*
X172487844Y-98527819D01*
X172518094Y-98577182D01*
X172522636Y-98634898D01*
X172500481Y-98688385D01*
X172456458Y-98725985D01*
X172400163Y-98739500D01*
X172326128Y-98739500D01*
X172278675Y-98730061D01*
X172238447Y-98703181D01*
X172073166Y-98537900D01*
X172045924Y-98496788D01*
X172036862Y-98448309D01*
X172047412Y-98400135D01*
X172062779Y-98365333D01*
X172065500Y-98341880D01*
X172065500Y-97371174D01*
X172405000Y-97371174D01*
X172408450Y-97384049D01*
X172421326Y-97387500D01*
X172638674Y-97387500D01*
X172651549Y-97384049D01*
X172655000Y-97371174D01*
X172655000Y-96648077D01*
X172652678Y-96637415D01*
X172651053Y-96637301D01*
X172645099Y-96639141D01*
X172558046Y-96681699D01*
X172541542Y-96693482D01*
X172473482Y-96761542D01*
X172461699Y-96778046D01*
X172419143Y-96865094D01*
X172413522Y-96883285D01*
X172405646Y-96937343D01*
X172405000Y-96946263D01*
X172405000Y-97371174D01*
X172065500Y-97371174D01*
X172065500Y-96933120D01*
X172062779Y-96909667D01*
X172020420Y-96813733D01*
X171946267Y-96739580D01*
X171935752Y-96734937D01*
X171858868Y-96700989D01*
X171858864Y-96700988D01*
X171850333Y-96697221D01*
X171841073Y-96696146D01*
X171841067Y-96696145D01*
X171830427Y-96694911D01*
X171830418Y-96694910D01*
X171826880Y-96694500D01*
X171443120Y-96694500D01*
X171439582Y-96694910D01*
X171439572Y-96694911D01*
X171428932Y-96696145D01*
X171428925Y-96696146D01*
X171419667Y-96697221D01*
X171411136Y-96700987D01*
X171411131Y-96700989D01*
X171334247Y-96734937D01*
X171334244Y-96734938D01*
X171323733Y-96739580D01*
X171315608Y-96747704D01*
X171315605Y-96747707D01*
X171257707Y-96805605D01*
X171257704Y-96805608D01*
X171249580Y-96813733D01*
X171244938Y-96824244D01*
X171244937Y-96824247D01*
X171210989Y-96901131D01*
X171210987Y-96901136D01*
X171207221Y-96909667D01*
X171206146Y-96918925D01*
X171206145Y-96918932D01*
X171204911Y-96929572D01*
X171204910Y-96929582D01*
X171204500Y-96933120D01*
X171204500Y-96936694D01*
X171204500Y-97092030D01*
X171188689Y-97152619D01*
X171145289Y-97197758D01*
X171085367Y-97215934D01*
X171024206Y-97202514D01*
X170963831Y-97171751D01*
X170944922Y-97162116D01*
X170944919Y-97162115D01*
X170936225Y-97157685D01*
X170900098Y-97151963D01*
X170846615Y-97129810D01*
X170809015Y-97085786D01*
X170795500Y-97029491D01*
X170795500Y-96936694D01*
X170795500Y-96933120D01*
X170792779Y-96909667D01*
X170750420Y-96813733D01*
X170676267Y-96739580D01*
X170665752Y-96734937D01*
X170588868Y-96700989D01*
X170588864Y-96700988D01*
X170580333Y-96697221D01*
X170571073Y-96696146D01*
X170571067Y-96696145D01*
X170560427Y-96694911D01*
X170560418Y-96694910D01*
X170556880Y-96694500D01*
X170173120Y-96694500D01*
X170169582Y-96694910D01*
X170169572Y-96694911D01*
X170158932Y-96696145D01*
X170158925Y-96696146D01*
X170149667Y-96697221D01*
X170141136Y-96700987D01*
X170141131Y-96700989D01*
X170064247Y-96734937D01*
X170064244Y-96734938D01*
X170053733Y-96739580D01*
X170045608Y-96747704D01*
X170045605Y-96747707D01*
X169987707Y-96805605D01*
X169987704Y-96805608D01*
X169979580Y-96813733D01*
X169974938Y-96824244D01*
X169974937Y-96824247D01*
X169940989Y-96901131D01*
X169940987Y-96901136D01*
X169937221Y-96909667D01*
X169936146Y-96918925D01*
X169936145Y-96918932D01*
X169934911Y-96929572D01*
X169934910Y-96929582D01*
X169934500Y-96933120D01*
X169934500Y-98341880D01*
X169934910Y-98345418D01*
X169934911Y-98345427D01*
X169936145Y-98356067D01*
X169936146Y-98356073D01*
X169937221Y-98365333D01*
X169940988Y-98373864D01*
X169940989Y-98373868D01*
X169973858Y-98448309D01*
X169979580Y-98461267D01*
X169987707Y-98469394D01*
X169994199Y-98478871D01*
X169992631Y-98479944D01*
X170016298Y-98520297D01*
X170017578Y-98582836D01*
X169988167Y-98638042D01*
X169935549Y-98671868D01*
X169913232Y-98679173D01*
X169910000Y-98691784D01*
X169910000Y-99296000D01*
X169893387Y-99358000D01*
X169848000Y-99403387D01*
X169786000Y-99420000D01*
X169534000Y-99420000D01*
X169472000Y-99403387D01*
X169426613Y-99358000D01*
X169410000Y-99296000D01*
X169410000Y-98691784D01*
X169401582Y-98658941D01*
X169389480Y-98636593D01*
X169390510Y-98573722D01*
X169422245Y-98519441D01*
X169480420Y-98461267D01*
X169522779Y-98365333D01*
X169525500Y-98341880D01*
X169525500Y-96933120D01*
X169522779Y-96909667D01*
X169480420Y-96813733D01*
X169406267Y-96739580D01*
X169395752Y-96734937D01*
X169318868Y-96700989D01*
X169318864Y-96700988D01*
X169310333Y-96697221D01*
X169301073Y-96696146D01*
X169301067Y-96696145D01*
X169290427Y-96694911D01*
X169290418Y-96694910D01*
X169286880Y-96694500D01*
X168903120Y-96694500D01*
X168899582Y-96694910D01*
X168899572Y-96694911D01*
X168888932Y-96696145D01*
X168888925Y-96696146D01*
X168879667Y-96697221D01*
X168859583Y-96706088D01*
X168799487Y-96716249D01*
X168741805Y-96696546D01*
X168700481Y-96651738D01*
X168685500Y-96592654D01*
X168685500Y-96172673D01*
X168687531Y-96150321D01*
X168687601Y-96149938D01*
X168690563Y-96133776D01*
X168686083Y-96119399D01*
X168680063Y-96100081D01*
X168678051Y-96092865D01*
X168671933Y-96068040D01*
X168671934Y-96008689D01*
X168690224Y-95973844D01*
X168689148Y-95973280D01*
X168690532Y-95970642D01*
X168705563Y-95942000D01*
X168709220Y-95935516D01*
X168727484Y-95905307D01*
X168727830Y-95899575D01*
X168730500Y-95894489D01*
X168730500Y-95859192D01*
X168730726Y-95851706D01*
X168732856Y-95816490D01*
X168732976Y-95816497D01*
X168733175Y-95811255D01*
X168730500Y-95811255D01*
X168730500Y-94973614D01*
X168739939Y-94926161D01*
X168766819Y-94885933D01*
X168798970Y-94853782D01*
X168841190Y-94811562D01*
X168892315Y-94711225D01*
X168909931Y-94600000D01*
X168892315Y-94488775D01*
X168887882Y-94480075D01*
X168884868Y-94470799D01*
X168886232Y-94470355D01*
X168876550Y-94434226D01*
X168884616Y-94383297D01*
X168912695Y-94340056D01*
X168991190Y-94261562D01*
X169035018Y-94175545D01*
X169079058Y-94127147D01*
X169141605Y-94107905D01*
X169205237Y-94123182D01*
G37*
G04 #@! TD.AperFunction*
G04 #@! TA.AperFunction,Conductor*
G36*
X176681175Y-96195490D02*
G01*
X176693944Y-96200779D01*
X176734321Y-96208810D01*
X176746398Y-96210000D01*
X177283500Y-96210000D01*
X177345500Y-96226613D01*
X177390887Y-96272000D01*
X177407500Y-96334000D01*
X177407500Y-97316000D01*
X177390887Y-97378000D01*
X177345500Y-97423387D01*
X177283500Y-97440000D01*
X176746393Y-97440000D01*
X176730675Y-97441548D01*
X176676747Y-97434896D01*
X176630841Y-97405826D01*
X176624038Y-97399023D01*
X176578190Y-97368388D01*
X176556057Y-97359221D01*
X176515678Y-97351189D01*
X176503602Y-97350000D01*
X176404500Y-97350000D01*
X176342500Y-97333387D01*
X176297113Y-97288000D01*
X176280500Y-97226000D01*
X176280500Y-97199114D01*
X176289939Y-97151661D01*
X176316819Y-97111433D01*
X176325276Y-97102976D01*
X176341690Y-97086562D01*
X176392815Y-96986225D01*
X176410431Y-96875000D01*
X176392815Y-96763775D01*
X176341690Y-96663438D01*
X176262062Y-96583810D01*
X176253360Y-96579376D01*
X176170424Y-96537117D01*
X176170421Y-96537116D01*
X176161725Y-96532685D01*
X176152086Y-96531158D01*
X176152082Y-96531157D01*
X176065219Y-96517400D01*
X176050500Y-96515069D01*
X176050082Y-96515135D01*
X175995615Y-96501049D01*
X175950573Y-96458305D01*
X175936115Y-96412449D01*
X175935326Y-96412661D01*
X175934724Y-96410414D01*
X175934186Y-96406329D01*
X175931902Y-96399084D01*
X175931272Y-96387060D01*
X175931647Y-96387040D01*
X175930500Y-96378325D01*
X175930500Y-96354499D01*
X175947113Y-96292499D01*
X175992500Y-96247112D01*
X176054498Y-96230499D01*
X176152854Y-96230499D01*
X176190919Y-96222929D01*
X176190976Y-96223216D01*
X176224998Y-96216449D01*
X176259023Y-96223217D01*
X176259081Y-96222929D01*
X176297145Y-96230500D01*
X176502854Y-96230499D01*
X176540919Y-96222929D01*
X176564831Y-96206951D01*
X176621568Y-96186649D01*
X176681175Y-96195490D01*
G37*
G04 #@! TD.AperFunction*
G04 #@! TA.AperFunction,Conductor*
G36*
X176685791Y-90090318D02*
G01*
X176738775Y-90117315D01*
X176850000Y-90134931D01*
X176961225Y-90117315D01*
X176985263Y-90105066D01*
X177044011Y-90091574D01*
X177102186Y-90107383D01*
X177146031Y-90148758D01*
X177165182Y-90205919D01*
X177155114Y-90265357D01*
X177141886Y-90295514D01*
X177141880Y-90295529D01*
X177139825Y-90300216D01*
X177138567Y-90305181D01*
X177138566Y-90305186D01*
X177084921Y-90517023D01*
X177084919Y-90517032D01*
X177083662Y-90521998D01*
X177083238Y-90527107D01*
X177083237Y-90527117D01*
X177079010Y-90578136D01*
X177064769Y-90750000D01*
X177065193Y-90755117D01*
X177076479Y-90891322D01*
X177069161Y-90944692D01*
X177039901Y-90989921D01*
X176994223Y-91018475D01*
X176947198Y-91024182D01*
X176947198Y-91025000D01*
X176856326Y-91025000D01*
X176843450Y-91028450D01*
X176840000Y-91041326D01*
X176840000Y-91808674D01*
X176843450Y-91821549D01*
X176856326Y-91825000D01*
X176941102Y-91825000D01*
X176953178Y-91823810D01*
X176993557Y-91815778D01*
X177015690Y-91806611D01*
X177061538Y-91775976D01*
X177078476Y-91759038D01*
X177109111Y-91713190D01*
X177118278Y-91691057D01*
X177127500Y-91644698D01*
X177128545Y-91644906D01*
X177146684Y-91594358D01*
X177191640Y-91553856D01*
X177250410Y-91539451D01*
X177309000Y-91554574D01*
X177350443Y-91592839D01*
X177350901Y-91592484D01*
X177353053Y-91595249D01*
X177353458Y-91595623D01*
X177354052Y-91596533D01*
X177354059Y-91596542D01*
X177356858Y-91600826D01*
X177360323Y-91604590D01*
X177360327Y-91604595D01*
X177508337Y-91765377D01*
X177508340Y-91765380D01*
X177511809Y-91769148D01*
X177692350Y-91909669D01*
X177893559Y-92018558D01*
X177898405Y-92020221D01*
X177898406Y-92020222D01*
X177993542Y-92052882D01*
X178109946Y-92092843D01*
X178153827Y-92100165D01*
X178210430Y-92125288D01*
X178247825Y-92174652D01*
X178256684Y-92235944D01*
X178234797Y-92293877D01*
X178187623Y-92333999D01*
X178126929Y-92346304D01*
X177593990Y-92318374D01*
X177593973Y-92318373D01*
X177591094Y-92318223D01*
X177588201Y-92318342D01*
X177588196Y-92318342D01*
X177569449Y-92319113D01*
X177569442Y-92319114D01*
X177561911Y-92319424D01*
X177554673Y-92321538D01*
X177554670Y-92321539D01*
X177446262Y-92353210D01*
X177446259Y-92353210D01*
X177437343Y-92355816D01*
X177429587Y-92360935D01*
X177429586Y-92360936D01*
X177336791Y-92422189D01*
X177336787Y-92422192D01*
X177329036Y-92427309D01*
X177323137Y-92434483D01*
X177323134Y-92434486D01*
X177269930Y-92499193D01*
X177246614Y-92527550D01*
X177243092Y-92536142D01*
X177243091Y-92536145D01*
X177200261Y-92640646D01*
X177200258Y-92640655D01*
X177197400Y-92647630D01*
X177196303Y-92655092D01*
X177196302Y-92655099D01*
X177193576Y-92673656D01*
X177193574Y-92673674D01*
X177193155Y-92676528D01*
X177193003Y-92679414D01*
X177193003Y-92679422D01*
X177169490Y-93128076D01*
X177152640Y-93184287D01*
X177111830Y-93226455D01*
X177056201Y-93245137D01*
X176998211Y-93236149D01*
X176993556Y-93234221D01*
X176953178Y-93226189D01*
X176941102Y-93225000D01*
X176856326Y-93225000D01*
X176843450Y-93228450D01*
X176840000Y-93241326D01*
X176840000Y-94008674D01*
X176843450Y-94021549D01*
X176856326Y-94025000D01*
X176941102Y-94025000D01*
X176953173Y-94023810D01*
X176967960Y-94020869D01*
X177023854Y-94022605D01*
X177073302Y-94048722D01*
X177106246Y-94093908D01*
X177115987Y-94148975D01*
X177062272Y-95173918D01*
X177062271Y-95173934D01*
X177062121Y-95176814D01*
X177062240Y-95179706D01*
X177062240Y-95179711D01*
X177063011Y-95198458D01*
X177063011Y-95198464D01*
X177063322Y-95205997D01*
X177065436Y-95213235D01*
X177065437Y-95213237D01*
X177086651Y-95285850D01*
X177099714Y-95330565D01*
X177134121Y-95382690D01*
X177154509Y-95445436D01*
X177139828Y-95509760D01*
X177094234Y-95557448D01*
X177030634Y-95575000D01*
X176848478Y-95575000D01*
X176787888Y-95559189D01*
X176742750Y-95515789D01*
X176724574Y-95455866D01*
X176735840Y-95404517D01*
X176734868Y-95404201D01*
X176737881Y-95394925D01*
X176742315Y-95386225D01*
X176759931Y-95275000D01*
X176742315Y-95163775D01*
X176691190Y-95063438D01*
X176611562Y-94983810D01*
X176573202Y-94964264D01*
X176523773Y-94918572D01*
X176505500Y-94853782D01*
X176505500Y-94158392D01*
X176505500Y-94152297D01*
X176492126Y-94085063D01*
X176441181Y-94008819D01*
X176431027Y-94002034D01*
X176423819Y-93994826D01*
X176396939Y-93954598D01*
X176387500Y-93907145D01*
X176387500Y-93841326D01*
X176384049Y-93828450D01*
X176371174Y-93825000D01*
X176150888Y-93825000D01*
X176139607Y-93827243D01*
X176130035Y-93833639D01*
X176067740Y-93895933D01*
X176012152Y-93928026D01*
X175947966Y-93928026D01*
X175892379Y-93895932D01*
X175430085Y-93433638D01*
X175420514Y-93427243D01*
X175409236Y-93425000D01*
X175140764Y-93425000D01*
X175129485Y-93427243D01*
X175119914Y-93433638D01*
X174775000Y-93778553D01*
X174774999Y-93778554D01*
X174657618Y-93895933D01*
X174602031Y-93928026D01*
X174537844Y-93928026D01*
X174482257Y-93895932D01*
X174419962Y-93833637D01*
X174410393Y-93827243D01*
X174399113Y-93825000D01*
X173438826Y-93825000D01*
X173425950Y-93828450D01*
X173422696Y-93840594D01*
X173423689Y-93850678D01*
X173431721Y-93891057D01*
X173440888Y-93913190D01*
X173471523Y-93959038D01*
X173488459Y-93975974D01*
X173509838Y-93990259D01*
X173551980Y-94038153D01*
X173564733Y-94100660D01*
X173544723Y-94161236D01*
X173497245Y-94203845D01*
X173438438Y-94233810D01*
X173431536Y-94240711D01*
X173431533Y-94240714D01*
X173365714Y-94306533D01*
X173365711Y-94306536D01*
X173358810Y-94313438D01*
X173354377Y-94322136D01*
X173354376Y-94322139D01*
X173312117Y-94405075D01*
X173312115Y-94405080D01*
X173307685Y-94413775D01*
X173306158Y-94423411D01*
X173306157Y-94423417D01*
X173298653Y-94470799D01*
X173290069Y-94525000D01*
X173291596Y-94534641D01*
X173306157Y-94626582D01*
X173306158Y-94626586D01*
X173307685Y-94636225D01*
X173312116Y-94644921D01*
X173312117Y-94644924D01*
X173345900Y-94711225D01*
X173358810Y-94736562D01*
X173365714Y-94743466D01*
X173413406Y-94791158D01*
X173443652Y-94840509D01*
X173448202Y-94898213D01*
X173431944Y-94937489D01*
X173433809Y-94938439D01*
X173407174Y-94990714D01*
X173398256Y-95008216D01*
X173365807Y-95048285D01*
X173319866Y-95071694D01*
X173268376Y-95074393D01*
X173251042Y-95071647D01*
X173206347Y-95064569D01*
X173196706Y-95066096D01*
X173104764Y-95080657D01*
X173104758Y-95080658D01*
X173095122Y-95082185D01*
X173086427Y-95086615D01*
X173086422Y-95086617D01*
X173003486Y-95128876D01*
X173003483Y-95128877D01*
X172994785Y-95133310D01*
X172987882Y-95140212D01*
X172987879Y-95140215D01*
X172942179Y-95185915D01*
X172892816Y-95216164D01*
X172835100Y-95220706D01*
X172781613Y-95198551D01*
X172744014Y-95154528D01*
X172730499Y-95098235D01*
X172730499Y-93730146D01*
X172722929Y-93692081D01*
X172694086Y-93648914D01*
X172650919Y-93620071D01*
X172638944Y-93617689D01*
X172618825Y-93613687D01*
X172618820Y-93613686D01*
X172612855Y-93612500D01*
X172606766Y-93612500D01*
X170906389Y-93612500D01*
X170850094Y-93598985D01*
X170806071Y-93561385D01*
X170783916Y-93507898D01*
X170788458Y-93450182D01*
X170818706Y-93400821D01*
X171057569Y-93161958D01*
X171103136Y-93133011D01*
X171156689Y-93126170D01*
X171208072Y-93142734D01*
X171245970Y-93178092D01*
X171249580Y-93186267D01*
X171323733Y-93260420D01*
X171419667Y-93302779D01*
X171428931Y-93303853D01*
X171428932Y-93303854D01*
X171430878Y-93304079D01*
X171443120Y-93305500D01*
X171823306Y-93305500D01*
X171826880Y-93305500D01*
X171850333Y-93302779D01*
X171946267Y-93260420D01*
X172020420Y-93186267D01*
X172062779Y-93090333D01*
X172065500Y-93066880D01*
X172065500Y-93053730D01*
X172405001Y-93053730D01*
X172405647Y-93062656D01*
X172413524Y-93116721D01*
X172419141Y-93134900D01*
X172461699Y-93221953D01*
X172473482Y-93238457D01*
X172541542Y-93306517D01*
X172558046Y-93318300D01*
X172645099Y-93360858D01*
X172651053Y-93362698D01*
X172652678Y-93362584D01*
X172655000Y-93351923D01*
X173155000Y-93351923D01*
X173157321Y-93362584D01*
X173158946Y-93362698D01*
X173164897Y-93360859D01*
X173246069Y-93321177D01*
X173298821Y-93308589D01*
X173351900Y-93319718D01*
X173395152Y-93352435D01*
X173420305Y-93400483D01*
X173425949Y-93421549D01*
X173438826Y-93425000D01*
X173693674Y-93425000D01*
X173706549Y-93421549D01*
X173710000Y-93408674D01*
X173710000Y-93241326D01*
X173706549Y-93228450D01*
X173693674Y-93225000D01*
X173608898Y-93225000D01*
X173596828Y-93226188D01*
X173546280Y-93236243D01*
X173487629Y-93233740D01*
X173436702Y-93204541D01*
X173404912Y-93155189D01*
X173399386Y-93096745D01*
X173404353Y-93062652D01*
X173405000Y-93053737D01*
X173405000Y-92908674D01*
X174100000Y-92908674D01*
X174103450Y-92921549D01*
X174116326Y-92925000D01*
X174521174Y-92925000D01*
X174534049Y-92921549D01*
X174536712Y-92911614D01*
X175037500Y-92911614D01*
X175039720Y-92922779D01*
X175050886Y-92925000D01*
X175499114Y-92925000D01*
X175510279Y-92922779D01*
X175512500Y-92911614D01*
X175512500Y-92908674D01*
X176012500Y-92908674D01*
X176015950Y-92921549D01*
X176028826Y-92925000D01*
X176433674Y-92925000D01*
X176446549Y-92921549D01*
X176450000Y-92908674D01*
X176450000Y-92791326D01*
X176446549Y-92778450D01*
X176433674Y-92775000D01*
X176028826Y-92775000D01*
X176015950Y-92778450D01*
X176012500Y-92791326D01*
X176012500Y-92908674D01*
X175512500Y-92908674D01*
X175512500Y-92791326D01*
X175509049Y-92778450D01*
X175496174Y-92775000D01*
X175053826Y-92775000D01*
X175040950Y-92778450D01*
X175037500Y-92791326D01*
X175037500Y-92911614D01*
X174536712Y-92911614D01*
X174537500Y-92908674D01*
X174537500Y-92791326D01*
X174534049Y-92778450D01*
X174521174Y-92775000D01*
X174116326Y-92775000D01*
X174103450Y-92778450D01*
X174100000Y-92791326D01*
X174100000Y-92908674D01*
X173405000Y-92908674D01*
X173405000Y-92628826D01*
X173401549Y-92615950D01*
X173388674Y-92612500D01*
X173171326Y-92612500D01*
X173158450Y-92615950D01*
X173155000Y-92628826D01*
X173155000Y-93351923D01*
X172655000Y-93351923D01*
X172655000Y-92628826D01*
X172651549Y-92615950D01*
X172638674Y-92612500D01*
X172421327Y-92612500D01*
X172408451Y-92615950D01*
X172405001Y-92628826D01*
X172405001Y-93053730D01*
X172065500Y-93053730D01*
X172065500Y-92258674D01*
X174100000Y-92258674D01*
X174103450Y-92271549D01*
X174116326Y-92275000D01*
X174521174Y-92275000D01*
X174534049Y-92271549D01*
X174537500Y-92258674D01*
X175037500Y-92258674D01*
X175040950Y-92271549D01*
X175053826Y-92275000D01*
X175496174Y-92275000D01*
X175509049Y-92271549D01*
X175512500Y-92258674D01*
X176012500Y-92258674D01*
X176015950Y-92271549D01*
X176028826Y-92275000D01*
X176433674Y-92275000D01*
X176446549Y-92271549D01*
X176450000Y-92258674D01*
X176450000Y-92141326D01*
X176446549Y-92128450D01*
X176433674Y-92125000D01*
X176028826Y-92125000D01*
X176015950Y-92128450D01*
X176012500Y-92141326D01*
X176012500Y-92258674D01*
X175512500Y-92258674D01*
X175512500Y-92138386D01*
X175510279Y-92127220D01*
X175499114Y-92125000D01*
X175050886Y-92125000D01*
X175039720Y-92127220D01*
X175037500Y-92138386D01*
X175037500Y-92258674D01*
X174537500Y-92258674D01*
X174537500Y-92141326D01*
X174534049Y-92128450D01*
X174521174Y-92125000D01*
X174116326Y-92125000D01*
X174103450Y-92128450D01*
X174100000Y-92141326D01*
X174100000Y-92258674D01*
X172065500Y-92258674D01*
X172065500Y-92096174D01*
X172405000Y-92096174D01*
X172408450Y-92109049D01*
X172421326Y-92112500D01*
X172638674Y-92112500D01*
X172651549Y-92109049D01*
X172655000Y-92096174D01*
X172655000Y-91373077D01*
X172652678Y-91362415D01*
X172651053Y-91362301D01*
X172645099Y-91364141D01*
X172558046Y-91406699D01*
X172541542Y-91418482D01*
X172473482Y-91486542D01*
X172461699Y-91503046D01*
X172419143Y-91590094D01*
X172413522Y-91608285D01*
X172405646Y-91662343D01*
X172405000Y-91671263D01*
X172405000Y-92096174D01*
X172065500Y-92096174D01*
X172065500Y-91658120D01*
X172062779Y-91634667D01*
X172020420Y-91538733D01*
X171946267Y-91464580D01*
X171868395Y-91430196D01*
X171863958Y-91428237D01*
X171813182Y-91386933D01*
X171790510Y-91325531D01*
X171802259Y-91261139D01*
X171845155Y-91211701D01*
X171849685Y-91208674D01*
X171915019Y-91165019D01*
X171974805Y-91075544D01*
X171975701Y-91071035D01*
X172003617Y-91031627D01*
X172051690Y-91004911D01*
X172106588Y-91001613D01*
X172157513Y-91022382D01*
X172171813Y-91032395D01*
X172235826Y-91062244D01*
X172247141Y-91064367D01*
X172250000Y-91053216D01*
X172250000Y-90449000D01*
X172266613Y-90387000D01*
X172312000Y-90341613D01*
X172374000Y-90325000D01*
X172626000Y-90325000D01*
X172688000Y-90341613D01*
X172733387Y-90387000D01*
X172750000Y-90449000D01*
X172750000Y-91053216D01*
X172752858Y-91064367D01*
X172764169Y-91062245D01*
X172802134Y-91044542D01*
X172863908Y-91033278D01*
X172923280Y-91053721D01*
X172965023Y-91100627D01*
X173008810Y-91186562D01*
X173088438Y-91266190D01*
X173097136Y-91270622D01*
X173103886Y-91275526D01*
X173141485Y-91319549D01*
X173155000Y-91375844D01*
X173155000Y-92096174D01*
X173158450Y-92109049D01*
X173171326Y-92112500D01*
X173388673Y-92112500D01*
X173401548Y-92109049D01*
X173404999Y-92096174D01*
X173404999Y-91936749D01*
X173416904Y-91883732D01*
X173450334Y-91840896D01*
X173498869Y-91816465D01*
X173553189Y-91815131D01*
X173596829Y-91823811D01*
X173608898Y-91825000D01*
X173693674Y-91825000D01*
X173706549Y-91821549D01*
X173710000Y-91808674D01*
X173710000Y-91076211D01*
X173726608Y-91014219D01*
X173736305Y-90997421D01*
X173742103Y-90988320D01*
X173745798Y-90983044D01*
X173778484Y-90951067D01*
X173795019Y-90940019D01*
X173827439Y-90891498D01*
X173869950Y-90852202D01*
X173925670Y-90836487D01*
X173982452Y-90847780D01*
X174027918Y-90883622D01*
X174052157Y-90936197D01*
X174057874Y-90964937D01*
X174064658Y-90975090D01*
X174064659Y-90975092D01*
X174100312Y-91028450D01*
X174108819Y-91041181D01*
X174118972Y-91047965D01*
X174126181Y-91055174D01*
X174153061Y-91095402D01*
X174162500Y-91142855D01*
X174162500Y-91208674D01*
X174165950Y-91221549D01*
X174178826Y-91225000D01*
X174399113Y-91225000D01*
X174410391Y-91222756D01*
X174419959Y-91216363D01*
X174482256Y-91154066D01*
X174537844Y-91121972D01*
X174602031Y-91121972D01*
X174657619Y-91154066D01*
X175119914Y-91616361D01*
X175129485Y-91622756D01*
X175140764Y-91625000D01*
X175409236Y-91625000D01*
X175420514Y-91622756D01*
X175430085Y-91616361D01*
X175774999Y-91271448D01*
X175892378Y-91154067D01*
X175947966Y-91121972D01*
X176012153Y-91121972D01*
X176067741Y-91154066D01*
X176130037Y-91216362D01*
X176139606Y-91222756D01*
X176150887Y-91225000D01*
X176371174Y-91225000D01*
X176384049Y-91221549D01*
X176387500Y-91208674D01*
X176387500Y-91142855D01*
X176396939Y-91095402D01*
X176423819Y-91055174D01*
X176431026Y-91047965D01*
X176441181Y-91041181D01*
X176492126Y-90964937D01*
X176505500Y-90897703D01*
X176505500Y-90202297D01*
X176505499Y-90202293D01*
X176505499Y-90200803D01*
X176521310Y-90140214D01*
X176564710Y-90095075D01*
X176624632Y-90076899D01*
X176685791Y-90090318D01*
G37*
G04 #@! TD.AperFunction*
G04 #@! TA.AperFunction,Conductor*
G36*
X180021351Y-90760162D02*
G01*
X180062727Y-90809352D01*
X180176057Y-91051875D01*
X180179113Y-91058985D01*
X180404476Y-91631983D01*
X180407082Y-91639270D01*
X180596257Y-92225191D01*
X180598404Y-92232626D01*
X180706531Y-92656299D01*
X180707442Y-92713803D01*
X180682313Y-92765533D01*
X180636549Y-92800362D01*
X180579993Y-92810798D01*
X180532273Y-92808336D01*
X180483254Y-92795433D01*
X180443494Y-92763994D01*
X180419637Y-92719271D01*
X180414698Y-92702366D01*
X180412092Y-92693445D01*
X180340599Y-92585138D01*
X180240358Y-92502716D01*
X180230202Y-92498553D01*
X180127261Y-92456363D01*
X180127254Y-92456361D01*
X180120278Y-92453502D01*
X180112813Y-92452405D01*
X180112808Y-92452404D01*
X180094251Y-92449678D01*
X180094235Y-92449676D01*
X180091380Y-92449257D01*
X180088490Y-92449105D01*
X180088485Y-92449105D01*
X178608766Y-92371556D01*
X178551538Y-92354103D01*
X178509144Y-92311883D01*
X178491454Y-92254727D01*
X178502587Y-92195941D01*
X178539951Y-92149212D01*
X178594844Y-92125418D01*
X178790054Y-92092843D01*
X179006441Y-92018558D01*
X179207650Y-91909669D01*
X179388191Y-91769148D01*
X179543142Y-91600826D01*
X179668274Y-91409297D01*
X179760175Y-91199784D01*
X179816338Y-90978002D01*
X179826811Y-90851602D01*
X179848540Y-90791115D01*
X179897636Y-90749628D01*
X179960907Y-90738295D01*
X180021351Y-90760162D01*
G37*
G04 #@! TD.AperFunction*
G04 #@! TA.AperFunction,Conductor*
G36*
X162603707Y-89800127D02*
G01*
X162650759Y-89839167D01*
X162673437Y-89895946D01*
X162675280Y-89909951D01*
X162680527Y-89927952D01*
X162722607Y-90018193D01*
X162734862Y-90035694D01*
X162804304Y-90105136D01*
X162814934Y-90112579D01*
X162851199Y-90152153D01*
X162867341Y-90203345D01*
X162860336Y-90256563D01*
X162831496Y-90301835D01*
X162825134Y-90308196D01*
X162814981Y-90314981D01*
X162808196Y-90325134D01*
X162808195Y-90325136D01*
X162761979Y-90394302D01*
X162761977Y-90394305D01*
X162755195Y-90404456D01*
X162752812Y-90416432D01*
X162752812Y-90416434D01*
X162740689Y-90477379D01*
X162740688Y-90477385D01*
X162739500Y-90483360D01*
X162739500Y-90816640D01*
X162740688Y-90822615D01*
X162740689Y-90822620D01*
X162751879Y-90878873D01*
X162755195Y-90895544D01*
X162761978Y-90905696D01*
X162761979Y-90905697D01*
X162801070Y-90964201D01*
X162814981Y-90985019D01*
X162822893Y-90990306D01*
X162852761Y-91040136D01*
X162855717Y-91100322D01*
X162829954Y-91154795D01*
X162781553Y-91190692D01*
X162776433Y-91192812D01*
X162764456Y-91195195D01*
X162754302Y-91201979D01*
X162754301Y-91201980D01*
X162685136Y-91248195D01*
X162685134Y-91248196D01*
X162674981Y-91254981D01*
X162668196Y-91265134D01*
X162661835Y-91271496D01*
X162616563Y-91300336D01*
X162563345Y-91307341D01*
X162512153Y-91291199D01*
X162472579Y-91254934D01*
X162465136Y-91244304D01*
X162395696Y-91174864D01*
X162378190Y-91162606D01*
X162314173Y-91132755D01*
X162302858Y-91130632D01*
X162300000Y-91141784D01*
X162300000Y-92046000D01*
X162283387Y-92108000D01*
X162238000Y-92153387D01*
X162176000Y-92170000D01*
X162136326Y-92170000D01*
X162123450Y-92173450D01*
X162120000Y-92186326D01*
X162120000Y-92676000D01*
X162103387Y-92738000D01*
X162058000Y-92783387D01*
X161996000Y-92800000D01*
X161744000Y-92800000D01*
X161682000Y-92783387D01*
X161636613Y-92738000D01*
X161620000Y-92676000D01*
X161620000Y-92154000D01*
X161636613Y-92092000D01*
X161682000Y-92046613D01*
X161744000Y-92030000D01*
X161783674Y-92030000D01*
X161796549Y-92026549D01*
X161800000Y-92013674D01*
X161800000Y-91144758D01*
X161809541Y-91097062D01*
X161902100Y-90874961D01*
X161905293Y-90867927D01*
X162177147Y-90315452D01*
X162180763Y-90308647D01*
X162442870Y-89850549D01*
X162485379Y-89806606D01*
X162543719Y-89788316D01*
X162603707Y-89800127D01*
G37*
G04 #@! TD.AperFunction*
G04 #@! TA.AperFunction,Conductor*
G36*
X168828000Y-88666613D02*
G01*
X168873387Y-88712000D01*
X168890000Y-88774000D01*
X168890000Y-89283674D01*
X168893788Y-89297813D01*
X168913681Y-89317706D01*
X168940561Y-89357934D01*
X168950000Y-89405387D01*
X168950000Y-89553674D01*
X168953450Y-89566549D01*
X168966326Y-89570000D01*
X169776000Y-89570000D01*
X169838000Y-89586613D01*
X169883387Y-89632000D01*
X169900000Y-89694000D01*
X169900000Y-89946000D01*
X169883387Y-90008000D01*
X169838000Y-90053387D01*
X169776000Y-90070000D01*
X168208515Y-90070000D01*
X168164040Y-90061750D01*
X168150228Y-90053277D01*
X168150000Y-90053745D01*
X168109902Y-90034142D01*
X168091717Y-90028523D01*
X168037656Y-90020646D01*
X168028737Y-90020000D01*
X167966326Y-90020000D01*
X167953450Y-90023450D01*
X167950000Y-90036326D01*
X167950000Y-91232684D01*
X167953450Y-91245559D01*
X167966326Y-91249010D01*
X167986078Y-91249010D01*
X168048078Y-91265623D01*
X168093465Y-91311010D01*
X168110078Y-91373010D01*
X168110078Y-91532684D01*
X168113528Y-91545559D01*
X168126404Y-91549010D01*
X168317088Y-91549010D01*
X168330374Y-91545137D01*
X168331508Y-91537773D01*
X168329550Y-91531058D01*
X168287470Y-91440816D01*
X168279184Y-91428983D01*
X168259244Y-91382562D01*
X168259476Y-91332040D01*
X168279842Y-91285804D01*
X168293299Y-91266955D01*
X168304041Y-91244983D01*
X168337604Y-91202915D01*
X168385830Y-91179029D01*
X168439633Y-91177824D01*
X168445691Y-91179029D01*
X168503360Y-91190500D01*
X168509456Y-91190500D01*
X168816642Y-91190500D01*
X168880943Y-91208474D01*
X168899539Y-91228314D01*
X168901643Y-91222614D01*
X168954509Y-91180939D01*
X168963564Y-91177187D01*
X168975544Y-91174805D01*
X169065019Y-91115019D01*
X169071897Y-91104724D01*
X169072397Y-91104271D01*
X169080440Y-91096229D01*
X169080834Y-91096623D01*
X169116545Y-91064257D01*
X169175000Y-91049614D01*
X169233455Y-91064257D01*
X169269165Y-91096623D01*
X169269560Y-91096229D01*
X169277602Y-91104271D01*
X169278102Y-91104724D01*
X169284981Y-91115019D01*
X169374456Y-91174805D01*
X169453360Y-91190500D01*
X169840544Y-91190500D01*
X169846640Y-91190500D01*
X169925544Y-91174805D01*
X170014886Y-91115107D01*
X170064239Y-91095759D01*
X170117166Y-91098791D01*
X170163990Y-91123650D01*
X170184549Y-91150589D01*
X170186384Y-91149305D01*
X170204862Y-91175694D01*
X170238717Y-91209549D01*
X170271904Y-91269537D01*
X170268145Y-91337991D01*
X170228589Y-91393985D01*
X170165328Y-91420404D01*
X170158932Y-91421146D01*
X170158931Y-91421146D01*
X170149667Y-91422221D01*
X170141136Y-91425987D01*
X170141131Y-91425989D01*
X170064247Y-91459937D01*
X170064244Y-91459938D01*
X170053733Y-91464580D01*
X170045608Y-91472704D01*
X170045605Y-91472707D01*
X169987707Y-91530605D01*
X169987704Y-91530608D01*
X169979580Y-91538733D01*
X169974938Y-91549244D01*
X169974937Y-91549247D01*
X169940989Y-91626131D01*
X169940987Y-91626136D01*
X169937221Y-91634667D01*
X169936146Y-91643925D01*
X169936145Y-91643932D01*
X169934911Y-91654572D01*
X169934910Y-91654582D01*
X169934500Y-91658120D01*
X169934500Y-91661694D01*
X169934500Y-92058000D01*
X169917887Y-92120000D01*
X169872500Y-92165387D01*
X169810500Y-92182000D01*
X169649500Y-92182000D01*
X169587500Y-92165387D01*
X169542113Y-92120000D01*
X169525500Y-92058000D01*
X169525500Y-91661694D01*
X169525500Y-91658120D01*
X169522779Y-91634667D01*
X169480420Y-91538733D01*
X169406267Y-91464580D01*
X169395752Y-91459937D01*
X169318868Y-91425989D01*
X169318864Y-91425988D01*
X169310333Y-91422221D01*
X169301073Y-91421146D01*
X169301067Y-91421145D01*
X169290427Y-91419911D01*
X169290418Y-91419910D01*
X169286880Y-91419500D01*
X169001961Y-91419500D01*
X168937171Y-91401227D01*
X168919489Y-91382099D01*
X168918290Y-91385519D01*
X168866728Y-91427934D01*
X168831731Y-91443387D01*
X168783733Y-91464580D01*
X168775608Y-91472704D01*
X168775605Y-91472707D01*
X168717707Y-91530605D01*
X168717704Y-91530608D01*
X168709580Y-91538733D01*
X168704938Y-91549244D01*
X168704937Y-91549247D01*
X168670989Y-91626131D01*
X168670987Y-91626136D01*
X168667221Y-91634667D01*
X168666146Y-91643925D01*
X168666145Y-91643932D01*
X168664911Y-91654572D01*
X168664910Y-91654582D01*
X168664500Y-91658120D01*
X168664500Y-91661694D01*
X168664500Y-92415500D01*
X168647887Y-92477500D01*
X168602500Y-92522887D01*
X168540500Y-92539500D01*
X168139688Y-92539500D01*
X168082832Y-92525697D01*
X168038633Y-92487361D01*
X168016933Y-92433026D01*
X168022561Y-92374790D01*
X168054265Y-92325617D01*
X168090502Y-92304782D01*
X168089434Y-92302491D01*
X168188271Y-92256402D01*
X168205772Y-92244147D01*
X168275215Y-92174704D01*
X168287470Y-92157203D01*
X168329550Y-92066961D01*
X168331508Y-92060246D01*
X168330374Y-92052882D01*
X168317088Y-92049010D01*
X167734078Y-92049010D01*
X167672078Y-92032397D01*
X167626691Y-91987010D01*
X167610078Y-91925010D01*
X167610078Y-91476326D01*
X167606627Y-91463450D01*
X167593752Y-91460000D01*
X167574000Y-91460000D01*
X167512000Y-91443387D01*
X167466613Y-91398000D01*
X167450000Y-91336000D01*
X167450000Y-90036327D01*
X167446549Y-90023451D01*
X167433674Y-90020001D01*
X167371270Y-90020001D01*
X167362343Y-90020647D01*
X167308281Y-90028523D01*
X167281109Y-90036920D01*
X167223775Y-90040703D01*
X167170891Y-90018235D01*
X167133812Y-89974342D01*
X167120500Y-89918447D01*
X167120500Y-89406127D01*
X167129939Y-89358674D01*
X167156816Y-89318448D01*
X167288447Y-89186816D01*
X167328673Y-89159939D01*
X167376126Y-89150500D01*
X168038306Y-89150500D01*
X168041880Y-89150500D01*
X168065333Y-89147779D01*
X168065533Y-89149509D01*
X168109373Y-89148086D01*
X168161404Y-89172220D01*
X168197008Y-89217186D01*
X168221766Y-89270281D01*
X168234021Y-89287782D01*
X168250022Y-89303783D01*
X168282114Y-89359363D01*
X168282120Y-89423543D01*
X168258853Y-89463855D01*
X168261086Y-89465418D01*
X168242606Y-89491809D01*
X168212755Y-89555826D01*
X168210632Y-89567141D01*
X168221784Y-89570000D01*
X168433674Y-89570000D01*
X168446549Y-89566549D01*
X168450000Y-89553674D01*
X168450000Y-89476326D01*
X168446211Y-89462186D01*
X168426319Y-89442294D01*
X168399439Y-89402066D01*
X168390000Y-89354613D01*
X168390000Y-88774000D01*
X168406613Y-88712000D01*
X168452000Y-88666613D01*
X168514000Y-88650000D01*
X168766000Y-88650000D01*
X168828000Y-88666613D01*
G37*
G04 #@! TD.AperFunction*
G04 #@! TA.AperFunction,Conductor*
G36*
X165318000Y-91266613D02*
G01*
X165363387Y-91312000D01*
X165380000Y-91374000D01*
X165380000Y-91956531D01*
X165366484Y-92012827D01*
X165357694Y-92030076D01*
X165357691Y-92030083D01*
X165353263Y-92038775D01*
X165351737Y-92048409D01*
X165351735Y-92048416D01*
X165335647Y-92150000D01*
X165333562Y-92149669D01*
X165324386Y-92189024D01*
X165288659Y-92232557D01*
X165237363Y-92255798D01*
X165227051Y-92257848D01*
X165204922Y-92267014D01*
X165189042Y-92277626D01*
X165136336Y-92297463D01*
X165080292Y-92291943D01*
X165032470Y-92262205D01*
X164903156Y-92132891D01*
X164871239Y-92077955D01*
X164870720Y-92014423D01*
X164880000Y-91978217D01*
X164880000Y-91374000D01*
X164896613Y-91312000D01*
X164942000Y-91266613D01*
X165004000Y-91250000D01*
X165256000Y-91250000D01*
X165318000Y-91266613D01*
G37*
G04 #@! TD.AperFunction*
G04 #@! TA.AperFunction,Conductor*
G36*
X170308968Y-90057301D02*
G01*
X170309545Y-90057696D01*
X170317671Y-90065822D01*
X170359338Y-90084220D01*
X170404322Y-90118043D01*
X170429721Y-90168271D01*
X170430299Y-90224552D01*
X170405939Y-90275291D01*
X170361658Y-90310035D01*
X170291804Y-90342609D01*
X170274305Y-90354862D01*
X170204860Y-90424307D01*
X170201533Y-90429059D01*
X170161958Y-90465320D01*
X170110766Y-90481459D01*
X170057550Y-90474452D01*
X170017782Y-90449116D01*
X170015019Y-90444981D01*
X170004865Y-90438196D01*
X169998505Y-90431836D01*
X169969664Y-90386564D01*
X169962658Y-90333345D01*
X169978801Y-90282151D01*
X170015067Y-90242577D01*
X170025698Y-90235133D01*
X170095137Y-90165694D01*
X170107391Y-90148194D01*
X170126508Y-90107197D01*
X170158941Y-90064816D01*
X170206182Y-90039992D01*
X170259482Y-90037322D01*
X170308968Y-90057301D01*
G37*
G04 #@! TD.AperFunction*
G04 #@! TA.AperFunction,Conductor*
G36*
X166377776Y-87089601D02*
G01*
X166424402Y-87127569D01*
X166447684Y-87183008D01*
X166449702Y-87196127D01*
X166462990Y-87200000D01*
X167046000Y-87200000D01*
X167108000Y-87216613D01*
X167153387Y-87262000D01*
X167170000Y-87324000D01*
X167170000Y-87928220D01*
X167170407Y-87929808D01*
X167173867Y-87970803D01*
X167163723Y-88010673D01*
X167142389Y-88058989D01*
X167122221Y-88104667D01*
X167121146Y-88113925D01*
X167121145Y-88113932D01*
X167119911Y-88124572D01*
X167119910Y-88124582D01*
X167119500Y-88128120D01*
X167119500Y-88131694D01*
X167119500Y-88793873D01*
X167110061Y-88841326D01*
X167083183Y-88881551D01*
X166960729Y-89004004D01*
X166909657Y-89034795D01*
X166850115Y-89038182D01*
X166795878Y-89013381D01*
X166759493Y-88966129D01*
X166749375Y-88907355D01*
X166750000Y-88898735D01*
X166750000Y-88786326D01*
X166746549Y-88773450D01*
X166733674Y-88770000D01*
X166366326Y-88770000D01*
X166353450Y-88773450D01*
X166350000Y-88786326D01*
X166350000Y-89203673D01*
X166353450Y-89216548D01*
X166366326Y-89219999D01*
X166428730Y-89219999D01*
X166437656Y-89219352D01*
X166491721Y-89211475D01*
X166509897Y-89205859D01*
X166580311Y-89171436D01*
X166643045Y-89159112D01*
X166703579Y-89179678D01*
X166745823Y-89227666D01*
X166758546Y-89290319D01*
X166757144Y-89313508D01*
X166757023Y-89313500D01*
X166756826Y-89318745D01*
X166759500Y-89318745D01*
X166759500Y-90037687D01*
X166741674Y-90101743D01*
X166693321Y-90147381D01*
X166628343Y-90161480D01*
X166567323Y-90140636D01*
X166561267Y-90134580D01*
X166523814Y-90118043D01*
X166473868Y-90095989D01*
X166473864Y-90095988D01*
X166465333Y-90092221D01*
X166456073Y-90091146D01*
X166456067Y-90091145D01*
X166445427Y-90089911D01*
X166445418Y-90089910D01*
X166441880Y-90089500D01*
X165758120Y-90089500D01*
X165754582Y-90089910D01*
X165754572Y-90089911D01*
X165743932Y-90091145D01*
X165743925Y-90091146D01*
X165734667Y-90092221D01*
X165726133Y-90095988D01*
X165717138Y-90098437D01*
X165716725Y-90096921D01*
X165670217Y-90105072D01*
X165613571Y-90086858D01*
X165571932Y-90044354D01*
X165554886Y-89987345D01*
X165566360Y-89928960D01*
X165587245Y-89884171D01*
X165589367Y-89872858D01*
X165578216Y-89870000D01*
X164974000Y-89870000D01*
X164912000Y-89853387D01*
X164866613Y-89808000D01*
X164850000Y-89746000D01*
X164850000Y-89353674D01*
X165350000Y-89353674D01*
X165353450Y-89366549D01*
X165366326Y-89370000D01*
X165578216Y-89370000D01*
X165589367Y-89367142D01*
X165588005Y-89359882D01*
X165591049Y-89301585D01*
X165620429Y-89251142D01*
X165669634Y-89219731D01*
X165727758Y-89214314D01*
X165762345Y-89219353D01*
X165771263Y-89220000D01*
X165833674Y-89220000D01*
X165846549Y-89216549D01*
X165850000Y-89203674D01*
X165850000Y-88786326D01*
X165846549Y-88773450D01*
X165833674Y-88770000D01*
X165696136Y-88770000D01*
X165683260Y-88773450D01*
X165679781Y-88786435D01*
X165654996Y-88834047D01*
X165612411Y-88866724D01*
X165560006Y-88878342D01*
X165426136Y-88878342D01*
X165413260Y-88881792D01*
X165409810Y-88894668D01*
X165409810Y-89073145D01*
X165400371Y-89120598D01*
X165373491Y-89160826D01*
X165353788Y-89180528D01*
X165350000Y-89194668D01*
X165350000Y-89353674D01*
X164850000Y-89353674D01*
X164850000Y-89205197D01*
X164859439Y-89157744D01*
X164886319Y-89117516D01*
X164906021Y-89097813D01*
X164909810Y-89083674D01*
X164909810Y-88502342D01*
X164926423Y-88440342D01*
X164971810Y-88394955D01*
X165033810Y-88378342D01*
X165393674Y-88378342D01*
X165406549Y-88374891D01*
X165410029Y-88361907D01*
X165434814Y-88314295D01*
X165477399Y-88281618D01*
X165529804Y-88270000D01*
X165833674Y-88270000D01*
X165846549Y-88266549D01*
X165850000Y-88253674D01*
X166350000Y-88253674D01*
X166353450Y-88266549D01*
X166366326Y-88270000D01*
X166733673Y-88270000D01*
X166746548Y-88266549D01*
X166749999Y-88253674D01*
X166749999Y-88141270D01*
X166749352Y-88132343D01*
X166741475Y-88078277D01*
X166735860Y-88060102D01*
X166714124Y-88015641D01*
X166701907Y-88002091D01*
X166678251Y-87963533D01*
X166670000Y-87919056D01*
X166670000Y-87716326D01*
X166666549Y-87703450D01*
X166653674Y-87700000D01*
X166462990Y-87700000D01*
X166449702Y-87703872D01*
X166446956Y-87721721D01*
X166430874Y-87766413D01*
X166399170Y-87801780D01*
X166356495Y-87822633D01*
X166353450Y-87823448D01*
X166350000Y-87836326D01*
X166350000Y-88253674D01*
X165850000Y-88253674D01*
X165850000Y-87836327D01*
X165846549Y-87823451D01*
X165833674Y-87820001D01*
X165771270Y-87820001D01*
X165762336Y-87820648D01*
X165762056Y-87820689D01*
X165761940Y-87820676D01*
X165757866Y-87820972D01*
X165757812Y-87820239D01*
X165701021Y-87814227D01*
X165650563Y-87779287D01*
X165623041Y-87724428D01*
X165625198Y-87663091D01*
X165656505Y-87610304D01*
X166024904Y-87241905D01*
X166048707Y-87223307D01*
X166261258Y-87095582D01*
X166318770Y-87078032D01*
X166377776Y-87089601D01*
G37*
G04 #@! TD.AperFunction*
G04 #@! TA.AperFunction,Conductor*
G36*
X173685848Y-85382572D02*
G01*
X173743069Y-85397778D01*
X173862024Y-85429391D01*
X173869394Y-85431598D01*
X174453456Y-85626561D01*
X174460703Y-85629234D01*
X174838892Y-85782307D01*
X175031455Y-85860247D01*
X175038535Y-85863373D01*
X175593760Y-86129538D01*
X175600611Y-86133090D01*
X176138152Y-86433372D01*
X176144760Y-86437338D01*
X176181056Y-86460698D01*
X176225498Y-86510818D01*
X176237386Y-86576742D01*
X176213249Y-86639230D01*
X176160132Y-86680046D01*
X176093536Y-86687277D01*
X175875212Y-86650844D01*
X175865017Y-86650000D01*
X175634983Y-86650000D01*
X175624788Y-86650844D01*
X175397884Y-86688708D01*
X175387972Y-86691219D01*
X175170393Y-86765913D01*
X175161039Y-86770016D01*
X174958718Y-86879507D01*
X174950156Y-86885101D01*
X174929486Y-86901190D01*
X174921379Y-86912379D01*
X174928039Y-86924485D01*
X175750000Y-87746447D01*
X176015872Y-88012319D01*
X176047966Y-88067906D01*
X176047966Y-88132094D01*
X176015872Y-88187681D01*
X174928040Y-89275512D01*
X174921379Y-89287620D01*
X174929484Y-89298808D01*
X174950155Y-89314897D01*
X174958721Y-89320494D01*
X175161039Y-89429983D01*
X175170393Y-89434086D01*
X175387972Y-89508780D01*
X175397884Y-89511291D01*
X175624788Y-89549155D01*
X175634983Y-89550000D01*
X175865017Y-89550000D01*
X175875211Y-89549155D01*
X176102115Y-89511291D01*
X176112027Y-89508780D01*
X176329606Y-89434086D01*
X176338964Y-89429981D01*
X176386038Y-89404506D01*
X176446490Y-89389568D01*
X176506581Y-89405900D01*
X176551156Y-89449383D01*
X176568974Y-89509050D01*
X176555541Y-89569852D01*
X176507685Y-89663775D01*
X176506158Y-89673411D01*
X176506157Y-89673417D01*
X176497061Y-89730852D01*
X176490069Y-89775000D01*
X176491596Y-89784641D01*
X176491596Y-89784642D01*
X176502122Y-89851103D01*
X176498993Y-89904159D01*
X176473939Y-89951032D01*
X176431563Y-89983110D01*
X176379649Y-89994500D01*
X176309915Y-89994500D01*
X176288251Y-89992366D01*
X176286975Y-89992366D01*
X176275000Y-89989984D01*
X176263024Y-89992366D01*
X176261754Y-89992366D01*
X176240082Y-89994500D01*
X176168238Y-89994500D01*
X176168228Y-89994500D01*
X176162146Y-89994501D01*
X176156175Y-89995688D01*
X176156169Y-89995689D01*
X176136058Y-89999688D01*
X176136052Y-89999690D01*
X176124081Y-90002071D01*
X176117836Y-90006243D01*
X176074996Y-90014763D01*
X176032160Y-90006241D01*
X176025919Y-90002071D01*
X176013944Y-89999689D01*
X175993825Y-89995687D01*
X175993820Y-89995686D01*
X175987855Y-89994500D01*
X175981766Y-89994500D01*
X175909915Y-89994500D01*
X175888251Y-89992366D01*
X175886975Y-89992366D01*
X175875000Y-89989984D01*
X175863024Y-89992366D01*
X175861754Y-89992366D01*
X175840082Y-89994500D01*
X175768238Y-89994500D01*
X175768228Y-89994500D01*
X175762146Y-89994501D01*
X175756175Y-89995688D01*
X175756169Y-89995689D01*
X175736058Y-89999688D01*
X175736052Y-89999690D01*
X175724081Y-90002071D01*
X175717836Y-90006243D01*
X175674996Y-90014763D01*
X175632160Y-90006241D01*
X175625919Y-90002071D01*
X175613944Y-89999689D01*
X175593825Y-89995687D01*
X175593820Y-89995686D01*
X175587855Y-89994500D01*
X175581766Y-89994500D01*
X175509915Y-89994500D01*
X175488251Y-89992366D01*
X175486975Y-89992366D01*
X175475000Y-89989984D01*
X175463024Y-89992366D01*
X175461754Y-89992366D01*
X175440082Y-89994500D01*
X175368238Y-89994500D01*
X175368228Y-89994500D01*
X175362146Y-89994501D01*
X175356175Y-89995688D01*
X175356169Y-89995689D01*
X175336058Y-89999688D01*
X175336052Y-89999690D01*
X175324081Y-90002071D01*
X175317836Y-90006243D01*
X175274996Y-90014763D01*
X175232160Y-90006241D01*
X175225919Y-90002071D01*
X175213944Y-89999689D01*
X175193825Y-89995687D01*
X175193820Y-89995686D01*
X175187855Y-89994500D01*
X175181766Y-89994500D01*
X175109915Y-89994500D01*
X175088251Y-89992366D01*
X175086975Y-89992366D01*
X175075000Y-89989984D01*
X175063024Y-89992366D01*
X175061753Y-89992366D01*
X175040080Y-89994500D01*
X175029500Y-89994500D01*
X174967500Y-89977887D01*
X174922113Y-89932500D01*
X174905500Y-89870500D01*
X174905500Y-89815877D01*
X174905670Y-89809388D01*
X174906376Y-89795913D01*
X174907749Y-89769715D01*
X174902902Y-89757091D01*
X174900190Y-89750023D01*
X174894662Y-89731364D01*
X174892986Y-89723480D01*
X174890277Y-89710732D01*
X174882614Y-89700185D01*
X174880344Y-89695086D01*
X174877302Y-89690402D01*
X174872632Y-89678235D01*
X174857720Y-89663323D01*
X174845082Y-89648526D01*
X174840341Y-89642000D01*
X174840340Y-89641999D01*
X174832681Y-89631457D01*
X174821394Y-89624940D01*
X174811708Y-89616219D01*
X174811959Y-89615939D01*
X174804984Y-89610587D01*
X174573438Y-89379041D01*
X174337979Y-89143581D01*
X174333510Y-89138872D01*
X174306933Y-89109355D01*
X174287659Y-89100773D01*
X174270569Y-89091495D01*
X174252871Y-89080002D01*
X174239997Y-89077962D01*
X174234783Y-89075961D01*
X174229319Y-89074799D01*
X174217415Y-89069500D01*
X174204382Y-89069500D01*
X174196321Y-89069500D01*
X174176923Y-89067973D01*
X174168959Y-89066711D01*
X174168956Y-89066711D01*
X174156088Y-89064673D01*
X174143503Y-89068045D01*
X174131601Y-89068669D01*
X174071728Y-89056758D01*
X174024794Y-89017722D01*
X174002175Y-88961025D01*
X173999163Y-88938141D01*
X173949906Y-88832509D01*
X173867491Y-88750094D01*
X173801882Y-88719500D01*
X173770455Y-88704845D01*
X173770452Y-88704844D01*
X173761859Y-88700837D01*
X173752459Y-88699599D01*
X173752454Y-88699598D01*
X173717744Y-88695029D01*
X173717740Y-88695028D01*
X173713724Y-88694500D01*
X173236276Y-88694500D01*
X173232260Y-88695028D01*
X173232255Y-88695029D01*
X173198364Y-88699491D01*
X173142320Y-88693971D01*
X173094498Y-88664233D01*
X173061946Y-88631681D01*
X173031696Y-88582318D01*
X173027154Y-88524602D01*
X173049309Y-88471115D01*
X173093332Y-88433515D01*
X173149627Y-88420000D01*
X173513674Y-88420000D01*
X173530000Y-88420000D01*
X173530000Y-88105117D01*
X174295455Y-88105117D01*
X174314450Y-88334360D01*
X174316134Y-88344455D01*
X174372606Y-88567457D01*
X174375925Y-88577124D01*
X174468333Y-88787794D01*
X174473195Y-88796777D01*
X174555123Y-88922179D01*
X174563087Y-88929899D01*
X174572469Y-88923975D01*
X175384903Y-88111542D01*
X175391567Y-88100000D01*
X175384903Y-88088457D01*
X174572468Y-87276022D01*
X174563088Y-87270099D01*
X174555121Y-87277824D01*
X174473198Y-87403217D01*
X174468332Y-87412207D01*
X174375925Y-87622875D01*
X174372606Y-87632542D01*
X174316134Y-87855544D01*
X174314450Y-87865639D01*
X174295455Y-88094883D01*
X174295455Y-88105117D01*
X173530000Y-88105117D01*
X173530000Y-85502412D01*
X173542760Y-85447625D01*
X173578413Y-85404114D01*
X173629622Y-85380832D01*
X173685848Y-85382572D01*
G37*
G04 #@! TD.AperFunction*
G04 #@! TA.AperFunction,Conductor*
G36*
X163750397Y-88306632D02*
G01*
X163786441Y-88360115D01*
X163790423Y-88419600D01*
X163791096Y-88419667D01*
X163790698Y-88423706D01*
X163790749Y-88424467D01*
X163790499Y-88425721D01*
X163790498Y-88425727D01*
X163789310Y-88431702D01*
X163789310Y-88437798D01*
X163789310Y-88448623D01*
X163779441Y-88489725D01*
X163781485Y-88490390D01*
X163774439Y-88512070D01*
X163767000Y-88530029D01*
X163761081Y-88541646D01*
X163761077Y-88541656D01*
X163756651Y-88550345D01*
X163755125Y-88559976D01*
X163755124Y-88559981D01*
X163753085Y-88572858D01*
X163748544Y-88591772D01*
X163741500Y-88613452D01*
X163741500Y-88623209D01*
X163741500Y-89166763D01*
X163723509Y-89231091D01*
X163674757Y-89276752D01*
X163609391Y-89290498D01*
X163546377Y-89268339D01*
X163538189Y-89262605D01*
X163447951Y-89220527D01*
X163441236Y-89218569D01*
X163433872Y-89219703D01*
X163430000Y-89232990D01*
X163430000Y-89816000D01*
X163413387Y-89878000D01*
X163368000Y-89923387D01*
X163306000Y-89940000D01*
X163054000Y-89940000D01*
X162992000Y-89923387D01*
X162946613Y-89878000D01*
X162930000Y-89816000D01*
X162930000Y-89232990D01*
X162923363Y-89210221D01*
X162920421Y-89153265D01*
X162943284Y-89101020D01*
X163203514Y-88754799D01*
X163208333Y-88748787D01*
X163574849Y-88319744D01*
X163628051Y-88283290D01*
X163692367Y-88278485D01*
X163750397Y-88306632D01*
G37*
G04 #@! TD.AperFunction*
G04 #@! TA.AperFunction,Conductor*
G36*
X177120036Y-87106857D02*
G01*
X177164876Y-87139846D01*
X177170941Y-87144607D01*
X177490782Y-87412207D01*
X177643178Y-87539712D01*
X177648951Y-87544857D01*
X177839392Y-87725544D01*
X178095620Y-87968650D01*
X178101065Y-87974149D01*
X178188278Y-88067906D01*
X178519950Y-88424467D01*
X178520426Y-88424978D01*
X178525513Y-88430801D01*
X178649903Y-88582493D01*
X178915935Y-88906915D01*
X178920645Y-88913039D01*
X179220724Y-89329478D01*
X179243662Y-89391298D01*
X179231665Y-89456138D01*
X179188125Y-89505659D01*
X179125354Y-89525859D01*
X179061105Y-89511024D01*
X179010948Y-89483880D01*
X179010937Y-89483875D01*
X179006441Y-89481442D01*
X179001600Y-89479780D01*
X179001593Y-89479777D01*
X178794903Y-89408821D01*
X178794895Y-89408819D01*
X178790054Y-89407157D01*
X178785007Y-89406314D01*
X178785000Y-89406313D01*
X178569453Y-89370344D01*
X178569444Y-89370343D01*
X178564391Y-89369500D01*
X178335609Y-89369500D01*
X178330549Y-89370344D01*
X178330541Y-89370345D01*
X178286660Y-89377667D01*
X178225019Y-89372302D01*
X178173645Y-89337820D01*
X178145328Y-89282806D01*
X178147119Y-89220959D01*
X178178572Y-89167676D01*
X178210871Y-89135377D01*
X178215863Y-89127230D01*
X178206573Y-89125000D01*
X177624000Y-89125000D01*
X177562000Y-89108387D01*
X177516613Y-89063000D01*
X177500000Y-89001000D01*
X177500000Y-88608674D01*
X178000000Y-88608674D01*
X178003450Y-88621549D01*
X178016326Y-88625000D01*
X178164147Y-88625000D01*
X178173437Y-88622769D01*
X178168445Y-88614622D01*
X178010377Y-88456554D01*
X178002230Y-88451562D01*
X178000000Y-88460853D01*
X178000000Y-88608674D01*
X177500000Y-88608674D01*
X177500000Y-88418427D01*
X177497769Y-88409136D01*
X177489624Y-88414127D01*
X177374992Y-88528759D01*
X177319734Y-88560763D01*
X177255877Y-88561027D01*
X177200357Y-88529480D01*
X177167897Y-88474488D01*
X177167106Y-88410636D01*
X177183863Y-88344463D01*
X177185549Y-88334360D01*
X177204545Y-88105117D01*
X177204545Y-88094883D01*
X177185549Y-87865639D01*
X177183865Y-87855544D01*
X177127393Y-87632542D01*
X177124074Y-87622875D01*
X177031666Y-87412205D01*
X177026804Y-87403222D01*
X176942747Y-87274562D01*
X176922586Y-87209462D01*
X176939870Y-87143541D01*
X176989380Y-87096709D01*
X177056159Y-87083112D01*
X177120036Y-87106857D01*
G37*
G04 #@! TD.AperFunction*
M02*
