G04 #@! TF.GenerationSoftware,KiCad,Pcbnew,(7.0.0-0)*
G04 #@! TF.CreationDate,2024-01-26T00:14:48+08:00*
G04 #@! TF.ProjectId,Revolute,5265766f-6c75-4746-952e-6b696361645f,rev?*
G04 #@! TF.SameCoordinates,Original*
G04 #@! TF.FileFunction,Legend,Bot*
G04 #@! TF.FilePolarity,Positive*
%FSLAX46Y46*%
G04 Gerber Fmt 4.6, Leading zero omitted, Abs format (unit mm)*
G04 Created by KiCad (PCBNEW (7.0.0-0)) date 2024-01-26 00:14:48*
%MOMM*%
%LPD*%
G01*
G04 APERTURE LIST*
G04 Aperture macros list*
%AMRoundRect*
0 Rectangle with rounded corners*
0 $1 Rounding radius*
0 $2 $3 $4 $5 $6 $7 $8 $9 X,Y pos of 4 corners*
0 Add a 4 corners polygon primitive as box body*
4,1,4,$2,$3,$4,$5,$6,$7,$8,$9,$2,$3,0*
0 Add four circle primitives for the rounded corners*
1,1,$1+$1,$2,$3*
1,1,$1+$1,$4,$5*
1,1,$1+$1,$6,$7*
1,1,$1+$1,$8,$9*
0 Add four rect primitives between the rounded corners*
20,1,$1+$1,$2,$3,$4,$5,0*
20,1,$1+$1,$4,$5,$6,$7,0*
20,1,$1+$1,$6,$7,$8,$9,0*
20,1,$1+$1,$8,$9,$2,$3,0*%
G04 Aperture macros list end*
%ADD10C,0.120000*%
%ADD11C,0.100000*%
%ADD12C,0.150000*%
%ADD13RoundRect,0.200000X0.200000X-0.200000X0.200000X0.200000X-0.200000X0.200000X-0.200000X-0.200000X0*%
%ADD14RoundRect,0.200000X0.730867X-1.340087X0.866940X1.256350X-0.730867X1.340087X-0.866940X-1.256350X0*%
%ADD15RoundRect,0.300000X1.135552X-1.261159X1.261159X1.135552X-1.135552X1.261159X-1.261159X-1.135552X0*%
%ADD16RoundRect,0.140000X0.021213X-0.219203X0.219203X-0.021213X-0.021213X0.219203X-0.219203X0.021213X0*%
%ADD17RoundRect,0.140000X0.140000X0.170000X-0.140000X0.170000X-0.140000X-0.170000X0.140000X-0.170000X0*%
%ADD18C,2.500000*%
%ADD19RoundRect,0.147500X-0.147500X-0.172500X0.147500X-0.172500X0.147500X0.172500X-0.147500X0.172500X0*%
%ADD20RoundRect,0.135000X-0.185000X0.135000X-0.185000X-0.135000X0.185000X-0.135000X0.185000X0.135000X0*%
%ADD21RoundRect,0.200000X-0.200000X-0.275000X0.200000X-0.275000X0.200000X0.275000X-0.200000X0.275000X0*%
%ADD22RoundRect,0.147500X-0.172500X0.147500X-0.172500X-0.147500X0.172500X-0.147500X0.172500X0.147500X0*%
%ADD23RoundRect,0.250000X-0.350000X-0.650000X0.350000X-0.650000X0.350000X0.650000X-0.350000X0.650000X0*%
%ADD24RoundRect,0.147500X0.172500X-0.147500X0.172500X0.147500X-0.172500X0.147500X-0.172500X-0.147500X0*%
%ADD25RoundRect,0.140000X-0.140000X-0.170000X0.140000X-0.170000X0.140000X0.170000X-0.140000X0.170000X0*%
%ADD26R,0.180000X0.325000*%
%ADD27R,0.750000X0.235000*%
%ADD28R,0.215000X1.040000*%
%ADD29RoundRect,0.140000X-0.170000X0.140000X-0.170000X-0.140000X0.170000X-0.140000X0.170000X0.140000X0*%
%ADD30RoundRect,0.062500X0.062500X-0.375000X0.062500X0.375000X-0.062500X0.375000X-0.062500X-0.375000X0*%
%ADD31RoundRect,0.062500X0.375000X-0.062500X0.375000X0.062500X-0.375000X0.062500X-0.375000X-0.062500X0*%
%ADD32R,1.600000X1.600000*%
%ADD33RoundRect,0.150000X0.300000X-0.350000X0.300000X0.350000X-0.300000X0.350000X-0.300000X-0.350000X0*%
%ADD34R,1.100000X0.600000*%
%ADD35RoundRect,0.135000X0.135000X0.185000X-0.135000X0.185000X-0.135000X-0.185000X0.135000X-0.185000X0*%
%ADD36RoundRect,0.140000X0.170000X-0.140000X0.170000X0.140000X-0.170000X0.140000X-0.170000X-0.140000X0*%
%ADD37RoundRect,0.135000X-0.135000X-0.185000X0.135000X-0.185000X0.135000X0.185000X-0.135000X0.185000X0*%
%ADD38RoundRect,0.062500X0.062500X-0.212500X0.062500X0.212500X-0.062500X0.212500X-0.062500X-0.212500X0*%
%ADD39RoundRect,0.062500X0.212500X-0.062500X0.212500X0.062500X-0.212500X0.062500X-0.212500X-0.062500X0*%
%ADD40R,3.600000X3.600000*%
%ADD41RoundRect,0.135000X0.185000X-0.135000X0.185000X0.135000X-0.185000X0.135000X-0.185000X-0.135000X0*%
%ADD42RoundRect,0.147500X0.147500X0.172500X-0.147500X0.172500X-0.147500X-0.172500X0.147500X-0.172500X0*%
%ADD43RoundRect,0.150000X-0.150000X0.662500X-0.150000X-0.662500X0.150000X-0.662500X0.150000X0.662500X0*%
%ADD44R,3.200000X2.514000*%
%ADD45RoundRect,0.150000X0.512500X0.150000X-0.512500X0.150000X-0.512500X-0.150000X0.512500X-0.150000X0*%
%ADD46RoundRect,0.050000X0.100000X-0.100000X0.100000X0.100000X-0.100000X0.100000X-0.100000X-0.100000X0*%
%ADD47O,0.300000X0.950000*%
%ADD48R,0.575000X0.400000*%
%ADD49R,0.675000X0.400000*%
%ADD50R,1.950000X2.600000*%
G04 APERTURE END LIST*
D10*
X177079779Y-89036104D02*
X177232282Y-88883601D01*
X177588896Y-89545221D02*
X177741399Y-89392718D01*
X165202177Y-98541217D02*
X164986505Y-98541217D01*
X165202177Y-97821217D02*
X164986505Y-97821217D01*
X175682836Y-103185000D02*
X175467164Y-103185000D01*
X175682836Y-102465000D02*
X175467164Y-102465000D01*
X172412742Y-88777500D02*
X172887258Y-88777500D01*
X172412742Y-89822500D02*
X172887258Y-89822500D01*
D11*
X170700000Y-88110000D02*
G75*
G03*
X170700000Y-88110000I-50000J0D01*
G01*
D10*
X168515000Y-85915000D02*
X172425000Y-85915000D01*
X168515000Y-88235000D02*
X168515000Y-85915000D01*
X172425000Y-88235000D02*
X168515000Y-88235000D01*
X165242164Y-100760000D02*
X165457836Y-100760000D01*
X165242164Y-101480000D02*
X165457836Y-101480000D01*
X171207836Y-91160000D02*
X170992164Y-91160000D01*
X171207836Y-90440000D02*
X170992164Y-90440000D01*
D11*
X173600000Y-96225000D02*
X173600000Y-96025000D01*
X173600000Y-97825000D02*
X173600000Y-97425000D01*
X173800000Y-97825000D02*
X173600000Y-97825000D01*
X174850000Y-95825000D02*
X174700000Y-95825000D01*
X174850000Y-97825000D02*
X174700000Y-97825000D01*
X175200000Y-95825000D02*
X175150000Y-95825000D01*
X175200000Y-97825000D02*
X175150000Y-97825000D01*
X175550000Y-95825000D02*
X175500000Y-95825000D01*
X175550000Y-97825000D02*
X175500000Y-97825000D01*
X175900000Y-95825000D02*
X175850000Y-95825000D01*
X175900000Y-97825000D02*
X175850000Y-97825000D01*
X176250000Y-95825000D02*
X176200000Y-95825000D01*
X176250000Y-97825000D02*
X176200000Y-97825000D01*
X176700000Y-95825000D02*
X176550000Y-95825000D01*
X176700000Y-97825000D02*
X176550000Y-97825000D01*
X177600000Y-95825000D02*
X177800000Y-95825000D01*
X177800000Y-95825000D02*
X177800000Y-96225000D01*
X177800000Y-97825000D02*
X177600000Y-97825000D01*
X177800000Y-97825000D02*
X177800000Y-97425000D01*
D12*
X173679974Y-95793323D02*
G75*
G03*
X173679974Y-95793323I-1J0D01*
G01*
D10*
X167292164Y-87090000D02*
X167507836Y-87090000D01*
X167292164Y-87810000D02*
X167507836Y-87810000D01*
X165460000Y-89992164D02*
X165460000Y-90207836D01*
X164740000Y-89992164D02*
X164740000Y-90207836D01*
X165300000Y-99612164D02*
X165300000Y-99827836D01*
X164580000Y-99612164D02*
X164580000Y-99827836D01*
X167870000Y-103530000D02*
X168345000Y-103530000D01*
X167870000Y-103055000D02*
X167870000Y-103530000D01*
X171090000Y-103055000D02*
X171090000Y-103530000D01*
X167870000Y-100785000D02*
X167870000Y-100310000D01*
X171090000Y-100785000D02*
X171090000Y-100310000D01*
X167870000Y-100310000D02*
X168345000Y-100310000D01*
X171090000Y-100310000D02*
X170615000Y-100310000D01*
D11*
X166630000Y-91150000D02*
X167170000Y-91150000D01*
X165730000Y-89090000D02*
X165730000Y-90150000D01*
X168080000Y-89090000D02*
X168080000Y-90150000D01*
X166630000Y-88090000D02*
X167170000Y-88090000D01*
D10*
X166730000Y-90370000D02*
G75*
G03*
X166410000Y-90050000I-320001J-1D01*
G01*
X170010000Y-90192164D02*
X170010000Y-90407836D01*
X169290000Y-90192164D02*
X169290000Y-90407836D01*
X173133641Y-99570000D02*
X172826359Y-99570000D01*
X173133641Y-98810000D02*
X172826359Y-98810000D01*
X163326408Y-98508521D02*
X163110736Y-98508521D01*
X163326408Y-97788521D02*
X163110736Y-97788521D01*
X167272242Y-91439010D02*
X167487914Y-91439010D01*
X167272242Y-92159010D02*
X167487914Y-92159010D01*
X168340000Y-90407836D02*
X168340000Y-90192164D01*
X169060000Y-90407836D02*
X169060000Y-90192164D01*
X164787646Y-88988342D02*
X164571974Y-88988342D01*
X164787646Y-88268342D02*
X164571974Y-88268342D01*
X165292164Y-101760000D02*
X165507836Y-101760000D01*
X165292164Y-102480000D02*
X165507836Y-102480000D01*
X172442164Y-101710000D02*
X172657836Y-101710000D01*
X172442164Y-102430000D02*
X172657836Y-102430000D01*
X162970000Y-97630000D02*
X163395000Y-97630000D01*
X162970000Y-97205000D02*
X162970000Y-97630000D01*
X168190000Y-97205000D02*
X168190000Y-97630000D01*
X162970000Y-92835000D02*
X162970000Y-92410000D01*
X168190000Y-92835000D02*
X168190000Y-92410000D01*
X162970000Y-92410000D02*
X163395000Y-92410000D01*
X168190000Y-92410000D02*
X167765000Y-92410000D01*
X172442164Y-102660000D02*
X172657836Y-102660000D01*
X172442164Y-103380000D02*
X172657836Y-103380000D01*
X166224166Y-99612164D02*
X166224166Y-99827836D01*
X165504166Y-99612164D02*
X165504166Y-99827836D01*
X164757836Y-91860000D02*
X164542164Y-91860000D01*
X164757836Y-91140000D02*
X164542164Y-91140000D01*
X172872164Y-90215000D02*
X173087836Y-90215000D01*
X172872164Y-90935000D02*
X173087836Y-90935000D01*
X161510000Y-93137836D02*
X161510000Y-92922164D01*
X162230000Y-93137836D02*
X162230000Y-92922164D01*
D11*
X173710000Y-100190000D02*
G75*
G03*
X173710000Y-100190000I-50000J0D01*
G01*
D10*
X171213641Y-99560000D02*
X170906359Y-99560000D01*
X171213641Y-98800000D02*
X170906359Y-98800000D01*
X167190000Y-102812164D02*
X167190000Y-103027836D01*
X166470000Y-102812164D02*
X166470000Y-103027836D01*
X162422164Y-91260000D02*
X162637836Y-91260000D01*
X162422164Y-91980000D02*
X162637836Y-91980000D01*
X173560000Y-95000000D02*
X173560000Y-93050000D01*
X173560000Y-95000000D02*
X173560000Y-96950000D01*
X168440000Y-95000000D02*
X168440000Y-91550000D01*
X168440000Y-95000000D02*
X168440000Y-96950000D01*
X175680568Y-102160000D02*
X175464896Y-102160000D01*
X175680568Y-101440000D02*
X175464896Y-101440000D01*
X176575000Y-101185000D02*
X177375000Y-101185000D01*
X176575000Y-101185000D02*
X175775000Y-101185000D01*
X176575000Y-98065000D02*
X178375000Y-98065000D01*
X176575000Y-98065000D02*
X175775000Y-98065000D01*
X169072164Y-98810000D02*
X169287836Y-98810000D01*
X169072164Y-99530000D02*
X169287836Y-99530000D01*
X173875000Y-94625000D02*
X174025000Y-94625000D01*
X176672393Y-94025701D02*
X176672393Y-94925701D01*
X173875000Y-94025000D02*
X173875000Y-94625000D01*
X173875000Y-91825000D02*
X173875000Y-93225000D01*
X176675000Y-91825000D02*
X176675000Y-93225000D01*
X176675000Y-91025000D02*
X176675000Y-90425000D01*
X173875000Y-90425000D02*
X173875000Y-91025000D01*
X173875000Y-90425000D02*
X174025000Y-90425000D01*
X176675000Y-90425000D02*
X176525000Y-90425000D01*
X163540000Y-90062164D02*
X163540000Y-90277836D01*
X162820000Y-90062164D02*
X162820000Y-90277836D01*
X161960741Y-96615111D02*
X162176413Y-96615111D01*
X161960741Y-97335111D02*
X162176413Y-97335111D01*
%LPC*%
D13*
X179050000Y-98675000D03*
D14*
X179121196Y-96534972D03*
D15*
X178755903Y-94012005D03*
D16*
X177071178Y-89553822D03*
X177750000Y-88875000D03*
D17*
X165574341Y-98181217D03*
X164614341Y-98181217D03*
X176055000Y-102825000D03*
X175095000Y-102825000D03*
D18*
X178450000Y-90750000D03*
D19*
X167065000Y-86450000D03*
X168035000Y-86450000D03*
D20*
X166880000Y-100510000D03*
X166880000Y-101530000D03*
D21*
X171825000Y-89300000D03*
X173475000Y-89300000D03*
D22*
X170650000Y-88715000D03*
X170650000Y-89685000D03*
D23*
X169375000Y-87075000D03*
X172275000Y-87075000D03*
D24*
X164150000Y-90576909D03*
X164150000Y-89606909D03*
D25*
X164870000Y-101120000D03*
X165830000Y-101120000D03*
D17*
X171580000Y-90800000D03*
X170620000Y-90800000D03*
D24*
X166830000Y-99540000D03*
X166830000Y-98570000D03*
D26*
X174999999Y-95937499D03*
X175349999Y-95937499D03*
X175699999Y-95937499D03*
X176049999Y-95937499D03*
X176399999Y-95937499D03*
X174999999Y-97712499D03*
X175349999Y-97712499D03*
X175699999Y-97712499D03*
X176049999Y-97712499D03*
X176399999Y-97712499D03*
D27*
X174264999Y-95892499D03*
D28*
X173684999Y-96824999D03*
D27*
X174264999Y-97757499D03*
X177134999Y-95892499D03*
D28*
X177714999Y-96824999D03*
D27*
X177134999Y-97757499D03*
D25*
X166920000Y-87450000D03*
X167880000Y-87450000D03*
D29*
X165100000Y-89620000D03*
X165100000Y-90580000D03*
X164940000Y-99240000D03*
X164940000Y-100200000D03*
D22*
X167780000Y-98270000D03*
X167780000Y-99240000D03*
D30*
X170230000Y-103357500D03*
X169730000Y-103357500D03*
X169230000Y-103357500D03*
X168730000Y-103357500D03*
D31*
X168042500Y-102670000D03*
X168042500Y-102170000D03*
X168042500Y-101670000D03*
X168042500Y-101170000D03*
D30*
X168730000Y-100482500D03*
X169230000Y-100482500D03*
X169730000Y-100482500D03*
X170230000Y-100482500D03*
D31*
X170917500Y-101170000D03*
X170917500Y-101670000D03*
X170917500Y-102170000D03*
X170917500Y-102670000D03*
D32*
X169479999Y-101919999D03*
D33*
X166100000Y-90720000D03*
X166100000Y-88520000D03*
X167700000Y-88520000D03*
X167700000Y-90720000D03*
D34*
X163752003Y-100380375D03*
X163752003Y-98980375D03*
D20*
X174011227Y-100156601D03*
X174011227Y-101176601D03*
D29*
X169650000Y-89820000D03*
X169650000Y-90780000D03*
D35*
X173490000Y-99190000D03*
X172470000Y-99190000D03*
D17*
X163698572Y-98148521D03*
X162738572Y-98148521D03*
D25*
X166900078Y-91799010D03*
X167860078Y-91799010D03*
D36*
X168700000Y-90780000D03*
X168700000Y-89820000D03*
D17*
X165159810Y-88628342D03*
X164199810Y-88628342D03*
D18*
X175750000Y-88100000D03*
D37*
X172085453Y-104031759D03*
X173105453Y-104031759D03*
D25*
X164920000Y-102120000D03*
X165880000Y-102120000D03*
X172070000Y-102070000D03*
X173030000Y-102070000D03*
D38*
X167380000Y-97320000D03*
X166980000Y-97320000D03*
X166580000Y-97320000D03*
X166180000Y-97320000D03*
X165780000Y-97320000D03*
X165380000Y-97320000D03*
X164980000Y-97320000D03*
X164580000Y-97320000D03*
X164180000Y-97320000D03*
X163780000Y-97320000D03*
D39*
X163280000Y-96820000D03*
X163280000Y-96420000D03*
X163280000Y-96020000D03*
X163280000Y-95620000D03*
X163280000Y-95220000D03*
X163280000Y-94820000D03*
X163280000Y-94420000D03*
X163280000Y-94020000D03*
X163280000Y-93620000D03*
X163280000Y-93220000D03*
D38*
X163780000Y-92720000D03*
X164180000Y-92720000D03*
X164580000Y-92720000D03*
X164980000Y-92720000D03*
X165380000Y-92720000D03*
X165780000Y-92720000D03*
X166180000Y-92720000D03*
X166580000Y-92720000D03*
X166980000Y-92720000D03*
X167380000Y-92720000D03*
D39*
X167880000Y-93220000D03*
X167880000Y-93620000D03*
X167880000Y-94020000D03*
X167880000Y-94420000D03*
X167880000Y-94820000D03*
X167880000Y-95220000D03*
X167880000Y-95620000D03*
X167880000Y-96020000D03*
X167880000Y-96420000D03*
X167880000Y-96820000D03*
D40*
X165579999Y-95019999D03*
D25*
X172070000Y-103020000D03*
X173030000Y-103020000D03*
D29*
X165864166Y-99240000D03*
X165864166Y-100200000D03*
D41*
X174001959Y-103078670D03*
X174001959Y-102058670D03*
D37*
X172050000Y-101140000D03*
X173070000Y-101140000D03*
D17*
X165130000Y-91500000D03*
X164170000Y-91500000D03*
D25*
X172500000Y-90575000D03*
X173460000Y-90575000D03*
D36*
X161870000Y-93510000D03*
X161870000Y-92550000D03*
D42*
X173055000Y-100190000D03*
X172085000Y-100190000D03*
D35*
X171570000Y-99180000D03*
X170550000Y-99180000D03*
D29*
X166830000Y-102440000D03*
X166830000Y-103400000D03*
D25*
X162050000Y-91620000D03*
X163010000Y-91620000D03*
D43*
X169095000Y-92362500D03*
X170365000Y-92362500D03*
X171635000Y-92362500D03*
X172905000Y-92362500D03*
X172905000Y-97637500D03*
X171635000Y-97637500D03*
X170365000Y-97637500D03*
X169095000Y-97637500D03*
D44*
X170999999Y-94999999D03*
D17*
X176052732Y-101800000D03*
X175092732Y-101800000D03*
D45*
X177712500Y-98675000D03*
X177712500Y-99625000D03*
X177712500Y-100575000D03*
X175437500Y-100575000D03*
X175437500Y-98675000D03*
D25*
X168700000Y-99170000D03*
X169660000Y-99170000D03*
D37*
X168640000Y-88900000D03*
X169660000Y-88900000D03*
D46*
X176275000Y-94825000D03*
D47*
X176274999Y-94499999D03*
D46*
X175875000Y-94825000D03*
D47*
X175874999Y-94499999D03*
D46*
X175475000Y-94825000D03*
D47*
X175474999Y-94499999D03*
D46*
X175075000Y-94825000D03*
D47*
X175074999Y-94499999D03*
D46*
X174675000Y-94825000D03*
D47*
X174674999Y-94499999D03*
D46*
X174275000Y-94825000D03*
D47*
X174274999Y-94499999D03*
X174274999Y-90549999D03*
D46*
X174275000Y-90225000D03*
D47*
X174674999Y-90549999D03*
D46*
X174675000Y-90225000D03*
D47*
X175074999Y-90549999D03*
D46*
X175075000Y-90225000D03*
D47*
X175474999Y-90549999D03*
D46*
X175475000Y-90225000D03*
D47*
X175874999Y-90549999D03*
D46*
X175875000Y-90225000D03*
D47*
X176274999Y-90549999D03*
D46*
X176275000Y-90225000D03*
D48*
X173909999Y-93624999D03*
D49*
X173962499Y-93624999D03*
X176587499Y-93624999D03*
D48*
X176639999Y-93624999D03*
D50*
X175274999Y-92524999D03*
X175274999Y-92524999D03*
D48*
X173909999Y-91424999D03*
D49*
X173962499Y-91424999D03*
X176587499Y-91424999D03*
D48*
X176639999Y-91424999D03*
D29*
X163180000Y-89690000D03*
X163180000Y-90650000D03*
D25*
X161588577Y-96975111D03*
X162548577Y-96975111D03*
D37*
X170146193Y-104516761D03*
X171166193Y-104516761D03*
M02*
