G04 #@! TF.GenerationSoftware,KiCad,Pcbnew,(7.0.0-0)*
G04 #@! TF.CreationDate,2024-01-25T23:02:00+08:00*
G04 #@! TF.ProjectId,Revolute,5265766f-6c75-4746-952e-6b696361645f,rev?*
G04 #@! TF.SameCoordinates,Original*
G04 #@! TF.FileFunction,Legend,Top*
G04 #@! TF.FilePolarity,Positive*
%FSLAX46Y46*%
G04 Gerber Fmt 4.6, Leading zero omitted, Abs format (unit mm)*
G04 Created by KiCad (PCBNEW (7.0.0-0)) date 2024-01-25 23:02:00*
%MOMM*%
%LPD*%
G01*
G04 APERTURE LIST*
G04 Aperture macros list*
%AMFreePoly0*
4,1,39,0.368228,1.454100,0.602543,1.373660,0.820422,1.255750,1.015922,1.103586,1.183711,0.921319,1.319211,0.713921,1.418726,0.487049,1.479542,0.246892,1.500000,0.000000,1.479542,-0.246892,1.418726,-0.487049,1.319211,-0.713921,1.183711,-0.921319,1.015922,-1.103586,0.820422,-1.255750,0.602543,-1.373660,0.368228,-1.454100,0.123869,-1.494877,-0.123869,-1.494877,-0.368228,-1.454100,
-0.602543,-1.373660,-0.820422,-1.255750,-1.015922,-1.103586,-1.183711,-0.921319,-1.319211,-0.713921,-1.418726,-0.487049,-1.479542,-0.246892,-1.500000,0.000000,-1.479542,0.246892,-1.418726,0.487049,-1.319211,0.713921,-1.183711,0.921319,-1.015922,1.103586,-0.820422,1.255750,-0.602543,1.373660,-0.368228,1.454100,-0.123869,1.494877,0.123869,1.494877,0.368228,1.454100,0.368228,1.454100,
$1*%
G04 Aperture macros list end*
%ADD10C,0.800000*%
%ADD11C,0.300000*%
%ADD12C,0.150000*%
%ADD13FreePoly0,0.000000*%
G04 APERTURE END LIST*
D10*
X180600000Y-95000000D02*
G75*
G03*
X180600000Y-95000000I-9600000J0D01*
G01*
D11*
G36*
X166476378Y-98827623D02*
G01*
X166492544Y-98825174D01*
X166506049Y-98819245D01*
X166518112Y-98809872D01*
X166527676Y-98797142D01*
X166533682Y-98781143D01*
X166534263Y-98778164D01*
X166541670Y-98739127D01*
X166548917Y-98700051D01*
X166556003Y-98660942D01*
X166562929Y-98621801D01*
X166569696Y-98582632D01*
X166576303Y-98543439D01*
X166582751Y-98504224D01*
X166589040Y-98464991D01*
X166595172Y-98425743D01*
X166601145Y-98386484D01*
X166606960Y-98347215D01*
X166612619Y-98307941D01*
X166618120Y-98268665D01*
X166623465Y-98229391D01*
X166628653Y-98190120D01*
X166633685Y-98150857D01*
X166638562Y-98111605D01*
X166643284Y-98072366D01*
X166647850Y-98033145D01*
X166652262Y-97993944D01*
X166656519Y-97954767D01*
X166660623Y-97915617D01*
X166664573Y-97876496D01*
X166668370Y-97837409D01*
X166672014Y-97798359D01*
X166675505Y-97759348D01*
X166678844Y-97720380D01*
X166682030Y-97681458D01*
X166685066Y-97642586D01*
X166687950Y-97603766D01*
X166690683Y-97565002D01*
X166693265Y-97526297D01*
X166713898Y-97523790D01*
X166734710Y-97521351D01*
X166755692Y-97518979D01*
X166776837Y-97516675D01*
X166798133Y-97514437D01*
X166819573Y-97512265D01*
X166841147Y-97510158D01*
X166862846Y-97508117D01*
X166884661Y-97506139D01*
X166906583Y-97504226D01*
X166928603Y-97502376D01*
X166950711Y-97500589D01*
X166972898Y-97498864D01*
X166995156Y-97497201D01*
X167017475Y-97495599D01*
X167039846Y-97494057D01*
X167220464Y-97481235D01*
X167235062Y-97478832D01*
X167250993Y-97472219D01*
X167264177Y-97462362D01*
X167274430Y-97450084D01*
X167281566Y-97436206D01*
X167285402Y-97421550D01*
X167286043Y-97412725D01*
X167283717Y-97395380D01*
X167278314Y-97381538D01*
X167269877Y-97369127D01*
X167258515Y-97358971D01*
X167244337Y-97351890D01*
X167227453Y-97348707D01*
X167223761Y-97348611D01*
X167219364Y-97348611D01*
X167204555Y-97349219D01*
X167189733Y-97349876D01*
X167174900Y-97350580D01*
X167160057Y-97351329D01*
X167145205Y-97352124D01*
X167130344Y-97352962D01*
X167115475Y-97353843D01*
X167100599Y-97354765D01*
X167085718Y-97355727D01*
X167070832Y-97356728D01*
X167055941Y-97357768D01*
X167041047Y-97358844D01*
X167026151Y-97359956D01*
X167011253Y-97361102D01*
X166996355Y-97362282D01*
X166981457Y-97363494D01*
X166966559Y-97364738D01*
X166951664Y-97366011D01*
X166936772Y-97367313D01*
X166921883Y-97368643D01*
X166906999Y-97369999D01*
X166892120Y-97371381D01*
X166877248Y-97372787D01*
X166862383Y-97374216D01*
X166847525Y-97375667D01*
X166832677Y-97377140D01*
X166817839Y-97378631D01*
X166803011Y-97380142D01*
X166788195Y-97381670D01*
X166773391Y-97383214D01*
X166758600Y-97384773D01*
X166743824Y-97386346D01*
X166721707Y-97388730D01*
X166699532Y-97391148D01*
X166677304Y-97393608D01*
X166655027Y-97396118D01*
X166632707Y-97398686D01*
X166610351Y-97401319D01*
X166587962Y-97404027D01*
X166565547Y-97406817D01*
X166543112Y-97409697D01*
X166520660Y-97412675D01*
X166498199Y-97415760D01*
X166475733Y-97418958D01*
X166453268Y-97422280D01*
X166430809Y-97425731D01*
X166408362Y-97429321D01*
X166385932Y-97433058D01*
X166363524Y-97436949D01*
X166341144Y-97441003D01*
X166318798Y-97445227D01*
X166296491Y-97449630D01*
X166274228Y-97454220D01*
X166252014Y-97459005D01*
X166229856Y-97463992D01*
X166207758Y-97469190D01*
X166185727Y-97474608D01*
X166163766Y-97480252D01*
X166141883Y-97486132D01*
X166120082Y-97492254D01*
X166098369Y-97498628D01*
X166076749Y-97505261D01*
X166055227Y-97512161D01*
X166033810Y-97519337D01*
X166017449Y-97525020D01*
X166000847Y-97530974D01*
X165984088Y-97537244D01*
X165967257Y-97543877D01*
X165950439Y-97550921D01*
X165933719Y-97558421D01*
X165917182Y-97566424D01*
X165900911Y-97574978D01*
X165884993Y-97584129D01*
X165869511Y-97593922D01*
X165854551Y-97604406D01*
X165840198Y-97615627D01*
X165826535Y-97627632D01*
X165813649Y-97640466D01*
X165801624Y-97654178D01*
X165790544Y-97668813D01*
X165783693Y-97682860D01*
X165780299Y-97697924D01*
X165779919Y-97704717D01*
X165782373Y-97721500D01*
X165788484Y-97736004D01*
X165798433Y-97748813D01*
X165812350Y-97758216D01*
X165827072Y-97762218D01*
X165833775Y-97762602D01*
X165848925Y-97760827D01*
X165864133Y-97756208D01*
X165878295Y-97749909D01*
X165893749Y-97741168D01*
X165907003Y-97732282D01*
X165921015Y-97721601D01*
X165924633Y-97718639D01*
X165938349Y-97708890D01*
X165952520Y-97699830D01*
X165967998Y-97691109D01*
X165982450Y-97683780D01*
X165999646Y-97675826D01*
X166019860Y-97667292D01*
X166035149Y-97661302D01*
X166051984Y-97655088D01*
X166070446Y-97648663D01*
X166089743Y-97642144D01*
X166109159Y-97635906D01*
X166128685Y-97629936D01*
X166148310Y-97624226D01*
X166168025Y-97618761D01*
X166187821Y-97613533D01*
X166207688Y-97608529D01*
X166227616Y-97603738D01*
X166247596Y-97599148D01*
X166267617Y-97594750D01*
X166287671Y-97590530D01*
X166307747Y-97586479D01*
X166327836Y-97582584D01*
X166347928Y-97578834D01*
X166368014Y-97575219D01*
X166388084Y-97571727D01*
X166405137Y-97568742D01*
X166422232Y-97565777D01*
X166439273Y-97562852D01*
X166456168Y-97559987D01*
X166472820Y-97557201D01*
X166489137Y-97554515D01*
X166505024Y-97551949D01*
X166520387Y-97549522D01*
X166535132Y-97547254D01*
X166553667Y-97544513D01*
X166558077Y-97543883D01*
X166555534Y-97580738D01*
X166552851Y-97617661D01*
X166550027Y-97654650D01*
X166547061Y-97691702D01*
X166543953Y-97728816D01*
X166540701Y-97765989D01*
X166537305Y-97803218D01*
X166533765Y-97840501D01*
X166530080Y-97877835D01*
X166526248Y-97915219D01*
X166522269Y-97952649D01*
X166518143Y-97990123D01*
X166513868Y-98027640D01*
X166509444Y-98065195D01*
X166504870Y-98102788D01*
X166500146Y-98140416D01*
X166495270Y-98178075D01*
X166490242Y-98215765D01*
X166485061Y-98253481D01*
X166479727Y-98291223D01*
X166474239Y-98328987D01*
X166468595Y-98366772D01*
X166462796Y-98404574D01*
X166456840Y-98442391D01*
X166450727Y-98480222D01*
X166444456Y-98518062D01*
X166438026Y-98555911D01*
X166431437Y-98593766D01*
X166424688Y-98631623D01*
X166417778Y-98669482D01*
X166410706Y-98707339D01*
X166403471Y-98745191D01*
X166403471Y-98756915D01*
X166405237Y-98771945D01*
X166411842Y-98788753D01*
X166422357Y-98803019D01*
X166435732Y-98814374D01*
X166450921Y-98822448D01*
X166466875Y-98826874D01*
X166476378Y-98827623D01*
G37*
G36*
X167437415Y-98304392D02*
G01*
X167455010Y-98306801D01*
X167472251Y-98311564D01*
X167488901Y-98318626D01*
X167504725Y-98327932D01*
X167519486Y-98339425D01*
X167532949Y-98353050D01*
X167542052Y-98364634D01*
X167550191Y-98377362D01*
X167557194Y-98390773D01*
X167563346Y-98404833D01*
X167568623Y-98419434D01*
X167572998Y-98434469D01*
X167576445Y-98449830D01*
X167578940Y-98465409D01*
X167580455Y-98481101D01*
X167580966Y-98496796D01*
X167572173Y-98532700D01*
X167573201Y-98529633D01*
X167587927Y-98526838D01*
X167607003Y-98525829D01*
X167626040Y-98524465D01*
X167645041Y-98522769D01*
X167664010Y-98520765D01*
X167682952Y-98518475D01*
X167701870Y-98515923D01*
X167720767Y-98513131D01*
X167739648Y-98510123D01*
X167758515Y-98506922D01*
X167777374Y-98503551D01*
X167796227Y-98500032D01*
X167815078Y-98496390D01*
X167833932Y-98492647D01*
X167852792Y-98488826D01*
X167871661Y-98484950D01*
X167890544Y-98481043D01*
X167904466Y-98478478D01*
X167911885Y-98478931D01*
X167929098Y-98483675D01*
X167944085Y-98492736D01*
X167956441Y-98505058D01*
X167965766Y-98519583D01*
X167971656Y-98535255D01*
X167973709Y-98551018D01*
X167973511Y-98555654D01*
X167969742Y-98571982D01*
X167962750Y-98585257D01*
X167952349Y-98596874D01*
X167938596Y-98605889D01*
X167924616Y-98610736D01*
X167903664Y-98615136D01*
X167882456Y-98619645D01*
X167861017Y-98624209D01*
X167839373Y-98628773D01*
X167817551Y-98633284D01*
X167795577Y-98637687D01*
X167773478Y-98641928D01*
X167751280Y-98645952D01*
X167729008Y-98649707D01*
X167706690Y-98653136D01*
X167684351Y-98656186D01*
X167662018Y-98658804D01*
X167639718Y-98660934D01*
X167617476Y-98662523D01*
X167595319Y-98663516D01*
X167573272Y-98663859D01*
X167538468Y-98662027D01*
X167526513Y-98683647D01*
X167512586Y-98705241D01*
X167496828Y-98726620D01*
X167479380Y-98747596D01*
X167460382Y-98767979D01*
X167439974Y-98787581D01*
X167418298Y-98806213D01*
X167395494Y-98823685D01*
X167371702Y-98839809D01*
X167347064Y-98854397D01*
X167321719Y-98867258D01*
X167295809Y-98878205D01*
X167269473Y-98887047D01*
X167242853Y-98893598D01*
X167216090Y-98897666D01*
X167189323Y-98899064D01*
X167183580Y-98898983D01*
X167168914Y-98898073D01*
X167153935Y-98896166D01*
X167138801Y-98893281D01*
X167123673Y-98889432D01*
X167108708Y-98884638D01*
X167094068Y-98878914D01*
X167079272Y-98871862D01*
X167065124Y-98863796D01*
X167051643Y-98854777D01*
X167038850Y-98844865D01*
X167026765Y-98834121D01*
X167015410Y-98822603D01*
X167004803Y-98810373D01*
X166994966Y-98797490D01*
X166985919Y-98784015D01*
X166977683Y-98770007D01*
X166970277Y-98755527D01*
X166963722Y-98740635D01*
X166958039Y-98725391D01*
X166953248Y-98709854D01*
X166949369Y-98694086D01*
X166946423Y-98678147D01*
X166944591Y-98641877D01*
X166945024Y-98626011D01*
X166946301Y-98610295D01*
X166948392Y-98594742D01*
X166951266Y-98579366D01*
X166954891Y-98564178D01*
X166959236Y-98549192D01*
X166964270Y-98534421D01*
X166969962Y-98519877D01*
X166976281Y-98505574D01*
X166983195Y-98491524D01*
X166990675Y-98477740D01*
X166998687Y-98464236D01*
X167007202Y-98451023D01*
X167016188Y-98438115D01*
X167025614Y-98425525D01*
X167035450Y-98413265D01*
X167038971Y-98409479D01*
X167050751Y-98399844D01*
X167065234Y-98392734D01*
X167080146Y-98390184D01*
X167086168Y-98390605D01*
X167101314Y-98395076D01*
X167115830Y-98403786D01*
X167128770Y-98415930D01*
X167139186Y-98430705D01*
X167146131Y-98447304D01*
X167148656Y-98464923D01*
X167148639Y-98466102D01*
X167145754Y-98481682D01*
X167139571Y-98495715D01*
X167131071Y-98508154D01*
X167120000Y-98522355D01*
X167109959Y-98537406D01*
X167101086Y-98553195D01*
X167093518Y-98569611D01*
X167087393Y-98586543D01*
X167082848Y-98603878D01*
X167080020Y-98621505D01*
X167079047Y-98639312D01*
X167079595Y-98652608D01*
X167081517Y-98667416D01*
X167084909Y-98681810D01*
X167086618Y-98686560D01*
X167092464Y-98700079D01*
X167101865Y-98716329D01*
X167113000Y-98730432D01*
X167125758Y-98742260D01*
X167140028Y-98751684D01*
X167155697Y-98758575D01*
X167172654Y-98762804D01*
X167190788Y-98764242D01*
X167208374Y-98762044D01*
X167215782Y-98760617D01*
X167230515Y-98757049D01*
X167245094Y-98752579D01*
X167259468Y-98747262D01*
X167273587Y-98741155D01*
X167287399Y-98734314D01*
X167300853Y-98726796D01*
X167313898Y-98718656D01*
X167326484Y-98709952D01*
X167338560Y-98700739D01*
X167350073Y-98691073D01*
X167360974Y-98681013D01*
X167376066Y-98665302D01*
X167389492Y-98649018D01*
X167401081Y-98632351D01*
X167397615Y-98630810D01*
X167384141Y-98623868D01*
X167371399Y-98616015D01*
X167358106Y-98606421D01*
X167344784Y-98595100D01*
X167334036Y-98584357D01*
X167322271Y-98570599D01*
X167311768Y-98555827D01*
X167302622Y-98540231D01*
X167294927Y-98523999D01*
X167288778Y-98507321D01*
X167284268Y-98490385D01*
X167281493Y-98473381D01*
X167280547Y-98456496D01*
X167413171Y-98456496D01*
X167416758Y-98470397D01*
X167425250Y-98484363D01*
X167435241Y-98496463D01*
X167444307Y-98505576D01*
X167444302Y-98503797D01*
X167443952Y-98487842D01*
X167442824Y-98470199D01*
X167440441Y-98453281D01*
X167432588Y-98438911D01*
X167422697Y-98442575D01*
X167420599Y-98443616D01*
X167413171Y-98456496D01*
X167280547Y-98456496D01*
X167281317Y-98441538D01*
X167283610Y-98426683D01*
X167287406Y-98412035D01*
X167292683Y-98397695D01*
X167299420Y-98383767D01*
X167307595Y-98370355D01*
X167317187Y-98357561D01*
X167328175Y-98345488D01*
X167333762Y-98340555D01*
X167348443Y-98329553D01*
X167363930Y-98320475D01*
X167379953Y-98313356D01*
X167396244Y-98308230D01*
X167412535Y-98305130D01*
X167428558Y-98304089D01*
X167437415Y-98304392D01*
G37*
G36*
X168739043Y-98791720D02*
G01*
X168754900Y-98791135D01*
X168770688Y-98789563D01*
X168786337Y-98787282D01*
X168801780Y-98784567D01*
X168810484Y-98782927D01*
X168836458Y-98776831D01*
X168862304Y-98769726D01*
X168888014Y-98761692D01*
X168913582Y-98752811D01*
X168938999Y-98743163D01*
X168964259Y-98732830D01*
X168989353Y-98721893D01*
X169014275Y-98710433D01*
X169039016Y-98698530D01*
X169063569Y-98686266D01*
X169087927Y-98673722D01*
X169112082Y-98660979D01*
X169136027Y-98648118D01*
X169159754Y-98635220D01*
X169183256Y-98622366D01*
X169206524Y-98609637D01*
X169219609Y-98600364D01*
X169229514Y-98588952D01*
X169236914Y-98574322D01*
X169240097Y-98559151D01*
X169240230Y-98555415D01*
X169238021Y-98540261D01*
X169231793Y-98525054D01*
X169222140Y-98510866D01*
X169209658Y-98498771D01*
X169194942Y-98489843D01*
X169178587Y-98485154D01*
X169171720Y-98484706D01*
X169156919Y-98486752D01*
X169142878Y-98492175D01*
X169138381Y-98494598D01*
X169112778Y-98508556D01*
X169099664Y-98515620D01*
X169086371Y-98522715D01*
X169072920Y-98529821D01*
X169059333Y-98536921D01*
X169045631Y-98543995D01*
X169031837Y-98551024D01*
X169017972Y-98557989D01*
X169004058Y-98564872D01*
X168990117Y-98571652D01*
X168976170Y-98578312D01*
X168962239Y-98584832D01*
X168948346Y-98591193D01*
X168934512Y-98597376D01*
X168920760Y-98603363D01*
X168907111Y-98609133D01*
X168880209Y-98619952D01*
X168853979Y-98629680D01*
X168828597Y-98638165D01*
X168804235Y-98645255D01*
X168781068Y-98650799D01*
X168759270Y-98654645D01*
X168739013Y-98656641D01*
X168729518Y-98656898D01*
X168724755Y-98656165D01*
X168713709Y-98641021D01*
X168703851Y-98625742D01*
X168694862Y-98610422D01*
X168686424Y-98595159D01*
X168678218Y-98580048D01*
X168669925Y-98565185D01*
X168661226Y-98550666D01*
X168651803Y-98536587D01*
X168641336Y-98523044D01*
X168629508Y-98510134D01*
X168620708Y-98501926D01*
X168607517Y-98492074D01*
X168593930Y-98483316D01*
X168579976Y-98475625D01*
X168565684Y-98468972D01*
X168551083Y-98463331D01*
X168536202Y-98458675D01*
X168521070Y-98454977D01*
X168505715Y-98452209D01*
X168490167Y-98450344D01*
X168474455Y-98449355D01*
X168463904Y-98449169D01*
X168444406Y-98449795D01*
X168424726Y-98451628D01*
X168404974Y-98454597D01*
X168385259Y-98458636D01*
X168365688Y-98463674D01*
X168346371Y-98469643D01*
X168327416Y-98476475D01*
X168308932Y-98484100D01*
X168291027Y-98492449D01*
X168273811Y-98501454D01*
X168262770Y-98507787D01*
X168249629Y-98515834D01*
X168236572Y-98524126D01*
X168223579Y-98532593D01*
X168210632Y-98541161D01*
X168197710Y-98549759D01*
X168184794Y-98558316D01*
X168171866Y-98566758D01*
X168158906Y-98575015D01*
X168145894Y-98583015D01*
X168132811Y-98590684D01*
X168119638Y-98597953D01*
X168106355Y-98604748D01*
X168092944Y-98610998D01*
X168079385Y-98616630D01*
X168058725Y-98623765D01*
X168051744Y-98625757D01*
X168036649Y-98628693D01*
X168021951Y-98631159D01*
X168010345Y-98631985D01*
X167995472Y-98630936D01*
X167986566Y-98618617D01*
X167984333Y-98604874D01*
X167985834Y-98587790D01*
X167989796Y-98571265D01*
X167995404Y-98554837D01*
X168001846Y-98538045D01*
X168007053Y-98524039D01*
X168011857Y-98509269D01*
X168015840Y-98493499D01*
X168013224Y-98477259D01*
X168006075Y-98463075D01*
X167995441Y-98451232D01*
X167982370Y-98442015D01*
X167967911Y-98435710D01*
X167953111Y-98432601D01*
X167947330Y-98432316D01*
X167932603Y-98433811D01*
X167917919Y-98438402D01*
X167904249Y-98446248D01*
X167892565Y-98457510D01*
X167883836Y-98472345D01*
X167881751Y-98478112D01*
X167876253Y-98494072D01*
X167870875Y-98510312D01*
X167865806Y-98526766D01*
X167861235Y-98543370D01*
X167857351Y-98560061D01*
X167854342Y-98576773D01*
X167852399Y-98593441D01*
X167851709Y-98610003D01*
X167852537Y-98625746D01*
X167854964Y-98641049D01*
X167858908Y-98655833D01*
X167864286Y-98670018D01*
X167871014Y-98683524D01*
X167879008Y-98696273D01*
X167888187Y-98708185D01*
X167898466Y-98719180D01*
X167909763Y-98729178D01*
X167921995Y-98738102D01*
X167935077Y-98745870D01*
X167948927Y-98752404D01*
X167963463Y-98757625D01*
X167978599Y-98761452D01*
X167994255Y-98763806D01*
X168010345Y-98764609D01*
X168030272Y-98763793D01*
X168050063Y-98761432D01*
X168069703Y-98757656D01*
X168089176Y-98752593D01*
X168108467Y-98746373D01*
X168127559Y-98739126D01*
X168146438Y-98730980D01*
X168165088Y-98722065D01*
X168183493Y-98712510D01*
X168201638Y-98702445D01*
X168219507Y-98691999D01*
X168237084Y-98681301D01*
X168254355Y-98670481D01*
X168271303Y-98659668D01*
X168287913Y-98648991D01*
X168304169Y-98638579D01*
X168317818Y-98630490D01*
X168331755Y-98622591D01*
X168345957Y-98615015D01*
X168360403Y-98607893D01*
X168375071Y-98601358D01*
X168389940Y-98595542D01*
X168404988Y-98590577D01*
X168420192Y-98586596D01*
X168435532Y-98583730D01*
X168450985Y-98582113D01*
X168461339Y-98581793D01*
X168485519Y-98583991D01*
X168500734Y-98587610D01*
X168520210Y-98597195D01*
X168536427Y-98610993D01*
X168550233Y-98628139D01*
X168558518Y-98641001D01*
X168566361Y-98654708D01*
X168574014Y-98669002D01*
X168581728Y-98683628D01*
X168589755Y-98698327D01*
X168598347Y-98712843D01*
X168607756Y-98726919D01*
X168618232Y-98740297D01*
X168630029Y-98752721D01*
X168643397Y-98763934D01*
X168650750Y-98769005D01*
X168666328Y-98776951D01*
X168682486Y-98783115D01*
X168699108Y-98787569D01*
X168716077Y-98790386D01*
X168733278Y-98791638D01*
X168739043Y-98791720D01*
G37*
G36*
X169436945Y-98233054D02*
G01*
X169453542Y-98237327D01*
X169467591Y-98245515D01*
X169478883Y-98256694D01*
X169487208Y-98269943D01*
X169492357Y-98284339D01*
X169494120Y-98298960D01*
X169493480Y-98307794D01*
X169489644Y-98322493D01*
X169482507Y-98336427D01*
X169472255Y-98348750D01*
X169459071Y-98358614D01*
X169443140Y-98365172D01*
X169428541Y-98367470D01*
X169421134Y-98367980D01*
X169406431Y-98369786D01*
X169391965Y-98372618D01*
X169370942Y-98378730D01*
X169351049Y-98387001D01*
X169332645Y-98397342D01*
X169316088Y-98409665D01*
X169301737Y-98423881D01*
X169289952Y-98439900D01*
X169281089Y-98457635D01*
X169275509Y-98476996D01*
X169273569Y-98497896D01*
X169277599Y-98526106D01*
X169279213Y-98532864D01*
X169284748Y-98548680D01*
X169292417Y-98562685D01*
X169302213Y-98574543D01*
X169314128Y-98583919D01*
X169328152Y-98590477D01*
X169344277Y-98593883D01*
X169354169Y-98593883D01*
X169356920Y-98593848D01*
X169373368Y-98592147D01*
X169389043Y-98587897D01*
X169403018Y-98581096D01*
X169414365Y-98571745D01*
X169423046Y-98557613D01*
X169425424Y-98552273D01*
X169434529Y-98538150D01*
X169446068Y-98526964D01*
X169459374Y-98518830D01*
X169473782Y-98513865D01*
X169488625Y-98512184D01*
X169505188Y-98514640D01*
X169521134Y-98521786D01*
X169533113Y-98531083D01*
X169543187Y-98543213D01*
X169550685Y-98557982D01*
X169554937Y-98575198D01*
X169565928Y-98700861D01*
X169580899Y-98693307D01*
X169595998Y-98685757D01*
X169611220Y-98678214D01*
X169626562Y-98670682D01*
X169642021Y-98663163D01*
X169657593Y-98655659D01*
X169673274Y-98648173D01*
X169689060Y-98640709D01*
X169704949Y-98633268D01*
X169720936Y-98625853D01*
X169737017Y-98618468D01*
X169753190Y-98611114D01*
X169769450Y-98603794D01*
X169785794Y-98596511D01*
X169802218Y-98589268D01*
X169818719Y-98582068D01*
X169835293Y-98574912D01*
X169851936Y-98567805D01*
X169868645Y-98560747D01*
X169885416Y-98553743D01*
X169902245Y-98546795D01*
X169919130Y-98539905D01*
X169936065Y-98533076D01*
X169953049Y-98526312D01*
X169970076Y-98519613D01*
X169987144Y-98512984D01*
X170004248Y-98506427D01*
X170021386Y-98499945D01*
X170038553Y-98493540D01*
X170055746Y-98487214D01*
X170072961Y-98480972D01*
X170090195Y-98474815D01*
X170110711Y-98470052D01*
X170117561Y-98470458D01*
X170133226Y-98474732D01*
X170146608Y-98482919D01*
X170157454Y-98494098D01*
X170165512Y-98507347D01*
X170170531Y-98521743D01*
X170172260Y-98536364D01*
X170172072Y-98541278D01*
X170169284Y-98556193D01*
X170163250Y-98570645D01*
X170154085Y-98583705D01*
X170141907Y-98594447D01*
X170126831Y-98601943D01*
X170112543Y-98608171D01*
X170095407Y-98614899D01*
X170078277Y-98621685D01*
X170061155Y-98628529D01*
X170044044Y-98635429D01*
X170026947Y-98642384D01*
X170009864Y-98649393D01*
X169992798Y-98656454D01*
X169975752Y-98663567D01*
X169958727Y-98670729D01*
X169941726Y-98677940D01*
X169924750Y-98685198D01*
X169907803Y-98692503D01*
X169890885Y-98699852D01*
X169874000Y-98707245D01*
X169857149Y-98714680D01*
X169840334Y-98722156D01*
X169823559Y-98729672D01*
X169806824Y-98737226D01*
X169790131Y-98744818D01*
X169773484Y-98752445D01*
X169756885Y-98760107D01*
X169740334Y-98767802D01*
X169723835Y-98775529D01*
X169707390Y-98783288D01*
X169691001Y-98791075D01*
X169674669Y-98798891D01*
X169658398Y-98806734D01*
X169642189Y-98814602D01*
X169626044Y-98822495D01*
X169609966Y-98830411D01*
X169593956Y-98838349D01*
X169578018Y-98846308D01*
X169578018Y-98848872D01*
X169624180Y-99371308D01*
X169624566Y-99376937D01*
X169625450Y-99393771D01*
X169625986Y-99410528D01*
X169626262Y-99427207D01*
X169626363Y-99443809D01*
X169626378Y-99460334D01*
X169626325Y-99473806D01*
X169626040Y-99494035D01*
X169625490Y-99514276D01*
X169624656Y-99534512D01*
X169623516Y-99554726D01*
X169622051Y-99574904D01*
X169620242Y-99595027D01*
X169618068Y-99615080D01*
X169615509Y-99635048D01*
X169612546Y-99654912D01*
X169609159Y-99674658D01*
X169606282Y-99689383D01*
X169603148Y-99704083D01*
X169599756Y-99718753D01*
X169596107Y-99733384D01*
X169592200Y-99747970D01*
X169588035Y-99762503D01*
X169583613Y-99776977D01*
X169578934Y-99791385D01*
X169573996Y-99805719D01*
X169568801Y-99819972D01*
X169563349Y-99834138D01*
X169557639Y-99848209D01*
X169551671Y-99862178D01*
X169545446Y-99876039D01*
X169538963Y-99889784D01*
X169532222Y-99903406D01*
X169525224Y-99916898D01*
X169517968Y-99930254D01*
X169510455Y-99943465D01*
X169502684Y-99956525D01*
X169494655Y-99969428D01*
X169486369Y-99982165D01*
X169477826Y-99994730D01*
X169469024Y-100007116D01*
X169459965Y-100019316D01*
X169450649Y-100031322D01*
X169441075Y-100043128D01*
X169431243Y-100054727D01*
X169421154Y-100066111D01*
X169410807Y-100077274D01*
X169400202Y-100088209D01*
X169389340Y-100098907D01*
X169377272Y-100110128D01*
X169364911Y-100121052D01*
X169352267Y-100131673D01*
X169339351Y-100141989D01*
X169326171Y-100151995D01*
X169312737Y-100161689D01*
X169299060Y-100171065D01*
X169285149Y-100180120D01*
X169271015Y-100188851D01*
X169256667Y-100197253D01*
X169242114Y-100205323D01*
X169227368Y-100213056D01*
X169212437Y-100220450D01*
X169197331Y-100227500D01*
X169182061Y-100234202D01*
X169166636Y-100240553D01*
X169151067Y-100246549D01*
X169135362Y-100252185D01*
X169119532Y-100257458D01*
X169103587Y-100262365D01*
X169087536Y-100266901D01*
X169071390Y-100271063D01*
X169055158Y-100274847D01*
X169038850Y-100278248D01*
X169022476Y-100281264D01*
X169006046Y-100283890D01*
X168989569Y-100286123D01*
X168973056Y-100287958D01*
X168956517Y-100289392D01*
X168939961Y-100290421D01*
X168923398Y-100291041D01*
X168906838Y-100291249D01*
X168890861Y-100291046D01*
X168874815Y-100290438D01*
X168858716Y-100289420D01*
X168842581Y-100287991D01*
X168826427Y-100286148D01*
X168810271Y-100283888D01*
X168794128Y-100281208D01*
X168778015Y-100278105D01*
X168761950Y-100274578D01*
X168745949Y-100270623D01*
X168730029Y-100266237D01*
X168714205Y-100261419D01*
X168698495Y-100256164D01*
X168682916Y-100250471D01*
X168667484Y-100244337D01*
X168652215Y-100237759D01*
X168631979Y-100228494D01*
X168612242Y-100218296D01*
X168593047Y-100207189D01*
X168574437Y-100195192D01*
X168556456Y-100182329D01*
X168539148Y-100168620D01*
X168522556Y-100154086D01*
X168506723Y-100138750D01*
X168491693Y-100122632D01*
X168477509Y-100105754D01*
X168464215Y-100088138D01*
X168451854Y-100069804D01*
X168440470Y-100050776D01*
X168430106Y-100031073D01*
X168420806Y-100010717D01*
X168412613Y-99989731D01*
X168406041Y-99971753D01*
X168400569Y-99953552D01*
X168396127Y-99935145D01*
X168392646Y-99916550D01*
X168390059Y-99897782D01*
X168388295Y-99878860D01*
X168387475Y-99863335D01*
X168521789Y-99863335D01*
X168522957Y-99879432D01*
X168525087Y-99895529D01*
X168528178Y-99911558D01*
X168532231Y-99927449D01*
X168537245Y-99943134D01*
X168543222Y-99958544D01*
X168550160Y-99973611D01*
X168558060Y-99988265D01*
X168566822Y-100002378D01*
X168576328Y-100015865D01*
X168586551Y-100028729D01*
X168597461Y-100040970D01*
X168609030Y-100052592D01*
X168621229Y-100063594D01*
X168634031Y-100073979D01*
X168647407Y-100083749D01*
X168661327Y-100092905D01*
X168675765Y-100101448D01*
X168690691Y-100109381D01*
X168706076Y-100116705D01*
X168721894Y-100123421D01*
X168738114Y-100129531D01*
X168754709Y-100135037D01*
X168771650Y-100139940D01*
X168787917Y-100144425D01*
X168804314Y-100148269D01*
X168820864Y-100151487D01*
X168837595Y-100154091D01*
X168854533Y-100156094D01*
X168871702Y-100157508D01*
X168889128Y-100158348D01*
X168906838Y-100158625D01*
X168922955Y-100158381D01*
X168939081Y-100157651D01*
X168955201Y-100156439D01*
X168971304Y-100154749D01*
X168987376Y-100152584D01*
X169003403Y-100149948D01*
X169019373Y-100146844D01*
X169035272Y-100143278D01*
X169051087Y-100139251D01*
X169066806Y-100134768D01*
X169082415Y-100129832D01*
X169097900Y-100124448D01*
X169113249Y-100118618D01*
X169128449Y-100112347D01*
X169143486Y-100105638D01*
X169158347Y-100098495D01*
X169173020Y-100090922D01*
X169187490Y-100082922D01*
X169201745Y-100074499D01*
X169215772Y-100065656D01*
X169229557Y-100056398D01*
X169243088Y-100046728D01*
X169256351Y-100036650D01*
X169269333Y-100026167D01*
X169282021Y-100015283D01*
X169294401Y-100004002D01*
X169306461Y-99992328D01*
X169318188Y-99980263D01*
X169329568Y-99967813D01*
X169340588Y-99954980D01*
X169351235Y-99941768D01*
X169361496Y-99928182D01*
X169377906Y-99904192D01*
X169393081Y-99879643D01*
X169407050Y-99854570D01*
X169419840Y-99829006D01*
X169431479Y-99802984D01*
X169441996Y-99776539D01*
X169451418Y-99749704D01*
X169459774Y-99722514D01*
X169467090Y-99695001D01*
X169473395Y-99667201D01*
X169478717Y-99639146D01*
X169483084Y-99610870D01*
X169486523Y-99582408D01*
X169489063Y-99553792D01*
X169490731Y-99525058D01*
X169491556Y-99496238D01*
X169491556Y-99456304D01*
X169491364Y-99432861D01*
X169490811Y-99409509D01*
X169489930Y-99386236D01*
X169488756Y-99363030D01*
X169487323Y-99339881D01*
X169485663Y-99316775D01*
X169483811Y-99293702D01*
X169481801Y-99270649D01*
X169479667Y-99247605D01*
X169477441Y-99224558D01*
X169475159Y-99201495D01*
X169472854Y-99178406D01*
X169470559Y-99155278D01*
X169468309Y-99132099D01*
X169466138Y-99108859D01*
X169464078Y-99085544D01*
X169449057Y-98913719D01*
X169441237Y-98917681D01*
X169426578Y-98925311D01*
X169413605Y-98932208D01*
X169399736Y-98939685D01*
X169385162Y-98947626D01*
X169370077Y-98955914D01*
X169354675Y-98964434D01*
X169339148Y-98973070D01*
X169322809Y-98982333D01*
X169306493Y-98991647D01*
X169290202Y-99001012D01*
X169273940Y-99010433D01*
X169257710Y-99019912D01*
X169241515Y-99029452D01*
X169225359Y-99039055D01*
X169209243Y-99048724D01*
X169193173Y-99058462D01*
X169177150Y-99068271D01*
X169161177Y-99078154D01*
X169145259Y-99088114D01*
X169129398Y-99098153D01*
X169113597Y-99108275D01*
X169097860Y-99118481D01*
X169082189Y-99128775D01*
X169066588Y-99139159D01*
X169051061Y-99149635D01*
X169035609Y-99160208D01*
X169020236Y-99170878D01*
X169004946Y-99181649D01*
X168989741Y-99192524D01*
X168974625Y-99203506D01*
X168959600Y-99214596D01*
X168944671Y-99225797D01*
X168929840Y-99237113D01*
X168915110Y-99248546D01*
X168900485Y-99260099D01*
X168885967Y-99271774D01*
X168871560Y-99283574D01*
X168857267Y-99295502D01*
X168843091Y-99307561D01*
X168831342Y-99317601D01*
X168819662Y-99327735D01*
X168808061Y-99337966D01*
X168796548Y-99348296D01*
X168785133Y-99358730D01*
X168773826Y-99369271D01*
X168762634Y-99379922D01*
X168751569Y-99390685D01*
X168740638Y-99401565D01*
X168729853Y-99412565D01*
X168719221Y-99423688D01*
X168708753Y-99434937D01*
X168698457Y-99446316D01*
X168688344Y-99457828D01*
X168678422Y-99469476D01*
X168668702Y-99481263D01*
X168659191Y-99493193D01*
X168649901Y-99505269D01*
X168640839Y-99517495D01*
X168632016Y-99529873D01*
X168623442Y-99542407D01*
X168615124Y-99555100D01*
X168607073Y-99567956D01*
X168599298Y-99580977D01*
X168591809Y-99594168D01*
X168584615Y-99607530D01*
X168577725Y-99621069D01*
X168571148Y-99634786D01*
X168564895Y-99648686D01*
X168558974Y-99662771D01*
X168553395Y-99677044D01*
X168548168Y-99691510D01*
X168541670Y-99709826D01*
X168536164Y-99727780D01*
X168531610Y-99745529D01*
X168527972Y-99763226D01*
X168525209Y-99781026D01*
X168523284Y-99799084D01*
X168522157Y-99817554D01*
X168521789Y-99836591D01*
X168521789Y-99863335D01*
X168387475Y-99863335D01*
X168387288Y-99859800D01*
X168386967Y-99840621D01*
X168387244Y-99824192D01*
X168388061Y-99807752D01*
X168389402Y-99791312D01*
X168391249Y-99774887D01*
X168393586Y-99758490D01*
X168396396Y-99742134D01*
X168399660Y-99725833D01*
X168403362Y-99709600D01*
X168407485Y-99693448D01*
X168412012Y-99677392D01*
X168416925Y-99661444D01*
X168422207Y-99645617D01*
X168427841Y-99629927D01*
X168433811Y-99614384D01*
X168440097Y-99599004D01*
X168446685Y-99583799D01*
X168454055Y-99567761D01*
X168461803Y-99551931D01*
X168469914Y-99536306D01*
X168478377Y-99520884D01*
X168487181Y-99505663D01*
X168496312Y-99490639D01*
X168505759Y-99475811D01*
X168515510Y-99461176D01*
X168525552Y-99446731D01*
X168535873Y-99432475D01*
X168546461Y-99418404D01*
X168557305Y-99404516D01*
X168568391Y-99390809D01*
X168579708Y-99377280D01*
X168591243Y-99363926D01*
X168602985Y-99350746D01*
X168614921Y-99337736D01*
X168627039Y-99324894D01*
X168639328Y-99312219D01*
X168651774Y-99299706D01*
X168664365Y-99287354D01*
X168677091Y-99275160D01*
X168689938Y-99263122D01*
X168702894Y-99251238D01*
X168715947Y-99239504D01*
X168729085Y-99227918D01*
X168742296Y-99216479D01*
X168755568Y-99205182D01*
X168768888Y-99194027D01*
X168782245Y-99183010D01*
X168795626Y-99172129D01*
X168809019Y-99161381D01*
X168825101Y-99148835D01*
X168841264Y-99136405D01*
X168857509Y-99124090D01*
X168873833Y-99111888D01*
X168890234Y-99099797D01*
X168906712Y-99087817D01*
X168923265Y-99075945D01*
X168939891Y-99064180D01*
X168956589Y-99052520D01*
X168973358Y-99040964D01*
X168990195Y-99029510D01*
X169007100Y-99018156D01*
X169024071Y-99006900D01*
X169041107Y-98995742D01*
X169058206Y-98984680D01*
X169075366Y-98973711D01*
X169092586Y-98962835D01*
X169109865Y-98952049D01*
X169127201Y-98941353D01*
X169144593Y-98930743D01*
X169162039Y-98920220D01*
X169179538Y-98909781D01*
X169197088Y-98899425D01*
X169214687Y-98889150D01*
X169232335Y-98878954D01*
X169250030Y-98868836D01*
X169267770Y-98858794D01*
X169285554Y-98848827D01*
X169303381Y-98838932D01*
X169321248Y-98829110D01*
X169339155Y-98819356D01*
X169357100Y-98809672D01*
X169436235Y-98767173D01*
X169432205Y-98713684D01*
X169420886Y-98717751D01*
X169405551Y-98721486D01*
X169390151Y-98724092D01*
X169373496Y-98725857D01*
X169356367Y-98726507D01*
X169341600Y-98726004D01*
X169326878Y-98724493D01*
X169312263Y-98721969D01*
X169297818Y-98718430D01*
X169283604Y-98713871D01*
X169269685Y-98708288D01*
X169256122Y-98701678D01*
X169242978Y-98694038D01*
X169230314Y-98685362D01*
X169218194Y-98675649D01*
X169206678Y-98664893D01*
X169195831Y-98653091D01*
X169185713Y-98640239D01*
X169176388Y-98626334D01*
X169167917Y-98611372D01*
X169160362Y-98595348D01*
X169159179Y-98592288D01*
X169153809Y-98576920D01*
X169149362Y-98561512D01*
X169145845Y-98546164D01*
X169143268Y-98530977D01*
X169141638Y-98516052D01*
X169140945Y-98498628D01*
X169142524Y-98471962D01*
X169147140Y-98446041D01*
X169154609Y-98420993D01*
X169164747Y-98396945D01*
X169177371Y-98374024D01*
X169192298Y-98352357D01*
X169209343Y-98332071D01*
X169228323Y-98313294D01*
X169249055Y-98296152D01*
X169271355Y-98280774D01*
X169295040Y-98267286D01*
X169319925Y-98255815D01*
X169345829Y-98246488D01*
X169372566Y-98239433D01*
X169399954Y-98234778D01*
X169427808Y-98232648D01*
X169429640Y-98232648D01*
X169436945Y-98233054D01*
G37*
G36*
X170285467Y-98814801D02*
G01*
X170301104Y-98814205D01*
X170316866Y-98812505D01*
X170332601Y-98809835D01*
X170348161Y-98806328D01*
X170363395Y-98802117D01*
X170378151Y-98797335D01*
X170392282Y-98792115D01*
X170405635Y-98786591D01*
X170422004Y-98778503D01*
X170437880Y-98769663D01*
X170453282Y-98760129D01*
X170468231Y-98749954D01*
X170482749Y-98739196D01*
X170496857Y-98727909D01*
X170510575Y-98716151D01*
X170523924Y-98703975D01*
X170536926Y-98691440D01*
X170549601Y-98678599D01*
X170561969Y-98665509D01*
X170574053Y-98652226D01*
X170585873Y-98638806D01*
X170597450Y-98625304D01*
X170608804Y-98611777D01*
X170619958Y-98598279D01*
X170628455Y-98584684D01*
X170633175Y-98570746D01*
X170634979Y-98555415D01*
X170632636Y-98538551D01*
X170626110Y-98522518D01*
X170616157Y-98508146D01*
X170603530Y-98496263D01*
X170588985Y-98487702D01*
X170573275Y-98483291D01*
X170566835Y-98482875D01*
X170551911Y-98485276D01*
X170537350Y-98492213D01*
X170525387Y-98502000D01*
X170521772Y-98505956D01*
X170508711Y-98521964D01*
X170495456Y-98537968D01*
X170481945Y-98553845D01*
X170468120Y-98569473D01*
X170453921Y-98584732D01*
X170439288Y-98599501D01*
X170424160Y-98613657D01*
X170408480Y-98627079D01*
X170392185Y-98639647D01*
X170375218Y-98651238D01*
X170363503Y-98658363D01*
X170348779Y-98665528D01*
X170333814Y-98671320D01*
X170318521Y-98675683D01*
X170302812Y-98678559D01*
X170286601Y-98679889D01*
X170281071Y-98679979D01*
X170264998Y-98675424D01*
X170253090Y-98661981D01*
X170245397Y-98645256D01*
X170240162Y-98627511D01*
X170237061Y-98612832D01*
X170234354Y-98595644D01*
X170232113Y-98575748D01*
X170230408Y-98552946D01*
X170229780Y-98540394D01*
X170229780Y-98503025D01*
X170229876Y-98488154D01*
X170230163Y-98473288D01*
X170230633Y-98458429D01*
X170231282Y-98443581D01*
X170232103Y-98428744D01*
X170233091Y-98413922D01*
X170234240Y-98399118D01*
X170235544Y-98384334D01*
X170236998Y-98369572D01*
X170238597Y-98354836D01*
X170240333Y-98340127D01*
X170242202Y-98325448D01*
X170244199Y-98310802D01*
X170246316Y-98296191D01*
X170248549Y-98281619D01*
X170250891Y-98267086D01*
X170253338Y-98252596D01*
X170255883Y-98238152D01*
X170261246Y-98209411D01*
X170266934Y-98180882D01*
X170272902Y-98152586D01*
X170279104Y-98124543D01*
X170285494Y-98096774D01*
X170292026Y-98069299D01*
X170298656Y-98042138D01*
X170300122Y-98042138D01*
X170314962Y-98040551D01*
X170331112Y-98034602D01*
X170344438Y-98025107D01*
X170354771Y-98012989D01*
X170361946Y-97999171D01*
X170365792Y-97984574D01*
X170366434Y-97975826D01*
X170364787Y-97960985D01*
X170360213Y-97946428D01*
X170353262Y-97933214D01*
X170342885Y-97920906D01*
X170330896Y-97913545D01*
X170334713Y-97899098D01*
X170338934Y-97883408D01*
X170343534Y-97866736D01*
X170348488Y-97849341D01*
X170352689Y-97835080D01*
X170357088Y-97820655D01*
X170361671Y-97806200D01*
X170364235Y-97787515D01*
X170361665Y-97770521D01*
X170354618Y-97755507D01*
X170344093Y-97742840D01*
X170331087Y-97732890D01*
X170316599Y-97726026D01*
X170301627Y-97722616D01*
X170295725Y-97722302D01*
X170280895Y-97724065D01*
X170266571Y-97729296D01*
X170253494Y-97737908D01*
X170242402Y-97749814D01*
X170234034Y-97764927D01*
X170231978Y-97770662D01*
X170226570Y-97788796D01*
X170221342Y-97806852D01*
X170216303Y-97824720D01*
X170211461Y-97842287D01*
X170206826Y-97859441D01*
X170202405Y-97876072D01*
X170198208Y-97892068D01*
X170194242Y-97907316D01*
X169859019Y-97907316D01*
X169844063Y-97908903D01*
X169828133Y-97914853D01*
X169815293Y-97924348D01*
X169805558Y-97936466D01*
X169798947Y-97950284D01*
X169795475Y-97964881D01*
X169794905Y-97973628D01*
X169796486Y-97989004D01*
X169801216Y-98003966D01*
X169809078Y-98017617D01*
X169820057Y-98029059D01*
X169834135Y-98037395D01*
X169851296Y-98041727D01*
X169859019Y-98042138D01*
X170161270Y-98042138D01*
X170156901Y-98061013D01*
X170152477Y-98080691D01*
X170148039Y-98101087D01*
X170143630Y-98122117D01*
X170139292Y-98143695D01*
X170136458Y-98158342D01*
X170133687Y-98173171D01*
X170130991Y-98188155D01*
X170128381Y-98203268D01*
X170125869Y-98218487D01*
X170123470Y-98233786D01*
X170121194Y-98249139D01*
X170119054Y-98264521D01*
X170118039Y-98272215D01*
X170115727Y-98286791D01*
X170113470Y-98301390D01*
X170111283Y-98316013D01*
X170109177Y-98330656D01*
X170107166Y-98345318D01*
X170105262Y-98359999D01*
X170103478Y-98374695D01*
X170101827Y-98389406D01*
X170100322Y-98404130D01*
X170098976Y-98418865D01*
X170097802Y-98433609D01*
X170096812Y-98448362D01*
X170096020Y-98463121D01*
X170095438Y-98477885D01*
X170095080Y-98492652D01*
X170094958Y-98507421D01*
X170099354Y-98585823D01*
X170102070Y-98607617D01*
X170104332Y-98622450D01*
X170107031Y-98637414D01*
X170110232Y-98652416D01*
X170114000Y-98667359D01*
X170118400Y-98682148D01*
X170123497Y-98696690D01*
X170129356Y-98710888D01*
X170136042Y-98724649D01*
X170143619Y-98737876D01*
X170152153Y-98750474D01*
X170161708Y-98762350D01*
X170172350Y-98773408D01*
X170184143Y-98783552D01*
X170197153Y-98792688D01*
X170204134Y-98796849D01*
X170218275Y-98802587D01*
X170233024Y-98807359D01*
X170248295Y-98811049D01*
X170264000Y-98813541D01*
X170280054Y-98814720D01*
X170285467Y-98814801D01*
G37*
G36*
X170998476Y-98304392D02*
G01*
X171016071Y-98306801D01*
X171033311Y-98311564D01*
X171049962Y-98318626D01*
X171065786Y-98327932D01*
X171080547Y-98339425D01*
X171094010Y-98353050D01*
X171103112Y-98364634D01*
X171111252Y-98377362D01*
X171118255Y-98390773D01*
X171124407Y-98404833D01*
X171129683Y-98419434D01*
X171134058Y-98434469D01*
X171137506Y-98449830D01*
X171140000Y-98465409D01*
X171141516Y-98481101D01*
X171142027Y-98496796D01*
X171133234Y-98532700D01*
X171134262Y-98529633D01*
X171148988Y-98526838D01*
X171168064Y-98525829D01*
X171187100Y-98524465D01*
X171206102Y-98522769D01*
X171225071Y-98520765D01*
X171244013Y-98518475D01*
X171262931Y-98515923D01*
X171281828Y-98513131D01*
X171300708Y-98510123D01*
X171319576Y-98506922D01*
X171338434Y-98503551D01*
X171357288Y-98500032D01*
X171376139Y-98496390D01*
X171394993Y-98492647D01*
X171413853Y-98488826D01*
X171432722Y-98484950D01*
X171451605Y-98481043D01*
X171465526Y-98478478D01*
X171472945Y-98478931D01*
X171490159Y-98483675D01*
X171505145Y-98492736D01*
X171517502Y-98505058D01*
X171526827Y-98519583D01*
X171532716Y-98535255D01*
X171534769Y-98551018D01*
X171534572Y-98555654D01*
X171530803Y-98571982D01*
X171523811Y-98585257D01*
X171513410Y-98596874D01*
X171499656Y-98605889D01*
X171485676Y-98610736D01*
X171464725Y-98615136D01*
X171443517Y-98619645D01*
X171422077Y-98624209D01*
X171400434Y-98628773D01*
X171378612Y-98633284D01*
X171356638Y-98637687D01*
X171334539Y-98641928D01*
X171312340Y-98645952D01*
X171290069Y-98649707D01*
X171267750Y-98653136D01*
X171245412Y-98656186D01*
X171223079Y-98658804D01*
X171200779Y-98660934D01*
X171178536Y-98662523D01*
X171156379Y-98663516D01*
X171134333Y-98663859D01*
X171099528Y-98662027D01*
X171087574Y-98683647D01*
X171073647Y-98705241D01*
X171057889Y-98726620D01*
X171040441Y-98747596D01*
X171021443Y-98767979D01*
X171001035Y-98787581D01*
X170979359Y-98806213D01*
X170956555Y-98823685D01*
X170932763Y-98839809D01*
X170908125Y-98854397D01*
X170882780Y-98867258D01*
X170856869Y-98878205D01*
X170830534Y-98887047D01*
X170803914Y-98893598D01*
X170777150Y-98897666D01*
X170750383Y-98899064D01*
X170744641Y-98898983D01*
X170729975Y-98898073D01*
X170714996Y-98896166D01*
X170699862Y-98893281D01*
X170684733Y-98889432D01*
X170669769Y-98884638D01*
X170655129Y-98878914D01*
X170640333Y-98871862D01*
X170626184Y-98863796D01*
X170612704Y-98854777D01*
X170599911Y-98844865D01*
X170587826Y-98834121D01*
X170576470Y-98822603D01*
X170565864Y-98810373D01*
X170556027Y-98797490D01*
X170546980Y-98784015D01*
X170538744Y-98770007D01*
X170531338Y-98755527D01*
X170524783Y-98740635D01*
X170519100Y-98725391D01*
X170514309Y-98709854D01*
X170510430Y-98694086D01*
X170507484Y-98678147D01*
X170505652Y-98641877D01*
X170506085Y-98626011D01*
X170507362Y-98610295D01*
X170509453Y-98594742D01*
X170512327Y-98579366D01*
X170515952Y-98564178D01*
X170520297Y-98549192D01*
X170525331Y-98534421D01*
X170531023Y-98519877D01*
X170537342Y-98505574D01*
X170544256Y-98491524D01*
X170551735Y-98477740D01*
X170559748Y-98464236D01*
X170568263Y-98451023D01*
X170577249Y-98438115D01*
X170586675Y-98425525D01*
X170596510Y-98413265D01*
X170600031Y-98409479D01*
X170611812Y-98399844D01*
X170626295Y-98392734D01*
X170641207Y-98390184D01*
X170647229Y-98390605D01*
X170662374Y-98395076D01*
X170676891Y-98403786D01*
X170689831Y-98415930D01*
X170700247Y-98430705D01*
X170707191Y-98447304D01*
X170709717Y-98464923D01*
X170709700Y-98466102D01*
X170706815Y-98481682D01*
X170700632Y-98495715D01*
X170692131Y-98508154D01*
X170681060Y-98522355D01*
X170671020Y-98537406D01*
X170662147Y-98553195D01*
X170654579Y-98569611D01*
X170648454Y-98586543D01*
X170643909Y-98603878D01*
X170641081Y-98621505D01*
X170640108Y-98639312D01*
X170640656Y-98652608D01*
X170642578Y-98667416D01*
X170645969Y-98681810D01*
X170647679Y-98686560D01*
X170653524Y-98700079D01*
X170662925Y-98716329D01*
X170674061Y-98730432D01*
X170686819Y-98742260D01*
X170701089Y-98751684D01*
X170716758Y-98758575D01*
X170733715Y-98762804D01*
X170751849Y-98764242D01*
X170769434Y-98762044D01*
X170776842Y-98760617D01*
X170791575Y-98757049D01*
X170806154Y-98752579D01*
X170820529Y-98747262D01*
X170834647Y-98741155D01*
X170848459Y-98734314D01*
X170861914Y-98726796D01*
X170874959Y-98718656D01*
X170887545Y-98709952D01*
X170899620Y-98700739D01*
X170911134Y-98691073D01*
X170922035Y-98681013D01*
X170937126Y-98665302D01*
X170950553Y-98649018D01*
X170962142Y-98632351D01*
X170958676Y-98630810D01*
X170945202Y-98623868D01*
X170932460Y-98616015D01*
X170919167Y-98606421D01*
X170905845Y-98595100D01*
X170895097Y-98584357D01*
X170883332Y-98570599D01*
X170872829Y-98555827D01*
X170863683Y-98540231D01*
X170855988Y-98523999D01*
X170849838Y-98507321D01*
X170845329Y-98490385D01*
X170842554Y-98473381D01*
X170841608Y-98456496D01*
X170974232Y-98456496D01*
X170977819Y-98470397D01*
X170986311Y-98484363D01*
X170996301Y-98496463D01*
X171005368Y-98505577D01*
X171005363Y-98503797D01*
X171005013Y-98487842D01*
X171003885Y-98470199D01*
X171001502Y-98453281D01*
X170993649Y-98438911D01*
X170983757Y-98442575D01*
X170981660Y-98443616D01*
X170974232Y-98456496D01*
X170841608Y-98456496D01*
X170842377Y-98441538D01*
X170844671Y-98426683D01*
X170848467Y-98412035D01*
X170853744Y-98397695D01*
X170860481Y-98383767D01*
X170868656Y-98370355D01*
X170878248Y-98357561D01*
X170889235Y-98345488D01*
X170894822Y-98340555D01*
X170909504Y-98329553D01*
X170924990Y-98320475D01*
X170941013Y-98313356D01*
X170957305Y-98308230D01*
X170973596Y-98305130D01*
X170989619Y-98304089D01*
X170998476Y-98304392D01*
G37*
G36*
X172300104Y-98791720D02*
G01*
X172315961Y-98791135D01*
X172331748Y-98789563D01*
X172347398Y-98787282D01*
X172362840Y-98784567D01*
X172371545Y-98782927D01*
X172397519Y-98776831D01*
X172423364Y-98769726D01*
X172449075Y-98761692D01*
X172474642Y-98752811D01*
X172500060Y-98743163D01*
X172525319Y-98732830D01*
X172550414Y-98721893D01*
X172575335Y-98710433D01*
X172600077Y-98698530D01*
X172624630Y-98686266D01*
X172648988Y-98673722D01*
X172673143Y-98660979D01*
X172697088Y-98648118D01*
X172720815Y-98635220D01*
X172744316Y-98622366D01*
X172767585Y-98609637D01*
X172780669Y-98600364D01*
X172790575Y-98588952D01*
X172797974Y-98574322D01*
X172801157Y-98559151D01*
X172801290Y-98555415D01*
X172799082Y-98540261D01*
X172792854Y-98525054D01*
X172783201Y-98510866D01*
X172770718Y-98498771D01*
X172756002Y-98489843D01*
X172739648Y-98485154D01*
X172732780Y-98484706D01*
X172717979Y-98486752D01*
X172703939Y-98492175D01*
X172699441Y-98494598D01*
X172673839Y-98508556D01*
X172660725Y-98515620D01*
X172647432Y-98522715D01*
X172633981Y-98529821D01*
X172620393Y-98536921D01*
X172606692Y-98543995D01*
X172592898Y-98551024D01*
X172579033Y-98557989D01*
X172565119Y-98564872D01*
X172551178Y-98571652D01*
X172537231Y-98578312D01*
X172523300Y-98584832D01*
X172509407Y-98591193D01*
X172495573Y-98597376D01*
X172481821Y-98603363D01*
X172468172Y-98609133D01*
X172441269Y-98619952D01*
X172415040Y-98629680D01*
X172389658Y-98638165D01*
X172365296Y-98645255D01*
X172342129Y-98650799D01*
X172320330Y-98654645D01*
X172300074Y-98656641D01*
X172290579Y-98656898D01*
X172285816Y-98656165D01*
X172274770Y-98641021D01*
X172264912Y-98625742D01*
X172255923Y-98610422D01*
X172247485Y-98595159D01*
X172239279Y-98580048D01*
X172230986Y-98565185D01*
X172222287Y-98550666D01*
X172212864Y-98536587D01*
X172202397Y-98523044D01*
X172190568Y-98510134D01*
X172181769Y-98501926D01*
X172168578Y-98492074D01*
X172154991Y-98483316D01*
X172141037Y-98475625D01*
X172126745Y-98468972D01*
X172112144Y-98463331D01*
X172097263Y-98458675D01*
X172082130Y-98454977D01*
X172066776Y-98452209D01*
X172051228Y-98450344D01*
X172035516Y-98449355D01*
X172024965Y-98449169D01*
X172005466Y-98449795D01*
X171985787Y-98451628D01*
X171966035Y-98454597D01*
X171946319Y-98458636D01*
X171926749Y-98463674D01*
X171907431Y-98469643D01*
X171888477Y-98476475D01*
X171869993Y-98484100D01*
X171852088Y-98492449D01*
X171834872Y-98501454D01*
X171823831Y-98507787D01*
X171810690Y-98515834D01*
X171797633Y-98524126D01*
X171784640Y-98532593D01*
X171771692Y-98541161D01*
X171758771Y-98549759D01*
X171745855Y-98558316D01*
X171732927Y-98566758D01*
X171719966Y-98575015D01*
X171706954Y-98583015D01*
X171693871Y-98590684D01*
X171680698Y-98597953D01*
X171667416Y-98604748D01*
X171654005Y-98610998D01*
X171640445Y-98616630D01*
X171619786Y-98623765D01*
X171612805Y-98625757D01*
X171597709Y-98628693D01*
X171583012Y-98631159D01*
X171571406Y-98631985D01*
X171556532Y-98630936D01*
X171547627Y-98618617D01*
X171545394Y-98604874D01*
X171546895Y-98587790D01*
X171550857Y-98571265D01*
X171556465Y-98554837D01*
X171562907Y-98538045D01*
X171568114Y-98524039D01*
X171572918Y-98509269D01*
X171576901Y-98493499D01*
X171574285Y-98477259D01*
X171567136Y-98463075D01*
X171556502Y-98451232D01*
X171543431Y-98442015D01*
X171528971Y-98435710D01*
X171514172Y-98432601D01*
X171508391Y-98432316D01*
X171493664Y-98433811D01*
X171478980Y-98438402D01*
X171465310Y-98446248D01*
X171453625Y-98457510D01*
X171444897Y-98472345D01*
X171442812Y-98478112D01*
X171437313Y-98494072D01*
X171431935Y-98510312D01*
X171426866Y-98526766D01*
X171422295Y-98543370D01*
X171418411Y-98560061D01*
X171415403Y-98576773D01*
X171413460Y-98593441D01*
X171412770Y-98610003D01*
X171413598Y-98625746D01*
X171416025Y-98641049D01*
X171419969Y-98655833D01*
X171425347Y-98670018D01*
X171432074Y-98683524D01*
X171440069Y-98696273D01*
X171449248Y-98708185D01*
X171459527Y-98719180D01*
X171470824Y-98729178D01*
X171483055Y-98738102D01*
X171496138Y-98745870D01*
X171509988Y-98752404D01*
X171524523Y-98757625D01*
X171539660Y-98761452D01*
X171555315Y-98763806D01*
X171571406Y-98764609D01*
X171591333Y-98763793D01*
X171611124Y-98761432D01*
X171630764Y-98757656D01*
X171650237Y-98752593D01*
X171669527Y-98746373D01*
X171688620Y-98739126D01*
X171707499Y-98730980D01*
X171726149Y-98722065D01*
X171744554Y-98712510D01*
X171762699Y-98702445D01*
X171780568Y-98691999D01*
X171798145Y-98681301D01*
X171815416Y-98670481D01*
X171832364Y-98659668D01*
X171848974Y-98648991D01*
X171865230Y-98638579D01*
X171878879Y-98630490D01*
X171892816Y-98622591D01*
X171907018Y-98615015D01*
X171921464Y-98607893D01*
X171936132Y-98601358D01*
X171951001Y-98595542D01*
X171966048Y-98590577D01*
X171981253Y-98586596D01*
X171996592Y-98583730D01*
X172012046Y-98582113D01*
X172022400Y-98581793D01*
X172046580Y-98583991D01*
X172061795Y-98587610D01*
X172081271Y-98597195D01*
X172097488Y-98610993D01*
X172111294Y-98628139D01*
X172119579Y-98641001D01*
X172127422Y-98654708D01*
X172135074Y-98669002D01*
X172142788Y-98683628D01*
X172150816Y-98698327D01*
X172159408Y-98712843D01*
X172168816Y-98726919D01*
X172179293Y-98740297D01*
X172191090Y-98752721D01*
X172204458Y-98763934D01*
X172211810Y-98769005D01*
X172227389Y-98776951D01*
X172243547Y-98783115D01*
X172260168Y-98787569D01*
X172277138Y-98790386D01*
X172294339Y-98791638D01*
X172300104Y-98791720D01*
G37*
G36*
X172998006Y-98233054D02*
G01*
X173014603Y-98237327D01*
X173028652Y-98245515D01*
X173039944Y-98256694D01*
X173048269Y-98269943D01*
X173053418Y-98284339D01*
X173055181Y-98298960D01*
X173054540Y-98307794D01*
X173050704Y-98322493D01*
X173043568Y-98336427D01*
X173033316Y-98348750D01*
X173020132Y-98358614D01*
X173004200Y-98365172D01*
X172989602Y-98367470D01*
X172982195Y-98367980D01*
X172967492Y-98369786D01*
X172953026Y-98372618D01*
X172932002Y-98378730D01*
X172912109Y-98387001D01*
X172893705Y-98397342D01*
X172877149Y-98409665D01*
X172862798Y-98423881D01*
X172851012Y-98439900D01*
X172842150Y-98457635D01*
X172836569Y-98476996D01*
X172834630Y-98497896D01*
X172838660Y-98526106D01*
X172840274Y-98532864D01*
X172845809Y-98548680D01*
X172853478Y-98562685D01*
X172863274Y-98574543D01*
X172875188Y-98583919D01*
X172889213Y-98590477D01*
X172905338Y-98593883D01*
X172915230Y-98593883D01*
X172917981Y-98593848D01*
X172934429Y-98592147D01*
X172950104Y-98587897D01*
X172964079Y-98581096D01*
X172975426Y-98571745D01*
X172984106Y-98557613D01*
X172986485Y-98552273D01*
X172995589Y-98538150D01*
X173007128Y-98526964D01*
X173020435Y-98518830D01*
X173034843Y-98513865D01*
X173049685Y-98512184D01*
X173066249Y-98514640D01*
X173082195Y-98521786D01*
X173094174Y-98531083D01*
X173104248Y-98543213D01*
X173111746Y-98557982D01*
X173115997Y-98575198D01*
X173126988Y-98700861D01*
X173141960Y-98693307D01*
X173157058Y-98685757D01*
X173172281Y-98678214D01*
X173187623Y-98670682D01*
X173203082Y-98663163D01*
X173218654Y-98655659D01*
X173234335Y-98648173D01*
X173250121Y-98640709D01*
X173266010Y-98633268D01*
X173281996Y-98625853D01*
X173298078Y-98618468D01*
X173314251Y-98611114D01*
X173330511Y-98603794D01*
X173346855Y-98596511D01*
X173363279Y-98589268D01*
X173379780Y-98582068D01*
X173396353Y-98574912D01*
X173412997Y-98567805D01*
X173429706Y-98560747D01*
X173446477Y-98553743D01*
X173463306Y-98546795D01*
X173480191Y-98539905D01*
X173497126Y-98533076D01*
X173514109Y-98526312D01*
X173531137Y-98519613D01*
X173548204Y-98512984D01*
X173565309Y-98506427D01*
X173582446Y-98499945D01*
X173599613Y-98493540D01*
X173616806Y-98487214D01*
X173634022Y-98480972D01*
X173651256Y-98474815D01*
X173671772Y-98470052D01*
X173678621Y-98470458D01*
X173694287Y-98474732D01*
X173707669Y-98482919D01*
X173718514Y-98494098D01*
X173726573Y-98507347D01*
X173731592Y-98521743D01*
X173733321Y-98536364D01*
X173733133Y-98541278D01*
X173730344Y-98556193D01*
X173724310Y-98570645D01*
X173715146Y-98583705D01*
X173702968Y-98594447D01*
X173687892Y-98601943D01*
X173673604Y-98608171D01*
X173656467Y-98614899D01*
X173639337Y-98621685D01*
X173622216Y-98628529D01*
X173605105Y-98635429D01*
X173588007Y-98642384D01*
X173570925Y-98649393D01*
X173553859Y-98656454D01*
X173536813Y-98663567D01*
X173519788Y-98670729D01*
X173502786Y-98677940D01*
X173485811Y-98685198D01*
X173468863Y-98692503D01*
X173451946Y-98699852D01*
X173435061Y-98707245D01*
X173418210Y-98714680D01*
X173401395Y-98722156D01*
X173384619Y-98729672D01*
X173367884Y-98737226D01*
X173351192Y-98744818D01*
X173334545Y-98752445D01*
X173317945Y-98760107D01*
X173301395Y-98767802D01*
X173284896Y-98775529D01*
X173268451Y-98783288D01*
X173252061Y-98791075D01*
X173235730Y-98798891D01*
X173219458Y-98806734D01*
X173203249Y-98814602D01*
X173187105Y-98822495D01*
X173171026Y-98830411D01*
X173155017Y-98838349D01*
X173139078Y-98846308D01*
X173139078Y-98848872D01*
X173185240Y-99371308D01*
X173185627Y-99376937D01*
X173186511Y-99393771D01*
X173187047Y-99410528D01*
X173187323Y-99427207D01*
X173187424Y-99443809D01*
X173187438Y-99460334D01*
X173187386Y-99473806D01*
X173187101Y-99494035D01*
X173186551Y-99514276D01*
X173185716Y-99534512D01*
X173184576Y-99554726D01*
X173183112Y-99574904D01*
X173181303Y-99595027D01*
X173179129Y-99615080D01*
X173176570Y-99635048D01*
X173173607Y-99654912D01*
X173170219Y-99674658D01*
X173167343Y-99689383D01*
X173164209Y-99704083D01*
X173160817Y-99718753D01*
X173157168Y-99733384D01*
X173153261Y-99747970D01*
X173149096Y-99762503D01*
X173144674Y-99776977D01*
X173139994Y-99791385D01*
X173135057Y-99805719D01*
X173129862Y-99819972D01*
X173124409Y-99834138D01*
X173118699Y-99848209D01*
X173112732Y-99862178D01*
X173106506Y-99876039D01*
X173100023Y-99889784D01*
X173093283Y-99903406D01*
X173086285Y-99916898D01*
X173079029Y-99930254D01*
X173071516Y-99943465D01*
X173063745Y-99956525D01*
X173055716Y-99969428D01*
X173047430Y-99982165D01*
X173038886Y-99994730D01*
X173030085Y-100007116D01*
X173021026Y-100019316D01*
X173011710Y-100031322D01*
X173002135Y-100043128D01*
X172992304Y-100054727D01*
X172982214Y-100066111D01*
X172971867Y-100077274D01*
X172961263Y-100088209D01*
X172950401Y-100098907D01*
X172938333Y-100110128D01*
X172925972Y-100121052D01*
X172913328Y-100131673D01*
X172900411Y-100141989D01*
X172887231Y-100151995D01*
X172873798Y-100161689D01*
X172860121Y-100171065D01*
X172846210Y-100180120D01*
X172832076Y-100188851D01*
X172817727Y-100197253D01*
X172803175Y-100205323D01*
X172788428Y-100213056D01*
X172773497Y-100220450D01*
X172758392Y-100227500D01*
X172743122Y-100234202D01*
X172727697Y-100240553D01*
X172712127Y-100246549D01*
X172696423Y-100252185D01*
X172680593Y-100257458D01*
X172664647Y-100262365D01*
X172648597Y-100266901D01*
X172632450Y-100271063D01*
X172616218Y-100274847D01*
X172599910Y-100278248D01*
X172583536Y-100281264D01*
X172567106Y-100283890D01*
X172550630Y-100286123D01*
X172534117Y-100287958D01*
X172517578Y-100289392D01*
X172501022Y-100290421D01*
X172484459Y-100291041D01*
X172467899Y-100291249D01*
X172451922Y-100291046D01*
X172435876Y-100290438D01*
X172419777Y-100289420D01*
X172403642Y-100287991D01*
X172387488Y-100286148D01*
X172371331Y-100283888D01*
X172355188Y-100281208D01*
X172339076Y-100278105D01*
X172323011Y-100274578D01*
X172307010Y-100270623D01*
X172291089Y-100266237D01*
X172275266Y-100261419D01*
X172259556Y-100256164D01*
X172243977Y-100250471D01*
X172228544Y-100244337D01*
X172213276Y-100237759D01*
X172193040Y-100228494D01*
X172173303Y-100218296D01*
X172154108Y-100207189D01*
X172135498Y-100195192D01*
X172117517Y-100182329D01*
X172100209Y-100168620D01*
X172083616Y-100154086D01*
X172067783Y-100138750D01*
X172052753Y-100122632D01*
X172038569Y-100105754D01*
X172025275Y-100088138D01*
X172012915Y-100069804D01*
X172001531Y-100050776D01*
X171991167Y-100031073D01*
X171981867Y-100010717D01*
X171973674Y-99989731D01*
X171967102Y-99971753D01*
X171961629Y-99953552D01*
X171957187Y-99935145D01*
X171953707Y-99916550D01*
X171951119Y-99897782D01*
X171949356Y-99878860D01*
X171948536Y-99863335D01*
X172082850Y-99863335D01*
X172084018Y-99879432D01*
X172086147Y-99895529D01*
X172089239Y-99911558D01*
X172093292Y-99927449D01*
X172098306Y-99943134D01*
X172104282Y-99958544D01*
X172111220Y-99973611D01*
X172119120Y-99988265D01*
X172127882Y-100002378D01*
X172137389Y-100015865D01*
X172147612Y-100028729D01*
X172158522Y-100040970D01*
X172170091Y-100052592D01*
X172182290Y-100063594D01*
X172195092Y-100073979D01*
X172208467Y-100083749D01*
X172222388Y-100092905D01*
X172236825Y-100101448D01*
X172251751Y-100109381D01*
X172267137Y-100116705D01*
X172282954Y-100123421D01*
X172299175Y-100129531D01*
X172315770Y-100135037D01*
X172332711Y-100139940D01*
X172348978Y-100144425D01*
X172365374Y-100148269D01*
X172381925Y-100151487D01*
X172398656Y-100154091D01*
X172415593Y-100156094D01*
X172432762Y-100157508D01*
X172450189Y-100158348D01*
X172467899Y-100158625D01*
X172484016Y-100158381D01*
X172500142Y-100157651D01*
X172516262Y-100156439D01*
X172532365Y-100154749D01*
X172548436Y-100152584D01*
X172564464Y-100149948D01*
X172580433Y-100146844D01*
X172596333Y-100143278D01*
X172612148Y-100139251D01*
X172627867Y-100134768D01*
X172643475Y-100129832D01*
X172658961Y-100124448D01*
X172674310Y-100118618D01*
X172689510Y-100112347D01*
X172704547Y-100105638D01*
X172719408Y-100098495D01*
X172734080Y-100090922D01*
X172748551Y-100082922D01*
X172762806Y-100074499D01*
X172776833Y-100065656D01*
X172790618Y-100056398D01*
X172804149Y-100046728D01*
X172817412Y-100036650D01*
X172830394Y-100026167D01*
X172843081Y-100015283D01*
X172855462Y-100004002D01*
X172867522Y-99992328D01*
X172879249Y-99980263D01*
X172890629Y-99967813D01*
X172901649Y-99954980D01*
X172912296Y-99941768D01*
X172922557Y-99928182D01*
X172938967Y-99904192D01*
X172954142Y-99879643D01*
X172968110Y-99854570D01*
X172980901Y-99829006D01*
X172992540Y-99802984D01*
X173003057Y-99776539D01*
X173012479Y-99749704D01*
X173020834Y-99722514D01*
X173028150Y-99695001D01*
X173034456Y-99667201D01*
X173039778Y-99639146D01*
X173044144Y-99610870D01*
X173047584Y-99582408D01*
X173050123Y-99553792D01*
X173051792Y-99525058D01*
X173052616Y-99496238D01*
X173052616Y-99456304D01*
X173052425Y-99432861D01*
X173051871Y-99409509D01*
X173050991Y-99386236D01*
X173049817Y-99363030D01*
X173048383Y-99339881D01*
X173046724Y-99316775D01*
X173044872Y-99293702D01*
X173042862Y-99270649D01*
X173040727Y-99247605D01*
X173038502Y-99224558D01*
X173036220Y-99201495D01*
X173033915Y-99178406D01*
X173031620Y-99155278D01*
X173029370Y-99132099D01*
X173027199Y-99108859D01*
X173025139Y-99085544D01*
X173010118Y-98913719D01*
X173002297Y-98917681D01*
X172987638Y-98925311D01*
X172974666Y-98932208D01*
X172960796Y-98939685D01*
X172946223Y-98947626D01*
X172931138Y-98955914D01*
X172915736Y-98964434D01*
X172900209Y-98973070D01*
X172883870Y-98982333D01*
X172867554Y-98991647D01*
X172851263Y-99001012D01*
X172835001Y-99010433D01*
X172818771Y-99019912D01*
X172802576Y-99029452D01*
X172786419Y-99039055D01*
X172770304Y-99048724D01*
X172754233Y-99058462D01*
X172738210Y-99068271D01*
X172722238Y-99078154D01*
X172706320Y-99088114D01*
X172690459Y-99098153D01*
X172674658Y-99108275D01*
X172658921Y-99118481D01*
X172643250Y-99128775D01*
X172627649Y-99139159D01*
X172612121Y-99149635D01*
X172596669Y-99160208D01*
X172581297Y-99170878D01*
X172566006Y-99181649D01*
X172550802Y-99192524D01*
X172535685Y-99203506D01*
X172520661Y-99214596D01*
X172505732Y-99225797D01*
X172490901Y-99237113D01*
X172476171Y-99248546D01*
X172461546Y-99260099D01*
X172447028Y-99271774D01*
X172432621Y-99283574D01*
X172418328Y-99295502D01*
X172404152Y-99307561D01*
X172392402Y-99317601D01*
X172380723Y-99327735D01*
X172369122Y-99337966D01*
X172357609Y-99348296D01*
X172346194Y-99358730D01*
X172334886Y-99369271D01*
X172323695Y-99379922D01*
X172312629Y-99390685D01*
X172301699Y-99401565D01*
X172290913Y-99412565D01*
X172280282Y-99423688D01*
X172269813Y-99434937D01*
X172259518Y-99446316D01*
X172249405Y-99457828D01*
X172239483Y-99469476D01*
X172229762Y-99481263D01*
X172220252Y-99493193D01*
X172210961Y-99505269D01*
X172201900Y-99517495D01*
X172193077Y-99529873D01*
X172184502Y-99542407D01*
X172176185Y-99555100D01*
X172168134Y-99567956D01*
X172160359Y-99580977D01*
X172152870Y-99594168D01*
X172145676Y-99607530D01*
X172138786Y-99621069D01*
X172132209Y-99634786D01*
X172125956Y-99648686D01*
X172120035Y-99662771D01*
X172114456Y-99677044D01*
X172109228Y-99691510D01*
X172102730Y-99709826D01*
X172097224Y-99727780D01*
X172092671Y-99745529D01*
X172089033Y-99763226D01*
X172086270Y-99781026D01*
X172084344Y-99799084D01*
X172083217Y-99817554D01*
X172082850Y-99836591D01*
X172082850Y-99863335D01*
X171948536Y-99863335D01*
X171948349Y-99859800D01*
X171948028Y-99840621D01*
X171948304Y-99824192D01*
X171949121Y-99807752D01*
X171950462Y-99791312D01*
X171952310Y-99774887D01*
X171954647Y-99758490D01*
X171957456Y-99742134D01*
X171960721Y-99725833D01*
X171964423Y-99709600D01*
X171968546Y-99693448D01*
X171973073Y-99677392D01*
X171977986Y-99661444D01*
X171983268Y-99645617D01*
X171988902Y-99629927D01*
X171994871Y-99614384D01*
X172001158Y-99599004D01*
X172007745Y-99583799D01*
X172015116Y-99567761D01*
X172022863Y-99551931D01*
X172030975Y-99536306D01*
X172039438Y-99520884D01*
X172048242Y-99505663D01*
X172057373Y-99490639D01*
X172066820Y-99475811D01*
X172076570Y-99461176D01*
X172086612Y-99446731D01*
X172096934Y-99432475D01*
X172107522Y-99418404D01*
X172118365Y-99404516D01*
X172129451Y-99390809D01*
X172140768Y-99377280D01*
X172152304Y-99363926D01*
X172164046Y-99350746D01*
X172175982Y-99337736D01*
X172188100Y-99324894D01*
X172200388Y-99312219D01*
X172212834Y-99299706D01*
X172225426Y-99287354D01*
X172238151Y-99275160D01*
X172250998Y-99263122D01*
X172263954Y-99251238D01*
X172277008Y-99239504D01*
X172290146Y-99227918D01*
X172303357Y-99216479D01*
X172316628Y-99205182D01*
X172329949Y-99194027D01*
X172343306Y-99183010D01*
X172356687Y-99172129D01*
X172370080Y-99161381D01*
X172386161Y-99148835D01*
X172402325Y-99136405D01*
X172418570Y-99124090D01*
X172434893Y-99111888D01*
X172451295Y-99099797D01*
X172467773Y-99087817D01*
X172484326Y-99075945D01*
X172500952Y-99064180D01*
X172517650Y-99052520D01*
X172534419Y-99040964D01*
X172551256Y-99029510D01*
X172568161Y-99018156D01*
X172585132Y-99006900D01*
X172602168Y-98995742D01*
X172619266Y-98984680D01*
X172636427Y-98973711D01*
X172653647Y-98962835D01*
X172670926Y-98952049D01*
X172688262Y-98941353D01*
X172705654Y-98930743D01*
X172723100Y-98920220D01*
X172740598Y-98909781D01*
X172758148Y-98899425D01*
X172775748Y-98889150D01*
X172793396Y-98878954D01*
X172811091Y-98868836D01*
X172828831Y-98858794D01*
X172846615Y-98848827D01*
X172864442Y-98838932D01*
X172882309Y-98829110D01*
X172900216Y-98819356D01*
X172918161Y-98809672D01*
X172997295Y-98767173D01*
X172993265Y-98713684D01*
X172981947Y-98717751D01*
X172966612Y-98721486D01*
X172951212Y-98724092D01*
X172934557Y-98725857D01*
X172917428Y-98726507D01*
X172902661Y-98726004D01*
X172887939Y-98724493D01*
X172873324Y-98721969D01*
X172858878Y-98718430D01*
X172844665Y-98713871D01*
X172830746Y-98708288D01*
X172817183Y-98701678D01*
X172804038Y-98694038D01*
X172791375Y-98685362D01*
X172779254Y-98675649D01*
X172767739Y-98664893D01*
X172756892Y-98653091D01*
X172746774Y-98640239D01*
X172737449Y-98626334D01*
X172728978Y-98611372D01*
X172721423Y-98595348D01*
X172720239Y-98592288D01*
X172714870Y-98576920D01*
X172710422Y-98561512D01*
X172706906Y-98546164D01*
X172704329Y-98530977D01*
X172702699Y-98516052D01*
X172702006Y-98498628D01*
X172703585Y-98471962D01*
X172708201Y-98446041D01*
X172715670Y-98420993D01*
X172725808Y-98396945D01*
X172738432Y-98374024D01*
X172753358Y-98352357D01*
X172770403Y-98332071D01*
X172789384Y-98313294D01*
X172810116Y-98296152D01*
X172832416Y-98280774D01*
X172856100Y-98267286D01*
X172880986Y-98255815D01*
X172906889Y-98246488D01*
X172933627Y-98239433D01*
X172961014Y-98234778D01*
X172988869Y-98232648D01*
X172990701Y-98232648D01*
X172998006Y-98233054D01*
G37*
G36*
X173857519Y-98613300D02*
G01*
X173871325Y-98620897D01*
X173886754Y-98617867D01*
X173901731Y-98614355D01*
X173917236Y-98613667D01*
X173926590Y-98600474D01*
X173935610Y-98588583D01*
X173945675Y-98575748D01*
X173955876Y-98562312D01*
X173964741Y-98548310D01*
X173965596Y-98546622D01*
X173963173Y-98531788D01*
X173958481Y-98514040D01*
X173952094Y-98498787D01*
X173943989Y-98486217D01*
X173931400Y-98474566D01*
X173916033Y-98467771D01*
X173897839Y-98466203D01*
X173889759Y-98467121D01*
X173876185Y-98460563D01*
X173869242Y-98454298D01*
X173856036Y-98462985D01*
X173840908Y-98474157D01*
X173828561Y-98485100D01*
X173816944Y-98498857D01*
X173809459Y-98513178D01*
X173805990Y-98528573D01*
X173806417Y-98545555D01*
X173806960Y-98549187D01*
X173802574Y-98565589D01*
X173807459Y-98581397D01*
X173818579Y-98592755D01*
X173831638Y-98601119D01*
X173847261Y-98608838D01*
X173857519Y-98613300D01*
G37*
G36*
X174207030Y-98821029D02*
G01*
X174225783Y-98820642D01*
X174244496Y-98819517D01*
X174263108Y-98817709D01*
X174281560Y-98815271D01*
X174299793Y-98812259D01*
X174317746Y-98808727D01*
X174335360Y-98804728D01*
X174352574Y-98800318D01*
X174369330Y-98795550D01*
X174385567Y-98790479D01*
X174396074Y-98786957D01*
X174419400Y-98778285D01*
X174442532Y-98769049D01*
X174465471Y-98759277D01*
X174488221Y-98748998D01*
X174510783Y-98738241D01*
X174533162Y-98727033D01*
X174555360Y-98715403D01*
X174577379Y-98703380D01*
X174599221Y-98690992D01*
X174620891Y-98678268D01*
X174642390Y-98665235D01*
X174663720Y-98651923D01*
X174684886Y-98638360D01*
X174705889Y-98624574D01*
X174726732Y-98610594D01*
X174747418Y-98596448D01*
X174758756Y-98585739D01*
X174767888Y-98571921D01*
X174773267Y-98557239D01*
X174775237Y-98542553D01*
X174775261Y-98540760D01*
X174773236Y-98524851D01*
X174767542Y-98509078D01*
X174758749Y-98494488D01*
X174747426Y-98482131D01*
X174734145Y-98473054D01*
X174719475Y-98468306D01*
X174713346Y-98467854D01*
X174697790Y-98470412D01*
X174683675Y-98476712D01*
X174677442Y-98480310D01*
X174660872Y-98491659D01*
X174644266Y-98502890D01*
X174627612Y-98513988D01*
X174610901Y-98524938D01*
X174594121Y-98535724D01*
X174577261Y-98546333D01*
X174560312Y-98556748D01*
X174543261Y-98566955D01*
X174526099Y-98576939D01*
X174508814Y-98586684D01*
X174491396Y-98596177D01*
X174473835Y-98605401D01*
X174456119Y-98614341D01*
X174438238Y-98622983D01*
X174420180Y-98631312D01*
X174401936Y-98639312D01*
X174385572Y-98646324D01*
X174369853Y-98652677D01*
X174354766Y-98658399D01*
X174340295Y-98663521D01*
X174319711Y-98670137D01*
X174300428Y-98675560D01*
X174282397Y-98679885D01*
X174265565Y-98683208D01*
X174249884Y-98685626D01*
X174235301Y-98687234D01*
X174217478Y-98688284D01*
X174209228Y-98688405D01*
X174191456Y-98687588D01*
X174176552Y-98685516D01*
X174160344Y-98681594D01*
X174146199Y-98676766D01*
X174142916Y-98675949D01*
X174129809Y-98667526D01*
X174118249Y-98656349D01*
X174109707Y-98642105D01*
X174105849Y-98626655D01*
X174105547Y-98620628D01*
X174108624Y-98604459D01*
X174114657Y-98590794D01*
X174122217Y-98576893D01*
X174129776Y-98562696D01*
X174135810Y-98548146D01*
X174138791Y-98533183D01*
X174138886Y-98530136D01*
X174136165Y-98514192D01*
X174128703Y-98499681D01*
X174117559Y-98487121D01*
X174103788Y-98477034D01*
X174088448Y-98469939D01*
X174072595Y-98466355D01*
X174066346Y-98466022D01*
X174050065Y-98468178D01*
X174035244Y-98474310D01*
X174021914Y-98483910D01*
X174010106Y-98496470D01*
X173999851Y-98511484D01*
X173991179Y-98528445D01*
X173984123Y-98546845D01*
X173978711Y-98566177D01*
X173974975Y-98585934D01*
X173972946Y-98605609D01*
X173972557Y-98618429D01*
X173973418Y-98637363D01*
X173976009Y-98656142D01*
X173980343Y-98674612D01*
X173986433Y-98692618D01*
X173994292Y-98710006D01*
X174003933Y-98726621D01*
X174015368Y-98742309D01*
X174025130Y-98753373D01*
X174028611Y-98756915D01*
X174042736Y-98769670D01*
X174057645Y-98780790D01*
X174073253Y-98790356D01*
X174089475Y-98798453D01*
X174106226Y-98805164D01*
X174123421Y-98810572D01*
X174140975Y-98814760D01*
X174158802Y-98817812D01*
X174176817Y-98819811D01*
X174194936Y-98820840D01*
X174207030Y-98821029D01*
G37*
G36*
X174163799Y-98403374D02*
G01*
X174180866Y-98399291D01*
X174194915Y-98393576D01*
X174208746Y-98385958D01*
X174221837Y-98376690D01*
X174233663Y-98366025D01*
X174243702Y-98354218D01*
X174251428Y-98341521D01*
X174255390Y-98331566D01*
X174261365Y-98317522D01*
X174262718Y-98305554D01*
X174260703Y-98290991D01*
X174255390Y-98279176D01*
X174248096Y-98264888D01*
X174236222Y-98253196D01*
X174223394Y-98245695D01*
X174208992Y-98240918D01*
X174193841Y-98239242D01*
X174176772Y-98243202D01*
X174162717Y-98248880D01*
X174148870Y-98256501D01*
X174135748Y-98265798D01*
X174123873Y-98276505D01*
X174113764Y-98288357D01*
X174105940Y-98301086D01*
X174101884Y-98311050D01*
X174096017Y-98325094D01*
X174094556Y-98337062D01*
X174097078Y-98352240D01*
X174101884Y-98363073D01*
X174109182Y-98376526D01*
X174121083Y-98388289D01*
X174133969Y-98396225D01*
X174148478Y-98401475D01*
X174163799Y-98403374D01*
G37*
G36*
X175525575Y-98791720D02*
G01*
X175541432Y-98791135D01*
X175557219Y-98789563D01*
X175572869Y-98787282D01*
X175588312Y-98784567D01*
X175597016Y-98782927D01*
X175622990Y-98776831D01*
X175648835Y-98769726D01*
X175674546Y-98761692D01*
X175700113Y-98752811D01*
X175725531Y-98743163D01*
X175750790Y-98732830D01*
X175775885Y-98721893D01*
X175800806Y-98710433D01*
X175825548Y-98698530D01*
X175850101Y-98686266D01*
X175874459Y-98673722D01*
X175898614Y-98660979D01*
X175922559Y-98648118D01*
X175946286Y-98635220D01*
X175969787Y-98622366D01*
X175993056Y-98609637D01*
X176006140Y-98600364D01*
X176016046Y-98588952D01*
X176023445Y-98574322D01*
X176026629Y-98559151D01*
X176026762Y-98555415D01*
X176024553Y-98540261D01*
X176018325Y-98525054D01*
X176008672Y-98510866D01*
X175996189Y-98498771D01*
X175981473Y-98489843D01*
X175965119Y-98485154D01*
X175958251Y-98484706D01*
X175943450Y-98486752D01*
X175929410Y-98492175D01*
X175924912Y-98494598D01*
X175899310Y-98508556D01*
X175886196Y-98515620D01*
X175872903Y-98522715D01*
X175859452Y-98529821D01*
X175845865Y-98536921D01*
X175832163Y-98543995D01*
X175818369Y-98551024D01*
X175804504Y-98557989D01*
X175790590Y-98564872D01*
X175776649Y-98571652D01*
X175762702Y-98578312D01*
X175748771Y-98584832D01*
X175734878Y-98591193D01*
X175721044Y-98597376D01*
X175707292Y-98603363D01*
X175693643Y-98609133D01*
X175666740Y-98619952D01*
X175640511Y-98629680D01*
X175615129Y-98638165D01*
X175590767Y-98645255D01*
X175567600Y-98650799D01*
X175545801Y-98654645D01*
X175525545Y-98656641D01*
X175516050Y-98656898D01*
X175511287Y-98656165D01*
X175500241Y-98641021D01*
X175490383Y-98625742D01*
X175481394Y-98610422D01*
X175472956Y-98595159D01*
X175464750Y-98580048D01*
X175456457Y-98565185D01*
X175447758Y-98550666D01*
X175438335Y-98536587D01*
X175427868Y-98523044D01*
X175416039Y-98510134D01*
X175407240Y-98501926D01*
X175394049Y-98492074D01*
X175380462Y-98483316D01*
X175366508Y-98475625D01*
X175352216Y-98468972D01*
X175337615Y-98463331D01*
X175322734Y-98458675D01*
X175307602Y-98454977D01*
X175292247Y-98452209D01*
X175276699Y-98450344D01*
X175260987Y-98449355D01*
X175250436Y-98449169D01*
X175230937Y-98449795D01*
X175211258Y-98451628D01*
X175191506Y-98454597D01*
X175171790Y-98458636D01*
X175152220Y-98463674D01*
X175132902Y-98469643D01*
X175113948Y-98476475D01*
X175095464Y-98484100D01*
X175077559Y-98492449D01*
X175060343Y-98501454D01*
X175049302Y-98507787D01*
X175036161Y-98515834D01*
X175023104Y-98524126D01*
X175010111Y-98532593D01*
X174997163Y-98541161D01*
X174984242Y-98549759D01*
X174971326Y-98558316D01*
X174958398Y-98566758D01*
X174945437Y-98575015D01*
X174932425Y-98583015D01*
X174919343Y-98590684D01*
X174906170Y-98597953D01*
X174892887Y-98604748D01*
X174879476Y-98610998D01*
X174865916Y-98616630D01*
X174845257Y-98623765D01*
X174838276Y-98625757D01*
X174823180Y-98628693D01*
X174808483Y-98631159D01*
X174796877Y-98631985D01*
X174782003Y-98630936D01*
X174773098Y-98618617D01*
X174770865Y-98604874D01*
X174772366Y-98587790D01*
X174776328Y-98571265D01*
X174781936Y-98554837D01*
X174788378Y-98538045D01*
X174793585Y-98524039D01*
X174798389Y-98509269D01*
X174802372Y-98493499D01*
X174799756Y-98477259D01*
X174792607Y-98463075D01*
X174781973Y-98451232D01*
X174768902Y-98442015D01*
X174754443Y-98435710D01*
X174739643Y-98432601D01*
X174733862Y-98432316D01*
X174719135Y-98433811D01*
X174704451Y-98438402D01*
X174690781Y-98446248D01*
X174679096Y-98457510D01*
X174670368Y-98472345D01*
X174668283Y-98478112D01*
X174662784Y-98494072D01*
X174657406Y-98510312D01*
X174652337Y-98526766D01*
X174647766Y-98543370D01*
X174643882Y-98560061D01*
X174640874Y-98576773D01*
X174638931Y-98593441D01*
X174638241Y-98610003D01*
X174639069Y-98625746D01*
X174641496Y-98641049D01*
X174645440Y-98655833D01*
X174650818Y-98670018D01*
X174657545Y-98683524D01*
X174665540Y-98696273D01*
X174674719Y-98708185D01*
X174684998Y-98719180D01*
X174696295Y-98729178D01*
X174708526Y-98738102D01*
X174721609Y-98745870D01*
X174735459Y-98752404D01*
X174749994Y-98757625D01*
X174765131Y-98761452D01*
X174780786Y-98763806D01*
X174796877Y-98764609D01*
X174816804Y-98763793D01*
X174836595Y-98761432D01*
X174856235Y-98757656D01*
X174875708Y-98752593D01*
X174894999Y-98746373D01*
X174914091Y-98739126D01*
X174932970Y-98730980D01*
X174951620Y-98722065D01*
X174970025Y-98712510D01*
X174988170Y-98702445D01*
X175006039Y-98691999D01*
X175023616Y-98681301D01*
X175040887Y-98670481D01*
X175057835Y-98659668D01*
X175074445Y-98648991D01*
X175090701Y-98638579D01*
X175104350Y-98630490D01*
X175118287Y-98622591D01*
X175132489Y-98615015D01*
X175146935Y-98607893D01*
X175161603Y-98601358D01*
X175176472Y-98595542D01*
X175191519Y-98590577D01*
X175206724Y-98586596D01*
X175222063Y-98583730D01*
X175237517Y-98582113D01*
X175247871Y-98581793D01*
X175272051Y-98583991D01*
X175287266Y-98587610D01*
X175306742Y-98597195D01*
X175322959Y-98610993D01*
X175336765Y-98628139D01*
X175345050Y-98641001D01*
X175352893Y-98654708D01*
X175360545Y-98669002D01*
X175368259Y-98683628D01*
X175376287Y-98698327D01*
X175384879Y-98712843D01*
X175394287Y-98726919D01*
X175404764Y-98740297D01*
X175416561Y-98752721D01*
X175429929Y-98763934D01*
X175437281Y-98769005D01*
X175452860Y-98776951D01*
X175469018Y-98783115D01*
X175485639Y-98787569D01*
X175502609Y-98790386D01*
X175519810Y-98791638D01*
X175525575Y-98791720D01*
G37*
G36*
X176165980Y-98867557D02*
G01*
X176185248Y-98867151D01*
X176204517Y-98865954D01*
X176223682Y-98864002D01*
X176242642Y-98861329D01*
X176261292Y-98857969D01*
X176279530Y-98853956D01*
X176297253Y-98849325D01*
X176314357Y-98844110D01*
X176332150Y-98838671D01*
X176349808Y-98832814D01*
X176367337Y-98826569D01*
X176384740Y-98819964D01*
X176402020Y-98813029D01*
X176419181Y-98805792D01*
X176436228Y-98798282D01*
X176453164Y-98790529D01*
X176469992Y-98782561D01*
X176486717Y-98774408D01*
X176503342Y-98766097D01*
X176519871Y-98757659D01*
X176536307Y-98749122D01*
X176552655Y-98740516D01*
X176568918Y-98731869D01*
X176585101Y-98723210D01*
X176604446Y-98712923D01*
X176623757Y-98702590D01*
X176643058Y-98692291D01*
X176662375Y-98682108D01*
X176681732Y-98672122D01*
X176701156Y-98662416D01*
X176720671Y-98653070D01*
X176740302Y-98644166D01*
X176760075Y-98635787D01*
X176780014Y-98628012D01*
X176800146Y-98620925D01*
X176820495Y-98614605D01*
X176841087Y-98609136D01*
X176861947Y-98604599D01*
X176883099Y-98601075D01*
X176904570Y-98598646D01*
X176920425Y-98594886D01*
X176935026Y-98588464D01*
X176947869Y-98579456D01*
X176958452Y-98567938D01*
X176966270Y-98553984D01*
X176970822Y-98537671D01*
X176971615Y-98530502D01*
X176968724Y-98513329D01*
X176962352Y-98499102D01*
X176952976Y-98486034D01*
X176941159Y-98475140D01*
X176927461Y-98467434D01*
X176912445Y-98463931D01*
X176909333Y-98463824D01*
X176902372Y-98463824D01*
X176885405Y-98465882D01*
X176868637Y-98468404D01*
X176852061Y-98471368D01*
X176835667Y-98474756D01*
X176819449Y-98478547D01*
X176803397Y-98482720D01*
X176787502Y-98487257D01*
X176771758Y-98492137D01*
X176756154Y-98497340D01*
X176740683Y-98502846D01*
X176725337Y-98508635D01*
X176710106Y-98514687D01*
X176694983Y-98520982D01*
X176679959Y-98527500D01*
X176665027Y-98534222D01*
X176650176Y-98541127D01*
X176635400Y-98548194D01*
X176620689Y-98555405D01*
X176606036Y-98562739D01*
X176591431Y-98570177D01*
X176576867Y-98577697D01*
X176562335Y-98585281D01*
X176547827Y-98592908D01*
X176533335Y-98600558D01*
X176518849Y-98608211D01*
X176504362Y-98615847D01*
X176489865Y-98623447D01*
X176475350Y-98630990D01*
X176460808Y-98638456D01*
X176446231Y-98645826D01*
X176431611Y-98653079D01*
X176416939Y-98660195D01*
X176401041Y-98667786D01*
X176385080Y-98675093D01*
X176369050Y-98682105D01*
X176352945Y-98688808D01*
X176336761Y-98695190D01*
X176320492Y-98701238D01*
X176304132Y-98706939D01*
X176287676Y-98712282D01*
X176271119Y-98717252D01*
X176254454Y-98721838D01*
X176243283Y-98724675D01*
X176226448Y-98727765D01*
X176210613Y-98730381D01*
X176195850Y-98732437D01*
X176180078Y-98734011D01*
X176165980Y-98734567D01*
X176147861Y-98733795D01*
X176131884Y-98731590D01*
X176111639Y-98725950D01*
X176095458Y-98718002D01*
X176082886Y-98708295D01*
X176070959Y-98693570D01*
X176063571Y-98678003D01*
X176059650Y-98662900D01*
X176057989Y-98646661D01*
X176057903Y-98641510D01*
X176057903Y-98628688D01*
X176058651Y-98611023D01*
X176060653Y-98594566D01*
X176064608Y-98575208D01*
X176069244Y-98559218D01*
X176075612Y-98542306D01*
X176083985Y-98524775D01*
X176094635Y-98506931D01*
X176107832Y-98489077D01*
X176118179Y-98477319D01*
X176123848Y-98471517D01*
X176135009Y-98461370D01*
X176148644Y-98455767D01*
X176149127Y-98455764D01*
X176152791Y-98449535D01*
X176143632Y-98463457D01*
X176146089Y-98479966D01*
X176152880Y-98494291D01*
X176163133Y-98506182D01*
X176175975Y-98515385D01*
X176190534Y-98521650D01*
X176205939Y-98524726D01*
X176212142Y-98525006D01*
X176228178Y-98523052D01*
X176242230Y-98518083D01*
X176255586Y-98509830D01*
X176267320Y-98498061D01*
X176275189Y-98485400D01*
X176277721Y-98479577D01*
X176281856Y-98464772D01*
X176284322Y-98449644D01*
X176284682Y-98441842D01*
X176282816Y-98422859D01*
X176277480Y-98404972D01*
X176269071Y-98388349D01*
X176257982Y-98373159D01*
X176244608Y-98359570D01*
X176229345Y-98347751D01*
X176212586Y-98337870D01*
X176194728Y-98330095D01*
X176176165Y-98324595D01*
X176157291Y-98321539D01*
X176144731Y-98320942D01*
X176129675Y-98322169D01*
X176114567Y-98324869D01*
X176110293Y-98325704D01*
X176093773Y-98331819D01*
X176077937Y-98339629D01*
X176062875Y-98348790D01*
X176048680Y-98358960D01*
X176035444Y-98369793D01*
X176023260Y-98380947D01*
X176018702Y-98385422D01*
X176008850Y-98397031D01*
X175999495Y-98409036D01*
X175990646Y-98421413D01*
X175982311Y-98434137D01*
X175974498Y-98447182D01*
X175967214Y-98460525D01*
X175960468Y-98474140D01*
X175954267Y-98488004D01*
X175948621Y-98502090D01*
X175943536Y-98516375D01*
X175939021Y-98530834D01*
X175935085Y-98545443D01*
X175931734Y-98560175D01*
X175928977Y-98575008D01*
X175926823Y-98589916D01*
X175925279Y-98604874D01*
X175923080Y-98636748D01*
X175923742Y-98655198D01*
X175925744Y-98673765D01*
X175929115Y-98692295D01*
X175933880Y-98710634D01*
X175940068Y-98728627D01*
X175947706Y-98746120D01*
X175956821Y-98762961D01*
X175967439Y-98778994D01*
X175979589Y-98794066D01*
X175993297Y-98808023D01*
X176003314Y-98816632D01*
X176016659Y-98826523D01*
X176030664Y-98835209D01*
X176045238Y-98842740D01*
X176060289Y-98849167D01*
X176075723Y-98854542D01*
X176091450Y-98858914D01*
X176107375Y-98862335D01*
X176123407Y-98864855D01*
X176139454Y-98866525D01*
X176155423Y-98867396D01*
X176165980Y-98867557D01*
G37*
D12*
%LPC*%
D10*
X179347963Y-90209170D02*
G75*
G03*
X176126736Y-86871243I-8313863J-4799930D01*
G01*
X162729454Y-99775000D02*
G75*
G03*
X165950710Y-103112907I8313946J4800100D01*
G01*
X166234167Y-86695330D02*
G75*
G03*
X162896241Y-89916559I4800133J-8314070D01*
G01*
X175799997Y-103313843D02*
G75*
G03*
X179137906Y-100092588I-4799997J8313843D01*
G01*
D13*
X171000000Y-95000000D03*
M02*
