G04 #@! TF.GenerationSoftware,KiCad,Pcbnew,(7.0.0-0)*
G04 #@! TF.CreationDate,2024-01-26T00:14:48+08:00*
G04 #@! TF.ProjectId,Revolute,5265766f-6c75-4746-952e-6b696361645f,rev?*
G04 #@! TF.SameCoordinates,Original*
G04 #@! TF.FileFunction,Copper,L3,Inr*
G04 #@! TF.FilePolarity,Positive*
%FSLAX46Y46*%
G04 Gerber Fmt 4.6, Leading zero omitted, Abs format (unit mm)*
G04 Created by KiCad (PCBNEW (7.0.0-0)) date 2024-01-26 00:14:48*
%MOMM*%
%LPD*%
G01*
G04 APERTURE LIST*
G04 #@! TA.AperFunction,ComponentPad*
%ADD10C,0.600000*%
G04 #@! TD*
G04 #@! TA.AperFunction,ViaPad*
%ADD11C,0.450000*%
G04 #@! TD*
G04 #@! TA.AperFunction,ViaPad*
%ADD12C,0.800000*%
G04 #@! TD*
G04 #@! TA.AperFunction,Conductor*
%ADD13C,0.300000*%
G04 #@! TD*
G04 #@! TA.AperFunction,Conductor*
%ADD14C,0.100000*%
G04 #@! TD*
G04 APERTURE END LIST*
D10*
X174775000Y-93425000D03*
X175775000Y-93425000D03*
X174775000Y-92525000D03*
X175775000Y-92525000D03*
X174775000Y-91625000D03*
X175775000Y-91625000D03*
D11*
X164859812Y-98140188D03*
X176974773Y-102514392D03*
X175075000Y-101800000D03*
X180150000Y-92200000D03*
X162760000Y-98180000D03*
X173070000Y-101600000D03*
X162442836Y-90461363D03*
X169700000Y-98550000D03*
X164930000Y-100200000D03*
X169650000Y-89820000D03*
X179911016Y-98562057D03*
X174794755Y-103788534D03*
X165190000Y-91647017D03*
X173847847Y-104118323D03*
X179003299Y-100302672D03*
X171197360Y-104516761D03*
X166164828Y-88520000D03*
X177728879Y-101845893D03*
X167764828Y-90914500D03*
X165820000Y-101120000D03*
X174200000Y-87125000D03*
X161630000Y-97120000D03*
X177250000Y-96700000D03*
D12*
X175750000Y-88100000D03*
D11*
X165485188Y-93614812D03*
X179505160Y-99451662D03*
X171570000Y-99170000D03*
X174075000Y-99550000D03*
X164930000Y-101090000D03*
X163698572Y-98148521D03*
X170350000Y-92300000D03*
X167850000Y-97200000D03*
X166950000Y-91750000D03*
X162600000Y-92350000D03*
D12*
X178450000Y-90750000D03*
D11*
X171875000Y-102050000D03*
X175325000Y-96725000D03*
X163250000Y-97400000D03*
X163199979Y-92750054D03*
X173725000Y-95150000D03*
X173206347Y-95424500D03*
X162600000Y-93450000D03*
X168700000Y-94050000D03*
X174800000Y-99600000D03*
X167550000Y-100400000D03*
X171000000Y-100100000D03*
X169480000Y-103070000D03*
X173300000Y-90975000D03*
X174675000Y-95050000D03*
X176850000Y-89775000D03*
X171725000Y-90150000D03*
X173650000Y-94525000D03*
X178000000Y-93050000D03*
X179300000Y-93050000D03*
X162350000Y-95600000D03*
X170825000Y-97500000D03*
X175775000Y-95250000D03*
X162600000Y-95050000D03*
X176400000Y-95275000D03*
X171625000Y-97075000D03*
X179050000Y-98650000D03*
X162600000Y-94450000D03*
X176050500Y-96875000D03*
X168700000Y-90780000D03*
X168550000Y-94600000D03*
X165695578Y-92150000D03*
X165850000Y-91550000D03*
X169650000Y-90780000D03*
X174362500Y-98612500D03*
X162800000Y-96000000D03*
X162320999Y-96348941D03*
X176550000Y-98450000D03*
D13*
X175325000Y-97150000D02*
X175675000Y-97500000D01*
X175325000Y-96725000D02*
X175325000Y-97150000D01*
X175675000Y-99875000D02*
X174875000Y-100675000D01*
X173250000Y-100675000D02*
X171875000Y-102050000D01*
X174875000Y-100675000D02*
X173250000Y-100675000D01*
X175675000Y-97500000D02*
X175675000Y-99875000D01*
D14*
X170600000Y-100425000D02*
X170975000Y-100050000D01*
X167500000Y-100425000D02*
X170600000Y-100425000D01*
X174400000Y-100050000D02*
X174825000Y-99625000D01*
X170975000Y-100050000D02*
X174400000Y-100050000D01*
X172875000Y-96175000D02*
X172550000Y-95850000D01*
X175375000Y-97725000D02*
X173825000Y-96175000D01*
X173825000Y-96175000D02*
X172875000Y-96175000D01*
X172550000Y-95850000D02*
X172550000Y-91725000D01*
X175375000Y-99555331D02*
X175375000Y-97725000D01*
X172550000Y-91725000D02*
X173300000Y-90975000D01*
X174680331Y-100250000D02*
X175375000Y-99555331D01*
X169480000Y-103070000D02*
X172300000Y-100250000D01*
X172300000Y-100250000D02*
X174680331Y-100250000D01*
X174100000Y-91300000D02*
X175625000Y-89775000D01*
X175625000Y-89775000D02*
X176850000Y-89775000D01*
X174675000Y-95050000D02*
X174100000Y-94475000D01*
X174100000Y-94475000D02*
X174100000Y-91300000D01*
X173750000Y-90150000D02*
X174850000Y-89050000D01*
X171725000Y-90150000D02*
X173750000Y-90150000D01*
X179050000Y-98650000D02*
X177825500Y-98650000D01*
X177825500Y-98650000D02*
X176050500Y-96875000D01*
G04 #@! TA.AperFunction,Conductor*
G36*
X168482574Y-85385561D02*
G01*
X168517515Y-85428867D01*
X168530000Y-85483093D01*
X168530000Y-88420000D01*
X168546326Y-88420000D01*
X173243967Y-88420000D01*
X173300922Y-88433854D01*
X173345150Y-88472320D01*
X173366769Y-88526803D01*
X173549026Y-89828303D01*
X173538892Y-89897287D01*
X173493136Y-89949897D01*
X173426224Y-89969500D01*
X172098614Y-89969500D01*
X172051161Y-89960061D01*
X172010933Y-89933181D01*
X171943466Y-89865714D01*
X171936562Y-89858810D01*
X171927860Y-89854376D01*
X171844924Y-89812117D01*
X171844921Y-89812116D01*
X171836225Y-89807685D01*
X171826586Y-89806158D01*
X171826582Y-89806157D01*
X171734641Y-89791596D01*
X171725000Y-89790069D01*
X171715359Y-89791596D01*
X171623417Y-89806157D01*
X171623411Y-89806158D01*
X171613775Y-89807685D01*
X171605080Y-89812115D01*
X171605075Y-89812117D01*
X171522139Y-89854376D01*
X171522136Y-89854377D01*
X171513438Y-89858810D01*
X171506536Y-89865711D01*
X171506533Y-89865714D01*
X171440714Y-89931533D01*
X171440711Y-89931536D01*
X171433810Y-89938438D01*
X171429377Y-89947136D01*
X171429376Y-89947139D01*
X171387117Y-90030075D01*
X171387115Y-90030080D01*
X171382685Y-90038775D01*
X171381158Y-90048411D01*
X171381157Y-90048417D01*
X171370246Y-90117315D01*
X171365069Y-90150000D01*
X171366596Y-90159641D01*
X171381157Y-90251582D01*
X171381158Y-90251586D01*
X171382685Y-90261225D01*
X171387116Y-90269921D01*
X171387117Y-90269924D01*
X171409885Y-90314608D01*
X171433810Y-90361562D01*
X171513438Y-90441190D01*
X171613775Y-90492315D01*
X171725000Y-90509931D01*
X171836225Y-90492315D01*
X171936562Y-90441190D01*
X172010932Y-90366819D01*
X172051161Y-90339939D01*
X172098614Y-90330500D01*
X173511506Y-90330500D01*
X173568461Y-90344354D01*
X173612689Y-90382821D01*
X173634308Y-90437304D01*
X173647896Y-90534341D01*
X173639006Y-90600528D01*
X173597075Y-90652506D01*
X173534267Y-90675197D01*
X173468800Y-90662021D01*
X173438510Y-90646587D01*
X173419922Y-90637116D01*
X173419919Y-90637115D01*
X173411225Y-90632685D01*
X173401586Y-90631158D01*
X173401582Y-90631157D01*
X173309641Y-90616596D01*
X173300000Y-90615069D01*
X173290359Y-90616596D01*
X173198417Y-90631157D01*
X173198411Y-90631158D01*
X173188775Y-90632685D01*
X173180080Y-90637115D01*
X173180075Y-90637117D01*
X173097139Y-90679376D01*
X173097136Y-90679377D01*
X173088438Y-90683810D01*
X173081536Y-90690711D01*
X173081533Y-90690714D01*
X173015714Y-90756533D01*
X173015711Y-90756536D01*
X173008810Y-90763438D01*
X173004377Y-90772136D01*
X173004376Y-90772139D01*
X172962117Y-90855075D01*
X172962115Y-90855080D01*
X172957685Y-90863775D01*
X172956158Y-90873411D01*
X172956157Y-90873417D01*
X172941595Y-90965360D01*
X172941595Y-90965365D01*
X172940069Y-90975000D01*
X172941595Y-90984635D01*
X172941595Y-90984643D01*
X172944495Y-91002952D01*
X172939953Y-91060667D01*
X172909703Y-91110030D01*
X172441933Y-91577800D01*
X172424698Y-91592165D01*
X172423242Y-91593169D01*
X172423239Y-91593171D01*
X172410850Y-91601724D01*
X172403852Y-91615055D01*
X172403850Y-91615059D01*
X172394445Y-91632978D01*
X172390771Y-91639493D01*
X172380395Y-91656658D01*
X172372515Y-91669694D01*
X172372168Y-91675426D01*
X172369500Y-91680511D01*
X172369500Y-91691477D01*
X172369500Y-91715803D01*
X172369274Y-91723288D01*
X172367144Y-91758510D01*
X172367023Y-91758502D01*
X172366826Y-91763745D01*
X172369500Y-91763745D01*
X172369500Y-95822328D01*
X172367469Y-95844679D01*
X172364437Y-95861225D01*
X172368916Y-95875600D01*
X172368917Y-95875603D01*
X172374934Y-95894913D01*
X172376945Y-95902126D01*
X172382767Y-95925749D01*
X172382769Y-95925753D01*
X172385392Y-95936393D01*
X172389200Y-95940692D01*
X172390909Y-95946174D01*
X172398661Y-95953926D01*
X172415852Y-95971117D01*
X172420986Y-95976570D01*
X172444396Y-96002994D01*
X172444311Y-96003068D01*
X172447880Y-96006914D01*
X172449765Y-96005030D01*
X172727797Y-96283062D01*
X172742162Y-96300297D01*
X172751724Y-96314150D01*
X172765052Y-96321145D01*
X172765056Y-96321148D01*
X172782984Y-96330557D01*
X172789511Y-96334238D01*
X172819693Y-96352484D01*
X172825424Y-96352830D01*
X172830511Y-96355500D01*
X172865808Y-96355500D01*
X172873293Y-96355725D01*
X172908510Y-96357856D01*
X172908502Y-96357976D01*
X172913745Y-96358175D01*
X172913745Y-96355500D01*
X173698873Y-96355500D01*
X173746326Y-96364939D01*
X173786554Y-96391819D01*
X175158181Y-97763446D01*
X175185061Y-97803674D01*
X175194500Y-97851127D01*
X175194500Y-99200246D01*
X175176228Y-99265034D01*
X175126798Y-99310729D01*
X175060777Y-99323864D01*
X175012891Y-99306201D01*
X175011562Y-99308810D01*
X174919924Y-99262117D01*
X174919921Y-99262116D01*
X174911225Y-99257685D01*
X174901586Y-99256158D01*
X174901582Y-99256157D01*
X174809641Y-99241596D01*
X174800000Y-99240069D01*
X174790359Y-99241596D01*
X174698417Y-99256157D01*
X174698411Y-99256158D01*
X174688775Y-99257685D01*
X174680080Y-99262115D01*
X174680075Y-99262117D01*
X174597139Y-99304376D01*
X174597136Y-99304377D01*
X174588438Y-99308810D01*
X174581536Y-99315711D01*
X174581533Y-99315714D01*
X174515714Y-99381533D01*
X174515711Y-99381536D01*
X174508810Y-99388438D01*
X174504377Y-99397136D01*
X174504376Y-99397139D01*
X174462117Y-99480075D01*
X174462115Y-99480080D01*
X174457685Y-99488775D01*
X174456158Y-99498411D01*
X174456157Y-99498417D01*
X174447474Y-99553244D01*
X174440069Y-99600000D01*
X174441596Y-99609641D01*
X174441596Y-99609642D01*
X174451332Y-99671115D01*
X174446790Y-99728830D01*
X174416541Y-99778192D01*
X174361554Y-99833180D01*
X174321325Y-99860061D01*
X174273872Y-99869500D01*
X171323614Y-99869500D01*
X171276161Y-99860061D01*
X171235933Y-99833181D01*
X171218466Y-99815714D01*
X171218466Y-99815713D01*
X171211562Y-99808810D01*
X171151472Y-99778192D01*
X171119924Y-99762117D01*
X171119921Y-99762116D01*
X171111225Y-99757685D01*
X171101586Y-99756158D01*
X171101582Y-99756157D01*
X171009641Y-99741596D01*
X171000000Y-99740069D01*
X170990359Y-99741596D01*
X170898417Y-99756157D01*
X170898411Y-99756158D01*
X170888775Y-99757685D01*
X170880080Y-99762115D01*
X170880075Y-99762117D01*
X170797139Y-99804376D01*
X170797136Y-99804377D01*
X170788438Y-99808810D01*
X170781536Y-99815711D01*
X170781533Y-99815714D01*
X170715714Y-99881533D01*
X170715711Y-99881536D01*
X170708810Y-99888438D01*
X170704377Y-99897136D01*
X170704376Y-99897139D01*
X170662117Y-99980075D01*
X170662115Y-99980080D01*
X170657685Y-99988775D01*
X170656158Y-99998413D01*
X170656157Y-99998418D01*
X170640789Y-100095453D01*
X170628801Y-100132349D01*
X170605998Y-100163735D01*
X170561554Y-100208180D01*
X170521325Y-100235061D01*
X170473872Y-100244500D01*
X167943216Y-100244500D01*
X167886923Y-100230986D01*
X167844337Y-100194615D01*
X167841190Y-100188438D01*
X167761562Y-100108810D01*
X167732936Y-100094224D01*
X167669924Y-100062117D01*
X167669921Y-100062116D01*
X167661225Y-100057685D01*
X167651586Y-100056158D01*
X167651582Y-100056157D01*
X167559641Y-100041596D01*
X167550000Y-100040069D01*
X167540359Y-100041596D01*
X167448417Y-100056157D01*
X167448411Y-100056158D01*
X167438775Y-100057685D01*
X167430080Y-100062115D01*
X167430075Y-100062117D01*
X167347139Y-100104376D01*
X167347136Y-100104377D01*
X167338438Y-100108810D01*
X167331536Y-100115711D01*
X167331533Y-100115714D01*
X167265714Y-100181533D01*
X167265711Y-100181536D01*
X167258810Y-100188438D01*
X167254377Y-100197136D01*
X167254376Y-100197139D01*
X167212117Y-100280075D01*
X167212115Y-100280080D01*
X167207685Y-100288775D01*
X167206158Y-100298411D01*
X167206157Y-100298417D01*
X167192558Y-100384285D01*
X167190069Y-100400000D01*
X167191596Y-100409641D01*
X167206157Y-100501582D01*
X167206158Y-100501586D01*
X167207685Y-100511225D01*
X167212116Y-100519921D01*
X167212117Y-100519924D01*
X167245682Y-100585797D01*
X167258810Y-100611562D01*
X167338438Y-100691190D01*
X167438775Y-100742315D01*
X167550000Y-100759931D01*
X167661225Y-100742315D01*
X167761562Y-100691190D01*
X167810933Y-100641818D01*
X167851161Y-100614939D01*
X167898614Y-100605500D01*
X170572328Y-100605500D01*
X170594679Y-100607530D01*
X170611225Y-100610563D01*
X170644934Y-100600057D01*
X170652124Y-100598053D01*
X170659862Y-100596146D01*
X170675731Y-100592236D01*
X170675731Y-100592235D01*
X170686393Y-100589608D01*
X170690692Y-100585799D01*
X170696174Y-100584091D01*
X170721147Y-100559116D01*
X170726566Y-100554016D01*
X170752994Y-100530604D01*
X170752994Y-100530603D01*
X170752996Y-100530602D01*
X170753075Y-100530691D01*
X170756919Y-100527125D01*
X170755029Y-100525235D01*
X170755030Y-100525234D01*
X170800223Y-100480040D01*
X170849584Y-100449791D01*
X170907300Y-100445249D01*
X171000000Y-100459931D01*
X171111225Y-100442315D01*
X171211562Y-100391190D01*
X171291190Y-100311562D01*
X171297995Y-100298204D01*
X171343689Y-100248773D01*
X171408480Y-100230500D01*
X171764873Y-100230500D01*
X171821168Y-100244015D01*
X171865191Y-100281615D01*
X171887346Y-100335102D01*
X171882804Y-100392818D01*
X171852554Y-100442181D01*
X169615030Y-102679703D01*
X169565667Y-102709953D01*
X169507952Y-102714495D01*
X169489643Y-102711595D01*
X169489635Y-102711595D01*
X169480000Y-102710069D01*
X169470365Y-102711595D01*
X169470360Y-102711595D01*
X169378417Y-102726157D01*
X169378411Y-102726158D01*
X169368775Y-102727685D01*
X169360080Y-102732115D01*
X169360075Y-102732117D01*
X169277139Y-102774376D01*
X169277136Y-102774377D01*
X169268438Y-102778810D01*
X169261536Y-102785711D01*
X169261533Y-102785714D01*
X169195714Y-102851533D01*
X169195711Y-102851536D01*
X169188810Y-102858438D01*
X169184377Y-102867136D01*
X169184376Y-102867139D01*
X169142117Y-102950075D01*
X169142115Y-102950080D01*
X169137685Y-102958775D01*
X169136158Y-102968411D01*
X169136157Y-102968417D01*
X169133637Y-102984332D01*
X169120069Y-103070000D01*
X169121596Y-103079641D01*
X169136157Y-103171582D01*
X169136158Y-103171586D01*
X169137685Y-103181225D01*
X169188810Y-103281562D01*
X169268438Y-103361190D01*
X169368775Y-103412315D01*
X169480000Y-103429931D01*
X169591225Y-103412315D01*
X169691562Y-103361190D01*
X169771190Y-103281562D01*
X169822315Y-103181225D01*
X169839931Y-103070000D01*
X169835503Y-103042045D01*
X169840045Y-102984332D01*
X169870293Y-102934970D01*
X172338445Y-100466819D01*
X172378674Y-100439939D01*
X172426127Y-100430500D01*
X172798450Y-100430500D01*
X172854745Y-100444015D01*
X172898768Y-100481615D01*
X172920923Y-100535102D01*
X172916381Y-100592818D01*
X172886131Y-100642181D01*
X171859815Y-101668496D01*
X171828430Y-101691299D01*
X171791535Y-101703288D01*
X171773416Y-101706158D01*
X171763775Y-101707685D01*
X171755080Y-101712115D01*
X171755075Y-101712117D01*
X171672139Y-101754376D01*
X171672136Y-101754377D01*
X171663438Y-101758810D01*
X171656536Y-101765711D01*
X171656533Y-101765714D01*
X171590714Y-101831533D01*
X171590711Y-101831536D01*
X171583810Y-101838438D01*
X171579377Y-101847136D01*
X171579376Y-101847139D01*
X171537117Y-101930075D01*
X171537115Y-101930080D01*
X171532685Y-101938775D01*
X171531158Y-101948411D01*
X171531157Y-101948417D01*
X171522535Y-102002860D01*
X171515069Y-102050000D01*
X171516596Y-102059641D01*
X171531157Y-102151582D01*
X171531158Y-102151586D01*
X171532685Y-102161225D01*
X171537116Y-102169921D01*
X171537117Y-102169924D01*
X171562005Y-102218768D01*
X171583810Y-102261562D01*
X171663438Y-102341190D01*
X171763775Y-102392315D01*
X171875000Y-102409931D01*
X171986225Y-102392315D01*
X172086562Y-102341190D01*
X172166190Y-102261562D01*
X172217315Y-102161225D01*
X172221710Y-102133469D01*
X172233698Y-102096571D01*
X172256500Y-102065185D01*
X172567437Y-101754248D01*
X172616798Y-101724000D01*
X172674514Y-101719458D01*
X172728001Y-101741613D01*
X172765598Y-101785632D01*
X172778810Y-101811562D01*
X172858438Y-101891190D01*
X172958775Y-101942315D01*
X173070000Y-101959931D01*
X173181225Y-101942315D01*
X173281562Y-101891190D01*
X173361190Y-101811562D01*
X173367081Y-101800000D01*
X174715069Y-101800000D01*
X174716596Y-101809641D01*
X174731157Y-101901582D01*
X174731158Y-101901586D01*
X174732685Y-101911225D01*
X174737116Y-101919921D01*
X174737117Y-101919924D01*
X174756069Y-101957118D01*
X174783810Y-102011562D01*
X174863438Y-102091190D01*
X174963775Y-102142315D01*
X175075000Y-102159931D01*
X175186225Y-102142315D01*
X175286562Y-102091190D01*
X175366190Y-102011562D01*
X175417315Y-101911225D01*
X175434931Y-101800000D01*
X175417315Y-101688775D01*
X175366190Y-101588438D01*
X175286562Y-101508810D01*
X175241721Y-101485962D01*
X175194924Y-101462117D01*
X175194921Y-101462116D01*
X175186225Y-101457685D01*
X175176586Y-101456158D01*
X175176582Y-101456157D01*
X175084641Y-101441596D01*
X175075000Y-101440069D01*
X175065359Y-101441596D01*
X174973417Y-101456157D01*
X174973411Y-101456158D01*
X174963775Y-101457685D01*
X174955080Y-101462115D01*
X174955075Y-101462117D01*
X174872139Y-101504376D01*
X174872136Y-101504377D01*
X174863438Y-101508810D01*
X174856536Y-101515711D01*
X174856533Y-101515714D01*
X174790714Y-101581533D01*
X174790711Y-101581536D01*
X174783810Y-101588438D01*
X174779377Y-101597136D01*
X174779376Y-101597139D01*
X174737117Y-101680075D01*
X174737115Y-101680080D01*
X174732685Y-101688775D01*
X174731158Y-101698411D01*
X174731157Y-101698417D01*
X174720879Y-101763314D01*
X174715069Y-101800000D01*
X173367081Y-101800000D01*
X173412315Y-101711225D01*
X173429931Y-101600000D01*
X173412315Y-101488775D01*
X173361190Y-101388438D01*
X173281562Y-101308810D01*
X173255633Y-101295598D01*
X173211613Y-101258000D01*
X173189458Y-101204513D01*
X173194001Y-101146797D01*
X173224248Y-101097437D01*
X173329870Y-100991816D01*
X173370097Y-100964939D01*
X173417549Y-100955500D01*
X174827037Y-100955500D01*
X174829821Y-100955693D01*
X174835576Y-100957622D01*
X174874753Y-100955810D01*
X174878622Y-100955632D01*
X174884348Y-100955500D01*
X174895258Y-100955500D01*
X174900993Y-100955500D01*
X174906530Y-100954464D01*
X174911818Y-100954096D01*
X174940333Y-100952779D01*
X174950847Y-100948136D01*
X174958986Y-100946222D01*
X174966783Y-100943201D01*
X174978084Y-100941089D01*
X174998799Y-100928261D01*
X175013978Y-100920261D01*
X175036266Y-100910421D01*
X175044394Y-100902292D01*
X175051295Y-100897565D01*
X175057472Y-100891933D01*
X175067245Y-100885883D01*
X175081928Y-100866437D01*
X175093195Y-100853490D01*
X175839436Y-100107249D01*
X175841530Y-100105427D01*
X175846967Y-100102721D01*
X175876018Y-100070852D01*
X175879911Y-100066774D01*
X175891723Y-100054964D01*
X175894911Y-100050308D01*
X175898361Y-100046343D01*
X175917617Y-100025222D01*
X175921769Y-100014500D01*
X175926172Y-100007391D01*
X175929548Y-99999745D01*
X175936045Y-99990262D01*
X175941623Y-99966539D01*
X175946703Y-99950140D01*
X175948978Y-99944268D01*
X175955500Y-99927435D01*
X175955500Y-99915942D01*
X175957037Y-99907722D01*
X175957423Y-99899367D01*
X175960055Y-99888179D01*
X175956689Y-99864050D01*
X175955500Y-99846918D01*
X175955500Y-98544558D01*
X175970527Y-98485390D01*
X176003241Y-98450000D01*
X175970527Y-98414610D01*
X175955500Y-98355442D01*
X175955500Y-97547963D01*
X175955693Y-97545178D01*
X175957622Y-97539424D01*
X175955632Y-97496378D01*
X175955500Y-97490652D01*
X175955500Y-97479742D01*
X175955500Y-97474007D01*
X175954464Y-97468470D01*
X175954096Y-97463159D01*
X175953824Y-97457271D01*
X175952779Y-97434667D01*
X175948138Y-97424157D01*
X175946223Y-97416012D01*
X175943200Y-97408210D01*
X175941089Y-97396916D01*
X175939964Y-97395100D01*
X175933323Y-97343116D01*
X175954196Y-97287329D01*
X175998676Y-97247710D01*
X176050393Y-97234914D01*
X176050500Y-97234931D01*
X176078453Y-97230503D01*
X176136165Y-97235044D01*
X176185530Y-97265295D01*
X176855263Y-97935028D01*
X176888596Y-97995659D01*
X176884251Y-98064713D01*
X176843582Y-98120688D01*
X176779251Y-98146159D01*
X176711289Y-98133194D01*
X176661225Y-98107685D01*
X176651586Y-98106158D01*
X176651582Y-98106157D01*
X176559641Y-98091596D01*
X176550000Y-98090069D01*
X176540359Y-98091596D01*
X176448417Y-98106157D01*
X176448411Y-98106158D01*
X176438775Y-98107685D01*
X176430080Y-98112115D01*
X176430075Y-98112117D01*
X176347139Y-98154376D01*
X176347136Y-98154377D01*
X176338438Y-98158810D01*
X176331536Y-98165711D01*
X176331533Y-98165714D01*
X176265714Y-98231533D01*
X176265711Y-98231536D01*
X176258810Y-98238438D01*
X176254377Y-98247136D01*
X176254376Y-98247139D01*
X176212117Y-98330075D01*
X176212116Y-98330078D01*
X176207685Y-98338775D01*
X176206158Y-98348413D01*
X176206157Y-98348418D01*
X176201973Y-98374839D01*
X176177876Y-98430928D01*
X176153684Y-98450000D01*
X176177876Y-98469072D01*
X176201973Y-98525161D01*
X176206157Y-98551581D01*
X176206158Y-98551584D01*
X176207685Y-98561225D01*
X176258810Y-98661562D01*
X176338438Y-98741190D01*
X176438775Y-98792315D01*
X176550000Y-98809931D01*
X176661225Y-98792315D01*
X176761562Y-98741190D01*
X176841190Y-98661562D01*
X176892315Y-98561225D01*
X176909931Y-98450000D01*
X176892315Y-98338775D01*
X176866805Y-98288710D01*
X176853840Y-98220749D01*
X176879310Y-98156417D01*
X176935286Y-98115748D01*
X177004340Y-98111403D01*
X177064971Y-98144736D01*
X177678297Y-98758062D01*
X177692662Y-98775297D01*
X177702224Y-98789150D01*
X177733493Y-98805561D01*
X177739991Y-98809226D01*
X177770194Y-98827484D01*
X177775924Y-98827830D01*
X177781011Y-98830500D01*
X177816308Y-98830500D01*
X177823794Y-98830726D01*
X177859010Y-98832856D01*
X177859002Y-98832976D01*
X177864245Y-98833175D01*
X177864245Y-98830500D01*
X178676386Y-98830500D01*
X178723839Y-98839939D01*
X178764067Y-98866818D01*
X178838438Y-98941190D01*
X178938775Y-98992315D01*
X179050000Y-99009931D01*
X179141379Y-98995458D01*
X179202779Y-99001262D01*
X179253789Y-99035928D01*
X179281789Y-99090880D01*
X179279853Y-99152524D01*
X179248459Y-99205610D01*
X179213970Y-99240100D01*
X179209537Y-99248798D01*
X179209536Y-99248801D01*
X179167277Y-99331737D01*
X179167275Y-99331742D01*
X179162845Y-99340437D01*
X179161318Y-99350073D01*
X179161317Y-99350079D01*
X179153864Y-99397139D01*
X179145229Y-99451662D01*
X179146756Y-99461303D01*
X179161317Y-99553244D01*
X179161318Y-99553248D01*
X179162845Y-99562887D01*
X179167276Y-99571583D01*
X179167277Y-99571586D01*
X179209536Y-99654522D01*
X179213970Y-99663224D01*
X179293598Y-99742852D01*
X179393935Y-99793977D01*
X179505160Y-99811593D01*
X179521004Y-99809083D01*
X179589823Y-99817827D01*
X179643176Y-99862170D01*
X179664361Y-99928231D01*
X179646747Y-99995332D01*
X179545077Y-100164856D01*
X179497971Y-100210016D01*
X179434459Y-100225005D01*
X179372132Y-100205673D01*
X179328254Y-100157378D01*
X179294489Y-100091110D01*
X179214861Y-100011482D01*
X179186712Y-99997139D01*
X179123223Y-99964789D01*
X179123220Y-99964788D01*
X179114524Y-99960357D01*
X179104885Y-99958830D01*
X179104881Y-99958829D01*
X179012940Y-99944268D01*
X179003299Y-99942741D01*
X178993658Y-99944268D01*
X178901716Y-99958829D01*
X178901710Y-99958830D01*
X178892074Y-99960357D01*
X178883379Y-99964787D01*
X178883374Y-99964789D01*
X178800438Y-100007048D01*
X178800435Y-100007049D01*
X178791737Y-100011482D01*
X178784835Y-100018383D01*
X178784832Y-100018386D01*
X178719013Y-100084205D01*
X178719010Y-100084208D01*
X178712109Y-100091110D01*
X178707676Y-100099808D01*
X178707675Y-100099811D01*
X178665416Y-100182747D01*
X178665414Y-100182752D01*
X178660984Y-100191447D01*
X178659457Y-100201083D01*
X178659456Y-100201089D01*
X178646947Y-100280075D01*
X178643368Y-100302672D01*
X178644895Y-100312313D01*
X178659456Y-100404254D01*
X178659457Y-100404258D01*
X178660984Y-100413897D01*
X178665415Y-100422593D01*
X178665416Y-100422596D01*
X178696849Y-100484285D01*
X178712109Y-100514234D01*
X178791737Y-100593862D01*
X178892074Y-100644987D01*
X179003299Y-100662603D01*
X179002919Y-100664998D01*
X179052947Y-100678935D01*
X179098590Y-100727368D01*
X179112619Y-100792424D01*
X179090993Y-100855361D01*
X179053111Y-100910421D01*
X179051228Y-100913158D01*
X179046645Y-100919393D01*
X178666674Y-101403891D01*
X178661710Y-101409829D01*
X178290813Y-101826377D01*
X178232359Y-101863120D01*
X178163316Y-101862908D01*
X178105089Y-101825805D01*
X178075731Y-101763317D01*
X178071194Y-101734668D01*
X178020069Y-101634331D01*
X177940441Y-101554703D01*
X177931739Y-101550269D01*
X177848803Y-101508010D01*
X177848800Y-101508009D01*
X177840104Y-101503578D01*
X177830465Y-101502051D01*
X177830461Y-101502050D01*
X177738520Y-101487489D01*
X177728879Y-101485962D01*
X177719238Y-101487489D01*
X177627296Y-101502050D01*
X177627290Y-101502051D01*
X177617654Y-101503578D01*
X177608959Y-101508008D01*
X177608954Y-101508010D01*
X177526018Y-101550269D01*
X177526015Y-101550270D01*
X177517317Y-101554703D01*
X177510415Y-101561604D01*
X177510412Y-101561607D01*
X177444593Y-101627426D01*
X177444590Y-101627429D01*
X177437689Y-101634331D01*
X177433256Y-101643029D01*
X177433255Y-101643032D01*
X177390996Y-101725968D01*
X177390994Y-101725973D01*
X177386564Y-101734668D01*
X177385037Y-101744304D01*
X177385036Y-101744310D01*
X177374385Y-101811562D01*
X177368948Y-101845893D01*
X177370475Y-101855534D01*
X177385036Y-101947475D01*
X177385037Y-101947479D01*
X177386564Y-101957118D01*
X177437689Y-102057455D01*
X177517317Y-102137083D01*
X177617654Y-102188208D01*
X177635479Y-102191031D01*
X177698179Y-102220572D01*
X177735230Y-102279151D01*
X177735054Y-102348464D01*
X177697704Y-102406853D01*
X177532877Y-102550970D01*
X177474117Y-102579496D01*
X177409013Y-102574204D01*
X177355632Y-102536563D01*
X177328785Y-102477022D01*
X177317088Y-102403167D01*
X177265963Y-102302830D01*
X177186335Y-102223202D01*
X177177633Y-102218768D01*
X177094697Y-102176509D01*
X177094694Y-102176508D01*
X177085998Y-102172077D01*
X177076359Y-102170550D01*
X177076355Y-102170549D01*
X176984414Y-102155988D01*
X176974773Y-102154461D01*
X176965132Y-102155988D01*
X176873190Y-102170549D01*
X176873184Y-102170550D01*
X176863548Y-102172077D01*
X176854853Y-102176507D01*
X176854848Y-102176509D01*
X176771912Y-102218768D01*
X176771909Y-102218769D01*
X176763211Y-102223202D01*
X176756309Y-102230103D01*
X176756306Y-102230106D01*
X176690487Y-102295925D01*
X176690484Y-102295928D01*
X176683583Y-102302830D01*
X176679150Y-102311528D01*
X176679149Y-102311531D01*
X176636890Y-102394467D01*
X176636888Y-102394472D01*
X176632458Y-102403167D01*
X176630931Y-102412803D01*
X176630930Y-102412809D01*
X176617035Y-102500540D01*
X176614842Y-102514392D01*
X176616369Y-102524033D01*
X176630930Y-102615974D01*
X176630931Y-102615978D01*
X176632458Y-102625617D01*
X176636889Y-102634313D01*
X176636890Y-102634316D01*
X176675430Y-102709953D01*
X176683583Y-102725954D01*
X176763211Y-102805582D01*
X176853394Y-102851533D01*
X176863548Y-102856707D01*
X176862585Y-102858596D01*
X176906739Y-102887879D01*
X176935201Y-102947968D01*
X176928531Y-103014122D01*
X176888646Y-103067320D01*
X176872641Y-103079641D01*
X176846535Y-103099737D01*
X176840258Y-103104263D01*
X176329891Y-103448665D01*
X176323345Y-103452792D01*
X175792461Y-103764703D01*
X175785669Y-103768413D01*
X175319576Y-104004456D01*
X175253596Y-104017433D01*
X175190544Y-103994061D01*
X175148963Y-103941215D01*
X175141080Y-103874437D01*
X175154686Y-103788534D01*
X175137070Y-103677309D01*
X175085945Y-103576972D01*
X175006317Y-103497344D01*
X174931810Y-103459380D01*
X174914679Y-103450651D01*
X174914676Y-103450650D01*
X174905980Y-103446219D01*
X174896341Y-103444692D01*
X174896337Y-103444691D01*
X174804396Y-103430130D01*
X174794755Y-103428603D01*
X174785114Y-103430130D01*
X174693172Y-103444691D01*
X174693166Y-103444692D01*
X174683530Y-103446219D01*
X174674835Y-103450649D01*
X174674830Y-103450651D01*
X174591894Y-103492910D01*
X174591891Y-103492911D01*
X174583193Y-103497344D01*
X174576291Y-103504245D01*
X174576288Y-103504248D01*
X174510469Y-103570067D01*
X174510466Y-103570070D01*
X174503565Y-103576972D01*
X174499132Y-103585670D01*
X174499131Y-103585673D01*
X174456872Y-103668609D01*
X174456870Y-103668614D01*
X174452440Y-103677309D01*
X174450913Y-103686945D01*
X174450912Y-103686951D01*
X174439598Y-103758392D01*
X174434824Y-103788534D01*
X174436351Y-103798174D01*
X174436351Y-103798175D01*
X174450912Y-103890116D01*
X174450913Y-103890120D01*
X174452440Y-103899759D01*
X174503565Y-104000096D01*
X174583193Y-104079724D01*
X174606943Y-104091825D01*
X174650528Y-104128825D01*
X174672880Y-104181451D01*
X174669244Y-104238512D01*
X174640392Y-104287875D01*
X174592459Y-104319046D01*
X174338712Y-104409931D01*
X174280422Y-104416093D01*
X174225814Y-104394794D01*
X174187090Y-104350793D01*
X174172902Y-104293921D01*
X174183814Y-104247881D01*
X174182715Y-104247524D01*
X174185728Y-104238248D01*
X174190162Y-104229548D01*
X174207778Y-104118323D01*
X174190162Y-104007098D01*
X174139037Y-103906761D01*
X174059409Y-103827133D01*
X174002575Y-103798174D01*
X173967771Y-103780440D01*
X173967768Y-103780439D01*
X173959072Y-103776008D01*
X173949433Y-103774481D01*
X173949429Y-103774480D01*
X173857488Y-103759919D01*
X173847847Y-103758392D01*
X173838206Y-103759919D01*
X173746264Y-103774480D01*
X173746258Y-103774481D01*
X173736622Y-103776008D01*
X173727927Y-103780438D01*
X173727922Y-103780440D01*
X173644986Y-103822699D01*
X173644983Y-103822700D01*
X173636285Y-103827133D01*
X173629383Y-103834034D01*
X173629380Y-103834037D01*
X173563561Y-103899856D01*
X173563558Y-103899859D01*
X173556657Y-103906761D01*
X173552224Y-103915459D01*
X173552223Y-103915462D01*
X173509964Y-103998398D01*
X173509962Y-103998403D01*
X173505532Y-104007098D01*
X173504005Y-104016734D01*
X173504004Y-104016740D01*
X173499000Y-104048338D01*
X173487916Y-104118323D01*
X173489443Y-104127964D01*
X173504004Y-104219905D01*
X173504005Y-104219909D01*
X173505532Y-104229548D01*
X173509963Y-104238244D01*
X173509964Y-104238247D01*
X173538332Y-104293921D01*
X173556657Y-104329885D01*
X173636285Y-104409513D01*
X173644985Y-104413946D01*
X173651475Y-104418661D01*
X173693535Y-104472462D01*
X173700732Y-104540373D01*
X173670882Y-104601795D01*
X173613040Y-104638099D01*
X173478102Y-104677123D01*
X173470604Y-104679040D01*
X172869600Y-104812864D01*
X172861997Y-104814309D01*
X172253842Y-104910377D01*
X172246164Y-104911346D01*
X171633164Y-104969293D01*
X171625440Y-104969780D01*
X171547867Y-104972250D01*
X171490457Y-104960195D01*
X171445013Y-104923100D01*
X171421704Y-104869267D01*
X171425749Y-104810745D01*
X171456237Y-104760635D01*
X171488550Y-104728323D01*
X171539675Y-104627986D01*
X171557291Y-104516761D01*
X171539675Y-104405536D01*
X171488550Y-104305199D01*
X171408922Y-104225571D01*
X171358272Y-104199763D01*
X171317284Y-104178878D01*
X171317281Y-104178877D01*
X171308585Y-104174446D01*
X171298946Y-104172919D01*
X171298942Y-104172918D01*
X171207001Y-104158357D01*
X171197360Y-104156830D01*
X171187719Y-104158357D01*
X171095777Y-104172918D01*
X171095771Y-104172919D01*
X171086135Y-104174446D01*
X171077440Y-104178876D01*
X171077435Y-104178878D01*
X170994499Y-104221137D01*
X170994496Y-104221138D01*
X170985798Y-104225571D01*
X170978896Y-104232472D01*
X170978893Y-104232475D01*
X170913074Y-104298294D01*
X170913071Y-104298297D01*
X170906170Y-104305199D01*
X170901737Y-104313897D01*
X170901736Y-104313900D01*
X170859477Y-104396836D01*
X170859475Y-104396841D01*
X170855045Y-104405536D01*
X170853518Y-104415172D01*
X170853517Y-104415178D01*
X170844445Y-104472462D01*
X170837429Y-104516761D01*
X170838956Y-104526402D01*
X170853517Y-104618343D01*
X170853518Y-104618347D01*
X170855045Y-104627986D01*
X170859476Y-104636682D01*
X170859477Y-104636685D01*
X170881639Y-104680179D01*
X170906170Y-104728323D01*
X170913074Y-104735227D01*
X170951241Y-104773394D01*
X170981723Y-104823479D01*
X170985787Y-104881970D01*
X170962523Y-104935789D01*
X170917134Y-104972904D01*
X170859767Y-104985017D01*
X170386881Y-104970546D01*
X170379157Y-104970068D01*
X169766104Y-104912881D01*
X169758425Y-104911922D01*
X169150133Y-104816603D01*
X169142528Y-104815167D01*
X168541362Y-104682087D01*
X168533862Y-104680179D01*
X167942179Y-104509860D01*
X167934812Y-104507488D01*
X167354911Y-104300592D01*
X167347707Y-104297766D01*
X166781818Y-104055089D01*
X166774804Y-104051818D01*
X166225169Y-103774321D01*
X166218373Y-103770619D01*
X165751929Y-103497344D01*
X165687122Y-103459376D01*
X165680584Y-103455266D01*
X165169764Y-103111478D01*
X165163481Y-103106958D01*
X164839810Y-102858438D01*
X164675122Y-102731987D01*
X164669135Y-102727086D01*
X164205117Y-102322381D01*
X164199446Y-102317115D01*
X163761567Y-101884242D01*
X163756236Y-101878632D01*
X163346226Y-101419303D01*
X163341255Y-101413372D01*
X163110589Y-101120000D01*
X165460069Y-101120000D01*
X165461596Y-101129641D01*
X165476157Y-101221582D01*
X165476158Y-101221586D01*
X165477685Y-101231225D01*
X165482116Y-101239921D01*
X165482117Y-101239924D01*
X165510486Y-101295600D01*
X165528810Y-101331562D01*
X165608438Y-101411190D01*
X165708775Y-101462315D01*
X165820000Y-101479931D01*
X165931225Y-101462315D01*
X166031562Y-101411190D01*
X166111190Y-101331562D01*
X166162315Y-101231225D01*
X166179931Y-101120000D01*
X166162315Y-101008775D01*
X166111190Y-100908438D01*
X166031562Y-100828810D01*
X166022860Y-100824376D01*
X165939924Y-100782117D01*
X165939921Y-100782116D01*
X165931225Y-100777685D01*
X165921586Y-100776158D01*
X165921582Y-100776157D01*
X165829641Y-100761596D01*
X165820000Y-100760069D01*
X165810359Y-100761596D01*
X165718417Y-100776157D01*
X165718411Y-100776158D01*
X165708775Y-100777685D01*
X165700080Y-100782115D01*
X165700075Y-100782117D01*
X165617139Y-100824376D01*
X165617136Y-100824377D01*
X165608438Y-100828810D01*
X165601536Y-100835711D01*
X165601533Y-100835714D01*
X165535714Y-100901533D01*
X165535711Y-100901536D01*
X165528810Y-100908438D01*
X165524377Y-100917136D01*
X165524376Y-100917139D01*
X165482117Y-101000075D01*
X165482115Y-101000080D01*
X165477685Y-101008775D01*
X165476158Y-101018411D01*
X165476157Y-101018417D01*
X165463643Y-101097434D01*
X165460069Y-101120000D01*
X163110589Y-101120000D01*
X162960686Y-100929346D01*
X162956095Y-100923115D01*
X162606459Y-100416287D01*
X162602266Y-100409783D01*
X162476098Y-100200000D01*
X164570069Y-100200000D01*
X164571596Y-100209641D01*
X164586157Y-100301582D01*
X164586158Y-100301586D01*
X164587685Y-100311225D01*
X164592116Y-100319921D01*
X164592117Y-100319924D01*
X164632919Y-100400000D01*
X164638810Y-100411562D01*
X164718438Y-100491190D01*
X164818775Y-100542315D01*
X164930000Y-100559931D01*
X165041225Y-100542315D01*
X165141562Y-100491190D01*
X165221190Y-100411562D01*
X165272315Y-100311225D01*
X165289931Y-100200000D01*
X165272315Y-100088775D01*
X165221190Y-99988438D01*
X165141562Y-99908810D01*
X165118657Y-99897139D01*
X165049924Y-99862117D01*
X165049921Y-99862116D01*
X165041225Y-99857685D01*
X165031586Y-99856158D01*
X165031582Y-99856157D01*
X164939641Y-99841596D01*
X164930000Y-99840069D01*
X164920359Y-99841596D01*
X164828417Y-99856157D01*
X164828411Y-99856158D01*
X164818775Y-99857685D01*
X164810080Y-99862115D01*
X164810075Y-99862117D01*
X164727139Y-99904376D01*
X164727136Y-99904377D01*
X164718438Y-99908810D01*
X164711536Y-99915711D01*
X164711533Y-99915714D01*
X164645714Y-99981533D01*
X164645711Y-99981536D01*
X164638810Y-99988438D01*
X164634377Y-99997136D01*
X164634376Y-99997139D01*
X164592117Y-100080075D01*
X164592115Y-100080080D01*
X164587685Y-100088775D01*
X164586158Y-100098411D01*
X164586157Y-100098417D01*
X164575635Y-100164856D01*
X164570069Y-100200000D01*
X162476098Y-100200000D01*
X162284943Y-99882161D01*
X162281163Y-99875408D01*
X161997360Y-99328993D01*
X161994009Y-99322017D01*
X161986202Y-99304376D01*
X161776707Y-98830966D01*
X161744852Y-98758982D01*
X161741942Y-98751811D01*
X161674682Y-98569924D01*
X161667314Y-98550000D01*
X169340069Y-98550000D01*
X169341596Y-98559641D01*
X169356157Y-98651582D01*
X169356158Y-98651586D01*
X169357685Y-98661225D01*
X169362116Y-98669921D01*
X169362117Y-98669924D01*
X169404376Y-98752860D01*
X169408810Y-98761562D01*
X169488438Y-98841190D01*
X169588775Y-98892315D01*
X169700000Y-98909931D01*
X169811225Y-98892315D01*
X169911562Y-98841190D01*
X169991190Y-98761562D01*
X170042315Y-98661225D01*
X170050032Y-98612500D01*
X174002569Y-98612500D01*
X174004096Y-98622141D01*
X174018657Y-98714082D01*
X174018658Y-98714086D01*
X174020185Y-98723725D01*
X174024616Y-98732421D01*
X174024617Y-98732424D01*
X174049125Y-98780523D01*
X174071310Y-98824062D01*
X174150938Y-98903690D01*
X174251275Y-98954815D01*
X174362500Y-98972431D01*
X174473725Y-98954815D01*
X174574062Y-98903690D01*
X174653690Y-98824062D01*
X174704815Y-98723725D01*
X174722431Y-98612500D01*
X174704815Y-98501275D01*
X174653690Y-98400938D01*
X174574062Y-98321310D01*
X174544323Y-98306157D01*
X174482424Y-98274617D01*
X174482421Y-98274616D01*
X174473725Y-98270185D01*
X174464086Y-98268658D01*
X174464082Y-98268657D01*
X174372141Y-98254096D01*
X174362500Y-98252569D01*
X174352859Y-98254096D01*
X174260917Y-98268657D01*
X174260911Y-98268658D01*
X174251275Y-98270185D01*
X174242580Y-98274615D01*
X174242575Y-98274617D01*
X174159639Y-98316876D01*
X174159636Y-98316877D01*
X174150938Y-98321310D01*
X174144036Y-98328211D01*
X174144033Y-98328214D01*
X174078214Y-98394033D01*
X174078211Y-98394036D01*
X174071310Y-98400938D01*
X174066877Y-98409636D01*
X174066876Y-98409639D01*
X174024617Y-98492575D01*
X174024615Y-98492580D01*
X174020185Y-98501275D01*
X174018658Y-98510911D01*
X174018657Y-98510917D01*
X174012217Y-98551581D01*
X174002569Y-98612500D01*
X170050032Y-98612500D01*
X170059931Y-98550000D01*
X170042315Y-98438775D01*
X169991190Y-98338438D01*
X169911562Y-98258810D01*
X169878120Y-98241770D01*
X169819924Y-98212117D01*
X169819921Y-98212116D01*
X169811225Y-98207685D01*
X169801586Y-98206158D01*
X169801582Y-98206157D01*
X169709641Y-98191596D01*
X169700000Y-98190069D01*
X169690359Y-98191596D01*
X169598417Y-98206157D01*
X169598411Y-98206158D01*
X169588775Y-98207685D01*
X169580080Y-98212115D01*
X169580075Y-98212117D01*
X169497139Y-98254376D01*
X169497136Y-98254377D01*
X169488438Y-98258810D01*
X169481536Y-98265711D01*
X169481533Y-98265714D01*
X169415714Y-98331533D01*
X169415711Y-98331536D01*
X169408810Y-98338438D01*
X169404377Y-98347136D01*
X169404376Y-98347139D01*
X169362117Y-98430075D01*
X169362115Y-98430080D01*
X169357685Y-98438775D01*
X169356158Y-98448411D01*
X169356157Y-98448417D01*
X169351461Y-98478070D01*
X169340069Y-98550000D01*
X161667314Y-98550000D01*
X161530491Y-98180000D01*
X162400069Y-98180000D01*
X162401596Y-98189641D01*
X162416157Y-98281582D01*
X162416158Y-98281586D01*
X162417685Y-98291225D01*
X162422116Y-98299921D01*
X162422117Y-98299924D01*
X162460289Y-98374839D01*
X162468810Y-98391562D01*
X162548438Y-98471190D01*
X162648775Y-98522315D01*
X162760000Y-98539931D01*
X162871225Y-98522315D01*
X162971562Y-98471190D01*
X163051190Y-98391562D01*
X163102315Y-98291225D01*
X163119931Y-98180000D01*
X163113626Y-98140188D01*
X164499881Y-98140188D01*
X164501408Y-98149829D01*
X164515969Y-98241770D01*
X164515970Y-98241774D01*
X164517497Y-98251413D01*
X164521928Y-98260109D01*
X164521929Y-98260112D01*
X164553112Y-98321310D01*
X164568622Y-98351750D01*
X164648250Y-98431378D01*
X164748587Y-98482503D01*
X164859812Y-98500119D01*
X164971037Y-98482503D01*
X165071374Y-98431378D01*
X165151002Y-98351750D01*
X165202127Y-98251413D01*
X165219743Y-98140188D01*
X165202127Y-98028963D01*
X165151002Y-97928626D01*
X165071374Y-97848998D01*
X165058258Y-97842315D01*
X164979736Y-97802305D01*
X164979733Y-97802304D01*
X164971037Y-97797873D01*
X164961398Y-97796346D01*
X164961394Y-97796345D01*
X164869453Y-97781784D01*
X164859812Y-97780257D01*
X164850171Y-97781784D01*
X164758229Y-97796345D01*
X164758223Y-97796346D01*
X164748587Y-97797873D01*
X164739892Y-97802303D01*
X164739887Y-97802305D01*
X164656951Y-97844564D01*
X164656948Y-97844565D01*
X164648250Y-97848998D01*
X164641348Y-97855899D01*
X164641345Y-97855902D01*
X164575526Y-97921721D01*
X164575523Y-97921724D01*
X164568622Y-97928626D01*
X164564189Y-97937324D01*
X164564188Y-97937327D01*
X164521929Y-98020263D01*
X164521927Y-98020268D01*
X164517497Y-98028963D01*
X164515970Y-98038599D01*
X164515969Y-98038605D01*
X164509664Y-98078417D01*
X164499881Y-98140188D01*
X163113626Y-98140188D01*
X163102315Y-98068775D01*
X163051190Y-97968438D01*
X163035884Y-97953132D01*
X163004489Y-97900046D01*
X163002551Y-97838401D01*
X163030551Y-97783448D01*
X163081562Y-97748782D01*
X163142961Y-97742978D01*
X163250000Y-97759931D01*
X163361225Y-97742315D01*
X163461562Y-97691190D01*
X163541190Y-97611562D01*
X163592315Y-97511225D01*
X163594093Y-97500000D01*
X170465069Y-97500000D01*
X170466596Y-97509641D01*
X170481157Y-97601582D01*
X170481158Y-97601586D01*
X170482685Y-97611225D01*
X170487116Y-97619921D01*
X170487117Y-97619924D01*
X170529376Y-97702860D01*
X170533810Y-97711562D01*
X170613438Y-97791190D01*
X170713775Y-97842315D01*
X170825000Y-97859931D01*
X170936225Y-97842315D01*
X171036562Y-97791190D01*
X171116190Y-97711562D01*
X171167315Y-97611225D01*
X171184931Y-97500000D01*
X171176446Y-97446428D01*
X171182249Y-97385030D01*
X171216916Y-97334020D01*
X171271869Y-97306019D01*
X171333514Y-97307957D01*
X171386600Y-97339352D01*
X171413438Y-97366190D01*
X171513775Y-97417315D01*
X171625000Y-97434931D01*
X171736225Y-97417315D01*
X171836562Y-97366190D01*
X171916190Y-97286562D01*
X171967315Y-97186225D01*
X171984931Y-97075000D01*
X171967315Y-96963775D01*
X171916190Y-96863438D01*
X171836562Y-96783810D01*
X171824541Y-96777685D01*
X171744924Y-96737117D01*
X171744921Y-96737116D01*
X171736225Y-96732685D01*
X171726586Y-96731158D01*
X171726582Y-96731157D01*
X171634641Y-96716596D01*
X171625000Y-96715069D01*
X171615359Y-96716596D01*
X171523417Y-96731157D01*
X171523411Y-96731158D01*
X171513775Y-96732685D01*
X171505080Y-96737115D01*
X171505075Y-96737117D01*
X171422139Y-96779376D01*
X171422136Y-96779377D01*
X171413438Y-96783810D01*
X171406536Y-96790711D01*
X171406533Y-96790714D01*
X171340714Y-96856533D01*
X171340711Y-96856536D01*
X171333810Y-96863438D01*
X171329377Y-96872136D01*
X171329376Y-96872139D01*
X171287117Y-96955075D01*
X171287115Y-96955080D01*
X171282685Y-96963775D01*
X171281158Y-96973411D01*
X171281157Y-96973417D01*
X171267456Y-97059931D01*
X171265069Y-97075000D01*
X171266596Y-97084641D01*
X171266596Y-97084642D01*
X171273553Y-97128569D01*
X171267749Y-97189970D01*
X171233082Y-97240980D01*
X171178129Y-97268980D01*
X171116485Y-97267042D01*
X171063399Y-97235647D01*
X171043466Y-97215714D01*
X171036562Y-97208810D01*
X170999587Y-97189970D01*
X170944924Y-97162117D01*
X170944921Y-97162116D01*
X170936225Y-97157685D01*
X170926586Y-97156158D01*
X170926582Y-97156157D01*
X170834641Y-97141596D01*
X170825000Y-97140069D01*
X170815359Y-97141596D01*
X170723417Y-97156157D01*
X170723411Y-97156158D01*
X170713775Y-97157685D01*
X170705080Y-97162115D01*
X170705075Y-97162117D01*
X170622139Y-97204376D01*
X170622136Y-97204377D01*
X170613438Y-97208810D01*
X170606536Y-97215711D01*
X170606533Y-97215714D01*
X170540714Y-97281533D01*
X170540711Y-97281536D01*
X170533810Y-97288438D01*
X170529377Y-97297136D01*
X170529376Y-97297139D01*
X170487117Y-97380075D01*
X170487115Y-97380080D01*
X170482685Y-97388775D01*
X170481158Y-97398411D01*
X170481157Y-97398417D01*
X170467262Y-97486148D01*
X170465069Y-97500000D01*
X163594093Y-97500000D01*
X163609931Y-97400000D01*
X163592315Y-97288775D01*
X163541190Y-97188438D01*
X163461562Y-97108810D01*
X163452603Y-97104245D01*
X163369924Y-97062117D01*
X163369921Y-97062116D01*
X163361225Y-97057685D01*
X163351586Y-97056158D01*
X163351582Y-97056157D01*
X163259641Y-97041596D01*
X163250000Y-97040069D01*
X163240359Y-97041596D01*
X163148417Y-97056157D01*
X163148411Y-97056158D01*
X163138775Y-97057685D01*
X163130080Y-97062115D01*
X163130075Y-97062117D01*
X163047139Y-97104376D01*
X163047136Y-97104377D01*
X163038438Y-97108810D01*
X163031536Y-97115711D01*
X163031533Y-97115714D01*
X162965714Y-97181533D01*
X162965711Y-97181536D01*
X162958810Y-97188438D01*
X162954377Y-97197136D01*
X162954376Y-97197139D01*
X162912117Y-97280075D01*
X162912115Y-97280080D01*
X162907685Y-97288775D01*
X162906158Y-97298411D01*
X162906157Y-97298417D01*
X162895424Y-97366190D01*
X162890069Y-97400000D01*
X162891596Y-97409641D01*
X162906157Y-97501582D01*
X162906158Y-97501586D01*
X162907685Y-97511225D01*
X162958810Y-97611562D01*
X162965714Y-97618465D01*
X162965714Y-97618466D01*
X162974115Y-97626867D01*
X163005510Y-97679953D01*
X163007448Y-97741597D01*
X162979448Y-97796550D01*
X162928438Y-97831217D01*
X162867038Y-97837021D01*
X162760000Y-97820069D01*
X162750359Y-97821596D01*
X162658417Y-97836157D01*
X162658411Y-97836158D01*
X162648775Y-97837685D01*
X162640080Y-97842115D01*
X162640075Y-97842117D01*
X162557139Y-97884376D01*
X162557136Y-97884377D01*
X162548438Y-97888810D01*
X162541536Y-97895711D01*
X162541533Y-97895714D01*
X162475714Y-97961533D01*
X162475711Y-97961536D01*
X162468810Y-97968438D01*
X162464377Y-97977136D01*
X162464376Y-97977139D01*
X162422117Y-98060075D01*
X162422115Y-98060080D01*
X162417685Y-98068775D01*
X162416158Y-98078411D01*
X162416157Y-98078417D01*
X162403912Y-98155737D01*
X162400069Y-98180000D01*
X161530491Y-98180000D01*
X161528378Y-98174286D01*
X161525927Y-98166962D01*
X161359746Y-97613673D01*
X161358435Y-97547038D01*
X161391813Y-97489348D01*
X161450236Y-97457271D01*
X161514160Y-97459963D01*
X161518775Y-97462315D01*
X161630000Y-97479931D01*
X161741225Y-97462315D01*
X161841562Y-97411190D01*
X161921190Y-97331562D01*
X161972315Y-97231225D01*
X161989931Y-97120000D01*
X161972315Y-97008775D01*
X161921190Y-96908438D01*
X161841562Y-96828810D01*
X161832860Y-96824376D01*
X161749924Y-96782117D01*
X161749921Y-96782116D01*
X161741225Y-96777685D01*
X161731586Y-96776158D01*
X161731582Y-96776157D01*
X161639641Y-96761596D01*
X161630000Y-96760069D01*
X161620359Y-96761596D01*
X161528417Y-96776157D01*
X161528411Y-96776158D01*
X161518775Y-96777685D01*
X161510080Y-96782115D01*
X161510075Y-96782117D01*
X161427139Y-96824376D01*
X161427136Y-96824377D01*
X161418438Y-96828810D01*
X161411535Y-96835712D01*
X161411536Y-96835712D01*
X161386760Y-96860488D01*
X161328323Y-96893308D01*
X161261343Y-96890923D01*
X161205387Y-96854031D01*
X161176804Y-96793409D01*
X161158844Y-96686823D01*
X161103004Y-96355437D01*
X161102117Y-96348941D01*
X161961068Y-96348941D01*
X161962595Y-96358582D01*
X161977156Y-96450523D01*
X161977157Y-96450527D01*
X161978684Y-96460166D01*
X161983115Y-96468862D01*
X161983116Y-96468865D01*
X162005828Y-96513438D01*
X162029809Y-96560503D01*
X162109437Y-96640131D01*
X162209774Y-96691256D01*
X162320999Y-96708872D01*
X162432224Y-96691256D01*
X162532561Y-96640131D01*
X162612189Y-96560503D01*
X162663314Y-96460166D01*
X162664841Y-96450520D01*
X162666933Y-96444085D01*
X162692714Y-96399431D01*
X162734429Y-96369124D01*
X162784864Y-96358404D01*
X162790359Y-96358404D01*
X162800000Y-96359931D01*
X162911225Y-96342315D01*
X163011562Y-96291190D01*
X163091190Y-96211562D01*
X163142315Y-96111225D01*
X163159931Y-96000000D01*
X163142315Y-95888775D01*
X163091190Y-95788438D01*
X163011562Y-95708810D01*
X163002860Y-95704376D01*
X162919924Y-95662117D01*
X162919921Y-95662116D01*
X162911225Y-95657685D01*
X162901584Y-95656158D01*
X162901581Y-95656157D01*
X162803104Y-95640560D01*
X162754966Y-95622082D01*
X162718506Y-95585621D01*
X162700030Y-95537489D01*
X162693682Y-95497407D01*
X162696381Y-95445923D01*
X162719790Y-95399981D01*
X162759856Y-95367535D01*
X162811562Y-95341190D01*
X162891190Y-95261562D01*
X162942315Y-95161225D01*
X162959931Y-95050000D01*
X162942315Y-94938775D01*
X162891190Y-94838438D01*
X162884284Y-94831532D01*
X162878552Y-94823642D01*
X162881211Y-94821709D01*
X162858339Y-94782094D01*
X162858339Y-94717906D01*
X162881211Y-94678290D01*
X162878552Y-94676358D01*
X162884283Y-94668468D01*
X162891190Y-94661562D01*
X162922558Y-94600000D01*
X168190069Y-94600000D01*
X168191596Y-94609641D01*
X168206157Y-94701582D01*
X168206158Y-94701586D01*
X168207685Y-94711225D01*
X168212116Y-94719921D01*
X168212117Y-94719924D01*
X168227442Y-94750000D01*
X168258810Y-94811562D01*
X168338438Y-94891190D01*
X168438775Y-94942315D01*
X168550000Y-94959931D01*
X168661225Y-94942315D01*
X168761562Y-94891190D01*
X168841190Y-94811562D01*
X168892315Y-94711225D01*
X168909931Y-94600000D01*
X168892315Y-94488775D01*
X168887882Y-94480075D01*
X168884868Y-94470799D01*
X168886232Y-94470355D01*
X168876550Y-94434226D01*
X168884616Y-94383297D01*
X168912695Y-94340056D01*
X168991190Y-94261562D01*
X169042315Y-94161225D01*
X169059931Y-94050000D01*
X169042315Y-93938775D01*
X168991190Y-93838438D01*
X168911562Y-93758810D01*
X168890623Y-93748141D01*
X168819924Y-93712117D01*
X168819921Y-93712116D01*
X168811225Y-93707685D01*
X168801586Y-93706158D01*
X168801582Y-93706157D01*
X168709641Y-93691596D01*
X168700000Y-93690069D01*
X168690359Y-93691596D01*
X168598417Y-93706157D01*
X168598411Y-93706158D01*
X168588775Y-93707685D01*
X168580080Y-93712115D01*
X168580075Y-93712117D01*
X168497139Y-93754376D01*
X168497136Y-93754377D01*
X168488438Y-93758810D01*
X168481536Y-93765711D01*
X168481533Y-93765714D01*
X168415714Y-93831533D01*
X168415711Y-93831536D01*
X168408810Y-93838438D01*
X168404377Y-93847136D01*
X168404376Y-93847139D01*
X168362117Y-93930075D01*
X168362115Y-93930080D01*
X168357685Y-93938775D01*
X168356158Y-93948411D01*
X168356157Y-93948417D01*
X168352230Y-93973216D01*
X168340069Y-94050000D01*
X168341596Y-94059641D01*
X168356157Y-94151582D01*
X168356158Y-94151586D01*
X168357685Y-94161225D01*
X168362117Y-94169923D01*
X168365132Y-94179201D01*
X168363768Y-94179644D01*
X168373449Y-94215779D01*
X168365383Y-94266704D01*
X168337301Y-94309947D01*
X168258810Y-94388438D01*
X168254377Y-94397136D01*
X168254376Y-94397139D01*
X168212117Y-94480075D01*
X168212115Y-94480080D01*
X168207685Y-94488775D01*
X168206158Y-94498411D01*
X168206157Y-94498417D01*
X168196210Y-94561225D01*
X168190069Y-94600000D01*
X162922558Y-94600000D01*
X162942315Y-94561225D01*
X162959931Y-94450000D01*
X162942315Y-94338775D01*
X162891190Y-94238438D01*
X162811562Y-94158810D01*
X162802860Y-94154376D01*
X162719924Y-94112117D01*
X162719921Y-94112116D01*
X162711225Y-94107685D01*
X162701586Y-94106158D01*
X162701582Y-94106157D01*
X162609641Y-94091596D01*
X162600000Y-94090069D01*
X162590359Y-94091596D01*
X162498417Y-94106157D01*
X162498411Y-94106158D01*
X162488775Y-94107685D01*
X162480080Y-94112115D01*
X162480075Y-94112117D01*
X162397139Y-94154376D01*
X162397136Y-94154377D01*
X162388438Y-94158810D01*
X162381536Y-94165711D01*
X162381533Y-94165714D01*
X162315714Y-94231533D01*
X162315711Y-94231536D01*
X162308810Y-94238438D01*
X162304377Y-94247136D01*
X162304376Y-94247139D01*
X162262117Y-94330075D01*
X162262115Y-94330080D01*
X162257685Y-94338775D01*
X162256158Y-94348411D01*
X162256157Y-94348417D01*
X162249819Y-94388438D01*
X162240069Y-94450000D01*
X162241596Y-94459641D01*
X162256157Y-94551582D01*
X162256158Y-94551586D01*
X162257685Y-94561225D01*
X162262116Y-94569921D01*
X162262117Y-94569924D01*
X162291326Y-94627249D01*
X162308810Y-94661562D01*
X162315714Y-94668466D01*
X162321448Y-94676358D01*
X162318788Y-94678290D01*
X162341661Y-94717906D01*
X162341661Y-94782094D01*
X162318788Y-94821709D01*
X162321448Y-94823642D01*
X162315715Y-94831533D01*
X162308810Y-94838438D01*
X162304377Y-94847136D01*
X162304376Y-94847139D01*
X162262117Y-94930075D01*
X162262115Y-94930080D01*
X162257685Y-94938775D01*
X162256158Y-94948411D01*
X162256157Y-94948417D01*
X162246687Y-95008216D01*
X162240069Y-95050000D01*
X162241596Y-95059641D01*
X162241596Y-95059643D01*
X162256316Y-95152585D01*
X162253618Y-95204075D01*
X162230210Y-95250016D01*
X162190140Y-95282465D01*
X162147140Y-95304375D01*
X162147135Y-95304378D01*
X162138438Y-95308810D01*
X162131536Y-95315711D01*
X162131533Y-95315714D01*
X162065714Y-95381533D01*
X162065711Y-95381536D01*
X162058810Y-95388438D01*
X162054377Y-95397136D01*
X162054376Y-95397139D01*
X162012117Y-95480075D01*
X162012115Y-95480080D01*
X162007685Y-95488775D01*
X162006158Y-95498411D01*
X162006157Y-95498417D01*
X161995424Y-95566190D01*
X161990069Y-95600000D01*
X161991596Y-95609641D01*
X162006157Y-95701582D01*
X162006158Y-95701586D01*
X162007685Y-95711225D01*
X162012116Y-95719921D01*
X162012117Y-95719924D01*
X162051461Y-95797139D01*
X162058810Y-95811562D01*
X162065714Y-95818465D01*
X162065714Y-95818466D01*
X162121136Y-95873888D01*
X162149790Y-95918649D01*
X162157073Y-95971294D01*
X162141648Y-96022153D01*
X162110497Y-96057210D01*
X162109437Y-96057751D01*
X162102541Y-96064646D01*
X162102538Y-96064649D01*
X162036713Y-96130474D01*
X162036710Y-96130477D01*
X162029809Y-96137379D01*
X162025376Y-96146077D01*
X162025375Y-96146080D01*
X161983116Y-96229016D01*
X161983114Y-96229021D01*
X161978684Y-96237716D01*
X161977157Y-96247352D01*
X161977156Y-96247358D01*
X161968540Y-96301761D01*
X161961068Y-96348941D01*
X161102117Y-96348941D01*
X161101964Y-96347822D01*
X161037729Y-95735442D01*
X161037163Y-95727729D01*
X161036365Y-95708785D01*
X161011252Y-95112529D01*
X161011169Y-95104839D01*
X161023686Y-94489240D01*
X161024084Y-94481514D01*
X161026698Y-94450000D01*
X161074979Y-93867891D01*
X161075859Y-93860206D01*
X161077770Y-93847139D01*
X161135831Y-93450000D01*
X162240069Y-93450000D01*
X162241596Y-93459641D01*
X162256157Y-93551582D01*
X162256158Y-93551586D01*
X162257685Y-93561225D01*
X162308810Y-93661562D01*
X162388438Y-93741190D01*
X162488775Y-93792315D01*
X162600000Y-93809931D01*
X162711225Y-93792315D01*
X162811562Y-93741190D01*
X162891190Y-93661562D01*
X162915011Y-93614812D01*
X165125257Y-93614812D01*
X165126784Y-93624453D01*
X165141345Y-93716394D01*
X165141346Y-93716398D01*
X165142873Y-93726037D01*
X165147304Y-93734733D01*
X165147305Y-93734736D01*
X165174385Y-93787882D01*
X165193998Y-93826374D01*
X165273626Y-93906002D01*
X165373963Y-93957127D01*
X165485188Y-93974743D01*
X165596413Y-93957127D01*
X165696750Y-93906002D01*
X165776378Y-93826374D01*
X165827503Y-93726037D01*
X165845119Y-93614812D01*
X165827503Y-93503587D01*
X165776378Y-93403250D01*
X165696750Y-93323622D01*
X165655232Y-93302467D01*
X165605112Y-93276929D01*
X165605109Y-93276928D01*
X165596413Y-93272497D01*
X165586774Y-93270970D01*
X165586770Y-93270969D01*
X165494829Y-93256408D01*
X165485188Y-93254881D01*
X165475547Y-93256408D01*
X165383605Y-93270969D01*
X165383599Y-93270970D01*
X165373963Y-93272497D01*
X165365268Y-93276927D01*
X165365263Y-93276929D01*
X165282327Y-93319188D01*
X165282324Y-93319189D01*
X165273626Y-93323622D01*
X165266724Y-93330523D01*
X165266721Y-93330526D01*
X165200902Y-93396345D01*
X165200899Y-93396348D01*
X165193998Y-93403250D01*
X165189565Y-93411948D01*
X165189564Y-93411951D01*
X165147305Y-93494887D01*
X165147303Y-93494892D01*
X165142873Y-93503587D01*
X165141346Y-93513223D01*
X165141345Y-93513229D01*
X165135271Y-93551582D01*
X165125257Y-93614812D01*
X162915011Y-93614812D01*
X162942315Y-93561225D01*
X162959931Y-93450000D01*
X162942315Y-93338775D01*
X162894646Y-93245221D01*
X162881192Y-93185033D01*
X162898399Y-93125806D01*
X162942011Y-93082195D01*
X163001238Y-93064989D01*
X163061422Y-93078442D01*
X163088754Y-93092369D01*
X163199979Y-93109985D01*
X163311204Y-93092369D01*
X163411541Y-93041244D01*
X163491169Y-92961616D01*
X163542294Y-92861279D01*
X163559910Y-92750054D01*
X163542294Y-92638829D01*
X163491169Y-92538492D01*
X163411541Y-92458864D01*
X163402839Y-92454430D01*
X163319903Y-92412171D01*
X163319900Y-92412170D01*
X163311204Y-92407739D01*
X163301565Y-92406212D01*
X163301561Y-92406211D01*
X163209620Y-92391650D01*
X163199979Y-92390123D01*
X163190338Y-92391650D01*
X163098396Y-92406211D01*
X163098390Y-92406212D01*
X163088754Y-92407739D01*
X163080059Y-92412169D01*
X163080054Y-92412171D01*
X162997118Y-92454430D01*
X162997115Y-92454431D01*
X162988417Y-92458864D01*
X162981515Y-92465765D01*
X162981512Y-92465768D01*
X162915693Y-92531587D01*
X162915690Y-92531590D01*
X162908789Y-92538492D01*
X162904356Y-92547190D01*
X162904355Y-92547193D01*
X162862096Y-92630129D01*
X162862094Y-92630134D01*
X162857664Y-92638829D01*
X162856137Y-92648465D01*
X162856136Y-92648471D01*
X162846758Y-92707685D01*
X162840048Y-92750054D01*
X162841575Y-92759695D01*
X162856136Y-92851636D01*
X162856137Y-92851640D01*
X162857664Y-92861279D01*
X162905332Y-92954832D01*
X162918786Y-93015020D01*
X162901579Y-93074246D01*
X162857968Y-93117857D01*
X162798741Y-93135064D01*
X162738552Y-93121609D01*
X162719925Y-93112117D01*
X162719919Y-93112115D01*
X162711225Y-93107685D01*
X162701586Y-93106158D01*
X162701582Y-93106157D01*
X162609641Y-93091596D01*
X162600000Y-93090069D01*
X162590359Y-93091596D01*
X162498417Y-93106157D01*
X162498411Y-93106158D01*
X162488775Y-93107685D01*
X162480080Y-93112115D01*
X162480075Y-93112117D01*
X162397139Y-93154376D01*
X162397136Y-93154377D01*
X162388438Y-93158810D01*
X162381536Y-93165711D01*
X162381533Y-93165714D01*
X162315714Y-93231533D01*
X162315711Y-93231536D01*
X162308810Y-93238438D01*
X162304377Y-93247136D01*
X162304376Y-93247139D01*
X162262117Y-93330075D01*
X162262115Y-93330080D01*
X162257685Y-93338775D01*
X162256158Y-93348411D01*
X162256157Y-93348417D01*
X162242262Y-93436148D01*
X162240069Y-93450000D01*
X161135831Y-93450000D01*
X161164930Y-93250967D01*
X161166288Y-93243350D01*
X161183586Y-93161225D01*
X161293197Y-92640822D01*
X161295013Y-92633362D01*
X161459268Y-92039902D01*
X161461547Y-92032566D01*
X161594658Y-91647017D01*
X164830069Y-91647017D01*
X164831596Y-91656658D01*
X164846157Y-91748599D01*
X164846158Y-91748603D01*
X164847685Y-91758242D01*
X164852116Y-91766938D01*
X164852117Y-91766941D01*
X164889950Y-91841190D01*
X164898810Y-91858579D01*
X164978438Y-91938207D01*
X165078775Y-91989332D01*
X165190000Y-92006948D01*
X165199641Y-92005421D01*
X165209398Y-92005421D01*
X165209398Y-92007511D01*
X165251777Y-92010845D01*
X165301141Y-92041093D01*
X165331393Y-92090455D01*
X165334554Y-92130602D01*
X165337174Y-92130602D01*
X165337174Y-92140359D01*
X165335647Y-92150000D01*
X165337174Y-92159641D01*
X165351735Y-92251582D01*
X165351736Y-92251586D01*
X165353263Y-92261225D01*
X165357694Y-92269921D01*
X165357695Y-92269924D01*
X165387512Y-92328442D01*
X165404388Y-92361562D01*
X165484016Y-92441190D01*
X165584353Y-92492315D01*
X165695578Y-92509931D01*
X165806803Y-92492315D01*
X165907140Y-92441190D01*
X165986768Y-92361562D01*
X166037893Y-92261225D01*
X166055509Y-92150000D01*
X166037893Y-92038775D01*
X166018190Y-92000106D01*
X166004675Y-91943814D01*
X166018191Y-91887518D01*
X166054829Y-91844620D01*
X166061562Y-91841190D01*
X166141190Y-91761562D01*
X166192315Y-91661225D01*
X166209931Y-91550000D01*
X166192315Y-91438775D01*
X166141190Y-91338438D01*
X166061562Y-91258810D01*
X166010272Y-91232676D01*
X165969924Y-91212117D01*
X165969921Y-91212116D01*
X165961225Y-91207685D01*
X165951586Y-91206158D01*
X165951582Y-91206157D01*
X165859641Y-91191596D01*
X165850000Y-91190069D01*
X165840359Y-91191596D01*
X165748417Y-91206157D01*
X165748411Y-91206158D01*
X165738775Y-91207685D01*
X165730080Y-91212115D01*
X165730075Y-91212117D01*
X165647139Y-91254376D01*
X165647136Y-91254377D01*
X165638438Y-91258810D01*
X165631536Y-91265711D01*
X165631533Y-91265714D01*
X165558810Y-91338438D01*
X165556920Y-91336548D01*
X165519543Y-91366808D01*
X165456153Y-91376844D01*
X165401663Y-91355928D01*
X165401562Y-91355827D01*
X165392865Y-91351395D01*
X165392863Y-91351394D01*
X165309924Y-91309134D01*
X165309921Y-91309133D01*
X165301225Y-91304702D01*
X165291586Y-91303175D01*
X165291582Y-91303174D01*
X165199641Y-91288613D01*
X165190000Y-91287086D01*
X165180359Y-91288613D01*
X165088417Y-91303174D01*
X165088411Y-91303175D01*
X165078775Y-91304702D01*
X165070080Y-91309132D01*
X165070075Y-91309134D01*
X164987139Y-91351393D01*
X164987136Y-91351394D01*
X164978438Y-91355827D01*
X164971536Y-91362728D01*
X164971533Y-91362731D01*
X164905714Y-91428550D01*
X164905711Y-91428553D01*
X164898810Y-91435455D01*
X164894377Y-91444153D01*
X164894376Y-91444156D01*
X164852117Y-91527092D01*
X164852115Y-91527097D01*
X164847685Y-91535792D01*
X164846158Y-91545428D01*
X164846157Y-91545434D01*
X164833556Y-91625000D01*
X164830069Y-91647017D01*
X161594658Y-91647017D01*
X161662496Y-91450529D01*
X161665248Y-91443300D01*
X161668517Y-91435455D01*
X161885622Y-90914500D01*
X167404897Y-90914500D01*
X167406424Y-90924141D01*
X167420985Y-91016082D01*
X167420986Y-91016086D01*
X167422513Y-91025725D01*
X167426944Y-91034421D01*
X167426945Y-91034424D01*
X167453340Y-91086225D01*
X167473638Y-91126062D01*
X167553266Y-91205690D01*
X167653603Y-91256815D01*
X167764828Y-91274431D01*
X167876053Y-91256815D01*
X167976390Y-91205690D01*
X168056018Y-91126062D01*
X168107143Y-91025725D01*
X168123298Y-90923722D01*
X168150226Y-90864081D01*
X168161322Y-90856281D01*
X168137048Y-90844388D01*
X168132994Y-90838216D01*
X168303505Y-90838216D01*
X168327768Y-90850101D01*
X168355512Y-90892331D01*
X168357685Y-90891225D01*
X168408810Y-90991562D01*
X168488438Y-91071190D01*
X168588775Y-91122315D01*
X168700000Y-91139931D01*
X168811225Y-91122315D01*
X168911562Y-91071190D01*
X168991190Y-90991562D01*
X169042315Y-90891225D01*
X169052526Y-90826748D01*
X169074524Y-90780000D01*
X169275475Y-90780000D01*
X169297473Y-90826748D01*
X169306157Y-90881581D01*
X169306158Y-90881584D01*
X169307685Y-90891225D01*
X169312116Y-90899921D01*
X169312117Y-90899924D01*
X169345459Y-90965360D01*
X169358810Y-90991562D01*
X169438438Y-91071190D01*
X169538775Y-91122315D01*
X169650000Y-91139931D01*
X169761225Y-91122315D01*
X169861562Y-91071190D01*
X169941190Y-90991562D01*
X169992315Y-90891225D01*
X170009931Y-90780000D01*
X169992315Y-90668775D01*
X169941190Y-90568438D01*
X169861562Y-90488810D01*
X169849102Y-90482461D01*
X169769924Y-90442117D01*
X169769921Y-90442116D01*
X169761225Y-90437685D01*
X169751586Y-90436158D01*
X169751582Y-90436157D01*
X169665177Y-90422472D01*
X169649999Y-90415329D01*
X169634822Y-90422472D01*
X169548417Y-90436157D01*
X169548411Y-90436158D01*
X169538775Y-90437685D01*
X169530080Y-90442115D01*
X169530075Y-90442117D01*
X169447139Y-90484376D01*
X169447136Y-90484377D01*
X169438438Y-90488810D01*
X169431536Y-90495711D01*
X169431533Y-90495714D01*
X169365714Y-90561533D01*
X169365711Y-90561536D01*
X169358810Y-90568438D01*
X169354377Y-90577136D01*
X169354376Y-90577139D01*
X169312117Y-90660075D01*
X169312115Y-90660080D01*
X169307685Y-90668775D01*
X169306158Y-90678411D01*
X169306157Y-90678417D01*
X169297473Y-90733252D01*
X169275475Y-90780000D01*
X169074524Y-90780000D01*
X169052527Y-90733252D01*
X169043842Y-90678417D01*
X169042315Y-90668775D01*
X168991190Y-90568438D01*
X168911562Y-90488810D01*
X168899102Y-90482461D01*
X168819924Y-90442117D01*
X168819921Y-90442116D01*
X168811225Y-90437685D01*
X168801586Y-90436158D01*
X168801582Y-90436157D01*
X168709641Y-90421596D01*
X168700000Y-90420069D01*
X168690359Y-90421596D01*
X168598417Y-90436157D01*
X168598411Y-90436158D01*
X168588775Y-90437685D01*
X168580080Y-90442115D01*
X168580075Y-90442117D01*
X168497139Y-90484376D01*
X168497136Y-90484377D01*
X168488438Y-90488810D01*
X168481536Y-90495711D01*
X168481533Y-90495714D01*
X168415714Y-90561533D01*
X168415711Y-90561536D01*
X168408810Y-90568438D01*
X168404377Y-90577136D01*
X168404376Y-90577139D01*
X168362117Y-90660075D01*
X168362115Y-90660080D01*
X168357685Y-90668775D01*
X168356158Y-90678413D01*
X168356157Y-90678418D01*
X168341529Y-90770777D01*
X168314598Y-90830421D01*
X168303505Y-90838216D01*
X168132994Y-90838216D01*
X168109317Y-90802167D01*
X168107143Y-90803275D01*
X168056018Y-90702938D01*
X167976390Y-90623310D01*
X167963213Y-90616596D01*
X167884752Y-90576617D01*
X167884749Y-90576616D01*
X167876053Y-90572185D01*
X167866414Y-90570658D01*
X167866410Y-90570657D01*
X167774469Y-90556096D01*
X167764828Y-90554569D01*
X167755187Y-90556096D01*
X167663245Y-90570657D01*
X167663239Y-90570658D01*
X167653603Y-90572185D01*
X167644908Y-90576615D01*
X167644903Y-90576617D01*
X167561967Y-90618876D01*
X167561964Y-90618877D01*
X167553266Y-90623310D01*
X167546364Y-90630211D01*
X167546361Y-90630214D01*
X167480542Y-90696033D01*
X167480539Y-90696036D01*
X167473638Y-90702938D01*
X167469205Y-90711636D01*
X167469204Y-90711639D01*
X167426945Y-90794575D01*
X167426943Y-90794580D01*
X167422513Y-90803275D01*
X167420986Y-90812911D01*
X167420985Y-90812917D01*
X167409017Y-90888488D01*
X167404897Y-90914500D01*
X161885622Y-90914500D01*
X161902100Y-90874961D01*
X161905293Y-90867927D01*
X161907186Y-90864081D01*
X161974377Y-90727529D01*
X162011705Y-90682728D01*
X162065385Y-90659943D01*
X162123543Y-90664214D01*
X162173318Y-90694597D01*
X162231274Y-90752553D01*
X162331611Y-90803678D01*
X162442836Y-90821294D01*
X162554061Y-90803678D01*
X162654398Y-90752553D01*
X162734026Y-90672925D01*
X162785151Y-90572588D01*
X162802767Y-90461363D01*
X162785151Y-90350138D01*
X162734026Y-90249801D01*
X162654398Y-90170173D01*
X162585233Y-90134931D01*
X162562760Y-90123480D01*
X162562757Y-90123479D01*
X162554061Y-90119048D01*
X162544420Y-90117521D01*
X162544417Y-90117520D01*
X162488707Y-90108697D01*
X162434009Y-90085652D01*
X162396288Y-90039826D01*
X162384186Y-89981718D01*
X162400475Y-89924646D01*
X162460349Y-89820000D01*
X169290069Y-89820000D01*
X169291596Y-89829641D01*
X169306157Y-89921582D01*
X169306158Y-89921586D01*
X169307685Y-89931225D01*
X169312116Y-89939921D01*
X169312117Y-89939924D01*
X169317199Y-89949897D01*
X169358810Y-90031562D01*
X169438438Y-90111190D01*
X169538775Y-90162315D01*
X169634824Y-90177527D01*
X169649999Y-90184668D01*
X169665174Y-90177527D01*
X169761225Y-90162315D01*
X169861562Y-90111190D01*
X169941190Y-90031562D01*
X169992315Y-89931225D01*
X170009931Y-89820000D01*
X169992315Y-89708775D01*
X169941190Y-89608438D01*
X169861562Y-89528810D01*
X169852860Y-89524376D01*
X169769924Y-89482117D01*
X169769921Y-89482116D01*
X169761225Y-89477685D01*
X169751586Y-89476158D01*
X169751582Y-89476157D01*
X169659641Y-89461596D01*
X169650000Y-89460069D01*
X169640359Y-89461596D01*
X169548417Y-89476157D01*
X169548411Y-89476158D01*
X169538775Y-89477685D01*
X169530080Y-89482115D01*
X169530075Y-89482117D01*
X169447139Y-89524376D01*
X169447136Y-89524377D01*
X169438438Y-89528810D01*
X169431536Y-89535711D01*
X169431533Y-89535714D01*
X169365714Y-89601533D01*
X169365711Y-89601536D01*
X169358810Y-89608438D01*
X169354377Y-89617136D01*
X169354376Y-89617139D01*
X169312117Y-89700075D01*
X169312115Y-89700080D01*
X169307685Y-89708775D01*
X169306158Y-89718411D01*
X169306157Y-89718417D01*
X169294568Y-89791596D01*
X169290069Y-89820000D01*
X162460349Y-89820000D01*
X162486559Y-89774191D01*
X162490583Y-89767642D01*
X162829127Y-89253299D01*
X162833578Y-89246978D01*
X163006820Y-89016490D01*
X163203514Y-88754799D01*
X163208333Y-88748787D01*
X163403777Y-88520000D01*
X165804897Y-88520000D01*
X165806424Y-88529641D01*
X165820985Y-88621582D01*
X165820986Y-88621586D01*
X165822513Y-88631225D01*
X165826944Y-88639921D01*
X165826945Y-88639924D01*
X165869204Y-88722860D01*
X165873638Y-88731562D01*
X165953266Y-88811190D01*
X166053603Y-88862315D01*
X166164828Y-88879931D01*
X166276053Y-88862315D01*
X166376390Y-88811190D01*
X166456018Y-88731562D01*
X166507143Y-88631225D01*
X166524759Y-88520000D01*
X166507143Y-88408775D01*
X166456018Y-88308438D01*
X166376390Y-88228810D01*
X166367688Y-88224376D01*
X166284752Y-88182117D01*
X166284749Y-88182116D01*
X166276053Y-88177685D01*
X166266414Y-88176158D01*
X166266410Y-88176157D01*
X166174469Y-88161596D01*
X166164828Y-88160069D01*
X166155187Y-88161596D01*
X166063245Y-88176157D01*
X166063239Y-88176158D01*
X166053603Y-88177685D01*
X166044908Y-88182115D01*
X166044903Y-88182117D01*
X165961967Y-88224376D01*
X165961964Y-88224377D01*
X165953266Y-88228810D01*
X165946364Y-88235711D01*
X165946361Y-88235714D01*
X165880542Y-88301533D01*
X165880539Y-88301536D01*
X165873638Y-88308438D01*
X165869205Y-88317136D01*
X165869204Y-88317139D01*
X165826945Y-88400075D01*
X165826943Y-88400080D01*
X165822513Y-88408775D01*
X165820986Y-88418411D01*
X165820985Y-88418417D01*
X165811492Y-88478357D01*
X165804897Y-88520000D01*
X163403777Y-88520000D01*
X163608285Y-88280603D01*
X163613491Y-88274883D01*
X163648739Y-88238488D01*
X164041844Y-87832587D01*
X164047375Y-87827222D01*
X164502520Y-87412478D01*
X164508357Y-87407484D01*
X164988479Y-87021946D01*
X164994636Y-87017310D01*
X165497864Y-86662481D01*
X165504300Y-86658236D01*
X166028689Y-86335486D01*
X166035351Y-86331667D01*
X166578874Y-86042245D01*
X166585772Y-86038844D01*
X167146253Y-85783907D01*
X167153380Y-85780930D01*
X167728680Y-85561451D01*
X167735940Y-85558938D01*
X168323844Y-85375764D01*
X168331247Y-85373708D01*
X168376574Y-85362634D01*
X168432213Y-85361895D01*
X168482574Y-85385561D01*
G37*
G04 #@! TD.AperFunction*
G04 #@! TA.AperFunction,Conductor*
G36*
X174150795Y-85525531D02*
G01*
X174453456Y-85626561D01*
X174460703Y-85629234D01*
X174675753Y-85716276D01*
X175031455Y-85860247D01*
X175038535Y-85863373D01*
X175593760Y-86129538D01*
X175600611Y-86133090D01*
X176138152Y-86433372D01*
X176144773Y-86437347D01*
X176653978Y-86765069D01*
X176662527Y-86770571D01*
X176668896Y-86774956D01*
X177164876Y-87139846D01*
X177170941Y-87144607D01*
X177577703Y-87484931D01*
X177643178Y-87539712D01*
X177648951Y-87544857D01*
X177709377Y-87602188D01*
X178095620Y-87968650D01*
X178101065Y-87974149D01*
X178520426Y-88424978D01*
X178525513Y-88430801D01*
X178568563Y-88483300D01*
X178915935Y-88906915D01*
X178920645Y-88913039D01*
X179280608Y-89412583D01*
X179284921Y-89418978D01*
X179399575Y-89601049D01*
X179613035Y-89940024D01*
X179616952Y-89946699D01*
X179911894Y-90487146D01*
X179915388Y-90494051D01*
X180176057Y-91051875D01*
X180179113Y-91058985D01*
X180404476Y-91631983D01*
X180407082Y-91639269D01*
X180428938Y-91706961D01*
X180431470Y-91774175D01*
X180398536Y-91832823D01*
X180339828Y-91865648D01*
X180272619Y-91862992D01*
X180269917Y-91862114D01*
X180261225Y-91857685D01*
X180251590Y-91856159D01*
X180251587Y-91856158D01*
X180159641Y-91841596D01*
X180150000Y-91840069D01*
X180140359Y-91841596D01*
X180048417Y-91856157D01*
X180048411Y-91856158D01*
X180038775Y-91857685D01*
X180030080Y-91862115D01*
X180030075Y-91862117D01*
X179947139Y-91904376D01*
X179947136Y-91904377D01*
X179938438Y-91908810D01*
X179931536Y-91915711D01*
X179931533Y-91915714D01*
X179865714Y-91981533D01*
X179865711Y-91981536D01*
X179858810Y-91988438D01*
X179854377Y-91997136D01*
X179854376Y-91997139D01*
X179812117Y-92080075D01*
X179812115Y-92080080D01*
X179807685Y-92088775D01*
X179806158Y-92098411D01*
X179806157Y-92098417D01*
X179793345Y-92179315D01*
X179790069Y-92200000D01*
X179791596Y-92209641D01*
X179806157Y-92301582D01*
X179806158Y-92301586D01*
X179807685Y-92311225D01*
X179812116Y-92319921D01*
X179812117Y-92319924D01*
X179820588Y-92336548D01*
X179858810Y-92411562D01*
X179938438Y-92491190D01*
X180038775Y-92542315D01*
X180150000Y-92559931D01*
X180261225Y-92542315D01*
X180361562Y-92491190D01*
X180441190Y-92411562D01*
X180441599Y-92411971D01*
X180490365Y-92374155D01*
X180559296Y-92367673D01*
X180620957Y-92399160D01*
X180656126Y-92458797D01*
X180706531Y-92656299D01*
X180707442Y-92713803D01*
X180682313Y-92765532D01*
X180636549Y-92800362D01*
X180579994Y-92810798D01*
X180435266Y-92803331D01*
X180435261Y-92803331D01*
X180431271Y-92803126D01*
X180429233Y-92802157D01*
X180427106Y-92802912D01*
X180427104Y-92802912D01*
X180421037Y-92805066D01*
X180421037Y-92805067D01*
X180418269Y-92810880D01*
X180418268Y-92810881D01*
X180417298Y-92812921D01*
X180418053Y-92815049D01*
X180417755Y-92820816D01*
X180417755Y-92820818D01*
X180357786Y-93983305D01*
X180343825Y-94034395D01*
X180309819Y-94074999D01*
X180261973Y-94097709D01*
X180209015Y-94098384D01*
X176239548Y-93283479D01*
X176187245Y-93259018D01*
X176151690Y-93213523D01*
X176144570Y-93197932D01*
X176144569Y-93197931D01*
X176140884Y-93189861D01*
X176135074Y-93183156D01*
X176135073Y-93183154D01*
X176065625Y-93103006D01*
X176065622Y-93103003D01*
X176059817Y-93096304D01*
X176033380Y-93079314D01*
X175991588Y-93034427D01*
X175976420Y-92975000D01*
X175991588Y-92915573D01*
X176033380Y-92870685D01*
X176059817Y-92853696D01*
X176140884Y-92760139D01*
X176192309Y-92647533D01*
X176209927Y-92525000D01*
X176192309Y-92402467D01*
X176140884Y-92289861D01*
X176088043Y-92228879D01*
X176065625Y-92203006D01*
X176065622Y-92203003D01*
X176059817Y-92196304D01*
X176033380Y-92179314D01*
X175991588Y-92134427D01*
X175976420Y-92075000D01*
X175991588Y-92015573D01*
X176033380Y-91970685D01*
X176059817Y-91953696D01*
X176140884Y-91860139D01*
X176192309Y-91747533D01*
X176209927Y-91625000D01*
X176192309Y-91502467D01*
X176140884Y-91389861D01*
X176093287Y-91334931D01*
X176065625Y-91303006D01*
X176065622Y-91303003D01*
X176059817Y-91296304D01*
X176052357Y-91291509D01*
X176052355Y-91291508D01*
X175963138Y-91234172D01*
X175963137Y-91234171D01*
X175955675Y-91229376D01*
X175947167Y-91226877D01*
X175947163Y-91226876D01*
X175845409Y-91196999D01*
X175845406Y-91196998D01*
X175836897Y-91194500D01*
X175713103Y-91194500D01*
X175704594Y-91196998D01*
X175704590Y-91196999D01*
X175602836Y-91226876D01*
X175602830Y-91226878D01*
X175594325Y-91229376D01*
X175586865Y-91234169D01*
X175586861Y-91234172D01*
X175497644Y-91291508D01*
X175497639Y-91291512D01*
X175490183Y-91296304D01*
X175484380Y-91302999D01*
X175484374Y-91303006D01*
X175414923Y-91383159D01*
X175409116Y-91389861D01*
X175405434Y-91397922D01*
X175405431Y-91397928D01*
X175387794Y-91436548D01*
X175342039Y-91489352D01*
X175275000Y-91509036D01*
X175207961Y-91489352D01*
X175162206Y-91436548D01*
X175144568Y-91397928D01*
X175140884Y-91389861D01*
X175093287Y-91334931D01*
X175065625Y-91303006D01*
X175065622Y-91303003D01*
X175059817Y-91296304D01*
X175052357Y-91291509D01*
X175052355Y-91291508D01*
X174963138Y-91234172D01*
X174963137Y-91234171D01*
X174955675Y-91229376D01*
X174947167Y-91226877D01*
X174947163Y-91226876D01*
X174845409Y-91196999D01*
X174845406Y-91196998D01*
X174836897Y-91194500D01*
X174760126Y-91194500D01*
X174703831Y-91180985D01*
X174659808Y-91143385D01*
X174637653Y-91089898D01*
X174642195Y-91032182D01*
X174672442Y-90982822D01*
X174905264Y-90750000D01*
X177914922Y-90750000D01*
X177915983Y-90758059D01*
X177932092Y-90880428D01*
X177932093Y-90880434D01*
X177933154Y-90888488D01*
X177936263Y-90895994D01*
X177936264Y-90895997D01*
X177972227Y-90982819D01*
X177986609Y-91017539D01*
X178071643Y-91128357D01*
X178182461Y-91213391D01*
X178311512Y-91266846D01*
X178450000Y-91285078D01*
X178588488Y-91266846D01*
X178717539Y-91213391D01*
X178828357Y-91128357D01*
X178913391Y-91017539D01*
X178966846Y-90888488D01*
X178985078Y-90750000D01*
X178966846Y-90611512D01*
X178913391Y-90482461D01*
X178828357Y-90371643D01*
X178717539Y-90286609D01*
X178710030Y-90283498D01*
X178710029Y-90283498D01*
X178595997Y-90236264D01*
X178595994Y-90236263D01*
X178588488Y-90233154D01*
X178580434Y-90232093D01*
X178580428Y-90232092D01*
X178458059Y-90215983D01*
X178450000Y-90214922D01*
X178441941Y-90215983D01*
X178319571Y-90232092D01*
X178319563Y-90232094D01*
X178311512Y-90233154D01*
X178304007Y-90236262D01*
X178304002Y-90236264D01*
X178189970Y-90283498D01*
X178189966Y-90283500D01*
X178182461Y-90286609D01*
X178176016Y-90291553D01*
X178176013Y-90291556D01*
X178078085Y-90366699D01*
X178078081Y-90366702D01*
X178071643Y-90371643D01*
X178066702Y-90378081D01*
X178066699Y-90378085D01*
X177991556Y-90476013D01*
X177991553Y-90476016D01*
X177986609Y-90482461D01*
X177983500Y-90489966D01*
X177983498Y-90489970D01*
X177936264Y-90604002D01*
X177936262Y-90604007D01*
X177933154Y-90611512D01*
X177932094Y-90619563D01*
X177932092Y-90619571D01*
X177916431Y-90738536D01*
X177914922Y-90750000D01*
X174905264Y-90750000D01*
X175663446Y-89991819D01*
X175703675Y-89964939D01*
X175751128Y-89955500D01*
X176476386Y-89955500D01*
X176523839Y-89964939D01*
X176564066Y-89991818D01*
X176638438Y-90066190D01*
X176738775Y-90117315D01*
X176850000Y-90134931D01*
X176961225Y-90117315D01*
X177061562Y-90066190D01*
X177141190Y-89986562D01*
X177192315Y-89886225D01*
X177209931Y-89775000D01*
X177192315Y-89663775D01*
X177141190Y-89563438D01*
X177061562Y-89483810D01*
X177052860Y-89479376D01*
X176969924Y-89437117D01*
X176969921Y-89437116D01*
X176961225Y-89432685D01*
X176951586Y-89431158D01*
X176951582Y-89431157D01*
X176859641Y-89416596D01*
X176850000Y-89415069D01*
X176840359Y-89416596D01*
X176748417Y-89431157D01*
X176748411Y-89431158D01*
X176738775Y-89432685D01*
X176730080Y-89437115D01*
X176730075Y-89437117D01*
X176647139Y-89479376D01*
X176647136Y-89479377D01*
X176638438Y-89483810D01*
X176631536Y-89490711D01*
X176631533Y-89490714D01*
X176564067Y-89558181D01*
X176523839Y-89585061D01*
X176476386Y-89594500D01*
X175652673Y-89594500D01*
X175630321Y-89592469D01*
X175628585Y-89592150D01*
X175628581Y-89592150D01*
X175613776Y-89589437D01*
X175599403Y-89593915D01*
X175599397Y-89593916D01*
X175580071Y-89599938D01*
X175572863Y-89601948D01*
X175549243Y-89607770D01*
X175549242Y-89607770D01*
X175538607Y-89610392D01*
X175534307Y-89614200D01*
X175528826Y-89615909D01*
X175521081Y-89623653D01*
X175521078Y-89623655D01*
X175503859Y-89640874D01*
X175498412Y-89646001D01*
X175472007Y-89669394D01*
X175471927Y-89669304D01*
X175468077Y-89672873D01*
X175469969Y-89674765D01*
X174739330Y-90405402D01*
X174679327Y-90438593D01*
X174610860Y-90434820D01*
X174554866Y-90395240D01*
X174528471Y-90331958D01*
X174270584Y-88100000D01*
X175214922Y-88100000D01*
X175215983Y-88108059D01*
X175232092Y-88230428D01*
X175232093Y-88230434D01*
X175233154Y-88238488D01*
X175286609Y-88367539D01*
X175371643Y-88478357D01*
X175482461Y-88563391D01*
X175611512Y-88616846D01*
X175750000Y-88635078D01*
X175888488Y-88616846D01*
X176017539Y-88563391D01*
X176128357Y-88478357D01*
X176213391Y-88367539D01*
X176266846Y-88238488D01*
X176285078Y-88100000D01*
X176266846Y-87961512D01*
X176213391Y-87832461D01*
X176128357Y-87721643D01*
X176017539Y-87636609D01*
X176010030Y-87633498D01*
X176010029Y-87633498D01*
X175895997Y-87586264D01*
X175895994Y-87586263D01*
X175888488Y-87583154D01*
X175880434Y-87582093D01*
X175880428Y-87582092D01*
X175758059Y-87565983D01*
X175750000Y-87564922D01*
X175741941Y-87565983D01*
X175619571Y-87582092D01*
X175619563Y-87582094D01*
X175611512Y-87583154D01*
X175604007Y-87586262D01*
X175604002Y-87586264D01*
X175489970Y-87633498D01*
X175489966Y-87633500D01*
X175482461Y-87636609D01*
X175476016Y-87641553D01*
X175476013Y-87641556D01*
X175378085Y-87716699D01*
X175378081Y-87716702D01*
X175371643Y-87721643D01*
X175366702Y-87728081D01*
X175366699Y-87728085D01*
X175291556Y-87826013D01*
X175291553Y-87826016D01*
X175286609Y-87832461D01*
X175283500Y-87839966D01*
X175283498Y-87839970D01*
X175236264Y-87954002D01*
X175236262Y-87954007D01*
X175233154Y-87961512D01*
X175232094Y-87969563D01*
X175232092Y-87969571D01*
X175223824Y-88032378D01*
X175214922Y-88100000D01*
X174270584Y-88100000D01*
X174213065Y-87602188D01*
X174219435Y-87546351D01*
X174249803Y-87499057D01*
X174297930Y-87470028D01*
X174301576Y-87468843D01*
X174311225Y-87467315D01*
X174411562Y-87416190D01*
X174491190Y-87336562D01*
X174542315Y-87236225D01*
X174559931Y-87125000D01*
X174542315Y-87013775D01*
X174491190Y-86913438D01*
X174411562Y-86833810D01*
X174402860Y-86829376D01*
X174319924Y-86787117D01*
X174319921Y-86787116D01*
X174311225Y-86782685D01*
X174301586Y-86781158D01*
X174301582Y-86781157D01*
X174207758Y-86766297D01*
X174158171Y-86746862D01*
X174121310Y-86708418D01*
X174103978Y-86658060D01*
X173988356Y-85657380D01*
X173996705Y-85596357D01*
X174033390Y-85546876D01*
X174089358Y-85521151D01*
X174150795Y-85525531D01*
G37*
G04 #@! TD.AperFunction*
M02*
