G04 #@! TF.GenerationSoftware,KiCad,Pcbnew,(7.0.0-0)*
G04 #@! TF.CreationDate,2024-01-02T18:09:19+08:00*
G04 #@! TF.ProjectId,Revolute,5265766f-6c75-4746-952e-6b696361645f,rev?*
G04 #@! TF.SameCoordinates,Original*
G04 #@! TF.FileFunction,Copper,L2,Inr*
G04 #@! TF.FilePolarity,Positive*
%FSLAX46Y46*%
G04 Gerber Fmt 4.6, Leading zero omitted, Abs format (unit mm)*
G04 Created by KiCad (PCBNEW (7.0.0-0)) date 2024-01-02 18:09:19*
%MOMM*%
%LPD*%
G01*
G04 APERTURE LIST*
G04 #@! TA.AperFunction,ComponentPad*
%ADD10C,0.600000*%
G04 #@! TD*
G04 #@! TA.AperFunction,ViaPad*
%ADD11C,0.450000*%
G04 #@! TD*
G04 #@! TA.AperFunction,Conductor*
%ADD12C,0.100000*%
G04 #@! TD*
G04 APERTURE END LIST*
D10*
X176042500Y-88670000D03*
X175042500Y-88670000D03*
X176042500Y-89570000D03*
X175042500Y-89570000D03*
X176042500Y-90470000D03*
X175042500Y-90470000D03*
D11*
X165485188Y-93614812D03*
X165190000Y-91647017D03*
X169700000Y-98550000D03*
X168550000Y-94600000D03*
X168700000Y-94050000D03*
X180150000Y-92200000D03*
X178075000Y-90795000D03*
X163698572Y-98148521D03*
X164930000Y-101090000D03*
X165820000Y-101120000D03*
X173847847Y-104118323D03*
X174794755Y-103788534D03*
X169480000Y-103070000D03*
X171197360Y-104516761D03*
X173070000Y-101600000D03*
X171875000Y-102050000D03*
X173520000Y-99190000D03*
X171570000Y-99170000D03*
X173950000Y-93050000D03*
X170350000Y-92300000D03*
X170800000Y-90800000D03*
X169840000Y-90790000D03*
X167764828Y-90914500D03*
X166950000Y-91750000D03*
X165695578Y-92150000D03*
X165850000Y-91550000D03*
X166164828Y-88520000D03*
X174000000Y-85900000D03*
X174100000Y-87600000D03*
X173550000Y-87100000D03*
X177350000Y-89250000D03*
X179300000Y-93050000D03*
X178000000Y-93050000D03*
X177000000Y-92000000D03*
X173475000Y-95300000D03*
X173000000Y-94800000D03*
X173400000Y-94350000D03*
X174750000Y-94000000D03*
X175225500Y-94450000D03*
X176250000Y-93800000D03*
X176250000Y-95150000D03*
X176250000Y-95800000D03*
X179911016Y-98562057D03*
X179505160Y-99451662D03*
X178412370Y-101103863D03*
X176400000Y-99450000D03*
X179003299Y-100302672D03*
X177728879Y-101845893D03*
X176974773Y-102514392D03*
X175075000Y-101800000D03*
X174800000Y-99600000D03*
X171000000Y-100100000D03*
X167550000Y-100400000D03*
X163250000Y-97400000D03*
X167850000Y-97200000D03*
X164930000Y-100200000D03*
X164859812Y-98140188D03*
X162760000Y-98180000D03*
X161630000Y-97120000D03*
X162600000Y-94450000D03*
X162600000Y-95050000D03*
X162350000Y-95600000D03*
X162800000Y-96000000D03*
X162320999Y-96348941D03*
X162600000Y-92350000D03*
X162600000Y-93450000D03*
X163199979Y-92750054D03*
X162442836Y-90461363D03*
X170825000Y-97500000D03*
X171625000Y-97075000D03*
D12*
X162350000Y-95600000D02*
X163320000Y-95600000D01*
X163895000Y-96175000D02*
X169500000Y-96175000D01*
X169500000Y-96175000D02*
X170825000Y-97500000D01*
X163320000Y-95600000D02*
X163895000Y-96175000D01*
X162320999Y-96348941D02*
X162697058Y-96725000D01*
X162697058Y-96725000D02*
X168750000Y-96725000D01*
X168750000Y-96725000D02*
X170325000Y-98300000D01*
X170325000Y-98300000D02*
X175825000Y-98300000D01*
X175825000Y-98300000D02*
X176975000Y-97150000D01*
X176975000Y-97150000D02*
X176975000Y-95875000D01*
X176975000Y-95875000D02*
X176250000Y-95150000D01*
X162800000Y-96000000D02*
X163250000Y-96450000D01*
X163250000Y-96450000D02*
X169050000Y-96450000D01*
X169050000Y-96450000D02*
X170500000Y-97900000D01*
X170500000Y-97900000D02*
X175650000Y-97900000D01*
X175650000Y-97900000D02*
X176600000Y-96950000D01*
X176600000Y-96950000D02*
X176600000Y-95925000D01*
X176600000Y-95925000D02*
X176400000Y-95725000D01*
X176400000Y-95725000D02*
X176250000Y-95725000D01*
X164600000Y-95625000D02*
X163425000Y-94450000D01*
X163425000Y-94450000D02*
X162600000Y-94450000D01*
X162600000Y-95050000D02*
X163400000Y-95050000D01*
X163400000Y-95050000D02*
X164250000Y-95900000D01*
X171625000Y-97075000D02*
X171050000Y-97075000D01*
X169875000Y-95900000D02*
X164250000Y-95900000D01*
X171050000Y-97075000D02*
X169875000Y-95900000D01*
X163560000Y-97370000D02*
X163280000Y-97370000D01*
X168315000Y-102125000D02*
X163560000Y-97370000D01*
X171875000Y-102050000D02*
X171800000Y-102125000D01*
X171800000Y-102125000D02*
X168315000Y-102125000D01*
X163230000Y-93180000D02*
X163230000Y-92760000D01*
X172050000Y-95050000D02*
X165100000Y-95050000D01*
X165100000Y-95050000D02*
X163230000Y-93180000D01*
X173400000Y-94400000D02*
X172700000Y-94400000D01*
X172700000Y-94400000D02*
X172050000Y-95050000D01*
X163020000Y-93470000D02*
X162600000Y-93470000D01*
X173000000Y-94825000D02*
X172500000Y-95325000D01*
X172500000Y-95325000D02*
X164875000Y-95325000D01*
X164875000Y-95325000D02*
X163020000Y-93470000D01*
X169480000Y-103070000D02*
X174505000Y-103070000D01*
X174505000Y-103070000D02*
X178625000Y-98950000D01*
X178625000Y-91355000D02*
X178070000Y-90800000D01*
X178625000Y-98950000D02*
X178625000Y-91355000D01*
X176075000Y-93875000D02*
X176200000Y-93750000D01*
X175600000Y-96625000D02*
X174725000Y-97500000D01*
X174525000Y-87365000D02*
X174525000Y-91800000D01*
X175600000Y-93875000D02*
X176075000Y-93875000D01*
X174725000Y-97500000D02*
X170825000Y-97500000D01*
X173580000Y-87110000D02*
X174270000Y-87110000D01*
X174525000Y-91800000D02*
X175600000Y-92875000D01*
X175600000Y-93875000D02*
X175600000Y-96625000D01*
X174270000Y-87110000D02*
X174525000Y-87365000D01*
X175600000Y-92875000D02*
X175600000Y-93875000D01*
X175125000Y-93000000D02*
X174100000Y-91975000D01*
X171625000Y-97075000D02*
X174550000Y-97075000D01*
X174550000Y-97075000D02*
X175125000Y-96500000D01*
X174100000Y-91975000D02*
X174100000Y-87600000D01*
X175125000Y-96500000D02*
X175125000Y-94275000D01*
X175125000Y-94275000D02*
X175125000Y-93000000D01*
X173475000Y-95300000D02*
X173150000Y-95625000D01*
X173150000Y-95625000D02*
X164600000Y-95625000D01*
X166430000Y-91820000D02*
X166430000Y-91302842D01*
X167000000Y-94600000D02*
X165690000Y-93290000D01*
X166430000Y-91302842D02*
X167192842Y-90540000D01*
X168525000Y-94600000D02*
X167000000Y-94600000D01*
X166120000Y-92130000D02*
X166430000Y-91820000D01*
X165690000Y-93290000D02*
X165690000Y-92130000D01*
X165690000Y-92130000D02*
X166120000Y-92130000D01*
X167192842Y-90540000D02*
X169590000Y-90540000D01*
X169590000Y-90540000D02*
X169840000Y-90790000D01*
X170830000Y-90800000D02*
X170300000Y-90270000D01*
X170300000Y-90270000D02*
X167180000Y-90270000D01*
X167180000Y-90270000D02*
X165880000Y-91570000D01*
G04 #@! TA.AperFunction,Conductor*
G36*
X168482574Y-85385561D02*
G01*
X168517515Y-85428867D01*
X168530000Y-85483093D01*
X168530000Y-88220000D01*
X173513674Y-88220000D01*
X173530000Y-88220000D01*
X173530000Y-87780864D01*
X173547268Y-87717743D01*
X173594262Y-87672202D01*
X173657894Y-87656925D01*
X173720442Y-87676167D01*
X173764483Y-87724567D01*
X173808810Y-87811562D01*
X173815713Y-87818465D01*
X173815714Y-87818466D01*
X173883181Y-87885933D01*
X173910061Y-87926161D01*
X173919500Y-87973614D01*
X173919500Y-91947328D01*
X173917469Y-91969679D01*
X173914437Y-91986225D01*
X173918916Y-92000600D01*
X173918917Y-92000603D01*
X173924934Y-92019913D01*
X173926945Y-92027126D01*
X173932767Y-92050749D01*
X173932769Y-92050753D01*
X173935392Y-92061393D01*
X173939200Y-92065692D01*
X173940909Y-92071174D01*
X173948661Y-92078925D01*
X173948661Y-92078926D01*
X173965852Y-92096117D01*
X173970986Y-92101570D01*
X173994396Y-92127994D01*
X173994311Y-92128068D01*
X173997880Y-92131914D01*
X173999765Y-92130030D01*
X174908181Y-93038447D01*
X174935061Y-93078675D01*
X174944500Y-93126128D01*
X174944500Y-93525690D01*
X174933110Y-93577604D01*
X174901031Y-93619981D01*
X174854158Y-93645035D01*
X174801103Y-93648162D01*
X174750000Y-93640069D01*
X174740359Y-93641596D01*
X174648417Y-93656157D01*
X174648411Y-93656158D01*
X174638775Y-93657685D01*
X174630080Y-93662115D01*
X174630075Y-93662117D01*
X174547139Y-93704376D01*
X174547136Y-93704377D01*
X174538438Y-93708810D01*
X174531536Y-93715711D01*
X174531533Y-93715714D01*
X174465714Y-93781533D01*
X174465711Y-93781536D01*
X174458810Y-93788438D01*
X174454377Y-93797136D01*
X174454376Y-93797139D01*
X174412117Y-93880075D01*
X174412115Y-93880080D01*
X174407685Y-93888775D01*
X174406158Y-93898411D01*
X174406157Y-93898417D01*
X174392262Y-93986148D01*
X174390069Y-94000000D01*
X174391596Y-94009641D01*
X174406157Y-94101582D01*
X174406158Y-94101586D01*
X174407685Y-94111225D01*
X174412116Y-94119921D01*
X174412117Y-94119924D01*
X174435033Y-94164898D01*
X174458810Y-94211562D01*
X174538438Y-94291190D01*
X174638775Y-94342315D01*
X174750000Y-94359931D01*
X174750913Y-94359786D01*
X174801451Y-94371919D01*
X174845474Y-94409519D01*
X174867629Y-94463007D01*
X174881657Y-94551581D01*
X174881658Y-94551584D01*
X174883185Y-94561225D01*
X174930984Y-94655035D01*
X174944500Y-94711329D01*
X174944500Y-96373873D01*
X174935061Y-96421326D01*
X174908181Y-96461554D01*
X174511554Y-96858181D01*
X174471326Y-96885061D01*
X174423873Y-96894500D01*
X171998614Y-96894500D01*
X171951161Y-96885061D01*
X171910933Y-96858181D01*
X171843466Y-96790714D01*
X171836562Y-96783810D01*
X171827860Y-96779376D01*
X171744924Y-96737117D01*
X171744921Y-96737116D01*
X171736225Y-96732685D01*
X171726586Y-96731158D01*
X171726582Y-96731157D01*
X171634641Y-96716596D01*
X171625000Y-96715069D01*
X171615359Y-96716596D01*
X171523417Y-96731157D01*
X171523411Y-96731158D01*
X171513775Y-96732685D01*
X171505080Y-96737115D01*
X171505075Y-96737117D01*
X171422139Y-96779376D01*
X171422136Y-96779377D01*
X171413438Y-96783810D01*
X171406536Y-96790711D01*
X171406533Y-96790714D01*
X171339067Y-96858181D01*
X171298839Y-96885061D01*
X171251386Y-96894500D01*
X171176127Y-96894500D01*
X171128674Y-96885061D01*
X171088446Y-96858181D01*
X170247446Y-96017181D01*
X170217196Y-95967818D01*
X170212654Y-95910102D01*
X170234809Y-95856615D01*
X170278832Y-95819015D01*
X170335127Y-95805500D01*
X173122328Y-95805500D01*
X173144679Y-95807530D01*
X173161225Y-95810563D01*
X173194934Y-95800057D01*
X173202124Y-95798053D01*
X173209862Y-95796146D01*
X173225731Y-95792236D01*
X173225731Y-95792235D01*
X173236393Y-95789608D01*
X173240692Y-95785799D01*
X173246174Y-95784091D01*
X173271147Y-95759116D01*
X173276566Y-95754016D01*
X173302994Y-95730604D01*
X173302994Y-95730603D01*
X173302996Y-95730602D01*
X173303075Y-95730691D01*
X173306919Y-95727125D01*
X173305029Y-95725235D01*
X173305030Y-95725234D01*
X173339969Y-95690294D01*
X173389331Y-95660045D01*
X173447045Y-95655503D01*
X173475000Y-95659931D01*
X173586225Y-95642315D01*
X173686562Y-95591190D01*
X173766190Y-95511562D01*
X173817315Y-95411225D01*
X173834931Y-95300000D01*
X173817315Y-95188775D01*
X173766190Y-95088438D01*
X173686562Y-95008810D01*
X173647183Y-94988745D01*
X173594924Y-94962117D01*
X173594921Y-94962116D01*
X173586225Y-94957685D01*
X173576584Y-94956158D01*
X173576581Y-94956157D01*
X173484247Y-94941533D01*
X173421642Y-94912073D01*
X173384568Y-94853653D01*
X173384569Y-94784463D01*
X173421645Y-94726044D01*
X173484247Y-94696587D01*
X173511225Y-94692315D01*
X173611562Y-94641190D01*
X173691190Y-94561562D01*
X173742315Y-94461225D01*
X173759931Y-94350000D01*
X173742315Y-94238775D01*
X173691190Y-94138438D01*
X173611562Y-94058810D01*
X173594272Y-94050000D01*
X173519924Y-94012117D01*
X173519921Y-94012116D01*
X173511225Y-94007685D01*
X173501586Y-94006158D01*
X173501582Y-94006157D01*
X173409641Y-93991596D01*
X173400000Y-93990069D01*
X173390359Y-93991596D01*
X173298417Y-94006157D01*
X173298411Y-94006158D01*
X173288775Y-94007685D01*
X173280080Y-94012115D01*
X173280075Y-94012117D01*
X173197139Y-94054376D01*
X173197136Y-94054377D01*
X173188438Y-94058810D01*
X173181536Y-94065711D01*
X173181533Y-94065714D01*
X173115709Y-94131538D01*
X173115706Y-94131541D01*
X173108810Y-94138438D01*
X173104384Y-94147124D01*
X173104382Y-94147127D01*
X173103360Y-94149132D01*
X173102004Y-94151795D01*
X173056311Y-94201227D01*
X172991520Y-94219500D01*
X172727673Y-94219500D01*
X172705321Y-94217469D01*
X172703585Y-94217150D01*
X172703581Y-94217150D01*
X172688776Y-94214437D01*
X172674403Y-94218915D01*
X172674397Y-94218916D01*
X172655071Y-94224938D01*
X172647863Y-94226948D01*
X172624243Y-94232770D01*
X172624242Y-94232770D01*
X172613607Y-94235392D01*
X172609307Y-94239200D01*
X172603826Y-94240909D01*
X172596081Y-94248653D01*
X172596078Y-94248655D01*
X172578859Y-94265874D01*
X172573412Y-94271001D01*
X172547007Y-94294394D01*
X172546927Y-94294304D01*
X172543077Y-94297873D01*
X172544969Y-94299765D01*
X172274811Y-94569924D01*
X172011554Y-94833181D01*
X171971326Y-94860061D01*
X171923873Y-94869500D01*
X169009954Y-94869500D01*
X168953659Y-94855985D01*
X168909636Y-94818385D01*
X168887480Y-94764897D01*
X168891593Y-94712641D01*
X168892315Y-94711225D01*
X168909931Y-94600000D01*
X168892315Y-94488775D01*
X168887882Y-94480075D01*
X168884868Y-94470799D01*
X168886232Y-94470355D01*
X168876550Y-94434226D01*
X168884616Y-94383297D01*
X168912695Y-94340056D01*
X168991190Y-94261562D01*
X169042315Y-94161225D01*
X169059931Y-94050000D01*
X169042315Y-93938775D01*
X168991190Y-93838438D01*
X168911562Y-93758810D01*
X168902860Y-93754376D01*
X168819924Y-93712117D01*
X168819921Y-93712116D01*
X168811225Y-93707685D01*
X168801586Y-93706158D01*
X168801582Y-93706157D01*
X168709641Y-93691596D01*
X168700000Y-93690069D01*
X168690359Y-93691596D01*
X168598417Y-93706157D01*
X168598411Y-93706158D01*
X168588775Y-93707685D01*
X168580080Y-93712115D01*
X168580075Y-93712117D01*
X168497139Y-93754376D01*
X168497136Y-93754377D01*
X168488438Y-93758810D01*
X168481536Y-93765711D01*
X168481533Y-93765714D01*
X168415714Y-93831533D01*
X168415711Y-93831536D01*
X168408810Y-93838438D01*
X168404377Y-93847136D01*
X168404376Y-93847139D01*
X168362117Y-93930075D01*
X168362115Y-93930080D01*
X168357685Y-93938775D01*
X168356158Y-93948411D01*
X168356157Y-93948417D01*
X168349561Y-93990069D01*
X168340069Y-94050000D01*
X168341596Y-94059641D01*
X168356157Y-94151582D01*
X168356158Y-94151586D01*
X168357685Y-94161225D01*
X168362117Y-94169923D01*
X168365132Y-94179201D01*
X168363768Y-94179644D01*
X168373449Y-94215779D01*
X168365383Y-94266704D01*
X168337301Y-94309947D01*
X168264064Y-94383183D01*
X168223839Y-94410061D01*
X168176386Y-94419500D01*
X167126127Y-94419500D01*
X167078674Y-94410061D01*
X167038446Y-94383181D01*
X165906819Y-93251554D01*
X165879939Y-93211326D01*
X165870500Y-93163873D01*
X165870500Y-93050000D01*
X173590069Y-93050000D01*
X173591596Y-93059641D01*
X173606157Y-93151582D01*
X173606158Y-93151586D01*
X173607685Y-93161225D01*
X173612116Y-93169921D01*
X173612117Y-93169924D01*
X173653711Y-93251554D01*
X173658810Y-93261562D01*
X173738438Y-93341190D01*
X173838775Y-93392315D01*
X173950000Y-93409931D01*
X174061225Y-93392315D01*
X174161562Y-93341190D01*
X174241190Y-93261562D01*
X174292315Y-93161225D01*
X174309931Y-93050000D01*
X174292315Y-92938775D01*
X174241190Y-92838438D01*
X174161562Y-92758810D01*
X174129329Y-92742386D01*
X174069924Y-92712117D01*
X174069921Y-92712116D01*
X174061225Y-92707685D01*
X174051586Y-92706158D01*
X174051582Y-92706157D01*
X173959641Y-92691596D01*
X173950000Y-92690069D01*
X173940359Y-92691596D01*
X173848417Y-92706157D01*
X173848411Y-92706158D01*
X173838775Y-92707685D01*
X173830080Y-92712115D01*
X173830075Y-92712117D01*
X173747139Y-92754376D01*
X173747136Y-92754377D01*
X173738438Y-92758810D01*
X173731536Y-92765711D01*
X173731533Y-92765714D01*
X173665714Y-92831533D01*
X173665711Y-92831536D01*
X173658810Y-92838438D01*
X173654377Y-92847136D01*
X173654376Y-92847139D01*
X173612117Y-92930075D01*
X173612115Y-92930080D01*
X173607685Y-92938775D01*
X173606158Y-92948411D01*
X173606157Y-92948417D01*
X173595609Y-93015020D01*
X173590069Y-93050000D01*
X165870500Y-93050000D01*
X165870500Y-92529104D01*
X165884028Y-92472784D01*
X165909237Y-92443287D01*
X165907140Y-92441190D01*
X165942119Y-92406211D01*
X165986768Y-92361562D01*
X165988204Y-92358742D01*
X166028868Y-92324014D01*
X166085161Y-92310500D01*
X166092328Y-92310500D01*
X166114679Y-92312530D01*
X166131225Y-92315563D01*
X166164934Y-92305057D01*
X166172124Y-92303053D01*
X166179862Y-92301146D01*
X166184513Y-92300000D01*
X169990069Y-92300000D01*
X169991596Y-92309641D01*
X170006157Y-92401582D01*
X170006158Y-92401586D01*
X170007685Y-92411225D01*
X170012116Y-92419921D01*
X170012117Y-92419924D01*
X170035476Y-92465768D01*
X170058810Y-92511562D01*
X170138438Y-92591190D01*
X170238775Y-92642315D01*
X170350000Y-92659931D01*
X170461225Y-92642315D01*
X170561562Y-92591190D01*
X170641190Y-92511562D01*
X170692315Y-92411225D01*
X170709931Y-92300000D01*
X170692315Y-92188775D01*
X170641190Y-92088438D01*
X170561562Y-92008810D01*
X170527778Y-91991596D01*
X170469924Y-91962117D01*
X170469921Y-91962116D01*
X170461225Y-91957685D01*
X170451586Y-91956158D01*
X170451582Y-91956157D01*
X170359641Y-91941596D01*
X170350000Y-91940069D01*
X170340359Y-91941596D01*
X170248417Y-91956157D01*
X170248411Y-91956158D01*
X170238775Y-91957685D01*
X170230080Y-91962115D01*
X170230075Y-91962117D01*
X170147139Y-92004376D01*
X170147136Y-92004377D01*
X170138438Y-92008810D01*
X170131536Y-92015711D01*
X170131533Y-92015714D01*
X170065714Y-92081533D01*
X170065711Y-92081536D01*
X170058810Y-92088438D01*
X170054377Y-92097136D01*
X170054376Y-92097139D01*
X170012117Y-92180075D01*
X170012115Y-92180080D01*
X170007685Y-92188775D01*
X170006158Y-92198411D01*
X170006157Y-92198417D01*
X169994832Y-92269924D01*
X169990069Y-92300000D01*
X166184513Y-92300000D01*
X166195731Y-92297236D01*
X166195731Y-92297235D01*
X166206393Y-92294608D01*
X166210692Y-92290799D01*
X166216174Y-92289091D01*
X166241147Y-92264116D01*
X166246566Y-92259016D01*
X166272994Y-92235604D01*
X166272994Y-92235603D01*
X166272996Y-92235602D01*
X166273075Y-92235691D01*
X166276920Y-92232124D01*
X166275030Y-92230234D01*
X166513575Y-91991689D01*
X166569162Y-91959595D01*
X166633350Y-91959595D01*
X166688937Y-91991688D01*
X166738438Y-92041190D01*
X166838775Y-92092315D01*
X166950000Y-92109931D01*
X167061225Y-92092315D01*
X167161562Y-92041190D01*
X167241190Y-91961562D01*
X167292315Y-91861225D01*
X167309931Y-91750000D01*
X167292315Y-91638775D01*
X167241190Y-91538438D01*
X167161562Y-91458810D01*
X167141165Y-91448417D01*
X167069924Y-91412117D01*
X167069921Y-91412116D01*
X167061225Y-91407685D01*
X167051586Y-91406158D01*
X167051582Y-91406157D01*
X166959641Y-91391596D01*
X166950000Y-91390069D01*
X166908733Y-91396605D01*
X166847332Y-91390800D01*
X166796322Y-91356133D01*
X166768323Y-91301180D01*
X166770261Y-91239535D01*
X166801654Y-91186453D01*
X167231288Y-90756819D01*
X167271517Y-90729939D01*
X167318970Y-90720500D01*
X169363156Y-90720500D01*
X169419451Y-90734015D01*
X169463475Y-90771615D01*
X169485627Y-90825097D01*
X169497685Y-90901225D01*
X169502116Y-90909921D01*
X169502117Y-90909924D01*
X169526886Y-90958534D01*
X169548810Y-91001562D01*
X169628438Y-91081190D01*
X169728775Y-91132315D01*
X169840000Y-91149931D01*
X169951225Y-91132315D01*
X170051562Y-91081190D01*
X170131190Y-91001562D01*
X170182315Y-90901225D01*
X170196735Y-90810178D01*
X170226194Y-90747574D01*
X170284613Y-90710500D01*
X170353803Y-90710500D01*
X170412222Y-90747573D01*
X170441681Y-90810178D01*
X170456157Y-90901582D01*
X170456158Y-90901586D01*
X170457685Y-90911225D01*
X170462116Y-90919921D01*
X170462117Y-90919924D01*
X170478279Y-90951643D01*
X170508810Y-91011562D01*
X170588438Y-91091190D01*
X170688775Y-91142315D01*
X170800000Y-91159931D01*
X170911225Y-91142315D01*
X171011562Y-91091190D01*
X171091190Y-91011562D01*
X171142315Y-90911225D01*
X171159931Y-90800000D01*
X171142315Y-90688775D01*
X171091190Y-90588438D01*
X171011562Y-90508810D01*
X170991936Y-90498810D01*
X170919924Y-90462117D01*
X170919921Y-90462116D01*
X170911225Y-90457685D01*
X170901586Y-90456158D01*
X170901582Y-90456157D01*
X170809639Y-90441595D01*
X170809635Y-90441595D01*
X170800000Y-90440069D01*
X170790364Y-90441595D01*
X170780601Y-90441595D01*
X170780601Y-90439034D01*
X170740207Y-90435844D01*
X170690866Y-90405601D01*
X170447200Y-90161935D01*
X170432831Y-90144693D01*
X170423276Y-90130850D01*
X170409944Y-90123852D01*
X170409943Y-90123852D01*
X170392020Y-90114445D01*
X170385496Y-90110766D01*
X170375799Y-90104904D01*
X170355306Y-90092515D01*
X170349573Y-90092168D01*
X170344489Y-90089500D01*
X170333523Y-90089500D01*
X170309197Y-90089500D01*
X170301712Y-90089274D01*
X170266490Y-90087144D01*
X170266497Y-90087023D01*
X170261255Y-90086826D01*
X170261255Y-90089500D01*
X167207673Y-90089500D01*
X167185321Y-90087469D01*
X167183585Y-90087150D01*
X167183581Y-90087150D01*
X167168776Y-90084437D01*
X167154402Y-90088915D01*
X167154401Y-90088916D01*
X167135081Y-90094936D01*
X167127872Y-90096945D01*
X167104253Y-90102767D01*
X167104250Y-90102768D01*
X167093607Y-90105392D01*
X167089309Y-90109199D01*
X167083826Y-90110908D01*
X167076074Y-90118659D01*
X167076073Y-90118660D01*
X167058850Y-90135882D01*
X167053403Y-90141009D01*
X167027007Y-90164394D01*
X167026927Y-90164304D01*
X167023079Y-90167872D01*
X167024970Y-90169763D01*
X166028192Y-91166540D01*
X165978829Y-91196790D01*
X165921113Y-91201332D01*
X165850000Y-91190069D01*
X165840359Y-91191596D01*
X165748417Y-91206157D01*
X165748411Y-91206158D01*
X165738775Y-91207685D01*
X165730080Y-91212115D01*
X165730075Y-91212117D01*
X165647139Y-91254376D01*
X165647136Y-91254377D01*
X165638438Y-91258810D01*
X165631536Y-91265711D01*
X165631533Y-91265714D01*
X165565714Y-91331533D01*
X165565711Y-91331536D01*
X165558810Y-91338438D01*
X165554377Y-91347136D01*
X165554376Y-91347139D01*
X165512117Y-91430075D01*
X165512115Y-91430080D01*
X165507685Y-91438775D01*
X165506158Y-91448411D01*
X165506157Y-91448417D01*
X165503418Y-91465714D01*
X165490069Y-91550000D01*
X165491596Y-91559641D01*
X165506157Y-91651582D01*
X165506158Y-91651586D01*
X165507685Y-91661225D01*
X165527387Y-91699893D01*
X165540902Y-91756183D01*
X165527388Y-91812477D01*
X165490747Y-91855380D01*
X165484016Y-91858810D01*
X165477120Y-91865705D01*
X165477117Y-91865708D01*
X165411292Y-91931533D01*
X165411289Y-91931536D01*
X165404388Y-91938438D01*
X165399955Y-91947136D01*
X165399954Y-91947139D01*
X165357695Y-92030075D01*
X165357693Y-92030080D01*
X165353263Y-92038775D01*
X165351736Y-92048411D01*
X165351735Y-92048417D01*
X165342235Y-92108404D01*
X165335647Y-92150000D01*
X165337174Y-92159641D01*
X165351735Y-92251582D01*
X165351736Y-92251586D01*
X165353263Y-92261225D01*
X165357694Y-92269921D01*
X165357695Y-92269924D01*
X165380950Y-92315563D01*
X165404388Y-92361562D01*
X165411292Y-92368466D01*
X165473181Y-92430355D01*
X165500061Y-92470583D01*
X165509500Y-92518036D01*
X165509500Y-93262328D01*
X165507469Y-93284679D01*
X165504437Y-93301225D01*
X165508916Y-93315600D01*
X165508917Y-93315603D01*
X165514934Y-93334913D01*
X165516945Y-93342126D01*
X165522767Y-93365749D01*
X165522769Y-93365753D01*
X165525392Y-93376393D01*
X165529200Y-93380692D01*
X165530909Y-93386174D01*
X165538660Y-93393925D01*
X165538661Y-93393926D01*
X165555852Y-93411117D01*
X165560986Y-93416570D01*
X165584396Y-93442994D01*
X165584311Y-93443068D01*
X165587880Y-93446914D01*
X165589765Y-93445030D01*
X166802553Y-94657819D01*
X166832803Y-94707182D01*
X166837345Y-94764898D01*
X166815190Y-94818385D01*
X166771167Y-94855985D01*
X166714872Y-94869500D01*
X165226128Y-94869500D01*
X165178675Y-94860061D01*
X165138447Y-94833181D01*
X163466706Y-93161440D01*
X163434612Y-93105852D01*
X163434613Y-93041664D01*
X163466706Y-92986078D01*
X163491169Y-92961616D01*
X163542294Y-92861279D01*
X163559910Y-92750054D01*
X163542294Y-92638829D01*
X163491169Y-92538492D01*
X163411541Y-92458864D01*
X163402839Y-92454430D01*
X163319903Y-92412171D01*
X163319900Y-92412170D01*
X163311204Y-92407739D01*
X163301565Y-92406212D01*
X163301561Y-92406211D01*
X163209620Y-92391650D01*
X163199979Y-92390123D01*
X163190338Y-92391650D01*
X163190336Y-92391650D01*
X163094477Y-92406832D01*
X163030642Y-92400123D01*
X162978714Y-92362394D01*
X162952607Y-92303757D01*
X162943842Y-92248417D01*
X162942315Y-92238775D01*
X162891190Y-92138438D01*
X162811562Y-92058810D01*
X162791165Y-92048417D01*
X162719924Y-92012117D01*
X162719921Y-92012116D01*
X162711225Y-92007685D01*
X162701586Y-92006158D01*
X162701582Y-92006157D01*
X162609641Y-91991596D01*
X162600000Y-91990069D01*
X162590359Y-91991596D01*
X162498417Y-92006157D01*
X162498411Y-92006158D01*
X162488775Y-92007685D01*
X162480080Y-92012115D01*
X162480075Y-92012117D01*
X162397139Y-92054376D01*
X162397136Y-92054377D01*
X162388438Y-92058810D01*
X162381536Y-92065711D01*
X162381533Y-92065714D01*
X162315714Y-92131533D01*
X162315711Y-92131536D01*
X162308810Y-92138438D01*
X162304377Y-92147136D01*
X162304376Y-92147139D01*
X162262117Y-92230075D01*
X162262115Y-92230080D01*
X162257685Y-92238775D01*
X162256158Y-92248411D01*
X162256157Y-92248417D01*
X162246461Y-92309641D01*
X162240069Y-92350000D01*
X162241596Y-92359641D01*
X162256157Y-92451582D01*
X162256158Y-92451586D01*
X162257685Y-92461225D01*
X162262116Y-92469921D01*
X162262117Y-92469924D01*
X162304376Y-92552860D01*
X162308810Y-92561562D01*
X162388438Y-92641190D01*
X162488775Y-92692315D01*
X162600000Y-92709931D01*
X162705502Y-92693221D01*
X162769335Y-92699930D01*
X162821263Y-92737657D01*
X162847371Y-92796295D01*
X162856136Y-92851636D01*
X162856137Y-92851640D01*
X162857664Y-92861279D01*
X162905332Y-92954832D01*
X162918786Y-93015020D01*
X162901579Y-93074246D01*
X162857968Y-93117857D01*
X162798741Y-93135064D01*
X162738552Y-93121609D01*
X162719925Y-93112117D01*
X162719919Y-93112115D01*
X162711225Y-93107685D01*
X162701586Y-93106158D01*
X162701582Y-93106157D01*
X162609641Y-93091596D01*
X162600000Y-93090069D01*
X162590359Y-93091596D01*
X162498417Y-93106157D01*
X162498411Y-93106158D01*
X162488775Y-93107685D01*
X162480080Y-93112115D01*
X162480075Y-93112117D01*
X162397139Y-93154376D01*
X162397136Y-93154377D01*
X162388438Y-93158810D01*
X162381536Y-93165711D01*
X162381533Y-93165714D01*
X162315714Y-93231533D01*
X162315711Y-93231536D01*
X162308810Y-93238438D01*
X162304377Y-93247136D01*
X162304376Y-93247139D01*
X162262117Y-93330075D01*
X162262115Y-93330080D01*
X162257685Y-93338775D01*
X162256158Y-93348411D01*
X162256157Y-93348417D01*
X162245364Y-93416570D01*
X162240069Y-93450000D01*
X162241596Y-93459641D01*
X162256157Y-93551582D01*
X162256158Y-93551586D01*
X162257685Y-93561225D01*
X162262116Y-93569921D01*
X162262117Y-93569924D01*
X162304376Y-93652860D01*
X162308810Y-93661562D01*
X162388438Y-93741190D01*
X162488775Y-93792315D01*
X162600000Y-93809931D01*
X162711225Y-93792315D01*
X162811562Y-93741190D01*
X162836062Y-93716689D01*
X162891648Y-93684596D01*
X162955836Y-93684595D01*
X163011424Y-93716689D01*
X163352554Y-94057819D01*
X163382804Y-94107182D01*
X163387346Y-94164898D01*
X163365191Y-94218385D01*
X163321168Y-94255985D01*
X163264873Y-94269500D01*
X162973614Y-94269500D01*
X162926161Y-94260061D01*
X162885933Y-94233181D01*
X162818466Y-94165714D01*
X162811562Y-94158810D01*
X162797791Y-94151793D01*
X162719924Y-94112117D01*
X162719921Y-94112116D01*
X162711225Y-94107685D01*
X162701586Y-94106158D01*
X162701582Y-94106157D01*
X162609641Y-94091596D01*
X162600000Y-94090069D01*
X162590359Y-94091596D01*
X162498417Y-94106157D01*
X162498411Y-94106158D01*
X162488775Y-94107685D01*
X162480080Y-94112115D01*
X162480075Y-94112117D01*
X162397139Y-94154376D01*
X162397136Y-94154377D01*
X162388438Y-94158810D01*
X162381536Y-94165711D01*
X162381533Y-94165714D01*
X162315714Y-94231533D01*
X162315711Y-94231536D01*
X162308810Y-94238438D01*
X162304377Y-94247136D01*
X162304376Y-94247139D01*
X162262117Y-94330075D01*
X162262115Y-94330080D01*
X162257685Y-94338775D01*
X162256158Y-94348411D01*
X162256157Y-94348417D01*
X162242567Y-94434226D01*
X162240069Y-94450000D01*
X162241596Y-94459641D01*
X162256157Y-94551582D01*
X162256158Y-94551586D01*
X162257685Y-94561225D01*
X162262116Y-94569921D01*
X162262117Y-94569924D01*
X162304376Y-94652860D01*
X162308810Y-94661562D01*
X162315714Y-94668466D01*
X162321448Y-94676358D01*
X162318788Y-94678290D01*
X162341661Y-94717906D01*
X162341661Y-94782094D01*
X162318788Y-94821709D01*
X162321448Y-94823642D01*
X162315713Y-94831534D01*
X162308810Y-94838438D01*
X162304377Y-94847136D01*
X162304376Y-94847139D01*
X162262117Y-94930075D01*
X162262115Y-94930080D01*
X162257685Y-94938775D01*
X162256158Y-94948411D01*
X162256157Y-94948417D01*
X162245499Y-95015714D01*
X162240069Y-95050000D01*
X162241596Y-95059641D01*
X162241596Y-95059643D01*
X162256316Y-95152585D01*
X162253618Y-95204075D01*
X162230210Y-95250016D01*
X162190140Y-95282465D01*
X162147140Y-95304375D01*
X162147135Y-95304378D01*
X162138438Y-95308810D01*
X162131536Y-95315711D01*
X162131533Y-95315714D01*
X162065714Y-95381533D01*
X162065711Y-95381536D01*
X162058810Y-95388438D01*
X162054377Y-95397136D01*
X162054376Y-95397139D01*
X162012117Y-95480075D01*
X162012115Y-95480080D01*
X162007685Y-95488775D01*
X162006158Y-95498411D01*
X162006157Y-95498417D01*
X162002982Y-95518466D01*
X161990069Y-95600000D01*
X161991596Y-95609641D01*
X162006157Y-95701582D01*
X162006158Y-95701586D01*
X162007685Y-95711225D01*
X162012116Y-95719921D01*
X162012117Y-95719924D01*
X162047114Y-95788607D01*
X162058810Y-95811562D01*
X162065714Y-95818465D01*
X162065714Y-95818466D01*
X162121136Y-95873888D01*
X162149790Y-95918649D01*
X162157073Y-95971294D01*
X162141648Y-96022153D01*
X162110497Y-96057210D01*
X162109437Y-96057751D01*
X162102541Y-96064646D01*
X162102538Y-96064649D01*
X162036713Y-96130474D01*
X162036710Y-96130477D01*
X162029809Y-96137379D01*
X162025376Y-96146077D01*
X162025375Y-96146080D01*
X161983116Y-96229016D01*
X161983114Y-96229021D01*
X161978684Y-96237716D01*
X161977157Y-96247352D01*
X161977156Y-96247358D01*
X161963261Y-96335089D01*
X161961068Y-96348941D01*
X161962595Y-96358582D01*
X161977156Y-96450523D01*
X161977157Y-96450527D01*
X161978684Y-96460166D01*
X162029809Y-96560503D01*
X162109437Y-96640131D01*
X162209774Y-96691256D01*
X162320999Y-96708872D01*
X162348951Y-96704444D01*
X162406663Y-96708985D01*
X162456028Y-96739236D01*
X162549857Y-96833065D01*
X162564225Y-96850305D01*
X162565228Y-96851758D01*
X162573782Y-96864150D01*
X162605026Y-96880548D01*
X162611540Y-96884222D01*
X162628543Y-96894500D01*
X162641752Y-96902485D01*
X162647485Y-96902831D01*
X162652569Y-96905500D01*
X162687850Y-96905500D01*
X162695335Y-96905725D01*
X162730568Y-96907857D01*
X162730560Y-96907976D01*
X162735805Y-96908175D01*
X162735805Y-96905500D01*
X162942386Y-96905500D01*
X162998681Y-96919015D01*
X163042704Y-96956615D01*
X163064859Y-97010102D01*
X163060317Y-97067818D01*
X163030067Y-97117181D01*
X162965714Y-97181533D01*
X162965711Y-97181536D01*
X162958810Y-97188438D01*
X162954377Y-97197136D01*
X162954376Y-97197139D01*
X162912117Y-97280075D01*
X162912115Y-97280080D01*
X162907685Y-97288775D01*
X162906158Y-97298411D01*
X162906157Y-97298417D01*
X162892262Y-97386148D01*
X162890069Y-97400000D01*
X162891596Y-97409641D01*
X162906157Y-97501582D01*
X162906158Y-97501586D01*
X162907685Y-97511225D01*
X162912116Y-97519921D01*
X162912117Y-97519924D01*
X162931724Y-97558404D01*
X162958810Y-97611562D01*
X163038438Y-97691190D01*
X163138775Y-97742315D01*
X163250000Y-97759931D01*
X163279648Y-97755235D01*
X163337358Y-97759775D01*
X163386720Y-97790021D01*
X163416972Y-97839379D01*
X163421521Y-97897091D01*
X163405426Y-97935962D01*
X163407382Y-97936959D01*
X163360689Y-98028596D01*
X163360687Y-98028601D01*
X163356257Y-98037296D01*
X163354730Y-98046932D01*
X163354729Y-98046938D01*
X163348612Y-98085563D01*
X163338641Y-98148521D01*
X163340168Y-98158162D01*
X163354729Y-98250103D01*
X163354730Y-98250107D01*
X163356257Y-98259746D01*
X163360688Y-98268442D01*
X163360689Y-98268445D01*
X163392080Y-98330052D01*
X163407382Y-98360083D01*
X163487010Y-98439711D01*
X163587347Y-98490836D01*
X163698572Y-98508452D01*
X163809797Y-98490836D01*
X163910134Y-98439711D01*
X163989762Y-98360083D01*
X164015250Y-98310060D01*
X164052847Y-98266041D01*
X164106334Y-98243886D01*
X164164050Y-98248428D01*
X164213413Y-98278678D01*
X168167797Y-102233062D01*
X168182162Y-102250297D01*
X168191724Y-102264150D01*
X168205052Y-102271145D01*
X168205056Y-102271148D01*
X168222984Y-102280557D01*
X168229511Y-102284238D01*
X168259693Y-102302484D01*
X168265424Y-102302830D01*
X168270511Y-102305500D01*
X168305807Y-102305500D01*
X168313293Y-102305726D01*
X168348509Y-102307856D01*
X168348501Y-102307976D01*
X168353744Y-102308175D01*
X168353744Y-102305500D01*
X171576623Y-102305500D01*
X171614941Y-102311569D01*
X171649508Y-102329182D01*
X171656536Y-102334288D01*
X171663438Y-102341190D01*
X171763775Y-102392315D01*
X171875000Y-102409931D01*
X171986225Y-102392315D01*
X172086562Y-102341190D01*
X172166190Y-102261562D01*
X172217315Y-102161225D01*
X172234931Y-102050000D01*
X172217315Y-101938775D01*
X172166190Y-101838438D01*
X172086562Y-101758810D01*
X172077860Y-101754376D01*
X171994924Y-101712117D01*
X171994921Y-101712116D01*
X171986225Y-101707685D01*
X171976586Y-101706158D01*
X171976582Y-101706157D01*
X171884641Y-101691596D01*
X171875000Y-101690069D01*
X171865359Y-101691596D01*
X171773417Y-101706157D01*
X171773411Y-101706158D01*
X171763775Y-101707685D01*
X171755080Y-101712115D01*
X171755075Y-101712117D01*
X171672139Y-101754376D01*
X171672136Y-101754377D01*
X171663438Y-101758810D01*
X171656536Y-101765711D01*
X171656533Y-101765714D01*
X171590714Y-101831533D01*
X171590711Y-101831536D01*
X171583810Y-101838438D01*
X171579379Y-101847133D01*
X171579379Y-101847134D01*
X171578148Y-101849548D01*
X171564264Y-101876797D01*
X171518572Y-101926227D01*
X171453782Y-101944500D01*
X168441128Y-101944500D01*
X168393675Y-101935061D01*
X168353447Y-101908181D01*
X167410162Y-100964896D01*
X167378766Y-100911810D01*
X167376829Y-100850165D01*
X167404830Y-100795212D01*
X167455841Y-100760545D01*
X167517239Y-100754742D01*
X167550000Y-100759931D01*
X167661225Y-100742315D01*
X167761562Y-100691190D01*
X167841190Y-100611562D01*
X167892315Y-100511225D01*
X167909931Y-100400000D01*
X167892315Y-100288775D01*
X167841190Y-100188438D01*
X167761562Y-100108810D01*
X167744272Y-100100000D01*
X170640069Y-100100000D01*
X170641596Y-100109641D01*
X170656157Y-100201582D01*
X170656158Y-100201586D01*
X170657685Y-100211225D01*
X170708810Y-100311562D01*
X170788438Y-100391190D01*
X170888775Y-100442315D01*
X171000000Y-100459931D01*
X171111225Y-100442315D01*
X171211562Y-100391190D01*
X171291190Y-100311562D01*
X171342315Y-100211225D01*
X171359931Y-100100000D01*
X171342315Y-99988775D01*
X171291190Y-99888438D01*
X171211562Y-99808810D01*
X171199885Y-99802860D01*
X171119924Y-99762117D01*
X171119921Y-99762116D01*
X171111225Y-99757685D01*
X171101586Y-99756158D01*
X171101582Y-99756157D01*
X171009641Y-99741596D01*
X171000000Y-99740069D01*
X170990359Y-99741596D01*
X170898417Y-99756157D01*
X170898411Y-99756158D01*
X170888775Y-99757685D01*
X170880080Y-99762115D01*
X170880075Y-99762117D01*
X170797139Y-99804376D01*
X170797136Y-99804377D01*
X170788438Y-99808810D01*
X170781536Y-99815711D01*
X170781533Y-99815714D01*
X170715714Y-99881533D01*
X170715711Y-99881536D01*
X170708810Y-99888438D01*
X170704377Y-99897136D01*
X170704376Y-99897139D01*
X170662117Y-99980075D01*
X170662115Y-99980080D01*
X170657685Y-99988775D01*
X170656158Y-99998411D01*
X170656157Y-99998417D01*
X170649561Y-100040069D01*
X170640069Y-100100000D01*
X167744272Y-100100000D01*
X167669924Y-100062117D01*
X167669921Y-100062116D01*
X167661225Y-100057685D01*
X167651586Y-100056158D01*
X167651582Y-100056157D01*
X167559641Y-100041596D01*
X167550000Y-100040069D01*
X167540359Y-100041596D01*
X167448417Y-100056157D01*
X167448411Y-100056158D01*
X167438775Y-100057685D01*
X167430080Y-100062115D01*
X167430075Y-100062117D01*
X167347139Y-100104376D01*
X167347136Y-100104377D01*
X167338438Y-100108810D01*
X167331536Y-100115711D01*
X167331533Y-100115714D01*
X167265714Y-100181533D01*
X167265711Y-100181536D01*
X167258810Y-100188438D01*
X167254377Y-100197136D01*
X167254376Y-100197139D01*
X167212117Y-100280075D01*
X167212115Y-100280080D01*
X167207685Y-100288775D01*
X167206158Y-100298411D01*
X167206157Y-100298417D01*
X167202982Y-100318466D01*
X167190069Y-100400000D01*
X167195257Y-100432761D01*
X167189453Y-100494160D01*
X167154786Y-100545170D01*
X167099833Y-100573170D01*
X167038189Y-100571232D01*
X166985103Y-100539837D01*
X166045266Y-99600000D01*
X174440069Y-99600000D01*
X174441596Y-99609641D01*
X174456157Y-99701582D01*
X174456158Y-99701586D01*
X174457685Y-99711225D01*
X174508810Y-99811562D01*
X174588438Y-99891190D01*
X174688775Y-99942315D01*
X174800000Y-99959931D01*
X174911225Y-99942315D01*
X175011562Y-99891190D01*
X175091190Y-99811562D01*
X175142315Y-99711225D01*
X175159931Y-99600000D01*
X175142315Y-99488775D01*
X175091190Y-99388438D01*
X175011562Y-99308810D01*
X174974497Y-99289924D01*
X174919924Y-99262117D01*
X174919921Y-99262116D01*
X174911225Y-99257685D01*
X174901586Y-99256158D01*
X174901582Y-99256157D01*
X174809641Y-99241596D01*
X174800000Y-99240069D01*
X174790359Y-99241596D01*
X174698417Y-99256157D01*
X174698411Y-99256158D01*
X174688775Y-99257685D01*
X174680080Y-99262115D01*
X174680075Y-99262117D01*
X174597139Y-99304376D01*
X174597136Y-99304377D01*
X174588438Y-99308810D01*
X174581536Y-99315711D01*
X174581533Y-99315714D01*
X174515714Y-99381533D01*
X174515711Y-99381536D01*
X174508810Y-99388438D01*
X174504377Y-99397136D01*
X174504376Y-99397139D01*
X174462117Y-99480075D01*
X174462115Y-99480080D01*
X174457685Y-99488775D01*
X174456158Y-99498411D01*
X174456157Y-99498417D01*
X174447999Y-99549931D01*
X174440069Y-99600000D01*
X166045266Y-99600000D01*
X165615266Y-99170000D01*
X171210069Y-99170000D01*
X171211596Y-99179641D01*
X171226157Y-99271582D01*
X171226158Y-99271586D01*
X171227685Y-99281225D01*
X171232116Y-99289921D01*
X171232117Y-99289924D01*
X171248470Y-99322017D01*
X171278810Y-99381562D01*
X171358438Y-99461190D01*
X171458775Y-99512315D01*
X171570000Y-99529931D01*
X171681225Y-99512315D01*
X171781562Y-99461190D01*
X171861190Y-99381562D01*
X171912315Y-99281225D01*
X171926763Y-99190000D01*
X173160069Y-99190000D01*
X173161596Y-99199641D01*
X173176157Y-99291582D01*
X173176158Y-99291586D01*
X173177685Y-99301225D01*
X173182116Y-99309921D01*
X173182117Y-99309924D01*
X173218619Y-99381562D01*
X173228810Y-99401562D01*
X173308438Y-99481190D01*
X173408775Y-99532315D01*
X173520000Y-99549931D01*
X173631225Y-99532315D01*
X173731562Y-99481190D01*
X173811190Y-99401562D01*
X173862315Y-99301225D01*
X173879931Y-99190000D01*
X173862315Y-99078775D01*
X173811190Y-98978438D01*
X173731562Y-98898810D01*
X173705860Y-98885714D01*
X173639924Y-98852117D01*
X173639921Y-98852116D01*
X173631225Y-98847685D01*
X173621586Y-98846158D01*
X173621582Y-98846157D01*
X173529641Y-98831596D01*
X173520000Y-98830069D01*
X173510359Y-98831596D01*
X173418417Y-98846157D01*
X173418411Y-98846158D01*
X173408775Y-98847685D01*
X173400080Y-98852115D01*
X173400075Y-98852117D01*
X173317139Y-98894376D01*
X173317136Y-98894377D01*
X173308438Y-98898810D01*
X173301536Y-98905711D01*
X173301533Y-98905714D01*
X173235714Y-98971533D01*
X173235711Y-98971536D01*
X173228810Y-98978438D01*
X173224377Y-98987136D01*
X173224376Y-98987139D01*
X173182117Y-99070075D01*
X173182115Y-99070080D01*
X173177685Y-99078775D01*
X173176158Y-99088411D01*
X173176157Y-99088417D01*
X173163237Y-99170000D01*
X173160069Y-99190000D01*
X171926763Y-99190000D01*
X171929931Y-99170000D01*
X171912315Y-99058775D01*
X171861190Y-98958438D01*
X171781562Y-98878810D01*
X171717478Y-98846157D01*
X171689924Y-98832117D01*
X171689921Y-98832116D01*
X171681225Y-98827685D01*
X171671586Y-98826158D01*
X171671582Y-98826157D01*
X171579641Y-98811596D01*
X171570000Y-98810069D01*
X171560359Y-98811596D01*
X171468417Y-98826157D01*
X171468411Y-98826158D01*
X171458775Y-98827685D01*
X171450080Y-98832115D01*
X171450075Y-98832117D01*
X171367139Y-98874376D01*
X171367136Y-98874377D01*
X171358438Y-98878810D01*
X171351536Y-98885711D01*
X171351533Y-98885714D01*
X171285714Y-98951533D01*
X171285711Y-98951536D01*
X171278810Y-98958438D01*
X171274377Y-98967136D01*
X171274376Y-98967139D01*
X171232117Y-99050075D01*
X171232115Y-99050080D01*
X171227685Y-99058775D01*
X171226158Y-99068411D01*
X171226157Y-99068417D01*
X171222990Y-99088417D01*
X171210069Y-99170000D01*
X165615266Y-99170000D01*
X163707200Y-97261935D01*
X163692835Y-97244699D01*
X163683276Y-97230850D01*
X163669944Y-97223852D01*
X163669943Y-97223852D01*
X163652020Y-97214445D01*
X163645496Y-97210766D01*
X163624692Y-97198189D01*
X163624691Y-97198188D01*
X163615306Y-97192515D01*
X163609573Y-97192168D01*
X163604489Y-97189500D01*
X163593523Y-97189500D01*
X163593363Y-97189450D01*
X163591556Y-97189090D01*
X163587381Y-97188994D01*
X163574818Y-97185898D01*
X163574850Y-97185767D01*
X163546161Y-97180061D01*
X163505933Y-97153181D01*
X163469933Y-97117181D01*
X163439683Y-97067818D01*
X163435141Y-97010102D01*
X163457296Y-96956615D01*
X163501319Y-96919015D01*
X163557614Y-96905500D01*
X167398719Y-96905500D01*
X167459305Y-96921309D01*
X167504443Y-96964705D01*
X167522623Y-97024622D01*
X167512671Y-97069999D01*
X167515132Y-97070799D01*
X167512116Y-97080076D01*
X167507685Y-97088775D01*
X167506158Y-97098411D01*
X167506157Y-97098417D01*
X167493991Y-97175234D01*
X167490069Y-97200000D01*
X167491596Y-97209641D01*
X167506157Y-97301582D01*
X167506158Y-97301586D01*
X167507685Y-97311225D01*
X167558810Y-97411562D01*
X167638438Y-97491190D01*
X167738775Y-97542315D01*
X167850000Y-97559931D01*
X167961225Y-97542315D01*
X168061562Y-97491190D01*
X168141190Y-97411562D01*
X168192315Y-97311225D01*
X168209931Y-97200000D01*
X168192315Y-97088775D01*
X168187882Y-97080075D01*
X168184868Y-97070799D01*
X168187328Y-97069999D01*
X168177377Y-97024622D01*
X168195557Y-96964705D01*
X168240695Y-96921309D01*
X168301281Y-96905500D01*
X168623873Y-96905500D01*
X168671326Y-96914939D01*
X168711554Y-96941819D01*
X170177797Y-98408062D01*
X170192162Y-98425297D01*
X170201724Y-98439150D01*
X170215052Y-98446145D01*
X170215056Y-98446148D01*
X170232984Y-98455557D01*
X170239511Y-98459238D01*
X170269693Y-98477484D01*
X170275424Y-98477830D01*
X170280511Y-98480500D01*
X170315808Y-98480500D01*
X170323293Y-98480725D01*
X170358510Y-98482856D01*
X170358502Y-98482976D01*
X170363745Y-98483175D01*
X170363745Y-98480500D01*
X175797328Y-98480500D01*
X175819679Y-98482530D01*
X175836225Y-98485563D01*
X175869934Y-98475057D01*
X175877124Y-98473053D01*
X175884862Y-98471146D01*
X175900731Y-98467236D01*
X175900731Y-98467235D01*
X175911393Y-98464608D01*
X175915692Y-98460799D01*
X175921174Y-98459091D01*
X175946147Y-98434116D01*
X175951566Y-98429016D01*
X175977994Y-98405604D01*
X175977994Y-98405603D01*
X175977996Y-98405602D01*
X175978075Y-98405691D01*
X175981920Y-98402124D01*
X175980030Y-98400234D01*
X176522933Y-97857331D01*
X177083069Y-97297195D01*
X177100304Y-97282831D01*
X177114150Y-97273276D01*
X177130555Y-97242015D01*
X177134216Y-97235525D01*
X177152485Y-97205306D01*
X177152831Y-97199572D01*
X177155500Y-97194489D01*
X177155500Y-97159208D01*
X177155726Y-97151722D01*
X177157857Y-97116490D01*
X177157976Y-97116497D01*
X177158175Y-97111253D01*
X177155500Y-97111253D01*
X177155500Y-95902673D01*
X177157531Y-95880321D01*
X177157558Y-95880172D01*
X177160563Y-95863776D01*
X177150063Y-95830081D01*
X177148051Y-95822863D01*
X177147182Y-95819337D01*
X177139608Y-95788607D01*
X177135799Y-95784307D01*
X177134091Y-95778826D01*
X177109146Y-95753881D01*
X177104012Y-95748428D01*
X177080604Y-95722006D01*
X177080699Y-95721921D01*
X177077132Y-95718070D01*
X177075234Y-95719969D01*
X176640295Y-95285030D01*
X176610044Y-95235665D01*
X176605503Y-95177953D01*
X176609931Y-95150000D01*
X176592315Y-95038775D01*
X176541190Y-94938438D01*
X176461562Y-94858810D01*
X176438657Y-94847139D01*
X176369924Y-94812117D01*
X176369921Y-94812116D01*
X176361225Y-94807685D01*
X176351586Y-94806158D01*
X176351582Y-94806157D01*
X176259641Y-94791596D01*
X176250000Y-94790069D01*
X176240359Y-94791596D01*
X176148417Y-94806157D01*
X176148411Y-94806158D01*
X176138775Y-94807685D01*
X176130080Y-94812115D01*
X176130075Y-94812117D01*
X176047139Y-94854376D01*
X176047136Y-94854377D01*
X176038438Y-94858810D01*
X176031536Y-94865711D01*
X176031533Y-94865714D01*
X175992181Y-94905067D01*
X175942818Y-94935317D01*
X175885102Y-94939859D01*
X175831615Y-94917704D01*
X175794015Y-94873681D01*
X175780500Y-94817386D01*
X175780500Y-94179500D01*
X175797113Y-94117500D01*
X175842500Y-94072113D01*
X175904500Y-94055500D01*
X175951623Y-94055500D01*
X175989941Y-94061569D01*
X176024508Y-94079182D01*
X176031536Y-94084288D01*
X176038438Y-94091190D01*
X176047133Y-94095620D01*
X176047134Y-94095621D01*
X176094831Y-94119924D01*
X176138775Y-94142315D01*
X176250000Y-94159931D01*
X176361225Y-94142315D01*
X176461562Y-94091190D01*
X176541190Y-94011562D01*
X176592315Y-93911225D01*
X176609931Y-93800000D01*
X176592315Y-93688775D01*
X176541190Y-93588438D01*
X176461562Y-93508810D01*
X176452860Y-93504376D01*
X176369924Y-93462117D01*
X176369921Y-93462116D01*
X176361225Y-93457685D01*
X176351586Y-93456158D01*
X176351582Y-93456157D01*
X176259641Y-93441596D01*
X176250000Y-93440069D01*
X176240359Y-93441596D01*
X176148417Y-93456157D01*
X176148411Y-93456158D01*
X176138775Y-93457685D01*
X176130080Y-93462115D01*
X176130075Y-93462117D01*
X176047139Y-93504376D01*
X176047136Y-93504377D01*
X176038438Y-93508810D01*
X176031536Y-93515711D01*
X176031533Y-93515714D01*
X175992181Y-93555067D01*
X175942818Y-93585317D01*
X175885102Y-93589859D01*
X175831615Y-93567704D01*
X175794015Y-93523681D01*
X175780500Y-93467386D01*
X175780500Y-92902678D01*
X175782532Y-92880324D01*
X175782849Y-92878589D01*
X175785564Y-92863776D01*
X175775050Y-92830040D01*
X175773054Y-92822876D01*
X175764608Y-92788607D01*
X175760800Y-92784309D01*
X175759092Y-92778826D01*
X175734139Y-92753873D01*
X175729005Y-92748420D01*
X175705604Y-92722006D01*
X175705699Y-92721921D01*
X175702134Y-92718071D01*
X175700236Y-92719970D01*
X174980265Y-92000000D01*
X176640069Y-92000000D01*
X176641596Y-92009641D01*
X176656157Y-92101582D01*
X176656158Y-92101586D01*
X176657685Y-92111225D01*
X176662116Y-92119921D01*
X176662117Y-92119924D01*
X176692766Y-92180075D01*
X176708810Y-92211562D01*
X176788438Y-92291190D01*
X176888775Y-92342315D01*
X177000000Y-92359931D01*
X177111225Y-92342315D01*
X177211562Y-92291190D01*
X177291190Y-92211562D01*
X177342315Y-92111225D01*
X177359931Y-92000000D01*
X177342315Y-91888775D01*
X177291190Y-91788438D01*
X177211562Y-91708810D01*
X177194056Y-91699890D01*
X177119924Y-91662117D01*
X177119921Y-91662116D01*
X177111225Y-91657685D01*
X177101586Y-91656158D01*
X177101582Y-91656157D01*
X177009641Y-91641596D01*
X177000000Y-91640069D01*
X176990359Y-91641596D01*
X176898417Y-91656157D01*
X176898411Y-91656158D01*
X176888775Y-91657685D01*
X176880080Y-91662115D01*
X176880075Y-91662117D01*
X176797139Y-91704376D01*
X176797136Y-91704377D01*
X176788438Y-91708810D01*
X176781536Y-91715711D01*
X176781533Y-91715714D01*
X176715714Y-91781533D01*
X176715711Y-91781536D01*
X176708810Y-91788438D01*
X176704377Y-91797136D01*
X176704376Y-91797139D01*
X176662117Y-91880075D01*
X176662115Y-91880080D01*
X176657685Y-91888775D01*
X176656158Y-91898411D01*
X176656157Y-91898417D01*
X176646468Y-91959595D01*
X176640069Y-92000000D01*
X174980265Y-92000000D01*
X174741818Y-91761553D01*
X174714939Y-91721326D01*
X174705500Y-91673873D01*
X174705500Y-91057801D01*
X174718616Y-91002296D01*
X174755190Y-90958534D01*
X174807483Y-90935771D01*
X174864435Y-90938824D01*
X174962100Y-90967500D01*
X174979481Y-90970000D01*
X175105522Y-90970000D01*
X175122898Y-90967501D01*
X175156538Y-90957623D01*
X175166413Y-90951643D01*
X175918585Y-90951643D01*
X175928461Y-90957623D01*
X175962101Y-90967501D01*
X175979481Y-90970000D01*
X176105522Y-90970000D01*
X176122898Y-90967501D01*
X176156538Y-90957623D01*
X176166413Y-90951643D01*
X176160613Y-90941666D01*
X176054042Y-90835095D01*
X176042500Y-90828431D01*
X176030956Y-90835096D01*
X175924386Y-90941665D01*
X175918585Y-90951643D01*
X175166413Y-90951643D01*
X175160613Y-90941666D01*
X174776628Y-90557681D01*
X174744534Y-90502094D01*
X174744534Y-90470000D01*
X175400931Y-90470000D01*
X175407595Y-90481542D01*
X175516378Y-90590325D01*
X175529711Y-90597761D01*
X175536969Y-90597437D01*
X175548037Y-90597438D01*
X175555286Y-90597761D01*
X175568619Y-90590326D01*
X175677404Y-90481542D01*
X175684068Y-90470000D01*
X176400931Y-90470000D01*
X176407595Y-90481542D01*
X176516378Y-90590325D01*
X176526379Y-90595902D01*
X176531042Y-90585445D01*
X176546380Y-90478777D01*
X176546380Y-90461223D01*
X176531043Y-90354554D01*
X176526379Y-90344096D01*
X176516378Y-90349673D01*
X176407596Y-90458456D01*
X176400931Y-90470000D01*
X175684068Y-90470000D01*
X175677403Y-90458456D01*
X175568621Y-90349674D01*
X175555285Y-90342237D01*
X175548037Y-90342561D01*
X175536977Y-90342561D01*
X175529713Y-90342236D01*
X175516378Y-90349673D01*
X175407596Y-90458456D01*
X175400931Y-90470000D01*
X174744534Y-90470000D01*
X174744534Y-90437906D01*
X174776628Y-90382319D01*
X175127404Y-90031542D01*
X175134068Y-90020000D01*
X175950931Y-90020000D01*
X175957595Y-90031542D01*
X176030957Y-90104904D01*
X176042499Y-90111568D01*
X176054042Y-90104904D01*
X176127404Y-90031542D01*
X176134068Y-90020000D01*
X176127404Y-90008457D01*
X176054042Y-89935095D01*
X176042500Y-89928431D01*
X176030957Y-89935095D01*
X175957595Y-90008457D01*
X175950931Y-90020000D01*
X175134068Y-90020000D01*
X175127404Y-90008457D01*
X174776628Y-89657681D01*
X174744534Y-89602094D01*
X174744534Y-89570000D01*
X175400931Y-89570000D01*
X175407595Y-89581542D01*
X175516378Y-89690325D01*
X175529711Y-89697761D01*
X175536969Y-89697437D01*
X175548037Y-89697438D01*
X175555286Y-89697761D01*
X175568619Y-89690326D01*
X175677404Y-89581542D01*
X175684068Y-89570000D01*
X176400931Y-89570000D01*
X176407595Y-89581542D01*
X176516378Y-89690325D01*
X176526379Y-89695902D01*
X176531042Y-89685445D01*
X176546380Y-89578777D01*
X176546380Y-89561223D01*
X176531043Y-89454554D01*
X176526379Y-89444096D01*
X176516378Y-89449673D01*
X176407596Y-89558456D01*
X176400931Y-89570000D01*
X175684068Y-89570000D01*
X175677403Y-89558456D01*
X175568621Y-89449674D01*
X175555285Y-89442237D01*
X175548037Y-89442561D01*
X175536977Y-89442561D01*
X175529713Y-89442236D01*
X175516378Y-89449673D01*
X175407596Y-89558456D01*
X175400931Y-89570000D01*
X174744534Y-89570000D01*
X174744534Y-89537906D01*
X174776628Y-89482319D01*
X175008946Y-89250000D01*
X176990069Y-89250000D01*
X176991596Y-89259641D01*
X177006157Y-89351582D01*
X177006158Y-89351586D01*
X177007685Y-89361225D01*
X177012116Y-89369921D01*
X177012117Y-89369924D01*
X177048963Y-89442236D01*
X177058810Y-89461562D01*
X177138438Y-89541190D01*
X177238775Y-89592315D01*
X177350000Y-89609931D01*
X177461225Y-89592315D01*
X177561562Y-89541190D01*
X177641190Y-89461562D01*
X177692315Y-89361225D01*
X177709931Y-89250000D01*
X177692315Y-89138775D01*
X177641190Y-89038438D01*
X177561562Y-88958810D01*
X177552860Y-88954376D01*
X177469924Y-88912117D01*
X177469921Y-88912116D01*
X177461225Y-88907685D01*
X177451586Y-88906158D01*
X177451582Y-88906157D01*
X177359641Y-88891596D01*
X177350000Y-88890069D01*
X177340359Y-88891596D01*
X177248417Y-88906157D01*
X177248411Y-88906158D01*
X177238775Y-88907685D01*
X177230080Y-88912115D01*
X177230075Y-88912117D01*
X177147139Y-88954376D01*
X177147136Y-88954377D01*
X177138438Y-88958810D01*
X177131536Y-88965711D01*
X177131533Y-88965714D01*
X177065714Y-89031533D01*
X177065711Y-89031536D01*
X177058810Y-89038438D01*
X177054377Y-89047136D01*
X177054376Y-89047139D01*
X177012117Y-89130075D01*
X177012115Y-89130080D01*
X177007685Y-89138775D01*
X177006158Y-89148411D01*
X177006157Y-89148417D01*
X176997211Y-89204904D01*
X176990069Y-89250000D01*
X175008946Y-89250000D01*
X175127404Y-89131542D01*
X175134068Y-89120000D01*
X175950931Y-89120000D01*
X175957595Y-89131542D01*
X176030957Y-89204904D01*
X176042500Y-89211568D01*
X176054042Y-89204904D01*
X176127404Y-89131542D01*
X176134068Y-89120000D01*
X176127404Y-89108457D01*
X176054042Y-89035095D01*
X176042500Y-89028431D01*
X176030957Y-89035095D01*
X175957595Y-89108457D01*
X175950931Y-89120000D01*
X175134068Y-89120000D01*
X175127404Y-89108457D01*
X174776628Y-88757681D01*
X174744534Y-88702094D01*
X174744534Y-88670000D01*
X175400931Y-88670000D01*
X175407595Y-88681542D01*
X175516378Y-88790325D01*
X175529711Y-88797761D01*
X175536969Y-88797437D01*
X175548037Y-88797438D01*
X175555286Y-88797761D01*
X175568619Y-88790326D01*
X175677404Y-88681542D01*
X175684068Y-88670000D01*
X176400931Y-88670000D01*
X176407595Y-88681542D01*
X176516378Y-88790325D01*
X176526379Y-88795902D01*
X176531042Y-88785445D01*
X176546380Y-88678777D01*
X176546380Y-88661223D01*
X176531043Y-88554554D01*
X176526379Y-88544096D01*
X176516378Y-88549673D01*
X176407596Y-88658456D01*
X176400931Y-88670000D01*
X175684068Y-88670000D01*
X175677403Y-88658456D01*
X175568621Y-88549674D01*
X175555285Y-88542237D01*
X175548037Y-88542561D01*
X175536977Y-88542561D01*
X175529713Y-88542236D01*
X175516378Y-88549673D01*
X175407596Y-88658456D01*
X175400931Y-88670000D01*
X174744534Y-88670000D01*
X174744534Y-88637906D01*
X174776628Y-88582319D01*
X175042500Y-88316447D01*
X175160612Y-88198333D01*
X175166413Y-88188354D01*
X175918585Y-88188354D01*
X175924385Y-88198332D01*
X176030956Y-88304903D01*
X176042500Y-88311568D01*
X176054042Y-88304904D01*
X176160612Y-88198333D01*
X176166413Y-88188354D01*
X176156540Y-88182377D01*
X176122899Y-88172498D01*
X176105519Y-88170000D01*
X175979481Y-88170000D01*
X175962099Y-88172499D01*
X175928457Y-88182377D01*
X175918585Y-88188354D01*
X175166413Y-88188354D01*
X175156540Y-88182377D01*
X175122899Y-88172498D01*
X175105519Y-88170000D01*
X174979481Y-88170000D01*
X174962100Y-88172499D01*
X174864435Y-88201176D01*
X174807483Y-88204229D01*
X174755190Y-88181466D01*
X174718616Y-88137704D01*
X174705500Y-88082199D01*
X174705500Y-87392672D01*
X174707531Y-87370320D01*
X174710563Y-87353775D01*
X174700062Y-87320079D01*
X174698051Y-87312863D01*
X174692235Y-87289267D01*
X174689608Y-87278607D01*
X174685799Y-87274308D01*
X174684091Y-87268825D01*
X174659139Y-87243873D01*
X174654005Y-87238420D01*
X174630604Y-87212006D01*
X174630699Y-87211921D01*
X174627133Y-87208071D01*
X174625235Y-87209970D01*
X174417200Y-87001935D01*
X174402835Y-86984699D01*
X174393276Y-86970850D01*
X174379944Y-86963852D01*
X174379943Y-86963852D01*
X174362020Y-86954445D01*
X174355496Y-86950766D01*
X174334692Y-86938189D01*
X174334691Y-86938188D01*
X174325306Y-86932515D01*
X174319573Y-86932168D01*
X174314489Y-86929500D01*
X174303523Y-86929500D01*
X174279197Y-86929500D01*
X174271712Y-86929274D01*
X174236490Y-86927144D01*
X174236497Y-86927023D01*
X174231255Y-86926826D01*
X174231255Y-86929500D01*
X173932317Y-86929500D01*
X173876022Y-86915985D01*
X173842378Y-86887249D01*
X173841190Y-86888438D01*
X173761562Y-86808810D01*
X173695129Y-86774960D01*
X173669924Y-86762117D01*
X173669921Y-86762116D01*
X173661225Y-86757685D01*
X173651586Y-86756158D01*
X173651582Y-86756157D01*
X173634601Y-86753468D01*
X173581114Y-86731313D01*
X173543515Y-86687289D01*
X173530000Y-86630995D01*
X173530000Y-85502412D01*
X173542760Y-85447625D01*
X173578413Y-85404114D01*
X173629622Y-85380832D01*
X173685848Y-85382572D01*
X173743069Y-85397778D01*
X173862024Y-85429391D01*
X173869394Y-85431598D01*
X174453456Y-85626561D01*
X174460703Y-85629234D01*
X174493478Y-85642500D01*
X175031455Y-85860247D01*
X175038535Y-85863373D01*
X175593760Y-86129538D01*
X175600611Y-86133090D01*
X176138152Y-86433372D01*
X176144773Y-86437347D01*
X176533126Y-86687289D01*
X176662527Y-86770571D01*
X176668896Y-86774956D01*
X177164876Y-87139846D01*
X177170941Y-87144607D01*
X177544036Y-87456763D01*
X177643178Y-87539712D01*
X177648951Y-87544857D01*
X177824300Y-87711225D01*
X178095620Y-87968650D01*
X178101065Y-87974149D01*
X178329755Y-88220000D01*
X178520426Y-88424978D01*
X178525513Y-88430801D01*
X178649760Y-88582319D01*
X178915935Y-88906915D01*
X178920645Y-88913039D01*
X179280608Y-89412583D01*
X179284921Y-89418978D01*
X179438676Y-89663141D01*
X179613035Y-89940024D01*
X179616952Y-89946699D01*
X179911894Y-90487146D01*
X179915388Y-90494051D01*
X180176057Y-91051875D01*
X180179113Y-91058985D01*
X180404476Y-91631983D01*
X180407082Y-91639270D01*
X180596257Y-92225191D01*
X180598404Y-92232626D01*
X180706531Y-92656299D01*
X180707442Y-92713803D01*
X180682313Y-92765532D01*
X180636549Y-92800362D01*
X180579994Y-92810798D01*
X180435266Y-92803331D01*
X180435261Y-92803331D01*
X180431271Y-92803126D01*
X180429233Y-92802157D01*
X180427106Y-92802912D01*
X180427104Y-92802912D01*
X180421037Y-92805066D01*
X180421037Y-92805067D01*
X180418269Y-92810880D01*
X180418268Y-92810881D01*
X180417298Y-92812921D01*
X180418053Y-92815049D01*
X180417755Y-92820816D01*
X180417755Y-92820818D01*
X180143436Y-98138467D01*
X180143436Y-98138472D01*
X180143231Y-98142464D01*
X180142260Y-98144504D01*
X180143016Y-98146632D01*
X180143016Y-98146633D01*
X180145171Y-98152700D01*
X180153024Y-98156439D01*
X180155155Y-98155682D01*
X180303878Y-98163354D01*
X180359055Y-98179553D01*
X180400993Y-98218907D01*
X180420666Y-98272948D01*
X180413842Y-98330052D01*
X180262692Y-98740353D01*
X180259791Y-98747528D01*
X180011330Y-99310872D01*
X180007988Y-99317852D01*
X179724864Y-99864611D01*
X179721093Y-99871369D01*
X179404406Y-100399414D01*
X179400220Y-100405923D01*
X179051228Y-100913157D01*
X179046645Y-100919393D01*
X178666674Y-101403891D01*
X178661710Y-101409829D01*
X178252262Y-101869673D01*
X178246938Y-101875289D01*
X177809601Y-102308696D01*
X177803936Y-102313969D01*
X177340413Y-102719252D01*
X177334431Y-102724162D01*
X176846535Y-103099736D01*
X176840258Y-103104263D01*
X176329891Y-103448665D01*
X176323345Y-103452792D01*
X175792461Y-103764703D01*
X175785669Y-103768413D01*
X175236378Y-104046591D01*
X175229368Y-104049870D01*
X174663802Y-104293237D01*
X174656601Y-104296073D01*
X174076946Y-104503689D01*
X174069583Y-104506070D01*
X173478102Y-104677123D01*
X173470604Y-104679040D01*
X172869600Y-104812864D01*
X172861997Y-104814309D01*
X172253842Y-104910377D01*
X172246164Y-104911346D01*
X171633164Y-104969293D01*
X171625440Y-104969780D01*
X171010050Y-104989374D01*
X171002311Y-104989379D01*
X170386881Y-104970546D01*
X170379157Y-104970068D01*
X169766104Y-104912881D01*
X169758425Y-104911922D01*
X169150133Y-104816603D01*
X169142528Y-104815167D01*
X168541362Y-104682087D01*
X168533862Y-104680179D01*
X167942179Y-104509860D01*
X167934812Y-104507488D01*
X167354911Y-104300592D01*
X167347707Y-104297766D01*
X166781818Y-104055089D01*
X166774804Y-104051818D01*
X166225169Y-103774321D01*
X166218373Y-103770619D01*
X165687129Y-103459380D01*
X165680584Y-103455266D01*
X165169764Y-103111478D01*
X165163481Y-103106958D01*
X165115347Y-103070000D01*
X169120069Y-103070000D01*
X169121596Y-103079641D01*
X169136157Y-103171582D01*
X169136158Y-103171586D01*
X169137685Y-103181225D01*
X169142116Y-103189921D01*
X169142117Y-103189924D01*
X169172983Y-103250500D01*
X169188810Y-103281562D01*
X169268438Y-103361190D01*
X169368775Y-103412315D01*
X169480000Y-103429931D01*
X169591225Y-103412315D01*
X169691562Y-103361190D01*
X169765933Y-103286818D01*
X169806161Y-103259939D01*
X169853614Y-103250500D01*
X174477328Y-103250500D01*
X174499679Y-103252530D01*
X174516225Y-103255563D01*
X174549934Y-103245057D01*
X174557124Y-103243053D01*
X174564862Y-103241146D01*
X174580731Y-103237236D01*
X174580731Y-103237235D01*
X174591393Y-103234608D01*
X174595692Y-103230799D01*
X174601174Y-103229091D01*
X174626147Y-103204116D01*
X174631566Y-103199016D01*
X174657994Y-103175604D01*
X174657994Y-103175603D01*
X174657996Y-103175602D01*
X174658075Y-103175691D01*
X174661920Y-103172124D01*
X174660030Y-103170234D01*
X176649667Y-101180597D01*
X178733069Y-99097195D01*
X178750304Y-99082831D01*
X178764150Y-99073276D01*
X178780555Y-99042015D01*
X178784216Y-99035525D01*
X178802485Y-99005306D01*
X178802831Y-98999573D01*
X178805500Y-98994489D01*
X178805500Y-98959197D01*
X178805726Y-98951712D01*
X178807856Y-98916490D01*
X178807976Y-98916497D01*
X178808174Y-98911255D01*
X178805500Y-98911255D01*
X178805500Y-93357614D01*
X178819015Y-93301319D01*
X178856615Y-93257296D01*
X178910102Y-93235141D01*
X178967818Y-93239683D01*
X179017181Y-93269933D01*
X179088438Y-93341190D01*
X179188775Y-93392315D01*
X179300000Y-93409931D01*
X179411225Y-93392315D01*
X179511562Y-93341190D01*
X179591190Y-93261562D01*
X179642315Y-93161225D01*
X179659931Y-93050000D01*
X179642315Y-92938775D01*
X179591190Y-92838438D01*
X179511562Y-92758810D01*
X179479329Y-92742386D01*
X179419924Y-92712117D01*
X179419921Y-92712116D01*
X179411225Y-92707685D01*
X179401586Y-92706158D01*
X179401582Y-92706157D01*
X179309641Y-92691596D01*
X179300000Y-92690069D01*
X179290359Y-92691596D01*
X179198417Y-92706157D01*
X179198411Y-92706158D01*
X179188775Y-92707685D01*
X179180080Y-92712115D01*
X179180075Y-92712117D01*
X179097139Y-92754376D01*
X179097136Y-92754377D01*
X179088438Y-92758810D01*
X179081536Y-92765711D01*
X179081533Y-92765714D01*
X179017181Y-92830067D01*
X178967818Y-92860317D01*
X178910102Y-92864859D01*
X178856615Y-92842704D01*
X178819015Y-92798681D01*
X178805500Y-92742386D01*
X178805500Y-91382678D01*
X178807532Y-91360324D01*
X178807849Y-91358589D01*
X178810564Y-91343776D01*
X178800050Y-91310040D01*
X178798054Y-91302876D01*
X178789608Y-91268607D01*
X178785800Y-91264309D01*
X178784092Y-91258826D01*
X178759138Y-91233872D01*
X178754005Y-91228420D01*
X178730604Y-91202006D01*
X178730699Y-91201921D01*
X178727134Y-91198071D01*
X178725236Y-91199970D01*
X178463928Y-90938662D01*
X178433678Y-90889298D01*
X178429136Y-90831585D01*
X178434931Y-90795000D01*
X178417315Y-90683775D01*
X178366190Y-90583438D01*
X178286562Y-90503810D01*
X178253858Y-90487146D01*
X178194924Y-90457117D01*
X178194921Y-90457116D01*
X178186225Y-90452685D01*
X178176586Y-90451158D01*
X178176582Y-90451157D01*
X178084641Y-90436596D01*
X178075000Y-90435069D01*
X178065359Y-90436596D01*
X177973417Y-90451157D01*
X177973411Y-90451158D01*
X177963775Y-90452685D01*
X177955080Y-90457115D01*
X177955075Y-90457117D01*
X177872139Y-90499376D01*
X177872136Y-90499377D01*
X177863438Y-90503810D01*
X177856536Y-90510711D01*
X177856533Y-90510714D01*
X177790714Y-90576533D01*
X177790711Y-90576536D01*
X177783810Y-90583438D01*
X177779377Y-90592136D01*
X177779376Y-90592139D01*
X177737117Y-90675075D01*
X177737115Y-90675080D01*
X177732685Y-90683775D01*
X177731158Y-90693411D01*
X177731157Y-90693417D01*
X177722580Y-90747574D01*
X177715069Y-90795000D01*
X177716596Y-90804641D01*
X177731157Y-90896582D01*
X177731158Y-90896586D01*
X177732685Y-90906225D01*
X177737116Y-90914921D01*
X177737117Y-90914924D01*
X177763907Y-90967501D01*
X177783810Y-91006562D01*
X177863438Y-91086190D01*
X177963775Y-91137315D01*
X178075000Y-91154931D01*
X178094318Y-91151871D01*
X178152034Y-91156413D01*
X178201398Y-91186663D01*
X178408181Y-91393447D01*
X178435061Y-91433675D01*
X178444500Y-91481128D01*
X178444500Y-92692386D01*
X178430985Y-92748681D01*
X178393385Y-92792704D01*
X178339898Y-92814859D01*
X178282182Y-92810317D01*
X178232819Y-92780067D01*
X178218466Y-92765714D01*
X178218466Y-92765713D01*
X178211562Y-92758810D01*
X178179329Y-92742386D01*
X178119924Y-92712117D01*
X178119921Y-92712116D01*
X178111225Y-92707685D01*
X178101586Y-92706158D01*
X178101582Y-92706157D01*
X178009641Y-92691596D01*
X178000000Y-92690069D01*
X177990359Y-92691596D01*
X177898417Y-92706157D01*
X177898411Y-92706158D01*
X177888775Y-92707685D01*
X177880080Y-92712115D01*
X177880075Y-92712117D01*
X177797139Y-92754376D01*
X177797136Y-92754377D01*
X177788438Y-92758810D01*
X177781536Y-92765711D01*
X177781533Y-92765714D01*
X177715714Y-92831533D01*
X177715711Y-92831536D01*
X177708810Y-92838438D01*
X177704377Y-92847136D01*
X177704376Y-92847139D01*
X177662117Y-92930075D01*
X177662115Y-92930080D01*
X177657685Y-92938775D01*
X177656158Y-92948411D01*
X177656157Y-92948417D01*
X177645609Y-93015020D01*
X177640069Y-93050000D01*
X177641596Y-93059641D01*
X177656157Y-93151582D01*
X177656158Y-93151586D01*
X177657685Y-93161225D01*
X177662116Y-93169921D01*
X177662117Y-93169924D01*
X177703711Y-93251554D01*
X177708810Y-93261562D01*
X177788438Y-93341190D01*
X177888775Y-93392315D01*
X178000000Y-93409931D01*
X178111225Y-93392315D01*
X178211562Y-93341190D01*
X178232819Y-93319933D01*
X178282182Y-93289683D01*
X178339898Y-93285141D01*
X178393385Y-93307296D01*
X178430985Y-93351319D01*
X178444500Y-93407614D01*
X178444500Y-98823873D01*
X178435061Y-98871326D01*
X178408181Y-98911554D01*
X174466554Y-102853181D01*
X174426326Y-102880061D01*
X174378873Y-102889500D01*
X169853614Y-102889500D01*
X169806161Y-102880061D01*
X169765933Y-102853181D01*
X169698466Y-102785714D01*
X169691562Y-102778810D01*
X169682860Y-102774376D01*
X169599924Y-102732117D01*
X169599921Y-102732116D01*
X169591225Y-102727685D01*
X169581586Y-102726158D01*
X169581582Y-102726157D01*
X169489641Y-102711596D01*
X169480000Y-102710069D01*
X169470359Y-102711596D01*
X169378417Y-102726157D01*
X169378411Y-102726158D01*
X169368775Y-102727685D01*
X169360080Y-102732115D01*
X169360075Y-102732117D01*
X169277139Y-102774376D01*
X169277136Y-102774377D01*
X169268438Y-102778810D01*
X169261536Y-102785711D01*
X169261533Y-102785714D01*
X169195714Y-102851533D01*
X169195711Y-102851536D01*
X169188810Y-102858438D01*
X169184377Y-102867136D01*
X169184376Y-102867139D01*
X169142117Y-102950075D01*
X169142115Y-102950080D01*
X169137685Y-102958775D01*
X169136158Y-102968411D01*
X169136157Y-102968417D01*
X169122262Y-103056148D01*
X169120069Y-103070000D01*
X165115347Y-103070000D01*
X164839810Y-102858438D01*
X164675122Y-102731987D01*
X164669135Y-102727086D01*
X164665782Y-102724162D01*
X164285300Y-102392315D01*
X164205117Y-102322381D01*
X164199446Y-102317115D01*
X163761567Y-101884242D01*
X163756236Y-101878632D01*
X163346226Y-101419303D01*
X163341255Y-101413372D01*
X163087001Y-101090000D01*
X164570069Y-101090000D01*
X164571596Y-101099641D01*
X164586157Y-101191582D01*
X164586158Y-101191586D01*
X164587685Y-101201225D01*
X164638810Y-101301562D01*
X164718438Y-101381190D01*
X164818775Y-101432315D01*
X164930000Y-101449931D01*
X165041225Y-101432315D01*
X165141562Y-101381190D01*
X165221190Y-101301562D01*
X165272315Y-101201225D01*
X165289931Y-101090000D01*
X165272315Y-100978775D01*
X165221190Y-100878438D01*
X165141562Y-100798810D01*
X165065259Y-100759931D01*
X165049924Y-100752117D01*
X165049921Y-100752116D01*
X165041225Y-100747685D01*
X165031586Y-100746158D01*
X165031582Y-100746157D01*
X164939641Y-100731596D01*
X164930000Y-100730069D01*
X164920359Y-100731596D01*
X164828417Y-100746157D01*
X164828411Y-100746158D01*
X164818775Y-100747685D01*
X164810080Y-100752115D01*
X164810075Y-100752117D01*
X164727139Y-100794376D01*
X164727136Y-100794377D01*
X164718438Y-100798810D01*
X164711536Y-100805711D01*
X164711533Y-100805714D01*
X164645714Y-100871533D01*
X164645711Y-100871536D01*
X164638810Y-100878438D01*
X164634377Y-100887136D01*
X164634376Y-100887139D01*
X164592117Y-100970075D01*
X164592115Y-100970080D01*
X164587685Y-100978775D01*
X164586158Y-100988411D01*
X164586157Y-100988417D01*
X164572262Y-101076148D01*
X164570069Y-101090000D01*
X163087001Y-101090000D01*
X162960686Y-100929346D01*
X162956095Y-100923115D01*
X162606459Y-100416287D01*
X162602266Y-100409783D01*
X162284943Y-99882161D01*
X162281163Y-99875408D01*
X161997360Y-99328993D01*
X161994009Y-99322017D01*
X161986202Y-99304376D01*
X161777216Y-98832117D01*
X161744852Y-98758982D01*
X161741942Y-98751811D01*
X161646000Y-98492363D01*
X161528378Y-98174286D01*
X161525927Y-98166962D01*
X161525700Y-98166207D01*
X161348813Y-97577271D01*
X161346822Y-97569802D01*
X161206833Y-96970180D01*
X161205320Y-96962641D01*
X161103004Y-96355437D01*
X161101964Y-96347822D01*
X161037729Y-95735442D01*
X161037163Y-95727729D01*
X161036922Y-95722006D01*
X161011252Y-95112529D01*
X161011169Y-95104839D01*
X161023686Y-94489240D01*
X161024084Y-94481514D01*
X161026698Y-94450000D01*
X161074979Y-93867891D01*
X161075859Y-93860206D01*
X161077770Y-93847139D01*
X161164930Y-93250967D01*
X161166288Y-93243350D01*
X161177267Y-93191225D01*
X161293197Y-92640822D01*
X161295013Y-92633362D01*
X161459268Y-92039902D01*
X161461547Y-92032566D01*
X161662496Y-91450529D01*
X161665248Y-91443300D01*
X161669259Y-91433675D01*
X161902100Y-90874961D01*
X161905293Y-90867927D01*
X161921448Y-90835096D01*
X162177147Y-90315452D01*
X162180763Y-90308647D01*
X162486559Y-89774191D01*
X162490583Y-89767642D01*
X162829127Y-89253299D01*
X162833578Y-89246978D01*
X162838553Y-89240359D01*
X163203514Y-88754799D01*
X163208333Y-88748787D01*
X163608285Y-88280603D01*
X163613491Y-88274883D01*
X163681918Y-88204229D01*
X164041844Y-87832587D01*
X164047375Y-87827222D01*
X164502520Y-87412478D01*
X164508357Y-87407484D01*
X164988479Y-87021946D01*
X164994636Y-87017310D01*
X165497864Y-86662481D01*
X165504300Y-86658236D01*
X166028689Y-86335486D01*
X166035351Y-86331667D01*
X166578874Y-86042245D01*
X166585772Y-86038844D01*
X167146253Y-85783907D01*
X167153380Y-85780930D01*
X167728680Y-85561451D01*
X167735940Y-85558938D01*
X168323844Y-85375764D01*
X168331247Y-85373708D01*
X168376574Y-85362634D01*
X168432213Y-85361895D01*
X168482574Y-85385561D01*
G37*
G04 #@! TD.AperFunction*
M02*
