%TF.GenerationSoftware,KiCad,Pcbnew,(7.0.0-0)*%
%TF.CreationDate,2024-01-26T00:14:52+08:00*%
%TF.ProjectId,Revolute,5265766f-6c75-4746-952e-6b696361645f,rev?*%
%TF.SameCoordinates,Original*%
%TF.FileFunction,Drillmap*%
%TF.FilePolarity,Positive*%
%FSLAX45Y45*%
G04 Gerber Fmt 4.5, Leading zero omitted, Abs format (unit mm)*
G04 Created by KiCad (PCBNEW (7.0.0-0)) date 2024-01-26 00:14:52*
%MOMM*%
%LPD*%
G01*
G04 APERTURE LIST*
%ADD10C,0.050000*%
%ADD11C,0.200000*%
%ADD12C,0.030000*%
G04 APERTURE END LIST*
D10*
X18048683Y-9816228D02*
X18015361Y-9814509D01*
X18076187Y-9283070D02*
G75*
G03*
X18048683Y-9816228I-976187J-216931D01*
G01*
X18042865Y-9281351D02*
X18015361Y-9814509D01*
X18076187Y-9283070D02*
X18042865Y-9281351D01*
D11*
D12*
X16148000Y-9697000D02*
X16178000Y-9727000D01*
X16178000Y-9697000D02*
X16148000Y-9727000D01*
X16217100Y-9619894D02*
X16247100Y-9649894D01*
X16247100Y-9619894D02*
X16217100Y-9649894D01*
X16220000Y-9545000D02*
X16250000Y-9575000D01*
X16250000Y-9545000D02*
X16220000Y-9575000D01*
X16229284Y-9031136D02*
X16259284Y-9061136D01*
X16259284Y-9031136D02*
X16229284Y-9061136D01*
X16245000Y-9220000D02*
X16275000Y-9250000D01*
X16275000Y-9220000D02*
X16245000Y-9250000D01*
X16245000Y-9330000D02*
X16275000Y-9360000D01*
X16275000Y-9330000D02*
X16245000Y-9360000D01*
X16245000Y-9430000D02*
X16275000Y-9460000D01*
X16275000Y-9430000D02*
X16245000Y-9460000D01*
X16245000Y-9490000D02*
X16275000Y-9520000D01*
X16275000Y-9490000D02*
X16245000Y-9520000D01*
X16261000Y-9803000D02*
X16291000Y-9833000D01*
X16291000Y-9803000D02*
X16261000Y-9833000D01*
X16265000Y-9585000D02*
X16295000Y-9615000D01*
X16295000Y-9585000D02*
X16265000Y-9615000D01*
X16304998Y-9260005D02*
X16334998Y-9290005D01*
X16334998Y-9260005D02*
X16304998Y-9290005D01*
X16310000Y-9725000D02*
X16340000Y-9755000D01*
X16340000Y-9725000D02*
X16310000Y-9755000D01*
X16354857Y-9799852D02*
X16384857Y-9829852D01*
X16384857Y-9799852D02*
X16354857Y-9829852D01*
X16470981Y-9799019D02*
X16500981Y-9829019D01*
X16500981Y-9799019D02*
X16470981Y-9829019D01*
X16478000Y-10005000D02*
X16508000Y-10035000D01*
X16508000Y-10005000D02*
X16478000Y-10035000D01*
X16478000Y-10094000D02*
X16508000Y-10124000D01*
X16508000Y-10094000D02*
X16478000Y-10124000D01*
X16504000Y-9149702D02*
X16534000Y-9179702D01*
X16534000Y-9149702D02*
X16504000Y-9179702D01*
X16533519Y-9346481D02*
X16563519Y-9376481D01*
X16563519Y-9346481D02*
X16533519Y-9376481D01*
X16554558Y-9200000D02*
X16584558Y-9230000D01*
X16584558Y-9200000D02*
X16554558Y-9230000D01*
X16567000Y-10097000D02*
X16597000Y-10127000D01*
X16597000Y-10097000D02*
X16567000Y-10127000D01*
X16570000Y-9140000D02*
X16600000Y-9170000D01*
X16600000Y-9140000D02*
X16570000Y-9170000D01*
X16601483Y-8837000D02*
X16631483Y-8867000D01*
X16631483Y-8837000D02*
X16601483Y-8867000D01*
X16680000Y-9160000D02*
X16710000Y-9190000D01*
X16710000Y-9160000D02*
X16680000Y-9190000D01*
X16740000Y-10025000D02*
X16770000Y-10055000D01*
X16770000Y-10025000D02*
X16740000Y-10055000D01*
X16761483Y-9076450D02*
X16791483Y-9106450D01*
X16791483Y-9076450D02*
X16761483Y-9106450D01*
X16770000Y-9705000D02*
X16800000Y-9735000D01*
X16800000Y-9705000D02*
X16770000Y-9735000D01*
X16840000Y-9445000D02*
X16870000Y-9475000D01*
X16870000Y-9445000D02*
X16840000Y-9475000D01*
X16855000Y-9063000D02*
X16885000Y-9093000D01*
X16885000Y-9063000D02*
X16855000Y-9093000D01*
X16855000Y-9390000D02*
X16885000Y-9420000D01*
X16885000Y-9390000D02*
X16855000Y-9420000D01*
X16933000Y-10292000D02*
X16963000Y-10322000D01*
X16963000Y-10292000D02*
X16933000Y-10322000D01*
X16950000Y-8967000D02*
X16980000Y-8997000D01*
X16980000Y-8967000D02*
X16950000Y-8997000D01*
X16950000Y-9063000D02*
X16980000Y-9093000D01*
X16980000Y-9063000D02*
X16950000Y-9093000D01*
X16955000Y-9840000D02*
X16985000Y-9870000D01*
X16985000Y-9840000D02*
X16955000Y-9870000D01*
X17020000Y-9215000D02*
X17050000Y-9245000D01*
X17050000Y-9215000D02*
X17020000Y-9245000D01*
X17067500Y-9735000D02*
X17097500Y-9765000D01*
X17097500Y-9735000D02*
X17067500Y-9765000D01*
X17085000Y-9995000D02*
X17115000Y-10025000D01*
X17115000Y-9995000D02*
X17085000Y-10025000D01*
X17104736Y-10436676D02*
X17134736Y-10466676D01*
X17134736Y-10436676D02*
X17104736Y-10466676D01*
X17142000Y-9902000D02*
X17172000Y-9932000D01*
X17172000Y-9902000D02*
X17142000Y-9932000D01*
X17147500Y-9692500D02*
X17177500Y-9722500D01*
X17177500Y-9692500D02*
X17147500Y-9722500D01*
X17157500Y-9000000D02*
X17187500Y-9030000D01*
X17187500Y-9000000D02*
X17157500Y-9030000D01*
X17172500Y-10190000D02*
X17202500Y-10220000D01*
X17202500Y-10190000D02*
X17172500Y-10220000D01*
X17292000Y-10145000D02*
X17322000Y-10175000D01*
X17322000Y-10145000D02*
X17292000Y-10175000D01*
X17305635Y-9527450D02*
X17335635Y-9557450D01*
X17335635Y-9527450D02*
X17305635Y-9557450D01*
X17315000Y-9082500D02*
X17345000Y-9112500D01*
X17345000Y-9082500D02*
X17315000Y-9112500D01*
X17350000Y-9437500D02*
X17380000Y-9467500D01*
X17380000Y-9437500D02*
X17350000Y-9467500D01*
X17357500Y-9500000D02*
X17387500Y-9530000D01*
X17387500Y-9500000D02*
X17357500Y-9530000D01*
X17369785Y-10396832D02*
X17399785Y-10426832D01*
X17399785Y-10396832D02*
X17369785Y-10426832D01*
X17392500Y-9940000D02*
X17422500Y-9970000D01*
X17422500Y-9940000D02*
X17392500Y-9970000D01*
X17405000Y-8697500D02*
X17435000Y-8727500D01*
X17435000Y-8697500D02*
X17405000Y-8727500D01*
X17421250Y-9846250D02*
X17451250Y-9876250D01*
X17451250Y-9846250D02*
X17421250Y-9876250D01*
X17452500Y-9490000D02*
X17482500Y-9520000D01*
X17482500Y-9490000D02*
X17452500Y-9520000D01*
X17464476Y-10363853D02*
X17494476Y-10393853D01*
X17494476Y-10363853D02*
X17464476Y-10393853D01*
X17465000Y-9945000D02*
X17495000Y-9975000D01*
X17495000Y-9945000D02*
X17465000Y-9975000D01*
X17492500Y-10165000D02*
X17522500Y-10195000D01*
X17522500Y-10165000D02*
X17492500Y-10195000D01*
X17517500Y-9657500D02*
X17547500Y-9687500D01*
X17547500Y-9657500D02*
X17517500Y-9687500D01*
X17562500Y-9510000D02*
X17592500Y-9540000D01*
X17592500Y-9510000D02*
X17562500Y-9540000D01*
X17590050Y-9672500D02*
X17620050Y-9702500D01*
X17620050Y-9672500D02*
X17590050Y-9702500D01*
X17625000Y-9512500D02*
X17655000Y-9542500D01*
X17655000Y-9512500D02*
X17625000Y-9542500D01*
X17640000Y-9830000D02*
X17670000Y-9860000D01*
X17670000Y-9830000D02*
X17640000Y-9860000D01*
X17670000Y-8962500D02*
X17700000Y-8992500D01*
X17700000Y-8962500D02*
X17670000Y-8992500D01*
X17682477Y-10236439D02*
X17712477Y-10266439D01*
X17712477Y-10236439D02*
X17682477Y-10266439D01*
X17710000Y-9655000D02*
X17740000Y-9685000D01*
X17740000Y-9655000D02*
X17710000Y-9685000D01*
X17757888Y-10169589D02*
X17787888Y-10199589D01*
X17787888Y-10169589D02*
X17757888Y-10199589D01*
X17785000Y-9290000D02*
X17815000Y-9320000D01*
X17815000Y-9290000D02*
X17785000Y-9320000D01*
X17885330Y-10015267D02*
X17915330Y-10045267D01*
X17915330Y-10015267D02*
X17885330Y-10045267D01*
X17890000Y-9850000D02*
X17920000Y-9880000D01*
X17920000Y-9850000D02*
X17890000Y-9880000D01*
X17915000Y-9290000D02*
X17945000Y-9320000D01*
X17945000Y-9290000D02*
X17915000Y-9320000D01*
X17935516Y-9930166D02*
X17965516Y-9960166D01*
X17965516Y-9930166D02*
X17935516Y-9960166D01*
X17976102Y-9841206D02*
X18006102Y-9871206D01*
X18006102Y-9841206D02*
X17976102Y-9871206D01*
X18000000Y-9205000D02*
X18030000Y-9235000D01*
X18030000Y-9205000D02*
X18000000Y-9235000D01*
X17492500Y-9162500D02*
G75*
G03*
X17492500Y-9162500I-15000J0D01*
G01*
X17492500Y-9252500D02*
G75*
G03*
X17492500Y-9252500I-15000J0D01*
G01*
X17492500Y-9342500D02*
G75*
G03*
X17492500Y-9342500I-15000J0D01*
G01*
X17592500Y-9162500D02*
G75*
G03*
X17592500Y-9162500I-15000J0D01*
G01*
X17592500Y-9252500D02*
G75*
G03*
X17592500Y-9252500I-15000J0D01*
G01*
X17592500Y-9342500D02*
G75*
G03*
X17592500Y-9342500I-15000J0D01*
G01*
D10*
X17575000Y-8785000D02*
X17575000Y-8835000D01*
X17550000Y-8810000D02*
X17600000Y-8810000D01*
X17845000Y-9050000D02*
X17845000Y-9100000D01*
X17820000Y-9075000D02*
X17870000Y-9075000D01*
D11*
X16345119Y-10795976D02*
X16345119Y-10595976D01*
X16345119Y-10595976D02*
X16392738Y-10595976D01*
X16392738Y-10595976D02*
X16421309Y-10605500D01*
X16421309Y-10605500D02*
X16440357Y-10624548D01*
X16440357Y-10624548D02*
X16449881Y-10643595D01*
X16449881Y-10643595D02*
X16459405Y-10681690D01*
X16459405Y-10681690D02*
X16459405Y-10710262D01*
X16459405Y-10710262D02*
X16449881Y-10748357D01*
X16449881Y-10748357D02*
X16440357Y-10767405D01*
X16440357Y-10767405D02*
X16421309Y-10786452D01*
X16421309Y-10786452D02*
X16392738Y-10795976D01*
X16392738Y-10795976D02*
X16345119Y-10795976D01*
X16545119Y-10795976D02*
X16545119Y-10662643D01*
X16545119Y-10700738D02*
X16554643Y-10681690D01*
X16554643Y-10681690D02*
X16564167Y-10672167D01*
X16564167Y-10672167D02*
X16583214Y-10662643D01*
X16583214Y-10662643D02*
X16602262Y-10662643D01*
X16668928Y-10795976D02*
X16668928Y-10662643D01*
X16668928Y-10595976D02*
X16659405Y-10605500D01*
X16659405Y-10605500D02*
X16668928Y-10615024D01*
X16668928Y-10615024D02*
X16678452Y-10605500D01*
X16678452Y-10605500D02*
X16668928Y-10595976D01*
X16668928Y-10595976D02*
X16668928Y-10615024D01*
X16792738Y-10795976D02*
X16773690Y-10786452D01*
X16773690Y-10786452D02*
X16764167Y-10767405D01*
X16764167Y-10767405D02*
X16764167Y-10595976D01*
X16897500Y-10795976D02*
X16878452Y-10786452D01*
X16878452Y-10786452D02*
X16868929Y-10767405D01*
X16868929Y-10767405D02*
X16868929Y-10595976D01*
X17093690Y-10795976D02*
X17093690Y-10595976D01*
X17093690Y-10595976D02*
X17160357Y-10738833D01*
X17160357Y-10738833D02*
X17227024Y-10595976D01*
X17227024Y-10595976D02*
X17227024Y-10795976D01*
X17407976Y-10795976D02*
X17407976Y-10691214D01*
X17407976Y-10691214D02*
X17398452Y-10672167D01*
X17398452Y-10672167D02*
X17379405Y-10662643D01*
X17379405Y-10662643D02*
X17341309Y-10662643D01*
X17341309Y-10662643D02*
X17322262Y-10672167D01*
X17407976Y-10786452D02*
X17388929Y-10795976D01*
X17388929Y-10795976D02*
X17341309Y-10795976D01*
X17341309Y-10795976D02*
X17322262Y-10786452D01*
X17322262Y-10786452D02*
X17312738Y-10767405D01*
X17312738Y-10767405D02*
X17312738Y-10748357D01*
X17312738Y-10748357D02*
X17322262Y-10729310D01*
X17322262Y-10729310D02*
X17341309Y-10719786D01*
X17341309Y-10719786D02*
X17388929Y-10719786D01*
X17388929Y-10719786D02*
X17407976Y-10710262D01*
X17503214Y-10662643D02*
X17503214Y-10862643D01*
X17503214Y-10672167D02*
X17522262Y-10662643D01*
X17522262Y-10662643D02*
X17560357Y-10662643D01*
X17560357Y-10662643D02*
X17579405Y-10672167D01*
X17579405Y-10672167D02*
X17588929Y-10681690D01*
X17588929Y-10681690D02*
X17598452Y-10700738D01*
X17598452Y-10700738D02*
X17598452Y-10757881D01*
X17598452Y-10757881D02*
X17588929Y-10776929D01*
X17588929Y-10776929D02*
X17579405Y-10786452D01*
X17579405Y-10786452D02*
X17560357Y-10795976D01*
X17560357Y-10795976D02*
X17522262Y-10795976D01*
X17522262Y-10795976D02*
X17503214Y-10786452D01*
X17684167Y-10776929D02*
X17693690Y-10786452D01*
X17693690Y-10786452D02*
X17684167Y-10795976D01*
X17684167Y-10795976D02*
X17674643Y-10786452D01*
X17674643Y-10786452D02*
X17684167Y-10776929D01*
X17684167Y-10776929D02*
X17684167Y-10795976D01*
X17684167Y-10672167D02*
X17693690Y-10681690D01*
X17693690Y-10681690D02*
X17684167Y-10691214D01*
X17684167Y-10691214D02*
X17674643Y-10681690D01*
X17674643Y-10681690D02*
X17684167Y-10672167D01*
X17684167Y-10672167D02*
X17684167Y-10691214D01*
D12*
X16067500Y-11127500D02*
X16097500Y-11157500D01*
X16097500Y-11127500D02*
X16067500Y-11157500D01*
D11*
X16383214Y-11015976D02*
X16402262Y-11015976D01*
X16402262Y-11015976D02*
X16421309Y-11025500D01*
X16421309Y-11025500D02*
X16430833Y-11035024D01*
X16430833Y-11035024D02*
X16440357Y-11054071D01*
X16440357Y-11054071D02*
X16449881Y-11092167D01*
X16449881Y-11092167D02*
X16449881Y-11139786D01*
X16449881Y-11139786D02*
X16440357Y-11177881D01*
X16440357Y-11177881D02*
X16430833Y-11196928D01*
X16430833Y-11196928D02*
X16421309Y-11206452D01*
X16421309Y-11206452D02*
X16402262Y-11215976D01*
X16402262Y-11215976D02*
X16383214Y-11215976D01*
X16383214Y-11215976D02*
X16364167Y-11206452D01*
X16364167Y-11206452D02*
X16354643Y-11196928D01*
X16354643Y-11196928D02*
X16345119Y-11177881D01*
X16345119Y-11177881D02*
X16335595Y-11139786D01*
X16335595Y-11139786D02*
X16335595Y-11092167D01*
X16335595Y-11092167D02*
X16345119Y-11054071D01*
X16345119Y-11054071D02*
X16354643Y-11035024D01*
X16354643Y-11035024D02*
X16364167Y-11025500D01*
X16364167Y-11025500D02*
X16383214Y-11015976D01*
X16535595Y-11196928D02*
X16545119Y-11206452D01*
X16545119Y-11206452D02*
X16535595Y-11215976D01*
X16535595Y-11215976D02*
X16526071Y-11206452D01*
X16526071Y-11206452D02*
X16535595Y-11196928D01*
X16535595Y-11196928D02*
X16535595Y-11215976D01*
X16611786Y-11015976D02*
X16735595Y-11015976D01*
X16735595Y-11015976D02*
X16668928Y-11092167D01*
X16668928Y-11092167D02*
X16697500Y-11092167D01*
X16697500Y-11092167D02*
X16716548Y-11101690D01*
X16716548Y-11101690D02*
X16726071Y-11111214D01*
X16726071Y-11111214D02*
X16735595Y-11130262D01*
X16735595Y-11130262D02*
X16735595Y-11177881D01*
X16735595Y-11177881D02*
X16726071Y-11196928D01*
X16726071Y-11196928D02*
X16716548Y-11206452D01*
X16716548Y-11206452D02*
X16697500Y-11215976D01*
X16697500Y-11215976D02*
X16640357Y-11215976D01*
X16640357Y-11215976D02*
X16621309Y-11206452D01*
X16621309Y-11206452D02*
X16611786Y-11196928D01*
X16859405Y-11015976D02*
X16878452Y-11015976D01*
X16878452Y-11015976D02*
X16897500Y-11025500D01*
X16897500Y-11025500D02*
X16907024Y-11035024D01*
X16907024Y-11035024D02*
X16916548Y-11054071D01*
X16916548Y-11054071D02*
X16926071Y-11092167D01*
X16926071Y-11092167D02*
X16926071Y-11139786D01*
X16926071Y-11139786D02*
X16916548Y-11177881D01*
X16916548Y-11177881D02*
X16907024Y-11196928D01*
X16907024Y-11196928D02*
X16897500Y-11206452D01*
X16897500Y-11206452D02*
X16878452Y-11215976D01*
X16878452Y-11215976D02*
X16859405Y-11215976D01*
X16859405Y-11215976D02*
X16840357Y-11206452D01*
X16840357Y-11206452D02*
X16830833Y-11196928D01*
X16830833Y-11196928D02*
X16821310Y-11177881D01*
X16821310Y-11177881D02*
X16811786Y-11139786D01*
X16811786Y-11139786D02*
X16811786Y-11092167D01*
X16811786Y-11092167D02*
X16821310Y-11054071D01*
X16821310Y-11054071D02*
X16830833Y-11035024D01*
X16830833Y-11035024D02*
X16840357Y-11025500D01*
X16840357Y-11025500D02*
X16859405Y-11015976D01*
X17049881Y-11015976D02*
X17068929Y-11015976D01*
X17068929Y-11015976D02*
X17087976Y-11025500D01*
X17087976Y-11025500D02*
X17097500Y-11035024D01*
X17097500Y-11035024D02*
X17107024Y-11054071D01*
X17107024Y-11054071D02*
X17116548Y-11092167D01*
X17116548Y-11092167D02*
X17116548Y-11139786D01*
X17116548Y-11139786D02*
X17107024Y-11177881D01*
X17107024Y-11177881D02*
X17097500Y-11196928D01*
X17097500Y-11196928D02*
X17087976Y-11206452D01*
X17087976Y-11206452D02*
X17068929Y-11215976D01*
X17068929Y-11215976D02*
X17049881Y-11215976D01*
X17049881Y-11215976D02*
X17030833Y-11206452D01*
X17030833Y-11206452D02*
X17021310Y-11196928D01*
X17021310Y-11196928D02*
X17011786Y-11177881D01*
X17011786Y-11177881D02*
X17002262Y-11139786D01*
X17002262Y-11139786D02*
X17002262Y-11092167D01*
X17002262Y-11092167D02*
X17011786Y-11054071D01*
X17011786Y-11054071D02*
X17021310Y-11035024D01*
X17021310Y-11035024D02*
X17030833Y-11025500D01*
X17030833Y-11025500D02*
X17049881Y-11015976D01*
X17202262Y-11215976D02*
X17202262Y-11082643D01*
X17202262Y-11101690D02*
X17211786Y-11092167D01*
X17211786Y-11092167D02*
X17230833Y-11082643D01*
X17230833Y-11082643D02*
X17259405Y-11082643D01*
X17259405Y-11082643D02*
X17278452Y-11092167D01*
X17278452Y-11092167D02*
X17287976Y-11111214D01*
X17287976Y-11111214D02*
X17287976Y-11215976D01*
X17287976Y-11111214D02*
X17297500Y-11092167D01*
X17297500Y-11092167D02*
X17316548Y-11082643D01*
X17316548Y-11082643D02*
X17345119Y-11082643D01*
X17345119Y-11082643D02*
X17364167Y-11092167D01*
X17364167Y-11092167D02*
X17373691Y-11111214D01*
X17373691Y-11111214D02*
X17373691Y-11215976D01*
X17468929Y-11215976D02*
X17468929Y-11082643D01*
X17468929Y-11101690D02*
X17478452Y-11092167D01*
X17478452Y-11092167D02*
X17497500Y-11082643D01*
X17497500Y-11082643D02*
X17526072Y-11082643D01*
X17526072Y-11082643D02*
X17545119Y-11092167D01*
X17545119Y-11092167D02*
X17554643Y-11111214D01*
X17554643Y-11111214D02*
X17554643Y-11215976D01*
X17554643Y-11111214D02*
X17564167Y-11092167D01*
X17564167Y-11092167D02*
X17583214Y-11082643D01*
X17583214Y-11082643D02*
X17611786Y-11082643D01*
X17611786Y-11082643D02*
X17630833Y-11092167D01*
X17630833Y-11092167D02*
X17640357Y-11111214D01*
X17640357Y-11111214D02*
X17640357Y-11215976D01*
X17998452Y-11006452D02*
X17827024Y-11263595D01*
X18223214Y-11015976D02*
X18242262Y-11015976D01*
X18242262Y-11015976D02*
X18261310Y-11025500D01*
X18261310Y-11025500D02*
X18270833Y-11035024D01*
X18270833Y-11035024D02*
X18280357Y-11054071D01*
X18280357Y-11054071D02*
X18289881Y-11092167D01*
X18289881Y-11092167D02*
X18289881Y-11139786D01*
X18289881Y-11139786D02*
X18280357Y-11177881D01*
X18280357Y-11177881D02*
X18270833Y-11196928D01*
X18270833Y-11196928D02*
X18261310Y-11206452D01*
X18261310Y-11206452D02*
X18242262Y-11215976D01*
X18242262Y-11215976D02*
X18223214Y-11215976D01*
X18223214Y-11215976D02*
X18204167Y-11206452D01*
X18204167Y-11206452D02*
X18194643Y-11196928D01*
X18194643Y-11196928D02*
X18185119Y-11177881D01*
X18185119Y-11177881D02*
X18175595Y-11139786D01*
X18175595Y-11139786D02*
X18175595Y-11092167D01*
X18175595Y-11092167D02*
X18185119Y-11054071D01*
X18185119Y-11054071D02*
X18194643Y-11035024D01*
X18194643Y-11035024D02*
X18204167Y-11025500D01*
X18204167Y-11025500D02*
X18223214Y-11015976D01*
X18375595Y-11196928D02*
X18385119Y-11206452D01*
X18385119Y-11206452D02*
X18375595Y-11215976D01*
X18375595Y-11215976D02*
X18366072Y-11206452D01*
X18366072Y-11206452D02*
X18375595Y-11196928D01*
X18375595Y-11196928D02*
X18375595Y-11215976D01*
X18508929Y-11015976D02*
X18527976Y-11015976D01*
X18527976Y-11015976D02*
X18547024Y-11025500D01*
X18547024Y-11025500D02*
X18556548Y-11035024D01*
X18556548Y-11035024D02*
X18566072Y-11054071D01*
X18566072Y-11054071D02*
X18575595Y-11092167D01*
X18575595Y-11092167D02*
X18575595Y-11139786D01*
X18575595Y-11139786D02*
X18566072Y-11177881D01*
X18566072Y-11177881D02*
X18556548Y-11196928D01*
X18556548Y-11196928D02*
X18547024Y-11206452D01*
X18547024Y-11206452D02*
X18527976Y-11215976D01*
X18527976Y-11215976D02*
X18508929Y-11215976D01*
X18508929Y-11215976D02*
X18489881Y-11206452D01*
X18489881Y-11206452D02*
X18480357Y-11196928D01*
X18480357Y-11196928D02*
X18470833Y-11177881D01*
X18470833Y-11177881D02*
X18461310Y-11139786D01*
X18461310Y-11139786D02*
X18461310Y-11092167D01*
X18461310Y-11092167D02*
X18470833Y-11054071D01*
X18470833Y-11054071D02*
X18480357Y-11035024D01*
X18480357Y-11035024D02*
X18489881Y-11025500D01*
X18489881Y-11025500D02*
X18508929Y-11015976D01*
X18766072Y-11215976D02*
X18651786Y-11215976D01*
X18708929Y-11215976D02*
X18708929Y-11015976D01*
X18708929Y-11015976D02*
X18689881Y-11044548D01*
X18689881Y-11044548D02*
X18670833Y-11063595D01*
X18670833Y-11063595D02*
X18651786Y-11073119D01*
X18956548Y-11215976D02*
X18842262Y-11215976D01*
X18899405Y-11215976D02*
X18899405Y-11015976D01*
X18899405Y-11015976D02*
X18880357Y-11044548D01*
X18880357Y-11044548D02*
X18861310Y-11063595D01*
X18861310Y-11063595D02*
X18842262Y-11073119D01*
X19070833Y-11101690D02*
X19051786Y-11092167D01*
X19051786Y-11092167D02*
X19042262Y-11082643D01*
X19042262Y-11082643D02*
X19032738Y-11063595D01*
X19032738Y-11063595D02*
X19032738Y-11054071D01*
X19032738Y-11054071D02*
X19042262Y-11035024D01*
X19042262Y-11035024D02*
X19051786Y-11025500D01*
X19051786Y-11025500D02*
X19070833Y-11015976D01*
X19070833Y-11015976D02*
X19108929Y-11015976D01*
X19108929Y-11015976D02*
X19127976Y-11025500D01*
X19127976Y-11025500D02*
X19137500Y-11035024D01*
X19137500Y-11035024D02*
X19147024Y-11054071D01*
X19147024Y-11054071D02*
X19147024Y-11063595D01*
X19147024Y-11063595D02*
X19137500Y-11082643D01*
X19137500Y-11082643D02*
X19127976Y-11092167D01*
X19127976Y-11092167D02*
X19108929Y-11101690D01*
X19108929Y-11101690D02*
X19070833Y-11101690D01*
X19070833Y-11101690D02*
X19051786Y-11111214D01*
X19051786Y-11111214D02*
X19042262Y-11120738D01*
X19042262Y-11120738D02*
X19032738Y-11139786D01*
X19032738Y-11139786D02*
X19032738Y-11177881D01*
X19032738Y-11177881D02*
X19042262Y-11196928D01*
X19042262Y-11196928D02*
X19051786Y-11206452D01*
X19051786Y-11206452D02*
X19070833Y-11215976D01*
X19070833Y-11215976D02*
X19108929Y-11215976D01*
X19108929Y-11215976D02*
X19127976Y-11206452D01*
X19127976Y-11206452D02*
X19137500Y-11196928D01*
X19137500Y-11196928D02*
X19147024Y-11177881D01*
X19147024Y-11177881D02*
X19147024Y-11139786D01*
X19147024Y-11139786D02*
X19137500Y-11120738D01*
X19137500Y-11120738D02*
X19127976Y-11111214D01*
X19127976Y-11111214D02*
X19108929Y-11101690D01*
X19223214Y-11015976D02*
X19223214Y-11054071D01*
X19299405Y-11015976D02*
X19299405Y-11054071D01*
X19562262Y-11292167D02*
X19552738Y-11282643D01*
X19552738Y-11282643D02*
X19533691Y-11254071D01*
X19533691Y-11254071D02*
X19524167Y-11235024D01*
X19524167Y-11235024D02*
X19514643Y-11206452D01*
X19514643Y-11206452D02*
X19505119Y-11158833D01*
X19505119Y-11158833D02*
X19505119Y-11120738D01*
X19505119Y-11120738D02*
X19514643Y-11073119D01*
X19514643Y-11073119D02*
X19524167Y-11044548D01*
X19524167Y-11044548D02*
X19533691Y-11025500D01*
X19533691Y-11025500D02*
X19552738Y-10996929D01*
X19552738Y-10996929D02*
X19562262Y-10987405D01*
X19619405Y-11015976D02*
X19752738Y-11015976D01*
X19752738Y-11015976D02*
X19667024Y-11215976D01*
X19867024Y-11015976D02*
X19886072Y-11015976D01*
X19886072Y-11015976D02*
X19905119Y-11025500D01*
X19905119Y-11025500D02*
X19914643Y-11035024D01*
X19914643Y-11035024D02*
X19924167Y-11054071D01*
X19924167Y-11054071D02*
X19933691Y-11092167D01*
X19933691Y-11092167D02*
X19933691Y-11139786D01*
X19933691Y-11139786D02*
X19924167Y-11177881D01*
X19924167Y-11177881D02*
X19914643Y-11196928D01*
X19914643Y-11196928D02*
X19905119Y-11206452D01*
X19905119Y-11206452D02*
X19886072Y-11215976D01*
X19886072Y-11215976D02*
X19867024Y-11215976D01*
X19867024Y-11215976D02*
X19847976Y-11206452D01*
X19847976Y-11206452D02*
X19838453Y-11196928D01*
X19838453Y-11196928D02*
X19828929Y-11177881D01*
X19828929Y-11177881D02*
X19819405Y-11139786D01*
X19819405Y-11139786D02*
X19819405Y-11092167D01*
X19819405Y-11092167D02*
X19828929Y-11054071D01*
X19828929Y-11054071D02*
X19838453Y-11035024D01*
X19838453Y-11035024D02*
X19847976Y-11025500D01*
X19847976Y-11025500D02*
X19867024Y-11015976D01*
X20139405Y-11215976D02*
X20139405Y-11015976D01*
X20225119Y-11215976D02*
X20225119Y-11111214D01*
X20225119Y-11111214D02*
X20215595Y-11092167D01*
X20215595Y-11092167D02*
X20196548Y-11082643D01*
X20196548Y-11082643D02*
X20167976Y-11082643D01*
X20167976Y-11082643D02*
X20148929Y-11092167D01*
X20148929Y-11092167D02*
X20139405Y-11101690D01*
X20348929Y-11215976D02*
X20329881Y-11206452D01*
X20329881Y-11206452D02*
X20320357Y-11196928D01*
X20320357Y-11196928D02*
X20310834Y-11177881D01*
X20310834Y-11177881D02*
X20310834Y-11120738D01*
X20310834Y-11120738D02*
X20320357Y-11101690D01*
X20320357Y-11101690D02*
X20329881Y-11092167D01*
X20329881Y-11092167D02*
X20348929Y-11082643D01*
X20348929Y-11082643D02*
X20377500Y-11082643D01*
X20377500Y-11082643D02*
X20396548Y-11092167D01*
X20396548Y-11092167D02*
X20406072Y-11101690D01*
X20406072Y-11101690D02*
X20415595Y-11120738D01*
X20415595Y-11120738D02*
X20415595Y-11177881D01*
X20415595Y-11177881D02*
X20406072Y-11196928D01*
X20406072Y-11196928D02*
X20396548Y-11206452D01*
X20396548Y-11206452D02*
X20377500Y-11215976D01*
X20377500Y-11215976D02*
X20348929Y-11215976D01*
X20529881Y-11215976D02*
X20510834Y-11206452D01*
X20510834Y-11206452D02*
X20501310Y-11187405D01*
X20501310Y-11187405D02*
X20501310Y-11015976D01*
X20682262Y-11206452D02*
X20663215Y-11215976D01*
X20663215Y-11215976D02*
X20625119Y-11215976D01*
X20625119Y-11215976D02*
X20606072Y-11206452D01*
X20606072Y-11206452D02*
X20596548Y-11187405D01*
X20596548Y-11187405D02*
X20596548Y-11111214D01*
X20596548Y-11111214D02*
X20606072Y-11092167D01*
X20606072Y-11092167D02*
X20625119Y-11082643D01*
X20625119Y-11082643D02*
X20663215Y-11082643D01*
X20663215Y-11082643D02*
X20682262Y-11092167D01*
X20682262Y-11092167D02*
X20691786Y-11111214D01*
X20691786Y-11111214D02*
X20691786Y-11130262D01*
X20691786Y-11130262D02*
X20596548Y-11149310D01*
X20767976Y-11206452D02*
X20787024Y-11215976D01*
X20787024Y-11215976D02*
X20825119Y-11215976D01*
X20825119Y-11215976D02*
X20844167Y-11206452D01*
X20844167Y-11206452D02*
X20853691Y-11187405D01*
X20853691Y-11187405D02*
X20853691Y-11177881D01*
X20853691Y-11177881D02*
X20844167Y-11158833D01*
X20844167Y-11158833D02*
X20825119Y-11149310D01*
X20825119Y-11149310D02*
X20796548Y-11149310D01*
X20796548Y-11149310D02*
X20777500Y-11139786D01*
X20777500Y-11139786D02*
X20767976Y-11120738D01*
X20767976Y-11120738D02*
X20767976Y-11111214D01*
X20767976Y-11111214D02*
X20777500Y-11092167D01*
X20777500Y-11092167D02*
X20796548Y-11082643D01*
X20796548Y-11082643D02*
X20825119Y-11082643D01*
X20825119Y-11082643D02*
X20844167Y-11092167D01*
X20920357Y-11292167D02*
X20929881Y-11282643D01*
X20929881Y-11282643D02*
X20948929Y-11254071D01*
X20948929Y-11254071D02*
X20958453Y-11235024D01*
X20958453Y-11235024D02*
X20967976Y-11206452D01*
X20967976Y-11206452D02*
X20977500Y-11158833D01*
X20977500Y-11158833D02*
X20977500Y-11120738D01*
X20977500Y-11120738D02*
X20967976Y-11073119D01*
X20967976Y-11073119D02*
X20958453Y-11044548D01*
X20958453Y-11044548D02*
X20948929Y-11025500D01*
X20948929Y-11025500D02*
X20929881Y-10996929D01*
X20929881Y-10996929D02*
X20920357Y-10987405D01*
D12*
X16097500Y-11406500D02*
G75*
G03*
X16097500Y-11406500I-15000J0D01*
G01*
D11*
X16383214Y-11279976D02*
X16402262Y-11279976D01*
X16402262Y-11279976D02*
X16421309Y-11289500D01*
X16421309Y-11289500D02*
X16430833Y-11299024D01*
X16430833Y-11299024D02*
X16440357Y-11318071D01*
X16440357Y-11318071D02*
X16449881Y-11356167D01*
X16449881Y-11356167D02*
X16449881Y-11403786D01*
X16449881Y-11403786D02*
X16440357Y-11441881D01*
X16440357Y-11441881D02*
X16430833Y-11460928D01*
X16430833Y-11460928D02*
X16421309Y-11470452D01*
X16421309Y-11470452D02*
X16402262Y-11479976D01*
X16402262Y-11479976D02*
X16383214Y-11479976D01*
X16383214Y-11479976D02*
X16364167Y-11470452D01*
X16364167Y-11470452D02*
X16354643Y-11460928D01*
X16354643Y-11460928D02*
X16345119Y-11441881D01*
X16345119Y-11441881D02*
X16335595Y-11403786D01*
X16335595Y-11403786D02*
X16335595Y-11356167D01*
X16335595Y-11356167D02*
X16345119Y-11318071D01*
X16345119Y-11318071D02*
X16354643Y-11299024D01*
X16354643Y-11299024D02*
X16364167Y-11289500D01*
X16364167Y-11289500D02*
X16383214Y-11279976D01*
X16535595Y-11460928D02*
X16545119Y-11470452D01*
X16545119Y-11470452D02*
X16535595Y-11479976D01*
X16535595Y-11479976D02*
X16526071Y-11470452D01*
X16526071Y-11470452D02*
X16535595Y-11460928D01*
X16535595Y-11460928D02*
X16535595Y-11479976D01*
X16611786Y-11279976D02*
X16735595Y-11279976D01*
X16735595Y-11279976D02*
X16668928Y-11356167D01*
X16668928Y-11356167D02*
X16697500Y-11356167D01*
X16697500Y-11356167D02*
X16716548Y-11365690D01*
X16716548Y-11365690D02*
X16726071Y-11375214D01*
X16726071Y-11375214D02*
X16735595Y-11394262D01*
X16735595Y-11394262D02*
X16735595Y-11441881D01*
X16735595Y-11441881D02*
X16726071Y-11460928D01*
X16726071Y-11460928D02*
X16716548Y-11470452D01*
X16716548Y-11470452D02*
X16697500Y-11479976D01*
X16697500Y-11479976D02*
X16640357Y-11479976D01*
X16640357Y-11479976D02*
X16621309Y-11470452D01*
X16621309Y-11470452D02*
X16611786Y-11460928D01*
X16859405Y-11279976D02*
X16878452Y-11279976D01*
X16878452Y-11279976D02*
X16897500Y-11289500D01*
X16897500Y-11289500D02*
X16907024Y-11299024D01*
X16907024Y-11299024D02*
X16916548Y-11318071D01*
X16916548Y-11318071D02*
X16926071Y-11356167D01*
X16926071Y-11356167D02*
X16926071Y-11403786D01*
X16926071Y-11403786D02*
X16916548Y-11441881D01*
X16916548Y-11441881D02*
X16907024Y-11460928D01*
X16907024Y-11460928D02*
X16897500Y-11470452D01*
X16897500Y-11470452D02*
X16878452Y-11479976D01*
X16878452Y-11479976D02*
X16859405Y-11479976D01*
X16859405Y-11479976D02*
X16840357Y-11470452D01*
X16840357Y-11470452D02*
X16830833Y-11460928D01*
X16830833Y-11460928D02*
X16821310Y-11441881D01*
X16821310Y-11441881D02*
X16811786Y-11403786D01*
X16811786Y-11403786D02*
X16811786Y-11356167D01*
X16811786Y-11356167D02*
X16821310Y-11318071D01*
X16821310Y-11318071D02*
X16830833Y-11299024D01*
X16830833Y-11299024D02*
X16840357Y-11289500D01*
X16840357Y-11289500D02*
X16859405Y-11279976D01*
X17049881Y-11279976D02*
X17068929Y-11279976D01*
X17068929Y-11279976D02*
X17087976Y-11289500D01*
X17087976Y-11289500D02*
X17097500Y-11299024D01*
X17097500Y-11299024D02*
X17107024Y-11318071D01*
X17107024Y-11318071D02*
X17116548Y-11356167D01*
X17116548Y-11356167D02*
X17116548Y-11403786D01*
X17116548Y-11403786D02*
X17107024Y-11441881D01*
X17107024Y-11441881D02*
X17097500Y-11460928D01*
X17097500Y-11460928D02*
X17087976Y-11470452D01*
X17087976Y-11470452D02*
X17068929Y-11479976D01*
X17068929Y-11479976D02*
X17049881Y-11479976D01*
X17049881Y-11479976D02*
X17030833Y-11470452D01*
X17030833Y-11470452D02*
X17021310Y-11460928D01*
X17021310Y-11460928D02*
X17011786Y-11441881D01*
X17011786Y-11441881D02*
X17002262Y-11403786D01*
X17002262Y-11403786D02*
X17002262Y-11356167D01*
X17002262Y-11356167D02*
X17011786Y-11318071D01*
X17011786Y-11318071D02*
X17021310Y-11299024D01*
X17021310Y-11299024D02*
X17030833Y-11289500D01*
X17030833Y-11289500D02*
X17049881Y-11279976D01*
X17202262Y-11479976D02*
X17202262Y-11346643D01*
X17202262Y-11365690D02*
X17211786Y-11356167D01*
X17211786Y-11356167D02*
X17230833Y-11346643D01*
X17230833Y-11346643D02*
X17259405Y-11346643D01*
X17259405Y-11346643D02*
X17278452Y-11356167D01*
X17278452Y-11356167D02*
X17287976Y-11375214D01*
X17287976Y-11375214D02*
X17287976Y-11479976D01*
X17287976Y-11375214D02*
X17297500Y-11356167D01*
X17297500Y-11356167D02*
X17316548Y-11346643D01*
X17316548Y-11346643D02*
X17345119Y-11346643D01*
X17345119Y-11346643D02*
X17364167Y-11356167D01*
X17364167Y-11356167D02*
X17373691Y-11375214D01*
X17373691Y-11375214D02*
X17373691Y-11479976D01*
X17468929Y-11479976D02*
X17468929Y-11346643D01*
X17468929Y-11365690D02*
X17478452Y-11356167D01*
X17478452Y-11356167D02*
X17497500Y-11346643D01*
X17497500Y-11346643D02*
X17526072Y-11346643D01*
X17526072Y-11346643D02*
X17545119Y-11356167D01*
X17545119Y-11356167D02*
X17554643Y-11375214D01*
X17554643Y-11375214D02*
X17554643Y-11479976D01*
X17554643Y-11375214D02*
X17564167Y-11356167D01*
X17564167Y-11356167D02*
X17583214Y-11346643D01*
X17583214Y-11346643D02*
X17611786Y-11346643D01*
X17611786Y-11346643D02*
X17630833Y-11356167D01*
X17630833Y-11356167D02*
X17640357Y-11375214D01*
X17640357Y-11375214D02*
X17640357Y-11479976D01*
X17998452Y-11270452D02*
X17827024Y-11527595D01*
X18223214Y-11279976D02*
X18242262Y-11279976D01*
X18242262Y-11279976D02*
X18261310Y-11289500D01*
X18261310Y-11289500D02*
X18270833Y-11299024D01*
X18270833Y-11299024D02*
X18280357Y-11318071D01*
X18280357Y-11318071D02*
X18289881Y-11356167D01*
X18289881Y-11356167D02*
X18289881Y-11403786D01*
X18289881Y-11403786D02*
X18280357Y-11441881D01*
X18280357Y-11441881D02*
X18270833Y-11460928D01*
X18270833Y-11460928D02*
X18261310Y-11470452D01*
X18261310Y-11470452D02*
X18242262Y-11479976D01*
X18242262Y-11479976D02*
X18223214Y-11479976D01*
X18223214Y-11479976D02*
X18204167Y-11470452D01*
X18204167Y-11470452D02*
X18194643Y-11460928D01*
X18194643Y-11460928D02*
X18185119Y-11441881D01*
X18185119Y-11441881D02*
X18175595Y-11403786D01*
X18175595Y-11403786D02*
X18175595Y-11356167D01*
X18175595Y-11356167D02*
X18185119Y-11318071D01*
X18185119Y-11318071D02*
X18194643Y-11299024D01*
X18194643Y-11299024D02*
X18204167Y-11289500D01*
X18204167Y-11289500D02*
X18223214Y-11279976D01*
X18375595Y-11460928D02*
X18385119Y-11470452D01*
X18385119Y-11470452D02*
X18375595Y-11479976D01*
X18375595Y-11479976D02*
X18366072Y-11470452D01*
X18366072Y-11470452D02*
X18375595Y-11460928D01*
X18375595Y-11460928D02*
X18375595Y-11479976D01*
X18508929Y-11279976D02*
X18527976Y-11279976D01*
X18527976Y-11279976D02*
X18547024Y-11289500D01*
X18547024Y-11289500D02*
X18556548Y-11299024D01*
X18556548Y-11299024D02*
X18566072Y-11318071D01*
X18566072Y-11318071D02*
X18575595Y-11356167D01*
X18575595Y-11356167D02*
X18575595Y-11403786D01*
X18575595Y-11403786D02*
X18566072Y-11441881D01*
X18566072Y-11441881D02*
X18556548Y-11460928D01*
X18556548Y-11460928D02*
X18547024Y-11470452D01*
X18547024Y-11470452D02*
X18527976Y-11479976D01*
X18527976Y-11479976D02*
X18508929Y-11479976D01*
X18508929Y-11479976D02*
X18489881Y-11470452D01*
X18489881Y-11470452D02*
X18480357Y-11460928D01*
X18480357Y-11460928D02*
X18470833Y-11441881D01*
X18470833Y-11441881D02*
X18461310Y-11403786D01*
X18461310Y-11403786D02*
X18461310Y-11356167D01*
X18461310Y-11356167D02*
X18470833Y-11318071D01*
X18470833Y-11318071D02*
X18480357Y-11299024D01*
X18480357Y-11299024D02*
X18489881Y-11289500D01*
X18489881Y-11289500D02*
X18508929Y-11279976D01*
X18766072Y-11479976D02*
X18651786Y-11479976D01*
X18708929Y-11479976D02*
X18708929Y-11279976D01*
X18708929Y-11279976D02*
X18689881Y-11308548D01*
X18689881Y-11308548D02*
X18670833Y-11327595D01*
X18670833Y-11327595D02*
X18651786Y-11337119D01*
X18956548Y-11479976D02*
X18842262Y-11479976D01*
X18899405Y-11479976D02*
X18899405Y-11279976D01*
X18899405Y-11279976D02*
X18880357Y-11308548D01*
X18880357Y-11308548D02*
X18861310Y-11327595D01*
X18861310Y-11327595D02*
X18842262Y-11337119D01*
X19070833Y-11365690D02*
X19051786Y-11356167D01*
X19051786Y-11356167D02*
X19042262Y-11346643D01*
X19042262Y-11346643D02*
X19032738Y-11327595D01*
X19032738Y-11327595D02*
X19032738Y-11318071D01*
X19032738Y-11318071D02*
X19042262Y-11299024D01*
X19042262Y-11299024D02*
X19051786Y-11289500D01*
X19051786Y-11289500D02*
X19070833Y-11279976D01*
X19070833Y-11279976D02*
X19108929Y-11279976D01*
X19108929Y-11279976D02*
X19127976Y-11289500D01*
X19127976Y-11289500D02*
X19137500Y-11299024D01*
X19137500Y-11299024D02*
X19147024Y-11318071D01*
X19147024Y-11318071D02*
X19147024Y-11327595D01*
X19147024Y-11327595D02*
X19137500Y-11346643D01*
X19137500Y-11346643D02*
X19127976Y-11356167D01*
X19127976Y-11356167D02*
X19108929Y-11365690D01*
X19108929Y-11365690D02*
X19070833Y-11365690D01*
X19070833Y-11365690D02*
X19051786Y-11375214D01*
X19051786Y-11375214D02*
X19042262Y-11384738D01*
X19042262Y-11384738D02*
X19032738Y-11403786D01*
X19032738Y-11403786D02*
X19032738Y-11441881D01*
X19032738Y-11441881D02*
X19042262Y-11460928D01*
X19042262Y-11460928D02*
X19051786Y-11470452D01*
X19051786Y-11470452D02*
X19070833Y-11479976D01*
X19070833Y-11479976D02*
X19108929Y-11479976D01*
X19108929Y-11479976D02*
X19127976Y-11470452D01*
X19127976Y-11470452D02*
X19137500Y-11460928D01*
X19137500Y-11460928D02*
X19147024Y-11441881D01*
X19147024Y-11441881D02*
X19147024Y-11403786D01*
X19147024Y-11403786D02*
X19137500Y-11384738D01*
X19137500Y-11384738D02*
X19127976Y-11375214D01*
X19127976Y-11375214D02*
X19108929Y-11365690D01*
X19223214Y-11279976D02*
X19223214Y-11318071D01*
X19299405Y-11279976D02*
X19299405Y-11318071D01*
X19562262Y-11556167D02*
X19552738Y-11546643D01*
X19552738Y-11546643D02*
X19533691Y-11518071D01*
X19533691Y-11518071D02*
X19524167Y-11499024D01*
X19524167Y-11499024D02*
X19514643Y-11470452D01*
X19514643Y-11470452D02*
X19505119Y-11422833D01*
X19505119Y-11422833D02*
X19505119Y-11384738D01*
X19505119Y-11384738D02*
X19514643Y-11337119D01*
X19514643Y-11337119D02*
X19524167Y-11308548D01*
X19524167Y-11308548D02*
X19533691Y-11289500D01*
X19533691Y-11289500D02*
X19552738Y-11260928D01*
X19552738Y-11260928D02*
X19562262Y-11251405D01*
X19724167Y-11279976D02*
X19686072Y-11279976D01*
X19686072Y-11279976D02*
X19667024Y-11289500D01*
X19667024Y-11289500D02*
X19657500Y-11299024D01*
X19657500Y-11299024D02*
X19638453Y-11327595D01*
X19638453Y-11327595D02*
X19628929Y-11365690D01*
X19628929Y-11365690D02*
X19628929Y-11441881D01*
X19628929Y-11441881D02*
X19638453Y-11460928D01*
X19638453Y-11460928D02*
X19647976Y-11470452D01*
X19647976Y-11470452D02*
X19667024Y-11479976D01*
X19667024Y-11479976D02*
X19705119Y-11479976D01*
X19705119Y-11479976D02*
X19724167Y-11470452D01*
X19724167Y-11470452D02*
X19733691Y-11460928D01*
X19733691Y-11460928D02*
X19743214Y-11441881D01*
X19743214Y-11441881D02*
X19743214Y-11394262D01*
X19743214Y-11394262D02*
X19733691Y-11375214D01*
X19733691Y-11375214D02*
X19724167Y-11365690D01*
X19724167Y-11365690D02*
X19705119Y-11356167D01*
X19705119Y-11356167D02*
X19667024Y-11356167D01*
X19667024Y-11356167D02*
X19647976Y-11365690D01*
X19647976Y-11365690D02*
X19638453Y-11375214D01*
X19638453Y-11375214D02*
X19628929Y-11394262D01*
X19948929Y-11479976D02*
X19948929Y-11279976D01*
X20034643Y-11479976D02*
X20034643Y-11375214D01*
X20034643Y-11375214D02*
X20025119Y-11356167D01*
X20025119Y-11356167D02*
X20006072Y-11346643D01*
X20006072Y-11346643D02*
X19977500Y-11346643D01*
X19977500Y-11346643D02*
X19958453Y-11356167D01*
X19958453Y-11356167D02*
X19948929Y-11365690D01*
X20158453Y-11479976D02*
X20139405Y-11470452D01*
X20139405Y-11470452D02*
X20129881Y-11460928D01*
X20129881Y-11460928D02*
X20120357Y-11441881D01*
X20120357Y-11441881D02*
X20120357Y-11384738D01*
X20120357Y-11384738D02*
X20129881Y-11365690D01*
X20129881Y-11365690D02*
X20139405Y-11356167D01*
X20139405Y-11356167D02*
X20158453Y-11346643D01*
X20158453Y-11346643D02*
X20187024Y-11346643D01*
X20187024Y-11346643D02*
X20206072Y-11356167D01*
X20206072Y-11356167D02*
X20215595Y-11365690D01*
X20215595Y-11365690D02*
X20225119Y-11384738D01*
X20225119Y-11384738D02*
X20225119Y-11441881D01*
X20225119Y-11441881D02*
X20215595Y-11460928D01*
X20215595Y-11460928D02*
X20206072Y-11470452D01*
X20206072Y-11470452D02*
X20187024Y-11479976D01*
X20187024Y-11479976D02*
X20158453Y-11479976D01*
X20339405Y-11479976D02*
X20320357Y-11470452D01*
X20320357Y-11470452D02*
X20310834Y-11451405D01*
X20310834Y-11451405D02*
X20310834Y-11279976D01*
X20491786Y-11470452D02*
X20472738Y-11479976D01*
X20472738Y-11479976D02*
X20434643Y-11479976D01*
X20434643Y-11479976D02*
X20415595Y-11470452D01*
X20415595Y-11470452D02*
X20406072Y-11451405D01*
X20406072Y-11451405D02*
X20406072Y-11375214D01*
X20406072Y-11375214D02*
X20415595Y-11356167D01*
X20415595Y-11356167D02*
X20434643Y-11346643D01*
X20434643Y-11346643D02*
X20472738Y-11346643D01*
X20472738Y-11346643D02*
X20491786Y-11356167D01*
X20491786Y-11356167D02*
X20501310Y-11375214D01*
X20501310Y-11375214D02*
X20501310Y-11394262D01*
X20501310Y-11394262D02*
X20406072Y-11413309D01*
X20577500Y-11470452D02*
X20596548Y-11479976D01*
X20596548Y-11479976D02*
X20634643Y-11479976D01*
X20634643Y-11479976D02*
X20653691Y-11470452D01*
X20653691Y-11470452D02*
X20663215Y-11451405D01*
X20663215Y-11451405D02*
X20663215Y-11441881D01*
X20663215Y-11441881D02*
X20653691Y-11422833D01*
X20653691Y-11422833D02*
X20634643Y-11413309D01*
X20634643Y-11413309D02*
X20606072Y-11413309D01*
X20606072Y-11413309D02*
X20587024Y-11403786D01*
X20587024Y-11403786D02*
X20577500Y-11384738D01*
X20577500Y-11384738D02*
X20577500Y-11375214D01*
X20577500Y-11375214D02*
X20587024Y-11356167D01*
X20587024Y-11356167D02*
X20606072Y-11346643D01*
X20606072Y-11346643D02*
X20634643Y-11346643D01*
X20634643Y-11346643D02*
X20653691Y-11356167D01*
X20729881Y-11556167D02*
X20739405Y-11546643D01*
X20739405Y-11546643D02*
X20758453Y-11518071D01*
X20758453Y-11518071D02*
X20767976Y-11499024D01*
X20767976Y-11499024D02*
X20777500Y-11470452D01*
X20777500Y-11470452D02*
X20787024Y-11422833D01*
X20787024Y-11422833D02*
X20787024Y-11384738D01*
X20787024Y-11384738D02*
X20777500Y-11337119D01*
X20777500Y-11337119D02*
X20767976Y-11308548D01*
X20767976Y-11308548D02*
X20758453Y-11289500D01*
X20758453Y-11289500D02*
X20739405Y-11260928D01*
X20739405Y-11260928D02*
X20729881Y-11251405D01*
D10*
X16072500Y-11645500D02*
X16072500Y-11695500D01*
X16047500Y-11670500D02*
X16097500Y-11670500D01*
D11*
X16383214Y-11543976D02*
X16402262Y-11543976D01*
X16402262Y-11543976D02*
X16421309Y-11553500D01*
X16421309Y-11553500D02*
X16430833Y-11563024D01*
X16430833Y-11563024D02*
X16440357Y-11582071D01*
X16440357Y-11582071D02*
X16449881Y-11620167D01*
X16449881Y-11620167D02*
X16449881Y-11667786D01*
X16449881Y-11667786D02*
X16440357Y-11705881D01*
X16440357Y-11705881D02*
X16430833Y-11724928D01*
X16430833Y-11724928D02*
X16421309Y-11734452D01*
X16421309Y-11734452D02*
X16402262Y-11743976D01*
X16402262Y-11743976D02*
X16383214Y-11743976D01*
X16383214Y-11743976D02*
X16364167Y-11734452D01*
X16364167Y-11734452D02*
X16354643Y-11724928D01*
X16354643Y-11724928D02*
X16345119Y-11705881D01*
X16345119Y-11705881D02*
X16335595Y-11667786D01*
X16335595Y-11667786D02*
X16335595Y-11620167D01*
X16335595Y-11620167D02*
X16345119Y-11582071D01*
X16345119Y-11582071D02*
X16354643Y-11563024D01*
X16354643Y-11563024D02*
X16364167Y-11553500D01*
X16364167Y-11553500D02*
X16383214Y-11543976D01*
X16535595Y-11724928D02*
X16545119Y-11734452D01*
X16545119Y-11734452D02*
X16535595Y-11743976D01*
X16535595Y-11743976D02*
X16526071Y-11734452D01*
X16526071Y-11734452D02*
X16535595Y-11724928D01*
X16535595Y-11724928D02*
X16535595Y-11743976D01*
X16726071Y-11543976D02*
X16630833Y-11543976D01*
X16630833Y-11543976D02*
X16621309Y-11639214D01*
X16621309Y-11639214D02*
X16630833Y-11629690D01*
X16630833Y-11629690D02*
X16649881Y-11620167D01*
X16649881Y-11620167D02*
X16697500Y-11620167D01*
X16697500Y-11620167D02*
X16716548Y-11629690D01*
X16716548Y-11629690D02*
X16726071Y-11639214D01*
X16726071Y-11639214D02*
X16735595Y-11658262D01*
X16735595Y-11658262D02*
X16735595Y-11705881D01*
X16735595Y-11705881D02*
X16726071Y-11724928D01*
X16726071Y-11724928D02*
X16716548Y-11734452D01*
X16716548Y-11734452D02*
X16697500Y-11743976D01*
X16697500Y-11743976D02*
X16649881Y-11743976D01*
X16649881Y-11743976D02*
X16630833Y-11734452D01*
X16630833Y-11734452D02*
X16621309Y-11724928D01*
X16859405Y-11543976D02*
X16878452Y-11543976D01*
X16878452Y-11543976D02*
X16897500Y-11553500D01*
X16897500Y-11553500D02*
X16907024Y-11563024D01*
X16907024Y-11563024D02*
X16916548Y-11582071D01*
X16916548Y-11582071D02*
X16926071Y-11620167D01*
X16926071Y-11620167D02*
X16926071Y-11667786D01*
X16926071Y-11667786D02*
X16916548Y-11705881D01*
X16916548Y-11705881D02*
X16907024Y-11724928D01*
X16907024Y-11724928D02*
X16897500Y-11734452D01*
X16897500Y-11734452D02*
X16878452Y-11743976D01*
X16878452Y-11743976D02*
X16859405Y-11743976D01*
X16859405Y-11743976D02*
X16840357Y-11734452D01*
X16840357Y-11734452D02*
X16830833Y-11724928D01*
X16830833Y-11724928D02*
X16821310Y-11705881D01*
X16821310Y-11705881D02*
X16811786Y-11667786D01*
X16811786Y-11667786D02*
X16811786Y-11620167D01*
X16811786Y-11620167D02*
X16821310Y-11582071D01*
X16821310Y-11582071D02*
X16830833Y-11563024D01*
X16830833Y-11563024D02*
X16840357Y-11553500D01*
X16840357Y-11553500D02*
X16859405Y-11543976D01*
X17049881Y-11543976D02*
X17068929Y-11543976D01*
X17068929Y-11543976D02*
X17087976Y-11553500D01*
X17087976Y-11553500D02*
X17097500Y-11563024D01*
X17097500Y-11563024D02*
X17107024Y-11582071D01*
X17107024Y-11582071D02*
X17116548Y-11620167D01*
X17116548Y-11620167D02*
X17116548Y-11667786D01*
X17116548Y-11667786D02*
X17107024Y-11705881D01*
X17107024Y-11705881D02*
X17097500Y-11724928D01*
X17097500Y-11724928D02*
X17087976Y-11734452D01*
X17087976Y-11734452D02*
X17068929Y-11743976D01*
X17068929Y-11743976D02*
X17049881Y-11743976D01*
X17049881Y-11743976D02*
X17030833Y-11734452D01*
X17030833Y-11734452D02*
X17021310Y-11724928D01*
X17021310Y-11724928D02*
X17011786Y-11705881D01*
X17011786Y-11705881D02*
X17002262Y-11667786D01*
X17002262Y-11667786D02*
X17002262Y-11620167D01*
X17002262Y-11620167D02*
X17011786Y-11582071D01*
X17011786Y-11582071D02*
X17021310Y-11563024D01*
X17021310Y-11563024D02*
X17030833Y-11553500D01*
X17030833Y-11553500D02*
X17049881Y-11543976D01*
X17202262Y-11743976D02*
X17202262Y-11610643D01*
X17202262Y-11629690D02*
X17211786Y-11620167D01*
X17211786Y-11620167D02*
X17230833Y-11610643D01*
X17230833Y-11610643D02*
X17259405Y-11610643D01*
X17259405Y-11610643D02*
X17278452Y-11620167D01*
X17278452Y-11620167D02*
X17287976Y-11639214D01*
X17287976Y-11639214D02*
X17287976Y-11743976D01*
X17287976Y-11639214D02*
X17297500Y-11620167D01*
X17297500Y-11620167D02*
X17316548Y-11610643D01*
X17316548Y-11610643D02*
X17345119Y-11610643D01*
X17345119Y-11610643D02*
X17364167Y-11620167D01*
X17364167Y-11620167D02*
X17373691Y-11639214D01*
X17373691Y-11639214D02*
X17373691Y-11743976D01*
X17468929Y-11743976D02*
X17468929Y-11610643D01*
X17468929Y-11629690D02*
X17478452Y-11620167D01*
X17478452Y-11620167D02*
X17497500Y-11610643D01*
X17497500Y-11610643D02*
X17526072Y-11610643D01*
X17526072Y-11610643D02*
X17545119Y-11620167D01*
X17545119Y-11620167D02*
X17554643Y-11639214D01*
X17554643Y-11639214D02*
X17554643Y-11743976D01*
X17554643Y-11639214D02*
X17564167Y-11620167D01*
X17564167Y-11620167D02*
X17583214Y-11610643D01*
X17583214Y-11610643D02*
X17611786Y-11610643D01*
X17611786Y-11610643D02*
X17630833Y-11620167D01*
X17630833Y-11620167D02*
X17640357Y-11639214D01*
X17640357Y-11639214D02*
X17640357Y-11743976D01*
X17998452Y-11534452D02*
X17827024Y-11791595D01*
X18223214Y-11543976D02*
X18242262Y-11543976D01*
X18242262Y-11543976D02*
X18261310Y-11553500D01*
X18261310Y-11553500D02*
X18270833Y-11563024D01*
X18270833Y-11563024D02*
X18280357Y-11582071D01*
X18280357Y-11582071D02*
X18289881Y-11620167D01*
X18289881Y-11620167D02*
X18289881Y-11667786D01*
X18289881Y-11667786D02*
X18280357Y-11705881D01*
X18280357Y-11705881D02*
X18270833Y-11724928D01*
X18270833Y-11724928D02*
X18261310Y-11734452D01*
X18261310Y-11734452D02*
X18242262Y-11743976D01*
X18242262Y-11743976D02*
X18223214Y-11743976D01*
X18223214Y-11743976D02*
X18204167Y-11734452D01*
X18204167Y-11734452D02*
X18194643Y-11724928D01*
X18194643Y-11724928D02*
X18185119Y-11705881D01*
X18185119Y-11705881D02*
X18175595Y-11667786D01*
X18175595Y-11667786D02*
X18175595Y-11620167D01*
X18175595Y-11620167D02*
X18185119Y-11582071D01*
X18185119Y-11582071D02*
X18194643Y-11563024D01*
X18194643Y-11563024D02*
X18204167Y-11553500D01*
X18204167Y-11553500D02*
X18223214Y-11543976D01*
X18375595Y-11724928D02*
X18385119Y-11734452D01*
X18385119Y-11734452D02*
X18375595Y-11743976D01*
X18375595Y-11743976D02*
X18366072Y-11734452D01*
X18366072Y-11734452D02*
X18375595Y-11724928D01*
X18375595Y-11724928D02*
X18375595Y-11743976D01*
X18508929Y-11543976D02*
X18527976Y-11543976D01*
X18527976Y-11543976D02*
X18547024Y-11553500D01*
X18547024Y-11553500D02*
X18556548Y-11563024D01*
X18556548Y-11563024D02*
X18566072Y-11582071D01*
X18566072Y-11582071D02*
X18575595Y-11620167D01*
X18575595Y-11620167D02*
X18575595Y-11667786D01*
X18575595Y-11667786D02*
X18566072Y-11705881D01*
X18566072Y-11705881D02*
X18556548Y-11724928D01*
X18556548Y-11724928D02*
X18547024Y-11734452D01*
X18547024Y-11734452D02*
X18527976Y-11743976D01*
X18527976Y-11743976D02*
X18508929Y-11743976D01*
X18508929Y-11743976D02*
X18489881Y-11734452D01*
X18489881Y-11734452D02*
X18480357Y-11724928D01*
X18480357Y-11724928D02*
X18470833Y-11705881D01*
X18470833Y-11705881D02*
X18461310Y-11667786D01*
X18461310Y-11667786D02*
X18461310Y-11620167D01*
X18461310Y-11620167D02*
X18470833Y-11582071D01*
X18470833Y-11582071D02*
X18480357Y-11563024D01*
X18480357Y-11563024D02*
X18489881Y-11553500D01*
X18489881Y-11553500D02*
X18508929Y-11543976D01*
X18766072Y-11743976D02*
X18651786Y-11743976D01*
X18708929Y-11743976D02*
X18708929Y-11543976D01*
X18708929Y-11543976D02*
X18689881Y-11572548D01*
X18689881Y-11572548D02*
X18670833Y-11591595D01*
X18670833Y-11591595D02*
X18651786Y-11601119D01*
X18861310Y-11743976D02*
X18899405Y-11743976D01*
X18899405Y-11743976D02*
X18918453Y-11734452D01*
X18918453Y-11734452D02*
X18927976Y-11724928D01*
X18927976Y-11724928D02*
X18947024Y-11696357D01*
X18947024Y-11696357D02*
X18956548Y-11658262D01*
X18956548Y-11658262D02*
X18956548Y-11582071D01*
X18956548Y-11582071D02*
X18947024Y-11563024D01*
X18947024Y-11563024D02*
X18937500Y-11553500D01*
X18937500Y-11553500D02*
X18918453Y-11543976D01*
X18918453Y-11543976D02*
X18880357Y-11543976D01*
X18880357Y-11543976D02*
X18861310Y-11553500D01*
X18861310Y-11553500D02*
X18851786Y-11563024D01*
X18851786Y-11563024D02*
X18842262Y-11582071D01*
X18842262Y-11582071D02*
X18842262Y-11629690D01*
X18842262Y-11629690D02*
X18851786Y-11648738D01*
X18851786Y-11648738D02*
X18861310Y-11658262D01*
X18861310Y-11658262D02*
X18880357Y-11667786D01*
X18880357Y-11667786D02*
X18918453Y-11667786D01*
X18918453Y-11667786D02*
X18937500Y-11658262D01*
X18937500Y-11658262D02*
X18947024Y-11648738D01*
X18947024Y-11648738D02*
X18956548Y-11629690D01*
X19023214Y-11543976D02*
X19156548Y-11543976D01*
X19156548Y-11543976D02*
X19070833Y-11743976D01*
X19223214Y-11543976D02*
X19223214Y-11582071D01*
X19299405Y-11543976D02*
X19299405Y-11582071D01*
X19562262Y-11820167D02*
X19552738Y-11810643D01*
X19552738Y-11810643D02*
X19533691Y-11782071D01*
X19533691Y-11782071D02*
X19524167Y-11763024D01*
X19524167Y-11763024D02*
X19514643Y-11734452D01*
X19514643Y-11734452D02*
X19505119Y-11686833D01*
X19505119Y-11686833D02*
X19505119Y-11648738D01*
X19505119Y-11648738D02*
X19514643Y-11601119D01*
X19514643Y-11601119D02*
X19524167Y-11572548D01*
X19524167Y-11572548D02*
X19533691Y-11553500D01*
X19533691Y-11553500D02*
X19552738Y-11524928D01*
X19552738Y-11524928D02*
X19562262Y-11515405D01*
X19628929Y-11563024D02*
X19638453Y-11553500D01*
X19638453Y-11553500D02*
X19657500Y-11543976D01*
X19657500Y-11543976D02*
X19705119Y-11543976D01*
X19705119Y-11543976D02*
X19724167Y-11553500D01*
X19724167Y-11553500D02*
X19733691Y-11563024D01*
X19733691Y-11563024D02*
X19743214Y-11582071D01*
X19743214Y-11582071D02*
X19743214Y-11601119D01*
X19743214Y-11601119D02*
X19733691Y-11629690D01*
X19733691Y-11629690D02*
X19619405Y-11743976D01*
X19619405Y-11743976D02*
X19743214Y-11743976D01*
X19948929Y-11743976D02*
X19948929Y-11543976D01*
X20034643Y-11743976D02*
X20034643Y-11639214D01*
X20034643Y-11639214D02*
X20025119Y-11620167D01*
X20025119Y-11620167D02*
X20006072Y-11610643D01*
X20006072Y-11610643D02*
X19977500Y-11610643D01*
X19977500Y-11610643D02*
X19958453Y-11620167D01*
X19958453Y-11620167D02*
X19948929Y-11629690D01*
X20158453Y-11743976D02*
X20139405Y-11734452D01*
X20139405Y-11734452D02*
X20129881Y-11724928D01*
X20129881Y-11724928D02*
X20120357Y-11705881D01*
X20120357Y-11705881D02*
X20120357Y-11648738D01*
X20120357Y-11648738D02*
X20129881Y-11629690D01*
X20129881Y-11629690D02*
X20139405Y-11620167D01*
X20139405Y-11620167D02*
X20158453Y-11610643D01*
X20158453Y-11610643D02*
X20187024Y-11610643D01*
X20187024Y-11610643D02*
X20206072Y-11620167D01*
X20206072Y-11620167D02*
X20215595Y-11629690D01*
X20215595Y-11629690D02*
X20225119Y-11648738D01*
X20225119Y-11648738D02*
X20225119Y-11705881D01*
X20225119Y-11705881D02*
X20215595Y-11724928D01*
X20215595Y-11724928D02*
X20206072Y-11734452D01*
X20206072Y-11734452D02*
X20187024Y-11743976D01*
X20187024Y-11743976D02*
X20158453Y-11743976D01*
X20339405Y-11743976D02*
X20320357Y-11734452D01*
X20320357Y-11734452D02*
X20310834Y-11715405D01*
X20310834Y-11715405D02*
X20310834Y-11543976D01*
X20491786Y-11734452D02*
X20472738Y-11743976D01*
X20472738Y-11743976D02*
X20434643Y-11743976D01*
X20434643Y-11743976D02*
X20415595Y-11734452D01*
X20415595Y-11734452D02*
X20406072Y-11715405D01*
X20406072Y-11715405D02*
X20406072Y-11639214D01*
X20406072Y-11639214D02*
X20415595Y-11620167D01*
X20415595Y-11620167D02*
X20434643Y-11610643D01*
X20434643Y-11610643D02*
X20472738Y-11610643D01*
X20472738Y-11610643D02*
X20491786Y-11620167D01*
X20491786Y-11620167D02*
X20501310Y-11639214D01*
X20501310Y-11639214D02*
X20501310Y-11658262D01*
X20501310Y-11658262D02*
X20406072Y-11677309D01*
X20577500Y-11734452D02*
X20596548Y-11743976D01*
X20596548Y-11743976D02*
X20634643Y-11743976D01*
X20634643Y-11743976D02*
X20653691Y-11734452D01*
X20653691Y-11734452D02*
X20663215Y-11715405D01*
X20663215Y-11715405D02*
X20663215Y-11705881D01*
X20663215Y-11705881D02*
X20653691Y-11686833D01*
X20653691Y-11686833D02*
X20634643Y-11677309D01*
X20634643Y-11677309D02*
X20606072Y-11677309D01*
X20606072Y-11677309D02*
X20587024Y-11667786D01*
X20587024Y-11667786D02*
X20577500Y-11648738D01*
X20577500Y-11648738D02*
X20577500Y-11639214D01*
X20577500Y-11639214D02*
X20587024Y-11620167D01*
X20587024Y-11620167D02*
X20606072Y-11610643D01*
X20606072Y-11610643D02*
X20634643Y-11610643D01*
X20634643Y-11610643D02*
X20653691Y-11620167D01*
X20729881Y-11820167D02*
X20739405Y-11810643D01*
X20739405Y-11810643D02*
X20758453Y-11782071D01*
X20758453Y-11782071D02*
X20767976Y-11763024D01*
X20767976Y-11763024D02*
X20777500Y-11734452D01*
X20777500Y-11734452D02*
X20787024Y-11686833D01*
X20787024Y-11686833D02*
X20787024Y-11648738D01*
X20787024Y-11648738D02*
X20777500Y-11601119D01*
X20777500Y-11601119D02*
X20767976Y-11572548D01*
X20767976Y-11572548D02*
X20758453Y-11553500D01*
X20758453Y-11553500D02*
X20739405Y-11524928D01*
X20739405Y-11524928D02*
X20729881Y-11515405D01*
M02*
