G04 #@! TF.GenerationSoftware,KiCad,Pcbnew,(7.0.0-0)*
G04 #@! TF.CreationDate,2024-02-04T16:47:07+08:00*
G04 #@! TF.ProjectId,Revolute,5265766f-6c75-4746-952e-6b696361645f,rev?*
G04 #@! TF.SameCoordinates,Original*
G04 #@! TF.FileFunction,Copper,L2,Inr*
G04 #@! TF.FilePolarity,Positive*
%FSLAX46Y46*%
G04 Gerber Fmt 4.6, Leading zero omitted, Abs format (unit mm)*
G04 Created by KiCad (PCBNEW (7.0.0-0)) date 2024-02-04 16:47:07*
%MOMM*%
%LPD*%
G01*
G04 APERTURE LIST*
G04 #@! TA.AperFunction,ComponentPad*
%ADD10C,0.600000*%
G04 #@! TD*
G04 #@! TA.AperFunction,ViaPad*
%ADD11C,0.450000*%
G04 #@! TD*
G04 #@! TA.AperFunction,ViaPad*
%ADD12C,0.800000*%
G04 #@! TD*
G04 #@! TA.AperFunction,Conductor*
%ADD13C,0.100000*%
G04 #@! TD*
G04 #@! TA.AperFunction,Conductor*
%ADD14C,0.300000*%
G04 #@! TD*
G04 #@! TA.AperFunction,Conductor*
%ADD15C,0.200000*%
G04 #@! TD*
G04 APERTURE END LIST*
D10*
X174775000Y-93425000D03*
X175775000Y-93425000D03*
X174775000Y-92525000D03*
X175775000Y-92525000D03*
X174775000Y-91625000D03*
X175775000Y-91625000D03*
D11*
X164774500Y-98220000D03*
X176974773Y-102514392D03*
X175075000Y-101800000D03*
X180150000Y-92200000D03*
X162760000Y-98180000D03*
X162160000Y-95590000D03*
X173070000Y-101600000D03*
X162442836Y-90461363D03*
X169700000Y-98550000D03*
X164930000Y-100200000D03*
X169650000Y-89820000D03*
X179911016Y-98562057D03*
X174794755Y-103788534D03*
X165190000Y-91647017D03*
X173847847Y-104118323D03*
X179003299Y-100302672D03*
X171197360Y-104516761D03*
X166164828Y-88520000D03*
X177728879Y-101845893D03*
X167764828Y-90914500D03*
X165820000Y-101120000D03*
X174200000Y-87125000D03*
X177250000Y-96700000D03*
D12*
X175240000Y-88600000D03*
D11*
X165485188Y-93614812D03*
X179505160Y-99451662D03*
X171570000Y-99170000D03*
X174075000Y-99550000D03*
X165257553Y-100780442D03*
X163698572Y-98148521D03*
X170350000Y-92300000D03*
X167850000Y-97200000D03*
X166950000Y-91750000D03*
X163475500Y-92141001D03*
D12*
X177770000Y-91230000D03*
D11*
X171875000Y-102050000D03*
X175325000Y-96725000D03*
X163250000Y-97400000D03*
X163199979Y-92750054D03*
X173725000Y-95150000D03*
X173206347Y-95424500D03*
X162878125Y-93620000D03*
X168620000Y-93750000D03*
X174800000Y-99600000D03*
X167550000Y-100400000D03*
X171000000Y-100100000D03*
X169480000Y-103044502D03*
X173300000Y-90975000D03*
X174675000Y-95050000D03*
X176850000Y-89775000D03*
X171725000Y-90150000D03*
X173650000Y-94525000D03*
X178000000Y-93050000D03*
X178570000Y-93050000D03*
X170825000Y-97500000D03*
X175775000Y-95250000D03*
X163705500Y-95634390D03*
X162878125Y-95220000D03*
X176400000Y-95275000D03*
X171625000Y-97075000D03*
X177782947Y-98050500D03*
X163705500Y-94834390D03*
X176050500Y-96875000D03*
X168700000Y-90780000D03*
X168608057Y-94299373D03*
X165695578Y-92150000D03*
X165850000Y-91550000D03*
X169650000Y-90780000D03*
X167283750Y-96707446D03*
X169095000Y-97637500D03*
X171520000Y-92810000D03*
X164994390Y-96894500D03*
X163689290Y-96424268D03*
X174362500Y-98612500D03*
X176550000Y-98450000D03*
X162878125Y-96020000D03*
D13*
X174075000Y-99550000D02*
X173695000Y-99170000D01*
X173695000Y-99170000D02*
X171570000Y-99170000D01*
D14*
X175300000Y-96700000D02*
X175325000Y-96725000D01*
X163250000Y-97400000D02*
X163925000Y-97400000D01*
X175300000Y-94775000D02*
X175300000Y-96700000D01*
X179860000Y-93615000D02*
X179075000Y-94400000D01*
X179860000Y-92581752D02*
X179860000Y-93615000D01*
X167600000Y-102050000D02*
X171875000Y-102050000D01*
X178508248Y-91230000D02*
X179860000Y-92581752D01*
X177770000Y-91230000D02*
X178508248Y-91230000D01*
X179075000Y-94400000D02*
X175675000Y-94400000D01*
X164300000Y-98750000D02*
X167600000Y-102050000D01*
X175675000Y-94400000D02*
X175300000Y-94775000D01*
X163925000Y-97400000D02*
X164300000Y-97775000D01*
X164300000Y-97775000D02*
X164300000Y-98750000D01*
D13*
X173725000Y-95150000D02*
X173315000Y-94740000D01*
X173315000Y-94740000D02*
X165990000Y-94740000D01*
X164010000Y-92760000D02*
X163230000Y-92760000D01*
X165990000Y-94740000D02*
X164010000Y-92760000D01*
X164210000Y-93620000D02*
X165530000Y-94940000D01*
X165530000Y-94940000D02*
X172721847Y-94940000D01*
X162878125Y-93620000D02*
X164210000Y-93620000D01*
X172721847Y-94940000D02*
X173206347Y-95424500D01*
D15*
X177050000Y-94000000D02*
X175484718Y-94000000D01*
X178570000Y-93050000D02*
X178000000Y-93050000D01*
X178000000Y-93050000D02*
X177050000Y-94000000D01*
X175484718Y-94000000D02*
X174959718Y-94525000D01*
X174959718Y-94525000D02*
X173650000Y-94525000D01*
D13*
X176175000Y-94850000D02*
X176625000Y-94850000D01*
X176200000Y-97750000D02*
X171075000Y-97750000D01*
X163799890Y-95540000D02*
X168865000Y-95540000D01*
X176625000Y-94850000D02*
X176875000Y-95100000D01*
X171075000Y-97750000D02*
X170825000Y-97500000D01*
X168865000Y-95540000D02*
X170825000Y-97500000D01*
X163705500Y-95634390D02*
X163799890Y-95540000D01*
X175775000Y-95250000D02*
X176175000Y-94850000D01*
X176875000Y-95100000D02*
X176875000Y-97075000D01*
X176875000Y-97075000D02*
X176200000Y-97750000D01*
X164590000Y-95340000D02*
X169890000Y-95340000D01*
X162878125Y-95220000D02*
X164470000Y-95220000D01*
X176425000Y-95300000D02*
X176425000Y-97125000D01*
X176050000Y-97500000D02*
X172050000Y-97500000D01*
X172050000Y-97500000D02*
X171625000Y-97075000D01*
X164470000Y-95220000D02*
X164590000Y-95340000D01*
X169890000Y-95340000D02*
X171625000Y-97075000D01*
X176425000Y-97125000D02*
X176050000Y-97500000D01*
X176400000Y-95275000D02*
X176425000Y-95300000D01*
X165087157Y-95140000D02*
X170570000Y-95140000D01*
X175725500Y-97200000D02*
X176050500Y-96875000D01*
X172630000Y-97200000D02*
X175725500Y-97200000D01*
X163705500Y-94834390D02*
X164781547Y-94834390D01*
X164781547Y-94834390D02*
X165087157Y-95140000D01*
X170570000Y-95140000D02*
X172630000Y-97200000D01*
X165840000Y-92150000D02*
X167450000Y-90540000D01*
X168608057Y-94299373D02*
X166799373Y-94299373D01*
X167450000Y-90540000D02*
X168460000Y-90540000D01*
X165695578Y-92150000D02*
X165840000Y-92150000D01*
X168460000Y-90540000D02*
X168700000Y-90780000D01*
X166799373Y-94299373D02*
X165695578Y-93195578D01*
X165695578Y-93195578D02*
X165695578Y-92150000D01*
X169650000Y-90780000D02*
X169140000Y-90270000D01*
X167180000Y-90270000D02*
X165880000Y-91570000D01*
X169140000Y-90270000D02*
X167180000Y-90270000D01*
X169095000Y-97637500D02*
X168164946Y-96707446D01*
X168164946Y-96707446D02*
X167283750Y-96707446D01*
X165110000Y-95940000D02*
X167965000Y-95940000D01*
X170325000Y-98300000D02*
X174050000Y-98300000D01*
X164625732Y-96424268D02*
X165110000Y-95940000D01*
X167965000Y-95940000D02*
X170325000Y-98300000D01*
X174050000Y-98300000D02*
X174362500Y-98612500D01*
X163689290Y-96424268D02*
X164625732Y-96424268D01*
X168340000Y-95740000D02*
X170650000Y-98050000D01*
X170650000Y-98050000D02*
X176150000Y-98050000D01*
X164570000Y-95740000D02*
X168340000Y-95740000D01*
X176150000Y-98050000D02*
X176550000Y-98450000D01*
X164290000Y-96020000D02*
X164570000Y-95740000D01*
X162878125Y-96020000D02*
X164290000Y-96020000D01*
G04 #@! TA.AperFunction,Conductor*
G36*
X168481717Y-85481183D02*
G01*
X168517276Y-85524668D01*
X168530000Y-85579381D01*
X168530000Y-88420000D01*
X173513674Y-88420000D01*
X173530000Y-88420000D01*
X173530000Y-85593023D01*
X173542596Y-85538571D01*
X173577824Y-85495180D01*
X173628527Y-85471668D01*
X173684405Y-85472808D01*
X173725366Y-85483169D01*
X173732850Y-85485315D01*
X174320125Y-85673991D01*
X174327482Y-85676614D01*
X174865031Y-85887564D01*
X174901657Y-85901937D01*
X174908847Y-85905024D01*
X175467654Y-86166103D01*
X175474634Y-86169636D01*
X176015891Y-86465451D01*
X176022610Y-86469404D01*
X176333119Y-86665502D01*
X176544139Y-86798769D01*
X176550619Y-86803154D01*
X177050304Y-87164728D01*
X177056495Y-87169512D01*
X177532404Y-87561898D01*
X177538280Y-87567063D01*
X177647301Y-87669158D01*
X177988493Y-87988677D01*
X177994012Y-87994182D01*
X178109900Y-88117319D01*
X178416752Y-88443366D01*
X178421931Y-88449230D01*
X178815477Y-88924147D01*
X178820277Y-88930326D01*
X179183092Y-89429123D01*
X179187493Y-89435592D01*
X179518143Y-89956300D01*
X179522126Y-89963034D01*
X179819266Y-90503534D01*
X179822817Y-90510505D01*
X180085281Y-91068673D01*
X180088380Y-91075841D01*
X180315129Y-91649473D01*
X180317774Y-91656836D01*
X180507889Y-92243605D01*
X180510064Y-92251120D01*
X180589027Y-92560078D01*
X180589956Y-92617591D01*
X180564834Y-92669336D01*
X180519067Y-92704177D01*
X180462502Y-92714618D01*
X180417929Y-92712319D01*
X180417925Y-92712318D01*
X180417925Y-92712319D01*
X180410959Y-92711960D01*
X180401215Y-92711458D01*
X180393042Y-92716774D01*
X180389355Y-92718420D01*
X180389355Y-92718421D01*
X180380444Y-92722396D01*
X180371023Y-92724930D01*
X180364891Y-92732513D01*
X180357653Y-92739041D01*
X180357651Y-92739044D01*
X180354648Y-92741752D01*
X180346471Y-92747073D01*
X180345657Y-92749195D01*
X180297932Y-92775484D01*
X180241331Y-92777892D01*
X180189565Y-92754873D01*
X180153442Y-92711231D01*
X180140500Y-92656076D01*
X180140500Y-92629715D01*
X180140693Y-92626930D01*
X180142622Y-92621176D01*
X180140632Y-92578130D01*
X180140500Y-92572404D01*
X180140500Y-92561494D01*
X180140500Y-92555759D01*
X180139464Y-92550222D01*
X180139096Y-92544911D01*
X180138309Y-92527894D01*
X180137779Y-92516419D01*
X180133138Y-92505908D01*
X180131223Y-92497765D01*
X180128200Y-92489963D01*
X180126089Y-92478668D01*
X180113261Y-92457950D01*
X180105262Y-92442776D01*
X180095421Y-92420486D01*
X180087294Y-92412359D01*
X180082567Y-92405458D01*
X180076931Y-92399275D01*
X180070883Y-92389507D01*
X180061716Y-92382584D01*
X180061713Y-92382581D01*
X180051439Y-92374823D01*
X180038486Y-92363551D01*
X178740508Y-91065573D01*
X178738673Y-91063465D01*
X178735969Y-91058033D01*
X178704115Y-91028994D01*
X178699973Y-91025038D01*
X178692270Y-91017335D01*
X178688212Y-91013277D01*
X178683560Y-91010090D01*
X178679537Y-91006588D01*
X178678434Y-91005582D01*
X178658470Y-90987383D01*
X178647755Y-90983232D01*
X178640638Y-90978825D01*
X178632985Y-90975446D01*
X178623510Y-90968955D01*
X178612329Y-90966325D01*
X178612324Y-90966323D01*
X178599793Y-90963376D01*
X178583395Y-90958298D01*
X178571398Y-90953650D01*
X178571392Y-90953648D01*
X178560683Y-90949500D01*
X178549198Y-90949500D01*
X178540971Y-90947962D01*
X178532610Y-90947575D01*
X178521427Y-90944945D01*
X178510049Y-90946532D01*
X178510045Y-90946532D01*
X178497298Y-90948311D01*
X178480166Y-90949500D01*
X178284595Y-90949500D01*
X178229751Y-90936712D01*
X178186220Y-90900987D01*
X178148357Y-90851643D01*
X178115913Y-90826748D01*
X178043986Y-90771556D01*
X178037539Y-90766609D01*
X178030030Y-90763498D01*
X178030029Y-90763498D01*
X177915997Y-90716264D01*
X177915994Y-90716263D01*
X177908488Y-90713154D01*
X177900434Y-90712093D01*
X177900428Y-90712092D01*
X177778059Y-90695983D01*
X177770000Y-90694922D01*
X177761941Y-90695983D01*
X177639571Y-90712092D01*
X177639563Y-90712094D01*
X177631512Y-90713154D01*
X177624007Y-90716262D01*
X177624002Y-90716264D01*
X177509970Y-90763498D01*
X177509966Y-90763500D01*
X177502461Y-90766609D01*
X177496016Y-90771553D01*
X177496013Y-90771556D01*
X177398085Y-90846699D01*
X177398081Y-90846702D01*
X177391643Y-90851643D01*
X177386702Y-90858081D01*
X177386699Y-90858085D01*
X177311556Y-90956013D01*
X177311553Y-90956016D01*
X177306609Y-90962461D01*
X177303500Y-90969966D01*
X177303498Y-90969970D01*
X177256264Y-91084002D01*
X177256262Y-91084007D01*
X177253154Y-91091512D01*
X177252094Y-91099563D01*
X177252092Y-91099571D01*
X177239294Y-91196790D01*
X177234922Y-91230000D01*
X177235983Y-91238059D01*
X177252092Y-91360428D01*
X177252093Y-91360434D01*
X177253154Y-91368488D01*
X177256263Y-91375994D01*
X177256264Y-91375997D01*
X177303498Y-91490029D01*
X177306609Y-91497539D01*
X177311556Y-91503986D01*
X177386697Y-91601912D01*
X177391643Y-91608357D01*
X177502461Y-91693391D01*
X177631512Y-91746846D01*
X177639570Y-91747906D01*
X177639571Y-91747907D01*
X177673988Y-91752438D01*
X177770000Y-91765078D01*
X177908488Y-91746846D01*
X178037539Y-91693391D01*
X178148357Y-91608357D01*
X178186220Y-91559012D01*
X178229751Y-91523288D01*
X178284595Y-91510500D01*
X178340699Y-91510500D01*
X178388152Y-91519939D01*
X178428380Y-91546819D01*
X179543181Y-92661620D01*
X179570061Y-92701848D01*
X179579500Y-92749301D01*
X179579500Y-93447451D01*
X179570061Y-93494904D01*
X179543181Y-93535132D01*
X178995132Y-94083181D01*
X178954904Y-94110061D01*
X178907451Y-94119500D01*
X177555838Y-94119500D01*
X177499543Y-94105985D01*
X177455520Y-94068385D01*
X177433365Y-94014898D01*
X177437907Y-93957182D01*
X177468157Y-93907819D01*
X177931253Y-93444723D01*
X177971481Y-93417843D01*
X178000343Y-93412101D01*
X178000000Y-93409931D01*
X178111225Y-93392315D01*
X178211562Y-93341190D01*
X178215244Y-93337507D01*
X178259219Y-93317929D01*
X178310781Y-93317929D01*
X178354755Y-93337507D01*
X178358438Y-93341190D01*
X178367133Y-93345620D01*
X178367134Y-93345621D01*
X178380619Y-93352492D01*
X178458775Y-93392315D01*
X178570000Y-93409931D01*
X178681225Y-93392315D01*
X178781562Y-93341190D01*
X178861190Y-93261562D01*
X178912315Y-93161225D01*
X178929931Y-93050000D01*
X178912315Y-92938775D01*
X178861190Y-92838438D01*
X178781562Y-92758810D01*
X178758527Y-92747073D01*
X178689924Y-92712117D01*
X178689921Y-92712116D01*
X178681225Y-92707685D01*
X178671586Y-92706158D01*
X178671582Y-92706157D01*
X178579641Y-92691596D01*
X178570000Y-92690069D01*
X178560359Y-92691596D01*
X178468417Y-92706157D01*
X178468411Y-92706158D01*
X178458775Y-92707685D01*
X178450080Y-92712115D01*
X178450075Y-92712117D01*
X178367133Y-92754379D01*
X178367130Y-92754381D01*
X178358438Y-92758810D01*
X178354755Y-92762492D01*
X178310779Y-92782071D01*
X178259221Y-92782071D01*
X178215244Y-92762492D01*
X178211562Y-92758810D01*
X178188527Y-92747073D01*
X178119924Y-92712117D01*
X178119921Y-92712116D01*
X178111225Y-92707685D01*
X178101586Y-92706158D01*
X178101582Y-92706157D01*
X178009641Y-92691596D01*
X178000000Y-92690069D01*
X177990359Y-92691596D01*
X177898417Y-92706157D01*
X177898411Y-92706158D01*
X177888775Y-92707685D01*
X177880080Y-92712115D01*
X177880075Y-92712117D01*
X177797139Y-92754376D01*
X177797136Y-92754377D01*
X177788438Y-92758810D01*
X177781536Y-92765711D01*
X177781533Y-92765714D01*
X177715714Y-92831533D01*
X177715711Y-92831536D01*
X177708810Y-92838438D01*
X177704377Y-92847136D01*
X177704376Y-92847139D01*
X177662117Y-92930075D01*
X177662115Y-92930080D01*
X177657685Y-92938775D01*
X177656158Y-92948411D01*
X177656157Y-92948417D01*
X177640069Y-93050000D01*
X177637918Y-93049659D01*
X177632105Y-93078641D01*
X177605276Y-93118746D01*
X176990842Y-93733181D01*
X176950614Y-93760061D01*
X176903161Y-93769500D01*
X176360293Y-93769500D01*
X176300866Y-93754332D01*
X176255978Y-93712540D01*
X176236609Y-93654346D01*
X176247498Y-93593989D01*
X176255995Y-93575381D01*
X176260942Y-93558535D01*
X176278880Y-93433777D01*
X176278880Y-93416223D01*
X176263543Y-93309554D01*
X176258879Y-93299096D01*
X176248878Y-93304673D01*
X175862680Y-93690871D01*
X175807092Y-93722965D01*
X175742905Y-93722965D01*
X175687318Y-93690871D01*
X175301121Y-93304674D01*
X175287785Y-93297237D01*
X175280537Y-93297561D01*
X175269477Y-93297561D01*
X175262213Y-93297236D01*
X175248878Y-93304673D01*
X174775000Y-93778553D01*
X174656886Y-93896665D01*
X174651085Y-93906643D01*
X174660961Y-93912623D01*
X174694601Y-93922501D01*
X174711981Y-93925000D01*
X174838019Y-93925000D01*
X174855399Y-93922501D01*
X174928400Y-93901066D01*
X174993142Y-93899679D01*
X175049755Y-93931118D01*
X175082799Y-93986810D01*
X175083261Y-94051566D01*
X175051017Y-94107723D01*
X174900557Y-94258183D01*
X174860332Y-94285061D01*
X174812879Y-94294500D01*
X173973614Y-94294500D01*
X173926161Y-94285061D01*
X173885933Y-94258181D01*
X173868466Y-94240714D01*
X173861562Y-94233810D01*
X173771947Y-94188148D01*
X173769924Y-94187117D01*
X173769921Y-94187116D01*
X173761225Y-94182685D01*
X173751586Y-94181158D01*
X173751582Y-94181157D01*
X173659641Y-94166596D01*
X173650000Y-94165069D01*
X173640359Y-94166596D01*
X173548417Y-94181157D01*
X173548411Y-94181158D01*
X173538775Y-94182685D01*
X173530080Y-94187115D01*
X173530075Y-94187117D01*
X173447139Y-94229376D01*
X173447136Y-94229377D01*
X173438438Y-94233810D01*
X173431536Y-94240711D01*
X173431533Y-94240714D01*
X173365714Y-94306533D01*
X173365711Y-94306536D01*
X173358810Y-94313438D01*
X173354377Y-94322136D01*
X173354376Y-94322139D01*
X173312117Y-94405075D01*
X173312115Y-94405080D01*
X173307685Y-94413775D01*
X173306158Y-94423413D01*
X173306157Y-94423418D01*
X173301172Y-94454897D01*
X173279017Y-94508385D01*
X173234994Y-94545985D01*
X173178699Y-94559500D01*
X169071057Y-94559500D01*
X169014764Y-94545986D01*
X168970741Y-94508388D01*
X168948585Y-94454903D01*
X168952048Y-94410863D01*
X168950372Y-94410598D01*
X168966461Y-94309014D01*
X168967988Y-94299373D01*
X168950372Y-94188148D01*
X168900078Y-94089443D01*
X168886945Y-94023419D01*
X168908935Y-93963816D01*
X168911190Y-93961562D01*
X168962315Y-93861225D01*
X168979931Y-93750000D01*
X168962315Y-93638775D01*
X168911190Y-93538438D01*
X168831562Y-93458810D01*
X168789041Y-93437144D01*
X168782435Y-93433778D01*
X174271120Y-93433778D01*
X174286456Y-93540445D01*
X174291119Y-93550903D01*
X174301119Y-93545326D01*
X174409904Y-93436542D01*
X174416568Y-93425000D01*
X174409903Y-93413456D01*
X174301121Y-93304674D01*
X174291119Y-93299096D01*
X174286456Y-93309553D01*
X174271120Y-93416222D01*
X174271120Y-93433778D01*
X168782435Y-93433778D01*
X168739924Y-93412117D01*
X168739921Y-93412116D01*
X168731225Y-93407685D01*
X168721586Y-93406158D01*
X168721582Y-93406157D01*
X168629641Y-93391596D01*
X168620000Y-93390069D01*
X168610359Y-93391596D01*
X168518417Y-93406157D01*
X168518411Y-93406158D01*
X168508775Y-93407685D01*
X168500080Y-93412115D01*
X168500075Y-93412117D01*
X168417139Y-93454376D01*
X168417136Y-93454377D01*
X168408438Y-93458810D01*
X168401536Y-93465711D01*
X168401533Y-93465714D01*
X168335714Y-93531533D01*
X168335711Y-93531536D01*
X168328810Y-93538438D01*
X168324377Y-93547136D01*
X168324376Y-93547139D01*
X168282117Y-93630075D01*
X168282115Y-93630080D01*
X168277685Y-93638775D01*
X168276158Y-93648411D01*
X168276157Y-93648417D01*
X168268278Y-93698170D01*
X168260069Y-93750000D01*
X168262400Y-93764719D01*
X168276157Y-93851582D01*
X168276158Y-93851586D01*
X168277685Y-93861225D01*
X168317099Y-93938579D01*
X168330519Y-93999741D01*
X168312343Y-94059662D01*
X168267204Y-94103062D01*
X168206615Y-94118873D01*
X166925500Y-94118873D01*
X166878047Y-94109434D01*
X166837819Y-94082554D01*
X165912397Y-93157132D01*
X165885517Y-93116904D01*
X165876078Y-93069451D01*
X165876078Y-92810000D01*
X171160069Y-92810000D01*
X171161596Y-92819641D01*
X171176157Y-92911582D01*
X171176158Y-92911586D01*
X171177685Y-92921225D01*
X171182116Y-92929921D01*
X171182117Y-92929924D01*
X171201783Y-92968520D01*
X171228810Y-93021562D01*
X171308438Y-93101190D01*
X171408775Y-93152315D01*
X171520000Y-93169931D01*
X171631225Y-93152315D01*
X171731562Y-93101190D01*
X171811190Y-93021562D01*
X171834915Y-92975000D01*
X174683431Y-92975000D01*
X174690095Y-92986542D01*
X174763457Y-93059904D01*
X174774999Y-93066568D01*
X174786542Y-93059904D01*
X174859904Y-92986542D01*
X174866568Y-92975000D01*
X175683431Y-92975000D01*
X175690095Y-92986542D01*
X175763457Y-93059904D01*
X175774999Y-93066568D01*
X175786542Y-93059904D01*
X175859904Y-92986542D01*
X175866568Y-92975000D01*
X175859904Y-92963457D01*
X175786542Y-92890095D01*
X175775000Y-92883431D01*
X175763457Y-92890095D01*
X175690095Y-92963457D01*
X175683431Y-92975000D01*
X174866568Y-92975000D01*
X174859904Y-92963457D01*
X174786542Y-92890095D01*
X174775000Y-92883431D01*
X174763457Y-92890095D01*
X174690095Y-92963457D01*
X174683431Y-92975000D01*
X171834915Y-92975000D01*
X171862315Y-92921225D01*
X171879931Y-92810000D01*
X171862315Y-92698775D01*
X171811190Y-92598438D01*
X171746530Y-92533778D01*
X174271120Y-92533778D01*
X174286456Y-92640445D01*
X174291119Y-92650903D01*
X174301119Y-92645326D01*
X174409904Y-92536542D01*
X174416568Y-92525000D01*
X175133431Y-92525000D01*
X175140095Y-92536542D01*
X175248878Y-92645325D01*
X175262211Y-92652761D01*
X175269469Y-92652437D01*
X175280537Y-92652438D01*
X175287786Y-92652761D01*
X175301119Y-92645326D01*
X175409904Y-92536542D01*
X175416568Y-92525000D01*
X176133431Y-92525000D01*
X176140095Y-92536542D01*
X176248878Y-92645325D01*
X176258879Y-92650902D01*
X176263542Y-92640445D01*
X176278880Y-92533777D01*
X176278880Y-92516223D01*
X176263543Y-92409554D01*
X176258879Y-92399096D01*
X176248878Y-92404673D01*
X176140096Y-92513456D01*
X176133431Y-92525000D01*
X175416568Y-92525000D01*
X175409903Y-92513456D01*
X175301121Y-92404674D01*
X175287785Y-92397237D01*
X175280537Y-92397561D01*
X175269477Y-92397561D01*
X175262213Y-92397236D01*
X175248878Y-92404673D01*
X175140096Y-92513456D01*
X175133431Y-92525000D01*
X174416568Y-92525000D01*
X174409903Y-92513456D01*
X174301121Y-92404674D01*
X174291119Y-92399096D01*
X174286456Y-92409553D01*
X174271120Y-92516222D01*
X174271120Y-92533778D01*
X171746530Y-92533778D01*
X171731562Y-92518810D01*
X171696475Y-92500932D01*
X171639924Y-92472117D01*
X171639921Y-92472116D01*
X171631225Y-92467685D01*
X171621586Y-92466158D01*
X171621582Y-92466157D01*
X171529641Y-92451596D01*
X171520000Y-92450069D01*
X171510359Y-92451596D01*
X171418417Y-92466157D01*
X171418411Y-92466158D01*
X171408775Y-92467685D01*
X171400080Y-92472115D01*
X171400075Y-92472117D01*
X171317139Y-92514376D01*
X171317136Y-92514377D01*
X171308438Y-92518810D01*
X171301536Y-92525711D01*
X171301533Y-92525714D01*
X171235714Y-92591533D01*
X171235711Y-92591536D01*
X171228810Y-92598438D01*
X171224377Y-92607136D01*
X171224376Y-92607139D01*
X171182117Y-92690075D01*
X171182115Y-92690080D01*
X171177685Y-92698775D01*
X171176158Y-92708411D01*
X171176157Y-92708417D01*
X171165154Y-92777892D01*
X171160069Y-92810000D01*
X165876078Y-92810000D01*
X165876078Y-92523614D01*
X165885517Y-92476161D01*
X165912397Y-92435933D01*
X165943657Y-92404673D01*
X165986768Y-92361562D01*
X166018136Y-92300000D01*
X169990069Y-92300000D01*
X169991596Y-92309641D01*
X170006157Y-92401582D01*
X170006158Y-92401586D01*
X170007685Y-92411225D01*
X170012116Y-92419921D01*
X170012117Y-92419924D01*
X170036453Y-92467685D01*
X170058810Y-92511562D01*
X170138438Y-92591190D01*
X170238775Y-92642315D01*
X170350000Y-92659931D01*
X170461225Y-92642315D01*
X170561562Y-92591190D01*
X170641190Y-92511562D01*
X170692315Y-92411225D01*
X170709931Y-92300000D01*
X170692315Y-92188775D01*
X170641190Y-92088438D01*
X170627752Y-92075000D01*
X174683431Y-92075000D01*
X174690095Y-92086542D01*
X174763457Y-92159904D01*
X174775000Y-92166568D01*
X174786542Y-92159904D01*
X174859904Y-92086542D01*
X174866568Y-92075000D01*
X175683431Y-92075000D01*
X175690095Y-92086542D01*
X175763457Y-92159904D01*
X175775000Y-92166568D01*
X175786542Y-92159904D01*
X175859904Y-92086542D01*
X175866568Y-92075000D01*
X175859904Y-92063457D01*
X175786542Y-91990095D01*
X175775000Y-91983431D01*
X175763457Y-91990095D01*
X175690095Y-92063457D01*
X175683431Y-92075000D01*
X174866568Y-92075000D01*
X174859904Y-92063457D01*
X174786542Y-91990095D01*
X174775000Y-91983431D01*
X174763457Y-91990095D01*
X174690095Y-92063457D01*
X174683431Y-92075000D01*
X170627752Y-92075000D01*
X170561562Y-92008810D01*
X170552860Y-92004376D01*
X170469924Y-91962117D01*
X170469921Y-91962116D01*
X170461225Y-91957685D01*
X170451586Y-91956158D01*
X170451582Y-91956157D01*
X170359641Y-91941596D01*
X170350000Y-91940069D01*
X170340359Y-91941596D01*
X170248417Y-91956157D01*
X170248411Y-91956158D01*
X170238775Y-91957685D01*
X170230080Y-91962115D01*
X170230075Y-91962117D01*
X170147139Y-92004376D01*
X170147136Y-92004377D01*
X170138438Y-92008810D01*
X170131536Y-92015711D01*
X170131533Y-92015714D01*
X170065714Y-92081533D01*
X170065711Y-92081536D01*
X170058810Y-92088438D01*
X170054377Y-92097136D01*
X170054376Y-92097139D01*
X170012117Y-92180075D01*
X170012115Y-92180080D01*
X170007685Y-92188775D01*
X170006158Y-92198411D01*
X170006157Y-92198417D01*
X169994833Y-92269922D01*
X169990069Y-92300000D01*
X166018136Y-92300000D01*
X166037893Y-92261225D01*
X166041724Y-92237034D01*
X166053712Y-92200135D01*
X166076514Y-92168749D01*
X166411514Y-91833749D01*
X166460876Y-91803501D01*
X166518591Y-91798959D01*
X166572079Y-91821113D01*
X166609677Y-91865135D01*
X166658810Y-91961562D01*
X166738438Y-92041190D01*
X166838775Y-92092315D01*
X166950000Y-92109931D01*
X167061225Y-92092315D01*
X167161562Y-92041190D01*
X167241190Y-91961562D01*
X167292315Y-91861225D01*
X167309931Y-91750000D01*
X167292315Y-91638775D01*
X167289769Y-91633778D01*
X174271120Y-91633778D01*
X174286456Y-91740445D01*
X174291119Y-91750903D01*
X174301119Y-91745326D01*
X174409904Y-91636542D01*
X174416568Y-91625000D01*
X175133431Y-91625000D01*
X175140095Y-91636542D01*
X175248878Y-91745325D01*
X175262211Y-91752761D01*
X175269469Y-91752437D01*
X175280537Y-91752438D01*
X175287786Y-91752761D01*
X175301119Y-91745326D01*
X175409904Y-91636542D01*
X175416568Y-91625000D01*
X176133431Y-91625000D01*
X176140095Y-91636542D01*
X176248878Y-91745325D01*
X176258879Y-91750902D01*
X176263542Y-91740445D01*
X176278880Y-91633777D01*
X176278880Y-91616223D01*
X176263543Y-91509554D01*
X176258879Y-91499096D01*
X176248878Y-91504673D01*
X176140096Y-91613456D01*
X176133431Y-91625000D01*
X175416568Y-91625000D01*
X175409903Y-91613456D01*
X175301121Y-91504674D01*
X175287785Y-91497237D01*
X175280537Y-91497561D01*
X175269477Y-91497561D01*
X175262213Y-91497236D01*
X175248878Y-91504673D01*
X175140096Y-91613456D01*
X175133431Y-91625000D01*
X174416568Y-91625000D01*
X174409903Y-91613456D01*
X174301121Y-91504674D01*
X174291119Y-91499096D01*
X174286456Y-91509553D01*
X174271120Y-91616222D01*
X174271120Y-91633778D01*
X167289769Y-91633778D01*
X167241190Y-91538438D01*
X167161562Y-91458810D01*
X167065135Y-91409677D01*
X167021113Y-91372079D01*
X166998959Y-91318591D01*
X167003501Y-91260875D01*
X167033750Y-91211514D01*
X167488446Y-90756819D01*
X167528675Y-90729939D01*
X167576128Y-90720500D01*
X168224739Y-90720500D01*
X168281034Y-90734015D01*
X168325057Y-90771614D01*
X168347212Y-90825102D01*
X168356157Y-90881581D01*
X168356158Y-90881584D01*
X168357685Y-90891225D01*
X168362116Y-90899921D01*
X168362117Y-90899924D01*
X168391861Y-90958298D01*
X168408810Y-90991562D01*
X168488438Y-91071190D01*
X168588775Y-91122315D01*
X168700000Y-91139931D01*
X168811225Y-91122315D01*
X168911562Y-91071190D01*
X168991190Y-90991562D01*
X169042315Y-90891225D01*
X169052526Y-90826748D01*
X169081986Y-90764143D01*
X169140405Y-90727069D01*
X169209595Y-90727069D01*
X169268014Y-90764143D01*
X169297473Y-90826748D01*
X169306157Y-90881581D01*
X169306158Y-90881584D01*
X169307685Y-90891225D01*
X169312116Y-90899921D01*
X169312117Y-90899924D01*
X169341861Y-90958298D01*
X169358810Y-90991562D01*
X169438438Y-91071190D01*
X169538775Y-91122315D01*
X169650000Y-91139931D01*
X169761225Y-91122315D01*
X169861562Y-91071190D01*
X169941190Y-90991562D01*
X169949629Y-90975000D01*
X172940069Y-90975000D01*
X172941596Y-90984641D01*
X172956157Y-91076582D01*
X172956158Y-91076586D01*
X172957685Y-91086225D01*
X172962116Y-91094921D01*
X172962117Y-91094924D01*
X172984272Y-91138404D01*
X173008810Y-91186562D01*
X173088438Y-91266190D01*
X173188775Y-91317315D01*
X173300000Y-91334931D01*
X173411225Y-91317315D01*
X173511562Y-91266190D01*
X173591190Y-91186562D01*
X173613206Y-91143354D01*
X174651085Y-91143354D01*
X174656885Y-91153332D01*
X174763456Y-91259903D01*
X174775000Y-91266568D01*
X174786542Y-91259904D01*
X174893112Y-91153333D01*
X174898913Y-91143354D01*
X175651085Y-91143354D01*
X175656885Y-91153332D01*
X175763456Y-91259903D01*
X175775000Y-91266568D01*
X175786542Y-91259904D01*
X175893112Y-91153333D01*
X175898913Y-91143354D01*
X175889040Y-91137377D01*
X175855399Y-91127498D01*
X175838019Y-91125000D01*
X175711981Y-91125000D01*
X175694599Y-91127499D01*
X175660957Y-91137377D01*
X175651085Y-91143354D01*
X174898913Y-91143354D01*
X174889040Y-91137377D01*
X174855399Y-91127498D01*
X174838019Y-91125000D01*
X174711981Y-91125000D01*
X174694599Y-91127499D01*
X174660957Y-91137377D01*
X174651085Y-91143354D01*
X173613206Y-91143354D01*
X173642315Y-91086225D01*
X173659931Y-90975000D01*
X173642315Y-90863775D01*
X173591190Y-90763438D01*
X173511562Y-90683810D01*
X173482055Y-90668775D01*
X173419924Y-90637117D01*
X173419921Y-90637116D01*
X173411225Y-90632685D01*
X173401586Y-90631158D01*
X173401582Y-90631157D01*
X173309641Y-90616596D01*
X173300000Y-90615069D01*
X173290359Y-90616596D01*
X173198417Y-90631157D01*
X173198411Y-90631158D01*
X173188775Y-90632685D01*
X173180080Y-90637115D01*
X173180075Y-90637117D01*
X173097139Y-90679376D01*
X173097136Y-90679377D01*
X173088438Y-90683810D01*
X173081536Y-90690711D01*
X173081533Y-90690714D01*
X173015714Y-90756533D01*
X173015711Y-90756536D01*
X173008810Y-90763438D01*
X173004377Y-90772136D01*
X173004376Y-90772139D01*
X172962117Y-90855075D01*
X172962115Y-90855080D01*
X172957685Y-90863775D01*
X172956158Y-90873411D01*
X172956157Y-90873417D01*
X172951791Y-90900986D01*
X172940069Y-90975000D01*
X169949629Y-90975000D01*
X169992315Y-90891225D01*
X170009931Y-90780000D01*
X169992315Y-90668775D01*
X169941190Y-90568438D01*
X169861562Y-90488810D01*
X169852860Y-90484376D01*
X169769924Y-90442117D01*
X169769921Y-90442116D01*
X169761225Y-90437685D01*
X169751586Y-90436158D01*
X169751582Y-90436157D01*
X169659639Y-90421595D01*
X169659635Y-90421595D01*
X169650000Y-90420069D01*
X169640365Y-90421595D01*
X169640361Y-90421595D01*
X169622045Y-90424496D01*
X169564330Y-90419953D01*
X169514968Y-90389703D01*
X169287200Y-90161935D01*
X169277254Y-90150000D01*
X171365069Y-90150000D01*
X171366596Y-90159641D01*
X171381157Y-90251582D01*
X171381158Y-90251586D01*
X171382685Y-90261225D01*
X171433810Y-90361562D01*
X171513438Y-90441190D01*
X171613775Y-90492315D01*
X171725000Y-90509931D01*
X171836225Y-90492315D01*
X171936562Y-90441190D01*
X172016190Y-90361562D01*
X172067315Y-90261225D01*
X172084931Y-90150000D01*
X172067315Y-90038775D01*
X172016190Y-89938438D01*
X171936562Y-89858810D01*
X171927860Y-89854376D01*
X171844924Y-89812117D01*
X171844921Y-89812116D01*
X171836225Y-89807685D01*
X171826586Y-89806158D01*
X171826582Y-89806157D01*
X171734641Y-89791596D01*
X171725000Y-89790069D01*
X171715359Y-89791596D01*
X171623417Y-89806157D01*
X171623411Y-89806158D01*
X171613775Y-89807685D01*
X171605080Y-89812115D01*
X171605075Y-89812117D01*
X171522139Y-89854376D01*
X171522136Y-89854377D01*
X171513438Y-89858810D01*
X171506536Y-89865711D01*
X171506533Y-89865714D01*
X171440714Y-89931533D01*
X171440711Y-89931536D01*
X171433810Y-89938438D01*
X171429377Y-89947136D01*
X171429376Y-89947139D01*
X171387117Y-90030075D01*
X171387115Y-90030080D01*
X171382685Y-90038775D01*
X171381158Y-90048411D01*
X171381157Y-90048417D01*
X171367456Y-90134931D01*
X171365069Y-90150000D01*
X169277254Y-90150000D01*
X169272831Y-90144693D01*
X169263276Y-90130850D01*
X169249944Y-90123852D01*
X169249943Y-90123852D01*
X169232020Y-90114445D01*
X169225496Y-90110766D01*
X169204692Y-90098189D01*
X169204691Y-90098188D01*
X169195306Y-90092515D01*
X169189573Y-90092168D01*
X169184489Y-90089500D01*
X169173523Y-90089500D01*
X169149197Y-90089500D01*
X169141712Y-90089274D01*
X169106490Y-90087144D01*
X169106497Y-90087023D01*
X169101255Y-90086826D01*
X169101255Y-90089500D01*
X167207673Y-90089500D01*
X167185321Y-90087469D01*
X167183585Y-90087150D01*
X167183581Y-90087150D01*
X167168776Y-90084437D01*
X167154402Y-90088915D01*
X167154401Y-90088916D01*
X167135081Y-90094936D01*
X167127872Y-90096945D01*
X167104253Y-90102767D01*
X167104250Y-90102768D01*
X167093607Y-90105392D01*
X167089309Y-90109199D01*
X167083826Y-90110908D01*
X167076074Y-90118659D01*
X167076073Y-90118660D01*
X167058850Y-90135882D01*
X167053403Y-90141009D01*
X167027007Y-90164394D01*
X167026927Y-90164304D01*
X167023079Y-90167872D01*
X167024970Y-90169763D01*
X166028192Y-91166540D01*
X165978829Y-91196790D01*
X165921113Y-91201332D01*
X165850000Y-91190069D01*
X165840359Y-91191596D01*
X165748417Y-91206157D01*
X165748411Y-91206158D01*
X165738775Y-91207685D01*
X165730080Y-91212115D01*
X165730075Y-91212117D01*
X165647139Y-91254376D01*
X165647136Y-91254377D01*
X165638438Y-91258810D01*
X165631536Y-91265711D01*
X165631533Y-91265714D01*
X165565714Y-91331533D01*
X165565711Y-91331536D01*
X165558810Y-91338438D01*
X165554377Y-91347136D01*
X165554376Y-91347139D01*
X165512117Y-91430075D01*
X165512115Y-91430080D01*
X165507685Y-91438775D01*
X165506158Y-91448411D01*
X165506157Y-91448417D01*
X165496475Y-91509553D01*
X165490069Y-91550000D01*
X165491596Y-91559641D01*
X165506157Y-91651582D01*
X165506158Y-91651586D01*
X165507685Y-91661225D01*
X165527387Y-91699893D01*
X165540902Y-91756183D01*
X165527388Y-91812477D01*
X165490747Y-91855380D01*
X165484016Y-91858810D01*
X165477120Y-91865705D01*
X165477117Y-91865708D01*
X165411292Y-91931533D01*
X165411289Y-91931536D01*
X165404388Y-91938438D01*
X165399955Y-91947136D01*
X165399954Y-91947139D01*
X165357695Y-92030075D01*
X165357693Y-92030080D01*
X165353263Y-92038775D01*
X165351736Y-92048411D01*
X165351735Y-92048417D01*
X165345485Y-92087882D01*
X165335647Y-92150000D01*
X165337174Y-92159641D01*
X165351735Y-92251582D01*
X165351736Y-92251584D01*
X165353263Y-92261225D01*
X165357694Y-92269921D01*
X165357695Y-92269924D01*
X165384494Y-92322519D01*
X165404388Y-92361562D01*
X165411292Y-92368466D01*
X165478759Y-92435933D01*
X165505639Y-92476161D01*
X165515078Y-92523614D01*
X165515078Y-93167906D01*
X165513047Y-93190257D01*
X165510015Y-93206803D01*
X165514494Y-93221178D01*
X165514495Y-93221181D01*
X165520512Y-93240491D01*
X165522523Y-93247704D01*
X165528345Y-93271327D01*
X165528347Y-93271331D01*
X165530970Y-93281971D01*
X165534778Y-93286270D01*
X165536487Y-93291752D01*
X165544239Y-93299504D01*
X165561430Y-93316695D01*
X165566564Y-93322148D01*
X165589974Y-93348572D01*
X165589889Y-93348646D01*
X165593458Y-93352492D01*
X165595343Y-93350608D01*
X166592553Y-94347819D01*
X166622803Y-94397182D01*
X166627345Y-94454898D01*
X166605190Y-94508385D01*
X166561167Y-94545985D01*
X166504872Y-94559500D01*
X166116127Y-94559500D01*
X166068674Y-94550061D01*
X166028446Y-94523181D01*
X164157200Y-92651935D01*
X164142831Y-92634693D01*
X164133276Y-92620850D01*
X164119944Y-92613852D01*
X164119943Y-92613852D01*
X164102020Y-92604445D01*
X164095496Y-92600766D01*
X164074692Y-92588189D01*
X164074691Y-92588188D01*
X164065306Y-92582515D01*
X164059573Y-92582168D01*
X164054489Y-92579500D01*
X164043523Y-92579500D01*
X164019197Y-92579500D01*
X164011712Y-92579274D01*
X163976490Y-92577144D01*
X163976497Y-92577023D01*
X163971255Y-92576826D01*
X163971255Y-92579500D01*
X163839115Y-92579500D01*
X163782820Y-92565985D01*
X163738797Y-92528385D01*
X163716642Y-92474898D01*
X163721184Y-92417182D01*
X163751434Y-92367819D01*
X163751433Y-92367819D01*
X163766690Y-92352563D01*
X163817815Y-92252226D01*
X163835431Y-92141001D01*
X163817815Y-92029776D01*
X163766690Y-91929439D01*
X163687062Y-91849811D01*
X163630740Y-91821113D01*
X163595424Y-91803118D01*
X163595421Y-91803117D01*
X163586725Y-91798686D01*
X163577086Y-91797159D01*
X163577082Y-91797158D01*
X163485141Y-91782597D01*
X163475500Y-91781070D01*
X163465859Y-91782597D01*
X163373917Y-91797158D01*
X163373911Y-91797159D01*
X163364275Y-91798686D01*
X163355580Y-91803116D01*
X163355575Y-91803118D01*
X163272639Y-91845377D01*
X163272636Y-91845378D01*
X163263938Y-91849811D01*
X163257036Y-91856712D01*
X163257033Y-91856715D01*
X163191214Y-91922534D01*
X163191211Y-91922537D01*
X163184310Y-91929439D01*
X163179877Y-91938137D01*
X163179876Y-91938140D01*
X163137617Y-92021076D01*
X163137615Y-92021081D01*
X163133185Y-92029776D01*
X163131658Y-92039412D01*
X163131657Y-92039418D01*
X163124194Y-92086542D01*
X163115569Y-92141001D01*
X163133185Y-92252226D01*
X163137616Y-92260922D01*
X163138877Y-92264803D01*
X163143419Y-92322519D01*
X163121265Y-92376006D01*
X163077242Y-92413604D01*
X162988417Y-92458864D01*
X162981515Y-92465765D01*
X162981512Y-92465768D01*
X162915693Y-92531587D01*
X162915690Y-92531590D01*
X162908789Y-92538492D01*
X162904356Y-92547190D01*
X162904355Y-92547193D01*
X162862096Y-92630129D01*
X162862094Y-92630134D01*
X162857664Y-92638829D01*
X162856137Y-92648465D01*
X162856136Y-92648471D01*
X162844286Y-92723296D01*
X162840048Y-92750054D01*
X162841575Y-92759695D01*
X162856136Y-92851636D01*
X162856137Y-92851640D01*
X162857664Y-92861279D01*
X162862095Y-92869975D01*
X162862096Y-92869978D01*
X162895045Y-92934643D01*
X162908789Y-92961616D01*
X162988417Y-93041244D01*
X162991931Y-93043034D01*
X163030693Y-93091413D01*
X163039916Y-93156200D01*
X163014875Y-93216660D01*
X162962545Y-93255953D01*
X162897501Y-93263137D01*
X162887769Y-93261596D01*
X162887766Y-93261596D01*
X162878125Y-93260069D01*
X162868484Y-93261596D01*
X162776542Y-93276157D01*
X162776536Y-93276158D01*
X162766900Y-93277685D01*
X162758205Y-93282115D01*
X162758200Y-93282117D01*
X162675264Y-93324376D01*
X162675261Y-93324377D01*
X162666563Y-93328810D01*
X162659661Y-93335711D01*
X162659658Y-93335714D01*
X162593839Y-93401533D01*
X162593836Y-93401536D01*
X162586935Y-93408438D01*
X162582502Y-93417136D01*
X162582501Y-93417139D01*
X162540242Y-93500075D01*
X162540240Y-93500080D01*
X162535810Y-93508775D01*
X162534283Y-93518411D01*
X162534282Y-93518417D01*
X162525261Y-93575381D01*
X162518194Y-93620000D01*
X162519721Y-93629641D01*
X162534282Y-93721582D01*
X162534283Y-93721586D01*
X162535810Y-93731225D01*
X162540241Y-93739921D01*
X162540242Y-93739924D01*
X162568654Y-93795685D01*
X162586935Y-93831562D01*
X162666563Y-93911190D01*
X162766900Y-93962315D01*
X162878125Y-93979931D01*
X162989350Y-93962315D01*
X163089687Y-93911190D01*
X163164058Y-93836818D01*
X163204286Y-93809939D01*
X163251739Y-93800500D01*
X164083873Y-93800500D01*
X164131326Y-93809939D01*
X164171554Y-93836819D01*
X164776943Y-94442209D01*
X164807193Y-94491572D01*
X164811735Y-94549288D01*
X164789580Y-94602775D01*
X164745557Y-94640375D01*
X164689262Y-94653890D01*
X164079114Y-94653890D01*
X164031661Y-94644451D01*
X163991433Y-94617571D01*
X163923966Y-94550104D01*
X163917062Y-94543200D01*
X163877773Y-94523181D01*
X163825424Y-94496507D01*
X163825421Y-94496506D01*
X163816725Y-94492075D01*
X163807086Y-94490548D01*
X163807082Y-94490547D01*
X163715141Y-94475986D01*
X163705500Y-94474459D01*
X163695859Y-94475986D01*
X163603917Y-94490547D01*
X163603911Y-94490548D01*
X163594275Y-94492075D01*
X163585580Y-94496505D01*
X163585575Y-94496507D01*
X163502639Y-94538766D01*
X163502636Y-94538767D01*
X163493938Y-94543200D01*
X163487036Y-94550101D01*
X163487033Y-94550104D01*
X163421214Y-94615923D01*
X163421211Y-94615926D01*
X163414310Y-94622828D01*
X163409877Y-94631526D01*
X163409876Y-94631529D01*
X163367617Y-94714465D01*
X163367615Y-94714470D01*
X163363185Y-94723165D01*
X163361658Y-94732801D01*
X163361657Y-94732807D01*
X163351296Y-94798231D01*
X163345569Y-94834390D01*
X163347096Y-94844031D01*
X163347096Y-94844032D01*
X163351792Y-94873683D01*
X163345988Y-94935084D01*
X163311321Y-94986094D01*
X163256368Y-95014094D01*
X163194724Y-95012156D01*
X163141638Y-94980761D01*
X163096591Y-94935714D01*
X163089687Y-94928810D01*
X163072395Y-94919999D01*
X162998049Y-94882117D01*
X162998046Y-94882116D01*
X162989350Y-94877685D01*
X162979711Y-94876158D01*
X162979707Y-94876157D01*
X162887766Y-94861596D01*
X162878125Y-94860069D01*
X162868484Y-94861596D01*
X162776542Y-94876157D01*
X162776536Y-94876158D01*
X162766900Y-94877685D01*
X162758205Y-94882115D01*
X162758200Y-94882117D01*
X162675264Y-94924376D01*
X162675261Y-94924377D01*
X162666563Y-94928810D01*
X162659661Y-94935711D01*
X162659658Y-94935714D01*
X162593839Y-95001533D01*
X162593836Y-95001536D01*
X162586935Y-95008438D01*
X162582502Y-95017136D01*
X162582501Y-95017139D01*
X162540242Y-95100075D01*
X162540240Y-95100080D01*
X162535810Y-95108775D01*
X162534283Y-95118411D01*
X162534282Y-95118417D01*
X162526125Y-95169924D01*
X162518194Y-95220000D01*
X162519721Y-95229641D01*
X162534282Y-95321582D01*
X162534283Y-95321586D01*
X162535810Y-95331225D01*
X162540241Y-95339921D01*
X162540242Y-95339924D01*
X162564679Y-95387883D01*
X162586935Y-95431562D01*
X162666563Y-95511190D01*
X162675256Y-95515619D01*
X162680849Y-95519683D01*
X162718448Y-95563706D01*
X162731963Y-95620000D01*
X162718448Y-95676294D01*
X162680849Y-95720317D01*
X162675254Y-95724381D01*
X162666563Y-95728810D01*
X162659666Y-95735706D01*
X162659663Y-95735709D01*
X162593839Y-95801533D01*
X162593836Y-95801536D01*
X162586935Y-95808438D01*
X162582502Y-95817136D01*
X162582501Y-95817139D01*
X162540242Y-95900075D01*
X162540240Y-95900080D01*
X162535810Y-95908775D01*
X162534283Y-95918411D01*
X162534282Y-95918417D01*
X162520387Y-96006148D01*
X162518194Y-96020000D01*
X162519721Y-96029641D01*
X162534282Y-96121582D01*
X162534283Y-96121586D01*
X162535810Y-96131225D01*
X162540241Y-96139921D01*
X162540242Y-96139924D01*
X162567770Y-96193949D01*
X162586935Y-96231562D01*
X162666563Y-96311190D01*
X162766900Y-96362315D01*
X162878125Y-96379931D01*
X162989350Y-96362315D01*
X163089687Y-96311190D01*
X163125889Y-96274987D01*
X163178972Y-96243593D01*
X163240617Y-96241655D01*
X163295570Y-96269654D01*
X163330237Y-96320663D01*
X163336043Y-96382064D01*
X163329359Y-96424268D01*
X163330886Y-96433909D01*
X163345447Y-96525850D01*
X163345448Y-96525854D01*
X163346975Y-96535493D01*
X163351406Y-96544189D01*
X163351407Y-96544192D01*
X163391774Y-96623415D01*
X163398100Y-96635830D01*
X163477728Y-96715458D01*
X163578065Y-96766583D01*
X163689290Y-96784199D01*
X163800515Y-96766583D01*
X163900852Y-96715458D01*
X163975222Y-96641087D01*
X164015451Y-96614207D01*
X164062904Y-96604768D01*
X164541010Y-96604768D01*
X164597305Y-96618283D01*
X164641328Y-96655883D01*
X164663484Y-96709371D01*
X164658941Y-96767087D01*
X164656508Y-96774575D01*
X164652075Y-96783275D01*
X164650548Y-96792911D01*
X164650547Y-96792917D01*
X164637547Y-96875000D01*
X164634459Y-96894500D01*
X164635986Y-96904141D01*
X164650547Y-96996082D01*
X164650548Y-96996086D01*
X164652075Y-97005725D01*
X164656506Y-97014421D01*
X164656507Y-97014424D01*
X164692285Y-97084640D01*
X164703200Y-97106062D01*
X164782828Y-97185690D01*
X164883165Y-97236815D01*
X164994390Y-97254431D01*
X165105615Y-97236815D01*
X165205952Y-97185690D01*
X165285580Y-97106062D01*
X165336705Y-97005725D01*
X165354321Y-96894500D01*
X165336705Y-96783275D01*
X165285580Y-96682938D01*
X165205952Y-96603310D01*
X165158980Y-96579376D01*
X165114314Y-96556617D01*
X165114311Y-96556616D01*
X165105615Y-96552185D01*
X165095976Y-96550658D01*
X165095972Y-96550657D01*
X165041646Y-96542053D01*
X164980513Y-96513870D01*
X164943114Y-96457897D01*
X164940471Y-96390632D01*
X164973360Y-96331903D01*
X165148448Y-96156816D01*
X165188675Y-96129939D01*
X165236127Y-96120500D01*
X167147458Y-96120500D01*
X167213900Y-96139803D01*
X167259656Y-96191703D01*
X167270480Y-96260040D01*
X167243002Y-96323540D01*
X167185778Y-96362431D01*
X167182168Y-96363603D01*
X167172525Y-96365131D01*
X167163828Y-96369562D01*
X167163823Y-96369564D01*
X167080889Y-96411822D01*
X167080886Y-96411823D01*
X167072188Y-96416256D01*
X167065286Y-96423157D01*
X167065283Y-96423160D01*
X166999464Y-96488979D01*
X166999461Y-96488982D01*
X166992560Y-96495884D01*
X166988127Y-96504582D01*
X166988126Y-96504585D01*
X166945867Y-96587521D01*
X166945865Y-96587526D01*
X166941435Y-96596221D01*
X166939908Y-96605857D01*
X166939907Y-96605863D01*
X166930789Y-96663438D01*
X166923819Y-96707446D01*
X166925346Y-96717087D01*
X166939907Y-96809028D01*
X166939908Y-96809032D01*
X166941435Y-96818671D01*
X166945866Y-96827367D01*
X166945867Y-96827370D01*
X166959946Y-96855000D01*
X166992560Y-96919008D01*
X167072188Y-96998636D01*
X167172525Y-97049761D01*
X167283750Y-97067377D01*
X167348356Y-97057144D01*
X167406038Y-97061676D01*
X167455388Y-97091891D01*
X167485653Y-97141210D01*
X167488788Y-97180602D01*
X167491596Y-97180602D01*
X167491596Y-97190359D01*
X167490069Y-97200000D01*
X167491596Y-97209641D01*
X167506157Y-97301582D01*
X167506158Y-97301586D01*
X167507685Y-97311225D01*
X167558810Y-97411562D01*
X167638438Y-97491190D01*
X167738775Y-97542315D01*
X167850000Y-97559931D01*
X167961225Y-97542315D01*
X168061562Y-97491190D01*
X168141190Y-97411562D01*
X168192315Y-97311225D01*
X168198154Y-97274354D01*
X168226336Y-97213223D01*
X168282308Y-97175823D01*
X168349574Y-97173180D01*
X168408308Y-97206073D01*
X168704703Y-97502468D01*
X168734953Y-97551830D01*
X168739496Y-97609545D01*
X168736595Y-97627861D01*
X168736595Y-97627865D01*
X168735069Y-97637500D01*
X168736595Y-97647135D01*
X168736595Y-97647139D01*
X168751157Y-97739082D01*
X168751158Y-97739086D01*
X168752685Y-97748725D01*
X168757116Y-97757421D01*
X168757117Y-97757424D01*
X168781783Y-97805832D01*
X168803810Y-97849062D01*
X168883438Y-97928690D01*
X168983775Y-97979815D01*
X169095000Y-97997431D01*
X169206225Y-97979815D01*
X169306562Y-97928690D01*
X169386190Y-97849062D01*
X169390624Y-97840359D01*
X169396355Y-97832472D01*
X169398397Y-97833956D01*
X169424796Y-97803031D01*
X169478288Y-97780862D01*
X169536014Y-97785398D01*
X169585386Y-97815651D01*
X170177797Y-98408062D01*
X170192162Y-98425297D01*
X170201724Y-98439150D01*
X170232981Y-98455554D01*
X170239491Y-98459226D01*
X170243010Y-98461353D01*
X170269694Y-98477485D01*
X170275426Y-98477831D01*
X170280511Y-98480500D01*
X170315803Y-98480500D01*
X170323288Y-98480726D01*
X170358510Y-98482856D01*
X170358502Y-98482976D01*
X170363745Y-98483174D01*
X170363745Y-98480500D01*
X173880095Y-98480500D01*
X173942094Y-98497112D01*
X173987481Y-98542497D01*
X174003932Y-98603889D01*
X174002569Y-98612500D01*
X174004095Y-98622135D01*
X174004095Y-98622139D01*
X174018657Y-98714082D01*
X174018658Y-98714086D01*
X174020185Y-98723725D01*
X174024616Y-98732421D01*
X174024617Y-98732424D01*
X174038336Y-98759348D01*
X174071310Y-98824062D01*
X174150938Y-98903690D01*
X174251275Y-98954815D01*
X174362500Y-98972431D01*
X174473725Y-98954815D01*
X174574062Y-98903690D01*
X174653690Y-98824062D01*
X174704815Y-98723725D01*
X174722431Y-98612500D01*
X174704815Y-98501275D01*
X174658711Y-98410792D01*
X174645292Y-98349633D01*
X174663468Y-98289711D01*
X174708607Y-98246311D01*
X174769196Y-98230500D01*
X176023873Y-98230500D01*
X176071326Y-98239939D01*
X176111554Y-98266819D01*
X176159703Y-98314968D01*
X176189953Y-98364330D01*
X176194496Y-98422045D01*
X176191595Y-98440361D01*
X176191595Y-98440365D01*
X176190069Y-98450000D01*
X176191595Y-98459635D01*
X176191595Y-98459639D01*
X176206157Y-98551582D01*
X176206158Y-98551586D01*
X176207685Y-98561225D01*
X176212116Y-98569921D01*
X176212117Y-98569924D01*
X176238724Y-98622141D01*
X176258810Y-98661562D01*
X176338438Y-98741190D01*
X176438775Y-98792315D01*
X176550000Y-98809931D01*
X176661225Y-98792315D01*
X176761562Y-98741190D01*
X176841190Y-98661562D01*
X176892315Y-98561225D01*
X176909931Y-98450000D01*
X176892315Y-98338775D01*
X176841190Y-98238438D01*
X176761562Y-98158810D01*
X176714529Y-98134845D01*
X176669924Y-98112117D01*
X176669921Y-98112116D01*
X176661225Y-98107685D01*
X176651586Y-98106158D01*
X176651582Y-98106157D01*
X176559639Y-98091595D01*
X176559635Y-98091595D01*
X176550000Y-98090069D01*
X176540365Y-98091595D01*
X176540361Y-98091595D01*
X176522045Y-98094496D01*
X176464330Y-98089953D01*
X176414969Y-98059704D01*
X176405765Y-98050500D01*
X177423016Y-98050500D01*
X177424543Y-98060141D01*
X177439104Y-98152082D01*
X177439105Y-98152086D01*
X177440632Y-98161725D01*
X177445063Y-98170421D01*
X177445064Y-98170424D01*
X177481702Y-98242328D01*
X177491757Y-98262062D01*
X177571385Y-98341690D01*
X177671722Y-98392815D01*
X177782947Y-98410431D01*
X177894172Y-98392815D01*
X177994509Y-98341690D01*
X178074137Y-98262062D01*
X178125262Y-98161725D01*
X178142878Y-98050500D01*
X178125262Y-97939275D01*
X178074137Y-97838938D01*
X177994509Y-97759310D01*
X177964152Y-97743842D01*
X177902871Y-97712617D01*
X177902868Y-97712616D01*
X177894172Y-97708185D01*
X177884533Y-97706658D01*
X177884529Y-97706657D01*
X177792588Y-97692096D01*
X177782947Y-97690569D01*
X177773306Y-97692096D01*
X177681364Y-97706657D01*
X177681358Y-97706658D01*
X177671722Y-97708185D01*
X177663027Y-97712615D01*
X177663022Y-97712617D01*
X177580086Y-97754876D01*
X177580083Y-97754877D01*
X177571385Y-97759310D01*
X177564483Y-97766211D01*
X177564480Y-97766214D01*
X177498661Y-97832033D01*
X177498658Y-97832036D01*
X177491757Y-97838938D01*
X177487324Y-97847636D01*
X177487323Y-97847639D01*
X177445064Y-97930575D01*
X177445062Y-97930580D01*
X177440632Y-97939275D01*
X177439105Y-97948911D01*
X177439104Y-97948917D01*
X177434913Y-97975382D01*
X177423016Y-98050500D01*
X176405765Y-98050500D01*
X176367944Y-98012678D01*
X176335851Y-97957093D01*
X176335851Y-97892905D01*
X176367943Y-97837320D01*
X176983066Y-97222197D01*
X177000306Y-97207831D01*
X177014150Y-97198276D01*
X177030558Y-97167012D01*
X177034226Y-97160507D01*
X177052484Y-97130306D01*
X177052830Y-97124575D01*
X177055500Y-97119489D01*
X177055500Y-97084192D01*
X177055726Y-97076706D01*
X177057856Y-97041490D01*
X177057976Y-97041497D01*
X177058175Y-97036255D01*
X177055500Y-97036255D01*
X177055500Y-95127672D01*
X177057531Y-95105320D01*
X177060563Y-95088775D01*
X177050062Y-95055079D01*
X177048051Y-95047863D01*
X177042235Y-95024267D01*
X177039608Y-95013607D01*
X177035799Y-95009308D01*
X177034091Y-95003825D01*
X177009138Y-94978872D01*
X177004005Y-94973420D01*
X176980604Y-94947006D01*
X176980699Y-94946921D01*
X176977133Y-94943071D01*
X176975235Y-94944970D01*
X176922446Y-94892181D01*
X176892196Y-94842818D01*
X176887654Y-94785102D01*
X176909809Y-94731615D01*
X176953832Y-94694015D01*
X177010127Y-94680500D01*
X179027037Y-94680500D01*
X179029821Y-94680693D01*
X179035576Y-94682622D01*
X179074753Y-94680810D01*
X179078622Y-94680632D01*
X179084348Y-94680500D01*
X179095258Y-94680500D01*
X179100993Y-94680500D01*
X179106530Y-94679464D01*
X179111818Y-94679096D01*
X179140333Y-94677779D01*
X179150847Y-94673136D01*
X179158986Y-94671222D01*
X179166783Y-94668201D01*
X179178084Y-94666089D01*
X179198799Y-94653261D01*
X179213978Y-94645261D01*
X179236266Y-94635421D01*
X179244394Y-94627292D01*
X179251295Y-94622565D01*
X179257472Y-94616933D01*
X179267245Y-94610883D01*
X179281928Y-94591437D01*
X179293195Y-94578490D01*
X180024436Y-93847249D01*
X180026530Y-93845427D01*
X180031967Y-93842721D01*
X180056179Y-93816161D01*
X180106366Y-93782831D01*
X180166341Y-93777090D01*
X180221943Y-93800294D01*
X180260045Y-93846965D01*
X180271651Y-93906086D01*
X180052423Y-98155807D01*
X180052063Y-98162774D01*
X180052063Y-98162778D01*
X180051561Y-98172522D01*
X180056883Y-98180703D01*
X180058522Y-98184374D01*
X180058524Y-98184377D01*
X180062499Y-98193286D01*
X180065034Y-98202714D01*
X180072625Y-98208851D01*
X180075314Y-98211832D01*
X180075325Y-98211846D01*
X180081851Y-98219082D01*
X180087176Y-98227266D01*
X180096290Y-98230756D01*
X180104745Y-98235628D01*
X180104754Y-98235632D01*
X180108229Y-98237634D01*
X180115822Y-98243773D01*
X180132533Y-98244634D01*
X180132534Y-98244635D01*
X180132535Y-98244635D01*
X180132537Y-98244636D01*
X180177111Y-98246935D01*
X180232296Y-98263138D01*
X180274237Y-98302504D01*
X180293902Y-98356560D01*
X180287060Y-98413673D01*
X180176725Y-98712865D01*
X180173788Y-98720117D01*
X179924301Y-99284216D01*
X179920912Y-99291268D01*
X179636349Y-99838505D01*
X179632522Y-99845329D01*
X179314020Y-100373521D01*
X179309771Y-100380090D01*
X178958584Y-100887156D01*
X178953928Y-100893445D01*
X178571463Y-101377352D01*
X178566420Y-101383334D01*
X178154201Y-101842153D01*
X178148791Y-101847805D01*
X177708465Y-102279707D01*
X177702710Y-102285007D01*
X177236000Y-102688301D01*
X177229921Y-102693227D01*
X176738726Y-103066268D01*
X176732349Y-103070801D01*
X176218604Y-103412124D01*
X176211954Y-103416246D01*
X175677694Y-103724496D01*
X175670797Y-103728190D01*
X175118174Y-104002128D01*
X175111058Y-104005380D01*
X174542256Y-104243921D01*
X174534949Y-104246718D01*
X173952224Y-104448917D01*
X173944755Y-104451247D01*
X173350456Y-104616289D01*
X173342855Y-104618144D01*
X172739324Y-104745379D01*
X172731621Y-104746751D01*
X172121257Y-104835672D01*
X172113483Y-104836555D01*
X171498734Y-104886806D01*
X171490920Y-104887197D01*
X170874220Y-104898578D01*
X170866397Y-104898475D01*
X170250231Y-104870943D01*
X170242429Y-104870348D01*
X169629188Y-104804007D01*
X169621440Y-104802920D01*
X169013630Y-104698041D01*
X169005966Y-104696468D01*
X168405978Y-104553466D01*
X168398428Y-104551413D01*
X167808647Y-104370855D01*
X167801242Y-104368330D01*
X167224021Y-104150937D01*
X167216790Y-104147950D01*
X166654424Y-103894585D01*
X166647395Y-103891147D01*
X166102149Y-103602832D01*
X166095351Y-103598959D01*
X165569345Y-103276814D01*
X165562806Y-103272519D01*
X165238376Y-103044502D01*
X169120069Y-103044502D01*
X169121596Y-103054143D01*
X169136157Y-103146084D01*
X169136158Y-103146088D01*
X169137685Y-103155727D01*
X169188810Y-103256064D01*
X169268438Y-103335692D01*
X169368775Y-103386817D01*
X169480000Y-103404433D01*
X169591225Y-103386817D01*
X169691562Y-103335692D01*
X169771190Y-103256064D01*
X169822315Y-103155727D01*
X169839931Y-103044502D01*
X169822315Y-102933277D01*
X169771190Y-102832940D01*
X169691562Y-102753312D01*
X169682860Y-102748878D01*
X169599924Y-102706619D01*
X169599921Y-102706618D01*
X169591225Y-102702187D01*
X169581586Y-102700660D01*
X169581582Y-102700659D01*
X169489641Y-102686098D01*
X169480000Y-102684571D01*
X169470359Y-102686098D01*
X169378417Y-102700659D01*
X169378411Y-102700660D01*
X169368775Y-102702187D01*
X169360080Y-102706617D01*
X169360075Y-102706619D01*
X169277139Y-102748878D01*
X169277136Y-102748879D01*
X169268438Y-102753312D01*
X169261536Y-102760213D01*
X169261533Y-102760216D01*
X169195714Y-102826035D01*
X169195711Y-102826038D01*
X169188810Y-102832940D01*
X169184377Y-102841638D01*
X169184376Y-102841641D01*
X169142117Y-102924577D01*
X169142115Y-102924582D01*
X169137685Y-102933277D01*
X169136158Y-102942913D01*
X169136157Y-102942919D01*
X169125908Y-103007634D01*
X169120069Y-103044502D01*
X165238376Y-103044502D01*
X165058172Y-102917850D01*
X165051915Y-102913151D01*
X164570657Y-102527365D01*
X164564710Y-102522281D01*
X164108751Y-102106922D01*
X164103136Y-102101474D01*
X163674260Y-101658167D01*
X163669000Y-101652375D01*
X163268935Y-101182905D01*
X163264051Y-101176792D01*
X162894403Y-100683042D01*
X162889914Y-100676634D01*
X162552137Y-100160550D01*
X162548061Y-100153872D01*
X162243502Y-99617510D01*
X162239855Y-99610588D01*
X162079404Y-99281225D01*
X161969722Y-99056077D01*
X161966523Y-99048947D01*
X161964773Y-99044693D01*
X161783719Y-98604495D01*
X161731898Y-98478501D01*
X161729152Y-98471174D01*
X161567700Y-97995322D01*
X161530978Y-97887090D01*
X161528700Y-97879610D01*
X161518091Y-97840360D01*
X161399059Y-97400000D01*
X162890069Y-97400000D01*
X162891596Y-97409641D01*
X162906157Y-97501582D01*
X162906158Y-97501586D01*
X162907685Y-97511225D01*
X162912116Y-97519921D01*
X162912117Y-97519924D01*
X162930906Y-97556799D01*
X162958810Y-97611562D01*
X163038438Y-97691190D01*
X163138775Y-97742315D01*
X163250000Y-97759931D01*
X163279648Y-97755235D01*
X163337358Y-97759775D01*
X163386720Y-97790021D01*
X163416972Y-97839379D01*
X163421521Y-97897091D01*
X163405426Y-97935962D01*
X163407382Y-97936959D01*
X163360689Y-98028596D01*
X163360687Y-98028601D01*
X163356257Y-98037296D01*
X163354730Y-98046932D01*
X163354729Y-98046938D01*
X163343237Y-98119500D01*
X163338641Y-98148521D01*
X163340168Y-98158162D01*
X163354729Y-98250103D01*
X163354730Y-98250107D01*
X163356257Y-98259746D01*
X163360688Y-98268442D01*
X163360689Y-98268445D01*
X163384394Y-98314968D01*
X163407382Y-98360083D01*
X163487010Y-98439711D01*
X163587347Y-98490836D01*
X163698572Y-98508452D01*
X163809797Y-98490836D01*
X163839206Y-98475850D01*
X163900369Y-98462432D01*
X163960290Y-98480609D01*
X164003690Y-98525747D01*
X164019500Y-98586336D01*
X164019500Y-98702037D01*
X164019306Y-98704821D01*
X164017378Y-98710576D01*
X164017908Y-98722049D01*
X164017908Y-98722053D01*
X164019368Y-98753622D01*
X164019500Y-98759348D01*
X164019500Y-98775993D01*
X164020534Y-98781527D01*
X164020903Y-98786841D01*
X164022221Y-98815333D01*
X164026861Y-98825843D01*
X164028777Y-98833988D01*
X164031799Y-98841789D01*
X164033911Y-98853084D01*
X164039957Y-98862849D01*
X164039959Y-98862853D01*
X164046731Y-98873789D01*
X164054740Y-98888983D01*
X164059937Y-98900754D01*
X164059938Y-98900756D01*
X164064579Y-98911266D01*
X164072704Y-98919391D01*
X164077433Y-98926294D01*
X164083066Y-98932473D01*
X164089117Y-98942245D01*
X164107785Y-98956342D01*
X164108554Y-98956923D01*
X164121509Y-98968196D01*
X165363670Y-100210357D01*
X165393920Y-100259720D01*
X165398462Y-100317436D01*
X165376307Y-100370923D01*
X165332284Y-100408523D01*
X165275989Y-100422038D01*
X165267194Y-100422038D01*
X165257553Y-100420511D01*
X165247912Y-100422038D01*
X165155970Y-100436599D01*
X165155964Y-100436600D01*
X165146328Y-100438127D01*
X165137633Y-100442557D01*
X165137628Y-100442559D01*
X165054692Y-100484818D01*
X165054689Y-100484819D01*
X165045991Y-100489252D01*
X165039089Y-100496153D01*
X165039086Y-100496156D01*
X164973267Y-100561975D01*
X164973264Y-100561978D01*
X164966363Y-100568880D01*
X164961930Y-100577578D01*
X164961929Y-100577581D01*
X164919670Y-100660517D01*
X164919668Y-100660522D01*
X164915238Y-100669217D01*
X164913711Y-100678853D01*
X164913710Y-100678859D01*
X164900542Y-100762005D01*
X164897622Y-100780442D01*
X164899149Y-100790083D01*
X164913710Y-100882024D01*
X164913711Y-100882028D01*
X164915238Y-100891667D01*
X164966363Y-100992004D01*
X165045991Y-101071632D01*
X165146328Y-101122757D01*
X165257553Y-101140373D01*
X165368778Y-101122757D01*
X165469115Y-101071632D01*
X165548743Y-100992004D01*
X165599868Y-100891667D01*
X165617484Y-100780442D01*
X165615957Y-100770801D01*
X165615957Y-100762005D01*
X165629472Y-100705710D01*
X165667072Y-100661687D01*
X165720559Y-100639532D01*
X165778275Y-100644074D01*
X165827638Y-100674324D01*
X167367737Y-102214423D01*
X167369572Y-102216531D01*
X167372279Y-102221967D01*
X167404131Y-102251004D01*
X167408274Y-102254959D01*
X167420037Y-102266723D01*
X167424679Y-102269904D01*
X167428698Y-102273401D01*
X167441282Y-102284873D01*
X167441284Y-102284874D01*
X167449778Y-102292617D01*
X167460495Y-102296768D01*
X167467609Y-102301173D01*
X167475255Y-102304549D01*
X167484738Y-102311045D01*
X167508450Y-102316621D01*
X167524856Y-102321702D01*
X167536847Y-102326348D01*
X167536849Y-102326348D01*
X167547565Y-102330500D01*
X167559059Y-102330500D01*
X167567281Y-102332037D01*
X167575631Y-102332423D01*
X167586821Y-102335055D01*
X167610949Y-102331689D01*
X167628082Y-102330500D01*
X171612689Y-102330500D01*
X171668980Y-102344014D01*
X171763775Y-102392315D01*
X171875000Y-102409931D01*
X171986225Y-102392315D01*
X172086562Y-102341190D01*
X172166190Y-102261562D01*
X172217315Y-102161225D01*
X172234931Y-102050000D01*
X172217315Y-101938775D01*
X172166190Y-101838438D01*
X172086562Y-101758810D01*
X172036263Y-101733181D01*
X171994924Y-101712117D01*
X171994921Y-101712116D01*
X171986225Y-101707685D01*
X171976586Y-101706158D01*
X171976582Y-101706157D01*
X171884641Y-101691596D01*
X171875000Y-101690069D01*
X171865359Y-101691596D01*
X171773417Y-101706157D01*
X171773411Y-101706158D01*
X171763775Y-101707685D01*
X171668980Y-101755985D01*
X171612689Y-101769500D01*
X167767549Y-101769500D01*
X167720096Y-101760061D01*
X167679868Y-101733181D01*
X166346687Y-100400000D01*
X167190069Y-100400000D01*
X167191596Y-100409641D01*
X167206157Y-100501582D01*
X167206158Y-100501586D01*
X167207685Y-100511225D01*
X167212116Y-100519921D01*
X167212117Y-100519924D01*
X167254376Y-100602860D01*
X167258810Y-100611562D01*
X167338438Y-100691190D01*
X167438775Y-100742315D01*
X167550000Y-100759931D01*
X167661225Y-100742315D01*
X167761562Y-100691190D01*
X167841190Y-100611562D01*
X167892315Y-100511225D01*
X167909931Y-100400000D01*
X167892315Y-100288775D01*
X167841190Y-100188438D01*
X167761562Y-100108810D01*
X167744272Y-100100000D01*
X170640069Y-100100000D01*
X170641596Y-100109641D01*
X170656157Y-100201582D01*
X170656158Y-100201586D01*
X170657685Y-100211225D01*
X170708810Y-100311562D01*
X170788438Y-100391190D01*
X170888775Y-100442315D01*
X171000000Y-100459931D01*
X171111225Y-100442315D01*
X171211562Y-100391190D01*
X171291190Y-100311562D01*
X171342315Y-100211225D01*
X171359931Y-100100000D01*
X171342315Y-99988775D01*
X171291190Y-99888438D01*
X171211562Y-99808810D01*
X171157093Y-99781056D01*
X171119924Y-99762117D01*
X171119921Y-99762116D01*
X171111225Y-99757685D01*
X171101586Y-99756158D01*
X171101582Y-99756157D01*
X171009641Y-99741596D01*
X171000000Y-99740069D01*
X170990359Y-99741596D01*
X170898417Y-99756157D01*
X170898411Y-99756158D01*
X170888775Y-99757685D01*
X170880080Y-99762115D01*
X170880075Y-99762117D01*
X170797139Y-99804376D01*
X170797136Y-99804377D01*
X170788438Y-99808810D01*
X170781536Y-99815711D01*
X170781533Y-99815714D01*
X170715714Y-99881533D01*
X170715711Y-99881536D01*
X170708810Y-99888438D01*
X170704377Y-99897136D01*
X170704376Y-99897139D01*
X170662117Y-99980075D01*
X170662115Y-99980080D01*
X170657685Y-99988775D01*
X170656158Y-99998411D01*
X170656157Y-99998417D01*
X170649561Y-100040069D01*
X170640069Y-100100000D01*
X167744272Y-100100000D01*
X167669924Y-100062117D01*
X167669921Y-100062116D01*
X167661225Y-100057685D01*
X167651586Y-100056158D01*
X167651582Y-100056157D01*
X167559641Y-100041596D01*
X167550000Y-100040069D01*
X167540359Y-100041596D01*
X167448417Y-100056157D01*
X167448411Y-100056158D01*
X167438775Y-100057685D01*
X167430080Y-100062115D01*
X167430075Y-100062117D01*
X167347139Y-100104376D01*
X167347136Y-100104377D01*
X167338438Y-100108810D01*
X167331536Y-100115711D01*
X167331533Y-100115714D01*
X167265714Y-100181533D01*
X167265711Y-100181536D01*
X167258810Y-100188438D01*
X167254377Y-100197136D01*
X167254376Y-100197139D01*
X167212117Y-100280075D01*
X167212115Y-100280080D01*
X167207685Y-100288775D01*
X167206158Y-100298411D01*
X167206157Y-100298417D01*
X167202982Y-100318466D01*
X167190069Y-100400000D01*
X166346687Y-100400000D01*
X165116687Y-99170000D01*
X171210069Y-99170000D01*
X171211596Y-99179641D01*
X171226157Y-99271582D01*
X171226158Y-99271586D01*
X171227685Y-99281225D01*
X171232116Y-99289921D01*
X171232117Y-99289924D01*
X171256728Y-99338225D01*
X171278810Y-99381562D01*
X171358438Y-99461190D01*
X171458775Y-99512315D01*
X171570000Y-99529931D01*
X171681225Y-99512315D01*
X171781562Y-99461190D01*
X171855933Y-99386819D01*
X171896161Y-99359939D01*
X171943614Y-99350500D01*
X173568873Y-99350500D01*
X173616326Y-99359939D01*
X173656554Y-99386819D01*
X173684703Y-99414968D01*
X173714953Y-99464330D01*
X173719496Y-99522045D01*
X173716595Y-99540361D01*
X173716595Y-99540365D01*
X173715069Y-99550000D01*
X173716595Y-99559635D01*
X173716595Y-99559639D01*
X173731157Y-99651582D01*
X173731158Y-99651586D01*
X173732685Y-99661225D01*
X173737116Y-99669921D01*
X173737117Y-99669924D01*
X173762594Y-99719924D01*
X173783810Y-99761562D01*
X173863438Y-99841190D01*
X173963775Y-99892315D01*
X174075000Y-99909931D01*
X174186225Y-99892315D01*
X174286562Y-99841190D01*
X174326186Y-99801565D01*
X174370945Y-99772912D01*
X174423592Y-99765629D01*
X174474452Y-99781056D01*
X174508797Y-99811574D01*
X174508810Y-99811562D01*
X174588438Y-99891190D01*
X174688775Y-99942315D01*
X174800000Y-99959931D01*
X174911225Y-99942315D01*
X175011562Y-99891190D01*
X175091190Y-99811562D01*
X175142315Y-99711225D01*
X175159931Y-99600000D01*
X175142315Y-99488775D01*
X175091190Y-99388438D01*
X175011562Y-99308810D01*
X175002860Y-99304376D01*
X174919924Y-99262117D01*
X174919921Y-99262116D01*
X174911225Y-99257685D01*
X174901586Y-99256158D01*
X174901582Y-99256157D01*
X174809641Y-99241596D01*
X174800000Y-99240069D01*
X174790359Y-99241596D01*
X174698417Y-99256157D01*
X174698411Y-99256158D01*
X174688775Y-99257685D01*
X174680080Y-99262115D01*
X174680075Y-99262117D01*
X174597139Y-99304376D01*
X174597136Y-99304377D01*
X174588438Y-99308810D01*
X174581535Y-99315712D01*
X174581532Y-99315715D01*
X174548813Y-99348434D01*
X174504051Y-99377088D01*
X174451404Y-99384370D01*
X174400545Y-99368942D01*
X174366202Y-99338425D01*
X174366190Y-99338438D01*
X174286562Y-99258810D01*
X174252778Y-99241596D01*
X174194924Y-99212117D01*
X174194921Y-99212116D01*
X174186225Y-99207685D01*
X174176586Y-99206158D01*
X174176582Y-99206157D01*
X174084639Y-99191595D01*
X174084635Y-99191595D01*
X174075000Y-99190069D01*
X174065365Y-99191595D01*
X174065361Y-99191595D01*
X174047045Y-99194496D01*
X173989330Y-99189953D01*
X173939968Y-99159703D01*
X173842200Y-99061935D01*
X173827831Y-99044693D01*
X173818276Y-99030850D01*
X173804944Y-99023852D01*
X173804943Y-99023852D01*
X173787020Y-99014445D01*
X173780496Y-99010766D01*
X173759692Y-98998189D01*
X173759691Y-98998188D01*
X173750306Y-98992515D01*
X173744573Y-98992168D01*
X173739489Y-98989500D01*
X173728523Y-98989500D01*
X173704197Y-98989500D01*
X173696712Y-98989274D01*
X173661490Y-98987144D01*
X173661497Y-98987023D01*
X173656255Y-98986826D01*
X173656255Y-98989500D01*
X171943614Y-98989500D01*
X171896161Y-98980061D01*
X171855933Y-98953181D01*
X171788466Y-98885714D01*
X171781562Y-98878810D01*
X171731073Y-98853084D01*
X171689924Y-98832117D01*
X171689921Y-98832116D01*
X171681225Y-98827685D01*
X171671586Y-98826158D01*
X171671582Y-98826157D01*
X171579641Y-98811596D01*
X171570000Y-98810069D01*
X171560359Y-98811596D01*
X171468417Y-98826157D01*
X171468411Y-98826158D01*
X171458775Y-98827685D01*
X171450080Y-98832115D01*
X171450075Y-98832117D01*
X171367139Y-98874376D01*
X171367136Y-98874377D01*
X171358438Y-98878810D01*
X171351536Y-98885711D01*
X171351533Y-98885714D01*
X171285714Y-98951533D01*
X171285711Y-98951536D01*
X171278810Y-98958438D01*
X171274377Y-98967136D01*
X171274376Y-98967139D01*
X171232117Y-99050075D01*
X171232115Y-99050080D01*
X171227685Y-99058775D01*
X171226158Y-99068411D01*
X171226157Y-99068417D01*
X171212262Y-99156148D01*
X171210069Y-99170000D01*
X165116687Y-99170000D01*
X164616819Y-98670132D01*
X164589939Y-98629904D01*
X164580500Y-98582451D01*
X164580500Y-97822963D01*
X164580693Y-97820178D01*
X164582622Y-97814424D01*
X164580632Y-97771378D01*
X164580500Y-97765652D01*
X164580500Y-97754742D01*
X164580500Y-97749007D01*
X164579464Y-97743470D01*
X164579096Y-97738159D01*
X164578309Y-97721142D01*
X164577779Y-97709667D01*
X164573138Y-97699156D01*
X164571223Y-97691013D01*
X164568200Y-97683211D01*
X164566089Y-97671916D01*
X164553261Y-97651198D01*
X164545262Y-97636024D01*
X164535421Y-97613734D01*
X164527294Y-97605607D01*
X164522567Y-97598706D01*
X164516931Y-97592523D01*
X164510883Y-97582755D01*
X164501716Y-97575832D01*
X164501713Y-97575829D01*
X164491439Y-97568071D01*
X164478486Y-97556799D01*
X164157260Y-97235573D01*
X164155425Y-97233465D01*
X164152721Y-97228033D01*
X164120867Y-97198994D01*
X164116725Y-97195038D01*
X164109022Y-97187335D01*
X164104964Y-97183277D01*
X164100312Y-97180090D01*
X164096289Y-97176588D01*
X164095186Y-97175582D01*
X164075222Y-97157383D01*
X164064507Y-97153232D01*
X164057390Y-97148825D01*
X164049737Y-97145446D01*
X164040262Y-97138955D01*
X164029081Y-97136325D01*
X164029076Y-97136323D01*
X164016545Y-97133376D01*
X164000147Y-97128298D01*
X163988150Y-97123650D01*
X163988144Y-97123648D01*
X163977435Y-97119500D01*
X163965950Y-97119500D01*
X163957723Y-97117962D01*
X163949362Y-97117575D01*
X163938179Y-97114945D01*
X163926801Y-97116532D01*
X163926797Y-97116532D01*
X163914050Y-97118311D01*
X163896918Y-97119500D01*
X163512311Y-97119500D01*
X163456019Y-97105985D01*
X163361225Y-97057685D01*
X163351586Y-97056158D01*
X163351582Y-97056157D01*
X163259641Y-97041596D01*
X163250000Y-97040069D01*
X163240359Y-97041596D01*
X163148417Y-97056157D01*
X163148411Y-97056158D01*
X163138775Y-97057685D01*
X163130080Y-97062115D01*
X163130075Y-97062117D01*
X163047139Y-97104376D01*
X163047136Y-97104377D01*
X163038438Y-97108810D01*
X163031536Y-97115711D01*
X163031533Y-97115714D01*
X162965714Y-97181533D01*
X162965711Y-97181536D01*
X162958810Y-97188438D01*
X162954377Y-97197136D01*
X162954376Y-97197139D01*
X162912117Y-97280075D01*
X162912115Y-97280080D01*
X162907685Y-97288775D01*
X162906158Y-97298411D01*
X162906157Y-97298417D01*
X162895424Y-97366190D01*
X162890069Y-97400000D01*
X161399059Y-97400000D01*
X161367744Y-97284150D01*
X161365951Y-97276573D01*
X161242872Y-96672160D01*
X161241555Y-96664460D01*
X161241413Y-96663438D01*
X161156837Y-96053482D01*
X161156009Y-96045709D01*
X161154086Y-96020000D01*
X161109992Y-95430624D01*
X161109657Y-95422859D01*
X161102522Y-94806048D01*
X161102679Y-94798231D01*
X161104768Y-94757749D01*
X161134455Y-94182264D01*
X161135104Y-94174470D01*
X161147320Y-94068385D01*
X161205666Y-93561695D01*
X161206801Y-93553988D01*
X161315873Y-92946854D01*
X161317485Y-92939267D01*
X161464626Y-92340238D01*
X161466728Y-92332714D01*
X161475603Y-92304424D01*
X161651347Y-91744177D01*
X161653921Y-91736799D01*
X161682980Y-91661225D01*
X161875289Y-91161076D01*
X161878311Y-91153900D01*
X162135554Y-90593268D01*
X162139025Y-90586292D01*
X162431123Y-90042979D01*
X162435015Y-90036259D01*
X162597504Y-89775000D01*
X176490069Y-89775000D01*
X176491596Y-89784641D01*
X176506157Y-89876582D01*
X176506158Y-89876586D01*
X176507685Y-89886225D01*
X176512116Y-89894921D01*
X176512117Y-89894924D01*
X176545070Y-89959596D01*
X176558810Y-89986562D01*
X176638438Y-90066190D01*
X176738775Y-90117315D01*
X176850000Y-90134931D01*
X176961225Y-90117315D01*
X177061562Y-90066190D01*
X177141190Y-89986562D01*
X177192315Y-89886225D01*
X177209931Y-89775000D01*
X177192315Y-89663775D01*
X177141190Y-89563438D01*
X177061562Y-89483810D01*
X176983585Y-89444078D01*
X176969924Y-89437117D01*
X176969921Y-89437116D01*
X176961225Y-89432685D01*
X176951586Y-89431158D01*
X176951582Y-89431157D01*
X176859641Y-89416596D01*
X176850000Y-89415069D01*
X176840359Y-89416596D01*
X176748417Y-89431157D01*
X176748411Y-89431158D01*
X176738775Y-89432685D01*
X176730080Y-89437115D01*
X176730075Y-89437117D01*
X176647139Y-89479376D01*
X176647136Y-89479377D01*
X176638438Y-89483810D01*
X176631536Y-89490711D01*
X176631533Y-89490714D01*
X176565714Y-89556533D01*
X176565711Y-89556536D01*
X176558810Y-89563438D01*
X176554377Y-89572136D01*
X176554376Y-89572139D01*
X176512117Y-89655075D01*
X176512115Y-89655080D01*
X176507685Y-89663775D01*
X176506158Y-89673411D01*
X176506157Y-89673417D01*
X176492262Y-89761148D01*
X176490069Y-89775000D01*
X162597504Y-89775000D01*
X162760783Y-89512470D01*
X162765105Y-89505985D01*
X163123265Y-89003772D01*
X163127980Y-88997583D01*
X163517105Y-88518953D01*
X163522197Y-88513078D01*
X163940718Y-88059954D01*
X163946185Y-88054397D01*
X164392458Y-87628562D01*
X164398243Y-87623381D01*
X164870494Y-87226529D01*
X164876583Y-87221731D01*
X165372943Y-86855436D01*
X165379336Y-86851023D01*
X165897771Y-86516784D01*
X165904431Y-86512782D01*
X166442923Y-86211897D01*
X166449829Y-86208319D01*
X167006209Y-85942002D01*
X167013340Y-85938861D01*
X167585413Y-85708160D01*
X167592721Y-85705477D01*
X168178199Y-85511316D01*
X168185691Y-85509092D01*
X168374469Y-85459457D01*
X168430619Y-85457849D01*
X168481717Y-85481183D01*
G37*
G04 #@! TD.AperFunction*
M02*
