G04 #@! TF.GenerationSoftware,KiCad,Pcbnew,(7.0.0-0)*
G04 #@! TF.CreationDate,2023-11-27T19:54:27+08:00*
G04 #@! TF.ProjectId,TopPCB,546f7050-4342-42e6-9b69-6361645f7063,rev?*
G04 #@! TF.SameCoordinates,Original*
G04 #@! TF.FileFunction,Legend,Bot*
G04 #@! TF.FilePolarity,Positive*
%FSLAX46Y46*%
G04 Gerber Fmt 4.6, Leading zero omitted, Abs format (unit mm)*
G04 Created by KiCad (PCBNEW (7.0.0-0)) date 2023-11-27 19:54:27*
%MOMM*%
%LPD*%
G01*
G04 APERTURE LIST*
G04 Aperture macros list*
%AMRoundRect*
0 Rectangle with rounded corners*
0 $1 Rounding radius*
0 $2 $3 $4 $5 $6 $7 $8 $9 X,Y pos of 4 corners*
0 Add a 4 corners polygon primitive as box body*
4,1,4,$2,$3,$4,$5,$6,$7,$8,$9,$2,$3,0*
0 Add four circle primitives for the rounded corners*
1,1,$1+$1,$2,$3*
1,1,$1+$1,$4,$5*
1,1,$1+$1,$6,$7*
1,1,$1+$1,$8,$9*
0 Add four rect primitives between the rounded corners*
20,1,$1+$1,$2,$3,$4,$5,0*
20,1,$1+$1,$4,$5,$6,$7,0*
20,1,$1+$1,$6,$7,$8,$9,0*
20,1,$1+$1,$8,$9,$2,$3,0*%
G04 Aperture macros list end*
%ADD10C,0.010000*%
%ADD11C,0.300000*%
%ADD12C,0.150000*%
%ADD13RoundRect,0.250000X0.469527X0.636038X-0.006001X0.790547X-0.469527X-0.636038X0.006001X-0.790547X0*%
G04 APERTURE END LIST*
D10*
X76946682Y-41995998D02*
X76977860Y-42007047D01*
X77008921Y-42018570D01*
X77039861Y-42030557D01*
X77070677Y-42042997D01*
X77101366Y-42055879D01*
X77131923Y-42069192D01*
X77162346Y-42082924D01*
X77192631Y-42097066D01*
X77222775Y-42111606D01*
X77252775Y-42126532D01*
X77282627Y-42141835D01*
X77312328Y-42157503D01*
X77341874Y-42173526D01*
X77371263Y-42189891D01*
X77400491Y-42206590D01*
X77429554Y-42223609D01*
X77458449Y-42240939D01*
X77487173Y-42258569D01*
X77515722Y-42276487D01*
X77544093Y-42294684D01*
X77572284Y-42313147D01*
X77600289Y-42331865D01*
X77628107Y-42350829D01*
X77655733Y-42370027D01*
X77683165Y-42389447D01*
X77710398Y-42409080D01*
X77737430Y-42428914D01*
X77764258Y-42448938D01*
X77790877Y-42469142D01*
X77817285Y-42489514D01*
X77843478Y-42510043D01*
X77869454Y-42530719D01*
X79120799Y-46926595D02*
X79111946Y-46935509D01*
X79103016Y-46944311D01*
X79094007Y-46953000D01*
X79084920Y-46961576D01*
X79075753Y-46970038D01*
X79066507Y-46978385D01*
X79057181Y-46986617D01*
X79047774Y-46994733D01*
X79038286Y-47002732D01*
X79028717Y-47010614D01*
X79019067Y-47018378D01*
X79009334Y-47026024D01*
X78999519Y-47033550D01*
X78989621Y-47040957D01*
X78979639Y-47048243D01*
X78969574Y-47055409D01*
X78959424Y-47062452D01*
X78949190Y-47069374D01*
X78938871Y-47076172D01*
X78928466Y-47082847D01*
X78917975Y-47089397D01*
X78907398Y-47095823D01*
X78896735Y-47102123D01*
X78885984Y-47108297D01*
X78875145Y-47114344D01*
X78864219Y-47120264D01*
X78853204Y-47126056D01*
X78842101Y-47131719D01*
X78830908Y-47137253D01*
X78819625Y-47142657D01*
X78808253Y-47147930D01*
X78796790Y-47153073D01*
X74018545Y-46402077D02*
X74489179Y-44881465D01*
X79638569Y-44220757D02*
X79631438Y-44206096D01*
X79624170Y-44191517D01*
X79616767Y-44177020D01*
X79609230Y-44162603D01*
X79601561Y-44148267D01*
X79593763Y-44134010D01*
X79585836Y-44119832D01*
X79577782Y-44105733D01*
X79569605Y-44091712D01*
X79561304Y-44077768D01*
X79552883Y-44063901D01*
X79544342Y-44050111D01*
X79535684Y-44036396D01*
X79526911Y-44022757D01*
X79518025Y-44009192D01*
X79509026Y-43995701D01*
X79499918Y-43982284D01*
X79490701Y-43968940D01*
X79481379Y-43955668D01*
X79471951Y-43942468D01*
X79462421Y-43929340D01*
X79452791Y-43916282D01*
X79443061Y-43903295D01*
X79433234Y-43890377D01*
X79423312Y-43877528D01*
X79413296Y-43864748D01*
X79403189Y-43852036D01*
X79392991Y-43839392D01*
X79382706Y-43826814D01*
X79372334Y-43814303D01*
X79361878Y-43801858D01*
X79351340Y-43789478D01*
X78360495Y-47245297D02*
X78339158Y-47245647D01*
X78317732Y-47245684D01*
X78296219Y-47245412D01*
X78274620Y-47244835D01*
X78252938Y-47243956D01*
X78231174Y-47242780D01*
X78209329Y-47241309D01*
X78187407Y-47239548D01*
X78165409Y-47237500D01*
X78143336Y-47235170D01*
X78121191Y-47232561D01*
X78098976Y-47229676D01*
X78076692Y-47226520D01*
X78054342Y-47223097D01*
X78031926Y-47219409D01*
X78009448Y-47215462D01*
X77986909Y-47211258D01*
X77964311Y-47206801D01*
X77941656Y-47202096D01*
X77918946Y-47197146D01*
X77896182Y-47191954D01*
X77873367Y-47186525D01*
X77850502Y-47180863D01*
X77827589Y-47174971D01*
X77804631Y-47168852D01*
X77781629Y-47162511D01*
X77758585Y-47155952D01*
X77735501Y-47149177D01*
X77712379Y-47142192D01*
X77689220Y-47134999D01*
X77666027Y-47127603D01*
X77642802Y-47120008D01*
X79359695Y-46596412D02*
X79353560Y-46607609D01*
X79347347Y-46618768D01*
X79341053Y-46629886D01*
X79334680Y-46640962D01*
X79328226Y-46651994D01*
X79321690Y-46662980D01*
X79315071Y-46673918D01*
X79308369Y-46684806D01*
X79301584Y-46695644D01*
X79294714Y-46706428D01*
X79287759Y-46717157D01*
X79280718Y-46727829D01*
X79273590Y-46738443D01*
X79266376Y-46748997D01*
X79259073Y-46759489D01*
X79251681Y-46769916D01*
X79244201Y-46780278D01*
X79236630Y-46790572D01*
X79228968Y-46800797D01*
X79221216Y-46810951D01*
X79213371Y-46821032D01*
X79205433Y-46831038D01*
X79197401Y-46840968D01*
X79189276Y-46850819D01*
X79181056Y-46860591D01*
X79172740Y-46870280D01*
X79164328Y-46879886D01*
X79155818Y-46889406D01*
X79147212Y-46898838D01*
X79138507Y-46908182D01*
X79129702Y-46917435D01*
X79120799Y-46926595D01*
X75773129Y-42026057D02*
X75788479Y-42018783D01*
X75803887Y-42011714D01*
X75819354Y-42004851D01*
X75834878Y-41998192D01*
X75850460Y-41991739D01*
X75866098Y-41985490D01*
X75881793Y-41979446D01*
X75897544Y-41973606D01*
X75913350Y-41967970D01*
X75929211Y-41962538D01*
X75945126Y-41957310D01*
X75961096Y-41952285D01*
X75977120Y-41947463D01*
X75993196Y-41942845D01*
X76009326Y-41938429D01*
X76025508Y-41934217D01*
X76041742Y-41930206D01*
X76058027Y-41926399D01*
X76074363Y-41922793D01*
X76090750Y-41919389D01*
X76107188Y-41916187D01*
X76123675Y-41913187D01*
X76140211Y-41910388D01*
X76156796Y-41907790D01*
X76173429Y-41905394D01*
X76190111Y-41903198D01*
X76206840Y-41901203D01*
X76223616Y-41899408D01*
X76240439Y-41897813D01*
X76257308Y-41896419D01*
X76274222Y-41895224D01*
X76291183Y-41894230D01*
X79547175Y-46139514D02*
X79542606Y-46154155D01*
X79537963Y-46168798D01*
X79533244Y-46183441D01*
X79528448Y-46198080D01*
X79523575Y-46212714D01*
X79518623Y-46227341D01*
X79513592Y-46241956D01*
X79508481Y-46256558D01*
X79503290Y-46271144D01*
X79498016Y-46285712D01*
X79492661Y-46300260D01*
X79487221Y-46314783D01*
X79481698Y-46329281D01*
X79476090Y-46343750D01*
X79470397Y-46358188D01*
X79464616Y-46372593D01*
X79458749Y-46386961D01*
X79452793Y-46401291D01*
X79446748Y-46415579D01*
X79440613Y-46429824D01*
X79434388Y-46444022D01*
X79428071Y-46458171D01*
X79421662Y-46472269D01*
X79415160Y-46486313D01*
X79408564Y-46500300D01*
X79401874Y-46514228D01*
X79395087Y-46528094D01*
X79388205Y-46541896D01*
X79381225Y-46555632D01*
X79374147Y-46569298D01*
X79366971Y-46582892D01*
X79359695Y-46596412D01*
X77869454Y-42530719D02*
X78865730Y-43329793D01*
X74555647Y-43990262D02*
X74707520Y-43499558D01*
X76291183Y-41894230D02*
X76312078Y-41893280D01*
X76332962Y-41892633D01*
X76353834Y-41892284D01*
X76374692Y-41892231D01*
X76395534Y-41892469D01*
X76416359Y-41892994D01*
X76437165Y-41893804D01*
X76457951Y-41894895D01*
X76478715Y-41896263D01*
X76499455Y-41897905D01*
X76520171Y-41899816D01*
X76540860Y-41901994D01*
X76561521Y-41904435D01*
X76582153Y-41907135D01*
X76602753Y-41910091D01*
X76623321Y-41913299D01*
X76643854Y-41916755D01*
X76664351Y-41920457D01*
X76684811Y-41924400D01*
X76705232Y-41928580D01*
X76725613Y-41932995D01*
X76745952Y-41937641D01*
X76766246Y-41942514D01*
X76786496Y-41947610D01*
X76806699Y-41952926D01*
X76826854Y-41958458D01*
X76846959Y-41964204D01*
X76867012Y-41970158D01*
X76887013Y-41976319D01*
X76906959Y-41982681D01*
X76926849Y-41989242D01*
X76946682Y-41995998D01*
X79637363Y-45848118D02*
X79648556Y-45811475D01*
X79659334Y-45775222D01*
X79669697Y-45739352D01*
X79679647Y-45703862D01*
X79689184Y-45668745D01*
X79698310Y-45633995D01*
X79707026Y-45599609D01*
X79715333Y-45565580D01*
X79723231Y-45531903D01*
X79730722Y-45498573D01*
X79737808Y-45465585D01*
X79744488Y-45432933D01*
X79750764Y-45400611D01*
X79756638Y-45368616D01*
X79762110Y-45336940D01*
X79767181Y-45305580D01*
X79771853Y-45274529D01*
X79776126Y-45243783D01*
X79780001Y-45213336D01*
X79783480Y-45183182D01*
X79786564Y-45153317D01*
X79789254Y-45123736D01*
X79791550Y-45094432D01*
X79793454Y-45065400D01*
X79794967Y-45036636D01*
X79796091Y-45008134D01*
X79796825Y-44979888D01*
X79797171Y-44951894D01*
X79797131Y-44924145D01*
X79796705Y-44896638D01*
X79795894Y-44869366D01*
X79794700Y-44842324D01*
X74707520Y-43499558D02*
X74713980Y-43478861D01*
X74720548Y-43458175D01*
X74727224Y-43437504D01*
X74734010Y-43416848D01*
X74740905Y-43396212D01*
X74747912Y-43375598D01*
X74755030Y-43355008D01*
X74762261Y-43334445D01*
X74769606Y-43313912D01*
X74777065Y-43293412D01*
X74784639Y-43272946D01*
X74792329Y-43252518D01*
X74800136Y-43232131D01*
X74808061Y-43211786D01*
X74816105Y-43191488D01*
X74824268Y-43171237D01*
X74832552Y-43151038D01*
X74840957Y-43130892D01*
X74849484Y-43110803D01*
X74858134Y-43090773D01*
X74866908Y-43070804D01*
X74875807Y-43050900D01*
X74884831Y-43031062D01*
X74893982Y-43011295D01*
X74903260Y-42991599D01*
X74912666Y-42971979D01*
X74922201Y-42952436D01*
X74931867Y-42932973D01*
X74941662Y-42913594D01*
X74951590Y-42894299D01*
X74961650Y-42875093D01*
X74971844Y-42855979D01*
X79637363Y-45848118D02*
X79547175Y-46139514D01*
X74450014Y-44650110D02*
X74450973Y-44665091D01*
X74452128Y-44679993D01*
X74453478Y-44694819D01*
X74455025Y-44709570D01*
X74456769Y-44724249D01*
X74458710Y-44738856D01*
X74460851Y-44753395D01*
X74463190Y-44767867D01*
X74465730Y-44782273D01*
X74468471Y-44796617D01*
X74471413Y-44810900D01*
X74474558Y-44825123D01*
X74477907Y-44839289D01*
X74481459Y-44853400D01*
X74485216Y-44867458D01*
X74489179Y-44881465D01*
X79794700Y-44842324D02*
X79793530Y-44821832D01*
X79792133Y-44801423D01*
X79790508Y-44781096D01*
X79788654Y-44760849D01*
X79786569Y-44740682D01*
X79784253Y-44720591D01*
X79781703Y-44700577D01*
X79778919Y-44680637D01*
X79775899Y-44660770D01*
X79772642Y-44640975D01*
X79769147Y-44621250D01*
X79765413Y-44601595D01*
X79761439Y-44582006D01*
X79757222Y-44562484D01*
X79752763Y-44543026D01*
X79748059Y-44523632D01*
X79743110Y-44504299D01*
X79737914Y-44485027D01*
X79732470Y-44465814D01*
X79726777Y-44446658D01*
X79720834Y-44427558D01*
X79714638Y-44408513D01*
X79708190Y-44389521D01*
X79701487Y-44370581D01*
X79694530Y-44351692D01*
X79687315Y-44332851D01*
X79679843Y-44314058D01*
X79672111Y-44295311D01*
X79664119Y-44276609D01*
X79655865Y-44257950D01*
X79647349Y-44239333D01*
X79638569Y-44220757D01*
X78796790Y-47153073D02*
X78783803Y-47158692D01*
X78770766Y-47164117D01*
X78757679Y-47169351D01*
X78744543Y-47174395D01*
X78731358Y-47179250D01*
X78718127Y-47183918D01*
X78704849Y-47188401D01*
X78691525Y-47192701D01*
X78678157Y-47196819D01*
X78664745Y-47200757D01*
X78651290Y-47204517D01*
X78637794Y-47208100D01*
X78624257Y-47211508D01*
X78610680Y-47214743D01*
X78597063Y-47217806D01*
X78583409Y-47220700D01*
X78569717Y-47223426D01*
X78555989Y-47225985D01*
X78542226Y-47228380D01*
X78528428Y-47230611D01*
X78514596Y-47232681D01*
X78500732Y-47234592D01*
X78486836Y-47236345D01*
X78472910Y-47237942D01*
X78458953Y-47239384D01*
X78444967Y-47240673D01*
X78430953Y-47241811D01*
X78416912Y-47242800D01*
X78402845Y-47243642D01*
X78388752Y-47244337D01*
X78374635Y-47244888D01*
X78360495Y-47245297D01*
X76109120Y-46411858D02*
G75*
G03*
X77642802Y-47120008I3890980J6412058D01*
G01*
X75329980Y-42353332D02*
X75342095Y-42340828D01*
X75354320Y-42328452D01*
X75366654Y-42316205D01*
X75379098Y-42304089D01*
X75391651Y-42292106D01*
X75404315Y-42280258D01*
X75417089Y-42268547D01*
X75429974Y-42256975D01*
X75442969Y-42245543D01*
X75456076Y-42234255D01*
X75469295Y-42223111D01*
X75482625Y-42212114D01*
X75496067Y-42201266D01*
X75509622Y-42190569D01*
X75523289Y-42180024D01*
X75537069Y-42169634D01*
X75550962Y-42159401D01*
X75564969Y-42149327D01*
X75579089Y-42139413D01*
X75593324Y-42129662D01*
X75607672Y-42120075D01*
X75622136Y-42110655D01*
X75636714Y-42101404D01*
X75651407Y-42092323D01*
X75666215Y-42083415D01*
X75681139Y-42074682D01*
X75696180Y-42066125D01*
X75711336Y-42057746D01*
X75726609Y-42049548D01*
X75741998Y-42041532D01*
X75757505Y-42033701D01*
X75773129Y-42026057D01*
X79351340Y-43789478D02*
X79337768Y-43773767D01*
X79324048Y-43758139D01*
X79310183Y-43742593D01*
X79296178Y-43727129D01*
X79282037Y-43711749D01*
X79267766Y-43696453D01*
X79253368Y-43681241D01*
X79238849Y-43666114D01*
X79224213Y-43651072D01*
X79209464Y-43636116D01*
X79194607Y-43621246D01*
X79179646Y-43606463D01*
X79164586Y-43591767D01*
X79149433Y-43577159D01*
X79134189Y-43562640D01*
X79118860Y-43548209D01*
X79103451Y-43533867D01*
X79087965Y-43519615D01*
X79072408Y-43505454D01*
X79056784Y-43491383D01*
X79041097Y-43477403D01*
X79025353Y-43463515D01*
X79009555Y-43449720D01*
X78993708Y-43436017D01*
X78977818Y-43422407D01*
X78961887Y-43408891D01*
X78945922Y-43395470D01*
X78929926Y-43382143D01*
X78913905Y-43368911D01*
X78897862Y-43355775D01*
X78881802Y-43342735D01*
X78865730Y-43329793D01*
X74548818Y-44012326D02*
X74541669Y-44035726D01*
X74534790Y-44058862D01*
X74528180Y-44081739D01*
X74521838Y-44104360D01*
X74515764Y-44126730D01*
X74509956Y-44148851D01*
X74504414Y-44170729D01*
X74499138Y-44192367D01*
X74494125Y-44213769D01*
X74489376Y-44234939D01*
X74484890Y-44255882D01*
X74480666Y-44276600D01*
X74476703Y-44297099D01*
X74473001Y-44317382D01*
X74469558Y-44337453D01*
X74466374Y-44357316D01*
X74463448Y-44376975D01*
X74460780Y-44396435D01*
X74458368Y-44415698D01*
X74456212Y-44434770D01*
X74454311Y-44453653D01*
X74452664Y-44472353D01*
X74451271Y-44490872D01*
X74450131Y-44509216D01*
X74449243Y-44527388D01*
X74448605Y-44545392D01*
X74448218Y-44563231D01*
X74448081Y-44580911D01*
X74448193Y-44598435D01*
X74448553Y-44615806D01*
X74449160Y-44633030D01*
X74450014Y-44650110D01*
X74971844Y-42855979D02*
X74981052Y-42839002D01*
X74990381Y-42822079D01*
X74999831Y-42805211D01*
X75009404Y-42788402D01*
X75019099Y-42771654D01*
X75028919Y-42754971D01*
X75038862Y-42738355D01*
X75048931Y-42721809D01*
X75059126Y-42705336D01*
X75069447Y-42688939D01*
X75079895Y-42672621D01*
X75090472Y-42656385D01*
X75101177Y-42640233D01*
X75112011Y-42624170D01*
X75122976Y-42608196D01*
X75134071Y-42592317D01*
X75145298Y-42576533D01*
X75156657Y-42560849D01*
X75168150Y-42545268D01*
X75179776Y-42529791D01*
X75191536Y-42514422D01*
X75203432Y-42499165D01*
X75215463Y-42484021D01*
X75227631Y-42468994D01*
X75239936Y-42454087D01*
X75252380Y-42439302D01*
X75264962Y-42424643D01*
X75277684Y-42410112D01*
X75290546Y-42395713D01*
X75303548Y-42381447D01*
X75316693Y-42367319D01*
X75329980Y-42353332D01*
X76109119Y-46411859D02*
X75733723Y-47624761D01*
D11*
G36*
X81290467Y-39219765D02*
G01*
X81280767Y-39206602D01*
X81275410Y-39192860D01*
X81273508Y-39177702D01*
X81275747Y-39161939D01*
X81282814Y-39146378D01*
X81284509Y-39143861D01*
X81306875Y-39111020D01*
X81329381Y-39078265D01*
X81352025Y-39045600D01*
X81374804Y-39013026D01*
X81397716Y-38980545D01*
X81420758Y-38948159D01*
X81443928Y-38915870D01*
X81467222Y-38883681D01*
X81490639Y-38851593D01*
X81514176Y-38819609D01*
X81537831Y-38787729D01*
X81561601Y-38755958D01*
X81585483Y-38724295D01*
X81609475Y-38692745D01*
X81633575Y-38661307D01*
X81657780Y-38629986D01*
X81682087Y-38598782D01*
X81706494Y-38567698D01*
X81730999Y-38536735D01*
X81755598Y-38505896D01*
X81780290Y-38475183D01*
X81805072Y-38444598D01*
X81829941Y-38414143D01*
X81854895Y-38383819D01*
X81879932Y-38353630D01*
X81905048Y-38323577D01*
X81930241Y-38293661D01*
X81955510Y-38263886D01*
X81980850Y-38234253D01*
X82006261Y-38204764D01*
X82031738Y-38175421D01*
X82057281Y-38146226D01*
X82044465Y-38129864D01*
X82031473Y-38113423D01*
X82018313Y-38096909D01*
X82004991Y-38080328D01*
X81991515Y-38063687D01*
X81977890Y-38046990D01*
X81964125Y-38030246D01*
X81950225Y-38013459D01*
X81936197Y-37996635D01*
X81922049Y-37979781D01*
X81907787Y-37962903D01*
X81893418Y-37946006D01*
X81878949Y-37929098D01*
X81864386Y-37912183D01*
X81849737Y-37895268D01*
X81835009Y-37878359D01*
X81716360Y-37741577D01*
X81707736Y-37729555D01*
X81701147Y-37713614D01*
X81698794Y-37697321D01*
X81700226Y-37681390D01*
X81704993Y-37666530D01*
X81712645Y-37653455D01*
X81718432Y-37646761D01*
X81732341Y-37636141D01*
X81745950Y-37630174D01*
X81760691Y-37627364D01*
X81775907Y-37628216D01*
X81790938Y-37633235D01*
X81805128Y-37642923D01*
X81807807Y-37645466D01*
X81810916Y-37648574D01*
X81820958Y-37659477D01*
X81830974Y-37670422D01*
X81840965Y-37681408D01*
X81850931Y-37692433D01*
X81860871Y-37703497D01*
X81870787Y-37714598D01*
X81880678Y-37725735D01*
X81890544Y-37736905D01*
X81900386Y-37748109D01*
X81910205Y-37759343D01*
X81919999Y-37770607D01*
X81929769Y-37781900D01*
X81939516Y-37793219D01*
X81949240Y-37804564D01*
X81958940Y-37815933D01*
X81968618Y-37827325D01*
X81978273Y-37838738D01*
X81987905Y-37850171D01*
X81997515Y-37861622D01*
X82007102Y-37873090D01*
X82016668Y-37884574D01*
X82026212Y-37896072D01*
X82035734Y-37907583D01*
X82045235Y-37919105D01*
X82054714Y-37930636D01*
X82064172Y-37942177D01*
X82073610Y-37953724D01*
X82083027Y-37965277D01*
X82092423Y-37976834D01*
X82101799Y-37988394D01*
X82111155Y-37999955D01*
X82120491Y-38011516D01*
X82134444Y-38028840D01*
X82148414Y-38046230D01*
X82162393Y-38063687D01*
X82176370Y-38081214D01*
X82190337Y-38098812D01*
X82204283Y-38116483D01*
X82218200Y-38134228D01*
X82232077Y-38152051D01*
X82245905Y-38169952D01*
X82259674Y-38187933D01*
X82273376Y-38205997D01*
X82287000Y-38224145D01*
X82300536Y-38242378D01*
X82313977Y-38260700D01*
X82327311Y-38279111D01*
X82340529Y-38297614D01*
X82353622Y-38316210D01*
X82366581Y-38334901D01*
X82379395Y-38353689D01*
X82392055Y-38372576D01*
X82404552Y-38391564D01*
X82416876Y-38410655D01*
X82429017Y-38429849D01*
X82440967Y-38449151D01*
X82452715Y-38468560D01*
X82464252Y-38488080D01*
X82475569Y-38507711D01*
X82486655Y-38527456D01*
X82497502Y-38547316D01*
X82508099Y-38567294D01*
X82518438Y-38587391D01*
X82528509Y-38607610D01*
X82536058Y-38623197D01*
X82543588Y-38639146D01*
X82551005Y-38655430D01*
X82558215Y-38672022D01*
X82565127Y-38688895D01*
X82571646Y-38706021D01*
X82577681Y-38723374D01*
X82583138Y-38740928D01*
X82587923Y-38758654D01*
X82591945Y-38776526D01*
X82595110Y-38794518D01*
X82597325Y-38812602D01*
X82598497Y-38830751D01*
X82598534Y-38848938D01*
X82597342Y-38867137D01*
X82594828Y-38885320D01*
X82589739Y-38900097D01*
X82581487Y-38913149D01*
X82576953Y-38918221D01*
X82563350Y-38928353D01*
X82548773Y-38934288D01*
X82532681Y-38936310D01*
X82516191Y-38933119D01*
X82502951Y-38925538D01*
X82497940Y-38921071D01*
X82488482Y-38909103D01*
X82480995Y-38895083D01*
X82475434Y-38880614D01*
X82470688Y-38863506D01*
X82467599Y-38847851D01*
X82465244Y-38830390D01*
X82464780Y-38825737D01*
X82461975Y-38809145D01*
X82458361Y-38792718D01*
X82453583Y-38775607D01*
X82448546Y-38760206D01*
X82442011Y-38742422D01*
X82433752Y-38722094D01*
X82427177Y-38707047D01*
X82419667Y-38690749D01*
X82411155Y-38673151D01*
X82402120Y-38654897D01*
X82392802Y-38636756D01*
X82383216Y-38618729D01*
X82373377Y-38600813D01*
X82363300Y-38583009D01*
X82352999Y-38565314D01*
X82342489Y-38547727D01*
X82331786Y-38530248D01*
X82320903Y-38512875D01*
X82309856Y-38495608D01*
X82298660Y-38478444D01*
X82287329Y-38461383D01*
X82275878Y-38444424D01*
X82264322Y-38427565D01*
X82252675Y-38410806D01*
X82240953Y-38394145D01*
X82231005Y-38379976D01*
X82221014Y-38365792D01*
X82211032Y-38351673D01*
X82201113Y-38337701D01*
X82191307Y-38323956D01*
X82181669Y-38310519D01*
X82172249Y-38297471D01*
X82163102Y-38284891D01*
X82154280Y-38272862D01*
X82143111Y-38257817D01*
X82140439Y-38254254D01*
X82116177Y-38282112D01*
X82091965Y-38310118D01*
X82067807Y-38338270D01*
X82043704Y-38366567D01*
X82019659Y-38395009D01*
X81995673Y-38423593D01*
X81971749Y-38452319D01*
X81947889Y-38481185D01*
X81924096Y-38510191D01*
X81900371Y-38539334D01*
X81876718Y-38568615D01*
X81853137Y-38598031D01*
X81829632Y-38627582D01*
X81806204Y-38657266D01*
X81782856Y-38687082D01*
X81759590Y-38717030D01*
X81736408Y-38747107D01*
X81713313Y-38777312D01*
X81690307Y-38807645D01*
X81667391Y-38838105D01*
X81644569Y-38868689D01*
X81621842Y-38899397D01*
X81599212Y-38930228D01*
X81576683Y-38961180D01*
X81554255Y-38992253D01*
X81531932Y-39023444D01*
X81509715Y-39054754D01*
X81487607Y-39086181D01*
X81465610Y-39117722D01*
X81443727Y-39149379D01*
X81421959Y-39181148D01*
X81400308Y-39213030D01*
X81392018Y-39221320D01*
X81380142Y-39230699D01*
X81363586Y-39237914D01*
X81346064Y-39240566D01*
X81328576Y-39239137D01*
X81312127Y-39234107D01*
X81297717Y-39225955D01*
X81290467Y-39219765D01*
G37*
G36*
X80489443Y-37945139D02*
G01*
X80506447Y-37949329D01*
X80521974Y-37958146D01*
X80527539Y-37963072D01*
X80535570Y-37974729D01*
X80546159Y-37990844D01*
X80556761Y-38006927D01*
X80567395Y-38022965D01*
X80578080Y-38038943D01*
X80588835Y-38054849D01*
X80599678Y-38070668D01*
X80610629Y-38086387D01*
X80621707Y-38101992D01*
X80632931Y-38117469D01*
X80644319Y-38132806D01*
X80655891Y-38147987D01*
X80667666Y-38163000D01*
X80679662Y-38177831D01*
X80691899Y-38192466D01*
X80704395Y-38206892D01*
X80717170Y-38221094D01*
X80725607Y-38233483D01*
X80724165Y-38236379D01*
X80743335Y-38204773D01*
X80754795Y-38194036D01*
X80766962Y-38184012D01*
X80779743Y-38174760D01*
X80793042Y-38166336D01*
X80806767Y-38158798D01*
X80820822Y-38152205D01*
X80835114Y-38146613D01*
X80849549Y-38142081D01*
X80864305Y-38138837D01*
X80878933Y-38137082D01*
X80898086Y-38136968D01*
X80916651Y-38139279D01*
X80934420Y-38143888D01*
X80951188Y-38150668D01*
X80966747Y-38159491D01*
X80980891Y-38170229D01*
X80987369Y-38176277D01*
X80997963Y-38188343D01*
X81007290Y-38202055D01*
X81015185Y-38217200D01*
X81021481Y-38233563D01*
X81026013Y-38250933D01*
X81028614Y-38269094D01*
X81029077Y-38276533D01*
X81028309Y-38292839D01*
X81026045Y-38308668D01*
X81022342Y-38323933D01*
X81017257Y-38338545D01*
X81010849Y-38352416D01*
X81003175Y-38365459D01*
X80994293Y-38377584D01*
X80984260Y-38388705D01*
X80971652Y-38399975D01*
X80957666Y-38410037D01*
X80942502Y-38418824D01*
X80926360Y-38426269D01*
X80909442Y-38432305D01*
X80891946Y-38436866D01*
X80874074Y-38439884D01*
X80856026Y-38441294D01*
X80840830Y-38441291D01*
X80823405Y-38439876D01*
X80807221Y-38437260D01*
X80792658Y-38433803D01*
X80778222Y-38429184D01*
X80774681Y-38427823D01*
X80771091Y-38447803D01*
X80769070Y-38468811D01*
X80768632Y-38490591D01*
X80769226Y-38505414D01*
X80770534Y-38520390D01*
X80772558Y-38535443D01*
X80775302Y-38550497D01*
X80778771Y-38565477D01*
X80782968Y-38580307D01*
X80787898Y-38594911D01*
X80793563Y-38609213D01*
X80799967Y-38623137D01*
X80807115Y-38636607D01*
X80815010Y-38649547D01*
X80819240Y-38655795D01*
X80830120Y-38669784D01*
X80843959Y-38681589D01*
X80858940Y-38690589D01*
X80874893Y-38696797D01*
X80891646Y-38700223D01*
X80909032Y-38700881D01*
X80926878Y-38698782D01*
X80945017Y-38693939D01*
X80958709Y-38688513D01*
X80963276Y-38686363D01*
X80975853Y-38678583D01*
X80987683Y-38669472D01*
X80997472Y-38660458D01*
X81009375Y-38647178D01*
X81019840Y-38632714D01*
X81028884Y-38617242D01*
X81036525Y-38600939D01*
X81042782Y-38583980D01*
X81047673Y-38566541D01*
X81051215Y-38548798D01*
X81053429Y-38530928D01*
X81056213Y-38516122D01*
X81061764Y-38501827D01*
X81070741Y-38488771D01*
X81071563Y-38487925D01*
X81085807Y-38477252D01*
X81102455Y-38470425D01*
X81120267Y-38467343D01*
X81138005Y-38467906D01*
X81154428Y-38472011D01*
X81168299Y-38479560D01*
X81172855Y-38483521D01*
X81181597Y-38495868D01*
X81186809Y-38511137D01*
X81188327Y-38526279D01*
X81188139Y-38531446D01*
X81186425Y-38547070D01*
X81184187Y-38562638D01*
X81181414Y-38578119D01*
X81178092Y-38593483D01*
X81174209Y-38608698D01*
X81169751Y-38623733D01*
X81164705Y-38638557D01*
X81159060Y-38653139D01*
X81152801Y-38667448D01*
X81145916Y-38681452D01*
X81138391Y-38695121D01*
X81130215Y-38708424D01*
X81121374Y-38721329D01*
X81111855Y-38733805D01*
X81101646Y-38745821D01*
X81090733Y-38757346D01*
X81063791Y-38781697D01*
X81050437Y-38790885D01*
X81036544Y-38799292D01*
X81022171Y-38806890D01*
X81007373Y-38813650D01*
X80992208Y-38819546D01*
X80976732Y-38824548D01*
X80961003Y-38828629D01*
X80945077Y-38831760D01*
X80929012Y-38833914D01*
X80912864Y-38835062D01*
X80896690Y-38835177D01*
X80880547Y-38834229D01*
X80864493Y-38832192D01*
X80848583Y-38829037D01*
X80832875Y-38824736D01*
X80817426Y-38819261D01*
X80803027Y-38812955D01*
X80789055Y-38805764D01*
X80775636Y-38797788D01*
X80762895Y-38789127D01*
X80750955Y-38779883D01*
X80739941Y-38770157D01*
X80735823Y-38766154D01*
X80717884Y-38746238D01*
X80701836Y-38724436D01*
X80687645Y-38700981D01*
X80675276Y-38676106D01*
X80664695Y-38650045D01*
X80655868Y-38623029D01*
X80648760Y-38595292D01*
X80643339Y-38567067D01*
X80639569Y-38538587D01*
X80637416Y-38510085D01*
X80636846Y-38481794D01*
X80637826Y-38453947D01*
X80640320Y-38426777D01*
X80644295Y-38400518D01*
X80649717Y-38375401D01*
X80656551Y-38351660D01*
X80630645Y-38328344D01*
X80615298Y-38312513D01*
X80610819Y-38307614D01*
X80833758Y-38307614D01*
X80846615Y-38307581D01*
X80862235Y-38306090D01*
X80878115Y-38302218D01*
X80890481Y-38294926D01*
X80894336Y-38280566D01*
X80893589Y-38278346D01*
X80889185Y-38268761D01*
X80873472Y-38273369D01*
X80859824Y-38283647D01*
X80846551Y-38295325D01*
X80835021Y-38306359D01*
X80833758Y-38307614D01*
X80610819Y-38307614D01*
X80600333Y-38296143D01*
X80585729Y-38279292D01*
X80571466Y-38262017D01*
X80557525Y-38244375D01*
X80543886Y-38226422D01*
X80530530Y-38208216D01*
X80517436Y-38189813D01*
X80504585Y-38171270D01*
X80491957Y-38152645D01*
X80479533Y-38133994D01*
X80467292Y-38115374D01*
X80455215Y-38096842D01*
X80443283Y-38078455D01*
X80431474Y-38060270D01*
X80419771Y-38042344D01*
X80413313Y-38029031D01*
X80409962Y-38012931D01*
X80410822Y-37997362D01*
X80415265Y-37983032D01*
X80424146Y-37968820D01*
X80427284Y-37965403D01*
X80439881Y-37955709D01*
X80455128Y-37948791D01*
X80471992Y-37945114D01*
X80489443Y-37945139D01*
G37*
G36*
X79715909Y-37594431D02*
G01*
X79705110Y-37582805D01*
X79695058Y-37570531D01*
X79685605Y-37557852D01*
X79676605Y-37545012D01*
X79671610Y-37537697D01*
X79657554Y-37515021D01*
X79644303Y-37491721D01*
X79631803Y-37467860D01*
X79620004Y-37443501D01*
X79608853Y-37418706D01*
X79598299Y-37393539D01*
X79588288Y-37368061D01*
X79578769Y-37342335D01*
X79569691Y-37316424D01*
X79561001Y-37290390D01*
X79552647Y-37264296D01*
X79544578Y-37238205D01*
X79536740Y-37212180D01*
X79529083Y-37186282D01*
X79521555Y-37160574D01*
X79514102Y-37135120D01*
X79511407Y-37119312D01*
X79512472Y-37104237D01*
X79517585Y-37088660D01*
X79526061Y-37075682D01*
X79528609Y-37072946D01*
X79540886Y-37063792D01*
X79556043Y-37057443D01*
X79572901Y-37054237D01*
X79590280Y-37054511D01*
X79606999Y-37058604D01*
X79621879Y-37066853D01*
X79627052Y-37071392D01*
X79636071Y-37083304D01*
X79642164Y-37097066D01*
X79643631Y-37101961D01*
X79651865Y-37129934D01*
X79656143Y-37144202D01*
X79660526Y-37158618D01*
X79665012Y-37173155D01*
X79669600Y-37187783D01*
X79674286Y-37202473D01*
X79679070Y-37217197D01*
X79683949Y-37231926D01*
X79688921Y-37246632D01*
X79693984Y-37261284D01*
X79699137Y-37275855D01*
X79704378Y-37290316D01*
X79709703Y-37304638D01*
X79715113Y-37318792D01*
X79720604Y-37332750D01*
X79726175Y-37346482D01*
X79737548Y-37373154D01*
X79749216Y-37398580D01*
X79761165Y-37422528D01*
X79773377Y-37444768D01*
X79785838Y-37465070D01*
X79798533Y-37483203D01*
X79811445Y-37498937D01*
X79817978Y-37505833D01*
X79821864Y-37508683D01*
X79840383Y-37505785D01*
X79858158Y-37501952D01*
X79875346Y-37497475D01*
X79892105Y-37492649D01*
X79908593Y-37487766D01*
X79924967Y-37483121D01*
X79941385Y-37479005D01*
X79958003Y-37475714D01*
X79974980Y-37473538D01*
X79992473Y-37472773D01*
X80004500Y-37473192D01*
X80020793Y-37475553D01*
X80036593Y-37478968D01*
X80051899Y-37483396D01*
X80066709Y-37488797D01*
X80081022Y-37495133D01*
X80094837Y-37502364D01*
X80108152Y-37510449D01*
X80120967Y-37519349D01*
X80133280Y-37529024D01*
X80145089Y-37539435D01*
X80152682Y-37546764D01*
X80166026Y-37560994D01*
X80178646Y-37576206D01*
X80190513Y-37592272D01*
X80201598Y-37609069D01*
X80211874Y-37626470D01*
X80221313Y-37644350D01*
X80229885Y-37662584D01*
X80237564Y-37681046D01*
X80244320Y-37699610D01*
X80250126Y-37718151D01*
X80253455Y-37730437D01*
X80257058Y-37745419D01*
X80260427Y-37760515D01*
X80263627Y-37775689D01*
X80266724Y-37790903D01*
X80269781Y-37806120D01*
X80272864Y-37821303D01*
X80276035Y-37836414D01*
X80279361Y-37851417D01*
X80282906Y-37866275D01*
X80286733Y-37880949D01*
X80290908Y-37895403D01*
X80295496Y-37909600D01*
X80300560Y-37923503D01*
X80306165Y-37937074D01*
X80315728Y-37956727D01*
X80319256Y-37963072D01*
X80327854Y-37975822D01*
X80336503Y-37987958D01*
X80344126Y-37996749D01*
X80355384Y-38006525D01*
X80370393Y-38004111D01*
X80381689Y-37995972D01*
X80392708Y-37982830D01*
X80401592Y-37968344D01*
X80409243Y-37952762D01*
X80416561Y-37936333D01*
X80422783Y-37922748D01*
X80429830Y-37908907D01*
X80438164Y-37894939D01*
X80451498Y-37885305D01*
X80466583Y-37880331D01*
X80482476Y-37879476D01*
X80498236Y-37882201D01*
X80512919Y-37887967D01*
X80525582Y-37896234D01*
X80529871Y-37900120D01*
X80539228Y-37911591D01*
X80546365Y-37925221D01*
X80550482Y-37940435D01*
X80550782Y-37956660D01*
X80546464Y-37973322D01*
X80543860Y-37978874D01*
X80536462Y-37994048D01*
X80528782Y-38009334D01*
X80520732Y-38024553D01*
X80512223Y-38039526D01*
X80503167Y-38054075D01*
X80493477Y-38068019D01*
X80483065Y-38081180D01*
X80471842Y-38093378D01*
X80460124Y-38103925D01*
X80447587Y-38113030D01*
X80434344Y-38120694D01*
X80420512Y-38126922D01*
X80406204Y-38131715D01*
X80391536Y-38135077D01*
X80376623Y-38137009D01*
X80361580Y-38137515D01*
X80346522Y-38136597D01*
X80331563Y-38134258D01*
X80316819Y-38130501D01*
X80302405Y-38125327D01*
X80288436Y-38118741D01*
X80275027Y-38110744D01*
X80262292Y-38101339D01*
X80250347Y-38090529D01*
X80236833Y-38075861D01*
X80224508Y-38060197D01*
X80213290Y-38043640D01*
X80203101Y-38026290D01*
X80193858Y-38008251D01*
X80185483Y-37989626D01*
X80177893Y-37970517D01*
X80171010Y-37951025D01*
X80164752Y-37931255D01*
X80159039Y-37911307D01*
X80153790Y-37891286D01*
X80148925Y-37871292D01*
X80144364Y-37851429D01*
X80140026Y-37831799D01*
X80135831Y-37812504D01*
X80131698Y-37793647D01*
X80127766Y-37778276D01*
X80123497Y-37762836D01*
X80118812Y-37747436D01*
X80113633Y-37732185D01*
X80107882Y-37717192D01*
X80101481Y-37702566D01*
X80094351Y-37688415D01*
X80086415Y-37674849D01*
X80077595Y-37661976D01*
X80067811Y-37649905D01*
X80060716Y-37642357D01*
X80042064Y-37626814D01*
X80028746Y-37618614D01*
X80008197Y-37611620D01*
X79986973Y-37609910D01*
X79965086Y-37612271D01*
X79950134Y-37615508D01*
X79934896Y-37619654D01*
X79919377Y-37624351D01*
X79903580Y-37629238D01*
X79887510Y-37633956D01*
X79871170Y-37638145D01*
X79854564Y-37641445D01*
X79837696Y-37643497D01*
X79820570Y-37643940D01*
X79803188Y-37642415D01*
X79794403Y-37640803D01*
X79777769Y-37635406D01*
X79761985Y-37628339D01*
X79747082Y-37619735D01*
X79733092Y-37609728D01*
X79720043Y-37598450D01*
X79715909Y-37594431D01*
G37*
G36*
X78954217Y-36384451D02*
G01*
X78968316Y-36392506D01*
X78973447Y-36397062D01*
X78984586Y-36414937D01*
X78992418Y-36431477D01*
X79000177Y-36448064D01*
X79007862Y-36464694D01*
X79015472Y-36481362D01*
X79023006Y-36498064D01*
X79030464Y-36514795D01*
X79037845Y-36531552D01*
X79045149Y-36548328D01*
X79052375Y-36565120D01*
X79059521Y-36581924D01*
X79066589Y-36598735D01*
X79073576Y-36615549D01*
X79080482Y-36632360D01*
X79087307Y-36649165D01*
X79094049Y-36665960D01*
X79100709Y-36682739D01*
X79107285Y-36699498D01*
X79113778Y-36716234D01*
X79120185Y-36732940D01*
X79126507Y-36749614D01*
X79132742Y-36766249D01*
X79138891Y-36782843D01*
X79144953Y-36799391D01*
X79150926Y-36815887D01*
X79156811Y-36832328D01*
X79162606Y-36848709D01*
X79168310Y-36865026D01*
X79173925Y-36881274D01*
X79179447Y-36897449D01*
X79184878Y-36913546D01*
X79190216Y-36929561D01*
X79195460Y-36945489D01*
X79292089Y-36864404D01*
X79307269Y-36855236D01*
X79323014Y-36850095D01*
X79338715Y-36848641D01*
X79353759Y-36850538D01*
X79370087Y-36856760D01*
X79383536Y-36866735D01*
X79392843Y-36878419D01*
X79399520Y-36892118D01*
X79403178Y-36907279D01*
X79403427Y-36923348D01*
X79399879Y-36939772D01*
X79397785Y-36945230D01*
X79393929Y-36961361D01*
X79395341Y-36975997D01*
X79400414Y-36990688D01*
X79408492Y-37004777D01*
X79418920Y-37017610D01*
X79420841Y-37019580D01*
X79427835Y-37026575D01*
X79441646Y-37035569D01*
X79456200Y-37040848D01*
X79471255Y-37042643D01*
X79486566Y-37041185D01*
X79501892Y-37036705D01*
X79516990Y-37029435D01*
X79522910Y-37025797D01*
X79545707Y-37008700D01*
X79559113Y-36992550D01*
X79568858Y-36974913D01*
X79575132Y-36956106D01*
X79578125Y-36936445D01*
X79578030Y-36916246D01*
X79575036Y-36895825D01*
X79569335Y-36875499D01*
X79561117Y-36855584D01*
X79550573Y-36836396D01*
X79542346Y-36824165D01*
X79533227Y-36812491D01*
X79528350Y-36806893D01*
X79519652Y-36794945D01*
X79513025Y-36779043D01*
X79510677Y-36762745D01*
X79512141Y-36746782D01*
X79516948Y-36731883D01*
X79524629Y-36718777D01*
X79530423Y-36712077D01*
X79542008Y-36702986D01*
X79555828Y-36696447D01*
X79571083Y-36692965D01*
X79586973Y-36693045D01*
X79602697Y-36697190D01*
X79617454Y-36705904D01*
X79622907Y-36710782D01*
X79624202Y-36712077D01*
X79642392Y-36733280D01*
X79658466Y-36755938D01*
X79672384Y-36779832D01*
X79684105Y-36804743D01*
X79693591Y-36830452D01*
X79700801Y-36856737D01*
X79705695Y-36883380D01*
X79708234Y-36910160D01*
X79708378Y-36936859D01*
X79706086Y-36963256D01*
X79701320Y-36989131D01*
X79694038Y-37014265D01*
X79684203Y-37038439D01*
X79671772Y-37061432D01*
X79656707Y-37083024D01*
X79638968Y-37102997D01*
X79626158Y-37114827D01*
X79614452Y-37124228D01*
X79601890Y-37133145D01*
X79588551Y-37141511D01*
X79574511Y-37149262D01*
X79559847Y-37156332D01*
X79556847Y-37157658D01*
X79540175Y-37163647D01*
X79523605Y-37168237D01*
X79507178Y-37171475D01*
X79490936Y-37173408D01*
X79474921Y-37174083D01*
X79459173Y-37173546D01*
X79443734Y-37171845D01*
X79428645Y-37169024D01*
X79413948Y-37165133D01*
X79399684Y-37160216D01*
X79385894Y-37154321D01*
X79372620Y-37147494D01*
X79359902Y-37139783D01*
X79347784Y-37131233D01*
X79336305Y-37121891D01*
X79325507Y-37111805D01*
X79313855Y-37099234D01*
X79303326Y-37086208D01*
X79294279Y-37073476D01*
X79286077Y-37059992D01*
X79280949Y-37049113D01*
X79240277Y-37084086D01*
X79266183Y-37170093D01*
X79272023Y-37189630D01*
X79277789Y-37209189D01*
X79283477Y-37228769D01*
X79289086Y-37248370D01*
X79294614Y-37267993D01*
X79300057Y-37287638D01*
X79305415Y-37307305D01*
X79310684Y-37326994D01*
X79315863Y-37346704D01*
X79320950Y-37366437D01*
X79325942Y-37386192D01*
X79330837Y-37405969D01*
X79335633Y-37425769D01*
X79340328Y-37445591D01*
X79344920Y-37465435D01*
X79349405Y-37485303D01*
X79353784Y-37505193D01*
X79358052Y-37525106D01*
X79362208Y-37545042D01*
X79366249Y-37565001D01*
X79370174Y-37584983D01*
X79373981Y-37604988D01*
X79377667Y-37625017D01*
X79381229Y-37645069D01*
X79384667Y-37665145D01*
X79387976Y-37685244D01*
X79391157Y-37705367D01*
X79394205Y-37725514D01*
X79397120Y-37745685D01*
X79399898Y-37765879D01*
X79402539Y-37786098D01*
X79405038Y-37806341D01*
X79406909Y-37823411D01*
X79408677Y-37840567D01*
X79410331Y-37857802D01*
X79411862Y-37875109D01*
X79413259Y-37892481D01*
X79414511Y-37909912D01*
X79415609Y-37927394D01*
X79416542Y-37944921D01*
X79417300Y-37962486D01*
X79417872Y-37980083D01*
X79418248Y-37997703D01*
X79418417Y-38015341D01*
X79418370Y-38032989D01*
X79418096Y-38050642D01*
X79417585Y-38068291D01*
X79416825Y-38085930D01*
X79415808Y-38103553D01*
X79414523Y-38121152D01*
X79412958Y-38138721D01*
X79411105Y-38156253D01*
X79408952Y-38173740D01*
X79406490Y-38191177D01*
X79403707Y-38208556D01*
X79400594Y-38225870D01*
X79397140Y-38243114D01*
X79393335Y-38260279D01*
X79389169Y-38277359D01*
X79384630Y-38294347D01*
X79379710Y-38311237D01*
X79374397Y-38328021D01*
X79368681Y-38344692D01*
X79362553Y-38361245D01*
X79356459Y-38376654D01*
X79350029Y-38391975D01*
X79343260Y-38407186D01*
X79336149Y-38422265D01*
X79328693Y-38437191D01*
X79320890Y-38451942D01*
X79312737Y-38466497D01*
X79304232Y-38480833D01*
X79295372Y-38494929D01*
X79286153Y-38508764D01*
X79276574Y-38522316D01*
X79266632Y-38535563D01*
X79256324Y-38548484D01*
X79245648Y-38561056D01*
X79234600Y-38573260D01*
X79223179Y-38585072D01*
X79209390Y-38598407D01*
X79195201Y-38611172D01*
X79180574Y-38623305D01*
X79165474Y-38634746D01*
X79149863Y-38645434D01*
X79133707Y-38655309D01*
X79116967Y-38664309D01*
X79099608Y-38672374D01*
X79078975Y-38681421D01*
X79058005Y-38689238D01*
X79036745Y-38695842D01*
X79015240Y-38701247D01*
X78993536Y-38705470D01*
X78971679Y-38708527D01*
X78949715Y-38710432D01*
X78927690Y-38711201D01*
X78905650Y-38710850D01*
X78883641Y-38709394D01*
X78861708Y-38706849D01*
X78839898Y-38703231D01*
X78818256Y-38698554D01*
X78796829Y-38692835D01*
X78775662Y-38686090D01*
X78754801Y-38678333D01*
X78739353Y-38672187D01*
X78724104Y-38665612D01*
X78709062Y-38658622D01*
X78694238Y-38651229D01*
X78679642Y-38643447D01*
X78665283Y-38635290D01*
X78651172Y-38626773D01*
X78637318Y-38617907D01*
X78623731Y-38608708D01*
X78610421Y-38599188D01*
X78597398Y-38589362D01*
X78584672Y-38579243D01*
X78572253Y-38568844D01*
X78560150Y-38558180D01*
X78548373Y-38547264D01*
X78536933Y-38536109D01*
X78525370Y-38524253D01*
X78514097Y-38512103D01*
X78503117Y-38499668D01*
X78492436Y-38486959D01*
X78482058Y-38473985D01*
X78471986Y-38460756D01*
X78462225Y-38447281D01*
X78452779Y-38433571D01*
X78443653Y-38419634D01*
X78434851Y-38405481D01*
X78426376Y-38391121D01*
X78418234Y-38376564D01*
X78410429Y-38361819D01*
X78402964Y-38346897D01*
X78395845Y-38331806D01*
X78389075Y-38316557D01*
X78382659Y-38301159D01*
X78376600Y-38285623D01*
X78370904Y-38269957D01*
X78365575Y-38254171D01*
X78360616Y-38238275D01*
X78356032Y-38222278D01*
X78351827Y-38206191D01*
X78348006Y-38190023D01*
X78344573Y-38173784D01*
X78341532Y-38157483D01*
X78338887Y-38141130D01*
X78336643Y-38124734D01*
X78334804Y-38108306D01*
X78333374Y-38091855D01*
X78332357Y-38075391D01*
X78331758Y-38058923D01*
X78331643Y-38043677D01*
X78331666Y-38042164D01*
X78465726Y-38042164D01*
X78465998Y-38058947D01*
X78466776Y-38075678D01*
X78468051Y-38092346D01*
X78469819Y-38108938D01*
X78472070Y-38125443D01*
X78474800Y-38141848D01*
X78478001Y-38158142D01*
X78481667Y-38174313D01*
X78485791Y-38190349D01*
X78490366Y-38206238D01*
X78495386Y-38221968D01*
X78500844Y-38237528D01*
X78506733Y-38252904D01*
X78513046Y-38268087D01*
X78519778Y-38283062D01*
X78526920Y-38297819D01*
X78534467Y-38312346D01*
X78542412Y-38326631D01*
X78550748Y-38340662D01*
X78559468Y-38354426D01*
X78568566Y-38367913D01*
X78578035Y-38381110D01*
X78587869Y-38394005D01*
X78598060Y-38406587D01*
X78608602Y-38418843D01*
X78619488Y-38430761D01*
X78630712Y-38442330D01*
X78643431Y-38454657D01*
X78656347Y-38466386D01*
X78669487Y-38477526D01*
X78682880Y-38488086D01*
X78696552Y-38498076D01*
X78710530Y-38507504D01*
X78724843Y-38516379D01*
X78739517Y-38524711D01*
X78754963Y-38533223D01*
X78770590Y-38541064D01*
X78786381Y-38548213D01*
X78802314Y-38554648D01*
X78818372Y-38560349D01*
X78834535Y-38565294D01*
X78850785Y-38569462D01*
X78867103Y-38572831D01*
X78883469Y-38575381D01*
X78899865Y-38577089D01*
X78916271Y-38577936D01*
X78932669Y-38577899D01*
X78949040Y-38576957D01*
X78965364Y-38575090D01*
X78981623Y-38572275D01*
X78997798Y-38568492D01*
X79013746Y-38563715D01*
X79029306Y-38557967D01*
X79044429Y-38551297D01*
X79059065Y-38543752D01*
X79073168Y-38535381D01*
X79086688Y-38526233D01*
X79099576Y-38516356D01*
X79111784Y-38505800D01*
X79130695Y-38486888D01*
X79143897Y-38473168D01*
X79156160Y-38459311D01*
X79167567Y-38445180D01*
X79178200Y-38430640D01*
X79188141Y-38415554D01*
X79197472Y-38399784D01*
X79206274Y-38383194D01*
X79214630Y-38365649D01*
X79221163Y-38351723D01*
X79227311Y-38337685D01*
X79233084Y-38323539D01*
X79238490Y-38309289D01*
X79243540Y-38294939D01*
X79248241Y-38280494D01*
X79252603Y-38265958D01*
X79256634Y-38251335D01*
X79260344Y-38236630D01*
X79263742Y-38221847D01*
X79266836Y-38206990D01*
X79269635Y-38192064D01*
X79272149Y-38177073D01*
X79274386Y-38162020D01*
X79276356Y-38146912D01*
X79278067Y-38131751D01*
X79279529Y-38116543D01*
X79280749Y-38101291D01*
X79281738Y-38086000D01*
X79282504Y-38070674D01*
X79283056Y-38055317D01*
X79283404Y-38039934D01*
X79283555Y-38024530D01*
X79283520Y-38009107D01*
X79283306Y-37993672D01*
X79282924Y-37978227D01*
X79282381Y-37962778D01*
X79281687Y-37947328D01*
X79280852Y-37931883D01*
X79279883Y-37916445D01*
X79278790Y-37901021D01*
X79277581Y-37885613D01*
X79276084Y-37867063D01*
X79274411Y-37848522D01*
X79272568Y-37829990D01*
X79270558Y-37811469D01*
X79268385Y-37792959D01*
X79266054Y-37774459D01*
X79263569Y-37755970D01*
X79260933Y-37737492D01*
X79258151Y-37719027D01*
X79255227Y-37700573D01*
X79252166Y-37682132D01*
X79248970Y-37663704D01*
X79245645Y-37645288D01*
X79242195Y-37626886D01*
X79238623Y-37608498D01*
X79234934Y-37590124D01*
X79231132Y-37571765D01*
X79227221Y-37553420D01*
X79223205Y-37535090D01*
X79219088Y-37516776D01*
X79214875Y-37498477D01*
X79210570Y-37480195D01*
X79206176Y-37461929D01*
X79201697Y-37443679D01*
X79197139Y-37425447D01*
X79192505Y-37407232D01*
X79187799Y-37389035D01*
X79183026Y-37370856D01*
X79178188Y-37352695D01*
X79173292Y-37334553D01*
X79168340Y-37316431D01*
X79163337Y-37298327D01*
X79158464Y-37281241D01*
X79153598Y-37264326D01*
X79148792Y-37247799D01*
X79144101Y-37231879D01*
X79139581Y-37216784D01*
X79135285Y-37202734D01*
X79130315Y-37186974D01*
X79127586Y-37178642D01*
X78995467Y-37289519D01*
X78977524Y-37304549D01*
X78959555Y-37319447D01*
X78941574Y-37334246D01*
X78923598Y-37348977D01*
X78905641Y-37363674D01*
X78887720Y-37378368D01*
X78869849Y-37393091D01*
X78852045Y-37407877D01*
X78834323Y-37422756D01*
X78816698Y-37437762D01*
X78799187Y-37452926D01*
X78781804Y-37468282D01*
X78764565Y-37483860D01*
X78747486Y-37499694D01*
X78730583Y-37515816D01*
X78713870Y-37532257D01*
X78685632Y-37560495D01*
X78665837Y-37581456D01*
X78646698Y-37602954D01*
X78628260Y-37624984D01*
X78610566Y-37647542D01*
X78593660Y-37670624D01*
X78577585Y-37694225D01*
X78562386Y-37718341D01*
X78548105Y-37742969D01*
X78534786Y-37768104D01*
X78522473Y-37793741D01*
X78511211Y-37819877D01*
X78501041Y-37846507D01*
X78492008Y-37873628D01*
X78484156Y-37901235D01*
X78477528Y-37929324D01*
X78472168Y-37957890D01*
X78469816Y-37974753D01*
X78468003Y-37991624D01*
X78466721Y-38008491D01*
X78465964Y-38025341D01*
X78465726Y-38042164D01*
X78331666Y-38042164D01*
X78331876Y-38028447D01*
X78332453Y-38013237D01*
X78333369Y-37998053D01*
X78334618Y-37982900D01*
X78336196Y-37967781D01*
X78338098Y-37952704D01*
X78340319Y-37937672D01*
X78342854Y-37922690D01*
X78345698Y-37907764D01*
X78348845Y-37892898D01*
X78352291Y-37878098D01*
X78356031Y-37863368D01*
X78360060Y-37848713D01*
X78364374Y-37834139D01*
X78368966Y-37819650D01*
X78373832Y-37805252D01*
X78378967Y-37790948D01*
X78384366Y-37776746D01*
X78390024Y-37762648D01*
X78395936Y-37748660D01*
X78402097Y-37734788D01*
X78408502Y-37721036D01*
X78415147Y-37707409D01*
X78422025Y-37693912D01*
X78429133Y-37680551D01*
X78436465Y-37667329D01*
X78444016Y-37654253D01*
X78451781Y-37641327D01*
X78459756Y-37628556D01*
X78467935Y-37615944D01*
X78476313Y-37603498D01*
X78487880Y-37587141D01*
X78499831Y-37570999D01*
X78512141Y-37555071D01*
X78524783Y-37539354D01*
X78537733Y-37523845D01*
X78550965Y-37508542D01*
X78564453Y-37493442D01*
X78578172Y-37478543D01*
X78592095Y-37463842D01*
X78606198Y-37449336D01*
X78615687Y-37439773D01*
X78627382Y-37428098D01*
X78639193Y-37416431D01*
X78651182Y-37404831D01*
X78663410Y-37393361D01*
X78675939Y-37382083D01*
X78680192Y-37378376D01*
X79082251Y-37041600D01*
X79084065Y-37039787D01*
X79078422Y-37022889D01*
X79072714Y-37005955D01*
X79066943Y-36988989D01*
X79061108Y-36971992D01*
X79055210Y-36954966D01*
X79049250Y-36937915D01*
X79043229Y-36920840D01*
X79037147Y-36903744D01*
X79031004Y-36886630D01*
X79024801Y-36869499D01*
X79018540Y-36852355D01*
X79012220Y-36835200D01*
X79005842Y-36818035D01*
X78999407Y-36800864D01*
X78992915Y-36783689D01*
X78986367Y-36766512D01*
X78979764Y-36749336D01*
X78973106Y-36732163D01*
X78966394Y-36714996D01*
X78959628Y-36697837D01*
X78952809Y-36680688D01*
X78945938Y-36663552D01*
X78939015Y-36646431D01*
X78932042Y-36629328D01*
X78925017Y-36612246D01*
X78917943Y-36595185D01*
X78910820Y-36578150D01*
X78903648Y-36561142D01*
X78896428Y-36544164D01*
X78889161Y-36527218D01*
X78881846Y-36510306D01*
X78874486Y-36493432D01*
X78868787Y-36478925D01*
X78863427Y-36462964D01*
X78862412Y-36446757D01*
X78865167Y-36431042D01*
X78871118Y-36416556D01*
X78879693Y-36404038D01*
X78883035Y-36400430D01*
X78894596Y-36391314D01*
X78908325Y-36384684D01*
X78923391Y-36381014D01*
X78938965Y-36380778D01*
X78954217Y-36384451D01*
G37*
G36*
X79777461Y-41252443D02*
G01*
X79766826Y-41240964D01*
X79756882Y-41228618D01*
X79747643Y-41215603D01*
X79739120Y-41202121D01*
X79731326Y-41188372D01*
X79724273Y-41174555D01*
X79717973Y-41160873D01*
X79712437Y-41147524D01*
X79706581Y-41130230D01*
X79701606Y-41112754D01*
X79697457Y-41095121D01*
X79694081Y-41077356D01*
X79691422Y-41059483D01*
X79689427Y-41041526D01*
X79688042Y-41023511D01*
X79687212Y-41005463D01*
X79686882Y-40987405D01*
X79687000Y-40969363D01*
X79687509Y-40951361D01*
X79688357Y-40933424D01*
X79689489Y-40915577D01*
X79690850Y-40897844D01*
X79692387Y-40880250D01*
X79694044Y-40862819D01*
X79697649Y-40847196D01*
X79704167Y-40834004D01*
X79713733Y-40821888D01*
X79727313Y-40811620D01*
X79743265Y-40804897D01*
X79760466Y-40801772D01*
X79777797Y-40802299D01*
X79794136Y-40806530D01*
X79808363Y-40814519D01*
X79813211Y-40818779D01*
X79822065Y-40831029D01*
X79827457Y-40846230D01*
X79828996Y-40861611D01*
X79828755Y-40866964D01*
X79826670Y-40887519D01*
X79824727Y-40908208D01*
X79823054Y-40928988D01*
X79821778Y-40949815D01*
X79821029Y-40970645D01*
X79820934Y-40991435D01*
X79821620Y-41012142D01*
X79823217Y-41032721D01*
X79825853Y-41053129D01*
X79829654Y-41073323D01*
X79832900Y-41086645D01*
X79838245Y-41102123D01*
X79844730Y-41116800D01*
X79852459Y-41130700D01*
X79861534Y-41143841D01*
X79872056Y-41156244D01*
X79875903Y-41160218D01*
X79890489Y-41168362D01*
X79908415Y-41167277D01*
X79925681Y-41160891D01*
X79941930Y-41152045D01*
X79954502Y-41143858D01*
X79968571Y-41133618D01*
X79984224Y-41121135D01*
X80001553Y-41106216D01*
X80010873Y-41097785D01*
X80037297Y-41071361D01*
X80047744Y-41060778D01*
X80058053Y-41050063D01*
X80068227Y-41039224D01*
X80078268Y-41028266D01*
X80088179Y-41017194D01*
X80097960Y-41006015D01*
X80107616Y-40994734D01*
X80117148Y-40983358D01*
X80126557Y-40971892D01*
X80135848Y-40960341D01*
X80145021Y-40948712D01*
X80154078Y-40937011D01*
X80163023Y-40925243D01*
X80171857Y-40913415D01*
X80180583Y-40901532D01*
X80189202Y-40889599D01*
X80197718Y-40877623D01*
X80206132Y-40865610D01*
X80222663Y-40841495D01*
X80238814Y-40817299D01*
X80254603Y-40793071D01*
X80270047Y-40768857D01*
X80285164Y-40744703D01*
X80299972Y-40720656D01*
X80314490Y-40696762D01*
X80313453Y-40695726D01*
X80304082Y-40684110D01*
X80296869Y-40668483D01*
X80294160Y-40652347D01*
X80295422Y-40636471D01*
X80300120Y-40621627D01*
X80307721Y-40608586D01*
X80313453Y-40601947D01*
X80325113Y-40592617D01*
X80338640Y-40585558D01*
X80352899Y-40581129D01*
X80368940Y-40579764D01*
X80382622Y-40583035D01*
X80390139Y-40570121D01*
X80398248Y-40556042D01*
X80406784Y-40541001D01*
X80415581Y-40525198D01*
X80422695Y-40512142D01*
X80429785Y-40498832D01*
X80436765Y-40485370D01*
X80448164Y-40470345D01*
X80461998Y-40460146D01*
X80477598Y-40454512D01*
X80493997Y-40452998D01*
X80510229Y-40455158D01*
X80525328Y-40460549D01*
X80538326Y-40468725D01*
X80542720Y-40472676D01*
X80551961Y-40484410D01*
X80558390Y-40498237D01*
X80561547Y-40513573D01*
X80560972Y-40529835D01*
X80556202Y-40546439D01*
X80553601Y-40551948D01*
X80544603Y-40568595D01*
X80535532Y-40585059D01*
X80526460Y-40601257D01*
X80517462Y-40617102D01*
X80508610Y-40632510D01*
X80499976Y-40647395D01*
X80491633Y-40661674D01*
X80483655Y-40675260D01*
X80720694Y-40912299D01*
X80730147Y-40923997D01*
X80737204Y-40939468D01*
X80739570Y-40955261D01*
X80737884Y-40970713D01*
X80732788Y-40985159D01*
X80724922Y-40997936D01*
X80719139Y-41004524D01*
X80707149Y-41014279D01*
X80693225Y-41021514D01*
X80678013Y-41025607D01*
X80662159Y-41025934D01*
X80646310Y-41021874D01*
X80631112Y-41012803D01*
X80625360Y-41007633D01*
X80411637Y-40793909D01*
X80401380Y-40810345D01*
X80390594Y-40827387D01*
X80379309Y-40844947D01*
X80367556Y-40862935D01*
X80355366Y-40881261D01*
X80347012Y-40893622D01*
X80338486Y-40906067D01*
X80329798Y-40918569D01*
X80320957Y-40931101D01*
X80311971Y-40943638D01*
X80302850Y-40956153D01*
X80293603Y-40968618D01*
X80284240Y-40981009D01*
X80279517Y-40987167D01*
X80270845Y-40999108D01*
X80262117Y-41011027D01*
X80253324Y-41022913D01*
X80244459Y-41034757D01*
X80235513Y-41046547D01*
X80226479Y-41058274D01*
X80217349Y-41069927D01*
X80208114Y-41081497D01*
X80198767Y-41092972D01*
X80189299Y-41104343D01*
X80179703Y-41115599D01*
X80169971Y-41126731D01*
X80160095Y-41137727D01*
X80150067Y-41148578D01*
X80139878Y-41159274D01*
X80129522Y-41169803D01*
X80070975Y-41222133D01*
X80053643Y-41235624D01*
X80041556Y-41244513D01*
X80029066Y-41253185D01*
X80016194Y-41261529D01*
X80002964Y-41269431D01*
X79989394Y-41276778D01*
X79975508Y-41283456D01*
X79961325Y-41289353D01*
X79946868Y-41294355D01*
X79932157Y-41298351D01*
X79917214Y-41301225D01*
X79902060Y-41302866D01*
X79886716Y-41303160D01*
X79871204Y-41301994D01*
X79855544Y-41299255D01*
X79847666Y-41297260D01*
X79833610Y-41291319D01*
X79819806Y-41284264D01*
X79806399Y-41276075D01*
X79793531Y-41266732D01*
X79781346Y-41256214D01*
X79777461Y-41252443D01*
G37*
G36*
X79142752Y-40162266D02*
G01*
X79159756Y-40166456D01*
X79175283Y-40175273D01*
X79180849Y-40180199D01*
X79188880Y-40191857D01*
X79199469Y-40207972D01*
X79210071Y-40224055D01*
X79220705Y-40240093D01*
X79231390Y-40256071D01*
X79242144Y-40271977D01*
X79252988Y-40287796D01*
X79263939Y-40303514D01*
X79275017Y-40319119D01*
X79286240Y-40334597D01*
X79297629Y-40349933D01*
X79309201Y-40365115D01*
X79320975Y-40380128D01*
X79332972Y-40394959D01*
X79345209Y-40409594D01*
X79357705Y-40424019D01*
X79370480Y-40438222D01*
X79378916Y-40450611D01*
X79377475Y-40453506D01*
X79396645Y-40421901D01*
X79408105Y-40411164D01*
X79420272Y-40401140D01*
X79433052Y-40391887D01*
X79446352Y-40383463D01*
X79460076Y-40375926D01*
X79474132Y-40369332D01*
X79488424Y-40363741D01*
X79502859Y-40359209D01*
X79517615Y-40355964D01*
X79532242Y-40354210D01*
X79551396Y-40354095D01*
X79569960Y-40356406D01*
X79587730Y-40361015D01*
X79604497Y-40367795D01*
X79620056Y-40376618D01*
X79634201Y-40387357D01*
X79640678Y-40393404D01*
X79651272Y-40405471D01*
X79660600Y-40419183D01*
X79668495Y-40434327D01*
X79674791Y-40450691D01*
X79679323Y-40468060D01*
X79681924Y-40486222D01*
X79682387Y-40493660D01*
X79681619Y-40509966D01*
X79679355Y-40525796D01*
X79675652Y-40541060D01*
X79670567Y-40555672D01*
X79664159Y-40569544D01*
X79656485Y-40582586D01*
X79647602Y-40594712D01*
X79637569Y-40605833D01*
X79624962Y-40617103D01*
X79610975Y-40627164D01*
X79595811Y-40635951D01*
X79579670Y-40643396D01*
X79562751Y-40649432D01*
X79545255Y-40653993D01*
X79527383Y-40657012D01*
X79509335Y-40658421D01*
X79494140Y-40658418D01*
X79476714Y-40657003D01*
X79460531Y-40654388D01*
X79445968Y-40650930D01*
X79431531Y-40646311D01*
X79427991Y-40644950D01*
X79424400Y-40664931D01*
X79422380Y-40685939D01*
X79421942Y-40707719D01*
X79422536Y-40722541D01*
X79423843Y-40737517D01*
X79425867Y-40752570D01*
X79428612Y-40767625D01*
X79432081Y-40782605D01*
X79436278Y-40797435D01*
X79441207Y-40812039D01*
X79446872Y-40826341D01*
X79453277Y-40840264D01*
X79460425Y-40853734D01*
X79468320Y-40866674D01*
X79472549Y-40872922D01*
X79483430Y-40886911D01*
X79497269Y-40898717D01*
X79512250Y-40907717D01*
X79528202Y-40913924D01*
X79544956Y-40917351D01*
X79562341Y-40918008D01*
X79580188Y-40915910D01*
X79598326Y-40911066D01*
X79612019Y-40905640D01*
X79616586Y-40903491D01*
X79629162Y-40895711D01*
X79640993Y-40886599D01*
X79650781Y-40877585D01*
X79662685Y-40864305D01*
X79673150Y-40849842D01*
X79682193Y-40834370D01*
X79689835Y-40818066D01*
X79696091Y-40801107D01*
X79700982Y-40783668D01*
X79704525Y-40765926D01*
X79706738Y-40748056D01*
X79709523Y-40733249D01*
X79715074Y-40718955D01*
X79724050Y-40705898D01*
X79724872Y-40705052D01*
X79739116Y-40694379D01*
X79755764Y-40687553D01*
X79773576Y-40684471D01*
X79791314Y-40685033D01*
X79807738Y-40689139D01*
X79821608Y-40696687D01*
X79826164Y-40700648D01*
X79834906Y-40712995D01*
X79840119Y-40728264D01*
X79841636Y-40743407D01*
X79841449Y-40748574D01*
X79839734Y-40764197D01*
X79837497Y-40779765D01*
X79834724Y-40795247D01*
X79831402Y-40810610D01*
X79827518Y-40825825D01*
X79823060Y-40840861D01*
X79818015Y-40855685D01*
X79812369Y-40870267D01*
X79806110Y-40884576D01*
X79799225Y-40898580D01*
X79791701Y-40912249D01*
X79783525Y-40925551D01*
X79774684Y-40938456D01*
X79765165Y-40950932D01*
X79754956Y-40962948D01*
X79744043Y-40974473D01*
X79717100Y-40998825D01*
X79703746Y-41008012D01*
X79689854Y-41016419D01*
X79675480Y-41024017D01*
X79660682Y-41030778D01*
X79645517Y-41036673D01*
X79630042Y-41041676D01*
X79614312Y-41045756D01*
X79598387Y-41048888D01*
X79582321Y-41051041D01*
X79566173Y-41052190D01*
X79550000Y-41052304D01*
X79533857Y-41051357D01*
X79517802Y-41049320D01*
X79501893Y-41046165D01*
X79486185Y-41041863D01*
X79470736Y-41036388D01*
X79456336Y-41030083D01*
X79442365Y-41022892D01*
X79428946Y-41014915D01*
X79416204Y-41006255D01*
X79404264Y-40997011D01*
X79393250Y-40987284D01*
X79389132Y-40983281D01*
X79371194Y-40963365D01*
X79355146Y-40941564D01*
X79340954Y-40918109D01*
X79328585Y-40893234D01*
X79318004Y-40867172D01*
X79309177Y-40840156D01*
X79302070Y-40812419D01*
X79296648Y-40784194D01*
X79292878Y-40755715D01*
X79290725Y-40727213D01*
X79290156Y-40698922D01*
X79291135Y-40671075D01*
X79293629Y-40643905D01*
X79297605Y-40617645D01*
X79303026Y-40592528D01*
X79309860Y-40568787D01*
X79283954Y-40545472D01*
X79268608Y-40529640D01*
X79264129Y-40524741D01*
X79487067Y-40524741D01*
X79499924Y-40524708D01*
X79515544Y-40523217D01*
X79531424Y-40519346D01*
X79543790Y-40512053D01*
X79547645Y-40497693D01*
X79546899Y-40495474D01*
X79542495Y-40485888D01*
X79526781Y-40490496D01*
X79513133Y-40500774D01*
X79499860Y-40512452D01*
X79488330Y-40523487D01*
X79487067Y-40524741D01*
X79264129Y-40524741D01*
X79253642Y-40513271D01*
X79239038Y-40496420D01*
X79224776Y-40479145D01*
X79210835Y-40461502D01*
X79197196Y-40443550D01*
X79183840Y-40425343D01*
X79170746Y-40406940D01*
X79157895Y-40388398D01*
X79145267Y-40369772D01*
X79132842Y-40351121D01*
X79120602Y-40332501D01*
X79108525Y-40313969D01*
X79096592Y-40295583D01*
X79084784Y-40277397D01*
X79073081Y-40259471D01*
X79066622Y-40246159D01*
X79063272Y-40230059D01*
X79064131Y-40214490D01*
X79068575Y-40200159D01*
X79077455Y-40185948D01*
X79080593Y-40182531D01*
X79093191Y-40172836D01*
X79108438Y-40165919D01*
X79125302Y-40162242D01*
X79142752Y-40162266D01*
G37*
G36*
X78369218Y-39811559D02*
G01*
X78358420Y-39799933D01*
X78348367Y-39787658D01*
X78338914Y-39774979D01*
X78329915Y-39762140D01*
X78324919Y-39754825D01*
X78310864Y-39732148D01*
X78297612Y-39708849D01*
X78285113Y-39684988D01*
X78273314Y-39660629D01*
X78262163Y-39635834D01*
X78251608Y-39610666D01*
X78241597Y-39585188D01*
X78232079Y-39559462D01*
X78223001Y-39533551D01*
X78214311Y-39507517D01*
X78205957Y-39481424D01*
X78197887Y-39455333D01*
X78190050Y-39429307D01*
X78182393Y-39403409D01*
X78174864Y-39377702D01*
X78167412Y-39352248D01*
X78164716Y-39336439D01*
X78165781Y-39321365D01*
X78170894Y-39305788D01*
X78179371Y-39292810D01*
X78181919Y-39290074D01*
X78194196Y-39280920D01*
X78209353Y-39274571D01*
X78226211Y-39271364D01*
X78243589Y-39271638D01*
X78260309Y-39275731D01*
X78275188Y-39283980D01*
X78280361Y-39288519D01*
X78289381Y-39300431D01*
X78295474Y-39314194D01*
X78296941Y-39319088D01*
X78305175Y-39347062D01*
X78309453Y-39361329D01*
X78313836Y-39375746D01*
X78318322Y-39390282D01*
X78322909Y-39404910D01*
X78327596Y-39419601D01*
X78332379Y-39434325D01*
X78337258Y-39449054D01*
X78342230Y-39463759D01*
X78347294Y-39478412D01*
X78352447Y-39492983D01*
X78357687Y-39507444D01*
X78363013Y-39521766D01*
X78368423Y-39535920D01*
X78373914Y-39549877D01*
X78379484Y-39563609D01*
X78390857Y-39590282D01*
X78402526Y-39615707D01*
X78414474Y-39639655D01*
X78426687Y-39661895D01*
X78439148Y-39682197D01*
X78451842Y-39700331D01*
X78464755Y-39716065D01*
X78471287Y-39722961D01*
X78475173Y-39725810D01*
X78493692Y-39722913D01*
X78511467Y-39719079D01*
X78528656Y-39714603D01*
X78545415Y-39709777D01*
X78561903Y-39704894D01*
X78578277Y-39700248D01*
X78594694Y-39696133D01*
X78611313Y-39692841D01*
X78628290Y-39690666D01*
X78645783Y-39689901D01*
X78657810Y-39690319D01*
X78674103Y-39692681D01*
X78689903Y-39696095D01*
X78705209Y-39700523D01*
X78720019Y-39705925D01*
X78734332Y-39712261D01*
X78748147Y-39719491D01*
X78761462Y-39727576D01*
X78774277Y-39736476D01*
X78786589Y-39746152D01*
X78798399Y-39756562D01*
X78805991Y-39763892D01*
X78819336Y-39778122D01*
X78831956Y-39793333D01*
X78843822Y-39809400D01*
X78854908Y-39826197D01*
X78865184Y-39843598D01*
X78874622Y-39861478D01*
X78883195Y-39879712D01*
X78890873Y-39898173D01*
X78897630Y-39916738D01*
X78903436Y-39935279D01*
X78906765Y-39947565D01*
X78910367Y-39962546D01*
X78913736Y-39977643D01*
X78916937Y-39992816D01*
X78920034Y-40008030D01*
X78923091Y-40023247D01*
X78926173Y-40038430D01*
X78929345Y-40053542D01*
X78932671Y-40068545D01*
X78936215Y-40083402D01*
X78940043Y-40098077D01*
X78944218Y-40112531D01*
X78948805Y-40126728D01*
X78953869Y-40140630D01*
X78959474Y-40154201D01*
X78969038Y-40173854D01*
X78972566Y-40180199D01*
X78981163Y-40192950D01*
X78989812Y-40205086D01*
X78997435Y-40213877D01*
X79008694Y-40223652D01*
X79023702Y-40221239D01*
X79034999Y-40213100D01*
X79046018Y-40199958D01*
X79054901Y-40185472D01*
X79062552Y-40169889D01*
X79069871Y-40153461D01*
X79076092Y-40139875D01*
X79083139Y-40126035D01*
X79091474Y-40112067D01*
X79104807Y-40102433D01*
X79119892Y-40097458D01*
X79135786Y-40096604D01*
X79151546Y-40099329D01*
X79166228Y-40105095D01*
X79178892Y-40113362D01*
X79183181Y-40117248D01*
X79192537Y-40128719D01*
X79199674Y-40142348D01*
X79203792Y-40157562D01*
X79204091Y-40173788D01*
X79199773Y-40190450D01*
X79197170Y-40196002D01*
X79189772Y-40211175D01*
X79182092Y-40226461D01*
X79174041Y-40241681D01*
X79165532Y-40256654D01*
X79156477Y-40271202D01*
X79146787Y-40285146D01*
X79136374Y-40298307D01*
X79125151Y-40310506D01*
X79113434Y-40321053D01*
X79100897Y-40330157D01*
X79087654Y-40337822D01*
X79073821Y-40344050D01*
X79059514Y-40348843D01*
X79044846Y-40352205D01*
X79029933Y-40354137D01*
X79014890Y-40354643D01*
X78999831Y-40353725D01*
X78984873Y-40351386D01*
X78970129Y-40347628D01*
X78955715Y-40342455D01*
X78941746Y-40335868D01*
X78928336Y-40327871D01*
X78915601Y-40318466D01*
X78903656Y-40307656D01*
X78890142Y-40292989D01*
X78877817Y-40277325D01*
X78866600Y-40260767D01*
X78856410Y-40243418D01*
X78847168Y-40225379D01*
X78838792Y-40206754D01*
X78831203Y-40187644D01*
X78824320Y-40168153D01*
X78818061Y-40148382D01*
X78812348Y-40128435D01*
X78807099Y-40108413D01*
X78802235Y-40088420D01*
X78797674Y-40068556D01*
X78793336Y-40048926D01*
X78789140Y-40029632D01*
X78785007Y-40010775D01*
X78781076Y-39995404D01*
X78776807Y-39979964D01*
X78772122Y-39964564D01*
X78766943Y-39949313D01*
X78761192Y-39934320D01*
X78754790Y-39919693D01*
X78747661Y-39905543D01*
X78739725Y-39891976D01*
X78730904Y-39879103D01*
X78721121Y-39867032D01*
X78714025Y-39859485D01*
X78695373Y-39843941D01*
X78682055Y-39835742D01*
X78661507Y-39828747D01*
X78640283Y-39827037D01*
X78618396Y-39829399D01*
X78603443Y-39832635D01*
X78588205Y-39836782D01*
X78572686Y-39841478D01*
X78556890Y-39846365D01*
X78540820Y-39851083D01*
X78524480Y-39855272D01*
X78507874Y-39858572D01*
X78491006Y-39860624D01*
X78473879Y-39861067D01*
X78456498Y-39859543D01*
X78447713Y-39857930D01*
X78431079Y-39852533D01*
X78415295Y-39845467D01*
X78400392Y-39836863D01*
X78386401Y-39826855D01*
X78373353Y-39815577D01*
X78369218Y-39811559D01*
G37*
G36*
X77607526Y-38601578D02*
G01*
X77621625Y-38609634D01*
X77626756Y-38614190D01*
X77637896Y-38632065D01*
X77645728Y-38648605D01*
X77653487Y-38665192D01*
X77661171Y-38681822D01*
X77668781Y-38698490D01*
X77676316Y-38715192D01*
X77683774Y-38731923D01*
X77691155Y-38748679D01*
X77698459Y-38765456D01*
X77705684Y-38782248D01*
X77712831Y-38799052D01*
X77719898Y-38815863D01*
X77726885Y-38832676D01*
X77733792Y-38849488D01*
X77740616Y-38866293D01*
X77747359Y-38883087D01*
X77754019Y-38899867D01*
X77760595Y-38916626D01*
X77767087Y-38933361D01*
X77773494Y-38950068D01*
X77779816Y-38966741D01*
X77786052Y-38983377D01*
X77792201Y-38999971D01*
X77798262Y-39016518D01*
X77804236Y-39033015D01*
X77810120Y-39049456D01*
X77815915Y-39065837D01*
X77821620Y-39082154D01*
X77827234Y-39098402D01*
X77832757Y-39114576D01*
X77838187Y-39130674D01*
X77843525Y-39146688D01*
X77848769Y-39162617D01*
X77945398Y-39081531D01*
X77960578Y-39072364D01*
X77976324Y-39067222D01*
X77992024Y-39065769D01*
X78007069Y-39067665D01*
X78023397Y-39073887D01*
X78036846Y-39083863D01*
X78046153Y-39095547D01*
X78052830Y-39109246D01*
X78056487Y-39124406D01*
X78056737Y-39140475D01*
X78053188Y-39156900D01*
X78051094Y-39162358D01*
X78047239Y-39178489D01*
X78048651Y-39193125D01*
X78053723Y-39207815D01*
X78061802Y-39221905D01*
X78072230Y-39234737D01*
X78074150Y-39236708D01*
X78081145Y-39243702D01*
X78094956Y-39252696D01*
X78109510Y-39257975D01*
X78124564Y-39259770D01*
X78139876Y-39258312D01*
X78155202Y-39253833D01*
X78170299Y-39246562D01*
X78176220Y-39242925D01*
X78199017Y-39225827D01*
X78212423Y-39209678D01*
X78222167Y-39192041D01*
X78228441Y-39173234D01*
X78231435Y-39153573D01*
X78231340Y-39133373D01*
X78228346Y-39112952D01*
X78222645Y-39092626D01*
X78214427Y-39072711D01*
X78203883Y-39053524D01*
X78195656Y-39041292D01*
X78186536Y-39029619D01*
X78181660Y-39024020D01*
X78172962Y-39012073D01*
X78166334Y-38996170D01*
X78163987Y-38979873D01*
X78165450Y-38963910D01*
X78170257Y-38949011D01*
X78177938Y-38935905D01*
X78183732Y-38929205D01*
X78195317Y-38920113D01*
X78209137Y-38913574D01*
X78224393Y-38910093D01*
X78240282Y-38910173D01*
X78256006Y-38914318D01*
X78270763Y-38923032D01*
X78276216Y-38927910D01*
X78277511Y-38929205D01*
X78295702Y-38950407D01*
X78311776Y-38973065D01*
X78325693Y-38996960D01*
X78337415Y-39021871D01*
X78346900Y-39047579D01*
X78354110Y-39073864D01*
X78359005Y-39100507D01*
X78361544Y-39127288D01*
X78361687Y-39153986D01*
X78359396Y-39180383D01*
X78354629Y-39206259D01*
X78347348Y-39231393D01*
X78337512Y-39255566D01*
X78325082Y-39278559D01*
X78310017Y-39300152D01*
X78292278Y-39320124D01*
X78279467Y-39331955D01*
X78267761Y-39341356D01*
X78255200Y-39350272D01*
X78241861Y-39358639D01*
X78227821Y-39366389D01*
X78213157Y-39373459D01*
X78210156Y-39374786D01*
X78193484Y-39380774D01*
X78176914Y-39385364D01*
X78160488Y-39388603D01*
X78144246Y-39390536D01*
X78128230Y-39391211D01*
X78112482Y-39390674D01*
X78097043Y-39388972D01*
X78081955Y-39386152D01*
X78067257Y-39382260D01*
X78052993Y-39377344D01*
X78039203Y-39371448D01*
X78025929Y-39364622D01*
X78013212Y-39356910D01*
X78001093Y-39348360D01*
X77989614Y-39339019D01*
X77978817Y-39328932D01*
X77967164Y-39316361D01*
X77956635Y-39303336D01*
X77947589Y-39290604D01*
X77939386Y-39277119D01*
X77934259Y-39266240D01*
X77893587Y-39301213D01*
X77919492Y-39387221D01*
X77925333Y-39406758D01*
X77931099Y-39426316D01*
X77936787Y-39445896D01*
X77942396Y-39465498D01*
X77947923Y-39485121D01*
X77953367Y-39504766D01*
X77958724Y-39524433D01*
X77963994Y-39544121D01*
X77969173Y-39563832D01*
X77974260Y-39583564D01*
X77979252Y-39603319D01*
X77984147Y-39623097D01*
X77988943Y-39642896D01*
X77993638Y-39662718D01*
X77998229Y-39682563D01*
X78002715Y-39702430D01*
X78007093Y-39722320D01*
X78011361Y-39742233D01*
X78015517Y-39762169D01*
X78019559Y-39782128D01*
X78023484Y-39802110D01*
X78027291Y-39822116D01*
X78030976Y-39842144D01*
X78034539Y-39862197D01*
X78037976Y-39882272D01*
X78041286Y-39902372D01*
X78044466Y-39922495D01*
X78047515Y-39942641D01*
X78050430Y-39962812D01*
X78053208Y-39983007D01*
X78055848Y-40003226D01*
X78058348Y-40023469D01*
X78060218Y-40040539D01*
X78061986Y-40057695D01*
X78063641Y-40074930D01*
X78065171Y-40092237D01*
X78066568Y-40109609D01*
X78067821Y-40127040D01*
X78068919Y-40144522D01*
X78069852Y-40162049D01*
X78070609Y-40179614D01*
X78071181Y-40197210D01*
X78071557Y-40214830D01*
X78071727Y-40232468D01*
X78071680Y-40250117D01*
X78071406Y-40267769D01*
X78070894Y-40285418D01*
X78070135Y-40303058D01*
X78069118Y-40320680D01*
X78067832Y-40338280D01*
X78066268Y-40355848D01*
X78064414Y-40373380D01*
X78062262Y-40390868D01*
X78059799Y-40408304D01*
X78057016Y-40425683D01*
X78053903Y-40442998D01*
X78050449Y-40460241D01*
X78046645Y-40477406D01*
X78042478Y-40494486D01*
X78037940Y-40511475D01*
X78033020Y-40528364D01*
X78027707Y-40545148D01*
X78021991Y-40561820D01*
X78015862Y-40578372D01*
X78009769Y-40593782D01*
X78003339Y-40609103D01*
X77996570Y-40624314D01*
X77989458Y-40639393D01*
X77982003Y-40654319D01*
X77974200Y-40669070D01*
X77966047Y-40683624D01*
X77957542Y-40697960D01*
X77948681Y-40712057D01*
X77939463Y-40725892D01*
X77929884Y-40739443D01*
X77919942Y-40752691D01*
X77909634Y-40765611D01*
X77898957Y-40778184D01*
X77887910Y-40790387D01*
X77876489Y-40802199D01*
X77862700Y-40815535D01*
X77848510Y-40828299D01*
X77833884Y-40840432D01*
X77818783Y-40851874D01*
X77803173Y-40862562D01*
X77787016Y-40872436D01*
X77770277Y-40881437D01*
X77752918Y-40889502D01*
X77732285Y-40898548D01*
X77711315Y-40906365D01*
X77690055Y-40912969D01*
X77668550Y-40918375D01*
X77646846Y-40922598D01*
X77624989Y-40925654D01*
X77603025Y-40927559D01*
X77581000Y-40928328D01*
X77558960Y-40927977D01*
X77536950Y-40926521D01*
X77515018Y-40923977D01*
X77493207Y-40920358D01*
X77471566Y-40915682D01*
X77450138Y-40909963D01*
X77428971Y-40903217D01*
X77408111Y-40895460D01*
X77392663Y-40889315D01*
X77377413Y-40882740D01*
X77362371Y-40875749D01*
X77347548Y-40868356D01*
X77332951Y-40860575D01*
X77318593Y-40852418D01*
X77304481Y-40843900D01*
X77290627Y-40835035D01*
X77277041Y-40825835D01*
X77263731Y-40816316D01*
X77250708Y-40806489D01*
X77237982Y-40796370D01*
X77225562Y-40785972D01*
X77213459Y-40775308D01*
X77201683Y-40764391D01*
X77190242Y-40753237D01*
X77178679Y-40741381D01*
X77167406Y-40729230D01*
X77156427Y-40716796D01*
X77145746Y-40704087D01*
X77135367Y-40691113D01*
X77125295Y-40677884D01*
X77115534Y-40664409D01*
X77106089Y-40650698D01*
X77096963Y-40636762D01*
X77088160Y-40622608D01*
X77079686Y-40608248D01*
X77071544Y-40593691D01*
X77063738Y-40578947D01*
X77056274Y-40564024D01*
X77049155Y-40548934D01*
X77042385Y-40533685D01*
X77035968Y-40518287D01*
X77029910Y-40502750D01*
X77024214Y-40487084D01*
X77018884Y-40471298D01*
X77013925Y-40455402D01*
X77009341Y-40439406D01*
X77005137Y-40423319D01*
X77001316Y-40407151D01*
X76997882Y-40390911D01*
X76994841Y-40374610D01*
X76992197Y-40358257D01*
X76989952Y-40341862D01*
X76988113Y-40325434D01*
X76986683Y-40308983D01*
X76985667Y-40292519D01*
X76985068Y-40276051D01*
X76984952Y-40260805D01*
X76984975Y-40259292D01*
X77119035Y-40259292D01*
X77119308Y-40276075D01*
X77120085Y-40292806D01*
X77121361Y-40309474D01*
X77123128Y-40326066D01*
X77125380Y-40342570D01*
X77128110Y-40358976D01*
X77131311Y-40375270D01*
X77134977Y-40391441D01*
X77139101Y-40407477D01*
X77143676Y-40423366D01*
X77148696Y-40439096D01*
X77154153Y-40454655D01*
X77160042Y-40470032D01*
X77166356Y-40485214D01*
X77173087Y-40500190D01*
X77180230Y-40514947D01*
X77187777Y-40529474D01*
X77195721Y-40543759D01*
X77204057Y-40557789D01*
X77212778Y-40571554D01*
X77221876Y-40585041D01*
X77231345Y-40598238D01*
X77241178Y-40611133D01*
X77251369Y-40623714D01*
X77261911Y-40635970D01*
X77272798Y-40647889D01*
X77284021Y-40659458D01*
X77296740Y-40671785D01*
X77309656Y-40683514D01*
X77322797Y-40694654D01*
X77336189Y-40705214D01*
X77349861Y-40715203D01*
X77363840Y-40724631D01*
X77378152Y-40733507D01*
X77392826Y-40741838D01*
X77408272Y-40750350D01*
X77423900Y-40758191D01*
X77439690Y-40765340D01*
X77455624Y-40771776D01*
X77471682Y-40777477D01*
X77487845Y-40782422D01*
X77504095Y-40786589D01*
X77520413Y-40789959D01*
X77536779Y-40792508D01*
X77553174Y-40794217D01*
X77569581Y-40795063D01*
X77585979Y-40795026D01*
X77602349Y-40794085D01*
X77618674Y-40792217D01*
X77634933Y-40789402D01*
X77651108Y-40785619D01*
X77667056Y-40780843D01*
X77682616Y-40775095D01*
X77697738Y-40768424D01*
X77712375Y-40760879D01*
X77726477Y-40752508D01*
X77739997Y-40743360D01*
X77752885Y-40733484D01*
X77765093Y-40722927D01*
X77784005Y-40704016D01*
X77797206Y-40690295D01*
X77809469Y-40676438D01*
X77820877Y-40662308D01*
X77831510Y-40647768D01*
X77841450Y-40632681D01*
X77850781Y-40616911D01*
X77859584Y-40600322D01*
X77867940Y-40582776D01*
X77874472Y-40568851D01*
X77880620Y-40554813D01*
X77886393Y-40540667D01*
X77891800Y-40526416D01*
X77896849Y-40512067D01*
X77901550Y-40497622D01*
X77905912Y-40483085D01*
X77909944Y-40468463D01*
X77913654Y-40453758D01*
X77917051Y-40438974D01*
X77920145Y-40424118D01*
X77922945Y-40409191D01*
X77925459Y-40394200D01*
X77927696Y-40379148D01*
X77929666Y-40364039D01*
X77931377Y-40348879D01*
X77932838Y-40333670D01*
X77934059Y-40318418D01*
X77935048Y-40303127D01*
X77935814Y-40287801D01*
X77936366Y-40272445D01*
X77936713Y-40257062D01*
X77936865Y-40241657D01*
X77936829Y-40226235D01*
X77936616Y-40210799D01*
X77936233Y-40195355D01*
X77935691Y-40179905D01*
X77934997Y-40164456D01*
X77934161Y-40149010D01*
X77933192Y-40133573D01*
X77932099Y-40118148D01*
X77930891Y-40102741D01*
X77929393Y-40084190D01*
X77927721Y-40065649D01*
X77925878Y-40047118D01*
X77923868Y-40028597D01*
X77921695Y-40010086D01*
X77919364Y-39991586D01*
X77916878Y-39973097D01*
X77914242Y-39954620D01*
X77911461Y-39936154D01*
X77908537Y-39917701D01*
X77905475Y-39899259D01*
X77902280Y-39880831D01*
X77898955Y-39862416D01*
X77895504Y-39844014D01*
X77891932Y-39825626D01*
X77888243Y-39807252D01*
X77884441Y-39788892D01*
X77880530Y-39770547D01*
X77876514Y-39752218D01*
X77872398Y-39733903D01*
X77868185Y-39715605D01*
X77863879Y-39697322D01*
X77859485Y-39679056D01*
X77855007Y-39660807D01*
X77850449Y-39642575D01*
X77845815Y-39624360D01*
X77841109Y-39606163D01*
X77836335Y-39587984D01*
X77831498Y-39569823D01*
X77826601Y-39551681D01*
X77821649Y-39533558D01*
X77816646Y-39515455D01*
X77811774Y-39498369D01*
X77806907Y-39481453D01*
X77802101Y-39464926D01*
X77797411Y-39449006D01*
X77792891Y-39433912D01*
X77788595Y-39419862D01*
X77783624Y-39404101D01*
X77780896Y-39395770D01*
X77648776Y-39506647D01*
X77630834Y-39521676D01*
X77612865Y-39536575D01*
X77594884Y-39551373D01*
X77576908Y-39566105D01*
X77558951Y-39580801D01*
X77541029Y-39595495D01*
X77523159Y-39610219D01*
X77505355Y-39625004D01*
X77487633Y-39639884D01*
X77470008Y-39654889D01*
X77452496Y-39670054D01*
X77435113Y-39685409D01*
X77417875Y-39700988D01*
X77400796Y-39716822D01*
X77383892Y-39732943D01*
X77367179Y-39749385D01*
X77338942Y-39777622D01*
X77319146Y-39798584D01*
X77300008Y-39820082D01*
X77281570Y-39842112D01*
X77263876Y-39864670D01*
X77246969Y-39887751D01*
X77230895Y-39911352D01*
X77215695Y-39935469D01*
X77201414Y-39960096D01*
X77188096Y-39985231D01*
X77175783Y-40010868D01*
X77164520Y-40037004D01*
X77154350Y-40063635D01*
X77145318Y-40090756D01*
X77137466Y-40118363D01*
X77130838Y-40146451D01*
X77125478Y-40175018D01*
X77123126Y-40191881D01*
X77121313Y-40208752D01*
X77120031Y-40225618D01*
X77119274Y-40242469D01*
X77119035Y-40259292D01*
X76984975Y-40259292D01*
X76985186Y-40245575D01*
X76985763Y-40230365D01*
X76986678Y-40215181D01*
X76987928Y-40200027D01*
X76989506Y-40184909D01*
X76991408Y-40169831D01*
X76993629Y-40154799D01*
X76996164Y-40139818D01*
X76999007Y-40124892D01*
X77002154Y-40110026D01*
X77005601Y-40095225D01*
X77009341Y-40080496D01*
X77013370Y-40065841D01*
X77017683Y-40051267D01*
X77022275Y-40036778D01*
X77027141Y-40022379D01*
X77032276Y-40008076D01*
X77037675Y-39993873D01*
X77043333Y-39979775D01*
X77049245Y-39965788D01*
X77055407Y-39951916D01*
X77061812Y-39938164D01*
X77068456Y-39924537D01*
X77075335Y-39911040D01*
X77082443Y-39897678D01*
X77089775Y-39884457D01*
X77097326Y-39871381D01*
X77105091Y-39858454D01*
X77113066Y-39845683D01*
X77121244Y-39833072D01*
X77129623Y-39820626D01*
X77141189Y-39804268D01*
X77153140Y-39788127D01*
X77165450Y-39772199D01*
X77178093Y-39756481D01*
X77191043Y-39740973D01*
X77204275Y-39725670D01*
X77217763Y-39710570D01*
X77231481Y-39695670D01*
X77245405Y-39680969D01*
X77259507Y-39666464D01*
X77268996Y-39656901D01*
X77280691Y-39645226D01*
X77292503Y-39633558D01*
X77304492Y-39621959D01*
X77316720Y-39610489D01*
X77329248Y-39599210D01*
X77333502Y-39595504D01*
X77735561Y-39258728D01*
X77737374Y-39256914D01*
X77731731Y-39240016D01*
X77726024Y-39223083D01*
X77720252Y-39206116D01*
X77714418Y-39189119D01*
X77708520Y-39172094D01*
X77702560Y-39155042D01*
X77696539Y-39137968D01*
X77690456Y-39120872D01*
X77684313Y-39103758D01*
X77678111Y-39086627D01*
X77671849Y-39069483D01*
X77665529Y-39052327D01*
X77659151Y-39035163D01*
X77652716Y-39017992D01*
X77646224Y-39000816D01*
X77639677Y-38983640D01*
X77633073Y-38966464D01*
X77626415Y-38949291D01*
X77619703Y-38932124D01*
X77612937Y-38914964D01*
X77606119Y-38897816D01*
X77599248Y-38880680D01*
X77592325Y-38863559D01*
X77585351Y-38846456D01*
X77578327Y-38829373D01*
X77571253Y-38812313D01*
X77564129Y-38795277D01*
X77556958Y-38778269D01*
X77549738Y-38761291D01*
X77542470Y-38744345D01*
X77535156Y-38727434D01*
X77527796Y-38710559D01*
X77522096Y-38696052D01*
X77516737Y-38680091D01*
X77515721Y-38663884D01*
X77518476Y-38648169D01*
X77524428Y-38633684D01*
X77533003Y-38621165D01*
X77536345Y-38617557D01*
X77547906Y-38608442D01*
X77561634Y-38601811D01*
X77576701Y-38598141D01*
X77592275Y-38597905D01*
X77607526Y-38601578D01*
G37*
G36*
X77994257Y-43041865D02*
G01*
X77981270Y-43028331D01*
X77968834Y-43014304D01*
X77956951Y-42999864D01*
X77945627Y-42985093D01*
X77934865Y-42970071D01*
X77924668Y-42954878D01*
X77915041Y-42939596D01*
X77905987Y-42924305D01*
X77897510Y-42909085D01*
X77889614Y-42894018D01*
X77884675Y-42884098D01*
X77874313Y-42861472D01*
X77864488Y-42838585D01*
X77855177Y-42815455D01*
X77846359Y-42792100D01*
X77838011Y-42768539D01*
X77830112Y-42744789D01*
X77822639Y-42720870D01*
X77815571Y-42696799D01*
X77808886Y-42672594D01*
X77802560Y-42648274D01*
X77796574Y-42623856D01*
X77790904Y-42599360D01*
X77785528Y-42574803D01*
X77780425Y-42550204D01*
X77775572Y-42525580D01*
X77770948Y-42500950D01*
X77770503Y-42485361D01*
X77773817Y-42469133D01*
X77780394Y-42454947D01*
X77789385Y-42443170D01*
X77790637Y-42441885D01*
X77803318Y-42432067D01*
X77818498Y-42424940D01*
X77835032Y-42420842D01*
X77851776Y-42420110D01*
X77867586Y-42423083D01*
X77881316Y-42430099D01*
X77885970Y-42434113D01*
X77895160Y-42446921D01*
X77900687Y-42461357D01*
X77902550Y-42468309D01*
X77906242Y-42488050D01*
X77910043Y-42507734D01*
X77913971Y-42527358D01*
X77918045Y-42546917D01*
X77922283Y-42566410D01*
X77926703Y-42585832D01*
X77931324Y-42605182D01*
X77936163Y-42624456D01*
X77941239Y-42643652D01*
X77946570Y-42662765D01*
X77952174Y-42681793D01*
X77958070Y-42700733D01*
X77964275Y-42719582D01*
X77970808Y-42738337D01*
X77977687Y-42756995D01*
X77984931Y-42775552D01*
X77991544Y-42792082D01*
X77998166Y-42807688D01*
X78004788Y-42822403D01*
X78011399Y-42836257D01*
X78021276Y-42855491D01*
X78031077Y-42872960D01*
X78040769Y-42888768D01*
X78050320Y-42903020D01*
X78059699Y-42915818D01*
X78068874Y-42927267D01*
X78080733Y-42940612D01*
X78086482Y-42946531D01*
X78099626Y-42958520D01*
X78111630Y-42967594D01*
X78125865Y-42976281D01*
X78139280Y-42982870D01*
X78142179Y-42984613D01*
X78157404Y-42987926D01*
X78173481Y-42988196D01*
X78189592Y-42984164D01*
X78203245Y-42975967D01*
X78207721Y-42971919D01*
X78216978Y-42958311D01*
X78222375Y-42944382D01*
X78226859Y-42929207D01*
X78231552Y-42913823D01*
X78237575Y-42899268D01*
X78246047Y-42886579D01*
X78248134Y-42884357D01*
X78261333Y-42875008D01*
X78276870Y-42870023D01*
X78293631Y-42869022D01*
X78310501Y-42871627D01*
X78326365Y-42877457D01*
X78340109Y-42886133D01*
X78344763Y-42890315D01*
X78354751Y-42903353D01*
X78360895Y-42918169D01*
X78363533Y-42934383D01*
X78363001Y-42951614D01*
X78359636Y-42969482D01*
X78353775Y-42987606D01*
X78345754Y-43005607D01*
X78335911Y-43023103D01*
X78324582Y-43039715D01*
X78312104Y-43055062D01*
X78303314Y-43064403D01*
X78289317Y-43077182D01*
X78274206Y-43088629D01*
X78258081Y-43098624D01*
X78241043Y-43107050D01*
X78223190Y-43113788D01*
X78204625Y-43118720D01*
X78185446Y-43121727D01*
X78170719Y-43122648D01*
X78165754Y-43122691D01*
X78146746Y-43121723D01*
X78128342Y-43119043D01*
X78110540Y-43114771D01*
X78093344Y-43109025D01*
X78076754Y-43101925D01*
X78060772Y-43093591D01*
X78045398Y-43084140D01*
X78030634Y-43073692D01*
X78016482Y-43062367D01*
X78002942Y-43050283D01*
X77994257Y-43041865D01*
G37*
G36*
X78320153Y-42777107D02*
G01*
X78310971Y-42762152D01*
X78305078Y-42748177D01*
X78300685Y-42733010D01*
X78297982Y-42717200D01*
X78297160Y-42701296D01*
X78298411Y-42685849D01*
X78301926Y-42671407D01*
X78306163Y-42661567D01*
X78311870Y-42647411D01*
X78319375Y-42637992D01*
X78331098Y-42629119D01*
X78343209Y-42624521D01*
X78358470Y-42619576D01*
X78375133Y-42619705D01*
X78389508Y-42623471D01*
X78403070Y-42630277D01*
X78414968Y-42639806D01*
X78424237Y-42654675D01*
X78430161Y-42668628D01*
X78434564Y-42683809D01*
X78437268Y-42699661D01*
X78438094Y-42715629D01*
X78436862Y-42731158D01*
X78433393Y-42745692D01*
X78429216Y-42755605D01*
X78423434Y-42769684D01*
X78416004Y-42779179D01*
X78403489Y-42788129D01*
X78392430Y-42792391D01*
X78377757Y-42796743D01*
X78361024Y-42796646D01*
X78346300Y-42793145D01*
X78332328Y-42786598D01*
X78320153Y-42777107D01*
G37*
G36*
X77082629Y-42088788D02*
G01*
X77071831Y-42077162D01*
X77061778Y-42064887D01*
X77052325Y-42052208D01*
X77043326Y-42039369D01*
X77038330Y-42032054D01*
X77024275Y-42009378D01*
X77011023Y-41986078D01*
X76998524Y-41962217D01*
X76986725Y-41937858D01*
X76975574Y-41913063D01*
X76965019Y-41887895D01*
X76955009Y-41862417D01*
X76945490Y-41836691D01*
X76936412Y-41810780D01*
X76927722Y-41784747D01*
X76919368Y-41758653D01*
X76911299Y-41732562D01*
X76903461Y-41706536D01*
X76895804Y-41680638D01*
X76888275Y-41654931D01*
X76880823Y-41629477D01*
X76878127Y-41613668D01*
X76879193Y-41598594D01*
X76884305Y-41583017D01*
X76892782Y-41570039D01*
X76895330Y-41567303D01*
X76907607Y-41558149D01*
X76922764Y-41551800D01*
X76939622Y-41548594D01*
X76957001Y-41548868D01*
X76973720Y-41552960D01*
X76988600Y-41561209D01*
X76993772Y-41565748D01*
X77002792Y-41577660D01*
X77008885Y-41591423D01*
X77010352Y-41596317D01*
X77018586Y-41624291D01*
X77022864Y-41638558D01*
X77027247Y-41652975D01*
X77031733Y-41667511D01*
X77036320Y-41682139D01*
X77041007Y-41696830D01*
X77045790Y-41711554D01*
X77050669Y-41726283D01*
X77055641Y-41740988D01*
X77060705Y-41755641D01*
X77065858Y-41770212D01*
X77071098Y-41784673D01*
X77076424Y-41798995D01*
X77081834Y-41813149D01*
X77087325Y-41827106D01*
X77092896Y-41840838D01*
X77104269Y-41867511D01*
X77115937Y-41892936D01*
X77127885Y-41916884D01*
X77140098Y-41939124D01*
X77152559Y-41959426D01*
X77165254Y-41977560D01*
X77178166Y-41993294D01*
X77184698Y-42000190D01*
X77188584Y-42003039D01*
X77207103Y-42000142D01*
X77224878Y-41996308D01*
X77242067Y-41991832D01*
X77258826Y-41987006D01*
X77275314Y-41982123D01*
X77291688Y-41977477D01*
X77308105Y-41973362D01*
X77324724Y-41970070D01*
X77341701Y-41967895D01*
X77359194Y-41967130D01*
X77371221Y-41967548D01*
X77387514Y-41969910D01*
X77403314Y-41973324D01*
X77418620Y-41977752D01*
X77433430Y-41983154D01*
X77447743Y-41989490D01*
X77461558Y-41996720D01*
X77474873Y-42004805D01*
X77487688Y-42013705D01*
X77500000Y-42023381D01*
X77511810Y-42033792D01*
X77519402Y-42041121D01*
X77532747Y-42055351D01*
X77545367Y-42070562D01*
X77557233Y-42086629D01*
X77568319Y-42103426D01*
X77578595Y-42120827D01*
X77588033Y-42138707D01*
X77596606Y-42156941D01*
X77604284Y-42175403D01*
X77611041Y-42193967D01*
X77616847Y-42212508D01*
X77620176Y-42224794D01*
X77623778Y-42239775D01*
X77627147Y-42254872D01*
X77630348Y-42270046D01*
X77633445Y-42285260D01*
X77636502Y-42300477D01*
X77639584Y-42315660D01*
X77642756Y-42330771D01*
X77646082Y-42345774D01*
X77649626Y-42360631D01*
X77653454Y-42375306D01*
X77657629Y-42389760D01*
X77662216Y-42403957D01*
X77667280Y-42417860D01*
X77672885Y-42431430D01*
X77682449Y-42451083D01*
X77685977Y-42457428D01*
X77694575Y-42470179D01*
X77703224Y-42482315D01*
X77710847Y-42491106D01*
X77722105Y-42500881D01*
X77737113Y-42498468D01*
X77748410Y-42490329D01*
X77759429Y-42477187D01*
X77768313Y-42462701D01*
X77775963Y-42447119D01*
X77783282Y-42430690D01*
X77789503Y-42417104D01*
X77796551Y-42403264D01*
X77804885Y-42389296D01*
X77818218Y-42379662D01*
X77833303Y-42374688D01*
X77849197Y-42373833D01*
X77864957Y-42376558D01*
X77879640Y-42382324D01*
X77892303Y-42390591D01*
X77896592Y-42394477D01*
X77905949Y-42405948D01*
X77913085Y-42419577D01*
X77917203Y-42434792D01*
X77917503Y-42451017D01*
X77913184Y-42467679D01*
X77910581Y-42473231D01*
X77903183Y-42488405D01*
X77895503Y-42503691D01*
X77887452Y-42518910D01*
X77878943Y-42533883D01*
X77869888Y-42548431D01*
X77860198Y-42562375D01*
X77849786Y-42575536D01*
X77838563Y-42587735D01*
X77826845Y-42598282D01*
X77814308Y-42607386D01*
X77801065Y-42615051D01*
X77787233Y-42621279D01*
X77772925Y-42626072D01*
X77758257Y-42629434D01*
X77743344Y-42631366D01*
X77728301Y-42631872D01*
X77713242Y-42630954D01*
X77698284Y-42628615D01*
X77683540Y-42624857D01*
X77669126Y-42619684D01*
X77655157Y-42613098D01*
X77641747Y-42605100D01*
X77629012Y-42595695D01*
X77617067Y-42584885D01*
X77603554Y-42570218D01*
X77591228Y-42554554D01*
X77580011Y-42537996D01*
X77569822Y-42520647D01*
X77560579Y-42502608D01*
X77552204Y-42483983D01*
X77544614Y-42464873D01*
X77537731Y-42445382D01*
X77531473Y-42425612D01*
X77525759Y-42405664D01*
X77520511Y-42385642D01*
X77515646Y-42365649D01*
X77511085Y-42345786D01*
X77506747Y-42326155D01*
X77502552Y-42306861D01*
X77498419Y-42288004D01*
X77494487Y-42272633D01*
X77490218Y-42257193D01*
X77485533Y-42241793D01*
X77480354Y-42226542D01*
X77474603Y-42211549D01*
X77468201Y-42196922D01*
X77461072Y-42182772D01*
X77453136Y-42169205D01*
X77444315Y-42156332D01*
X77434532Y-42144262D01*
X77427436Y-42136714D01*
X77408784Y-42121170D01*
X77395467Y-42112971D01*
X77374918Y-42105976D01*
X77353694Y-42104267D01*
X77331807Y-42106628D01*
X77316854Y-42109864D01*
X77301616Y-42114011D01*
X77286097Y-42118707D01*
X77270301Y-42123595D01*
X77254231Y-42128313D01*
X77237891Y-42132501D01*
X77221285Y-42135802D01*
X77204417Y-42137853D01*
X77187290Y-42138297D01*
X77169909Y-42136772D01*
X77161124Y-42135159D01*
X77144490Y-42129763D01*
X77128706Y-42122696D01*
X77113803Y-42114092D01*
X77099812Y-42104084D01*
X77086764Y-42092807D01*
X77082629Y-42088788D01*
G37*
G36*
X76576170Y-41689578D02*
G01*
X76562832Y-41675666D01*
X76550053Y-41661195D01*
X76537882Y-41646263D01*
X76526366Y-41630966D01*
X76515554Y-41615403D01*
X76505495Y-41599669D01*
X76496238Y-41583862D01*
X76487831Y-41568080D01*
X76479096Y-41551653D01*
X76470751Y-41535025D01*
X76462772Y-41518215D01*
X76455137Y-41501239D01*
X76447822Y-41484116D01*
X76440804Y-41466863D01*
X76434060Y-41449499D01*
X76427567Y-41432042D01*
X76421302Y-41414508D01*
X76415241Y-41396917D01*
X76409362Y-41379285D01*
X76403641Y-41361630D01*
X76398055Y-41343972D01*
X76392581Y-41326326D01*
X76387195Y-41308712D01*
X76381876Y-41291146D01*
X76375470Y-41270193D01*
X76369122Y-41249232D01*
X76362756Y-41228301D01*
X76356298Y-41207442D01*
X76349671Y-41186693D01*
X76342800Y-41166095D01*
X76335609Y-41145688D01*
X76328024Y-41125511D01*
X76319968Y-41105604D01*
X76311366Y-41086007D01*
X76302142Y-41066760D01*
X76292221Y-41047902D01*
X76281528Y-41029475D01*
X76269986Y-41011516D01*
X76257521Y-40994067D01*
X76244056Y-40977167D01*
X76235504Y-40963297D01*
X76229721Y-40948432D01*
X76227009Y-40932981D01*
X76227671Y-40917353D01*
X76232009Y-40901958D01*
X76240325Y-40887205D01*
X76244834Y-40881575D01*
X76259021Y-40871475D01*
X76273586Y-40865921D01*
X76289457Y-40863311D01*
X76305516Y-40863964D01*
X76320651Y-40868201D01*
X76333746Y-40876341D01*
X76336022Y-40878466D01*
X76340944Y-40883388D01*
X76351487Y-40896841D01*
X76361560Y-40910481D01*
X76371185Y-40924298D01*
X76380382Y-40938286D01*
X76389169Y-40952434D01*
X76397569Y-40966736D01*
X76405600Y-40981183D01*
X76413283Y-40995767D01*
X76420637Y-41010479D01*
X76427683Y-41025312D01*
X76434441Y-41040257D01*
X76440931Y-41055306D01*
X76447174Y-41070451D01*
X76453188Y-41085684D01*
X76458994Y-41100996D01*
X76464613Y-41116379D01*
X76470063Y-41131825D01*
X76475366Y-41147326D01*
X76480542Y-41162873D01*
X76485610Y-41178459D01*
X76490590Y-41194075D01*
X76495504Y-41209713D01*
X76500369Y-41225365D01*
X76505208Y-41241022D01*
X76510039Y-41256677D01*
X76514883Y-41272321D01*
X76519760Y-41287946D01*
X76524690Y-41303543D01*
X76529693Y-41319105D01*
X76534790Y-41334623D01*
X76539999Y-41350090D01*
X76545342Y-41365496D01*
X76551216Y-41382105D01*
X76557335Y-41398559D01*
X76563712Y-41414852D01*
X76570360Y-41430979D01*
X76577291Y-41446936D01*
X76584519Y-41462717D01*
X76592056Y-41478317D01*
X76599914Y-41493730D01*
X76608107Y-41508953D01*
X76616648Y-41523979D01*
X76622541Y-41533884D01*
X76632261Y-41547973D01*
X76641608Y-41561020D01*
X76650593Y-41572913D01*
X76660632Y-41585178D01*
X76670208Y-41595540D01*
X76683565Y-41607807D01*
X76696423Y-41617545D01*
X76714726Y-41627872D01*
X76731788Y-41633694D01*
X76747541Y-41635719D01*
X76766388Y-41633741D01*
X76782619Y-41627957D01*
X76796071Y-41620050D01*
X76808728Y-41609742D01*
X76812431Y-41606162D01*
X76821498Y-41597095D01*
X76833460Y-41584074D01*
X76843681Y-41571022D01*
X76854573Y-41554537D01*
X76862601Y-41539953D01*
X76870057Y-41523491D01*
X76876532Y-41505174D01*
X76881620Y-41485026D01*
X76884913Y-41463070D01*
X76885910Y-41447439D01*
X76886004Y-41439328D01*
X76885287Y-41424260D01*
X76879607Y-41410658D01*
X76879268Y-41410313D01*
X76881082Y-41403319D01*
X76877714Y-41419639D01*
X76864303Y-41429575D01*
X76849371Y-41434903D01*
X76833714Y-41436061D01*
X76818125Y-41433488D01*
X76803400Y-41427623D01*
X76790333Y-41418905D01*
X76785748Y-41414717D01*
X76775791Y-41401996D01*
X76769368Y-41388546D01*
X76765759Y-41373266D01*
X76765784Y-41356647D01*
X76769172Y-41342130D01*
X76771500Y-41336222D01*
X76779046Y-41322830D01*
X76787998Y-41310390D01*
X76793261Y-41304617D01*
X76808003Y-41292514D01*
X76824424Y-41283639D01*
X76842125Y-41277831D01*
X76860707Y-41274931D01*
X76879772Y-41274779D01*
X76898922Y-41277214D01*
X76917759Y-41282077D01*
X76935885Y-41289207D01*
X76952900Y-41298445D01*
X76968407Y-41309629D01*
X76977711Y-41318088D01*
X76987489Y-41329602D01*
X76996263Y-41342194D01*
X76998694Y-41345808D01*
X77006052Y-41361812D01*
X77011728Y-41378533D01*
X77015900Y-41395661D01*
X77018746Y-41412890D01*
X77020445Y-41429909D01*
X77021173Y-41446412D01*
X77021232Y-41452799D01*
X77019990Y-41467974D01*
X77018115Y-41483078D01*
X77015621Y-41498087D01*
X77012518Y-41512977D01*
X77008818Y-41527727D01*
X77004534Y-41542312D01*
X76999677Y-41556710D01*
X76994258Y-41570897D01*
X76988290Y-41584851D01*
X76981784Y-41598547D01*
X76974753Y-41611964D01*
X76967207Y-41625077D01*
X76959158Y-41637864D01*
X76950619Y-41650301D01*
X76941601Y-41662366D01*
X76932116Y-41674035D01*
X76911133Y-41698127D01*
X76897618Y-41710706D01*
X76883073Y-41722419D01*
X76867588Y-41733139D01*
X76851251Y-41742736D01*
X76834152Y-41751083D01*
X76816381Y-41758053D01*
X76798028Y-41763516D01*
X76779183Y-41767345D01*
X76759934Y-41769411D01*
X76740372Y-41769587D01*
X76727201Y-41768591D01*
X76710771Y-41766149D01*
X76694726Y-41762387D01*
X76679095Y-41757407D01*
X76663908Y-41751310D01*
X76649194Y-41744196D01*
X76634982Y-41736168D01*
X76621302Y-41727326D01*
X76608184Y-41717771D01*
X76595656Y-41707605D01*
X76583749Y-41696929D01*
X76576170Y-41689578D01*
G37*
D12*
%LPC*%
D13*
X78796126Y-45704129D03*
X77840000Y-44680000D03*
X76740000Y-44110000D03*
X75567872Y-43681249D03*
M02*
