G04 #@! TF.GenerationSoftware,KiCad,Pcbnew,(7.0.0-0)*
G04 #@! TF.CreationDate,2023-05-05T14:03:55+08:00*
G04 #@! TF.ProjectId,TopPCB,546f7050-4342-42e6-9b69-6361645f7063,rev?*
G04 #@! TF.SameCoordinates,Original*
G04 #@! TF.FileFunction,Copper,L1,Top*
G04 #@! TF.FilePolarity,Positive*
%FSLAX46Y46*%
G04 Gerber Fmt 4.6, Leading zero omitted, Abs format (unit mm)*
G04 Created by KiCad (PCBNEW (7.0.0-0)) date 2023-05-05 14:03:55*
%MOMM*%
%LPD*%
G01*
G04 APERTURE LIST*
G04 Aperture macros list*
%AMRoundRect*
0 Rectangle with rounded corners*
0 $1 Rounding radius*
0 $2 $3 $4 $5 $6 $7 $8 $9 X,Y pos of 4 corners*
0 Add a 4 corners polygon primitive as box body*
4,1,4,$2,$3,$4,$5,$6,$7,$8,$9,$2,$3,0*
0 Add four circle primitives for the rounded corners*
1,1,$1+$1,$2,$3*
1,1,$1+$1,$4,$5*
1,1,$1+$1,$6,$7*
1,1,$1+$1,$8,$9*
0 Add four rect primitives between the rounded corners*
20,1,$1+$1,$2,$3,$4,$5,0*
20,1,$1+$1,$4,$5,$6,$7,0*
20,1,$1+$1,$6,$7,$8,$9,0*
20,1,$1+$1,$8,$9,$2,$3,0*%
G04 Aperture macros list end*
G04 #@! TA.AperFunction,SMDPad,CuDef*
%ADD10RoundRect,0.140000X0.204864X0.080812X-0.040029X0.216559X-0.204864X-0.080812X0.040029X-0.216559X0*%
G04 #@! TD*
G04 #@! TA.AperFunction,SMDPad,CuDef*
%ADD11RoundRect,0.140000X0.124825X-0.181435X0.202004X0.087718X-0.124825X0.181435X-0.202004X-0.087718X0*%
G04 #@! TD*
G04 #@! TA.AperFunction,SMDPad,CuDef*
%ADD12RoundRect,0.135000X0.127670X-0.190132X0.220016X0.063585X-0.127670X0.190132X-0.220016X-0.063585X0*%
G04 #@! TD*
G04 #@! TA.AperFunction,SMDPad,CuDef*
%ADD13RoundRect,0.135000X0.134228X-0.185561X0.217663X0.071224X-0.134228X0.185561X-0.217663X-0.071224X0*%
G04 #@! TD*
G04 #@! TA.AperFunction,SMDPad,CuDef*
%ADD14RoundRect,0.150000X-0.662500X-0.150000X0.662500X-0.150000X0.662500X0.150000X-0.662500X0.150000X0*%
G04 #@! TD*
G04 #@! TA.AperFunction,SMDPad,CuDef*
%ADD15R,2.514000X3.200000*%
G04 #@! TD*
G04 #@! TA.AperFunction,ViaPad*
%ADD16C,0.800000*%
G04 #@! TD*
G04 #@! TA.AperFunction,Conductor*
%ADD17C,0.250000*%
G04 #@! TD*
G04 APERTURE END LIST*
D10*
X77509817Y-43422709D03*
X76670183Y-42957291D03*
D11*
X75829997Y-42429999D03*
X76094609Y-41507187D03*
D12*
X78345570Y-44219243D03*
X78694430Y-43260757D03*
D13*
X79412401Y-44245039D03*
X79727599Y-43274961D03*
D14*
X77362500Y-38095000D03*
X77362500Y-39365000D03*
X77362500Y-40635000D03*
X77362500Y-41905000D03*
X82637500Y-41905000D03*
X82637500Y-40635000D03*
X82637500Y-39365000D03*
X82637500Y-38095000D03*
D15*
X79999999Y-39999999D03*
D16*
X76660000Y-44290000D03*
X76137221Y-41212235D03*
X82026358Y-42704129D03*
X79664848Y-42232720D03*
X81875695Y-39350563D03*
X80990000Y-42720000D03*
D17*
X77362500Y-38095000D02*
X77362500Y-39365000D01*
X75910000Y-42510002D02*
X75829997Y-42429999D01*
X77509817Y-43422709D02*
X77132526Y-43800000D01*
X77549036Y-43422709D02*
X78345570Y-44219243D01*
X77509817Y-43422709D02*
X77549036Y-43422709D01*
X78483343Y-40120332D02*
X78483343Y-42449183D01*
X76890000Y-43800000D02*
X76890000Y-44060000D01*
X76890000Y-44060000D02*
X76660000Y-44290000D01*
X77362500Y-39365000D02*
X77728011Y-39365000D01*
X75910000Y-43280000D02*
X75910000Y-42510002D01*
X76430000Y-43800000D02*
X75910000Y-43280000D01*
X78371366Y-44245039D02*
X78345570Y-44219243D01*
X77728011Y-39365000D02*
X78483343Y-40120332D01*
X79412401Y-44245039D02*
X78371366Y-44245039D01*
X78483343Y-42449183D02*
X77509817Y-43422709D01*
X76890000Y-43800000D02*
X76430000Y-43800000D01*
X77132526Y-43800000D02*
X76890000Y-43800000D01*
X76094609Y-41507187D02*
X76094609Y-41254847D01*
X76670183Y-42957291D02*
X77362500Y-42264974D01*
X82637500Y-41905000D02*
X82637500Y-42092987D01*
X82637500Y-42092987D02*
X82026358Y-42704129D01*
X76094609Y-41507187D02*
X76964687Y-41507187D01*
X76964687Y-41507187D02*
X77362500Y-41905000D01*
X76094609Y-41254847D02*
X76137221Y-41212235D01*
X77362500Y-42264974D02*
X77362500Y-41905000D01*
X78694430Y-43260757D02*
X78694430Y-43203138D01*
X78694430Y-43203138D02*
X79664848Y-42232720D01*
X82623063Y-39350563D02*
X82637500Y-39365000D01*
X81875695Y-39350563D02*
X82623063Y-39350563D01*
X81517663Y-41095969D02*
X81978632Y-40635000D01*
X81517663Y-41095969D02*
X81517663Y-42192337D01*
X81517663Y-42192337D02*
X80990000Y-42720000D01*
X81978632Y-40635000D02*
X82637500Y-40635000D01*
X79727599Y-43274961D02*
X80435039Y-43274961D01*
X80435039Y-43274961D02*
X80990000Y-42720000D01*
G04 #@! TA.AperFunction,Conductor*
G36*
X82875500Y-41621613D02*
G01*
X82920887Y-41667000D01*
X82937500Y-41729000D01*
X82937500Y-42438673D01*
X82941288Y-42452812D01*
X82955009Y-42466533D01*
X82972057Y-42476222D01*
X83004433Y-42529755D01*
X83006554Y-42592280D01*
X82977879Y-42647883D01*
X82841298Y-42800148D01*
X82832853Y-42808691D01*
X82557021Y-43061935D01*
X82547789Y-43069622D01*
X82248722Y-43295004D01*
X82238790Y-43301760D01*
X81919334Y-43497137D01*
X81908793Y-43502902D01*
X81571912Y-43666456D01*
X81560868Y-43671171D01*
X81438186Y-43716659D01*
X81209762Y-43801353D01*
X81198310Y-43804978D01*
X80833305Y-43901353D01*
X80832951Y-43901437D01*
X80832790Y-43901489D01*
X80832140Y-43901660D01*
X80830577Y-43902073D01*
X80830560Y-43902008D01*
X80827567Y-43902723D01*
X80827174Y-43902807D01*
X80826547Y-43899876D01*
X80826258Y-43899900D01*
X80826989Y-43902937D01*
X80761419Y-43918699D01*
X80761376Y-43918520D01*
X80761165Y-43918595D01*
X80761196Y-43918712D01*
X80760462Y-43918904D01*
X80759923Y-43919039D01*
X80759852Y-43919064D01*
X80759422Y-43919178D01*
X80759376Y-43919190D01*
X80759372Y-43919178D01*
X80759250Y-43919208D01*
X80759252Y-43919219D01*
X80758957Y-43919290D01*
X80758832Y-43919321D01*
X80758762Y-43919331D01*
X80758244Y-43919462D01*
X80757591Y-43919620D01*
X80757565Y-43919514D01*
X80757334Y-43919549D01*
X80757378Y-43919716D01*
X80693997Y-43936388D01*
X80693960Y-43936250D01*
X80693782Y-43936317D01*
X80693804Y-43936393D01*
X80693254Y-43936551D01*
X80692910Y-43936645D01*
X80692867Y-43936662D01*
X80692064Y-43936894D01*
X80692059Y-43936880D01*
X80691863Y-43936934D01*
X80691867Y-43936948D01*
X80691128Y-43937142D01*
X80691076Y-43937150D01*
X80690656Y-43937267D01*
X80690152Y-43937400D01*
X80690130Y-43937317D01*
X80689938Y-43937351D01*
X80689980Y-43937493D01*
X80689980Y-43937494D01*
X80629905Y-43954800D01*
X80629868Y-43954674D01*
X80629479Y-43954831D01*
X80629493Y-43954874D01*
X80629055Y-43955011D01*
X80628984Y-43955032D01*
X80628968Y-43955039D01*
X80627968Y-43955355D01*
X80627963Y-43955340D01*
X80627781Y-43955395D01*
X80627786Y-43955410D01*
X80626798Y-43955694D01*
X80626778Y-43955698D01*
X80626722Y-43955715D01*
X80626341Y-43955826D01*
X80626330Y-43955789D01*
X80625878Y-43955881D01*
X80625917Y-43956002D01*
X80625917Y-43956003D01*
X80569029Y-43973965D01*
X80568996Y-43973862D01*
X80568619Y-43974025D01*
X80568626Y-43974045D01*
X80568396Y-43974124D01*
X80568361Y-43974135D01*
X80567128Y-43974563D01*
X80567121Y-43974545D01*
X80566977Y-43974593D01*
X80566983Y-43974611D01*
X80565693Y-43975018D01*
X80565689Y-43975018D01*
X80565680Y-43975022D01*
X80565378Y-43975118D01*
X80565370Y-43975093D01*
X80565038Y-43975171D01*
X80565074Y-43975273D01*
X80565074Y-43975274D01*
X80511250Y-43993914D01*
X80511223Y-43993837D01*
X80510939Y-43993966D01*
X80510752Y-43994036D01*
X80510753Y-43994037D01*
X80510692Y-43994059D01*
X80509556Y-43994491D01*
X80509340Y-43994573D01*
X80509333Y-43994553D01*
X80509231Y-43994589D01*
X80509239Y-43994611D01*
X80507809Y-43995105D01*
X80507792Y-43995112D01*
X80507683Y-43995150D01*
X80507682Y-43995149D01*
X80507612Y-43995174D01*
X80507307Y-43995259D01*
X80507336Y-43995335D01*
X80456448Y-44014677D01*
X80455841Y-44013080D01*
X80455639Y-44013160D01*
X80456273Y-44014678D01*
X80454495Y-44015420D01*
X80452709Y-44016099D01*
X80452123Y-44014559D01*
X80451922Y-44014638D01*
X80452582Y-44016218D01*
X80404507Y-44036285D01*
X80403803Y-44034600D01*
X80403583Y-44034686D01*
X80404319Y-44036293D01*
X80402577Y-44037091D01*
X80400828Y-44037822D01*
X80400153Y-44036207D01*
X80399942Y-44036310D01*
X80400696Y-44037954D01*
X80355309Y-44058770D01*
X80354580Y-44057182D01*
X80354352Y-44057281D01*
X80355110Y-44058785D01*
X80353423Y-44059635D01*
X80351697Y-44060427D01*
X80350993Y-44058893D01*
X80350772Y-44059010D01*
X80351560Y-44060574D01*
X80308740Y-44082159D01*
X80307990Y-44080672D01*
X80307752Y-44080786D01*
X80308527Y-44082184D01*
X80306867Y-44083104D01*
X80305201Y-44083944D01*
X80304478Y-44082511D01*
X80304252Y-44082643D01*
X80305062Y-44084104D01*
X80264681Y-44106488D01*
X80263894Y-44105068D01*
X80263653Y-44105196D01*
X80264461Y-44106523D01*
X80262873Y-44107490D01*
X80261226Y-44108404D01*
X80260473Y-44107047D01*
X80260241Y-44107195D01*
X80261085Y-44108580D01*
X80223022Y-44131783D01*
X80222209Y-44130450D01*
X80221964Y-44130593D01*
X80222793Y-44131830D01*
X80221250Y-44132864D01*
X80219658Y-44133835D01*
X80218887Y-44132571D01*
X80218653Y-44132735D01*
X80219518Y-44134025D01*
X80195743Y-44149965D01*
X80137266Y-44170519D01*
X80076146Y-44160202D01*
X80027656Y-44121592D01*
X80008611Y-44075669D01*
X80007283Y-44076089D01*
X80004189Y-44066294D01*
X80002750Y-44056119D01*
X79964087Y-43980240D01*
X79950743Y-43917456D01*
X79970578Y-43856410D01*
X80018279Y-43813461D01*
X80037937Y-43803445D01*
X80094157Y-43774800D01*
X80177900Y-43688240D01*
X80218621Y-43660296D01*
X80267019Y-43650461D01*
X80383234Y-43650461D01*
X80408683Y-43653101D01*
X80409248Y-43653219D01*
X80409249Y-43653219D01*
X80419307Y-43655328D01*
X80450715Y-43651412D01*
X80455926Y-43651089D01*
X80455910Y-43650885D01*
X80461025Y-43650461D01*
X80466153Y-43650461D01*
X80486675Y-43647035D01*
X80491705Y-43646303D01*
X80543665Y-43639827D01*
X80550809Y-43636334D01*
X80558649Y-43635026D01*
X80604686Y-43610111D01*
X80609203Y-43607786D01*
X80656250Y-43584787D01*
X80661873Y-43579163D01*
X80668865Y-43575380D01*
X80704357Y-43536824D01*
X80707809Y-43533226D01*
X80834220Y-43406815D01*
X80874445Y-43379939D01*
X80921898Y-43370500D01*
X81061485Y-43370500D01*
X81068985Y-43370500D01*
X81222365Y-43332696D01*
X81362240Y-43259283D01*
X81480483Y-43154530D01*
X81570220Y-43024523D01*
X81626237Y-42876818D01*
X81645278Y-42720000D01*
X81639102Y-42669143D01*
X81644980Y-42613751D01*
X81674515Y-42566520D01*
X81746552Y-42494483D01*
X81766410Y-42478358D01*
X81775499Y-42472421D01*
X81776048Y-42471714D01*
X81818153Y-42447674D01*
X81873426Y-42443898D01*
X81938699Y-42454236D01*
X81948399Y-42455000D01*
X82321174Y-42455000D01*
X82334049Y-42451549D01*
X82337500Y-42438674D01*
X82337500Y-41729000D01*
X82354113Y-41667000D01*
X82399500Y-41621613D01*
X82461500Y-41605000D01*
X82813500Y-41605000D01*
X82875500Y-41621613D01*
G37*
G04 #@! TD.AperFunction*
G04 #@! TA.AperFunction,Conductor*
G36*
X77600500Y-41621613D02*
G01*
X77645887Y-41667000D01*
X77662500Y-41729000D01*
X77662500Y-42438673D01*
X77665950Y-42451548D01*
X77682469Y-42455975D01*
X77738057Y-42488069D01*
X77770151Y-42543656D01*
X77770151Y-42607844D01*
X77738057Y-42663430D01*
X77674043Y-42727445D01*
X77620276Y-42781212D01*
X77578041Y-42808902D01*
X77528268Y-42817454D01*
X77431363Y-42814070D01*
X77431358Y-42814070D01*
X77421605Y-42813730D01*
X77412220Y-42816420D01*
X77412220Y-42816421D01*
X77394028Y-42821637D01*
X77329852Y-42822755D01*
X77273714Y-42791635D01*
X77240657Y-42736616D01*
X77235601Y-42718983D01*
X77227454Y-42701512D01*
X77169289Y-42615277D01*
X77156136Y-42601172D01*
X77107379Y-42563079D01*
X77075973Y-42526737D01*
X77060734Y-42481185D01*
X77062500Y-42454868D01*
X77062500Y-41729000D01*
X77079113Y-41667000D01*
X77124500Y-41621613D01*
X77186500Y-41605000D01*
X77538500Y-41605000D01*
X77600500Y-41621613D01*
G37*
G04 #@! TD.AperFunction*
G04 #@! TA.AperFunction,Conductor*
G36*
X76244167Y-39340132D02*
G01*
X76284794Y-39384811D01*
X76299500Y-39443382D01*
X76299500Y-39541646D01*
X76299500Y-39541658D01*
X76299501Y-39546518D01*
X76300261Y-39551320D01*
X76300262Y-39551326D01*
X76307726Y-39598452D01*
X76314354Y-39640304D01*
X76318780Y-39648991D01*
X76318782Y-39648996D01*
X76367519Y-39744646D01*
X76371950Y-39753342D01*
X76461658Y-39843050D01*
X76501715Y-39863460D01*
X76552850Y-39889515D01*
X76602282Y-39935210D01*
X76620555Y-40000000D01*
X76602282Y-40064790D01*
X76552850Y-40110485D01*
X76470353Y-40152519D01*
X76470349Y-40152521D01*
X76461658Y-40156950D01*
X76454759Y-40163848D01*
X76454756Y-40163851D01*
X76378851Y-40239756D01*
X76378848Y-40239759D01*
X76371950Y-40246658D01*
X76367521Y-40255349D01*
X76367519Y-40255353D01*
X76318785Y-40350999D01*
X76314354Y-40359696D01*
X76312827Y-40369330D01*
X76312826Y-40369337D01*
X76300263Y-40448660D01*
X76300262Y-40448667D01*
X76299500Y-40453481D01*
X76299500Y-40458353D01*
X76299500Y-40458359D01*
X76299500Y-40811647D01*
X76299500Y-40811659D01*
X76299501Y-40816518D01*
X76300261Y-40821320D01*
X76300262Y-40821326D01*
X76310652Y-40886927D01*
X76314354Y-40910304D01*
X76318780Y-40918991D01*
X76318782Y-40918996D01*
X76361094Y-41002036D01*
X76374609Y-41058331D01*
X76374609Y-41663187D01*
X76357996Y-41725187D01*
X76312609Y-41770574D01*
X76250609Y-41787187D01*
X75938609Y-41787187D01*
X75876609Y-41770574D01*
X75831222Y-41725187D01*
X75814609Y-41663187D01*
X75814609Y-40982048D01*
X75810876Y-40967993D01*
X75789933Y-40946775D01*
X75785712Y-40944250D01*
X75754473Y-40886927D01*
X75756677Y-40821684D01*
X75947671Y-40204584D01*
X75948353Y-40204795D01*
X75948353Y-40204781D01*
X75947680Y-40204575D01*
X75948301Y-40202550D01*
X75948418Y-40202585D01*
X75948431Y-40202127D01*
X75948903Y-40200607D01*
X75948902Y-40200603D01*
X75948905Y-40200595D01*
X75948901Y-40200594D01*
X75952005Y-40190486D01*
X75952440Y-40190486D01*
X75954455Y-40191104D01*
X75954458Y-40191094D01*
X75952440Y-40190486D01*
X75952005Y-40190486D01*
X75952042Y-40190364D01*
X75952051Y-40190366D01*
X75952056Y-40190346D01*
X75952059Y-40190344D01*
X75952650Y-40188384D01*
X75953260Y-40186398D01*
X75953267Y-40186376D01*
X75955730Y-40187133D01*
X75955735Y-40187118D01*
X75953257Y-40186371D01*
X75956112Y-40176908D01*
X75957185Y-40176908D01*
X75958678Y-40177359D01*
X75958681Y-40177351D01*
X75957185Y-40176908D01*
X75956112Y-40176908D01*
X75956201Y-40176612D01*
X75956213Y-40176615D01*
X75956772Y-40174728D01*
X75956973Y-40174056D01*
X75957407Y-40172617D01*
X75957397Y-40172614D01*
X75960151Y-40163306D01*
X75962499Y-40164000D01*
X75962513Y-40163956D01*
X75960172Y-40163280D01*
X75960615Y-40161748D01*
X75960848Y-40160951D01*
X75961330Y-40159325D01*
X75963738Y-40160038D01*
X75963749Y-40160002D01*
X75961324Y-40159300D01*
X75963898Y-40150413D01*
X75966347Y-40151122D01*
X75966368Y-40151052D01*
X75963927Y-40150362D01*
X75964432Y-40148577D01*
X75964653Y-40147806D01*
X75965058Y-40146409D01*
X75967544Y-40147129D01*
X75967550Y-40147110D01*
X75965046Y-40146402D01*
X75967448Y-40137906D01*
X75969879Y-40138593D01*
X75969889Y-40138560D01*
X75967467Y-40137894D01*
X75967472Y-40137877D01*
X75967953Y-40136126D01*
X75968117Y-40135540D01*
X75968575Y-40133924D01*
X75968574Y-40133923D01*
X75968580Y-40133905D01*
X75971023Y-40134596D01*
X75971031Y-40134565D01*
X75968570Y-40133887D01*
X75970792Y-40125822D01*
X75971064Y-40125822D01*
X75973173Y-40126403D01*
X75973178Y-40126386D01*
X75971064Y-40125822D01*
X75970792Y-40125822D01*
X75970811Y-40125753D01*
X75970825Y-40125757D01*
X75970833Y-40125723D01*
X75970835Y-40125722D01*
X75971249Y-40124168D01*
X75971463Y-40123380D01*
X75971909Y-40121767D01*
X75971908Y-40121766D01*
X75971919Y-40121730D01*
X75974265Y-40122378D01*
X75974266Y-40122357D01*
X75971903Y-40121725D01*
X75973989Y-40113926D01*
X75976377Y-40114564D01*
X75976386Y-40114531D01*
X75974010Y-40113918D01*
X75974402Y-40112400D01*
X75974700Y-40111268D01*
X75975066Y-40109904D01*
X75977368Y-40110521D01*
X75977375Y-40110492D01*
X75975052Y-40109891D01*
X75976863Y-40102899D01*
X75978960Y-40102899D01*
X75979355Y-40103001D01*
X75979357Y-40102998D01*
X75978960Y-40102899D01*
X75976863Y-40102899D01*
X75976995Y-40102390D01*
X75977012Y-40102394D01*
X75977022Y-40102355D01*
X75977408Y-40100808D01*
X75977608Y-40100023D01*
X75977910Y-40098860D01*
X75980077Y-40098860D01*
X75980214Y-40098896D01*
X75980214Y-40098895D01*
X75980077Y-40098860D01*
X75977910Y-40098860D01*
X75978031Y-40098393D01*
X75978030Y-40098390D01*
X75978041Y-40098351D01*
X75978024Y-40098347D01*
X75979832Y-40091121D01*
X75982120Y-40091693D01*
X75982127Y-40091669D01*
X75979852Y-40091123D01*
X75980206Y-40089648D01*
X75980478Y-40088539D01*
X75980835Y-40087117D01*
X75980834Y-40087113D01*
X75980841Y-40087086D01*
X75980902Y-40087086D01*
X75983116Y-40087642D01*
X75983121Y-40087620D01*
X75980902Y-40087086D01*
X75980841Y-40087086D01*
X75980845Y-40087072D01*
X75980827Y-40087068D01*
X75982509Y-40080085D01*
X75982528Y-40080089D01*
X75982537Y-40080046D01*
X75982539Y-40080045D01*
X75982893Y-40078512D01*
X75983102Y-40077622D01*
X75983476Y-40076075D01*
X75983475Y-40076074D01*
X75983487Y-40076029D01*
X75983468Y-40076025D01*
X75985029Y-40069271D01*
X75985109Y-40069271D01*
X75987400Y-40069801D01*
X75987405Y-40069777D01*
X75985109Y-40069271D01*
X75985029Y-40069271D01*
X75985033Y-40069254D01*
X75985052Y-40069258D01*
X75985061Y-40069213D01*
X75985063Y-40069212D01*
X75985397Y-40067699D01*
X75985611Y-40066749D01*
X75985962Y-40065237D01*
X75985961Y-40065236D01*
X75985972Y-40065193D01*
X75988277Y-40065727D01*
X75988283Y-40065701D01*
X75985953Y-40065186D01*
X75987410Y-40058598D01*
X75987430Y-40058602D01*
X75987439Y-40058555D01*
X75987441Y-40058554D01*
X75987753Y-40057069D01*
X75987972Y-40056053D01*
X75988301Y-40054573D01*
X75988300Y-40054570D01*
X75988311Y-40054524D01*
X75988291Y-40054520D01*
X75989648Y-40048085D01*
X75989669Y-40048089D01*
X75989679Y-40048040D01*
X75989946Y-40046699D01*
X75990216Y-40045387D01*
X75990499Y-40044053D01*
X75990498Y-40044051D01*
X75990509Y-40044002D01*
X75990488Y-40043998D01*
X75991753Y-40037688D01*
X75994114Y-40038161D01*
X75994120Y-40038126D01*
X75991776Y-40037683D01*
X75992030Y-40036339D01*
X75992280Y-40035055D01*
X75992563Y-40033648D01*
X75992562Y-40033646D01*
X75992571Y-40033606D01*
X75994870Y-40034068D01*
X75994877Y-40034033D01*
X75992551Y-40033592D01*
X75993731Y-40027378D01*
X75996092Y-40027826D01*
X75996100Y-40027780D01*
X75993756Y-40027362D01*
X75993996Y-40026019D01*
X75994222Y-40024786D01*
X75994500Y-40023331D01*
X75994499Y-40023329D01*
X75994505Y-40023301D01*
X75996832Y-40023744D01*
X75996841Y-40023699D01*
X75994488Y-40023277D01*
X75995530Y-40017470D01*
X75997515Y-40017470D01*
X75997888Y-40017537D01*
X75997888Y-40017532D01*
X75997515Y-40017470D01*
X75995530Y-40017470D01*
X75995592Y-40017125D01*
X75995613Y-40017128D01*
X75995621Y-40017080D01*
X75995622Y-40017079D01*
X75995864Y-40015643D01*
X75996043Y-40014609D01*
X75996284Y-40013274D01*
X75997846Y-40013274D01*
X75998526Y-40013397D01*
X75998527Y-40013389D01*
X75997846Y-40013274D01*
X75996284Y-40013274D01*
X75996320Y-40013072D01*
X75996319Y-40013067D01*
X75996328Y-40013018D01*
X75996307Y-40013015D01*
X75997347Y-40006853D01*
X75997368Y-40006856D01*
X75997580Y-40005516D01*
X75997797Y-40004185D01*
X75998033Y-40002790D01*
X75998032Y-40002788D01*
X75998041Y-40002739D01*
X75998020Y-40002736D01*
X75998980Y-39996679D01*
X76000209Y-39996679D01*
X76001326Y-39996856D01*
X76001328Y-39996843D01*
X76000209Y-39996679D01*
X75998980Y-39996679D01*
X75999010Y-39996489D01*
X75999031Y-39996492D01*
X75999038Y-39996442D01*
X75999040Y-39996440D01*
X75999250Y-39995010D01*
X75999443Y-39993750D01*
X75999628Y-39992590D01*
X76001163Y-39992590D01*
X76001947Y-39992715D01*
X76001949Y-39992706D01*
X76001163Y-39992590D01*
X75999628Y-39992590D01*
X75999655Y-39992420D01*
X75999654Y-39992419D01*
X75999663Y-39992369D01*
X75999642Y-39992366D01*
X76000583Y-39985999D01*
X76002958Y-39986350D01*
X76002966Y-39986299D01*
X76000607Y-39985975D01*
X76000609Y-39985953D01*
X76000611Y-39985952D01*
X76000834Y-39984329D01*
X76000962Y-39983432D01*
X76001186Y-39981921D01*
X76001185Y-39981919D01*
X76001189Y-39981897D01*
X76003423Y-39982227D01*
X76003430Y-39982179D01*
X76001173Y-39981869D01*
X76002070Y-39975355D01*
X76004394Y-39975675D01*
X76004400Y-39975631D01*
X76002094Y-39975338D01*
X76002278Y-39973891D01*
X76002439Y-39972674D01*
X76002633Y-39971270D01*
X76002632Y-39971268D01*
X76002637Y-39971238D01*
X76004959Y-39971559D01*
X76004965Y-39971517D01*
X76002619Y-39971218D01*
X76003474Y-39964526D01*
X76005809Y-39964824D01*
X76005821Y-39964725D01*
X76003503Y-39964452D01*
X76003671Y-39963028D01*
X76003822Y-39961801D01*
X76003971Y-39960644D01*
X76003997Y-39960437D01*
X76003996Y-39960436D01*
X76003998Y-39960427D01*
X76006163Y-39960704D01*
X76006171Y-39960644D01*
X76003983Y-39960386D01*
X76004797Y-39953484D01*
X76007096Y-39953755D01*
X76007100Y-39953722D01*
X76004819Y-39953476D01*
X76004980Y-39951987D01*
X76005124Y-39950714D01*
X76005286Y-39949348D01*
X76007471Y-39949607D01*
X76007468Y-39949578D01*
X76005267Y-39949339D01*
X76006043Y-39942198D01*
X76008351Y-39942448D01*
X76008358Y-39942395D01*
X76006066Y-39942167D01*
X76006216Y-39940659D01*
X76006339Y-39939481D01*
X76006492Y-39938079D01*
X76008868Y-39938338D01*
X76008874Y-39938287D01*
X76006477Y-39938048D01*
X76007217Y-39930633D01*
X76009639Y-39930874D01*
X76009644Y-39930827D01*
X76007237Y-39930608D01*
X76007366Y-39929191D01*
X76007473Y-39928071D01*
X76007629Y-39926514D01*
X76010060Y-39926757D01*
X76010054Y-39926701D01*
X76007614Y-39926479D01*
X76008305Y-39918906D01*
X76009831Y-39918906D01*
X76010760Y-39918990D01*
X76010760Y-39918983D01*
X76009831Y-39918906D01*
X76008305Y-39918906D01*
X76008318Y-39918768D01*
X76008336Y-39918769D01*
X76008471Y-39917143D01*
X76008541Y-39916326D01*
X76008695Y-39914651D01*
X76008693Y-39914647D01*
X76008697Y-39914612D01*
X76008682Y-39914611D01*
X76009341Y-39906715D01*
X76011175Y-39906715D01*
X76011852Y-39906771D01*
X76011852Y-39906766D01*
X76011175Y-39906715D01*
X76009341Y-39906715D01*
X76009354Y-39906563D01*
X76009370Y-39906564D01*
X76009499Y-39904865D01*
X76009552Y-39904191D01*
X76009686Y-39902584D01*
X76012067Y-39902584D01*
X76012220Y-39902597D01*
X76012220Y-39902595D01*
X76012067Y-39902584D01*
X76009686Y-39902584D01*
X76009698Y-39902442D01*
X76009697Y-39902439D01*
X76009700Y-39902404D01*
X76009685Y-39902403D01*
X76010325Y-39893993D01*
X76010340Y-39893994D01*
X76010342Y-39893960D01*
X76010343Y-39893959D01*
X76010481Y-39891969D01*
X76010524Y-39891382D01*
X76010643Y-39889832D01*
X76010628Y-39889831D01*
X76011238Y-39881022D01*
X76013852Y-39881203D01*
X76013854Y-39881183D01*
X76011251Y-39881022D01*
X76011342Y-39879558D01*
X76011404Y-39878613D01*
X76011526Y-39876866D01*
X76014140Y-39877048D01*
X76014142Y-39877023D01*
X76011512Y-39876858D01*
X76012093Y-39867625D01*
X76012104Y-39867625D01*
X76012105Y-39867600D01*
X76012107Y-39867597D01*
X76012226Y-39865507D01*
X76012353Y-39863490D01*
X76012352Y-39863487D01*
X76012354Y-39863460D01*
X76012342Y-39863460D01*
X76012895Y-39853767D01*
X76012906Y-39853767D01*
X76012907Y-39853743D01*
X76012908Y-39853742D01*
X76012999Y-39851968D01*
X76013020Y-39851583D01*
X76013130Y-39849659D01*
X76014281Y-39849659D01*
X76015547Y-39849732D01*
X76015547Y-39849725D01*
X76014281Y-39849659D01*
X76013130Y-39849659D01*
X76013132Y-39849629D01*
X76013131Y-39849627D01*
X76013133Y-39849600D01*
X76013122Y-39849600D01*
X76013648Y-39839421D01*
X76013659Y-39839421D01*
X76013744Y-39837591D01*
X76013763Y-39837192D01*
X76013863Y-39835277D01*
X76013862Y-39835276D01*
X76013864Y-39835251D01*
X76013854Y-39835251D01*
X76014292Y-39825882D01*
X76014299Y-39825882D01*
X76014299Y-39825873D01*
X76014300Y-39825873D01*
X76014314Y-39825540D01*
X76014730Y-39819490D01*
X76020255Y-39760243D01*
X76049778Y-39443618D01*
X76051467Y-39431749D01*
X76053729Y-39419978D01*
X76079222Y-39365238D01*
X76127552Y-39329028D01*
X76187253Y-39319941D01*
X76244167Y-39340132D01*
G37*
G04 #@! TD.AperFunction*
G04 #@! TA.AperFunction,NonConductor*
G36*
X80103288Y-36012124D02*
G01*
X80476796Y-36039383D01*
X80488698Y-36040834D01*
X80857799Y-36104105D01*
X80869503Y-36106700D01*
X81230774Y-36205396D01*
X81242169Y-36209111D01*
X81592169Y-36342294D01*
X81603176Y-36347105D01*
X81938643Y-36513529D01*
X81949118Y-36519374D01*
X82100536Y-36613766D01*
X82266910Y-36717481D01*
X82276784Y-36724322D01*
X82573903Y-36952240D01*
X82583070Y-36960005D01*
X82856748Y-37215614D01*
X82865119Y-37224229D01*
X82965865Y-37338493D01*
X82992561Y-37388152D01*
X82994511Y-37444497D01*
X82971311Y-37495882D01*
X82927758Y-37531683D01*
X82872855Y-37544500D01*
X81948352Y-37544500D01*
X81948339Y-37544500D01*
X81943482Y-37544501D01*
X81938680Y-37545261D01*
X81938673Y-37545262D01*
X81859331Y-37557828D01*
X81859330Y-37557828D01*
X81849696Y-37559354D01*
X81841010Y-37563779D01*
X81841003Y-37563782D01*
X81745353Y-37612519D01*
X81745349Y-37612521D01*
X81736658Y-37616950D01*
X81729759Y-37623848D01*
X81729756Y-37623851D01*
X81653851Y-37699756D01*
X81653848Y-37699759D01*
X81646950Y-37706658D01*
X81642521Y-37715349D01*
X81642519Y-37715353D01*
X81593785Y-37810999D01*
X81589354Y-37819696D01*
X81587827Y-37829330D01*
X81587826Y-37829337D01*
X81575263Y-37908660D01*
X81575262Y-37908667D01*
X81574500Y-37913481D01*
X81574500Y-37918353D01*
X81574500Y-37918359D01*
X81574500Y-38078884D01*
X81556859Y-38142632D01*
X81508955Y-38188242D01*
X81444418Y-38202735D01*
X81381612Y-38181988D01*
X81364898Y-38170821D01*
X81364897Y-38170820D01*
X81354740Y-38164034D01*
X81342762Y-38161651D01*
X81342759Y-38161650D01*
X81287653Y-38150689D01*
X81287649Y-38150688D01*
X81281674Y-38149500D01*
X78718326Y-38149500D01*
X78712351Y-38150688D01*
X78712346Y-38150689D01*
X78657240Y-38161650D01*
X78657235Y-38161651D01*
X78645260Y-38164034D01*
X78635106Y-38170818D01*
X78635100Y-38170821D01*
X78618388Y-38181988D01*
X78555582Y-38202736D01*
X78491045Y-38188243D01*
X78443140Y-38142633D01*
X78425499Y-38078885D01*
X78425499Y-37918353D01*
X78425499Y-37913482D01*
X78410646Y-37819696D01*
X78353050Y-37706658D01*
X78263342Y-37616950D01*
X78150304Y-37559354D01*
X78140667Y-37557827D01*
X78140662Y-37557826D01*
X78061339Y-37545263D01*
X78061333Y-37545262D01*
X78056519Y-37544500D01*
X78051641Y-37544500D01*
X77123113Y-37544500D01*
X77067128Y-37531142D01*
X77023205Y-37493946D01*
X77000807Y-37440927D01*
X77004760Y-37383506D01*
X77034212Y-37334056D01*
X77273654Y-37087810D01*
X77282424Y-37079623D01*
X77568268Y-36837642D01*
X77577780Y-36830351D01*
X77885667Y-36617188D01*
X77895853Y-36610843D01*
X78222935Y-36428465D01*
X78233684Y-36423137D01*
X78576885Y-36273262D01*
X78588079Y-36269007D01*
X78944170Y-36153048D01*
X78955742Y-36149890D01*
X79321384Y-36068931D01*
X79333198Y-36066909D01*
X79704957Y-36021712D01*
X79716929Y-36020843D01*
X80091307Y-36011832D01*
X80103288Y-36012124D01*
G37*
G04 #@! TD.AperFunction*
G04 #@! TA.AperFunction,NonConductor*
G36*
X78441385Y-38542936D02*
G01*
X78478985Y-38586959D01*
X78492500Y-38643254D01*
X78492500Y-38816746D01*
X78478985Y-38873041D01*
X78441385Y-38917064D01*
X78387898Y-38939219D01*
X78330182Y-38934677D01*
X78280819Y-38904427D01*
X78270243Y-38893851D01*
X78263342Y-38886950D01*
X78172148Y-38840484D01*
X78122717Y-38794790D01*
X78104444Y-38730000D01*
X78122717Y-38665210D01*
X78172148Y-38619515D01*
X78263342Y-38573050D01*
X78280819Y-38555572D01*
X78330182Y-38525323D01*
X78387898Y-38520781D01*
X78441385Y-38542936D01*
G37*
G04 #@! TD.AperFunction*
G04 #@! TA.AperFunction,NonConductor*
G36*
X76449284Y-38562172D02*
G01*
X76454755Y-38566147D01*
X76461658Y-38573050D01*
X76470351Y-38577479D01*
X76470352Y-38577480D01*
X76552850Y-38619515D01*
X76602282Y-38665210D01*
X76620555Y-38730000D01*
X76602282Y-38794790D01*
X76552850Y-38840485D01*
X76470353Y-38882519D01*
X76470349Y-38882521D01*
X76461658Y-38886950D01*
X76454759Y-38893848D01*
X76454759Y-38893849D01*
X76397730Y-38950878D01*
X76341542Y-38983130D01*
X76276758Y-38982644D01*
X76221062Y-38949551D01*
X76189656Y-38892887D01*
X76191114Y-38828117D01*
X76230929Y-38693121D01*
X76234874Y-38681801D01*
X76261415Y-38616062D01*
X76293407Y-38570353D01*
X76342204Y-38543295D01*
X76397923Y-38540371D01*
X76449284Y-38562172D01*
G37*
G04 #@! TD.AperFunction*
G04 #@! TA.AperFunction,NonConductor*
G36*
X83659779Y-38544829D02*
G01*
X83708993Y-38574114D01*
X83739799Y-38622391D01*
X83759906Y-38680159D01*
X83799803Y-38794790D01*
X83810689Y-38826065D01*
X83815027Y-38891860D01*
X83785024Y-38950576D01*
X83729164Y-38985611D01*
X83663242Y-38987057D01*
X83605899Y-38954507D01*
X83545243Y-38893851D01*
X83538342Y-38886950D01*
X83447148Y-38840484D01*
X83397717Y-38794790D01*
X83379444Y-38730000D01*
X83397717Y-38665210D01*
X83447148Y-38619515D01*
X83538342Y-38573050D01*
X83545245Y-38566146D01*
X83549802Y-38562836D01*
X83602653Y-38540782D01*
X83659779Y-38544829D01*
G37*
G04 #@! TD.AperFunction*
G04 #@! TA.AperFunction,NonConductor*
G36*
X83876137Y-39358767D02*
G01*
X83923871Y-39397333D01*
X83947267Y-39454064D01*
X83971543Y-39624963D01*
X83972654Y-39636924D01*
X83989197Y-40011024D01*
X83989146Y-40023038D01*
X83969408Y-40396998D01*
X83968194Y-40408948D01*
X83947113Y-40548772D01*
X83923341Y-40605161D01*
X83875495Y-40643314D01*
X83815230Y-40653939D01*
X83757222Y-40634448D01*
X83715599Y-40589589D01*
X83700499Y-40530286D01*
X83700499Y-40458353D01*
X83700499Y-40453482D01*
X83685646Y-40359696D01*
X83628050Y-40246658D01*
X83538342Y-40156950D01*
X83525512Y-40150413D01*
X83506056Y-40140499D01*
X83447148Y-40110484D01*
X83397717Y-40064790D01*
X83379444Y-40000000D01*
X83397717Y-39935210D01*
X83447148Y-39889515D01*
X83538342Y-39843050D01*
X83628050Y-39753342D01*
X83685646Y-39640304D01*
X83700500Y-39546519D01*
X83700499Y-39471501D01*
X83715683Y-39412047D01*
X83757518Y-39367150D01*
X83815757Y-39347812D01*
X83876137Y-39358767D01*
G37*
G04 #@! TD.AperFunction*
G04 #@! TA.AperFunction,NonConductor*
G36*
X83731832Y-41012247D02*
G01*
X83787714Y-41047629D01*
X83817458Y-41106706D01*
X83812600Y-41172669D01*
X83738871Y-41378813D01*
X83707845Y-41426643D01*
X83658698Y-41455535D01*
X83601817Y-41459382D01*
X83549226Y-41437370D01*
X83529350Y-41422929D01*
X83446599Y-41380765D01*
X83397167Y-41335070D01*
X83378894Y-41270280D01*
X83397167Y-41205490D01*
X83446600Y-41159795D01*
X83538342Y-41113050D01*
X83608165Y-41043226D01*
X83665710Y-41010627D01*
X83731832Y-41012247D01*
G37*
G04 #@! TD.AperFunction*
G04 #@! TA.AperFunction,NonConductor*
G36*
X80835924Y-41864703D02*
G01*
X80880348Y-41904060D01*
X80901394Y-41959554D01*
X80894240Y-42018471D01*
X80860525Y-42067316D01*
X80807973Y-42094897D01*
X80764915Y-42105509D01*
X80764909Y-42105510D01*
X80757635Y-42107304D01*
X80751000Y-42110786D01*
X80750993Y-42110789D01*
X80624406Y-42177228D01*
X80624400Y-42177231D01*
X80617760Y-42180717D01*
X80612147Y-42185688D01*
X80612139Y-42185695D01*
X80520175Y-42267167D01*
X80460299Y-42296320D01*
X80393977Y-42290293D01*
X80340338Y-42250823D01*
X80314853Y-42189298D01*
X80301085Y-42075902D01*
X80279303Y-42018469D01*
X80272150Y-41959554D01*
X80293196Y-41904060D01*
X80337620Y-41864704D01*
X80395246Y-41850500D01*
X80778298Y-41850500D01*
X80835924Y-41864703D01*
G37*
G04 #@! TD.AperFunction*
G04 #@! TA.AperFunction,NonConductor*
G36*
X80689096Y-44030135D02*
G01*
X80721591Y-44091353D01*
X80716156Y-44160448D01*
X80674490Y-44215833D01*
X80125056Y-44627125D01*
X80067692Y-44650694D01*
X80006089Y-44643536D01*
X79955657Y-44607442D01*
X79929010Y-44551441D01*
X79932816Y-44489540D01*
X79949117Y-44439370D01*
X79950466Y-44435218D01*
X79967332Y-44401691D01*
X79976681Y-44388544D01*
X79979732Y-44384440D01*
X80002401Y-44355246D01*
X80005768Y-44351100D01*
X80029602Y-44323044D01*
X80033309Y-44318879D01*
X80058347Y-44291989D01*
X80062335Y-44287899D01*
X80088860Y-44261940D01*
X80093023Y-44258052D01*
X80121187Y-44232954D01*
X80125501Y-44229286D01*
X80155448Y-44205005D01*
X80159875Y-44201581D01*
X80191829Y-44178018D01*
X80196284Y-44174885D01*
X80230363Y-44152036D01*
X80234820Y-44149185D01*
X80271272Y-44126963D01*
X80275598Y-44124446D01*
X80314593Y-44102831D01*
X80318848Y-44100582D01*
X80360478Y-44079596D01*
X80364566Y-44077628D01*
X80409125Y-44057191D01*
X80412964Y-44055511D01*
X80460460Y-44035684D01*
X80464045Y-44034255D01*
X80514776Y-44014973D01*
X80518164Y-44013743D01*
X80559603Y-43999392D01*
X80628823Y-43995918D01*
X80689096Y-44030135D01*
G37*
G04 #@! TD.AperFunction*
G04 #@! TA.AperFunction,NonConductor*
G36*
X75336833Y-42780147D02*
G01*
X75394768Y-42834173D01*
X75406907Y-42845492D01*
X75415751Y-42849616D01*
X75462904Y-42871604D01*
X75515080Y-42917361D01*
X75534500Y-42983986D01*
X75534500Y-43228195D01*
X75531860Y-43253644D01*
X75531741Y-43254209D01*
X75531740Y-43254216D01*
X75529633Y-43264268D01*
X75530903Y-43274458D01*
X75530903Y-43274462D01*
X75533548Y-43295676D01*
X75533871Y-43300891D01*
X75534077Y-43300874D01*
X75534500Y-43305981D01*
X75534500Y-43311114D01*
X75535344Y-43316172D01*
X75535345Y-43316184D01*
X75537918Y-43331603D01*
X75538657Y-43336670D01*
X75541877Y-43362496D01*
X75545134Y-43388626D01*
X75548626Y-43395770D01*
X75549935Y-43403610D01*
X75574845Y-43449641D01*
X75577171Y-43454161D01*
X75595660Y-43491979D01*
X75595661Y-43491981D01*
X75600174Y-43501211D01*
X75605797Y-43506834D01*
X75609581Y-43513826D01*
X75617138Y-43520782D01*
X75617139Y-43520784D01*
X75648082Y-43549269D01*
X75651780Y-43552817D01*
X76024371Y-43925408D01*
X76050767Y-43964485D01*
X76060665Y-44010592D01*
X76052632Y-44057060D01*
X76027089Y-44124413D01*
X76023763Y-44133182D01*
X76022859Y-44140622D01*
X76022858Y-44140629D01*
X76008126Y-44261964D01*
X76004722Y-44290000D01*
X76005626Y-44297445D01*
X76022858Y-44439370D01*
X76022859Y-44439375D01*
X76023763Y-44446818D01*
X76079780Y-44594523D01*
X76084043Y-44600699D01*
X76112745Y-44642282D01*
X76169517Y-44724530D01*
X76175126Y-44729499D01*
X76175127Y-44729500D01*
X76265194Y-44809292D01*
X76287760Y-44829283D01*
X76427635Y-44902696D01*
X76549957Y-44932845D01*
X76565317Y-44936631D01*
X76581015Y-44940500D01*
X76731485Y-44940500D01*
X76738985Y-44940500D01*
X76892365Y-44902696D01*
X77032240Y-44829283D01*
X77150483Y-44724530D01*
X77240220Y-44594523D01*
X77296237Y-44446818D01*
X77315278Y-44290000D01*
X77306879Y-44220831D01*
X77315487Y-44158257D01*
X77351668Y-44110837D01*
X77353737Y-44109826D01*
X77359360Y-44104202D01*
X77366352Y-44100419D01*
X77396271Y-44067917D01*
X77439674Y-44037496D01*
X77491822Y-44027979D01*
X77579213Y-44031030D01*
X77624327Y-44041238D01*
X77662563Y-44067273D01*
X77708595Y-44113305D01*
X77739718Y-44165466D01*
X77742334Y-44226150D01*
X77737375Y-44250074D01*
X77737374Y-44250080D01*
X77735421Y-44259506D01*
X77736436Y-44269079D01*
X77736436Y-44269082D01*
X77747903Y-44377227D01*
X77747903Y-44377230D01*
X77748987Y-44387445D01*
X77753327Y-44396754D01*
X77753329Y-44396758D01*
X77799016Y-44494734D01*
X77799018Y-44494737D01*
X77803360Y-44504048D01*
X77810493Y-44511448D01*
X77849042Y-44551441D01*
X77892647Y-44596678D01*
X77959330Y-44632568D01*
X78375767Y-44784139D01*
X78449918Y-44799509D01*
X78577858Y-44785942D01*
X78694461Y-44731570D01*
X78773625Y-44655261D01*
X78813282Y-44629547D01*
X78859681Y-44620539D01*
X78911355Y-44620539D01*
X78948821Y-44626334D01*
X78972831Y-44638242D01*
X78972926Y-44638051D01*
X79040821Y-44671591D01*
X79462295Y-44808537D01*
X79536937Y-44821309D01*
X79550215Y-44819430D01*
X79611536Y-44826255D01*
X79661979Y-44861790D01*
X79689050Y-44917238D01*
X79686046Y-44978868D01*
X78901833Y-47512668D01*
X78871213Y-47563533D01*
X78820457Y-47594332D01*
X78761201Y-47598007D01*
X78372878Y-47527421D01*
X78364731Y-47525655D01*
X77870822Y-47401094D01*
X77862813Y-47398785D01*
X77378406Y-47241328D01*
X77370570Y-47238487D01*
X76897800Y-47048826D01*
X76890172Y-47045464D01*
X76431236Y-46824480D01*
X76423851Y-46820613D01*
X75980796Y-46569292D01*
X75973688Y-46564938D01*
X75548505Y-46284410D01*
X75541712Y-46279592D01*
X75136358Y-45971146D01*
X75129897Y-45965878D01*
X74746164Y-45630880D01*
X74740073Y-45625190D01*
X74433955Y-45319358D01*
X74401234Y-45261455D01*
X74403138Y-45194977D01*
X75133811Y-42834169D01*
X75166358Y-42781415D01*
X75220378Y-42751005D01*
X75282367Y-42750544D01*
X75336833Y-42780147D01*
G37*
G04 #@! TD.AperFunction*
M02*
