G04 #@! TF.GenerationSoftware,KiCad,Pcbnew,(7.0.0-0)*
G04 #@! TF.CreationDate,2023-05-05T13:57:00+08:00*
G04 #@! TF.ProjectId,Revolute,5265766f-6c75-4746-952e-6b696361645f,rev?*
G04 #@! TF.SameCoordinates,Original*
G04 #@! TF.FileFunction,Copper,L2,Inr*
G04 #@! TF.FilePolarity,Positive*
%FSLAX46Y46*%
G04 Gerber Fmt 4.6, Leading zero omitted, Abs format (unit mm)*
G04 Created by KiCad (PCBNEW (7.0.0-0)) date 2023-05-05 13:57:00*
%MOMM*%
%LPD*%
G01*
G04 APERTURE LIST*
G04 #@! TA.AperFunction,ViaPad*
%ADD10C,0.500000*%
G04 #@! TD*
G04 #@! TA.AperFunction,Conductor*
%ADD11C,0.250000*%
G04 #@! TD*
G04 #@! TA.AperFunction,Conductor*
%ADD12C,0.150000*%
G04 #@! TD*
G04 APERTURE END LIST*
D10*
X171700000Y-87700000D03*
X179140000Y-86190000D03*
X173560000Y-82500000D03*
X172700000Y-87700000D03*
X166480000Y-92050000D03*
X176270000Y-83220000D03*
X178470000Y-85070000D03*
X181700000Y-82800000D03*
X166490000Y-85320000D03*
X166490000Y-91020000D03*
X179392780Y-84952132D03*
X173700000Y-87700000D03*
X166490000Y-84300000D03*
X166480000Y-90030000D03*
X166480000Y-89010000D03*
X169370000Y-82460000D03*
X172490000Y-82500000D03*
X180870000Y-83480000D03*
X168180000Y-90150000D03*
X173920000Y-92510000D03*
X175120000Y-82460000D03*
X168570000Y-82470000D03*
X179980000Y-86040000D03*
X176562780Y-86812132D03*
X170730000Y-85290000D03*
X167480000Y-82930000D03*
X180100000Y-87050000D03*
X168190000Y-92840000D03*
X166610000Y-86480000D03*
X170270000Y-92840000D03*
X170300000Y-90160000D03*
X176370000Y-91055500D03*
X175380000Y-91260000D03*
X176980000Y-91442632D03*
X168720000Y-87720000D03*
X181860000Y-89870000D03*
X181760000Y-87960000D03*
X170330000Y-87710000D03*
D11*
X170730000Y-85290000D02*
X172888029Y-85290000D01*
X176562769Y-86812143D02*
G75*
G03*
X172888029Y-85290000I-3674769J-3674757D01*
G01*
X166610000Y-86480000D02*
X167670811Y-87540811D01*
X169579993Y-92150000D02*
G75*
G03*
X167670811Y-87540811I-6518393J0D01*
G01*
X169580000Y-92150000D02*
G75*
G03*
X170270000Y-92840000I690000J0D01*
G01*
D12*
X173910559Y-89870000D02*
X181860000Y-89870000D01*
X168720012Y-87719988D02*
G75*
G03*
X173910559Y-89870000I5190588J5190588D01*
G01*
X172044091Y-88420000D02*
X177090000Y-88420000D01*
X177090000Y-88420000D02*
X180649462Y-88420000D01*
X180649462Y-88419984D02*
G75*
G03*
X181760000Y-87960000I38J1570484D01*
G01*
X170330002Y-87709998D02*
G75*
G03*
X172044091Y-88420000I1714098J1714098D01*
G01*
G04 #@! TA.AperFunction,Conductor*
G36*
X168329882Y-82024633D02*
G01*
X168356764Y-82061634D01*
X168356763Y-82107369D01*
X168331645Y-82141937D01*
X168331658Y-82141950D01*
X168331577Y-82142030D01*
X168331574Y-82142033D01*
X168327545Y-82146062D01*
X168327542Y-82146065D01*
X168246069Y-82227538D01*
X168246066Y-82227541D01*
X168241950Y-82231658D01*
X168239305Y-82236847D01*
X168239304Y-82236850D01*
X168189449Y-82334696D01*
X168184354Y-82344696D01*
X168183442Y-82350447D01*
X168183442Y-82350451D01*
X168172714Y-82418187D01*
X168164508Y-82470000D01*
X168165419Y-82475752D01*
X168181858Y-82579548D01*
X168184354Y-82595304D01*
X168187000Y-82600497D01*
X168236094Y-82696850D01*
X168241950Y-82708342D01*
X168331658Y-82798050D01*
X168444696Y-82855646D01*
X168570000Y-82875492D01*
X168695304Y-82855646D01*
X168808342Y-82798050D01*
X168898050Y-82708342D01*
X168955646Y-82595304D01*
X168975492Y-82470000D01*
X168955646Y-82344696D01*
X168898050Y-82231658D01*
X168808342Y-82141950D01*
X168808354Y-82141937D01*
X168783237Y-82107369D01*
X168783236Y-82061634D01*
X168810118Y-82024633D01*
X168853615Y-82010500D01*
X174824456Y-82010500D01*
X174865568Y-82022971D01*
X174892823Y-82056181D01*
X174897034Y-82098937D01*
X174876782Y-82136826D01*
X174796069Y-82217538D01*
X174796066Y-82217541D01*
X174791950Y-82221658D01*
X174789305Y-82226847D01*
X174789304Y-82226850D01*
X174737000Y-82329502D01*
X174734354Y-82334696D01*
X174733442Y-82340447D01*
X174733442Y-82340451D01*
X174721130Y-82418187D01*
X174714508Y-82460000D01*
X174734354Y-82585304D01*
X174791950Y-82698342D01*
X174881658Y-82788050D01*
X174994696Y-82845646D01*
X175120000Y-82865492D01*
X175245304Y-82845646D01*
X175358342Y-82788050D01*
X175448050Y-82698342D01*
X175505646Y-82585304D01*
X175525492Y-82460000D01*
X175505646Y-82334696D01*
X175448050Y-82221658D01*
X175363218Y-82136826D01*
X175342966Y-82098937D01*
X175347177Y-82056181D01*
X175374432Y-82022971D01*
X175415544Y-82010500D01*
X182296588Y-82010500D01*
X182296773Y-82010500D01*
X182303222Y-82010782D01*
X182342078Y-82014181D01*
X182465374Y-82024968D01*
X182478067Y-82027205D01*
X182632177Y-82068498D01*
X182644297Y-82072910D01*
X182788889Y-82140335D01*
X182800050Y-82146779D01*
X182930734Y-82238285D01*
X182940615Y-82246576D01*
X183053423Y-82359384D01*
X183061714Y-82369265D01*
X183153217Y-82499944D01*
X183159667Y-82511115D01*
X183227089Y-82655703D01*
X183231501Y-82667824D01*
X183272792Y-82821924D01*
X183275031Y-82834627D01*
X183289218Y-82996777D01*
X183289500Y-83003227D01*
X183289500Y-92396773D01*
X183289218Y-92403223D01*
X183275031Y-92565372D01*
X183272792Y-92578075D01*
X183231501Y-92732175D01*
X183227089Y-92744296D01*
X183159667Y-92888884D01*
X183153217Y-92900055D01*
X183061714Y-93030734D01*
X183053423Y-93040615D01*
X182940615Y-93153423D01*
X182930734Y-93161714D01*
X182800055Y-93253217D01*
X182788884Y-93259667D01*
X182644296Y-93327089D01*
X182632175Y-93331501D01*
X182478075Y-93372792D01*
X182465372Y-93375031D01*
X182303223Y-93389218D01*
X182296773Y-93389500D01*
X170301029Y-93389500D01*
X170270000Y-93379954D01*
X170238971Y-93389500D01*
X168221029Y-93389500D01*
X168190000Y-93379954D01*
X168158971Y-93389500D01*
X167003227Y-93389500D01*
X166996777Y-93389218D01*
X166834627Y-93375031D01*
X166821924Y-93372792D01*
X166667824Y-93331501D01*
X166655703Y-93327089D01*
X166511115Y-93259667D01*
X166499944Y-93253217D01*
X166498120Y-93251940D01*
X166382091Y-93170695D01*
X166369265Y-93161714D01*
X166359384Y-93153423D01*
X166246576Y-93040615D01*
X166238285Y-93030734D01*
X166146779Y-92900050D01*
X166140335Y-92888889D01*
X166117538Y-92840000D01*
X167784508Y-92840000D01*
X167785419Y-92845752D01*
X167796464Y-92915492D01*
X167804354Y-92965304D01*
X167807000Y-92970497D01*
X167857511Y-93069631D01*
X167861950Y-93078342D01*
X167951658Y-93168050D01*
X168064696Y-93225646D01*
X168166484Y-93241767D01*
X168170547Y-93242411D01*
X168189999Y-93251940D01*
X168209453Y-93242411D01*
X168212558Y-93241919D01*
X168315304Y-93225646D01*
X168428342Y-93168050D01*
X168518050Y-93078342D01*
X168575646Y-92965304D01*
X168595492Y-92840000D01*
X168575646Y-92714696D01*
X168518050Y-92601658D01*
X168428342Y-92511950D01*
X168315304Y-92454354D01*
X168309550Y-92453442D01*
X168309548Y-92453442D01*
X168195752Y-92435419D01*
X168190000Y-92434508D01*
X168184248Y-92435419D01*
X168070451Y-92453442D01*
X168070447Y-92453442D01*
X168064696Y-92454354D01*
X168059504Y-92456999D01*
X168059502Y-92457000D01*
X167956850Y-92509304D01*
X167956847Y-92509305D01*
X167951658Y-92511950D01*
X167947541Y-92516066D01*
X167947538Y-92516069D01*
X167866069Y-92597538D01*
X167866066Y-92597541D01*
X167861950Y-92601658D01*
X167859305Y-92606847D01*
X167859304Y-92606850D01*
X167807000Y-92709502D01*
X167804354Y-92714696D01*
X167803442Y-92720447D01*
X167803442Y-92720451D01*
X167786300Y-92828687D01*
X167784508Y-92840000D01*
X166117538Y-92840000D01*
X166072910Y-92744296D01*
X166068498Y-92732175D01*
X166062123Y-92708383D01*
X166027205Y-92578067D01*
X166024968Y-92565371D01*
X166020294Y-92511950D01*
X166010782Y-92403222D01*
X166010500Y-92396773D01*
X166010500Y-90150000D01*
X167774508Y-90150000D01*
X167775419Y-90155752D01*
X167791384Y-90256557D01*
X167794354Y-90275304D01*
X167851950Y-90388342D01*
X167941658Y-90478050D01*
X168054696Y-90535646D01*
X168180000Y-90555492D01*
X168305304Y-90535646D01*
X168418342Y-90478050D01*
X168508050Y-90388342D01*
X168565646Y-90275304D01*
X168585492Y-90150000D01*
X168565646Y-90024696D01*
X168508050Y-89911658D01*
X168418342Y-89821950D01*
X168305304Y-89764354D01*
X168299550Y-89763442D01*
X168299548Y-89763442D01*
X168185752Y-89745419D01*
X168180000Y-89744508D01*
X168174248Y-89745419D01*
X168060451Y-89763442D01*
X168060447Y-89763442D01*
X168054696Y-89764354D01*
X168049504Y-89766999D01*
X168049502Y-89767000D01*
X167946850Y-89819304D01*
X167946847Y-89819305D01*
X167941658Y-89821950D01*
X167937541Y-89826066D01*
X167937538Y-89826069D01*
X167856069Y-89907538D01*
X167856066Y-89907541D01*
X167851950Y-89911658D01*
X167849305Y-89916847D01*
X167849304Y-89916850D01*
X167805342Y-90003130D01*
X167794354Y-90024696D01*
X167793442Y-90030447D01*
X167793442Y-90030451D01*
X167779707Y-90117174D01*
X167774508Y-90150000D01*
X166010500Y-90150000D01*
X166010500Y-86480000D01*
X166204508Y-86480000D01*
X166205419Y-86485752D01*
X166219362Y-86573790D01*
X166224354Y-86605304D01*
X166281950Y-86718342D01*
X166371658Y-86808050D01*
X166484696Y-86865646D01*
X166605115Y-86884718D01*
X166645865Y-86905481D01*
X167475073Y-87734689D01*
X167476907Y-87736590D01*
X167517928Y-87780650D01*
X167690263Y-87965752D01*
X167777865Y-88059843D01*
X167781324Y-88063834D01*
X167787196Y-88071120D01*
X168057648Y-88406732D01*
X168060813Y-88410961D01*
X168311954Y-88772674D01*
X168314810Y-88777118D01*
X168539508Y-89155829D01*
X168542040Y-89160465D01*
X168739160Y-89554261D01*
X168741354Y-89559067D01*
X168764250Y-89614343D01*
X168891543Y-89921658D01*
X168909867Y-89965895D01*
X168911710Y-89970837D01*
X168922459Y-90003130D01*
X169050778Y-90388672D01*
X169052266Y-90393740D01*
X169161170Y-90820420D01*
X169162293Y-90825582D01*
X169240480Y-91258942D01*
X169241232Y-91264171D01*
X169288304Y-91702008D01*
X169288681Y-91707277D01*
X169304453Y-92148880D01*
X169304500Y-92151521D01*
X169304500Y-92234470D01*
X169305060Y-92237648D01*
X169305061Y-92237655D01*
X169333118Y-92396773D01*
X169333836Y-92400844D01*
X169334942Y-92403884D01*
X169334943Y-92403886D01*
X169365484Y-92487796D01*
X169391617Y-92559597D01*
X169476088Y-92705903D01*
X169584681Y-92835319D01*
X169714097Y-92943912D01*
X169860403Y-93028383D01*
X169902190Y-93043592D01*
X169936747Y-93069631D01*
X169939306Y-93073153D01*
X169941950Y-93078342D01*
X170031658Y-93168050D01*
X170144696Y-93225646D01*
X170246484Y-93241767D01*
X170250547Y-93242411D01*
X170269999Y-93251940D01*
X170289453Y-93242411D01*
X170292558Y-93241919D01*
X170395304Y-93225646D01*
X170508342Y-93168050D01*
X170598050Y-93078342D01*
X170655646Y-92965304D01*
X170675492Y-92840000D01*
X170655646Y-92714696D01*
X170598050Y-92601658D01*
X170508342Y-92511950D01*
X170504515Y-92510000D01*
X173514508Y-92510000D01*
X173515419Y-92515752D01*
X173528372Y-92597538D01*
X173534354Y-92635304D01*
X173591950Y-92748342D01*
X173681658Y-92838050D01*
X173794696Y-92895646D01*
X173920000Y-92915492D01*
X174045304Y-92895646D01*
X174158342Y-92838050D01*
X174248050Y-92748342D01*
X174305646Y-92635304D01*
X174325492Y-92510000D01*
X174305646Y-92384696D01*
X174248050Y-92271658D01*
X174158342Y-92181950D01*
X174045304Y-92124354D01*
X174039550Y-92123442D01*
X174039548Y-92123442D01*
X173925752Y-92105419D01*
X173920000Y-92104508D01*
X173914248Y-92105419D01*
X173800451Y-92123442D01*
X173800447Y-92123442D01*
X173794696Y-92124354D01*
X173789504Y-92126999D01*
X173789502Y-92127000D01*
X173686850Y-92179304D01*
X173686847Y-92179305D01*
X173681658Y-92181950D01*
X173677541Y-92186066D01*
X173677538Y-92186069D01*
X173596069Y-92267538D01*
X173596066Y-92267541D01*
X173591950Y-92271658D01*
X173589305Y-92276847D01*
X173589304Y-92276850D01*
X173537000Y-92379502D01*
X173534354Y-92384696D01*
X173533442Y-92390447D01*
X173533442Y-92390451D01*
X173526320Y-92435419D01*
X173514508Y-92510000D01*
X170504515Y-92510000D01*
X170395304Y-92454354D01*
X170389550Y-92453442D01*
X170389548Y-92453442D01*
X170275752Y-92435419D01*
X170270000Y-92434508D01*
X170264248Y-92435419D01*
X170150449Y-92453442D01*
X170150444Y-92453443D01*
X170144696Y-92454354D01*
X170139509Y-92456996D01*
X170139502Y-92456999D01*
X170094277Y-92480042D01*
X170053911Y-92487796D01*
X170015635Y-92472815D01*
X169984631Y-92449025D01*
X169970973Y-92435367D01*
X169970314Y-92434508D01*
X169916957Y-92364972D01*
X169907305Y-92348253D01*
X169873351Y-92266279D01*
X169868352Y-92247622D01*
X169856133Y-92154808D01*
X169855500Y-92145149D01*
X169855500Y-92101462D01*
X169855500Y-92101422D01*
X169855495Y-92101409D01*
X169855493Y-92101383D01*
X169855493Y-91908691D01*
X169855493Y-91907356D01*
X169820873Y-91423305D01*
X169797393Y-91260000D01*
X174974508Y-91260000D01*
X174975419Y-91265752D01*
X174993423Y-91379430D01*
X174994354Y-91385304D01*
X175051950Y-91498342D01*
X175141658Y-91588050D01*
X175254696Y-91645646D01*
X175380000Y-91665492D01*
X175505304Y-91645646D01*
X175618342Y-91588050D01*
X175708050Y-91498342D01*
X175765646Y-91385304D01*
X175785492Y-91260000D01*
X175765646Y-91134696D01*
X175725293Y-91055500D01*
X175964508Y-91055500D01*
X175965419Y-91061252D01*
X175976228Y-91129502D01*
X175984354Y-91180804D01*
X176041950Y-91293842D01*
X176131658Y-91383550D01*
X176244696Y-91441146D01*
X176370000Y-91460992D01*
X176495304Y-91441146D01*
X176495503Y-91442408D01*
X176529873Y-91441503D01*
X176565718Y-91463465D01*
X176583817Y-91501408D01*
X176594354Y-91567936D01*
X176651950Y-91680974D01*
X176741658Y-91770682D01*
X176854696Y-91828278D01*
X176980000Y-91848124D01*
X177105304Y-91828278D01*
X177218342Y-91770682D01*
X177308050Y-91680974D01*
X177365646Y-91567936D01*
X177385492Y-91442632D01*
X177365646Y-91317328D01*
X177308050Y-91204290D01*
X177218342Y-91114582D01*
X177105304Y-91056986D01*
X177099550Y-91056074D01*
X177099548Y-91056074D01*
X176985752Y-91038051D01*
X176980000Y-91037140D01*
X176974248Y-91038051D01*
X176854696Y-91056986D01*
X176854496Y-91055727D01*
X176820111Y-91056624D01*
X176784275Y-91034660D01*
X176766182Y-90996723D01*
X176755646Y-90930196D01*
X176698050Y-90817158D01*
X176608342Y-90727450D01*
X176495304Y-90669854D01*
X176489550Y-90668942D01*
X176489548Y-90668942D01*
X176375752Y-90650919D01*
X176370000Y-90650008D01*
X176364248Y-90650919D01*
X176250451Y-90668942D01*
X176250447Y-90668942D01*
X176244696Y-90669854D01*
X176239504Y-90672499D01*
X176239502Y-90672500D01*
X176136850Y-90724804D01*
X176136847Y-90724805D01*
X176131658Y-90727450D01*
X176127541Y-90731566D01*
X176127538Y-90731569D01*
X176046069Y-90813038D01*
X176046066Y-90813041D01*
X176041950Y-90817158D01*
X176039305Y-90822347D01*
X176039304Y-90822350D01*
X175987000Y-90925002D01*
X175984354Y-90930196D01*
X175983442Y-90935947D01*
X175983442Y-90935951D01*
X175969868Y-91021658D01*
X175964508Y-91055500D01*
X175725293Y-91055500D01*
X175708050Y-91021658D01*
X175618342Y-90931950D01*
X175505304Y-90874354D01*
X175499550Y-90873442D01*
X175499548Y-90873442D01*
X175385752Y-90855419D01*
X175380000Y-90854508D01*
X175374248Y-90855419D01*
X175260451Y-90873442D01*
X175260447Y-90873442D01*
X175254696Y-90874354D01*
X175249504Y-90876999D01*
X175249502Y-90877000D01*
X175146850Y-90929304D01*
X175146847Y-90929305D01*
X175141658Y-90931950D01*
X175137541Y-90936066D01*
X175137538Y-90936069D01*
X175056069Y-91017538D01*
X175056066Y-91017541D01*
X175051950Y-91021658D01*
X175049305Y-91026847D01*
X175049304Y-91026850D01*
X174997000Y-91129502D01*
X174994354Y-91134696D01*
X174993442Y-91140447D01*
X174993442Y-91140451D01*
X174982509Y-91209482D01*
X174974508Y-91260000D01*
X169797393Y-91260000D01*
X169751810Y-90942957D01*
X169648655Y-90468760D01*
X169557995Y-90160000D01*
X169894508Y-90160000D01*
X169895419Y-90165752D01*
X169912655Y-90274581D01*
X169914354Y-90285304D01*
X169971950Y-90398342D01*
X170061658Y-90488050D01*
X170174696Y-90545646D01*
X170300000Y-90565492D01*
X170425304Y-90545646D01*
X170538342Y-90488050D01*
X170628050Y-90398342D01*
X170685646Y-90285304D01*
X170705492Y-90160000D01*
X170685646Y-90034696D01*
X170628050Y-89921658D01*
X170538342Y-89831950D01*
X170425304Y-89774354D01*
X170419550Y-89773442D01*
X170419548Y-89773442D01*
X170305752Y-89755419D01*
X170300000Y-89754508D01*
X170294248Y-89755419D01*
X170180451Y-89773442D01*
X170180447Y-89773442D01*
X170174696Y-89774354D01*
X170169504Y-89776999D01*
X170169502Y-89777000D01*
X170066850Y-89829304D01*
X170066847Y-89829305D01*
X170061658Y-89831950D01*
X170057541Y-89836066D01*
X170057538Y-89836069D01*
X169976069Y-89917538D01*
X169976066Y-89917541D01*
X169971950Y-89921658D01*
X169969305Y-89926847D01*
X169969304Y-89926850D01*
X169919449Y-90024696D01*
X169914354Y-90034696D01*
X169913442Y-90040447D01*
X169913442Y-90040451D01*
X169903512Y-90103149D01*
X169894508Y-90160000D01*
X169557995Y-90160000D01*
X169511934Y-90003130D01*
X169342344Y-89548439D01*
X169165163Y-89160465D01*
X169141296Y-89108203D01*
X169141292Y-89108195D01*
X169140749Y-89107006D01*
X168908176Y-88681079D01*
X168692607Y-88345646D01*
X168646526Y-88273943D01*
X168646524Y-88273941D01*
X168645810Y-88272829D01*
X168619959Y-88238296D01*
X168605293Y-88197648D01*
X168615832Y-88155738D01*
X168647982Y-88126860D01*
X168690775Y-88120863D01*
X168720000Y-88125492D01*
X168767514Y-88117966D01*
X168799637Y-88119966D01*
X168827877Y-88135418D01*
X169108142Y-88381204D01*
X169501148Y-88682769D01*
X169913035Y-88957984D01*
X170342041Y-89205671D01*
X170786327Y-89424771D01*
X170936560Y-89487000D01*
X171110544Y-89559067D01*
X171243992Y-89614343D01*
X171713075Y-89773577D01*
X172191569Y-89901791D01*
X172192767Y-89902029D01*
X172192770Y-89902030D01*
X172220460Y-89907538D01*
X172677423Y-89998436D01*
X173168558Y-90063097D01*
X173662871Y-90095499D01*
X173862622Y-90095499D01*
X173862626Y-90095499D01*
X173862627Y-90095500D01*
X173910558Y-90095500D01*
X181488456Y-90095500D01*
X181516775Y-90101133D01*
X181540782Y-90117174D01*
X181621658Y-90198050D01*
X181734696Y-90255646D01*
X181860000Y-90275492D01*
X181985304Y-90255646D01*
X182098342Y-90198050D01*
X182188050Y-90108342D01*
X182245646Y-89995304D01*
X182265492Y-89870000D01*
X182245646Y-89744696D01*
X182188050Y-89631658D01*
X182098342Y-89541950D01*
X181985304Y-89484354D01*
X181979550Y-89483442D01*
X181979548Y-89483442D01*
X181865752Y-89465419D01*
X181860000Y-89464508D01*
X181854248Y-89465419D01*
X181740451Y-89483442D01*
X181740447Y-89483442D01*
X181734696Y-89484354D01*
X181729504Y-89486999D01*
X181729502Y-89487000D01*
X181626850Y-89539304D01*
X181626847Y-89539305D01*
X181621658Y-89541950D01*
X181617541Y-89546066D01*
X181617538Y-89546069D01*
X181540782Y-89622826D01*
X181516775Y-89638867D01*
X181488456Y-89644500D01*
X173911886Y-89644500D01*
X173909244Y-89644453D01*
X173405618Y-89626463D01*
X173400349Y-89626086D01*
X172900607Y-89572356D01*
X172895379Y-89571604D01*
X172400748Y-89482361D01*
X172395586Y-89481238D01*
X171908582Y-89356934D01*
X171903514Y-89355446D01*
X171426618Y-89196718D01*
X171421668Y-89194872D01*
X170957310Y-89002528D01*
X170952505Y-89000334D01*
X170503040Y-88775347D01*
X170498404Y-88772815D01*
X170498166Y-88772674D01*
X170066149Y-88516345D01*
X170061705Y-88513489D01*
X169648843Y-88226833D01*
X169644614Y-88223667D01*
X169253256Y-87908289D01*
X169249264Y-87904830D01*
X169144710Y-87807487D01*
X169125176Y-87777445D01*
X169122047Y-87741747D01*
X169124581Y-87725753D01*
X169124581Y-87725751D01*
X169125492Y-87720000D01*
X169123908Y-87710000D01*
X169924508Y-87710000D01*
X169944354Y-87835304D01*
X170001950Y-87948342D01*
X170091658Y-88038050D01*
X170204696Y-88095646D01*
X170330000Y-88115492D01*
X170399867Y-88104426D01*
X170430327Y-88105965D01*
X170457581Y-88119659D01*
X170508435Y-88160214D01*
X170510186Y-88161314D01*
X170510190Y-88161317D01*
X170545171Y-88183297D01*
X170760416Y-88318544D01*
X171028540Y-88447667D01*
X171309435Y-88545957D01*
X171599569Y-88612179D01*
X171895293Y-88645500D01*
X171996159Y-88645500D01*
X172044090Y-88645500D01*
X172088945Y-88645500D01*
X177042068Y-88645500D01*
X177113702Y-88645500D01*
X180649457Y-88645500D01*
X180673020Y-88645500D01*
X180673164Y-88645500D01*
X180673211Y-88645489D01*
X180673310Y-88645484D01*
X180767175Y-88645487D01*
X181000599Y-88614761D01*
X181228015Y-88553829D01*
X181445532Y-88463734D01*
X181624067Y-88360657D01*
X181672640Y-88351655D01*
X181760000Y-88365492D01*
X181885304Y-88345646D01*
X181998342Y-88288050D01*
X182088050Y-88198342D01*
X182145646Y-88085304D01*
X182165492Y-87960000D01*
X182145646Y-87834696D01*
X182088050Y-87721658D01*
X181998342Y-87631950D01*
X181885304Y-87574354D01*
X181879550Y-87573442D01*
X181879548Y-87573442D01*
X181765752Y-87555419D01*
X181760000Y-87554508D01*
X181754248Y-87555419D01*
X181640451Y-87573442D01*
X181640447Y-87573442D01*
X181634696Y-87574354D01*
X181629504Y-87576999D01*
X181629502Y-87577000D01*
X181526850Y-87629304D01*
X181526847Y-87629305D01*
X181521658Y-87631950D01*
X181517541Y-87636066D01*
X181517538Y-87636069D01*
X181436069Y-87717538D01*
X181436066Y-87717541D01*
X181431950Y-87721658D01*
X181429305Y-87726847D01*
X181429304Y-87726850D01*
X181377000Y-87829502D01*
X181374354Y-87834696D01*
X181373442Y-87840447D01*
X181373442Y-87840451D01*
X181354508Y-87960000D01*
X181353136Y-87959782D01*
X181344260Y-87990869D01*
X181314147Y-88018160D01*
X181168539Y-88089963D01*
X181159597Y-88093667D01*
X181002178Y-88147101D01*
X180992827Y-88149606D01*
X180829790Y-88182033D01*
X180820193Y-88183297D01*
X180651635Y-88194341D01*
X180646797Y-88194499D01*
X180604619Y-88194499D01*
X180604618Y-88194499D01*
X180604613Y-88194499D01*
X180604611Y-88194500D01*
X177137932Y-88194500D01*
X172046176Y-88194500D01*
X172042027Y-88194384D01*
X172029879Y-88193701D01*
X171802069Y-88180907D01*
X171793823Y-88179977D01*
X171558961Y-88140071D01*
X171550871Y-88138225D01*
X171321936Y-88072270D01*
X171314103Y-88069529D01*
X171094000Y-87978359D01*
X171086524Y-87974759D01*
X170878005Y-87859515D01*
X170870978Y-87855099D01*
X170765758Y-87780440D01*
X170742836Y-87754056D01*
X170734581Y-87720091D01*
X170734581Y-87715752D01*
X170735492Y-87710000D01*
X170715646Y-87584696D01*
X170658050Y-87471658D01*
X170568342Y-87381950D01*
X170455304Y-87324354D01*
X170449550Y-87323442D01*
X170449548Y-87323442D01*
X170335752Y-87305419D01*
X170330000Y-87304508D01*
X170324248Y-87305419D01*
X170210451Y-87323442D01*
X170210447Y-87323442D01*
X170204696Y-87324354D01*
X170199504Y-87326999D01*
X170199502Y-87327000D01*
X170096850Y-87379304D01*
X170096847Y-87379305D01*
X170091658Y-87381950D01*
X170087541Y-87386066D01*
X170087538Y-87386069D01*
X170006069Y-87467538D01*
X170006066Y-87467541D01*
X170001950Y-87471658D01*
X169999305Y-87476847D01*
X169999304Y-87476850D01*
X169948275Y-87577000D01*
X169944354Y-87584696D01*
X169943442Y-87590447D01*
X169943442Y-87590451D01*
X169936217Y-87636069D01*
X169924508Y-87710000D01*
X169123908Y-87710000D01*
X169105646Y-87594696D01*
X169048050Y-87481658D01*
X168958342Y-87391950D01*
X168845304Y-87334354D01*
X168839550Y-87333442D01*
X168839548Y-87333442D01*
X168725752Y-87315419D01*
X168720000Y-87314508D01*
X168714248Y-87315419D01*
X168600451Y-87333442D01*
X168600447Y-87333442D01*
X168594696Y-87334354D01*
X168589504Y-87336999D01*
X168589502Y-87337000D01*
X168486850Y-87389304D01*
X168486847Y-87389305D01*
X168481658Y-87391950D01*
X168477541Y-87396066D01*
X168477538Y-87396069D01*
X168396069Y-87477538D01*
X168396066Y-87477541D01*
X168391950Y-87481658D01*
X168389305Y-87486847D01*
X168389304Y-87486850D01*
X168339449Y-87584696D01*
X168334354Y-87594696D01*
X168333443Y-87600446D01*
X168333442Y-87600450D01*
X168323634Y-87662375D01*
X168305948Y-87699854D01*
X168270885Y-87721948D01*
X168229443Y-87721725D01*
X168194619Y-87699258D01*
X168099515Y-87589502D01*
X168037194Y-87517579D01*
X167884807Y-87365192D01*
X167884805Y-87365189D01*
X167035481Y-86515865D01*
X167014718Y-86475115D01*
X167014581Y-86474248D01*
X166995646Y-86354696D01*
X166938050Y-86241658D01*
X166848342Y-86151950D01*
X166735304Y-86094354D01*
X166729550Y-86093442D01*
X166729548Y-86093442D01*
X166615752Y-86075419D01*
X166610000Y-86074508D01*
X166604248Y-86075419D01*
X166490451Y-86093442D01*
X166490447Y-86093442D01*
X166484696Y-86094354D01*
X166479504Y-86096999D01*
X166479502Y-86097000D01*
X166376850Y-86149304D01*
X166376847Y-86149305D01*
X166371658Y-86151950D01*
X166367541Y-86156066D01*
X166367538Y-86156069D01*
X166286069Y-86237538D01*
X166286066Y-86237541D01*
X166281950Y-86241658D01*
X166279305Y-86246847D01*
X166279304Y-86246850D01*
X166256126Y-86292340D01*
X166224354Y-86354696D01*
X166223442Y-86360447D01*
X166223442Y-86360451D01*
X166210118Y-86444581D01*
X166204508Y-86480000D01*
X166010500Y-86480000D01*
X166010500Y-85290000D01*
X170324508Y-85290000D01*
X170344354Y-85415304D01*
X170401950Y-85528342D01*
X170491658Y-85618050D01*
X170604696Y-85675646D01*
X170730000Y-85695492D01*
X170855304Y-85675646D01*
X170968342Y-85618050D01*
X170999218Y-85587174D01*
X171023225Y-85571133D01*
X171051544Y-85565500D01*
X172839449Y-85565500D01*
X172886572Y-85565500D01*
X172889477Y-85565557D01*
X172899025Y-85565932D01*
X173271270Y-85580559D01*
X173277021Y-85581012D01*
X173655016Y-85625752D01*
X173660748Y-85626660D01*
X174034052Y-85700917D01*
X174039680Y-85702268D01*
X174406028Y-85805591D01*
X174411541Y-85807383D01*
X174768641Y-85939124D01*
X174773991Y-85941341D01*
X175119650Y-86100694D01*
X175124796Y-86103315D01*
X175364466Y-86237538D01*
X175456900Y-86289304D01*
X175461854Y-86292340D01*
X175778322Y-86503798D01*
X175783023Y-86507214D01*
X176081915Y-86742843D01*
X176086333Y-86746616D01*
X176138457Y-86794799D01*
X176161315Y-86837562D01*
X176176027Y-86930451D01*
X176177134Y-86937436D01*
X176234730Y-87050474D01*
X176324438Y-87140182D01*
X176437476Y-87197778D01*
X176562780Y-87217624D01*
X176688084Y-87197778D01*
X176801122Y-87140182D01*
X176890830Y-87050474D01*
X176891072Y-87050000D01*
X179694508Y-87050000D01*
X179695419Y-87055752D01*
X179708138Y-87136062D01*
X179714354Y-87175304D01*
X179771950Y-87288342D01*
X179861658Y-87378050D01*
X179974696Y-87435646D01*
X180100000Y-87455492D01*
X180225304Y-87435646D01*
X180338342Y-87378050D01*
X180428050Y-87288342D01*
X180485646Y-87175304D01*
X180505492Y-87050000D01*
X180485646Y-86924696D01*
X180428050Y-86811658D01*
X180338342Y-86721950D01*
X180225304Y-86664354D01*
X180219550Y-86663442D01*
X180219548Y-86663442D01*
X180105752Y-86645419D01*
X180100000Y-86644508D01*
X180094248Y-86645419D01*
X179980451Y-86663442D01*
X179980447Y-86663442D01*
X179974696Y-86664354D01*
X179969504Y-86666999D01*
X179969502Y-86667000D01*
X179866850Y-86719304D01*
X179866847Y-86719305D01*
X179861658Y-86721950D01*
X179857541Y-86726066D01*
X179857538Y-86726069D01*
X179776069Y-86807538D01*
X179776066Y-86807541D01*
X179771950Y-86811658D01*
X179769305Y-86816847D01*
X179769304Y-86816850D01*
X179717000Y-86919502D01*
X179714354Y-86924696D01*
X179713442Y-86930447D01*
X179713442Y-86930451D01*
X179695419Y-87044248D01*
X179694508Y-87050000D01*
X176891072Y-87050000D01*
X176948426Y-86937436D01*
X176968272Y-86812132D01*
X176948426Y-86686828D01*
X176890830Y-86573790D01*
X176801122Y-86484082D01*
X176688084Y-86426486D01*
X176682330Y-86425574D01*
X176682328Y-86425574D01*
X176568532Y-86407551D01*
X176562780Y-86406640D01*
X176561372Y-86406862D01*
X176539613Y-86402977D01*
X176517167Y-86389821D01*
X176279673Y-86186980D01*
X176279664Y-86186973D01*
X176278553Y-86186024D01*
X176277367Y-86185162D01*
X176277359Y-86185156D01*
X176077570Y-86040000D01*
X179574508Y-86040000D01*
X179575419Y-86045752D01*
X179584119Y-86100686D01*
X179594354Y-86165304D01*
X179651950Y-86278342D01*
X179741658Y-86368050D01*
X179854696Y-86425646D01*
X179980000Y-86445492D01*
X180105304Y-86425646D01*
X180218342Y-86368050D01*
X180308050Y-86278342D01*
X180365646Y-86165304D01*
X180385492Y-86040000D01*
X180365646Y-85914696D01*
X180308050Y-85801658D01*
X180218342Y-85711950D01*
X180105304Y-85654354D01*
X180099550Y-85653442D01*
X180099548Y-85653442D01*
X179985752Y-85635419D01*
X179980000Y-85634508D01*
X179974248Y-85635419D01*
X179860451Y-85653442D01*
X179860447Y-85653442D01*
X179854696Y-85654354D01*
X179849504Y-85656999D01*
X179849502Y-85657000D01*
X179746850Y-85709304D01*
X179746847Y-85709305D01*
X179741658Y-85711950D01*
X179737541Y-85716066D01*
X179737538Y-85716069D01*
X179656069Y-85797538D01*
X179656066Y-85797541D01*
X179651950Y-85801658D01*
X179649305Y-85806847D01*
X179649304Y-85806850D01*
X179597000Y-85909502D01*
X179594354Y-85914696D01*
X179593442Y-85920447D01*
X179593442Y-85920451D01*
X179591534Y-85932498D01*
X179574508Y-86040000D01*
X176077570Y-86040000D01*
X175931843Y-85934122D01*
X175931834Y-85934116D01*
X175930660Y-85933263D01*
X175929428Y-85932508D01*
X175929413Y-85932498D01*
X175565266Y-85709348D01*
X175565267Y-85709348D01*
X175564008Y-85708577D01*
X175180858Y-85513351D01*
X175179526Y-85512799D01*
X175179519Y-85512796D01*
X174930258Y-85409548D01*
X174783572Y-85348788D01*
X174782205Y-85348344D01*
X174782192Y-85348339D01*
X174375982Y-85216352D01*
X174375973Y-85216349D01*
X174374599Y-85215903D01*
X174373179Y-85215562D01*
X173957879Y-85115855D01*
X173957868Y-85115852D01*
X173956461Y-85115515D01*
X173955038Y-85115289D01*
X173955025Y-85115287D01*
X173533170Y-85048470D01*
X173533162Y-85048469D01*
X173531735Y-85048243D01*
X173530309Y-85048130D01*
X173530286Y-85048128D01*
X173104487Y-85014614D01*
X173104466Y-85014613D01*
X173103041Y-85014501D01*
X173101613Y-85014500D01*
X173101588Y-85014500D01*
X172915162Y-85014500D01*
X171051544Y-85014500D01*
X171023225Y-85008867D01*
X170999218Y-84992826D01*
X170972461Y-84966069D01*
X170968342Y-84961950D01*
X170855304Y-84904354D01*
X170849550Y-84903442D01*
X170849548Y-84903442D01*
X170735752Y-84885419D01*
X170730000Y-84884508D01*
X170724248Y-84885419D01*
X170610451Y-84903442D01*
X170610447Y-84903442D01*
X170604696Y-84904354D01*
X170599504Y-84906999D01*
X170599502Y-84907000D01*
X170496850Y-84959304D01*
X170496847Y-84959305D01*
X170491658Y-84961950D01*
X170487541Y-84966066D01*
X170487538Y-84966069D01*
X170406069Y-85047538D01*
X170406066Y-85047541D01*
X170401950Y-85051658D01*
X170399305Y-85056847D01*
X170399304Y-85056850D01*
X170347000Y-85159502D01*
X170344354Y-85164696D01*
X170343442Y-85170447D01*
X170343442Y-85170451D01*
X170325419Y-85284248D01*
X170324508Y-85290000D01*
X166010500Y-85290000D01*
X166010500Y-83480000D01*
X180464508Y-83480000D01*
X180484354Y-83605304D01*
X180541950Y-83718342D01*
X180631658Y-83808050D01*
X180744696Y-83865646D01*
X180870000Y-83885492D01*
X180995304Y-83865646D01*
X181108342Y-83808050D01*
X181198050Y-83718342D01*
X181255646Y-83605304D01*
X181275492Y-83480000D01*
X181255646Y-83354696D01*
X181198050Y-83241658D01*
X181108342Y-83151950D01*
X180995304Y-83094354D01*
X180989550Y-83093442D01*
X180989548Y-83093442D01*
X180875752Y-83075419D01*
X180870000Y-83074508D01*
X180864248Y-83075419D01*
X180750451Y-83093442D01*
X180750447Y-83093442D01*
X180744696Y-83094354D01*
X180739504Y-83096999D01*
X180739502Y-83097000D01*
X180636850Y-83149304D01*
X180636847Y-83149305D01*
X180631658Y-83151950D01*
X180627541Y-83156066D01*
X180627538Y-83156069D01*
X180546069Y-83237538D01*
X180546066Y-83237541D01*
X180541950Y-83241658D01*
X180539305Y-83246847D01*
X180539304Y-83246850D01*
X180487000Y-83349502D01*
X180484354Y-83354696D01*
X180483442Y-83360447D01*
X180483442Y-83360451D01*
X180465419Y-83474248D01*
X180464508Y-83480000D01*
X166010500Y-83480000D01*
X166010500Y-83003227D01*
X166010782Y-82996778D01*
X166016624Y-82930000D01*
X167074508Y-82930000D01*
X167094354Y-83055304D01*
X167151950Y-83168342D01*
X167241658Y-83258050D01*
X167354696Y-83315646D01*
X167480000Y-83335492D01*
X167605304Y-83315646D01*
X167718342Y-83258050D01*
X167808050Y-83168342D01*
X167865646Y-83055304D01*
X167885492Y-82930000D01*
X167865646Y-82804696D01*
X167808050Y-82691658D01*
X167718342Y-82601950D01*
X167605304Y-82544354D01*
X167599550Y-82543442D01*
X167599548Y-82543442D01*
X167485752Y-82525419D01*
X167480000Y-82524508D01*
X167474248Y-82525419D01*
X167360451Y-82543442D01*
X167360447Y-82543442D01*
X167354696Y-82544354D01*
X167349504Y-82546999D01*
X167349502Y-82547000D01*
X167246850Y-82599304D01*
X167246847Y-82599305D01*
X167241658Y-82601950D01*
X167237541Y-82606066D01*
X167237538Y-82606069D01*
X167156069Y-82687538D01*
X167156066Y-82687541D01*
X167151950Y-82691658D01*
X167149305Y-82696847D01*
X167149304Y-82696850D01*
X167097740Y-82798050D01*
X167094354Y-82804696D01*
X167093442Y-82810447D01*
X167093442Y-82810451D01*
X167086284Y-82855646D01*
X167074508Y-82930000D01*
X166016624Y-82930000D01*
X166024968Y-82834623D01*
X166027205Y-82821934D01*
X166068500Y-82667818D01*
X166072910Y-82655703D01*
X166096055Y-82606069D01*
X166140337Y-82511105D01*
X166146775Y-82499954D01*
X166238289Y-82369259D01*
X166246570Y-82359390D01*
X166359390Y-82246570D01*
X166369259Y-82238289D01*
X166499954Y-82146775D01*
X166511105Y-82140337D01*
X166655705Y-82072908D01*
X166667818Y-82068500D01*
X166821934Y-82027205D01*
X166834623Y-82024968D01*
X166964305Y-82013622D01*
X166996778Y-82010782D01*
X167003227Y-82010500D01*
X167003412Y-82010500D01*
X168286385Y-82010500D01*
X168329882Y-82024633D01*
G37*
G04 #@! TD.AperFunction*
M02*
