G04 #@! TF.GenerationSoftware,KiCad,Pcbnew,(7.0.0-0)*
G04 #@! TF.CreationDate,2023-05-05T13:57:00+08:00*
G04 #@! TF.ProjectId,Revolute,5265766f-6c75-4746-952e-6b696361645f,rev?*
G04 #@! TF.SameCoordinates,Original*
G04 #@! TF.FileFunction,Copper,L1,Top*
G04 #@! TF.FilePolarity,Positive*
%FSLAX46Y46*%
G04 Gerber Fmt 4.6, Leading zero omitted, Abs format (unit mm)*
G04 Created by KiCad (PCBNEW (7.0.0-0)) date 2023-05-05 13:57:00*
%MOMM*%
%LPD*%
G01*
G04 APERTURE LIST*
G04 Aperture macros list*
%AMRoundRect*
0 Rectangle with rounded corners*
0 $1 Rounding radius*
0 $2 $3 $4 $5 $6 $7 $8 $9 X,Y pos of 4 corners*
0 Add a 4 corners polygon primitive as box body*
4,1,4,$2,$3,$4,$5,$6,$7,$8,$9,$2,$3,0*
0 Add four circle primitives for the rounded corners*
1,1,$1+$1,$2,$3*
1,1,$1+$1,$4,$5*
1,1,$1+$1,$6,$7*
1,1,$1+$1,$8,$9*
0 Add four rect primitives between the rounded corners*
20,1,$1+$1,$2,$3,$4,$5,0*
20,1,$1+$1,$4,$5,$6,$7,0*
20,1,$1+$1,$6,$7,$8,$9,0*
20,1,$1+$1,$8,$9,$2,$3,0*%
G04 Aperture macros list end*
G04 #@! TA.AperFunction,SMDPad,CuDef*
%ADD10RoundRect,0.135000X-0.135000X-0.185000X0.135000X-0.185000X0.135000X0.185000X-0.135000X0.185000X0*%
G04 #@! TD*
G04 #@! TA.AperFunction,SMDPad,CuDef*
%ADD11RoundRect,0.140000X-0.170000X0.140000X-0.170000X-0.140000X0.170000X-0.140000X0.170000X0.140000X0*%
G04 #@! TD*
G04 #@! TA.AperFunction,SMDPad,CuDef*
%ADD12RoundRect,0.140000X0.170000X-0.140000X0.170000X0.140000X-0.170000X0.140000X-0.170000X-0.140000X0*%
G04 #@! TD*
G04 #@! TA.AperFunction,SMDPad,CuDef*
%ADD13RoundRect,0.140000X0.140000X0.170000X-0.140000X0.170000X-0.140000X-0.170000X0.140000X-0.170000X0*%
G04 #@! TD*
G04 #@! TA.AperFunction,SMDPad,CuDef*
%ADD14RoundRect,0.147500X-0.172500X0.147500X-0.172500X-0.147500X0.172500X-0.147500X0.172500X0.147500X0*%
G04 #@! TD*
G04 #@! TA.AperFunction,SMDPad,CuDef*
%ADD15RoundRect,0.147500X0.172500X-0.147500X0.172500X0.147500X-0.172500X0.147500X-0.172500X-0.147500X0*%
G04 #@! TD*
G04 #@! TA.AperFunction,SMDPad,CuDef*
%ADD16RoundRect,0.150000X-0.350000X-0.300000X0.350000X-0.300000X0.350000X0.300000X-0.350000X0.300000X0*%
G04 #@! TD*
G04 #@! TA.AperFunction,SMDPad,CuDef*
%ADD17RoundRect,0.140000X-0.140000X-0.170000X0.140000X-0.170000X0.140000X0.170000X-0.140000X0.170000X0*%
G04 #@! TD*
G04 #@! TA.AperFunction,SMDPad,CuDef*
%ADD18C,0.250000*%
G04 #@! TD*
G04 #@! TA.AperFunction,SMDPad,CuDef*
%ADD19R,4.000000X4.000000*%
G04 #@! TD*
G04 #@! TA.AperFunction,SMDPad,CuDef*
%ADD20RoundRect,0.218750X-0.256250X0.218750X-0.256250X-0.218750X0.256250X-0.218750X0.256250X0.218750X0*%
G04 #@! TD*
G04 #@! TA.AperFunction,SMDPad,CuDef*
%ADD21RoundRect,0.250000X-0.250000X-0.250000X0.250000X-0.250000X0.250000X0.250000X-0.250000X0.250000X0*%
G04 #@! TD*
G04 #@! TA.AperFunction,SMDPad,CuDef*
%ADD22R,1.100000X0.600000*%
G04 #@! TD*
G04 #@! TA.AperFunction,SMDPad,CuDef*
%ADD23R,1.060000X0.650000*%
G04 #@! TD*
G04 #@! TA.AperFunction,ViaPad*
%ADD24C,0.500000*%
G04 #@! TD*
G04 #@! TA.AperFunction,Conductor*
%ADD25C,0.250000*%
G04 #@! TD*
G04 #@! TA.AperFunction,Conductor*
%ADD26C,0.150000*%
G04 #@! TD*
G04 APERTURE END LIST*
D10*
X177750000Y-90022132D03*
X178770000Y-90022132D03*
D11*
X177600000Y-91012132D03*
X177600000Y-91972132D03*
D12*
X169362780Y-84202132D03*
X169362780Y-83242132D03*
D13*
X168182780Y-92042132D03*
X167222780Y-92042132D03*
X168182780Y-89012132D03*
X167222780Y-89012132D03*
X168182780Y-85322132D03*
X167222780Y-85322132D03*
D14*
X170402780Y-83217132D03*
X170402780Y-84187132D03*
D12*
X173552780Y-84182132D03*
X173552780Y-83222132D03*
D15*
X171462780Y-84197132D03*
X171462780Y-83227132D03*
D13*
X178250000Y-89000000D03*
X177290000Y-89000000D03*
D16*
X177192780Y-84952132D03*
X179392780Y-84952132D03*
X179392780Y-83352132D03*
X177192780Y-83352132D03*
D11*
X175642780Y-83222132D03*
X175642780Y-84182132D03*
D12*
X180900000Y-86250000D03*
X180900000Y-85290000D03*
D13*
X168172780Y-84302132D03*
X167212780Y-84302132D03*
D17*
X167222780Y-90022132D03*
X168182780Y-90022132D03*
D18*
X171437780Y-85417132D03*
X171937780Y-85417132D03*
X172437780Y-85417132D03*
X172937780Y-85417132D03*
X173437780Y-85417132D03*
X173937780Y-85417132D03*
X174437780Y-85417132D03*
X174937780Y-85417132D03*
X175437780Y-85417132D03*
X175937780Y-90917132D03*
X169937780Y-91167132D03*
X170687780Y-91417132D03*
X171687780Y-91417132D03*
X172187780Y-91417132D03*
X172687780Y-91417132D03*
X173187780Y-91417132D03*
X173687780Y-91417132D03*
X174187780Y-91417132D03*
X174687780Y-91417132D03*
X175937780Y-91417132D03*
X169937780Y-91917132D03*
X170437780Y-91917132D03*
X170937780Y-91917132D03*
X171437780Y-91917132D03*
X171937780Y-91917132D03*
X172437780Y-91917132D03*
X172937780Y-91917132D03*
X173437780Y-91917132D03*
X173937780Y-91917132D03*
X174437780Y-91917132D03*
X174937780Y-91917132D03*
X175437780Y-91917132D03*
X169437780Y-85917132D03*
X170187780Y-85917132D03*
X170687780Y-85917132D03*
X171187780Y-85917132D03*
X171687780Y-85917132D03*
X172187780Y-85917132D03*
X172687780Y-85917132D03*
X173187780Y-85917132D03*
X173687780Y-85917132D03*
X174187780Y-85917132D03*
X175937780Y-85917132D03*
X169437780Y-86417132D03*
X169937780Y-86667132D03*
X175437780Y-86667132D03*
X175937780Y-86917132D03*
D19*
X172687779Y-88667131D03*
D18*
X169937780Y-87167132D03*
X175437780Y-87167132D03*
X169437780Y-87417132D03*
X169937780Y-87667132D03*
X175437780Y-87667132D03*
X169437780Y-87917132D03*
X175937780Y-87917132D03*
X169937780Y-88167132D03*
X169437780Y-88417132D03*
X175937780Y-88417132D03*
X169937780Y-88667132D03*
X169437780Y-88917132D03*
X175937780Y-88917132D03*
X169937780Y-89167132D03*
X175437780Y-89167132D03*
X169437780Y-89417132D03*
X175937780Y-89417132D03*
X169937780Y-89667132D03*
X175437780Y-89667132D03*
X169437780Y-89917132D03*
X175937780Y-89917132D03*
X175437780Y-90167132D03*
X169437780Y-90417132D03*
X175937780Y-90417132D03*
X169937780Y-90667132D03*
X175437780Y-90667132D03*
D20*
X180000000Y-90304632D03*
X180000000Y-91879632D03*
D21*
X181700000Y-84000000D03*
D13*
X178002780Y-87812132D03*
X177042780Y-87812132D03*
X178402780Y-86832132D03*
X177442780Y-86832132D03*
D21*
X181700000Y-82800000D03*
D11*
X178600000Y-91120000D03*
X178600000Y-92080000D03*
D22*
X167702779Y-86462131D03*
X167702779Y-87862131D03*
D12*
X174602780Y-84182132D03*
X174602780Y-83222132D03*
D17*
X167222780Y-91032132D03*
X168182780Y-91032132D03*
D13*
X178412780Y-85882132D03*
X177452780Y-85882132D03*
D12*
X172502780Y-84172132D03*
X172502780Y-83212132D03*
D23*
X180099999Y-87049999D03*
X180099999Y-87999999D03*
X180099999Y-88949999D03*
X182299999Y-88949999D03*
X182299999Y-87049999D03*
D12*
X182240000Y-86250000D03*
X182240000Y-85290000D03*
D24*
X171700000Y-87700000D03*
X179140000Y-86190000D03*
X173560000Y-82500000D03*
X172700000Y-87700000D03*
X166480000Y-92050000D03*
X176270000Y-83220000D03*
X178470000Y-85070000D03*
X181700000Y-82800000D03*
X166490000Y-85320000D03*
X166490000Y-91020000D03*
X179392780Y-84952132D03*
X173700000Y-87700000D03*
X166490000Y-84300000D03*
X166480000Y-90030000D03*
X166480000Y-89010000D03*
X169370000Y-82460000D03*
X172490000Y-82500000D03*
X180870000Y-83480000D03*
X168180000Y-90150000D03*
X173920000Y-92510000D03*
X175120000Y-82460000D03*
X168570000Y-82470000D03*
X179980000Y-86040000D03*
X176562780Y-86812132D03*
X170730000Y-85290000D03*
X167480000Y-82930000D03*
X180100000Y-87050000D03*
X168190000Y-92840000D03*
X166610000Y-86480000D03*
X170270000Y-92840000D03*
X170300000Y-90160000D03*
X176370000Y-91055500D03*
X175380000Y-91260000D03*
X176980000Y-91442632D03*
X168720000Y-87720000D03*
X181860000Y-89870000D03*
X181760000Y-87960000D03*
X170330000Y-87710000D03*
D25*
X171187780Y-85917132D02*
X171187780Y-87167132D01*
X166515320Y-85320000D02*
X166518726Y-85323406D01*
X166490000Y-85320000D02*
X166515320Y-85320000D01*
X173500000Y-87700000D02*
X174032868Y-87167132D01*
X172502780Y-83212132D02*
X172502780Y-82512780D01*
X178412780Y-85882132D02*
X178832132Y-85882132D01*
X178402780Y-86832132D02*
X178497868Y-86832132D01*
X169362780Y-83242132D02*
X169362780Y-82467220D01*
X166522132Y-85322132D02*
X167222780Y-85322132D01*
X171187780Y-87167132D02*
X172687780Y-88667132D01*
X178402780Y-87412132D02*
X178402780Y-86832132D01*
X167212780Y-84302132D02*
X166492132Y-84302132D01*
X177750000Y-89800000D02*
X177750000Y-90022132D01*
X178339584Y-91012132D02*
X177600000Y-91012132D01*
X175642780Y-83222132D02*
X176267868Y-83222132D01*
X167222780Y-90022132D02*
X166487868Y-90022132D01*
X167222780Y-91032132D02*
X166502132Y-91032132D01*
X177192780Y-83352132D02*
X176402132Y-83352132D01*
D26*
X173552780Y-82507220D02*
X173560000Y-82500000D01*
D25*
X178040000Y-89510000D02*
X177750000Y-89800000D01*
D26*
X173552780Y-83222132D02*
X173552780Y-82507220D01*
D25*
X173500000Y-87700000D02*
X173500000Y-87854912D01*
X179392780Y-84952132D02*
X178587868Y-84952132D01*
X178412780Y-85882132D02*
X178412780Y-85127220D01*
X173500000Y-87854912D02*
X172687780Y-88667132D01*
X177750000Y-90022132D02*
X177880796Y-89891336D01*
X167222780Y-89012132D02*
X166482132Y-89012132D01*
X177750000Y-90022132D02*
X177750000Y-90650000D01*
X167222780Y-92042132D02*
X166487868Y-92042132D01*
X174032868Y-87167132D02*
X175437780Y-87167132D01*
X178290000Y-88960000D02*
G75*
G03*
X178250000Y-89000000I0J-40000D01*
G01*
X178497868Y-86832100D02*
G75*
G03*
X179140000Y-86190000I32J642100D01*
G01*
X177599993Y-91012125D02*
G75*
G03*
X177750000Y-90650000I-362093J362125D01*
G01*
X172502800Y-82512780D02*
G75*
G03*
X172490000Y-82500000I-12800J-20D01*
G01*
X179139968Y-86190000D02*
G75*
G03*
X178832132Y-85882132I-307868J0D01*
G01*
X177880788Y-89891328D02*
G75*
G03*
X178250000Y-89000000I-891288J891328D01*
G01*
X166487868Y-90022100D02*
G75*
G03*
X166480000Y-90030000I32J-7900D01*
G01*
X166522136Y-85322120D02*
G75*
G03*
X166518727Y-85323406I-936J-2680D01*
G01*
X176269968Y-83220000D02*
G75*
G03*
X176402132Y-83352132I132132J0D01*
G01*
X176267868Y-83222100D02*
G75*
G03*
X176270000Y-83220000I32J2100D01*
G01*
D26*
X179392780Y-84952120D02*
G75*
G03*
X179828243Y-84771758I20J615820D01*
G01*
D25*
X166487868Y-92042100D02*
G75*
G03*
X166480000Y-92050000I32J-7900D01*
G01*
X178002780Y-87812080D02*
G75*
G03*
X178402780Y-87412132I20J399980D01*
G01*
X166479968Y-89010000D02*
G75*
G03*
X166482132Y-89012132I2132J0D01*
G01*
X178587868Y-84952100D02*
G75*
G03*
X178470000Y-85070000I32J-117900D01*
G01*
X166489968Y-91020000D02*
G75*
G03*
X166502132Y-91032132I12132J0D01*
G01*
X166489968Y-84300000D02*
G75*
G03*
X166492132Y-84302132I2132J0D01*
G01*
X169370000Y-82459980D02*
G75*
G03*
X169362780Y-82467220I0J-7220D01*
G01*
X178470000Y-85069980D02*
G75*
G03*
X178412780Y-85127220I0J-57220D01*
G01*
X178600005Y-91119995D02*
G75*
G03*
X178339584Y-91012132I-260405J-260405D01*
G01*
D26*
X177452780Y-85212132D02*
X177192780Y-84952132D01*
X175937780Y-85917132D02*
X176752780Y-85102132D01*
X176752780Y-85102132D02*
X177192780Y-85102132D01*
X177452780Y-85882132D02*
X177452780Y-85212132D01*
X178592780Y-84152132D02*
X179392780Y-83352132D01*
X175437780Y-85417132D02*
X176702780Y-84152132D01*
X175642780Y-84182132D02*
X176672780Y-84182132D01*
X176702780Y-84152132D02*
X178592780Y-84152132D01*
X176672780Y-84182132D02*
X176702780Y-84152132D01*
X175604912Y-87500000D02*
X175437780Y-87667132D01*
X176730648Y-87500000D02*
X175604912Y-87500000D01*
X177042780Y-87812132D02*
X176730648Y-87500000D01*
D25*
X168182780Y-90022132D02*
X168484166Y-90022132D01*
D26*
X168182780Y-90147220D02*
X168182780Y-90022132D01*
X182300000Y-86310000D02*
X182240000Y-86250000D01*
D25*
X176822868Y-91917132D02*
X177467219Y-91917132D01*
X175437780Y-91917132D02*
X176822868Y-91917132D01*
D26*
X169362780Y-85736066D02*
X169362780Y-84202132D01*
D25*
X174760000Y-92430000D02*
X176070000Y-92430000D01*
D26*
X175120000Y-83664912D02*
X175120000Y-82460000D01*
X182300000Y-87050000D02*
X182300000Y-86310000D01*
D25*
X176070000Y-92430000D02*
X178250000Y-92430000D01*
D26*
X168180000Y-90150000D02*
X168182780Y-90147220D01*
D25*
X168570000Y-83409352D02*
X169362780Y-84202132D01*
X181390000Y-84000000D02*
X181700000Y-84000000D01*
X180870000Y-83480000D02*
X181390000Y-84000000D01*
D26*
X180255000Y-85765000D02*
X181755000Y-85765000D01*
D25*
X176070000Y-92430000D02*
X176310000Y-92430000D01*
D26*
X179980000Y-86040000D02*
X180255000Y-85765000D01*
D25*
X168570000Y-82470000D02*
X168570000Y-83409352D01*
D26*
X174602780Y-84182132D02*
X175120000Y-83664912D01*
X177600000Y-91972132D02*
X177545000Y-91917132D01*
D25*
X169511004Y-90490355D02*
X169437780Y-90417132D01*
X173340000Y-92430000D02*
X174760000Y-92430000D01*
D26*
X181755000Y-85765000D02*
X182300000Y-86310000D01*
D25*
X172937780Y-91917132D02*
X172937780Y-92027780D01*
X174937780Y-84990893D02*
X174937780Y-85417132D01*
X169511018Y-90490341D02*
G75*
G03*
X169937780Y-90667132I426782J426741D01*
G01*
X176310000Y-92429968D02*
G75*
G03*
X176822868Y-91917132I0J512868D01*
G01*
D26*
X169362791Y-85736066D02*
G75*
G03*
X169437780Y-85917132I256009J-34D01*
G01*
D25*
X177599988Y-91972144D02*
G75*
G03*
X177467219Y-91917132I-132788J-132756D01*
G01*
X174937779Y-84990893D02*
G75*
G03*
X174602780Y-84182132I-1143779J-7D01*
G01*
X172937800Y-92027780D02*
G75*
G03*
X173340000Y-92430000I402200J-20D01*
G01*
X169437788Y-90417124D02*
G75*
G03*
X168484166Y-90022132I-953588J-953576D01*
G01*
X178250000Y-92430000D02*
G75*
G03*
X178600000Y-92080000I0J350000D01*
G01*
D26*
X168690000Y-84540000D02*
X168649664Y-84499664D01*
X168940000Y-85919352D02*
X168940000Y-85143553D01*
X168940068Y-85919352D02*
G75*
G03*
X169437780Y-86417132I497732J-48D01*
G01*
X168940019Y-85143553D02*
G75*
G03*
X168690000Y-84540000I-853619J-47D01*
G01*
X168649664Y-84499664D02*
G75*
G03*
X168172780Y-84302132I-476864J-476836D01*
G01*
X177207132Y-88917132D02*
X177290000Y-89000000D01*
X175937780Y-88917132D02*
X177207132Y-88917132D01*
X176562780Y-86812132D02*
X176457780Y-86917132D01*
D25*
X171300083Y-84589917D02*
X170821924Y-85068076D01*
D26*
X176457780Y-86917132D02*
X175937780Y-86917132D01*
D25*
X173552780Y-84182132D02*
X171498993Y-84182132D01*
X170687780Y-85917132D02*
X170687780Y-85332220D01*
X171300067Y-84589901D02*
G75*
G03*
X171462780Y-84197132I-392767J392801D01*
G01*
X170730000Y-85289980D02*
G75*
G03*
X170687780Y-85332220I0J-42220D01*
G01*
X170821934Y-85068086D02*
G75*
G03*
X170730000Y-85290000I221866J-221914D01*
G01*
X171498993Y-84182114D02*
G75*
G03*
X171462780Y-84197132I7J-51186D01*
G01*
D26*
X177399698Y-86822132D02*
X177432780Y-86822132D01*
X175782780Y-86322132D02*
X176899698Y-86322132D01*
X175437780Y-86667132D02*
X175782780Y-86322132D01*
X176899698Y-86322132D02*
X177399698Y-86822132D01*
X169937780Y-86667132D02*
X169868269Y-86736643D01*
X167689470Y-86448823D02*
X167702780Y-86462132D01*
X167702780Y-86462132D02*
X167716089Y-86448823D01*
X169868269Y-86736643D02*
X168365508Y-86736643D01*
X167702775Y-86462137D02*
G75*
G03*
X168365508Y-86736643I662725J662737D01*
G01*
X167716073Y-86448807D02*
G75*
G03*
X168182780Y-85322132I-1126673J1126707D01*
G01*
X167709018Y-87868371D02*
X167702780Y-87862132D01*
X167696542Y-87868371D02*
X167702780Y-87862132D01*
X169751567Y-87090000D02*
X168670000Y-87090000D01*
X168336964Y-87227948D02*
X167702780Y-87862132D01*
X168670000Y-87090005D02*
G75*
G03*
X168336964Y-87227948I0J-470995D01*
G01*
X168182769Y-89012132D02*
G75*
G03*
X167709018Y-87868371I-1617469J32D01*
G01*
X169937787Y-87167125D02*
G75*
G03*
X169751567Y-87090000I-186187J-186175D01*
G01*
X180100000Y-87050000D02*
X180900000Y-86250000D01*
X180394022Y-88950000D02*
X180824511Y-88519511D01*
X180394022Y-87050000D02*
X180100000Y-87050000D01*
D25*
X169636004Y-92042132D02*
X168182780Y-92042132D01*
D26*
X180824511Y-88519511D02*
X180824511Y-87480489D01*
X180824511Y-87480489D02*
X180394022Y-87050000D01*
D25*
X168182780Y-92042132D02*
X168182780Y-92832780D01*
D26*
X180100000Y-88950000D02*
X180394022Y-88950000D01*
D25*
X169636004Y-92042147D02*
G75*
G03*
X169937780Y-91917132I-4J426747D01*
G01*
X168182800Y-92832780D02*
G75*
G03*
X168190000Y-92840000I7200J-20D01*
G01*
D26*
X170562780Y-91542132D02*
X169414028Y-91542132D01*
X170687780Y-91417132D02*
X170562780Y-91542132D01*
X168182769Y-91032143D02*
G75*
G03*
X169414028Y-91542132I1231231J1231243D01*
G01*
X173000648Y-92980000D02*
X171937780Y-91917132D01*
X180000000Y-91879632D02*
X180000000Y-92790000D01*
X180000000Y-92790000D02*
X179810000Y-92980000D01*
X179810000Y-92980000D02*
X173000648Y-92980000D01*
D25*
X178770000Y-90022132D02*
X179317985Y-90022132D01*
X180000019Y-90304613D02*
G75*
G03*
X179317985Y-90022132I-682019J-682087D01*
G01*
X170437780Y-92590802D02*
X170437780Y-91917132D01*
X170270000Y-92840000D02*
X170378785Y-92840000D01*
X170378785Y-92840000D02*
X170394494Y-92824291D01*
X170394501Y-92824294D02*
G75*
G03*
X170437779Y-92590802I-658401J242794D01*
G01*
X171462780Y-83227132D02*
X170426922Y-83227132D01*
X170402771Y-83217141D02*
G75*
G03*
X170426922Y-83227132I24129J24141D01*
G01*
X171057291Y-91264074D02*
X171057291Y-91797621D01*
X170467101Y-90980000D02*
X170773217Y-90980000D01*
X170359731Y-90872630D02*
X170467101Y-90980000D01*
X170773217Y-90980000D02*
X171057291Y-91264074D01*
X170359731Y-90219731D02*
X170359731Y-90872630D01*
X171057291Y-91797621D02*
X170937780Y-91917132D01*
X170300000Y-90160000D02*
X170359731Y-90219731D01*
X170187780Y-85917132D02*
X170187780Y-84706187D01*
X170402793Y-84187145D02*
G75*
G03*
X170187780Y-84706187I519007J-519055D01*
G01*
D26*
X175937780Y-90917132D02*
X176231632Y-90917132D01*
X176231632Y-90917132D02*
X176370000Y-91055500D01*
X175237132Y-91117132D02*
X172987780Y-91117132D01*
X175380000Y-91260000D02*
X175237132Y-91117132D01*
X172987780Y-91117132D02*
X172687780Y-91417132D01*
X176080000Y-91480000D02*
X176942632Y-91480000D01*
X176017132Y-91417132D02*
X176080000Y-91480000D01*
X175937780Y-91417132D02*
X176017132Y-91417132D01*
X176942632Y-91480000D02*
X176980000Y-91442632D01*
X169022868Y-87417132D02*
X168720000Y-87720000D01*
X169437780Y-87417132D02*
X169022868Y-87417132D01*
X169937780Y-87667132D02*
X170287132Y-87667132D01*
X170287132Y-87667132D02*
X170330000Y-87710000D01*
G04 #@! TA.AperFunction,Conductor*
G36*
X168329882Y-82024633D02*
G01*
X168356764Y-82061634D01*
X168356763Y-82107369D01*
X168331645Y-82141937D01*
X168331658Y-82141950D01*
X168331577Y-82142030D01*
X168331574Y-82142033D01*
X168327545Y-82146062D01*
X168327542Y-82146065D01*
X168246069Y-82227538D01*
X168246066Y-82227541D01*
X168241950Y-82231658D01*
X168239305Y-82236847D01*
X168239304Y-82236850D01*
X168189449Y-82334696D01*
X168184354Y-82344696D01*
X168183442Y-82350447D01*
X168183442Y-82350451D01*
X168172714Y-82418187D01*
X168164508Y-82470000D01*
X168165419Y-82475752D01*
X168181858Y-82579548D01*
X168184354Y-82595304D01*
X168187000Y-82600497D01*
X168236094Y-82696850D01*
X168241950Y-82708342D01*
X168246068Y-82712460D01*
X168246069Y-82712461D01*
X168272826Y-82739218D01*
X168288867Y-82763225D01*
X168294500Y-82791544D01*
X168294500Y-83374932D01*
X168293078Y-83389368D01*
X168289103Y-83409352D01*
X168290525Y-83416501D01*
X168294500Y-83436484D01*
X168294500Y-83436485D01*
X168303155Y-83480000D01*
X168310485Y-83516847D01*
X168314530Y-83522901D01*
X168314532Y-83522905D01*
X168366499Y-83600677D01*
X168371376Y-83607976D01*
X168377436Y-83612025D01*
X168377438Y-83612027D01*
X168388314Y-83619294D01*
X168399529Y-83628497D01*
X168521396Y-83750364D01*
X168542754Y-83795862D01*
X168530120Y-83844510D01*
X168489321Y-83873865D01*
X168439180Y-83870385D01*
X168385530Y-83846696D01*
X168385526Y-83846695D01*
X168380442Y-83844450D01*
X168374921Y-83843809D01*
X168374916Y-83843808D01*
X168358281Y-83841878D01*
X168358265Y-83841877D01*
X168356153Y-83841632D01*
X168354009Y-83841632D01*
X167991553Y-83841632D01*
X167991535Y-83841632D01*
X167989408Y-83841633D01*
X167987282Y-83841879D01*
X167987274Y-83841880D01*
X167970648Y-83843808D01*
X167970643Y-83843809D01*
X167965118Y-83844450D01*
X167960029Y-83846696D01*
X167960025Y-83846698D01*
X167872036Y-83885549D01*
X167872033Y-83885550D01*
X167865764Y-83888319D01*
X167860918Y-83893164D01*
X167860915Y-83893167D01*
X167793815Y-83960267D01*
X167793812Y-83960270D01*
X167788967Y-83965116D01*
X167786198Y-83971385D01*
X167786195Y-83971391D01*
X167760200Y-84030263D01*
X167732904Y-84062372D01*
X167692505Y-84074372D01*
X167652107Y-84062371D01*
X167624811Y-84030262D01*
X167598942Y-83971675D01*
X167591325Y-83960556D01*
X167524355Y-83893586D01*
X167513238Y-83885970D01*
X167425419Y-83847194D01*
X167420198Y-83845774D01*
X167415062Y-83846632D01*
X167412780Y-83854538D01*
X167412780Y-84428132D01*
X167402866Y-84465132D01*
X167375780Y-84492218D01*
X167338780Y-84502132D01*
X166792523Y-84502132D01*
X166784839Y-84504191D01*
X166782780Y-84511875D01*
X166782780Y-84513287D01*
X166783026Y-84517558D01*
X166784951Y-84534148D01*
X166787840Y-84544769D01*
X166826618Y-84632590D01*
X166834234Y-84643707D01*
X166901204Y-84710677D01*
X166912323Y-84718294D01*
X166976529Y-84746644D01*
X167008638Y-84773940D01*
X167020639Y-84814338D01*
X167008639Y-84854737D01*
X166976530Y-84882033D01*
X166922326Y-84905967D01*
X166911204Y-84913586D01*
X166844234Y-84980556D01*
X166836618Y-84991673D01*
X166797840Y-85079494D01*
X166794951Y-85090115D01*
X166793026Y-85106705D01*
X166792780Y-85110977D01*
X166792780Y-85112389D01*
X166794839Y-85120072D01*
X166802523Y-85122132D01*
X167348780Y-85122132D01*
X167385780Y-85132046D01*
X167412866Y-85159132D01*
X167422780Y-85196132D01*
X167422780Y-85769725D01*
X167425062Y-85777631D01*
X167430198Y-85778489D01*
X167435419Y-85777069D01*
X167523238Y-85738293D01*
X167534355Y-85730677D01*
X167601325Y-85663707D01*
X167608942Y-85652589D01*
X167634811Y-85594001D01*
X167662107Y-85561892D01*
X167702505Y-85549891D01*
X167742904Y-85561891D01*
X167770200Y-85594000D01*
X167796195Y-85652872D01*
X167796197Y-85652875D01*
X167798967Y-85659148D01*
X167803815Y-85663996D01*
X167854127Y-85714308D01*
X167873868Y-85749831D01*
X167871874Y-85790421D01*
X167866297Y-85806850D01*
X167855920Y-85837420D01*
X167854708Y-85840989D01*
X167851003Y-85849932D01*
X167791612Y-85970362D01*
X167764321Y-86000473D01*
X167725244Y-86011632D01*
X167137960Y-86011632D01*
X167134391Y-86012341D01*
X167134390Y-86012342D01*
X167101204Y-86018943D01*
X167101201Y-86018943D01*
X167094058Y-86020365D01*
X167088000Y-86024412D01*
X167087999Y-86024413D01*
X167050336Y-86049578D01*
X167050333Y-86049580D01*
X167044276Y-86053628D01*
X167040228Y-86059685D01*
X167040226Y-86059688D01*
X167015296Y-86097000D01*
X167011013Y-86103410D01*
X167009592Y-86110551D01*
X167009591Y-86110555D01*
X167002979Y-86143796D01*
X166985230Y-86179053D01*
X166951881Y-86200171D01*
X166912420Y-86201139D01*
X166878075Y-86181683D01*
X166852461Y-86156069D01*
X166852461Y-86156068D01*
X166848342Y-86151950D01*
X166735304Y-86094354D01*
X166729550Y-86093442D01*
X166729548Y-86093442D01*
X166615752Y-86075419D01*
X166610000Y-86074508D01*
X166604248Y-86075419D01*
X166490451Y-86093442D01*
X166490447Y-86093442D01*
X166484696Y-86094354D01*
X166479504Y-86096999D01*
X166479502Y-86097000D01*
X166376850Y-86149304D01*
X166376847Y-86149305D01*
X166371658Y-86151950D01*
X166367541Y-86156066D01*
X166367538Y-86156069D01*
X166286069Y-86237538D01*
X166286066Y-86237541D01*
X166281950Y-86241658D01*
X166279305Y-86246847D01*
X166279304Y-86246850D01*
X166227254Y-86349004D01*
X166224354Y-86354696D01*
X166223442Y-86360447D01*
X166223442Y-86360451D01*
X166218510Y-86391594D01*
X166204508Y-86480000D01*
X166205419Y-86485752D01*
X166222305Y-86592372D01*
X166224354Y-86605304D01*
X166281950Y-86718342D01*
X166371658Y-86808050D01*
X166484696Y-86865646D01*
X166610000Y-86885492D01*
X166735304Y-86865646D01*
X166848342Y-86808050D01*
X166884005Y-86772386D01*
X166918347Y-86752931D01*
X166957808Y-86753898D01*
X166991157Y-86775014D01*
X167008907Y-86810270D01*
X167009590Y-86813705D01*
X167009591Y-86813709D01*
X167011013Y-86820854D01*
X167044276Y-86870636D01*
X167094058Y-86903899D01*
X167137960Y-86912632D01*
X168017245Y-86912632D01*
X168040110Y-86916253D01*
X168093234Y-86933514D01*
X168139068Y-86940773D01*
X168175548Y-86957589D01*
X168197868Y-86990987D01*
X168199450Y-87031125D01*
X168179829Y-87066177D01*
X168177528Y-87068479D01*
X168177515Y-87068492D01*
X168145803Y-87100201D01*
X168145798Y-87100206D01*
X168145797Y-87100208D01*
X168145795Y-87100211D01*
X167997713Y-87248294D01*
X167856049Y-87389958D01*
X167832042Y-87405999D01*
X167803723Y-87411632D01*
X167137960Y-87411632D01*
X167134391Y-87412341D01*
X167134390Y-87412342D01*
X167101204Y-87418943D01*
X167101201Y-87418943D01*
X167094058Y-87420365D01*
X167088000Y-87424412D01*
X167087999Y-87424413D01*
X167050336Y-87449578D01*
X167050333Y-87449580D01*
X167044276Y-87453628D01*
X167040228Y-87459685D01*
X167040226Y-87459688D01*
X167015061Y-87497351D01*
X167011013Y-87503410D01*
X167009591Y-87510553D01*
X167009591Y-87510556D01*
X167009161Y-87512718D01*
X167002280Y-87547312D01*
X167002280Y-88176952D01*
X167011013Y-88220854D01*
X167044276Y-88270636D01*
X167094058Y-88303899D01*
X167137960Y-88312632D01*
X167723046Y-88312632D01*
X167762123Y-88323791D01*
X167789415Y-88353903D01*
X167849171Y-88475077D01*
X167852875Y-88484020D01*
X167872850Y-88542867D01*
X167874844Y-88583457D01*
X167855103Y-88618978D01*
X167803817Y-88670263D01*
X167803810Y-88670272D01*
X167798967Y-88675116D01*
X167796198Y-88681385D01*
X167796195Y-88681391D01*
X167770200Y-88740263D01*
X167742904Y-88772372D01*
X167702505Y-88784372D01*
X167662107Y-88772371D01*
X167634811Y-88740262D01*
X167608942Y-88681675D01*
X167601325Y-88670556D01*
X167534355Y-88603586D01*
X167523238Y-88595970D01*
X167435419Y-88557194D01*
X167430198Y-88555774D01*
X167425062Y-88556632D01*
X167422780Y-88564538D01*
X167422780Y-89138132D01*
X167412866Y-89175132D01*
X167385780Y-89202218D01*
X167348780Y-89212132D01*
X166802523Y-89212132D01*
X166794839Y-89214191D01*
X166792780Y-89221875D01*
X166792780Y-89223287D01*
X166793026Y-89227558D01*
X166794951Y-89244148D01*
X166797840Y-89254769D01*
X166836618Y-89342590D01*
X166844234Y-89353707D01*
X166911204Y-89420677D01*
X166922325Y-89428296D01*
X166970206Y-89449438D01*
X167002315Y-89476734D01*
X167014315Y-89517132D01*
X167002315Y-89557530D01*
X166970206Y-89584826D01*
X166922325Y-89605967D01*
X166911204Y-89613586D01*
X166844234Y-89680556D01*
X166836618Y-89691673D01*
X166797840Y-89779494D01*
X166794951Y-89790115D01*
X166793026Y-89806705D01*
X166792780Y-89810977D01*
X166792780Y-89812389D01*
X166794839Y-89820072D01*
X166802523Y-89822132D01*
X167348780Y-89822132D01*
X167385780Y-89832046D01*
X167412866Y-89859132D01*
X167422780Y-89896132D01*
X167422780Y-90148132D01*
X167412866Y-90185132D01*
X167385780Y-90212218D01*
X167348780Y-90222132D01*
X166802523Y-90222132D01*
X166794839Y-90224191D01*
X166792780Y-90231875D01*
X166792780Y-90233287D01*
X166793026Y-90237558D01*
X166794951Y-90254148D01*
X166797840Y-90264769D01*
X166836618Y-90352590D01*
X166844234Y-90363707D01*
X166911204Y-90430677D01*
X166922325Y-90438296D01*
X166970206Y-90459438D01*
X167002315Y-90486734D01*
X167014315Y-90527132D01*
X167002315Y-90567530D01*
X166970206Y-90594826D01*
X166922325Y-90615967D01*
X166911204Y-90623586D01*
X166844234Y-90690556D01*
X166836618Y-90701673D01*
X166797840Y-90789494D01*
X166794951Y-90800115D01*
X166793026Y-90816705D01*
X166792780Y-90820977D01*
X166792780Y-90822389D01*
X166794839Y-90830072D01*
X166802523Y-90832132D01*
X167348780Y-90832132D01*
X167385780Y-90842046D01*
X167412866Y-90869132D01*
X167422780Y-90906132D01*
X167422780Y-91158132D01*
X167412866Y-91195132D01*
X167385780Y-91222218D01*
X167348780Y-91232132D01*
X166802523Y-91232132D01*
X166794839Y-91234191D01*
X166792780Y-91241875D01*
X166792780Y-91243287D01*
X166793026Y-91247558D01*
X166794951Y-91264148D01*
X166797840Y-91274769D01*
X166836618Y-91362590D01*
X166844234Y-91373707D01*
X166911204Y-91440677D01*
X166922325Y-91448296D01*
X166970206Y-91469438D01*
X167002315Y-91496734D01*
X167014315Y-91537132D01*
X167002315Y-91577530D01*
X166970206Y-91604826D01*
X166922325Y-91625967D01*
X166911204Y-91633586D01*
X166844234Y-91700556D01*
X166836618Y-91711673D01*
X166797840Y-91799494D01*
X166794951Y-91810115D01*
X166793026Y-91826705D01*
X166792780Y-91830977D01*
X166792780Y-91832389D01*
X166794839Y-91840072D01*
X166802523Y-91842132D01*
X167348780Y-91842132D01*
X167385780Y-91852046D01*
X167412866Y-91879132D01*
X167422780Y-91916132D01*
X167422780Y-92489726D01*
X167425062Y-92497631D01*
X167430198Y-92498489D01*
X167435419Y-92497069D01*
X167523238Y-92458293D01*
X167534355Y-92450677D01*
X167601325Y-92383707D01*
X167608942Y-92372589D01*
X167634811Y-92314001D01*
X167662107Y-92281892D01*
X167702505Y-92269891D01*
X167742904Y-92281891D01*
X167770200Y-92314000D01*
X167796195Y-92372872D01*
X167796197Y-92372875D01*
X167798967Y-92379148D01*
X167875764Y-92455945D01*
X167877579Y-92456746D01*
X167898743Y-92480507D01*
X167907280Y-92515013D01*
X167907280Y-92525676D01*
X167901647Y-92553995D01*
X167885606Y-92578002D01*
X167866069Y-92597538D01*
X167866066Y-92597541D01*
X167861950Y-92601658D01*
X167859305Y-92606847D01*
X167859304Y-92606850D01*
X167807000Y-92709502D01*
X167804354Y-92714696D01*
X167803442Y-92720447D01*
X167803442Y-92720451D01*
X167794338Y-92777934D01*
X167784508Y-92840000D01*
X167785419Y-92845752D01*
X167802300Y-92952339D01*
X167804354Y-92965304D01*
X167861950Y-93078342D01*
X167951658Y-93168050D01*
X168064696Y-93225646D01*
X168166484Y-93241767D01*
X168170547Y-93242411D01*
X168189999Y-93251940D01*
X168209453Y-93242411D01*
X168212558Y-93241919D01*
X168315304Y-93225646D01*
X168428342Y-93168050D01*
X168518050Y-93078342D01*
X168575646Y-92965304D01*
X168595492Y-92840000D01*
X168575646Y-92714696D01*
X168518050Y-92601658D01*
X168482195Y-92565803D01*
X168461999Y-92528191D01*
X168465939Y-92485682D01*
X168489837Y-92455986D01*
X168489796Y-92455945D01*
X168489795Y-92455945D01*
X168566593Y-92379148D01*
X168570775Y-92369676D01*
X168574280Y-92361740D01*
X168601576Y-92329632D01*
X168641974Y-92317632D01*
X169587429Y-92317632D01*
X169635952Y-92317632D01*
X169636007Y-92317639D01*
X169636007Y-92317647D01*
X169705178Y-92317646D01*
X169840862Y-92290653D01*
X169968672Y-92237706D01*
X170047163Y-92185252D01*
X170084645Y-92172867D01*
X170123161Y-92181515D01*
X170151751Y-92208733D01*
X170162280Y-92246778D01*
X170162280Y-92400048D01*
X170151375Y-92438713D01*
X170121875Y-92465982D01*
X170036850Y-92509304D01*
X170036847Y-92509305D01*
X170031658Y-92511950D01*
X170027541Y-92516066D01*
X170027538Y-92516069D01*
X169946069Y-92597538D01*
X169946066Y-92597541D01*
X169941950Y-92601658D01*
X169939305Y-92606847D01*
X169939304Y-92606850D01*
X169887000Y-92709502D01*
X169884354Y-92714696D01*
X169883442Y-92720447D01*
X169883442Y-92720451D01*
X169874338Y-92777934D01*
X169864508Y-92840000D01*
X169865419Y-92845752D01*
X169882300Y-92952339D01*
X169884354Y-92965304D01*
X169941950Y-93078342D01*
X170031658Y-93168050D01*
X170144696Y-93225646D01*
X170246484Y-93241767D01*
X170250547Y-93242411D01*
X170269999Y-93251940D01*
X170289453Y-93242411D01*
X170292558Y-93241919D01*
X170395304Y-93225646D01*
X170508342Y-93168050D01*
X170598050Y-93078342D01*
X170655646Y-92965304D01*
X170669292Y-92879136D01*
X170671566Y-92869295D01*
X170672192Y-92867602D01*
X170698544Y-92759892D01*
X170712545Y-92649893D01*
X170712917Y-92620703D01*
X170712991Y-92619379D01*
X170713280Y-92617935D01*
X170713280Y-92593097D01*
X170713287Y-92592116D01*
X170713636Y-92565803D01*
X170713900Y-92545880D01*
X170713386Y-92544408D01*
X170713280Y-92543093D01*
X170713280Y-92236911D01*
X170723809Y-92198867D01*
X170752398Y-92171648D01*
X170790914Y-92163000D01*
X170816772Y-92171543D01*
X170817491Y-92169809D01*
X170824226Y-92172598D01*
X170830285Y-92176647D01*
X170937780Y-92198029D01*
X171045275Y-92176647D01*
X171051369Y-92172574D01*
X171051526Y-92172471D01*
X171051960Y-92172339D01*
X171058069Y-92169809D01*
X171058318Y-92170410D01*
X171092637Y-92160000D01*
X171282923Y-92160000D01*
X171317241Y-92170410D01*
X171317491Y-92169809D01*
X171323599Y-92172339D01*
X171324034Y-92172471D01*
X171324223Y-92172597D01*
X171324224Y-92172597D01*
X171330285Y-92176647D01*
X171437780Y-92198029D01*
X171545275Y-92176647D01*
X171551369Y-92172574D01*
X171551526Y-92172471D01*
X171551960Y-92172339D01*
X171558069Y-92169809D01*
X171558318Y-92170410D01*
X171592637Y-92160000D01*
X171782923Y-92160000D01*
X171817240Y-92170410D01*
X171817490Y-92169808D01*
X171823605Y-92172341D01*
X171824034Y-92172471D01*
X171824220Y-92172595D01*
X171824221Y-92172595D01*
X171830285Y-92176647D01*
X171868316Y-92184211D01*
X171906205Y-92204463D01*
X172835640Y-93133897D01*
X172838307Y-93136707D01*
X172865141Y-93166509D01*
X172887405Y-93176421D01*
X172897601Y-93181958D01*
X172918030Y-93195225D01*
X172926420Y-93196553D01*
X172944944Y-93202039D01*
X172952716Y-93205500D01*
X172977076Y-93205500D01*
X172988652Y-93206410D01*
X173012713Y-93210222D01*
X173020494Y-93208137D01*
X173020926Y-93208022D01*
X173040079Y-93205500D01*
X179802139Y-93205500D01*
X179806012Y-93205601D01*
X179846064Y-93207700D01*
X179868812Y-93198967D01*
X179879930Y-93195673D01*
X179903768Y-93190607D01*
X179910639Y-93185614D01*
X179927624Y-93176391D01*
X179935560Y-93173346D01*
X179952792Y-93156113D01*
X179961616Y-93148577D01*
X179981323Y-93134260D01*
X179985571Y-93126901D01*
X179997329Y-93111575D01*
X180153915Y-92954988D01*
X180156708Y-92952339D01*
X180186509Y-92925507D01*
X180196418Y-92903247D01*
X180201952Y-92893054D01*
X180215226Y-92872617D01*
X180216555Y-92864224D01*
X180222046Y-92845688D01*
X180225500Y-92837932D01*
X180225500Y-92813572D01*
X180226411Y-92801996D01*
X180229005Y-92785616D01*
X180230222Y-92777934D01*
X180228177Y-92770304D01*
X180228022Y-92769721D01*
X180225500Y-92750568D01*
X180225500Y-92541036D01*
X180234543Y-92505588D01*
X180259460Y-92478804D01*
X180291371Y-92468160D01*
X180291294Y-92467631D01*
X180363067Y-92457175D01*
X180473780Y-92403051D01*
X180560919Y-92315912D01*
X180615043Y-92205199D01*
X180625500Y-92133427D01*
X180625499Y-91625838D01*
X180615043Y-91554065D01*
X180560919Y-91443352D01*
X180473780Y-91356213D01*
X180449671Y-91344427D01*
X180368227Y-91304611D01*
X180368223Y-91304610D01*
X180363067Y-91302089D01*
X180357388Y-91301261D01*
X180357383Y-91301260D01*
X180293949Y-91292018D01*
X180293939Y-91292017D01*
X180291295Y-91291632D01*
X180288611Y-91291632D01*
X179711376Y-91291632D01*
X179711362Y-91291632D01*
X179708706Y-91291633D01*
X179706063Y-91292017D01*
X179706063Y-91292018D01*
X179661837Y-91298461D01*
X179636933Y-91302089D01*
X179631771Y-91304612D01*
X179631766Y-91304614D01*
X179531732Y-91353518D01*
X179531730Y-91353519D01*
X179526220Y-91356213D01*
X179521884Y-91360548D01*
X179521881Y-91360551D01*
X179443419Y-91439013D01*
X179443416Y-91439016D01*
X179439081Y-91443352D01*
X179436387Y-91448862D01*
X179436386Y-91448864D01*
X179387479Y-91548904D01*
X179387477Y-91548909D01*
X179384957Y-91554065D01*
X179384129Y-91559741D01*
X179384128Y-91559748D01*
X179374886Y-91623182D01*
X179374885Y-91623193D01*
X179374500Y-91625837D01*
X179374500Y-91628519D01*
X179374500Y-91628520D01*
X179374500Y-92130755D01*
X179374500Y-92130768D01*
X179374501Y-92133426D01*
X179384957Y-92205199D01*
X179387480Y-92210359D01*
X179387482Y-92210365D01*
X179412348Y-92261229D01*
X179439081Y-92315912D01*
X179526220Y-92403051D01*
X179623641Y-92450677D01*
X179631162Y-92454354D01*
X179636933Y-92457175D01*
X179642615Y-92458002D01*
X179642616Y-92458003D01*
X179708705Y-92467632D01*
X179708628Y-92468155D01*
X179740554Y-92478815D01*
X179765461Y-92505598D01*
X179774500Y-92541038D01*
X179774500Y-92665943D01*
X179768867Y-92694262D01*
X179752826Y-92718269D01*
X179738269Y-92732826D01*
X179714262Y-92748867D01*
X179685943Y-92754500D01*
X178615233Y-92754500D01*
X178569095Y-92738356D01*
X178543089Y-92696968D01*
X178548561Y-92648394D01*
X178578528Y-92618424D01*
X178577628Y-92616992D01*
X178581146Y-92614780D01*
X178584892Y-92612977D01*
X178675103Y-92541036D01*
X178693152Y-92526643D01*
X178739290Y-92510499D01*
X178811227Y-92510499D01*
X178813372Y-92510499D01*
X178837662Y-92507682D01*
X178937016Y-92463813D01*
X179013813Y-92387016D01*
X179057682Y-92287662D01*
X179060500Y-92263373D01*
X179060499Y-91896628D01*
X179057682Y-91872338D01*
X179013813Y-91772984D01*
X178937016Y-91696187D01*
X178930743Y-91693417D01*
X178930740Y-91693415D01*
X178871868Y-91667420D01*
X178839759Y-91640124D01*
X178827759Y-91599725D01*
X178839760Y-91559327D01*
X178871869Y-91532031D01*
X178930457Y-91506162D01*
X178941575Y-91498545D01*
X179008545Y-91431575D01*
X179016161Y-91420458D01*
X179054937Y-91332639D01*
X179056357Y-91327418D01*
X179055499Y-91322282D01*
X179047594Y-91320000D01*
X178474000Y-91320000D01*
X178437000Y-91310086D01*
X178409914Y-91283000D01*
X178400000Y-91246000D01*
X178400000Y-90910257D01*
X178800000Y-90910257D01*
X178802059Y-90917940D01*
X178809743Y-90920000D01*
X179047594Y-90920000D01*
X179055499Y-90917717D01*
X179056357Y-90912581D01*
X179054937Y-90907360D01*
X179016161Y-90819541D01*
X179008545Y-90808424D01*
X178941575Y-90741454D01*
X178930458Y-90733838D01*
X178842637Y-90695060D01*
X178832016Y-90692171D01*
X178815426Y-90690246D01*
X178811155Y-90690000D01*
X178809743Y-90690000D01*
X178802059Y-90692059D01*
X178800000Y-90699743D01*
X178800000Y-90910257D01*
X178400000Y-90910257D01*
X178400000Y-90699743D01*
X178397940Y-90692059D01*
X178390257Y-90690000D01*
X178388845Y-90690000D01*
X178384573Y-90690246D01*
X178367983Y-90692171D01*
X178357362Y-90695060D01*
X178269541Y-90733838D01*
X178258424Y-90741454D01*
X178191454Y-90808424D01*
X178185922Y-90816500D01*
X178156317Y-90841664D01*
X178118044Y-90848361D01*
X178081654Y-90834744D01*
X178057179Y-90804568D01*
X178016161Y-90711673D01*
X178008545Y-90700556D01*
X177941573Y-90633584D01*
X177924802Y-90622095D01*
X177898504Y-90589954D01*
X177893660Y-90548708D01*
X177911797Y-90511348D01*
X177947202Y-90489641D01*
X177956475Y-90487118D01*
X178042581Y-90449098D01*
X178053702Y-90441480D01*
X178119348Y-90375834D01*
X178126966Y-90364713D01*
X178164989Y-90278601D01*
X178167877Y-90267987D01*
X178169753Y-90251816D01*
X178169995Y-90247625D01*
X178349500Y-90247625D01*
X178349501Y-90249754D01*
X178349747Y-90251880D01*
X178349748Y-90251887D01*
X178351615Y-90267987D01*
X178352270Y-90273630D01*
X178354517Y-90278719D01*
X178354518Y-90278722D01*
X178387259Y-90352872D01*
X178395384Y-90371273D01*
X178470859Y-90446748D01*
X178521101Y-90468932D01*
X178563408Y-90487613D01*
X178568502Y-90489862D01*
X178592377Y-90492632D01*
X178947622Y-90492631D01*
X178971498Y-90489862D01*
X179069141Y-90446748D01*
X179144616Y-90371273D01*
X179157655Y-90341741D01*
X179184951Y-90309633D01*
X179225350Y-90297632D01*
X179269408Y-90297632D01*
X179269411Y-90297633D01*
X179300499Y-90297632D01*
X179337499Y-90307545D01*
X179364585Y-90334631D01*
X179374500Y-90371632D01*
X179374500Y-90555755D01*
X179374500Y-90555768D01*
X179374501Y-90558426D01*
X179384957Y-90630199D01*
X179387480Y-90635359D01*
X179387482Y-90635365D01*
X179415198Y-90692059D01*
X179439081Y-90740912D01*
X179526220Y-90828051D01*
X179636933Y-90882175D01*
X179708705Y-90892632D01*
X180291294Y-90892631D01*
X180363067Y-90882175D01*
X180473780Y-90828051D01*
X180560919Y-90740912D01*
X180615043Y-90630199D01*
X180625500Y-90558427D01*
X180625499Y-90050838D01*
X180615043Y-89979065D01*
X180560919Y-89868352D01*
X180473780Y-89781213D01*
X180441970Y-89765662D01*
X180368227Y-89729611D01*
X180368223Y-89729610D01*
X180363067Y-89727089D01*
X180357388Y-89726261D01*
X180357383Y-89726260D01*
X180293949Y-89717018D01*
X180293939Y-89717017D01*
X180291295Y-89716632D01*
X180288611Y-89716632D01*
X179711376Y-89716632D01*
X179711362Y-89716632D01*
X179708706Y-89716633D01*
X179636933Y-89727089D01*
X179631770Y-89729612D01*
X179631763Y-89729615D01*
X179573571Y-89758063D01*
X179529498Y-89764671D01*
X179418447Y-89747085D01*
X179418443Y-89747084D01*
X179415572Y-89746630D01*
X179412661Y-89746630D01*
X179317981Y-89746632D01*
X179225350Y-89746632D01*
X179184951Y-89734631D01*
X179157655Y-89702522D01*
X179152739Y-89691388D01*
X179144616Y-89672991D01*
X179069141Y-89597516D01*
X179062041Y-89594381D01*
X178976586Y-89556648D01*
X178976582Y-89556647D01*
X178971498Y-89554402D01*
X178965977Y-89553761D01*
X178965972Y-89553760D01*
X178949751Y-89551878D01*
X178949735Y-89551877D01*
X178947623Y-89551632D01*
X178945479Y-89551632D01*
X178592378Y-89551633D01*
X178592378Y-89550606D01*
X178550294Y-89539079D01*
X178521566Y-89501590D01*
X178521366Y-89454359D01*
X178549776Y-89416628D01*
X178561576Y-89408544D01*
X178628545Y-89341575D01*
X178636161Y-89330458D01*
X178654105Y-89289820D01*
X179419500Y-89289820D01*
X179428233Y-89333722D01*
X179461496Y-89383504D01*
X179511278Y-89416767D01*
X179555180Y-89425500D01*
X180641180Y-89425500D01*
X180644820Y-89425500D01*
X180688722Y-89416767D01*
X180738504Y-89383504D01*
X180771767Y-89333722D01*
X180780500Y-89289820D01*
X180780500Y-88913079D01*
X180786133Y-88884761D01*
X180802174Y-88860753D01*
X180846144Y-88816783D01*
X180978426Y-88684499D01*
X180981219Y-88681850D01*
X180988698Y-88675116D01*
X181011020Y-88655018D01*
X181020932Y-88632751D01*
X181026464Y-88622563D01*
X181039736Y-88602129D01*
X181041064Y-88593736D01*
X181046553Y-88575206D01*
X181050011Y-88567443D01*
X181050011Y-88543083D01*
X181050922Y-88531506D01*
X181052340Y-88522556D01*
X181054733Y-88507446D01*
X181052688Y-88499816D01*
X181052533Y-88499233D01*
X181050011Y-88480080D01*
X181050011Y-87488338D01*
X181050112Y-87484466D01*
X181051803Y-87452191D01*
X181052210Y-87444425D01*
X181049422Y-87437162D01*
X181043481Y-87421685D01*
X181040182Y-87410547D01*
X181039215Y-87405999D01*
X181035118Y-87386721D01*
X181030119Y-87379841D01*
X181020902Y-87362865D01*
X181020642Y-87362188D01*
X181017856Y-87354929D01*
X181000629Y-87337702D01*
X180993094Y-87328880D01*
X180978771Y-87309166D01*
X180971405Y-87304913D01*
X180956082Y-87293155D01*
X180802174Y-87139247D01*
X180786133Y-87115240D01*
X180780500Y-87086921D01*
X180780500Y-86754499D01*
X180790414Y-86717499D01*
X180817500Y-86690413D01*
X180854500Y-86680499D01*
X181111227Y-86680499D01*
X181113372Y-86680499D01*
X181137662Y-86677682D01*
X181237016Y-86633813D01*
X181313813Y-86557016D01*
X181357682Y-86457662D01*
X181360500Y-86433373D01*
X181360499Y-86066628D01*
X181360964Y-86066628D01*
X181368914Y-86029994D01*
X181396150Y-86001138D01*
X181434376Y-85990500D01*
X181630942Y-85990500D01*
X181659260Y-85996133D01*
X181683268Y-86012174D01*
X181757826Y-86086731D01*
X181773867Y-86110738D01*
X181779500Y-86139057D01*
X181779500Y-86431226D01*
X181779500Y-86431243D01*
X181779501Y-86433372D01*
X181779747Y-86435498D01*
X181779748Y-86435505D01*
X181781676Y-86452131D01*
X181781676Y-86452134D01*
X181782318Y-86457662D01*
X181784565Y-86462750D01*
X181784566Y-86462754D01*
X181790260Y-86475650D01*
X181795356Y-86518856D01*
X181775291Y-86557459D01*
X181737002Y-86578116D01*
X181718424Y-86581811D01*
X181718421Y-86581811D01*
X181711278Y-86583233D01*
X181705220Y-86587280D01*
X181705219Y-86587281D01*
X181667556Y-86612446D01*
X181667553Y-86612448D01*
X181661496Y-86616496D01*
X181657448Y-86622553D01*
X181657446Y-86622556D01*
X181632281Y-86660219D01*
X181628233Y-86666278D01*
X181626811Y-86673421D01*
X181626811Y-86673424D01*
X181620210Y-86706610D01*
X181619500Y-86710180D01*
X181619500Y-87389820D01*
X181620210Y-87393389D01*
X181625838Y-87421685D01*
X181628233Y-87433722D01*
X181632280Y-87439779D01*
X181632282Y-87439783D01*
X181653710Y-87471853D01*
X181666156Y-87511027D01*
X181655777Y-87550800D01*
X181625777Y-87578898D01*
X181526848Y-87629305D01*
X181526845Y-87629306D01*
X181521658Y-87631950D01*
X181517541Y-87636066D01*
X181517538Y-87636069D01*
X181436069Y-87717538D01*
X181436066Y-87717541D01*
X181431950Y-87721658D01*
X181429305Y-87726847D01*
X181429304Y-87726850D01*
X181387122Y-87809637D01*
X181374354Y-87834696D01*
X181373442Y-87840447D01*
X181373442Y-87840451D01*
X181360165Y-87924281D01*
X181354508Y-87960000D01*
X181355419Y-87965752D01*
X181372398Y-88072959D01*
X181374354Y-88085304D01*
X181431950Y-88198342D01*
X181521658Y-88288050D01*
X181634696Y-88345646D01*
X181676318Y-88352238D01*
X181715505Y-88371482D01*
X181737024Y-88409468D01*
X181733385Y-88452973D01*
X181705855Y-88486856D01*
X181667556Y-88512446D01*
X181667553Y-88512448D01*
X181661496Y-88516496D01*
X181657448Y-88522553D01*
X181657446Y-88522556D01*
X181632281Y-88560219D01*
X181628233Y-88566278D01*
X181626811Y-88573421D01*
X181626811Y-88573424D01*
X181620895Y-88603167D01*
X181619500Y-88610180D01*
X181619500Y-89289820D01*
X181628233Y-89333722D01*
X181661496Y-89383504D01*
X181667556Y-89387553D01*
X181673818Y-89391737D01*
X181703660Y-89432248D01*
X181700699Y-89482476D01*
X181666304Y-89519201D01*
X181621658Y-89541950D01*
X181617541Y-89546066D01*
X181617538Y-89546069D01*
X181536069Y-89627538D01*
X181536066Y-89627541D01*
X181531950Y-89631658D01*
X181529305Y-89636847D01*
X181529304Y-89636850D01*
X181483325Y-89727089D01*
X181474354Y-89744696D01*
X181473442Y-89750447D01*
X181473442Y-89750451D01*
X181460920Y-89829515D01*
X181454508Y-89870000D01*
X181455419Y-89875752D01*
X181470963Y-89973898D01*
X181474354Y-89995304D01*
X181531950Y-90108342D01*
X181621658Y-90198050D01*
X181734696Y-90255646D01*
X181860000Y-90275492D01*
X181985304Y-90255646D01*
X182098342Y-90198050D01*
X182188050Y-90108342D01*
X182245646Y-89995304D01*
X182265492Y-89870000D01*
X182245646Y-89744696D01*
X182188050Y-89631658D01*
X182108218Y-89551825D01*
X182087966Y-89513937D01*
X182092177Y-89471181D01*
X182119432Y-89437971D01*
X182160544Y-89425500D01*
X182841180Y-89425500D01*
X182844820Y-89425500D01*
X182888722Y-89416767D01*
X182938504Y-89383504D01*
X182971767Y-89333722D01*
X182980500Y-89289820D01*
X182980500Y-88610180D01*
X182971767Y-88566278D01*
X182938504Y-88516496D01*
X182917732Y-88502617D01*
X182904526Y-88493793D01*
X182888722Y-88483233D01*
X182881576Y-88481811D01*
X182881575Y-88481811D01*
X182848389Y-88475210D01*
X182844820Y-88474500D01*
X181940645Y-88474500D01*
X181894832Y-88458613D01*
X181868690Y-88417775D01*
X181873442Y-88369519D01*
X181907048Y-88334566D01*
X181998342Y-88288050D01*
X182088050Y-88198342D01*
X182145646Y-88085304D01*
X182165492Y-87960000D01*
X182145646Y-87834696D01*
X182088050Y-87721658D01*
X182018218Y-87651826D01*
X181997966Y-87613937D01*
X182002177Y-87571181D01*
X182029432Y-87537971D01*
X182070544Y-87525500D01*
X182841180Y-87525500D01*
X182844820Y-87525500D01*
X182888722Y-87516767D01*
X182938504Y-87483504D01*
X182971767Y-87433722D01*
X182980500Y-87389820D01*
X182980500Y-86710180D01*
X182971767Y-86666278D01*
X182938504Y-86616496D01*
X182888722Y-86583233D01*
X182881576Y-86581811D01*
X182881575Y-86581811D01*
X182848389Y-86575210D01*
X182844820Y-86574500D01*
X182841180Y-86574500D01*
X182759660Y-86574500D01*
X182714161Y-86558860D01*
X182687895Y-86518550D01*
X182691965Y-86470610D01*
X182692565Y-86469249D01*
X182697682Y-86457662D01*
X182700500Y-86433373D01*
X182700499Y-86066628D01*
X182697682Y-86042338D01*
X182653813Y-85942984D01*
X182577016Y-85866187D01*
X182570743Y-85863417D01*
X182570740Y-85863415D01*
X182511868Y-85837420D01*
X182479759Y-85810124D01*
X182467759Y-85769725D01*
X182479760Y-85729327D01*
X182511869Y-85702031D01*
X182570457Y-85676162D01*
X182581575Y-85668545D01*
X182648545Y-85601575D01*
X182656161Y-85590458D01*
X182694937Y-85502639D01*
X182696357Y-85497418D01*
X182695499Y-85492282D01*
X182687594Y-85490000D01*
X181792406Y-85490000D01*
X181783547Y-85492557D01*
X181778051Y-85498727D01*
X181773570Y-85509334D01*
X181747359Y-85531529D01*
X181713950Y-85539500D01*
X181426050Y-85539500D01*
X181392641Y-85531529D01*
X181366430Y-85509334D01*
X181361948Y-85498727D01*
X181356452Y-85492557D01*
X181347594Y-85490000D01*
X180452406Y-85490000D01*
X180443547Y-85492557D01*
X180438051Y-85498727D01*
X180433570Y-85509334D01*
X180407359Y-85531529D01*
X180373950Y-85539500D01*
X180262861Y-85539500D01*
X180258988Y-85539399D01*
X180226700Y-85537706D01*
X180226695Y-85537706D01*
X180218936Y-85537300D01*
X180211679Y-85540085D01*
X180211675Y-85540086D01*
X180196186Y-85546031D01*
X180185061Y-85549326D01*
X180168840Y-85552774D01*
X180168832Y-85552777D01*
X180161232Y-85554393D01*
X180154941Y-85558962D01*
X180154941Y-85558963D01*
X180154351Y-85559392D01*
X180137388Y-85568602D01*
X180136704Y-85568864D01*
X180136698Y-85568867D01*
X180129441Y-85571654D01*
X180123942Y-85577152D01*
X180123940Y-85577154D01*
X180112209Y-85588884D01*
X180103386Y-85596420D01*
X180089966Y-85606170D01*
X180089964Y-85606171D01*
X180083677Y-85610740D01*
X180080206Y-85616749D01*
X180050503Y-85636595D01*
X180014229Y-85639928D01*
X179985754Y-85635419D01*
X179985752Y-85635419D01*
X179980000Y-85634508D01*
X179974248Y-85635419D01*
X179974246Y-85635419D01*
X179969081Y-85636237D01*
X179920900Y-85627460D01*
X179888752Y-85590514D01*
X179886718Y-85541583D01*
X179915688Y-85502097D01*
X179920106Y-85499070D01*
X179989718Y-85429458D01*
X179997336Y-85418337D01*
X180037623Y-85327095D01*
X180040511Y-85316481D01*
X180042533Y-85299053D01*
X180042780Y-85294782D01*
X180042780Y-85161875D01*
X180040720Y-85154191D01*
X180033037Y-85152132D01*
X179602523Y-85152132D01*
X179594839Y-85154191D01*
X179592780Y-85161875D01*
X179592780Y-85542388D01*
X179594839Y-85550071D01*
X179602523Y-85552131D01*
X179747089Y-85552131D01*
X179792902Y-85568017D01*
X179819044Y-85608856D01*
X179814292Y-85657112D01*
X179780685Y-85692064D01*
X179767765Y-85698647D01*
X179746848Y-85709305D01*
X179746845Y-85709306D01*
X179741658Y-85711950D01*
X179737541Y-85716066D01*
X179737538Y-85716069D01*
X179656069Y-85797538D01*
X179656066Y-85797541D01*
X179651950Y-85801658D01*
X179649305Y-85806847D01*
X179649304Y-85806850D01*
X179597000Y-85909502D01*
X179594354Y-85914696D01*
X179593442Y-85920447D01*
X179593442Y-85920451D01*
X179578858Y-86012537D01*
X179574508Y-86040000D01*
X179575419Y-86045752D01*
X179592563Y-86154001D01*
X179594354Y-86165304D01*
X179651950Y-86278342D01*
X179741658Y-86368050D01*
X179854696Y-86425646D01*
X179865840Y-86427411D01*
X179904920Y-86446556D01*
X179926482Y-86484357D01*
X179923067Y-86527741D01*
X179895858Y-86561704D01*
X179854264Y-86574500D01*
X179555180Y-86574500D01*
X179551611Y-86575209D01*
X179551610Y-86575210D01*
X179518424Y-86581811D01*
X179518421Y-86581811D01*
X179511278Y-86583233D01*
X179505220Y-86587280D01*
X179505219Y-86587281D01*
X179467556Y-86612446D01*
X179467553Y-86612448D01*
X179461496Y-86616496D01*
X179457448Y-86622553D01*
X179457446Y-86622556D01*
X179432281Y-86660219D01*
X179428233Y-86666278D01*
X179426811Y-86673421D01*
X179426811Y-86673424D01*
X179420210Y-86706610D01*
X179419500Y-86710180D01*
X179419500Y-87389820D01*
X179420210Y-87393389D01*
X179425838Y-87421685D01*
X179428233Y-87433722D01*
X179453711Y-87471853D01*
X179461496Y-87483504D01*
X179459754Y-87484667D01*
X179472190Y-87506207D01*
X179472190Y-87544513D01*
X179460004Y-87565618D01*
X179461856Y-87566856D01*
X179432751Y-87610414D01*
X179427281Y-87623619D01*
X179420710Y-87656655D01*
X179420000Y-87663865D01*
X179420000Y-87790257D01*
X179422059Y-87797940D01*
X179429743Y-87800000D01*
X180226000Y-87800000D01*
X180263000Y-87809914D01*
X180290086Y-87837000D01*
X180300000Y-87874000D01*
X180300000Y-88126000D01*
X180290086Y-88163000D01*
X180263000Y-88190086D01*
X180226000Y-88200000D01*
X179429744Y-88200000D01*
X179422060Y-88202059D01*
X179420001Y-88209743D01*
X179420001Y-88336133D01*
X179420711Y-88343347D01*
X179427281Y-88376377D01*
X179432752Y-88389586D01*
X179461856Y-88433144D01*
X179460004Y-88434381D01*
X179472190Y-88455487D01*
X179472190Y-88493793D01*
X179459754Y-88515332D01*
X179461496Y-88516496D01*
X179434303Y-88557194D01*
X179428233Y-88566278D01*
X179426811Y-88573421D01*
X179426811Y-88573424D01*
X179420895Y-88603167D01*
X179419500Y-88610180D01*
X179419500Y-89289820D01*
X178654105Y-89289820D01*
X178674939Y-89242637D01*
X178677828Y-89232016D01*
X178679753Y-89215426D01*
X178680000Y-89211155D01*
X178680000Y-89209743D01*
X178677940Y-89202059D01*
X178670257Y-89200000D01*
X178459743Y-89200000D01*
X178452059Y-89202059D01*
X178450000Y-89209743D01*
X178450000Y-89447594D01*
X178452282Y-89455499D01*
X178455112Y-89455972D01*
X178496285Y-89477697D01*
X178516337Y-89519711D01*
X178507331Y-89565385D01*
X178481416Y-89588866D01*
X178482789Y-89590871D01*
X178477130Y-89594746D01*
X178470859Y-89597516D01*
X178466013Y-89602361D01*
X178466010Y-89602364D01*
X178400232Y-89668142D01*
X178400229Y-89668145D01*
X178395384Y-89672991D01*
X178392615Y-89679260D01*
X178392614Y-89679263D01*
X178354516Y-89765545D01*
X178354514Y-89765551D01*
X178352270Y-89770634D01*
X178351629Y-89776152D01*
X178351628Y-89776159D01*
X178349746Y-89792380D01*
X178349745Y-89792397D01*
X178349500Y-89794509D01*
X178349500Y-89796651D01*
X178349500Y-89796652D01*
X178349500Y-90247608D01*
X178349500Y-90247625D01*
X178169995Y-90247625D01*
X178170000Y-90247545D01*
X178170000Y-90231875D01*
X178167940Y-90224191D01*
X178160257Y-90222132D01*
X177339743Y-90222132D01*
X177332059Y-90224191D01*
X177330000Y-90231875D01*
X177330000Y-90247545D01*
X177330246Y-90251816D01*
X177332122Y-90267987D01*
X177335010Y-90278601D01*
X177373033Y-90364713D01*
X177380651Y-90375834D01*
X177446297Y-90441480D01*
X177454475Y-90447082D01*
X177482542Y-90483806D01*
X177483343Y-90530021D01*
X177456565Y-90567696D01*
X177412655Y-90582132D01*
X177388845Y-90582132D01*
X177384573Y-90582378D01*
X177367983Y-90584303D01*
X177357362Y-90587192D01*
X177269541Y-90625970D01*
X177258424Y-90633586D01*
X177191454Y-90700556D01*
X177183838Y-90711673D01*
X177145062Y-90799492D01*
X177143642Y-90804713D01*
X177144500Y-90809849D01*
X177152406Y-90812132D01*
X177726000Y-90812132D01*
X177763000Y-90822046D01*
X177790086Y-90849132D01*
X177800000Y-90886132D01*
X177800000Y-91138132D01*
X177790086Y-91175132D01*
X177763000Y-91202218D01*
X177726000Y-91212132D01*
X177346544Y-91212132D01*
X177318225Y-91206499D01*
X177294218Y-91190458D01*
X177222461Y-91118701D01*
X177218342Y-91114582D01*
X177105304Y-91056986D01*
X177099550Y-91056074D01*
X177099548Y-91056074D01*
X176985752Y-91038051D01*
X176980000Y-91037140D01*
X176974248Y-91038051D01*
X176854696Y-91056986D01*
X176854496Y-91055727D01*
X176820111Y-91056624D01*
X176784275Y-91034660D01*
X176766182Y-90996723D01*
X176755646Y-90930196D01*
X176698050Y-90817158D01*
X176608342Y-90727450D01*
X176495304Y-90669854D01*
X176489550Y-90668942D01*
X176489548Y-90668942D01*
X176375752Y-90650919D01*
X176370000Y-90650008D01*
X176364248Y-90650919D01*
X176265576Y-90666547D01*
X176223901Y-90661060D01*
X176191938Y-90633761D01*
X176180000Y-90593458D01*
X176180000Y-90572959D01*
X176190743Y-90537539D01*
X176190457Y-90537421D01*
X176191661Y-90534511D01*
X176192470Y-90531848D01*
X176197295Y-90524627D01*
X176218677Y-90417132D01*
X176197295Y-90309637D01*
X176192469Y-90302415D01*
X176191661Y-90299752D01*
X176190457Y-90296843D01*
X176190743Y-90296724D01*
X176180000Y-90261305D01*
X176180000Y-90072959D01*
X176190743Y-90037539D01*
X176190457Y-90037421D01*
X176191661Y-90034511D01*
X176192470Y-90031848D01*
X176197295Y-90024627D01*
X176218677Y-89917132D01*
X176197295Y-89809637D01*
X176192469Y-89802415D01*
X176191661Y-89799752D01*
X176190457Y-89796843D01*
X176190743Y-89796724D01*
X176180000Y-89761305D01*
X176180000Y-89572959D01*
X176190743Y-89537539D01*
X176190457Y-89537421D01*
X176191661Y-89534511D01*
X176192470Y-89531848D01*
X176197295Y-89524627D01*
X176218677Y-89417132D01*
X176197295Y-89309637D01*
X176192469Y-89302415D01*
X176191661Y-89299752D01*
X176190457Y-89296843D01*
X176190743Y-89296724D01*
X176180000Y-89261305D01*
X176180000Y-89216632D01*
X176189914Y-89179632D01*
X176217000Y-89152546D01*
X176254000Y-89142632D01*
X176785690Y-89142632D01*
X176821451Y-89151847D01*
X176848306Y-89177196D01*
X176859501Y-89212160D01*
X176859501Y-89213372D01*
X176859747Y-89215501D01*
X176859748Y-89215502D01*
X176861676Y-89232131D01*
X176861676Y-89232134D01*
X176862318Y-89237662D01*
X176864565Y-89242752D01*
X176864566Y-89242754D01*
X176891423Y-89303579D01*
X176906187Y-89337016D01*
X176982984Y-89413813D01*
X177082338Y-89457682D01*
X177106627Y-89460500D01*
X177415038Y-89460499D01*
X177458948Y-89474934D01*
X177485726Y-89512609D01*
X177484926Y-89558823D01*
X177456859Y-89595548D01*
X177446298Y-89602782D01*
X177380651Y-89668429D01*
X177373033Y-89679550D01*
X177335010Y-89765662D01*
X177332122Y-89776276D01*
X177330246Y-89792447D01*
X177330000Y-89796719D01*
X177330000Y-89812389D01*
X177332059Y-89820072D01*
X177339743Y-89822132D01*
X177540257Y-89822132D01*
X177547940Y-89820072D01*
X177550000Y-89812389D01*
X177550000Y-89565204D01*
X177547442Y-89556345D01*
X177542765Y-89552178D01*
X177519145Y-89509955D01*
X177526662Y-89462163D01*
X177562098Y-89429230D01*
X177597016Y-89413813D01*
X177673813Y-89337016D01*
X177702578Y-89271868D01*
X177729874Y-89239760D01*
X177770273Y-89227759D01*
X177810671Y-89239759D01*
X177837968Y-89271868D01*
X177863838Y-89330458D01*
X177871454Y-89341575D01*
X177938424Y-89408545D01*
X177949543Y-89416162D01*
X177955897Y-89418968D01*
X177990409Y-89450217D01*
X177999429Y-89495891D01*
X177979387Y-89537913D01*
X177964317Y-89545868D01*
X177952556Y-89556345D01*
X177950000Y-89565204D01*
X177950000Y-89812389D01*
X177952059Y-89820072D01*
X177959743Y-89822132D01*
X178160257Y-89822132D01*
X178167940Y-89820072D01*
X178170000Y-89812389D01*
X178170000Y-89796719D01*
X178169753Y-89792447D01*
X178167877Y-89776276D01*
X178164989Y-89765662D01*
X178126966Y-89679550D01*
X178119348Y-89668429D01*
X178053702Y-89602783D01*
X178042581Y-89595165D01*
X178040805Y-89594381D01*
X178038843Y-89592604D01*
X178036924Y-89591290D01*
X178037102Y-89591028D01*
X178006291Y-89563130D01*
X177997273Y-89517452D01*
X178017321Y-89475430D01*
X178038956Y-89464011D01*
X178047442Y-89456452D01*
X178050000Y-89447594D01*
X178050000Y-88790257D01*
X178450000Y-88790257D01*
X178452059Y-88797940D01*
X178459743Y-88800000D01*
X178670257Y-88800000D01*
X178677940Y-88797940D01*
X178680000Y-88790257D01*
X178680000Y-88788845D01*
X178679753Y-88784573D01*
X178677828Y-88767983D01*
X178674939Y-88757362D01*
X178636161Y-88669541D01*
X178628545Y-88658424D01*
X178561575Y-88591454D01*
X178550458Y-88583838D01*
X178462639Y-88545062D01*
X178457418Y-88543642D01*
X178452282Y-88544500D01*
X178450000Y-88552406D01*
X178450000Y-88790257D01*
X178050000Y-88790257D01*
X178050000Y-88552406D01*
X178047717Y-88544500D01*
X178042581Y-88543642D01*
X178037360Y-88545062D01*
X177949541Y-88583838D01*
X177938424Y-88591454D01*
X177871454Y-88658424D01*
X177863835Y-88669545D01*
X177837967Y-88728131D01*
X177810671Y-88760240D01*
X177770273Y-88772240D01*
X177729874Y-88760239D01*
X177702578Y-88728130D01*
X177677156Y-88670556D01*
X177673813Y-88662984D01*
X177597016Y-88586187D01*
X177572140Y-88575203D01*
X177502750Y-88544564D01*
X177502746Y-88544563D01*
X177497662Y-88542318D01*
X177492141Y-88541677D01*
X177492136Y-88541676D01*
X177475501Y-88539746D01*
X177475485Y-88539745D01*
X177473373Y-88539500D01*
X177471229Y-88539500D01*
X177108773Y-88539500D01*
X177108755Y-88539500D01*
X177106628Y-88539501D01*
X177104502Y-88539747D01*
X177104494Y-88539748D01*
X177087868Y-88541676D01*
X177087863Y-88541677D01*
X177082338Y-88542318D01*
X177077249Y-88544564D01*
X177077245Y-88544566D01*
X176989256Y-88583417D01*
X176989253Y-88583418D01*
X176982984Y-88586187D01*
X176978138Y-88591032D01*
X176978135Y-88591035D01*
X176911035Y-88658135D01*
X176911032Y-88658138D01*
X176906354Y-88662816D01*
X176906345Y-88662825D01*
X176906187Y-88662984D01*
X176906177Y-88662974D01*
X176883591Y-88683094D01*
X176849084Y-88691632D01*
X176254000Y-88691632D01*
X176217000Y-88681718D01*
X176189914Y-88654632D01*
X176180000Y-88617632D01*
X176180000Y-88572959D01*
X176190743Y-88537539D01*
X176190457Y-88537421D01*
X176191661Y-88534511D01*
X176192470Y-88531848D01*
X176197295Y-88524627D01*
X176218677Y-88417132D01*
X176197295Y-88309637D01*
X176192469Y-88302415D01*
X176191661Y-88299752D01*
X176190457Y-88296843D01*
X176190743Y-88296724D01*
X176180000Y-88261305D01*
X176180000Y-88072959D01*
X176190743Y-88037539D01*
X176190457Y-88037421D01*
X176191661Y-88034511D01*
X176192470Y-88031848D01*
X176197295Y-88024627D01*
X176218677Y-87917132D01*
X176198150Y-87813935D01*
X176202361Y-87771182D01*
X176229616Y-87737971D01*
X176270728Y-87725500D01*
X176538280Y-87725500D01*
X176575280Y-87735414D01*
X176602366Y-87762500D01*
X176612280Y-87799500D01*
X176612280Y-88023358D01*
X176612280Y-88023375D01*
X176612281Y-88025504D01*
X176612527Y-88027630D01*
X176612528Y-88027637D01*
X176614456Y-88044263D01*
X176614456Y-88044266D01*
X176615098Y-88049794D01*
X176617345Y-88054884D01*
X176617346Y-88054886D01*
X176648522Y-88125492D01*
X176658967Y-88149148D01*
X176735764Y-88225945D01*
X176835118Y-88269814D01*
X176859407Y-88272632D01*
X177226152Y-88272631D01*
X177250442Y-88269814D01*
X177349796Y-88225945D01*
X177426593Y-88149148D01*
X177455358Y-88084000D01*
X177482654Y-88051892D01*
X177523053Y-88039891D01*
X177563451Y-88051891D01*
X177590748Y-88084000D01*
X177616618Y-88142590D01*
X177624234Y-88153707D01*
X177691204Y-88220677D01*
X177702321Y-88228293D01*
X177790140Y-88267069D01*
X177795361Y-88268489D01*
X177800497Y-88267631D01*
X177802780Y-88259726D01*
X178202780Y-88259726D01*
X178205062Y-88267631D01*
X178210198Y-88268489D01*
X178215419Y-88267069D01*
X178303238Y-88228293D01*
X178314355Y-88220677D01*
X178381325Y-88153707D01*
X178388941Y-88142590D01*
X178427719Y-88054769D01*
X178430608Y-88044148D01*
X178432533Y-88027558D01*
X178432780Y-88023287D01*
X178432780Y-88021875D01*
X178430720Y-88014191D01*
X178423037Y-88012132D01*
X178212523Y-88012132D01*
X178204839Y-88014191D01*
X178202780Y-88021875D01*
X178202780Y-88259726D01*
X177802780Y-88259726D01*
X177802780Y-87364538D01*
X177800222Y-87355679D01*
X177799678Y-87355195D01*
X177767749Y-87340185D01*
X177745693Y-87306790D01*
X177744250Y-87266795D01*
X177763843Y-87231898D01*
X177821742Y-87173999D01*
X177821742Y-87173998D01*
X177826593Y-87169148D01*
X177855358Y-87104000D01*
X177882654Y-87071892D01*
X177923053Y-87059891D01*
X177963451Y-87071891D01*
X177990748Y-87104000D01*
X178016618Y-87162590D01*
X178024234Y-87173707D01*
X178091204Y-87240677D01*
X178102323Y-87248294D01*
X178162049Y-87274666D01*
X178189869Y-87296041D01*
X178204718Y-87327826D01*
X178203258Y-87362879D01*
X178202780Y-87364535D01*
X178202780Y-87602389D01*
X178204839Y-87610072D01*
X178212523Y-87612132D01*
X178423037Y-87612132D01*
X178430720Y-87610072D01*
X178432780Y-87602389D01*
X178432780Y-87600977D01*
X178432533Y-87596705D01*
X178430608Y-87580115D01*
X178427719Y-87569494D01*
X178388941Y-87481673D01*
X178381325Y-87470556D01*
X178314355Y-87403586D01*
X178303238Y-87395970D01*
X178243509Y-87369597D01*
X178215688Y-87348220D01*
X178200840Y-87316432D01*
X178202303Y-87281377D01*
X178202780Y-87279726D01*
X178602780Y-87279726D01*
X178605062Y-87287631D01*
X178610198Y-87288489D01*
X178615419Y-87287069D01*
X178703238Y-87248293D01*
X178714355Y-87240677D01*
X178781325Y-87173707D01*
X178788941Y-87162590D01*
X178827719Y-87074769D01*
X178830608Y-87064148D01*
X178832533Y-87047558D01*
X178832780Y-87043287D01*
X178832780Y-87041875D01*
X178830720Y-87034191D01*
X178823037Y-87032132D01*
X178612523Y-87032132D01*
X178604839Y-87034191D01*
X178602780Y-87041875D01*
X178602780Y-87279726D01*
X178202780Y-87279726D01*
X178202780Y-87279725D01*
X178202780Y-86622389D01*
X178602780Y-86622389D01*
X178604839Y-86630072D01*
X178612523Y-86632132D01*
X178823037Y-86632132D01*
X178830720Y-86630072D01*
X178832780Y-86622389D01*
X178832780Y-86620977D01*
X178832533Y-86616705D01*
X178830608Y-86600115D01*
X178827719Y-86589494D01*
X178788941Y-86501673D01*
X178781325Y-86490556D01*
X178714354Y-86423585D01*
X178711466Y-86421607D01*
X178683121Y-86384074D01*
X178683121Y-86337040D01*
X178711466Y-86299507D01*
X178724354Y-86290678D01*
X178791325Y-86223707D01*
X178798941Y-86212590D01*
X178837719Y-86124769D01*
X178840608Y-86114148D01*
X178842533Y-86097558D01*
X178842780Y-86093287D01*
X178842780Y-86091875D01*
X178840720Y-86084191D01*
X178833037Y-86082132D01*
X178622523Y-86082132D01*
X178614839Y-86084191D01*
X178612780Y-86091875D01*
X178612780Y-86340194D01*
X178611208Y-86340194D01*
X178611527Y-86362416D01*
X178609917Y-86365236D01*
X178602780Y-86391875D01*
X178602780Y-86622389D01*
X178202780Y-86622389D01*
X178202780Y-86374070D01*
X178204356Y-86374070D01*
X178204038Y-86351823D01*
X178205648Y-86349004D01*
X178212780Y-86322389D01*
X178212780Y-85672389D01*
X178612780Y-85672389D01*
X178614839Y-85680072D01*
X178622523Y-85682132D01*
X178833037Y-85682132D01*
X178840720Y-85680072D01*
X178842780Y-85672389D01*
X178842780Y-85670977D01*
X178842533Y-85666705D01*
X178840608Y-85650115D01*
X178837719Y-85639494D01*
X178832624Y-85627956D01*
X178827579Y-85584468D01*
X178847993Y-85545739D01*
X178886721Y-85525325D01*
X178930209Y-85530370D01*
X178967816Y-85546975D01*
X178978430Y-85549863D01*
X178995858Y-85551885D01*
X179000130Y-85552132D01*
X179183037Y-85552132D01*
X179190720Y-85550072D01*
X179192780Y-85542389D01*
X179192780Y-85161875D01*
X179190720Y-85154191D01*
X179183037Y-85152132D01*
X178752524Y-85152132D01*
X178744840Y-85154191D01*
X178742781Y-85161875D01*
X178742781Y-85294779D01*
X178743028Y-85299057D01*
X178745048Y-85316475D01*
X178747938Y-85327099D01*
X178755353Y-85343892D01*
X178760398Y-85387380D01*
X178739984Y-85426108D01*
X178701255Y-85446522D01*
X178657768Y-85441477D01*
X178625422Y-85427194D01*
X178620198Y-85425774D01*
X178615062Y-85426632D01*
X178612780Y-85434538D01*
X178612780Y-85672389D01*
X178212780Y-85672389D01*
X178212780Y-85434538D01*
X178210497Y-85426632D01*
X178205361Y-85425774D01*
X178200140Y-85427194D01*
X178112321Y-85465970D01*
X178101204Y-85473586D01*
X178034234Y-85540556D01*
X178026615Y-85551677D01*
X178000747Y-85610263D01*
X177973451Y-85642372D01*
X177933053Y-85654372D01*
X177892654Y-85642371D01*
X177865358Y-85610262D01*
X177846705Y-85568017D01*
X177836593Y-85545116D01*
X177805572Y-85514095D01*
X177784214Y-85468596D01*
X177795504Y-85425125D01*
X177794986Y-85424897D01*
X177794985Y-85424897D01*
X177840365Y-85322123D01*
X177843280Y-85296997D01*
X177843280Y-85082581D01*
X180443642Y-85082581D01*
X180444500Y-85087717D01*
X180452406Y-85090000D01*
X180690257Y-85090000D01*
X180697940Y-85087940D01*
X180700000Y-85080257D01*
X181100000Y-85080257D01*
X181102059Y-85087940D01*
X181109743Y-85090000D01*
X181347594Y-85090000D01*
X181355499Y-85087717D01*
X181356357Y-85082581D01*
X181783642Y-85082581D01*
X181784500Y-85087717D01*
X181792406Y-85090000D01*
X182030257Y-85090000D01*
X182037940Y-85087940D01*
X182040000Y-85080257D01*
X182440000Y-85080257D01*
X182442059Y-85087940D01*
X182449743Y-85090000D01*
X182687594Y-85090000D01*
X182695499Y-85087717D01*
X182696357Y-85082581D01*
X182694937Y-85077360D01*
X182656161Y-84989541D01*
X182648545Y-84978424D01*
X182581575Y-84911454D01*
X182570458Y-84903838D01*
X182482637Y-84865060D01*
X182472016Y-84862171D01*
X182455426Y-84860246D01*
X182451155Y-84860000D01*
X182449743Y-84860000D01*
X182442059Y-84862059D01*
X182440000Y-84869743D01*
X182440000Y-85080257D01*
X182040000Y-85080257D01*
X182040000Y-84869743D01*
X182037940Y-84862059D01*
X182030257Y-84860000D01*
X182028845Y-84860000D01*
X182024573Y-84860246D01*
X182007983Y-84862171D01*
X181997362Y-84865060D01*
X181909541Y-84903838D01*
X181898424Y-84911454D01*
X181831454Y-84978424D01*
X181823838Y-84989541D01*
X181785062Y-85077360D01*
X181783642Y-85082581D01*
X181356357Y-85082581D01*
X181354937Y-85077360D01*
X181316161Y-84989541D01*
X181308545Y-84978424D01*
X181241575Y-84911454D01*
X181230458Y-84903838D01*
X181142637Y-84865060D01*
X181132016Y-84862171D01*
X181115426Y-84860246D01*
X181111155Y-84860000D01*
X181109743Y-84860000D01*
X181102059Y-84862059D01*
X181100000Y-84869743D01*
X181100000Y-85080257D01*
X180700000Y-85080257D01*
X180700000Y-84869743D01*
X180697940Y-84862059D01*
X180690257Y-84860000D01*
X180688845Y-84860000D01*
X180684573Y-84860246D01*
X180667983Y-84862171D01*
X180657362Y-84865060D01*
X180569541Y-84903838D01*
X180558424Y-84911454D01*
X180491454Y-84978424D01*
X180483838Y-84989541D01*
X180445062Y-85077360D01*
X180443642Y-85082581D01*
X177843280Y-85082581D01*
X177843279Y-84742389D01*
X178742780Y-84742389D01*
X178744839Y-84750072D01*
X178752523Y-84752132D01*
X179183037Y-84752132D01*
X179190720Y-84750072D01*
X179192780Y-84742389D01*
X179592780Y-84742389D01*
X179594839Y-84750072D01*
X179602523Y-84752132D01*
X180033036Y-84752132D01*
X180040719Y-84750072D01*
X180042779Y-84742389D01*
X180042779Y-84609485D01*
X180042531Y-84605206D01*
X180040511Y-84587788D01*
X180037621Y-84577164D01*
X179997336Y-84485926D01*
X179989718Y-84474805D01*
X179920106Y-84405193D01*
X179908985Y-84397575D01*
X179817743Y-84357288D01*
X179807129Y-84354400D01*
X179789701Y-84352378D01*
X179785430Y-84352132D01*
X179602523Y-84352132D01*
X179594839Y-84354191D01*
X179592780Y-84361875D01*
X179592780Y-84742389D01*
X179192780Y-84742389D01*
X179192780Y-84361876D01*
X179190720Y-84354192D01*
X179183037Y-84352133D01*
X179000133Y-84352133D01*
X178995854Y-84352380D01*
X178978436Y-84354400D01*
X178967812Y-84357290D01*
X178876572Y-84397576D01*
X178872269Y-84400524D01*
X178835526Y-84410444D01*
X178836147Y-84417012D01*
X178815934Y-84454712D01*
X178795842Y-84474804D01*
X178788223Y-84485926D01*
X178747936Y-84577168D01*
X178745048Y-84587782D01*
X178743026Y-84605210D01*
X178742780Y-84609482D01*
X178742780Y-84742389D01*
X177843279Y-84742389D01*
X177843279Y-84607268D01*
X177840365Y-84582141D01*
X177818980Y-84533708D01*
X177795938Y-84481522D01*
X177791868Y-84433582D01*
X177818134Y-84393272D01*
X177863633Y-84377632D01*
X178584919Y-84377632D01*
X178588792Y-84377733D01*
X178628844Y-84379832D01*
X178651592Y-84371099D01*
X178662710Y-84367805D01*
X178686548Y-84362739D01*
X178693419Y-84357746D01*
X178710404Y-84348523D01*
X178718340Y-84345478D01*
X178723569Y-84340248D01*
X178761299Y-84329286D01*
X178766362Y-84302479D01*
X178768350Y-84299035D01*
X178780109Y-84283707D01*
X179089511Y-83974305D01*
X179113519Y-83958264D01*
X179141838Y-83952631D01*
X179785499Y-83952631D01*
X179787644Y-83952631D01*
X179812771Y-83949717D01*
X179915545Y-83904338D01*
X179994986Y-83824897D01*
X180040365Y-83722123D01*
X180043280Y-83696997D01*
X180043280Y-83480000D01*
X180464508Y-83480000D01*
X180465419Y-83485752D01*
X180483243Y-83598294D01*
X180484354Y-83605304D01*
X180541950Y-83718342D01*
X180631658Y-83808050D01*
X180744696Y-83865646D01*
X180865115Y-83884718D01*
X180905865Y-83905481D01*
X181027826Y-84027442D01*
X181043867Y-84051449D01*
X181049500Y-84079768D01*
X181049500Y-84278608D01*
X181049500Y-84278620D01*
X181049501Y-84281518D01*
X181049955Y-84284390D01*
X181049956Y-84284391D01*
X181063442Y-84369549D01*
X181063443Y-84369552D01*
X181064354Y-84375304D01*
X181066998Y-84380493D01*
X181066999Y-84380496D01*
X181116317Y-84477287D01*
X181121950Y-84488342D01*
X181211658Y-84578050D01*
X181324696Y-84635646D01*
X181409873Y-84649136D01*
X181415595Y-84650043D01*
X181418481Y-84650500D01*
X181981518Y-84650499D01*
X182075304Y-84635646D01*
X182188342Y-84578050D01*
X182278050Y-84488342D01*
X182335646Y-84375304D01*
X182350500Y-84281519D01*
X182350499Y-83718482D01*
X182335646Y-83624696D01*
X182278050Y-83511658D01*
X182218365Y-83451972D01*
X182199212Y-83418800D01*
X182199212Y-83380494D01*
X182218365Y-83347321D01*
X182273521Y-83292164D01*
X182280286Y-83282852D01*
X182332518Y-83180341D01*
X182336076Y-83169392D01*
X182349544Y-83084353D01*
X182350000Y-83078572D01*
X182350000Y-83009743D01*
X182347940Y-83002059D01*
X182340257Y-83000000D01*
X181059744Y-83000000D01*
X181052060Y-83002059D01*
X181050001Y-83009743D01*
X181050001Y-83016374D01*
X181038063Y-83056677D01*
X181006100Y-83083976D01*
X180964425Y-83089463D01*
X180875752Y-83075419D01*
X180870000Y-83074508D01*
X180864248Y-83075419D01*
X180750451Y-83093442D01*
X180750447Y-83093442D01*
X180744696Y-83094354D01*
X180739504Y-83096999D01*
X180739502Y-83097000D01*
X180636850Y-83149304D01*
X180636847Y-83149305D01*
X180631658Y-83151950D01*
X180627541Y-83156066D01*
X180627538Y-83156069D01*
X180546069Y-83237538D01*
X180546066Y-83237541D01*
X180541950Y-83241658D01*
X180539305Y-83246847D01*
X180539304Y-83246850D01*
X180487001Y-83349501D01*
X180484354Y-83354696D01*
X180483442Y-83360447D01*
X180483442Y-83360451D01*
X180470203Y-83444041D01*
X180464508Y-83480000D01*
X180043280Y-83480000D01*
X180043279Y-83007268D01*
X180040365Y-82982141D01*
X179994986Y-82879367D01*
X179915545Y-82799926D01*
X179903467Y-82794593D01*
X179817859Y-82756793D01*
X179817855Y-82756792D01*
X179812771Y-82754547D01*
X179807250Y-82753906D01*
X179807245Y-82753905D01*
X179789773Y-82751878D01*
X179789757Y-82751877D01*
X179787645Y-82751632D01*
X179785501Y-82751632D01*
X179000061Y-82751632D01*
X179000043Y-82751632D01*
X178997916Y-82751633D01*
X178995790Y-82751879D01*
X178995782Y-82751880D01*
X178978319Y-82753905D01*
X178978314Y-82753906D01*
X178972789Y-82754547D01*
X178967700Y-82756793D01*
X178967696Y-82756795D01*
X178876287Y-82797156D01*
X178876284Y-82797157D01*
X178870015Y-82799926D01*
X178865169Y-82804771D01*
X178865166Y-82804774D01*
X178795422Y-82874518D01*
X178795419Y-82874521D01*
X178790574Y-82879367D01*
X178787805Y-82885636D01*
X178787804Y-82885639D01*
X178747441Y-82977052D01*
X178747439Y-82977057D01*
X178745195Y-82982141D01*
X178744554Y-82987659D01*
X178744553Y-82987666D01*
X178742526Y-83005138D01*
X178742525Y-83005155D01*
X178742280Y-83007267D01*
X178742280Y-83009410D01*
X178742280Y-83653074D01*
X178736647Y-83681392D01*
X178720606Y-83705400D01*
X178521049Y-83904958D01*
X178497042Y-83920999D01*
X178468723Y-83926632D01*
X177863087Y-83926632D01*
X177817588Y-83910992D01*
X177791322Y-83870682D01*
X177795392Y-83822742D01*
X177837623Y-83727095D01*
X177840511Y-83716481D01*
X177842533Y-83699053D01*
X177842780Y-83694782D01*
X177842780Y-83561875D01*
X177840720Y-83554191D01*
X177833037Y-83552132D01*
X176552524Y-83552132D01*
X176544840Y-83554191D01*
X176542781Y-83561875D01*
X176542781Y-83694779D01*
X176543028Y-83699057D01*
X176545048Y-83716475D01*
X176547938Y-83727099D01*
X176588223Y-83818337D01*
X176595841Y-83829458D01*
X176596689Y-83830306D01*
X176597636Y-83832079D01*
X176599717Y-83835116D01*
X176599382Y-83835345D01*
X176616941Y-83868195D01*
X176612730Y-83910951D01*
X176585475Y-83944161D01*
X176544363Y-83956632D01*
X176140804Y-83956632D01*
X176100405Y-83944631D01*
X176073109Y-83912522D01*
X176072433Y-83910992D01*
X176056593Y-83875116D01*
X175979796Y-83798319D01*
X175973523Y-83795549D01*
X175973520Y-83795547D01*
X175914648Y-83769552D01*
X175882539Y-83742256D01*
X175870539Y-83701857D01*
X175882540Y-83661459D01*
X175914649Y-83634163D01*
X175973237Y-83608294D01*
X175984355Y-83600677D01*
X176051325Y-83533707D01*
X176058941Y-83522590D01*
X176097717Y-83434771D01*
X176099137Y-83429550D01*
X176098279Y-83424414D01*
X176090374Y-83422132D01*
X175516780Y-83422132D01*
X175479780Y-83412218D01*
X175452694Y-83385132D01*
X175442780Y-83348132D01*
X175442780Y-83142389D01*
X176542780Y-83142389D01*
X176544839Y-83150072D01*
X176552523Y-83152132D01*
X176983037Y-83152132D01*
X176990720Y-83150072D01*
X176992780Y-83142389D01*
X177392780Y-83142389D01*
X177394839Y-83150072D01*
X177402523Y-83152132D01*
X177833036Y-83152132D01*
X177840719Y-83150072D01*
X177842779Y-83142389D01*
X177842779Y-83009485D01*
X177842531Y-83005206D01*
X177840511Y-82987788D01*
X177837621Y-82977164D01*
X177797336Y-82885926D01*
X177789718Y-82874805D01*
X177720106Y-82805193D01*
X177708985Y-82797575D01*
X177617743Y-82757288D01*
X177607129Y-82754400D01*
X177589701Y-82752378D01*
X177585430Y-82752132D01*
X177402523Y-82752132D01*
X177394839Y-82754191D01*
X177392780Y-82761875D01*
X177392780Y-83142389D01*
X176992780Y-83142389D01*
X176992780Y-82761876D01*
X176990720Y-82754192D01*
X176983037Y-82752133D01*
X176800133Y-82752133D01*
X176795854Y-82752380D01*
X176778436Y-82754400D01*
X176767812Y-82757290D01*
X176676574Y-82797575D01*
X176665453Y-82805193D01*
X176595841Y-82874805D01*
X176588223Y-82885926D01*
X176547936Y-82977168D01*
X176545048Y-82987782D01*
X176543026Y-83005210D01*
X176542780Y-83009482D01*
X176542780Y-83142389D01*
X175442780Y-83142389D01*
X175442780Y-83012389D01*
X175842780Y-83012389D01*
X175844839Y-83020072D01*
X175852523Y-83022132D01*
X176090374Y-83022132D01*
X176098279Y-83019849D01*
X176099137Y-83014713D01*
X176097717Y-83009492D01*
X176058941Y-82921673D01*
X176051325Y-82910556D01*
X175984355Y-82843586D01*
X175973238Y-82835970D01*
X175885417Y-82797192D01*
X175874796Y-82794303D01*
X175858206Y-82792378D01*
X175853935Y-82792132D01*
X175852523Y-82792132D01*
X175844839Y-82794191D01*
X175842780Y-82801875D01*
X175842780Y-83012389D01*
X175442780Y-83012389D01*
X175442780Y-82801875D01*
X175437996Y-82784023D01*
X175430850Y-82772361D01*
X175428139Y-82737918D01*
X175441361Y-82705998D01*
X175443929Y-82702462D01*
X175448050Y-82698342D01*
X175505646Y-82585304D01*
X175525492Y-82460000D01*
X175505646Y-82334696D01*
X175448050Y-82221658D01*
X175363218Y-82136826D01*
X175342966Y-82098937D01*
X175347177Y-82056181D01*
X175374432Y-82022971D01*
X175415544Y-82010500D01*
X181359031Y-82010500D01*
X181400625Y-82023296D01*
X181427835Y-82057259D01*
X181431249Y-82100643D01*
X181409687Y-82138444D01*
X181370606Y-82157589D01*
X181330606Y-82163923D01*
X181319659Y-82167480D01*
X181217147Y-82219713D01*
X181207835Y-82226478D01*
X181126478Y-82307835D01*
X181119713Y-82317147D01*
X181067481Y-82419658D01*
X181063923Y-82430607D01*
X181050455Y-82515646D01*
X181050000Y-82521428D01*
X181050000Y-82590257D01*
X181052059Y-82597940D01*
X181059743Y-82600000D01*
X182340256Y-82600000D01*
X182347939Y-82597940D01*
X182349999Y-82590257D01*
X182349999Y-82521429D01*
X182349543Y-82515645D01*
X182336076Y-82430606D01*
X182332519Y-82419659D01*
X182280286Y-82317147D01*
X182273521Y-82307835D01*
X182192164Y-82226478D01*
X182182852Y-82219713D01*
X182080341Y-82167481D01*
X182069392Y-82163923D01*
X182029397Y-82157589D01*
X181990317Y-82138444D01*
X181968755Y-82100643D01*
X181972169Y-82057259D01*
X181999379Y-82023296D01*
X182040973Y-82010500D01*
X182296588Y-82010500D01*
X182296773Y-82010500D01*
X182303222Y-82010782D01*
X182342078Y-82014181D01*
X182465374Y-82024968D01*
X182478067Y-82027205D01*
X182632177Y-82068498D01*
X182644297Y-82072910D01*
X182788889Y-82140335D01*
X182800050Y-82146779D01*
X182930734Y-82238285D01*
X182940615Y-82246576D01*
X183053423Y-82359384D01*
X183061714Y-82369265D01*
X183153217Y-82499944D01*
X183159667Y-82511115D01*
X183227089Y-82655703D01*
X183231501Y-82667824D01*
X183272792Y-82821924D01*
X183275031Y-82834627D01*
X183289218Y-82996777D01*
X183289500Y-83003227D01*
X183289500Y-92396773D01*
X183289218Y-92403223D01*
X183275031Y-92565372D01*
X183272792Y-92578075D01*
X183231501Y-92732175D01*
X183227089Y-92744296D01*
X183159667Y-92888884D01*
X183153217Y-92900055D01*
X183061714Y-93030734D01*
X183053423Y-93040615D01*
X182940615Y-93153423D01*
X182930734Y-93161714D01*
X182800055Y-93253217D01*
X182788884Y-93259667D01*
X182644296Y-93327089D01*
X182632175Y-93331501D01*
X182478075Y-93372792D01*
X182465372Y-93375031D01*
X182303223Y-93389218D01*
X182296773Y-93389500D01*
X170301029Y-93389500D01*
X170270000Y-93379954D01*
X170238971Y-93389500D01*
X168221029Y-93389500D01*
X168190000Y-93379954D01*
X168158971Y-93389500D01*
X167003227Y-93389500D01*
X166996777Y-93389218D01*
X166834627Y-93375031D01*
X166821924Y-93372792D01*
X166667824Y-93331501D01*
X166655703Y-93327089D01*
X166511115Y-93259667D01*
X166499944Y-93253217D01*
X166498120Y-93251940D01*
X166419490Y-93196882D01*
X166369265Y-93161714D01*
X166359384Y-93153423D01*
X166246576Y-93040615D01*
X166238285Y-93030734D01*
X166204030Y-92981813D01*
X166146779Y-92900050D01*
X166140335Y-92888889D01*
X166072910Y-92744296D01*
X166068498Y-92732175D01*
X166062423Y-92709502D01*
X166027205Y-92578067D01*
X166024968Y-92565371D01*
X166023107Y-92544104D01*
X166010782Y-92403222D01*
X166010500Y-92396773D01*
X166010500Y-92253287D01*
X166792780Y-92253287D01*
X166793026Y-92257558D01*
X166794951Y-92274148D01*
X166797840Y-92284769D01*
X166836618Y-92372590D01*
X166844234Y-92383707D01*
X166911204Y-92450677D01*
X166922321Y-92458293D01*
X167010140Y-92497069D01*
X167015361Y-92498489D01*
X167020497Y-92497631D01*
X167022780Y-92489726D01*
X167022780Y-92251875D01*
X167020720Y-92244191D01*
X167013037Y-92242132D01*
X166802523Y-92242132D01*
X166794839Y-92244191D01*
X166792780Y-92251875D01*
X166792780Y-92253287D01*
X166010500Y-92253287D01*
X166010500Y-88802389D01*
X166792780Y-88802389D01*
X166794839Y-88810072D01*
X166802523Y-88812132D01*
X167013037Y-88812132D01*
X167020720Y-88810072D01*
X167022780Y-88802389D01*
X167022780Y-88564538D01*
X167020497Y-88556632D01*
X167015361Y-88555774D01*
X167010140Y-88557194D01*
X166922321Y-88595970D01*
X166911204Y-88603586D01*
X166844234Y-88670556D01*
X166836618Y-88681673D01*
X166797840Y-88769494D01*
X166794951Y-88780115D01*
X166793026Y-88796705D01*
X166792780Y-88800977D01*
X166792780Y-88802389D01*
X166010500Y-88802389D01*
X166010500Y-85533287D01*
X166792780Y-85533287D01*
X166793026Y-85537558D01*
X166794951Y-85554148D01*
X166797840Y-85564769D01*
X166836618Y-85652590D01*
X166844234Y-85663707D01*
X166911204Y-85730677D01*
X166922321Y-85738293D01*
X167010140Y-85777069D01*
X167015361Y-85778489D01*
X167020497Y-85777631D01*
X167022780Y-85769725D01*
X167022780Y-85531875D01*
X167020720Y-85524191D01*
X167013037Y-85522132D01*
X166802523Y-85522132D01*
X166794839Y-85524191D01*
X166792780Y-85531875D01*
X166792780Y-85533287D01*
X166010500Y-85533287D01*
X166010500Y-84092389D01*
X166782780Y-84092389D01*
X166784839Y-84100072D01*
X166792523Y-84102132D01*
X167003037Y-84102132D01*
X167010720Y-84100072D01*
X167012780Y-84092389D01*
X167012780Y-83854538D01*
X167010497Y-83846632D01*
X167005361Y-83845774D01*
X167000140Y-83847194D01*
X166912321Y-83885970D01*
X166901204Y-83893586D01*
X166834234Y-83960556D01*
X166826618Y-83971673D01*
X166787840Y-84059494D01*
X166784951Y-84070115D01*
X166783026Y-84086705D01*
X166782780Y-84090977D01*
X166782780Y-84092389D01*
X166010500Y-84092389D01*
X166010500Y-83003227D01*
X166010782Y-82996778D01*
X166016624Y-82930000D01*
X167074508Y-82930000D01*
X167075419Y-82935752D01*
X167091160Y-83035142D01*
X167094354Y-83055304D01*
X167151950Y-83168342D01*
X167241658Y-83258050D01*
X167354696Y-83315646D01*
X167480000Y-83335492D01*
X167605304Y-83315646D01*
X167718342Y-83258050D01*
X167808050Y-83168342D01*
X167865646Y-83055304D01*
X167885492Y-82930000D01*
X167865646Y-82804696D01*
X167808050Y-82691658D01*
X167718342Y-82601950D01*
X167605304Y-82544354D01*
X167599550Y-82543442D01*
X167599548Y-82543442D01*
X167485752Y-82525419D01*
X167480000Y-82524508D01*
X167474248Y-82525419D01*
X167360451Y-82543442D01*
X167360447Y-82543442D01*
X167354696Y-82544354D01*
X167349504Y-82546999D01*
X167349502Y-82547000D01*
X167246850Y-82599304D01*
X167246847Y-82599305D01*
X167241658Y-82601950D01*
X167237541Y-82606066D01*
X167237538Y-82606069D01*
X167156069Y-82687538D01*
X167156066Y-82687541D01*
X167151950Y-82691658D01*
X167149305Y-82696847D01*
X167149304Y-82696850D01*
X167098177Y-82797192D01*
X167094354Y-82804696D01*
X167093442Y-82810447D01*
X167093442Y-82810451D01*
X167080296Y-82893455D01*
X167074508Y-82930000D01*
X166016624Y-82930000D01*
X166016711Y-82929006D01*
X166024968Y-82834623D01*
X166027205Y-82821934D01*
X166068500Y-82667818D01*
X166072910Y-82655703D01*
X166096055Y-82606069D01*
X166140337Y-82511105D01*
X166146775Y-82499954D01*
X166238289Y-82369259D01*
X166246570Y-82359390D01*
X166359390Y-82246570D01*
X166369259Y-82238289D01*
X166499954Y-82146775D01*
X166511105Y-82140337D01*
X166655705Y-82072908D01*
X166667818Y-82068500D01*
X166821934Y-82027205D01*
X166834623Y-82024968D01*
X166964305Y-82013622D01*
X166996778Y-82010782D01*
X167003227Y-82010500D01*
X167003412Y-82010500D01*
X168286385Y-82010500D01*
X168329882Y-82024633D01*
G37*
G04 #@! TD.AperFunction*
G04 #@! TA.AperFunction,Conductor*
G36*
X174865568Y-82022971D02*
G01*
X174892823Y-82056181D01*
X174897034Y-82098937D01*
X174876782Y-82136826D01*
X174796069Y-82217538D01*
X174796066Y-82217541D01*
X174791950Y-82221658D01*
X174789305Y-82226847D01*
X174789304Y-82226850D01*
X174737000Y-82329502D01*
X174734354Y-82334696D01*
X174733442Y-82340447D01*
X174733442Y-82340451D01*
X174719163Y-82430607D01*
X174714508Y-82460000D01*
X174734354Y-82585304D01*
X174791950Y-82698342D01*
X174796069Y-82702461D01*
X174799493Y-82707174D01*
X174798297Y-82708042D01*
X174812870Y-82733282D01*
X174812870Y-82771588D01*
X174809185Y-82777969D01*
X174802780Y-82801875D01*
X174802780Y-83348132D01*
X174792866Y-83385132D01*
X174765780Y-83412218D01*
X174728780Y-83422132D01*
X174476780Y-83422132D01*
X174439780Y-83412218D01*
X174412694Y-83385132D01*
X174402780Y-83348132D01*
X174402780Y-82801875D01*
X174400720Y-82794191D01*
X174393037Y-82792132D01*
X174391625Y-82792132D01*
X174387353Y-82792378D01*
X174370763Y-82794303D01*
X174360142Y-82797192D01*
X174272321Y-82835970D01*
X174261204Y-82843586D01*
X174194234Y-82910556D01*
X174186618Y-82921673D01*
X174145593Y-83014586D01*
X174143167Y-83013515D01*
X174122703Y-83043932D01*
X174077780Y-83059128D01*
X174032857Y-83043932D01*
X174012392Y-83013515D01*
X174009967Y-83014586D01*
X173968941Y-82921673D01*
X173961325Y-82910556D01*
X173894355Y-82843586D01*
X173883238Y-82835970D01*
X173795417Y-82797192D01*
X173784796Y-82794303D01*
X173768206Y-82792378D01*
X173763935Y-82792132D01*
X173762523Y-82792132D01*
X173754839Y-82794191D01*
X173752780Y-82801875D01*
X173752780Y-83348132D01*
X173742866Y-83385132D01*
X173715780Y-83412218D01*
X173678780Y-83422132D01*
X173426780Y-83422132D01*
X173389780Y-83412218D01*
X173362694Y-83385132D01*
X173352780Y-83348132D01*
X173352780Y-82801875D01*
X173350720Y-82794191D01*
X173343037Y-82792132D01*
X173341625Y-82792132D01*
X173337353Y-82792378D01*
X173320763Y-82794303D01*
X173310142Y-82797192D01*
X173222321Y-82835970D01*
X173211204Y-82843586D01*
X173144234Y-82910556D01*
X173136615Y-82921677D01*
X173097129Y-83011104D01*
X173067477Y-83044686D01*
X173023882Y-83055004D01*
X172982322Y-83038278D01*
X172960443Y-83004375D01*
X172959967Y-83004586D01*
X172958640Y-83001582D01*
X172958030Y-83000636D01*
X172957720Y-82999498D01*
X172918941Y-82911673D01*
X172911325Y-82900556D01*
X172844355Y-82833586D01*
X172833238Y-82825970D01*
X172745417Y-82787192D01*
X172734796Y-82784303D01*
X172718206Y-82782378D01*
X172713935Y-82782132D01*
X172712523Y-82782132D01*
X172704839Y-82784191D01*
X172702780Y-82791875D01*
X172702780Y-83338132D01*
X172692866Y-83375132D01*
X172665780Y-83402218D01*
X172628780Y-83412132D01*
X172376780Y-83412132D01*
X172339780Y-83402218D01*
X172312694Y-83375132D01*
X172302780Y-83338132D01*
X172302780Y-82791875D01*
X172300720Y-82784191D01*
X172293037Y-82782132D01*
X172291625Y-82782132D01*
X172287353Y-82782378D01*
X172270763Y-82784303D01*
X172260142Y-82787192D01*
X172172321Y-82825970D01*
X172161204Y-82833586D01*
X172094234Y-82900556D01*
X172086615Y-82911677D01*
X172054440Y-82984546D01*
X172027144Y-83016655D01*
X171986745Y-83028655D01*
X171946347Y-83016654D01*
X171919051Y-82984545D01*
X171900749Y-82943094D01*
X171885388Y-82908304D01*
X171806608Y-82829524D01*
X171800335Y-82826754D01*
X171709777Y-82786769D01*
X171709773Y-82786768D01*
X171704689Y-82784523D01*
X171699168Y-82783882D01*
X171699163Y-82783881D01*
X171681899Y-82781878D01*
X171681883Y-82781877D01*
X171679771Y-82781632D01*
X171677627Y-82781632D01*
X171247935Y-82781632D01*
X171247917Y-82781632D01*
X171245790Y-82781633D01*
X171243664Y-82781879D01*
X171243656Y-82781880D01*
X171226402Y-82783881D01*
X171226398Y-82783881D01*
X171220871Y-82784523D01*
X171215782Y-82786769D01*
X171215778Y-82786771D01*
X171125224Y-82826754D01*
X171125221Y-82826755D01*
X171118952Y-82829524D01*
X171114106Y-82834369D01*
X171114103Y-82834372D01*
X171045018Y-82903457D01*
X171045015Y-82903460D01*
X171040172Y-82908304D01*
X171037403Y-82914573D01*
X171034063Y-82919451D01*
X171007519Y-82943094D01*
X170973013Y-82951632D01*
X170897153Y-82951632D01*
X170856754Y-82939631D01*
X170829458Y-82907521D01*
X170828158Y-82904578D01*
X170828157Y-82904576D01*
X170825388Y-82898304D01*
X170746608Y-82819524D01*
X170740335Y-82816754D01*
X170649777Y-82776769D01*
X170649773Y-82776768D01*
X170644689Y-82774523D01*
X170639168Y-82773882D01*
X170639163Y-82773881D01*
X170621899Y-82771878D01*
X170621883Y-82771877D01*
X170619771Y-82771632D01*
X170617627Y-82771632D01*
X170187935Y-82771632D01*
X170187917Y-82771632D01*
X170185790Y-82771633D01*
X170183664Y-82771879D01*
X170183656Y-82771880D01*
X170166402Y-82773881D01*
X170166398Y-82773881D01*
X170160871Y-82774523D01*
X170155782Y-82776769D01*
X170155778Y-82776771D01*
X170065224Y-82816754D01*
X170065221Y-82816755D01*
X170058952Y-82819524D01*
X170054106Y-82824369D01*
X170054103Y-82824372D01*
X169985020Y-82893455D01*
X169985017Y-82893458D01*
X169980172Y-82898304D01*
X169977403Y-82904573D01*
X169977402Y-82904576D01*
X169937677Y-82994545D01*
X169910381Y-83026655D01*
X169869982Y-83038655D01*
X169829583Y-83026655D01*
X169802287Y-82994545D01*
X169778942Y-82941675D01*
X169771325Y-82930556D01*
X169704355Y-82863586D01*
X169693238Y-82855970D01*
X169605417Y-82817192D01*
X169594796Y-82814303D01*
X169578206Y-82812378D01*
X169573935Y-82812132D01*
X169572523Y-82812132D01*
X169564839Y-82814191D01*
X169562780Y-82821875D01*
X169562780Y-83368132D01*
X169552866Y-83405132D01*
X169525780Y-83432218D01*
X169488780Y-83442132D01*
X169236780Y-83442132D01*
X169199780Y-83432218D01*
X169172694Y-83405132D01*
X169162780Y-83368132D01*
X169162780Y-82821875D01*
X169160720Y-82814191D01*
X169153037Y-82812132D01*
X169151625Y-82812132D01*
X169147353Y-82812378D01*
X169130763Y-82814303D01*
X169120142Y-82817192D01*
X169032321Y-82855970D01*
X169021204Y-82863586D01*
X168971826Y-82912965D01*
X168933937Y-82933217D01*
X168891181Y-82929006D01*
X168857971Y-82901751D01*
X168845500Y-82860639D01*
X168845500Y-82791544D01*
X168851133Y-82763225D01*
X168867174Y-82739218D01*
X168873110Y-82733282D01*
X168898050Y-82708342D01*
X168955646Y-82595304D01*
X168975492Y-82470000D01*
X168955646Y-82344696D01*
X168898050Y-82231658D01*
X168808342Y-82141950D01*
X168808354Y-82141937D01*
X168783237Y-82107369D01*
X168783236Y-82061634D01*
X168810118Y-82024633D01*
X168853615Y-82010500D01*
X174824456Y-82010500D01*
X174865568Y-82022971D01*
G37*
G04 #@! TD.AperFunction*
M02*
