G04 #@! TF.GenerationSoftware,KiCad,Pcbnew,(7.0.0-0)*
G04 #@! TF.CreationDate,2023-05-05T13:57:00+08:00*
G04 #@! TF.ProjectId,Revolute,5265766f-6c75-4746-952e-6b696361645f,rev?*
G04 #@! TF.SameCoordinates,Original*
G04 #@! TF.FileFunction,Legend,Top*
G04 #@! TF.FilePolarity,Positive*
%FSLAX46Y46*%
G04 Gerber Fmt 4.6, Leading zero omitted, Abs format (unit mm)*
G04 Created by KiCad (PCBNEW (7.0.0-0)) date 2023-05-05 13:57:00*
%MOMM*%
%LPD*%
G01*
G04 APERTURE LIST*
G04 Aperture macros list*
%AMRoundRect*
0 Rectangle with rounded corners*
0 $1 Rounding radius*
0 $2 $3 $4 $5 $6 $7 $8 $9 X,Y pos of 4 corners*
0 Add a 4 corners polygon primitive as box body*
4,1,4,$2,$3,$4,$5,$6,$7,$8,$9,$2,$3,0*
0 Add four circle primitives for the rounded corners*
1,1,$1+$1,$2,$3*
1,1,$1+$1,$4,$5*
1,1,$1+$1,$6,$7*
1,1,$1+$1,$8,$9*
0 Add four rect primitives between the rounded corners*
20,1,$1+$1,$2,$3,$4,$5,0*
20,1,$1+$1,$4,$5,$6,$7,0*
20,1,$1+$1,$6,$7,$8,$9,0*
20,1,$1+$1,$8,$9,$2,$3,0*%
G04 Aperture macros list end*
%ADD10C,0.120000*%
%ADD11C,0.100000*%
%ADD12C,0.080000*%
%ADD13RoundRect,0.135000X-0.135000X-0.185000X0.135000X-0.185000X0.135000X0.185000X-0.135000X0.185000X0*%
%ADD14RoundRect,0.140000X-0.170000X0.140000X-0.170000X-0.140000X0.170000X-0.140000X0.170000X0.140000X0*%
%ADD15RoundRect,0.140000X0.170000X-0.140000X0.170000X0.140000X-0.170000X0.140000X-0.170000X-0.140000X0*%
%ADD16RoundRect,0.140000X0.140000X0.170000X-0.140000X0.170000X-0.140000X-0.170000X0.140000X-0.170000X0*%
%ADD17RoundRect,0.147500X-0.172500X0.147500X-0.172500X-0.147500X0.172500X-0.147500X0.172500X0.147500X0*%
%ADD18RoundRect,0.147500X0.172500X-0.147500X0.172500X0.147500X-0.172500X0.147500X-0.172500X-0.147500X0*%
%ADD19RoundRect,0.150000X-0.350000X-0.300000X0.350000X-0.300000X0.350000X0.300000X-0.350000X0.300000X0*%
%ADD20RoundRect,0.140000X-0.140000X-0.170000X0.140000X-0.170000X0.140000X0.170000X-0.140000X0.170000X0*%
%ADD21C,0.290000*%
%ADD22RoundRect,0.020000X2.000000X2.000000X-2.000000X2.000000X-2.000000X-2.000000X2.000000X-2.000000X0*%
%ADD23RoundRect,0.218750X-0.256250X0.218750X-0.256250X-0.218750X0.256250X-0.218750X0.256250X0.218750X0*%
%ADD24RoundRect,0.250000X-0.250000X-0.250000X0.250000X-0.250000X0.250000X0.250000X-0.250000X0.250000X0*%
%ADD25R,1.100000X0.600000*%
%ADD26R,1.060000X0.650000*%
G04 APERTURE END LIST*
D10*
X170030000Y-83584296D02*
X170030000Y-83799968D01*
X178132164Y-89670000D02*
X178347836Y-89670000D01*
X178132164Y-90390000D02*
X178347836Y-90390000D01*
X171820000Y-83584296D02*
X171820000Y-83799968D01*
X171100000Y-83584296D02*
X171100000Y-83799968D01*
X170750000Y-83584296D02*
X170750000Y-83799968D01*
X177960000Y-91384296D02*
X177960000Y-91599968D01*
X177240000Y-91384296D02*
X177240000Y-91599968D01*
X169002780Y-83829968D02*
X169002780Y-83614296D01*
X169722780Y-83829968D02*
X169722780Y-83614296D01*
X167810616Y-92402132D02*
X167594944Y-92402132D01*
X167810616Y-91682132D02*
X167594944Y-91682132D01*
X167810616Y-89372132D02*
X167594944Y-89372132D01*
X167810616Y-88652132D02*
X167594944Y-88652132D01*
X167810616Y-85682132D02*
X167594944Y-85682132D01*
X167810616Y-84962132D02*
X167594944Y-84962132D01*
X173192780Y-83809968D02*
X173192780Y-83594296D01*
X173912780Y-83809968D02*
X173912780Y-83594296D01*
X177877836Y-89360000D02*
X177662164Y-89360000D01*
X177877836Y-88640000D02*
X177662164Y-88640000D01*
D11*
X176762780Y-84422132D02*
X176762780Y-83882132D01*
X178822780Y-82972132D02*
X177762780Y-82972132D01*
X178822780Y-85322132D02*
X177762780Y-85322132D01*
X179822780Y-84422132D02*
X179822780Y-83882132D01*
D10*
X177862780Y-84642132D02*
G75*
G03*
X177542780Y-84322132I-320001J-1D01*
G01*
X176002780Y-83594296D02*
X176002780Y-83809968D01*
X175282780Y-83594296D02*
X175282780Y-83809968D01*
X180540000Y-85877836D02*
X180540000Y-85662164D01*
X181260000Y-85877836D02*
X181260000Y-85662164D01*
X167800616Y-84662132D02*
X167584944Y-84662132D01*
X167800616Y-83942132D02*
X167584944Y-83942132D01*
X167594944Y-89662132D02*
X167810616Y-89662132D01*
X167594944Y-90382132D02*
X167810616Y-90382132D01*
D11*
X169137780Y-85117132D02*
X176237780Y-85117132D01*
X169137780Y-85827132D02*
X169847780Y-85117132D01*
X169137780Y-92217132D02*
X169137780Y-85117132D01*
D10*
X170380280Y-86359632D02*
X170380280Y-90974632D01*
X170380280Y-90974632D02*
X174995280Y-90974632D01*
X174995280Y-86359632D02*
X170380280Y-86359632D01*
X174995280Y-90974632D02*
X174995280Y-86359632D01*
D11*
X176237780Y-85117132D02*
X176237780Y-92217132D01*
X176237780Y-92217132D02*
X169137780Y-92217132D01*
G36*
X169137780Y-85827132D02*
G01*
X169137780Y-85117132D01*
X169847780Y-85117132D01*
X169137780Y-85827132D01*
G37*
G36*
X170380280Y-86714632D02*
G01*
X170380280Y-86359632D01*
X170735280Y-86359632D01*
X170380280Y-86714632D01*
G37*
D10*
X170380280Y-86714632D02*
X170380280Y-86359632D01*
X170735280Y-86359632D01*
X170380280Y-86714632D01*
X177630616Y-88172132D02*
X177414944Y-88172132D01*
X177630616Y-87452132D02*
X177414944Y-87452132D01*
X178030616Y-87192132D02*
X177814944Y-87192132D01*
X178030616Y-86472132D02*
X177814944Y-86472132D01*
X178960000Y-91492164D02*
X178960000Y-91707836D01*
X178240000Y-91492164D02*
X178240000Y-91707836D01*
X168502780Y-85962132D02*
X166902780Y-85962132D01*
X166902780Y-85962132D02*
X166902780Y-88362132D01*
X168502780Y-88362132D02*
X168502780Y-85962132D01*
X174242780Y-83809968D02*
X174242780Y-83594296D01*
X174962780Y-83809968D02*
X174962780Y-83594296D01*
X167594944Y-90672132D02*
X167810616Y-90672132D01*
X167594944Y-91392132D02*
X167810616Y-91392132D01*
X178040616Y-86242132D02*
X177824944Y-86242132D01*
X178040616Y-85522132D02*
X177824944Y-85522132D01*
X172142780Y-83799968D02*
X172142780Y-83584296D01*
X172862780Y-83799968D02*
X172862780Y-83584296D01*
D12*
X180300000Y-89610000D02*
X182100000Y-89610000D01*
D10*
X181880000Y-85877836D02*
X181880000Y-85662164D01*
X182600000Y-85877836D02*
X182600000Y-85662164D01*
%LPC*%
D13*
X177750000Y-90022132D03*
X178770000Y-90022132D03*
D14*
X177600000Y-91012132D03*
X177600000Y-91972132D03*
D15*
X169362780Y-84202132D03*
X169362780Y-83242132D03*
D16*
X168182780Y-92042132D03*
X167222780Y-92042132D03*
X168182780Y-89012132D03*
X167222780Y-89012132D03*
X168182780Y-85322132D03*
X167222780Y-85322132D03*
D17*
X170402780Y-83217132D03*
X170402780Y-84187132D03*
D15*
X173552780Y-84182132D03*
X173552780Y-83222132D03*
D18*
X171462780Y-84197132D03*
X171462780Y-83227132D03*
D16*
X178250000Y-89000000D03*
X177290000Y-89000000D03*
D19*
X177192780Y-84952132D03*
X179392780Y-84952132D03*
X179392780Y-83352132D03*
X177192780Y-83352132D03*
D14*
X175642780Y-83222132D03*
X175642780Y-84182132D03*
D15*
X180900000Y-86250000D03*
X180900000Y-85290000D03*
D16*
X168172780Y-84302132D03*
X167212780Y-84302132D03*
D20*
X167222780Y-90022132D03*
X168182780Y-90022132D03*
D21*
X171437780Y-85417132D03*
X171937780Y-85417132D03*
X172437780Y-85417132D03*
X172937780Y-85417132D03*
X173437780Y-85417132D03*
X173937780Y-85417132D03*
X174437780Y-85417132D03*
X174937780Y-85417132D03*
X175437780Y-85417132D03*
X175937780Y-90917132D03*
X169937780Y-91167132D03*
X170687780Y-91417132D03*
X171687780Y-91417132D03*
X172187780Y-91417132D03*
X172687780Y-91417132D03*
X173187780Y-91417132D03*
X173687780Y-91417132D03*
X174187780Y-91417132D03*
X174687780Y-91417132D03*
X175937780Y-91417132D03*
X169937780Y-91917132D03*
X170437780Y-91917132D03*
X170937780Y-91917132D03*
X171437780Y-91917132D03*
X171937780Y-91917132D03*
X172437780Y-91917132D03*
X172937780Y-91917132D03*
X173437780Y-91917132D03*
X173937780Y-91917132D03*
X174437780Y-91917132D03*
X174937780Y-91917132D03*
X175437780Y-91917132D03*
X169437780Y-85917132D03*
X170187780Y-85917132D03*
X170687780Y-85917132D03*
X171187780Y-85917132D03*
X171687780Y-85917132D03*
X172187780Y-85917132D03*
X172687780Y-85917132D03*
X173187780Y-85917132D03*
X173687780Y-85917132D03*
X174187780Y-85917132D03*
X175937780Y-85917132D03*
X169437780Y-86417132D03*
X169937780Y-86667132D03*
X175437780Y-86667132D03*
X175937780Y-86917132D03*
D22*
X172687780Y-88667132D03*
D21*
X169937780Y-87167132D03*
X175437780Y-87167132D03*
X169437780Y-87417132D03*
X169937780Y-87667132D03*
X175437780Y-87667132D03*
X169437780Y-87917132D03*
X175937780Y-87917132D03*
X169937780Y-88167132D03*
X169437780Y-88417132D03*
X175937780Y-88417132D03*
X169937780Y-88667132D03*
X169437780Y-88917132D03*
X175937780Y-88917132D03*
X169937780Y-89167132D03*
X175437780Y-89167132D03*
X169437780Y-89417132D03*
X175937780Y-89417132D03*
X169937780Y-89667132D03*
X175437780Y-89667132D03*
X169437780Y-89917132D03*
X175937780Y-89917132D03*
X175437780Y-90167132D03*
X169437780Y-90417132D03*
X175937780Y-90417132D03*
X169937780Y-90667132D03*
X175437780Y-90667132D03*
D23*
X180000000Y-90304632D03*
X180000000Y-91879632D03*
D24*
X181700000Y-84000000D03*
D16*
X178002780Y-87812132D03*
X177042780Y-87812132D03*
X178402780Y-86832132D03*
X177442780Y-86832132D03*
D24*
X181700000Y-82800000D03*
D14*
X178600000Y-91120000D03*
X178600000Y-92080000D03*
D25*
X167702779Y-86462131D03*
X167702779Y-87862131D03*
D15*
X174602780Y-84182132D03*
X174602780Y-83222132D03*
D20*
X167222780Y-91032132D03*
X168182780Y-91032132D03*
D16*
X178412780Y-85882132D03*
X177452780Y-85882132D03*
D15*
X172502780Y-84172132D03*
X172502780Y-83212132D03*
D26*
X180099999Y-87049999D03*
X180099999Y-87999999D03*
X180099999Y-88949999D03*
X182299999Y-88949999D03*
X182299999Y-87049999D03*
D15*
X182240000Y-86250000D03*
X182240000Y-85290000D03*
M02*
