%TF.GenerationSoftware,KiCad,Pcbnew,(7.0.0-0)*%
%TF.CreationDate,2023-05-05T13:57:36+08:00*%
%TF.ProjectId,Revolute,5265766f-6c75-4746-952e-6b696361645f,rev?*%
%TF.SameCoordinates,Original*%
%TF.FileFunction,Drillmap*%
%TF.FilePolarity,Positive*%
%FSLAX45Y45*%
G04 Gerber Fmt 4.5, Leading zero omitted, Abs format (unit mm)*
G04 Created by KiCad (PCBNEW (7.0.0-0)) date 2023-05-05 13:57:36*
%MOMM*%
%LPD*%
G01*
G04 APERTURE LIST*
%ADD10C,0.100000*%
%ADD11C,0.050000*%
%ADD12C,0.200000*%
G04 APERTURE END LIST*
D10*
X18230000Y-8200000D02*
X16700000Y-8200000D01*
D11*
X16700000Y-8200000D02*
G75*
G03*
X16600000Y-8300000I0J-100000D01*
G01*
X18330000Y-8300000D02*
G75*
G03*
X18230000Y-8200000I-100000J0D01*
G01*
D10*
X16600000Y-9240000D02*
X16600000Y-8300000D01*
X16700000Y-9340000D02*
X18230000Y-9340000D01*
X18330000Y-9040000D02*
X18330000Y-9240000D01*
D11*
X18230000Y-9340000D02*
G75*
G03*
X18330000Y-9240000I0J100000D01*
G01*
D10*
X18330000Y-9040000D02*
X18330000Y-8300000D01*
D11*
X16600000Y-9240000D02*
G75*
G03*
X16700000Y-9340000I100000J0D01*
G01*
D12*
X16842619Y-9638476D02*
X16842619Y-9438476D01*
X16842619Y-9438476D02*
X16890238Y-9438476D01*
X16890238Y-9438476D02*
X16918810Y-9448000D01*
X16918810Y-9448000D02*
X16937857Y-9467048D01*
X16937857Y-9467048D02*
X16947381Y-9486095D01*
X16947381Y-9486095D02*
X16956905Y-9524190D01*
X16956905Y-9524190D02*
X16956905Y-9552762D01*
X16956905Y-9552762D02*
X16947381Y-9590857D01*
X16947381Y-9590857D02*
X16937857Y-9609905D01*
X16937857Y-9609905D02*
X16918810Y-9628952D01*
X16918810Y-9628952D02*
X16890238Y-9638476D01*
X16890238Y-9638476D02*
X16842619Y-9638476D01*
X17042619Y-9638476D02*
X17042619Y-9505143D01*
X17042619Y-9543238D02*
X17052143Y-9524190D01*
X17052143Y-9524190D02*
X17061667Y-9514667D01*
X17061667Y-9514667D02*
X17080714Y-9505143D01*
X17080714Y-9505143D02*
X17099762Y-9505143D01*
X17166429Y-9638476D02*
X17166429Y-9505143D01*
X17166429Y-9438476D02*
X17156905Y-9448000D01*
X17156905Y-9448000D02*
X17166429Y-9457524D01*
X17166429Y-9457524D02*
X17175952Y-9448000D01*
X17175952Y-9448000D02*
X17166429Y-9438476D01*
X17166429Y-9438476D02*
X17166429Y-9457524D01*
X17290238Y-9638476D02*
X17271190Y-9628952D01*
X17271190Y-9628952D02*
X17261667Y-9609905D01*
X17261667Y-9609905D02*
X17261667Y-9438476D01*
X17395000Y-9638476D02*
X17375952Y-9628952D01*
X17375952Y-9628952D02*
X17366429Y-9609905D01*
X17366429Y-9609905D02*
X17366429Y-9438476D01*
X17591190Y-9638476D02*
X17591190Y-9438476D01*
X17591190Y-9438476D02*
X17657857Y-9581333D01*
X17657857Y-9581333D02*
X17724524Y-9438476D01*
X17724524Y-9438476D02*
X17724524Y-9638476D01*
X17905476Y-9638476D02*
X17905476Y-9533714D01*
X17905476Y-9533714D02*
X17895952Y-9514667D01*
X17895952Y-9514667D02*
X17876905Y-9505143D01*
X17876905Y-9505143D02*
X17838809Y-9505143D01*
X17838809Y-9505143D02*
X17819762Y-9514667D01*
X17905476Y-9628952D02*
X17886429Y-9638476D01*
X17886429Y-9638476D02*
X17838809Y-9638476D01*
X17838809Y-9638476D02*
X17819762Y-9628952D01*
X17819762Y-9628952D02*
X17810238Y-9609905D01*
X17810238Y-9609905D02*
X17810238Y-9590857D01*
X17810238Y-9590857D02*
X17819762Y-9571810D01*
X17819762Y-9571810D02*
X17838809Y-9562286D01*
X17838809Y-9562286D02*
X17886429Y-9562286D01*
X17886429Y-9562286D02*
X17905476Y-9552762D01*
X18000714Y-9505143D02*
X18000714Y-9705143D01*
X18000714Y-9514667D02*
X18019762Y-9505143D01*
X18019762Y-9505143D02*
X18057857Y-9505143D01*
X18057857Y-9505143D02*
X18076905Y-9514667D01*
X18076905Y-9514667D02*
X18086429Y-9524190D01*
X18086429Y-9524190D02*
X18095952Y-9543238D01*
X18095952Y-9543238D02*
X18095952Y-9600381D01*
X18095952Y-9600381D02*
X18086429Y-9619429D01*
X18086429Y-9619429D02*
X18076905Y-9628952D01*
X18076905Y-9628952D02*
X18057857Y-9638476D01*
X18057857Y-9638476D02*
X18019762Y-9638476D01*
X18019762Y-9638476D02*
X18000714Y-9628952D01*
X18181667Y-9619429D02*
X18191190Y-9628952D01*
X18191190Y-9628952D02*
X18181667Y-9638476D01*
X18181667Y-9638476D02*
X18172143Y-9628952D01*
X18172143Y-9628952D02*
X18181667Y-9619429D01*
X18181667Y-9619429D02*
X18181667Y-9638476D01*
X18181667Y-9514667D02*
X18191190Y-9524190D01*
X18191190Y-9524190D02*
X18181667Y-9533714D01*
X18181667Y-9533714D02*
X18172143Y-9524190D01*
X18172143Y-9524190D02*
X18181667Y-9514667D01*
X18181667Y-9514667D02*
X18181667Y-9533714D01*
M02*
