G04 #@! TF.GenerationSoftware,KiCad,Pcbnew,(7.0.0-0)*
G04 #@! TF.CreationDate,2023-05-05T13:57:00+08:00*
G04 #@! TF.ProjectId,Revolute,5265766f-6c75-4746-952e-6b696361645f,rev?*
G04 #@! TF.SameCoordinates,Original*
G04 #@! TF.FileFunction,Copper,L4,Bot*
G04 #@! TF.FilePolarity,Positive*
%FSLAX46Y46*%
G04 Gerber Fmt 4.6, Leading zero omitted, Abs format (unit mm)*
G04 Created by KiCad (PCBNEW (7.0.0-0)) date 2023-05-05 13:57:00*
%MOMM*%
%LPD*%
G01*
G04 APERTURE LIST*
G04 Aperture macros list*
%AMRoundRect*
0 Rectangle with rounded corners*
0 $1 Rounding radius*
0 $2 $3 $4 $5 $6 $7 $8 $9 X,Y pos of 4 corners*
0 Add a 4 corners polygon primitive as box body*
4,1,4,$2,$3,$4,$5,$6,$7,$8,$9,$2,$3,0*
0 Add four circle primitives for the rounded corners*
1,1,$1+$1,$2,$3*
1,1,$1+$1,$4,$5*
1,1,$1+$1,$6,$7*
1,1,$1+$1,$8,$9*
0 Add four rect primitives between the rounded corners*
20,1,$1+$1,$2,$3,$4,$5,0*
20,1,$1+$1,$4,$5,$6,$7,0*
20,1,$1+$1,$6,$7,$8,$9,0*
20,1,$1+$1,$8,$9,$2,$3,0*%
%AMOutline4P*
0 Free polygon, 4 corners , with rotation*
0 The origin of the aperture is its center*
0 number of corners: always 4*
0 $1 to $8 corner X, Y*
0 $9 Rotation angle, in degrees counterclockwise*
0 create outline with 4 corners*
4,1,4,$1,$2,$3,$4,$5,$6,$7,$8,$1,$2,$9*%
%AMFreePoly0*
4,1,17,-0.950000,0.475000,-0.941719,0.563308,-0.894955,0.696953,-0.810876,0.810876,-0.696953,0.894955,-0.563308,0.941719,-0.475000,0.950000,0.475000,0.950000,0.563308,0.941719,0.696953,0.894955,0.810876,0.810876,0.894955,0.696953,0.941719,0.563308,0.950000,0.475000,0.950000,-0.950000,-0.950000,-0.950000,-0.950000,0.475000,-0.950000,0.475000,$1*%
%AMFreePoly1*
4,1,42,1.022267,0.592764,1.045399,0.589101,1.051104,0.583395,1.058779,0.580902,1.072544,0.561955,1.089101,0.545399,1.090363,0.537429,1.095106,0.530902,1.095106,0.507488,1.098770,0.484357,1.095106,0.477166,1.095106,0.469098,1.081341,0.450152,1.070711,0.429290,0.070711,-0.570711,0.056598,-0.577901,0.045399,-0.589101,0.029754,-0.591579,0.015643,-0.598769,0.000002,-0.596291,
-0.015643,-0.598770,-0.029756,-0.591578,-0.045399,-0.589101,-0.056598,-0.577901,-0.070710,-0.570711,-1.070711,0.429289,-1.081341,0.450152,-1.095106,0.469098,-1.095106,0.477168,-1.098769,0.484357,-1.095106,0.507485,-1.095106,0.530902,-1.090363,0.537429,-1.089101,0.545399,-1.072544,0.561955,-1.058779,0.580902,-1.051104,0.583395,-1.045399,0.589101,-1.022269,0.592764,-1.000000,0.600000,
1.000000,0.600000,1.022267,0.592764,1.022267,0.592764,$1*%
G04 Aperture macros list end*
G04 #@! TA.AperFunction,SMDPad,CuDef*
%ADD10RoundRect,0.150000X-3.725000X0.600000X-3.725000X-0.600000X3.725000X-0.600000X3.725000X0.600000X0*%
G04 #@! TD*
G04 #@! TA.AperFunction,SMDPad,CuDef*
%ADD11RoundRect,0.150000X-3.175000X0.600000X-3.175000X-0.600000X3.175000X-0.600000X3.175000X0.600000X0*%
G04 #@! TD*
G04 #@! TA.AperFunction,SMDPad,CuDef*
%ADD12FreePoly0,180.000000*%
G04 #@! TD*
G04 #@! TA.AperFunction,SMDPad,CuDef*
%ADD13Outline4P,-0.950000X0.950000X0.950000X0.950000X0.950000X-0.950000X-0.950000X-0.950000X0.000000*%
G04 #@! TD*
G04 #@! TA.AperFunction,SMDPad,CuDef*
%ADD14FreePoly0,0.000000*%
G04 #@! TD*
G04 #@! TA.AperFunction,SMDPad,CuDef*
%ADD15FreePoly1,90.000000*%
G04 #@! TD*
G04 #@! TA.AperFunction,SMDPad,CuDef*
%ADD16FreePoly1,0.000000*%
G04 #@! TD*
G04 #@! TA.AperFunction,SMDPad,CuDef*
%ADD17FreePoly1,270.000000*%
G04 #@! TD*
G04 #@! TA.AperFunction,SMDPad,CuDef*
%ADD18FreePoly1,180.000000*%
G04 #@! TD*
G04 #@! TA.AperFunction,ViaPad*
%ADD19C,0.500000*%
G04 #@! TD*
G04 #@! TA.AperFunction,Conductor*
%ADD20C,0.150000*%
G04 #@! TD*
G04 #@! TA.AperFunction,Conductor*
%ADD21C,0.250000*%
G04 #@! TD*
G04 APERTURE END LIST*
D10*
X170875000Y-84050000D03*
D11*
X171425000Y-86483000D03*
X171425000Y-88917000D03*
D10*
X170875000Y-91350000D03*
D12*
X181859999Y-91939999D03*
D13*
X181859999Y-89839999D03*
X181859999Y-87739999D03*
D14*
X181859999Y-85639999D03*
D15*
X177760000Y-91240000D03*
D16*
X178560000Y-90440000D03*
D17*
X179360000Y-91240000D03*
D18*
X178560000Y-92040000D03*
D19*
X171700000Y-87700000D03*
X179140000Y-86190000D03*
X173560000Y-82500000D03*
X172700000Y-87700000D03*
X166480000Y-92050000D03*
X176270000Y-83220000D03*
X178470000Y-85070000D03*
X181700000Y-82800000D03*
X166490000Y-85320000D03*
X166490000Y-91020000D03*
X179392780Y-84952132D03*
X173700000Y-87700000D03*
X166490000Y-84300000D03*
X166480000Y-90030000D03*
X166480000Y-89010000D03*
X169370000Y-82460000D03*
X172490000Y-82500000D03*
X180870000Y-83480000D03*
X168180000Y-90150000D03*
X173920000Y-92510000D03*
X175120000Y-82460000D03*
X168570000Y-82470000D03*
X179980000Y-86040000D03*
X176562780Y-86812132D03*
X170730000Y-85290000D03*
X167480000Y-82930000D03*
X180100000Y-87050000D03*
X168190000Y-92840000D03*
X166610000Y-86480000D03*
X170270000Y-92840000D03*
X170300000Y-90160000D03*
X176370000Y-91055500D03*
X175380000Y-91260000D03*
X176980000Y-91442632D03*
X168720000Y-87720000D03*
X181860000Y-89870000D03*
X181760000Y-87960000D03*
X170330000Y-87710000D03*
D20*
X181860000Y-85640000D02*
X180945685Y-85640000D01*
X180945685Y-85639994D02*
G75*
G03*
X179980000Y-86040000I15J-1365706D01*
G01*
D21*
X170875000Y-84050000D02*
X168600000Y-84050000D01*
X167480000Y-82930000D02*
G75*
G03*
X168600000Y-84050000I1120000J0D01*
G01*
X166610000Y-86480000D02*
X171422000Y-86480000D01*
X171425000Y-86483000D02*
G75*
G03*
X171422000Y-86480000I-3000J0D01*
G01*
X170300000Y-90160000D02*
X170300000Y-90042000D01*
X171425000Y-88917000D02*
G75*
G03*
X170300000Y-90042000I0J-1125000D01*
G01*
D20*
X177163554Y-89830000D02*
X177950000Y-89830000D01*
X177950000Y-89830000D02*
X178560000Y-90440000D01*
X176370000Y-90623554D02*
X177163554Y-89830000D01*
X176370000Y-91055500D02*
X176370000Y-90623554D01*
X179610000Y-89460000D02*
X179960000Y-89810000D01*
X179960000Y-89810000D02*
X179960000Y-90640000D01*
X179960000Y-90640000D02*
X179360000Y-91240000D01*
X177180000Y-89460000D02*
X179610000Y-89460000D01*
X175380000Y-91260000D02*
X177180000Y-89460000D01*
X176980000Y-91442632D02*
X177557368Y-91442632D01*
X177557368Y-91442632D02*
X177760000Y-91240000D01*
G04 #@! TA.AperFunction,Conductor*
G36*
X168329882Y-82024633D02*
G01*
X168356764Y-82061634D01*
X168356763Y-82107369D01*
X168331645Y-82141937D01*
X168331658Y-82141950D01*
X168331577Y-82142030D01*
X168331574Y-82142033D01*
X168327545Y-82146062D01*
X168327542Y-82146065D01*
X168246069Y-82227538D01*
X168246066Y-82227541D01*
X168241950Y-82231658D01*
X168239305Y-82236847D01*
X168239304Y-82236850D01*
X168189449Y-82334696D01*
X168184354Y-82344696D01*
X168183442Y-82350447D01*
X168183442Y-82350451D01*
X168172714Y-82418187D01*
X168164508Y-82470000D01*
X168165419Y-82475752D01*
X168181858Y-82579548D01*
X168184354Y-82595304D01*
X168187000Y-82600497D01*
X168236094Y-82696850D01*
X168241950Y-82708342D01*
X168331658Y-82798050D01*
X168444696Y-82855646D01*
X168570000Y-82875492D01*
X168695304Y-82855646D01*
X168808342Y-82798050D01*
X168898050Y-82708342D01*
X168955646Y-82595304D01*
X168975492Y-82470000D01*
X168955646Y-82344696D01*
X168898050Y-82231658D01*
X168808342Y-82141950D01*
X168808354Y-82141937D01*
X168783237Y-82107369D01*
X168783236Y-82061634D01*
X168810118Y-82024633D01*
X168853615Y-82010500D01*
X174824456Y-82010500D01*
X174865568Y-82022971D01*
X174892823Y-82056181D01*
X174897034Y-82098937D01*
X174876782Y-82136826D01*
X174796069Y-82217538D01*
X174796066Y-82217541D01*
X174791950Y-82221658D01*
X174789305Y-82226847D01*
X174789304Y-82226850D01*
X174737000Y-82329502D01*
X174734354Y-82334696D01*
X174733442Y-82340447D01*
X174733442Y-82340451D01*
X174721130Y-82418187D01*
X174714508Y-82460000D01*
X174734354Y-82585304D01*
X174791950Y-82698342D01*
X174881658Y-82788050D01*
X174994696Y-82845646D01*
X175120000Y-82865492D01*
X175245304Y-82845646D01*
X175358342Y-82788050D01*
X175448050Y-82698342D01*
X175505646Y-82585304D01*
X175525492Y-82460000D01*
X175505646Y-82334696D01*
X175448050Y-82221658D01*
X175363218Y-82136826D01*
X175342966Y-82098937D01*
X175347177Y-82056181D01*
X175374432Y-82022971D01*
X175415544Y-82010500D01*
X182296588Y-82010500D01*
X182296773Y-82010500D01*
X182303222Y-82010782D01*
X182342078Y-82014181D01*
X182465374Y-82024968D01*
X182478067Y-82027205D01*
X182632177Y-82068498D01*
X182644297Y-82072910D01*
X182788889Y-82140335D01*
X182800050Y-82146779D01*
X182930734Y-82238285D01*
X182940615Y-82246576D01*
X183053423Y-82359384D01*
X183061714Y-82369265D01*
X183153217Y-82499944D01*
X183159667Y-82511115D01*
X183227089Y-82655703D01*
X183231501Y-82667824D01*
X183272792Y-82821924D01*
X183275031Y-82834627D01*
X183289218Y-82996777D01*
X183289500Y-83003227D01*
X183289500Y-92396773D01*
X183289218Y-92403223D01*
X183275031Y-92565372D01*
X183272792Y-92578075D01*
X183231501Y-92732175D01*
X183227089Y-92744296D01*
X183159667Y-92888884D01*
X183153217Y-92900055D01*
X183061714Y-93030734D01*
X183053423Y-93040615D01*
X182940615Y-93153423D01*
X182930734Y-93161714D01*
X182800055Y-93253217D01*
X182788884Y-93259667D01*
X182644296Y-93327089D01*
X182632175Y-93331501D01*
X182478075Y-93372792D01*
X182465372Y-93375031D01*
X182303223Y-93389218D01*
X182296773Y-93389500D01*
X170301029Y-93389500D01*
X170270000Y-93379954D01*
X170238971Y-93389500D01*
X168221029Y-93389500D01*
X168190000Y-93379954D01*
X168158971Y-93389500D01*
X167003227Y-93389500D01*
X166996777Y-93389218D01*
X166834627Y-93375031D01*
X166821924Y-93372792D01*
X166667824Y-93331501D01*
X166655703Y-93327089D01*
X166511115Y-93259667D01*
X166499944Y-93253217D01*
X166498120Y-93251940D01*
X166382091Y-93170695D01*
X166369265Y-93161714D01*
X166359384Y-93153423D01*
X166246576Y-93040615D01*
X166238285Y-93030734D01*
X166237951Y-93030257D01*
X166146779Y-92900050D01*
X166140335Y-92888889D01*
X166117537Y-92840000D01*
X167784508Y-92840000D01*
X167785419Y-92845752D01*
X167796464Y-92915492D01*
X167804354Y-92965304D01*
X167861950Y-93078342D01*
X167951658Y-93168050D01*
X168064696Y-93225646D01*
X168166484Y-93241767D01*
X168170547Y-93242411D01*
X168189999Y-93251940D01*
X168209453Y-93242411D01*
X168212558Y-93241919D01*
X168315304Y-93225646D01*
X168428342Y-93168050D01*
X168518050Y-93078342D01*
X168575646Y-92965304D01*
X168595492Y-92840000D01*
X169864508Y-92840000D01*
X169865419Y-92845752D01*
X169876464Y-92915492D01*
X169884354Y-92965304D01*
X169941950Y-93078342D01*
X170031658Y-93168050D01*
X170144696Y-93225646D01*
X170246484Y-93241767D01*
X170250547Y-93242411D01*
X170269999Y-93251940D01*
X170289453Y-93242411D01*
X170292558Y-93241919D01*
X170395304Y-93225646D01*
X170508342Y-93168050D01*
X170598050Y-93078342D01*
X170655646Y-92965304D01*
X170675492Y-92840000D01*
X170655646Y-92714696D01*
X170598050Y-92601658D01*
X170508342Y-92511950D01*
X170395304Y-92454354D01*
X170389550Y-92453442D01*
X170389548Y-92453442D01*
X170275752Y-92435419D01*
X170270000Y-92434508D01*
X170264248Y-92435419D01*
X170150451Y-92453442D01*
X170150447Y-92453442D01*
X170144696Y-92454354D01*
X170139504Y-92456999D01*
X170139502Y-92457000D01*
X170036850Y-92509304D01*
X170036847Y-92509305D01*
X170031658Y-92511950D01*
X170027541Y-92516066D01*
X170027538Y-92516069D01*
X169946069Y-92597538D01*
X169946066Y-92597541D01*
X169941950Y-92601658D01*
X169939305Y-92606847D01*
X169939304Y-92606850D01*
X169891505Y-92700661D01*
X169884354Y-92714696D01*
X169883442Y-92720447D01*
X169883442Y-92720451D01*
X169871302Y-92797101D01*
X169864508Y-92840000D01*
X168595492Y-92840000D01*
X168575646Y-92714696D01*
X168518050Y-92601658D01*
X168428342Y-92511950D01*
X168315304Y-92454354D01*
X168309550Y-92453442D01*
X168309548Y-92453442D01*
X168195752Y-92435419D01*
X168190000Y-92434508D01*
X168184248Y-92435419D01*
X168070451Y-92453442D01*
X168070447Y-92453442D01*
X168064696Y-92454354D01*
X168059504Y-92456999D01*
X168059502Y-92457000D01*
X167956850Y-92509304D01*
X167956847Y-92509305D01*
X167951658Y-92511950D01*
X167947541Y-92516066D01*
X167947538Y-92516069D01*
X167866069Y-92597538D01*
X167866066Y-92597541D01*
X167861950Y-92601658D01*
X167859305Y-92606847D01*
X167859304Y-92606850D01*
X167811505Y-92700661D01*
X167804354Y-92714696D01*
X167803442Y-92720447D01*
X167803442Y-92720451D01*
X167791302Y-92797101D01*
X167784508Y-92840000D01*
X166117537Y-92840000D01*
X166080903Y-92761438D01*
X166072910Y-92744296D01*
X166068498Y-92732175D01*
X166065357Y-92720451D01*
X166027205Y-92578067D01*
X166024968Y-92565371D01*
X166020294Y-92511950D01*
X166013115Y-92429894D01*
X166010782Y-92403222D01*
X166010500Y-92396773D01*
X166010500Y-91992647D01*
X166850001Y-91992647D01*
X166850248Y-91996925D01*
X166852268Y-92014343D01*
X166855158Y-92024967D01*
X166895443Y-92116205D01*
X166903061Y-92127326D01*
X166972673Y-92196938D01*
X166983794Y-92204556D01*
X167075036Y-92244843D01*
X167085650Y-92247731D01*
X167103078Y-92249753D01*
X167107350Y-92250000D01*
X170665257Y-92250000D01*
X170672940Y-92247940D01*
X170675000Y-92240257D01*
X170675000Y-92240256D01*
X171075000Y-92240256D01*
X171077059Y-92247939D01*
X171084743Y-92249999D01*
X173482229Y-92249999D01*
X173528799Y-92266490D01*
X173554612Y-92308613D01*
X173548164Y-92357591D01*
X173534354Y-92384696D01*
X173533442Y-92390447D01*
X173533442Y-92390451D01*
X173516819Y-92495410D01*
X173514508Y-92510000D01*
X173515419Y-92515752D01*
X173530980Y-92614006D01*
X173534354Y-92635304D01*
X173591950Y-92748342D01*
X173681658Y-92838050D01*
X173794696Y-92895646D01*
X173920000Y-92915492D01*
X174045304Y-92895646D01*
X174158342Y-92838050D01*
X174205376Y-92791016D01*
X178094544Y-92791016D01*
X178100882Y-92792939D01*
X179019118Y-92792939D01*
X179025455Y-92791016D01*
X179022335Y-92785178D01*
X178566887Y-92329730D01*
X178559999Y-92325753D01*
X178553112Y-92329730D01*
X178097664Y-92785178D01*
X178094544Y-92791016D01*
X174205376Y-92791016D01*
X174248050Y-92748342D01*
X174305646Y-92635304D01*
X174325492Y-92510000D01*
X174305646Y-92384696D01*
X174291835Y-92357591D01*
X174285388Y-92308613D01*
X174311201Y-92266490D01*
X174357771Y-92249999D01*
X174642647Y-92249999D01*
X174646925Y-92249751D01*
X174664343Y-92247731D01*
X174674967Y-92244841D01*
X174766205Y-92204556D01*
X174777326Y-92196938D01*
X174846938Y-92127326D01*
X174854556Y-92116205D01*
X174894843Y-92024963D01*
X174897731Y-92014349D01*
X174899753Y-91996921D01*
X174899999Y-91992649D01*
X174899999Y-91508353D01*
X174915885Y-91462540D01*
X174956724Y-91436398D01*
X175004979Y-91441150D01*
X175039932Y-91474756D01*
X175051950Y-91498342D01*
X175141658Y-91588050D01*
X175254696Y-91645646D01*
X175380000Y-91665492D01*
X175505304Y-91645646D01*
X175618342Y-91588050D01*
X175708050Y-91498342D01*
X175765646Y-91385304D01*
X175785492Y-91260000D01*
X175779551Y-91222491D01*
X175782262Y-91188049D01*
X175800314Y-91158591D01*
X175824209Y-91134696D01*
X175853458Y-91105446D01*
X175888507Y-91085817D01*
X175928649Y-91087394D01*
X175962052Y-91109712D01*
X175978872Y-91146195D01*
X175983442Y-91175048D01*
X175984354Y-91180804D01*
X176041950Y-91293842D01*
X176131658Y-91383550D01*
X176244696Y-91441146D01*
X176370000Y-91460992D01*
X176495304Y-91441146D01*
X176495503Y-91442408D01*
X176529873Y-91441503D01*
X176565718Y-91463465D01*
X176583817Y-91501408D01*
X176594354Y-91567936D01*
X176651950Y-91680974D01*
X176741658Y-91770682D01*
X176854696Y-91828278D01*
X176944129Y-91842442D01*
X176976048Y-91855664D01*
X176998486Y-91881936D01*
X177006552Y-91915531D01*
X177006552Y-92187158D01*
X177005892Y-92195537D01*
X177004590Y-92199546D01*
X177004590Y-92247554D01*
X177008441Y-92271870D01*
X177008762Y-92271818D01*
X177009449Y-92274135D01*
X177011162Y-92284953D01*
X177011225Y-92287366D01*
X177010904Y-92287418D01*
X177011290Y-92289860D01*
X177011291Y-92289866D01*
X177014298Y-92308855D01*
X177014300Y-92308864D01*
X177014755Y-92311736D01*
X177015656Y-92314509D01*
X177020601Y-92329730D01*
X177029593Y-92357403D01*
X177033017Y-92362115D01*
X177038126Y-92369146D01*
X177044197Y-92379053D01*
X177048143Y-92386799D01*
X177048144Y-92386801D01*
X177050790Y-92391994D01*
X177084743Y-92425947D01*
X177089297Y-92429255D01*
X177090176Y-92429894D01*
X177099007Y-92437436D01*
X177101466Y-92439895D01*
X177103758Y-92442187D01*
X177142601Y-92470409D01*
X177156414Y-92474896D01*
X177167148Y-92479343D01*
X177180085Y-92485936D01*
X177227508Y-92493448D01*
X177233061Y-92493448D01*
X177270061Y-92503362D01*
X177297147Y-92530448D01*
X177307061Y-92567448D01*
X177307061Y-92569584D01*
X177307515Y-92575362D01*
X177313636Y-92614006D01*
X177317192Y-92624949D01*
X177321124Y-92632665D01*
X177325567Y-92643391D01*
X177328242Y-92651623D01*
X177333469Y-92661881D01*
X177356462Y-92693528D01*
X177360229Y-92697939D01*
X177362951Y-92700661D01*
X177370491Y-92709489D01*
X177372757Y-92712608D01*
X177376516Y-92717009D01*
X177404185Y-92744678D01*
X177413492Y-92751439D01*
X177421196Y-92755364D01*
X177431108Y-92761438D01*
X177438114Y-92766529D01*
X177448364Y-92771752D01*
X177485569Y-92783841D01*
X177491218Y-92785197D01*
X177510239Y-92788210D01*
X177515112Y-92788337D01*
X177518293Y-92788841D01*
X177526295Y-92788211D01*
X177533137Y-92784018D01*
X178507673Y-91809482D01*
X178540846Y-91790329D01*
X178579152Y-91790329D01*
X178612325Y-91809482D01*
X179586859Y-92784016D01*
X179593702Y-92788210D01*
X179601702Y-92788839D01*
X179604884Y-92788336D01*
X179609774Y-92788208D01*
X179628775Y-92785199D01*
X179634429Y-92783841D01*
X179671630Y-92771754D01*
X179681882Y-92766530D01*
X179688881Y-92761444D01*
X179698801Y-92755365D01*
X179706502Y-92751442D01*
X179715814Y-92744677D01*
X179743482Y-92717009D01*
X179747236Y-92712613D01*
X179749494Y-92709505D01*
X179757055Y-92700652D01*
X179759778Y-92697929D01*
X179763532Y-92693534D01*
X179786531Y-92661881D01*
X179791756Y-92651626D01*
X179794430Y-92643395D01*
X179798880Y-92632652D01*
X179802807Y-92624945D01*
X179806363Y-92614005D01*
X179812484Y-92575362D01*
X179812939Y-92569584D01*
X179812939Y-92567448D01*
X179822853Y-92530448D01*
X179849939Y-92503362D01*
X179886939Y-92493448D01*
X179889585Y-92493448D01*
X179892492Y-92493448D01*
X179939915Y-92485936D01*
X179952852Y-92479342D01*
X179959329Y-92476660D01*
X180760000Y-92476660D01*
X180760113Y-92479558D01*
X180762492Y-92509779D01*
X180763843Y-92517179D01*
X180805545Y-92660718D01*
X180809215Y-92669198D01*
X180884856Y-92797101D01*
X180890521Y-92804404D01*
X180995595Y-92909478D01*
X181002898Y-92915143D01*
X181130801Y-92990784D01*
X181139281Y-92994454D01*
X181282820Y-93036156D01*
X181290220Y-93037507D01*
X181320441Y-93039886D01*
X181323340Y-93040000D01*
X181650257Y-93040000D01*
X181657940Y-93037940D01*
X181660000Y-93030257D01*
X182060000Y-93030257D01*
X182062059Y-93037940D01*
X182069743Y-93040000D01*
X182396660Y-93040000D01*
X182399558Y-93039886D01*
X182429779Y-93037507D01*
X182437179Y-93036156D01*
X182580718Y-92994454D01*
X182589198Y-92990784D01*
X182717101Y-92915143D01*
X182724404Y-92909478D01*
X182829478Y-92804404D01*
X182835143Y-92797101D01*
X182910784Y-92669198D01*
X182914454Y-92660718D01*
X182956156Y-92517179D01*
X182957507Y-92509779D01*
X182959886Y-92479558D01*
X182960000Y-92476660D01*
X182960000Y-92149743D01*
X182957940Y-92142059D01*
X182950257Y-92140000D01*
X182069743Y-92140000D01*
X182062059Y-92142059D01*
X182060000Y-92149743D01*
X182060000Y-93030257D01*
X181660000Y-93030257D01*
X181660000Y-92149743D01*
X181657940Y-92142059D01*
X181650257Y-92140000D01*
X180769743Y-92140000D01*
X180762059Y-92142059D01*
X180760000Y-92149743D01*
X180760000Y-92476660D01*
X179959329Y-92476660D01*
X179963589Y-92474896D01*
X179963595Y-92474894D01*
X179977399Y-92470410D01*
X180016243Y-92442187D01*
X180020993Y-92437436D01*
X180029828Y-92429890D01*
X180035257Y-92425947D01*
X180069209Y-92391995D01*
X180075799Y-92379057D01*
X180081867Y-92369156D01*
X180090407Y-92357405D01*
X180105245Y-92311739D01*
X180109097Y-92287417D01*
X180108773Y-92287365D01*
X180108836Y-92284944D01*
X180110549Y-92274135D01*
X180111233Y-92271825D01*
X180111559Y-92271877D01*
X180115411Y-92247557D01*
X180115411Y-92199548D01*
X180114107Y-92195537D01*
X180113448Y-92187154D01*
X180113448Y-90838223D01*
X180119846Y-90808125D01*
X180137932Y-90783231D01*
X180140726Y-90780714D01*
X180140726Y-90780713D01*
X180146509Y-90775507D01*
X180156420Y-90753242D01*
X180161955Y-90743050D01*
X180175226Y-90722618D01*
X180176555Y-90714222D01*
X180182043Y-90695694D01*
X180185500Y-90687932D01*
X180185500Y-90663573D01*
X180186411Y-90651997D01*
X180189005Y-90635617D01*
X180190222Y-90627935D01*
X180188177Y-90620305D01*
X180188022Y-90619722D01*
X180185500Y-90600569D01*
X180185500Y-89817861D01*
X180185601Y-89813988D01*
X180186113Y-89804219D01*
X180187700Y-89773936D01*
X180178969Y-89751191D01*
X180175670Y-89740053D01*
X180172224Y-89723840D01*
X180170607Y-89716232D01*
X180165609Y-89709353D01*
X180156392Y-89692378D01*
X180153346Y-89684441D01*
X180136118Y-89667213D01*
X180128583Y-89658391D01*
X180114260Y-89638677D01*
X180106894Y-89634424D01*
X180091571Y-89622666D01*
X179775007Y-89306102D01*
X179772340Y-89303292D01*
X179750710Y-89279269D01*
X179750708Y-89279268D01*
X179745507Y-89273491D01*
X179738405Y-89270328D01*
X179738401Y-89270326D01*
X179723251Y-89263581D01*
X179713050Y-89258042D01*
X179699144Y-89249012D01*
X179699143Y-89249011D01*
X179692618Y-89244774D01*
X179684934Y-89243556D01*
X179684930Y-89243555D01*
X179684208Y-89243441D01*
X179665704Y-89237960D01*
X179665037Y-89237663D01*
X179665036Y-89237662D01*
X179657932Y-89234500D01*
X179650155Y-89234500D01*
X179633573Y-89234500D01*
X179621997Y-89233589D01*
X179605617Y-89230994D01*
X179605613Y-89230994D01*
X179597935Y-89229778D01*
X179590423Y-89231790D01*
X179590419Y-89231791D01*
X179589722Y-89231978D01*
X179570569Y-89234500D01*
X177187842Y-89234500D01*
X177183969Y-89234399D01*
X177151700Y-89232707D01*
X177151695Y-89232707D01*
X177143936Y-89232301D01*
X177136682Y-89235085D01*
X177136671Y-89235087D01*
X177121192Y-89241029D01*
X177110066Y-89244325D01*
X177093842Y-89247774D01*
X177093836Y-89247776D01*
X177086232Y-89249393D01*
X177079942Y-89253962D01*
X177079939Y-89253964D01*
X177079350Y-89254393D01*
X177062377Y-89263608D01*
X177061701Y-89263867D01*
X177061698Y-89263868D01*
X177054440Y-89266655D01*
X177048941Y-89272153D01*
X177048939Y-89272155D01*
X177037209Y-89283884D01*
X177028386Y-89291419D01*
X177008677Y-89305740D01*
X177004791Y-89312468D01*
X177004787Y-89312474D01*
X177004421Y-89313110D01*
X176992666Y-89328427D01*
X175481408Y-90839685D01*
X175451950Y-90857737D01*
X175417507Y-90860448D01*
X175380000Y-90854508D01*
X175374248Y-90855419D01*
X175260451Y-90873442D01*
X175260447Y-90873442D01*
X175254696Y-90874354D01*
X175249504Y-90876999D01*
X175249502Y-90877000D01*
X175146850Y-90929304D01*
X175146847Y-90929305D01*
X175141658Y-90931950D01*
X175137541Y-90936066D01*
X175137538Y-90936069D01*
X175056069Y-91017538D01*
X175056066Y-91017541D01*
X175051950Y-91021658D01*
X175049306Y-91026845D01*
X175049305Y-91026848D01*
X175039933Y-91045243D01*
X175004979Y-91078850D01*
X174956724Y-91083602D01*
X174915885Y-91057460D01*
X174899999Y-91011647D01*
X174899999Y-90707353D01*
X174899751Y-90703074D01*
X174897731Y-90685656D01*
X174894841Y-90675032D01*
X174854556Y-90583794D01*
X174846938Y-90572673D01*
X174777326Y-90503061D01*
X174766205Y-90495443D01*
X174674963Y-90455156D01*
X174664349Y-90452268D01*
X174646921Y-90450246D01*
X174642650Y-90450000D01*
X171084743Y-90450000D01*
X171077059Y-90452059D01*
X171075000Y-90459743D01*
X171075000Y-92240256D01*
X170675000Y-92240256D01*
X170675000Y-91559743D01*
X170672940Y-91552059D01*
X170665257Y-91550000D01*
X166859744Y-91550000D01*
X166852060Y-91552059D01*
X166850001Y-91559743D01*
X166850001Y-91992647D01*
X166010500Y-91992647D01*
X166010500Y-86480000D01*
X166204508Y-86480000D01*
X166205419Y-86485752D01*
X166219362Y-86573790D01*
X166224354Y-86605304D01*
X166281950Y-86718342D01*
X166371658Y-86808050D01*
X166484696Y-86865646D01*
X166610000Y-86885492D01*
X166735304Y-86865646D01*
X166848342Y-86808050D01*
X166879217Y-86777174D01*
X166903225Y-86761133D01*
X166931544Y-86755500D01*
X167875501Y-86755500D01*
X167912501Y-86765414D01*
X167939587Y-86792500D01*
X167949501Y-86829500D01*
X167949501Y-87127864D01*
X167949747Y-87129990D01*
X167949748Y-87129997D01*
X167951773Y-87147460D01*
X167951773Y-87147463D01*
X167952415Y-87152991D01*
X167954662Y-87158079D01*
X167954663Y-87158083D01*
X167980551Y-87216713D01*
X167997794Y-87255765D01*
X168077235Y-87335206D01*
X168180009Y-87380585D01*
X168205135Y-87383500D01*
X168321207Y-87383499D01*
X168367776Y-87399990D01*
X168393590Y-87442113D01*
X168387142Y-87491094D01*
X168356367Y-87551491D01*
X168334354Y-87594696D01*
X168333442Y-87600447D01*
X168333442Y-87600451D01*
X168317003Y-87704248D01*
X168314508Y-87720000D01*
X168315419Y-87725752D01*
X168331858Y-87829548D01*
X168334354Y-87845304D01*
X168366761Y-87908906D01*
X168373209Y-87957885D01*
X168347396Y-88000009D01*
X168300827Y-88016500D01*
X168207281Y-88016500D01*
X168207263Y-88016500D01*
X168205136Y-88016501D01*
X168203010Y-88016747D01*
X168203002Y-88016748D01*
X168185539Y-88018773D01*
X168185534Y-88018774D01*
X168180009Y-88019415D01*
X168174920Y-88021661D01*
X168174916Y-88021663D01*
X168083507Y-88062024D01*
X168083504Y-88062025D01*
X168077235Y-88064794D01*
X168072389Y-88069639D01*
X168072386Y-88069642D01*
X168002642Y-88139386D01*
X168002639Y-88139389D01*
X167997794Y-88144235D01*
X167995025Y-88150504D01*
X167995024Y-88150507D01*
X167954661Y-88241920D01*
X167954659Y-88241925D01*
X167952415Y-88247009D01*
X167951774Y-88252527D01*
X167951773Y-88252534D01*
X167949746Y-88270006D01*
X167949745Y-88270023D01*
X167949500Y-88272135D01*
X167949500Y-88274277D01*
X167949500Y-88274278D01*
X167949500Y-89559718D01*
X167949500Y-89559735D01*
X167949501Y-89561864D01*
X167949747Y-89563990D01*
X167949748Y-89563997D01*
X167951773Y-89581460D01*
X167951773Y-89581463D01*
X167952415Y-89586991D01*
X167954662Y-89592079D01*
X167954663Y-89592083D01*
X167986019Y-89663097D01*
X167997794Y-89689765D01*
X168002642Y-89694613D01*
X168003911Y-89696465D01*
X168016819Y-89735778D01*
X168006603Y-89775875D01*
X167976457Y-89804219D01*
X167946848Y-89819305D01*
X167946845Y-89819306D01*
X167941658Y-89821950D01*
X167937541Y-89826066D01*
X167937538Y-89826069D01*
X167856069Y-89907538D01*
X167856066Y-89907541D01*
X167851950Y-89911658D01*
X167849305Y-89916847D01*
X167849304Y-89916850D01*
X167797000Y-90019502D01*
X167794354Y-90024696D01*
X167793442Y-90030447D01*
X167793442Y-90030451D01*
X167775419Y-90144248D01*
X167774508Y-90150000D01*
X167794354Y-90275304D01*
X167802094Y-90290494D01*
X167828544Y-90342405D01*
X167834992Y-90391386D01*
X167809179Y-90433509D01*
X167762609Y-90450000D01*
X167107353Y-90450000D01*
X167103074Y-90450248D01*
X167085656Y-90452268D01*
X167075032Y-90455158D01*
X166983794Y-90495443D01*
X166972673Y-90503061D01*
X166903061Y-90572673D01*
X166895443Y-90583794D01*
X166855156Y-90675036D01*
X166852268Y-90685650D01*
X166850246Y-90703078D01*
X166850000Y-90707350D01*
X166850000Y-91140257D01*
X166852059Y-91147940D01*
X166859743Y-91150000D01*
X170665257Y-91150000D01*
X170672940Y-91147940D01*
X170675000Y-91140257D01*
X170675000Y-90459744D01*
X170672738Y-90451305D01*
X170663273Y-90441840D01*
X170642510Y-90401090D01*
X170649664Y-90355921D01*
X170685646Y-90285304D01*
X170705492Y-90160000D01*
X170685646Y-90034696D01*
X170629801Y-89925094D01*
X170623352Y-89876114D01*
X170649165Y-89833990D01*
X170695735Y-89817499D01*
X174642719Y-89817499D01*
X174644864Y-89817499D01*
X174669991Y-89814585D01*
X174772765Y-89769206D01*
X174852206Y-89689765D01*
X174897585Y-89586991D01*
X174900500Y-89561865D01*
X174900499Y-88272136D01*
X174897585Y-88247009D01*
X174852206Y-88144235D01*
X174772765Y-88064794D01*
X174766492Y-88062024D01*
X174675079Y-88021661D01*
X174675075Y-88021660D01*
X174669991Y-88019415D01*
X174664470Y-88018774D01*
X174664465Y-88018773D01*
X174646993Y-88016746D01*
X174646977Y-88016745D01*
X174644865Y-88016500D01*
X174642722Y-88016500D01*
X170744078Y-88016500D01*
X170697508Y-88000009D01*
X170671695Y-87957885D01*
X170678144Y-87908905D01*
X170715646Y-87835304D01*
X170735492Y-87710000D01*
X170715646Y-87584696D01*
X170667952Y-87491093D01*
X170661504Y-87442114D01*
X170687317Y-87399990D01*
X170733887Y-87383499D01*
X174642719Y-87383499D01*
X174644864Y-87383499D01*
X174669991Y-87380585D01*
X174772765Y-87335206D01*
X174852206Y-87255765D01*
X174897585Y-87152991D01*
X174900500Y-87127865D01*
X174900500Y-86812132D01*
X176157288Y-86812132D01*
X176158199Y-86817884D01*
X176176027Y-86930451D01*
X176177134Y-86937436D01*
X176234730Y-87050474D01*
X176324438Y-87140182D01*
X176437476Y-87197778D01*
X176562780Y-87217624D01*
X176688084Y-87197778D01*
X176801122Y-87140182D01*
X176890830Y-87050474D01*
X176891072Y-87050000D01*
X179694508Y-87050000D01*
X179695419Y-87055752D01*
X179709944Y-87147465D01*
X179714354Y-87175304D01*
X179771950Y-87288342D01*
X179861658Y-87378050D01*
X179974696Y-87435646D01*
X180100000Y-87455492D01*
X180225304Y-87435646D01*
X180338342Y-87378050D01*
X180428050Y-87288342D01*
X180485646Y-87175304D01*
X180505492Y-87050000D01*
X180485646Y-86924696D01*
X180428050Y-86811658D01*
X180338342Y-86721950D01*
X180225304Y-86664354D01*
X180219550Y-86663442D01*
X180219548Y-86663442D01*
X180105752Y-86645419D01*
X180100000Y-86644508D01*
X180094248Y-86645419D01*
X179980451Y-86663442D01*
X179980447Y-86663442D01*
X179974696Y-86664354D01*
X179969504Y-86666999D01*
X179969502Y-86667000D01*
X179866850Y-86719304D01*
X179866847Y-86719305D01*
X179861658Y-86721950D01*
X179857541Y-86726066D01*
X179857538Y-86726069D01*
X179776069Y-86807538D01*
X179776066Y-86807541D01*
X179771950Y-86811658D01*
X179769305Y-86816847D01*
X179769304Y-86816850D01*
X179717000Y-86919502D01*
X179714354Y-86924696D01*
X179713442Y-86930447D01*
X179713442Y-86930451D01*
X179695419Y-87044248D01*
X179694508Y-87050000D01*
X176891072Y-87050000D01*
X176948426Y-86937436D01*
X176968272Y-86812132D01*
X176948426Y-86686828D01*
X176890830Y-86573790D01*
X176801122Y-86484082D01*
X176688084Y-86426486D01*
X176682330Y-86425574D01*
X176682328Y-86425574D01*
X176568532Y-86407551D01*
X176562780Y-86406640D01*
X176557028Y-86407551D01*
X176443231Y-86425574D01*
X176443227Y-86425574D01*
X176437476Y-86426486D01*
X176432284Y-86429131D01*
X176432282Y-86429132D01*
X176329630Y-86481436D01*
X176329627Y-86481437D01*
X176324438Y-86484082D01*
X176320321Y-86488198D01*
X176320318Y-86488201D01*
X176238849Y-86569670D01*
X176238846Y-86569673D01*
X176234730Y-86573790D01*
X176232085Y-86578979D01*
X176232084Y-86578982D01*
X176179780Y-86681634D01*
X176177134Y-86686828D01*
X176176222Y-86692579D01*
X176176222Y-86692583D01*
X176162825Y-86777174D01*
X176157288Y-86812132D01*
X174900500Y-86812132D01*
X174900499Y-86040000D01*
X179574508Y-86040000D01*
X179575419Y-86045752D01*
X179588841Y-86130500D01*
X179594354Y-86165304D01*
X179651950Y-86278342D01*
X179741658Y-86368050D01*
X179854696Y-86425646D01*
X179980000Y-86445492D01*
X180105304Y-86425646D01*
X180218342Y-86368050D01*
X180308050Y-86278342D01*
X180365646Y-86165304D01*
X180384391Y-86046950D01*
X180395949Y-86017419D01*
X180418804Y-85995437D01*
X180423093Y-85992810D01*
X180433422Y-85987546D01*
X180587975Y-85923528D01*
X180599008Y-85919943D01*
X180668225Y-85903325D01*
X180712019Y-85906195D01*
X180746485Y-85933366D01*
X180759500Y-85975280D01*
X180759500Y-86604820D01*
X180768233Y-86648722D01*
X180772280Y-86654780D01*
X180775071Y-86661516D01*
X180772497Y-86662581D01*
X180780815Y-86689949D01*
X180772506Y-86717424D01*
X180775070Y-86718486D01*
X180772280Y-86725220D01*
X180768233Y-86731278D01*
X180766811Y-86738421D01*
X180766811Y-86738424D01*
X180760210Y-86771610D01*
X180759500Y-86775180D01*
X180759500Y-88704820D01*
X180760210Y-88708389D01*
X180766810Y-88741572D01*
X180766811Y-88741575D01*
X180768233Y-88748722D01*
X180772282Y-88754783D01*
X180775071Y-88761514D01*
X180772529Y-88762566D01*
X180780815Y-88790000D01*
X180772529Y-88817433D01*
X180775071Y-88818486D01*
X180772282Y-88825217D01*
X180768233Y-88831278D01*
X180766811Y-88838422D01*
X180766810Y-88838427D01*
X180760210Y-88871610D01*
X180759500Y-88875180D01*
X180759500Y-90804820D01*
X180760210Y-90808389D01*
X180766144Y-90838223D01*
X180768233Y-90848722D01*
X180772280Y-90854780D01*
X180775071Y-90861516D01*
X180773276Y-90862259D01*
X180780773Y-90883226D01*
X180775496Y-90918784D01*
X180767281Y-90938617D01*
X180760710Y-90971655D01*
X180760000Y-90978865D01*
X180760000Y-91730257D01*
X180762059Y-91737940D01*
X180769743Y-91740000D01*
X182950257Y-91740000D01*
X182957940Y-91737940D01*
X182959999Y-91730256D01*
X182959999Y-90978867D01*
X182959288Y-90971652D01*
X182952719Y-90938624D01*
X182944503Y-90918789D01*
X182939229Y-90883189D01*
X182946730Y-90862261D01*
X182944928Y-90861515D01*
X182947714Y-90854786D01*
X182951767Y-90848722D01*
X182960500Y-90804820D01*
X182960500Y-88875180D01*
X182951767Y-88831278D01*
X182947718Y-88825219D01*
X182944929Y-88818484D01*
X182947488Y-88817423D01*
X182939185Y-88789793D01*
X182947525Y-88762591D01*
X182944929Y-88761516D01*
X182947718Y-88754781D01*
X182951767Y-88748722D01*
X182960500Y-88704820D01*
X182960500Y-86775180D01*
X182951767Y-86731278D01*
X182947716Y-86725216D01*
X182944929Y-86718486D01*
X182947529Y-86717408D01*
X182939184Y-86689947D01*
X182947538Y-86662596D01*
X182944928Y-86661515D01*
X182947715Y-86654786D01*
X182951767Y-86648722D01*
X182960500Y-86604820D01*
X182960499Y-85101838D01*
X182957709Y-85066373D01*
X182928836Y-84966990D01*
X182914917Y-84919081D01*
X182914916Y-84919080D01*
X182913618Y-84914610D01*
X182833170Y-84778580D01*
X182721420Y-84666830D01*
X182717412Y-84664460D01*
X182717410Y-84664458D01*
X182589397Y-84588752D01*
X182589398Y-84588752D01*
X182585390Y-84586382D01*
X182580923Y-84585084D01*
X182580918Y-84585082D01*
X182437257Y-84543345D01*
X182437251Y-84543343D01*
X182433627Y-84542291D01*
X182429861Y-84541994D01*
X182429858Y-84541994D01*
X182399609Y-84539613D01*
X182399588Y-84539612D01*
X182398163Y-84539500D01*
X182396710Y-84539500D01*
X181323292Y-84539500D01*
X181323266Y-84539500D01*
X181321838Y-84539501D01*
X181320390Y-84539614D01*
X181320387Y-84539615D01*
X181290139Y-84541994D01*
X181290131Y-84541995D01*
X181286373Y-84542291D01*
X181282754Y-84543342D01*
X181282745Y-84543344D01*
X181139081Y-84585082D01*
X181139073Y-84585085D01*
X181134610Y-84586382D01*
X181130604Y-84588751D01*
X181130602Y-84588752D01*
X181002589Y-84664458D01*
X181002583Y-84664462D01*
X180998580Y-84666830D01*
X180995290Y-84670119D01*
X180995286Y-84670123D01*
X180890123Y-84775286D01*
X180890119Y-84775290D01*
X180886830Y-84778580D01*
X180884462Y-84782583D01*
X180884458Y-84782589D01*
X180812080Y-84904975D01*
X180806382Y-84914610D01*
X180805085Y-84919073D01*
X180805082Y-84919081D01*
X180763345Y-85062742D01*
X180763343Y-85062750D01*
X180762291Y-85066373D01*
X180761994Y-85070136D01*
X180761994Y-85070141D01*
X180759613Y-85100390D01*
X180759612Y-85100412D01*
X180759500Y-85101837D01*
X180759500Y-85103290D01*
X180759500Y-85360381D01*
X180751139Y-85394550D01*
X180727945Y-85420998D01*
X180695160Y-85433748D01*
X180636991Y-85441406D01*
X180636974Y-85441409D01*
X180634592Y-85441723D01*
X180632261Y-85442347D01*
X180632249Y-85442350D01*
X180435465Y-85495080D01*
X180435453Y-85495083D01*
X180433117Y-85495710D01*
X180430875Y-85496638D01*
X180430874Y-85496639D01*
X180242650Y-85574604D01*
X180242642Y-85574607D01*
X180240411Y-85575532D01*
X180238321Y-85576738D01*
X180238304Y-85576747D01*
X180126884Y-85641075D01*
X180078309Y-85650078D01*
X179985752Y-85635419D01*
X179980000Y-85634508D01*
X179974248Y-85635419D01*
X179860451Y-85653442D01*
X179860447Y-85653442D01*
X179854696Y-85654354D01*
X179849504Y-85656999D01*
X179849502Y-85657000D01*
X179746850Y-85709304D01*
X179746847Y-85709305D01*
X179741658Y-85711950D01*
X179737541Y-85716066D01*
X179737538Y-85716069D01*
X179656069Y-85797538D01*
X179656066Y-85797541D01*
X179651950Y-85801658D01*
X179649305Y-85806847D01*
X179649304Y-85806850D01*
X179598685Y-85906195D01*
X179594354Y-85914696D01*
X179593442Y-85920447D01*
X179593442Y-85920451D01*
X179582816Y-85987542D01*
X179574508Y-86040000D01*
X174900499Y-86040000D01*
X174900499Y-85838136D01*
X174897585Y-85813009D01*
X174852206Y-85710235D01*
X174772765Y-85630794D01*
X174766492Y-85628024D01*
X174675079Y-85587661D01*
X174675075Y-85587660D01*
X174669991Y-85585415D01*
X174664470Y-85584774D01*
X174664465Y-85584773D01*
X174646993Y-85582746D01*
X174646977Y-85582745D01*
X174644865Y-85582500D01*
X174642722Y-85582500D01*
X171151212Y-85582500D01*
X171104642Y-85566009D01*
X171078829Y-85523886D01*
X171085276Y-85474906D01*
X171115646Y-85415304D01*
X171135492Y-85290000D01*
X171115646Y-85164696D01*
X171061328Y-85058092D01*
X171054880Y-85009114D01*
X171080693Y-84966990D01*
X171127263Y-84950499D01*
X174642719Y-84950499D01*
X174644864Y-84950499D01*
X174669991Y-84947585D01*
X174772765Y-84902206D01*
X174852206Y-84822765D01*
X174897585Y-84719991D01*
X174900500Y-84694865D01*
X174900499Y-83480000D01*
X180464508Y-83480000D01*
X180484354Y-83605304D01*
X180541950Y-83718342D01*
X180631658Y-83808050D01*
X180744696Y-83865646D01*
X180870000Y-83885492D01*
X180995304Y-83865646D01*
X181108342Y-83808050D01*
X181198050Y-83718342D01*
X181255646Y-83605304D01*
X181275492Y-83480000D01*
X181255646Y-83354696D01*
X181198050Y-83241658D01*
X181108342Y-83151950D01*
X180995304Y-83094354D01*
X180989550Y-83093442D01*
X180989548Y-83093442D01*
X180875752Y-83075419D01*
X180870000Y-83074508D01*
X180864248Y-83075419D01*
X180750451Y-83093442D01*
X180750447Y-83093442D01*
X180744696Y-83094354D01*
X180739504Y-83096999D01*
X180739502Y-83097000D01*
X180636850Y-83149304D01*
X180636847Y-83149305D01*
X180631658Y-83151950D01*
X180627541Y-83156066D01*
X180627538Y-83156069D01*
X180546069Y-83237538D01*
X180546066Y-83237541D01*
X180541950Y-83241658D01*
X180539305Y-83246847D01*
X180539304Y-83246850D01*
X180487000Y-83349502D01*
X180484354Y-83354696D01*
X180483442Y-83360447D01*
X180483442Y-83360451D01*
X180476365Y-83405135D01*
X180464508Y-83480000D01*
X174900499Y-83480000D01*
X174900499Y-83405136D01*
X174897585Y-83380009D01*
X174852206Y-83277235D01*
X174772765Y-83197794D01*
X174766492Y-83195024D01*
X174675079Y-83154661D01*
X174675075Y-83154660D01*
X174669991Y-83152415D01*
X174664470Y-83151774D01*
X174664465Y-83151773D01*
X174646993Y-83149746D01*
X174646977Y-83149745D01*
X174644865Y-83149500D01*
X174642722Y-83149500D01*
X167935934Y-83149500D01*
X167892437Y-83135367D01*
X167865556Y-83098366D01*
X167865556Y-83055481D01*
X167865646Y-83055304D01*
X167885492Y-82930000D01*
X167865646Y-82804696D01*
X167808050Y-82691658D01*
X167718342Y-82601950D01*
X167605304Y-82544354D01*
X167599550Y-82543442D01*
X167599548Y-82543442D01*
X167485752Y-82525419D01*
X167480000Y-82524508D01*
X167474248Y-82525419D01*
X167360451Y-82543442D01*
X167360447Y-82543442D01*
X167354696Y-82544354D01*
X167349504Y-82546999D01*
X167349502Y-82547000D01*
X167246850Y-82599304D01*
X167246847Y-82599305D01*
X167241658Y-82601950D01*
X167237541Y-82606066D01*
X167237538Y-82606069D01*
X167156069Y-82687538D01*
X167156066Y-82687541D01*
X167151950Y-82691658D01*
X167149305Y-82696847D01*
X167149304Y-82696850D01*
X167097740Y-82798050D01*
X167094354Y-82804696D01*
X167093442Y-82810447D01*
X167093442Y-82810451D01*
X167086284Y-82855646D01*
X167074508Y-82930000D01*
X167075419Y-82935752D01*
X167093442Y-83049550D01*
X167093443Y-83049553D01*
X167094354Y-83055304D01*
X167096997Y-83060492D01*
X167098798Y-83066033D01*
X167097939Y-83066311D01*
X167104480Y-83098547D01*
X167091196Y-83135878D01*
X167060556Y-83161004D01*
X166983507Y-83195024D01*
X166983504Y-83195025D01*
X166977235Y-83197794D01*
X166972389Y-83202639D01*
X166972386Y-83202642D01*
X166902642Y-83272386D01*
X166902639Y-83272389D01*
X166897794Y-83277235D01*
X166895025Y-83283504D01*
X166895024Y-83283507D01*
X166854661Y-83374920D01*
X166854659Y-83374925D01*
X166852415Y-83380009D01*
X166851774Y-83385527D01*
X166851773Y-83385534D01*
X166849746Y-83403006D01*
X166849745Y-83403023D01*
X166849500Y-83405135D01*
X166849500Y-83407277D01*
X166849500Y-83407278D01*
X166849500Y-84692718D01*
X166849500Y-84692735D01*
X166849501Y-84694864D01*
X166849747Y-84696990D01*
X166849748Y-84696997D01*
X166851773Y-84714460D01*
X166851773Y-84714463D01*
X166852415Y-84719991D01*
X166854662Y-84725079D01*
X166854663Y-84725083D01*
X166895024Y-84816492D01*
X166897794Y-84822765D01*
X166977235Y-84902206D01*
X167080009Y-84947585D01*
X167105135Y-84950500D01*
X170332736Y-84950499D01*
X170379306Y-84966990D01*
X170405119Y-85009113D01*
X170398671Y-85058093D01*
X170344354Y-85164696D01*
X170343442Y-85170447D01*
X170343442Y-85170451D01*
X170325419Y-85284248D01*
X170324508Y-85290000D01*
X170344354Y-85415304D01*
X170374723Y-85474906D01*
X170381171Y-85523886D01*
X170355358Y-85566009D01*
X170308788Y-85582500D01*
X168207281Y-85582500D01*
X168207263Y-85582500D01*
X168205136Y-85582501D01*
X168203010Y-85582747D01*
X168203002Y-85582748D01*
X168185539Y-85584773D01*
X168185534Y-85584774D01*
X168180009Y-85585415D01*
X168174920Y-85587661D01*
X168174916Y-85587663D01*
X168083507Y-85628024D01*
X168083504Y-85628025D01*
X168077235Y-85630794D01*
X168072389Y-85635639D01*
X168072386Y-85635642D01*
X168002642Y-85705386D01*
X168002639Y-85705389D01*
X167997794Y-85710235D01*
X167995025Y-85716504D01*
X167995024Y-85716507D01*
X167954661Y-85807920D01*
X167954659Y-85807925D01*
X167952415Y-85813009D01*
X167951774Y-85818527D01*
X167951773Y-85818534D01*
X167949746Y-85836006D01*
X167949745Y-85836023D01*
X167949500Y-85838135D01*
X167949500Y-85840278D01*
X167949500Y-86130500D01*
X167939586Y-86167500D01*
X167912500Y-86194586D01*
X167875500Y-86204500D01*
X166931544Y-86204500D01*
X166903225Y-86198867D01*
X166879218Y-86182826D01*
X166852461Y-86156069D01*
X166852461Y-86156068D01*
X166848342Y-86151950D01*
X166735304Y-86094354D01*
X166729550Y-86093442D01*
X166729548Y-86093442D01*
X166615752Y-86075419D01*
X166610000Y-86074508D01*
X166604248Y-86075419D01*
X166490451Y-86093442D01*
X166490447Y-86093442D01*
X166484696Y-86094354D01*
X166479504Y-86096999D01*
X166479502Y-86097000D01*
X166376850Y-86149304D01*
X166376847Y-86149305D01*
X166371658Y-86151950D01*
X166367541Y-86156066D01*
X166367538Y-86156069D01*
X166286069Y-86237538D01*
X166286066Y-86237541D01*
X166281950Y-86241658D01*
X166279305Y-86246847D01*
X166279304Y-86246850D01*
X166227000Y-86349502D01*
X166224354Y-86354696D01*
X166223442Y-86360447D01*
X166223442Y-86360451D01*
X166210118Y-86444581D01*
X166204508Y-86480000D01*
X166010500Y-86480000D01*
X166010500Y-83003227D01*
X166010782Y-82996778D01*
X166016624Y-82930000D01*
X166024968Y-82834623D01*
X166027205Y-82821934D01*
X166068500Y-82667818D01*
X166072910Y-82655703D01*
X166096055Y-82606069D01*
X166140337Y-82511105D01*
X166146775Y-82499954D01*
X166238289Y-82369259D01*
X166246570Y-82359390D01*
X166359390Y-82246570D01*
X166369259Y-82238289D01*
X166499954Y-82146775D01*
X166511105Y-82140337D01*
X166655705Y-82072908D01*
X166667818Y-82068500D01*
X166821934Y-82027205D01*
X166834623Y-82024968D01*
X166964305Y-82013622D01*
X166996778Y-82010782D01*
X167003227Y-82010500D01*
X167003412Y-82010500D01*
X168286385Y-82010500D01*
X168329882Y-82024633D01*
G37*
G04 #@! TD.AperFunction*
M02*
